%TF.GenerationSoftware,KiCad,Pcbnew,10.0.3*%
%TF.CreationDate,2026-09-04T13:44:47+02:00*%
%TF.ProjectId,spacer_aft_end_board_activation_interface,73706163-6572-45f6-9166-745f656e645f,rev?*%
%TF.SameCoordinates,Original*%
%TF.FileFunction,Profile,NP*%
%FSLAX46Y46*%
G04 Gerber Fmt 4.6, Leading zero omitted, Abs format (unit mm)*
G04 Created by KiCad (PCBNEW 10.0.3) date 2026-09-04 13:44:47*
%MOMM*%
%LPD*%
G01*
G04 APERTURE LIST*
%TA.AperFunction,Profile*%
%ADD10C,0.150000*%
%TD*%
G04 APERTURE END LIST*
D10*
X-11726000Y7351000D02*
X-7576000Y7351000D01*
X-11726000Y-1149000D02*
X-11726000Y7351000D01*
X-10783400Y-9015600D02*
X-9903000Y-8135200D01*
X-9903000Y-5303000D02*
X-9102000Y-5303000D01*
X-9903000Y-8135200D02*
X-9903000Y-5303000D01*
X-9102000Y-1149000D02*
X-11726000Y-1149000D01*
X-9102000Y-5303000D02*
X-9102000Y-1149000D01*
X-9015600Y-10783400D02*
X-10783400Y-9015600D01*
X-7576000Y10852000D02*
X-3576000Y10852000D01*
X-7576000Y7351000D02*
X-7576000Y10852000D01*
X-7535200Y-9303000D02*
X-9015600Y-10783400D01*
X-6103000Y-9103000D02*
X-6103000Y-9303000D01*
X-6103000Y-9303000D02*
X-7535200Y-9303000D01*
X-3576000Y10852000D02*
X-3576000Y6001000D01*
X-3576000Y6001000D02*
X-2000000Y6001000D01*
X-2701000Y-9103000D02*
X-6103000Y-9103000D01*
X-2701000Y-12604000D02*
X-2701000Y-9103000D01*
X-2000000Y9502000D02*
X2000000Y9502000D01*
X-2000000Y6001000D02*
X-2000000Y9502000D01*
X17000000Y0D02*
G75*
G02*
X-17000000Y0I-17000000J0D01*
G01*
X-17000000Y0D02*
G75*
G02*
X17000000Y0I17000000J0D01*
G01*
X1299000Y-11003000D02*
X1299000Y-12604000D01*
X1299000Y-12604000D02*
X-2701000Y-12604000D01*
X2000000Y9502000D02*
X2000000Y6001000D01*
X2000000Y6001000D02*
X3576000Y6001000D01*
X3376000Y11403000D02*
X7376000Y11403000D01*
X3376000Y7603000D02*
X3376000Y11403000D01*
X3576000Y7603000D02*
X3376000Y7603000D01*
X3576000Y6001000D02*
X3576000Y7603000D01*
X5151000Y-5602000D02*
X5151000Y-7203000D01*
X5151000Y-7203000D02*
X5701000Y-7203000D01*
X5701000Y-7203000D02*
X5701000Y-11003000D01*
X5701000Y-11003000D02*
X1299000Y-11003000D01*
X6202000Y201000D02*
X6202000Y-1602000D01*
X6202000Y-1602000D02*
X9002000Y-1602000D01*
X7376000Y11403000D02*
X7376000Y9143800D01*
X7376000Y9143800D02*
X9015600Y10783400D01*
X9002000Y-1602000D02*
X9002000Y-5602000D01*
X9002000Y-5602000D02*
X5151000Y-5602000D01*
X9015600Y10783400D02*
X10783400Y9015600D01*
X9669800Y7902000D02*
X10877000Y7902000D01*
X10783400Y9015600D02*
X9669800Y7902000D01*
X10877000Y7902000D02*
X10877000Y950000D01*
X10877000Y950000D02*
X12000000Y950000D01*
X11000000Y201000D02*
X6202000Y201000D01*
X11000000Y-950000D02*
X11000000Y201000D01*
X12000000Y950000D02*
X12000000Y-950000D01*
X12000000Y-950000D02*
X11000000Y-950000D01*
M02*
