M48
; DRILL file KiCad 10.0.3 date 2026-09-18T11:00:01
; FORMAT={-:-/ absolute / metric / decimal}
; #@! TF.CreationDate,2026-09-18T11:00:01+02:00
; #@! TF.GenerationSoftware,Kicad,Pcbnew,10.0.3
; #@! TF.FileFunction,Plated,13,14,Blind
FMAT,2
METRIC
; #@! TA.AperFunction,Plated,Buried,ViaDrill
T1C0.100
%
G90
G05
T1
X-14.87Y2.55
X-14.85Y4.13
X-13.39Y-5.5
X-13.35Y-2.17
X-13.32Y5.79
X-13.3Y7.41
X-13.29Y4.1
X-13.29Y-0.6
X-13.25Y2.58
X-13.24Y1.04
X-13.24Y-6.98
X-11.68Y-7.03
X-11.66Y-5.41
X-11.64Y5.72
X-10.88Y-0.46
X-10.12Y-8.62
X-10.08Y-7.07
X-10.04Y-10.2
X-10.0Y5.76
X-9.98Y-5.43
X-9.3Y2.21
X-8.67Y-2.36
X-8.48Y-8.58
X-7.82Y-2.32
X-7.76Y4.16
X-7.04Y-6.0
X-6.88Y1.78
X-5.95Y0.62
X-4.98Y-3.1
X-3.56Y-6.03
X-2.68Y-4.72
X-2.46Y-0.66
X-2.4Y-9.44
X-1.86Y2.58
X-1.76Y-0.65
X-1.18Y-8.64
X-0.52Y0.74
X-0.52Y-5.56
X-0.42Y-1.79
X-0.387Y-3.406
X-0.14Y-8.01
X0.53Y-7.94
X0.83Y-2.53
X1.73Y-2.42
X2.07Y-7.68
X2.28Y-5.99
X2.3Y5.56
X3.38Y-3.79
X3.4Y-1.95
X3.54Y-7.39
X3.67Y-8.3
X3.9Y4.47
X4.53Y-2.45
X5.88Y-7.14
X6.03Y-1.23
X6.156Y-3.026
X8.0Y-0.05
X8.28Y-4.71
X8.45Y-3.7
X8.72Y7.17
X9.37Y3.54
X9.86Y-1.41
M30
