%TF.GenerationSoftware,KiCad,Pcbnew,10.0.3*%
%TF.CreationDate,2026-09-18T11:00:01+02:00*%
%TF.ProjectId,wakeup_board,77616b65-7570-45f6-926f-6172642e6b69,rev?*%
%TF.SameCoordinates,Original*%
%TF.FileFunction,Paste,Top*%
%TF.FilePolarity,Positive*%
%FSLAX46Y46*%
G04 Gerber Fmt 4.6, Leading zero omitted, Abs format (unit mm)*
G04 Created by KiCad (PCBNEW 10.0.3) date 2026-09-18 11:00:01*
%MOMM*%
%LPD*%
G01*
G04 APERTURE LIST*
%ADD10R,0.600000X0.550000*%
%ADD11R,0.250000X0.475000*%
%ADD12R,0.475000X0.250000*%
%ADD13R,1.200000X0.600000*%
%ADD14R,1.000000X0.900000*%
%ADD15R,1.400000X2.300000*%
%ADD16R,0.950000X0.560000*%
%ADD17R,0.850000X0.950000*%
%ADD18R,0.600000X1.300000*%
%ADD19R,0.600000X1.150000*%
%ADD20R,0.560000X0.950000*%
%ADD21R,0.400000X0.800000*%
%ADD22R,2.500000X1.750000*%
%ADD23R,0.550000X0.600000*%
%ADD24R,1.300000X0.600000*%
%ADD25R,0.350000X0.300000*%
%ADD26R,0.300000X0.350000*%
%ADD27C,0.221000*%
%ADD28R,0.900000X0.900000*%
%ADD29R,0.380000X0.380000*%
%ADD30R,1.400000X0.600000*%
G04 APERTURE END LIST*
D10*
%TO.C,R_IMU2_SCX_PU*%
X-7500000Y-5920000D03*
X-7500000Y-6870000D03*
%TD*%
%TO.C,CBOOST_OUT2*%
X-2540000Y-1470000D03*
X-2540000Y-520000D03*
%TD*%
D11*
%TO.C,U_IMU1*%
X-8193000Y-1163000D03*
X-8693000Y-1163000D03*
X-9193000Y-1163000D03*
X-9693000Y-1163000D03*
D12*
X-9855000Y-500000D03*
X-9855000Y0D03*
X-9855000Y500000D03*
D11*
X-9693000Y1163000D03*
X-9193000Y1163000D03*
X-8693000Y1163000D03*
X-8193000Y1163000D03*
D12*
X-8031000Y500000D03*
X-8031000Y0D03*
X-8031000Y-500000D03*
%TD*%
D13*
%TO.C,U_AON_LDO*%
X-1250000Y950000D03*
X-1250000Y0D03*
X-1250000Y-950000D03*
X1250000Y-950000D03*
X1250000Y950000D03*
%TD*%
D14*
%TO.C,Y_WBA_HSE*%
X-5550000Y11878000D03*
X-5550000Y9778000D03*
X-3650000Y9778000D03*
X-3650000Y11878000D03*
%TD*%
D15*
%TO.C,CBOOST_OUT1*%
X-5401000Y3551000D03*
X-3001000Y3551000D03*
%TD*%
D10*
%TO.C,RPU_MAG_WAKE*%
X1110000Y-9980000D03*
X1110000Y-10930000D03*
%TD*%
D16*
%TO.C,Q_USB_WAKE2*%
X-5110000Y7452000D03*
X-5110000Y5552000D03*
X-3010000Y6502000D03*
%TD*%
D17*
%TO.C,C_WBA_PI2*%
X-800000Y-5202000D03*
X800000Y-5202000D03*
%TD*%
D18*
%TO.C,QMAIN*%
X6462000Y-5056000D03*
X8362000Y-5056000D03*
X7412000Y-2956000D03*
%TD*%
D19*
%TO.C,D_JUMP_WAKE*%
X2921000Y-1100000D03*
X4821000Y-1100000D03*
X3871000Y1100000D03*
%TD*%
D15*
%TO.C,COUT2*%
X-1200000Y6777000D03*
X1200000Y6777000D03*
%TD*%
D12*
%TO.C,U_IMU3*%
X5257000Y6577000D03*
X5257000Y7077000D03*
X5257000Y7577000D03*
X5257000Y8077000D03*
D11*
X5920000Y8239000D03*
X6420000Y8239000D03*
X6920000Y8239000D03*
D12*
X7583000Y8077000D03*
X7583000Y7577000D03*
X7583000Y7077000D03*
X7583000Y6577000D03*
D11*
X6920000Y6415000D03*
X6420000Y6415000D03*
X5920000Y6415000D03*
%TD*%
D18*
%TO.C,Q_AON_EN*%
X10223000Y-1075000D03*
X12123000Y-1075000D03*
X11173000Y1025000D03*
%TD*%
%TO.C,L_PWR*%
X-8800000Y-3620000D03*
X-7200000Y-3620000D03*
%TD*%
D20*
%TO.C,QHOLD*%
X4050000Y2460000D03*
X5950000Y2460000D03*
X5000000Y4560000D03*
%TD*%
D12*
%TO.C,U_IMU2*%
X-6373000Y-8527000D03*
X-6373000Y-8027000D03*
X-6373000Y-7527000D03*
X-6373000Y-7027000D03*
D11*
X-5710000Y-6865000D03*
X-5210000Y-6865000D03*
X-4710000Y-6865000D03*
D12*
X-4047000Y-7027000D03*
X-4047000Y-7527000D03*
X-4047000Y-8027000D03*
X-4047000Y-8527000D03*
D11*
X-4710000Y-8689000D03*
X-5210000Y-8689000D03*
X-5710000Y-8689000D03*
%TD*%
D21*
%TO.C,U_PWR*%
X-950000Y8853000D03*
X0Y8853000D03*
X950000Y8853000D03*
X950000Y11853000D03*
X0Y11853000D03*
X-950000Y11853000D03*
D22*
X0Y10353000D03*
%TD*%
D23*
%TO.C,C_MAG_WAKE*%
X115000Y-9850000D03*
X-835000Y-9850000D03*
%TD*%
D24*
%TO.C,L_WBA_SMPS*%
X2801000Y2370000D03*
X2801000Y3970000D03*
%TD*%
D10*
%TO.C,L_WBA_PI*%
X6320000Y-2140000D03*
X6320000Y-3090000D03*
%TD*%
D19*
%TO.C,D_AON_WAKE*%
X-5872000Y-1100000D03*
X-3972000Y-1100000D03*
X-4922000Y1100000D03*
%TD*%
D25*
%TO.C,U_MAG*%
X-9043000Y5269000D03*
X-9043000Y4769000D03*
X-9043000Y4269000D03*
X-9043000Y3769000D03*
D26*
X-8543000Y3769000D03*
X-8043000Y3769000D03*
D25*
X-7543000Y3769000D03*
X-7543000Y4269000D03*
X-7543000Y4769000D03*
X-7543000Y5269000D03*
D26*
X-8043000Y5269000D03*
X-8543000Y5269000D03*
%TD*%
D27*
%TO.C,U_WBA*%
X6472000Y-265000D03*
X6472000Y135000D03*
X6472000Y535000D03*
X6472000Y935000D03*
X6822000Y-465000D03*
X6822000Y-65000D03*
X6822000Y335000D03*
X6822000Y735000D03*
X6822000Y1135000D03*
X7172000Y-1065000D03*
X7172000Y-665000D03*
X7172000Y-265000D03*
X7172000Y135000D03*
X7172000Y535000D03*
X7172000Y935000D03*
X7522000Y-1265000D03*
X7522000Y-865000D03*
X7522000Y-465000D03*
X7522000Y-65000D03*
X7522000Y335000D03*
X7522000Y735000D03*
X7522000Y1135000D03*
X7872000Y-1065000D03*
X7872000Y-665000D03*
X7872000Y-265000D03*
X7872000Y135000D03*
X7872000Y535000D03*
X7872000Y935000D03*
X8222000Y-1265000D03*
X8222000Y-865000D03*
X8222000Y-465000D03*
X8222000Y-65000D03*
X8222000Y335000D03*
X8222000Y735000D03*
X8222000Y1135000D03*
X8572000Y-1065000D03*
X8572000Y-665000D03*
X8572000Y-265000D03*
X8572000Y135000D03*
X8572000Y535000D03*
X8572000Y935000D03*
%TD*%
D24*
%TO.C,U_MAG_WAKE*%
X2578500Y-8006500D03*
X2578500Y-9906500D03*
X4678500Y-8956500D03*
%TD*%
D28*
%TO.C,J_wakeup_board_spacer_wakeup_board_power_board*%
X13950000Y-5441000D03*
X13950000Y-3841000D03*
X13950000Y-2241000D03*
X13950000Y-641000D03*
X13950000Y959000D03*
X13950000Y2559000D03*
X13950000Y4159000D03*
X13950000Y5759000D03*
X12350000Y-5441000D03*
X12350000Y-3841000D03*
X12350000Y4159000D03*
X12350000Y5759000D03*
X12350000Y7359000D03*
X12350000Y8959000D03*
X10750000Y-5441000D03*
X10750000Y-3841000D03*
X10750000Y4159000D03*
X10750000Y5759000D03*
X10750000Y7359000D03*
X10750000Y8959000D03*
X10750000Y10559000D03*
X9150000Y10559000D03*
X9150000Y12159000D03*
X7550000Y10559000D03*
X7550000Y12159000D03*
X5950000Y-13441000D03*
X5950000Y10559000D03*
X5950000Y12159000D03*
X5950000Y13759000D03*
X4350000Y12159000D03*
X2750000Y12159000D03*
X-450000Y-11841000D03*
X-2050000Y-11841000D03*
X-3650000Y-11841000D03*
X-5250000Y-13441000D03*
X-5250000Y-11841000D03*
X-6850000Y-13441000D03*
X-6850000Y-11841000D03*
X-8450000Y-11841000D03*
X-10050000Y-10241000D03*
X-10050000Y-8641000D03*
X-10050000Y-7041000D03*
X-10050000Y-5441000D03*
X-11650000Y-8641000D03*
X-11650000Y-7041000D03*
X-11650000Y-5441000D03*
X-11650000Y-3841000D03*
X-11650000Y4159000D03*
X-11650000Y5759000D03*
X-13250000Y-7041000D03*
X-13250000Y-5441000D03*
X-13250000Y-3841000D03*
X-13250000Y-2241000D03*
X-13250000Y-641000D03*
X-13250000Y959000D03*
X-13250000Y2559000D03*
X-13250000Y4159000D03*
X-13250000Y5759000D03*
X-13250000Y7359000D03*
X-14850000Y-3841000D03*
X-14850000Y-2241000D03*
X-14850000Y-641000D03*
X-14850000Y959000D03*
X-14850000Y2559000D03*
X-14850000Y4159000D03*
%TD*%
D23*
%TO.C,R_IMU1_SDX_PU*%
X-8850000Y-2430000D03*
X-7900000Y-2430000D03*
%TD*%
D29*
%TO.C,U_MAG_SHELF*%
X3501000Y-3976000D03*
X4151000Y-3976000D03*
X4151000Y-3326000D03*
X3501000Y-3326000D03*
%TD*%
D13*
%TO.C,U_TMR_LDO*%
X-1250000Y4501000D03*
X-1250000Y3551000D03*
X-1250000Y2601000D03*
X1250000Y2601000D03*
X1250000Y4501000D03*
%TD*%
D15*
%TO.C,COUT1*%
X-1200000Y-3226000D03*
X1200000Y-3226000D03*
%TD*%
D30*
%TO.C,U_BOOST*%
X-5742000Y-2776000D03*
X-5742000Y-3726000D03*
X-5742000Y-4676000D03*
X-3242000Y-4676000D03*
X-3242000Y-3726000D03*
X-3242000Y-2776000D03*
%TD*%
M02*
