%TF.GenerationSoftware,KiCad,Pcbnew,10.0.3*%
%TF.CreationDate,2026-09-18T11:00:01+02:00*%
%TF.ProjectId,wakeup_board,77616b65-7570-45f6-926f-6172642e6b69,rev?*%
%TF.SameCoordinates,Original*%
%TF.FileFunction,Copper,L14,Bot*%
%TF.FilePolarity,Positive*%
%FSLAX46Y46*%
G04 Gerber Fmt 4.6, Leading zero omitted, Abs format (unit mm)*
G04 Created by KiCad (PCBNEW 10.0.3) date 2026-09-18 11:00:01*
%MOMM*%
%LPD*%
G01*
G04 APERTURE LIST*
%TA.AperFunction,SMDPad,CuDef*%
%ADD10R,0.550000X0.600000*%
%TD*%
%TA.AperFunction,SMDPad,CuDef*%
%ADD11R,0.600000X0.550000*%
%TD*%
%TA.AperFunction,SMDPad,CuDef*%
%ADD12C,1.000000*%
%TD*%
%TA.AperFunction,SMDPad,CuDef*%
%ADD13R,0.850000X0.950000*%
%TD*%
%TA.AperFunction,SMDPad,CuDef*%
%ADD14R,1.450000X1.150000*%
%TD*%
%TA.AperFunction,SMDPad,CuDef*%
%ADD15R,1.150000X1.450000*%
%TD*%
%TA.AperFunction,SMDPad,CuDef*%
%ADD16C,1.500000*%
%TD*%
%TA.AperFunction,SMDPad,CuDef*%
%ADD17R,0.950000X0.850000*%
%TD*%
%TA.AperFunction,SMDPad,CuDef*%
%ADD18R,0.900000X0.900000*%
%TD*%
%TA.AperFunction,SMDPad,CuDef*%
%ADD19R,0.560000X0.950000*%
%TD*%
%TA.AperFunction,ViaPad*%
%ADD20C,0.500000*%
%TD*%
%TA.AperFunction,ViaPad*%
%ADD21C,0.450000*%
%TD*%
%TA.AperFunction,ViaPad*%
%ADD22C,0.400000*%
%TD*%
%TA.AperFunction,ViaPad*%
%ADD23C,0.250000*%
%TD*%
%TA.AperFunction,Conductor*%
%ADD24C,0.100000*%
%TD*%
%TA.AperFunction,Conductor*%
%ADD25C,0.200000*%
%TD*%
%TA.AperFunction,Conductor*%
%ADD26C,0.250000*%
%TD*%
%TA.AperFunction,Conductor*%
%ADD27C,0.187400*%
%TD*%
%TA.AperFunction,Conductor*%
%ADD28C,0.180000*%
%TD*%
G04 APERTURE END LIST*
D10*
%TO.P,C_WBA_NRST,1*%
%TO.N,WBA_NRST*%
X-6880000Y4170000D03*
%TO.P,C_WBA_NRST,2*%
%TO.N,FLEX_GND*%
X-7830000Y4170000D03*
%TD*%
D11*
%TO.P,C_WBA_VDD1,1*%
%TO.N,3V3_AON*%
X-2477000Y-1626000D03*
%TO.P,C_WBA_VDD1,2*%
%TO.N,FLEX_GND*%
X-2477000Y-676000D03*
%TD*%
D10*
%TO.P,C_IMU2_1,1*%
%TO.N,3V3*%
X-1080000Y-8010000D03*
%TO.P,C_IMU2_1,2*%
%TO.N,FLEX_GND*%
X-130000Y-8010000D03*
%TD*%
%TO.P,R_JUMP_PU,1*%
%TO.N,BAT_RAW*%
X3601000Y6555000D03*
%TO.P,R_JUMP_PU,2*%
%TO.N,JUMP_WAKE*%
X2651000Y6555000D03*
%TD*%
D11*
%TO.P,C_IMU1_1,1*%
%TO.N,3V3*%
X-10920000Y-1410000D03*
%TO.P,C_IMU1_1,2*%
%TO.N,FLEX_GND*%
X-10920000Y-460000D03*
%TD*%
D12*
%TO.P,TP_IMU1_INT,1*%
%TO.N,IMU1_INT*%
X2302000Y450000D03*
%TD*%
D11*
%TO.P,RPU_I2C2_SDA,1*%
%TO.N,3V3*%
X-9680000Y3625000D03*
%TO.P,RPU_I2C2_SDA,2*%
%TO.N,I2C2_SDA*%
X-9680000Y4575000D03*
%TD*%
D10*
%TO.P,R_BOOST_FB2,1*%
%TO.N,BOOST_FB*%
X550000Y-5606000D03*
%TO.P,R_BOOST_FB2,2*%
%TO.N,FLEX_GND*%
X-400000Y-5606000D03*
%TD*%
D13*
%TO.P,C_WBA_BULK_1,1*%
%TO.N,3V3_AON*%
X6700000Y-4770000D03*
%TO.P,C_WBA_BULK_1,2*%
%TO.N,FLEX_GND*%
X8300000Y-4770000D03*
%TD*%
D10*
%TO.P,R_JUMP_WAKE,1*%
%TO.N,JUMP_WAKE_K*%
X-1202000Y5404000D03*
%TO.P,R_JUMP_WAKE,2*%
%TO.N,JUMP_WAKE*%
X-2152000Y5404000D03*
%TD*%
D11*
%TO.P,C_WBA_VDD11,1*%
%TO.N,WBA_VDD11*%
X7890000Y770000D03*
%TO.P,C_WBA_VDD11,2*%
%TO.N,FLEX_GND*%
X7890000Y-180000D03*
%TD*%
D13*
%TO.P,C_IMU1_2,1*%
%TO.N,3V3*%
X-10980000Y2180000D03*
%TO.P,C_IMU1_2,2*%
%TO.N,FLEX_GND*%
X-9380000Y2180000D03*
%TD*%
D14*
%TO.P,C_AON_IN,1*%
%TO.N,BAT_RAW*%
X4500000Y-4350000D03*
%TO.P,C_AON_IN,2*%
%TO.N,FLEX_GND*%
X4500000Y-2400000D03*
%TD*%
D11*
%TO.P,R_WILK_ISO,1*%
%TO.N,YAGI_WILK_A*%
X4504000Y1576000D03*
%TO.P,R_WILK_ISO,2*%
%TO.N,YAGI_WILK_B*%
X4504000Y2526000D03*
%TD*%
D12*
%TO.P,TP_GND,1*%
%TO.N,FLEX_GND*%
X6156000Y-3026000D03*
%TD*%
D11*
%TO.P,RHOLD_AON,1*%
%TO.N,WBA_AON_HOLD*%
X7290000Y-2300000D03*
%TO.P,RHOLD_AON,2*%
%TO.N,AON_EN*%
X7290000Y-3250000D03*
%TD*%
D15*
%TO.P,C_AON_OUT,1*%
%TO.N,3V3_AON*%
X-1576000Y-6031000D03*
%TO.P,C_AON_OUT,2*%
%TO.N,FLEX_GND*%
X-3526000Y-6031000D03*
%TD*%
D16*
%TO.P,TP_IMU3_INT,1*%
%TO.N,IMU3_INT*%
X5655000Y4277000D03*
%TD*%
D10*
%TO.P,R_IMU2_SDX_PU,1*%
%TO.N,3V3*%
X-6350000Y-7660000D03*
%TO.P,R_IMU2_SDX_PU,2*%
%TO.N,IMU2_SDX*%
X-7300000Y-7660000D03*
%TD*%
D11*
%TO.P,RPU_SDA_EXT,1*%
%TO.N,3V3*%
X-7105000Y-25000D03*
%TO.P,RPU_SDA_EXT,2*%
%TO.N,SYS_I2C_SDA*%
X-7105000Y925000D03*
%TD*%
D10*
%TO.P,RHOLD2_PD,1*%
%TO.N,QHOLD2_GATE*%
X3126000Y5500000D03*
%TO.P,RHOLD2_PD,2*%
%TO.N,FLEX_GND*%
X2176000Y5500000D03*
%TD*%
%TO.P,R_WBARST_PD,1*%
%TO.N,WBA_RST_CMD*%
X475000Y0D03*
%TO.P,R_WBARST_PD,2*%
%TO.N,FLEX_GND*%
X-475000Y0D03*
%TD*%
%TO.P,C_IMU2_3,1*%
%TO.N,3V3*%
X-210000Y-8710000D03*
%TO.P,C_IMU2_3,2*%
%TO.N,FLEX_GND*%
X-1160000Y-8710000D03*
%TD*%
D14*
%TO.P,C_MAG2,1*%
%TO.N,3V3*%
X-7090000Y8050000D03*
%TO.P,C_MAG2,2*%
%TO.N,FLEX_GND*%
X-7090000Y6100000D03*
%TD*%
D11*
%TO.P,R_WBA_BOOT0,1*%
%TO.N,WBA_BOOT0*%
X2010000Y-6810000D03*
%TO.P,R_WBA_BOOT0,2*%
%TO.N,FLEX_GND*%
X2010000Y-7760000D03*
%TD*%
D12*
%TO.P,TP_IMU2_INT,1*%
%TO.N,IMU2_INT*%
X2150000Y4353000D03*
%TD*%
D10*
%TO.P,RHOLD2_G,1*%
%TO.N,WBA_WAKE*%
X4851000Y5504000D03*
%TO.P,RHOLD2_G,2*%
%TO.N,QHOLD2_GATE*%
X3901000Y5504000D03*
%TD*%
D11*
%TO.P,C_IMU3_1,1*%
%TO.N,3V3*%
X8710000Y8120000D03*
%TO.P,C_IMU3_1,2*%
%TO.N,FLEX_GND*%
X8710000Y7170000D03*
%TD*%
%TO.P,C_IMU1_3,1*%
%TO.N,3V3*%
X-1852000Y1576000D03*
%TO.P,C_IMU1_3,2*%
%TO.N,FLEX_GND*%
X-1852000Y2526000D03*
%TD*%
%TO.P,RPU_SCL_EXT,1*%
%TO.N,3V3*%
X-3003000Y4129000D03*
%TO.P,RPU_SCL_EXT,2*%
%TO.N,SYS_I2C_SCL*%
X-3003000Y5079000D03*
%TD*%
D10*
%TO.P,RMAIN_PU,1*%
%TO.N,BAT_RAW*%
X-3580000Y-700000D03*
%TO.P,RMAIN_PU,2*%
%TO.N,MAIN_SW_GATE*%
X-4530000Y-700000D03*
%TD*%
D12*
%TO.P,TP_MAG_DRDY,1*%
%TO.N,MAG_DRDY*%
X-76000Y3102000D03*
%TD*%
D17*
%TO.P,CBOOST_IN1_1,1*%
%TO.N,REG_IN_MAIN*%
X7370000Y-6500000D03*
%TO.P,CBOOST_IN1_1,2*%
%TO.N,FLEX_GND*%
X7370000Y-8100000D03*
%TD*%
D10*
%TO.P,C_WBA_PI1,1*%
%TO.N,WBA_RF*%
X7025000Y-1310000D03*
%TO.P,C_WBA_PI1,2*%
%TO.N,FLEX_GND*%
X6075000Y-1310000D03*
%TD*%
D11*
%TO.P,C_CAM_VDD,1*%
%TO.N,COMP_1V8*%
X-11250000Y4050000D03*
%TO.P,C_CAM_VDD,2*%
%TO.N,FLEX_GND*%
X-11250000Y5000000D03*
%TD*%
D13*
%TO.P,C_WBA_BULK_2,1*%
%TO.N,3V3_AON*%
X-1010000Y-2628000D03*
%TO.P,C_WBA_BULK_2,2*%
%TO.N,FLEX_GND*%
X590000Y-2628000D03*
%TD*%
D10*
%TO.P,RHOLD_G,1*%
%TO.N,PWR_HOLD*%
X2290000Y3290000D03*
%TO.P,RHOLD_G,2*%
%TO.N,QHOLD_GATE*%
X3240000Y3290000D03*
%TD*%
%TO.P,CBOOST_IN2,1*%
%TO.N,REG_IN_MAIN*%
X-11325000Y-3830000D03*
%TO.P,CBOOST_IN2,2*%
%TO.N,FLEX_GND*%
X-12275000Y-3830000D03*
%TD*%
D18*
%TO.P,P_wakeup_board_spacer_fin_ble_board_wakeup_board,1*%
%TO.N,3V3*%
X13950000Y-5441000D03*
%TO.P,P_wakeup_board_spacer_fin_ble_board_wakeup_board,2*%
%TO.N,3V3_AON*%
X13950000Y-3841000D03*
%TO.P,P_wakeup_board_spacer_fin_ble_board_wakeup_board,3*%
%TO.N,ACTIVATE_CONFIRM*%
X13950000Y-2241000D03*
%TO.P,P_wakeup_board_spacer_fin_ble_board_wakeup_board,4*%
%TO.N,ACTIVATE_SET*%
X13950000Y-641000D03*
%TO.P,P_wakeup_board_spacer_fin_ble_board_wakeup_board,5*%
%TO.N,BAT_CELL1_POS*%
X13950000Y959000D03*
%TO.P,P_wakeup_board_spacer_fin_ble_board_wakeup_board,6*%
%TO.N,BAT_CELL2_POS*%
X13950000Y2559000D03*
%TO.P,P_wakeup_board_spacer_fin_ble_board_wakeup_board,7*%
%TO.N,BAT_CELL3_POS*%
X13950000Y4159000D03*
%TO.P,P_wakeup_board_spacer_fin_ble_board_wakeup_board,8*%
%TO.N,BAT_PROT*%
X13950000Y5759000D03*
%TO.P,P_wakeup_board_spacer_fin_ble_board_wakeup_board,9*%
%TO.N,BAT_RAW*%
X12350000Y-5441000D03*
%TO.P,P_wakeup_board_spacer_fin_ble_board_wakeup_board,10*%
%TO.N,BOOT0*%
X12350000Y-3841000D03*
%TO.P,P_wakeup_board_spacer_fin_ble_board_wakeup_board,11*%
%TO.N,COMP_5V*%
X12350000Y-2241000D03*
%TO.P,P_wakeup_board_spacer_fin_ble_board_wakeup_board,12*%
%TO.N,COMP_5V_RAW*%
X12350000Y-641000D03*
%TO.P,P_wakeup_board_spacer_fin_ble_board_wakeup_board,13*%
%TO.N,COMP_OUT*%
X12350000Y959000D03*
%TO.P,P_wakeup_board_spacer_fin_ble_board_wakeup_board,14*%
%TO.N,COMP_SWDCLK*%
X12350000Y2559000D03*
%TO.P,P_wakeup_board_spacer_fin_ble_board_wakeup_board,15*%
%TO.N,COMP_SWDIO*%
X12350000Y4159000D03*
%TO.P,P_wakeup_board_spacer_fin_ble_board_wakeup_board,16*%
%TO.N,EXT_CAN_RX*%
X12350000Y5759000D03*
%TO.P,P_wakeup_board_spacer_fin_ble_board_wakeup_board,17*%
%TO.N,EXT_CAN_TX*%
X12350000Y7359000D03*
%TO.P,P_wakeup_board_spacer_fin_ble_board_wakeup_board,18*%
%TO.N,FLEX_GND*%
X12350000Y8959000D03*
%TO.P,P_wakeup_board_spacer_fin_ble_board_wakeup_board,19*%
%TO.N,GPIO_EXT_0*%
X10750000Y-5441000D03*
%TO.P,P_wakeup_board_spacer_fin_ble_board_wakeup_board,20*%
%TO.N,GPIO_EXT_1*%
X10750000Y-3841000D03*
%TO.P,P_wakeup_board_spacer_fin_ble_board_wakeup_board,21*%
%TO.N,GPIO_EXT_2*%
X10750000Y-2241000D03*
%TO.P,P_wakeup_board_spacer_fin_ble_board_wakeup_board,22*%
%TO.N,GPIO_EXT_3*%
X10750000Y-641000D03*
%TO.P,P_wakeup_board_spacer_fin_ble_board_wakeup_board,23*%
%TO.N,H3LIS_INT1*%
X10750000Y959000D03*
%TO.P,P_wakeup_board_spacer_fin_ble_board_wakeup_board,24*%
%TO.N,I2C3_SCL*%
X10750000Y2559000D03*
%TO.P,P_wakeup_board_spacer_fin_ble_board_wakeup_board,25*%
%TO.N,I2C3_SDA*%
X10750000Y4159000D03*
%TO.P,P_wakeup_board_spacer_fin_ble_board_wakeup_board,26*%
%TO.N,JUMP_WAKE*%
X10750000Y5759000D03*
%TO.P,P_wakeup_board_spacer_fin_ble_board_wakeup_board,27*%
%TO.N,NRST*%
X10750000Y7359000D03*
%TO.P,P_wakeup_board_spacer_fin_ble_board_wakeup_board,28*%
%TO.N,SWO*%
X10750000Y8959000D03*
%TO.P,P_wakeup_board_spacer_fin_ble_board_wakeup_board,29*%
%TO.N,SYS_I2C_SCL*%
X10750000Y10559000D03*
%TO.P,P_wakeup_board_spacer_fin_ble_board_wakeup_board,30*%
%TO.N,SYS_I2C_SDA*%
X5950000Y-13441000D03*
%TO.P,P_wakeup_board_spacer_fin_ble_board_wakeup_board,31*%
%TO.N,SYS_SPI_CS_FIN*%
X5950000Y13759000D03*
%TO.P,P_wakeup_board_spacer_fin_ble_board_wakeup_board,32*%
%TO.N,SYS_SPI_MISO*%
X-450000Y12159000D03*
%TO.P,P_wakeup_board_spacer_fin_ble_board_wakeup_board,33*%
%TO.N,SYS_SPI_MOSI*%
X-2050000Y12159000D03*
%TO.P,P_wakeup_board_spacer_fin_ble_board_wakeup_board,34*%
%TO.N,SYS_SPI_SCLK*%
X-3650000Y12159000D03*
%TO.P,P_wakeup_board_spacer_fin_ble_board_wakeup_board,35*%
%TO.N,3V3*%
X-5250000Y-13441000D03*
%TO.P,P_wakeup_board_spacer_fin_ble_board_wakeup_board,36*%
%TO.N,3V3_AON*%
X-5250000Y12159000D03*
%TO.P,P_wakeup_board_spacer_fin_ble_board_wakeup_board,37*%
%TO.N,BAT_PROT*%
X-5250000Y13759000D03*
%TO.P,P_wakeup_board_spacer_fin_ble_board_wakeup_board,38*%
%TO.N,BAT_RAW*%
X-6850000Y-13441000D03*
%TO.P,P_wakeup_board_spacer_fin_ble_board_wakeup_board,39*%
%TO.N,COMP_5V*%
X-6850000Y13759000D03*
%TO.P,P_wakeup_board_spacer_fin_ble_board_wakeup_board,40*%
%TO.N,COMP_5V_RAW*%
X-8450000Y-11841000D03*
%TO.P,P_wakeup_board_spacer_fin_ble_board_wakeup_board,41*%
%TO.N,3V3*%
X-8450000Y-10241000D03*
%TO.P,P_wakeup_board_spacer_fin_ble_board_wakeup_board,42*%
%TO.N,FLEX_GND*%
X-8450000Y-8641000D03*
%TO.P,P_wakeup_board_spacer_fin_ble_board_wakeup_board,43*%
X-8450000Y-7041000D03*
%TO.P,P_wakeup_board_spacer_fin_ble_board_wakeup_board,44*%
X-8450000Y-5441000D03*
%TO.P,P_wakeup_board_spacer_fin_ble_board_wakeup_board,45*%
X-10050000Y-10241000D03*
%TO.P,P_wakeup_board_spacer_fin_ble_board_wakeup_board,46*%
X-10050000Y-8641000D03*
%TO.P,P_wakeup_board_spacer_fin_ble_board_wakeup_board,47*%
X-10050000Y-7041000D03*
%TO.P,P_wakeup_board_spacer_fin_ble_board_wakeup_board,48*%
X-10050000Y-5441000D03*
%TO.P,P_wakeup_board_spacer_fin_ble_board_wakeup_board,49*%
X-10050000Y5759000D03*
%TO.P,P_wakeup_board_spacer_fin_ble_board_wakeup_board,50*%
X-11650000Y-8641000D03*
%TO.P,P_wakeup_board_spacer_fin_ble_board_wakeup_board,51*%
X-11650000Y-7041000D03*
%TO.P,P_wakeup_board_spacer_fin_ble_board_wakeup_board,52*%
X-11650000Y-5441000D03*
%TO.P,P_wakeup_board_spacer_fin_ble_board_wakeup_board,53*%
X-11650000Y5759000D03*
%TO.P,P_wakeup_board_spacer_fin_ble_board_wakeup_board,54*%
X-13250000Y-7041000D03*
%TO.P,P_wakeup_board_spacer_fin_ble_board_wakeup_board,55*%
X-13250000Y-5441000D03*
%TO.P,P_wakeup_board_spacer_fin_ble_board_wakeup_board,56*%
X-13250000Y-3841000D03*
%TO.P,P_wakeup_board_spacer_fin_ble_board_wakeup_board,57*%
X-13250000Y-2241000D03*
%TO.P,P_wakeup_board_spacer_fin_ble_board_wakeup_board,58*%
X-13250000Y-641000D03*
%TO.P,P_wakeup_board_spacer_fin_ble_board_wakeup_board,59*%
X-13250000Y959000D03*
%TO.P,P_wakeup_board_spacer_fin_ble_board_wakeup_board,60*%
X-13250000Y2559000D03*
%TO.P,P_wakeup_board_spacer_fin_ble_board_wakeup_board,61*%
X-13250000Y4159000D03*
%TO.P,P_wakeup_board_spacer_fin_ble_board_wakeup_board,62*%
X-13250000Y5759000D03*
%TO.P,P_wakeup_board_spacer_fin_ble_board_wakeup_board,63*%
X-13250000Y7359000D03*
%TO.P,P_wakeup_board_spacer_fin_ble_board_wakeup_board,64*%
X-14850000Y-3841000D03*
%TO.P,P_wakeup_board_spacer_fin_ble_board_wakeup_board,65*%
X-14850000Y-2241000D03*
%TO.P,P_wakeup_board_spacer_fin_ble_board_wakeup_board,66*%
X-14850000Y-641000D03*
%TO.P,P_wakeup_board_spacer_fin_ble_board_wakeup_board,67*%
X-14850000Y959000D03*
%TO.P,P_wakeup_board_spacer_fin_ble_board_wakeup_board,68*%
X-14850000Y2559000D03*
%TO.P,P_wakeup_board_spacer_fin_ble_board_wakeup_board,69*%
X-14850000Y4159000D03*
%TD*%
D10*
%TO.P,C_WBA_VDDA,1*%
%TO.N,3V3_AON*%
X475000Y701000D03*
%TO.P,C_WBA_VDDA,2*%
%TO.N,FLEX_GND*%
X-475000Y701000D03*
%TD*%
D11*
%TO.P,R_IMU3_SDX_PU,1*%
%TO.N,3V3*%
X-2553000Y1576000D03*
%TO.P,R_IMU3_SDX_PU,2*%
%TO.N,IMU3_SDX*%
X-2553000Y2526000D03*
%TD*%
D10*
%TO.P,RPU_I2C3_SDA,1*%
%TO.N,3V3*%
X7090000Y2620000D03*
%TO.P,RPU_I2C3_SDA,2*%
%TO.N,I2C3_SDA*%
X6140000Y2620000D03*
%TD*%
D12*
%TO.P,TP_WILK_B,1*%
%TO.N,YAGI_WILK_B*%
X-76000Y5404000D03*
%TD*%
%TO.P,TP_3V3,1*%
%TO.N,3V3*%
X4954000Y-175000D03*
%TD*%
D10*
%TO.P,C_WBA_HSE_VDD,1*%
%TO.N,3V3_AON*%
X7370000Y-3950000D03*
%TO.P,C_WBA_HSE_VDD,2*%
%TO.N,FLEX_GND*%
X8320000Y-3950000D03*
%TD*%
D17*
%TO.P,CBOOST_IN1_3,1*%
%TO.N,REG_IN_MAIN*%
X-7830000Y-4050000D03*
%TO.P,CBOOST_IN1_3,2*%
%TO.N,FLEX_GND*%
X-7830000Y-2450000D03*
%TD*%
D13*
%TO.P,C_IMU2_2,1*%
%TO.N,3V3*%
X-860000Y-9670000D03*
%TO.P,C_IMU2_2,2*%
%TO.N,FLEX_GND*%
X-2460000Y-9670000D03*
%TD*%
D11*
%TO.P,C_IR_WAKE,1*%
%TO.N,IR_WAKE*%
X9880000Y-470000D03*
%TO.P,C_IR_WAKE,2*%
%TO.N,FLEX_GND*%
X9880000Y-1420000D03*
%TD*%
D10*
%TO.P,CMAIN_HOLD,1*%
%TO.N,MAIN_SW_GATE*%
X2701000Y-2453000D03*
%TO.P,CMAIN_HOLD,2*%
%TO.N,FLEX_GND*%
X1751000Y-2453000D03*
%TD*%
D11*
%TO.P,R_BOOST_FB1,1*%
%TO.N,BOOST_OUT*%
X-7105000Y-1626000D03*
%TO.P,R_BOOST_FB1,2*%
%TO.N,BOOST_FB*%
X-7105000Y-676000D03*
%TD*%
D10*
%TO.P,C_WBA_VDDSMPS,1*%
%TO.N,3V3_AON*%
X4540000Y-8280000D03*
%TO.P,C_WBA_VDDSMPS,2*%
%TO.N,FLEX_GND*%
X3590000Y-8280000D03*
%TD*%
%TO.P,C_WBA_VDDANA,1*%
%TO.N,3V3_AON*%
X-1751000Y-4755000D03*
%TO.P,C_WBA_VDDANA,2*%
%TO.N,FLEX_GND*%
X-2701000Y-4755000D03*
%TD*%
%TO.P,COUT3,1*%
%TO.N,3V3*%
X475000Y-1752000D03*
%TO.P,COUT3,2*%
%TO.N,FLEX_GND*%
X-475000Y-1752000D03*
%TD*%
%TO.P,RAON_PU,1*%
%TO.N,BAT_RAW*%
X-3560000Y180000D03*
%TO.P,RAON_PU,2*%
%TO.N,AON_EN_GATE*%
X-4510000Y180000D03*
%TD*%
%TO.P,RPU_I2C2_SCL,1*%
%TO.N,3V3*%
X770000Y-4730000D03*
%TO.P,RPU_I2C2_SCL,2*%
%TO.N,I2C2_SCL*%
X1720000Y-4730000D03*
%TD*%
D17*
%TO.P,C_MAG_C1,1*%
%TO.N,MAG_C1_TERM*%
X4510000Y-10870000D03*
%TO.P,C_MAG_C1,2*%
%TO.N,FLEX_GND*%
X4510000Y-9270000D03*
%TD*%
D10*
%TO.P,R_IMU1_SCX_PU,1*%
%TO.N,3V3*%
X-10930000Y-2500000D03*
%TO.P,R_IMU1_SCX_PU,2*%
%TO.N,IMU1_SCX*%
X-9980000Y-2500000D03*
%TD*%
D13*
%TO.P,CBOOST_IN1_2,1*%
%TO.N,REG_IN_MAIN*%
X-5342000Y-6201000D03*
%TO.P,CBOOST_IN1_2,2*%
%TO.N,FLEX_GND*%
X-6942000Y-6201000D03*
%TD*%
D11*
%TO.P,RHOLD_PD,1*%
%TO.N,QHOLD_GATE*%
X3940000Y3510000D03*
%TO.P,RHOLD_PD,2*%
%TO.N,FLEX_GND*%
X3940000Y4460000D03*
%TD*%
D10*
%TO.P,R_WBA_NRST,1*%
%TO.N,3V3_AON*%
X2000000Y6555000D03*
%TO.P,R_WBA_NRST,2*%
%TO.N,WBA_NRST*%
X1050000Y6555000D03*
%TD*%
D12*
%TO.P,TP_YAGI_RF_B,1*%
%TO.N,YAGI_RF_B*%
X-2226000Y-3604000D03*
%TD*%
D11*
%TO.P,C_WBA_VDDRF,1*%
%TO.N,3V3_AON*%
X5980000Y-6140000D03*
%TO.P,C_WBA_VDDRF,2*%
%TO.N,FLEX_GND*%
X5980000Y-7090000D03*
%TD*%
D13*
%TO.P,CBOOST_IN1_4,1*%
%TO.N,REG_IN_MAIN*%
X5090000Y-7380000D03*
%TO.P,CBOOST_IN1_4,2*%
%TO.N,FLEX_GND*%
X3490000Y-7380000D03*
%TD*%
D10*
%TO.P,RPU_I2C3_SCL,1*%
%TO.N,3V3*%
X310000Y6555000D03*
%TO.P,RPU_I2C3_SCL,2*%
%TO.N,I2C3_SCL*%
X-640000Y6555000D03*
%TD*%
%TO.P,C_WBA_VDD2,1*%
%TO.N,3V3_AON*%
X3340000Y-5940000D03*
%TO.P,C_WBA_VDD2,2*%
%TO.N,FLEX_GND*%
X2390000Y-5940000D03*
%TD*%
D11*
%TO.P,C_WBA_VDDHPA,1*%
%TO.N,3V3_AON*%
X-1776000Y-1626000D03*
%TO.P,C_WBA_VDDHPA,2*%
%TO.N,FLEX_GND*%
X-1776000Y-676000D03*
%TD*%
D12*
%TO.P,TP_BAT,1*%
%TO.N,BAT_PROT*%
X4478000Y-5954000D03*
%TD*%
D10*
%TO.P,R_MAG_SHELF,1*%
%TO.N,MAG_SHELF_K*%
X2701000Y-3855000D03*
%TO.P,R_MAG_SHELF,2*%
%TO.N,MAG_SHELF_N*%
X1751000Y-3855000D03*
%TD*%
D17*
%TO.P,CBOOST_IN1_5,1*%
%TO.N,REG_IN_MAIN*%
X-8900000Y-4010000D03*
%TO.P,CBOOST_IN1_5,2*%
%TO.N,FLEX_GND*%
X-8900000Y-2410000D03*
%TD*%
D10*
%TO.P,RPU_IR_WAKE,1*%
%TO.N,3V3_AON*%
X9920000Y460000D03*
%TO.P,RPU_IR_WAKE,2*%
%TO.N,IR_WAKE*%
X8970000Y460000D03*
%TD*%
D11*
%TO.P,C_MAG_SHELF,1*%
%TO.N,TMR_VDD*%
X-4978000Y-4079000D03*
%TO.P,C_MAG_SHELF,2*%
%TO.N,FLEX_GND*%
X-4978000Y-3129000D03*
%TD*%
D19*
%TO.P,Q_WBA_RST,1*%
%TO.N,WBA_RST_CMD*%
X-5010000Y1776000D03*
%TO.P,Q_WBA_RST,2*%
%TO.N,FLEX_GND*%
X-6910000Y1776000D03*
%TO.P,Q_WBA_RST,3*%
%TO.N,WBA_NRST*%
X-5960000Y3876000D03*
%TD*%
D13*
%TO.P,C_IMU3_2,1*%
%TO.N,3V3*%
X5030000Y9190000D03*
%TO.P,C_IMU3_2,2*%
%TO.N,FLEX_GND*%
X6630000Y9190000D03*
%TD*%
D10*
%TO.P,C_IMU3_3,1*%
%TO.N,3V3*%
X6020000Y10460000D03*
%TO.P,C_IMU3_3,2*%
%TO.N,FLEX_GND*%
X6970000Y10460000D03*
%TD*%
D16*
%TO.P,TP_YAGI_RF_A,1*%
%TO.N,YAGI_RF_A*%
X-3827000Y-2903000D03*
%TD*%
D12*
%TO.P,TP_WILK_A,1*%
%TO.N,YAGI_WILK_A*%
X2150000Y2051000D03*
%TD*%
D14*
%TO.P,C_TMR_LDO,1*%
%TO.N,TMR_VDD*%
X-5955000Y-1475000D03*
%TO.P,C_TMR_LDO,2*%
%TO.N,FLEX_GND*%
X-5955000Y475000D03*
%TD*%
D10*
%TO.P,C_WBA_VDDRFPA,1*%
%TO.N,3V3_AON*%
X850000Y7320000D03*
%TO.P,C_WBA_VDDRFPA,2*%
%TO.N,FLEX_GND*%
X-100000Y7320000D03*
%TD*%
D11*
%TO.P,C_MAG1,1*%
%TO.N,3V3*%
X560000Y-8935000D03*
%TO.P,C_MAG1,2*%
%TO.N,FLEX_GND*%
X560000Y-7985000D03*
%TD*%
%TO.P,R_IMU3_SCX_PU,1*%
%TO.N,3V3*%
X-2520000Y-25000D03*
%TO.P,R_IMU3_SCX_PU,2*%
%TO.N,IMU3_SCX*%
X-2520000Y925000D03*
%TD*%
D20*
%TO.N,3V3*%
X8210000Y8080000D03*
D21*
X-2100000Y-7576000D03*
X3050000Y9629000D03*
X-3450000Y-7576000D03*
X-9066900Y-9530000D03*
X-6270000Y7300000D03*
X-11830000Y1300000D03*
X11550000Y-4641000D03*
X-1500000Y7560000D03*
D20*
X5754998Y8797296D03*
D21*
X-3005981Y1916643D03*
X4656000Y6668900D03*
X7280000Y-10770000D03*
X3350000Y9279000D03*
X1607066Y11069938D03*
X90000Y-3990000D03*
%TO.N,IMU2_SCX*%
X2399100Y-8695300D03*
D22*
X8427900Y2897100D03*
D21*
X-6450024Y-9281824D03*
%TO.N,BOOST_OUT*%
X-10361286Y-931704D03*
X-1492300Y8961500D03*
X-6329749Y8948084D03*
X-6360800Y5144141D03*
%TO.N,FLEX_GND*%
X-14890000Y940000D03*
X0Y10160000D03*
X-15230000Y-3065998D03*
X-6480001Y774541D03*
X4095998Y-1412480D03*
X5719391Y-8956500D03*
X-15401434Y171470D03*
X11562470Y9510434D03*
X-8216900Y-7082900D03*
X-2791999Y-9801000D03*
X-7293000Y5769000D03*
D20*
X7250000Y8950000D03*
D21*
X-7430000Y11050000D03*
X-12480000Y-7810000D03*
D23*
X-11680000Y-7030000D03*
X8450000Y-3700000D03*
X-11660000Y-5410000D03*
X-5950000Y620000D03*
X-11640000Y5720000D03*
X-520000Y740000D03*
X-6880000Y1780000D03*
X2070000Y-7680000D03*
X-1180000Y-8640000D03*
X-13320000Y5790000D03*
X-8670000Y-2360000D03*
X-13350000Y-2170000D03*
X2300000Y5560000D03*
X3400000Y-1950000D03*
X530000Y-7940000D03*
X-13240000Y-6980000D03*
X8720000Y7170000D03*
X-14850000Y4130000D03*
X-1760000Y-650000D03*
X6030000Y-1230000D03*
X-386945Y-3406284D03*
X5880000Y-7140000D03*
X8280000Y-4710000D03*
X-9300000Y2210000D03*
X3900000Y4470000D03*
X-3560000Y-6030000D03*
X1730000Y-2420000D03*
X-7760000Y4160000D03*
X-10040000Y-10200000D03*
X-7040000Y-6000000D03*
X-140000Y-8010000D03*
X-10000000Y5760000D03*
X-13290000Y4100000D03*
X9860000Y-1410000D03*
X-2680000Y-4720000D03*
X3540000Y-7390000D03*
X-14870000Y2550000D03*
X8000000Y-50000D03*
X-9980000Y-5430000D03*
X-520000Y-5560000D03*
X830000Y-2530000D03*
X-420000Y-1790000D03*
X-13300000Y7410000D03*
X-13290000Y-600000D03*
X2280000Y-5990000D03*
X3670000Y-8300000D03*
X-10120000Y-8620000D03*
X-1860000Y2580000D03*
X-2400000Y-9440000D03*
X-10080000Y-7070000D03*
X-13240000Y1040000D03*
X3380000Y-3790000D03*
X-7820000Y-2320000D03*
X6156000Y-3026000D03*
X-13250000Y2580000D03*
X4530000Y-2450000D03*
X-13390000Y-5500000D03*
X-10880000Y-460000D03*
X-2460000Y-660000D03*
X-4980000Y-3100000D03*
X-8480000Y-8580000D03*
D21*
%TO.N,IMU1_SCX*%
X-9798300Y-2569541D03*
%TO.N,IMU1_INT*%
X1550000Y324998D03*
X-10059533Y-1841275D03*
X-6491800Y12768800D03*
%TO.N,I2C2_SCL*%
X1550352Y-5258283D03*
X9255000Y-1593200D03*
X8300000Y11220000D03*
X-8538000Y1974300D03*
X-9225500Y5919000D03*
%TO.N,I2C2_SDA*%
X-8978800Y3237900D03*
D22*
X8037544Y-2688281D03*
D21*
X-571000Y14362200D03*
%TO.N,BAT_RAW*%
X12468714Y-3035644D03*
X4420000Y-14810000D03*
X11250000Y-6600000D03*
X5404600Y-5293100D03*
X14735000Y859000D03*
X-12450000Y7590600D03*
X-499200Y1984500D03*
X-12450000Y4152600D03*
X3597500Y7377400D03*
%TO.N,AON_EN*%
X9090000Y-3960000D03*
X6680047Y-3690002D03*
%TO.N,3V3_AON*%
X2316446Y8866446D03*
X3907542Y-6580000D03*
X-1279040Y-7082900D03*
X131621Y1188379D03*
X-20687Y-9700819D03*
X3852494Y8762717D03*
X11864999Y185889D03*
X13143312Y-3543259D03*
X-5248400Y11092000D03*
X5155302Y-3441155D03*
%TO.N,WBA_HSE_IN*%
X-2960000Y9900000D03*
X220000Y4610000D03*
%TO.N,USBWK_GATE*%
X-9250000Y-7144100D03*
X-5474560Y6924122D03*
%TO.N,AON_EN_GATE*%
X-3046703Y7040759D03*
X-4830000Y810000D03*
X9700000Y-2160000D03*
X8850000Y5511100D03*
%TO.N,MAIN_SW_GATE*%
X5188610Y1035372D03*
X1205900Y-1578800D03*
X-5047000Y-495000D03*
X5832400Y-4378200D03*
%TO.N,BAT_PROT*%
X13375985Y4979723D03*
X15430000Y4350000D03*
X9066500Y-5548420D03*
X-12040000Y2850000D03*
X12233100Y8156000D03*
X10600000Y-7885000D03*
X4834579Y-6314579D03*
X-6035800Y13759000D03*
X-4438400Y13759000D03*
%TO.N,REG_IN_MAIN*%
X-9750000Y-3601000D03*
X-10590000Y-4020000D03*
X-10972937Y-4673041D03*
X6640000Y-6610000D03*
X-11902951Y-4616000D03*
X-6234635Y-5308364D03*
X-6626860Y-4952465D03*
X-10992000Y-3126000D03*
X-9183656Y-8032363D03*
X-8050000Y-13560000D03*
X2511999Y-11206000D03*
%TO.N,JUMP_WAKE_K*%
X-3855000Y6546905D03*
X2186900Y-979500D03*
%TO.N,MAG_SHELF_K*%
X-4660000Y-2220000D03*
X3433682Y-5148236D03*
%TO.N,IMU3_SDX*%
X-1227291Y1864785D03*
%TO.N,IMU3_SCX*%
X4586500Y7699800D03*
X-3321630Y857794D03*
%TO.N,IMU3_INT*%
X7410300Y5492400D03*
D22*
%TO.N,I2C3_SCL*%
X10580000Y3240000D03*
D21*
X-4774500Y-9257700D03*
X5950000Y-12656500D03*
X-3042501Y7740749D03*
%TO.N,I2C3_SDA*%
X5880000Y6940000D03*
X-3990000Y-11061500D03*
X6097600Y11085002D03*
%TO.N,QHOLD_GATE*%
X4592121Y3417121D03*
%TO.N,IMU2_SDX*%
X-6940000Y-8392041D03*
%TO.N,IMU2_INT*%
X-5500000Y-7743600D03*
X1066800Y3237500D03*
X4560000Y13340000D03*
%TO.N,WBA_VDD11*%
X8200000Y4115000D03*
%TO.N,WBA_RF*%
X7069432Y-1105771D03*
%TO.N,QHOLD2_GATE*%
X6745000Y7637840D03*
X8992400Y4252200D03*
%TO.N,MAG_C1_TERM*%
X5530000Y-11340000D03*
X-8267637Y2983492D03*
%TO.N,MAG_DRDY*%
X-6430600Y-10670400D03*
X896157Y1575000D03*
X-6839237Y3280000D03*
%TO.N,WBA_BOOT0*%
X-12132180Y-6267595D03*
X6164601Y5492399D03*
X2617724Y-6597024D03*
%TO.N,WBA_HCI_IRQ*%
X6897000Y3472222D03*
X-12415546Y-2384454D03*
%TO.N,IR_TX*%
X2750000Y11369700D03*
X7790000Y3148082D03*
%TO.N,WBA_NRST*%
X1470000Y8255600D03*
X-7840000Y7040000D03*
D22*
X5931255Y-658343D03*
%TO.N,WBA_AON_HOLD*%
X8221999Y-2065000D03*
D21*
%TO.N,IR_WAKE*%
X2011831Y-1727998D03*
X-450000Y-11111500D03*
X9302998Y435000D03*
D22*
%TO.N,WBA_UART_RX*%
X7482485Y1908409D03*
D21*
X-12985100Y-1425000D03*
%TO.N,WBA_WAKE*%
X8294600Y6005000D03*
X11372000Y-1465000D03*
D22*
%TO.N,WBA_HCI_MISO*%
X10270000Y1710000D03*
D21*
X-11286500Y3381000D03*
%TO.N,WBA_UART_TX*%
X-11997579Y-652421D03*
D22*
X9272000Y1335000D03*
D21*
%TO.N,WBA_HCI_NSS*%
X15665446Y2184554D03*
X-13385000Y-6265998D03*
D23*
X9370000Y3540000D03*
D21*
%TO.N,WBA_HCI_MOSI*%
X-10836800Y6114000D03*
D22*
X9489357Y2709357D03*
D21*
%TO.N,WBA_HCI_SCK*%
X-14270000Y-4920000D03*
X8536584Y1817597D03*
%TO.N,ACTIVATE_CONFIRM*%
X13890000Y-4616002D03*
%TO.N,ACTIVATE_SET*%
X14770000Y-800000D03*
%TO.N,BAT_CELL1_POS*%
X14570052Y178709D03*
%TO.N,BAT_CELL2_POS*%
X14548667Y1730440D03*
%TO.N,BAT_CELL3_POS*%
X14220730Y3350976D03*
%TO.N,BOOT0*%
X13156429Y-4497688D03*
X12350000Y-6225400D03*
%TO.N,COMP_1V8*%
X-10350300Y4711100D03*
X10049700Y-3065998D03*
%TO.N,COMP_5V*%
X-7606300Y13087100D03*
X13352264Y212404D03*
%TO.N,COMP_5V_RAW*%
X11525500Y2415977D03*
X-9256900Y-11710800D03*
%TO.N,COMP_OUT*%
X12915900Y1660000D03*
X11563500Y7662600D03*
%TO.N,COMP_SWDCLK*%
X13155000Y3025385D03*
X13133700Y8959000D03*
%TO.N,COMP_SWDIO*%
X11855000Y3330871D03*
X10141274Y-4594474D03*
%TO.N,EXT_CAN_RX*%
X10357800Y4941700D03*
X11209679Y-3049679D03*
%TO.N,EXT_CAN_TX*%
X13195000Y7360000D03*
%TO.N,GPIO_EXT_0*%
X9966500Y-5441000D03*
X11202900Y6582000D03*
%TO.N,GPIO_EXT_1*%
X9000000Y6569998D03*
X9972400Y-3895000D03*
%TO.N,GPIO_EXT_2*%
X10205900Y9774800D03*
X9390000Y-2820000D03*
%TO.N,GPIO_EXT_3*%
X13174998Y900000D03*
D22*
%TO.N,H3LIS_INT1*%
X9640000Y1890600D03*
D21*
X9928600Y12159000D03*
%TO.N,NRST*%
X9732300Y6896800D03*
X-4463200Y-13441000D03*
%TO.N,PWR_HOLD*%
X380000Y-6625000D03*
X-5250000Y-11047200D03*
X427524Y-10578800D03*
%TO.N,SWO*%
X-6068200Y-12392000D03*
X9410000Y9090000D03*
%TO.N,SYS_I2C_SCL*%
X-4025926Y7998826D03*
X-7667500Y-11756100D03*
X11529600Y10559000D03*
%TO.N,SYS_I2C_SDA*%
X-7136900Y-10406500D03*
X-10350300Y1216000D03*
X5168900Y-13261600D03*
%TO.N,SYS_SPI_CS_FIN*%
X5157354Y13826118D03*
X-7665400Y-8641000D03*
%TO.N,SYS_SPI_MISO*%
X-10050000Y-7825400D03*
X-2068376Y11318524D03*
%TO.N,SYS_SPI_MOSI*%
X-6178200Y-6023800D03*
X-2570000Y12343800D03*
%TO.N,SYS_SPI_SCLK*%
X-11048300Y-7876800D03*
X-6614124Y9925000D03*
%TO.N,WBA_RST_CMD*%
X-311297Y-1077984D03*
X-12889200Y-4623900D03*
D22*
X-7464773Y2834773D03*
D21*
%TO.N,TMR_VDD*%
X-4526002Y-5716500D03*
X-6879900Y-2324500D03*
X311921Y1960579D03*
X2740000Y-4820000D03*
%TO.N,MAG_SHELF_N*%
X4016002Y-3318256D03*
%TO.N,BOOST_FB*%
X-8877300Y-592200D03*
X1428308Y-6000954D03*
%TO.N,JUMP_WAKE*%
X2563653Y7616346D03*
X9865000Y6190126D03*
X-2970000Y5750000D03*
%TD*%
%TO.N,3V3*%
D24*
X5754998Y9015002D02*
X5754998Y8797296D01*
X-9680000Y3625000D02*
X-10910000Y2395000D01*
X-2874130Y1934130D02*
X-2925244Y1934130D01*
X-8450000Y-10241000D02*
X-7848300Y-10241000D01*
X3950000Y9179000D02*
X3900000Y9229000D01*
X-8450000Y-10241000D02*
X-8450000Y-10180000D01*
X-5685800Y4761800D02*
X-5685800Y6463610D01*
X3900000Y9229000D02*
X3450000Y9229000D01*
X-10930000Y-1360000D02*
X-10910000Y-1340000D01*
X-10970000Y2160000D02*
X-10860000Y2160000D01*
X-11830000Y1300000D02*
X-11830000Y1110018D01*
X13348300Y-5290600D02*
X13348300Y-5441000D01*
X5590000Y9180000D02*
X5754998Y9015002D01*
X5350000Y9190000D02*
X5590000Y9430000D01*
X770000Y-4730000D02*
X770000Y-4620000D01*
X3450000Y9229000D02*
X3050000Y9629000D01*
X-10930000Y-2500000D02*
X-10930000Y-1360000D01*
X8710000Y8120000D02*
X8250000Y8120000D01*
X-2100000Y-7576000D02*
X-1666000Y-8010000D01*
X13950000Y-5441000D02*
X13348300Y-5441000D01*
X5870000Y-10730000D02*
X7180000Y-10730000D01*
X-5685800Y6463610D02*
X-5949560Y6727370D01*
X4954000Y-175000D02*
X4973100Y-175000D01*
X325000Y8255000D02*
X1699000Y9629000D01*
X-8450000Y-10180000D02*
X-9066900Y-9563100D01*
X7220000Y-10770000D02*
X7280000Y-10770000D01*
X6020000Y9860000D02*
X5590000Y9430000D01*
X1511900Y-718100D02*
X1511900Y-699906D01*
X-7561900Y-10527400D02*
X-7561900Y-10582541D01*
X-10082559Y1549300D02*
X-10174259Y1641000D01*
X500000Y-9000000D02*
X550000Y-8950000D01*
X-5949560Y6727370D02*
X-5949560Y6979560D01*
X-10960000Y720000D02*
X-10560000Y320000D01*
X170000Y-8740000D02*
X430000Y-9000000D01*
X-11550000Y-790000D02*
X-10930000Y-1410000D01*
X4973100Y-175000D02*
X6680900Y1532800D01*
X6020000Y10460000D02*
X6020000Y9860000D01*
X5590000Y9430000D02*
X5590000Y9180000D01*
X-1920000Y575000D02*
X-1920000Y1580000D01*
X-10526341Y1641000D02*
X-10567341Y1600000D01*
X1029058Y-2003000D02*
X1165000Y-2003000D01*
X-3003000Y4128999D02*
X-3003000Y4228999D01*
X-7848300Y-10241000D02*
X-7561900Y-10527400D01*
X475000Y-1752000D02*
X778059Y-1752000D01*
X-330000Y-8740000D02*
X-1050000Y-8020000D01*
X-6939341Y-11205100D02*
X-6154900Y-11205100D01*
X-11830000Y1110018D02*
X-11550000Y830018D01*
X-2936253Y1923121D02*
X-2940467Y1923121D01*
X-11550000Y830018D02*
X-11550000Y-790000D01*
X-2946945Y1916643D02*
X-3005981Y1916643D01*
X-7090000Y8050000D02*
X-6340000Y7300000D01*
X12698700Y-4641000D02*
X13348300Y-5290600D01*
X430000Y-9000000D02*
X500000Y-9000000D01*
X4250000Y8579000D02*
X4300000Y8629000D01*
X-6340000Y7300000D02*
X-6270000Y7300000D01*
X4050000Y9179000D02*
X3950000Y9179000D01*
X7180000Y-10730000D02*
X7220000Y-10770000D01*
X-10560000Y320000D02*
X-7450000Y320000D01*
X2619394Y-457400D02*
X3964494Y-457400D01*
X1076200Y-1153800D02*
X1511900Y-718100D01*
X-2084000Y-7560000D02*
X-2100000Y-7576000D01*
X475000Y-1752000D02*
X475000Y-1352000D01*
X770000Y-4620000D02*
X140000Y-3990000D01*
X1907306Y-304500D02*
X2466494Y-304500D01*
X3550000Y7829000D02*
X4250000Y8529000D01*
X1165000Y-2003000D02*
X1165000Y-4375000D01*
X-3003000Y4228999D02*
X-3053001Y4279000D01*
X399000Y6395600D02*
X399000Y6555000D01*
X-210000Y-8740000D02*
X-330000Y-8740000D01*
X-11439982Y720000D02*
X-10960000Y720000D01*
X-11830000Y1300000D02*
X-10970000Y2160000D01*
X-4042600Y-8168600D02*
X-3450000Y-7576000D01*
X7077000Y2577000D02*
X7181000Y2577000D01*
X3900000Y9229000D02*
X3400000Y9229000D01*
X3950000Y9179000D02*
X3900000Y9229000D01*
X-2550000Y1610000D02*
X-2874130Y1934130D01*
X-2553000Y1576000D02*
X-1852000Y1576000D01*
X-6154900Y-11205100D02*
X-5250000Y-12110000D01*
X4250000Y8579000D02*
X4300000Y8629000D01*
X-10567341Y1600000D02*
X-11530000Y1600000D01*
X-5949560Y6979560D02*
X-6270000Y7300000D01*
X6680900Y2180900D02*
X7077000Y2577000D01*
X-3053001Y4279000D02*
X-5203000Y4279000D01*
X928029Y-1901971D02*
X1029058Y-2003000D01*
X3400000Y9229000D02*
X3350000Y9279000D01*
X1165000Y-4375000D02*
X790000Y-4750000D01*
X325000Y6570000D02*
X325000Y8255000D01*
X3964494Y-457400D02*
X4246894Y-175000D01*
X1511900Y-699906D02*
X1907306Y-304500D01*
X-2520000Y-25000D02*
X-1920000Y575000D01*
X-5203000Y4279000D02*
X-5685800Y4761800D01*
X4246894Y-175000D02*
X4954000Y-175000D01*
X382472Y6555000D02*
X47220Y6219748D01*
X-7561900Y-10582541D02*
X-6939341Y-11205100D01*
X6680900Y1532800D02*
X6680900Y2180900D01*
X778059Y-1752000D02*
X928029Y-1901971D01*
X-6350000Y-7660000D02*
X-5841400Y-8168600D01*
X-2940467Y1923121D02*
X-2946945Y1916643D01*
X4250000Y8529000D02*
X4250000Y8579000D01*
X-5841400Y-8168600D02*
X-4042600Y-8168600D01*
X3550000Y7829000D02*
X4250000Y8529000D01*
X-140000Y-8800000D02*
X-140000Y-8770000D01*
X-770000Y-9430000D02*
X-140000Y-8800000D01*
X-1180000Y-8010000D02*
X-1666000Y-8010000D01*
X8250000Y8120000D02*
X8210000Y8080000D01*
X140000Y-3990000D02*
X90000Y-3990000D01*
X928029Y-1901971D02*
X1029059Y-2003000D01*
X4300000Y8929000D02*
X4050000Y9179000D01*
X4300000Y8629000D02*
X4300000Y8929000D01*
X2466494Y-304500D02*
X2619394Y-457400D01*
X1699000Y9629000D02*
X3050000Y9629000D01*
X5010000Y9190000D02*
X5350000Y9190000D01*
X11550000Y-4641000D02*
X12698700Y-4641000D01*
X-7450000Y320000D02*
X-7105000Y-25000D01*
X-1070000Y-9430000D02*
X-770000Y-9430000D01*
X-9066900Y-9563100D02*
X-9066900Y-9530000D01*
X-11830000Y1110018D02*
X-11439982Y720000D01*
X399000Y6555000D02*
X382472Y6555000D01*
X-8150700Y1549300D02*
X-10082559Y1549300D01*
X4050000Y9179000D02*
X3950000Y9179000D01*
X-2550000Y1580000D02*
X-2550000Y1610000D01*
X673200Y-1153800D02*
X1076200Y-1153800D01*
X310000Y6555000D02*
X325000Y6570000D01*
X-2925244Y1934130D02*
X-2936253Y1923121D01*
X-10174259Y1641000D02*
X-10526341Y1641000D01*
X-440000Y-8740000D02*
X170000Y-8740000D01*
X-5250000Y-12110000D02*
X-5250000Y-13441000D01*
X4300000Y8629000D02*
X4300000Y8929000D01*
X475000Y-1352000D02*
X673200Y-1153800D01*
X4250000Y8529000D02*
X4250000Y8579000D01*
X4300000Y8929000D02*
X4050000Y9179000D01*
X-10910000Y2395000D02*
X-10910000Y2180000D01*
X-11530000Y1600000D02*
X-11830000Y1300000D01*
%TO.N,BOOST_OUT*%
D25*
X-9110000Y-1670000D02*
X-7149000Y-1670000D01*
X-10361286Y-931704D02*
X-10328182Y-898600D01*
X-10328182Y-898600D02*
X-9881400Y-898600D01*
X-7149000Y-1670000D02*
X-7105000Y-1626000D01*
X-9881400Y-898600D02*
X-9110000Y-1670000D01*
%TO.N,FLEX_GND*%
D24*
X-14221000Y-4155000D02*
X-14535000Y-3841000D01*
X-475000Y0D02*
X-475000Y701000D01*
X0Y10160000D02*
X0Y8510494D01*
X-9342000Y-5441000D02*
X-10050000Y-5441000D01*
X-8450000Y-7316000D02*
X-8450000Y-7841000D01*
X-11250000Y5370000D02*
X-11620000Y5740000D01*
X-13250000Y-6802750D02*
X-12910000Y-6462750D01*
X5719391Y-8956500D02*
X6525891Y-8150000D01*
X-6905000Y1776000D02*
X-6480001Y1351001D01*
X-13250000Y-3841000D02*
X-13549248Y-3841000D01*
X7340000Y9580000D02*
X6960000Y9960000D01*
X-1776000Y-676000D02*
X-2477000Y-676000D01*
X-14869000Y940000D02*
X-14890000Y940000D01*
X-8450000Y-5441000D02*
X-9342000Y-5441000D01*
X-9776400Y-6767400D02*
X-10050000Y-7041000D01*
X-12480000Y-7810000D02*
X-13249000Y-7041000D01*
X-100000Y8410494D02*
X-100000Y7320000D01*
X-1776000Y-676000D02*
X-1324300Y-676000D01*
X-8450000Y-7841000D02*
X-8450000Y-8641000D01*
X-12289000Y-3841000D02*
X-12280000Y-3850000D01*
X7340000Y9580000D02*
X7340000Y9040000D01*
X3590000Y-7470000D02*
X3530000Y-7410000D01*
X-475000Y-451700D02*
X-1100000Y-451700D01*
X-8216900Y-7082900D02*
X-8450000Y-7316000D01*
X5719391Y-8956500D02*
X4793500Y-8956500D01*
X-13250000Y-641000D02*
X-13250000Y959000D01*
X-11250000Y5000000D02*
X-11250000Y5370000D01*
X-1100000Y-451700D02*
X-1324300Y-676000D01*
X-10050000Y-8641000D02*
X-11650000Y-8641000D01*
X-14850000Y-3630000D02*
X-15230000Y-3250000D01*
X0Y8510494D02*
X-100000Y8410494D01*
X-14850000Y959000D02*
X-14869000Y940000D01*
X-12910000Y-5781000D02*
X-13364200Y-5326800D01*
X-13364200Y-3955200D02*
X-13250000Y-3841000D01*
X6156000Y-3026000D02*
X6431000Y-2751000D01*
X6960000Y9960000D02*
X6960000Y10460000D01*
X8120000Y-3910000D02*
X8310000Y-3720000D01*
X7340000Y9040000D02*
X7250000Y8950000D01*
X-15230000Y-3250000D02*
X-15230000Y-3065998D01*
X-10050000Y-7041000D02*
X-11650000Y-7041000D01*
X-13364200Y-5326800D02*
X-13364200Y-3955200D01*
X6525891Y-8150000D02*
X7410000Y-8150000D01*
X-13863248Y-4155000D02*
X-14221000Y-4155000D01*
X-13250000Y-7041000D02*
X-13250000Y-6802750D01*
X-475000Y0D02*
X-475000Y-451700D01*
X8120000Y-4770000D02*
X8120000Y-3910000D01*
X-13250000Y-3841000D02*
X-13250000Y-2241000D01*
X-12910000Y-6462750D02*
X-12910000Y-5781000D01*
X-14850000Y-3841000D02*
X-14850000Y-3630000D01*
X-6890000Y-6253000D02*
X-6890000Y-6480000D01*
X-6480001Y1351001D02*
X-6480001Y774541D01*
X-8450000Y-7041000D02*
X-8450000Y-7841000D01*
X-13250000Y-2241000D02*
X-14850000Y-2241000D01*
X8310000Y-3720000D02*
X8430000Y-3720000D01*
X-10050000Y-5441000D02*
X-11650000Y-5441000D01*
X-13250000Y-3841000D02*
X-12289000Y-3841000D01*
X-8450000Y-7041000D02*
X-8723600Y-6767400D01*
X-13250000Y959000D02*
X-14850000Y959000D01*
X-13249000Y-7041000D02*
X-13250000Y-7041000D01*
X-6942000Y-6201000D02*
X-6890000Y-6253000D01*
X-13250000Y-641000D02*
X-14850000Y-641000D01*
X12350000Y8959000D02*
X11562470Y9510434D01*
X4793500Y-8956500D02*
X4510000Y-9240000D01*
X-14535000Y-3841000D02*
X-14850000Y-3841000D01*
X-13549248Y-3841000D02*
X-13863248Y-4155000D01*
X-2050000Y-9670000D02*
X-2050000Y-9420000D01*
%TO.N,IMU1_SCX*%
X-9867841Y-2500000D02*
X-9798300Y-2569541D01*
X-9980000Y-2500000D02*
X-9867841Y-2500000D01*
%TO.N,IMU1_INT*%
X2176998Y324998D02*
X1550000Y324998D01*
X2302000Y450000D02*
X2176998Y324998D01*
%TO.N,I2C2_SCL*%
X1751000Y-5057635D02*
X1550352Y-5258283D01*
X1751000Y-4730000D02*
X1751000Y-5057635D01*
%TO.N,I2C2_SDA*%
X-8630000Y4010000D02*
X-9170000Y4010000D01*
X-8839141Y3198200D02*
X-8443670Y3593670D01*
X-9700000Y4540000D02*
X-9660000Y4540000D01*
X-8978800Y3237900D02*
X-8939100Y3198200D01*
X-8443670Y3823670D02*
X-8630000Y4010000D01*
X-8443670Y3593670D02*
X-8443670Y3823670D01*
X-8939100Y3198200D02*
X-8839141Y3198200D01*
X-9170000Y4010000D02*
X-9700000Y4540000D01*
%TO.N,BAT_RAW*%
D25*
X5404600Y-5279600D02*
X5404600Y-5293100D01*
X-499200Y1984500D02*
X-1327000Y2812300D01*
X-1361000Y3060000D02*
X-3210000Y3060000D01*
X11691900Y-5868100D02*
X11673300Y-5868100D01*
X3601000Y7373900D02*
X3597500Y7377400D01*
X8026300Y-5445000D02*
X5556500Y-5445000D01*
X11425200Y-6424800D02*
X11250000Y-6600000D01*
X-3545000Y1462180D02*
X-4003391Y1003789D01*
X4503000Y-4378000D02*
X5404600Y-5279600D01*
X11673300Y-5868100D02*
X11425200Y-6116200D01*
D26*
X-3560000Y-650000D02*
X-3570000Y-660000D01*
D25*
X3601000Y6555000D02*
X3601000Y7373900D01*
X-6850000Y-13441000D02*
X-5331000Y-14960000D01*
D26*
X-3560000Y180000D02*
X-3560000Y-650000D01*
D25*
X12119000Y-5441000D02*
X11691900Y-5868100D01*
X-5331000Y-14960000D02*
X3450000Y-14960000D01*
X11425200Y-6116200D02*
X11425200Y-6424800D01*
X-4003391Y1003789D02*
X-4003391Y673391D01*
X-3545000Y2725000D02*
X-3545000Y1462180D01*
X11425200Y-6116200D02*
X8697500Y-6116200D01*
X3600000Y-14810000D02*
X4420000Y-14810000D01*
X-3210000Y3060000D02*
X-3545000Y2725000D01*
X12350000Y-5441000D02*
X12119000Y-5441000D01*
X8697500Y-6116200D02*
X8026300Y-5445000D01*
X-1327000Y2812300D02*
X-1327000Y3026000D01*
X3450000Y-14960000D02*
X3600000Y-14810000D01*
X5556500Y-5445000D02*
X5404600Y-5293100D01*
X-4003391Y673391D02*
X-3530000Y200000D01*
X-1327000Y3026000D02*
X-1361000Y3060000D01*
%TO.N,AON_EN*%
D24*
X6820000Y-3515000D02*
X7165000Y-3170000D01*
X6680047Y-3690002D02*
X6680047Y-3710185D01*
X7165000Y-3170000D02*
X7400000Y-3170000D01*
X6680047Y-3710185D02*
X6805160Y-3835298D01*
%TO.N,3V3_AON*%
X-803400Y-653400D02*
X-1349300Y-1199300D01*
X8470000Y85000D02*
X8545000Y10000D01*
X5651000Y-3926000D02*
X6251000Y-3926000D01*
X7320000Y-4750000D02*
X6710000Y-4750000D01*
X13652259Y-3543259D02*
X13143312Y-3543259D01*
X-330100Y-653400D02*
X-803400Y-653400D01*
X48300Y-275000D02*
X-330100Y-653400D01*
X3357542Y-6030000D02*
X3907542Y-6580000D01*
X9480000Y910000D02*
X8540000Y910000D01*
X-5250000Y12159000D02*
X-5250000Y11093600D01*
X3762717Y8762717D02*
X3852494Y8762717D01*
X7765000Y-3770000D02*
X7400000Y-3770000D01*
X475000Y701000D02*
X312500Y701000D01*
X8545000Y10000D02*
X8670000Y10000D01*
X-1760000Y-1778000D02*
X-1760000Y-1630000D01*
X8540000Y910000D02*
X8470000Y840000D01*
X2316446Y8866446D02*
X1995246Y8866446D01*
X3820000Y-6492458D02*
X3907542Y-6580000D01*
X-1576000Y-6785940D02*
X-1576000Y-6031000D01*
X4136000Y-5304000D02*
X3820000Y-5620000D01*
X4814459Y-5304000D02*
X4136000Y-5304000D01*
X347600Y972400D02*
X347600Y736100D01*
X-1576000Y-6031000D02*
X-1576000Y-5154300D01*
X9050000Y-970000D02*
X8650000Y-1370000D01*
X3250000Y-6030000D02*
X3357542Y-6030000D01*
X8670000Y10000D02*
X9050000Y-370000D01*
X5750459Y-6240000D02*
X4814459Y-5304000D01*
X8650000Y-1370000D02*
X8650000Y-2700000D01*
X4540000Y-8280000D02*
X4290000Y-8030000D01*
X-5250000Y11093600D02*
X-5248400Y11092000D01*
X860000Y8276441D02*
X860000Y7280000D01*
X347600Y736100D02*
X312500Y701000D01*
X7480000Y-4610000D02*
X7330000Y-4760000D01*
X1809400Y8680600D02*
X1264159Y8680600D01*
X5179147Y-3465000D02*
X5190000Y-3465000D01*
X2000000Y7724445D02*
X2366901Y8091346D01*
X9920000Y460000D02*
X10070000Y460000D01*
X2366901Y8091346D02*
X3091346Y8091346D01*
X-1349300Y-1199300D02*
X-1776000Y-1199300D01*
X4290000Y-8030000D02*
X4290000Y-6962458D01*
X5190000Y-3465000D02*
X5651000Y-3926000D01*
X7330000Y-4760000D02*
X7320000Y-4750000D01*
X-1776000Y-1626000D02*
X-2477000Y-1626000D01*
X-1576000Y-5154300D02*
X-1751000Y-4979300D01*
X6251000Y-3926000D02*
X6520000Y-4195000D01*
X7480000Y-3730000D02*
X7480000Y-4610000D01*
X4290000Y-6962458D02*
X3907542Y-6580000D01*
X7860000Y-3675000D02*
X7765000Y-3770000D01*
X1264159Y8680600D02*
X860000Y8276441D01*
X48300Y701000D02*
X48300Y-275000D01*
X3820000Y-5620000D02*
X3820000Y-6492458D01*
X-1279040Y-7082900D02*
X-1576000Y-6785940D01*
X1995246Y8866446D02*
X1809400Y8680600D01*
X9900000Y490000D02*
X9480000Y910000D01*
X8650000Y-2700000D02*
X7860000Y-3490000D01*
X6520000Y-4195000D02*
X6520000Y-4770000D01*
X13950000Y-3841000D02*
X13652259Y-3543259D01*
X312500Y701000D02*
X48300Y701000D01*
X8470000Y840000D02*
X8470000Y85000D01*
X131621Y1188379D02*
X347600Y972400D01*
X-1776000Y-1626000D02*
X-1776000Y-1199300D01*
X7860000Y-3490000D02*
X7860000Y-3675000D01*
X-1751000Y-4979300D02*
X-1751000Y-4755000D01*
X5155302Y-3441155D02*
X5179147Y-3465000D01*
X9050000Y-370000D02*
X9050000Y-970000D01*
X-910000Y-2628000D02*
X-1760000Y-1778000D01*
X3091346Y8091346D02*
X3762717Y8762717D01*
X2000000Y6555000D02*
X2000000Y7724445D01*
X5850000Y-6240000D02*
X5750459Y-6240000D01*
%TO.N,WBA_HSE_IN*%
X-4530000Y5731000D02*
X-3409000Y4610000D01*
X-3409000Y4610000D02*
X220000Y4610000D01*
X-2960000Y9900000D02*
X-4530000Y8330000D01*
X-4530000Y8330000D02*
X-4530000Y5731000D01*
%TO.N,AON_EN_GATE*%
X-4510000Y490000D02*
X-4830000Y810000D01*
X-4510000Y180000D02*
X-4510000Y490000D01*
%TO.N,MAIN_SW_GATE*%
X1801862Y-1266214D02*
X1711900Y-1176252D01*
X1990148Y-504500D02*
X2383652Y-504500D01*
X2661900Y-782748D02*
X2661900Y-1176252D01*
X-4842000Y-700000D02*
X-5047000Y-495000D01*
X2661900Y-1176252D02*
X2396868Y-1441284D01*
X2486831Y-1531246D02*
X2486831Y-1651231D01*
X2383652Y-504500D02*
X2661900Y-782748D01*
X2486831Y-1651231D02*
X2701000Y-1865400D01*
X1428500Y-1356200D02*
X1711877Y-1356200D01*
X2396868Y-1441284D02*
X2486831Y-1531246D01*
X1711900Y-1176252D02*
X1711900Y-782748D01*
X1711877Y-1356200D02*
X1801862Y-1266214D01*
X1205900Y-1578800D02*
X1428500Y-1356200D01*
X1711900Y-782748D02*
X1990148Y-504500D01*
X-4530000Y-700000D02*
X-4842000Y-700000D01*
X2701000Y-1865400D02*
X2701000Y-2453000D01*
%TO.N,BAT_PROT*%
X12935000Y-7885000D02*
X15420000Y-5400000D01*
X4478000Y-5954000D02*
X4834579Y-6310579D01*
X16065000Y-1980405D02*
X15690000Y-1605405D01*
X10600000Y-7885000D02*
X12935000Y-7885000D01*
X15690000Y4180000D02*
X15520000Y4350000D01*
X15690000Y-1605405D02*
X15690000Y1488248D01*
D26*
X-5250000Y13759000D02*
X-5926700Y13759000D01*
D24*
X15190446Y1987802D02*
X15190446Y2381306D01*
D26*
X13950000Y5059000D02*
X13870723Y4979723D01*
D24*
X15690000Y2880860D02*
X15690000Y4180000D01*
X15690000Y-2914594D02*
X16065000Y-2539594D01*
X15690000Y-4529081D02*
X15690000Y-2914594D01*
X15420000Y-4799081D02*
X15690000Y-4529081D01*
D26*
X13950000Y5759000D02*
X13950000Y5059000D01*
D24*
X15190446Y2381306D02*
X15690000Y2880860D01*
X4834579Y-6310579D02*
X4834579Y-6314579D01*
X15420000Y-5400000D02*
X15420000Y-4799081D01*
X16065000Y-2539594D02*
X16065000Y-1980405D01*
D26*
X13870723Y4979723D02*
X13375985Y4979723D01*
D24*
X15690000Y1488248D02*
X15190446Y1987802D01*
D26*
X-5926700Y13759000D02*
X-6035800Y13759000D01*
X-4438400Y13759000D02*
X-5250000Y13759000D01*
D24*
X15520000Y4350000D02*
X15430000Y4350000D01*
%TO.N,REG_IN_MAIN*%
D26*
X5730000Y-7980000D02*
X6270000Y-7980000D01*
D27*
X-9406300Y-8255007D02*
X-9183656Y-8032363D01*
D24*
X-10992000Y-3512000D02*
X-11280000Y-3800000D01*
X-5342000Y-6201000D02*
X-6234635Y-5308364D01*
D27*
X-8050000Y-13560000D02*
X-8860000Y-13560000D01*
X-9406300Y-9206558D02*
X-9406300Y-8255007D01*
D26*
X-8760000Y-4010000D02*
X-9341000Y-4010000D01*
D27*
X-9589742Y-9390000D02*
X-9406300Y-9206558D01*
D26*
X6640000Y-6600000D02*
X6640000Y-6610000D01*
X6270000Y-7980000D02*
X7350000Y-6900000D01*
D24*
X-11280000Y-3800000D02*
X-11310000Y-3800000D01*
D26*
X-9341000Y-4010000D02*
X-9750000Y-3601000D01*
X7370000Y-6500000D02*
X6740000Y-6500000D01*
X5210000Y-7460000D02*
X5730000Y-7980000D01*
X6740000Y-6500000D02*
X6640000Y-6600000D01*
X-7670000Y-4000000D02*
X-8720000Y-4000000D01*
D27*
X-10880000Y-9390000D02*
X-9589742Y-9390000D01*
D24*
X-11687951Y-4401000D02*
X-11902951Y-4616000D01*
D27*
X-11120000Y-11300000D02*
X-11120000Y-9630000D01*
X-8860000Y-13560000D02*
X-11120000Y-11300000D01*
D24*
X-9342000Y-4401000D02*
X-11687951Y-4401000D01*
D26*
X7350000Y-6900000D02*
X7350000Y-6570000D01*
X-8720000Y-4000000D02*
X-8730000Y-3990000D01*
D27*
X-11120000Y-9630000D02*
X-10880000Y-9390000D01*
D24*
X-10992000Y-3126000D02*
X-10992000Y-3512000D01*
%TO.N,JUMP_WAKE_K*%
X-2425200Y6652200D02*
X-2763510Y6652200D01*
X-2763510Y6652200D02*
X-2849951Y6565759D01*
X-1202000Y5429000D02*
X-2425200Y6652200D01*
X-1202000Y5404000D02*
X-1202000Y5429000D01*
X-3836146Y6565759D02*
X-3855000Y6546905D01*
X-2849951Y6565759D02*
X-3836146Y6565759D01*
%TO.N,MAG_SHELF_K*%
X27900Y-7507900D02*
X-851000Y-6629000D01*
X1823303Y-6207000D02*
X1560000Y-6470303D01*
X-2787000Y-2051000D02*
X-3406207Y-2051000D01*
X1965000Y-6207000D02*
X1823303Y-6207000D01*
X1560000Y-6470303D02*
X1560000Y-6503941D01*
X2473200Y-5250000D02*
X2610000Y-5250000D01*
X-1408000Y-3430000D02*
X-2787000Y-2051000D01*
X-3406207Y-2051000D02*
X-3454207Y-2003000D01*
X3433682Y-5211418D02*
X3433682Y-5148236D01*
X2274300Y-5051100D02*
X2473200Y-5250000D01*
X-1110000Y-3430000D02*
X-1408000Y-3430000D01*
X3395100Y-5250000D02*
X3433682Y-5211418D01*
X2205000Y-5250000D02*
X1965000Y-5490000D01*
X2610000Y-5250000D02*
X2205000Y-5250000D01*
X-3454207Y-2003000D02*
X-4443000Y-2003000D01*
X1560000Y-6503941D02*
X556041Y-7507900D01*
X-851000Y-3689000D02*
X-1110000Y-3430000D01*
X-851000Y-6629000D02*
X-851000Y-3689000D01*
X556041Y-7507900D02*
X27900Y-7507900D01*
X-4443000Y-2003000D02*
X-4660000Y-2220000D01*
X1965000Y-5490000D02*
X1965000Y-6207000D01*
X2274300Y-3855000D02*
X2274300Y-5051100D01*
X2701000Y-3855000D02*
X2274300Y-3855000D01*
X2610000Y-5250000D02*
X3395100Y-5250000D01*
%TO.N,IMU3_SDX*%
X-2560000Y2519000D02*
X-2560000Y2359000D01*
X-2560000Y2359000D02*
X-2202000Y2001000D01*
X-2553000Y2526000D02*
X-2560000Y2519000D01*
X-1363506Y2001000D02*
X-1227291Y1864785D01*
X-2202000Y2001000D02*
X-1363506Y2001000D01*
%TO.N,IMU3_SCX*%
X-2553000Y498300D02*
X-2962136Y498300D01*
X-2553000Y925000D02*
X-2553000Y498300D01*
X-2962136Y498300D02*
X-3321630Y857794D01*
%TO.N,IMU3_INT*%
X5655000Y4277000D02*
X6194900Y4277000D01*
X6194900Y4277000D02*
X7410300Y5492400D01*
%TO.N,I2C3_SCL*%
X-2643049Y7740749D02*
X-3042501Y7740749D01*
X10750000Y2559000D02*
X10580000Y2729000D01*
X-1457300Y6555000D02*
X-2643049Y7740749D01*
X10580000Y2729000D02*
X10580000Y3240000D01*
X-551000Y6555000D02*
X-1457300Y6555000D01*
%TO.N,I2C3_SDA*%
X11273741Y11420000D02*
X13669353Y9024388D01*
X15210000Y6387786D02*
X15210000Y4801752D01*
X8301116Y6667841D02*
X6082159Y6667841D01*
X10411000Y4159000D02*
X10010000Y4560000D01*
X14990446Y2464148D02*
X14990446Y1904959D01*
X15210000Y4801752D02*
X14955000Y4546752D01*
X15865000Y-2456752D02*
X15210000Y-3111752D01*
X13669353Y7928433D02*
X15210000Y6387786D01*
X-754452Y-11478800D02*
X-3572700Y-11478800D01*
X6555000Y3904207D02*
X6231000Y3580207D01*
X15210000Y-5327157D02*
X13077158Y-7460000D01*
X9882800Y4677200D02*
X8816359Y4677200D01*
X10010000Y4560000D02*
X10000000Y4560000D01*
X5880000Y6870000D02*
X5880000Y6940000D01*
X14990446Y1904959D02*
X15210000Y1685406D01*
X6555000Y4115000D02*
X6555000Y3904207D01*
X6231000Y3580207D02*
X6231000Y2577000D01*
X14955000Y4546752D02*
X14955000Y4153248D01*
X8503559Y4990000D02*
X7310000Y4990000D01*
X-253248Y-11586500D02*
X-646752Y-11586500D01*
X15210000Y-3111752D02*
X15210000Y-5327157D01*
X14955000Y4153248D02*
X15385851Y3722397D01*
X8771752Y11420000D02*
X11273741Y11420000D01*
X8103248Y11695000D02*
X8496752Y11695000D01*
X9882800Y5087521D02*
X8825323Y6144998D01*
X13077158Y-7460000D02*
X9864126Y-7460000D01*
X3271958Y-9845000D02*
X1638158Y-11478800D01*
X15210000Y-1408248D02*
X15865000Y-2063248D01*
X15210000Y1685406D02*
X15210000Y-1408248D01*
X15865000Y-2063248D02*
X15865000Y-2456752D01*
X9864126Y-7460000D02*
X7554126Y-9770000D01*
X13669353Y9024388D02*
X13669353Y7928433D01*
X-145548Y-11478800D02*
X-253248Y-11586500D01*
X8825323Y6144998D02*
X8823959Y6144998D01*
X6097600Y11202026D02*
X6315574Y11420000D01*
X9882800Y4677200D02*
X9882800Y5087521D01*
X1638158Y-11478800D02*
X-145548Y-11478800D01*
X6097600Y11085002D02*
X6097600Y11202026D01*
X7554126Y-9770000D02*
X5135000Y-9770000D01*
X10750000Y4159000D02*
X10411000Y4159000D01*
X15385851Y3722397D02*
X15385851Y2859554D01*
X5060000Y-9845000D02*
X3271958Y-9845000D01*
X7828248Y11420000D02*
X8103248Y11695000D01*
X6315574Y11420000D02*
X7828248Y11420000D01*
X8496752Y11695000D02*
X8771752Y11420000D01*
X6082159Y6667841D02*
X5880000Y6870000D01*
X7310000Y4990000D02*
X6765000Y4445000D01*
X8816359Y4677200D02*
X8503559Y4990000D01*
X8823959Y6144998D02*
X8301116Y6667841D01*
X-646752Y-11586500D02*
X-754452Y-11478800D01*
X10000000Y4560000D02*
X9882800Y4677200D01*
X6765000Y4325000D02*
X6555000Y4115000D01*
X5135000Y-9770000D02*
X5060000Y-9845000D01*
X-3572700Y-11478800D02*
X-3990000Y-11061500D01*
X6765000Y4445000D02*
X6765000Y4325000D01*
X15385851Y2859554D02*
X14990446Y2464148D01*
%TO.N,QHOLD_GATE*%
X4592121Y3557879D02*
X4550000Y3600000D01*
X3790000Y3200000D02*
X3920000Y3330000D01*
X4550000Y3600000D02*
X3970000Y3600000D01*
X4592121Y3417121D02*
X4592121Y3557879D01*
X3240000Y3200000D02*
X3790000Y3200000D01*
%TO.N,IMU2_SDX*%
X-7480000Y-7861700D02*
X-7480000Y-7777000D01*
X-6949659Y-8392041D02*
X-7480000Y-7861700D01*
X-6940000Y-8392041D02*
X-6949659Y-8392041D01*
%TO.N,IMU2_INT*%
X1066800Y3429500D02*
X1066800Y3237500D01*
X1990300Y4353000D02*
X1066800Y3429500D01*
X2150000Y4353000D02*
X1990300Y4353000D01*
%TO.N,WBA_VDD11*%
X8130000Y1623140D02*
X8130000Y1080000D01*
X8111584Y1641556D02*
X8130000Y1623140D01*
X8990000Y3150000D02*
X8990000Y3000000D01*
X8693998Y3340000D02*
X8800000Y3340000D01*
X8990000Y3000000D02*
X8827900Y2837900D01*
X8800000Y3340000D02*
X8990000Y3150000D01*
X8200000Y4115000D02*
X8200000Y3876481D01*
X8827900Y2837900D02*
X8827900Y2731414D01*
X8111584Y2015098D02*
X8111584Y1641556D01*
X8221999Y3854482D02*
X8221999Y3811999D01*
X8827900Y2731414D02*
X8111584Y2015098D01*
X8200000Y3876481D02*
X8221999Y3854482D01*
X8130000Y1080000D02*
X7880000Y830000D01*
X8221999Y3811999D02*
X8693998Y3340000D01*
%TO.N,QHOLD2_GATE*%
X5405000Y7093900D02*
X4393759Y7093900D01*
X6730140Y7637840D02*
X6507300Y7415000D01*
X3901000Y5504000D02*
X3186000Y5504000D01*
X5726100Y7415000D02*
X5405000Y7093900D01*
X6507300Y7415000D02*
X5726100Y7415000D01*
X3901000Y5955700D02*
X3901000Y5504000D01*
X4027700Y6082400D02*
X3901000Y5955700D01*
X3186000Y5504000D02*
X3160000Y5530000D01*
X4144800Y6844941D02*
X4144800Y6814500D01*
X4144800Y6814500D02*
X4027700Y6697400D01*
X4027700Y6697400D02*
X4027700Y6082400D01*
X6745000Y7637840D02*
X6730140Y7637840D01*
X4393759Y7093900D02*
X4144800Y6844941D01*
%TO.N,MAG_C1_TERM*%
X4510000Y-10870000D02*
X4980000Y-11340000D01*
X4980000Y-11340000D02*
X5530000Y-11340000D01*
%TO.N,MAG_DRDY*%
X961588Y1748412D02*
X820000Y1890000D01*
X961588Y1640431D02*
X961588Y1748412D01*
X896157Y1575000D02*
X961588Y1640431D01*
X820000Y2206000D02*
X-76000Y3102000D01*
X820000Y1890000D02*
X820000Y2206000D01*
%TO.N,WBA_BOOT0*%
X2076000Y-6657000D02*
X2557748Y-6657000D01*
X2557748Y-6657000D02*
X2617724Y-6597024D01*
%TO.N,WBA_NRST*%
X-6215000Y5670093D02*
X-5885800Y5340893D01*
X1163500Y6754999D02*
X1024999Y6754999D01*
X1470000Y8225800D02*
X1476700Y8219100D01*
X-6880000Y4170000D02*
X-6270000Y4170000D01*
X1476700Y8219100D02*
X1476700Y7068199D01*
X1476700Y7068199D02*
X1163500Y6754999D01*
X-5885800Y4774200D02*
X-5970000Y4690000D01*
X-7840000Y7040000D02*
X-7625000Y6825000D01*
X-5885800Y5340893D02*
X-5885800Y4774200D01*
X1020000Y6585000D02*
X1050000Y6555000D01*
X-6270000Y4170000D02*
X-5990000Y3890000D01*
X1020000Y6750000D02*
X1020000Y6585000D01*
X-7625000Y6825000D02*
X-6215000Y6825000D01*
X1470000Y8255600D02*
X1470000Y8225800D01*
X-5970000Y4690000D02*
X-5970000Y3940000D01*
X1024999Y6754999D02*
X1020000Y6750000D01*
X-6215000Y6825000D02*
X-6215000Y5670093D01*
%TO.N,WBA_AON_HOLD*%
X7450000Y-2170000D02*
X7475000Y-2145000D01*
X8141999Y-2145000D02*
X8221999Y-2065000D01*
X7475000Y-2145000D02*
X8141999Y-2145000D01*
%TO.N,IR_WAKE*%
X9302998Y267002D02*
X9302998Y435000D01*
X9003000Y320000D02*
X9170000Y320000D01*
X2701000Y-3154000D02*
X2274300Y-3154000D01*
X2127084Y-1843251D02*
X2011831Y-1727998D01*
X2127084Y-1847984D02*
X2127084Y-1843251D01*
X10070000Y-590000D02*
X10070000Y-270000D01*
X9900000Y-330000D02*
X9302998Y267002D01*
X2274300Y-1995200D02*
X2127084Y-1847984D01*
X9900000Y-620000D02*
X9900000Y-330000D01*
X2274300Y-3154000D02*
X2274300Y-1995200D01*
%TO.N,WBA_WAKE*%
X4851000Y5504000D02*
X5277700Y5504000D01*
X5778700Y6005000D02*
X8294600Y6005000D01*
X5277700Y5504000D02*
X5778700Y6005000D01*
%TO.N,ACTIVATE_CONFIRM*%
X14550000Y-2841000D02*
X13950000Y-2241000D01*
X14550000Y-4441000D02*
X14550000Y-2841000D01*
X13890000Y-4616002D02*
X13890000Y-4441000D01*
X13890000Y-4441000D02*
X14550000Y-4441000D01*
%TO.N,ACTIVATE_SET*%
X14611000Y-641000D02*
X14770000Y-800000D01*
X13950000Y-641000D02*
X14611000Y-641000D01*
%TO.N,BAT_CELL1_POS*%
X14453200Y357300D02*
X14570052Y240448D01*
X14001700Y357300D02*
X14453200Y357300D01*
X13950000Y959000D02*
X13950000Y409000D01*
X13950000Y409000D02*
X14001700Y357300D01*
X14570052Y240448D02*
X14570052Y178709D01*
%TO.N,BAT_CELL2_POS*%
X13950000Y2559000D02*
X13950000Y2329107D01*
X13950000Y2329107D02*
X14548667Y1730440D01*
%TO.N,BAT_CELL3_POS*%
X13950000Y3621706D02*
X14220730Y3350976D01*
X13950000Y4159000D02*
X13950000Y3621706D01*
%TO.N,BOOT0*%
X13156429Y-4196129D02*
X12801300Y-3841000D01*
X13156429Y-4497688D02*
X13156429Y-4196129D01*
X12801300Y-3841000D02*
X12350000Y-3841000D01*
%TO.N,COMP_1V8*%
X-10950000Y4050000D02*
X-11250000Y4050000D01*
X-10660000Y4401400D02*
X-10660000Y4340000D01*
X-10350300Y4711100D02*
X-10660000Y4401400D01*
X-10660000Y4340000D02*
X-10950000Y4050000D01*
%TO.N,COMP_5V*%
D28*
X12980000Y-2241000D02*
X13274800Y-1946200D01*
D26*
X-6850000Y13759000D02*
X-7526700Y13759000D01*
D28*
X13274800Y-1946200D02*
X13274800Y134940D01*
X12350000Y-2241000D02*
X12980000Y-2241000D01*
X13274800Y134940D02*
X13352264Y212404D01*
D26*
X-7526700Y13166700D02*
X-7526700Y13759000D01*
X-7606300Y13087100D02*
X-7526700Y13166700D01*
%TO.N,COMP_5V_RAW*%
X-9256900Y-11710800D02*
X-9126700Y-11841000D01*
D25*
X11525500Y518142D02*
X11389999Y382641D01*
X11525500Y2415977D02*
X11525500Y518142D01*
X11389999Y382641D02*
X11389999Y-10863D01*
X11959136Y-580000D02*
X12360000Y-580000D01*
D26*
X-8450000Y-11841000D02*
X-9126700Y-11841000D01*
D25*
X11389999Y-10863D02*
X11959136Y-580000D01*
%TO.N,COMP_OUT*%
D24*
X12876000Y1560700D02*
X12350000Y1560700D01*
X12915900Y1600600D02*
X12876000Y1560700D01*
X12915900Y1660000D02*
X12915900Y1600600D01*
X12350000Y1560700D02*
X12350000Y959000D01*
%TO.N,COMP_SWDCLK*%
X12367000Y2559000D02*
X12688615Y2559000D01*
X12688615Y2559000D02*
X13155000Y3025385D01*
%TO.N,COMP_SWDIO*%
X12350000Y3557300D02*
X12350000Y4159000D01*
X11855000Y3330871D02*
X11921871Y3330871D01*
X11921871Y3330871D02*
X12148300Y3557300D01*
X12148300Y3557300D02*
X12350000Y3557300D01*
%TO.N,EXT_CAN_RX*%
X12350000Y5759000D02*
X12350000Y5209000D01*
X12082700Y4941700D02*
X10357800Y4941700D01*
X12350000Y5209000D02*
X12082700Y4941700D01*
%TO.N,EXT_CAN_TX*%
X13194000Y7359000D02*
X13195000Y7360000D01*
X12350000Y7359000D02*
X13194000Y7359000D01*
%TO.N,GPIO_EXT_0*%
X10750000Y-5441000D02*
X9966500Y-5441000D01*
%TO.N,GPIO_EXT_1*%
X10750000Y-3841000D02*
X10026400Y-3841000D01*
X10026400Y-3841000D02*
X9972400Y-3895000D01*
%TO.N,GPIO_EXT_2*%
X9390000Y-2820000D02*
X9694657Y-2820000D01*
X10273657Y-2241000D02*
X10750000Y-2241000D01*
X9694657Y-2820000D02*
X10273657Y-2241000D01*
%TO.N,GPIO_EXT_3*%
X13174998Y900000D02*
X13174998Y664998D01*
X12820000Y-1300000D02*
X11808041Y-1300000D01*
X11178041Y-670000D02*
X10710000Y-670000D01*
X12849800Y339800D02*
X12849800Y60000D01*
X13174998Y664998D02*
X12849800Y339800D01*
X11808041Y-1300000D02*
X11178041Y-670000D01*
X12950000Y-1170000D02*
X12820000Y-1300000D01*
X12849800Y60000D02*
X12950000Y-40200D01*
X12950000Y-40200D02*
X12950000Y-1170000D01*
%TO.N,H3LIS_INT1*%
X9640000Y1550000D02*
X10190000Y1000000D01*
X9640000Y1890600D02*
X9640000Y1550000D01*
X10190000Y1000000D02*
X10740000Y1000000D01*
%TO.N,NRST*%
X10148300Y7359000D02*
X10148300Y7312800D01*
X10750000Y7359000D02*
X10148300Y7359000D01*
X10148300Y7312800D02*
X9732300Y6896800D01*
%TO.N,PWR_HOLD*%
X1321157Y1751041D02*
X1321157Y1520000D01*
X55000Y-3353248D02*
X-385000Y-3793248D01*
X1140000Y2730000D02*
X1140000Y1932198D01*
X50000Y-6375000D02*
X300000Y-6625000D01*
X1680000Y3249659D02*
X1170341Y2740000D01*
X-385000Y-4186752D02*
X50000Y-4621752D01*
X-50000Y-2202000D02*
X-130000Y-2282000D01*
X951000Y-479000D02*
X-50000Y-1480000D01*
X1080000Y840000D02*
X1080000Y186843D01*
X1080000Y186843D02*
X951000Y57843D01*
X-50000Y-1480000D02*
X-50000Y-2202000D01*
X50000Y-4621752D02*
X50000Y-6375000D01*
X1680000Y3260000D02*
X1680000Y3249659D01*
X55000Y-3253000D02*
X55000Y-3353248D01*
X300000Y-6625000D02*
X380000Y-6625000D01*
X-385000Y-3793248D02*
X-385000Y-4186752D01*
X1130000Y2740000D02*
X1140000Y2730000D01*
X2290000Y3290000D02*
X1850000Y3290000D01*
X1140000Y1932198D02*
X1321157Y1751041D01*
X1321157Y1607050D02*
X1321157Y1081157D01*
X-130000Y-2282000D02*
X-130000Y-3068000D01*
X-130000Y-3068000D02*
X55000Y-3253000D01*
X1850000Y3290000D02*
X1820000Y3260000D01*
X1820000Y3260000D02*
X1680000Y3260000D01*
X951000Y57843D02*
X951000Y-479000D01*
X1170341Y2740000D02*
X1130000Y2740000D01*
X1321157Y1081157D02*
X1080000Y840000D01*
%TO.N,SWO*%
X10750000Y8959000D02*
X9541000Y8959000D01*
X9541000Y8959000D02*
X9410000Y9090000D01*
%TO.N,SYS_I2C_SCL*%
X-3028000Y5079000D02*
X-4330000Y6381000D01*
X11351700Y10559000D02*
X11529600Y10559000D01*
X-4330000Y6381000D02*
X-4330000Y6961752D01*
X-4330000Y6961752D02*
X-4025926Y7265826D01*
X-4025926Y7265826D02*
X-4025926Y7998826D01*
X-3003000Y5079000D02*
X-3028000Y5079000D01*
X10750000Y10559000D02*
X11351700Y10559000D01*
%TO.N,SYS_I2C_SDA*%
X5168900Y-13261600D02*
X5348300Y-13441000D01*
X5950000Y-13441000D02*
X5348300Y-13441000D01*
X-7105000Y925000D02*
X-10059300Y925000D01*
X-10059300Y925000D02*
X-10350300Y1216000D01*
%TO.N,SYS_SPI_CS_FIN*%
X5308600Y13798700D02*
X5184772Y13798700D01*
X5950000Y13759000D02*
X5348300Y13759000D01*
X5184772Y13798700D02*
X5157354Y13826118D01*
X5348300Y13759000D02*
X5308600Y13798700D01*
%TO.N,SYS_SPI_MISO*%
X-450000Y12159000D02*
X-450000Y11609000D01*
X-2050100Y11336800D02*
X-2068376Y11318524D01*
X-722200Y11336800D02*
X-2050100Y11336800D01*
X-450000Y11609000D02*
X-722200Y11336800D01*
%TO.N,SYS_SPI_MOSI*%
X-2385200Y12159000D02*
X-2050000Y12159000D01*
X-2570000Y12343800D02*
X-2385200Y12159000D01*
%TO.N,SYS_SPI_SCLK*%
X-5338500Y9551500D02*
X-4251700Y10638300D01*
X-4251700Y12159000D02*
X-3650000Y12159000D01*
X-4251700Y10638300D02*
X-4251700Y12159000D01*
X-6240624Y9551500D02*
X-5338500Y9551500D01*
X-6614124Y9925000D02*
X-6240624Y9551500D01*
%TO.N,WBA_RST_CMD*%
X-5883100Y2649100D02*
X-5010000Y1776000D01*
X-311297Y-1077984D02*
X-87984Y-1077984D01*
X-7464773Y2677032D02*
X-7436841Y2649100D01*
X-7622513Y2834773D02*
X-7464773Y2834773D01*
X-87984Y-1077984D02*
X475000Y-515000D01*
X-7464773Y2834773D02*
X-7464773Y2677032D01*
X-7850000Y3062260D02*
X-7622513Y2834773D01*
X475000Y-515000D02*
X475000Y0D01*
X-7436841Y2649100D02*
X-5883100Y2649100D01*
%TO.N,TMR_VDD*%
X-4978000Y-4079000D02*
X-4978000Y-5264502D01*
X-4978000Y-5264502D02*
X-4526002Y-5716500D01*
X-6804500Y-2324500D02*
X-6879900Y-2324500D01*
X-5955000Y-1475000D02*
X-6804500Y-2324500D01*
%TO.N,MAG_SHELF_N*%
X3944002Y-3375000D02*
X2155000Y-3375000D01*
X2155000Y-3375000D02*
X1700000Y-3830000D01*
X4000746Y-3318256D02*
X3944002Y-3375000D01*
X4016002Y-3318256D02*
X4000746Y-3318256D01*
%TO.N,BOOST_FB*%
X-7556700Y-676000D02*
X-7640500Y-592200D01*
X1033354Y-5606000D02*
X1428308Y-6000954D01*
X-7640500Y-592200D02*
X-8877300Y-592200D01*
X475000Y-5606000D02*
X1033354Y-5606000D01*
X-7105000Y-676000D02*
X-7556700Y-676000D01*
%TO.N,JUMP_WAKE*%
X-2152000Y5404000D02*
X-2527000Y5404000D01*
X-2873000Y5750000D02*
X-2970000Y5750000D01*
X10148300Y5906826D02*
X10148300Y5759000D01*
X2651000Y7529000D02*
X2563653Y7616346D01*
X9865000Y6190126D02*
X10148300Y5906826D01*
X10148300Y5759000D02*
X10750000Y5759000D01*
X-2527000Y5404000D02*
X-2873000Y5750000D01*
X2651000Y6555000D02*
X2651000Y7529000D01*
%TO.N,YAGI_WILK_A*%
X4228800Y1300800D02*
X4504000Y1576000D01*
X2150000Y2051000D02*
X2633400Y1567600D01*
X2695900Y1300800D02*
X2724300Y1300800D01*
X2633400Y1567600D02*
X2633400Y1363300D01*
X4101200Y1300800D02*
X4228800Y1300800D01*
X2724300Y1300800D02*
X4101200Y1300800D01*
X2633400Y1363300D02*
X2695900Y1300800D01*
%TO.N,YAGI_WILK_B*%
X2541000Y6010000D02*
X2610000Y5941000D01*
X3325000Y4395000D02*
X3325000Y4250000D01*
X3640000Y2600000D02*
X3790000Y2450000D01*
X-76000Y5404000D02*
X530000Y6010000D01*
X2815000Y3740000D02*
X2815000Y2840000D01*
X3020000Y4700000D02*
X3325000Y4395000D01*
X2815000Y2840000D02*
X3055000Y2600000D01*
X3055000Y2600000D02*
X3640000Y2600000D01*
X3325000Y4250000D02*
X2815000Y3740000D01*
X3790000Y2450000D02*
X4510000Y2450000D01*
X2610000Y5941000D02*
X2610000Y5165793D01*
X2610000Y5165793D02*
X3020000Y4755793D01*
X3020000Y4755793D02*
X3020000Y4700000D01*
X530000Y6010000D02*
X2541000Y6010000D01*
%TD*%
M02*
