%TF.GenerationSoftware,KiCad,Pcbnew,10.0.3*%
%TF.CreationDate,2026-09-04T14:16:58+02:00*%
%TF.ProjectId,cell_floor_board,63656c6c-5f66-46c6-9f6f-725f626f6172,rev?*%
%TF.SameCoordinates,Original*%
%TF.FileFunction,Copper,L4,Inr*%
%TF.FilePolarity,Positive*%
%FSLAX46Y46*%
G04 Gerber Fmt 4.6, Leading zero omitted, Abs format (unit mm)*
G04 Created by KiCad (PCBNEW 10.0.3) date 2026-09-04 14:16:58*
%MOMM*%
%LPD*%
G01*
G04 APERTURE LIST*
%TA.AperFunction,ViaPad*%
%ADD10C,0.450000*%
%TD*%
%TA.AperFunction,Conductor*%
%ADD11C,0.100000*%
%TD*%
G04 APERTURE END LIST*
D10*
%TO.N,FLEX_GND*%
X5189200Y-2936500D03*
X-8780000Y-13030000D03*
X-7230000Y4610000D03*
%TO.N,3V3*%
X9945900Y3208800D03*
X13297000Y-6636000D03*
X-691900Y-14959100D03*
X9907900Y11809400D03*
%TO.N,3V3_AON*%
X8187400Y2937000D03*
X13373300Y-5110800D03*
X-820200Y-9986100D03*
%TO.N,ACTIVATE_CONFIRM*%
X14148300Y7728500D03*
X14911500Y-2878900D03*
%TO.N,ACTIVATE_SET*%
X14367700Y7009000D03*
X15452600Y-1150000D03*
%TO.N,BAT_PROT*%
X-1450000Y-6969600D03*
X15307600Y2023600D03*
X8313000Y5492200D03*
%TO.N,BAT_RAW*%
X-3980000Y-15340000D03*
X12183300Y2850000D03*
X6360000Y9460000D03*
%TO.N,BOOT0*%
X15360000Y4130000D03*
%TO.N,COMP_5V*%
X13398400Y8608500D03*
X-3050000Y-5323300D03*
%TO.N,COMP_SWDCLK*%
X11550000Y-4655800D03*
%TO.N,COMP_SWDIO*%
X11880000Y-3596800D03*
X11519900Y1538600D03*
%TO.N,EXT_CAN_RX*%
X12122500Y7679400D03*
X11678500Y-2078500D03*
%TO.N,EXT_CAN_TX*%
X14705200Y-1726700D03*
X12302500Y9825800D03*
%TO.N,FIN1_AOUT1*%
X11799900Y10291900D03*
X14714900Y-126700D03*
%TO.N,FIN2_AOUT1*%
X10405800Y1295300D03*
%TO.N,FIN3_AOUT1*%
X11593500Y3215200D03*
%TO.N,FIN4_AOUT1*%
X11504100Y5450000D03*
%TO.N,FIN_HALL*%
X13255000Y7050000D03*
%TO.N,FIN_VREF*%
X8991300Y9257400D03*
%TO.N,GPIO_EXT_0*%
X10763100Y-3556300D03*
%TO.N,GPIO_EXT_1*%
X7881500Y9281200D03*
X9569100Y-3515200D03*
%TO.N,GPIO_EXT_2*%
X8909000Y12738600D03*
X11134500Y-390900D03*
X10524300Y11626100D03*
%TO.N,GPIO_EXT_3*%
X13103800Y-573300D03*
%TO.N,H3LIS_INT1*%
X12831800Y1250000D03*
X7314400Y14110100D03*
%TO.N,I2C3_SCL*%
X8899100Y2816800D03*
%TO.N,I2C3_SDA*%
X15303800Y4662300D03*
X9949500Y-1808300D03*
%TO.N,JUMP_WAKE*%
X4107600Y-15090900D03*
X15157300Y5371700D03*
%TO.N,NRST*%
X3520000Y-11784600D03*
X6851000Y7483400D03*
%TO.N,SWO*%
X8387900Y10290400D03*
X2511900Y-13183400D03*
%TO.N,SYS_I2C_SCL*%
X8393800Y-6129500D03*
%TO.N,SYS_I2C_SDA*%
X1751600Y-10013000D03*
X11774800Y-6713600D03*
%TO.N,SYS_SPI_CS_FIN*%
X8573300Y-3508700D03*
%TO.N,SYS_SPI_MISO*%
X7990400Y-3502500D03*
%TO.N,SYS_SPI_MOSI*%
X1006700Y-9988800D03*
X9963100Y-832900D03*
%TO.N,SYS_SPI_SCLK*%
X9954800Y-305600D03*
%TD*%
%TO.N,3V3*%
D11*
X-691900Y-14959100D02*
X6933500Y-7333700D01*
X6933500Y-7333700D02*
X12599400Y-7333700D01*
X12599400Y-7333700D02*
X12599400Y-7333600D01*
X12599400Y-7333600D02*
X13297000Y-6636000D01*
%TO.N,3V3_AON*%
X5720200Y-7065400D02*
X2376100Y-10409500D01*
X11935000Y-7065400D02*
X5720200Y-7065400D01*
X-396800Y-10409500D02*
X-820200Y-9986100D01*
X2376100Y-10409500D02*
X-396800Y-10409500D01*
X13373300Y-5627100D02*
X11935000Y-7065400D01*
X13373300Y-5110800D02*
X13373300Y-5627100D01*
%TO.N,BAT_PROT*%
X9662400Y4142800D02*
X11781600Y2023600D01*
X8539100Y3019500D02*
X9662400Y4142800D01*
X-1450000Y-6969600D02*
X-1221800Y-6969600D01*
X9662400Y4142800D02*
X8313000Y5492200D01*
X8539100Y2791300D02*
X8539100Y3019500D01*
X-1221800Y-6969600D02*
X8539100Y2791300D01*
X11781600Y2023600D02*
X15307600Y2023600D01*
%TO.N,BAT_RAW*%
X3560000Y9460000D02*
X6360000Y9460000D01*
X-3980000Y-15340000D02*
X-3980000Y1920000D01*
X-3980000Y1920000D02*
X3560000Y9460000D01*
%TO.N,COMP_5V*%
X10881800Y8608500D02*
X-3050000Y-5323300D01*
X13398400Y8608500D02*
X10881800Y8608500D01*
%TO.N,GPIO_EXT_2*%
X10524300Y11707300D02*
X9493000Y12738600D01*
X10524300Y11626100D02*
X10524300Y11707300D01*
X9493000Y12738600D02*
X8909000Y12738600D01*
%TO.N,I2C3_SDA*%
X15547700Y4662300D02*
X15303800Y4662300D01*
X15157400Y1358200D02*
X15850000Y2050800D01*
X11114200Y-1808300D02*
X14280700Y1358200D01*
X14280700Y1358200D02*
X15157400Y1358200D01*
X9949500Y-1808300D02*
X11114200Y-1808300D01*
X15850000Y4360000D02*
X15547700Y4662300D01*
X15850000Y2050800D02*
X15850000Y4360000D01*
%TO.N,SYS_I2C_SDA*%
X1751600Y-10013000D02*
X5051000Y-6713600D01*
X5051000Y-6713600D02*
X11774800Y-6713600D01*
%TO.N,SYS_SPI_MOSI*%
X9963100Y-1032400D02*
X9963100Y-832900D01*
X1006700Y-9988800D02*
X9963100Y-1032400D01*
%TD*%
M02*
