%TF.GenerationSoftware,KiCad,Pcbnew,10.0.3*%
%TF.CreationDate,2026-09-04T14:16:58+02:00*%
%TF.ProjectId,cell_floor_board,63656c6c-5f66-46c6-9f6f-725f626f6172,rev?*%
%TF.SameCoordinates,Original*%
%TF.FileFunction,Soldermask,Top*%
%TF.FilePolarity,Negative*%
%FSLAX46Y46*%
G04 Gerber Fmt 4.6, Leading zero omitted, Abs format (unit mm)*
G04 Created by KiCad (PCBNEW 10.0.3) date 2026-09-04 14:16:58*
%MOMM*%
%LPD*%
G01*
G04 APERTURE LIST*
%ADD10C,3.000000*%
%ADD11R,0.900000X0.900000*%
G04 APERTURE END LIST*
D10*
%TO.C,P_CELL_TAB_NEG2*%
X-1800000Y-2000000D03*
%TD*%
%TO.C,MECH1*%
X9899500Y-9899500D03*
%TD*%
%TO.C,P_CELL_TAB_NEG1*%
X-500000Y1500000D03*
%TD*%
%TO.C,MECH2*%
X-9899500Y9899500D03*
%TD*%
%TO.C,P_CELL_TAB_NEG3*%
X1800000Y-2000000D03*
%TD*%
D11*
%TO.C,J_cell_floor_board_spacer_battery_1*%
X14550000Y1450000D03*
X14550000Y3050000D03*
X14550000Y4650000D03*
X14550000Y6250000D03*
X12950000Y3050000D03*
X12950000Y4650000D03*
X12950000Y6250000D03*
X12950000Y7850000D03*
X11350000Y4650000D03*
X11350000Y6250000D03*
X11350000Y7850000D03*
X11350000Y9450000D03*
X11350000Y11050000D03*
X9750000Y4650000D03*
X9750000Y6250000D03*
X9750000Y7850000D03*
X9750000Y9450000D03*
X9750000Y11050000D03*
X8150000Y4650000D03*
X8150000Y6250000D03*
X8150000Y11050000D03*
X8150000Y12650000D03*
X6550000Y-14550000D03*
X6550000Y14250000D03*
X4950000Y-14550000D03*
X4950000Y-12950000D03*
X3350000Y-14550000D03*
X3350000Y-12950000D03*
X1750000Y-14550000D03*
X1750000Y-12950000D03*
X1750000Y-11350000D03*
X150000Y-14550000D03*
X150000Y-12950000D03*
X150000Y-11350000D03*
X150000Y-9750000D03*
X-1450000Y-14550000D03*
X-1450000Y-12950000D03*
X-1450000Y-11350000D03*
X-3050000Y-14550000D03*
X-3050000Y-12950000D03*
X-4650000Y-14550000D03*
X-4650000Y-12950000D03*
X-6250000Y-14550000D03*
X-6250000Y-12950000D03*
X-7850000Y-12950000D03*
X-7850000Y4650000D03*
X-9450000Y4650000D03*
X-9450000Y6250000D03*
X-11050000Y4650000D03*
X-11050000Y6250000D03*
X-12650000Y3050000D03*
X-12650000Y4650000D03*
X-12650000Y6250000D03*
X-14250000Y1450000D03*
X-14250000Y3050000D03*
X-14250000Y4650000D03*
X-14250000Y6250000D03*
X-15850000Y-1750000D03*
X-15850000Y-150000D03*
X-15850000Y1450000D03*
%TD*%
M02*
