%TF.GenerationSoftware,KiCad,Pcbnew,10.0.3*%
%TF.CreationDate,2026-09-04T14:16:59+02:00*%
%TF.ProjectId,cell_floor_board,63656c6c-5f66-46c6-9f6f-725f626f6172,rev?*%
%TF.SameCoordinates,Original*%
%TF.FileFunction,Drillmap*%
%TF.FilePolarity,Positive*%
%FSLAX45Y45*%
G04 Gerber Fmt 4.5, Leading zero omitted, Abs format (unit mm)*
G04 Created by KiCad (PCBNEW 10.0.3) date 2026-09-04 14:16:59*
%MOMM*%
%LPD*%
G01*
G04 APERTURE LIST*
%ADD10C,0.150000*%
%ADD11C,0.200000*%
%ADD12C,0.100000*%
G04 APERTURE END LIST*
D10*
X1700000Y0D02*
G75*
G02*
X-1700000Y0I-1700000J0D01*
G01*
X-1700000Y0D02*
G75*
G02*
X1700000Y0I1700000J0D01*
G01*
D11*
D12*
X-888000Y-1293000D02*
X-868000Y-1313000D01*
X-868000Y-1293000D02*
X-888000Y-1313000D01*
X-733000Y471000D02*
X-713000Y451000D01*
X-713000Y471000D02*
X-733000Y451000D01*
X-408000Y-1524000D02*
X-388000Y-1544000D01*
X-388000Y-1524000D02*
X-408000Y-1544000D01*
X-315000Y-522330D02*
X-295000Y-542330D01*
X-295000Y-522330D02*
X-315000Y-542330D01*
X-155000Y-686960D02*
X-135000Y-706960D01*
X-135000Y-686960D02*
X-155000Y-706960D01*
X-92020Y-988610D02*
X-72020Y-1008610D01*
X-72020Y-988610D02*
X-92020Y-1008610D01*
X-79190Y-1485910D02*
X-59190Y-1505910D01*
X-59190Y-1485910D02*
X-79190Y-1505910D01*
X90670Y-988880D02*
X110670Y-1008880D01*
X110670Y-988880D02*
X90670Y-1008880D01*
X165160Y-991300D02*
X185160Y-1011300D01*
X185160Y-991300D02*
X165160Y-1011300D01*
X241190Y-1308340D02*
X261190Y-1328340D01*
X261190Y-1308340D02*
X241190Y-1328340D01*
X342000Y-1168460D02*
X362000Y-1188460D01*
X362000Y-1168460D02*
X342000Y-1188460D01*
X400760Y-1499090D02*
X420760Y-1519090D01*
X420760Y-1499090D02*
X400760Y-1519090D01*
X508920Y-283650D02*
X528920Y-303650D01*
X528920Y-283650D02*
X508920Y-303650D01*
X626000Y956000D02*
X646000Y936000D01*
X646000Y956000D02*
X626000Y936000D01*
X675100Y758340D02*
X695100Y738340D01*
X695100Y758340D02*
X675100Y738340D01*
X721440Y1421010D02*
X741440Y1401010D01*
X741440Y1421010D02*
X721440Y1401010D01*
X778150Y938120D02*
X798150Y918120D01*
X798150Y938120D02*
X778150Y918120D01*
X789040Y-340250D02*
X809040Y-360250D01*
X809040Y-340250D02*
X789040Y-360250D01*
X808740Y303700D02*
X828740Y283700D01*
X828740Y303700D02*
X808740Y283700D01*
X821300Y559220D02*
X841300Y539220D01*
X841300Y559220D02*
X821300Y539220D01*
X828790Y1039040D02*
X848790Y1019040D01*
X848790Y1039040D02*
X828790Y1019040D01*
X829380Y-602950D02*
X849380Y-622950D01*
X849380Y-602950D02*
X829380Y-622950D01*
X847330Y-340870D02*
X867330Y-360870D01*
X867330Y-340870D02*
X847330Y-360870D01*
X879910Y291680D02*
X899910Y271680D01*
X899910Y291680D02*
X879910Y271680D01*
X880900Y1283860D02*
X900900Y1263860D01*
X900900Y1283860D02*
X880900Y1263860D01*
X889130Y935740D02*
X909130Y915740D01*
X909130Y935740D02*
X889130Y915740D01*
X946910Y-341520D02*
X966910Y-361520D01*
X966910Y-341520D02*
X946910Y-361520D01*
X980790Y1190940D02*
X1000790Y1170940D01*
X1000790Y1190940D02*
X980790Y1170940D01*
X984590Y330880D02*
X1004590Y310880D01*
X1004590Y330880D02*
X984590Y310880D01*
X984950Y-170830D02*
X1004950Y-190830D01*
X1004950Y-170830D02*
X984950Y-190830D01*
X985480Y-20560D02*
X1005480Y-40560D01*
X1005480Y-20560D02*
X985480Y-40560D01*
X986310Y-73290D02*
X1006310Y-93290D01*
X1006310Y-73290D02*
X986310Y-93290D01*
X1030580Y139530D02*
X1050580Y119530D01*
X1050580Y139530D02*
X1030580Y119530D01*
X1042430Y1172610D02*
X1062430Y1152610D01*
X1062430Y1172610D02*
X1042430Y1152610D01*
X1066310Y-345630D02*
X1086310Y-365630D01*
X1086310Y-345630D02*
X1066310Y-365630D01*
X1103450Y-29090D02*
X1123450Y-49090D01*
X1123450Y-29090D02*
X1103450Y-49090D01*
X1140410Y555000D02*
X1160410Y535000D01*
X1160410Y555000D02*
X1140410Y535000D01*
X1141990Y163860D02*
X1161990Y143860D01*
X1161990Y163860D02*
X1141990Y143860D01*
X1145000Y-455580D02*
X1165000Y-475580D01*
X1165000Y-455580D02*
X1145000Y-475580D01*
X1149350Y331520D02*
X1169350Y311520D01*
X1169350Y331520D02*
X1149350Y311520D01*
X1157850Y-197850D02*
X1177850Y-217850D01*
X1177850Y-197850D02*
X1157850Y-217850D01*
X1167480Y-661360D02*
X1187480Y-681360D01*
X1187480Y-661360D02*
X1167480Y-681360D01*
X1169990Y1039190D02*
X1189990Y1019190D01*
X1189990Y1039190D02*
X1169990Y1019190D01*
X1178000Y-349680D02*
X1198000Y-369680D01*
X1198000Y-349680D02*
X1178000Y-369680D01*
X1202250Y777940D02*
X1222250Y757940D01*
X1222250Y777940D02*
X1202250Y757940D01*
X1208330Y295000D02*
X1228330Y275000D01*
X1228330Y295000D02*
X1208330Y275000D01*
X1220250Y992580D02*
X1240250Y972580D01*
X1240250Y992580D02*
X1220250Y972580D01*
X1273180Y135000D02*
X1293180Y115000D01*
X1293180Y135000D02*
X1273180Y115000D01*
X1300380Y-47330D02*
X1320380Y-67330D01*
X1320380Y-47330D02*
X1300380Y-67330D01*
X1315500Y715000D02*
X1335500Y695000D01*
X1335500Y715000D02*
X1315500Y695000D01*
X1319700Y-653600D02*
X1339700Y-673600D01*
X1339700Y-653600D02*
X1319700Y-673600D01*
X1327330Y-501080D02*
X1347330Y-521080D01*
X1347330Y-501080D02*
X1327330Y-521080D01*
X1329840Y870850D02*
X1349840Y850850D01*
X1349840Y870850D02*
X1329840Y850850D01*
X1404830Y782850D02*
X1424830Y762850D01*
X1424830Y782850D02*
X1404830Y762850D01*
X1426770Y710900D02*
X1446770Y690900D01*
X1446770Y710900D02*
X1426770Y690900D01*
X1460520Y-162670D02*
X1480520Y-182670D01*
X1480520Y-162670D02*
X1460520Y-182670D01*
X1461490Y-2670D02*
X1481490Y-22670D01*
X1481490Y-2670D02*
X1461490Y-22670D01*
X1481150Y-277890D02*
X1501150Y-297890D01*
X1501150Y-277890D02*
X1481150Y-297890D01*
X1505730Y547170D02*
X1525730Y527170D01*
X1525730Y547170D02*
X1505730Y527170D01*
X1520380Y476230D02*
X1540380Y456230D01*
X1540380Y476230D02*
X1520380Y456230D01*
X1520760Y212360D02*
X1540760Y192360D01*
X1540760Y212360D02*
X1520760Y192360D01*
X1526000Y423000D02*
X1546000Y403000D01*
X1546000Y423000D02*
X1526000Y403000D01*
X1535260Y-105000D02*
X1555260Y-125000D01*
X1555260Y-105000D02*
X1535260Y-125000D01*
D11*
X-1446723Y-2018984D02*
X-1446723Y-1818984D01*
X-1446723Y-1818984D02*
X-1399104Y-1818984D01*
X-1399104Y-1818984D02*
X-1370533Y-1828508D01*
X-1370533Y-1828508D02*
X-1351485Y-1847555D01*
X-1351485Y-1847555D02*
X-1341961Y-1866603D01*
X-1341961Y-1866603D02*
X-1332437Y-1904698D01*
X-1332437Y-1904698D02*
X-1332437Y-1933269D01*
X-1332437Y-1933269D02*
X-1341961Y-1971365D01*
X-1341961Y-1971365D02*
X-1351485Y-1990412D01*
X-1351485Y-1990412D02*
X-1370533Y-2009460D01*
X-1370533Y-2009460D02*
X-1399104Y-2018984D01*
X-1399104Y-2018984D02*
X-1446723Y-2018984D01*
X-1246723Y-2018984D02*
X-1246723Y-1885650D01*
X-1246723Y-1923746D02*
X-1237199Y-1904698D01*
X-1237199Y-1904698D02*
X-1227676Y-1895174D01*
X-1227676Y-1895174D02*
X-1208628Y-1885650D01*
X-1208628Y-1885650D02*
X-1189580Y-1885650D01*
X-1122914Y-2018984D02*
X-1122914Y-1885650D01*
X-1122914Y-1818984D02*
X-1132437Y-1828508D01*
X-1132437Y-1828508D02*
X-1122914Y-1838031D01*
X-1122914Y-1838031D02*
X-1113390Y-1828508D01*
X-1113390Y-1828508D02*
X-1122914Y-1818984D01*
X-1122914Y-1818984D02*
X-1122914Y-1838031D01*
X-999104Y-2018984D02*
X-1018152Y-2009460D01*
X-1018152Y-2009460D02*
X-1027675Y-1990412D01*
X-1027675Y-1990412D02*
X-1027675Y-1818984D01*
X-894342Y-2018984D02*
X-913390Y-2009460D01*
X-913390Y-2009460D02*
X-922914Y-1990412D01*
X-922914Y-1990412D02*
X-922914Y-1818984D01*
X-665771Y-2018984D02*
X-665771Y-1818984D01*
X-665771Y-1818984D02*
X-599104Y-1961841D01*
X-599104Y-1961841D02*
X-532437Y-1818984D01*
X-532437Y-1818984D02*
X-532437Y-2018984D01*
X-351485Y-2018984D02*
X-351485Y-1914222D01*
X-351485Y-1914222D02*
X-361009Y-1895174D01*
X-361009Y-1895174D02*
X-380056Y-1885650D01*
X-380056Y-1885650D02*
X-418152Y-1885650D01*
X-418152Y-1885650D02*
X-437199Y-1895174D01*
X-351485Y-2009460D02*
X-370533Y-2018984D01*
X-370533Y-2018984D02*
X-418152Y-2018984D01*
X-418152Y-2018984D02*
X-437199Y-2009460D01*
X-437199Y-2009460D02*
X-446723Y-1990412D01*
X-446723Y-1990412D02*
X-446723Y-1971365D01*
X-446723Y-1971365D02*
X-437199Y-1952317D01*
X-437199Y-1952317D02*
X-418152Y-1942793D01*
X-418152Y-1942793D02*
X-370533Y-1942793D01*
X-370533Y-1942793D02*
X-351485Y-1933269D01*
X-256247Y-1885650D02*
X-256247Y-2085650D01*
X-256247Y-1895174D02*
X-237199Y-1885650D01*
X-237199Y-1885650D02*
X-199104Y-1885650D01*
X-199104Y-1885650D02*
X-180056Y-1895174D01*
X-180056Y-1895174D02*
X-170533Y-1904698D01*
X-170533Y-1904698D02*
X-161009Y-1923746D01*
X-161009Y-1923746D02*
X-161009Y-1980888D01*
X-161009Y-1980888D02*
X-170533Y-1999936D01*
X-170533Y-1999936D02*
X-180056Y-2009460D01*
X-180056Y-2009460D02*
X-199104Y-2018984D01*
X-199104Y-2018984D02*
X-237199Y-2018984D01*
X-237199Y-2018984D02*
X-256247Y-2009460D01*
X-75295Y-1999936D02*
X-65771Y-2009460D01*
X-65771Y-2009460D02*
X-75295Y-2018984D01*
X-75295Y-2018984D02*
X-84818Y-2009460D01*
X-84818Y-2009460D02*
X-75295Y-1999936D01*
X-75295Y-1999936D02*
X-75295Y-2018984D01*
X-75295Y-1895174D02*
X-65771Y-1904698D01*
X-65771Y-1904698D02*
X-75295Y-1914222D01*
X-75295Y-1914222D02*
X-84818Y-1904698D01*
X-84818Y-1904698D02*
X-75295Y-1895174D01*
X-75295Y-1895174D02*
X-75295Y-1914222D01*
D12*
X-1727500Y-2337500D02*
X-1707500Y-2357500D01*
X-1707500Y-2337500D02*
X-1727500Y-2357500D01*
D11*
X-1408628Y-2238984D02*
X-1389580Y-2238984D01*
X-1389580Y-2238984D02*
X-1370533Y-2248508D01*
X-1370533Y-2248508D02*
X-1361009Y-2258031D01*
X-1361009Y-2258031D02*
X-1351485Y-2277079D01*
X-1351485Y-2277079D02*
X-1341961Y-2315174D01*
X-1341961Y-2315174D02*
X-1341961Y-2362793D01*
X-1341961Y-2362793D02*
X-1351485Y-2400889D01*
X-1351485Y-2400889D02*
X-1361009Y-2419936D01*
X-1361009Y-2419936D02*
X-1370533Y-2429460D01*
X-1370533Y-2429460D02*
X-1389580Y-2438984D01*
X-1389580Y-2438984D02*
X-1408628Y-2438984D01*
X-1408628Y-2438984D02*
X-1427675Y-2429460D01*
X-1427675Y-2429460D02*
X-1437199Y-2419936D01*
X-1437199Y-2419936D02*
X-1446723Y-2400889D01*
X-1446723Y-2400889D02*
X-1456247Y-2362793D01*
X-1456247Y-2362793D02*
X-1456247Y-2315174D01*
X-1456247Y-2315174D02*
X-1446723Y-2277079D01*
X-1446723Y-2277079D02*
X-1437199Y-2258031D01*
X-1437199Y-2258031D02*
X-1427675Y-2248508D01*
X-1427675Y-2248508D02*
X-1408628Y-2238984D01*
X-1256247Y-2419936D02*
X-1246723Y-2429460D01*
X-1246723Y-2429460D02*
X-1256247Y-2438984D01*
X-1256247Y-2438984D02*
X-1265771Y-2429460D01*
X-1265771Y-2429460D02*
X-1256247Y-2419936D01*
X-1256247Y-2419936D02*
X-1256247Y-2438984D01*
X-1170533Y-2258031D02*
X-1161009Y-2248508D01*
X-1161009Y-2248508D02*
X-1141961Y-2238984D01*
X-1141961Y-2238984D02*
X-1094342Y-2238984D01*
X-1094342Y-2238984D02*
X-1075295Y-2248508D01*
X-1075295Y-2248508D02*
X-1065771Y-2258031D01*
X-1065771Y-2258031D02*
X-1056247Y-2277079D01*
X-1056247Y-2277079D02*
X-1056247Y-2296127D01*
X-1056247Y-2296127D02*
X-1065771Y-2324698D01*
X-1065771Y-2324698D02*
X-1180056Y-2438984D01*
X-1180056Y-2438984D02*
X-1056247Y-2438984D01*
X-932437Y-2238984D02*
X-913390Y-2238984D01*
X-913390Y-2238984D02*
X-894342Y-2248508D01*
X-894342Y-2248508D02*
X-884818Y-2258031D01*
X-884818Y-2258031D02*
X-875294Y-2277079D01*
X-875294Y-2277079D02*
X-865771Y-2315174D01*
X-865771Y-2315174D02*
X-865771Y-2362793D01*
X-865771Y-2362793D02*
X-875294Y-2400889D01*
X-875294Y-2400889D02*
X-884818Y-2419936D01*
X-884818Y-2419936D02*
X-894342Y-2429460D01*
X-894342Y-2429460D02*
X-913390Y-2438984D01*
X-913390Y-2438984D02*
X-932437Y-2438984D01*
X-932437Y-2438984D02*
X-951485Y-2429460D01*
X-951485Y-2429460D02*
X-961009Y-2419936D01*
X-961009Y-2419936D02*
X-970533Y-2400889D01*
X-970533Y-2400889D02*
X-980056Y-2362793D01*
X-980056Y-2362793D02*
X-980056Y-2315174D01*
X-980056Y-2315174D02*
X-970533Y-2277079D01*
X-970533Y-2277079D02*
X-961009Y-2258031D01*
X-961009Y-2258031D02*
X-951485Y-2248508D01*
X-951485Y-2248508D02*
X-932437Y-2238984D01*
X-741961Y-2238984D02*
X-722913Y-2238984D01*
X-722913Y-2238984D02*
X-703866Y-2248508D01*
X-703866Y-2248508D02*
X-694342Y-2258031D01*
X-694342Y-2258031D02*
X-684818Y-2277079D01*
X-684818Y-2277079D02*
X-675295Y-2315174D01*
X-675295Y-2315174D02*
X-675295Y-2362793D01*
X-675295Y-2362793D02*
X-684818Y-2400889D01*
X-684818Y-2400889D02*
X-694342Y-2419936D01*
X-694342Y-2419936D02*
X-703866Y-2429460D01*
X-703866Y-2429460D02*
X-722913Y-2438984D01*
X-722913Y-2438984D02*
X-741961Y-2438984D01*
X-741961Y-2438984D02*
X-761009Y-2429460D01*
X-761009Y-2429460D02*
X-770533Y-2419936D01*
X-770533Y-2419936D02*
X-780056Y-2400889D01*
X-780056Y-2400889D02*
X-789580Y-2362793D01*
X-789580Y-2362793D02*
X-789580Y-2315174D01*
X-789580Y-2315174D02*
X-780056Y-2277079D01*
X-780056Y-2277079D02*
X-770533Y-2258031D01*
X-770533Y-2258031D02*
X-761009Y-2248508D01*
X-761009Y-2248508D02*
X-741961Y-2238984D01*
X-589580Y-2438984D02*
X-589580Y-2305650D01*
X-589580Y-2324698D02*
X-580056Y-2315174D01*
X-580056Y-2315174D02*
X-561009Y-2305650D01*
X-561009Y-2305650D02*
X-532437Y-2305650D01*
X-532437Y-2305650D02*
X-513390Y-2315174D01*
X-513390Y-2315174D02*
X-503866Y-2334222D01*
X-503866Y-2334222D02*
X-503866Y-2438984D01*
X-503866Y-2334222D02*
X-494342Y-2315174D01*
X-494342Y-2315174D02*
X-475294Y-2305650D01*
X-475294Y-2305650D02*
X-446723Y-2305650D01*
X-446723Y-2305650D02*
X-427675Y-2315174D01*
X-427675Y-2315174D02*
X-418152Y-2334222D01*
X-418152Y-2334222D02*
X-418152Y-2438984D01*
X-322914Y-2438984D02*
X-322914Y-2305650D01*
X-322914Y-2324698D02*
X-313390Y-2315174D01*
X-313390Y-2315174D02*
X-294342Y-2305650D01*
X-294342Y-2305650D02*
X-265771Y-2305650D01*
X-265771Y-2305650D02*
X-246723Y-2315174D01*
X-246723Y-2315174D02*
X-237199Y-2334222D01*
X-237199Y-2334222D02*
X-237199Y-2438984D01*
X-237199Y-2334222D02*
X-227675Y-2315174D01*
X-227675Y-2315174D02*
X-208628Y-2305650D01*
X-208628Y-2305650D02*
X-180056Y-2305650D01*
X-180056Y-2305650D02*
X-161009Y-2315174D01*
X-161009Y-2315174D02*
X-151485Y-2334222D01*
X-151485Y-2334222D02*
X-151485Y-2438984D01*
X238991Y-2229460D02*
X67563Y-2486603D01*
X496134Y-2238984D02*
X515182Y-2238984D01*
X515182Y-2238984D02*
X534229Y-2248508D01*
X534229Y-2248508D02*
X543753Y-2258031D01*
X543753Y-2258031D02*
X553277Y-2277079D01*
X553277Y-2277079D02*
X562801Y-2315174D01*
X562801Y-2315174D02*
X562801Y-2362793D01*
X562801Y-2362793D02*
X553277Y-2400889D01*
X553277Y-2400889D02*
X543753Y-2419936D01*
X543753Y-2419936D02*
X534229Y-2429460D01*
X534229Y-2429460D02*
X515182Y-2438984D01*
X515182Y-2438984D02*
X496134Y-2438984D01*
X496134Y-2438984D02*
X477086Y-2429460D01*
X477086Y-2429460D02*
X467563Y-2419936D01*
X467563Y-2419936D02*
X458039Y-2400889D01*
X458039Y-2400889D02*
X448515Y-2362793D01*
X448515Y-2362793D02*
X448515Y-2315174D01*
X448515Y-2315174D02*
X458039Y-2277079D01*
X458039Y-2277079D02*
X467563Y-2258031D01*
X467563Y-2258031D02*
X477086Y-2248508D01*
X477086Y-2248508D02*
X496134Y-2238984D01*
X648515Y-2419936D02*
X658039Y-2429460D01*
X658039Y-2429460D02*
X648515Y-2438984D01*
X648515Y-2438984D02*
X638991Y-2429460D01*
X638991Y-2429460D02*
X648515Y-2419936D01*
X648515Y-2419936D02*
X648515Y-2438984D01*
X781848Y-2238984D02*
X800896Y-2238984D01*
X800896Y-2238984D02*
X819944Y-2248508D01*
X819944Y-2248508D02*
X829467Y-2258031D01*
X829467Y-2258031D02*
X838991Y-2277079D01*
X838991Y-2277079D02*
X848515Y-2315174D01*
X848515Y-2315174D02*
X848515Y-2362793D01*
X848515Y-2362793D02*
X838991Y-2400889D01*
X838991Y-2400889D02*
X829467Y-2419936D01*
X829467Y-2419936D02*
X819944Y-2429460D01*
X819944Y-2429460D02*
X800896Y-2438984D01*
X800896Y-2438984D02*
X781848Y-2438984D01*
X781848Y-2438984D02*
X762801Y-2429460D01*
X762801Y-2429460D02*
X753277Y-2419936D01*
X753277Y-2419936D02*
X743753Y-2400889D01*
X743753Y-2400889D02*
X734229Y-2362793D01*
X734229Y-2362793D02*
X734229Y-2315174D01*
X734229Y-2315174D02*
X743753Y-2277079D01*
X743753Y-2277079D02*
X753277Y-2258031D01*
X753277Y-2258031D02*
X762801Y-2248508D01*
X762801Y-2248508D02*
X781848Y-2238984D01*
X972325Y-2238984D02*
X991372Y-2238984D01*
X991372Y-2238984D02*
X1010420Y-2248508D01*
X1010420Y-2248508D02*
X1019944Y-2258031D01*
X1019944Y-2258031D02*
X1029467Y-2277079D01*
X1029467Y-2277079D02*
X1038991Y-2315174D01*
X1038991Y-2315174D02*
X1038991Y-2362793D01*
X1038991Y-2362793D02*
X1029467Y-2400889D01*
X1029467Y-2400889D02*
X1019944Y-2419936D01*
X1019944Y-2419936D02*
X1010420Y-2429460D01*
X1010420Y-2429460D02*
X991372Y-2438984D01*
X991372Y-2438984D02*
X972325Y-2438984D01*
X972325Y-2438984D02*
X953277Y-2429460D01*
X953277Y-2429460D02*
X943753Y-2419936D01*
X943753Y-2419936D02*
X934229Y-2400889D01*
X934229Y-2400889D02*
X924706Y-2362793D01*
X924706Y-2362793D02*
X924706Y-2315174D01*
X924706Y-2315174D02*
X934229Y-2277079D01*
X934229Y-2277079D02*
X943753Y-2258031D01*
X943753Y-2258031D02*
X953277Y-2248508D01*
X953277Y-2248508D02*
X972325Y-2238984D01*
X1105658Y-2238984D02*
X1238991Y-2238984D01*
X1238991Y-2238984D02*
X1153277Y-2438984D01*
X1324706Y-2438984D02*
X1362801Y-2438984D01*
X1362801Y-2438984D02*
X1381849Y-2429460D01*
X1381849Y-2429460D02*
X1391372Y-2419936D01*
X1391372Y-2419936D02*
X1410420Y-2391365D01*
X1410420Y-2391365D02*
X1419944Y-2353270D01*
X1419944Y-2353270D02*
X1419944Y-2277079D01*
X1419944Y-2277079D02*
X1410420Y-2258031D01*
X1410420Y-2258031D02*
X1400896Y-2248508D01*
X1400896Y-2248508D02*
X1381849Y-2238984D01*
X1381849Y-2238984D02*
X1343753Y-2238984D01*
X1343753Y-2238984D02*
X1324706Y-2248508D01*
X1324706Y-2248508D02*
X1315182Y-2258031D01*
X1315182Y-2258031D02*
X1305658Y-2277079D01*
X1305658Y-2277079D02*
X1305658Y-2324698D01*
X1305658Y-2324698D02*
X1315182Y-2343746D01*
X1315182Y-2343746D02*
X1324706Y-2353270D01*
X1324706Y-2353270D02*
X1343753Y-2362793D01*
X1343753Y-2362793D02*
X1381849Y-2362793D01*
X1381849Y-2362793D02*
X1400896Y-2353270D01*
X1400896Y-2353270D02*
X1410420Y-2343746D01*
X1410420Y-2343746D02*
X1419944Y-2324698D01*
X1496134Y-2238984D02*
X1496134Y-2277079D01*
X1572325Y-2238984D02*
X1572325Y-2277079D01*
X1867563Y-2515174D02*
X1858039Y-2505650D01*
X1858039Y-2505650D02*
X1838991Y-2477079D01*
X1838991Y-2477079D02*
X1829468Y-2458031D01*
X1829468Y-2458031D02*
X1819944Y-2429460D01*
X1819944Y-2429460D02*
X1810420Y-2381841D01*
X1810420Y-2381841D02*
X1810420Y-2343746D01*
X1810420Y-2343746D02*
X1819944Y-2296127D01*
X1819944Y-2296127D02*
X1829468Y-2267555D01*
X1829468Y-2267555D02*
X1838991Y-2248508D01*
X1838991Y-2248508D02*
X1858039Y-2219936D01*
X1858039Y-2219936D02*
X1867563Y-2210412D01*
X2029468Y-2238984D02*
X1991372Y-2238984D01*
X1991372Y-2238984D02*
X1972325Y-2248508D01*
X1972325Y-2248508D02*
X1962801Y-2258031D01*
X1962801Y-2258031D02*
X1943753Y-2286603D01*
X1943753Y-2286603D02*
X1934229Y-2324698D01*
X1934229Y-2324698D02*
X1934229Y-2400889D01*
X1934229Y-2400889D02*
X1943753Y-2419936D01*
X1943753Y-2419936D02*
X1953277Y-2429460D01*
X1953277Y-2429460D02*
X1972325Y-2438984D01*
X1972325Y-2438984D02*
X2010420Y-2438984D01*
X2010420Y-2438984D02*
X2029468Y-2429460D01*
X2029468Y-2429460D02*
X2038991Y-2419936D01*
X2038991Y-2419936D02*
X2048515Y-2400889D01*
X2048515Y-2400889D02*
X2048515Y-2353270D01*
X2048515Y-2353270D02*
X2038991Y-2334222D01*
X2038991Y-2334222D02*
X2029468Y-2324698D01*
X2029468Y-2324698D02*
X2010420Y-2315174D01*
X2010420Y-2315174D02*
X1972325Y-2315174D01*
X1972325Y-2315174D02*
X1953277Y-2324698D01*
X1953277Y-2324698D02*
X1943753Y-2334222D01*
X1943753Y-2334222D02*
X1934229Y-2353270D01*
X2115182Y-2238984D02*
X2238991Y-2238984D01*
X2238991Y-2238984D02*
X2172325Y-2315174D01*
X2172325Y-2315174D02*
X2200896Y-2315174D01*
X2200896Y-2315174D02*
X2219944Y-2324698D01*
X2219944Y-2324698D02*
X2229468Y-2334222D01*
X2229468Y-2334222D02*
X2238991Y-2353270D01*
X2238991Y-2353270D02*
X2238991Y-2400889D01*
X2238991Y-2400889D02*
X2229468Y-2419936D01*
X2229468Y-2419936D02*
X2219944Y-2429460D01*
X2219944Y-2429460D02*
X2200896Y-2438984D01*
X2200896Y-2438984D02*
X2143753Y-2438984D01*
X2143753Y-2438984D02*
X2124706Y-2429460D01*
X2124706Y-2429460D02*
X2115182Y-2419936D01*
X2477087Y-2438984D02*
X2477087Y-2238984D01*
X2562801Y-2438984D02*
X2562801Y-2334222D01*
X2562801Y-2334222D02*
X2553277Y-2315174D01*
X2553277Y-2315174D02*
X2534230Y-2305650D01*
X2534230Y-2305650D02*
X2505658Y-2305650D01*
X2505658Y-2305650D02*
X2486611Y-2315174D01*
X2486611Y-2315174D02*
X2477087Y-2324698D01*
X2686611Y-2438984D02*
X2667563Y-2429460D01*
X2667563Y-2429460D02*
X2658039Y-2419936D01*
X2658039Y-2419936D02*
X2648515Y-2400889D01*
X2648515Y-2400889D02*
X2648515Y-2343746D01*
X2648515Y-2343746D02*
X2658039Y-2324698D01*
X2658039Y-2324698D02*
X2667563Y-2315174D01*
X2667563Y-2315174D02*
X2686611Y-2305650D01*
X2686611Y-2305650D02*
X2715182Y-2305650D01*
X2715182Y-2305650D02*
X2734230Y-2315174D01*
X2734230Y-2315174D02*
X2743753Y-2324698D01*
X2743753Y-2324698D02*
X2753277Y-2343746D01*
X2753277Y-2343746D02*
X2753277Y-2400889D01*
X2753277Y-2400889D02*
X2743753Y-2419936D01*
X2743753Y-2419936D02*
X2734230Y-2429460D01*
X2734230Y-2429460D02*
X2715182Y-2438984D01*
X2715182Y-2438984D02*
X2686611Y-2438984D01*
X2867563Y-2438984D02*
X2848515Y-2429460D01*
X2848515Y-2429460D02*
X2838991Y-2410412D01*
X2838991Y-2410412D02*
X2838991Y-2238984D01*
X3019944Y-2429460D02*
X3000896Y-2438984D01*
X3000896Y-2438984D02*
X2962801Y-2438984D01*
X2962801Y-2438984D02*
X2943753Y-2429460D01*
X2943753Y-2429460D02*
X2934230Y-2410412D01*
X2934230Y-2410412D02*
X2934230Y-2334222D01*
X2934230Y-2334222D02*
X2943753Y-2315174D01*
X2943753Y-2315174D02*
X2962801Y-2305650D01*
X2962801Y-2305650D02*
X3000896Y-2305650D01*
X3000896Y-2305650D02*
X3019944Y-2315174D01*
X3019944Y-2315174D02*
X3029468Y-2334222D01*
X3029468Y-2334222D02*
X3029468Y-2353270D01*
X3029468Y-2353270D02*
X2934230Y-2372317D01*
X3105658Y-2429460D02*
X3124706Y-2438984D01*
X3124706Y-2438984D02*
X3162801Y-2438984D01*
X3162801Y-2438984D02*
X3181849Y-2429460D01*
X3181849Y-2429460D02*
X3191372Y-2410412D01*
X3191372Y-2410412D02*
X3191372Y-2400889D01*
X3191372Y-2400889D02*
X3181849Y-2381841D01*
X3181849Y-2381841D02*
X3162801Y-2372317D01*
X3162801Y-2372317D02*
X3134230Y-2372317D01*
X3134230Y-2372317D02*
X3115182Y-2362793D01*
X3115182Y-2362793D02*
X3105658Y-2343746D01*
X3105658Y-2343746D02*
X3105658Y-2334222D01*
X3105658Y-2334222D02*
X3115182Y-2315174D01*
X3115182Y-2315174D02*
X3134230Y-2305650D01*
X3134230Y-2305650D02*
X3162801Y-2305650D01*
X3162801Y-2305650D02*
X3181849Y-2315174D01*
X3258039Y-2515174D02*
X3267563Y-2505650D01*
X3267563Y-2505650D02*
X3286611Y-2477079D01*
X3286611Y-2477079D02*
X3296134Y-2458031D01*
X3296134Y-2458031D02*
X3305658Y-2429460D01*
X3305658Y-2429460D02*
X3315182Y-2381841D01*
X3315182Y-2381841D02*
X3315182Y-2343746D01*
X3315182Y-2343746D02*
X3305658Y-2296127D01*
X3305658Y-2296127D02*
X3296134Y-2267555D01*
X3296134Y-2267555D02*
X3286611Y-2248508D01*
X3286611Y-2248508D02*
X3267563Y-2219936D01*
X3267563Y-2219936D02*
X3258039Y-2210412D01*
M02*
