%TF.GenerationSoftware,KiCad,Pcbnew,10.0.3*%
%TF.CreationDate,2026-09-04T14:16:58+02:00*%
%TF.ProjectId,cell_floor_board,63656c6c-5f66-46c6-9f6f-725f626f6172,rev?*%
%TF.SameCoordinates,Original*%
%TF.FileFunction,Legend,Top*%
%TF.FilePolarity,Positive*%
%FSLAX46Y46*%
G04 Gerber Fmt 4.6, Leading zero omitted, Abs format (unit mm)*
G04 Created by KiCad (PCBNEW 10.0.3) date 2026-09-04 14:16:58*
%MOMM*%
%LPD*%
G01*
G04 APERTURE LIST*
%ADD10C,0.120000*%
%ADD11C,3.000000*%
%ADD12R,0.900000X0.900000*%
G04 APERTURE END LIST*
D10*
X-15047800Y-4300000D02*
X-14982800Y-5292000D01*
X-14982800Y-3308000D02*
X-15047800Y-4300000D01*
X-14982800Y-5292000D02*
X-14788900Y-6267000D01*
X-14788900Y-2333000D02*
X-14982800Y-3308000D01*
X-14788900Y-6267000D02*
X-14469301Y-7208400D01*
X-14469300Y-1391600D02*
X-14788899Y-2333000D01*
X-14469300Y-7208400D02*
X-14029601Y-8100000D01*
X-14029600Y-500000D02*
X-14469299Y-1391600D01*
X-14029600Y-8100000D02*
X-13477300Y-8926600D01*
X-13477300Y326600D02*
X-14029600Y-500000D01*
X-13477300Y-8926600D02*
X-12821801Y-9674000D01*
X-12821800Y1074000D02*
X-13477299Y326600D01*
X-12821800Y-9674000D02*
X-12074400Y-10329500D01*
X-12074400Y1729500D02*
X-12821800Y1074000D01*
X-12074400Y-10329500D02*
X-11247801Y-10881800D01*
X-11247800Y2281800D02*
X-12074399Y1729500D01*
X-11247800Y-10881800D02*
X-10356200Y-11321500D01*
X-11149500Y9899500D02*
X-11143500Y9777000D01*
X-11143500Y10022000D02*
X-11149500Y9899500D01*
X-11143500Y9777000D02*
X-11125501Y9655600D01*
X-11125500Y10143400D02*
X-11143499Y10022000D01*
X-11125500Y9655600D02*
X-11095701Y9536600D01*
X-11095700Y10262400D02*
X-11125499Y10143400D01*
X-11095700Y9536600D02*
X-11054300Y9421100D01*
X-11054300Y10377900D02*
X-11095700Y10262400D01*
X-11054300Y9421100D02*
X-11001901Y9310300D01*
X-11001900Y10488700D02*
X-11054299Y10377900D01*
X-11001900Y9310300D02*
X-10938800Y9205000D01*
X-10938800Y10594000D02*
X-11001900Y10488700D01*
X-10938800Y9205000D02*
X-10865801Y9106500D01*
X-10865800Y10692500D02*
X-10938799Y10594000D01*
X-10865800Y9106500D02*
X-10783401Y9015600D01*
X-10783400Y10783400D02*
X-10865799Y10692500D01*
X-10783400Y9015600D02*
X-9850008Y8082230D01*
X-9510593Y7742823D02*
X-8577201Y6809453D01*
X-8237785Y6470046D02*
X-7304393Y5536676D01*
X-6964978Y5197269D02*
X-6595401Y4827700D01*
X-10692500Y10865800D02*
X-10783400Y10783400D01*
X-10594000Y10938800D02*
X-10692500Y10865800D01*
X-10488700Y11001900D02*
X-10593999Y10938800D01*
X-10377900Y11054300D02*
X-10488700Y11001900D01*
X-10356200Y2721500D02*
X-11247800Y2281800D01*
X-10356200Y-11321500D02*
X-9414800Y-11641000D01*
X-10262400Y11095700D02*
X-10377899Y11054300D01*
X-10143400Y11125500D02*
X-10262400Y11095700D01*
X-10022000Y11143500D02*
X-10143400Y11125500D01*
X-9899500Y11149500D02*
X-10021999Y11143500D01*
X-9777000Y11143500D02*
X-9899499Y11149500D01*
X-9655600Y11125500D02*
X-9777000Y11143500D01*
X-9536600Y11095700D02*
X-9655600Y11125500D01*
X-9421100Y11054300D02*
X-9536599Y11095700D01*
X-9414800Y3041000D02*
X-10356200Y2721500D01*
X-9414800Y-11641000D02*
X-8439800Y-11834999D01*
X-9310300Y11001900D02*
X-9421100Y11054300D01*
X-9205000Y10938800D02*
X-9310299Y11001900D01*
X-9106500Y10865800D02*
X-9205000Y10938800D01*
X-9015600Y10783400D02*
X-9106500Y10865800D01*
X-8439800Y3235000D02*
X-9414800Y3041001D01*
X-8439800Y-11835000D02*
X-7447802Y-11900000D01*
X-7552800Y9320500D02*
X-8486149Y10253913D01*
X-8825549Y10593336D02*
X-9015599Y10783400D01*
X-7535000Y9592000D02*
X-7552799Y9320500D01*
X-7447800Y3300000D02*
X-8439798Y3235000D01*
X-7447800Y-11900000D02*
X-6455802Y-11835000D01*
X-7341000Y10567000D02*
X-7534999Y9592000D01*
X-7021500Y11508400D02*
X-7340999Y10567000D01*
X-6595400Y4827700D02*
X-6581801Y4800000D01*
X-6581800Y12400000D02*
X-7021499Y11508400D01*
X-6581800Y4800000D02*
X-6029500Y3973400D01*
X-6455800Y3235000D02*
X-7447798Y3300000D01*
X-6455800Y-11835000D02*
X-5480800Y-11641001D01*
X-6029500Y13226600D02*
X-6581800Y12400000D01*
X-6029500Y3973400D02*
X-5374001Y3226000D01*
X-5480800Y3041000D02*
X-6455800Y3234999D01*
X-5480800Y-11641000D02*
X-4539400Y-11321500D01*
X-5374000Y13974000D02*
X-6029499Y13226600D01*
X-5374000Y3226000D02*
X-4962500Y2865100D01*
X-4962500Y2865100D02*
X-5480800Y3041000D01*
X-4626600Y14629500D02*
X-5374000Y13974000D01*
X-4539400Y-11321500D02*
X-3647800Y-10881800D01*
X-3800000Y15181800D02*
X-4626599Y14629500D01*
X-3647800Y-10881800D02*
X-2821201Y-10329500D01*
X-2908400Y15621500D02*
X-3800000Y15181800D01*
X-2821200Y-10329500D02*
X-2073800Y-9674000D01*
X-2073800Y-9674000D02*
X-1418301Y-8926600D01*
X-1967000Y15941000D02*
X-2908400Y15621500D01*
X-1418300Y-8926600D02*
X-866000Y-8100000D01*
X-992000Y16135000D02*
X-1967000Y15941001D01*
X-866000Y-8100000D02*
X-426301Y-7208400D01*
X-426300Y-7208400D02*
X-106801Y-6267000D01*
X-106800Y-6267000D02*
X0Y-5730200D01*
X0Y16200000D02*
X-991998Y16135000D01*
X0Y-5730200D02*
X106800Y-6267000D01*
X106800Y-6267000D02*
X426299Y-7208400D01*
X426300Y-7208400D02*
X865999Y-8100000D01*
X866000Y-8100000D02*
X1418300Y-8926600D01*
X992000Y16135000D02*
X2Y16200000D01*
X1418300Y-8926600D02*
X2073799Y-9674000D01*
X1967000Y15941000D02*
X992000Y16134999D01*
X2073800Y-9674000D02*
X2821200Y-10329500D01*
X2821200Y-10329500D02*
X3647799Y-10881800D01*
X2908400Y15621500D02*
X1967000Y15941000D01*
X3647800Y-10881800D02*
X4539400Y-11321500D01*
X3800000Y15181800D02*
X2908400Y15621500D01*
X4539400Y-11321500D02*
X5480800Y-11641000D01*
X4626600Y14629500D02*
X3800001Y15181800D01*
X4962500Y2865100D02*
X5374000Y3226000D01*
X5374000Y13974000D02*
X4626600Y14629500D01*
X5374000Y3226000D02*
X6029499Y3973400D01*
X5480800Y3041000D02*
X4962500Y2865100D01*
X5480800Y-11641000D02*
X6455800Y-11834999D01*
X6029500Y13226600D02*
X5374001Y13974000D01*
X6029500Y3973400D02*
X6581800Y4800000D01*
X6455800Y3235000D02*
X5480800Y3041001D01*
X6455800Y-11835000D02*
X7447798Y-11900000D01*
X6581800Y12400000D02*
X6029500Y13226600D01*
X6581800Y4800000D02*
X7021499Y5691600D01*
X7021500Y11508400D02*
X6581801Y12400000D01*
X7021500Y5691600D02*
X7340999Y6633000D01*
X7341000Y10567000D02*
X7021501Y11508400D01*
X7341000Y6633000D02*
X7534999Y7608000D01*
X7447800Y3300000D02*
X6455802Y3235000D01*
X7447800Y-11900000D02*
X8439798Y-11835000D01*
X7535000Y9592000D02*
X7341001Y10567000D01*
X7535000Y7608000D02*
X7600000Y8600000D01*
X7600000Y8600000D02*
X7535000Y9592000D01*
X8439800Y3235000D02*
X7447802Y3300000D01*
X8439800Y-11835000D02*
X9414800Y-11641001D01*
X9414800Y3041000D02*
X8439800Y3234999D01*
X9414800Y-11641000D02*
X9431099Y-11635500D01*
X9431100Y-11635500D02*
X9548300Y-11664900D01*
X9548300Y-11664900D02*
X9723100Y-11690800D01*
X9723100Y-11690800D02*
X9899500Y-11699500D01*
X9899500Y-11699500D02*
X10075900Y-11690800D01*
X10075900Y-11690800D02*
X10250700Y-11664900D01*
X10250700Y-11664900D02*
X10421999Y-11622000D01*
X10356200Y2721500D02*
X9414800Y3041000D01*
X10422000Y-11622000D02*
X10588299Y-11562500D01*
X10588300Y-11562500D02*
X10748000Y-11487000D01*
X10748000Y-11487000D02*
X10899500Y-11396100D01*
X10899500Y-11396100D02*
X11041400Y-11290900D01*
X11041400Y-11290900D02*
X11172299Y-11172300D01*
X11172300Y-11172300D02*
X11290900Y-11041400D01*
X11247800Y2281800D02*
X10356200Y2721500D01*
X11290900Y-11041400D02*
X11396099Y-10899500D01*
X11396100Y-10899500D02*
X11486999Y-10748000D01*
X11487000Y-10748000D02*
X11504899Y-10710000D01*
X11504900Y-10710000D02*
X12074400Y-10329500D01*
X12074400Y1729500D02*
X11247801Y2281800D01*
X12074400Y-10329500D02*
X12821800Y-9674000D01*
X12821800Y1074000D02*
X12074400Y1729500D01*
X12821800Y-9674000D02*
X13477299Y-8926600D01*
X13477300Y326600D02*
X12821801Y1074000D01*
X13477300Y-8926600D02*
X14029600Y-8100000D01*
X14029600Y-500000D02*
X13477300Y326600D01*
X14029600Y-8100000D02*
X14469299Y-7208400D01*
X14469300Y-1391600D02*
X14029601Y-500000D01*
X14469300Y-7208400D02*
X14788899Y-6267000D01*
X14788900Y-2333000D02*
X14469301Y-1391600D01*
X14788900Y-6267000D02*
X14982800Y-5292000D01*
X14982800Y-3308000D02*
X14788900Y-2333000D01*
X14982800Y-5292000D02*
X15047800Y-4300000D01*
X15047800Y-4300000D02*
X14982800Y-3308000D01*
X-8226916Y16874240D02*
X-8150725Y16836144D01*
X-8150725Y16836144D02*
X-7998344Y16836144D01*
X-7998344Y16836144D02*
X-7922154Y16874240D01*
X-7922154Y16874240D02*
X-7884058Y16950430D01*
X-7884058Y16950430D02*
X-7884058Y16988525D01*
X-7884058Y16988525D02*
X-7922154Y17064716D01*
X-7922154Y17064716D02*
X-7998344Y17102811D01*
X-7998344Y17102811D02*
X-8112630Y17102811D01*
X-8112630Y17102811D02*
X-8188820Y17140906D01*
X-8188820Y17140906D02*
X-8226916Y17217097D01*
X-8226916Y17217097D02*
X-8226916Y17255192D01*
X-8226916Y17255192D02*
X-8188820Y17331382D01*
X-8188820Y17331382D02*
X-8112630Y17369478D01*
X-8112630Y17369478D02*
X-7998344Y17369478D01*
X-7998344Y17369478D02*
X-7922154Y17331382D01*
X-7541201Y17369478D02*
X-7541201Y16569478D01*
X-7541201Y17331382D02*
X-7465011Y17369478D01*
X-7465011Y17369478D02*
X-7312630Y17369478D01*
X-7312630Y17369478D02*
X-7236439Y17331382D01*
X-7236439Y17331382D02*
X-7198344Y17293287D01*
X-7198344Y17293287D02*
X-7160249Y17217097D01*
X-7160249Y17217097D02*
X-7160249Y16988525D01*
X-7160249Y16988525D02*
X-7198344Y16912335D01*
X-7198344Y16912335D02*
X-7236439Y16874240D01*
X-7236439Y16874240D02*
X-7312630Y16836144D01*
X-7312630Y16836144D02*
X-7465011Y16836144D01*
X-7465011Y16836144D02*
X-7541201Y16874240D01*
X-6474534Y16836144D02*
X-6474534Y17255192D01*
X-6474534Y17255192D02*
X-6512629Y17331382D01*
X-6512629Y17331382D02*
X-6588820Y17369478D01*
X-6588820Y17369478D02*
X-6741201Y17369478D01*
X-6741201Y17369478D02*
X-6817391Y17331382D01*
X-6474534Y16874240D02*
X-6550725Y16836144D01*
X-6550725Y16836144D02*
X-6741201Y16836144D01*
X-6741201Y16836144D02*
X-6817391Y16874240D01*
X-6817391Y16874240D02*
X-6855487Y16950430D01*
X-6855487Y16950430D02*
X-6855487Y17026620D01*
X-6855487Y17026620D02*
X-6817391Y17102811D01*
X-6817391Y17102811D02*
X-6741201Y17140906D01*
X-6741201Y17140906D02*
X-6550725Y17140906D01*
X-6550725Y17140906D02*
X-6474534Y17179001D01*
X-5750724Y16874240D02*
X-5826915Y16836144D01*
X-5826915Y16836144D02*
X-5979296Y16836144D01*
X-5979296Y16836144D02*
X-6055486Y16874240D01*
X-6055486Y16874240D02*
X-6093581Y16912335D01*
X-6093581Y16912335D02*
X-6131677Y16988525D01*
X-6131677Y16988525D02*
X-6131677Y17217097D01*
X-6131677Y17217097D02*
X-6093581Y17293287D01*
X-6093581Y17293287D02*
X-6055486Y17331382D01*
X-6055486Y17331382D02*
X-5979296Y17369478D01*
X-5979296Y17369478D02*
X-5826915Y17369478D01*
X-5826915Y17369478D02*
X-5750724Y17331382D01*
X-5103105Y16874240D02*
X-5179296Y16836144D01*
X-5179296Y16836144D02*
X-5331677Y16836144D01*
X-5331677Y16836144D02*
X-5407867Y16874240D01*
X-5407867Y16874240D02*
X-5445963Y16950430D01*
X-5445963Y16950430D02*
X-5445963Y17255192D01*
X-5445963Y17255192D02*
X-5407867Y17331382D01*
X-5407867Y17331382D02*
X-5331677Y17369478D01*
X-5331677Y17369478D02*
X-5179296Y17369478D01*
X-5179296Y17369478D02*
X-5103105Y17331382D01*
X-5103105Y17331382D02*
X-5065010Y17255192D01*
X-5065010Y17255192D02*
X-5065010Y17179001D01*
X-5065010Y17179001D02*
X-5445963Y17102811D01*
X-4722153Y16836144D02*
X-4722153Y17369478D01*
X-4722153Y17217097D02*
X-4684058Y17293287D01*
X-4684058Y17293287D02*
X-4645963Y17331382D01*
X-4645963Y17331382D02*
X-4569772Y17369478D01*
X-4569772Y17369478D02*
X-4493582Y17369478D01*
X-4417392Y16759954D02*
X-3807868Y16759954D01*
X-3617391Y16836144D02*
X-3617391Y17636144D01*
X-3617391Y17331382D02*
X-3541201Y17369478D01*
X-3541201Y17369478D02*
X-3388820Y17369478D01*
X-3388820Y17369478D02*
X-3312629Y17331382D01*
X-3312629Y17331382D02*
X-3274534Y17293287D01*
X-3274534Y17293287D02*
X-3236439Y17217097D01*
X-3236439Y17217097D02*
X-3236439Y16988525D01*
X-3236439Y16988525D02*
X-3274534Y16912335D01*
X-3274534Y16912335D02*
X-3312629Y16874240D01*
X-3312629Y16874240D02*
X-3388820Y16836144D01*
X-3388820Y16836144D02*
X-3541201Y16836144D01*
X-3541201Y16836144D02*
X-3617391Y16874240D01*
X-2550724Y16836144D02*
X-2550724Y17255192D01*
X-2550724Y17255192D02*
X-2588819Y17331382D01*
X-2588819Y17331382D02*
X-2665010Y17369478D01*
X-2665010Y17369478D02*
X-2817391Y17369478D01*
X-2817391Y17369478D02*
X-2893581Y17331382D01*
X-2550724Y16874240D02*
X-2626915Y16836144D01*
X-2626915Y16836144D02*
X-2817391Y16836144D01*
X-2817391Y16836144D02*
X-2893581Y16874240D01*
X-2893581Y16874240D02*
X-2931677Y16950430D01*
X-2931677Y16950430D02*
X-2931677Y17026620D01*
X-2931677Y17026620D02*
X-2893581Y17102811D01*
X-2893581Y17102811D02*
X-2817391Y17140906D01*
X-2817391Y17140906D02*
X-2626915Y17140906D01*
X-2626915Y17140906D02*
X-2550724Y17179001D01*
X-2284057Y17369478D02*
X-1979295Y17369478D01*
X-2169771Y17636144D02*
X-2169771Y16950430D01*
X-2169771Y16950430D02*
X-2131676Y16874240D01*
X-2131676Y16874240D02*
X-2055486Y16836144D01*
X-2055486Y16836144D02*
X-1979295Y16836144D01*
X-1826914Y17369478D02*
X-1522152Y17369478D01*
X-1712628Y17636144D02*
X-1712628Y16950430D01*
X-1712628Y16950430D02*
X-1674533Y16874240D01*
X-1674533Y16874240D02*
X-1598343Y16836144D01*
X-1598343Y16836144D02*
X-1522152Y16836144D01*
X-950723Y16874240D02*
X-1026914Y16836144D01*
X-1026914Y16836144D02*
X-1179295Y16836144D01*
X-1179295Y16836144D02*
X-1255485Y16874240D01*
X-1255485Y16874240D02*
X-1293581Y16950430D01*
X-1293581Y16950430D02*
X-1293581Y17255192D01*
X-1293581Y17255192D02*
X-1255485Y17331382D01*
X-1255485Y17331382D02*
X-1179295Y17369478D01*
X-1179295Y17369478D02*
X-1026914Y17369478D01*
X-1026914Y17369478D02*
X-950723Y17331382D01*
X-950723Y17331382D02*
X-912628Y17255192D01*
X-912628Y17255192D02*
X-912628Y17179001D01*
X-912628Y17179001D02*
X-1293581Y17102811D01*
X-569771Y16836144D02*
X-569771Y17369478D01*
X-569771Y17217097D02*
X-531676Y17293287D01*
X-531676Y17293287D02*
X-493581Y17331382D01*
X-493581Y17331382D02*
X-417390Y17369478D01*
X-417390Y17369478D02*
X-341200Y17369478D01*
X-150724Y17369478D02*
X39751Y16836144D01*
X230228Y17369478D02*
X39751Y16836144D01*
X39751Y16836144D02*
X-36438Y16645668D01*
X-36438Y16645668D02*
X-74533Y16607573D01*
X-74533Y16607573D02*
X-150724Y16569478D01*
X344514Y16759954D02*
X954037Y16759954D01*
X1563561Y16836144D02*
X1106418Y16836144D01*
X1334990Y16836144D02*
X1334990Y17636144D01*
X1334990Y17636144D02*
X1258799Y17521859D01*
X1258799Y17521859D02*
X1182609Y17445668D01*
X1182609Y17445668D02*
X1106418Y17407573D01*
X2858800Y16874240D02*
X2782609Y16836144D01*
X2782609Y16836144D02*
X2630228Y16836144D01*
X2630228Y16836144D02*
X2554038Y16874240D01*
X2554038Y16874240D02*
X2515943Y16912335D01*
X2515943Y16912335D02*
X2477847Y16988525D01*
X2477847Y16988525D02*
X2477847Y17217097D01*
X2477847Y17217097D02*
X2515943Y17293287D01*
X2515943Y17293287D02*
X2554038Y17331382D01*
X2554038Y17331382D02*
X2630228Y17369478D01*
X2630228Y17369478D02*
X2782609Y17369478D01*
X2782609Y17369478D02*
X2858800Y17331382D01*
X3544514Y17369478D02*
X3544514Y16836144D01*
X3201657Y17369478D02*
X3201657Y16950430D01*
X3201657Y16950430D02*
X3239752Y16874240D01*
X3239752Y16874240D02*
X3315942Y16836144D01*
X3315942Y16836144D02*
X3430228Y16836144D01*
X3430228Y16836144D02*
X3506419Y16874240D01*
X3506419Y16874240D02*
X3544514Y16912335D01*
X3811181Y17369478D02*
X4115943Y17369478D01*
X3925467Y17636144D02*
X3925467Y16950430D01*
X3925467Y16950430D02*
X3963562Y16874240D01*
X3963562Y16874240D02*
X4039752Y16836144D01*
X4039752Y16836144D02*
X4115943Y16836144D01*
X4496895Y16836144D02*
X4420705Y16874240D01*
X4420705Y16874240D02*
X4382610Y16912335D01*
X4382610Y16912335D02*
X4344514Y16988525D01*
X4344514Y16988525D02*
X4344514Y17217097D01*
X4344514Y17217097D02*
X4382610Y17293287D01*
X4382610Y17293287D02*
X4420705Y17331382D01*
X4420705Y17331382D02*
X4496895Y17369478D01*
X4496895Y17369478D02*
X4611181Y17369478D01*
X4611181Y17369478D02*
X4687372Y17331382D01*
X4687372Y17331382D02*
X4725467Y17293287D01*
X4725467Y17293287D02*
X4763562Y17217097D01*
X4763562Y17217097D02*
X4763562Y16988525D01*
X4763562Y16988525D02*
X4725467Y16912335D01*
X4725467Y16912335D02*
X4687372Y16874240D01*
X4687372Y16874240D02*
X4611181Y16836144D01*
X4611181Y16836144D02*
X4496895Y16836144D01*
X5449277Y17369478D02*
X5449277Y16836144D01*
X5106420Y17369478D02*
X5106420Y16950430D01*
X5106420Y16950430D02*
X5144515Y16874240D01*
X5144515Y16874240D02*
X5220705Y16836144D01*
X5220705Y16836144D02*
X5334991Y16836144D01*
X5334991Y16836144D02*
X5411182Y16874240D01*
X5411182Y16874240D02*
X5449277Y16912335D01*
X5715944Y17369478D02*
X6020706Y17369478D01*
X5830230Y17636144D02*
X5830230Y16950430D01*
X5830230Y16950430D02*
X5868325Y16874240D01*
X5868325Y16874240D02*
X5944515Y16836144D01*
X5944515Y16836144D02*
X6020706Y16836144D01*
%LPC*%
D11*
%TO.C,P_CELL_TAB_NEG2*%
X-1800000Y-2000000D03*
%TD*%
%TO.C,MECH1*%
X9899500Y-9899500D03*
%TD*%
%TO.C,P_CELL_TAB_NEG1*%
X-500000Y1500000D03*
%TD*%
%TO.C,MECH2*%
X-9899500Y9899500D03*
%TD*%
%TO.C,P_CELL_TAB_NEG3*%
X1800000Y-2000000D03*
%TD*%
D12*
%TO.C,J_cell_floor_board_spacer_battery_1*%
X14550000Y1450000D03*
X14550000Y3050000D03*
X14550000Y4650000D03*
X14550000Y6250000D03*
X12950000Y3050000D03*
X12950000Y4650000D03*
X12950000Y6250000D03*
X12950000Y7850000D03*
X11350000Y4650000D03*
X11350000Y6250000D03*
X11350000Y7850000D03*
X11350000Y9450000D03*
X11350000Y11050000D03*
X9750000Y4650000D03*
X9750000Y6250000D03*
X9750000Y7850000D03*
X9750000Y9450000D03*
X9750000Y11050000D03*
X8150000Y4650000D03*
X8150000Y6250000D03*
X8150000Y11050000D03*
X8150000Y12650000D03*
X6550000Y-14550000D03*
X6550000Y14250000D03*
X4950000Y-14550000D03*
X4950000Y-12950000D03*
X3350000Y-14550000D03*
X3350000Y-12950000D03*
X1750000Y-14550000D03*
X1750000Y-12950000D03*
X1750000Y-11350000D03*
X150000Y-14550000D03*
X150000Y-12950000D03*
X150000Y-11350000D03*
X150000Y-9750000D03*
X-1450000Y-14550000D03*
X-1450000Y-12950000D03*
X-1450000Y-11350000D03*
X-3050000Y-14550000D03*
X-3050000Y-12950000D03*
X-4650000Y-14550000D03*
X-4650000Y-12950000D03*
X-6250000Y-14550000D03*
X-6250000Y-12950000D03*
X-7850000Y-12950000D03*
X-7850000Y4650000D03*
X-9450000Y4650000D03*
X-9450000Y6250000D03*
X-11050000Y4650000D03*
X-11050000Y6250000D03*
X-12650000Y3050000D03*
X-12650000Y4650000D03*
X-12650000Y6250000D03*
X-14250000Y1450000D03*
X-14250000Y3050000D03*
X-14250000Y4650000D03*
X-14250000Y6250000D03*
X-15850000Y-1750000D03*
X-15850000Y-150000D03*
X-15850000Y1450000D03*
%TD*%
%LPD*%
M02*
