%TF.GenerationSoftware,KiCad,Pcbnew,10.0.3*%
%TF.CreationDate,2026-09-04T14:16:58+02:00*%
%TF.ProjectId,cell_floor_board,63656c6c-5f66-46c6-9f6f-725f626f6172,rev?*%
%TF.SameCoordinates,Original*%
%TF.FileFunction,Copper,L3,Inr*%
%TF.FilePolarity,Positive*%
%FSLAX46Y46*%
G04 Gerber Fmt 4.6, Leading zero omitted, Abs format (unit mm)*
G04 Created by KiCad (PCBNEW 10.0.3) date 2026-09-04 14:16:58*
%MOMM*%
%LPD*%
G01*
G04 APERTURE LIST*
%TA.AperFunction,ViaPad*%
%ADD10C,0.450000*%
%TD*%
G04 APERTURE END LIST*
D10*
%TO.N,FLEX_GND*%
X5189200Y-2936500D03*
X-8780000Y-13030000D03*
X-7230000Y4610000D03*
%TO.N,3V3*%
X9945900Y3208800D03*
X13297000Y-6636000D03*
X-691900Y-14959100D03*
X9907900Y11809400D03*
%TO.N,3V3_AON*%
X8187400Y2937000D03*
X13373300Y-5110800D03*
X-820200Y-9986100D03*
%TO.N,ACTIVATE_CONFIRM*%
X14148300Y7728500D03*
X14911500Y-2878900D03*
%TO.N,ACTIVATE_SET*%
X14367700Y7009000D03*
X15452600Y-1150000D03*
%TO.N,BAT_PROT*%
X-1450000Y-6969600D03*
X15307600Y2023600D03*
X8313000Y5492200D03*
%TO.N,BAT_RAW*%
X-3980000Y-15340000D03*
X12183300Y2850000D03*
X6360000Y9460000D03*
%TO.N,BOOT0*%
X15360000Y4130000D03*
%TO.N,COMP_5V*%
X13398400Y8608500D03*
X-3050000Y-5323300D03*
%TO.N,COMP_SWDCLK*%
X11550000Y-4655800D03*
%TO.N,COMP_SWDIO*%
X11880000Y-3596800D03*
X11519900Y1538600D03*
%TO.N,EXT_CAN_RX*%
X12122500Y7679400D03*
X11678500Y-2078500D03*
%TO.N,EXT_CAN_TX*%
X14705200Y-1726700D03*
X12302500Y9825800D03*
%TO.N,FIN1_AOUT1*%
X11799900Y10291900D03*
X14714900Y-126700D03*
%TO.N,FIN2_AOUT1*%
X10405800Y1295300D03*
%TO.N,FIN3_AOUT1*%
X11593500Y3215200D03*
%TO.N,FIN4_AOUT1*%
X11504100Y5450000D03*
%TO.N,FIN_HALL*%
X13255000Y7050000D03*
%TO.N,FIN_VREF*%
X8991300Y9257400D03*
%TO.N,GPIO_EXT_0*%
X10763100Y-3556300D03*
%TO.N,GPIO_EXT_1*%
X7881500Y9281200D03*
X9569100Y-3515200D03*
%TO.N,GPIO_EXT_2*%
X8909000Y12738600D03*
X11134500Y-390900D03*
X10524300Y11626100D03*
%TO.N,GPIO_EXT_3*%
X13103800Y-573300D03*
%TO.N,H3LIS_INT1*%
X12831800Y1250000D03*
X7314400Y14110100D03*
%TO.N,I2C3_SCL*%
X8899100Y2816800D03*
%TO.N,I2C3_SDA*%
X15303800Y4662300D03*
X9949500Y-1808300D03*
%TO.N,JUMP_WAKE*%
X4107600Y-15090900D03*
X15157300Y5371700D03*
%TO.N,NRST*%
X3520000Y-11784600D03*
X6851000Y7483400D03*
%TO.N,SWO*%
X8387900Y10290400D03*
X2511900Y-13183400D03*
%TO.N,SYS_I2C_SCL*%
X8393800Y-6129500D03*
%TO.N,SYS_I2C_SDA*%
X1751600Y-10013000D03*
X11774800Y-6713600D03*
%TO.N,SYS_SPI_CS_FIN*%
X8573300Y-3508700D03*
%TO.N,SYS_SPI_MISO*%
X7990400Y-3502500D03*
%TO.N,SYS_SPI_MOSI*%
X1006700Y-9988800D03*
X9963100Y-832900D03*
%TO.N,SYS_SPI_SCLK*%
X9954800Y-305600D03*
%TD*%
%TA.AperFunction,Conductor*%
%TO.N,BAT_RAW*%
G36*
X127940Y16494413D02*
G01*
X1352643Y16440931D01*
X1359388Y16440452D01*
X1571721Y16419538D01*
X1575753Y16419074D01*
X2838174Y16252857D01*
X2846178Y16251535D01*
X2931850Y16234494D01*
X2934494Y16233939D01*
X4151545Y15964167D01*
X4154840Y15963389D01*
X4319042Y15922258D01*
X4326204Y15920233D01*
X5511321Y15546518D01*
X5515804Y15545010D01*
X5738165Y15465447D01*
X5743838Y15463259D01*
X6871740Y14996119D01*
X6877309Y14993651D01*
X7092819Y14891723D01*
X7097061Y14889616D01*
X7327621Y14769588D01*
X7377996Y14721171D01*
X7394197Y14653206D01*
X7371082Y14587271D01*
X7315989Y14544300D01*
X7270362Y14535600D01*
X7258382Y14535600D01*
X7150163Y14506603D01*
X7053137Y14450585D01*
X6973915Y14371363D01*
X6973913Y14371359D01*
X6917898Y14274339D01*
X6917897Y14274336D01*
X6888900Y14166117D01*
X6888900Y14054082D01*
X6917897Y13945863D01*
X6917898Y13945860D01*
X6973913Y13848840D01*
X6973917Y13848834D01*
X7053134Y13769617D01*
X7053140Y13769613D01*
X7150160Y13713598D01*
X7150163Y13713597D01*
X7258382Y13684600D01*
X7370417Y13684600D01*
X7370418Y13684600D01*
X7478637Y13713597D01*
X7575663Y13769615D01*
X7654885Y13848837D01*
X7710903Y13945863D01*
X7739900Y14054082D01*
X7739900Y14166118D01*
X7710903Y14274337D01*
X7679524Y14328686D01*
X7663052Y14396583D01*
X7685904Y14462610D01*
X7740825Y14505801D01*
X7810378Y14512443D01*
X7844172Y14500672D01*
X8198692Y14316109D01*
X8205180Y14312480D01*
X8348892Y14226343D01*
X8351769Y14224565D01*
X9403754Y13554379D01*
X9406019Y13552900D01*
X9479172Y13504021D01*
X9485769Y13499294D01*
X10496101Y12724028D01*
X10499279Y12721506D01*
X10663836Y12586457D01*
X10668939Y12582031D01*
X11572057Y11754563D01*
X11575970Y11750817D01*
X11750817Y11575970D01*
X11754563Y11572057D01*
X12582031Y10668939D01*
X12586457Y10663836D01*
X12721506Y10499279D01*
X12724028Y10496101D01*
X13499294Y9485769D01*
X13504021Y9479172D01*
X13552900Y9406019D01*
X13554378Y9403754D01*
X13687675Y9194520D01*
X13707094Y9127403D01*
X13687144Y9060442D01*
X13634159Y9014897D01*
X13564961Y9005228D01*
X13551014Y9008117D01*
X13454418Y9034000D01*
X13342382Y9034000D01*
X13234163Y9005003D01*
X13137137Y8948985D01*
X13057915Y8869763D01*
X13057913Y8869759D01*
X13001898Y8772739D01*
X13001897Y8772736D01*
X12972900Y8664517D01*
X12972900Y8552482D01*
X13001897Y8444263D01*
X13001898Y8444260D01*
X13057913Y8347240D01*
X13057917Y8347234D01*
X13137134Y8268017D01*
X13137140Y8268013D01*
X13234160Y8211998D01*
X13234163Y8211997D01*
X13342382Y8183000D01*
X13454417Y8183000D01*
X13454418Y8183000D01*
X13562637Y8211997D01*
X13659663Y8268015D01*
X13738885Y8347237D01*
X13794903Y8444263D01*
X13823900Y8552482D01*
X13823900Y8555264D01*
X13824563Y8557524D01*
X13824961Y8560542D01*
X13825431Y8560480D01*
X13843585Y8622303D01*
X13896389Y8668058D01*
X13965547Y8678002D01*
X14029103Y8648977D01*
X14052481Y8621889D01*
X14224565Y8351769D01*
X14226335Y8348904D01*
X14230618Y8341760D01*
X14248207Y8274141D01*
X14226445Y8207746D01*
X14172243Y8163657D01*
X14124267Y8154000D01*
X14092282Y8154000D01*
X13984063Y8125003D01*
X13887037Y8068985D01*
X13807815Y7989763D01*
X13751797Y7892737D01*
X13733348Y7823882D01*
X13722800Y7784517D01*
X13722800Y7672482D01*
X13751797Y7564263D01*
X13751798Y7564260D01*
X13807813Y7467240D01*
X13807817Y7467234D01*
X13887034Y7388017D01*
X13887037Y7388015D01*
X13935772Y7359878D01*
X13983987Y7309310D01*
X13997209Y7240703D01*
X13981159Y7190493D01*
X13971199Y7173241D01*
X13971197Y7173237D01*
X13948063Y7086897D01*
X13942200Y7065017D01*
X13942200Y6952982D01*
X13971197Y6844763D01*
X13971198Y6844760D01*
X14027213Y6747740D01*
X14027217Y6747734D01*
X14106434Y6668517D01*
X14106440Y6668513D01*
X14203460Y6612498D01*
X14203463Y6612497D01*
X14311682Y6583500D01*
X14423717Y6583500D01*
X14423718Y6583500D01*
X14531937Y6612497D01*
X14628963Y6668515D01*
X14708185Y6747737D01*
X14764203Y6844763D01*
X14765141Y6848266D01*
X14766739Y6850888D01*
X14767312Y6852270D01*
X14767527Y6852180D01*
X14801502Y6907928D01*
X14864348Y6938460D01*
X14933724Y6930169D01*
X14987604Y6885686D01*
X14999480Y6863626D01*
X15373389Y5960827D01*
X15380855Y5891357D01*
X15349578Y5828880D01*
X15289487Y5793230D01*
X15226731Y5793605D01*
X15213318Y5797200D01*
X15101282Y5797200D01*
X14993063Y5768203D01*
X14896037Y5712185D01*
X14816815Y5632963D01*
X14760797Y5535937D01*
X14734069Y5436184D01*
X14731800Y5427717D01*
X14731800Y5315682D01*
X14760797Y5207463D01*
X14760798Y5207460D01*
X14816813Y5110440D01*
X14816817Y5110434D01*
X14896038Y5031213D01*
X14899466Y5028583D01*
X14901621Y5025630D01*
X14901784Y5025468D01*
X14901758Y5025442D01*
X14940665Y4972152D01*
X14944814Y4902405D01*
X14931360Y4868217D01*
X14907297Y4826537D01*
X14893284Y4774237D01*
X14878300Y4718317D01*
X14878300Y4606282D01*
X14907297Y4498063D01*
X14907297Y4498062D01*
X14958604Y4409195D01*
X14975075Y4341295D01*
X14965780Y4299751D01*
X14963499Y4294243D01*
X14963497Y4294238D01*
X14963497Y4294237D01*
X14941863Y4213498D01*
X14934500Y4186017D01*
X14934500Y4073982D01*
X14963497Y3965763D01*
X14963498Y3965760D01*
X15019513Y3868740D01*
X15019517Y3868734D01*
X15098734Y3789517D01*
X15098740Y3789513D01*
X15195760Y3733498D01*
X15195763Y3733497D01*
X15303982Y3704500D01*
X15416017Y3704500D01*
X15416018Y3704500D01*
X15524237Y3733497D01*
X15621263Y3789515D01*
X15700485Y3868737D01*
X15756503Y3965763D01*
X15761523Y3984501D01*
X15797888Y4044160D01*
X15860735Y4074689D01*
X15930111Y4066394D01*
X15983989Y4021909D01*
X16002360Y3979241D01*
X16233939Y2934494D01*
X16234494Y2931850D01*
X16251535Y2846178D01*
X16252857Y2838174D01*
X16419074Y1575753D01*
X16419538Y1571721D01*
X16440452Y1359388D01*
X16440931Y1352643D01*
X16494413Y127940D01*
X16494531Y122530D01*
X16494531Y-122530D01*
X16494413Y-127940D01*
X16440931Y-1352643D01*
X16440452Y-1359388D01*
X16419538Y-1571721D01*
X16419074Y-1575753D01*
X16252857Y-2838174D01*
X16251535Y-2846178D01*
X16234494Y-2931850D01*
X16233939Y-2934494D01*
X15964167Y-4151545D01*
X15963389Y-4154840D01*
X15922258Y-4319042D01*
X15920233Y-4326204D01*
X15546518Y-5511321D01*
X15545010Y-5515804D01*
X15465447Y-5738165D01*
X15463259Y-5743838D01*
X14996119Y-6871740D01*
X14993651Y-6877309D01*
X14891723Y-7092819D01*
X14889616Y-7097062D01*
X14316109Y-8198692D01*
X14312480Y-8205180D01*
X14226343Y-8348892D01*
X14224565Y-8351769D01*
X13554379Y-9403754D01*
X13552900Y-9406019D01*
X13504021Y-9479172D01*
X13499294Y-9485769D01*
X12724028Y-10496101D01*
X12721506Y-10499279D01*
X12586457Y-10663836D01*
X12582031Y-10668939D01*
X11754563Y-11572057D01*
X11750817Y-11575970D01*
X11575970Y-11750817D01*
X11572057Y-11754563D01*
X10668939Y-12582031D01*
X10663836Y-12586457D01*
X10499279Y-12721506D01*
X10496101Y-12724028D01*
X9485769Y-13499294D01*
X9479172Y-13504021D01*
X9406019Y-13552900D01*
X9403754Y-13554379D01*
X8351769Y-14224565D01*
X8348892Y-14226343D01*
X8205180Y-14312480D01*
X8198692Y-14316109D01*
X7097062Y-14889616D01*
X7092819Y-14891723D01*
X6877309Y-14993651D01*
X6871740Y-14996119D01*
X5743838Y-15463259D01*
X5738165Y-15465447D01*
X5515804Y-15545010D01*
X5511321Y-15546518D01*
X4326204Y-15920233D01*
X4319042Y-15922258D01*
X4154840Y-15963389D01*
X4151545Y-15964167D01*
X2934494Y-16233939D01*
X2931850Y-16234494D01*
X2846178Y-16251535D01*
X2838174Y-16252857D01*
X1575753Y-16419074D01*
X1571721Y-16419538D01*
X1359388Y-16440452D01*
X1352643Y-16440931D01*
X127940Y-16494413D01*
X122530Y-16494531D01*
X-122530Y-16494531D01*
X-127940Y-16494413D01*
X-1352643Y-16440931D01*
X-1359388Y-16440452D01*
X-1571721Y-16419538D01*
X-1575753Y-16419074D01*
X-2838174Y-16252857D01*
X-2846178Y-16251535D01*
X-2931850Y-16234494D01*
X-2934494Y-16233939D01*
X-4151545Y-15964167D01*
X-4154840Y-15963389D01*
X-4319042Y-15922258D01*
X-4326204Y-15920233D01*
X-5511321Y-15546518D01*
X-5515804Y-15545010D01*
X-5738165Y-15465447D01*
X-5743838Y-15463259D01*
X-6839388Y-15009518D01*
X-6871740Y-14996119D01*
X-6877309Y-14993651D01*
X-7068802Y-14903082D01*
X-1117400Y-14903082D01*
X-1117400Y-15015118D01*
X-1088403Y-15123337D01*
X-1032385Y-15220363D01*
X-953163Y-15299585D01*
X-856137Y-15355603D01*
X-747918Y-15384600D01*
X-747916Y-15384600D01*
X-635884Y-15384600D01*
X-635882Y-15384600D01*
X-527663Y-15355603D01*
X-430637Y-15299585D01*
X-351415Y-15220363D01*
X-295397Y-15123337D01*
X-271696Y-15034882D01*
X3682100Y-15034882D01*
X3682100Y-15146918D01*
X3711097Y-15255137D01*
X3767115Y-15352163D01*
X3846337Y-15431385D01*
X3943363Y-15487403D01*
X4051582Y-15516400D01*
X4051584Y-15516400D01*
X4163616Y-15516400D01*
X4163618Y-15516400D01*
X4271837Y-15487403D01*
X4368863Y-15431385D01*
X4448085Y-15352163D01*
X4504103Y-15255137D01*
X4533100Y-15146918D01*
X4533100Y-15034882D01*
X4504103Y-14926663D01*
X4448085Y-14829637D01*
X4368863Y-14750415D01*
X4304179Y-14713069D01*
X4271839Y-14694398D01*
X4271838Y-14694397D01*
X4271837Y-14694397D01*
X4163618Y-14665400D01*
X4051582Y-14665400D01*
X3943363Y-14694397D01*
X3943360Y-14694398D01*
X3846340Y-14750413D01*
X3846334Y-14750417D01*
X3767117Y-14829634D01*
X3767113Y-14829640D01*
X3711098Y-14926660D01*
X3711097Y-14926663D01*
X3682100Y-15034882D01*
X-271696Y-15034882D01*
X-266400Y-15015118D01*
X-266400Y-14903082D01*
X-295397Y-14794863D01*
X-295398Y-14794860D01*
X-351413Y-14697840D01*
X-351417Y-14697834D01*
X-430634Y-14618617D01*
X-430640Y-14618613D01*
X-527660Y-14562598D01*
X-527663Y-14562597D01*
X-635882Y-14533600D01*
X-747918Y-14533600D01*
X-856137Y-14562597D01*
X-953163Y-14618615D01*
X-1032385Y-14697837D01*
X-1088403Y-14794863D01*
X-1117400Y-14903082D01*
X-7068802Y-14903082D01*
X-7092819Y-14891723D01*
X-7097062Y-14889616D01*
X-8198692Y-14316109D01*
X-8205180Y-14312480D01*
X-8348892Y-14226343D01*
X-8351769Y-14224565D01*
X-9403754Y-13554379D01*
X-9406019Y-13552900D01*
X-9479172Y-13504021D01*
X-9485769Y-13499294D01*
X-10052747Y-13064230D01*
X-10170359Y-12973982D01*
X-9205500Y-12973982D01*
X-9205500Y-13086018D01*
X-9176503Y-13194237D01*
X-9120485Y-13291263D01*
X-9041263Y-13370485D01*
X-8944237Y-13426503D01*
X-8836018Y-13455500D01*
X-8836016Y-13455500D01*
X-8723984Y-13455500D01*
X-8723982Y-13455500D01*
X-8615763Y-13426503D01*
X-8518737Y-13370485D01*
X-8439515Y-13291263D01*
X-8383497Y-13194237D01*
X-8365583Y-13127382D01*
X2086400Y-13127382D01*
X2086400Y-13239418D01*
X2115397Y-13347637D01*
X2171415Y-13444663D01*
X2250637Y-13523885D01*
X2347663Y-13579903D01*
X2455882Y-13608900D01*
X2455884Y-13608900D01*
X2567916Y-13608900D01*
X2567918Y-13608900D01*
X2676137Y-13579903D01*
X2773163Y-13523885D01*
X2852385Y-13444663D01*
X2908403Y-13347637D01*
X2937400Y-13239418D01*
X2937400Y-13127382D01*
X2908403Y-13019163D01*
X2852385Y-12922137D01*
X2773163Y-12842915D01*
X2676137Y-12786897D01*
X2567918Y-12757900D01*
X2455882Y-12757900D01*
X2347663Y-12786897D01*
X2347660Y-12786898D01*
X2250640Y-12842913D01*
X2250634Y-12842917D01*
X2171417Y-12922134D01*
X2171413Y-12922140D01*
X2115398Y-13019160D01*
X2115397Y-13019163D01*
X2086400Y-13127382D01*
X-8365583Y-13127382D01*
X-8354500Y-13086018D01*
X-8354500Y-12973982D01*
X-8383497Y-12865763D01*
X-8383498Y-12865760D01*
X-8439513Y-12768740D01*
X-8439517Y-12768734D01*
X-8518734Y-12689517D01*
X-8518740Y-12689513D01*
X-8615760Y-12633498D01*
X-8615763Y-12633497D01*
X-8723982Y-12604500D01*
X-8836018Y-12604500D01*
X-8944237Y-12633497D01*
X-9041263Y-12689515D01*
X-9120485Y-12768737D01*
X-9176503Y-12865763D01*
X-9205500Y-12973982D01*
X-10170359Y-12973982D01*
X-10496101Y-12724028D01*
X-10499279Y-12721506D01*
X-10663836Y-12586457D01*
X-10668939Y-12582031D01*
X-11509492Y-11811886D01*
X-11509499Y-11811882D01*
X-11572058Y-11754563D01*
X-11575970Y-11750817D01*
X-11598205Y-11728582D01*
X3094500Y-11728582D01*
X3094500Y-11840618D01*
X3123497Y-11948837D01*
X3179515Y-12045863D01*
X3258737Y-12125085D01*
X3355763Y-12181103D01*
X3463982Y-12210100D01*
X3463984Y-12210100D01*
X3576016Y-12210100D01*
X3576018Y-12210100D01*
X3684237Y-12181103D01*
X3781263Y-12125085D01*
X3860485Y-12045863D01*
X3916503Y-11948837D01*
X3945500Y-11840618D01*
X3945500Y-11728582D01*
X3916503Y-11620363D01*
X3860485Y-11523337D01*
X3781263Y-11444115D01*
X3684237Y-11388097D01*
X3576018Y-11359100D01*
X3463982Y-11359100D01*
X3355763Y-11388097D01*
X3355760Y-11388098D01*
X3258740Y-11444113D01*
X3258734Y-11444117D01*
X3179517Y-11523334D01*
X3179513Y-11523340D01*
X3123498Y-11620360D01*
X3123497Y-11620363D01*
X3094500Y-11728582D01*
X-11598205Y-11728582D01*
X-11750817Y-11575970D01*
X-11754563Y-11572057D01*
X-12582031Y-10668939D01*
X-12586457Y-10663836D01*
X-12721506Y-10499279D01*
X-12724028Y-10496101D01*
X-13106668Y-9997442D01*
X-13158356Y-9930082D01*
X-1245700Y-9930082D01*
X-1245700Y-10042118D01*
X-1216703Y-10150337D01*
X-1160685Y-10247363D01*
X-1081463Y-10326585D01*
X-984437Y-10382603D01*
X-876218Y-10411600D01*
X-876216Y-10411600D01*
X-764184Y-10411600D01*
X-764182Y-10411600D01*
X-655963Y-10382603D01*
X-558937Y-10326585D01*
X-479715Y-10247363D01*
X-423697Y-10150337D01*
X-394700Y-10042118D01*
X-394700Y-9932782D01*
X581200Y-9932782D01*
X581200Y-10044818D01*
X610197Y-10153037D01*
X666215Y-10250063D01*
X745437Y-10329285D01*
X842463Y-10385303D01*
X950682Y-10414300D01*
X950684Y-10414300D01*
X1062716Y-10414300D01*
X1062718Y-10414300D01*
X1170937Y-10385303D01*
X1267963Y-10329285D01*
X1279369Y-10317879D01*
X1340692Y-10284394D01*
X1410384Y-10289378D01*
X1454731Y-10317879D01*
X1490337Y-10353485D01*
X1587363Y-10409503D01*
X1695582Y-10438500D01*
X1695584Y-10438500D01*
X1807616Y-10438500D01*
X1807618Y-10438500D01*
X1915837Y-10409503D01*
X2012863Y-10353485D01*
X2092085Y-10274263D01*
X2148103Y-10177237D01*
X2177100Y-10069018D01*
X2177100Y-9956982D01*
X2148103Y-9848763D01*
X2113050Y-9788049D01*
X8199000Y-9788049D01*
X8199000Y-10010950D01*
X8199001Y-10010966D01*
X8228094Y-10231952D01*
X8228095Y-10231957D01*
X8228096Y-10231963D01*
X8276953Y-10414299D01*
X8285790Y-10447280D01*
X8285793Y-10447290D01*
X8307328Y-10499279D01*
X8371095Y-10653226D01*
X8482552Y-10846274D01*
X8482557Y-10846280D01*
X8482558Y-10846282D01*
X8618251Y-11023122D01*
X8618257Y-11023129D01*
X8775870Y-11180742D01*
X8775876Y-11180747D01*
X8952726Y-11316448D01*
X9145774Y-11427905D01*
X9351719Y-11513210D01*
X9567037Y-11570904D01*
X9788043Y-11600000D01*
X9788050Y-11600000D01*
X10010950Y-11600000D01*
X10010957Y-11600000D01*
X10231963Y-11570904D01*
X10447281Y-11513210D01*
X10653226Y-11427905D01*
X10846274Y-11316448D01*
X11023124Y-11180747D01*
X11180747Y-11023124D01*
X11316448Y-10846274D01*
X11427905Y-10653226D01*
X11513210Y-10447281D01*
X11570904Y-10231963D01*
X11600000Y-10010957D01*
X11600000Y-9788043D01*
X11570904Y-9567037D01*
X11513210Y-9351719D01*
X11427905Y-9145774D01*
X11316448Y-8952726D01*
X11180747Y-8775876D01*
X11180742Y-8775870D01*
X11023129Y-8618257D01*
X11023122Y-8618251D01*
X10846282Y-8482558D01*
X10846280Y-8482557D01*
X10846274Y-8482552D01*
X10653226Y-8371095D01*
X10653222Y-8371093D01*
X10447290Y-8285793D01*
X10447283Y-8285791D01*
X10447281Y-8285790D01*
X10231963Y-8228096D01*
X10231957Y-8228095D01*
X10231952Y-8228094D01*
X10010966Y-8199001D01*
X10010963Y-8199000D01*
X10010957Y-8199000D01*
X9788043Y-8199000D01*
X9788037Y-8199000D01*
X9788033Y-8199001D01*
X9567047Y-8228094D01*
X9567040Y-8228095D01*
X9567037Y-8228096D01*
X9351719Y-8285790D01*
X9351709Y-8285793D01*
X9145777Y-8371093D01*
X9145773Y-8371095D01*
X8952726Y-8482552D01*
X8952717Y-8482558D01*
X8775877Y-8618251D01*
X8775870Y-8618257D01*
X8618257Y-8775870D01*
X8618251Y-8775877D01*
X8482558Y-8952717D01*
X8482552Y-8952726D01*
X8371095Y-9145773D01*
X8371093Y-9145777D01*
X8285793Y-9351709D01*
X8285790Y-9351719D01*
X8229098Y-9563300D01*
X8228097Y-9567034D01*
X8228094Y-9567047D01*
X8199001Y-9788033D01*
X8199000Y-9788049D01*
X2113050Y-9788049D01*
X2092085Y-9751737D01*
X2012863Y-9672515D01*
X1915837Y-9616497D01*
X1807618Y-9587500D01*
X1695582Y-9587500D01*
X1587363Y-9616497D01*
X1587360Y-9616498D01*
X1490340Y-9672513D01*
X1490331Y-9672520D01*
X1478925Y-9683925D01*
X1417600Y-9717407D01*
X1347909Y-9712418D01*
X1303568Y-9683920D01*
X1267965Y-9648317D01*
X1267963Y-9648315D01*
X1170937Y-9592297D01*
X1062718Y-9563300D01*
X950682Y-9563300D01*
X842463Y-9592297D01*
X842460Y-9592298D01*
X745440Y-9648313D01*
X745434Y-9648317D01*
X666217Y-9727534D01*
X666213Y-9727540D01*
X610198Y-9824560D01*
X610197Y-9824563D01*
X581200Y-9932782D01*
X-394700Y-9932782D01*
X-394700Y-9930082D01*
X-423697Y-9821863D01*
X-423698Y-9821860D01*
X-479713Y-9724840D01*
X-479717Y-9724834D01*
X-558934Y-9645617D01*
X-558940Y-9645613D01*
X-655960Y-9589598D01*
X-655963Y-9589597D01*
X-764182Y-9560600D01*
X-876218Y-9560600D01*
X-984437Y-9589597D01*
X-1081463Y-9645615D01*
X-1160685Y-9724837D01*
X-1216703Y-9821863D01*
X-1245700Y-9930082D01*
X-13158356Y-9930082D01*
X-13499294Y-9485769D01*
X-13504021Y-9479172D01*
X-13552900Y-9406019D01*
X-13554379Y-9403754D01*
X-14224565Y-8351769D01*
X-14226343Y-8348892D01*
X-14312480Y-8205180D01*
X-14316109Y-8198692D01*
X-14889616Y-7097062D01*
X-14891723Y-7092819D01*
X-14955264Y-6958472D01*
X-14976495Y-6913582D01*
X-1875500Y-6913582D01*
X-1875500Y-7025618D01*
X-1846503Y-7133837D01*
X-1790485Y-7230863D01*
X-1711263Y-7310085D01*
X-1614237Y-7366103D01*
X-1506018Y-7395100D01*
X-1506016Y-7395100D01*
X-1393984Y-7395100D01*
X-1393982Y-7395100D01*
X-1285763Y-7366103D01*
X-1188737Y-7310085D01*
X-1109515Y-7230863D01*
X-1072169Y-7166179D01*
X-1053498Y-7133839D01*
X-1053497Y-7133836D01*
X-1047137Y-7110102D01*
X-1024500Y-7025618D01*
X-1024500Y-6913582D01*
X-1053497Y-6805363D01*
X-1053498Y-6805360D01*
X-1109513Y-6708340D01*
X-1109517Y-6708334D01*
X-1160269Y-6657582D01*
X11349300Y-6657582D01*
X11349300Y-6769618D01*
X11378297Y-6877837D01*
X11434315Y-6974863D01*
X11513537Y-7054085D01*
X11610563Y-7110103D01*
X11718782Y-7139100D01*
X11718784Y-7139100D01*
X11830816Y-7139100D01*
X11830818Y-7139100D01*
X11939037Y-7110103D01*
X12036063Y-7054085D01*
X12115285Y-6974863D01*
X12171303Y-6877837D01*
X12200300Y-6769618D01*
X12200300Y-6657582D01*
X12179507Y-6579982D01*
X12871500Y-6579982D01*
X12871500Y-6692018D01*
X12900497Y-6800237D01*
X12956515Y-6897263D01*
X13035737Y-6976485D01*
X13132763Y-7032503D01*
X13240982Y-7061500D01*
X13240984Y-7061500D01*
X13353016Y-7061500D01*
X13353018Y-7061500D01*
X13461237Y-7032503D01*
X13558263Y-6976485D01*
X13637485Y-6897263D01*
X13693503Y-6800237D01*
X13722500Y-6692018D01*
X13722500Y-6579982D01*
X13693503Y-6471763D01*
X13637485Y-6374737D01*
X13558263Y-6295515D01*
X13461237Y-6239497D01*
X13353018Y-6210500D01*
X13240982Y-6210500D01*
X13132763Y-6239497D01*
X13132760Y-6239498D01*
X13035740Y-6295513D01*
X13035734Y-6295517D01*
X12956517Y-6374734D01*
X12956513Y-6374740D01*
X12900498Y-6471760D01*
X12900497Y-6471763D01*
X12871500Y-6579982D01*
X12179507Y-6579982D01*
X12171303Y-6549363D01*
X12115285Y-6452337D01*
X12036063Y-6373115D01*
X11939037Y-6317097D01*
X11830818Y-6288100D01*
X11718782Y-6288100D01*
X11610563Y-6317097D01*
X11610560Y-6317098D01*
X11513540Y-6373113D01*
X11513534Y-6373117D01*
X11434317Y-6452334D01*
X11434313Y-6452340D01*
X11378298Y-6549360D01*
X11378298Y-6549361D01*
X11378297Y-6549363D01*
X11349300Y-6657582D01*
X-1160269Y-6657582D01*
X-1188734Y-6629117D01*
X-1188740Y-6629113D01*
X-1285760Y-6573098D01*
X-1285763Y-6573097D01*
X-1393982Y-6544100D01*
X-1506018Y-6544100D01*
X-1614237Y-6573097D01*
X-1711263Y-6629115D01*
X-1790485Y-6708337D01*
X-1846503Y-6805363D01*
X-1875500Y-6913582D01*
X-14976495Y-6913582D01*
X-14993651Y-6877309D01*
X-14996119Y-6871740D01*
X-15310446Y-6112803D01*
X-15326731Y-6073482D01*
X7968300Y-6073482D01*
X7968300Y-6185517D01*
X7997297Y-6293736D01*
X7997298Y-6293739D01*
X7998325Y-6295517D01*
X8053315Y-6390763D01*
X8132537Y-6469985D01*
X8229563Y-6526003D01*
X8337782Y-6555000D01*
X8337784Y-6555000D01*
X8449816Y-6555000D01*
X8449818Y-6555000D01*
X8558037Y-6526003D01*
X8655063Y-6469985D01*
X8734285Y-6390763D01*
X8790303Y-6293737D01*
X8819300Y-6185518D01*
X8819300Y-6073482D01*
X8790303Y-5965263D01*
X8734285Y-5868237D01*
X8655063Y-5789015D01*
X8558037Y-5732997D01*
X8449818Y-5704000D01*
X8337782Y-5704000D01*
X8229563Y-5732997D01*
X8229560Y-5732998D01*
X8132540Y-5789013D01*
X8132534Y-5789017D01*
X8053317Y-5868234D01*
X8053313Y-5868240D01*
X7997298Y-5965260D01*
X7997297Y-5965263D01*
X7968300Y-6073482D01*
X-15326731Y-6073482D01*
X-15463259Y-5743838D01*
X-15465447Y-5738165D01*
X-15545010Y-5515804D01*
X-15546509Y-5511350D01*
X-15614277Y-5296446D01*
X-15614277Y-5296443D01*
X-15623473Y-5267282D01*
X-3475500Y-5267282D01*
X-3475500Y-5379318D01*
X-3446503Y-5487537D01*
X-3390485Y-5584563D01*
X-3311263Y-5663785D01*
X-3214237Y-5719803D01*
X-3106018Y-5748800D01*
X-3106016Y-5748800D01*
X-2993984Y-5748800D01*
X-2993982Y-5748800D01*
X-2885763Y-5719803D01*
X-2788737Y-5663785D01*
X-2709515Y-5584563D01*
X-2653497Y-5487537D01*
X-2624500Y-5379318D01*
X-2624500Y-5267282D01*
X-2653497Y-5159063D01*
X-2653498Y-5159060D01*
X-2709513Y-5062040D01*
X-2709517Y-5062034D01*
X-2788734Y-4982817D01*
X-2788740Y-4982813D01*
X-2885760Y-4926798D01*
X-2885763Y-4926797D01*
X-2993982Y-4897800D01*
X-3106018Y-4897800D01*
X-3214237Y-4926797D01*
X-3311263Y-4982815D01*
X-3390485Y-5062037D01*
X-3446503Y-5159063D01*
X-3475500Y-5267282D01*
X-15623473Y-5267282D01*
X-15824761Y-4628961D01*
X-15824767Y-4628947D01*
X-15833964Y-4599782D01*
X11124500Y-4599782D01*
X11124500Y-4711818D01*
X11153497Y-4820037D01*
X11209515Y-4917063D01*
X11288737Y-4996285D01*
X11385763Y-5052303D01*
X11493982Y-5081300D01*
X11493984Y-5081300D01*
X11606016Y-5081300D01*
X11606018Y-5081300D01*
X11704985Y-5054782D01*
X12947800Y-5054782D01*
X12947800Y-5166818D01*
X12976797Y-5275037D01*
X13032815Y-5372063D01*
X13112037Y-5451285D01*
X13209063Y-5507303D01*
X13317282Y-5536300D01*
X13317284Y-5536300D01*
X13429316Y-5536300D01*
X13429318Y-5536300D01*
X13537537Y-5507303D01*
X13634563Y-5451285D01*
X13713785Y-5372063D01*
X13769803Y-5275037D01*
X13798800Y-5166818D01*
X13798800Y-5054782D01*
X13769803Y-4946563D01*
X13713785Y-4849537D01*
X13634563Y-4770315D01*
X13537537Y-4714297D01*
X13429318Y-4685300D01*
X13317282Y-4685300D01*
X13209063Y-4714297D01*
X13209060Y-4714298D01*
X13112040Y-4770313D01*
X13112034Y-4770317D01*
X13032817Y-4849534D01*
X13032813Y-4849540D01*
X12976798Y-4946560D01*
X12976797Y-4946563D01*
X12947800Y-5054782D01*
X11704985Y-5054782D01*
X11714237Y-5052303D01*
X11811263Y-4996285D01*
X11890485Y-4917063D01*
X11946503Y-4820037D01*
X11975500Y-4711818D01*
X11975500Y-4599782D01*
X11946503Y-4491563D01*
X11890485Y-4394537D01*
X11811263Y-4315315D01*
X11714237Y-4259297D01*
X11606018Y-4230300D01*
X11493982Y-4230300D01*
X11385763Y-4259297D01*
X11385760Y-4259298D01*
X11288740Y-4315313D01*
X11288734Y-4315317D01*
X11209517Y-4394534D01*
X11209513Y-4394540D01*
X11153498Y-4491560D01*
X11153497Y-4491563D01*
X11124500Y-4599782D01*
X-15833964Y-4599782D01*
X-15920234Y-4326204D01*
X-15922258Y-4319042D01*
X-15963389Y-4154840D01*
X-15964167Y-4151545D01*
X-16120452Y-3446482D01*
X7564900Y-3446482D01*
X7564900Y-3558518D01*
X7590168Y-3652818D01*
X7593897Y-3666736D01*
X7593898Y-3666739D01*
X7605342Y-3686561D01*
X7649915Y-3763763D01*
X7729137Y-3842985D01*
X7826163Y-3899003D01*
X7934382Y-3928000D01*
X7934384Y-3928000D01*
X8046416Y-3928000D01*
X8046418Y-3928000D01*
X8154637Y-3899003D01*
X8214482Y-3864451D01*
X8282379Y-3847979D01*
X8338480Y-3864452D01*
X8409063Y-3905203D01*
X8517282Y-3934200D01*
X8517284Y-3934200D01*
X8629316Y-3934200D01*
X8629318Y-3934200D01*
X8737537Y-3905203D01*
X8834563Y-3849185D01*
X8913785Y-3769963D01*
X8961937Y-3686560D01*
X9012502Y-3638347D01*
X9081109Y-3625123D01*
X9145974Y-3651091D01*
X9176710Y-3686561D01*
X9228615Y-3776463D01*
X9307837Y-3855685D01*
X9404863Y-3911703D01*
X9513082Y-3940700D01*
X9513084Y-3940700D01*
X9625116Y-3940700D01*
X9625118Y-3940700D01*
X9733337Y-3911703D01*
X9830363Y-3855685D01*
X9909585Y-3776463D01*
X9965603Y-3679437D01*
X9994600Y-3571218D01*
X9994600Y-3500282D01*
X10337600Y-3500282D01*
X10337600Y-3612318D01*
X10366597Y-3720537D01*
X10422615Y-3817563D01*
X10501837Y-3896785D01*
X10598863Y-3952803D01*
X10707082Y-3981800D01*
X10707084Y-3981800D01*
X10819116Y-3981800D01*
X10819118Y-3981800D01*
X10927337Y-3952803D01*
X11024363Y-3896785D01*
X11103585Y-3817563D01*
X11159603Y-3720537D01*
X11188600Y-3612318D01*
X11188600Y-3540782D01*
X11454500Y-3540782D01*
X11454500Y-3652818D01*
X11463542Y-3686561D01*
X11483497Y-3761036D01*
X11483498Y-3761039D01*
X11492401Y-3776459D01*
X11539515Y-3858063D01*
X11618737Y-3937285D01*
X11715763Y-3993303D01*
X11823982Y-4022300D01*
X11823984Y-4022300D01*
X11936016Y-4022300D01*
X11936018Y-4022300D01*
X12044237Y-3993303D01*
X12141263Y-3937285D01*
X12220485Y-3858063D01*
X12276503Y-3761037D01*
X12305500Y-3652818D01*
X12305500Y-3540782D01*
X12276503Y-3432563D01*
X12220485Y-3335537D01*
X12141263Y-3256315D01*
X12071115Y-3215815D01*
X12044239Y-3200298D01*
X12044238Y-3200297D01*
X12044237Y-3200297D01*
X11936018Y-3171300D01*
X11823982Y-3171300D01*
X11715763Y-3200297D01*
X11715760Y-3200298D01*
X11618740Y-3256313D01*
X11618734Y-3256317D01*
X11539517Y-3335534D01*
X11539513Y-3335540D01*
X11483498Y-3432560D01*
X11483497Y-3432563D01*
X11454500Y-3540782D01*
X11188600Y-3540782D01*
X11188600Y-3500282D01*
X11159603Y-3392063D01*
X11103585Y-3295037D01*
X11024363Y-3215815D01*
X10941921Y-3168217D01*
X10927339Y-3159798D01*
X10927338Y-3159797D01*
X10927337Y-3159797D01*
X10819118Y-3130800D01*
X10707082Y-3130800D01*
X10598863Y-3159797D01*
X10598860Y-3159798D01*
X10501840Y-3215813D01*
X10501834Y-3215817D01*
X10422617Y-3295034D01*
X10422613Y-3295040D01*
X10366598Y-3392060D01*
X10366597Y-3392063D01*
X10337600Y-3500282D01*
X9994600Y-3500282D01*
X9994600Y-3459182D01*
X9965603Y-3350963D01*
X9909585Y-3253937D01*
X9830363Y-3174715D01*
X9733337Y-3118697D01*
X9625118Y-3089700D01*
X9513082Y-3089700D01*
X9404863Y-3118697D01*
X9404860Y-3118698D01*
X9307840Y-3174713D01*
X9307834Y-3174717D01*
X9228617Y-3253934D01*
X9228615Y-3253937D01*
X9180463Y-3337338D01*
X9129895Y-3385553D01*
X9061288Y-3398775D01*
X8996423Y-3372807D01*
X8965689Y-3337337D01*
X8954597Y-3318125D01*
X8913785Y-3247437D01*
X8834563Y-3168215D01*
X8748797Y-3118698D01*
X8737539Y-3112198D01*
X8737538Y-3112197D01*
X8737537Y-3112197D01*
X8629318Y-3083200D01*
X8517282Y-3083200D01*
X8409063Y-3112197D01*
X8409062Y-3112197D01*
X8349218Y-3146748D01*
X8281318Y-3163219D01*
X8225220Y-3146747D01*
X8154643Y-3106000D01*
X8154639Y-3105998D01*
X8154637Y-3105997D01*
X8046418Y-3077000D01*
X7934382Y-3077000D01*
X7826163Y-3105997D01*
X7826160Y-3105998D01*
X7729140Y-3162013D01*
X7729134Y-3162017D01*
X7649917Y-3241234D01*
X7649913Y-3241240D01*
X7593898Y-3338260D01*
X7593897Y-3338263D01*
X7564900Y-3446482D01*
X-16120452Y-3446482D01*
X-16233939Y-2934494D01*
X-16234495Y-2931849D01*
X-16241517Y-2896545D01*
X-16241516Y-2896542D01*
X-16244711Y-2880482D01*
X4763700Y-2880482D01*
X4763700Y-2992517D01*
X4792697Y-3100736D01*
X4792698Y-3100739D01*
X4799313Y-3112197D01*
X4848715Y-3197763D01*
X4927937Y-3276985D01*
X5024963Y-3333003D01*
X5133182Y-3362000D01*
X5133184Y-3362000D01*
X5245216Y-3362000D01*
X5245218Y-3362000D01*
X5353437Y-3333003D01*
X5450463Y-3276985D01*
X5529685Y-3197763D01*
X5585703Y-3100737D01*
X5614700Y-2992518D01*
X5614700Y-2880482D01*
X5599266Y-2822882D01*
X14486000Y-2822882D01*
X14486000Y-2934918D01*
X14514997Y-3043137D01*
X14571015Y-3140163D01*
X14650237Y-3219385D01*
X14747263Y-3275403D01*
X14855482Y-3304400D01*
X14855484Y-3304400D01*
X14967516Y-3304400D01*
X14967518Y-3304400D01*
X15075737Y-3275403D01*
X15172763Y-3219385D01*
X15251985Y-3140163D01*
X15308003Y-3043137D01*
X15337000Y-2934918D01*
X15337000Y-2822882D01*
X15308003Y-2714663D01*
X15251985Y-2617637D01*
X15172763Y-2538415D01*
X15075737Y-2482397D01*
X14967518Y-2453400D01*
X14855482Y-2453400D01*
X14747263Y-2482397D01*
X14747260Y-2482398D01*
X14650240Y-2538413D01*
X14650234Y-2538417D01*
X14571017Y-2617634D01*
X14571013Y-2617640D01*
X14514998Y-2714660D01*
X14514997Y-2714663D01*
X14486000Y-2822882D01*
X5599266Y-2822882D01*
X5585703Y-2772263D01*
X5529685Y-2675237D01*
X5450463Y-2596015D01*
X5353437Y-2539997D01*
X5245218Y-2511000D01*
X5133182Y-2511000D01*
X5024963Y-2539997D01*
X5024960Y-2539998D01*
X4927940Y-2596013D01*
X4927934Y-2596017D01*
X4848717Y-2675234D01*
X4848713Y-2675240D01*
X4792698Y-2772260D01*
X4792697Y-2772263D01*
X4763700Y-2880482D01*
X-16244711Y-2880482D01*
X-16251535Y-2846179D01*
X-16252857Y-2838174D01*
X-16394770Y-1760342D01*
X-16395831Y-1752282D01*
X9524000Y-1752282D01*
X9524000Y-1864318D01*
X9552997Y-1972537D01*
X9609015Y-2069563D01*
X9688237Y-2148785D01*
X9785263Y-2204803D01*
X9893482Y-2233800D01*
X9893484Y-2233800D01*
X10005516Y-2233800D01*
X10005518Y-2233800D01*
X10113737Y-2204803D01*
X10210763Y-2148785D01*
X10289985Y-2069563D01*
X10317167Y-2022482D01*
X11253000Y-2022482D01*
X11253000Y-2134518D01*
X11281997Y-2242737D01*
X11338015Y-2339763D01*
X11417237Y-2418985D01*
X11514263Y-2475003D01*
X11622482Y-2504000D01*
X11622484Y-2504000D01*
X11734516Y-2504000D01*
X11734518Y-2504000D01*
X11842737Y-2475003D01*
X11939763Y-2418985D01*
X12018985Y-2339763D01*
X12075003Y-2242737D01*
X12104000Y-2134518D01*
X12104000Y-2022482D01*
X12075003Y-1914263D01*
X12018985Y-1817237D01*
X11939763Y-1738015D01*
X11842737Y-1681997D01*
X11800509Y-1670682D01*
X14279700Y-1670682D01*
X14279700Y-1782718D01*
X14308697Y-1890937D01*
X14364715Y-1987963D01*
X14443937Y-2067185D01*
X14540963Y-2123203D01*
X14649182Y-2152200D01*
X14649184Y-2152200D01*
X14761216Y-2152200D01*
X14761218Y-2152200D01*
X14869437Y-2123203D01*
X14966463Y-2067185D01*
X15045685Y-1987963D01*
X15101703Y-1890937D01*
X15130700Y-1782718D01*
X15130700Y-1670682D01*
X15130700Y-1665856D01*
X15150385Y-1598817D01*
X15203189Y-1553062D01*
X15272347Y-1543118D01*
X15286794Y-1546081D01*
X15288357Y-1546500D01*
X15288363Y-1546503D01*
X15396582Y-1575500D01*
X15396585Y-1575500D01*
X15508616Y-1575500D01*
X15508618Y-1575500D01*
X15616837Y-1546503D01*
X15713863Y-1490485D01*
X15793085Y-1411263D01*
X15849103Y-1314237D01*
X15878100Y-1206018D01*
X15878100Y-1093982D01*
X15849103Y-985763D01*
X15793085Y-888737D01*
X15713863Y-809515D01*
X15616837Y-753497D01*
X15508618Y-724500D01*
X15396582Y-724500D01*
X15288363Y-753497D01*
X15288360Y-753498D01*
X15191340Y-809513D01*
X15191334Y-809517D01*
X15112117Y-888734D01*
X15112113Y-888740D01*
X15056098Y-985760D01*
X15056097Y-985763D01*
X15027100Y-1093982D01*
X15027100Y-1210843D01*
X15007415Y-1277882D01*
X14954611Y-1323637D01*
X14885453Y-1333581D01*
X14871007Y-1330618D01*
X14869438Y-1330197D01*
X14869437Y-1330197D01*
X14761218Y-1301200D01*
X14649182Y-1301200D01*
X14540963Y-1330197D01*
X14540960Y-1330198D01*
X14443940Y-1386213D01*
X14443934Y-1386217D01*
X14364717Y-1465434D01*
X14364713Y-1465440D01*
X14308698Y-1562460D01*
X14308697Y-1562463D01*
X14279700Y-1670682D01*
X11800509Y-1670682D01*
X11734518Y-1653000D01*
X11622482Y-1653000D01*
X11514263Y-1681997D01*
X11514260Y-1681998D01*
X11417240Y-1738013D01*
X11417234Y-1738017D01*
X11338017Y-1817234D01*
X11338013Y-1817240D01*
X11281998Y-1914260D01*
X11281997Y-1914263D01*
X11253000Y-2022482D01*
X10317167Y-2022482D01*
X10346003Y-1972537D01*
X10375000Y-1864318D01*
X10375000Y-1752282D01*
X10346003Y-1644063D01*
X10289985Y-1547037D01*
X10210763Y-1467815D01*
X10148576Y-1431911D01*
X10100362Y-1381344D01*
X10087140Y-1312737D01*
X10113108Y-1247873D01*
X10148572Y-1217142D01*
X10224363Y-1173385D01*
X10303585Y-1094163D01*
X10359603Y-997137D01*
X10388600Y-888918D01*
X10388600Y-776882D01*
X10359603Y-668663D01*
X10333851Y-624059D01*
X10317379Y-556163D01*
X10321466Y-529963D01*
X10325691Y-514197D01*
X10351303Y-469837D01*
X10380300Y-361618D01*
X10380300Y-334882D01*
X10709000Y-334882D01*
X10709000Y-446918D01*
X10737997Y-555137D01*
X10794015Y-652163D01*
X10873237Y-731385D01*
X10970263Y-787403D01*
X11078482Y-816400D01*
X11078484Y-816400D01*
X11190516Y-816400D01*
X11190518Y-816400D01*
X11298737Y-787403D01*
X11395763Y-731385D01*
X11474985Y-652163D01*
X11531003Y-555137D01*
X11541146Y-517282D01*
X12678300Y-517282D01*
X12678300Y-629318D01*
X12688843Y-668663D01*
X12707297Y-737536D01*
X12707298Y-737539D01*
X12716512Y-753498D01*
X12763315Y-834563D01*
X12842537Y-913785D01*
X12939563Y-969803D01*
X13047782Y-998800D01*
X13047784Y-998800D01*
X13159816Y-998800D01*
X13159818Y-998800D01*
X13268037Y-969803D01*
X13365063Y-913785D01*
X13444285Y-834563D01*
X13500303Y-737537D01*
X13529300Y-629318D01*
X13529300Y-517282D01*
X13500303Y-409063D01*
X13444285Y-312037D01*
X13365063Y-232815D01*
X13331206Y-213268D01*
X13268038Y-176797D01*
X13213927Y-162298D01*
X13159818Y-147800D01*
X13047782Y-147800D01*
X12939563Y-176797D01*
X12939560Y-176798D01*
X12842540Y-232813D01*
X12842534Y-232817D01*
X12763317Y-312034D01*
X12763313Y-312040D01*
X12707298Y-409060D01*
X12707297Y-409063D01*
X12678300Y-517282D01*
X11541146Y-517282D01*
X11560000Y-446918D01*
X11560000Y-334882D01*
X11531003Y-226663D01*
X11474985Y-129637D01*
X11416030Y-70682D01*
X14289400Y-70682D01*
X14289400Y-182718D01*
X14318397Y-290937D01*
X14374415Y-387963D01*
X14453637Y-467185D01*
X14550663Y-523203D01*
X14658882Y-552200D01*
X14658884Y-552200D01*
X14770916Y-552200D01*
X14770918Y-552200D01*
X14879137Y-523203D01*
X14976163Y-467185D01*
X15055385Y-387963D01*
X15111403Y-290937D01*
X15140400Y-182718D01*
X15140400Y-70682D01*
X15111403Y37537D01*
X15055385Y134563D01*
X14976163Y213785D01*
X14879137Y269803D01*
X14770918Y298800D01*
X14658882Y298800D01*
X14550663Y269803D01*
X14453637Y213785D01*
X14374415Y134563D01*
X14318397Y37537D01*
X14289400Y-70682D01*
X11416030Y-70682D01*
X11395763Y-50415D01*
X11298737Y5603D01*
X11190518Y34600D01*
X11078482Y34600D01*
X10970263Y5603D01*
X10970260Y5601D01*
X10873240Y-50413D01*
X10873234Y-50417D01*
X10794017Y-129634D01*
X10794013Y-129640D01*
X10737998Y-226660D01*
X10737997Y-226663D01*
X10709000Y-334882D01*
X10380300Y-334882D01*
X10380300Y-249582D01*
X10351303Y-141363D01*
X10295285Y-44337D01*
X10216063Y34885D01*
X10119037Y90903D01*
X10010818Y119900D01*
X9898782Y119900D01*
X9790563Y90903D01*
X9693537Y34885D01*
X9693534Y34882D01*
X9614317Y-44334D01*
X9614313Y-44340D01*
X9558298Y-141360D01*
X9558297Y-141363D01*
X9529300Y-249582D01*
X9529300Y-361618D01*
X9557587Y-467185D01*
X9558297Y-469836D01*
X9558298Y-469839D01*
X9584047Y-514437D01*
X9600520Y-582337D01*
X9584048Y-638435D01*
X9566599Y-668658D01*
X9566597Y-668663D01*
X9537600Y-776882D01*
X9537600Y-888918D01*
X9563550Y-985763D01*
X9566597Y-997136D01*
X9566598Y-997139D01*
X9567557Y-998800D01*
X9622615Y-1094163D01*
X9701837Y-1173385D01*
X9758356Y-1206016D01*
X9764021Y-1209287D01*
X9812237Y-1259854D01*
X9825460Y-1328461D01*
X9799492Y-1393326D01*
X9764021Y-1424061D01*
X9688240Y-1467813D01*
X9688234Y-1467817D01*
X9609017Y-1547034D01*
X9609013Y-1547040D01*
X9552998Y-1644060D01*
X9552997Y-1644063D01*
X9524000Y-1752282D01*
X-16395831Y-1752282D01*
X-16419074Y-1575753D01*
X-16419538Y-1571721D01*
X-16440452Y-1359388D01*
X-16440931Y-1352643D01*
X-16494413Y-127940D01*
X-16494531Y-122530D01*
X-16494531Y122530D01*
X-16494413Y127940D01*
X-16440989Y1351317D01*
X9980300Y1351317D01*
X9980300Y1239282D01*
X10009297Y1131063D01*
X10009298Y1131060D01*
X10065313Y1034040D01*
X10065317Y1034034D01*
X10144534Y954817D01*
X10144540Y954813D01*
X10241560Y898798D01*
X10241563Y898797D01*
X10349782Y869800D01*
X10461817Y869800D01*
X10461818Y869800D01*
X10570037Y898797D01*
X10667063Y954815D01*
X10746285Y1034037D01*
X10802303Y1131063D01*
X10831300Y1239282D01*
X10831300Y1351318D01*
X10802303Y1459537D01*
X10746285Y1556563D01*
X10708231Y1594617D01*
X11094400Y1594617D01*
X11094400Y1482582D01*
X11123397Y1374363D01*
X11123398Y1374360D01*
X11179413Y1277340D01*
X11179417Y1277334D01*
X11258634Y1198117D01*
X11258640Y1198113D01*
X11355660Y1142098D01*
X11355663Y1142097D01*
X11463882Y1113100D01*
X11575917Y1113100D01*
X11575918Y1113100D01*
X11684137Y1142097D01*
X11781163Y1198115D01*
X11860385Y1277337D01*
X11876943Y1306017D01*
X12406300Y1306017D01*
X12406300Y1193982D01*
X12435297Y1085763D01*
X12435298Y1085760D01*
X12491313Y988740D01*
X12491317Y988734D01*
X12570534Y909517D01*
X12570540Y909513D01*
X12667560Y853498D01*
X12667563Y853497D01*
X12775782Y824500D01*
X12887817Y824500D01*
X12887818Y824500D01*
X12996037Y853497D01*
X13093063Y909515D01*
X13172285Y988737D01*
X13228303Y1085763D01*
X13257300Y1193982D01*
X13257300Y1306018D01*
X13228303Y1414237D01*
X13172285Y1511263D01*
X13093063Y1590485D01*
X12996037Y1646503D01*
X12887818Y1675500D01*
X12775782Y1675500D01*
X12667563Y1646503D01*
X12570537Y1590485D01*
X12491315Y1511263D01*
X12435297Y1414237D01*
X12418438Y1351316D01*
X12406300Y1306017D01*
X11876943Y1306017D01*
X11907758Y1359389D01*
X11916401Y1374359D01*
X11916401Y1374360D01*
X11916403Y1374363D01*
X11945400Y1482582D01*
X11945400Y1594618D01*
X11916403Y1702837D01*
X11860385Y1799863D01*
X11781163Y1879085D01*
X11684137Y1935103D01*
X11575918Y1964100D01*
X11463882Y1964100D01*
X11355663Y1935103D01*
X11258637Y1879085D01*
X11179415Y1799863D01*
X11123397Y1702837D01*
X11108303Y1646503D01*
X11094400Y1594617D01*
X10708231Y1594617D01*
X10667063Y1635785D01*
X10570037Y1691803D01*
X10461818Y1720800D01*
X10349782Y1720800D01*
X10241563Y1691803D01*
X10144537Y1635785D01*
X10065315Y1556563D01*
X10009297Y1459537D01*
X9982463Y1359388D01*
X9980300Y1351317D01*
X-16440989Y1351317D01*
X-16440931Y1352643D01*
X-16440452Y1359389D01*
X-16439249Y1371601D01*
X-16439248Y1371601D01*
X-16419538Y1571721D01*
X-16419074Y1575753D01*
X-16352733Y2079617D01*
X14882100Y2079617D01*
X14882100Y1967582D01*
X14911097Y1859363D01*
X14911098Y1859360D01*
X14967113Y1762340D01*
X14967117Y1762334D01*
X15046334Y1683117D01*
X15046340Y1683113D01*
X15143360Y1627098D01*
X15143363Y1627097D01*
X15251582Y1598100D01*
X15363617Y1598100D01*
X15363618Y1598100D01*
X15471837Y1627097D01*
X15568863Y1683115D01*
X15648085Y1762337D01*
X15704103Y1859363D01*
X15733100Y1967582D01*
X15733100Y2079618D01*
X15704103Y2187837D01*
X15648085Y2284863D01*
X15568863Y2364085D01*
X15471837Y2420103D01*
X15363618Y2449100D01*
X15251582Y2449100D01*
X15143363Y2420103D01*
X15046337Y2364085D01*
X14967115Y2284863D01*
X14967113Y2284859D01*
X14911098Y2187839D01*
X14911097Y2187836D01*
X14882100Y2079617D01*
X-16352733Y2079617D01*
X-16252857Y2838174D01*
X-16251535Y2846178D01*
X-16234494Y2931850D01*
X-16233939Y2934493D01*
X-16220967Y2993017D01*
X7761900Y2993017D01*
X7761900Y2880982D01*
X7790897Y2772763D01*
X7790898Y2772760D01*
X7846913Y2675740D01*
X7846917Y2675734D01*
X7926134Y2596517D01*
X7926140Y2596513D01*
X8023160Y2540498D01*
X8023163Y2540497D01*
X8131382Y2511500D01*
X8243417Y2511500D01*
X8243418Y2511500D01*
X8351637Y2540497D01*
X8409990Y2574187D01*
X8477890Y2590659D01*
X8543917Y2567806D01*
X8559669Y2554481D01*
X8637833Y2476318D01*
X8637840Y2476313D01*
X8734860Y2420298D01*
X8734863Y2420297D01*
X8843082Y2391300D01*
X8955117Y2391300D01*
X8955118Y2391300D01*
X9063337Y2420297D01*
X9160363Y2476315D01*
X9239585Y2555537D01*
X9295603Y2652563D01*
X9324600Y2760782D01*
X9324600Y2872818D01*
X9295603Y2981037D01*
X9239585Y3078063D01*
X9160363Y3157285D01*
X9063337Y3213303D01*
X8955118Y3242300D01*
X8843082Y3242300D01*
X8734863Y3213303D01*
X8676506Y3179610D01*
X8608611Y3163139D01*
X8542584Y3185991D01*
X8526840Y3199307D01*
X8461331Y3264817D01*
X9520400Y3264817D01*
X9520400Y3152782D01*
X9549397Y3044563D01*
X9549398Y3044560D01*
X9605413Y2947540D01*
X9605417Y2947534D01*
X9684634Y2868317D01*
X9684640Y2868313D01*
X9781660Y2812298D01*
X9781663Y2812297D01*
X9889882Y2783300D01*
X10001917Y2783300D01*
X10001918Y2783300D01*
X10110137Y2812297D01*
X10124841Y2820786D01*
X10154957Y2838174D01*
X10207163Y2868315D01*
X10286385Y2947537D01*
X10342403Y3044563D01*
X10371400Y3152782D01*
X10371400Y3264818D01*
X10369685Y3271217D01*
X11168000Y3271217D01*
X11168000Y3159182D01*
X11196997Y3050963D01*
X11196998Y3050960D01*
X11253013Y2953940D01*
X11253017Y2953934D01*
X11332234Y2874717D01*
X11332240Y2874713D01*
X11429260Y2818698D01*
X11429263Y2818697D01*
X11537482Y2789700D01*
X11649517Y2789700D01*
X11649518Y2789700D01*
X11757737Y2818697D01*
X11854763Y2874715D01*
X11933985Y2953937D01*
X11990003Y3050963D01*
X12019000Y3159182D01*
X12019000Y3271218D01*
X11990003Y3379437D01*
X11933985Y3476463D01*
X11854763Y3555685D01*
X11757737Y3611703D01*
X11649518Y3640700D01*
X11537482Y3640700D01*
X11429263Y3611703D01*
X11332237Y3555685D01*
X11253015Y3476463D01*
X11196997Y3379437D01*
X11169679Y3277482D01*
X11168000Y3271217D01*
X10369685Y3271217D01*
X10342403Y3373037D01*
X10286385Y3470063D01*
X10207163Y3549285D01*
X10110137Y3605303D01*
X10001918Y3634300D01*
X9889882Y3634300D01*
X9781663Y3605303D01*
X9684637Y3549285D01*
X9605415Y3470063D01*
X9549397Y3373037D01*
X9522115Y3271216D01*
X9520400Y3264817D01*
X8461331Y3264817D01*
X8448663Y3277485D01*
X8351637Y3333503D01*
X8243418Y3362500D01*
X8131382Y3362500D01*
X8023163Y3333503D01*
X7926137Y3277485D01*
X7846915Y3198263D01*
X7790897Y3101237D01*
X7775712Y3044563D01*
X7761900Y2993017D01*
X-16220967Y2993017D01*
X-16213217Y3027979D01*
X-16213217Y3027980D01*
X-15964167Y4151545D01*
X-15963389Y4154840D01*
X-15922258Y4319042D01*
X-15920234Y4326204D01*
X-15813078Y4666016D01*
X-15813077Y4666018D01*
X-7655500Y4666018D01*
X-7655500Y4553982D01*
X-7626503Y4445763D01*
X-7570485Y4348737D01*
X-7491263Y4269515D01*
X-7394237Y4213497D01*
X-7286018Y4184500D01*
X-7286017Y4184500D01*
X-7173982Y4184500D01*
X-7065763Y4213497D01*
X-7065760Y4213498D01*
X-6968740Y4269513D01*
X-6968734Y4269517D01*
X-6889517Y4348734D01*
X-6889513Y4348740D01*
X-6833498Y4445760D01*
X-6833497Y4445763D01*
X-6804500Y4553982D01*
X-6804500Y4666017D01*
X-6816670Y4711439D01*
X-6833497Y4774237D01*
X-6889515Y4871263D01*
X-6968737Y4950485D01*
X-7065763Y5006503D01*
X-7173982Y5035500D01*
X-7286018Y5035500D01*
X-7394237Y5006503D01*
X-7491263Y4950485D01*
X-7570485Y4871263D01*
X-7626503Y4774237D01*
X-7655500Y4666018D01*
X-15813077Y4666018D01*
X-15798754Y4711437D01*
X-15798753Y4711439D01*
X-15546518Y5511321D01*
X-15545011Y5515803D01*
X-15533413Y5548217D01*
X7887500Y5548217D01*
X7887500Y5436182D01*
X7916497Y5327963D01*
X7916498Y5327960D01*
X7972513Y5230940D01*
X7972517Y5230934D01*
X8051734Y5151717D01*
X8051740Y5151713D01*
X8148760Y5095698D01*
X8148763Y5095697D01*
X8256982Y5066700D01*
X8369017Y5066700D01*
X8369018Y5066700D01*
X8477237Y5095697D01*
X8501171Y5109515D01*
X8509579Y5114369D01*
X8574263Y5151715D01*
X8653485Y5230937D01*
X8709503Y5327963D01*
X8738500Y5436182D01*
X8738500Y5506017D01*
X11078600Y5506017D01*
X11078600Y5393982D01*
X11107597Y5285763D01*
X11107598Y5285760D01*
X11163613Y5188740D01*
X11163617Y5188734D01*
X11242834Y5109517D01*
X11242840Y5109513D01*
X11339860Y5053498D01*
X11339863Y5053497D01*
X11448082Y5024500D01*
X11560117Y5024500D01*
X11560118Y5024500D01*
X11668337Y5053497D01*
X11765363Y5109515D01*
X11844585Y5188737D01*
X11900603Y5285763D01*
X11929600Y5393982D01*
X11929600Y5506018D01*
X11900603Y5614237D01*
X11844585Y5711263D01*
X11765363Y5790485D01*
X11668337Y5846503D01*
X11560118Y5875500D01*
X11448082Y5875500D01*
X11339863Y5846503D01*
X11242837Y5790485D01*
X11163615Y5711263D01*
X11107597Y5614237D01*
X11086617Y5535936D01*
X11078600Y5506017D01*
X8738500Y5506017D01*
X8738500Y5548218D01*
X8709503Y5656437D01*
X8653485Y5753463D01*
X8574263Y5832685D01*
X8477237Y5888703D01*
X8369018Y5917700D01*
X8256982Y5917700D01*
X8148763Y5888703D01*
X8051737Y5832685D01*
X7972515Y5753463D01*
X7916497Y5656437D01*
X7903733Y5608798D01*
X7887500Y5548217D01*
X-15533413Y5548217D01*
X-15515557Y5598119D01*
X-15515556Y5598120D01*
X-15465447Y5738165D01*
X-15463259Y5743838D01*
X-14996119Y6871740D01*
X-14993651Y6877309D01*
X-14891723Y7092819D01*
X-14889616Y7097062D01*
X-14659327Y7539417D01*
X6425500Y7539417D01*
X6425500Y7427382D01*
X6454497Y7319163D01*
X6454498Y7319160D01*
X6510513Y7222140D01*
X6510517Y7222134D01*
X6589734Y7142917D01*
X6589740Y7142913D01*
X6686760Y7086898D01*
X6686763Y7086897D01*
X6794982Y7057900D01*
X6907017Y7057900D01*
X6907018Y7057900D01*
X7015237Y7086897D01*
X7048354Y7106017D01*
X12829500Y7106017D01*
X12829500Y6993982D01*
X12858497Y6885763D01*
X12858498Y6885760D01*
X12914513Y6788740D01*
X12914517Y6788734D01*
X12993734Y6709517D01*
X12993740Y6709513D01*
X13090760Y6653498D01*
X13090763Y6653497D01*
X13198982Y6624500D01*
X13311017Y6624500D01*
X13311018Y6624500D01*
X13419237Y6653497D01*
X13445246Y6668513D01*
X13476017Y6686279D01*
X13516263Y6709515D01*
X13595485Y6788737D01*
X13651503Y6885763D01*
X13680500Y6993982D01*
X13680500Y7106018D01*
X13651503Y7214237D01*
X13595485Y7311263D01*
X13516263Y7390485D01*
X13419237Y7446503D01*
X13311018Y7475500D01*
X13198982Y7475500D01*
X13090763Y7446503D01*
X12993737Y7390485D01*
X12914515Y7311263D01*
X12858497Y7214237D01*
X12839387Y7142915D01*
X12829500Y7106017D01*
X7048354Y7106017D01*
X7112263Y7142915D01*
X7191485Y7222137D01*
X7247503Y7319163D01*
X7276500Y7427382D01*
X7276500Y7539418D01*
X7247503Y7647637D01*
X7196823Y7735417D01*
X11697000Y7735417D01*
X11697000Y7623382D01*
X11725997Y7515163D01*
X11725998Y7515160D01*
X11782013Y7418140D01*
X11782017Y7418134D01*
X11861234Y7338917D01*
X11861240Y7338913D01*
X11958260Y7282898D01*
X11958263Y7282897D01*
X12066482Y7253900D01*
X12178517Y7253900D01*
X12178518Y7253900D01*
X12286737Y7282897D01*
X12383763Y7338915D01*
X12462985Y7418137D01*
X12519003Y7515163D01*
X12548000Y7623382D01*
X12548000Y7735418D01*
X12519003Y7843637D01*
X12462985Y7940663D01*
X12383763Y8019885D01*
X12286737Y8075903D01*
X12178518Y8104900D01*
X12066482Y8104900D01*
X11958263Y8075903D01*
X11861237Y8019885D01*
X11782015Y7940663D01*
X11782013Y7940659D01*
X11725998Y7843639D01*
X11725997Y7843636D01*
X11697000Y7735417D01*
X7196823Y7735417D01*
X7191485Y7744663D01*
X7112263Y7823885D01*
X7015237Y7879903D01*
X6907018Y7908900D01*
X6794982Y7908900D01*
X6686763Y7879903D01*
X6589737Y7823885D01*
X6510515Y7744663D01*
X6454497Y7647637D01*
X6432157Y7564260D01*
X6425500Y7539417D01*
X-14659327Y7539417D01*
X-14625286Y7604805D01*
X-14316109Y8198692D01*
X-14312480Y8205180D01*
X-14226343Y8348892D01*
X-14224565Y8351769D01*
X-13554379Y9403754D01*
X-13552900Y9406019D01*
X-13504021Y9479172D01*
X-13499294Y9485769D01*
X-13096298Y10010957D01*
X-11600000Y10010957D01*
X-11600000Y9788043D01*
X-11570904Y9567037D01*
X-11513210Y9351719D01*
X-11427905Y9145774D01*
X-11316448Y8952726D01*
X-11316441Y8952717D01*
X-11180748Y8775877D01*
X-11180742Y8775870D01*
X-11023129Y8618257D01*
X-11023122Y8618251D01*
X-10943980Y8557524D01*
X-10846274Y8482552D01*
X-10653226Y8371095D01*
X-10653222Y8371093D01*
X-10447290Y8285793D01*
X-10447283Y8285791D01*
X-10447281Y8285790D01*
X-10231963Y8228096D01*
X-10231957Y8228095D01*
X-10231952Y8228094D01*
X-10010966Y8199001D01*
X-10010963Y8199000D01*
X-10010957Y8199000D01*
X-10010950Y8199000D01*
X-9788050Y8199000D01*
X-9788043Y8199000D01*
X-9788037Y8199000D01*
X-9788033Y8199001D01*
X-9567047Y8228094D01*
X-9567040Y8228095D01*
X-9567037Y8228096D01*
X-9351719Y8285790D01*
X-9351709Y8285793D01*
X-9145777Y8371093D01*
X-9145773Y8371095D01*
X-8952726Y8482552D01*
X-8952717Y8482558D01*
X-8775877Y8618251D01*
X-8775870Y8618257D01*
X-8618257Y8775870D01*
X-8618251Y8775877D01*
X-8482558Y8952717D01*
X-8482552Y8952726D01*
X-8371095Y9145773D01*
X-8371093Y9145777D01*
X-8291796Y9337217D01*
X7456000Y9337217D01*
X7456000Y9225182D01*
X7484997Y9116963D01*
X7484998Y9116960D01*
X7541013Y9019940D01*
X7541017Y9019934D01*
X7620234Y8940717D01*
X7620240Y8940713D01*
X7717260Y8884698D01*
X7717263Y8884697D01*
X7825482Y8855700D01*
X7937517Y8855700D01*
X7937518Y8855700D01*
X8045737Y8884697D01*
X8142763Y8940715D01*
X8221985Y9019937D01*
X8278003Y9116963D01*
X8307000Y9225182D01*
X8307000Y9313417D01*
X8565800Y9313417D01*
X8565800Y9201382D01*
X8594797Y9093163D01*
X8594798Y9093160D01*
X8650813Y8996140D01*
X8650817Y8996134D01*
X8730034Y8916917D01*
X8730040Y8916913D01*
X8827060Y8860898D01*
X8827063Y8860897D01*
X8935282Y8831900D01*
X9047317Y8831900D01*
X9047318Y8831900D01*
X9155537Y8860897D01*
X9170887Y8869759D01*
X9196760Y8884697D01*
X9252563Y8916915D01*
X9331785Y8996137D01*
X9387803Y9093163D01*
X9416800Y9201382D01*
X9416800Y9313418D01*
X9387803Y9421637D01*
X9331785Y9518663D01*
X9252563Y9597885D01*
X9155537Y9653903D01*
X9047318Y9682900D01*
X8935282Y9682900D01*
X8827063Y9653903D01*
X8730037Y9597885D01*
X8650815Y9518663D01*
X8628015Y9479172D01*
X8599220Y9429297D01*
X8594797Y9421637D01*
X8582955Y9377439D01*
X8565800Y9313417D01*
X8307000Y9313417D01*
X8307000Y9337218D01*
X8278003Y9445437D01*
X8221985Y9542463D01*
X8142763Y9621685D01*
X8045737Y9677703D01*
X7937518Y9706700D01*
X7825482Y9706700D01*
X7717263Y9677703D01*
X7620237Y9621685D01*
X7541015Y9542463D01*
X7484997Y9445437D01*
X7478621Y9421639D01*
X7456000Y9337217D01*
X-8291796Y9337217D01*
X-8285793Y9351709D01*
X-8285791Y9351716D01*
X-8285790Y9351719D01*
X-8267055Y9421637D01*
X-8228097Y9567034D01*
X-8228094Y9567047D01*
X-8199001Y9788033D01*
X-8199000Y9788049D01*
X-8199000Y10010950D01*
X-8199001Y10010966D01*
X-8228094Y10231952D01*
X-8228095Y10231957D01*
X-8228096Y10231963D01*
X-8258764Y10346417D01*
X7962400Y10346417D01*
X7962400Y10234382D01*
X7991397Y10126163D01*
X7991398Y10126160D01*
X8047413Y10029140D01*
X8047417Y10029134D01*
X8126634Y9949917D01*
X8126640Y9949913D01*
X8223660Y9893898D01*
X8223663Y9893897D01*
X8331882Y9864900D01*
X8443917Y9864900D01*
X8443918Y9864900D01*
X8552137Y9893897D01*
X8649163Y9949915D01*
X8728385Y10029137D01*
X8784403Y10126163D01*
X8813400Y10234382D01*
X8813400Y10346418D01*
X8812998Y10347917D01*
X11374400Y10347917D01*
X11374400Y10235882D01*
X11403397Y10127663D01*
X11403398Y10127660D01*
X11459413Y10030640D01*
X11459417Y10030634D01*
X11538634Y9951417D01*
X11538640Y9951413D01*
X11635660Y9895398D01*
X11635663Y9895397D01*
X11743882Y9866400D01*
X11755963Y9866400D01*
X11823002Y9846715D01*
X11868757Y9793911D01*
X11875738Y9774493D01*
X11905997Y9661563D01*
X11905998Y9661560D01*
X11962013Y9564540D01*
X11962017Y9564534D01*
X12041234Y9485317D01*
X12041240Y9485313D01*
X12138260Y9429298D01*
X12138263Y9429297D01*
X12246482Y9400300D01*
X12358517Y9400300D01*
X12358518Y9400300D01*
X12466737Y9429297D01*
X12563763Y9485315D01*
X12642985Y9564537D01*
X12699003Y9661563D01*
X12728000Y9769782D01*
X12728000Y9881818D01*
X12699003Y9990037D01*
X12642985Y10087063D01*
X12563763Y10166285D01*
X12466737Y10222303D01*
X12358518Y10251300D01*
X12346437Y10251300D01*
X12279398Y10270985D01*
X12233643Y10323789D01*
X12226662Y10343207D01*
X12225400Y10347918D01*
X12196403Y10456137D01*
X12140385Y10553163D01*
X12061163Y10632385D01*
X11964137Y10688403D01*
X11855918Y10717400D01*
X11743882Y10717400D01*
X11635663Y10688403D01*
X11538637Y10632385D01*
X11459415Y10553163D01*
X11403397Y10456137D01*
X11401027Y10447290D01*
X11374400Y10347917D01*
X8812998Y10347917D01*
X8784403Y10454637D01*
X8728385Y10551663D01*
X8649163Y10630885D01*
X8552137Y10686903D01*
X8443918Y10715900D01*
X8331882Y10715900D01*
X8223663Y10686903D01*
X8126637Y10630885D01*
X8047415Y10551663D01*
X7991397Y10454637D01*
X7989429Y10447290D01*
X7962400Y10346417D01*
X-8258764Y10346417D01*
X-8285790Y10447281D01*
X-8285791Y10447283D01*
X-8285793Y10447290D01*
X-8371093Y10653222D01*
X-8371095Y10653226D01*
X-8390539Y10686903D01*
X-8482552Y10846274D01*
X-8618253Y11023124D01*
X-8618257Y11023129D01*
X-8775870Y11180742D01*
X-8775877Y11180748D01*
X-8952717Y11316441D01*
X-8952726Y11316448D01*
X-9145774Y11427905D01*
X-9351719Y11513210D01*
X-9567037Y11570904D01*
X-9788043Y11600000D01*
X-10010957Y11600000D01*
X-10231963Y11570904D01*
X-10447281Y11513210D01*
X-10653226Y11427905D01*
X-10846274Y11316448D01*
X-11023124Y11180747D01*
X-11180747Y11023124D01*
X-11316448Y10846274D01*
X-11427905Y10653226D01*
X-11513210Y10447281D01*
X-11570904Y10231963D01*
X-11600000Y10010957D01*
X-13096298Y10010957D01*
X-13035259Y10090503D01*
X-12724028Y10496101D01*
X-12721506Y10499279D01*
X-12586457Y10663836D01*
X-12582031Y10668939D01*
X-11754563Y11572057D01*
X-11750817Y11575970D01*
X-11575970Y11750817D01*
X-11572057Y11754563D01*
X-11451069Y11865417D01*
X9482400Y11865417D01*
X9482400Y11753382D01*
X9511397Y11645163D01*
X9511398Y11645160D01*
X9567413Y11548140D01*
X9567417Y11548134D01*
X9646634Y11468917D01*
X9646640Y11468913D01*
X9743660Y11412898D01*
X9743663Y11412897D01*
X9851882Y11383900D01*
X9963917Y11383900D01*
X9963918Y11383900D01*
X10047942Y11406414D01*
X10054149Y11408077D01*
X10123999Y11406414D01*
X10177611Y11370127D01*
X10178068Y11370584D01*
X10180437Y11368214D01*
X10181861Y11367251D01*
X10183658Y11364993D01*
X10263038Y11285614D01*
X10263040Y11285613D01*
X10360060Y11229598D01*
X10360063Y11229597D01*
X10468282Y11200600D01*
X10580317Y11200600D01*
X10580318Y11200600D01*
X10688537Y11229597D01*
X10785563Y11285615D01*
X10864785Y11364837D01*
X10920803Y11461863D01*
X10949800Y11570082D01*
X10949800Y11682118D01*
X10920803Y11790337D01*
X10864785Y11887363D01*
X10785563Y11966585D01*
X10688537Y12022603D01*
X10580318Y12051600D01*
X10468282Y12051600D01*
X10378047Y12027422D01*
X10308199Y12029085D01*
X10254587Y12065371D01*
X10254132Y12064916D01*
X10251769Y12067278D01*
X10250337Y12068248D01*
X10248528Y12070519D01*
X10248386Y12070660D01*
X10248385Y12070663D01*
X10169163Y12149885D01*
X10072137Y12205903D01*
X9963918Y12234900D01*
X9851882Y12234900D01*
X9743663Y12205903D01*
X9646637Y12149885D01*
X9567415Y12070663D01*
X9511397Y11973637D01*
X9509076Y11964972D01*
X9482400Y11865417D01*
X-11451069Y11865417D01*
X-11342412Y11964972D01*
X-10668939Y12582031D01*
X-10663836Y12586457D01*
X-10499279Y12721506D01*
X-10496101Y12724028D01*
X-10404109Y12794617D01*
X8483500Y12794617D01*
X8483500Y12682582D01*
X8512497Y12574363D01*
X8512498Y12574360D01*
X8568513Y12477340D01*
X8568517Y12477334D01*
X8647734Y12398117D01*
X8647740Y12398113D01*
X8744760Y12342098D01*
X8744763Y12342097D01*
X8852982Y12313100D01*
X8965017Y12313100D01*
X8965018Y12313100D01*
X9073237Y12342097D01*
X9170263Y12398115D01*
X9249485Y12477337D01*
X9305503Y12574363D01*
X9334500Y12682582D01*
X9334500Y12794618D01*
X9305503Y12902837D01*
X9249485Y12999863D01*
X9170263Y13079085D01*
X9073237Y13135103D01*
X8965018Y13164100D01*
X8852982Y13164100D01*
X8744763Y13135103D01*
X8647737Y13079085D01*
X8568515Y12999863D01*
X8568513Y12999859D01*
X8512498Y12902839D01*
X8512497Y12902836D01*
X8483500Y12794617D01*
X-10404109Y12794617D01*
X-10265313Y12901120D01*
X-9485769Y13499294D01*
X-9479172Y13504021D01*
X-9406019Y13552900D01*
X-9403754Y13554379D01*
X-8351769Y14224565D01*
X-8348892Y14226343D01*
X-8205180Y14312480D01*
X-8198692Y14316109D01*
X-7097062Y14889616D01*
X-7092819Y14891723D01*
X-6877309Y14993651D01*
X-6871740Y14996119D01*
X-5743838Y15463259D01*
X-5738165Y15465447D01*
X-5515804Y15545010D01*
X-5511321Y15546518D01*
X-4326204Y15920233D01*
X-4319042Y15922258D01*
X-4154840Y15963389D01*
X-4151545Y15964167D01*
X-2934494Y16233939D01*
X-2931850Y16234494D01*
X-2846178Y16251535D01*
X-2838174Y16252857D01*
X-1575753Y16419074D01*
X-1571721Y16419538D01*
X-1359388Y16440452D01*
X-1352643Y16440931D01*
X-127940Y16494413D01*
X-122530Y16494531D01*
X122530Y16494531D01*
X127940Y16494413D01*
G37*
%TD.AperFunction*%
%TD*%
M02*
