M48
; DRILL file KiCad 10.0.3 date 2026-09-04T14:16:59
; FORMAT={-:-/ absolute / metric / decimal}
; #@! TF.CreationDate,2026-09-04T14:16:59+02:00
; #@! TF.GenerationSoftware,Kicad,Pcbnew,10.0.3
; #@! TF.FileFunction,Plated,1,6,PTH
FMAT,2
METRIC
; #@! TA.AperFunction,Plated,PTH,ViaDrill
T1C0.200
%
G90
G05
T1
X-8.78Y-13.03
X-7.23Y4.61
X-3.98Y-15.34
X-3.05Y-5.323
X-1.45Y-6.97
X-0.82Y-9.986
X-0.692Y-14.959
X1.007Y-9.989
X1.752Y-10.013
X2.512Y-13.183
X3.52Y-11.785
X4.108Y-15.091
X5.189Y-2.936
X6.36Y9.46
X6.851Y7.483
X7.314Y14.11
X7.881Y9.281
X7.99Y-3.502
X8.187Y2.937
X8.313Y5.492
X8.388Y10.29
X8.394Y-6.129
X8.573Y-3.509
X8.899Y2.817
X8.909Y12.739
X8.991Y9.257
X9.569Y-3.515
X9.908Y11.809
X9.946Y3.209
X9.949Y-1.808
X9.955Y-0.306
X9.963Y-0.833
X10.406Y1.295
X10.524Y11.626
X10.763Y-3.556
X11.134Y-0.391
X11.504Y5.45
X11.52Y1.539
X11.55Y-4.656
X11.593Y3.215
X11.678Y-2.079
X11.775Y-6.714
X11.8Y10.292
X11.88Y-3.597
X12.122Y7.679
X12.183Y2.85
X12.303Y9.826
X12.832Y1.25
X13.104Y-0.573
X13.255Y7.05
X13.297Y-6.636
X13.373Y-5.111
X13.398Y8.608
X14.148Y7.728
X14.368Y7.009
X14.705Y-1.727
X14.715Y-0.127
X14.912Y-2.879
X15.157Y5.372
X15.304Y4.662
X15.308Y2.024
X15.36Y4.13
X15.453Y-1.15
M30
