M48
; DRILL file KiCad 10.0.3 date 2026-09-18T11:00:01
; FORMAT={-:-/ absolute / metric / decimal}
; #@! TF.CreationDate,2026-09-18T11:00:01+02:00
; #@! TF.GenerationSoftware,Kicad,Pcbnew,10.0.3
; #@! TF.FileFunction,Plated,1,2,Blind
FMAT,2
METRIC
; #@! TA.AperFunction,Plated,Buried,ViaDrill
T1C0.100
%
G90
G05
T1
X-9.85Y0.5
X-8.2Y-1.26
X-6.37Y-8.53
X-5.69Y-3.71
X-5.68Y9.79
X-5.21Y-6.85
X-4.83Y5.55
X-4.405Y1.38
X-3.62Y5.59
X-3.25Y2.649
X-2.51Y-0.52
X-1.25Y3.53
X-1.24Y-0.01
X-0.85Y-9.78
X0.85Y-5.15
X0.99Y-3.78
X1.15Y7.55
X3.5Y-3.97
X3.51Y-3.3
X4.61Y4.7
X4.744Y0.236
X5.06Y3.59
X5.08Y3.19
X5.79Y2.79
X5.857Y1.71
X6.48Y0.93
X6.607Y1.7
X6.822Y0.735
X6.822Y0.335
X7.165Y0.535
X7.172Y0.135
X7.172Y-0.265
X7.522Y0.335
X7.522Y-0.465
X7.522Y-0.865
X7.863Y1.501
X7.87Y2.42
X7.872Y0.535
X7.872Y-0.265
X7.872Y-0.665
X8.222Y0.335
X8.222Y-0.465
X8.222Y-0.865
X8.255Y0.735
X8.894Y-0.74
X9.4Y-0.315
X10.69Y5.76
M30
