%TF.GenerationSoftware,KiCad,Pcbnew,10.0.3*%
%TF.CreationDate,2026-09-18T11:00:00+02:00*%
%TF.ProjectId,wakeup_board,77616b65-7570-45f6-926f-6172642e6b69,rev?*%
%TF.SameCoordinates,Original*%
%TF.FileFunction,Copper,L4,Inr*%
%TF.FilePolarity,Positive*%
%FSLAX46Y46*%
G04 Gerber Fmt 4.6, Leading zero omitted, Abs format (unit mm)*
G04 Created by KiCad (PCBNEW 10.0.3) date 2026-09-18 11:00:00*
%MOMM*%
%LPD*%
G01*
G04 APERTURE LIST*
%TA.AperFunction,ViaPad*%
%ADD10C,0.500000*%
%TD*%
%TA.AperFunction,ViaPad*%
%ADD11C,0.450000*%
%TD*%
%TA.AperFunction,ViaPad*%
%ADD12C,0.400000*%
%TD*%
%TA.AperFunction,Conductor*%
%ADD13C,0.250000*%
%TD*%
%TA.AperFunction,Conductor*%
%ADD14C,0.100000*%
%TD*%
%TA.AperFunction,Conductor*%
%ADD15C,0.200000*%
%TD*%
G04 APERTURE END LIST*
D10*
%TO.N,3V3*%
X8210000Y8080000D03*
D11*
X-2100000Y-7576000D03*
X3050000Y9629000D03*
X-3450000Y-7576000D03*
X-9066900Y-9530000D03*
X-6270000Y7300000D03*
X-11830000Y1300000D03*
X11550000Y-4641000D03*
X-1500000Y7560000D03*
D10*
X5754998Y8797296D03*
D11*
X-3005981Y1916643D03*
X4656000Y6668900D03*
X7280000Y-10770000D03*
X3350000Y9279000D03*
X1607066Y11069938D03*
X90000Y-3990000D03*
%TO.N,IMU2_SCX*%
X2399100Y-8695300D03*
D12*
X8427900Y2897100D03*
D11*
X-6450024Y-9281824D03*
%TO.N,BOOST_OUT*%
X-10361286Y-931704D03*
X-1492300Y8961500D03*
X-6329749Y8948084D03*
X-6360800Y5144141D03*
%TO.N,FLEX_GND*%
X-14890000Y940000D03*
X0Y10160000D03*
X-15230000Y-3065998D03*
X-6480001Y774541D03*
X4095998Y-1412480D03*
X5719391Y-8956500D03*
X-15401434Y171470D03*
X11562470Y9510434D03*
X-8216900Y-7082900D03*
X-2791999Y-9801000D03*
X-7293000Y5769000D03*
D10*
X7250000Y8950000D03*
D11*
X-7430000Y11050000D03*
X-12480000Y-7810000D03*
%TO.N,IMU1_SCX*%
X-9798300Y-2569541D03*
%TO.N,IMU1_INT*%
X1550000Y324998D03*
X-10059533Y-1841275D03*
X-6491800Y12768800D03*
%TO.N,I2C2_SCL*%
X1550352Y-5258283D03*
X9255000Y-1593200D03*
X8300000Y11220000D03*
X-8538000Y1974300D03*
X-9225500Y5919000D03*
%TO.N,I2C2_SDA*%
X-8978800Y3237900D03*
D12*
X8037544Y-2688281D03*
D11*
X-571000Y14362200D03*
%TO.N,BAT_RAW*%
X12468714Y-3035644D03*
X4420000Y-14810000D03*
X11250000Y-6600000D03*
X5404600Y-5293100D03*
X14735000Y859000D03*
X-12450000Y7590600D03*
X-499200Y1984500D03*
X-12450000Y4152600D03*
X3597500Y7377400D03*
%TO.N,AON_EN*%
X9090000Y-3960000D03*
X6680047Y-3690002D03*
%TO.N,3V3_AON*%
X2316446Y8866446D03*
X3907542Y-6580000D03*
X-1279040Y-7082900D03*
X131621Y1188379D03*
X-20687Y-9700819D03*
X3852494Y8762717D03*
X11864999Y185889D03*
X13143312Y-3543259D03*
X-5248400Y11092000D03*
X5155302Y-3441155D03*
%TO.N,WBA_HSE_IN*%
X-2960000Y9900000D03*
X220000Y4610000D03*
%TO.N,USBWK_GATE*%
X-9250000Y-7144100D03*
X-5474560Y6924122D03*
%TO.N,AON_EN_GATE*%
X-3046703Y7040759D03*
X-4830000Y810000D03*
X9700000Y-2160000D03*
X8850000Y5511100D03*
%TO.N,MAIN_SW_GATE*%
X5188610Y1035372D03*
X1205900Y-1578800D03*
X-5047000Y-495000D03*
X5832400Y-4378200D03*
%TO.N,BAT_PROT*%
X13375985Y4979723D03*
X15430000Y4350000D03*
X9066500Y-5548420D03*
X-12040000Y2850000D03*
X12233100Y8156000D03*
X10600000Y-7885000D03*
X4834579Y-6314579D03*
X-6035800Y13759000D03*
X-4438400Y13759000D03*
%TO.N,REG_IN_MAIN*%
X-9750000Y-3601000D03*
X-10590000Y-4020000D03*
X-10972937Y-4673041D03*
X6640000Y-6610000D03*
X-11902951Y-4616000D03*
X-6234635Y-5308364D03*
X-6626860Y-4952465D03*
X-10992000Y-3126000D03*
X-9183656Y-8032363D03*
X-8050000Y-13560000D03*
X2511999Y-11206000D03*
%TO.N,JUMP_WAKE_K*%
X-3855000Y6546905D03*
X2186900Y-979500D03*
%TO.N,MAG_SHELF_K*%
X-4660000Y-2220000D03*
X3433682Y-5148236D03*
%TO.N,IMU3_SDX*%
X-1227291Y1864785D03*
%TO.N,IMU3_SCX*%
X4586500Y7699800D03*
X-3321630Y857794D03*
%TO.N,IMU3_INT*%
X7410300Y5492400D03*
D12*
%TO.N,I2C3_SCL*%
X10580000Y3240000D03*
D11*
X-4774500Y-9257700D03*
X5950000Y-12656500D03*
X-3042501Y7740749D03*
%TO.N,I2C3_SDA*%
X5880000Y6940000D03*
X-3990000Y-11061500D03*
X6097600Y11085002D03*
%TO.N,QHOLD_GATE*%
X4592121Y3417121D03*
%TO.N,IMU2_SDX*%
X-6940000Y-8392041D03*
%TO.N,IMU2_INT*%
X-5500000Y-7743600D03*
X1066800Y3237500D03*
X4560000Y13340000D03*
%TO.N,WBA_VDD11*%
X8200000Y4115000D03*
%TO.N,WBA_RF*%
X7069432Y-1105771D03*
%TO.N,QHOLD2_GATE*%
X6745000Y7637840D03*
X8992400Y4252200D03*
%TO.N,MAG_C1_TERM*%
X5530000Y-11340000D03*
X-8267637Y2983492D03*
%TO.N,MAG_DRDY*%
X-6430600Y-10670400D03*
X896157Y1575000D03*
X-6839237Y3280000D03*
%TO.N,WBA_BOOT0*%
X-12132180Y-6267595D03*
X6164601Y5492399D03*
X2617724Y-6597024D03*
%TO.N,WBA_HCI_IRQ*%
X6897000Y3472222D03*
X-12415546Y-2384454D03*
%TO.N,IR_TX*%
X2750000Y11369700D03*
X7790000Y3148082D03*
%TO.N,WBA_NRST*%
X1470000Y8255600D03*
X-7840000Y7040000D03*
D12*
X5931255Y-658343D03*
%TO.N,WBA_AON_HOLD*%
X8221999Y-2065000D03*
D11*
%TO.N,IR_WAKE*%
X2011831Y-1727998D03*
X-450000Y-11111500D03*
X9302998Y435000D03*
D12*
%TO.N,WBA_UART_RX*%
X7482485Y1908409D03*
D11*
X-12985100Y-1425000D03*
%TO.N,WBA_WAKE*%
X8294600Y6005000D03*
X11372000Y-1465000D03*
D12*
%TO.N,WBA_HCI_MISO*%
X10270000Y1710000D03*
D11*
X-11286500Y3381000D03*
%TO.N,WBA_UART_TX*%
X-11997579Y-652421D03*
D12*
X9272000Y1335000D03*
D11*
%TO.N,WBA_HCI_NSS*%
X15665446Y2184554D03*
X-13385000Y-6265998D03*
%TO.N,WBA_HCI_MOSI*%
X-10836800Y6114000D03*
D12*
X9489357Y2709357D03*
D11*
%TO.N,WBA_HCI_SCK*%
X-14270000Y-4920000D03*
X8536584Y1817597D03*
%TO.N,ACTIVATE_CONFIRM*%
X13890000Y-4616002D03*
%TO.N,ACTIVATE_SET*%
X14770000Y-800000D03*
%TO.N,BAT_CELL1_POS*%
X14570052Y178709D03*
%TO.N,BAT_CELL2_POS*%
X14548667Y1730440D03*
%TO.N,BAT_CELL3_POS*%
X14220730Y3350976D03*
%TO.N,BOOT0*%
X13156429Y-4497688D03*
X12350000Y-6225400D03*
%TO.N,COMP_1V8*%
X-10350300Y4711100D03*
X10049700Y-3065998D03*
%TO.N,COMP_5V*%
X-7606300Y13087100D03*
X13352264Y212404D03*
%TO.N,COMP_5V_RAW*%
X11525500Y2415977D03*
X-9256900Y-11710800D03*
%TO.N,COMP_OUT*%
X12915900Y1660000D03*
X11563500Y7662600D03*
%TO.N,COMP_SWDCLK*%
X13155000Y3025385D03*
X13133700Y8959000D03*
%TO.N,COMP_SWDIO*%
X11855000Y3330871D03*
X10141274Y-4594474D03*
%TO.N,EXT_CAN_RX*%
X10357800Y4941700D03*
X11209679Y-3049679D03*
%TO.N,EXT_CAN_TX*%
X13195000Y7360000D03*
%TO.N,GPIO_EXT_0*%
X9966500Y-5441000D03*
X11202900Y6582000D03*
%TO.N,GPIO_EXT_1*%
X9000000Y6569998D03*
X9972400Y-3895000D03*
%TO.N,GPIO_EXT_2*%
X10205900Y9774800D03*
X9390000Y-2820000D03*
%TO.N,GPIO_EXT_3*%
X13174998Y900000D03*
D12*
%TO.N,H3LIS_INT1*%
X9640000Y1890600D03*
D11*
X9928600Y12159000D03*
%TO.N,NRST*%
X9732300Y6896800D03*
X-4463200Y-13441000D03*
%TO.N,PWR_HOLD*%
X380000Y-6625000D03*
X-5250000Y-11047200D03*
X427524Y-10578800D03*
%TO.N,SWO*%
X-6068200Y-12392000D03*
X9410000Y9090000D03*
%TO.N,SYS_I2C_SCL*%
X-4025926Y7998826D03*
X-7667500Y-11756100D03*
X11529600Y10559000D03*
%TO.N,SYS_I2C_SDA*%
X-7136900Y-10406500D03*
X-10350300Y1216000D03*
X5168900Y-13261600D03*
%TO.N,SYS_SPI_CS_FIN*%
X5157354Y13826118D03*
X-7665400Y-8641000D03*
%TO.N,SYS_SPI_MISO*%
X-10050000Y-7825400D03*
X-2068376Y11318524D03*
%TO.N,SYS_SPI_MOSI*%
X-6178200Y-6023800D03*
X-2570000Y12343800D03*
%TO.N,SYS_SPI_SCLK*%
X-11048300Y-7876800D03*
X-6614124Y9925000D03*
%TO.N,WBA_RST_CMD*%
X-311297Y-1077984D03*
X-12889200Y-4623900D03*
D12*
X-7464773Y2834773D03*
D11*
%TO.N,TMR_VDD*%
X-4526002Y-5716500D03*
X-6879900Y-2324500D03*
X311921Y1960579D03*
X2740000Y-4820000D03*
%TO.N,MAG_SHELF_N*%
X4016002Y-3318256D03*
%TO.N,BOOST_FB*%
X-8877300Y-592200D03*
X1428308Y-6000954D03*
%TO.N,JUMP_WAKE*%
X2563653Y7616346D03*
X9865000Y6190126D03*
X-2970000Y5750000D03*
%TD*%
%TO.N,BOOST_OUT*%
D13*
X-9478800Y3461600D02*
X-7796259Y5144141D01*
X-7796259Y5144141D02*
X-6360800Y5144141D01*
X-9478800Y-49218D02*
X-9478800Y3461600D01*
X-10361286Y-931704D02*
X-9478800Y-49218D01*
%TO.N,I2C2_SDA*%
D14*
X4181000Y5450300D02*
X4181000Y6189306D01*
X4181000Y6189306D02*
X3981000Y6389306D01*
X6630000Y3001300D02*
X4181000Y5450300D01*
X4111500Y7859600D02*
X-571000Y12542100D01*
X3981000Y6948494D02*
X4181000Y7148494D01*
X3981000Y6389306D02*
X3981000Y6948494D01*
X-571000Y12542100D02*
X-571000Y14362200D01*
X4181000Y7148494D02*
X4181000Y7433548D01*
X7768800Y-2388200D02*
X7768800Y241200D01*
X4181000Y7433548D02*
X4111500Y7503048D01*
X8037544Y-2688281D02*
X8037544Y-2656944D01*
X6630000Y1380000D02*
X6630000Y3001300D01*
X7768800Y241200D02*
X6630000Y1380000D01*
X4111500Y7503048D02*
X4111500Y7859600D01*
X8037544Y-2656944D02*
X7768800Y-2388200D01*
%TO.N,BAT_RAW*%
D15*
X3597500Y5036600D02*
X3597500Y7377400D01*
X4614400Y-4502900D02*
X4614400Y-1679416D01*
X4090000Y4544100D02*
X3597500Y5036600D01*
X-12450000Y4152600D02*
X-12450000Y7590600D01*
X4745998Y-1547818D02*
X4745998Y-1092182D01*
X4745998Y-1092182D02*
X4090000Y-436184D01*
X5404600Y-5293100D02*
X4614400Y-4502900D01*
X4614400Y-1679416D02*
X4745998Y-1547818D01*
X4090000Y-436184D02*
X4090000Y4544100D01*
%TO.N,MAIN_SW_GATE*%
D14*
X5832400Y-4378200D02*
X5600500Y-4146300D01*
X5600500Y-4146300D02*
X5600500Y-1156330D01*
X5350000Y-512326D02*
X5350000Y873982D01*
X5403900Y-566226D02*
X5350000Y-512326D01*
X5403900Y-959730D02*
X5403900Y-566226D01*
X5600500Y-1156330D02*
X5403900Y-959730D01*
X5350000Y873982D02*
X5188610Y1035372D01*
%TO.N,BAT_PROT*%
D13*
X-5791700Y9000507D02*
X-5840000Y9048807D01*
X-6820000Y7527818D02*
X-5791700Y8556118D01*
X12233100Y6099200D02*
X13352577Y4979723D01*
X13352577Y4979723D02*
X13375985Y4979723D01*
X-12040000Y2850000D02*
X-10960600Y2850000D01*
X-5840000Y9048807D02*
X-5840000Y13563200D01*
X-5840000Y13563200D02*
X-6035800Y13759000D01*
X12233100Y8156000D02*
X12233100Y6099200D01*
X-6820000Y6990600D02*
X-6820000Y7527818D01*
X-10960600Y2850000D02*
X-6820000Y6990600D01*
X-5791700Y8556118D02*
X-5791700Y9000507D01*
%TO.N,JUMP_WAKE_K*%
D14*
X-1966924Y6025476D02*
X-1966924Y5548124D01*
X-3855000Y6546905D02*
X-3836146Y6565759D01*
X-2984559Y6565759D02*
X-2697738Y6278938D01*
X-3836146Y6565759D02*
X-2984559Y6565759D01*
X-2220386Y6278938D02*
X-1966924Y6025476D01*
X-1966924Y5548124D02*
X2285200Y1296000D01*
X-2697738Y6278938D02*
X-2220386Y6278938D01*
X2285200Y-881200D02*
X2186900Y-979500D01*
X2285200Y1296000D02*
X2285200Y-881200D01*
%TO.N,QHOLD2_GATE*%
X6745000Y7637840D02*
X6745000Y7569300D01*
X8992400Y4460300D02*
X8992400Y4252200D01*
X7835300Y5617400D02*
X8992400Y4460300D01*
X6745000Y7569300D02*
X7835300Y6479000D01*
X7835300Y6479000D02*
X7835300Y5617400D01*
%TO.N,IR_TX*%
X2750000Y11031800D02*
X2750000Y11369700D01*
X6691400Y7090400D02*
X2750000Y11031800D01*
X7872000Y3537900D02*
X6691400Y4718500D01*
X7872000Y3202000D02*
X7872000Y3537900D01*
X7818082Y3148082D02*
X7872000Y3202000D01*
X7790000Y3148082D02*
X7818082Y3148082D01*
X6691400Y4718500D02*
X6691400Y7090400D01*
%TO.N,WBA_NRST*%
X7401840Y3725218D02*
X7087058Y4040000D01*
X8830000Y-2479841D02*
X8830000Y1458686D01*
X5910000Y-1130441D02*
X7868659Y-3089100D01*
X5931255Y-658343D02*
X5931255Y-666715D01*
X5073000Y8207041D02*
X-146000Y13426041D01*
X8970000Y2020000D02*
X8510000Y2480000D01*
X8510000Y2480000D02*
X7710000Y2480000D01*
X4181000Y6865652D02*
X4459248Y7143900D01*
X5910000Y-723720D02*
X5910000Y-1130441D01*
X5938956Y-694764D02*
X5910000Y-723720D01*
X7401840Y3376021D02*
X7401840Y3725218D01*
X7087058Y4040000D02*
X6674080Y4040000D01*
X-747041Y14787200D02*
X-996000Y14538241D01*
X4852752Y6193900D02*
X4459248Y6193900D01*
X5073000Y6414148D02*
X4852752Y6193900D01*
X1470000Y10114700D02*
X1470000Y8255600D01*
X-996000Y12580700D02*
X1470000Y10114700D01*
X7710000Y2480000D02*
X7390000Y2800000D01*
X7390000Y2947041D02*
X7315819Y3021222D01*
X4459248Y6193900D02*
X4181000Y6472148D01*
X7315819Y3290000D02*
X7401840Y3376021D01*
X4459248Y7143900D02*
X4852752Y7143900D01*
X4181000Y6472148D02*
X4181000Y6865652D01*
X-146000Y13426041D02*
X-146000Y14538241D01*
X-996000Y14538241D02*
X-996000Y12580700D01*
X5931255Y-666715D02*
X5938956Y-674416D01*
X-394959Y14787200D02*
X-747041Y14787200D01*
X-146000Y14538241D02*
X-394959Y14787200D01*
X8220741Y-3089100D02*
X8830000Y-2479841D01*
X7868659Y-3089100D02*
X8220741Y-3089100D01*
X6674080Y4040000D02*
X5073000Y5641080D01*
X8970000Y1598686D02*
X8970000Y2020000D01*
X5938956Y-674416D02*
X5938956Y-694764D01*
X8830000Y1458686D02*
X8970000Y1598686D01*
X5073000Y5641080D02*
X5073000Y6414148D01*
X7390000Y2800000D02*
X7390000Y2947041D01*
X4852752Y7143900D02*
X5073000Y6923652D01*
X7315819Y3021222D02*
X7315819Y3290000D01*
X5073000Y6923652D02*
X5073000Y8207041D01*
%TO.N,IR_WAKE*%
X-450000Y-11111500D02*
X-392300Y-11053800D01*
X1038700Y-2723200D02*
X1913916Y-1847984D01*
X953308Y-10734992D02*
X953308Y-5804202D01*
X1038700Y-5718810D02*
X1038700Y-2723200D01*
X1913916Y-1825913D02*
X2011831Y-1727998D01*
X-392300Y-11053800D02*
X634500Y-11053800D01*
X953308Y-5804202D02*
X1038700Y-5718810D01*
X1913916Y-1847984D02*
X1913916Y-1825913D01*
X634500Y-11053800D02*
X953308Y-10734992D01*
%TO.N,COMP_SWDIO*%
X12645000Y-296750D02*
X11950000Y-991750D01*
X11975000Y2687252D02*
X12099745Y2562507D01*
X12099745Y2562507D02*
X12099745Y1990104D01*
X12520000Y221754D02*
X12645000Y96754D01*
X11855000Y3330871D02*
X11975000Y3210871D01*
X12099745Y1990104D02*
X11950000Y1840359D01*
X10265926Y-4594474D02*
X10141274Y-4594474D01*
X11950000Y1260000D02*
X12520000Y690000D01*
X11950000Y1840359D02*
X11950000Y1260000D01*
X12645000Y96754D02*
X12645000Y-296750D01*
X11950000Y-991750D02*
X11950000Y-2910400D01*
X12520000Y690000D02*
X12520000Y221754D01*
X11975000Y3210871D02*
X11975000Y2687252D01*
X11950000Y-2910400D02*
X10265926Y-4594474D01*
%TO.N,EXT_CAN_RX*%
X10960000Y-1275959D02*
X10960000Y2983603D01*
X10947000Y-1288959D02*
X10960000Y-1275959D01*
X11030000Y3426397D02*
X10875300Y3581097D01*
X10947000Y-3006008D02*
X10947000Y-1288959D01*
X11209679Y-3049679D02*
X10990671Y-3049679D01*
X11030000Y3053603D02*
X11030000Y3426397D01*
X10990671Y-3049679D02*
X10947000Y-3006008D01*
X10960000Y2983603D02*
X11030000Y3053603D01*
X10875300Y3581097D02*
X10875300Y4335400D01*
X10357800Y4852900D02*
X10357800Y4941700D01*
X10875300Y4335400D02*
X10357800Y4852900D01*
%TO.N,GPIO_EXT_1*%
X9000000Y6569998D02*
X9271902Y6569998D01*
X10747000Y-1206117D02*
X10747000Y-2610367D01*
X9271902Y6569998D02*
X9440000Y6401900D01*
X10524700Y-2832667D02*
X10524700Y-3342700D01*
X10760000Y-1193116D02*
X10747000Y-1206117D01*
X9738900Y5711100D02*
X9738900Y3025500D01*
X10747000Y-2610367D02*
X10524700Y-2832667D01*
X9440000Y6010000D02*
X9738900Y5711100D01*
X10524700Y-3342700D02*
X9972400Y-3895000D01*
X10760000Y2004400D02*
X10760000Y-1193116D01*
X9738900Y3025500D02*
X10760000Y2004400D01*
X9440000Y6401900D02*
X9440000Y6010000D01*
%TO.N,H3LIS_INT1*%
X9417400Y5749758D02*
X9070000Y6097157D01*
X8858957Y6110000D02*
X8520000Y6448957D01*
X8915300Y2511914D02*
X8915300Y2843286D01*
X8520000Y7753603D02*
X8660000Y7893603D01*
X8938600Y2338000D02*
X8938600Y2488614D01*
X9070000Y6097157D02*
X9070000Y6110000D01*
X9417400Y3345386D02*
X9417400Y5749758D01*
X8520000Y6448957D02*
X8520000Y7753603D01*
X9386000Y1890600D02*
X8938600Y2338000D01*
X9070000Y6110000D02*
X8858957Y6110000D01*
X8915300Y2843286D02*
X9417400Y3345386D01*
X8660000Y10890400D02*
X9928600Y12159000D01*
X8660000Y7893603D02*
X8660000Y10890400D01*
X9640000Y1890600D02*
X9386000Y1890600D01*
X8938600Y2488614D02*
X8915300Y2511914D01*
%TO.N,PWR_HOLD*%
X427524Y-10578800D02*
X475000Y-10531324D01*
X475000Y-10531324D02*
X475000Y-6800000D01*
X475000Y-6800000D02*
X380000Y-6705000D01*
X380000Y-6705000D02*
X380000Y-6625000D01*
%TO.N,SYS_I2C_SCL*%
X-4376600Y7510900D02*
X-4025926Y7861574D01*
X-3655000Y1458246D02*
X-3655000Y2036752D01*
X-4185000Y-2023248D02*
X-4376600Y-1831648D01*
X-4025926Y7861574D02*
X-4025926Y7998826D01*
X-4992400Y-2695000D02*
X-4463248Y-2695000D01*
X-8641900Y-6344500D02*
X-4992400Y-2695000D01*
X-7667500Y-11756100D02*
X-8641900Y-10781700D01*
X-4805000Y6210406D02*
X-4805000Y6769594D01*
X-4805000Y6769594D02*
X-4376600Y7197994D01*
X-4376600Y7197994D02*
X-4376600Y7510900D01*
X-3655000Y2036752D02*
X-4376600Y2758352D01*
X-4376600Y736646D02*
X-3655000Y1458246D01*
X-4185000Y-2416752D02*
X-4185000Y-2023248D01*
X-4463248Y-2695000D02*
X-4185000Y-2416752D01*
X-8641900Y-10781700D02*
X-8641900Y-6344500D01*
X-4376600Y5782006D02*
X-4805000Y6210406D01*
X-4376600Y2758352D02*
X-4376600Y5782006D01*
X-4376600Y-1831648D02*
X-4376600Y736646D01*
%TO.N,SYS_SPI_MISO*%
X-5988700Y4163200D02*
X-5005000Y5146900D01*
X-4578300Y8714500D02*
X-3435000Y9857800D01*
X-7653400Y-3350300D02*
X-7653400Y-999900D01*
X-4578300Y7279136D02*
X-4578300Y8714500D01*
X-5988700Y664800D02*
X-5988700Y4163200D01*
X-5005000Y5146900D02*
X-5005000Y6852436D01*
X-3435000Y9857800D02*
X-3435000Y10096752D01*
X-10050000Y-7825400D02*
X-10050000Y-5746900D01*
X-3435000Y10096752D02*
X-3156752Y10375000D01*
X-5005000Y6852436D02*
X-4578300Y7279136D01*
X-10050000Y-5746900D02*
X-7653400Y-3350300D01*
X-3156752Y10375000D02*
X-2917800Y10375000D01*
X-2068376Y11224424D02*
X-2068376Y11318524D01*
X-2917800Y10375000D02*
X-2068376Y11224424D01*
X-7653400Y-999900D02*
X-5988700Y664800D01*
%TO.N,SYS_SPI_MOSI*%
X-3455000Y2119594D02*
X-3455000Y1375404D01*
X-2237100Y12159000D02*
X-1575100Y11497000D01*
X-4174900Y5863148D02*
X-4174900Y2839494D01*
X-4174900Y2839494D02*
X-3455000Y2119594D01*
X-4174900Y655504D02*
X-4174900Y-1750506D01*
X-4174900Y-2689494D02*
X-4174900Y-4020500D01*
X-3450687Y7902313D02*
X-4174900Y7178100D01*
X-4174900Y7116852D02*
X-4605000Y6686752D01*
X-1575100Y9777900D02*
X-3070436Y8282564D01*
X-4605000Y6293248D02*
X-4174900Y5863148D01*
X-3450687Y8004316D02*
X-3450687Y7902313D01*
X-3070436Y8282564D02*
X-3172439Y8282564D01*
X-2385200Y12159000D02*
X-2237100Y12159000D01*
X-4605000Y6686752D02*
X-4605000Y6293248D01*
X-4174900Y-1750506D02*
X-3985000Y-1940406D01*
X-3455000Y1375404D02*
X-4174900Y655504D01*
X-3172439Y8282564D02*
X-3450687Y8004316D01*
X-4174900Y7178100D02*
X-4174900Y7116852D01*
X-3985000Y-2499594D02*
X-4174900Y-2689494D01*
X-3985000Y-1940406D02*
X-3985000Y-2499594D01*
X-4174900Y-4020500D02*
X-6178200Y-6023800D01*
X-2570000Y12343800D02*
X-2385200Y12159000D01*
X-1575100Y11497000D02*
X-1575100Y9777900D01*
%TO.N,WBA_RST_CMD*%
X-7464773Y2834773D02*
X-7775227Y2834773D01*
X-12984700Y-4528400D02*
X-12889200Y-4623900D01*
X-12984700Y-4156159D02*
X-12984700Y-4528400D01*
X-9936286Y-895612D02*
X-9936286Y-1107745D01*
X-7775227Y2834773D02*
X-7948600Y2661400D01*
X-7948600Y2661400D02*
X-7948600Y1092074D01*
X-7948600Y1092074D02*
X-9936286Y-895612D01*
X-9936286Y-1107745D02*
X-12984700Y-4156159D01*
%TO.N,TMR_VDD*%
X-2628400Y-3965100D02*
X-4379800Y-5716500D01*
X-2628400Y-970600D02*
X-2628400Y-3965100D01*
X-4379800Y-5716500D02*
X-4526002Y-5716500D01*
X203913Y1861713D02*
X-2628400Y-970600D01*
X213055Y1861713D02*
X203913Y1861713D01*
X311921Y1960579D02*
X213055Y1861713D01*
%TD*%
M02*
