%TF.GenerationSoftware,KiCad,Pcbnew,10.0.3*%
%TF.CreationDate,2026-09-18T11:00:00+02:00*%
%TF.ProjectId,wakeup_board,77616b65-7570-45f6-926f-6172642e6b69,rev?*%
%TF.SameCoordinates,Original*%
%TF.FileFunction,Copper,L9,Inr*%
%TF.FilePolarity,Positive*%
%FSLAX46Y46*%
G04 Gerber Fmt 4.6, Leading zero omitted, Abs format (unit mm)*
G04 Created by KiCad (PCBNEW 10.0.3) date 2026-09-18 11:00:00*
%MOMM*%
%LPD*%
G01*
G04 APERTURE LIST*
%TA.AperFunction,ViaPad*%
%ADD10C,0.500000*%
%TD*%
%TA.AperFunction,ViaPad*%
%ADD11C,0.450000*%
%TD*%
%TA.AperFunction,ViaPad*%
%ADD12C,0.400000*%
%TD*%
%TA.AperFunction,Conductor*%
%ADD13C,0.100000*%
%TD*%
%TA.AperFunction,Conductor*%
%ADD14C,0.250000*%
%TD*%
%TA.AperFunction,Conductor*%
%ADD15C,0.200000*%
%TD*%
G04 APERTURE END LIST*
D10*
%TO.N,3V3*%
X8210000Y8080000D03*
D11*
X-2100000Y-7576000D03*
X3050000Y9629000D03*
X-3450000Y-7576000D03*
X-9066900Y-9530000D03*
X-6270000Y7300000D03*
X-11830000Y1300000D03*
X11550000Y-4641000D03*
X-1500000Y7560000D03*
D10*
X5754998Y8797296D03*
D11*
X-3005981Y1916643D03*
X4656000Y6668900D03*
X7280000Y-10770000D03*
X3350000Y9279000D03*
X1607066Y11069938D03*
X90000Y-3990000D03*
%TO.N,IMU2_SCX*%
X2399100Y-8695300D03*
D12*
X8427900Y2897100D03*
D11*
X-6450024Y-9281824D03*
%TO.N,BOOST_OUT*%
X-10361286Y-931704D03*
X-1492300Y8961500D03*
X-6329749Y8948084D03*
X-6360800Y5144141D03*
%TO.N,FLEX_GND*%
X-14890000Y940000D03*
X0Y10160000D03*
X-15230000Y-3065998D03*
X-6480001Y774541D03*
X4095998Y-1412480D03*
X5719391Y-8956500D03*
X-15401434Y171470D03*
X11562470Y9510434D03*
X-8216900Y-7082900D03*
X-2791999Y-9801000D03*
X-7293000Y5769000D03*
D10*
X7250000Y8950000D03*
D11*
X-7430000Y11050000D03*
X-12480000Y-7810000D03*
%TO.N,IMU1_SCX*%
X-9798300Y-2569541D03*
%TO.N,IMU1_INT*%
X1550000Y324998D03*
X-10059533Y-1841275D03*
X-6491800Y12768800D03*
%TO.N,I2C2_SCL*%
X1550352Y-5258283D03*
X9255000Y-1593200D03*
X8300000Y11220000D03*
X-8538000Y1974300D03*
X-9225500Y5919000D03*
%TO.N,I2C2_SDA*%
X-8978800Y3237900D03*
D12*
X8037544Y-2688281D03*
D11*
X-571000Y14362200D03*
%TO.N,BAT_RAW*%
X12468714Y-3035644D03*
X4420000Y-14810000D03*
X11250000Y-6600000D03*
X5404600Y-5293100D03*
X14735000Y859000D03*
X-12450000Y7590600D03*
X-499200Y1984500D03*
X-12450000Y4152600D03*
X3597500Y7377400D03*
%TO.N,AON_EN*%
X9090000Y-3960000D03*
X6680047Y-3690002D03*
%TO.N,3V3_AON*%
X2316446Y8866446D03*
X3907542Y-6580000D03*
X-1279040Y-7082900D03*
X131621Y1188379D03*
X-20687Y-9700819D03*
X3852494Y8762717D03*
X11864999Y185889D03*
X13143312Y-3543259D03*
X-5248400Y11092000D03*
X5155302Y-3441155D03*
%TO.N,WBA_HSE_IN*%
X-2960000Y9900000D03*
X220000Y4610000D03*
%TO.N,USBWK_GATE*%
X-9250000Y-7144100D03*
X-5474560Y6924122D03*
%TO.N,AON_EN_GATE*%
X-3046703Y7040759D03*
X-4830000Y810000D03*
X9700000Y-2160000D03*
X8850000Y5511100D03*
%TO.N,MAIN_SW_GATE*%
X5188610Y1035372D03*
X1205900Y-1578800D03*
X-5047000Y-495000D03*
X5832400Y-4378200D03*
%TO.N,BAT_PROT*%
X13375985Y4979723D03*
X15430000Y4350000D03*
X9066500Y-5548420D03*
X-12040000Y2850000D03*
X12233100Y8156000D03*
X10600000Y-7885000D03*
X4834579Y-6314579D03*
X-6035800Y13759000D03*
X-4438400Y13759000D03*
%TO.N,REG_IN_MAIN*%
X-9750000Y-3601000D03*
X-10590000Y-4020000D03*
X-10972937Y-4673041D03*
X6640000Y-6610000D03*
X-11902951Y-4616000D03*
X-6234635Y-5308364D03*
X-6626860Y-4952465D03*
X-10992000Y-3126000D03*
X-9183656Y-8032363D03*
X-8050000Y-13560000D03*
X2511999Y-11206000D03*
%TO.N,JUMP_WAKE_K*%
X-3855000Y6546905D03*
X2186900Y-979500D03*
%TO.N,MAG_SHELF_K*%
X-4660000Y-2220000D03*
X3433682Y-5148236D03*
%TO.N,IMU3_SDX*%
X-1227291Y1864785D03*
%TO.N,IMU3_SCX*%
X4586500Y7699800D03*
X-3321630Y857794D03*
%TO.N,IMU3_INT*%
X7410300Y5492400D03*
D12*
%TO.N,I2C3_SCL*%
X10580000Y3240000D03*
D11*
X-4774500Y-9257700D03*
X5950000Y-12656500D03*
X-3042501Y7740749D03*
%TO.N,I2C3_SDA*%
X5880000Y6940000D03*
X-3990000Y-11061500D03*
X6097600Y11085002D03*
%TO.N,QHOLD_GATE*%
X4592121Y3417121D03*
%TO.N,IMU2_SDX*%
X-6940000Y-8392041D03*
%TO.N,IMU2_INT*%
X-5500000Y-7743600D03*
X1066800Y3237500D03*
X4560000Y13340000D03*
%TO.N,WBA_VDD11*%
X8200000Y4115000D03*
%TO.N,WBA_RF*%
X7069432Y-1105771D03*
%TO.N,QHOLD2_GATE*%
X6745000Y7637840D03*
X8992400Y4252200D03*
%TO.N,MAG_C1_TERM*%
X5530000Y-11340000D03*
X-8267637Y2983492D03*
%TO.N,MAG_DRDY*%
X-6430600Y-10670400D03*
X896157Y1575000D03*
X-6839237Y3280000D03*
%TO.N,WBA_BOOT0*%
X-12132180Y-6267595D03*
X6164601Y5492399D03*
X2617724Y-6597024D03*
%TO.N,WBA_HCI_IRQ*%
X6897000Y3472222D03*
X-12415546Y-2384454D03*
%TO.N,IR_TX*%
X2750000Y11369700D03*
X7790000Y3148082D03*
%TO.N,WBA_NRST*%
X1470000Y8255600D03*
X-7840000Y7040000D03*
D12*
X5931255Y-658343D03*
%TO.N,WBA_AON_HOLD*%
X8221999Y-2065000D03*
D11*
%TO.N,IR_WAKE*%
X2011831Y-1727998D03*
X-450000Y-11111500D03*
X9302998Y435000D03*
D12*
%TO.N,WBA_UART_RX*%
X7482485Y1908409D03*
D11*
X-12985100Y-1425000D03*
%TO.N,WBA_WAKE*%
X8294600Y6005000D03*
X11372000Y-1465000D03*
D12*
%TO.N,WBA_HCI_MISO*%
X10270000Y1710000D03*
D11*
X-11286500Y3381000D03*
%TO.N,WBA_UART_TX*%
X-11997579Y-652421D03*
D12*
X9272000Y1335000D03*
D11*
%TO.N,WBA_HCI_NSS*%
X15665446Y2184554D03*
X-13385000Y-6265998D03*
%TO.N,WBA_HCI_MOSI*%
X-10836800Y6114000D03*
D12*
X9489357Y2709357D03*
D11*
%TO.N,WBA_HCI_SCK*%
X-14270000Y-4920000D03*
X8536584Y1817597D03*
%TO.N,ACTIVATE_CONFIRM*%
X13890000Y-4616002D03*
%TO.N,ACTIVATE_SET*%
X14770000Y-800000D03*
%TO.N,BAT_CELL1_POS*%
X14570052Y178709D03*
%TO.N,BAT_CELL2_POS*%
X14548667Y1730440D03*
%TO.N,BAT_CELL3_POS*%
X14220730Y3350976D03*
%TO.N,BOOT0*%
X13156429Y-4497688D03*
X12350000Y-6225400D03*
%TO.N,COMP_1V8*%
X-10350300Y4711100D03*
X10049700Y-3065998D03*
%TO.N,COMP_5V*%
X-7606300Y13087100D03*
X13352264Y212404D03*
%TO.N,COMP_5V_RAW*%
X11525500Y2415977D03*
X-9256900Y-11710800D03*
%TO.N,COMP_OUT*%
X12915900Y1660000D03*
X11563500Y7662600D03*
%TO.N,COMP_SWDCLK*%
X13155000Y3025385D03*
X13133700Y8959000D03*
%TO.N,COMP_SWDIO*%
X11855000Y3330871D03*
X10141274Y-4594474D03*
%TO.N,EXT_CAN_RX*%
X10357800Y4941700D03*
X11209679Y-3049679D03*
%TO.N,EXT_CAN_TX*%
X13195000Y7360000D03*
%TO.N,GPIO_EXT_0*%
X9966500Y-5441000D03*
X11202900Y6582000D03*
%TO.N,GPIO_EXT_1*%
X9000000Y6569998D03*
X9972400Y-3895000D03*
%TO.N,GPIO_EXT_2*%
X10205900Y9774800D03*
X9390000Y-2820000D03*
%TO.N,GPIO_EXT_3*%
X13174998Y900000D03*
D12*
%TO.N,H3LIS_INT1*%
X9640000Y1890600D03*
D11*
X9928600Y12159000D03*
%TO.N,NRST*%
X9732300Y6896800D03*
X-4463200Y-13441000D03*
%TO.N,PWR_HOLD*%
X380000Y-6625000D03*
X-5250000Y-11047200D03*
X427524Y-10578800D03*
%TO.N,SWO*%
X-6068200Y-12392000D03*
X9410000Y9090000D03*
%TO.N,SYS_I2C_SCL*%
X-4025926Y7998826D03*
X-7667500Y-11756100D03*
X11529600Y10559000D03*
%TO.N,SYS_I2C_SDA*%
X-7136900Y-10406500D03*
X-10350300Y1216000D03*
X5168900Y-13261600D03*
%TO.N,SYS_SPI_CS_FIN*%
X5157354Y13826118D03*
X-7665400Y-8641000D03*
%TO.N,SYS_SPI_MISO*%
X-10050000Y-7825400D03*
X-2068376Y11318524D03*
%TO.N,SYS_SPI_MOSI*%
X-6178200Y-6023800D03*
X-2570000Y12343800D03*
%TO.N,SYS_SPI_SCLK*%
X-11048300Y-7876800D03*
X-6614124Y9925000D03*
%TO.N,WBA_RST_CMD*%
X-311297Y-1077984D03*
X-12889200Y-4623900D03*
D12*
X-7464773Y2834773D03*
D11*
%TO.N,TMR_VDD*%
X-4526002Y-5716500D03*
X-6879900Y-2324500D03*
X311921Y1960579D03*
X2740000Y-4820000D03*
%TO.N,MAG_SHELF_N*%
X4016002Y-3318256D03*
%TO.N,BOOST_FB*%
X-8877300Y-592200D03*
X1428308Y-6000954D03*
%TO.N,JUMP_WAKE*%
X2563653Y7616346D03*
X9865000Y6190126D03*
X-2970000Y5750000D03*
%TD*%
%TO.N,IMU2_SCX*%
D13*
X5374800Y-4141400D02*
X6995900Y-2520300D01*
X6850000Y-2040000D02*
X6850000Y-1630000D01*
X6850000Y-1630000D02*
X6440000Y-1220000D01*
X7082485Y2087484D02*
X7505001Y2510000D01*
X2399100Y-7487400D02*
X5374800Y-4511700D01*
X6440000Y-1220000D02*
X6436336Y-1223664D01*
X7082485Y1512485D02*
X7082485Y2087484D01*
X6995900Y-2520300D02*
X6995900Y-2185900D01*
X5540000Y-475909D02*
X5540000Y-30000D01*
X5754961Y-1223664D02*
X5460000Y-928703D01*
X5374800Y-4511700D02*
X5374800Y-4141400D01*
X5460000Y-928703D02*
X5460000Y-555909D01*
X7505001Y2510000D02*
X8080000Y2510000D01*
X6436336Y-1223664D02*
X5754961Y-1223664D01*
X2399100Y-8695300D02*
X2399100Y-7487400D01*
X8080000Y2510000D02*
X8427900Y2857900D01*
X5540000Y-30000D02*
X7082485Y1512485D01*
X8427900Y2857900D02*
X8427900Y2897100D01*
X6995900Y-2185900D02*
X6850000Y-2040000D01*
X5460000Y-555909D02*
X5540000Y-475909D01*
%TO.N,BOOST_OUT*%
D14*
X-6760400Y5543741D02*
X-6360800Y5144141D01*
X-7020000Y6989339D02*
X-6760400Y6729740D01*
X-6329749Y8755351D02*
X-7020000Y8065100D01*
X-6760400Y6729740D02*
X-6760400Y5543741D01*
X-6329749Y8948084D02*
X-6329749Y8755351D01*
X-7020000Y8065100D02*
X-7020000Y6989339D01*
%TO.N,IMU1_INT*%
D13*
X-9980000Y4480359D02*
X-9925300Y4535059D01*
X-9980000Y1446741D02*
X-9980000Y4480359D01*
X-9925300Y4535059D02*
X-9925300Y7115984D01*
X-7949500Y9310500D02*
X-6491800Y10768200D01*
X-9925300Y1392041D02*
X-9980000Y1446741D01*
X-7949500Y9091784D02*
X-7949500Y9310500D01*
X-10059533Y-1841275D02*
X-9925300Y-1707042D01*
X-6491800Y10768200D02*
X-6491800Y12768800D01*
X-9925300Y-1707042D02*
X-9925300Y1392041D01*
X-9925300Y7115984D02*
X-7949500Y9091784D01*
%TO.N,I2C2_SCL*%
X11050000Y-3853317D02*
X14066041Y-837276D01*
X-9525300Y2745300D02*
X-8754300Y1974300D01*
X14066041Y4278373D02*
X14066041Y8643959D01*
X11050000Y-5520000D02*
X11050000Y-3853317D01*
X-9525300Y5619200D02*
X-9525300Y2745300D01*
X10040000Y-6530000D02*
X11050000Y-5520000D01*
X15300002Y3044412D02*
X14066041Y4278373D01*
X14066041Y-837276D02*
X14066041Y2874749D01*
X-8754300Y1974300D02*
X-8538000Y1974300D01*
X11490000Y11220000D02*
X8300000Y11220000D01*
X15300002Y2821334D02*
X15300002Y3044412D01*
X14066041Y8643959D02*
X11490000Y11220000D01*
X9540000Y-6070000D02*
X9080000Y-6530000D01*
X8720000Y-2870000D02*
X9540000Y-3690000D01*
X14066041Y2874749D02*
X14709729Y2231061D01*
X9255000Y-1593200D02*
X9143800Y-1593200D01*
X9540000Y-3690000D02*
X9540000Y-6070000D01*
X9143800Y-1593200D02*
X8720000Y-2017000D01*
X9080000Y-6530000D02*
X10040000Y-6530000D01*
X-9225500Y5919000D02*
X-9525300Y5619200D01*
X14709729Y2231061D02*
X15300002Y2821334D01*
X8720000Y-2017000D02*
X8720000Y-2870000D01*
%TO.N,I2C2_SDA*%
X-6440000Y9500000D02*
X-8848800Y7091200D01*
X-6239359Y9500000D02*
X-6440000Y9500000D01*
X-8848800Y6768900D02*
X-8690141Y6610241D01*
X-8282659Y2320000D02*
X-6470200Y2320000D01*
X-6470200Y2320000D02*
X-5906700Y1756500D01*
X-571000Y14362200D02*
X-1377159Y14362200D01*
X-8978800Y2538800D02*
X-8839300Y2399300D01*
X-8361959Y2399300D02*
X-8282659Y2320000D01*
X-8978800Y3237900D02*
X-8978800Y2538800D01*
X-8690141Y3526559D02*
X-8978800Y3237900D01*
X-8848800Y7091200D02*
X-8848800Y6768900D01*
X-8839300Y2399300D02*
X-8361959Y2399300D01*
X-5906700Y1756500D02*
X-5906700Y0D01*
X-8690141Y6610241D02*
X-8690141Y3526559D01*
X-1377159Y14362200D02*
X-6239359Y9500000D01*
%TO.N,BAT_RAW*%
D15*
X3597500Y6687900D02*
X-499200Y2591200D01*
X-499200Y2591200D02*
X-499200Y1984500D01*
X3597500Y7377400D02*
X3597500Y6687900D01*
%TO.N,AON_EN*%
D13*
X8820002Y-3690002D02*
X9090000Y-3960000D01*
X6680047Y-3690002D02*
X8820002Y-3690002D01*
%TO.N,USBWK_GATE*%
X-5706700Y-136194D02*
X-5706700Y4415200D01*
X-9459400Y-6125000D02*
X-5706700Y-2372300D01*
X-5722000Y-151495D02*
X-5706700Y-136194D01*
X-5706700Y4415200D02*
X-5053300Y5068600D01*
X-9250000Y-7144100D02*
X-9459400Y-6934700D01*
X-5706700Y-2372300D02*
X-5706700Y-725984D01*
X-5053300Y5068600D02*
X-5053300Y6502862D01*
X-5706700Y-725984D02*
X-5722000Y-710683D01*
X-9459400Y-6934700D02*
X-9459400Y-6125000D01*
X-5053300Y6502862D02*
X-5474560Y6924122D01*
X-5722000Y-710683D02*
X-5722000Y-151495D01*
%TO.N,AON_EN_GATE*%
X10670000Y2460000D02*
X10670000Y-778900D01*
X8850000Y5511100D02*
X9118900Y5511100D01*
X9118900Y5511100D02*
X9440000Y5190000D01*
X9700000Y-1748900D02*
X9700000Y-2160000D01*
X9558200Y-2018200D02*
X9243100Y-2018200D01*
X10670000Y-778900D02*
X9700000Y-1748900D01*
X9440000Y5190000D02*
X9440000Y3690000D01*
X9440000Y3690000D02*
X10670000Y2460000D01*
X9700000Y-2160000D02*
X9558200Y-2018200D01*
%TO.N,IMU3_SCX*%
X-3460000Y2134376D02*
X-3202733Y2391643D01*
X3773541Y7802400D02*
X3776141Y7799800D01*
X-3202733Y2391643D02*
X-1989298Y2391643D01*
X-1989298Y2391643D02*
X-255000Y4125941D01*
X3776141Y7799800D02*
X4548000Y7799800D01*
X4548000Y7799800D02*
X4586500Y7761300D01*
X-255000Y4125941D02*
X-255000Y4806752D01*
X-3321630Y857794D02*
X-3460000Y996164D01*
X704059Y5085000D02*
X3421459Y7802400D01*
X3421459Y7802400D02*
X3773541Y7802400D01*
X-3460000Y996164D02*
X-3460000Y2134376D01*
X23248Y5085000D02*
X704059Y5085000D01*
X4586500Y7761300D02*
X4586500Y7699800D01*
X-255000Y4806752D02*
X23248Y5085000D01*
%TO.N,I2C3_SCL*%
X-2572496Y7740749D02*
X-3042501Y7740749D01*
X-4115000Y5686752D02*
X-3596752Y6205000D01*
X-5360000Y4125659D02*
X-4115000Y5370659D01*
X-4115000Y5370659D02*
X-4115000Y5686752D01*
X-3596752Y6205000D02*
X-3280659Y6205000D01*
X-3280659Y6205000D02*
X-2229000Y7256659D01*
X-4774500Y-9257700D02*
X-4851400Y-9180800D01*
X-2229000Y7256659D02*
X-2229000Y7397253D01*
X-5522000Y-627841D02*
X-5522000Y-234337D01*
X-5360000Y-5527141D02*
X-5360000Y-789841D01*
X-5360000Y-789841D02*
X-5522000Y-627841D01*
X-5522000Y-234337D02*
X-5360000Y-72337D01*
X-5360000Y-72337D02*
X-5360000Y4125659D01*
X-2229000Y7397253D02*
X-2572496Y7740749D01*
X-4851400Y-6035741D02*
X-5360000Y-5527141D01*
X-4851400Y-9180800D02*
X-4851400Y-6035741D01*
%TO.N,IMU2_INT*%
X-5170000Y-9750000D02*
X-5430000Y-9490000D01*
X1066800Y2803200D02*
X1066800Y3237500D01*
X-783100Y-3636900D02*
X-4300000Y-7153800D01*
X4942143Y13340000D02*
X5197600Y13084543D01*
X5131000Y6865652D02*
X5131000Y6472148D01*
X1530000Y2340000D02*
X1066800Y2803200D01*
X1671100Y3237500D02*
X1066800Y3237500D01*
X730000Y-2120000D02*
X730000Y500000D01*
X-4300000Y-9480000D02*
X-4570000Y-9750000D01*
X-5430000Y-9490000D02*
X-5430000Y-8080000D01*
X1066800Y3237500D02*
X987800Y3237500D01*
X-4300000Y-7153800D02*
X-4300000Y-9480000D01*
X730000Y500000D02*
X1530000Y1300000D01*
X-783100Y-3633100D02*
X730000Y-2120000D01*
X5197600Y13084543D02*
X5197600Y13006600D01*
X-783100Y-3636900D02*
X-783100Y-3633100D01*
X4627500Y6193900D02*
X1671100Y3237500D01*
X4560000Y13340000D02*
X4942143Y13340000D01*
X-4570000Y-9750000D02*
X-5170000Y-9750000D01*
X-5500000Y-8010000D02*
X-5500000Y-7743600D01*
X1530000Y1300000D02*
X1530000Y2340000D01*
X5061500Y12870500D02*
X5061500Y6935152D01*
X5061500Y6935152D02*
X5131000Y6865652D01*
X-738000Y-3591800D02*
X-783100Y-3636900D01*
X-5430000Y-8080000D02*
X-5500000Y-8010000D01*
X5197600Y13006600D02*
X5061500Y12870500D01*
X4852752Y6193900D02*
X4627500Y6193900D01*
X5131000Y6472148D02*
X4852752Y6193900D01*
%TO.N,MAG_DRDY*%
X-6667841Y13193800D02*
X-6916800Y12944841D01*
X-6916800Y12944841D02*
X-6916800Y10653200D01*
X-10350000Y5610000D02*
X-10775300Y5184700D01*
X-12422579Y-4697413D02*
X-11707180Y-5412812D01*
X-5885800Y5340893D02*
X-6485400Y5940493D01*
X-6335400Y3999500D02*
X-6335400Y4497789D01*
X-11707180Y-6443636D02*
X-11860000Y-6596456D01*
X-9208642Y-10606500D02*
X-7537941Y-10606500D01*
X-12422579Y-3063239D02*
X-12422579Y-4697413D01*
X-8149500Y9174626D02*
X-10350000Y6974126D01*
X-6799759Y-10670400D02*
X-6430600Y-10670400D01*
X-6485400Y5940493D02*
X-6485400Y6843648D01*
X-6425000Y7725000D02*
X-146000Y14004000D01*
X-11860000Y-7955142D02*
X-9208642Y-10606500D01*
X-146000Y14538241D02*
X-394959Y14787200D01*
X-10350000Y6974126D02*
X-10350000Y5610000D01*
X-394959Y14787200D02*
X-4224441Y14787200D01*
X-11940546Y-2581206D02*
X-12422579Y-3063239D01*
X-4224441Y14787200D02*
X-5817841Y13193800D01*
X-6839237Y3495663D02*
X-6335400Y3999500D01*
X-11860000Y-6596456D02*
X-11860000Y-7955142D01*
X-10775300Y5184700D02*
X-10775300Y1170899D01*
X-6335400Y4497789D02*
X-5885800Y4947389D01*
X-146000Y14004000D02*
X-146000Y14538241D01*
X-6839237Y3280000D02*
X-6839237Y3495663D01*
X-5885800Y4947389D02*
X-5885800Y5340893D01*
X-6446041Y7725000D02*
X-6425000Y7725000D01*
X-7312941Y-10831500D02*
X-6960859Y-10831500D01*
X-6745000Y7103248D02*
X-6745000Y7426041D01*
X-11940546Y-2187702D02*
X-11940546Y-2581206D01*
X-6916800Y10653200D02*
X-8149500Y9420500D01*
X-6485400Y6843648D02*
X-6745000Y7103248D01*
X-12422579Y-476380D02*
X-12422579Y-1705669D01*
X-6960859Y-10831500D02*
X-6799759Y-10670400D01*
X-10775300Y1170899D02*
X-12422579Y-476380D01*
X-8149500Y9420500D02*
X-8149500Y9174626D01*
X-5817841Y13193800D02*
X-6667841Y13193800D01*
X-11707180Y-5412812D02*
X-11707180Y-6443636D01*
X-12422579Y-1705669D02*
X-11940546Y-2187702D01*
X-6745000Y7426041D02*
X-6446041Y7725000D01*
X-7537941Y-10606500D02*
X-7312941Y-10831500D01*
%TO.N,WBA_BOOT0*%
X2662348Y-6552400D02*
X2617724Y-6597024D01*
X5260000Y-473067D02*
X5260000Y-1011546D01*
X5800000Y-1551546D02*
X5800000Y-3431000D01*
X6353900Y1105943D02*
X5320000Y72043D01*
X6353900Y5303100D02*
X6353900Y1105943D01*
X5260000Y-1011546D02*
X5800000Y-1551546D01*
X5800000Y-3431000D02*
X2678600Y-6552400D01*
X5320000Y-413066D02*
X5260000Y-473067D01*
X5320000Y72043D02*
X5320000Y-413066D01*
X6164601Y5492399D02*
X6353900Y5303100D01*
X2678600Y-6552400D02*
X2662348Y-6552400D01*
%TO.N,COMP_OUT*%
X12375000Y3535041D02*
X12362700Y3547341D01*
X12375000Y2200900D02*
X12375000Y3535041D01*
X12915900Y1660000D02*
X12375000Y2200900D01*
X12362700Y3547341D02*
X12362700Y6863400D01*
X12362700Y6863400D02*
X11563500Y7662600D01*
%TO.N,COMP_SWDCLK*%
X12727700Y3452685D02*
X13155000Y3025385D01*
X13133700Y8959000D02*
X12727700Y8553000D01*
X12727700Y8553000D02*
X12727700Y3452685D01*
%TO.N,GPIO_EXT_0*%
X11070000Y2810761D02*
X11230000Y2970761D01*
X10474700Y-1664600D02*
X11070000Y-1069300D01*
X11230000Y3509240D02*
X11100500Y3638739D01*
X9966500Y-5441000D02*
X10631100Y-4776400D01*
X10631100Y-3401900D02*
X10474700Y-3245500D01*
X10474700Y-3245500D02*
X10474700Y-1664600D01*
X11100500Y6479600D02*
X11202900Y6582000D01*
X11230000Y2970761D02*
X11230000Y3509240D01*
X10631100Y-4776400D02*
X10631100Y-3401900D01*
X11100500Y3638739D02*
X11100500Y6479600D01*
X11070000Y-1069300D02*
X11070000Y2810761D01*
%TO.N,GPIO_EXT_2*%
X10832800Y4744948D02*
X10832800Y5138452D01*
X9390000Y-2820000D02*
X9650000Y-2820000D01*
X10671000Y4583148D02*
X10832800Y4744948D01*
X10870000Y-883900D02*
X10870000Y2893603D01*
X10671000Y5300252D02*
X10671000Y9309700D01*
X10671000Y3785397D02*
X10671000Y4583148D01*
X10274700Y-1479200D02*
X10870000Y-883900D01*
X11030000Y3426397D02*
X10671000Y3785397D01*
X10870000Y2893603D02*
X11030000Y3053603D01*
X11030000Y3053603D02*
X11030000Y3426397D01*
X9650000Y-2820000D02*
X10274700Y-2195300D01*
X10274700Y-2195300D02*
X10274700Y-1479200D01*
X10671000Y9309700D02*
X10205900Y9774800D01*
X10832800Y5138452D02*
X10671000Y5300252D01*
%TO.N,NRST*%
X7427600Y7374400D02*
X8666743Y7374400D01*
X9628900Y6793400D02*
X9732300Y6896800D01*
X-4463200Y-13441000D02*
X-453200Y-9431000D01*
X9732300Y7357700D02*
X9732300Y6896800D01*
X3065300Y-3056400D02*
X3065300Y3012100D01*
X8666743Y7374400D02*
X8932342Y7640000D01*
X3065300Y3012100D02*
X7427600Y7374400D01*
X-453200Y-9431000D02*
X-453200Y-6574900D01*
X8932342Y7640000D02*
X9450000Y7640000D01*
X9450000Y7640000D02*
X9732300Y7357700D01*
X-453200Y-6574900D02*
X3065300Y-3056400D01*
%TO.N,SWO*%
X2863600Y-2972900D02*
X2863600Y3110900D01*
X2863600Y3110900D02*
X7327100Y7574400D01*
X-6068200Y-12392000D02*
X-5987100Y-12392000D01*
X8583900Y7574400D02*
X9410000Y8400500D01*
X7327100Y7574400D02*
X8583900Y7574400D01*
X-725800Y-7130700D02*
X-725800Y-6562300D01*
X-725800Y-6562300D02*
X2863600Y-2972900D01*
X9410000Y8400500D02*
X9410000Y9090000D01*
X-5987100Y-12392000D02*
X-725800Y-7130700D01*
%TO.N,SYS_I2C_SCL*%
X8513400Y10795000D02*
X7765000Y10795000D01*
X5632354Y13947646D02*
X5632354Y14022870D01*
X5354106Y14301118D02*
X4960602Y14301118D01*
X7630000Y11451600D02*
X7630000Y11950000D01*
X4960602Y14301118D02*
X4883184Y14223700D01*
X2336200Y14223700D02*
X-3888674Y7998826D01*
X7765000Y10795000D02*
X7620000Y10940000D01*
X11529600Y10559000D02*
X8749400Y10559000D01*
X4883184Y14223700D02*
X2336200Y14223700D01*
X7630000Y11950000D02*
X5632354Y13947646D01*
X8749400Y10559000D02*
X8513400Y10795000D01*
X5632354Y14022870D02*
X5354106Y14301118D01*
X7620000Y11441600D02*
X7630000Y11451600D01*
X-3888674Y7998826D02*
X-4025926Y7998826D01*
X7620000Y10940000D02*
X7620000Y11441600D01*
%TO.N,SYS_I2C_SDA*%
X-9125800Y-10406500D02*
X-11580000Y-7952300D01*
X-11580000Y-6599299D02*
X-11477951Y-6497250D01*
X-7136900Y-10406500D02*
X-9125800Y-10406500D01*
X-11477951Y-6497250D02*
X-11477951Y88349D01*
X-11477951Y88349D02*
X-10350300Y1216000D01*
X-11580000Y-7952300D02*
X-11580000Y-6599299D01*
%TO.N,SYS_SPI_CS_FIN*%
X5363100Y6644300D02*
X5363100Y8482087D01*
X5672600Y12887791D02*
X5719636Y12934827D01*
X5331000Y6389306D02*
X5331000Y6612200D01*
X5547891Y9297296D02*
X5672600Y9297296D01*
X-6383600Y-10020000D02*
X-4410000Y-10020000D01*
X5157354Y13802146D02*
X5157354Y13826118D01*
X2661900Y-2211700D02*
X2661900Y3943100D01*
X-3882300Y-8755900D02*
X2661900Y-2211700D01*
X5441388Y13606579D02*
X5352921Y13606579D01*
X4712700Y5993900D02*
X4935594Y5993900D01*
X4935594Y5993900D02*
X5331000Y6389306D01*
X5352921Y13606579D02*
X5157354Y13802146D01*
X-3882300Y-9492300D02*
X-3882300Y-8755900D01*
X5261500Y9010905D02*
X5547891Y9297296D01*
X-7665400Y-8738200D02*
X-6383600Y-10020000D01*
X5261500Y8583687D02*
X5261500Y9010905D01*
X5363100Y8482087D02*
X5261500Y8583687D01*
X2661900Y3943100D02*
X4712700Y5993900D01*
X5331000Y6612200D02*
X5363100Y6644300D01*
X5719636Y13328331D02*
X5441388Y13606579D01*
X5719636Y12934827D02*
X5719636Y13328331D01*
X-7665400Y-8641000D02*
X-7665400Y-8738200D01*
X5672600Y9297296D02*
X5672600Y12887791D01*
X-4410000Y-10020000D02*
X-3882300Y-9492300D01*
%TO.N,SYS_SPI_SCLK*%
X-9725300Y6884700D02*
X-9725300Y4452217D01*
X-9950000Y-4310000D02*
X-11048300Y-5408300D01*
X-9725300Y-565200D02*
X-9060000Y-1230500D01*
X-6614124Y9925000D02*
X-6685000Y9925000D01*
X-9480000Y-4310000D02*
X-9950000Y-4310000D01*
X-9725300Y1474883D02*
X-9725300Y-565200D01*
X-6685000Y9925000D02*
X-9725300Y6884700D01*
X-9760000Y4417517D02*
X-9760000Y1509584D01*
X-9760000Y1509584D02*
X-9725300Y1474883D01*
X-11048300Y-5408300D02*
X-11048300Y-7876800D01*
X-9060000Y-3890000D02*
X-9480000Y-4310000D01*
X-9060000Y-1230500D02*
X-9060000Y-3890000D01*
X-9725300Y4452217D02*
X-9760000Y4417517D01*
%TO.N,JUMP_WAKE*%
X2563653Y7616346D02*
X2563653Y7525405D01*
X825048Y5786800D02*
X-2933200Y5786800D01*
X-2933200Y5786800D02*
X-2970000Y5750000D01*
X2563653Y7525405D02*
X825048Y5786800D01*
%TD*%
M02*
