%TF.GenerationSoftware,KiCad,Pcbnew,10.0.3*%
%TF.CreationDate,2026-08-07T12:01:29+02:00*%
%TF.ProjectId,wakeup_board,77616b65-7570-45f6-926f-6172642e6b69,rev?*%
%TF.SameCoordinates,Original*%
%TF.FileFunction,Drillmap*%
%TF.FilePolarity,Positive*%
%FSLAX45Y45*%
G04 Gerber Fmt 4.5, Leading zero omitted, Abs format (unit mm)*
G04 Created by KiCad (PCBNEW 10.0.3) date 2026-08-07 12:01:29*
%MOMM*%
%LPD*%
G01*
G04 APERTURE LIST*
%ADD10C,0.150000*%
%ADD11C,0.200000*%
%ADD12C,0.100000*%
G04 APERTURE END LIST*
D10*
X-1700000Y0D02*
X-1696290Y-112190D01*
X-1696290Y112190D02*
X-1700000Y0D01*
X-1696290Y-112190D02*
X-1685190Y-223880D01*
X-1685190Y223880D02*
X-1696290Y112190D01*
X-1685190Y-223880D02*
X-1666750Y-334600D01*
X-1666750Y334600D02*
X-1685190Y223880D01*
X-1666750Y-334600D02*
X-1641030Y-443870D01*
X-1641030Y443870D02*
X-1666750Y334600D01*
X-1641030Y-443870D02*
X-1608160Y-551190D01*
X-1608160Y551190D02*
X-1641030Y443870D01*
X-1608160Y-551190D02*
X-1568280Y-656120D01*
X-1568280Y656120D02*
X-1608160Y551190D01*
X-1568280Y-656120D02*
X-1521570Y-758180D01*
X-1521570Y758180D02*
X-1568280Y656120D01*
X-1521570Y-758180D02*
X-1468210Y-856940D01*
X-1468210Y856940D02*
X-1521570Y758180D01*
X-1468210Y-856940D02*
X-1408460Y-951960D01*
X-1408460Y951960D02*
X-1468210Y856940D01*
X-1408460Y-951960D02*
X-1342570Y-1042830D01*
X-1342570Y1042830D02*
X-1408460Y951960D01*
X-1342570Y-1042830D02*
X-1270830Y-1129160D01*
X-1270830Y1129160D02*
X-1342570Y1042830D01*
X-1270830Y-1129160D02*
X-1193540Y-1210560D01*
X-1193540Y1210560D02*
X-1270830Y1129160D01*
X-1193540Y-1210560D02*
X-1111050Y-1286690D01*
X-1111050Y1286690D02*
X-1193540Y1210560D01*
X-1111050Y-1286690D02*
X-1023720Y-1357200D01*
X-1023720Y1357200D02*
X-1111050Y1286690D01*
X-1023720Y-1357200D02*
X-931920Y-1421800D01*
X-931920Y1421800D02*
X-1023720Y1357200D01*
X-931920Y-1421800D02*
X-836060Y-1480200D01*
X-836060Y1480200D02*
X-931920Y1421800D01*
X-836060Y-1480200D02*
X-736560Y-1532150D01*
X-736560Y1532150D02*
X-836060Y1480200D01*
X-736560Y-1532150D02*
X-633850Y-1577420D01*
X-633850Y1577420D02*
X-736560Y1532150D01*
X-633850Y-1577420D02*
X-528370Y-1615810D01*
X-528370Y1615810D02*
X-633850Y1577420D01*
X-528370Y-1615810D02*
X-420590Y-1647150D01*
X-420590Y1647150D02*
X-528370Y1615810D01*
X-420590Y-1647150D02*
X-310970Y-1671320D01*
X-310970Y1671320D02*
X-420590Y1647150D01*
X-310970Y-1671320D02*
X-200000Y-1688190D01*
X-200000Y1688190D02*
X-310970Y1671320D01*
X-200000Y1688190D02*
X200000Y1688190D01*
X200000Y-1688190D02*
X-200000Y-1688190D01*
X200000Y-1688190D02*
X310970Y-1671320D01*
X310970Y1671320D02*
X200000Y1688190D01*
X310970Y-1671320D02*
X420590Y-1647150D01*
X420590Y1647150D02*
X310970Y1671320D01*
X420590Y-1647150D02*
X528370Y-1615810D01*
X528370Y1615810D02*
X420590Y1647150D01*
X528370Y-1615810D02*
X633850Y-1577420D01*
X633850Y1577420D02*
X528370Y1615810D01*
X633850Y-1577420D02*
X736560Y-1532150D01*
X736560Y1532150D02*
X633850Y1577420D01*
X736560Y-1532150D02*
X836060Y-1480200D01*
X836060Y1480200D02*
X736560Y1532150D01*
X836060Y-1480200D02*
X931920Y-1421800D01*
X931920Y1421800D02*
X836060Y1480200D01*
X931920Y-1421800D02*
X1023720Y-1357200D01*
X1023720Y1357200D02*
X931920Y1421800D01*
X1023720Y-1357200D02*
X1111050Y-1286690D01*
X1111050Y1286690D02*
X1023720Y1357200D01*
X1111050Y-1286690D02*
X1193540Y-1210560D01*
X1193540Y1210560D02*
X1111050Y1286690D01*
X1193540Y-1210560D02*
X1270830Y-1129160D01*
X1270830Y1129160D02*
X1193540Y1210560D01*
X1270830Y-1129160D02*
X1342570Y-1042830D01*
X1342570Y1042830D02*
X1270830Y1129160D01*
X1342570Y-1042830D02*
X1408460Y-951960D01*
X1408460Y951960D02*
X1342570Y1042830D01*
X1408460Y-951960D02*
X1468210Y-856940D01*
X1468210Y856940D02*
X1408460Y951960D01*
X1468210Y-856940D02*
X1521570Y-758180D01*
X1521570Y758180D02*
X1468210Y856940D01*
X1521570Y-758180D02*
X1568280Y-656120D01*
X1568280Y656120D02*
X1521570Y758180D01*
X1568280Y-656120D02*
X1608160Y-551190D01*
X1608160Y551190D02*
X1568280Y656120D01*
X1608160Y-551190D02*
X1641030Y-443870D01*
X1641030Y443870D02*
X1608160Y551190D01*
X1641030Y-443870D02*
X1666750Y-334600D01*
X1666750Y334600D02*
X1641030Y443870D01*
X1666750Y-334600D02*
X1685190Y-223880D01*
X1685190Y223880D02*
X1666750Y334600D01*
X1685190Y-223880D02*
X1696290Y-112190D01*
X1696290Y112190D02*
X1685190Y223880D01*
X1696290Y-112190D02*
X1700000Y0D01*
X1700000Y0D02*
X1696290Y112190D01*
D11*
D12*
X-952500Y-1015500D02*
X-937500Y-1030500D01*
X-937500Y-1015500D02*
X-952500Y-1030500D01*
X-787500Y-968500D02*
X-772500Y-983500D01*
X-772500Y-968500D02*
X-787500Y-983500D01*
X-775500Y-1304500D02*
X-760500Y-1319500D01*
X-760500Y-1304500D02*
X-775500Y-1319500D01*
X-475500Y-1502500D02*
X-460500Y-1517500D01*
X-460500Y-1502500D02*
X-475500Y-1517500D01*
X-447500Y1218500D02*
X-432500Y1203500D01*
X-432500Y1218500D02*
X-447500Y1203500D01*
X-417500Y1402500D02*
X-402500Y1387500D01*
X-402500Y1402500D02*
X-417500Y1387500D01*
X-347500Y1310500D02*
X-332500Y1295500D01*
X-332500Y1310500D02*
X-347500Y1295500D01*
X-276500Y-1198500D02*
X-261500Y-1213500D01*
X-261500Y-1198500D02*
X-276500Y-1213500D01*
X-229500Y1062500D02*
X-214500Y1047500D01*
X-214500Y1062500D02*
X-229500Y1047500D01*
X-211500Y-1476500D02*
X-196500Y-1491500D01*
X-196500Y-1476500D02*
X-211500Y-1491500D01*
X175500Y94500D02*
X190500Y79500D01*
X190500Y94500D02*
X175500Y79500D01*
X464500Y-258500D02*
X479500Y-273500D01*
X479500Y-258500D02*
X464500Y-273500D01*
X674500Y-1327500D02*
X689500Y-1342500D01*
X689500Y-1327500D02*
X674500Y-1342500D01*
X873500Y1299500D02*
X888500Y1284500D01*
X888500Y1299500D02*
X873500Y1284500D01*
D11*
X-1446723Y-2007174D02*
X-1446723Y-1807174D01*
X-1446723Y-1807174D02*
X-1399104Y-1807174D01*
X-1399104Y-1807174D02*
X-1370533Y-1816698D01*
X-1370533Y-1816698D02*
X-1351485Y-1835745D01*
X-1351485Y-1835745D02*
X-1341961Y-1854793D01*
X-1341961Y-1854793D02*
X-1332437Y-1892888D01*
X-1332437Y-1892888D02*
X-1332437Y-1921459D01*
X-1332437Y-1921459D02*
X-1341961Y-1959555D01*
X-1341961Y-1959555D02*
X-1351485Y-1978602D01*
X-1351485Y-1978602D02*
X-1370533Y-1997650D01*
X-1370533Y-1997650D02*
X-1399104Y-2007174D01*
X-1399104Y-2007174D02*
X-1446723Y-2007174D01*
X-1246723Y-2007174D02*
X-1246723Y-1873840D01*
X-1246723Y-1911936D02*
X-1237199Y-1892888D01*
X-1237199Y-1892888D02*
X-1227676Y-1883364D01*
X-1227676Y-1883364D02*
X-1208628Y-1873840D01*
X-1208628Y-1873840D02*
X-1189580Y-1873840D01*
X-1122914Y-2007174D02*
X-1122914Y-1873840D01*
X-1122914Y-1807174D02*
X-1132437Y-1816698D01*
X-1132437Y-1816698D02*
X-1122914Y-1826221D01*
X-1122914Y-1826221D02*
X-1113390Y-1816698D01*
X-1113390Y-1816698D02*
X-1122914Y-1807174D01*
X-1122914Y-1807174D02*
X-1122914Y-1826221D01*
X-999104Y-2007174D02*
X-1018152Y-1997650D01*
X-1018152Y-1997650D02*
X-1027675Y-1978602D01*
X-1027675Y-1978602D02*
X-1027675Y-1807174D01*
X-894342Y-2007174D02*
X-913390Y-1997650D01*
X-913390Y-1997650D02*
X-922914Y-1978602D01*
X-922914Y-1978602D02*
X-922914Y-1807174D01*
X-665771Y-2007174D02*
X-665771Y-1807174D01*
X-665771Y-1807174D02*
X-599104Y-1950031D01*
X-599104Y-1950031D02*
X-532437Y-1807174D01*
X-532437Y-1807174D02*
X-532437Y-2007174D01*
X-351485Y-2007174D02*
X-351485Y-1902412D01*
X-351485Y-1902412D02*
X-361009Y-1883364D01*
X-361009Y-1883364D02*
X-380056Y-1873840D01*
X-380056Y-1873840D02*
X-418152Y-1873840D01*
X-418152Y-1873840D02*
X-437199Y-1883364D01*
X-351485Y-1997650D02*
X-370533Y-2007174D01*
X-370533Y-2007174D02*
X-418152Y-2007174D01*
X-418152Y-2007174D02*
X-437199Y-1997650D01*
X-437199Y-1997650D02*
X-446723Y-1978602D01*
X-446723Y-1978602D02*
X-446723Y-1959555D01*
X-446723Y-1959555D02*
X-437199Y-1940507D01*
X-437199Y-1940507D02*
X-418152Y-1930983D01*
X-418152Y-1930983D02*
X-370533Y-1930983D01*
X-370533Y-1930983D02*
X-351485Y-1921459D01*
X-256247Y-1873840D02*
X-256247Y-2073840D01*
X-256247Y-1883364D02*
X-237199Y-1873840D01*
X-237199Y-1873840D02*
X-199104Y-1873840D01*
X-199104Y-1873840D02*
X-180056Y-1883364D01*
X-180056Y-1883364D02*
X-170533Y-1892888D01*
X-170533Y-1892888D02*
X-161009Y-1911936D01*
X-161009Y-1911936D02*
X-161009Y-1969078D01*
X-161009Y-1969078D02*
X-170533Y-1988126D01*
X-170533Y-1988126D02*
X-180056Y-1997650D01*
X-180056Y-1997650D02*
X-199104Y-2007174D01*
X-199104Y-2007174D02*
X-237199Y-2007174D01*
X-237199Y-2007174D02*
X-256247Y-1997650D01*
X-75295Y-1988126D02*
X-65771Y-1997650D01*
X-65771Y-1997650D02*
X-75295Y-2007174D01*
X-75295Y-2007174D02*
X-84818Y-1997650D01*
X-84818Y-1997650D02*
X-75295Y-1988126D01*
X-75295Y-1988126D02*
X-75295Y-2007174D01*
X-75295Y-1883364D02*
X-65771Y-1892888D01*
X-65771Y-1892888D02*
X-75295Y-1902412D01*
X-75295Y-1902412D02*
X-84818Y-1892888D01*
X-84818Y-1892888D02*
X-75295Y-1883364D01*
X-75295Y-1883364D02*
X-75295Y-1902412D01*
D12*
X-1722500Y-2328190D02*
X-1707500Y-2343190D01*
X-1707500Y-2328190D02*
X-1722500Y-2343190D01*
D11*
X-1408628Y-2227174D02*
X-1389580Y-2227174D01*
X-1389580Y-2227174D02*
X-1370533Y-2236698D01*
X-1370533Y-2236698D02*
X-1361009Y-2246221D01*
X-1361009Y-2246221D02*
X-1351485Y-2265269D01*
X-1351485Y-2265269D02*
X-1341961Y-2303364D01*
X-1341961Y-2303364D02*
X-1341961Y-2350983D01*
X-1341961Y-2350983D02*
X-1351485Y-2389079D01*
X-1351485Y-2389079D02*
X-1361009Y-2408126D01*
X-1361009Y-2408126D02*
X-1370533Y-2417650D01*
X-1370533Y-2417650D02*
X-1389580Y-2427174D01*
X-1389580Y-2427174D02*
X-1408628Y-2427174D01*
X-1408628Y-2427174D02*
X-1427675Y-2417650D01*
X-1427675Y-2417650D02*
X-1437199Y-2408126D01*
X-1437199Y-2408126D02*
X-1446723Y-2389079D01*
X-1446723Y-2389079D02*
X-1456247Y-2350983D01*
X-1456247Y-2350983D02*
X-1456247Y-2303364D01*
X-1456247Y-2303364D02*
X-1446723Y-2265269D01*
X-1446723Y-2265269D02*
X-1437199Y-2246221D01*
X-1437199Y-2246221D02*
X-1427675Y-2236698D01*
X-1427675Y-2236698D02*
X-1408628Y-2227174D01*
X-1256247Y-2408126D02*
X-1246723Y-2417650D01*
X-1246723Y-2417650D02*
X-1256247Y-2427174D01*
X-1256247Y-2427174D02*
X-1265771Y-2417650D01*
X-1265771Y-2417650D02*
X-1256247Y-2408126D01*
X-1256247Y-2408126D02*
X-1256247Y-2427174D01*
X-1056247Y-2427174D02*
X-1170533Y-2427174D01*
X-1113390Y-2427174D02*
X-1113390Y-2227174D01*
X-1113390Y-2227174D02*
X-1132437Y-2255745D01*
X-1132437Y-2255745D02*
X-1151485Y-2274793D01*
X-1151485Y-2274793D02*
X-1170533Y-2284317D01*
X-875294Y-2227174D02*
X-970533Y-2227174D01*
X-970533Y-2227174D02*
X-980056Y-2322412D01*
X-980056Y-2322412D02*
X-970533Y-2312888D01*
X-970533Y-2312888D02*
X-951485Y-2303364D01*
X-951485Y-2303364D02*
X-903866Y-2303364D01*
X-903866Y-2303364D02*
X-884818Y-2312888D01*
X-884818Y-2312888D02*
X-875294Y-2322412D01*
X-875294Y-2322412D02*
X-865771Y-2341460D01*
X-865771Y-2341460D02*
X-865771Y-2389079D01*
X-865771Y-2389079D02*
X-875294Y-2408126D01*
X-875294Y-2408126D02*
X-884818Y-2417650D01*
X-884818Y-2417650D02*
X-903866Y-2427174D01*
X-903866Y-2427174D02*
X-951485Y-2427174D01*
X-951485Y-2427174D02*
X-970533Y-2417650D01*
X-970533Y-2417650D02*
X-980056Y-2408126D01*
X-741961Y-2227174D02*
X-722913Y-2227174D01*
X-722913Y-2227174D02*
X-703866Y-2236698D01*
X-703866Y-2236698D02*
X-694342Y-2246221D01*
X-694342Y-2246221D02*
X-684818Y-2265269D01*
X-684818Y-2265269D02*
X-675295Y-2303364D01*
X-675295Y-2303364D02*
X-675295Y-2350983D01*
X-675295Y-2350983D02*
X-684818Y-2389079D01*
X-684818Y-2389079D02*
X-694342Y-2408126D01*
X-694342Y-2408126D02*
X-703866Y-2417650D01*
X-703866Y-2417650D02*
X-722913Y-2427174D01*
X-722913Y-2427174D02*
X-741961Y-2427174D01*
X-741961Y-2427174D02*
X-761009Y-2417650D01*
X-761009Y-2417650D02*
X-770533Y-2408126D01*
X-770533Y-2408126D02*
X-780056Y-2389079D01*
X-780056Y-2389079D02*
X-789580Y-2350983D01*
X-789580Y-2350983D02*
X-789580Y-2303364D01*
X-789580Y-2303364D02*
X-780056Y-2265269D01*
X-780056Y-2265269D02*
X-770533Y-2246221D01*
X-770533Y-2246221D02*
X-761009Y-2236698D01*
X-761009Y-2236698D02*
X-741961Y-2227174D01*
X-589580Y-2427174D02*
X-589580Y-2293840D01*
X-589580Y-2312888D02*
X-580056Y-2303364D01*
X-580056Y-2303364D02*
X-561009Y-2293840D01*
X-561009Y-2293840D02*
X-532437Y-2293840D01*
X-532437Y-2293840D02*
X-513390Y-2303364D01*
X-513390Y-2303364D02*
X-503866Y-2322412D01*
X-503866Y-2322412D02*
X-503866Y-2427174D01*
X-503866Y-2322412D02*
X-494342Y-2303364D01*
X-494342Y-2303364D02*
X-475294Y-2293840D01*
X-475294Y-2293840D02*
X-446723Y-2293840D01*
X-446723Y-2293840D02*
X-427675Y-2303364D01*
X-427675Y-2303364D02*
X-418152Y-2322412D01*
X-418152Y-2322412D02*
X-418152Y-2427174D01*
X-322914Y-2427174D02*
X-322914Y-2293840D01*
X-322914Y-2312888D02*
X-313390Y-2303364D01*
X-313390Y-2303364D02*
X-294342Y-2293840D01*
X-294342Y-2293840D02*
X-265771Y-2293840D01*
X-265771Y-2293840D02*
X-246723Y-2303364D01*
X-246723Y-2303364D02*
X-237199Y-2322412D01*
X-237199Y-2322412D02*
X-237199Y-2427174D01*
X-237199Y-2322412D02*
X-227675Y-2303364D01*
X-227675Y-2303364D02*
X-208628Y-2293840D01*
X-208628Y-2293840D02*
X-180056Y-2293840D01*
X-180056Y-2293840D02*
X-161009Y-2303364D01*
X-161009Y-2303364D02*
X-151485Y-2322412D01*
X-151485Y-2322412D02*
X-151485Y-2427174D01*
X238991Y-2217650D02*
X67563Y-2474793D01*
X496134Y-2227174D02*
X515182Y-2227174D01*
X515182Y-2227174D02*
X534229Y-2236698D01*
X534229Y-2236698D02*
X543753Y-2246221D01*
X543753Y-2246221D02*
X553277Y-2265269D01*
X553277Y-2265269D02*
X562801Y-2303364D01*
X562801Y-2303364D02*
X562801Y-2350983D01*
X562801Y-2350983D02*
X553277Y-2389079D01*
X553277Y-2389079D02*
X543753Y-2408126D01*
X543753Y-2408126D02*
X534229Y-2417650D01*
X534229Y-2417650D02*
X515182Y-2427174D01*
X515182Y-2427174D02*
X496134Y-2427174D01*
X496134Y-2427174D02*
X477086Y-2417650D01*
X477086Y-2417650D02*
X467563Y-2408126D01*
X467563Y-2408126D02*
X458039Y-2389079D01*
X458039Y-2389079D02*
X448515Y-2350983D01*
X448515Y-2350983D02*
X448515Y-2303364D01*
X448515Y-2303364D02*
X458039Y-2265269D01*
X458039Y-2265269D02*
X467563Y-2246221D01*
X467563Y-2246221D02*
X477086Y-2236698D01*
X477086Y-2236698D02*
X496134Y-2227174D01*
X648515Y-2408126D02*
X658039Y-2417650D01*
X658039Y-2417650D02*
X648515Y-2427174D01*
X648515Y-2427174D02*
X638991Y-2417650D01*
X638991Y-2417650D02*
X648515Y-2408126D01*
X648515Y-2408126D02*
X648515Y-2427174D01*
X781848Y-2227174D02*
X800896Y-2227174D01*
X800896Y-2227174D02*
X819944Y-2236698D01*
X819944Y-2236698D02*
X829467Y-2246221D01*
X829467Y-2246221D02*
X838991Y-2265269D01*
X838991Y-2265269D02*
X848515Y-2303364D01*
X848515Y-2303364D02*
X848515Y-2350983D01*
X848515Y-2350983D02*
X838991Y-2389079D01*
X838991Y-2389079D02*
X829467Y-2408126D01*
X829467Y-2408126D02*
X819944Y-2417650D01*
X819944Y-2417650D02*
X800896Y-2427174D01*
X800896Y-2427174D02*
X781848Y-2427174D01*
X781848Y-2427174D02*
X762801Y-2417650D01*
X762801Y-2417650D02*
X753277Y-2408126D01*
X753277Y-2408126D02*
X743753Y-2389079D01*
X743753Y-2389079D02*
X734229Y-2350983D01*
X734229Y-2350983D02*
X734229Y-2303364D01*
X734229Y-2303364D02*
X743753Y-2265269D01*
X743753Y-2265269D02*
X753277Y-2246221D01*
X753277Y-2246221D02*
X762801Y-2236698D01*
X762801Y-2236698D02*
X781848Y-2227174D01*
X972325Y-2227174D02*
X991372Y-2227174D01*
X991372Y-2227174D02*
X1010420Y-2236698D01*
X1010420Y-2236698D02*
X1019944Y-2246221D01*
X1019944Y-2246221D02*
X1029467Y-2265269D01*
X1029467Y-2265269D02*
X1038991Y-2303364D01*
X1038991Y-2303364D02*
X1038991Y-2350983D01*
X1038991Y-2350983D02*
X1029467Y-2389079D01*
X1029467Y-2389079D02*
X1019944Y-2408126D01*
X1019944Y-2408126D02*
X1010420Y-2417650D01*
X1010420Y-2417650D02*
X991372Y-2427174D01*
X991372Y-2427174D02*
X972325Y-2427174D01*
X972325Y-2427174D02*
X953277Y-2417650D01*
X953277Y-2417650D02*
X943753Y-2408126D01*
X943753Y-2408126D02*
X934229Y-2389079D01*
X934229Y-2389079D02*
X924706Y-2350983D01*
X924706Y-2350983D02*
X924706Y-2303364D01*
X924706Y-2303364D02*
X934229Y-2265269D01*
X934229Y-2265269D02*
X943753Y-2246221D01*
X943753Y-2246221D02*
X953277Y-2236698D01*
X953277Y-2236698D02*
X972325Y-2227174D01*
X1219944Y-2227174D02*
X1124706Y-2227174D01*
X1124706Y-2227174D02*
X1115182Y-2322412D01*
X1115182Y-2322412D02*
X1124706Y-2312888D01*
X1124706Y-2312888D02*
X1143753Y-2303364D01*
X1143753Y-2303364D02*
X1191372Y-2303364D01*
X1191372Y-2303364D02*
X1210420Y-2312888D01*
X1210420Y-2312888D02*
X1219944Y-2322412D01*
X1219944Y-2322412D02*
X1229468Y-2341460D01*
X1229468Y-2341460D02*
X1229468Y-2389079D01*
X1229468Y-2389079D02*
X1219944Y-2408126D01*
X1219944Y-2408126D02*
X1210420Y-2417650D01*
X1210420Y-2417650D02*
X1191372Y-2427174D01*
X1191372Y-2427174D02*
X1143753Y-2427174D01*
X1143753Y-2427174D02*
X1124706Y-2417650D01*
X1124706Y-2417650D02*
X1115182Y-2408126D01*
X1324706Y-2427174D02*
X1362801Y-2427174D01*
X1362801Y-2427174D02*
X1381849Y-2417650D01*
X1381849Y-2417650D02*
X1391372Y-2408126D01*
X1391372Y-2408126D02*
X1410420Y-2379555D01*
X1410420Y-2379555D02*
X1419944Y-2341460D01*
X1419944Y-2341460D02*
X1419944Y-2265269D01*
X1419944Y-2265269D02*
X1410420Y-2246221D01*
X1410420Y-2246221D02*
X1400896Y-2236698D01*
X1400896Y-2236698D02*
X1381849Y-2227174D01*
X1381849Y-2227174D02*
X1343753Y-2227174D01*
X1343753Y-2227174D02*
X1324706Y-2236698D01*
X1324706Y-2236698D02*
X1315182Y-2246221D01*
X1315182Y-2246221D02*
X1305658Y-2265269D01*
X1305658Y-2265269D02*
X1305658Y-2312888D01*
X1305658Y-2312888D02*
X1315182Y-2331936D01*
X1315182Y-2331936D02*
X1324706Y-2341460D01*
X1324706Y-2341460D02*
X1343753Y-2350983D01*
X1343753Y-2350983D02*
X1381849Y-2350983D01*
X1381849Y-2350983D02*
X1400896Y-2341460D01*
X1400896Y-2341460D02*
X1410420Y-2331936D01*
X1410420Y-2331936D02*
X1419944Y-2312888D01*
X1496134Y-2227174D02*
X1496134Y-2265269D01*
X1572325Y-2227174D02*
X1572325Y-2265269D01*
X1867563Y-2503364D02*
X1858039Y-2493840D01*
X1858039Y-2493840D02*
X1838991Y-2465269D01*
X1838991Y-2465269D02*
X1829468Y-2446221D01*
X1829468Y-2446221D02*
X1819944Y-2417650D01*
X1819944Y-2417650D02*
X1810420Y-2370031D01*
X1810420Y-2370031D02*
X1810420Y-2331936D01*
X1810420Y-2331936D02*
X1819944Y-2284317D01*
X1819944Y-2284317D02*
X1829468Y-2255745D01*
X1829468Y-2255745D02*
X1838991Y-2236698D01*
X1838991Y-2236698D02*
X1858039Y-2208126D01*
X1858039Y-2208126D02*
X1867563Y-2198602D01*
X2048515Y-2427174D02*
X1934229Y-2427174D01*
X1991372Y-2427174D02*
X1991372Y-2227174D01*
X1991372Y-2227174D02*
X1972325Y-2255745D01*
X1972325Y-2255745D02*
X1953277Y-2274793D01*
X1953277Y-2274793D02*
X1934229Y-2284317D01*
X2219944Y-2293840D02*
X2219944Y-2427174D01*
X2172325Y-2217650D02*
X2124706Y-2360507D01*
X2124706Y-2360507D02*
X2248515Y-2360507D01*
X2477087Y-2427174D02*
X2477087Y-2227174D01*
X2562801Y-2427174D02*
X2562801Y-2322412D01*
X2562801Y-2322412D02*
X2553277Y-2303364D01*
X2553277Y-2303364D02*
X2534230Y-2293840D01*
X2534230Y-2293840D02*
X2505658Y-2293840D01*
X2505658Y-2293840D02*
X2486611Y-2303364D01*
X2486611Y-2303364D02*
X2477087Y-2312888D01*
X2686611Y-2427174D02*
X2667563Y-2417650D01*
X2667563Y-2417650D02*
X2658039Y-2408126D01*
X2658039Y-2408126D02*
X2648515Y-2389079D01*
X2648515Y-2389079D02*
X2648515Y-2331936D01*
X2648515Y-2331936D02*
X2658039Y-2312888D01*
X2658039Y-2312888D02*
X2667563Y-2303364D01*
X2667563Y-2303364D02*
X2686611Y-2293840D01*
X2686611Y-2293840D02*
X2715182Y-2293840D01*
X2715182Y-2293840D02*
X2734230Y-2303364D01*
X2734230Y-2303364D02*
X2743753Y-2312888D01*
X2743753Y-2312888D02*
X2753277Y-2331936D01*
X2753277Y-2331936D02*
X2753277Y-2389079D01*
X2753277Y-2389079D02*
X2743753Y-2408126D01*
X2743753Y-2408126D02*
X2734230Y-2417650D01*
X2734230Y-2417650D02*
X2715182Y-2427174D01*
X2715182Y-2427174D02*
X2686611Y-2427174D01*
X2867563Y-2427174D02*
X2848515Y-2417650D01*
X2848515Y-2417650D02*
X2838991Y-2398602D01*
X2838991Y-2398602D02*
X2838991Y-2227174D01*
X3019944Y-2417650D02*
X3000896Y-2427174D01*
X3000896Y-2427174D02*
X2962801Y-2427174D01*
X2962801Y-2427174D02*
X2943753Y-2417650D01*
X2943753Y-2417650D02*
X2934230Y-2398602D01*
X2934230Y-2398602D02*
X2934230Y-2322412D01*
X2934230Y-2322412D02*
X2943753Y-2303364D01*
X2943753Y-2303364D02*
X2962801Y-2293840D01*
X2962801Y-2293840D02*
X3000896Y-2293840D01*
X3000896Y-2293840D02*
X3019944Y-2303364D01*
X3019944Y-2303364D02*
X3029468Y-2322412D01*
X3029468Y-2322412D02*
X3029468Y-2341460D01*
X3029468Y-2341460D02*
X2934230Y-2360507D01*
X3105658Y-2417650D02*
X3124706Y-2427174D01*
X3124706Y-2427174D02*
X3162801Y-2427174D01*
X3162801Y-2427174D02*
X3181849Y-2417650D01*
X3181849Y-2417650D02*
X3191372Y-2398602D01*
X3191372Y-2398602D02*
X3191372Y-2389079D01*
X3191372Y-2389079D02*
X3181849Y-2370031D01*
X3181849Y-2370031D02*
X3162801Y-2360507D01*
X3162801Y-2360507D02*
X3134230Y-2360507D01*
X3134230Y-2360507D02*
X3115182Y-2350983D01*
X3115182Y-2350983D02*
X3105658Y-2331936D01*
X3105658Y-2331936D02*
X3105658Y-2322412D01*
X3105658Y-2322412D02*
X3115182Y-2303364D01*
X3115182Y-2303364D02*
X3134230Y-2293840D01*
X3134230Y-2293840D02*
X3162801Y-2293840D01*
X3162801Y-2293840D02*
X3181849Y-2303364D01*
X3258039Y-2503364D02*
X3267563Y-2493840D01*
X3267563Y-2493840D02*
X3286611Y-2465269D01*
X3286611Y-2465269D02*
X3296134Y-2446221D01*
X3296134Y-2446221D02*
X3305658Y-2417650D01*
X3305658Y-2417650D02*
X3315182Y-2370031D01*
X3315182Y-2370031D02*
X3315182Y-2331936D01*
X3315182Y-2331936D02*
X3305658Y-2284317D01*
X3305658Y-2284317D02*
X3296134Y-2255745D01*
X3296134Y-2255745D02*
X3286611Y-2236698D01*
X3286611Y-2236698D02*
X3267563Y-2208126D01*
X3267563Y-2208126D02*
X3258039Y-2198602D01*
M02*
