M48
; DRILL file KiCad 10.0.3 date 2026-08-07T12:01:28
; FORMAT={-:-/ absolute / metric / decimal}
; #@! TF.CreationDate,2026-08-07T12:01:28+02:00
; #@! TF.GenerationSoftware,Kicad,Pcbnew,10.0.3
; #@! TF.FileFunction,MixedPlating,1,14
FMAT,2
METRIC
; #@! TA.AperFunction,Plated,PTH,ViaDrill
T1C0.100
; #@! TA.AperFunction,Plated,PTH,ViaDrill
T2C0.150
; #@! TA.AperFunction,NonPlated,NPTH,ComponentDrill
T3C3.000
%
G90
G05
T1
X4.81Y-12.41
X5.1Y-9.49
X5.55Y-6.71
X6.58Y-6.11
X6.95Y2.72
X7.42Y2.26
X8.07Y-12.42
T2
X-14.09Y3.25
X-12.73Y-9.11
X-12.29Y-9.21
X-11.38Y2.46
X-11.38Y-1.9
X-11.35Y-6.33
X-11.27Y-7.64
X-10.86Y-10.77
X-10.16Y-7.98
X-10.06Y4.16
X-10.0Y-0.03
X-9.96Y-5.95
X-9.84Y-6.81
X-9.74Y1.35
X-9.263Y-1.963
X-8.73Y-5.79
X-8.64Y5.08
X-8.13Y-6.1
X-8.13Y-6.53
X-8.07Y-5.67
X-7.97Y1.93
X-7.89Y-0.04
X-7.33Y-6.47
X-7.13Y-7.65
X-7.12Y12.18
X-7.09Y-8.81
X-7.07Y-4.27
X-6.97Y6.64
X-6.62Y-10.99
X-6.6Y10.73
X-6.49Y-4.54
X-6.34Y3.96
X-6.23Y-5.78
X-6.09Y6.54
X-6.08Y0.14
X-5.66Y-12.0
X-5.47Y-11.25
X-5.4Y10.97
X-5.39Y-5.99
X-5.21Y-10.88
X-5.16Y-0.39
X-4.81Y-10.06
X-4.63Y11.41
X-4.63Y3.92
X-4.58Y-5.92
X-4.52Y4.53
X-4.37Y-8.61
X-4.3Y-2.67
X-4.2Y-6.19
X-3.82Y-12.87
X-3.43Y-10.55
X-3.33Y14.01
X-3.12Y9.34
X-2.84Y-11.55
X-2.78Y10.62
X-2.65Y-9.71
X-2.56Y10.25
X-2.35Y-4.04
X-2.15Y-8.98
X-2.1Y2.46
X-1.78Y3.88
X-1.68Y6.96
X-1.675Y13.365
X-1.59Y-1.66
X-1.39Y13.95
X-1.39Y8.65
X-1.02Y-1.44
X-0.99Y10.68
X-0.91Y-4.39
X-0.12Y1.17
X-0.06Y7.69
X-0.06Y7.69
X0.01Y11.33
X0.05Y13.17
X0.1Y-13.37
X0.26Y8.5
X0.52Y10.37
X0.85Y13.62
X0.86Y-1.59
X0.87Y-3.56
X0.91Y6.78
X1.02Y3.76
X1.48Y-6.5
X1.66Y-7.75
X1.74Y14.11
X1.81Y-0.62
X1.88Y-12.9
X2.03Y-13.6
X2.47Y13.41
X2.75Y-10.07
X2.77Y-3.49
X3.18Y-10.97
X3.21Y11.42
X3.4Y-10.4
X3.71Y13.77
X3.8Y-11.18
X3.94Y12.85
X3.96Y-8.83
X4.12Y-7.2
X4.14Y9.2
X4.14Y-9.22
X4.15Y-13.89
X4.27Y-5.92
X4.605Y6.355
X4.75Y-10.07
X4.81Y13.41
X5.05Y12.15
X5.1Y-8.4
X5.15Y1.37
X5.18Y9.38
X5.19Y1.78
X5.24Y-3.03
X5.29Y-4.45
X5.39Y0.69
X5.51Y5.65
X5.63Y11.37
X5.67Y-8.11
X5.81Y-10.28
X5.83Y-10.7
X5.83Y-11.11
X6.31Y11.38
X6.31Y9.63
X6.45Y10.57
X6.51Y-5.22
X6.68Y-8.16
X6.69Y12.29
X6.83Y-10.5
X7.17Y-12.18
X7.52Y-11.41
X8.09Y-10.33
X8.11Y11.39
X8.15Y-1.42
X8.44Y6.02
X8.48Y-1.1
X8.66Y6.84
X9.25Y6.8
X9.71Y2.21
X9.85Y0.98
X10.14Y-0.38
X10.14Y-5.5
X10.36Y9.82
X10.41Y3.96
X10.65Y-7.4
X11.02Y-4.65
X11.09Y0.28
X11.5Y8.38
X11.65Y-1.8
X11.68Y4.72
X11.79Y3.19
X12.0Y6.33
X12.34Y-0.02
X13.21Y4.5
X13.24Y3.1
X13.36Y-2.98
X14.15Y-6.97
X14.62Y5.77
X14.64Y-0.89
X14.73Y3.12
X14.74Y3.82
X14.8Y-5.41
T3
X-9.899Y9.899
X9.899Y-9.899
M30
