%TF.GenerationSoftware,KiCad,Pcbnew,10.0.3*%
%TF.CreationDate,2026-09-02T13:33:33+02:00*%
%TF.ProjectId,activation_interface,61637469-7661-4746-996f-6e5f696e7465,rev?*%
%TF.SameCoordinates,Original*%
%TF.FileFunction,Legend,Top*%
%TF.FilePolarity,Positive*%
%FSLAX46Y46*%
G04 Gerber Fmt 4.6, Leading zero omitted, Abs format (unit mm)*
G04 Created by KiCad (PCBNEW 10.0.3) date 2026-09-02 13:33:33*
%MOMM*%
%LPD*%
G01*
G04 APERTURE LIST*
%ADD10C,0.120000*%
%ADD11R,0.850000X0.950000*%
%ADD12R,0.600000X0.300000*%
%ADD13R,0.300000X0.600000*%
%ADD14R,0.550000X0.600000*%
%ADD15R,1.475000X0.450000*%
%ADD16R,2.310000X2.460000*%
%ADD17C,3.000000*%
%ADD18R,2.000000X3.050000*%
%ADD19R,2.450000X4.900000*%
%ADD20R,0.900000X0.900000*%
G04 APERTURE END LIST*
D10*
X-10925000Y-1100000D02*
X-10925000Y-2420000D01*
X-10925000Y-2900000D02*
X-10925000Y-4220000D01*
X-10925000Y-4700000D02*
X-10925000Y-6020000D01*
X-10925000Y-6500000D02*
X-10925000Y-6900000D01*
X-10925000Y-6900000D02*
X-9605000Y-6900000D01*
X-9125000Y-6900000D02*
X-7805000Y-6900000D01*
X-7325000Y-6900000D02*
X-6005000Y-6900000D01*
X-5525000Y-6900000D02*
X-4205000Y-6900000D01*
X-10783400Y9015600D02*
X-9850019Y8082219D01*
X-9510608Y7742808D02*
X-8577227Y6809427D01*
X-8237816Y6470016D02*
X-7304435Y5536635D01*
X-6965023Y5197223D02*
X-6031642Y4263842D01*
X-5692231Y3924431D02*
X-5203000Y3435200D01*
X-9015600Y10783400D02*
X-9948981Y9850019D01*
X-10288392Y9510608D02*
X-10783400Y9015600D01*
X-5904000Y675000D02*
X-5904000Y-645000D01*
X-5904000Y-675000D02*
X-4584000Y-675000D01*
X-4104000Y-675000D02*
X-3801000Y-675000D01*
X-5203000Y3435200D02*
X-5203000Y2115200D01*
X-5203000Y1635200D02*
X-5203000Y675000D01*
X-5203000Y675000D02*
X-5904000Y675000D01*
X-4075000Y-1100000D02*
X-5395000Y-1100000D01*
X-5875000Y-1100000D02*
X-7195000Y-1100000D01*
X-7675000Y-1100000D02*
X-8995000Y-1100000D01*
X-9475000Y-1100000D02*
X-10795000Y-1100000D01*
X-4075000Y-6900000D02*
X-4075000Y-5580000D01*
X-4075000Y-5100000D02*
X-4075000Y-3780000D01*
X-4075000Y-3300000D02*
X-4075000Y-1980000D01*
X-4075000Y-1500000D02*
X-4075000Y-1100000D01*
X-4000000Y9551000D02*
X-4000000Y8231000D01*
X-4000000Y7751000D02*
X-4000000Y6431000D01*
X-4000000Y5951000D02*
X-4000000Y5767800D01*
X-4000000Y5767800D02*
X-4933381Y6701181D01*
X-5272792Y7040592D02*
X-6206173Y7973973D01*
X-6545584Y8313384D02*
X-7478965Y9246765D01*
X-7818377Y9586177D02*
X-8751758Y10519558D01*
X-3801000Y-675000D02*
X-3801000Y-1995000D01*
X-3801000Y-2475000D02*
X-3801000Y-3795000D01*
X-3801000Y-4103000D02*
X-3450000Y-4103000D01*
X-3450000Y-4103000D02*
X-3450000Y-5423000D01*
X-3450000Y-5903000D02*
X-3450000Y-7223000D01*
X-3450000Y-7703000D02*
X-3450000Y-9023000D01*
X-3450000Y-9503000D02*
X-3450000Y-9704000D01*
X-3450000Y-9704000D02*
X-2130000Y-9704000D01*
X-1650000Y-9704000D02*
X-330000Y-9704000D01*
X150000Y-9704000D02*
X1470000Y-9704000D01*
X1950000Y-9704000D02*
X3270000Y-9704000D01*
X3750000Y-9704000D02*
X4700000Y-9704000D01*
X2950000Y2651000D02*
X4270000Y2651000D01*
X4750000Y2651000D02*
X6000000Y2651000D01*
X2950000Y2200000D02*
X2950000Y2651000D01*
X4700000Y-6467800D02*
X5633381Y-7401181D01*
X5972792Y-7740592D02*
X6906173Y-8673973D01*
X7245584Y-9013384D02*
X8178965Y-9946765D01*
X8518377Y-10286177D02*
X9015600Y-10783400D01*
X4700000Y-9704000D02*
X4700000Y-8384000D01*
X4700000Y-7904000D02*
X4700000Y-6584000D01*
X5052000Y2200000D02*
X3732000Y2200000D01*
X3252000Y2200000D02*
X2950000Y2200000D01*
X5052000Y-3284200D02*
X5052000Y-1964200D01*
X5052000Y-1484200D02*
X5052000Y-164200D01*
X5052000Y315800D02*
X5052000Y1635800D01*
X5052000Y2115800D02*
X5052000Y2200000D01*
X6000000Y9551000D02*
X4680000Y9551000D01*
X4200000Y9551000D02*
X2880000Y9551000D01*
X2400000Y9551000D02*
X1080000Y9551000D01*
X600000Y9551000D02*
X-720000Y9551000D01*
X-1200000Y9551000D02*
X-2520000Y9551000D01*
X-3000000Y9551000D02*
X-4000000Y9551000D01*
X6000000Y2651000D02*
X6000000Y3971000D01*
X6000000Y4451000D02*
X6000000Y5771000D01*
X6000000Y6251000D02*
X6000000Y7571000D01*
X6000000Y8051000D02*
X6000000Y9371000D01*
X9015600Y-10783400D02*
X9948981Y-9850019D01*
X10288392Y-9510608D02*
X10783400Y-9015600D01*
X10783400Y-9015600D02*
X9850019Y-8082219D01*
X9510608Y-7742808D02*
X8577227Y-6809427D01*
X8237816Y-6470016D02*
X7304435Y-5536635D01*
X6965023Y-5197223D02*
X6031642Y-4263842D01*
X5692231Y-3924431D02*
X5052000Y-3284200D01*
X-13683337Y18274240D02*
X-13607146Y18236144D01*
X-13607146Y18236144D02*
X-13454765Y18236144D01*
X-13454765Y18236144D02*
X-13378575Y18274240D01*
X-13378575Y18274240D02*
X-13340479Y18350430D01*
X-13340479Y18350430D02*
X-13340479Y18388525D01*
X-13340479Y18388525D02*
X-13378575Y18464716D01*
X-13378575Y18464716D02*
X-13454765Y18502811D01*
X-13454765Y18502811D02*
X-13569051Y18502811D01*
X-13569051Y18502811D02*
X-13645241Y18540906D01*
X-13645241Y18540906D02*
X-13683337Y18617097D01*
X-13683337Y18617097D02*
X-13683337Y18655192D01*
X-13683337Y18655192D02*
X-13645241Y18731382D01*
X-13645241Y18731382D02*
X-13569051Y18769478D01*
X-13569051Y18769478D02*
X-13454765Y18769478D01*
X-13454765Y18769478D02*
X-13378575Y18731382D01*
X-12997622Y18769478D02*
X-12997622Y17969478D01*
X-12997622Y18731382D02*
X-12921432Y18769478D01*
X-12921432Y18769478D02*
X-12769051Y18769478D01*
X-12769051Y18769478D02*
X-12692860Y18731382D01*
X-12692860Y18731382D02*
X-12654765Y18693287D01*
X-12654765Y18693287D02*
X-12616670Y18617097D01*
X-12616670Y18617097D02*
X-12616670Y18388525D01*
X-12616670Y18388525D02*
X-12654765Y18312335D01*
X-12654765Y18312335D02*
X-12692860Y18274240D01*
X-12692860Y18274240D02*
X-12769051Y18236144D01*
X-12769051Y18236144D02*
X-12921432Y18236144D01*
X-12921432Y18236144D02*
X-12997622Y18274240D01*
X-11930955Y18236144D02*
X-11930955Y18655192D01*
X-11930955Y18655192D02*
X-11969050Y18731382D01*
X-11969050Y18731382D02*
X-12045241Y18769478D01*
X-12045241Y18769478D02*
X-12197622Y18769478D01*
X-12197622Y18769478D02*
X-12273812Y18731382D01*
X-11930955Y18274240D02*
X-12007146Y18236144D01*
X-12007146Y18236144D02*
X-12197622Y18236144D01*
X-12197622Y18236144D02*
X-12273812Y18274240D01*
X-12273812Y18274240D02*
X-12311908Y18350430D01*
X-12311908Y18350430D02*
X-12311908Y18426620D01*
X-12311908Y18426620D02*
X-12273812Y18502811D01*
X-12273812Y18502811D02*
X-12197622Y18540906D01*
X-12197622Y18540906D02*
X-12007146Y18540906D01*
X-12007146Y18540906D02*
X-11930955Y18579001D01*
X-11207145Y18274240D02*
X-11283336Y18236144D01*
X-11283336Y18236144D02*
X-11435717Y18236144D01*
X-11435717Y18236144D02*
X-11511907Y18274240D01*
X-11511907Y18274240D02*
X-11550002Y18312335D01*
X-11550002Y18312335D02*
X-11588098Y18388525D01*
X-11588098Y18388525D02*
X-11588098Y18617097D01*
X-11588098Y18617097D02*
X-11550002Y18693287D01*
X-11550002Y18693287D02*
X-11511907Y18731382D01*
X-11511907Y18731382D02*
X-11435717Y18769478D01*
X-11435717Y18769478D02*
X-11283336Y18769478D01*
X-11283336Y18769478D02*
X-11207145Y18731382D01*
X-10559526Y18274240D02*
X-10635717Y18236144D01*
X-10635717Y18236144D02*
X-10788098Y18236144D01*
X-10788098Y18236144D02*
X-10864288Y18274240D01*
X-10864288Y18274240D02*
X-10902384Y18350430D01*
X-10902384Y18350430D02*
X-10902384Y18655192D01*
X-10902384Y18655192D02*
X-10864288Y18731382D01*
X-10864288Y18731382D02*
X-10788098Y18769478D01*
X-10788098Y18769478D02*
X-10635717Y18769478D01*
X-10635717Y18769478D02*
X-10559526Y18731382D01*
X-10559526Y18731382D02*
X-10521431Y18655192D01*
X-10521431Y18655192D02*
X-10521431Y18579001D01*
X-10521431Y18579001D02*
X-10902384Y18502811D01*
X-10178574Y18236144D02*
X-10178574Y18769478D01*
X-10178574Y18617097D02*
X-10140479Y18693287D01*
X-10140479Y18693287D02*
X-10102384Y18731382D01*
X-10102384Y18731382D02*
X-10026193Y18769478D01*
X-10026193Y18769478D02*
X-9950003Y18769478D01*
X-9873813Y18159954D02*
X-9264289Y18159954D01*
X-8730955Y18236144D02*
X-8730955Y18655192D01*
X-8730955Y18655192D02*
X-8769050Y18731382D01*
X-8769050Y18731382D02*
X-8845241Y18769478D01*
X-8845241Y18769478D02*
X-8997622Y18769478D01*
X-8997622Y18769478D02*
X-9073812Y18731382D01*
X-8730955Y18274240D02*
X-8807146Y18236144D01*
X-8807146Y18236144D02*
X-8997622Y18236144D01*
X-8997622Y18236144D02*
X-9073812Y18274240D01*
X-9073812Y18274240D02*
X-9111908Y18350430D01*
X-9111908Y18350430D02*
X-9111908Y18426620D01*
X-9111908Y18426620D02*
X-9073812Y18502811D01*
X-9073812Y18502811D02*
X-8997622Y18540906D01*
X-8997622Y18540906D02*
X-8807146Y18540906D01*
X-8807146Y18540906D02*
X-8730955Y18579001D01*
X-8007145Y18274240D02*
X-8083336Y18236144D01*
X-8083336Y18236144D02*
X-8235717Y18236144D01*
X-8235717Y18236144D02*
X-8311907Y18274240D01*
X-8311907Y18274240D02*
X-8350002Y18312335D01*
X-8350002Y18312335D02*
X-8388098Y18388525D01*
X-8388098Y18388525D02*
X-8388098Y18617097D01*
X-8388098Y18617097D02*
X-8350002Y18693287D01*
X-8350002Y18693287D02*
X-8311907Y18731382D01*
X-8311907Y18731382D02*
X-8235717Y18769478D01*
X-8235717Y18769478D02*
X-8083336Y18769478D01*
X-8083336Y18769478D02*
X-8007145Y18731382D01*
X-7778574Y18769478D02*
X-7473812Y18769478D01*
X-7664288Y19036144D02*
X-7664288Y18350430D01*
X-7664288Y18350430D02*
X-7626193Y18274240D01*
X-7626193Y18274240D02*
X-7550003Y18236144D01*
X-7550003Y18236144D02*
X-7473812Y18236144D01*
X-7207145Y18236144D02*
X-7207145Y18769478D01*
X-7207145Y19036144D02*
X-7245241Y18998049D01*
X-7245241Y18998049D02*
X-7207145Y18959954D01*
X-7207145Y18959954D02*
X-7169050Y18998049D01*
X-7169050Y18998049D02*
X-7207145Y19036144D01*
X-7207145Y19036144D02*
X-7207145Y18959954D01*
X-6902384Y18769478D02*
X-6711908Y18236144D01*
X-6711908Y18236144D02*
X-6521431Y18769478D01*
X-5873812Y18236144D02*
X-5873812Y18655192D01*
X-5873812Y18655192D02*
X-5911907Y18731382D01*
X-5911907Y18731382D02*
X-5988098Y18769478D01*
X-5988098Y18769478D02*
X-6140479Y18769478D01*
X-6140479Y18769478D02*
X-6216669Y18731382D01*
X-5873812Y18274240D02*
X-5950003Y18236144D01*
X-5950003Y18236144D02*
X-6140479Y18236144D01*
X-6140479Y18236144D02*
X-6216669Y18274240D01*
X-6216669Y18274240D02*
X-6254765Y18350430D01*
X-6254765Y18350430D02*
X-6254765Y18426620D01*
X-6254765Y18426620D02*
X-6216669Y18502811D01*
X-6216669Y18502811D02*
X-6140479Y18540906D01*
X-6140479Y18540906D02*
X-5950003Y18540906D01*
X-5950003Y18540906D02*
X-5873812Y18579001D01*
X-5607145Y18769478D02*
X-5302383Y18769478D01*
X-5492859Y19036144D02*
X-5492859Y18350430D01*
X-5492859Y18350430D02*
X-5454764Y18274240D01*
X-5454764Y18274240D02*
X-5378574Y18236144D01*
X-5378574Y18236144D02*
X-5302383Y18236144D01*
X-5035716Y18236144D02*
X-5035716Y18769478D01*
X-5035716Y19036144D02*
X-5073812Y18998049D01*
X-5073812Y18998049D02*
X-5035716Y18959954D01*
X-5035716Y18959954D02*
X-4997621Y18998049D01*
X-4997621Y18998049D02*
X-5035716Y19036144D01*
X-5035716Y19036144D02*
X-5035716Y18959954D01*
X-4540479Y18236144D02*
X-4616669Y18274240D01*
X-4616669Y18274240D02*
X-4654764Y18312335D01*
X-4654764Y18312335D02*
X-4692860Y18388525D01*
X-4692860Y18388525D02*
X-4692860Y18617097D01*
X-4692860Y18617097D02*
X-4654764Y18693287D01*
X-4654764Y18693287D02*
X-4616669Y18731382D01*
X-4616669Y18731382D02*
X-4540479Y18769478D01*
X-4540479Y18769478D02*
X-4426193Y18769478D01*
X-4426193Y18769478D02*
X-4350002Y18731382D01*
X-4350002Y18731382D02*
X-4311907Y18693287D01*
X-4311907Y18693287D02*
X-4273812Y18617097D01*
X-4273812Y18617097D02*
X-4273812Y18388525D01*
X-4273812Y18388525D02*
X-4311907Y18312335D01*
X-4311907Y18312335D02*
X-4350002Y18274240D01*
X-4350002Y18274240D02*
X-4426193Y18236144D01*
X-4426193Y18236144D02*
X-4540479Y18236144D01*
X-3930954Y18769478D02*
X-3930954Y18236144D01*
X-3930954Y18693287D02*
X-3892859Y18731382D01*
X-3892859Y18731382D02*
X-3816669Y18769478D01*
X-3816669Y18769478D02*
X-3702383Y18769478D01*
X-3702383Y18769478D02*
X-3626192Y18731382D01*
X-3626192Y18731382D02*
X-3588097Y18655192D01*
X-3588097Y18655192D02*
X-3588097Y18236144D01*
X-3397621Y18159954D02*
X-2788097Y18159954D01*
X-2597620Y18236144D02*
X-2597620Y18769478D01*
X-2597620Y19036144D02*
X-2635716Y18998049D01*
X-2635716Y18998049D02*
X-2597620Y18959954D01*
X-2597620Y18959954D02*
X-2559525Y18998049D01*
X-2559525Y18998049D02*
X-2597620Y19036144D01*
X-2597620Y19036144D02*
X-2597620Y18959954D01*
X-2216668Y18769478D02*
X-2216668Y18236144D01*
X-2216668Y18693287D02*
X-2178573Y18731382D01*
X-2178573Y18731382D02*
X-2102383Y18769478D01*
X-2102383Y18769478D02*
X-1988097Y18769478D01*
X-1988097Y18769478D02*
X-1911906Y18731382D01*
X-1911906Y18731382D02*
X-1873811Y18655192D01*
X-1873811Y18655192D02*
X-1873811Y18236144D01*
X-1607144Y18769478D02*
X-1302382Y18769478D01*
X-1492858Y19036144D02*
X-1492858Y18350430D01*
X-1492858Y18350430D02*
X-1454763Y18274240D01*
X-1454763Y18274240D02*
X-1378573Y18236144D01*
X-1378573Y18236144D02*
X-1302382Y18236144D01*
X-730953Y18274240D02*
X-807144Y18236144D01*
X-807144Y18236144D02*
X-959525Y18236144D01*
X-959525Y18236144D02*
X-1035715Y18274240D01*
X-1035715Y18274240D02*
X-1073811Y18350430D01*
X-1073811Y18350430D02*
X-1073811Y18655192D01*
X-1073811Y18655192D02*
X-1035715Y18731382D01*
X-1035715Y18731382D02*
X-959525Y18769478D01*
X-959525Y18769478D02*
X-807144Y18769478D01*
X-807144Y18769478D02*
X-730953Y18731382D01*
X-730953Y18731382D02*
X-692858Y18655192D01*
X-692858Y18655192D02*
X-692858Y18579001D01*
X-692858Y18579001D02*
X-1073811Y18502811D01*
X-350001Y18236144D02*
X-350001Y18769478D01*
X-350001Y18617097D02*
X-311906Y18693287D01*
X-311906Y18693287D02*
X-273811Y18731382D01*
X-273811Y18731382D02*
X-197620Y18769478D01*
X-197620Y18769478D02*
X-121430Y18769478D01*
X30950Y18769478D02*
X335712Y18769478D01*
X145236Y18236144D02*
X145236Y18921859D01*
X145236Y18921859D02*
X183331Y18998049D01*
X183331Y18998049D02*
X259521Y19036144D01*
X259521Y19036144D02*
X335712Y19036144D01*
X945236Y18236144D02*
X945236Y18655192D01*
X945236Y18655192D02*
X907141Y18731382D01*
X907141Y18731382D02*
X830950Y18769478D01*
X830950Y18769478D02*
X678569Y18769478D01*
X678569Y18769478D02*
X602379Y18731382D01*
X945236Y18274240D02*
X869045Y18236144D01*
X869045Y18236144D02*
X678569Y18236144D01*
X678569Y18236144D02*
X602379Y18274240D01*
X602379Y18274240D02*
X564283Y18350430D01*
X564283Y18350430D02*
X564283Y18426620D01*
X564283Y18426620D02*
X602379Y18502811D01*
X602379Y18502811D02*
X678569Y18540906D01*
X678569Y18540906D02*
X869045Y18540906D01*
X869045Y18540906D02*
X945236Y18579001D01*
X1669046Y18274240D02*
X1592855Y18236144D01*
X1592855Y18236144D02*
X1440474Y18236144D01*
X1440474Y18236144D02*
X1364284Y18274240D01*
X1364284Y18274240D02*
X1326189Y18312335D01*
X1326189Y18312335D02*
X1288093Y18388525D01*
X1288093Y18388525D02*
X1288093Y18617097D01*
X1288093Y18617097D02*
X1326189Y18693287D01*
X1326189Y18693287D02*
X1364284Y18731382D01*
X1364284Y18731382D02*
X1440474Y18769478D01*
X1440474Y18769478D02*
X1592855Y18769478D01*
X1592855Y18769478D02*
X1669046Y18731382D01*
X2316665Y18274240D02*
X2240474Y18236144D01*
X2240474Y18236144D02*
X2088093Y18236144D01*
X2088093Y18236144D02*
X2011903Y18274240D01*
X2011903Y18274240D02*
X1973807Y18350430D01*
X1973807Y18350430D02*
X1973807Y18655192D01*
X1973807Y18655192D02*
X2011903Y18731382D01*
X2011903Y18731382D02*
X2088093Y18769478D01*
X2088093Y18769478D02*
X2240474Y18769478D01*
X2240474Y18769478D02*
X2316665Y18731382D01*
X2316665Y18731382D02*
X2354760Y18655192D01*
X2354760Y18655192D02*
X2354760Y18579001D01*
X2354760Y18579001D02*
X1973807Y18502811D01*
X2507141Y18159954D02*
X3116664Y18159954D01*
X3649998Y18274240D02*
X3573807Y18236144D01*
X3573807Y18236144D02*
X3421426Y18236144D01*
X3421426Y18236144D02*
X3345236Y18274240D01*
X3345236Y18274240D02*
X3307141Y18312335D01*
X3307141Y18312335D02*
X3269045Y18388525D01*
X3269045Y18388525D02*
X3269045Y18617097D01*
X3269045Y18617097D02*
X3307141Y18693287D01*
X3307141Y18693287D02*
X3345236Y18731382D01*
X3345236Y18731382D02*
X3421426Y18769478D01*
X3421426Y18769478D02*
X3573807Y18769478D01*
X3573807Y18769478D02*
X3649998Y18731382D01*
X4297617Y18274240D02*
X4221426Y18236144D01*
X4221426Y18236144D02*
X4069045Y18236144D01*
X4069045Y18236144D02*
X3992855Y18274240D01*
X3992855Y18274240D02*
X3954759Y18350430D01*
X3954759Y18350430D02*
X3954759Y18655192D01*
X3954759Y18655192D02*
X3992855Y18731382D01*
X3992855Y18731382D02*
X4069045Y18769478D01*
X4069045Y18769478D02*
X4221426Y18769478D01*
X4221426Y18769478D02*
X4297617Y18731382D01*
X4297617Y18731382D02*
X4335712Y18655192D01*
X4335712Y18655192D02*
X4335712Y18579001D01*
X4335712Y18579001D02*
X3954759Y18502811D01*
X4792854Y18236144D02*
X4716664Y18274240D01*
X4716664Y18274240D02*
X4678569Y18350430D01*
X4678569Y18350430D02*
X4678569Y19036144D01*
X5211902Y18236144D02*
X5135712Y18274240D01*
X5135712Y18274240D02*
X5097617Y18350430D01*
X5097617Y18350430D02*
X5097617Y19036144D01*
X5326189Y18159954D02*
X5935712Y18159954D01*
X6011903Y18769478D02*
X6316665Y18769478D01*
X6126189Y18236144D02*
X6126189Y18921859D01*
X6126189Y18921859D02*
X6164284Y18998049D01*
X6164284Y18998049D02*
X6240474Y19036144D01*
X6240474Y19036144D02*
X6316665Y19036144D01*
X6697617Y18236144D02*
X6621427Y18274240D01*
X6621427Y18274240D02*
X6583332Y18350430D01*
X6583332Y18350430D02*
X6583332Y19036144D01*
X7116665Y18236144D02*
X7040475Y18274240D01*
X7040475Y18274240D02*
X7002380Y18312335D01*
X7002380Y18312335D02*
X6964284Y18388525D01*
X6964284Y18388525D02*
X6964284Y18617097D01*
X6964284Y18617097D02*
X7002380Y18693287D01*
X7002380Y18693287D02*
X7040475Y18731382D01*
X7040475Y18731382D02*
X7116665Y18769478D01*
X7116665Y18769478D02*
X7230951Y18769478D01*
X7230951Y18769478D02*
X7307142Y18731382D01*
X7307142Y18731382D02*
X7345237Y18693287D01*
X7345237Y18693287D02*
X7383332Y18617097D01*
X7383332Y18617097D02*
X7383332Y18388525D01*
X7383332Y18388525D02*
X7345237Y18312335D01*
X7345237Y18312335D02*
X7307142Y18274240D01*
X7307142Y18274240D02*
X7230951Y18236144D01*
X7230951Y18236144D02*
X7116665Y18236144D01*
X7840475Y18236144D02*
X7764285Y18274240D01*
X7764285Y18274240D02*
X7726190Y18312335D01*
X7726190Y18312335D02*
X7688094Y18388525D01*
X7688094Y18388525D02*
X7688094Y18617097D01*
X7688094Y18617097D02*
X7726190Y18693287D01*
X7726190Y18693287D02*
X7764285Y18731382D01*
X7764285Y18731382D02*
X7840475Y18769478D01*
X7840475Y18769478D02*
X7954761Y18769478D01*
X7954761Y18769478D02*
X8030952Y18731382D01*
X8030952Y18731382D02*
X8069047Y18693287D01*
X8069047Y18693287D02*
X8107142Y18617097D01*
X8107142Y18617097D02*
X8107142Y18388525D01*
X8107142Y18388525D02*
X8069047Y18312335D01*
X8069047Y18312335D02*
X8030952Y18274240D01*
X8030952Y18274240D02*
X7954761Y18236144D01*
X7954761Y18236144D02*
X7840475Y18236144D01*
X8450000Y18236144D02*
X8450000Y18769478D01*
X8450000Y18617097D02*
X8488095Y18693287D01*
X8488095Y18693287D02*
X8526190Y18731382D01*
X8526190Y18731382D02*
X8602381Y18769478D01*
X8602381Y18769478D02*
X8678571Y18769478D01*
X8754762Y18159954D02*
X9364285Y18159954D01*
X9554762Y18236144D02*
X9554762Y19036144D01*
X9554762Y18731382D02*
X9630952Y18769478D01*
X9630952Y18769478D02*
X9783333Y18769478D01*
X9783333Y18769478D02*
X9859524Y18731382D01*
X9859524Y18731382D02*
X9897619Y18693287D01*
X9897619Y18693287D02*
X9935714Y18617097D01*
X9935714Y18617097D02*
X9935714Y18388525D01*
X9935714Y18388525D02*
X9897619Y18312335D01*
X9897619Y18312335D02*
X9859524Y18274240D01*
X9859524Y18274240D02*
X9783333Y18236144D01*
X9783333Y18236144D02*
X9630952Y18236144D01*
X9630952Y18236144D02*
X9554762Y18274240D01*
X10392857Y18236144D02*
X10316667Y18274240D01*
X10316667Y18274240D02*
X10278572Y18312335D01*
X10278572Y18312335D02*
X10240476Y18388525D01*
X10240476Y18388525D02*
X10240476Y18617097D01*
X10240476Y18617097D02*
X10278572Y18693287D01*
X10278572Y18693287D02*
X10316667Y18731382D01*
X10316667Y18731382D02*
X10392857Y18769478D01*
X10392857Y18769478D02*
X10507143Y18769478D01*
X10507143Y18769478D02*
X10583334Y18731382D01*
X10583334Y18731382D02*
X10621429Y18693287D01*
X10621429Y18693287D02*
X10659524Y18617097D01*
X10659524Y18617097D02*
X10659524Y18388525D01*
X10659524Y18388525D02*
X10621429Y18312335D01*
X10621429Y18312335D02*
X10583334Y18274240D01*
X10583334Y18274240D02*
X10507143Y18236144D01*
X10507143Y18236144D02*
X10392857Y18236144D01*
X11345239Y18236144D02*
X11345239Y18655192D01*
X11345239Y18655192D02*
X11307144Y18731382D01*
X11307144Y18731382D02*
X11230953Y18769478D01*
X11230953Y18769478D02*
X11078572Y18769478D01*
X11078572Y18769478D02*
X11002382Y18731382D01*
X11345239Y18274240D02*
X11269048Y18236144D01*
X11269048Y18236144D02*
X11078572Y18236144D01*
X11078572Y18236144D02*
X11002382Y18274240D01*
X11002382Y18274240D02*
X10964286Y18350430D01*
X10964286Y18350430D02*
X10964286Y18426620D01*
X10964286Y18426620D02*
X11002382Y18502811D01*
X11002382Y18502811D02*
X11078572Y18540906D01*
X11078572Y18540906D02*
X11269048Y18540906D01*
X11269048Y18540906D02*
X11345239Y18579001D01*
X11726192Y18236144D02*
X11726192Y18769478D01*
X11726192Y18617097D02*
X11764287Y18693287D01*
X11764287Y18693287D02*
X11802382Y18731382D01*
X11802382Y18731382D02*
X11878573Y18769478D01*
X11878573Y18769478D02*
X11954763Y18769478D01*
X12564287Y18236144D02*
X12564287Y19036144D01*
X12564287Y18274240D02*
X12488096Y18236144D01*
X12488096Y18236144D02*
X12335715Y18236144D01*
X12335715Y18236144D02*
X12259525Y18274240D01*
X12259525Y18274240D02*
X12221430Y18312335D01*
X12221430Y18312335D02*
X12183334Y18388525D01*
X12183334Y18388525D02*
X12183334Y18617097D01*
X12183334Y18617097D02*
X12221430Y18693287D01*
X12221430Y18693287D02*
X12259525Y18731382D01*
X12259525Y18731382D02*
X12335715Y18769478D01*
X12335715Y18769478D02*
X12488096Y18769478D01*
X12488096Y18769478D02*
X12564287Y18731382D01*
X13897621Y18274240D02*
X13821430Y18236144D01*
X13821430Y18236144D02*
X13669049Y18236144D01*
X13669049Y18236144D02*
X13592859Y18274240D01*
X13592859Y18274240D02*
X13554764Y18312335D01*
X13554764Y18312335D02*
X13516668Y18388525D01*
X13516668Y18388525D02*
X13516668Y18617097D01*
X13516668Y18617097D02*
X13554764Y18693287D01*
X13554764Y18693287D02*
X13592859Y18731382D01*
X13592859Y18731382D02*
X13669049Y18769478D01*
X13669049Y18769478D02*
X13821430Y18769478D01*
X13821430Y18769478D02*
X13897621Y18731382D01*
X14583335Y18769478D02*
X14583335Y18236144D01*
X14240478Y18769478D02*
X14240478Y18350430D01*
X14240478Y18350430D02*
X14278573Y18274240D01*
X14278573Y18274240D02*
X14354763Y18236144D01*
X14354763Y18236144D02*
X14469049Y18236144D01*
X14469049Y18236144D02*
X14545240Y18274240D01*
X14545240Y18274240D02*
X14583335Y18312335D01*
X14850002Y18769478D02*
X15154764Y18769478D01*
X14964288Y19036144D02*
X14964288Y18350430D01*
X14964288Y18350430D02*
X15002383Y18274240D01*
X15002383Y18274240D02*
X15078573Y18236144D01*
X15078573Y18236144D02*
X15154764Y18236144D01*
X15535716Y18236144D02*
X15459526Y18274240D01*
X15459526Y18274240D02*
X15421431Y18312335D01*
X15421431Y18312335D02*
X15383335Y18388525D01*
X15383335Y18388525D02*
X15383335Y18617097D01*
X15383335Y18617097D02*
X15421431Y18693287D01*
X15421431Y18693287D02*
X15459526Y18731382D01*
X15459526Y18731382D02*
X15535716Y18769478D01*
X15535716Y18769478D02*
X15650002Y18769478D01*
X15650002Y18769478D02*
X15726193Y18731382D01*
X15726193Y18731382D02*
X15764288Y18693287D01*
X15764288Y18693287D02*
X15802383Y18617097D01*
X15802383Y18617097D02*
X15802383Y18388525D01*
X15802383Y18388525D02*
X15764288Y18312335D01*
X15764288Y18312335D02*
X15726193Y18274240D01*
X15726193Y18274240D02*
X15650002Y18236144D01*
X15650002Y18236144D02*
X15535716Y18236144D01*
X16488098Y18769478D02*
X16488098Y18236144D01*
X16145241Y18769478D02*
X16145241Y18350430D01*
X16145241Y18350430D02*
X16183336Y18274240D01*
X16183336Y18274240D02*
X16259526Y18236144D01*
X16259526Y18236144D02*
X16373812Y18236144D01*
X16373812Y18236144D02*
X16450003Y18274240D01*
X16450003Y18274240D02*
X16488098Y18312335D01*
X16754765Y18769478D02*
X17059527Y18769478D01*
X16869051Y19036144D02*
X16869051Y18350430D01*
X16869051Y18350430D02*
X16907146Y18274240D01*
X16907146Y18274240D02*
X16983336Y18236144D01*
X16983336Y18236144D02*
X17059527Y18236144D01*
%LPC*%
D11*
%TO.C,C_FIRE_OUT_1*%
X-175000Y-1326000D03*
X1425000Y-1326000D03*
%TD*%
D12*
%TO.C,U_HACC*%
X-200000Y0D03*
X-200000Y500000D03*
X-200000Y1000000D03*
X-200000Y1500000D03*
X-200000Y2000000D03*
D13*
X500000Y2200000D03*
X1000000Y2200000D03*
X1500000Y2200000D03*
D12*
X2200000Y2000000D03*
X2200000Y1500000D03*
X2200000Y1000000D03*
X2200000Y500000D03*
X2200000Y0D03*
D13*
X1500000Y-200000D03*
X1000000Y-200000D03*
X500000Y-200000D03*
%TD*%
D11*
%TO.C,C_FIRE_IN_1*%
X-3026000Y-3428000D03*
X-1426000Y-3428000D03*
%TD*%
%TO.C,C_HACC2_5*%
X-5129000Y0D03*
X-3529000Y0D03*
%TD*%
D14*
%TO.C,R_FIRE_FB2*%
X-2076000Y2450000D03*
X-1126000Y2450000D03*
%TD*%
D11*
%TO.C,C_HACC2_2*%
X-175000Y-2377000D03*
X1425000Y-2377000D03*
%TD*%
D14*
%TO.C,C_FIRE_SS*%
X-1852000Y-475000D03*
X-1852000Y475000D03*
%TD*%
%TO.C,R_FIRE_COMP*%
X-3677000Y2450000D03*
X-2727000Y2450000D03*
%TD*%
%TO.C,C_HACC1*%
X-1151000Y-475000D03*
X-1151000Y475000D03*
%TD*%
D15*
%TO.C,U_FIRE_BOOST*%
X-2313000Y-8704000D03*
X-2313000Y-8054000D03*
X-2313000Y-7404000D03*
X-2313000Y-6754000D03*
X-2313000Y-6104000D03*
X-2313000Y-5454000D03*
X-2313000Y-4804000D03*
X3563000Y-4804000D03*
X3563000Y-5454000D03*
X3563000Y-6104000D03*
X3563000Y-6754000D03*
X3563000Y-7404000D03*
X3563000Y-8054000D03*
X3563000Y-8704000D03*
D16*
X625000Y-6754000D03*
%TD*%
D17*
%TO.C,MECH1*%
X9899500Y-9899500D03*
%TD*%
D11*
%TO.C,C_FIRE_IN_2*%
X-3026000Y-2377000D03*
X-1426000Y-2377000D03*
%TD*%
%TO.C,C_HACC2_1*%
X-3026000Y-1326000D03*
X-1426000Y-1326000D03*
%TD*%
%TO.C,C_FIRE_OUT_2*%
X4377000Y-175000D03*
X4377000Y1425000D03*
%TD*%
D18*
%TO.C,D_FIRE*%
X-2600000Y6101000D03*
X4600000Y6101000D03*
%TD*%
D11*
%TO.C,C_FIRE_IN_5*%
X-4528000Y1650000D03*
X-4528000Y3250000D03*
%TD*%
D19*
%TO.C,L_FIRE*%
X-9010000Y-4010000D03*
X-5410000Y-4010000D03*
%TD*%
D14*
%TO.C,R_FIRE_FB1*%
X3501000Y-2076000D03*
X3501000Y-1126000D03*
%TD*%
D20*
%TO.C,J_activation_interface_spacer_activation_interface_cell_floor_board*%
X13950000Y-5950000D03*
X13950000Y-4350000D03*
X13950000Y-2750000D03*
X13950000Y-1150000D03*
X13950000Y450000D03*
X13950000Y2050000D03*
X13950000Y3650000D03*
X13950000Y5250000D03*
X12350000Y-5950000D03*
X12350000Y-4350000D03*
X12350000Y-2750000D03*
X12350000Y-1150000D03*
X12350000Y450000D03*
X12350000Y2050000D03*
X12350000Y3650000D03*
X12350000Y5250000D03*
X12350000Y6850000D03*
X12350000Y8450000D03*
X10750000Y-5950000D03*
X10750000Y-4350000D03*
X10750000Y-2750000D03*
X10750000Y-1150000D03*
X10750000Y450000D03*
X10750000Y2050000D03*
X10750000Y3650000D03*
X10750000Y5250000D03*
X10750000Y6850000D03*
X10750000Y8450000D03*
X10750000Y10050000D03*
X9150000Y-5950000D03*
X9150000Y-4350000D03*
X9150000Y-2750000D03*
X9150000Y-1150000D03*
X9150000Y450000D03*
X9150000Y2050000D03*
X9150000Y3650000D03*
X9150000Y5250000D03*
X9150000Y6850000D03*
X9150000Y8450000D03*
X9150000Y10050000D03*
X9150000Y11650000D03*
X7550000Y-4350000D03*
X7550000Y-2750000D03*
X7550000Y-1150000D03*
X7550000Y450000D03*
X7550000Y2050000D03*
X7550000Y3650000D03*
X7550000Y5250000D03*
X7550000Y6850000D03*
X7550000Y8450000D03*
X7550000Y10050000D03*
X7550000Y11650000D03*
X7550000Y13250000D03*
X5950000Y-13950000D03*
X5950000Y-12350000D03*
X5950000Y-10750000D03*
X5950000Y-9150000D03*
X5950000Y-2750000D03*
X5950000Y-1150000D03*
X5950000Y450000D03*
X5950000Y11650000D03*
X5950000Y13250000D03*
X4350000Y-13950000D03*
X4350000Y-12350000D03*
X4350000Y-10750000D03*
X4350000Y11650000D03*
X4350000Y13250000D03*
X2750000Y-13950000D03*
X2750000Y-12350000D03*
X2750000Y-10750000D03*
X2750000Y11650000D03*
X2750000Y13250000D03*
X2750000Y14850000D03*
X1150000Y-13950000D03*
X1150000Y-12350000D03*
X1150000Y-10750000D03*
X1150000Y11650000D03*
X1150000Y13250000D03*
X1150000Y14850000D03*
X-450000Y-13950000D03*
X-450000Y-12350000D03*
X-450000Y-10750000D03*
X-450000Y11650000D03*
X-450000Y13250000D03*
X-450000Y14850000D03*
X-2050000Y-13950000D03*
X-2050000Y-12350000D03*
X-2050000Y-10750000D03*
X-2050000Y11650000D03*
X-2050000Y13250000D03*
X-2050000Y14850000D03*
X-3650000Y-13950000D03*
X-3650000Y-12350000D03*
X-3650000Y-10750000D03*
X-3650000Y11650000D03*
X-3650000Y13250000D03*
X-3650000Y14850000D03*
X-5250000Y-13950000D03*
X-5250000Y-12350000D03*
X-5250000Y-10750000D03*
X-5250000Y-9150000D03*
X-5250000Y8450000D03*
X-5250000Y10050000D03*
X-5250000Y11650000D03*
X-5250000Y13250000D03*
X-6850000Y-12350000D03*
X-6850000Y-10750000D03*
X-6850000Y-9150000D03*
X-6850000Y450000D03*
X-6850000Y2050000D03*
X-6850000Y3650000D03*
X-6850000Y13250000D03*
X-8450000Y-12350000D03*
X-8450000Y-10750000D03*
X-8450000Y-9150000D03*
X-8450000Y450000D03*
X-8450000Y2050000D03*
X-8450000Y3650000D03*
X-8450000Y5250000D03*
X-10050000Y-10750000D03*
X-10050000Y-9150000D03*
X-10050000Y450000D03*
X-10050000Y2050000D03*
X-10050000Y3650000D03*
X-10050000Y5250000D03*
X-11650000Y-9150000D03*
X-11650000Y-7550000D03*
X-11650000Y450000D03*
X-11650000Y2050000D03*
X-11650000Y3650000D03*
X-11650000Y5250000D03*
X-13250000Y-7550000D03*
X-13250000Y-5950000D03*
X-13250000Y-4350000D03*
X-13250000Y-2750000D03*
X-13250000Y-1150000D03*
X-13250000Y450000D03*
X-13250000Y2050000D03*
X-13250000Y3650000D03*
X-13250000Y5250000D03*
X-13250000Y6850000D03*
X-14850000Y-2750000D03*
X-14850000Y-1150000D03*
X-14850000Y450000D03*
X-14850000Y2050000D03*
X-14850000Y3650000D03*
%TD*%
D14*
%TO.C,R_FIRE_FREQ*%
X-2553000Y-475000D03*
X-2553000Y475000D03*
%TD*%
D11*
%TO.C,C_HACC2_3*%
X2576000Y-3177000D03*
X2576000Y-1577000D03*
%TD*%
%TO.C,C_FIRE_IN_3*%
X3326000Y-175000D03*
X3326000Y1425000D03*
%TD*%
%TO.C,C_FIRE_COMP*%
X-3026000Y1326000D03*
X-1426000Y1326000D03*
%TD*%
D17*
%TO.C,MECH2*%
X-9899500Y9899500D03*
%TD*%
D11*
%TO.C,C_FIRE_IN_4*%
X4377000Y-3026000D03*
X4377000Y-1426000D03*
%TD*%
%TO.C,C_HACC2_4*%
X-175000Y-3428000D03*
X1425000Y-3428000D03*
%TD*%
%LPD*%
M02*
