M48
; DRILL file KiCad 10.0.3 date 2026-09-02T13:33:34
; FORMAT={-:-/ absolute / metric / decimal}
; #@! TF.CreationDate,2026-09-02T13:33:34+02:00
; #@! TF.GenerationSoftware,Kicad,Pcbnew,10.0.3
; #@! TF.FileFunction,Plated,1,14,PTH
FMAT,2
METRIC
; #@! TA.AperFunction,Plated,PTH,ViaDrill
T1C0.200
%
G90
G05
T1
X-11.411Y2.85
X-6.67Y-0.6
X-5.93Y1.15
X-5.58Y1.95
X-5.318Y-7.519
X-5.005Y12.45
X-4.82Y-8.2
X-4.13Y4.28
X-3.77Y-7.09
X-2.6Y7.933
X-2.163Y1.837
X-0.465Y3.003
X0.394Y11.082
X0.476Y-13.276
X0.5Y3.01
X0.563Y-1.363
X1.45Y3.55
X2.75Y6.097
X3.294Y4.971
X3.48Y0.45
X3.504Y9.873
X3.507Y2.354
X3.512Y14.85
X3.512Y-10.849
X3.516Y8.45
X3.66Y11.01
X4.35Y10.884
X4.35Y-9.982
X4.85Y-5.51
X5.05Y-4.4
X5.112Y12.673
X5.187Y-2.218
X5.22Y-7.58
X5.49Y-5.76
X5.95Y-8.396
X6.35Y3.67
X6.707Y-13.95
X6.709Y-12.232
X6.715Y-11.329
X6.721Y-13.375
X6.75Y12.45
X6.789Y9.621
X8.125Y6.003
X8.125Y1.207
X8.303Y13.25
X8.312Y12.673
X8.396Y-4.528
X8.397Y-5.95
X8.877Y9.244
X8.91Y10.81
X9.419Y-6.704
X9.549Y1.213
X9.6Y4.46
X9.737Y6.058
X9.922Y-2.664
X9.987Y8.197
X9.991Y9.857
X9.995Y2.105
X10.076Y2.976
X10.407Y-5.105
X10.518Y-0.308
X10.75Y4.491
X10.75Y-1.976
X10.75Y-3.594
X11.492Y9.462
X11.503Y6.698
X11.506Y10.148
X11.594Y-0.127
X11.659Y4.611
X11.773Y-6.704
X11.856Y7.695
X12.033Y-3.588
X12.327Y4.497
X12.431Y-6.708
X12.683Y-0.312
X12.991Y-2.063
X13.108Y6.275
X13.109Y2.387
X13.111Y8.45
X13.191Y-2.907
X13.307Y1.28
X13.373Y-3.595
X13.72Y-0.35
X14.0Y-5.91
X14.567Y1.305
X14.708Y3.832
X14.71Y-2.879
X14.71Y-1.334
M30
