%TF.GenerationSoftware,KiCad,Pcbnew,10.0.3*%
%TF.CreationDate,2026-09-02T13:33:33+02:00*%
%TF.ProjectId,activation_interface,61637469-7661-4746-996f-6e5f696e7465,rev?*%
%TF.SameCoordinates,Original*%
%TF.FileFunction,Copper,L3,Inr*%
%TF.FilePolarity,Positive*%
%FSLAX46Y46*%
G04 Gerber Fmt 4.6, Leading zero omitted, Abs format (unit mm)*
G04 Created by KiCad (PCBNEW 10.0.3) date 2026-09-02 13:33:33*
%MOMM*%
%LPD*%
G01*
G04 APERTURE LIST*
%TA.AperFunction,ViaPad*%
%ADD10C,0.450000*%
%TD*%
G04 APERTURE END LIST*
D10*
%TO.N,FIRE_HV*%
X562600Y-1363400D03*
X-2600000Y7933000D03*
X6788600Y9621300D03*
%TO.N,FLEX_GND*%
X1450000Y3550000D03*
X-11411400Y2850000D03*
X-5005300Y12450000D03*
X6750000Y12450000D03*
%TO.N,3V3*%
X6350000Y3670000D03*
X9600000Y4460000D03*
X3660000Y11010000D03*
X14000000Y-5910000D03*
X-6670000Y-600000D03*
X8910000Y10810000D03*
%TO.N,I2C3_SCL*%
X-464900Y3002700D03*
X10076100Y2976100D03*
%TO.N,I2C3_SDA*%
X500000Y3009500D03*
X10750000Y4491200D03*
%TO.N,H3LIS_INT1*%
X9995200Y2105100D03*
X3507000Y2354400D03*
%TO.N,COMP_5V*%
X-4820000Y-8200000D03*
X-5580000Y1950000D03*
X393900Y11082200D03*
X3480000Y450000D03*
X5050000Y-4400000D03*
X-3770000Y-7090000D03*
X12327200Y4496700D03*
%TO.N,FIRE_FB*%
X-2163500Y1837100D03*
X4850000Y-5510000D03*
X5186700Y-2217700D03*
%TO.N,FIRE_COMP*%
X-4130000Y4280000D03*
X5490000Y-5760000D03*
%TO.N,FIRE_SW*%
X-5317800Y-7519200D03*
X3294500Y4971400D03*
%TO.N,FIRE_FREQ*%
X-5930000Y1150000D03*
X5220000Y-7580000D03*
%TO.N,3V3_AON*%
X13373300Y-3595500D03*
X13107800Y6274800D03*
X4350000Y10884000D03*
%TO.N,ACTIVATE_CONFIRM*%
X14709700Y-2878900D03*
%TO.N,ACTIVATE_SET*%
X14710500Y-1333800D03*
%TO.N,BAT_PROT*%
X9736700Y6057600D03*
X12682900Y-312500D03*
X3512200Y14850000D03*
%TO.N,BAT_RAW*%
X475600Y-13275600D03*
X14566700Y1305100D03*
X8877400Y9243600D03*
%TO.N,BOOT0*%
X14708500Y3831800D03*
%TO.N,COMP_SWDCLK*%
X12431000Y-6708500D03*
%TO.N,COMP_SWDIO*%
X11773300Y-6704000D03*
%TO.N,EXT_CAN_RX*%
X13190700Y-2906900D03*
%TO.N,EXT_CAN_TX*%
X13111300Y8450000D03*
X13720200Y-350000D03*
%TO.N,FIN1_AOUT1*%
X9419300Y-6704000D03*
X11593900Y-126700D03*
%TO.N,FIN2_AOUT1*%
X12032900Y-3587900D03*
X13307100Y1280300D03*
%TO.N,FIN3_AOUT1*%
X12990800Y-2063500D03*
X13108800Y2386600D03*
%TO.N,FIN4_AOUT1*%
X11855700Y7695200D03*
X11658800Y4611200D03*
%TO.N,FIN_HALL*%
X11503300Y6697600D03*
X11505600Y10148300D03*
%TO.N,FIN_VREF*%
X11492000Y9461600D03*
%TO.N,GPIO_EXT_0*%
X10750000Y-3593800D03*
X8303400Y13250000D03*
%TO.N,GPIO_EXT_1*%
X9922500Y-2664200D03*
X6706900Y-13950000D03*
%TO.N,GPIO_EXT_2*%
X10750000Y-1975900D03*
X6709500Y-12231800D03*
%TO.N,GPIO_EXT_3*%
X10517500Y-308100D03*
X5950000Y-8396500D03*
%TO.N,JUMP_WAKE*%
X8311700Y12673300D03*
%TO.N,NRST*%
X9986600Y8197500D03*
X6720600Y-13374800D03*
%TO.N,SWO*%
X6715400Y-11329000D03*
X9991200Y9857300D03*
%TO.N,SYS_I2C_SCL*%
X4350000Y-9982400D03*
X8397300Y-5950000D03*
%TO.N,SYS_I2C_SDA*%
X8395700Y-4527600D03*
X5112200Y12673300D03*
%TO.N,SYS_SPI_CS_FIN*%
X10407300Y-5104600D03*
X3512500Y-10849300D03*
%TO.N,SYS_SPI_MISO*%
X2750000Y6097300D03*
X8125200Y1207000D03*
%TO.N,SYS_SPI_MOSI*%
X9548800Y1213000D03*
X3516400Y8450000D03*
%TO.N,SYS_SPI_SCLK*%
X3503700Y9873000D03*
X8125200Y6003500D03*
%TD*%
%TA.AperFunction,Conductor*%
%TO.N,3V3*%
G36*
X169216Y16494465D02*
G01*
X182563Y16494028D01*
X877511Y16471296D01*
X879541Y16471213D01*
X1142813Y16458280D01*
X1148891Y16457831D01*
X2085201Y16365550D01*
X2091234Y16364806D01*
X2348013Y16326716D01*
X2350008Y16326403D01*
X3051109Y16210705D01*
X3055111Y16209977D01*
X3380999Y16145153D01*
X3384967Y16144296D01*
X4073962Y15983630D01*
X4075932Y15983154D01*
X4331463Y15919146D01*
X4337334Y15917521D01*
X5237790Y15644326D01*
X5243563Y15642418D01*
X5488019Y15554950D01*
X5489921Y15554252D01*
X6156116Y15303531D01*
X6159893Y15302039D01*
X6464685Y15175790D01*
X6468406Y15174177D01*
X7114638Y14881385D01*
X7116481Y14880532D01*
X7353905Y14768238D01*
X7359345Y14765499D01*
X8188968Y14322024D01*
X8194260Y14319026D01*
X8417246Y14185372D01*
X8418980Y14184313D01*
X9024268Y13807898D01*
X9027676Y13805701D01*
X9300125Y13623656D01*
X9303457Y13621350D01*
X9882276Y13206609D01*
X9883920Y13205411D01*
X10093522Y13049959D01*
X10098317Y13046216D01*
X10825053Y12449833D01*
X10829664Y12445856D01*
X11025389Y12268462D01*
X11026879Y12267089D01*
X11542701Y11783992D01*
X11545619Y11781168D01*
X11781168Y11545619D01*
X11783992Y11542701D01*
X12267089Y11026879D01*
X12268462Y11025389D01*
X12445856Y10829664D01*
X12449833Y10825053D01*
X13046216Y10098317D01*
X13049959Y10093522D01*
X13205411Y9883920D01*
X13206609Y9882276D01*
X13621350Y9303457D01*
X13623656Y9300125D01*
X13805701Y9027676D01*
X13807898Y9024268D01*
X14184313Y8418980D01*
X14185372Y8417246D01*
X14319026Y8194260D01*
X14322024Y8188968D01*
X14765499Y7359345D01*
X14768238Y7353905D01*
X14880532Y7116481D01*
X14881385Y7114638D01*
X15174177Y6468406D01*
X15175790Y6464685D01*
X15302039Y6159893D01*
X15303531Y6156116D01*
X15554252Y5489921D01*
X15554950Y5488019D01*
X15642418Y5243563D01*
X15644326Y5237790D01*
X15917521Y4337334D01*
X15919146Y4331463D01*
X15983154Y4075932D01*
X15983630Y4073962D01*
X16144296Y3384967D01*
X16145153Y3380999D01*
X16209977Y3055111D01*
X16210705Y3051109D01*
X16326403Y2350008D01*
X16326716Y2348013D01*
X16364806Y2091234D01*
X16365550Y2085201D01*
X16457831Y1148891D01*
X16458280Y1142813D01*
X16471213Y879541D01*
X16471296Y877511D01*
X16494465Y169216D01*
X16494531Y165162D01*
X16494531Y-165162D01*
X16494465Y-169216D01*
X16471296Y-877511D01*
X16471213Y-879541D01*
X16458280Y-1142813D01*
X16457831Y-1148891D01*
X16365550Y-2085201D01*
X16364806Y-2091234D01*
X16326716Y-2348013D01*
X16326403Y-2350008D01*
X16210705Y-3051109D01*
X16209977Y-3055111D01*
X16145153Y-3380999D01*
X16144296Y-3384967D01*
X15983630Y-4073962D01*
X15983154Y-4075932D01*
X15919146Y-4331463D01*
X15917521Y-4337334D01*
X15644326Y-5237790D01*
X15642418Y-5243563D01*
X15554950Y-5488019D01*
X15554252Y-5489921D01*
X15303531Y-6156116D01*
X15302039Y-6159893D01*
X15175790Y-6464685D01*
X15174177Y-6468406D01*
X14881385Y-7114638D01*
X14880532Y-7116481D01*
X14768238Y-7353905D01*
X14765499Y-7359345D01*
X14322024Y-8188968D01*
X14319026Y-8194260D01*
X14185372Y-8417246D01*
X14184313Y-8418980D01*
X13807898Y-9024268D01*
X13805701Y-9027676D01*
X13623656Y-9300125D01*
X13621350Y-9303457D01*
X13206609Y-9882276D01*
X13205411Y-9883920D01*
X13049959Y-10093522D01*
X13046216Y-10098317D01*
X12449833Y-10825053D01*
X12445856Y-10829664D01*
X12268462Y-11025389D01*
X12267089Y-11026879D01*
X11783992Y-11542701D01*
X11781168Y-11545619D01*
X11545619Y-11781168D01*
X11542701Y-11783992D01*
X11026879Y-12267089D01*
X11025389Y-12268462D01*
X10829664Y-12445856D01*
X10825053Y-12449833D01*
X10098317Y-13046216D01*
X10093522Y-13049959D01*
X9883920Y-13205411D01*
X9882276Y-13206609D01*
X9303457Y-13621350D01*
X9300125Y-13623656D01*
X9027676Y-13805701D01*
X9024268Y-13807898D01*
X8418980Y-14184313D01*
X8417246Y-14185372D01*
X8194260Y-14319026D01*
X8188968Y-14322024D01*
X7359345Y-14765499D01*
X7353905Y-14768238D01*
X7116481Y-14880532D01*
X7114638Y-14881385D01*
X6468406Y-15174177D01*
X6464685Y-15175790D01*
X6159893Y-15302039D01*
X6156116Y-15303531D01*
X5489921Y-15554252D01*
X5488019Y-15554950D01*
X5243563Y-15642418D01*
X5237790Y-15644326D01*
X4337334Y-15917521D01*
X4331463Y-15919146D01*
X4075932Y-15983154D01*
X4073962Y-15983630D01*
X3384967Y-16144296D01*
X3380999Y-16145153D01*
X3055111Y-16209977D01*
X3051109Y-16210705D01*
X2350008Y-16326403D01*
X2348013Y-16326716D01*
X2091234Y-16364806D01*
X2085201Y-16365550D01*
X1148891Y-16457831D01*
X1142813Y-16458280D01*
X879541Y-16471213D01*
X877511Y-16471296D01*
X182563Y-16494028D01*
X169216Y-16494465D01*
X165164Y-16494531D01*
X-165164Y-16494531D01*
X-169216Y-16494465D01*
X-182563Y-16494028D01*
X-877511Y-16471296D01*
X-879541Y-16471213D01*
X-1142813Y-16458280D01*
X-1148891Y-16457831D01*
X-2085201Y-16365550D01*
X-2091234Y-16364806D01*
X-2348013Y-16326716D01*
X-2350008Y-16326403D01*
X-3051109Y-16210705D01*
X-3055111Y-16209977D01*
X-3380999Y-16145153D01*
X-3384967Y-16144296D01*
X-4073962Y-15983630D01*
X-4075932Y-15983154D01*
X-4331463Y-15919146D01*
X-4337334Y-15917521D01*
X-5237790Y-15644326D01*
X-5243563Y-15642418D01*
X-5488019Y-15554950D01*
X-5489921Y-15554252D01*
X-6156116Y-15303531D01*
X-6159893Y-15302039D01*
X-6464685Y-15175790D01*
X-6468406Y-15174177D01*
X-7114638Y-14881385D01*
X-7116481Y-14880532D01*
X-7353905Y-14768238D01*
X-7359345Y-14765499D01*
X-8188968Y-14322024D01*
X-8194260Y-14319026D01*
X-8417246Y-14185372D01*
X-8418980Y-14184313D01*
X-8729586Y-13991154D01*
X-8885842Y-13893982D01*
X6281400Y-13893982D01*
X6281400Y-14006018D01*
X6310397Y-14114237D01*
X6366415Y-14211263D01*
X6445637Y-14290485D01*
X6542663Y-14346503D01*
X6650882Y-14375500D01*
X6650884Y-14375500D01*
X6762916Y-14375500D01*
X6762918Y-14375500D01*
X6871137Y-14346503D01*
X6968163Y-14290485D01*
X7047385Y-14211263D01*
X7103403Y-14114237D01*
X7132400Y-14006018D01*
X7132400Y-13893982D01*
X7103403Y-13785763D01*
X7074825Y-13736264D01*
X7058352Y-13668363D01*
X7074825Y-13612264D01*
X7117103Y-13539037D01*
X7146100Y-13430818D01*
X7146100Y-13318782D01*
X7117103Y-13210563D01*
X7061085Y-13113537D01*
X6981863Y-13034315D01*
X6884837Y-12978297D01*
X6776618Y-12949300D01*
X6664582Y-12949300D01*
X6556363Y-12978297D01*
X6556360Y-12978298D01*
X6459340Y-13034313D01*
X6459334Y-13034317D01*
X6380117Y-13113534D01*
X6380113Y-13113540D01*
X6324098Y-13210560D01*
X6324097Y-13210563D01*
X6295100Y-13318782D01*
X6295100Y-13430818D01*
X6323515Y-13536863D01*
X6324097Y-13539036D01*
X6324097Y-13539037D01*
X6352675Y-13588536D01*
X6369146Y-13656436D01*
X6352675Y-13712534D01*
X6310397Y-13785762D01*
X6310397Y-13785763D01*
X6281400Y-13893982D01*
X-8885842Y-13893982D01*
X-9024268Y-13807898D01*
X-9027676Y-13805701D01*
X-9300125Y-13623656D01*
X-9303457Y-13621350D01*
X-9734840Y-13312251D01*
X-9864171Y-13219582D01*
X50100Y-13219582D01*
X50100Y-13331618D01*
X79097Y-13439837D01*
X135115Y-13536863D01*
X214337Y-13616085D01*
X311363Y-13672103D01*
X419582Y-13701100D01*
X419584Y-13701100D01*
X531616Y-13701100D01*
X531618Y-13701100D01*
X639837Y-13672103D01*
X736863Y-13616085D01*
X816085Y-13536863D01*
X872103Y-13439837D01*
X901100Y-13331618D01*
X901100Y-13219582D01*
X872103Y-13111363D01*
X816085Y-13014337D01*
X736863Y-12935115D01*
X639837Y-12879097D01*
X531618Y-12850100D01*
X419582Y-12850100D01*
X311363Y-12879097D01*
X311360Y-12879098D01*
X214340Y-12935113D01*
X214334Y-12935117D01*
X135117Y-13014334D01*
X135113Y-13014340D01*
X79098Y-13111360D01*
X79097Y-13111363D01*
X50100Y-13219582D01*
X-9864171Y-13219582D01*
X-9882276Y-13206609D01*
X-9883920Y-13205411D01*
X-10093522Y-13049959D01*
X-10098317Y-13046216D01*
X-10825053Y-12449833D01*
X-10829664Y-12445856D01*
X-11025389Y-12268462D01*
X-11026879Y-12267090D01*
X-11036413Y-12258161D01*
X-11036414Y-12258158D01*
X-11124370Y-12175782D01*
X6284000Y-12175782D01*
X6284000Y-12287818D01*
X6312997Y-12396037D01*
X6369015Y-12493063D01*
X6448237Y-12572285D01*
X6545263Y-12628303D01*
X6653482Y-12657300D01*
X6653484Y-12657300D01*
X6765516Y-12657300D01*
X6765518Y-12657300D01*
X6873737Y-12628303D01*
X6970763Y-12572285D01*
X7049985Y-12493063D01*
X7106003Y-12396037D01*
X7135000Y-12287818D01*
X7135000Y-12175782D01*
X7106003Y-12067563D01*
X7049985Y-11970537D01*
X6970763Y-11891315D01*
X6967601Y-11889489D01*
X6965470Y-11887254D01*
X6964314Y-11886367D01*
X6964452Y-11886186D01*
X6919386Y-11838923D01*
X6906164Y-11770316D01*
X6932132Y-11705451D01*
X6967604Y-11674715D01*
X6967781Y-11674613D01*
X6976663Y-11669485D01*
X7055885Y-11590263D01*
X7111903Y-11493237D01*
X7140900Y-11385018D01*
X7140900Y-11272982D01*
X7111903Y-11164763D01*
X7055885Y-11067737D01*
X6976663Y-10988515D01*
X6879637Y-10932497D01*
X6771418Y-10903500D01*
X6659382Y-10903500D01*
X6551163Y-10932497D01*
X6551160Y-10932498D01*
X6454140Y-10988513D01*
X6454134Y-10988517D01*
X6374917Y-11067734D01*
X6374913Y-11067740D01*
X6318898Y-11164760D01*
X6318897Y-11164763D01*
X6289900Y-11272982D01*
X6289900Y-11385018D01*
X6318897Y-11493237D01*
X6374915Y-11590263D01*
X6454137Y-11669485D01*
X6457295Y-11671308D01*
X6459426Y-11673542D01*
X6460586Y-11674433D01*
X6460447Y-11674613D01*
X6505511Y-11721873D01*
X6518736Y-11790479D01*
X6492770Y-11855345D01*
X6457303Y-11886080D01*
X6448240Y-11891312D01*
X6448234Y-11891317D01*
X6369017Y-11970534D01*
X6369013Y-11970540D01*
X6312998Y-12067560D01*
X6312997Y-12067563D01*
X6284000Y-12175782D01*
X-11124370Y-12175782D01*
X-11542701Y-11783992D01*
X-11545619Y-11781168D01*
X-11781168Y-11545619D01*
X-11783992Y-11542701D01*
X-12267089Y-11026879D01*
X-12268462Y-11025389D01*
X-12410723Y-10868428D01*
X-12410723Y-10868427D01*
X-12410724Y-10868427D01*
X-12445857Y-10829663D01*
X-12449833Y-10825053D01*
X-12475905Y-10793282D01*
X3087000Y-10793282D01*
X3087000Y-10905318D01*
X3115997Y-11013537D01*
X3172015Y-11110563D01*
X3251237Y-11189785D01*
X3348263Y-11245803D01*
X3456482Y-11274800D01*
X3456484Y-11274800D01*
X3568516Y-11274800D01*
X3568518Y-11274800D01*
X3676737Y-11245803D01*
X3773763Y-11189785D01*
X3852985Y-11110563D01*
X3909003Y-11013537D01*
X3938000Y-10905318D01*
X3938000Y-10793282D01*
X3909003Y-10685063D01*
X3852985Y-10588037D01*
X3773763Y-10508815D01*
X3676737Y-10452797D01*
X3568518Y-10423800D01*
X3456482Y-10423800D01*
X3348263Y-10452797D01*
X3348260Y-10452798D01*
X3251240Y-10508813D01*
X3251234Y-10508817D01*
X3172017Y-10588034D01*
X3172013Y-10588040D01*
X3115998Y-10685060D01*
X3115997Y-10685063D01*
X3087000Y-10793282D01*
X-12475905Y-10793282D01*
X-13046216Y-10098317D01*
X-13049958Y-10093522D01*
X-13125159Y-9992125D01*
X-13125163Y-9992122D01*
X-13173919Y-9926382D01*
X3924500Y-9926382D01*
X3924500Y-10038418D01*
X3953497Y-10146637D01*
X4009515Y-10243663D01*
X4088737Y-10322885D01*
X4185763Y-10378903D01*
X4293982Y-10407900D01*
X4293984Y-10407900D01*
X4406016Y-10407900D01*
X4406018Y-10407900D01*
X4514237Y-10378903D01*
X4611263Y-10322885D01*
X4690485Y-10243663D01*
X4746503Y-10146637D01*
X4775500Y-10038418D01*
X4775500Y-9926382D01*
X4746503Y-9818163D01*
X4729117Y-9788049D01*
X8199000Y-9788049D01*
X8199000Y-10010950D01*
X8199001Y-10010966D01*
X8228094Y-10231952D01*
X8228095Y-10231957D01*
X8228096Y-10231963D01*
X8285790Y-10447280D01*
X8285793Y-10447290D01*
X8344094Y-10588040D01*
X8371095Y-10653226D01*
X8482552Y-10846274D01*
X8482557Y-10846280D01*
X8482558Y-10846282D01*
X8618251Y-11023122D01*
X8618257Y-11023129D01*
X8775870Y-11180742D01*
X8775877Y-11180748D01*
X8860658Y-11245802D01*
X8952726Y-11316448D01*
X9145774Y-11427905D01*
X9275640Y-11481697D01*
X9303504Y-11493239D01*
X9351719Y-11513210D01*
X9567037Y-11570904D01*
X9788043Y-11600000D01*
X9788050Y-11600000D01*
X10010950Y-11600000D01*
X10010957Y-11600000D01*
X10231963Y-11570904D01*
X10447281Y-11513210D01*
X10653226Y-11427905D01*
X10846274Y-11316448D01*
X11023124Y-11180747D01*
X11180747Y-11023124D01*
X11316448Y-10846274D01*
X11427905Y-10653226D01*
X11513210Y-10447281D01*
X11570904Y-10231963D01*
X11600000Y-10010957D01*
X11600000Y-9788043D01*
X11570904Y-9567037D01*
X11513210Y-9351719D01*
X11427905Y-9145774D01*
X11316448Y-8952726D01*
X11193888Y-8793002D01*
X11180748Y-8775877D01*
X11180742Y-8775870D01*
X11023129Y-8618257D01*
X11023122Y-8618251D01*
X10846282Y-8482558D01*
X10846280Y-8482557D01*
X10846274Y-8482552D01*
X10653226Y-8371095D01*
X10653222Y-8371093D01*
X10447290Y-8285793D01*
X10447283Y-8285791D01*
X10447281Y-8285790D01*
X10231963Y-8228096D01*
X10231957Y-8228095D01*
X10231952Y-8228094D01*
X10010966Y-8199001D01*
X10010963Y-8199000D01*
X10010957Y-8199000D01*
X9788043Y-8199000D01*
X9788037Y-8199000D01*
X9788033Y-8199001D01*
X9567047Y-8228094D01*
X9567040Y-8228095D01*
X9567037Y-8228096D01*
X9351719Y-8285790D01*
X9351709Y-8285793D01*
X9145777Y-8371093D01*
X9145773Y-8371095D01*
X8952726Y-8482552D01*
X8952717Y-8482558D01*
X8775877Y-8618251D01*
X8775870Y-8618257D01*
X8618257Y-8775870D01*
X8618251Y-8775877D01*
X8482558Y-8952717D01*
X8482552Y-8952726D01*
X8371095Y-9145773D01*
X8371093Y-9145777D01*
X8285793Y-9351709D01*
X8285790Y-9351719D01*
X8228097Y-9567034D01*
X8228094Y-9567047D01*
X8199001Y-9788033D01*
X8199000Y-9788049D01*
X4729117Y-9788049D01*
X4690485Y-9721137D01*
X4611263Y-9641915D01*
X4514237Y-9585897D01*
X4406018Y-9556900D01*
X4293982Y-9556900D01*
X4185763Y-9585897D01*
X4185760Y-9585898D01*
X4088740Y-9641913D01*
X4088734Y-9641917D01*
X4009517Y-9721134D01*
X4009513Y-9721140D01*
X3953498Y-9818160D01*
X3953497Y-9818163D01*
X3924500Y-9926382D01*
X-13173919Y-9926382D01*
X-13205411Y-9883920D01*
X-13206609Y-9882276D01*
X-13621350Y-9303457D01*
X-13623656Y-9300125D01*
X-13805701Y-9027676D01*
X-13807898Y-9024268D01*
X-14184313Y-8418980D01*
X-14185372Y-8417246D01*
X-14319026Y-8194260D01*
X-14322024Y-8188968D01*
X-14683089Y-7513512D01*
X-14709993Y-7463182D01*
X-5743300Y-7463182D01*
X-5743300Y-7575218D01*
X-5714303Y-7683437D01*
X-5658285Y-7780463D01*
X-5579063Y-7859685D01*
X-5482037Y-7915703D01*
X-5373818Y-7944700D01*
X-5373816Y-7944700D01*
X-5353702Y-7944700D01*
X-5286663Y-7964385D01*
X-5240908Y-8017189D01*
X-5230964Y-8086347D01*
X-5233924Y-8100779D01*
X-5245500Y-8143982D01*
X-5245500Y-8256018D01*
X-5216503Y-8364237D01*
X-5160485Y-8461263D01*
X-5081263Y-8540485D01*
X-4984237Y-8596503D01*
X-4876018Y-8625500D01*
X-4876016Y-8625500D01*
X-4763984Y-8625500D01*
X-4763982Y-8625500D01*
X-4655763Y-8596503D01*
X-4558737Y-8540485D01*
X-4479515Y-8461263D01*
X-4423497Y-8364237D01*
X-4417132Y-8340482D01*
X5524500Y-8340482D01*
X5524500Y-8452518D01*
X5553497Y-8560737D01*
X5609515Y-8657763D01*
X5688737Y-8736985D01*
X5785763Y-8793003D01*
X5893982Y-8822000D01*
X5893984Y-8822000D01*
X6006016Y-8822000D01*
X6006018Y-8822000D01*
X6114237Y-8793003D01*
X6211263Y-8736985D01*
X6290485Y-8657763D01*
X6346503Y-8560737D01*
X6375500Y-8452518D01*
X6375500Y-8340482D01*
X6346503Y-8232263D01*
X6290485Y-8135237D01*
X6211263Y-8056015D01*
X6144014Y-8017189D01*
X6114239Y-7999998D01*
X6114238Y-7999997D01*
X6114237Y-7999997D01*
X6006018Y-7971000D01*
X5893982Y-7971000D01*
X5785763Y-7999997D01*
X5785756Y-8000000D01*
X5704614Y-8046846D01*
X5704606Y-8046852D01*
X5688737Y-8056015D01*
X5624903Y-8119848D01*
X5624880Y-8119870D01*
X5609518Y-8135233D01*
X5609513Y-8135240D01*
X5553498Y-8232260D01*
X5553497Y-8232263D01*
X5524500Y-8340482D01*
X-4417132Y-8340482D01*
X-4394500Y-8256018D01*
X-4394500Y-8143982D01*
X-4423497Y-8035763D01*
X-4423498Y-8035760D01*
X-4479513Y-7938740D01*
X-4479517Y-7938734D01*
X-4558734Y-7859517D01*
X-4558740Y-7859513D01*
X-4655760Y-7803498D01*
X-4655763Y-7803497D01*
X-4763982Y-7774500D01*
X-4784098Y-7774500D01*
X-4851137Y-7754815D01*
X-4896892Y-7702011D01*
X-4906836Y-7632853D01*
X-4903875Y-7618420D01*
X-4892300Y-7575218D01*
X-4892300Y-7523982D01*
X4794500Y-7523982D01*
X4794500Y-7636018D01*
X4823497Y-7744237D01*
X4879515Y-7841263D01*
X4958737Y-7920485D01*
X5055763Y-7976503D01*
X5163982Y-8005500D01*
X5163984Y-8005500D01*
X5276016Y-8005500D01*
X5276018Y-8005500D01*
X5384237Y-7976503D01*
X5481263Y-7920485D01*
X5560485Y-7841263D01*
X5616503Y-7744237D01*
X5645500Y-7636018D01*
X5645500Y-7523982D01*
X5616503Y-7415763D01*
X5560485Y-7318737D01*
X5481263Y-7239515D01*
X5384237Y-7183497D01*
X5276018Y-7154500D01*
X5163982Y-7154500D01*
X5055763Y-7183497D01*
X5055760Y-7183498D01*
X4958740Y-7239513D01*
X4958734Y-7239517D01*
X4879517Y-7318734D01*
X4879513Y-7318740D01*
X4823498Y-7415760D01*
X4823497Y-7415763D01*
X4794500Y-7523982D01*
X-4892300Y-7523982D01*
X-4892300Y-7463182D01*
X-4921297Y-7354963D01*
X-4921298Y-7354960D01*
X-4977313Y-7257940D01*
X-4977317Y-7257934D01*
X-5056534Y-7178717D01*
X-5056540Y-7178713D01*
X-5135295Y-7133243D01*
X-5135297Y-7133243D01*
X-5153562Y-7122697D01*
X-5261782Y-7093700D01*
X-5373818Y-7093700D01*
X-5482037Y-7122697D01*
X-5482038Y-7122697D01*
X-5482039Y-7122698D01*
X-5493820Y-7129500D01*
X-5579063Y-7178715D01*
X-5658285Y-7257937D01*
X-5714303Y-7354963D01*
X-5743300Y-7463182D01*
X-14709993Y-7463182D01*
X-14765499Y-7359345D01*
X-14768238Y-7353905D01*
X-14880532Y-7116481D01*
X-14881385Y-7114638D01*
X-14917928Y-7033982D01*
X-4195500Y-7033982D01*
X-4195500Y-7146018D01*
X-4166503Y-7254237D01*
X-4110485Y-7351263D01*
X-4031263Y-7430485D01*
X-3934237Y-7486503D01*
X-3826018Y-7515500D01*
X-3826016Y-7515500D01*
X-3713984Y-7515500D01*
X-3713982Y-7515500D01*
X-3605763Y-7486503D01*
X-3508737Y-7430485D01*
X-3429515Y-7351263D01*
X-3373497Y-7254237D01*
X-3344500Y-7146018D01*
X-3344500Y-7033982D01*
X-3373497Y-6925763D01*
X-3373498Y-6925760D01*
X-3429513Y-6828740D01*
X-3429517Y-6828734D01*
X-3508734Y-6749517D01*
X-3508740Y-6749513D01*
X-3512674Y-6747242D01*
X-3605760Y-6693498D01*
X-3605763Y-6693497D01*
X-3713982Y-6664500D01*
X-3826018Y-6664500D01*
X-3934237Y-6693497D01*
X-4031263Y-6749515D01*
X-4110485Y-6828737D01*
X-4166503Y-6925763D01*
X-4195500Y-7033982D01*
X-14917928Y-7033982D01*
X-15092815Y-6647982D01*
X8993800Y-6647982D01*
X8993800Y-6760018D01*
X9022797Y-6868237D01*
X9078815Y-6965263D01*
X9158037Y-7044485D01*
X9255063Y-7100503D01*
X9363282Y-7129500D01*
X9363284Y-7129500D01*
X9475316Y-7129500D01*
X9475318Y-7129500D01*
X9583537Y-7100503D01*
X9680563Y-7044485D01*
X9759785Y-6965263D01*
X9815803Y-6868237D01*
X9844800Y-6760018D01*
X9844800Y-6647982D01*
X11347800Y-6647982D01*
X11347800Y-6760018D01*
X11376797Y-6868237D01*
X11432815Y-6965263D01*
X11512037Y-7044485D01*
X11609063Y-7100503D01*
X11717282Y-7129500D01*
X11717284Y-7129500D01*
X11829316Y-7129500D01*
X11829318Y-7129500D01*
X11937537Y-7100503D01*
X12034563Y-7044485D01*
X12034566Y-7044481D01*
X12036597Y-7043309D01*
X12104497Y-7026836D01*
X12161707Y-7046636D01*
X12162698Y-7044921D01*
X12169736Y-7048984D01*
X12169737Y-7048985D01*
X12266763Y-7105003D01*
X12374982Y-7134000D01*
X12374984Y-7134000D01*
X12487016Y-7134000D01*
X12487018Y-7134000D01*
X12595237Y-7105003D01*
X12692263Y-7048985D01*
X12771485Y-6969763D01*
X12827503Y-6872737D01*
X12856500Y-6764518D01*
X12856500Y-6652482D01*
X12827503Y-6544263D01*
X12771485Y-6447237D01*
X12692263Y-6368015D01*
X12595237Y-6311997D01*
X12487018Y-6283000D01*
X12374982Y-6283000D01*
X12266763Y-6311997D01*
X12266760Y-6311998D01*
X12167701Y-6369190D01*
X12099800Y-6385663D01*
X12042593Y-6365862D01*
X12041602Y-6367579D01*
X11937539Y-6307498D01*
X11937538Y-6307497D01*
X11937537Y-6307497D01*
X11829318Y-6278500D01*
X11717282Y-6278500D01*
X11609063Y-6307497D01*
X11609060Y-6307498D01*
X11512040Y-6363513D01*
X11512034Y-6363517D01*
X11432817Y-6442734D01*
X11432813Y-6442740D01*
X11376798Y-6539760D01*
X11376797Y-6539763D01*
X11347800Y-6647982D01*
X9844800Y-6647982D01*
X9815803Y-6539763D01*
X9759785Y-6442737D01*
X9680563Y-6363515D01*
X9583537Y-6307497D01*
X9475318Y-6278500D01*
X9363282Y-6278500D01*
X9255063Y-6307497D01*
X9255060Y-6307498D01*
X9158040Y-6363513D01*
X9158034Y-6363517D01*
X9078817Y-6442734D01*
X9078813Y-6442740D01*
X9022798Y-6539760D01*
X9022797Y-6539763D01*
X8993800Y-6647982D01*
X-15092815Y-6647982D01*
X-15174177Y-6468406D01*
X-15175790Y-6464685D01*
X-15302039Y-6159893D01*
X-15303531Y-6156116D01*
X-15554252Y-5489921D01*
X-15554907Y-5488140D01*
X-15555047Y-5487750D01*
X-15555048Y-5487732D01*
X-15555090Y-5487629D01*
X-15567129Y-5453982D01*
X4424500Y-5453982D01*
X4424500Y-5566018D01*
X4436156Y-5609517D01*
X4453497Y-5674236D01*
X4453498Y-5674239D01*
X4461870Y-5688740D01*
X4509515Y-5771263D01*
X4588737Y-5850485D01*
X4685763Y-5906503D01*
X4793982Y-5935500D01*
X4793984Y-5935500D01*
X4906015Y-5935500D01*
X4906018Y-5935500D01*
X4982107Y-5915112D01*
X5051954Y-5916775D01*
X5109817Y-5955937D01*
X5121585Y-5972887D01*
X5149515Y-6021263D01*
X5228737Y-6100485D01*
X5325763Y-6156503D01*
X5433982Y-6185500D01*
X5433984Y-6185500D01*
X5546016Y-6185500D01*
X5546018Y-6185500D01*
X5654237Y-6156503D01*
X5751263Y-6100485D01*
X5830485Y-6021263D01*
X5886503Y-5924237D01*
X5894610Y-5893982D01*
X7971800Y-5893982D01*
X7971800Y-6006018D01*
X8000797Y-6114237D01*
X8056815Y-6211263D01*
X8136037Y-6290485D01*
X8233063Y-6346503D01*
X8341282Y-6375500D01*
X8341284Y-6375500D01*
X8453316Y-6375500D01*
X8453318Y-6375500D01*
X8561537Y-6346503D01*
X8658563Y-6290485D01*
X8737785Y-6211263D01*
X8793803Y-6114237D01*
X8822800Y-6006018D01*
X8822800Y-5893982D01*
X8793803Y-5785763D01*
X8737785Y-5688737D01*
X8658563Y-5609515D01*
X8561537Y-5553497D01*
X8453318Y-5524500D01*
X8341282Y-5524500D01*
X8233063Y-5553497D01*
X8233060Y-5553498D01*
X8136040Y-5609513D01*
X8136034Y-5609517D01*
X8056817Y-5688734D01*
X8056813Y-5688740D01*
X8000798Y-5785760D01*
X8000797Y-5785763D01*
X7971800Y-5893982D01*
X5894610Y-5893982D01*
X5915500Y-5816018D01*
X5915500Y-5703982D01*
X5886503Y-5595763D01*
X5830485Y-5498737D01*
X5751263Y-5419515D01*
X5686579Y-5382169D01*
X5654239Y-5363498D01*
X5654238Y-5363497D01*
X5654237Y-5363497D01*
X5546018Y-5334500D01*
X5433982Y-5334500D01*
X5433980Y-5334500D01*
X5357893Y-5354887D01*
X5288043Y-5353224D01*
X5230181Y-5314060D01*
X5218414Y-5297112D01*
X5190485Y-5248737D01*
X5111263Y-5169515D01*
X5014237Y-5113497D01*
X4906018Y-5084500D01*
X4793982Y-5084500D01*
X4685763Y-5113497D01*
X4685760Y-5113498D01*
X4588740Y-5169513D01*
X4588734Y-5169517D01*
X4509517Y-5248734D01*
X4509513Y-5248740D01*
X4453498Y-5345760D01*
X4453497Y-5345763D01*
X4424500Y-5453982D01*
X-15567129Y-5453982D01*
X-15642418Y-5243563D01*
X-15644326Y-5237790D01*
X-15701731Y-5048582D01*
X9981800Y-5048582D01*
X9981800Y-5160618D01*
X10010797Y-5268837D01*
X10066815Y-5365863D01*
X10146037Y-5445085D01*
X10243063Y-5501103D01*
X10351282Y-5530100D01*
X10351284Y-5530100D01*
X10463316Y-5530100D01*
X10463318Y-5530100D01*
X10571537Y-5501103D01*
X10668563Y-5445085D01*
X10747785Y-5365863D01*
X10803803Y-5268837D01*
X10832800Y-5160618D01*
X10832800Y-5048582D01*
X10803803Y-4940363D01*
X10747785Y-4843337D01*
X10668563Y-4764115D01*
X10571537Y-4708097D01*
X10463318Y-4679100D01*
X10351282Y-4679100D01*
X10243063Y-4708097D01*
X10243060Y-4708098D01*
X10146040Y-4764113D01*
X10146034Y-4764117D01*
X10066817Y-4843334D01*
X10066813Y-4843340D01*
X10010798Y-4940360D01*
X10010797Y-4940363D01*
X9981800Y-5048582D01*
X-15701731Y-5048582D01*
X-15907047Y-4371856D01*
X-15915504Y-4343982D01*
X4624500Y-4343982D01*
X4624500Y-4456018D01*
X4653497Y-4564237D01*
X4709515Y-4661263D01*
X4788737Y-4740485D01*
X4885763Y-4796503D01*
X4993982Y-4825500D01*
X4993984Y-4825500D01*
X5106016Y-4825500D01*
X5106018Y-4825500D01*
X5214237Y-4796503D01*
X5311263Y-4740485D01*
X5390485Y-4661263D01*
X5446503Y-4564237D01*
X5471330Y-4471582D01*
X7970200Y-4471582D01*
X7970200Y-4583618D01*
X7999197Y-4691837D01*
X8055215Y-4788863D01*
X8134437Y-4868085D01*
X8231463Y-4924103D01*
X8339682Y-4953100D01*
X8339684Y-4953100D01*
X8451716Y-4953100D01*
X8451718Y-4953100D01*
X8559937Y-4924103D01*
X8656963Y-4868085D01*
X8736185Y-4788863D01*
X8792203Y-4691837D01*
X8821200Y-4583618D01*
X8821200Y-4471582D01*
X8792203Y-4363363D01*
X8736185Y-4266337D01*
X8656963Y-4187115D01*
X8559937Y-4131097D01*
X8451718Y-4102100D01*
X8339682Y-4102100D01*
X8231463Y-4131097D01*
X8231460Y-4131098D01*
X8134440Y-4187113D01*
X8134434Y-4187117D01*
X8055217Y-4266334D01*
X8055213Y-4266340D01*
X7999198Y-4363360D01*
X7999197Y-4363363D01*
X7970200Y-4471582D01*
X5471330Y-4471582D01*
X5475500Y-4456018D01*
X5475500Y-4343982D01*
X5446503Y-4235763D01*
X5390485Y-4138737D01*
X5311263Y-4059515D01*
X5241607Y-4019299D01*
X5214239Y-4003498D01*
X5214238Y-4003497D01*
X5214237Y-4003497D01*
X5106018Y-3974500D01*
X4993982Y-3974500D01*
X4885763Y-4003497D01*
X4885760Y-4003498D01*
X4788740Y-4059513D01*
X4788734Y-4059517D01*
X4709517Y-4138734D01*
X4709513Y-4138740D01*
X4653498Y-4235760D01*
X4653497Y-4235763D01*
X4624500Y-4343982D01*
X-15915504Y-4343982D01*
X-15917521Y-4337334D01*
X-15919146Y-4331463D01*
X-15983154Y-4075932D01*
X-15983630Y-4073962D01*
X-16103990Y-3557815D01*
X-16108661Y-3537782D01*
X10324500Y-3537782D01*
X10324500Y-3649818D01*
X10353497Y-3758037D01*
X10409515Y-3855063D01*
X10488737Y-3934285D01*
X10585763Y-3990303D01*
X10693982Y-4019300D01*
X10693984Y-4019300D01*
X10806016Y-4019300D01*
X10806018Y-4019300D01*
X10914237Y-3990303D01*
X11011263Y-3934285D01*
X11090485Y-3855063D01*
X11146503Y-3758037D01*
X11175500Y-3649818D01*
X11175500Y-3537782D01*
X11173919Y-3531882D01*
X11607400Y-3531882D01*
X11607400Y-3643918D01*
X11609437Y-3651518D01*
X11636397Y-3752136D01*
X11636398Y-3752139D01*
X11640784Y-3759736D01*
X11692415Y-3849163D01*
X11771637Y-3928385D01*
X11868663Y-3984403D01*
X11976882Y-4013400D01*
X11976884Y-4013400D01*
X12088916Y-4013400D01*
X12088918Y-4013400D01*
X12197137Y-3984403D01*
X12294163Y-3928385D01*
X12373385Y-3849163D01*
X12429403Y-3752137D01*
X12458400Y-3643918D01*
X12458400Y-3531882D01*
X12429403Y-3423663D01*
X12373385Y-3326637D01*
X12294163Y-3247415D01*
X12197137Y-3191397D01*
X12088918Y-3162400D01*
X11976882Y-3162400D01*
X11868663Y-3191397D01*
X11868660Y-3191398D01*
X11771640Y-3247413D01*
X11771634Y-3247417D01*
X11692417Y-3326634D01*
X11692413Y-3326640D01*
X11636398Y-3423660D01*
X11636397Y-3423663D01*
X11607400Y-3531882D01*
X11173919Y-3531882D01*
X11146503Y-3429563D01*
X11090485Y-3332537D01*
X11011263Y-3253315D01*
X10918860Y-3199966D01*
X10914239Y-3197298D01*
X10914238Y-3197297D01*
X10914237Y-3197297D01*
X10806018Y-3168300D01*
X10693982Y-3168300D01*
X10585763Y-3197297D01*
X10585760Y-3197298D01*
X10488740Y-3253313D01*
X10488734Y-3253317D01*
X10409517Y-3332534D01*
X10409513Y-3332540D01*
X10353498Y-3429560D01*
X10353497Y-3429563D01*
X10324500Y-3537782D01*
X-16108661Y-3537782D01*
X-16144296Y-3384967D01*
X-16145153Y-3380999D01*
X-16209977Y-3055111D01*
X-16210705Y-3051109D01*
X-16326403Y-2350008D01*
X-16326716Y-2348012D01*
X-16352862Y-2171750D01*
X-16354356Y-2161682D01*
X4761200Y-2161682D01*
X4761200Y-2273718D01*
X4790197Y-2381937D01*
X4846215Y-2478963D01*
X4925437Y-2558185D01*
X5022463Y-2614203D01*
X5130682Y-2643200D01*
X5130684Y-2643200D01*
X5242716Y-2643200D01*
X5242718Y-2643200D01*
X5350937Y-2614203D01*
X5361366Y-2608182D01*
X9497000Y-2608182D01*
X9497000Y-2720218D01*
X9525997Y-2828437D01*
X9582015Y-2925463D01*
X9661237Y-3004685D01*
X9758263Y-3060703D01*
X9866482Y-3089700D01*
X9866484Y-3089700D01*
X9978516Y-3089700D01*
X9978518Y-3089700D01*
X10086737Y-3060703D01*
X10183763Y-3004685D01*
X10262985Y-2925463D01*
X10319003Y-2828437D01*
X10348000Y-2720218D01*
X10348000Y-2608182D01*
X10319003Y-2499963D01*
X10262985Y-2402937D01*
X10183763Y-2323715D01*
X10171067Y-2316385D01*
X10086739Y-2267698D01*
X10086738Y-2267697D01*
X10086737Y-2267697D01*
X9978518Y-2238700D01*
X9866482Y-2238700D01*
X9758263Y-2267697D01*
X9758260Y-2267698D01*
X9661240Y-2323713D01*
X9661234Y-2323717D01*
X9582017Y-2402934D01*
X9582013Y-2402940D01*
X9525998Y-2499960D01*
X9525997Y-2499963D01*
X9497000Y-2608182D01*
X5361366Y-2608182D01*
X5447963Y-2558185D01*
X5527185Y-2478963D01*
X5583203Y-2381937D01*
X5612200Y-2273718D01*
X5612200Y-2161682D01*
X5583203Y-2053463D01*
X5527185Y-1956437D01*
X5490630Y-1919882D01*
X10324500Y-1919882D01*
X10324500Y-2031917D01*
X10353497Y-2140136D01*
X10353497Y-2140137D01*
X10362189Y-2155193D01*
X10362191Y-2155195D01*
X10409515Y-2237163D01*
X10488737Y-2316385D01*
X10496649Y-2320953D01*
X10496650Y-2320954D01*
X10543518Y-2348013D01*
X10585763Y-2372403D01*
X10693982Y-2401400D01*
X10693984Y-2401400D01*
X10806016Y-2401400D01*
X10806018Y-2401400D01*
X10914237Y-2372403D01*
X11011263Y-2316385D01*
X11090485Y-2237163D01*
X11146503Y-2140137D01*
X11175500Y-2031918D01*
X11175500Y-2007482D01*
X12565300Y-2007482D01*
X12565300Y-2119518D01*
X12594297Y-2227737D01*
X12650315Y-2324763D01*
X12729537Y-2403985D01*
X12801367Y-2445456D01*
X12819295Y-2455807D01*
X12867511Y-2506374D01*
X12880733Y-2574981D01*
X12855058Y-2639111D01*
X12855162Y-2639191D01*
X12854880Y-2639558D01*
X12854765Y-2639846D01*
X12853980Y-2640731D01*
X12850213Y-2645640D01*
X12794198Y-2742660D01*
X12794198Y-2742661D01*
X12794197Y-2742663D01*
X12765200Y-2850882D01*
X12765200Y-2962918D01*
X12794197Y-3071137D01*
X12850215Y-3168163D01*
X12929437Y-3247385D01*
X12929440Y-3247386D01*
X12929443Y-3247389D01*
X12937192Y-3251863D01*
X12985407Y-3302430D01*
X12998629Y-3371038D01*
X12982580Y-3421246D01*
X12976798Y-3431260D01*
X12976797Y-3431263D01*
X12947800Y-3539482D01*
X12947800Y-3651518D01*
X12976797Y-3759737D01*
X13032815Y-3856763D01*
X13112037Y-3935985D01*
X13209063Y-3992003D01*
X13317282Y-4021000D01*
X13317284Y-4021000D01*
X13429316Y-4021000D01*
X13429318Y-4021000D01*
X13537537Y-3992003D01*
X13634563Y-3935985D01*
X13713785Y-3856763D01*
X13769803Y-3759737D01*
X13798800Y-3651518D01*
X13798800Y-3539482D01*
X13769803Y-3431263D01*
X13713785Y-3334237D01*
X13634563Y-3255015D01*
X13629104Y-3251863D01*
X13626804Y-3250535D01*
X13578590Y-3199966D01*
X13565370Y-3131359D01*
X13581422Y-3081148D01*
X13587203Y-3071137D01*
X13616200Y-2962918D01*
X13616200Y-2850882D01*
X13608697Y-2822882D01*
X14284200Y-2822882D01*
X14284200Y-2934918D01*
X14313197Y-3043137D01*
X14369215Y-3140163D01*
X14448437Y-3219385D01*
X14545463Y-3275403D01*
X14653682Y-3304400D01*
X14653684Y-3304400D01*
X14765716Y-3304400D01*
X14765718Y-3304400D01*
X14873937Y-3275403D01*
X14970963Y-3219385D01*
X15050185Y-3140163D01*
X15106203Y-3043137D01*
X15135200Y-2934918D01*
X15135200Y-2822882D01*
X15106203Y-2714663D01*
X15050185Y-2617637D01*
X14970963Y-2538415D01*
X14885374Y-2489000D01*
X14873939Y-2482398D01*
X14873938Y-2482397D01*
X14873937Y-2482397D01*
X14765718Y-2453400D01*
X14653682Y-2453400D01*
X14545463Y-2482397D01*
X14545460Y-2482398D01*
X14448440Y-2538413D01*
X14448434Y-2538417D01*
X14369217Y-2617634D01*
X14369213Y-2617640D01*
X14313198Y-2714660D01*
X14313197Y-2714663D01*
X14284200Y-2822882D01*
X13608697Y-2822882D01*
X13587203Y-2742663D01*
X13531185Y-2645637D01*
X13451963Y-2566415D01*
X13362203Y-2514592D01*
X13313988Y-2464025D01*
X13300766Y-2395417D01*
X13326440Y-2331287D01*
X13326338Y-2331209D01*
X13326616Y-2330845D01*
X13326734Y-2330553D01*
X13327521Y-2329666D01*
X13331276Y-2324771D01*
X13331285Y-2324763D01*
X13387303Y-2227737D01*
X13416300Y-2119518D01*
X13416300Y-2007482D01*
X13387303Y-1899263D01*
X13331285Y-1802237D01*
X13252063Y-1723015D01*
X13155037Y-1666997D01*
X13046818Y-1638000D01*
X12934782Y-1638000D01*
X12826563Y-1666997D01*
X12826560Y-1666998D01*
X12729540Y-1723013D01*
X12729534Y-1723017D01*
X12650317Y-1802234D01*
X12650313Y-1802240D01*
X12594298Y-1899260D01*
X12594297Y-1899263D01*
X12565300Y-2007482D01*
X11175500Y-2007482D01*
X11175500Y-1919882D01*
X11146503Y-1811663D01*
X11090485Y-1714637D01*
X11011263Y-1635415D01*
X10914237Y-1579397D01*
X10806018Y-1550400D01*
X10693982Y-1550400D01*
X10585763Y-1579397D01*
X10585760Y-1579398D01*
X10488740Y-1635413D01*
X10488734Y-1635417D01*
X10409517Y-1714634D01*
X10409513Y-1714640D01*
X10353498Y-1811660D01*
X10353497Y-1811663D01*
X10324500Y-1919882D01*
X5490630Y-1919882D01*
X5447963Y-1877215D01*
X5350937Y-1821197D01*
X5242718Y-1792200D01*
X5130682Y-1792200D01*
X5022463Y-1821197D01*
X5022460Y-1821198D01*
X4925440Y-1877213D01*
X4925434Y-1877217D01*
X4846217Y-1956434D01*
X4846213Y-1956440D01*
X4790198Y-2053460D01*
X4790197Y-2053463D01*
X4761200Y-2161682D01*
X-16354356Y-2161682D01*
X-16364806Y-2091234D01*
X-16365550Y-2085201D01*
X-16441813Y-1311417D01*
X-16442211Y-1307382D01*
X137100Y-1307382D01*
X137100Y-1419418D01*
X166097Y-1527637D01*
X222115Y-1624663D01*
X301337Y-1703885D01*
X398363Y-1759903D01*
X506582Y-1788900D01*
X506584Y-1788900D01*
X618616Y-1788900D01*
X618618Y-1788900D01*
X726837Y-1759903D01*
X823863Y-1703885D01*
X903085Y-1624663D01*
X959103Y-1527637D01*
X988100Y-1419418D01*
X988100Y-1307382D01*
X980169Y-1277782D01*
X14285000Y-1277782D01*
X14285000Y-1389818D01*
X14313997Y-1498037D01*
X14370015Y-1595063D01*
X14449237Y-1674285D01*
X14546263Y-1730303D01*
X14654482Y-1759300D01*
X14654484Y-1759300D01*
X14766516Y-1759300D01*
X14766518Y-1759300D01*
X14874737Y-1730303D01*
X14971763Y-1674285D01*
X15050985Y-1595063D01*
X15107003Y-1498037D01*
X15136000Y-1389818D01*
X15136000Y-1277782D01*
X15107003Y-1169563D01*
X15050985Y-1072537D01*
X14971763Y-993315D01*
X14907079Y-955969D01*
X14874739Y-937298D01*
X14874738Y-937297D01*
X14874737Y-937297D01*
X14766518Y-908300D01*
X14654482Y-908300D01*
X14546263Y-937297D01*
X14546260Y-937298D01*
X14449240Y-993313D01*
X14449234Y-993317D01*
X14370017Y-1072534D01*
X14370013Y-1072540D01*
X14313998Y-1169560D01*
X14313997Y-1169563D01*
X14285000Y-1277782D01*
X980169Y-1277782D01*
X959103Y-1199163D01*
X903085Y-1102137D01*
X823863Y-1022915D01*
X726837Y-966897D01*
X618618Y-937900D01*
X506582Y-937900D01*
X398363Y-966897D01*
X398360Y-966898D01*
X301340Y-1022913D01*
X301334Y-1022917D01*
X222117Y-1102134D01*
X222113Y-1102140D01*
X166098Y-1199160D01*
X166097Y-1199163D01*
X137100Y-1307382D01*
X-16442211Y-1307382D01*
X-16457831Y-1148891D01*
X-16458280Y-1142813D01*
X-16471213Y-879541D01*
X-16471296Y-877511D01*
X-16491755Y-252082D01*
X10092000Y-252082D01*
X10092000Y-364118D01*
X10120997Y-472337D01*
X10177015Y-569363D01*
X10256237Y-648585D01*
X10353263Y-704603D01*
X10461482Y-733600D01*
X10461484Y-733600D01*
X10573516Y-733600D01*
X10573518Y-733600D01*
X10681737Y-704603D01*
X10778763Y-648585D01*
X10857985Y-569363D01*
X10914003Y-472337D01*
X10943000Y-364118D01*
X10943000Y-252082D01*
X10914003Y-143863D01*
X10871752Y-70682D01*
X11168400Y-70682D01*
X11168400Y-182718D01*
X11197397Y-290937D01*
X11253415Y-387963D01*
X11332637Y-467185D01*
X11429663Y-523203D01*
X11537882Y-552200D01*
X11537884Y-552200D01*
X11649916Y-552200D01*
X11649918Y-552200D01*
X11758137Y-523203D01*
X11855163Y-467185D01*
X11934385Y-387963D01*
X11990403Y-290937D01*
X11999635Y-256482D01*
X12257400Y-256482D01*
X12257400Y-368518D01*
X12286397Y-476737D01*
X12342415Y-573763D01*
X12421637Y-652985D01*
X12518663Y-709003D01*
X12626882Y-738000D01*
X12626884Y-738000D01*
X12738916Y-738000D01*
X12738918Y-738000D01*
X12847137Y-709003D01*
X12944163Y-652985D01*
X13023385Y-573763D01*
X13079403Y-476737D01*
X13079405Y-476728D01*
X13081844Y-470842D01*
X13125681Y-416435D01*
X13191974Y-394366D01*
X13259675Y-411641D01*
X13307288Y-462775D01*
X13316183Y-486193D01*
X13323697Y-514238D01*
X13323698Y-514239D01*
X13342369Y-546579D01*
X13379715Y-611263D01*
X13458937Y-690485D01*
X13555963Y-746503D01*
X13664182Y-775500D01*
X13664184Y-775500D01*
X13776216Y-775500D01*
X13776218Y-775500D01*
X13884437Y-746503D01*
X13981463Y-690485D01*
X14060685Y-611263D01*
X14116703Y-514237D01*
X14145700Y-406018D01*
X14145700Y-293982D01*
X14116703Y-185763D01*
X14060685Y-88737D01*
X13981463Y-9515D01*
X13884437Y46503D01*
X13776218Y75500D01*
X13664182Y75500D01*
X13555963Y46503D01*
X13540432Y37536D01*
X13458940Y-9513D01*
X13458934Y-9517D01*
X13379717Y-88734D01*
X13379713Y-88740D01*
X13323697Y-185762D01*
X13321251Y-191668D01*
X13277408Y-246070D01*
X13211114Y-268133D01*
X13143415Y-250852D01*
X13095806Y-199714D01*
X13086917Y-176308D01*
X13079403Y-148263D01*
X13023385Y-51237D01*
X12944163Y27985D01*
X12847137Y84003D01*
X12738918Y113000D01*
X12626882Y113000D01*
X12518663Y84003D01*
X12421637Y27985D01*
X12421634Y27982D01*
X12342417Y-51234D01*
X12342413Y-51240D01*
X12286398Y-148260D01*
X12286397Y-148263D01*
X12257400Y-256482D01*
X11999635Y-256482D01*
X12019400Y-182718D01*
X12019400Y-70682D01*
X11990403Y37537D01*
X11934385Y134563D01*
X11855163Y213785D01*
X11758137Y269803D01*
X11649918Y298800D01*
X11537882Y298800D01*
X11429663Y269803D01*
X11332637Y213785D01*
X11253415Y134563D01*
X11226765Y88403D01*
X11202574Y46503D01*
X11197397Y37537D01*
X11168400Y-70682D01*
X10871752Y-70682D01*
X10857985Y-46837D01*
X10778763Y32385D01*
X10681737Y88403D01*
X10573518Y117400D01*
X10461482Y117400D01*
X10353263Y88403D01*
X10256237Y32385D01*
X10256234Y32382D01*
X10177017Y-46834D01*
X10177013Y-46840D01*
X10120998Y-143860D01*
X10120998Y-143861D01*
X10120997Y-143863D01*
X10092000Y-252082D01*
X-16491755Y-252082D01*
X-16491888Y-248009D01*
X-16491887Y-248008D01*
X-16494465Y-169215D01*
X-16494531Y-165162D01*
X-16494531Y165162D01*
X-16494465Y169216D01*
X-16483447Y506017D01*
X3054500Y506017D01*
X3054500Y393982D01*
X3083497Y285763D01*
X3083498Y285760D01*
X3139513Y188740D01*
X3139517Y188734D01*
X3218734Y109517D01*
X3218740Y109513D01*
X3315760Y53498D01*
X3315763Y53497D01*
X3423982Y24500D01*
X3536017Y24500D01*
X3536018Y24500D01*
X3644237Y53497D01*
X3741263Y109515D01*
X3820485Y188737D01*
X3876503Y285763D01*
X3905500Y393982D01*
X3905500Y506018D01*
X3876503Y614237D01*
X3820485Y711263D01*
X3741263Y790485D01*
X3644237Y846503D01*
X3536018Y875500D01*
X3423982Y875500D01*
X3315763Y846503D01*
X3218737Y790485D01*
X3139515Y711263D01*
X3139513Y711259D01*
X3083498Y614239D01*
X3083497Y614236D01*
X3054500Y506017D01*
X-16483447Y506017D01*
X-16483049Y518199D01*
X-16471296Y877511D01*
X-16471213Y879541D01*
X-16458280Y1142813D01*
X-16457831Y1148891D01*
X-16452201Y1206018D01*
X-6355500Y1206018D01*
X-6355500Y1093982D01*
X-6326503Y985763D01*
X-6270485Y888737D01*
X-6191263Y809515D01*
X-6094237Y753497D01*
X-5986018Y724500D01*
X-5986017Y724500D01*
X-5873982Y724500D01*
X-5765763Y753497D01*
X-5765760Y753498D01*
X-5668740Y809513D01*
X-5668734Y809517D01*
X-5589517Y888734D01*
X-5589513Y888740D01*
X-5533498Y985760D01*
X-5533497Y985763D01*
X-5504500Y1093982D01*
X-5504500Y1206015D01*
X-5504500Y1206016D01*
X-5504500Y1206018D01*
X-5519773Y1263017D01*
X7699700Y1263017D01*
X7699700Y1150982D01*
X7728697Y1042763D01*
X7728698Y1042760D01*
X7784713Y945740D01*
X7784717Y945734D01*
X7863934Y866517D01*
X7863940Y866513D01*
X7960960Y810498D01*
X7960963Y810497D01*
X8069182Y781500D01*
X8181217Y781500D01*
X8181218Y781500D01*
X8289437Y810497D01*
X8386463Y866515D01*
X8465685Y945737D01*
X8521703Y1042763D01*
X8550700Y1150982D01*
X8550700Y1263018D01*
X8549093Y1269017D01*
X9123300Y1269017D01*
X9123300Y1156982D01*
X9152297Y1048763D01*
X9152298Y1048760D01*
X9208313Y951740D01*
X9208317Y951734D01*
X9287534Y872517D01*
X9287540Y872513D01*
X9384560Y816498D01*
X9384563Y816497D01*
X9492782Y787500D01*
X9604817Y787500D01*
X9604818Y787500D01*
X9713037Y816497D01*
X9810063Y872515D01*
X9889285Y951737D01*
X9945303Y1048763D01*
X9974300Y1156982D01*
X9974300Y1269018D01*
X9956267Y1336317D01*
X12881600Y1336317D01*
X12881600Y1224282D01*
X12910597Y1116063D01*
X12910598Y1116060D01*
X12966613Y1019040D01*
X12966617Y1019034D01*
X13045834Y939817D01*
X13045840Y939813D01*
X13142860Y883798D01*
X13142863Y883797D01*
X13251082Y854800D01*
X13363117Y854800D01*
X13363118Y854800D01*
X13471337Y883797D01*
X13479894Y888737D01*
X13514292Y908597D01*
X13568363Y939815D01*
X13647585Y1019037D01*
X13703603Y1116063D01*
X13732600Y1224282D01*
X13732600Y1336318D01*
X13725955Y1361117D01*
X14141200Y1361117D01*
X14141200Y1249082D01*
X14170197Y1140863D01*
X14170198Y1140860D01*
X14226213Y1043840D01*
X14226217Y1043834D01*
X14305434Y964617D01*
X14305440Y964613D01*
X14402460Y908598D01*
X14402463Y908597D01*
X14510682Y879600D01*
X14622717Y879600D01*
X14622718Y879600D01*
X14730937Y908597D01*
X14827963Y964615D01*
X14907185Y1043837D01*
X14963203Y1140863D01*
X14992200Y1249082D01*
X14992200Y1361118D01*
X14963203Y1469337D01*
X14907185Y1566363D01*
X14827963Y1645585D01*
X14730937Y1701603D01*
X14622718Y1730600D01*
X14510682Y1730600D01*
X14402463Y1701603D01*
X14305437Y1645585D01*
X14226215Y1566363D01*
X14170197Y1469337D01*
X14143912Y1371237D01*
X14141200Y1361117D01*
X13725955Y1361117D01*
X13703603Y1444537D01*
X13647585Y1541563D01*
X13568363Y1620785D01*
X13471337Y1676803D01*
X13363118Y1705800D01*
X13251082Y1705800D01*
X13142863Y1676803D01*
X13045837Y1620785D01*
X12966615Y1541563D01*
X12910597Y1444537D01*
X12881601Y1336319D01*
X12881600Y1336317D01*
X9956267Y1336317D01*
X9945303Y1377237D01*
X9889285Y1474263D01*
X9880050Y1483497D01*
X9870958Y1502834D01*
X9867569Y1524669D01*
X9859601Y1545280D01*
X9862316Y1558521D01*
X9860244Y1571877D01*
X9869198Y1592078D01*
X9873638Y1613725D01*
X9883080Y1623394D01*
X9888558Y1635753D01*
X9907014Y1647907D01*
X9922451Y1663716D01*
X9936668Y1667435D01*
X9946911Y1674180D01*
X9963143Y1674360D01*
X9983171Y1679600D01*
X10051217Y1679600D01*
X10051218Y1679600D01*
X10159437Y1708597D01*
X10256463Y1764615D01*
X10335685Y1843837D01*
X10391703Y1940863D01*
X10420700Y2049082D01*
X10420700Y2161118D01*
X10391703Y2269337D01*
X10335685Y2366363D01*
X10279867Y2422180D01*
X10268707Y2442617D01*
X12683300Y2442617D01*
X12683300Y2330582D01*
X12712297Y2222363D01*
X12712298Y2222360D01*
X12768313Y2125340D01*
X12768317Y2125334D01*
X12847534Y2046117D01*
X12847540Y2046113D01*
X12944560Y1990098D01*
X12944563Y1990097D01*
X13052782Y1961100D01*
X13164817Y1961100D01*
X13164818Y1961100D01*
X13273037Y1990097D01*
X13370063Y2046115D01*
X13449285Y2125337D01*
X13505303Y2222363D01*
X13534300Y2330582D01*
X13534300Y2442618D01*
X13505303Y2550837D01*
X13449285Y2647863D01*
X13370063Y2727085D01*
X13273037Y2783103D01*
X13164818Y2812100D01*
X13052782Y2812100D01*
X12944563Y2783103D01*
X12847537Y2727085D01*
X12768315Y2647863D01*
X12712297Y2550837D01*
X12684096Y2445586D01*
X12683300Y2442617D01*
X10268707Y2442617D01*
X10246383Y2483501D01*
X10251367Y2553193D01*
X10293238Y2609126D01*
X10305549Y2617247D01*
X10337359Y2635612D01*
X10337365Y2635617D01*
X10416582Y2714834D01*
X10416585Y2714837D01*
X10472603Y2811863D01*
X10501600Y2920082D01*
X10501600Y3032118D01*
X10472603Y3140337D01*
X10416585Y3237363D01*
X10337363Y3316585D01*
X10240337Y3372603D01*
X10132118Y3401600D01*
X10020082Y3401600D01*
X9911863Y3372603D01*
X9814837Y3316585D01*
X9735615Y3237363D01*
X9708551Y3190486D01*
X9682886Y3146033D01*
X9679597Y3140337D01*
X9655689Y3051108D01*
X9650600Y3032117D01*
X9650600Y2920082D01*
X9679597Y2811863D01*
X9679598Y2811860D01*
X9735613Y2714840D01*
X9735614Y2714838D01*
X9791432Y2659020D01*
X9824916Y2597696D01*
X9819931Y2528004D01*
X9778060Y2472071D01*
X9765753Y2463953D01*
X9733937Y2445585D01*
X9654715Y2366363D01*
X9598697Y2269337D01*
X9574112Y2177582D01*
X9569700Y2161117D01*
X9569700Y2049082D01*
X9598697Y1940863D01*
X9598698Y1940860D01*
X9654715Y1843835D01*
X9659203Y1837988D01*
X9684399Y1772820D01*
X9670362Y1704375D01*
X9621549Y1654384D01*
X9560829Y1638500D01*
X9492782Y1638500D01*
X9384563Y1609503D01*
X9287537Y1553485D01*
X9208315Y1474263D01*
X9152297Y1377237D01*
X9132052Y1301679D01*
X9123300Y1269017D01*
X8549093Y1269017D01*
X8521703Y1371237D01*
X8465685Y1468263D01*
X8386463Y1547485D01*
X8289437Y1603503D01*
X8181218Y1632500D01*
X8069182Y1632500D01*
X7960963Y1603503D01*
X7863937Y1547485D01*
X7784715Y1468263D01*
X7784713Y1468259D01*
X7732161Y1377236D01*
X7728697Y1371237D01*
X7701308Y1269017D01*
X7699700Y1263017D01*
X-5519773Y1263017D01*
X-5533497Y1314237D01*
X-5561448Y1362649D01*
X-5564952Y1371791D01*
X-5567003Y1397248D01*
X-5573026Y1422073D01*
X-5569764Y1431497D01*
X-5570565Y1441435D01*
X-5558528Y1463959D01*
X-5550173Y1488100D01*
X-5542334Y1494264D01*
X-5537635Y1503058D01*
X-5515329Y1515500D01*
X-5495251Y1531290D01*
X-5481261Y1535947D01*
X-5460294Y1541565D01*
X-5415763Y1553497D01*
X-5415762Y1553497D01*
X-5415760Y1553498D01*
X-5318740Y1609513D01*
X-5318734Y1609517D01*
X-5239517Y1688734D01*
X-5239513Y1688740D01*
X-5183498Y1785760D01*
X-5183497Y1785763D01*
X-5154732Y1893118D01*
X-2589000Y1893118D01*
X-2589000Y1781082D01*
X-2560003Y1672863D01*
X-2503985Y1575837D01*
X-2424763Y1496615D01*
X-2377516Y1469337D01*
X-2329189Y1441435D01*
X-2327737Y1440597D01*
X-2219518Y1411600D01*
X-2219517Y1411600D01*
X-2107482Y1411600D01*
X-1999263Y1440597D01*
X-1999260Y1440598D01*
X-1902240Y1496613D01*
X-1902234Y1496617D01*
X-1823017Y1575834D01*
X-1823013Y1575840D01*
X-1766998Y1672860D01*
X-1766997Y1672863D01*
X-1738000Y1781082D01*
X-1738000Y1893117D01*
X-1750792Y1940860D01*
X-1766997Y2001337D01*
X-1769700Y2006018D01*
X-1785669Y2033679D01*
X-1823015Y2098363D01*
X-1902237Y2177585D01*
X-1999263Y2233603D01*
X-2107482Y2262600D01*
X-2219518Y2262600D01*
X-2327737Y2233603D01*
X-2424763Y2177585D01*
X-2503985Y2098363D01*
X-2560003Y2001337D01*
X-2589000Y1893118D01*
X-5154732Y1893118D01*
X-5154500Y1893982D01*
X-5154500Y2006017D01*
X-5156615Y2013913D01*
X-5183497Y2114237D01*
X-5189906Y2125337D01*
X-5239513Y2211259D01*
X-5239515Y2211263D01*
X-5318737Y2290485D01*
X-5415763Y2346503D01*
X-5523982Y2375500D01*
X-5636018Y2375500D01*
X-5744237Y2346503D01*
X-5841263Y2290485D01*
X-5920485Y2211263D01*
X-5976503Y2114237D01*
X-6005500Y2006018D01*
X-6005500Y1893982D01*
X-5976503Y1785763D01*
X-5973800Y1781082D01*
X-5953446Y1745827D01*
X-5936973Y1677927D01*
X-5959826Y1611900D01*
X-6014747Y1568709D01*
X-6028728Y1564055D01*
X-6094237Y1546503D01*
X-6191263Y1490485D01*
X-6270485Y1411263D01*
X-6326503Y1314237D01*
X-6355500Y1206018D01*
X-16452201Y1206018D01*
X-16450201Y1226307D01*
X-16365550Y2085201D01*
X-16364806Y2091234D01*
X-16326716Y2348013D01*
X-16326403Y2350008D01*
X-16316434Y2410417D01*
X3081500Y2410417D01*
X3081500Y2298382D01*
X3110497Y2190163D01*
X3110498Y2190160D01*
X3166513Y2093140D01*
X3166517Y2093134D01*
X3245734Y2013917D01*
X3245740Y2013913D01*
X3342760Y1957898D01*
X3342763Y1957897D01*
X3450982Y1928900D01*
X3563017Y1928900D01*
X3563018Y1928900D01*
X3671237Y1957897D01*
X3768263Y2013915D01*
X3847485Y2093137D01*
X3903503Y2190163D01*
X3932500Y2298382D01*
X3932500Y2410418D01*
X3903503Y2518637D01*
X3847485Y2615663D01*
X3768263Y2694885D01*
X3671237Y2750903D01*
X3563018Y2779900D01*
X3450982Y2779900D01*
X3342763Y2750903D01*
X3245737Y2694885D01*
X3166515Y2615663D01*
X3110497Y2518637D01*
X3085274Y2424500D01*
X3081500Y2410417D01*
X-16316434Y2410417D01*
X-16234648Y2906018D01*
X-11836900Y2906018D01*
X-11836900Y2793982D01*
X-11807903Y2685763D01*
X-11751885Y2588737D01*
X-11672663Y2509515D01*
X-11575637Y2453497D01*
X-11467418Y2424500D01*
X-11467417Y2424500D01*
X-11355382Y2424500D01*
X-11247163Y2453497D01*
X-11247160Y2453498D01*
X-11150140Y2509513D01*
X-11150134Y2509517D01*
X-11070917Y2588734D01*
X-11070913Y2588740D01*
X-11014898Y2685760D01*
X-11014897Y2685763D01*
X-10985900Y2793982D01*
X-10985900Y2906017D01*
X-10989669Y2920082D01*
X-11000398Y2960127D01*
X-11014897Y3014238D01*
X-11040578Y3058718D01*
X-890400Y3058718D01*
X-890400Y2946682D01*
X-861403Y2838463D01*
X-805385Y2741437D01*
X-726163Y2662215D01*
X-629137Y2606197D01*
X-520918Y2577200D01*
X-520917Y2577200D01*
X-408882Y2577200D01*
X-300663Y2606197D01*
X-300660Y2606198D01*
X-203640Y2662213D01*
X-203634Y2662217D01*
X-124417Y2741434D01*
X-124411Y2741443D01*
X-87875Y2804726D01*
X-37309Y2852942D01*
X31298Y2866166D01*
X96163Y2840198D01*
X126898Y2804729D01*
X159513Y2748240D01*
X159517Y2748234D01*
X238734Y2669017D01*
X238740Y2669013D01*
X335760Y2612998D01*
X335763Y2612997D01*
X443982Y2584000D01*
X556017Y2584000D01*
X556018Y2584000D01*
X664237Y2612997D01*
X761263Y2669015D01*
X840485Y2748237D01*
X896503Y2845263D01*
X925500Y2953482D01*
X925500Y3065518D01*
X896503Y3173737D01*
X840485Y3270763D01*
X761263Y3349985D01*
X664237Y3406003D01*
X556018Y3435000D01*
X443982Y3435000D01*
X335763Y3406003D01*
X238737Y3349985D01*
X159515Y3270763D01*
X124152Y3209513D01*
X122974Y3207472D01*
X72407Y3159256D01*
X3800Y3146033D01*
X-61065Y3172001D01*
X-91800Y3207472D01*
X-92978Y3209513D01*
X-124415Y3263963D01*
X-203637Y3343185D01*
X-300663Y3399203D01*
X-408882Y3428200D01*
X-520918Y3428200D01*
X-629137Y3399203D01*
X-726163Y3343185D01*
X-805385Y3263963D01*
X-861403Y3166937D01*
X-890400Y3058718D01*
X-11040578Y3058718D01*
X-11070913Y3111259D01*
X-11070915Y3111263D01*
X-11150137Y3190485D01*
X-11247163Y3246503D01*
X-11355382Y3275500D01*
X-11467418Y3275500D01*
X-11575637Y3246503D01*
X-11672663Y3190485D01*
X-11751885Y3111263D01*
X-11807903Y3014237D01*
X-11836900Y2906018D01*
X-16234648Y2906018D01*
X-16229975Y2934335D01*
X-16210705Y3051108D01*
X-16209977Y3055111D01*
X-16145153Y3380999D01*
X-16144296Y3384967D01*
X-16092750Y3606017D01*
X1024500Y3606017D01*
X1024500Y3493982D01*
X1049748Y3399752D01*
X1049749Y3399749D01*
X1053497Y3385763D01*
X1109515Y3288737D01*
X1115732Y3282519D01*
X1115734Y3282517D01*
X1188734Y3209517D01*
X1188740Y3209513D01*
X1285760Y3153498D01*
X1285763Y3153497D01*
X1393982Y3124500D01*
X1506017Y3124500D01*
X1506018Y3124500D01*
X1614237Y3153497D01*
X1711263Y3209515D01*
X1790485Y3288737D01*
X1846503Y3385763D01*
X1875500Y3493982D01*
X1875500Y3606018D01*
X1846503Y3714237D01*
X1790485Y3811263D01*
X1713931Y3887817D01*
X14283000Y3887817D01*
X14283000Y3775782D01*
X14311997Y3667563D01*
X14311998Y3667560D01*
X14368013Y3570540D01*
X14368017Y3570534D01*
X14447234Y3491317D01*
X14447240Y3491313D01*
X14544260Y3435298D01*
X14544263Y3435297D01*
X14652482Y3406300D01*
X14764517Y3406300D01*
X14764518Y3406300D01*
X14872737Y3435297D01*
X14969763Y3491315D01*
X15048985Y3570537D01*
X15105003Y3667563D01*
X15134000Y3775782D01*
X15134000Y3887818D01*
X15105003Y3996037D01*
X15048985Y4093063D01*
X14969763Y4172285D01*
X14872737Y4228303D01*
X14764518Y4257300D01*
X14652482Y4257300D01*
X14544263Y4228303D01*
X14447237Y4172285D01*
X14368015Y4093063D01*
X14311997Y3996037D01*
X14298725Y3946503D01*
X14283000Y3887817D01*
X1713931Y3887817D01*
X1711263Y3890485D01*
X1614237Y3946503D01*
X1506018Y3975500D01*
X1393982Y3975500D01*
X1285763Y3946503D01*
X1188737Y3890485D01*
X1109515Y3811263D01*
X1109513Y3811259D01*
X1053498Y3714239D01*
X1053497Y3714236D01*
X1024500Y3606017D01*
X-16092750Y3606017D01*
X-15983630Y4073962D01*
X-15983154Y4075932D01*
X-15919146Y4331463D01*
X-15917885Y4336018D01*
X-4555500Y4336018D01*
X-4555500Y4223982D01*
X-4526503Y4115763D01*
X-4470485Y4018737D01*
X-4391263Y3939515D01*
X-4326579Y3902169D01*
X-4301720Y3887817D01*
X-4294237Y3883497D01*
X-4186018Y3854500D01*
X-4186017Y3854500D01*
X-4073982Y3854500D01*
X-3965763Y3883497D01*
X-3965760Y3883498D01*
X-3868740Y3939513D01*
X-3868734Y3939517D01*
X-3789517Y4018734D01*
X-3789513Y4018740D01*
X-3733498Y4115760D01*
X-3733497Y4115763D01*
X-3704500Y4223982D01*
X-3704500Y4336017D01*
X-3710582Y4358718D01*
X-3733497Y4444237D01*
X-3789515Y4541263D01*
X-3868737Y4620485D01*
X-3965763Y4676503D01*
X-4073982Y4705500D01*
X-4186018Y4705500D01*
X-4294237Y4676503D01*
X-4391263Y4620485D01*
X-4470485Y4541263D01*
X-4526503Y4444237D01*
X-4555500Y4336018D01*
X-15917885Y4336018D01*
X-15917521Y4337334D01*
X-15904532Y4380146D01*
X-15708153Y5027417D01*
X2869000Y5027417D01*
X2869000Y4915382D01*
X2897997Y4807163D01*
X2897998Y4807160D01*
X2954013Y4710140D01*
X2954017Y4710134D01*
X3033234Y4630917D01*
X3033240Y4630913D01*
X3130260Y4574898D01*
X3130263Y4574897D01*
X3238482Y4545900D01*
X3350517Y4545900D01*
X3350518Y4545900D01*
X3355433Y4547217D01*
X10324500Y4547217D01*
X10324500Y4435182D01*
X10353497Y4326963D01*
X10353498Y4326960D01*
X10409513Y4229940D01*
X10409517Y4229934D01*
X10488734Y4150717D01*
X10488740Y4150713D01*
X10585760Y4094698D01*
X10585763Y4094697D01*
X10693982Y4065700D01*
X10806017Y4065700D01*
X10806018Y4065700D01*
X10914237Y4094697D01*
X11011263Y4150715D01*
X11090485Y4229937D01*
X11137000Y4310504D01*
X11187565Y4358718D01*
X11256172Y4371942D01*
X11321037Y4345974D01*
X11332067Y4336185D01*
X11397538Y4270714D01*
X11397540Y4270713D01*
X11494560Y4214698D01*
X11494563Y4214697D01*
X11602782Y4185700D01*
X11714817Y4185700D01*
X11714818Y4185700D01*
X11823037Y4214697D01*
X11846602Y4228302D01*
X11857552Y4234624D01*
X11925453Y4251097D01*
X11991479Y4228244D01*
X12007233Y4214919D01*
X12065938Y4156214D01*
X12065940Y4156213D01*
X12162960Y4100198D01*
X12162963Y4100197D01*
X12271182Y4071200D01*
X12383217Y4071200D01*
X12383218Y4071200D01*
X12491437Y4100197D01*
X12588463Y4156215D01*
X12667685Y4235437D01*
X12723703Y4332463D01*
X12752700Y4440682D01*
X12752700Y4552718D01*
X12723703Y4660937D01*
X12667685Y4757963D01*
X12588463Y4837185D01*
X12491437Y4893203D01*
X12383218Y4922200D01*
X12271182Y4922200D01*
X12162963Y4893203D01*
X12128447Y4873275D01*
X12060547Y4856802D01*
X11994520Y4879654D01*
X11978777Y4892970D01*
X11920063Y4951685D01*
X11823037Y5007703D01*
X11714818Y5036700D01*
X11602782Y5036700D01*
X11494563Y5007703D01*
X11397537Y4951685D01*
X11318315Y4872463D01*
X11280613Y4807160D01*
X11271800Y4791896D01*
X11221233Y4743681D01*
X11152626Y4730457D01*
X11087762Y4756425D01*
X11076748Y4766199D01*
X11011263Y4831685D01*
X10914237Y4887703D01*
X10806018Y4916700D01*
X10693982Y4916700D01*
X10585763Y4887703D01*
X10488737Y4831685D01*
X10409515Y4752463D01*
X10409513Y4752459D01*
X10356674Y4660939D01*
X10353497Y4655437D01*
X10325974Y4552717D01*
X10324500Y4547217D01*
X3355433Y4547217D01*
X3458737Y4574897D01*
X3555763Y4630915D01*
X3634985Y4710137D01*
X3691003Y4807163D01*
X3720000Y4915382D01*
X3720000Y5027418D01*
X3691003Y5135637D01*
X3634985Y5232663D01*
X3555763Y5311885D01*
X3458737Y5367903D01*
X3350518Y5396900D01*
X3238482Y5396900D01*
X3130263Y5367903D01*
X3033237Y5311885D01*
X2954015Y5232663D01*
X2954013Y5232659D01*
X2897998Y5135639D01*
X2897997Y5135636D01*
X2869000Y5027417D01*
X-15708153Y5027417D01*
X-15694764Y5071546D01*
X-15644326Y5237790D01*
X-15642418Y5243563D01*
X-15554950Y5488019D01*
X-15554252Y5489921D01*
X-15304584Y6153317D01*
X2324500Y6153317D01*
X2324500Y6041282D01*
X2353497Y5933063D01*
X2353498Y5933060D01*
X2409513Y5836040D01*
X2409517Y5836034D01*
X2488734Y5756817D01*
X2488740Y5756813D01*
X2585760Y5700798D01*
X2585763Y5700797D01*
X2693982Y5671800D01*
X2806017Y5671800D01*
X2806018Y5671800D01*
X2914237Y5700797D01*
X3011263Y5756815D01*
X3090485Y5836037D01*
X3146503Y5933063D01*
X3175500Y6041282D01*
X3175500Y6059517D01*
X7699700Y6059517D01*
X7699700Y5947482D01*
X7728697Y5839263D01*
X7728698Y5839260D01*
X7784713Y5742240D01*
X7784717Y5742234D01*
X7863934Y5663017D01*
X7863940Y5663013D01*
X7960960Y5606998D01*
X7960963Y5606997D01*
X8069182Y5578000D01*
X8181217Y5578000D01*
X8181218Y5578000D01*
X8289437Y5606997D01*
X8386463Y5663015D01*
X8465685Y5742237D01*
X8521703Y5839263D01*
X8550700Y5947482D01*
X8550700Y6059518D01*
X8536204Y6113617D01*
X9311200Y6113617D01*
X9311200Y6001582D01*
X9340197Y5893363D01*
X9340198Y5893360D01*
X9396213Y5796340D01*
X9396217Y5796334D01*
X9475434Y5717117D01*
X9475440Y5717113D01*
X9572460Y5661098D01*
X9572463Y5661097D01*
X9680682Y5632100D01*
X9792717Y5632100D01*
X9792718Y5632100D01*
X9900937Y5661097D01*
X9997963Y5717115D01*
X10077185Y5796337D01*
X10133203Y5893363D01*
X10162200Y6001582D01*
X10162200Y6113618D01*
X10133203Y6221837D01*
X10077185Y6318863D01*
X9997963Y6398085D01*
X9900937Y6454103D01*
X9792718Y6483100D01*
X9680682Y6483100D01*
X9572463Y6454103D01*
X9475437Y6398085D01*
X9396215Y6318863D01*
X9340197Y6221837D01*
X9321838Y6153317D01*
X9311200Y6113617D01*
X8536204Y6113617D01*
X8521703Y6167737D01*
X8465685Y6264763D01*
X8386463Y6343985D01*
X8289437Y6400003D01*
X8181218Y6429000D01*
X8069182Y6429000D01*
X7960963Y6400003D01*
X7863937Y6343985D01*
X7784715Y6264763D01*
X7728697Y6167737D01*
X7707775Y6089652D01*
X7699700Y6059517D01*
X3175500Y6059517D01*
X3175500Y6153318D01*
X3146503Y6261537D01*
X3090485Y6358563D01*
X3011263Y6437785D01*
X2914237Y6493803D01*
X2806018Y6522800D01*
X2693982Y6522800D01*
X2585763Y6493803D01*
X2488737Y6437785D01*
X2409515Y6358563D01*
X2393496Y6330817D01*
X2355360Y6264763D01*
X2353497Y6261537D01*
X2328364Y6167736D01*
X2324500Y6153317D01*
X-15304584Y6153317D01*
X-15303531Y6156116D01*
X-15302039Y6159894D01*
X-15281740Y6208899D01*
X-15281739Y6208900D01*
X-15175790Y6464685D01*
X-15174177Y6468406D01*
X-15044955Y6753617D01*
X11077800Y6753617D01*
X11077800Y6641582D01*
X11106797Y6533363D01*
X11106798Y6533360D01*
X11162813Y6436340D01*
X11162817Y6436334D01*
X11242034Y6357117D01*
X11242040Y6357113D01*
X11339060Y6301098D01*
X11339063Y6301097D01*
X11447282Y6272100D01*
X11559317Y6272100D01*
X11559318Y6272100D01*
X11667537Y6301097D01*
X11719014Y6330817D01*
X12682300Y6330817D01*
X12682300Y6218782D01*
X12711297Y6110563D01*
X12711298Y6110560D01*
X12767313Y6013540D01*
X12767317Y6013534D01*
X12846534Y5934317D01*
X12846540Y5934313D01*
X12943560Y5878298D01*
X12943563Y5878297D01*
X13051782Y5849300D01*
X13163817Y5849300D01*
X13163818Y5849300D01*
X13272037Y5878297D01*
X13369063Y5934315D01*
X13448285Y6013537D01*
X13504303Y6110563D01*
X13533300Y6218782D01*
X13533300Y6330818D01*
X13504303Y6439037D01*
X13448285Y6536063D01*
X13369063Y6615285D01*
X13272037Y6671303D01*
X13163818Y6700300D01*
X13051782Y6700300D01*
X12943563Y6671303D01*
X12846537Y6615285D01*
X12767315Y6536063D01*
X12711297Y6439037D01*
X12685828Y6343982D01*
X12682300Y6330817D01*
X11719014Y6330817D01*
X11764563Y6357115D01*
X11843785Y6436337D01*
X11899803Y6533363D01*
X11928800Y6641582D01*
X11928800Y6753618D01*
X11899803Y6861837D01*
X11843785Y6958863D01*
X11764563Y7038085D01*
X11764167Y7038313D01*
X11763903Y7038590D01*
X11758114Y7043033D01*
X11758806Y7043935D01*
X11715953Y7088880D01*
X11702729Y7157487D01*
X11728697Y7222351D01*
X11785611Y7262880D01*
X11826168Y7269700D01*
X11911717Y7269700D01*
X11911718Y7269700D01*
X12019937Y7298697D01*
X12028984Y7303920D01*
X12052279Y7317369D01*
X12116963Y7354715D01*
X12196185Y7433937D01*
X12252203Y7530963D01*
X12281200Y7639182D01*
X12281200Y7751218D01*
X12252203Y7859437D01*
X12196185Y7956463D01*
X12116963Y8035685D01*
X12019937Y8091703D01*
X11911718Y8120700D01*
X11799682Y8120700D01*
X11691463Y8091703D01*
X11594437Y8035685D01*
X11515215Y7956463D01*
X11459197Y7859437D01*
X11434901Y7768760D01*
X11430200Y7751217D01*
X11430200Y7639182D01*
X11459197Y7530963D01*
X11459198Y7530960D01*
X11515213Y7433940D01*
X11515217Y7433934D01*
X11594434Y7354717D01*
X11594440Y7354713D01*
X11594832Y7354487D01*
X11595096Y7354209D01*
X11600886Y7349767D01*
X11600193Y7348864D01*
X11643047Y7303920D01*
X11656271Y7235313D01*
X11630303Y7170449D01*
X11573389Y7129920D01*
X11532832Y7123100D01*
X11447282Y7123100D01*
X11339063Y7094103D01*
X11242037Y7038085D01*
X11162815Y6958863D01*
X11162813Y6958859D01*
X11106798Y6861839D01*
X11106797Y6861836D01*
X11077800Y6753617D01*
X-15044955Y6753617D01*
X-15018087Y6812919D01*
X-14881385Y7114638D01*
X-14880532Y7116481D01*
X-14768238Y7353905D01*
X-14765499Y7359344D01*
X-14428907Y7989018D01*
X-3025500Y7989018D01*
X-3025500Y7876982D01*
X-2996503Y7768763D01*
X-2940485Y7671737D01*
X-2861263Y7592515D01*
X-2764237Y7536497D01*
X-2656018Y7507500D01*
X-2656017Y7507500D01*
X-2543982Y7507500D01*
X-2435763Y7536497D01*
X-2435760Y7536498D01*
X-2338740Y7592513D01*
X-2338734Y7592517D01*
X-2259517Y7671734D01*
X-2259513Y7671740D01*
X-2203498Y7768760D01*
X-2203497Y7768763D01*
X-2174500Y7876982D01*
X-2174500Y7989017D01*
X-2184007Y8024500D01*
X-2203497Y8097237D01*
X-2203498Y8097239D01*
X-2259513Y8194260D01*
X-2259517Y8194265D01*
X-2338734Y8273482D01*
X-2338737Y8273485D01*
X-2435763Y8329503D01*
X-2543982Y8358500D01*
X-2656018Y8358500D01*
X-2764237Y8329503D01*
X-2861263Y8273485D01*
X-2940485Y8194263D01*
X-2940486Y8194260D01*
X-2940487Y8194260D01*
X-2943677Y8188734D01*
X-2996503Y8097237D01*
X-3025500Y7989018D01*
X-14428907Y7989018D01*
X-14393315Y8055601D01*
X-14393315Y8055602D01*
X-14322024Y8188968D01*
X-14319026Y8194260D01*
X-14185372Y8417246D01*
X-14184313Y8418980D01*
X-13807898Y9024268D01*
X-13805701Y9027676D01*
X-13623656Y9300125D01*
X-13621350Y9303457D01*
X-13206609Y9882276D01*
X-13205411Y9883920D01*
X-13111194Y10010957D01*
X-11600000Y10010957D01*
X-11600000Y9788043D01*
X-11570904Y9567037D01*
X-11513210Y9351719D01*
X-11427905Y9145774D01*
X-11316448Y8952726D01*
X-11316441Y8952717D01*
X-11180748Y8775877D01*
X-11180742Y8775870D01*
X-11023129Y8618257D01*
X-11023122Y8618251D01*
X-10876853Y8506016D01*
X-10846274Y8482552D01*
X-10692867Y8393982D01*
X-10653226Y8371095D01*
X-10653222Y8371093D01*
X-10447290Y8285793D01*
X-10447283Y8285791D01*
X-10447281Y8285790D01*
X-10231963Y8228096D01*
X-10231957Y8228095D01*
X-10231952Y8228094D01*
X-10010966Y8199001D01*
X-10010963Y8199000D01*
X-10010957Y8199000D01*
X-10010950Y8199000D01*
X-9788050Y8199000D01*
X-9788043Y8199000D01*
X-9788037Y8199000D01*
X-9788033Y8199001D01*
X-9567047Y8228094D01*
X-9567040Y8228095D01*
X-9567037Y8228096D01*
X-9351719Y8285790D01*
X-9351709Y8285793D01*
X-9145777Y8371093D01*
X-9145773Y8371095D01*
X-8952726Y8482552D01*
X-8952716Y8482558D01*
X-8922144Y8506017D01*
X3090900Y8506017D01*
X3090900Y8393982D01*
X3119897Y8285763D01*
X3119898Y8285760D01*
X3175913Y8188740D01*
X3175917Y8188734D01*
X3255134Y8109517D01*
X3255140Y8109513D01*
X3352160Y8053498D01*
X3352163Y8053497D01*
X3460382Y8024500D01*
X3572417Y8024500D01*
X3572418Y8024500D01*
X3680637Y8053497D01*
X3777663Y8109515D01*
X3856885Y8188737D01*
X3894286Y8253517D01*
X9561100Y8253517D01*
X9561100Y8141482D01*
X9590097Y8033263D01*
X9590098Y8033260D01*
X9646113Y7936240D01*
X9646117Y7936234D01*
X9725334Y7857017D01*
X9725340Y7857013D01*
X9822360Y7800998D01*
X9822363Y7800997D01*
X9930582Y7772000D01*
X10042617Y7772000D01*
X10042618Y7772000D01*
X10150837Y7800997D01*
X10247863Y7857015D01*
X10327085Y7936237D01*
X10383103Y8033263D01*
X10412100Y8141482D01*
X10412100Y8253518D01*
X10383103Y8361737D01*
X10327085Y8458763D01*
X10279831Y8506017D01*
X12685800Y8506017D01*
X12685800Y8393982D01*
X12714797Y8285763D01*
X12714798Y8285760D01*
X12770813Y8188740D01*
X12770817Y8188734D01*
X12850034Y8109517D01*
X12850040Y8109513D01*
X12947060Y8053498D01*
X12947063Y8053497D01*
X13055282Y8024500D01*
X13167317Y8024500D01*
X13167318Y8024500D01*
X13275537Y8053497D01*
X13372563Y8109515D01*
X13451785Y8188737D01*
X13507803Y8285763D01*
X13536800Y8393982D01*
X13536800Y8506018D01*
X13507803Y8614237D01*
X13451785Y8711263D01*
X13372563Y8790485D01*
X13275537Y8846503D01*
X13167318Y8875500D01*
X13055282Y8875500D01*
X12947063Y8846503D01*
X12850037Y8790485D01*
X12770815Y8711263D01*
X12714797Y8614237D01*
X12694366Y8537985D01*
X12685800Y8506017D01*
X10279831Y8506017D01*
X10247863Y8537985D01*
X10150837Y8594003D01*
X10042618Y8623000D01*
X9930582Y8623000D01*
X9822363Y8594003D01*
X9725337Y8537985D01*
X9646115Y8458763D01*
X9590097Y8361737D01*
X9566450Y8273482D01*
X9561100Y8253517D01*
X3894286Y8253517D01*
X3912903Y8285763D01*
X3941900Y8393982D01*
X3941900Y8506018D01*
X3912903Y8614237D01*
X3856885Y8711263D01*
X3777663Y8790485D01*
X3680637Y8846503D01*
X3572418Y8875500D01*
X3460382Y8875500D01*
X3352163Y8846503D01*
X3255137Y8790485D01*
X3175915Y8711263D01*
X3119897Y8614237D01*
X3099466Y8537985D01*
X3090900Y8506017D01*
X-8922144Y8506017D01*
X-8783350Y8612517D01*
X-8783347Y8612520D01*
X-8775873Y8618254D01*
X-8618257Y8775870D01*
X-8618251Y8775877D01*
X-8482558Y8952717D01*
X-8482552Y8952726D01*
X-8371095Y9145773D01*
X-8371093Y9145777D01*
X-8285793Y9351709D01*
X-8285790Y9351719D01*
X-8270753Y9407839D01*
X-8228096Y9567037D01*
X-8228095Y9567040D01*
X-8228094Y9567047D01*
X-8199001Y9788033D01*
X-8199000Y9788049D01*
X-8199000Y9929017D01*
X3078200Y9929017D01*
X3078200Y9816982D01*
X3107197Y9708763D01*
X3107198Y9708760D01*
X3163213Y9611740D01*
X3163217Y9611734D01*
X3242434Y9532517D01*
X3242440Y9532513D01*
X3339460Y9476498D01*
X3339463Y9476497D01*
X3447682Y9447500D01*
X3559717Y9447500D01*
X3559718Y9447500D01*
X3667937Y9476497D01*
X3764963Y9532515D01*
X3844185Y9611737D01*
X3882048Y9677317D01*
X6363100Y9677317D01*
X6363100Y9565282D01*
X6392097Y9457063D01*
X6392098Y9457060D01*
X6448113Y9360040D01*
X6448117Y9360034D01*
X6527334Y9280817D01*
X6527340Y9280813D01*
X6624360Y9224798D01*
X6624363Y9224797D01*
X6732582Y9195800D01*
X6844617Y9195800D01*
X6844618Y9195800D01*
X6952837Y9224797D01*
X7049863Y9280815D01*
X7068665Y9299617D01*
X8451900Y9299617D01*
X8451900Y9187582D01*
X8480897Y9079363D01*
X8480898Y9079360D01*
X8536913Y8982340D01*
X8536917Y8982334D01*
X8616134Y8903117D01*
X8616140Y8903113D01*
X8713160Y8847098D01*
X8713163Y8847097D01*
X8821382Y8818100D01*
X8933417Y8818100D01*
X8933418Y8818100D01*
X9041637Y8847097D01*
X9138663Y8903115D01*
X9217885Y8982337D01*
X9273903Y9079363D01*
X9302900Y9187582D01*
X9302900Y9299618D01*
X9273903Y9407837D01*
X9217885Y9504863D01*
X9138663Y9584085D01*
X9041637Y9640103D01*
X8933418Y9669100D01*
X8821382Y9669100D01*
X8713163Y9640103D01*
X8616137Y9584085D01*
X8536915Y9504863D01*
X8480897Y9407837D01*
X8465861Y9351719D01*
X8451900Y9299617D01*
X7068665Y9299617D01*
X7129085Y9360037D01*
X7185103Y9457063D01*
X7214100Y9565282D01*
X7214100Y9677318D01*
X7185103Y9785537D01*
X7129085Y9882563D01*
X7098331Y9913317D01*
X9565700Y9913317D01*
X9565700Y9801282D01*
X9594697Y9693063D01*
X9594698Y9693060D01*
X9650713Y9596040D01*
X9650717Y9596034D01*
X9729934Y9516817D01*
X9729940Y9516813D01*
X9826960Y9460798D01*
X9826963Y9460797D01*
X9935182Y9431800D01*
X10047217Y9431800D01*
X10047218Y9431800D01*
X10155437Y9460797D01*
X10252463Y9516815D01*
X10253265Y9517617D01*
X11066500Y9517617D01*
X11066500Y9405582D01*
X11095497Y9297363D01*
X11095498Y9297360D01*
X11151513Y9200340D01*
X11151517Y9200334D01*
X11230734Y9121117D01*
X11230740Y9121113D01*
X11327760Y9065098D01*
X11327763Y9065097D01*
X11435982Y9036100D01*
X11548017Y9036100D01*
X11548018Y9036100D01*
X11656237Y9065097D01*
X11753263Y9121115D01*
X11832485Y9200337D01*
X11888503Y9297363D01*
X11917500Y9405582D01*
X11917500Y9517618D01*
X11888503Y9625837D01*
X11832485Y9722863D01*
X11832484Y9722863D01*
X11828421Y9729902D01*
X11829853Y9730729D01*
X11808115Y9786956D01*
X11822152Y9855401D01*
X11844004Y9884956D01*
X11846082Y9887034D01*
X11846085Y9887037D01*
X11902103Y9984063D01*
X11931100Y10092282D01*
X11931100Y10204318D01*
X11902103Y10312537D01*
X11846085Y10409563D01*
X11766863Y10488785D01*
X11669837Y10544803D01*
X11561618Y10573800D01*
X11449582Y10573800D01*
X11341363Y10544803D01*
X11244337Y10488785D01*
X11165115Y10409563D01*
X11109097Y10312537D01*
X11082556Y10213482D01*
X11080100Y10204317D01*
X11080100Y10092282D01*
X11109097Y9984063D01*
X11109098Y9984060D01*
X11169178Y9879999D01*
X11167748Y9879173D01*
X11189486Y9822921D01*
X11175436Y9754479D01*
X11153595Y9724943D01*
X11151515Y9722863D01*
X11095497Y9625837D01*
X11079272Y9565282D01*
X11066500Y9517617D01*
X10253265Y9517617D01*
X10331685Y9596037D01*
X10387703Y9693063D01*
X10416700Y9801282D01*
X10416700Y9913318D01*
X10387703Y10021537D01*
X10331685Y10118563D01*
X10252463Y10197785D01*
X10155437Y10253803D01*
X10047218Y10282800D01*
X9935182Y10282800D01*
X9826963Y10253803D01*
X9729937Y10197785D01*
X9650715Y10118563D01*
X9650713Y10118559D01*
X9603763Y10037239D01*
X9594697Y10021537D01*
X9569907Y9929016D01*
X9565700Y9913317D01*
X7098331Y9913317D01*
X7049863Y9961785D01*
X6952837Y10017803D01*
X6844618Y10046800D01*
X6732582Y10046800D01*
X6624363Y10017803D01*
X6527337Y9961785D01*
X6448115Y9882563D01*
X6446635Y9879999D01*
X6401189Y9801284D01*
X6392097Y9785537D01*
X6377412Y9730729D01*
X6363100Y9677317D01*
X3882048Y9677317D01*
X3900203Y9708763D01*
X3929200Y9816982D01*
X3929200Y9929018D01*
X3900203Y10037237D01*
X3844185Y10134263D01*
X3764963Y10213485D01*
X3667937Y10269503D01*
X3559718Y10298500D01*
X3447682Y10298500D01*
X3339463Y10269503D01*
X3242437Y10213485D01*
X3163215Y10134263D01*
X3107197Y10037237D01*
X3092949Y9984060D01*
X3078200Y9929017D01*
X-8199000Y9929017D01*
X-8199000Y10010950D01*
X-8199001Y10010966D01*
X-8228094Y10231952D01*
X-8228095Y10231957D01*
X-8228096Y10231963D01*
X-8285790Y10447281D01*
X-8285791Y10447283D01*
X-8285793Y10447290D01*
X-8371093Y10653222D01*
X-8371095Y10653226D01*
X-8409509Y10719760D01*
X-8482552Y10846274D01*
X-8537558Y10917960D01*
X-8618251Y11023122D01*
X-8618257Y11023129D01*
X-8733346Y11138218D01*
X-31600Y11138218D01*
X-31600Y11026182D01*
X-2603Y10917963D01*
X-2601Y10917960D01*
X53413Y10820940D01*
X53417Y10820934D01*
X132634Y10741717D01*
X132640Y10741713D01*
X229660Y10685698D01*
X229663Y10685697D01*
X337882Y10656700D01*
X449917Y10656700D01*
X449918Y10656700D01*
X558137Y10685697D01*
X655163Y10741715D01*
X734385Y10820937D01*
X790403Y10917963D01*
X796312Y10940017D01*
X3924500Y10940017D01*
X3924500Y10827982D01*
X3953497Y10719763D01*
X3953498Y10719760D01*
X4009513Y10622740D01*
X4009517Y10622734D01*
X4088734Y10543517D01*
X4088740Y10543513D01*
X4185760Y10487498D01*
X4185763Y10487497D01*
X4293982Y10458500D01*
X4406017Y10458500D01*
X4406018Y10458500D01*
X4514237Y10487497D01*
X4611263Y10543515D01*
X4690485Y10622737D01*
X4746503Y10719763D01*
X4775500Y10827982D01*
X4775500Y10940018D01*
X4746503Y11048237D01*
X4690485Y11145263D01*
X4611263Y11224485D01*
X4514237Y11280503D01*
X4406018Y11309500D01*
X4293982Y11309500D01*
X4185763Y11280503D01*
X4088737Y11224485D01*
X4009515Y11145263D01*
X3953497Y11048237D01*
X3946770Y11023129D01*
X3924500Y10940017D01*
X796312Y10940017D01*
X819400Y11026182D01*
X819400Y11138218D01*
X790403Y11246437D01*
X734385Y11343463D01*
X655163Y11422685D01*
X558137Y11478703D01*
X449918Y11507700D01*
X337882Y11507700D01*
X229663Y11478703D01*
X132637Y11422685D01*
X53415Y11343463D01*
X-2603Y11246437D01*
X-31600Y11138218D01*
X-8733346Y11138218D01*
X-8775870Y11180742D01*
X-8775877Y11180748D01*
X-8952717Y11316441D01*
X-8952726Y11316448D01*
X-9145774Y11427905D01*
X-9338414Y11507699D01*
X-9351709Y11513206D01*
X-9351710Y11513206D01*
X-9351719Y11513210D01*
X-9567037Y11570904D01*
X-9788043Y11600000D01*
X-10010957Y11600000D01*
X-10231963Y11570904D01*
X-10447281Y11513210D01*
X-10653226Y11427905D01*
X-10846274Y11316448D01*
X-11023124Y11180747D01*
X-11180747Y11023124D01*
X-11316448Y10846274D01*
X-11427905Y10653226D01*
X-11513210Y10447281D01*
X-11570904Y10231963D01*
X-11600000Y10010957D01*
X-13111194Y10010957D01*
X-13053400Y10088883D01*
X-13053395Y10088889D01*
X-13049954Y10093528D01*
X-13046216Y10098317D01*
X-12449833Y10825053D01*
X-12445856Y10829664D01*
X-12268462Y11025389D01*
X-12267089Y11026879D01*
X-11783992Y11542701D01*
X-11781168Y11545619D01*
X-11545619Y11781168D01*
X-11542701Y11783992D01*
X-11026879Y12267089D01*
X-11025389Y12268462D01*
X-10829664Y12445856D01*
X-10825053Y12449833D01*
X-10756588Y12506018D01*
X-5430800Y12506018D01*
X-5430800Y12393982D01*
X-5401803Y12285763D01*
X-5345785Y12188737D01*
X-5266563Y12109515D01*
X-5169537Y12053497D01*
X-5061318Y12024500D01*
X-5061317Y12024500D01*
X-4949282Y12024500D01*
X-4841063Y12053497D01*
X-4841060Y12053498D01*
X-4744040Y12109513D01*
X-4744034Y12109517D01*
X-4664817Y12188734D01*
X-4664813Y12188740D01*
X-4608798Y12285760D01*
X-4608797Y12285763D01*
X-4579800Y12393982D01*
X-4579800Y12506017D01*
X-4580615Y12509061D01*
X-4608797Y12614237D01*
X-4608798Y12614239D01*
X-4608799Y12614243D01*
X-4644132Y12675440D01*
X-4644135Y12675444D01*
X-4664813Y12711259D01*
X-4664815Y12711263D01*
X-4682869Y12729317D01*
X4686700Y12729317D01*
X4686700Y12617282D01*
X4715697Y12509063D01*
X4715698Y12509060D01*
X4771713Y12412040D01*
X4771717Y12412034D01*
X4850934Y12332817D01*
X4850940Y12332813D01*
X4947960Y12276798D01*
X4947963Y12276797D01*
X5056182Y12247800D01*
X5168217Y12247800D01*
X5168218Y12247800D01*
X5276437Y12276797D01*
X5291962Y12285760D01*
X5308779Y12295469D01*
X5373463Y12332815D01*
X5452685Y12412037D01*
X5506944Y12506017D01*
X6324500Y12506017D01*
X6324500Y12393982D01*
X6353497Y12285763D01*
X6353498Y12285760D01*
X6409513Y12188740D01*
X6409517Y12188734D01*
X6488734Y12109517D01*
X6488740Y12109513D01*
X6585760Y12053498D01*
X6585763Y12053497D01*
X6693982Y12024500D01*
X6806017Y12024500D01*
X6806018Y12024500D01*
X6914237Y12053497D01*
X7011263Y12109515D01*
X7090485Y12188737D01*
X7146503Y12285763D01*
X7175500Y12393982D01*
X7175500Y12506018D01*
X7146503Y12614237D01*
X7090485Y12711263D01*
X7011263Y12790485D01*
X6914237Y12846503D01*
X6806018Y12875500D01*
X6693982Y12875500D01*
X6585763Y12846503D01*
X6488737Y12790485D01*
X6409515Y12711263D01*
X6353497Y12614237D01*
X6325316Y12509061D01*
X6324500Y12506017D01*
X5506944Y12506017D01*
X5508703Y12509063D01*
X5537700Y12617282D01*
X5537700Y12729318D01*
X5508703Y12837537D01*
X5452685Y12934563D01*
X5373463Y13013785D01*
X5276437Y13069803D01*
X5168218Y13098800D01*
X5056182Y13098800D01*
X4947963Y13069803D01*
X4850937Y13013785D01*
X4771715Y12934563D01*
X4737615Y12875500D01*
X4715698Y12837539D01*
X4715697Y12837536D01*
X4686700Y12729317D01*
X-4682869Y12729317D01*
X-4744037Y12790485D01*
X-4841063Y12846503D01*
X-4949282Y12875500D01*
X-5061318Y12875500D01*
X-5169537Y12846503D01*
X-5266563Y12790485D01*
X-5345785Y12711263D01*
X-5401803Y12614237D01*
X-5430800Y12506018D01*
X-10756588Y12506018D01*
X-10629878Y12610000D01*
X-10098317Y13046216D01*
X-10093522Y13049959D01*
X-9883920Y13205411D01*
X-9882276Y13206609D01*
X-9743541Y13306017D01*
X7877900Y13306017D01*
X7877900Y13193982D01*
X7906897Y13085763D01*
X7906899Y13085758D01*
X7946908Y13016459D01*
X7963379Y12948559D01*
X7946907Y12892461D01*
X7915198Y12837539D01*
X7915197Y12837536D01*
X7886200Y12729317D01*
X7886200Y12617282D01*
X7915197Y12509063D01*
X7915198Y12509060D01*
X7971213Y12412040D01*
X7971217Y12412034D01*
X8050434Y12332817D01*
X8050440Y12332813D01*
X8147460Y12276798D01*
X8147463Y12276797D01*
X8255682Y12247800D01*
X8367717Y12247800D01*
X8367718Y12247800D01*
X8475937Y12276797D01*
X8491462Y12285760D01*
X8508279Y12295469D01*
X8572963Y12332815D01*
X8652185Y12412037D01*
X8708203Y12509063D01*
X8737200Y12617282D01*
X8737200Y12729318D01*
X8708203Y12837537D01*
X8668191Y12906838D01*
X8651719Y12974738D01*
X8668192Y13030838D01*
X8699903Y13085763D01*
X8728900Y13193982D01*
X8728900Y13306018D01*
X8699903Y13414237D01*
X8643885Y13511263D01*
X8564663Y13590485D01*
X8467637Y13646503D01*
X8359418Y13675500D01*
X8247382Y13675500D01*
X8139163Y13646503D01*
X8042137Y13590485D01*
X7962915Y13511263D01*
X7962913Y13511259D01*
X7906898Y13414239D01*
X7906897Y13414236D01*
X7877900Y13306017D01*
X-9743541Y13306017D01*
X-9591525Y13414941D01*
X-9303457Y13621350D01*
X-9300125Y13623656D01*
X-9027676Y13805701D01*
X-9024268Y13807898D01*
X-8418980Y14184313D01*
X-8417246Y14185372D01*
X-8194260Y14319026D01*
X-8188968Y14322024D01*
X-7359345Y14765499D01*
X-7353905Y14768238D01*
X-7116481Y14880532D01*
X-7114638Y14881385D01*
X-7060272Y14906017D01*
X3086700Y14906017D01*
X3086700Y14793982D01*
X3115697Y14685763D01*
X3115698Y14685760D01*
X3171713Y14588740D01*
X3171717Y14588734D01*
X3250934Y14509517D01*
X3250940Y14509513D01*
X3347960Y14453498D01*
X3347963Y14453497D01*
X3456182Y14424500D01*
X3568217Y14424500D01*
X3568218Y14424500D01*
X3676437Y14453497D01*
X3773463Y14509515D01*
X3852685Y14588737D01*
X3908703Y14685763D01*
X3937700Y14793982D01*
X3937700Y14906018D01*
X3908703Y15014237D01*
X3852685Y15111263D01*
X3773463Y15190485D01*
X3676437Y15246503D01*
X3568218Y15275500D01*
X3456182Y15275500D01*
X3347963Y15246503D01*
X3250937Y15190485D01*
X3171715Y15111263D01*
X3171713Y15111259D01*
X3115698Y15014239D01*
X3115697Y15014236D01*
X3086700Y14906017D01*
X-7060272Y14906017D01*
X-6793041Y15027093D01*
X-6468406Y15174177D01*
X-6464685Y15175790D01*
X-6159893Y15302039D01*
X-6156116Y15303531D01*
X-5489921Y15554252D01*
X-5488019Y15554950D01*
X-5243563Y15642418D01*
X-5237790Y15644326D01*
X-4337334Y15917521D01*
X-4331463Y15919146D01*
X-4075932Y15983154D01*
X-4073962Y15983630D01*
X-3384967Y16144296D01*
X-3380999Y16145153D01*
X-3055111Y16209977D01*
X-3051109Y16210705D01*
X-2350008Y16326403D01*
X-2348013Y16326716D01*
X-2091234Y16364806D01*
X-2085201Y16365550D01*
X-1148891Y16457831D01*
X-1142813Y16458280D01*
X-879541Y16471213D01*
X-877511Y16471296D01*
X-182563Y16494028D01*
X-169216Y16494465D01*
X-165164Y16494531D01*
X165164Y16494531D01*
X169216Y16494465D01*
G37*
%TD.AperFunction*%
%TD*%
M02*
