%TF.GenerationSoftware,KiCad,Pcbnew,10.0.3*%
%TF.CreationDate,2026-09-02T13:33:33+02:00*%
%TF.ProjectId,activation_interface,61637469-7661-4746-996f-6e5f696e7465,rev?*%
%TF.SameCoordinates,Original*%
%TF.FileFunction,Copper,L14,Bot*%
%TF.FilePolarity,Positive*%
%FSLAX46Y46*%
G04 Gerber Fmt 4.6, Leading zero omitted, Abs format (unit mm)*
G04 Created by KiCad (PCBNEW 10.0.3) date 2026-09-02 13:33:33*
%MOMM*%
%LPD*%
G01*
G04 APERTURE LIST*
%TA.AperFunction,SMDPad,CuDef*%
%ADD10R,0.900000X0.900000*%
%TD*%
%TA.AperFunction,ViaPad*%
%ADD11C,0.450000*%
%TD*%
%TA.AperFunction,Conductor*%
%ADD12C,0.100000*%
%TD*%
G04 APERTURE END LIST*
D10*
%TO.P,P_activation_interface_spacer_aft_end_board_activation_interface,1*%
%TO.N,3V3*%
X13950000Y-5950000D03*
%TO.P,P_activation_interface_spacer_aft_end_board_activation_interface,2*%
%TO.N,3V3_AON*%
X13950000Y-4350000D03*
%TO.P,P_activation_interface_spacer_aft_end_board_activation_interface,3*%
%TO.N,ACTIVATE_CONFIRM*%
X13950000Y-2750000D03*
%TO.P,P_activation_interface_spacer_aft_end_board_activation_interface,4*%
%TO.N,ACTIVATE_SET*%
X13950000Y-1150000D03*
%TO.P,P_activation_interface_spacer_aft_end_board_activation_interface,5*%
%TO.N,BAT_PROT*%
X13950000Y450000D03*
%TO.P,P_activation_interface_spacer_aft_end_board_activation_interface,6*%
%TO.N,BAT_RAW*%
X13950000Y2050000D03*
%TO.P,P_activation_interface_spacer_aft_end_board_activation_interface,7*%
%TO.N,BOOT0*%
X13950000Y3650000D03*
%TO.P,P_activation_interface_spacer_aft_end_board_activation_interface,8*%
%TO.N,COMP_5V*%
X13950000Y5250000D03*
%TO.P,P_activation_interface_spacer_aft_end_board_activation_interface,9*%
%TO.N,COMP_SWDCLK*%
X12350000Y-5950000D03*
%TO.P,P_activation_interface_spacer_aft_end_board_activation_interface,10*%
%TO.N,COMP_SWDIO*%
X12350000Y-4350000D03*
%TO.P,P_activation_interface_spacer_aft_end_board_activation_interface,11*%
%TO.N,EXT_CAN_RX*%
X12350000Y-2750000D03*
%TO.P,P_activation_interface_spacer_aft_end_board_activation_interface,12*%
%TO.N,EXT_CAN_TX*%
X12350000Y8450000D03*
%TO.P,P_activation_interface_spacer_aft_end_board_activation_interface,13*%
%TO.N,FIN1_AOUT1*%
X10750000Y-5950000D03*
%TO.P,P_activation_interface_spacer_aft_end_board_activation_interface,14*%
%TO.N,FIN2_AOUT1*%
X10750000Y-4350000D03*
%TO.P,P_activation_interface_spacer_aft_end_board_activation_interface,15*%
%TO.N,FIN3_AOUT1*%
X10750000Y-2750000D03*
%TO.P,P_activation_interface_spacer_aft_end_board_activation_interface,16*%
%TO.N,FIN4_AOUT1*%
X10750000Y8450000D03*
%TO.P,P_activation_interface_spacer_aft_end_board_activation_interface,17*%
%TO.N,FIN_HALL*%
X10750000Y10050000D03*
%TO.P,P_activation_interface_spacer_aft_end_board_activation_interface,18*%
%TO.N,FIN_VREF*%
X9150000Y8450000D03*
%TO.P,P_activation_interface_spacer_aft_end_board_activation_interface,19*%
%TO.N,FIRE_HV*%
X9150000Y10050000D03*
%TO.P,P_activation_interface_spacer_aft_end_board_activation_interface,20*%
%TO.N,FLEX_GND*%
X9150000Y11650000D03*
%TO.P,P_activation_interface_spacer_aft_end_board_activation_interface,21*%
%TO.N,GPIO_EXT_0*%
X7550000Y13250000D03*
%TO.P,P_activation_interface_spacer_aft_end_board_activation_interface,22*%
%TO.N,GPIO_EXT_1*%
X5950000Y-13950000D03*
%TO.P,P_activation_interface_spacer_aft_end_board_activation_interface,23*%
%TO.N,GPIO_EXT_2*%
X5950000Y-12350000D03*
%TO.P,P_activation_interface_spacer_aft_end_board_activation_interface,24*%
%TO.N,GPIO_EXT_3*%
X5950000Y-10750000D03*
%TO.P,P_activation_interface_spacer_aft_end_board_activation_interface,25*%
%TO.N,JUMP_WAKE*%
X5950000Y13250000D03*
%TO.P,P_activation_interface_spacer_aft_end_board_activation_interface,26*%
%TO.N,NRST*%
X4350000Y-13950000D03*
%TO.P,P_activation_interface_spacer_aft_end_board_activation_interface,27*%
%TO.N,SWO*%
X4350000Y-12350000D03*
%TO.P,P_activation_interface_spacer_aft_end_board_activation_interface,28*%
%TO.N,SYS_I2C_SCL*%
X4350000Y-10750000D03*
%TO.P,P_activation_interface_spacer_aft_end_board_activation_interface,29*%
%TO.N,SYS_I2C_SDA*%
X4350000Y13250000D03*
%TO.P,P_activation_interface_spacer_aft_end_board_activation_interface,30*%
%TO.N,SYS_SPI_CS_FIN*%
X2750000Y-13950000D03*
%TO.P,P_activation_interface_spacer_aft_end_board_activation_interface,31*%
%TO.N,SYS_SPI_MISO*%
X2750000Y6850000D03*
%TO.P,P_activation_interface_spacer_aft_end_board_activation_interface,32*%
%TO.N,SYS_SPI_MOSI*%
X2750000Y8450000D03*
%TO.P,P_activation_interface_spacer_aft_end_board_activation_interface,33*%
%TO.N,SYS_SPI_SCLK*%
X2750000Y10050000D03*
%TO.P,P_activation_interface_spacer_aft_end_board_activation_interface,34*%
%TO.N,3V3*%
X2750000Y11650000D03*
%TO.P,P_activation_interface_spacer_aft_end_board_activation_interface,35*%
%TO.N,3V3_AON*%
X2750000Y13250000D03*
%TO.P,P_activation_interface_spacer_aft_end_board_activation_interface,36*%
%TO.N,BAT_PROT*%
X2750000Y14850000D03*
%TO.P,P_activation_interface_spacer_aft_end_board_activation_interface,37*%
%TO.N,BAT_RAW*%
X1150000Y-13950000D03*
%TO.P,P_activation_interface_spacer_aft_end_board_activation_interface,38*%
%TO.N,COMP_5V*%
X1150000Y11650000D03*
%TO.P,P_activation_interface_spacer_aft_end_board_activation_interface,39*%
%TO.N,FIRE_HV*%
X1150000Y13250000D03*
%TO.P,P_activation_interface_spacer_aft_end_board_activation_interface,40*%
%TO.N,3V3*%
X1150000Y14850000D03*
%TO.P,P_activation_interface_spacer_aft_end_board_activation_interface,41*%
%TO.N,FLEX_GND*%
X-450000Y-13950000D03*
%TO.P,P_activation_interface_spacer_aft_end_board_activation_interface,42*%
X-450000Y11650000D03*
%TO.P,P_activation_interface_spacer_aft_end_board_activation_interface,43*%
X-450000Y13250000D03*
%TO.P,P_activation_interface_spacer_aft_end_board_activation_interface,44*%
X-450000Y14850000D03*
%TO.P,P_activation_interface_spacer_aft_end_board_activation_interface,45*%
X-2050000Y-13950000D03*
%TO.P,P_activation_interface_spacer_aft_end_board_activation_interface,46*%
X-2050000Y-12350000D03*
%TO.P,P_activation_interface_spacer_aft_end_board_activation_interface,47*%
X-2050000Y11650000D03*
%TO.P,P_activation_interface_spacer_aft_end_board_activation_interface,48*%
X-2050000Y13250000D03*
%TO.P,P_activation_interface_spacer_aft_end_board_activation_interface,49*%
X-2050000Y14850000D03*
%TO.P,P_activation_interface_spacer_aft_end_board_activation_interface,50*%
X-3650000Y-13950000D03*
%TO.P,P_activation_interface_spacer_aft_end_board_activation_interface,51*%
X-3650000Y-12350000D03*
%TO.P,P_activation_interface_spacer_aft_end_board_activation_interface,52*%
X-3650000Y13250000D03*
%TO.P,P_activation_interface_spacer_aft_end_board_activation_interface,53*%
X-3650000Y14850000D03*
%TO.P,P_activation_interface_spacer_aft_end_board_activation_interface,54*%
X-5250000Y-13950000D03*
%TO.P,P_activation_interface_spacer_aft_end_board_activation_interface,55*%
X-5250000Y-12350000D03*
%TO.P,P_activation_interface_spacer_aft_end_board_activation_interface,56*%
X-5250000Y13250000D03*
%TO.P,P_activation_interface_spacer_aft_end_board_activation_interface,57*%
X-6850000Y-12350000D03*
%TO.P,P_activation_interface_spacer_aft_end_board_activation_interface,58*%
X-6850000Y-10750000D03*
%TO.P,P_activation_interface_spacer_aft_end_board_activation_interface,59*%
X-6850000Y-9150000D03*
%TO.P,P_activation_interface_spacer_aft_end_board_activation_interface,60*%
X-6850000Y-7550000D03*
%TO.P,P_activation_interface_spacer_aft_end_board_activation_interface,61*%
X-6850000Y13250000D03*
%TO.P,P_activation_interface_spacer_aft_end_board_activation_interface,62*%
X-8450000Y-12350000D03*
%TO.P,P_activation_interface_spacer_aft_end_board_activation_interface,63*%
X-8450000Y-10750000D03*
%TO.P,P_activation_interface_spacer_aft_end_board_activation_interface,64*%
X-8450000Y-9150000D03*
%TO.P,P_activation_interface_spacer_aft_end_board_activation_interface,65*%
X-8450000Y-7550000D03*
%TO.P,P_activation_interface_spacer_aft_end_board_activation_interface,66*%
X-10050000Y-10750000D03*
%TO.P,P_activation_interface_spacer_aft_end_board_activation_interface,67*%
X-10050000Y-9150000D03*
%TO.P,P_activation_interface_spacer_aft_end_board_activation_interface,68*%
X-10050000Y-7550000D03*
%TO.P,P_activation_interface_spacer_aft_end_board_activation_interface,69*%
X-10050000Y-5950000D03*
%TO.P,P_activation_interface_spacer_aft_end_board_activation_interface,70*%
X-10050000Y-4350000D03*
%TO.P,P_activation_interface_spacer_aft_end_board_activation_interface,71*%
X-10050000Y-2750000D03*
%TO.P,P_activation_interface_spacer_aft_end_board_activation_interface,72*%
X-10050000Y-1150000D03*
%TO.P,P_activation_interface_spacer_aft_end_board_activation_interface,73*%
X-11650000Y-9150000D03*
%TO.P,P_activation_interface_spacer_aft_end_board_activation_interface,74*%
X-11650000Y-7550000D03*
%TO.P,P_activation_interface_spacer_aft_end_board_activation_interface,75*%
X-11650000Y-5950000D03*
%TO.P,P_activation_interface_spacer_aft_end_board_activation_interface,76*%
X-11650000Y-4350000D03*
%TO.P,P_activation_interface_spacer_aft_end_board_activation_interface,77*%
X-11650000Y-2750000D03*
%TO.P,P_activation_interface_spacer_aft_end_board_activation_interface,78*%
X-11650000Y2050000D03*
%TO.P,P_activation_interface_spacer_aft_end_board_activation_interface,79*%
X-11650000Y3650000D03*
%TO.P,P_activation_interface_spacer_aft_end_board_activation_interface,80*%
X-11650000Y5250000D03*
%TO.P,P_activation_interface_spacer_aft_end_board_activation_interface,81*%
X-13250000Y-7550000D03*
%TO.P,P_activation_interface_spacer_aft_end_board_activation_interface,82*%
X-13250000Y-5950000D03*
%TO.P,P_activation_interface_spacer_aft_end_board_activation_interface,83*%
X-13250000Y-4350000D03*
%TO.P,P_activation_interface_spacer_aft_end_board_activation_interface,84*%
X-13250000Y-2750000D03*
%TO.P,P_activation_interface_spacer_aft_end_board_activation_interface,85*%
X-13250000Y-1150000D03*
%TO.P,P_activation_interface_spacer_aft_end_board_activation_interface,86*%
X-13250000Y450000D03*
%TO.P,P_activation_interface_spacer_aft_end_board_activation_interface,87*%
X-13250000Y2050000D03*
%TO.P,P_activation_interface_spacer_aft_end_board_activation_interface,88*%
X-13250000Y3650000D03*
%TO.P,P_activation_interface_spacer_aft_end_board_activation_interface,89*%
X-13250000Y5250000D03*
%TO.P,P_activation_interface_spacer_aft_end_board_activation_interface,90*%
X-13250000Y6850000D03*
%TO.P,P_activation_interface_spacer_aft_end_board_activation_interface,91*%
X-14850000Y-2750000D03*
%TO.P,P_activation_interface_spacer_aft_end_board_activation_interface,92*%
X-14850000Y-1150000D03*
%TO.P,P_activation_interface_spacer_aft_end_board_activation_interface,93*%
X-14850000Y450000D03*
%TO.P,P_activation_interface_spacer_aft_end_board_activation_interface,94*%
X-14850000Y2050000D03*
%TO.P,P_activation_interface_spacer_aft_end_board_activation_interface,95*%
X-14850000Y3650000D03*
%TD*%
D11*
%TO.N,FIRE_HV*%
X562600Y-1363400D03*
X-2600000Y7933000D03*
X6788600Y9621300D03*
%TO.N,FLEX_GND*%
X1450000Y3550000D03*
X-11411400Y2850000D03*
X-5005300Y12450000D03*
X6750000Y12450000D03*
%TO.N,3V3*%
X6350000Y3670000D03*
X9600000Y4460000D03*
X3660000Y11010000D03*
X14000000Y-5910000D03*
X-6670000Y-600000D03*
X8910000Y10810000D03*
%TO.N,I2C3_SCL*%
X-464900Y3002700D03*
X10076100Y2976100D03*
%TO.N,I2C3_SDA*%
X500000Y3009500D03*
X10750000Y4491200D03*
%TO.N,H3LIS_INT1*%
X9995200Y2105100D03*
X3507000Y2354400D03*
%TO.N,COMP_5V*%
X-4820000Y-8200000D03*
X-5580000Y1950000D03*
X393900Y11082200D03*
X3480000Y450000D03*
X5050000Y-4400000D03*
X-3770000Y-7090000D03*
X12327200Y4496700D03*
%TO.N,FIRE_FB*%
X-2163500Y1837100D03*
X4850000Y-5510000D03*
X5186700Y-2217700D03*
%TO.N,FIRE_COMP*%
X-4130000Y4280000D03*
X5490000Y-5760000D03*
%TO.N,FIRE_SW*%
X-5317800Y-7519200D03*
X3294500Y4971400D03*
%TO.N,FIRE_FREQ*%
X-5930000Y1150000D03*
X5220000Y-7580000D03*
%TO.N,3V3_AON*%
X13373300Y-3595500D03*
X13107800Y6274800D03*
X4350000Y10884000D03*
%TO.N,ACTIVATE_CONFIRM*%
X14709700Y-2878900D03*
%TO.N,ACTIVATE_SET*%
X14710500Y-1333800D03*
%TO.N,BAT_PROT*%
X9736700Y6057600D03*
X12682900Y-312500D03*
X3512200Y14850000D03*
%TO.N,BAT_RAW*%
X475600Y-13275600D03*
X14566700Y1305100D03*
X8877400Y9243600D03*
%TO.N,BOOT0*%
X14708500Y3831800D03*
%TO.N,COMP_SWDCLK*%
X12431000Y-6708500D03*
%TO.N,COMP_SWDIO*%
X11773300Y-6704000D03*
%TO.N,EXT_CAN_RX*%
X13190700Y-2906900D03*
%TO.N,EXT_CAN_TX*%
X13111300Y8450000D03*
X13720200Y-350000D03*
%TO.N,FIN1_AOUT1*%
X9419300Y-6704000D03*
X11593900Y-126700D03*
%TO.N,FIN2_AOUT1*%
X12032900Y-3587900D03*
X13307100Y1280300D03*
%TO.N,FIN3_AOUT1*%
X12990800Y-2063500D03*
X13108800Y2386600D03*
%TO.N,FIN4_AOUT1*%
X11855700Y7695200D03*
X11658800Y4611200D03*
%TO.N,FIN_HALL*%
X11503300Y6697600D03*
X11505600Y10148300D03*
%TO.N,FIN_VREF*%
X11492000Y9461600D03*
%TO.N,GPIO_EXT_0*%
X10750000Y-3593800D03*
X8303400Y13250000D03*
%TO.N,GPIO_EXT_1*%
X9922500Y-2664200D03*
X6706900Y-13950000D03*
%TO.N,GPIO_EXT_2*%
X10750000Y-1975900D03*
X6709500Y-12231800D03*
%TO.N,GPIO_EXT_3*%
X10517500Y-308100D03*
X5950000Y-8396500D03*
%TO.N,JUMP_WAKE*%
X8311700Y12673300D03*
%TO.N,NRST*%
X9986600Y8197500D03*
X6720600Y-13374800D03*
%TO.N,SWO*%
X6715400Y-11329000D03*
X9991200Y9857300D03*
%TO.N,SYS_I2C_SCL*%
X4350000Y-9982400D03*
X8397300Y-5950000D03*
%TO.N,SYS_I2C_SDA*%
X8395700Y-4527600D03*
X5112200Y12673300D03*
%TO.N,SYS_SPI_CS_FIN*%
X10407300Y-5104600D03*
X3512500Y-10849300D03*
%TO.N,SYS_SPI_MISO*%
X2750000Y6097300D03*
X8125200Y1207000D03*
%TO.N,SYS_SPI_MOSI*%
X9548800Y1213000D03*
X3516400Y8450000D03*
%TO.N,SYS_SPI_SCLK*%
X3503700Y9873000D03*
X8125200Y6003500D03*
%TD*%
%TO.N,FIRE_HV*%
D12*
X8144600Y9621300D02*
X8573300Y10050000D01*
X6788600Y9621300D02*
X4618700Y9621300D01*
X9150000Y10050000D02*
X8573300Y10050000D01*
X1726700Y12168800D02*
X1395500Y12500000D01*
X1726700Y11375800D02*
X1726700Y12168800D01*
X2477300Y10625200D02*
X1726700Y11375800D01*
X1395500Y12500000D02*
X1222200Y12500000D01*
X3614800Y10625200D02*
X2477300Y10625200D01*
X1222200Y12500000D02*
X1150000Y12572200D01*
X6788600Y9621300D02*
X8144600Y9621300D01*
X1150000Y12572200D02*
X1150000Y13250000D01*
X4618700Y9621300D02*
X3614800Y10625200D01*
%TO.N,FLEX_GND*%
X-13250000Y-1150000D02*
X-14850000Y-1150000D01*
X-450000Y13250000D02*
X-450000Y14850000D01*
X-11650000Y-7550000D02*
X-13250000Y-7550000D01*
X-6850000Y-7550000D02*
X-8450000Y-7550000D01*
X-5228600Y12673300D02*
X-5250000Y12673300D01*
X-13250000Y3650000D02*
X-14850000Y3650000D01*
X-13250000Y-1150000D02*
X-13250000Y450000D01*
X-3650000Y-12350000D02*
X-5250000Y-12350000D01*
X-6850000Y-12350000D02*
X-8450000Y-12350000D01*
X-13250000Y450000D02*
X-14850000Y450000D01*
X-10050000Y-7550000D02*
X-10050000Y-5950000D01*
X-10050000Y-4350000D02*
X-11650000Y-4350000D01*
X-10050000Y-2750000D02*
X-11650000Y-2750000D01*
X-2050000Y13250000D02*
X-450000Y13250000D01*
X7773300Y12450000D02*
X8573300Y11650000D01*
X-2050000Y-13950000D02*
X-3650000Y-13950000D01*
X-8450000Y-9150000D02*
X-10050000Y-9150000D01*
X-11650000Y2050000D02*
X-11650000Y2850000D01*
X-11650000Y-5950000D02*
X-13250000Y-5950000D01*
X-5250000Y13250000D02*
X-6850000Y13250000D01*
X-5005300Y12450000D02*
X-5228600Y12673300D01*
X-3650000Y-13950000D02*
X-5250000Y-13950000D01*
X-2050000Y-12350000D02*
X-2050000Y-13950000D01*
X-11650000Y5250000D02*
X-13250000Y5250000D01*
X-5250000Y13250000D02*
X-5250000Y12673300D01*
X-10050000Y-9150000D02*
X-11650000Y-9150000D01*
X-11650000Y-4350000D02*
X-13250000Y-4350000D01*
X-11650000Y2850000D02*
X-11650000Y3650000D01*
X-6850000Y-7550000D02*
X-6850000Y-9150000D01*
X-2050000Y11650000D02*
X-450000Y11650000D01*
X-450000Y11650000D02*
X-450000Y13250000D01*
X-6850000Y-9150000D02*
X-8450000Y-9150000D01*
X-13250000Y2050000D02*
X-14850000Y2050000D01*
X-10050000Y-2750000D02*
X-10050000Y-4350000D01*
X-10050000Y-1150000D02*
X-10050000Y-2750000D01*
X-10050000Y-5950000D02*
X-10050000Y-4350000D01*
X6750000Y12450000D02*
X7773300Y12450000D01*
X-6850000Y-10750000D02*
X-6850000Y-12350000D01*
X-11411400Y2850000D02*
X-11650000Y2850000D01*
X-6850000Y-9150000D02*
X-6850000Y-10750000D01*
X-13250000Y-2750000D02*
X-13250000Y-1150000D01*
X-11650000Y3650000D02*
X-13250000Y3650000D01*
X-11650000Y-2750000D02*
X-13250000Y-2750000D01*
X-10050000Y-5950000D02*
X-11650000Y-5950000D01*
X-13250000Y-2750000D02*
X-14850000Y-2750000D01*
X-5250000Y-12350000D02*
X-6850000Y-12350000D01*
X-2050000Y14850000D02*
X-3650000Y14850000D01*
X-2050000Y-12350000D02*
X-3650000Y-12350000D01*
X-2050000Y-13950000D02*
X-450000Y-13950000D01*
X-13250000Y5250000D02*
X-13250000Y6850000D01*
X-11650000Y2050000D02*
X-13250000Y2050000D01*
X-13250000Y450000D02*
X-13250000Y2050000D01*
X-2050000Y13250000D02*
X-3650000Y13250000D01*
X-6850000Y-10750000D02*
X-8450000Y-10750000D01*
X-11650000Y3650000D02*
X-11650000Y5250000D01*
X-3650000Y13250000D02*
X-5250000Y13250000D01*
X-10050000Y-7550000D02*
X-11650000Y-7550000D01*
X-8450000Y-10750000D02*
X-10050000Y-10750000D01*
X9150000Y11650000D02*
X8573300Y11650000D01*
X-8450000Y-7550000D02*
X-10050000Y-7550000D01*
X-2050000Y14850000D02*
X-450000Y14850000D01*
%TO.N,3V3*%
X2174800Y12094800D02*
X2172500Y12092500D01*
X1150000Y14850000D02*
X1540000Y14850000D01*
X1540000Y14850000D02*
X1726700Y14663300D01*
X2174800Y13825200D02*
X2174800Y12094800D01*
X3660000Y11096000D02*
X3326700Y11429300D01*
X2172500Y12092500D02*
X2273400Y11991600D01*
X1726700Y14273300D02*
X2174800Y13825200D01*
X3326700Y11429300D02*
X3326700Y11433300D01*
X3110000Y11650000D02*
X2750000Y11650000D01*
X3660000Y11010000D02*
X3660000Y11096000D01*
X3326700Y11433300D02*
X3110000Y11650000D01*
X1726700Y14663300D02*
X1726700Y14273300D01*
X2273400Y11991600D02*
X2408400Y11991600D01*
X2408400Y11991600D02*
X2750000Y11650000D01*
%TO.N,COMP_5V*%
X3820000Y-4400000D02*
X5050000Y-4400000D01*
X12327200Y4496700D02*
X13080500Y5250000D01*
X-3770000Y-7150000D02*
X-3770000Y-7090000D01*
X700000Y11650000D02*
X1150000Y11650000D01*
X573300Y11523300D02*
X700000Y11650000D01*
X-4820000Y-8200000D02*
X-3770000Y-7150000D01*
X3630000Y-4210000D02*
X3820000Y-4400000D01*
X393900Y11082200D02*
X573300Y11261600D01*
X573300Y11261600D02*
X573300Y11523300D01*
X13080500Y5250000D02*
X13950000Y5250000D01*
X3630000Y300000D02*
X3630000Y-4210000D01*
X3480000Y450000D02*
X3630000Y300000D01*
%TO.N,FIRE_FB*%
X5000000Y-5510000D02*
X4850000Y-5510000D01*
X5186700Y-2217700D02*
X5186700Y-3726700D01*
X5186700Y-3726700D02*
X5500000Y-4040000D01*
X5500000Y-4040000D02*
X5500000Y-5010000D01*
X5500000Y-5010000D02*
X5000000Y-5510000D01*
%TO.N,FIRE_COMP*%
X-670000Y2600000D02*
X-670000Y-3870000D01*
X-2350000Y4280000D02*
X-670000Y2600000D01*
X4690000Y-6560000D02*
X5490000Y-5760000D01*
X-4130000Y4280000D02*
X-2350000Y4280000D01*
X-670000Y-3870000D02*
X2020000Y-6560000D01*
X2020000Y-6560000D02*
X4690000Y-6560000D01*
%TO.N,3V3_AON*%
X13950000Y-4350000D02*
X13373300Y-4350000D01*
X4350000Y11145400D02*
X2740000Y12755400D01*
X2750000Y12790000D02*
X2750000Y13250000D01*
X2740000Y12755400D02*
X2740000Y12780000D01*
X2740000Y12780000D02*
X2750000Y12790000D01*
X13373300Y-4350000D02*
X13373300Y-3595500D01*
X4350000Y10884000D02*
X4350000Y11145400D01*
%TO.N,ACTIVATE_CONFIRM*%
X14580800Y-2750000D02*
X14709700Y-2878900D01*
X13950000Y-2750000D02*
X14580800Y-2750000D01*
%TO.N,ACTIVATE_SET*%
X14526700Y-1150000D02*
X14710500Y-1333800D01*
X13950000Y-1150000D02*
X14526700Y-1150000D01*
%TO.N,BAT_PROT*%
X12682900Y-240400D02*
X12682900Y-312500D01*
X13950000Y450000D02*
X13373300Y450000D01*
X13373300Y450000D02*
X12682900Y-240400D01*
X3326700Y14850000D02*
X3512200Y14850000D01*
X2750000Y14850000D02*
X3326700Y14850000D01*
%TO.N,BAT_RAW*%
X573300Y-13723300D02*
X573300Y-13373300D01*
X800000Y-13950000D02*
X573300Y-13723300D01*
X14566700Y1305100D02*
X14398500Y1473300D01*
X573300Y-13373300D02*
X475600Y-13275600D01*
X14096700Y1473300D02*
X13950000Y1620000D01*
X13950000Y1620000D02*
X13950000Y2050000D01*
X1150000Y-13950000D02*
X800000Y-13950000D01*
X14398500Y1473300D02*
X14096700Y1473300D01*
%TO.N,BOOT0*%
X13950000Y3650000D02*
X14526700Y3650000D01*
X14526700Y3650000D02*
X14708500Y3831800D01*
%TO.N,COMP_SWDCLK*%
X12350000Y-6627500D02*
X12431000Y-6708500D01*
X12350000Y-5950000D02*
X12350000Y-6627500D01*
%TO.N,COMP_SWDIO*%
X12350000Y-4926700D02*
X12277800Y-4926700D01*
X12350000Y-4350000D02*
X12350000Y-4926700D01*
X12277800Y-4926700D02*
X11773300Y-5431200D01*
X11773300Y-5431200D02*
X11773300Y-6704000D01*
%TO.N,EXT_CAN_RX*%
X13083600Y-2906900D02*
X13190700Y-2906900D01*
X12350000Y-2750000D02*
X12926700Y-2750000D01*
X12926700Y-2750000D02*
X13083600Y-2906900D01*
%TO.N,EXT_CAN_TX*%
X13111300Y8450000D02*
X12350000Y8450000D01*
%TO.N,FIN1_AOUT1*%
X9419300Y-6704000D02*
X10173300Y-5950000D01*
X10750000Y-5950000D02*
X10173300Y-5950000D01*
%TO.N,FIN2_AOUT1*%
X10750000Y-4350000D02*
X11326700Y-4350000D01*
X11326700Y-4350000D02*
X11326700Y-4294100D01*
X11326700Y-4294100D02*
X12032900Y-3587900D01*
%TO.N,FIN3_AOUT1*%
X10750000Y-2750000D02*
X11326700Y-2750000D01*
X11326700Y-2677900D02*
X11941100Y-2063500D01*
X11326700Y-2750000D02*
X11326700Y-2677900D01*
X11941100Y-2063500D02*
X12990800Y-2063500D01*
%TO.N,FIN4_AOUT1*%
X10950000Y8250000D02*
X11380000Y8250000D01*
X11855700Y7774300D02*
X11855700Y7695200D01*
X10750000Y8450000D02*
X10950000Y8250000D01*
X11380000Y8250000D02*
X11855700Y7774300D01*
%TO.N,FIN_HALL*%
X10750000Y10050000D02*
X11407300Y10050000D01*
X11407300Y10050000D02*
X11505600Y10148300D01*
%TO.N,FIN_VREF*%
X10666200Y9461600D02*
X11492000Y9461600D01*
X9726700Y8520000D02*
X9726700Y8522100D01*
X9150000Y8450000D02*
X9220000Y8520000D01*
X9220000Y8520000D02*
X9726700Y8520000D01*
X9726700Y8522100D02*
X10666200Y9461600D01*
%TO.N,GPIO_EXT_0*%
X7550000Y13250000D02*
X8126700Y13250000D01*
X8126700Y13250000D02*
X8303400Y13250000D01*
%TO.N,GPIO_EXT_1*%
X5950000Y-13950000D02*
X6526700Y-13950000D01*
X6526700Y-13950000D02*
X6706900Y-13950000D01*
%TO.N,GPIO_EXT_2*%
X6709500Y-12231800D02*
X6644900Y-12231800D01*
X6644900Y-12231800D02*
X6526700Y-12350000D01*
X5950000Y-12350000D02*
X6526700Y-12350000D01*
%TO.N,GPIO_EXT_3*%
X5950000Y-8396500D02*
X5950000Y-10750000D01*
%TO.N,JUMP_WAKE*%
X6350000Y13270000D02*
X6330000Y13250000D01*
X8311700Y12673300D02*
X7024800Y12673300D01*
X7024800Y12673300D02*
X6428100Y13270000D01*
X6428100Y13270000D02*
X6350000Y13270000D01*
X6330000Y13250000D02*
X5950000Y13250000D01*
%TO.N,NRST*%
X5374800Y-13374800D02*
X4799600Y-13950000D01*
X4799600Y-13950000D02*
X4350000Y-13950000D01*
X6720600Y-13374800D02*
X5374800Y-13374800D01*
%TO.N,SWO*%
X4854600Y-12350000D02*
X4350000Y-12350000D01*
X5875600Y-11329000D02*
X4854600Y-12350000D01*
X6715400Y-11329000D02*
X5875600Y-11329000D01*
%TO.N,SYS_I2C_SCL*%
X4350000Y-9982400D02*
X4350000Y-10750000D01*
%TO.N,SYS_I2C_SDA*%
X4430000Y12920000D02*
X4650000Y12700000D01*
X5085500Y12700000D02*
X5112200Y12673300D01*
X4430000Y13170000D02*
X4430000Y12920000D01*
X4650000Y12700000D02*
X5085500Y12700000D01*
X4350000Y13250000D02*
X4430000Y13170000D01*
%TO.N,SYS_SPI_CS_FIN*%
X3512500Y-10849300D02*
X2750000Y-11611800D01*
X2750000Y-11611800D02*
X2750000Y-13950000D01*
%TO.N,SYS_SPI_MISO*%
X2750000Y6850000D02*
X2750000Y6097300D01*
%TO.N,SYS_SPI_MOSI*%
X3516400Y8450000D02*
X2750000Y8450000D01*
%TO.N,SYS_SPI_SCLK*%
X2750000Y10050000D02*
X3326700Y10050000D01*
X3503700Y9873000D02*
X3326700Y10050000D01*
%TD*%
M02*
