%TF.GenerationSoftware,KiCad,Pcbnew,10.0.0*%
%TF.CreationDate,2026-09-03T12:15:46+02:00*%
%TF.ProjectId,activation_interface,61637469-7661-4746-996f-6e5f696e7465,rev?*%
%TF.SameCoordinates,Original*%
%TF.FileFunction,Legend,Top*%
%TF.FilePolarity,Positive*%
%FSLAX46Y46*%
G04 Gerber Fmt 4.6, Leading zero omitted, Abs format (unit mm)*
G04 Created by KiCad (PCBNEW 10.0.0) date 2026-09-03 12:15:46*
%MOMM*%
%LPD*%
G01*
G04 APERTURE LIST*
%ADD10C,0.120000*%
G04 APERTURE END LIST*
D10*
X-10635000Y-1110000D02*
X-10635000Y-2430000D01*
X-10635000Y-2910000D02*
X-10635000Y-4230000D01*
X-10635000Y-4710000D02*
X-10635000Y-6030000D01*
X-10635000Y-6510000D02*
X-10635000Y-6910000D01*
X-10635000Y-6910000D02*
X-9315000Y-6910000D01*
X-8835000Y-6910000D02*
X-7515000Y-6910000D01*
X-7035000Y-6910000D02*
X-5715000Y-6910000D01*
X-5235000Y-6910000D02*
X-3915000Y-6910000D01*
X-3785000Y-6910000D02*
X-3785000Y-5590000D01*
X-3785000Y-5110000D02*
X-3785000Y-4103000D01*
X-3785000Y-4103000D02*
X-3450000Y-4103000D01*
X-3450000Y-4103000D02*
X-3450000Y-5423000D01*
X-3450000Y-5903000D02*
X-3450000Y-7223000D01*
X-3450000Y-7703000D02*
X-3450000Y-9023000D01*
X-3450000Y-9503000D02*
X-3450000Y-9704000D01*
X-3450000Y-9704000D02*
X-2130000Y-9704000D01*
X-1650000Y-9704000D02*
X-330000Y-9704000D01*
X150000Y-9704000D02*
X1470000Y-9704000D01*
X1950000Y-9704000D02*
X3270000Y-9704000D01*
X3750000Y-9704000D02*
X4700000Y-9704000D01*
X4700000Y-9704000D02*
X4700000Y-8384000D01*
X4700000Y-7904000D02*
X4700000Y-6584000D01*
X4700000Y-6467800D02*
X5633381Y-7401181D01*
X5972792Y-7740592D02*
X6906173Y-8673973D01*
X7245584Y-9013384D02*
X8178965Y-9946765D01*
X8518377Y-10286177D02*
X9015600Y-10783400D01*
X9015600Y-10783400D02*
X9948981Y-9850019D01*
X10288392Y-9510608D02*
X10783400Y-9015600D01*
X10783400Y-9015600D02*
X9850019Y-8082219D01*
X9510608Y-7742808D02*
X8577227Y-6809427D01*
X8237816Y-6470016D02*
X7304435Y-5536635D01*
X6965023Y-5197223D02*
X6031642Y-4263842D01*
X5692231Y-3924431D02*
X5052000Y-3284200D01*
X5052000Y-3284200D02*
X5052000Y-1964200D01*
X5052000Y-1484200D02*
X5052000Y-164200D01*
X5052000Y315800D02*
X5052000Y1635800D01*
X5052000Y2115800D02*
X5052000Y2200000D01*
X5052000Y2200000D02*
X3732000Y2200000D01*
X3252000Y2200000D02*
X2950000Y2200000D01*
X2950000Y2200000D02*
X2950000Y2651000D01*
X2950000Y2651000D02*
X4270000Y2651000D01*
X4750000Y2651000D02*
X6000000Y2651000D01*
X6000000Y2651000D02*
X6000000Y3971000D01*
X6000000Y4451000D02*
X6000000Y5771000D01*
X6000000Y6251000D02*
X6000000Y7571000D01*
X6000000Y8051000D02*
X6000000Y9371000D01*
X6000000Y9551000D02*
X4680000Y9551000D01*
X4200000Y9551000D02*
X2880000Y9551000D01*
X2400000Y9551000D02*
X1080000Y9551000D01*
X600000Y9551000D02*
X-720000Y9551000D01*
X-1200000Y9551000D02*
X-2520000Y9551000D01*
X-3000000Y9551000D02*
X-4000000Y9551000D01*
X-4000000Y9551000D02*
X-4000000Y8231000D01*
X-4000000Y7751000D02*
X-4000000Y6431000D01*
X-4000000Y5951000D02*
X-4000000Y5767800D01*
X-4000000Y5767800D02*
X-4933381Y6701181D01*
X-5272792Y7040592D02*
X-6206173Y7973973D01*
X-6545584Y8313384D02*
X-7478965Y9246765D01*
X-7818377Y9586177D02*
X-8751758Y10519558D01*
X-9015600Y10783400D02*
X-9948981Y9850019D01*
X-10288392Y9510608D02*
X-10783400Y9015600D01*
X-10783400Y9015600D02*
X-9850019Y8082219D01*
X-9510608Y7742808D02*
X-8577227Y6809427D01*
X-8237816Y6470016D02*
X-7304435Y5536635D01*
X-6965023Y5197223D02*
X-6031642Y4263842D01*
X-5692231Y3924431D02*
X-5203000Y3435200D01*
X-5203000Y3435200D02*
X-5203000Y2115200D01*
X-5203000Y1635200D02*
X-5203000Y675000D01*
X-5203000Y675000D02*
X-5904000Y675000D01*
X-5904000Y675000D02*
X-5904000Y-645000D01*
X-5904000Y-675000D02*
X-4584000Y-675000D01*
X-4104000Y-675000D02*
X-3801000Y-675000D01*
X-3801000Y-675000D02*
X-3801000Y-1110000D01*
X-3801000Y-1110000D02*
X-5121000Y-1110000D01*
X-5601000Y-1110000D02*
X-6921000Y-1110000D01*
X-7401000Y-1110000D02*
X-8721000Y-1110000D01*
X-9201000Y-1110000D02*
X-10521000Y-1110000D01*
X-16723837Y11457640D02*
X-16647646Y11419544D01*
X-16647646Y11419544D02*
X-16495265Y11419544D01*
X-16495265Y11419544D02*
X-16419075Y11457640D01*
X-16419075Y11457640D02*
X-16380979Y11533830D01*
X-16380979Y11533830D02*
X-16380979Y11571925D01*
X-16380979Y11571925D02*
X-16419075Y11648116D01*
X-16419075Y11648116D02*
X-16495265Y11686211D01*
X-16495265Y11686211D02*
X-16609551Y11686211D01*
X-16609551Y11686211D02*
X-16685741Y11724306D01*
X-16685741Y11724306D02*
X-16723837Y11800497D01*
X-16723837Y11800497D02*
X-16723837Y11838592D01*
X-16723837Y11838592D02*
X-16685741Y11914782D01*
X-16685741Y11914782D02*
X-16609551Y11952878D01*
X-16609551Y11952878D02*
X-16495265Y11952878D01*
X-16495265Y11952878D02*
X-16419075Y11914782D01*
X-16038122Y11952878D02*
X-16038122Y11152878D01*
X-16038122Y11914782D02*
X-15961932Y11952878D01*
X-15961932Y11952878D02*
X-15809551Y11952878D01*
X-15809551Y11952878D02*
X-15733360Y11914782D01*
X-15733360Y11914782D02*
X-15695265Y11876687D01*
X-15695265Y11876687D02*
X-15657170Y11800497D01*
X-15657170Y11800497D02*
X-15657170Y11571925D01*
X-15657170Y11571925D02*
X-15695265Y11495735D01*
X-15695265Y11495735D02*
X-15733360Y11457640D01*
X-15733360Y11457640D02*
X-15809551Y11419544D01*
X-15809551Y11419544D02*
X-15961932Y11419544D01*
X-15961932Y11419544D02*
X-16038122Y11457640D01*
X-14971455Y11419544D02*
X-14971455Y11838592D01*
X-14971455Y11838592D02*
X-15009550Y11914782D01*
X-15009550Y11914782D02*
X-15085741Y11952878D01*
X-15085741Y11952878D02*
X-15238122Y11952878D01*
X-15238122Y11952878D02*
X-15314312Y11914782D01*
X-14971455Y11457640D02*
X-15047646Y11419544D01*
X-15047646Y11419544D02*
X-15238122Y11419544D01*
X-15238122Y11419544D02*
X-15314312Y11457640D01*
X-15314312Y11457640D02*
X-15352408Y11533830D01*
X-15352408Y11533830D02*
X-15352408Y11610020D01*
X-15352408Y11610020D02*
X-15314312Y11686211D01*
X-15314312Y11686211D02*
X-15238122Y11724306D01*
X-15238122Y11724306D02*
X-15047646Y11724306D01*
X-15047646Y11724306D02*
X-14971455Y11762401D01*
X-14247645Y11457640D02*
X-14323836Y11419544D01*
X-14323836Y11419544D02*
X-14476217Y11419544D01*
X-14476217Y11419544D02*
X-14552407Y11457640D01*
X-14552407Y11457640D02*
X-14590502Y11495735D01*
X-14590502Y11495735D02*
X-14628598Y11571925D01*
X-14628598Y11571925D02*
X-14628598Y11800497D01*
X-14628598Y11800497D02*
X-14590502Y11876687D01*
X-14590502Y11876687D02*
X-14552407Y11914782D01*
X-14552407Y11914782D02*
X-14476217Y11952878D01*
X-14476217Y11952878D02*
X-14323836Y11952878D01*
X-14323836Y11952878D02*
X-14247645Y11914782D01*
X-13600026Y11457640D02*
X-13676217Y11419544D01*
X-13676217Y11419544D02*
X-13828598Y11419544D01*
X-13828598Y11419544D02*
X-13904788Y11457640D01*
X-13904788Y11457640D02*
X-13942884Y11533830D01*
X-13942884Y11533830D02*
X-13942884Y11838592D01*
X-13942884Y11838592D02*
X-13904788Y11914782D01*
X-13904788Y11914782D02*
X-13828598Y11952878D01*
X-13828598Y11952878D02*
X-13676217Y11952878D01*
X-13676217Y11952878D02*
X-13600026Y11914782D01*
X-13600026Y11914782D02*
X-13561931Y11838592D01*
X-13561931Y11838592D02*
X-13561931Y11762401D01*
X-13561931Y11762401D02*
X-13942884Y11686211D01*
X-13219074Y11419544D02*
X-13219074Y11952878D01*
X-13219074Y11800497D02*
X-13180979Y11876687D01*
X-13180979Y11876687D02*
X-13142884Y11914782D01*
X-13142884Y11914782D02*
X-13066693Y11952878D01*
X-13066693Y11952878D02*
X-12990503Y11952878D01*
X-12914313Y11343354D02*
X-12304789Y11343354D01*
X-11771455Y11419544D02*
X-11771455Y11838592D01*
X-11771455Y11838592D02*
X-11809550Y11914782D01*
X-11809550Y11914782D02*
X-11885741Y11952878D01*
X-11885741Y11952878D02*
X-12038122Y11952878D01*
X-12038122Y11952878D02*
X-12114312Y11914782D01*
X-11771455Y11457640D02*
X-11847646Y11419544D01*
X-11847646Y11419544D02*
X-12038122Y11419544D01*
X-12038122Y11419544D02*
X-12114312Y11457640D01*
X-12114312Y11457640D02*
X-12152408Y11533830D01*
X-12152408Y11533830D02*
X-12152408Y11610020D01*
X-12152408Y11610020D02*
X-12114312Y11686211D01*
X-12114312Y11686211D02*
X-12038122Y11724306D01*
X-12038122Y11724306D02*
X-11847646Y11724306D01*
X-11847646Y11724306D02*
X-11771455Y11762401D01*
X-11047645Y11457640D02*
X-11123836Y11419544D01*
X-11123836Y11419544D02*
X-11276217Y11419544D01*
X-11276217Y11419544D02*
X-11352407Y11457640D01*
X-11352407Y11457640D02*
X-11390502Y11495735D01*
X-11390502Y11495735D02*
X-11428598Y11571925D01*
X-11428598Y11571925D02*
X-11428598Y11800497D01*
X-11428598Y11800497D02*
X-11390502Y11876687D01*
X-11390502Y11876687D02*
X-11352407Y11914782D01*
X-11352407Y11914782D02*
X-11276217Y11952878D01*
X-11276217Y11952878D02*
X-11123836Y11952878D01*
X-11123836Y11952878D02*
X-11047645Y11914782D01*
X-10819074Y11952878D02*
X-10514312Y11952878D01*
X-10704788Y12219544D02*
X-10704788Y11533830D01*
X-10704788Y11533830D02*
X-10666693Y11457640D01*
X-10666693Y11457640D02*
X-10590503Y11419544D01*
X-10590503Y11419544D02*
X-10514312Y11419544D01*
X-10247645Y11419544D02*
X-10247645Y11952878D01*
X-10247645Y12219544D02*
X-10285741Y12181449D01*
X-10285741Y12181449D02*
X-10247645Y12143354D01*
X-10247645Y12143354D02*
X-10209550Y12181449D01*
X-10209550Y12181449D02*
X-10247645Y12219544D01*
X-10247645Y12219544D02*
X-10247645Y12143354D01*
X-9942884Y11952878D02*
X-9752408Y11419544D01*
X-9752408Y11419544D02*
X-9561931Y11952878D01*
X-8914312Y11419544D02*
X-8914312Y11838592D01*
X-8914312Y11838592D02*
X-8952407Y11914782D01*
X-8952407Y11914782D02*
X-9028598Y11952878D01*
X-9028598Y11952878D02*
X-9180979Y11952878D01*
X-9180979Y11952878D02*
X-9257169Y11914782D01*
X-8914312Y11457640D02*
X-8990503Y11419544D01*
X-8990503Y11419544D02*
X-9180979Y11419544D01*
X-9180979Y11419544D02*
X-9257169Y11457640D01*
X-9257169Y11457640D02*
X-9295265Y11533830D01*
X-9295265Y11533830D02*
X-9295265Y11610020D01*
X-9295265Y11610020D02*
X-9257169Y11686211D01*
X-9257169Y11686211D02*
X-9180979Y11724306D01*
X-9180979Y11724306D02*
X-8990503Y11724306D01*
X-8990503Y11724306D02*
X-8914312Y11762401D01*
X-8647645Y11952878D02*
X-8342883Y11952878D01*
X-8533359Y12219544D02*
X-8533359Y11533830D01*
X-8533359Y11533830D02*
X-8495264Y11457640D01*
X-8495264Y11457640D02*
X-8419074Y11419544D01*
X-8419074Y11419544D02*
X-8342883Y11419544D01*
X-8076216Y11419544D02*
X-8076216Y11952878D01*
X-8076216Y12219544D02*
X-8114312Y12181449D01*
X-8114312Y12181449D02*
X-8076216Y12143354D01*
X-8076216Y12143354D02*
X-8038121Y12181449D01*
X-8038121Y12181449D02*
X-8076216Y12219544D01*
X-8076216Y12219544D02*
X-8076216Y12143354D01*
X-7580979Y11419544D02*
X-7657169Y11457640D01*
X-7657169Y11457640D02*
X-7695264Y11495735D01*
X-7695264Y11495735D02*
X-7733360Y11571925D01*
X-7733360Y11571925D02*
X-7733360Y11800497D01*
X-7733360Y11800497D02*
X-7695264Y11876687D01*
X-7695264Y11876687D02*
X-7657169Y11914782D01*
X-7657169Y11914782D02*
X-7580979Y11952878D01*
X-7580979Y11952878D02*
X-7466693Y11952878D01*
X-7466693Y11952878D02*
X-7390502Y11914782D01*
X-7390502Y11914782D02*
X-7352407Y11876687D01*
X-7352407Y11876687D02*
X-7314312Y11800497D01*
X-7314312Y11800497D02*
X-7314312Y11571925D01*
X-7314312Y11571925D02*
X-7352407Y11495735D01*
X-7352407Y11495735D02*
X-7390502Y11457640D01*
X-7390502Y11457640D02*
X-7466693Y11419544D01*
X-7466693Y11419544D02*
X-7580979Y11419544D01*
X-6971454Y11952878D02*
X-6971454Y11419544D01*
X-6971454Y11876687D02*
X-6933359Y11914782D01*
X-6933359Y11914782D02*
X-6857169Y11952878D01*
X-6857169Y11952878D02*
X-6742883Y11952878D01*
X-6742883Y11952878D02*
X-6666692Y11914782D01*
X-6666692Y11914782D02*
X-6628597Y11838592D01*
X-6628597Y11838592D02*
X-6628597Y11419544D01*
X-6438121Y11343354D02*
X-5828597Y11343354D01*
X-5638120Y11419544D02*
X-5638120Y11952878D01*
X-5638120Y12219544D02*
X-5676216Y12181449D01*
X-5676216Y12181449D02*
X-5638120Y12143354D01*
X-5638120Y12143354D02*
X-5600025Y12181449D01*
X-5600025Y12181449D02*
X-5638120Y12219544D01*
X-5638120Y12219544D02*
X-5638120Y12143354D01*
X-5257168Y11952878D02*
X-5257168Y11419544D01*
X-5257168Y11876687D02*
X-5219073Y11914782D01*
X-5219073Y11914782D02*
X-5142883Y11952878D01*
X-5142883Y11952878D02*
X-5028597Y11952878D01*
X-5028597Y11952878D02*
X-4952406Y11914782D01*
X-4952406Y11914782D02*
X-4914311Y11838592D01*
X-4914311Y11838592D02*
X-4914311Y11419544D01*
X-4647644Y11952878D02*
X-4342882Y11952878D01*
X-4533358Y12219544D02*
X-4533358Y11533830D01*
X-4533358Y11533830D02*
X-4495263Y11457640D01*
X-4495263Y11457640D02*
X-4419073Y11419544D01*
X-4419073Y11419544D02*
X-4342882Y11419544D01*
X-3771453Y11457640D02*
X-3847644Y11419544D01*
X-3847644Y11419544D02*
X-4000025Y11419544D01*
X-4000025Y11419544D02*
X-4076215Y11457640D01*
X-4076215Y11457640D02*
X-4114311Y11533830D01*
X-4114311Y11533830D02*
X-4114311Y11838592D01*
X-4114311Y11838592D02*
X-4076215Y11914782D01*
X-4076215Y11914782D02*
X-4000025Y11952878D01*
X-4000025Y11952878D02*
X-3847644Y11952878D01*
X-3847644Y11952878D02*
X-3771453Y11914782D01*
X-3771453Y11914782D02*
X-3733358Y11838592D01*
X-3733358Y11838592D02*
X-3733358Y11762401D01*
X-3733358Y11762401D02*
X-4114311Y11686211D01*
X-3390501Y11419544D02*
X-3390501Y11952878D01*
X-3390501Y11800497D02*
X-3352406Y11876687D01*
X-3352406Y11876687D02*
X-3314311Y11914782D01*
X-3314311Y11914782D02*
X-3238120Y11952878D01*
X-3238120Y11952878D02*
X-3161930Y11952878D01*
X-3009549Y11952878D02*
X-2704787Y11952878D01*
X-2895263Y11419544D02*
X-2895263Y12105259D01*
X-2895263Y12105259D02*
X-2857168Y12181449D01*
X-2857168Y12181449D02*
X-2780978Y12219544D01*
X-2780978Y12219544D02*
X-2704787Y12219544D01*
X-2095263Y11419544D02*
X-2095263Y11838592D01*
X-2095263Y11838592D02*
X-2133358Y11914782D01*
X-2133358Y11914782D02*
X-2209549Y11952878D01*
X-2209549Y11952878D02*
X-2361930Y11952878D01*
X-2361930Y11952878D02*
X-2438120Y11914782D01*
X-2095263Y11457640D02*
X-2171454Y11419544D01*
X-2171454Y11419544D02*
X-2361930Y11419544D01*
X-2361930Y11419544D02*
X-2438120Y11457640D01*
X-2438120Y11457640D02*
X-2476216Y11533830D01*
X-2476216Y11533830D02*
X-2476216Y11610020D01*
X-2476216Y11610020D02*
X-2438120Y11686211D01*
X-2438120Y11686211D02*
X-2361930Y11724306D01*
X-2361930Y11724306D02*
X-2171454Y11724306D01*
X-2171454Y11724306D02*
X-2095263Y11762401D01*
X-1371453Y11457640D02*
X-1447644Y11419544D01*
X-1447644Y11419544D02*
X-1600025Y11419544D01*
X-1600025Y11419544D02*
X-1676215Y11457640D01*
X-1676215Y11457640D02*
X-1714310Y11495735D01*
X-1714310Y11495735D02*
X-1752406Y11571925D01*
X-1752406Y11571925D02*
X-1752406Y11800497D01*
X-1752406Y11800497D02*
X-1714310Y11876687D01*
X-1714310Y11876687D02*
X-1676215Y11914782D01*
X-1676215Y11914782D02*
X-1600025Y11952878D01*
X-1600025Y11952878D02*
X-1447644Y11952878D01*
X-1447644Y11952878D02*
X-1371453Y11914782D01*
X-723834Y11457640D02*
X-800025Y11419544D01*
X-800025Y11419544D02*
X-952406Y11419544D01*
X-952406Y11419544D02*
X-1028596Y11457640D01*
X-1028596Y11457640D02*
X-1066692Y11533830D01*
X-1066692Y11533830D02*
X-1066692Y11838592D01*
X-1066692Y11838592D02*
X-1028596Y11914782D01*
X-1028596Y11914782D02*
X-952406Y11952878D01*
X-952406Y11952878D02*
X-800025Y11952878D01*
X-800025Y11952878D02*
X-723834Y11914782D01*
X-723834Y11914782D02*
X-685739Y11838592D01*
X-685739Y11838592D02*
X-685739Y11762401D01*
X-685739Y11762401D02*
X-1066692Y11686211D01*
X-533359Y11343354D02*
X76164Y11343354D01*
X609498Y11457640D02*
X533307Y11419544D01*
X533307Y11419544D02*
X380926Y11419544D01*
X380926Y11419544D02*
X304736Y11457640D01*
X304736Y11457640D02*
X266641Y11495735D01*
X266641Y11495735D02*
X228545Y11571925D01*
X228545Y11571925D02*
X228545Y11800497D01*
X228545Y11800497D02*
X266641Y11876687D01*
X266641Y11876687D02*
X304736Y11914782D01*
X304736Y11914782D02*
X380926Y11952878D01*
X380926Y11952878D02*
X533307Y11952878D01*
X533307Y11952878D02*
X609498Y11914782D01*
X1257117Y11457640D02*
X1180926Y11419544D01*
X1180926Y11419544D02*
X1028545Y11419544D01*
X1028545Y11419544D02*
X952355Y11457640D01*
X952355Y11457640D02*
X914259Y11533830D01*
X914259Y11533830D02*
X914259Y11838592D01*
X914259Y11838592D02*
X952355Y11914782D01*
X952355Y11914782D02*
X1028545Y11952878D01*
X1028545Y11952878D02*
X1180926Y11952878D01*
X1180926Y11952878D02*
X1257117Y11914782D01*
X1257117Y11914782D02*
X1295212Y11838592D01*
X1295212Y11838592D02*
X1295212Y11762401D01*
X1295212Y11762401D02*
X914259Y11686211D01*
X1752354Y11419544D02*
X1676164Y11457640D01*
X1676164Y11457640D02*
X1638069Y11533830D01*
X1638069Y11533830D02*
X1638069Y12219544D01*
X2171402Y11419544D02*
X2095212Y11457640D01*
X2095212Y11457640D02*
X2057117Y11533830D01*
X2057117Y11533830D02*
X2057117Y12219544D01*
X2285689Y11343354D02*
X2895212Y11343354D01*
X2971403Y11952878D02*
X3276165Y11952878D01*
X3085689Y11419544D02*
X3085689Y12105259D01*
X3085689Y12105259D02*
X3123784Y12181449D01*
X3123784Y12181449D02*
X3199974Y12219544D01*
X3199974Y12219544D02*
X3276165Y12219544D01*
X3657117Y11419544D02*
X3580927Y11457640D01*
X3580927Y11457640D02*
X3542832Y11533830D01*
X3542832Y11533830D02*
X3542832Y12219544D01*
X4076165Y11419544D02*
X3999975Y11457640D01*
X3999975Y11457640D02*
X3961880Y11495735D01*
X3961880Y11495735D02*
X3923784Y11571925D01*
X3923784Y11571925D02*
X3923784Y11800497D01*
X3923784Y11800497D02*
X3961880Y11876687D01*
X3961880Y11876687D02*
X3999975Y11914782D01*
X3999975Y11914782D02*
X4076165Y11952878D01*
X4076165Y11952878D02*
X4190451Y11952878D01*
X4190451Y11952878D02*
X4266642Y11914782D01*
X4266642Y11914782D02*
X4304737Y11876687D01*
X4304737Y11876687D02*
X4342832Y11800497D01*
X4342832Y11800497D02*
X4342832Y11571925D01*
X4342832Y11571925D02*
X4304737Y11495735D01*
X4304737Y11495735D02*
X4266642Y11457640D01*
X4266642Y11457640D02*
X4190451Y11419544D01*
X4190451Y11419544D02*
X4076165Y11419544D01*
X4799975Y11419544D02*
X4723785Y11457640D01*
X4723785Y11457640D02*
X4685690Y11495735D01*
X4685690Y11495735D02*
X4647594Y11571925D01*
X4647594Y11571925D02*
X4647594Y11800497D01*
X4647594Y11800497D02*
X4685690Y11876687D01*
X4685690Y11876687D02*
X4723785Y11914782D01*
X4723785Y11914782D02*
X4799975Y11952878D01*
X4799975Y11952878D02*
X4914261Y11952878D01*
X4914261Y11952878D02*
X4990452Y11914782D01*
X4990452Y11914782D02*
X5028547Y11876687D01*
X5028547Y11876687D02*
X5066642Y11800497D01*
X5066642Y11800497D02*
X5066642Y11571925D01*
X5066642Y11571925D02*
X5028547Y11495735D01*
X5028547Y11495735D02*
X4990452Y11457640D01*
X4990452Y11457640D02*
X4914261Y11419544D01*
X4914261Y11419544D02*
X4799975Y11419544D01*
X5409500Y11419544D02*
X5409500Y11952878D01*
X5409500Y11800497D02*
X5447595Y11876687D01*
X5447595Y11876687D02*
X5485690Y11914782D01*
X5485690Y11914782D02*
X5561881Y11952878D01*
X5561881Y11952878D02*
X5638071Y11952878D01*
X5714262Y11343354D02*
X6323785Y11343354D01*
X6514262Y11419544D02*
X6514262Y12219544D01*
X6514262Y11914782D02*
X6590452Y11952878D01*
X6590452Y11952878D02*
X6742833Y11952878D01*
X6742833Y11952878D02*
X6819024Y11914782D01*
X6819024Y11914782D02*
X6857119Y11876687D01*
X6857119Y11876687D02*
X6895214Y11800497D01*
X6895214Y11800497D02*
X6895214Y11571925D01*
X6895214Y11571925D02*
X6857119Y11495735D01*
X6857119Y11495735D02*
X6819024Y11457640D01*
X6819024Y11457640D02*
X6742833Y11419544D01*
X6742833Y11419544D02*
X6590452Y11419544D01*
X6590452Y11419544D02*
X6514262Y11457640D01*
X7352357Y11419544D02*
X7276167Y11457640D01*
X7276167Y11457640D02*
X7238072Y11495735D01*
X7238072Y11495735D02*
X7199976Y11571925D01*
X7199976Y11571925D02*
X7199976Y11800497D01*
X7199976Y11800497D02*
X7238072Y11876687D01*
X7238072Y11876687D02*
X7276167Y11914782D01*
X7276167Y11914782D02*
X7352357Y11952878D01*
X7352357Y11952878D02*
X7466643Y11952878D01*
X7466643Y11952878D02*
X7542834Y11914782D01*
X7542834Y11914782D02*
X7580929Y11876687D01*
X7580929Y11876687D02*
X7619024Y11800497D01*
X7619024Y11800497D02*
X7619024Y11571925D01*
X7619024Y11571925D02*
X7580929Y11495735D01*
X7580929Y11495735D02*
X7542834Y11457640D01*
X7542834Y11457640D02*
X7466643Y11419544D01*
X7466643Y11419544D02*
X7352357Y11419544D01*
X8304739Y11419544D02*
X8304739Y11838592D01*
X8304739Y11838592D02*
X8266644Y11914782D01*
X8266644Y11914782D02*
X8190453Y11952878D01*
X8190453Y11952878D02*
X8038072Y11952878D01*
X8038072Y11952878D02*
X7961882Y11914782D01*
X8304739Y11457640D02*
X8228548Y11419544D01*
X8228548Y11419544D02*
X8038072Y11419544D01*
X8038072Y11419544D02*
X7961882Y11457640D01*
X7961882Y11457640D02*
X7923786Y11533830D01*
X7923786Y11533830D02*
X7923786Y11610020D01*
X7923786Y11610020D02*
X7961882Y11686211D01*
X7961882Y11686211D02*
X8038072Y11724306D01*
X8038072Y11724306D02*
X8228548Y11724306D01*
X8228548Y11724306D02*
X8304739Y11762401D01*
X8685692Y11419544D02*
X8685692Y11952878D01*
X8685692Y11800497D02*
X8723787Y11876687D01*
X8723787Y11876687D02*
X8761882Y11914782D01*
X8761882Y11914782D02*
X8838073Y11952878D01*
X8838073Y11952878D02*
X8914263Y11952878D01*
X9523787Y11419544D02*
X9523787Y12219544D01*
X9523787Y11457640D02*
X9447596Y11419544D01*
X9447596Y11419544D02*
X9295215Y11419544D01*
X9295215Y11419544D02*
X9219025Y11457640D01*
X9219025Y11457640D02*
X9180930Y11495735D01*
X9180930Y11495735D02*
X9142834Y11571925D01*
X9142834Y11571925D02*
X9142834Y11800497D01*
X9142834Y11800497D02*
X9180930Y11876687D01*
X9180930Y11876687D02*
X9219025Y11914782D01*
X9219025Y11914782D02*
X9295215Y11952878D01*
X9295215Y11952878D02*
X9447596Y11952878D01*
X9447596Y11952878D02*
X9523787Y11914782D01*
X10857121Y11457640D02*
X10780930Y11419544D01*
X10780930Y11419544D02*
X10628549Y11419544D01*
X10628549Y11419544D02*
X10552359Y11457640D01*
X10552359Y11457640D02*
X10514264Y11495735D01*
X10514264Y11495735D02*
X10476168Y11571925D01*
X10476168Y11571925D02*
X10476168Y11800497D01*
X10476168Y11800497D02*
X10514264Y11876687D01*
X10514264Y11876687D02*
X10552359Y11914782D01*
X10552359Y11914782D02*
X10628549Y11952878D01*
X10628549Y11952878D02*
X10780930Y11952878D01*
X10780930Y11952878D02*
X10857121Y11914782D01*
X11542835Y11952878D02*
X11542835Y11419544D01*
X11199978Y11952878D02*
X11199978Y11533830D01*
X11199978Y11533830D02*
X11238073Y11457640D01*
X11238073Y11457640D02*
X11314263Y11419544D01*
X11314263Y11419544D02*
X11428549Y11419544D01*
X11428549Y11419544D02*
X11504740Y11457640D01*
X11504740Y11457640D02*
X11542835Y11495735D01*
X11809502Y11952878D02*
X12114264Y11952878D01*
X11923788Y12219544D02*
X11923788Y11533830D01*
X11923788Y11533830D02*
X11961883Y11457640D01*
X11961883Y11457640D02*
X12038073Y11419544D01*
X12038073Y11419544D02*
X12114264Y11419544D01*
X12495216Y11419544D02*
X12419026Y11457640D01*
X12419026Y11457640D02*
X12380931Y11495735D01*
X12380931Y11495735D02*
X12342835Y11571925D01*
X12342835Y11571925D02*
X12342835Y11800497D01*
X12342835Y11800497D02*
X12380931Y11876687D01*
X12380931Y11876687D02*
X12419026Y11914782D01*
X12419026Y11914782D02*
X12495216Y11952878D01*
X12495216Y11952878D02*
X12609502Y11952878D01*
X12609502Y11952878D02*
X12685693Y11914782D01*
X12685693Y11914782D02*
X12723788Y11876687D01*
X12723788Y11876687D02*
X12761883Y11800497D01*
X12761883Y11800497D02*
X12761883Y11571925D01*
X12761883Y11571925D02*
X12723788Y11495735D01*
X12723788Y11495735D02*
X12685693Y11457640D01*
X12685693Y11457640D02*
X12609502Y11419544D01*
X12609502Y11419544D02*
X12495216Y11419544D01*
X13447598Y11952878D02*
X13447598Y11419544D01*
X13104741Y11952878D02*
X13104741Y11533830D01*
X13104741Y11533830D02*
X13142836Y11457640D01*
X13142836Y11457640D02*
X13219026Y11419544D01*
X13219026Y11419544D02*
X13333312Y11419544D01*
X13333312Y11419544D02*
X13409503Y11457640D01*
X13409503Y11457640D02*
X13447598Y11495735D01*
X13714265Y11952878D02*
X14019027Y11952878D01*
X13828551Y12219544D02*
X13828551Y11533830D01*
X13828551Y11533830D02*
X13866646Y11457640D01*
X13866646Y11457640D02*
X13942836Y11419544D01*
X13942836Y11419544D02*
X14019027Y11419544D01*
M02*
