%TF.GenerationSoftware,KiCad,Pcbnew,10.0.0*%
%TF.CreationDate,2026-09-03T12:15:46+02:00*%
%TF.ProjectId,activation_interface,61637469-7661-4746-996f-6e5f696e7465,rev?*%
%TF.SameCoordinates,Original*%
%TF.FileFunction,Legend,Bot*%
%TF.FilePolarity,Positive*%
%FSLAX46Y46*%
G04 Gerber Fmt 4.6, Leading zero omitted, Abs format (unit mm)*
G04 Created by KiCad (PCBNEW 10.0.0) date 2026-09-03 12:15:46*
%MOMM*%
%LPD*%
G01*
G04 APERTURE LIST*
%ADD10C,0.120000*%
G04 APERTURE END LIST*
D10*
X-1299000Y-12604000D02*
X21000Y-12604000D01*
X501000Y-12604000D02*
X1821000Y-12604000D01*
X2301000Y-12604000D02*
X2701000Y-12604000D01*
X2701000Y-12604000D02*
X2701000Y-11284000D01*
X2701000Y-10804000D02*
X2701000Y-9484000D01*
X2701000Y-9103000D02*
X4021000Y-9103000D01*
X4501000Y-9103000D02*
X5821000Y-9103000D01*
X6103000Y-9103000D02*
X6103000Y-9303000D01*
X6103000Y-9303000D02*
X7423000Y-9303000D01*
X7535200Y-9303000D02*
X8468581Y-10236381D01*
X8807992Y-10575792D02*
X9015600Y-10783400D01*
X9015600Y-10783400D02*
X9948981Y-9850019D01*
X10288392Y-9510608D02*
X10783400Y-9015600D01*
X10783400Y-9015600D02*
X9903000Y-8135200D01*
X9903000Y-8135200D02*
X9903000Y-6815200D01*
X9903000Y-6335200D02*
X9903000Y-5303000D01*
X9903000Y-5303000D02*
X9102000Y-5303000D01*
X9102000Y-5303000D02*
X9102000Y-3983000D01*
X9102000Y-3503000D02*
X9102000Y-2183000D01*
X9102000Y-1703000D02*
X9102000Y-1149000D01*
X9102000Y-1149000D02*
X10422000Y-1149000D01*
X10902000Y-1149000D02*
X11726000Y-1149000D01*
X11726000Y-1149000D02*
X11726000Y171000D01*
X11726000Y651000D02*
X11726000Y1971000D01*
X11726000Y2451000D02*
X11726000Y3771000D01*
X11726000Y4251000D02*
X11726000Y5571000D01*
X11726000Y6051000D02*
X11726000Y7351000D01*
X11726000Y7351000D02*
X10406000Y7351000D01*
X9926000Y7351000D02*
X8606000Y7351000D01*
X8126000Y7351000D02*
X7576000Y7351000D01*
X7576000Y7351000D02*
X7576000Y8671000D01*
X7576000Y9151000D02*
X7576000Y10471000D01*
X7576000Y10852000D02*
X6256000Y10852000D01*
X5776000Y10852000D02*
X4456000Y10852000D01*
X3976000Y10852000D02*
X3576000Y10852000D01*
X3576000Y10852000D02*
X3576000Y9532000D01*
X3576000Y9052000D02*
X3576000Y7732000D01*
X3576000Y7252000D02*
X3576000Y6001000D01*
X3576000Y6001000D02*
X2256000Y6001000D01*
X2000000Y6001000D02*
X2000000Y7321000D01*
X2000000Y7801000D02*
X2000000Y9121000D01*
X2000000Y9502000D02*
X680000Y9502000D01*
X200000Y9502000D02*
X-1120000Y9502000D01*
X-1600000Y9502000D02*
X-2000000Y9502000D01*
X-2000000Y9502000D02*
X-2000000Y8182000D01*
X-2000000Y7702000D02*
X-2000000Y6382000D01*
X-2000000Y6001000D02*
X-3320000Y6001000D01*
X-3576000Y6001000D02*
X-3576000Y7321000D01*
X-3576000Y7603000D02*
X-3376000Y7603000D01*
X-3376000Y7603000D02*
X-3376000Y8923000D01*
X-3376000Y9403000D02*
X-3376000Y10723000D01*
X-3376000Y11203000D02*
X-3376000Y11403000D01*
X-3376000Y11403000D02*
X-4696000Y11403000D01*
X-5176000Y11403000D02*
X-6496000Y11403000D01*
X-6976000Y11403000D02*
X-7376000Y11403000D01*
X-7376000Y11403000D02*
X-7376000Y10083000D01*
X-7376000Y9603000D02*
X-7376000Y9143800D01*
X-7376000Y9143800D02*
X-8309381Y10077181D01*
X-8648792Y10416592D02*
X-9015600Y10783400D01*
X-9015600Y10783400D02*
X-9948981Y9850019D01*
X-10288392Y9510608D02*
X-10783400Y9015600D01*
X-10783400Y9015600D02*
X-9850019Y8082219D01*
X-9669800Y7902000D02*
X-10877000Y7902000D01*
X-10877000Y7902000D02*
X-10877000Y6582000D01*
X-10877000Y6102000D02*
X-10877000Y4782000D01*
X-10877000Y4302000D02*
X-10877000Y2982000D01*
X-10877000Y2502000D02*
X-10877000Y1182000D01*
X-10877000Y950000D02*
X-12000000Y950000D01*
X-12000000Y950000D02*
X-12000000Y-370000D01*
X-12000000Y-850000D02*
X-12000000Y-950000D01*
X-12000000Y-950000D02*
X-11000000Y-950000D01*
X-11000000Y-950000D02*
X-11000000Y201000D01*
X-11000000Y201000D02*
X-9680000Y201000D01*
X-9200000Y201000D02*
X-7880000Y201000D01*
X-7400000Y201000D02*
X-6202000Y201000D01*
X-6202000Y201000D02*
X-6202000Y-1119000D01*
X-6202000Y-1599000D02*
X-6202000Y-1602000D01*
X-6202000Y-1602000D02*
X-7522000Y-1602000D01*
X-8002000Y-1602000D02*
X-9002000Y-1602000D01*
X-9002000Y-1602000D02*
X-9002000Y-2922000D01*
X-9002000Y-3402000D02*
X-9002000Y-4722000D01*
X-9002000Y-5202000D02*
X-9002000Y-5602000D01*
X-9002000Y-5602000D02*
X-7682000Y-5602000D01*
X-7202000Y-5602000D02*
X-5882000Y-5602000D01*
X-5402000Y-5602000D02*
X-5151000Y-5602000D01*
X-5151000Y-5602000D02*
X-5151000Y-6922000D01*
X-5151000Y-7203000D02*
X-5701000Y-7203000D01*
X-5701000Y-7203000D02*
X-5701000Y-8523000D01*
X-5701000Y-9003000D02*
X-5701000Y-10323000D01*
X-5701000Y-10803000D02*
X-5701000Y-11003000D01*
X-5701000Y-11003000D02*
X-4381000Y-11003000D01*
X-3901000Y-11003000D02*
X-2581000Y-11003000D01*
X-2101000Y-11003000D02*
X-1299000Y-11003000D01*
X-1299000Y-11003000D02*
X-1299000Y-12323000D01*
X13576965Y12077240D02*
X13500774Y12039144D01*
X13500774Y12039144D02*
X13348393Y12039144D01*
X13348393Y12039144D02*
X13272203Y12077240D01*
X13272203Y12077240D02*
X13234107Y12153430D01*
X13234107Y12153430D02*
X13234107Y12191525D01*
X13234107Y12191525D02*
X13272203Y12267716D01*
X13272203Y12267716D02*
X13348393Y12305811D01*
X13348393Y12305811D02*
X13462679Y12305811D01*
X13462679Y12305811D02*
X13538869Y12343906D01*
X13538869Y12343906D02*
X13576965Y12420097D01*
X13576965Y12420097D02*
X13576965Y12458192D01*
X13576965Y12458192D02*
X13538869Y12534382D01*
X13538869Y12534382D02*
X13462679Y12572478D01*
X13462679Y12572478D02*
X13348393Y12572478D01*
X13348393Y12572478D02*
X13272203Y12534382D01*
X12891250Y12572478D02*
X12891250Y11772478D01*
X12891250Y12534382D02*
X12815060Y12572478D01*
X12815060Y12572478D02*
X12662679Y12572478D01*
X12662679Y12572478D02*
X12586488Y12534382D01*
X12586488Y12534382D02*
X12548393Y12496287D01*
X12548393Y12496287D02*
X12510298Y12420097D01*
X12510298Y12420097D02*
X12510298Y12191525D01*
X12510298Y12191525D02*
X12548393Y12115335D01*
X12548393Y12115335D02*
X12586488Y12077240D01*
X12586488Y12077240D02*
X12662679Y12039144D01*
X12662679Y12039144D02*
X12815060Y12039144D01*
X12815060Y12039144D02*
X12891250Y12077240D01*
X11824583Y12039144D02*
X11824583Y12458192D01*
X11824583Y12458192D02*
X11862678Y12534382D01*
X11862678Y12534382D02*
X11938869Y12572478D01*
X11938869Y12572478D02*
X12091250Y12572478D01*
X12091250Y12572478D02*
X12167440Y12534382D01*
X11824583Y12077240D02*
X11900774Y12039144D01*
X11900774Y12039144D02*
X12091250Y12039144D01*
X12091250Y12039144D02*
X12167440Y12077240D01*
X12167440Y12077240D02*
X12205536Y12153430D01*
X12205536Y12153430D02*
X12205536Y12229620D01*
X12205536Y12229620D02*
X12167440Y12305811D01*
X12167440Y12305811D02*
X12091250Y12343906D01*
X12091250Y12343906D02*
X11900774Y12343906D01*
X11900774Y12343906D02*
X11824583Y12382001D01*
X11100773Y12077240D02*
X11176964Y12039144D01*
X11176964Y12039144D02*
X11329345Y12039144D01*
X11329345Y12039144D02*
X11405535Y12077240D01*
X11405535Y12077240D02*
X11443630Y12115335D01*
X11443630Y12115335D02*
X11481726Y12191525D01*
X11481726Y12191525D02*
X11481726Y12420097D01*
X11481726Y12420097D02*
X11443630Y12496287D01*
X11443630Y12496287D02*
X11405535Y12534382D01*
X11405535Y12534382D02*
X11329345Y12572478D01*
X11329345Y12572478D02*
X11176964Y12572478D01*
X11176964Y12572478D02*
X11100773Y12534382D01*
X10453154Y12077240D02*
X10529345Y12039144D01*
X10529345Y12039144D02*
X10681726Y12039144D01*
X10681726Y12039144D02*
X10757916Y12077240D01*
X10757916Y12077240D02*
X10796012Y12153430D01*
X10796012Y12153430D02*
X10796012Y12458192D01*
X10796012Y12458192D02*
X10757916Y12534382D01*
X10757916Y12534382D02*
X10681726Y12572478D01*
X10681726Y12572478D02*
X10529345Y12572478D01*
X10529345Y12572478D02*
X10453154Y12534382D01*
X10453154Y12534382D02*
X10415059Y12458192D01*
X10415059Y12458192D02*
X10415059Y12382001D01*
X10415059Y12382001D02*
X10796012Y12305811D01*
X10072202Y12039144D02*
X10072202Y12572478D01*
X10072202Y12420097D02*
X10034107Y12496287D01*
X10034107Y12496287D02*
X9996012Y12534382D01*
X9996012Y12534382D02*
X9919821Y12572478D01*
X9919821Y12572478D02*
X9843631Y12572478D01*
X9767441Y11962954D02*
X9157917Y11962954D01*
X8624583Y12039144D02*
X8624583Y12458192D01*
X8624583Y12458192D02*
X8662678Y12534382D01*
X8662678Y12534382D02*
X8738869Y12572478D01*
X8738869Y12572478D02*
X8891250Y12572478D01*
X8891250Y12572478D02*
X8967440Y12534382D01*
X8624583Y12077240D02*
X8700774Y12039144D01*
X8700774Y12039144D02*
X8891250Y12039144D01*
X8891250Y12039144D02*
X8967440Y12077240D01*
X8967440Y12077240D02*
X9005536Y12153430D01*
X9005536Y12153430D02*
X9005536Y12229620D01*
X9005536Y12229620D02*
X8967440Y12305811D01*
X8967440Y12305811D02*
X8891250Y12343906D01*
X8891250Y12343906D02*
X8700774Y12343906D01*
X8700774Y12343906D02*
X8624583Y12382001D01*
X8357916Y12572478D02*
X8053154Y12572478D01*
X8243630Y12039144D02*
X8243630Y12724859D01*
X8243630Y12724859D02*
X8205535Y12801049D01*
X8205535Y12801049D02*
X8129345Y12839144D01*
X8129345Y12839144D02*
X8053154Y12839144D01*
X7900773Y12572478D02*
X7596011Y12572478D01*
X7786487Y12839144D02*
X7786487Y12153430D01*
X7786487Y12153430D02*
X7748392Y12077240D01*
X7748392Y12077240D02*
X7672202Y12039144D01*
X7672202Y12039144D02*
X7596011Y12039144D01*
X7519821Y11962954D02*
X6910297Y11962954D01*
X6415058Y12077240D02*
X6491249Y12039144D01*
X6491249Y12039144D02*
X6643630Y12039144D01*
X6643630Y12039144D02*
X6719820Y12077240D01*
X6719820Y12077240D02*
X6757916Y12153430D01*
X6757916Y12153430D02*
X6757916Y12458192D01*
X6757916Y12458192D02*
X6719820Y12534382D01*
X6719820Y12534382D02*
X6643630Y12572478D01*
X6643630Y12572478D02*
X6491249Y12572478D01*
X6491249Y12572478D02*
X6415058Y12534382D01*
X6415058Y12534382D02*
X6376963Y12458192D01*
X6376963Y12458192D02*
X6376963Y12382001D01*
X6376963Y12382001D02*
X6757916Y12305811D01*
X6034106Y12572478D02*
X6034106Y12039144D01*
X6034106Y12496287D02*
X5996011Y12534382D01*
X5996011Y12534382D02*
X5919821Y12572478D01*
X5919821Y12572478D02*
X5805535Y12572478D01*
X5805535Y12572478D02*
X5729344Y12534382D01*
X5729344Y12534382D02*
X5691249Y12458192D01*
X5691249Y12458192D02*
X5691249Y12039144D01*
X4967439Y12039144D02*
X4967439Y12839144D01*
X4967439Y12077240D02*
X5043630Y12039144D01*
X5043630Y12039144D02*
X5196011Y12039144D01*
X5196011Y12039144D02*
X5272201Y12077240D01*
X5272201Y12077240D02*
X5310296Y12115335D01*
X5310296Y12115335D02*
X5348392Y12191525D01*
X5348392Y12191525D02*
X5348392Y12420097D01*
X5348392Y12420097D02*
X5310296Y12496287D01*
X5310296Y12496287D02*
X5272201Y12534382D01*
X5272201Y12534382D02*
X5196011Y12572478D01*
X5196011Y12572478D02*
X5043630Y12572478D01*
X5043630Y12572478D02*
X4967439Y12534382D01*
X4776963Y11962954D02*
X4167439Y11962954D01*
X3976962Y12039144D02*
X3976962Y12839144D01*
X3976962Y12534382D02*
X3900772Y12572478D01*
X3900772Y12572478D02*
X3748391Y12572478D01*
X3748391Y12572478D02*
X3672200Y12534382D01*
X3672200Y12534382D02*
X3634105Y12496287D01*
X3634105Y12496287D02*
X3596010Y12420097D01*
X3596010Y12420097D02*
X3596010Y12191525D01*
X3596010Y12191525D02*
X3634105Y12115335D01*
X3634105Y12115335D02*
X3672200Y12077240D01*
X3672200Y12077240D02*
X3748391Y12039144D01*
X3748391Y12039144D02*
X3900772Y12039144D01*
X3900772Y12039144D02*
X3976962Y12077240D01*
X3138867Y12039144D02*
X3215057Y12077240D01*
X3215057Y12077240D02*
X3253152Y12115335D01*
X3253152Y12115335D02*
X3291248Y12191525D01*
X3291248Y12191525D02*
X3291248Y12420097D01*
X3291248Y12420097D02*
X3253152Y12496287D01*
X3253152Y12496287D02*
X3215057Y12534382D01*
X3215057Y12534382D02*
X3138867Y12572478D01*
X3138867Y12572478D02*
X3024581Y12572478D01*
X3024581Y12572478D02*
X2948390Y12534382D01*
X2948390Y12534382D02*
X2910295Y12496287D01*
X2910295Y12496287D02*
X2872200Y12420097D01*
X2872200Y12420097D02*
X2872200Y12191525D01*
X2872200Y12191525D02*
X2910295Y12115335D01*
X2910295Y12115335D02*
X2948390Y12077240D01*
X2948390Y12077240D02*
X3024581Y12039144D01*
X3024581Y12039144D02*
X3138867Y12039144D01*
X2186485Y12039144D02*
X2186485Y12458192D01*
X2186485Y12458192D02*
X2224580Y12534382D01*
X2224580Y12534382D02*
X2300771Y12572478D01*
X2300771Y12572478D02*
X2453152Y12572478D01*
X2453152Y12572478D02*
X2529342Y12534382D01*
X2186485Y12077240D02*
X2262676Y12039144D01*
X2262676Y12039144D02*
X2453152Y12039144D01*
X2453152Y12039144D02*
X2529342Y12077240D01*
X2529342Y12077240D02*
X2567438Y12153430D01*
X2567438Y12153430D02*
X2567438Y12229620D01*
X2567438Y12229620D02*
X2529342Y12305811D01*
X2529342Y12305811D02*
X2453152Y12343906D01*
X2453152Y12343906D02*
X2262676Y12343906D01*
X2262676Y12343906D02*
X2186485Y12382001D01*
X1805532Y12039144D02*
X1805532Y12572478D01*
X1805532Y12420097D02*
X1767437Y12496287D01*
X1767437Y12496287D02*
X1729342Y12534382D01*
X1729342Y12534382D02*
X1653151Y12572478D01*
X1653151Y12572478D02*
X1576961Y12572478D01*
X967437Y12039144D02*
X967437Y12839144D01*
X967437Y12077240D02*
X1043628Y12039144D01*
X1043628Y12039144D02*
X1196009Y12039144D01*
X1196009Y12039144D02*
X1272199Y12077240D01*
X1272199Y12077240D02*
X1310294Y12115335D01*
X1310294Y12115335D02*
X1348390Y12191525D01*
X1348390Y12191525D02*
X1348390Y12420097D01*
X1348390Y12420097D02*
X1310294Y12496287D01*
X1310294Y12496287D02*
X1272199Y12534382D01*
X1272199Y12534382D02*
X1196009Y12572478D01*
X1196009Y12572478D02*
X1043628Y12572478D01*
X1043628Y12572478D02*
X967437Y12534382D01*
X776961Y11962954D02*
X167437Y11962954D01*
X-365896Y12039144D02*
X-365896Y12458192D01*
X-365896Y12458192D02*
X-327801Y12534382D01*
X-327801Y12534382D02*
X-251610Y12572478D01*
X-251610Y12572478D02*
X-99229Y12572478D01*
X-99229Y12572478D02*
X-23039Y12534382D01*
X-365896Y12077240D02*
X-289705Y12039144D01*
X-289705Y12039144D02*
X-99229Y12039144D01*
X-99229Y12039144D02*
X-23039Y12077240D01*
X-23039Y12077240D02*
X15056Y12153430D01*
X15056Y12153430D02*
X15056Y12229620D01*
X15056Y12229620D02*
X-23039Y12305811D01*
X-23039Y12305811D02*
X-99229Y12343906D01*
X-99229Y12343906D02*
X-289705Y12343906D01*
X-289705Y12343906D02*
X-365896Y12382001D01*
X-1089706Y12077240D02*
X-1013515Y12039144D01*
X-1013515Y12039144D02*
X-861134Y12039144D01*
X-861134Y12039144D02*
X-784944Y12077240D01*
X-784944Y12077240D02*
X-746849Y12115335D01*
X-746849Y12115335D02*
X-708753Y12191525D01*
X-708753Y12191525D02*
X-708753Y12420097D01*
X-708753Y12420097D02*
X-746849Y12496287D01*
X-746849Y12496287D02*
X-784944Y12534382D01*
X-784944Y12534382D02*
X-861134Y12572478D01*
X-861134Y12572478D02*
X-1013515Y12572478D01*
X-1013515Y12572478D02*
X-1089706Y12534382D01*
X-1318277Y12572478D02*
X-1623039Y12572478D01*
X-1432563Y12839144D02*
X-1432563Y12153430D01*
X-1432563Y12153430D02*
X-1470658Y12077240D01*
X-1470658Y12077240D02*
X-1546848Y12039144D01*
X-1546848Y12039144D02*
X-1623039Y12039144D01*
X-1889706Y12039144D02*
X-1889706Y12572478D01*
X-1889706Y12839144D02*
X-1851610Y12801049D01*
X-1851610Y12801049D02*
X-1889706Y12762954D01*
X-1889706Y12762954D02*
X-1927801Y12801049D01*
X-1927801Y12801049D02*
X-1889706Y12839144D01*
X-1889706Y12839144D02*
X-1889706Y12762954D01*
X-2194467Y12572478D02*
X-2384943Y12039144D01*
X-2384943Y12039144D02*
X-2575420Y12572478D01*
X-3223039Y12039144D02*
X-3223039Y12458192D01*
X-3223039Y12458192D02*
X-3184944Y12534382D01*
X-3184944Y12534382D02*
X-3108753Y12572478D01*
X-3108753Y12572478D02*
X-2956372Y12572478D01*
X-2956372Y12572478D02*
X-2880182Y12534382D01*
X-3223039Y12077240D02*
X-3146848Y12039144D01*
X-3146848Y12039144D02*
X-2956372Y12039144D01*
X-2956372Y12039144D02*
X-2880182Y12077240D01*
X-2880182Y12077240D02*
X-2842086Y12153430D01*
X-2842086Y12153430D02*
X-2842086Y12229620D01*
X-2842086Y12229620D02*
X-2880182Y12305811D01*
X-2880182Y12305811D02*
X-2956372Y12343906D01*
X-2956372Y12343906D02*
X-3146848Y12343906D01*
X-3146848Y12343906D02*
X-3223039Y12382001D01*
X-3489706Y12572478D02*
X-3794468Y12572478D01*
X-3603992Y12839144D02*
X-3603992Y12153430D01*
X-3603992Y12153430D02*
X-3642087Y12077240D01*
X-3642087Y12077240D02*
X-3718277Y12039144D01*
X-3718277Y12039144D02*
X-3794468Y12039144D01*
X-4061135Y12039144D02*
X-4061135Y12572478D01*
X-4061135Y12839144D02*
X-4023039Y12801049D01*
X-4023039Y12801049D02*
X-4061135Y12762954D01*
X-4061135Y12762954D02*
X-4099230Y12801049D01*
X-4099230Y12801049D02*
X-4061135Y12839144D01*
X-4061135Y12839144D02*
X-4061135Y12762954D01*
X-4556372Y12039144D02*
X-4480182Y12077240D01*
X-4480182Y12077240D02*
X-4442087Y12115335D01*
X-4442087Y12115335D02*
X-4403991Y12191525D01*
X-4403991Y12191525D02*
X-4403991Y12420097D01*
X-4403991Y12420097D02*
X-4442087Y12496287D01*
X-4442087Y12496287D02*
X-4480182Y12534382D01*
X-4480182Y12534382D02*
X-4556372Y12572478D01*
X-4556372Y12572478D02*
X-4670658Y12572478D01*
X-4670658Y12572478D02*
X-4746849Y12534382D01*
X-4746849Y12534382D02*
X-4784944Y12496287D01*
X-4784944Y12496287D02*
X-4823039Y12420097D01*
X-4823039Y12420097D02*
X-4823039Y12191525D01*
X-4823039Y12191525D02*
X-4784944Y12115335D01*
X-4784944Y12115335D02*
X-4746849Y12077240D01*
X-4746849Y12077240D02*
X-4670658Y12039144D01*
X-4670658Y12039144D02*
X-4556372Y12039144D01*
X-5165897Y12572478D02*
X-5165897Y12039144D01*
X-5165897Y12496287D02*
X-5203992Y12534382D01*
X-5203992Y12534382D02*
X-5280182Y12572478D01*
X-5280182Y12572478D02*
X-5394468Y12572478D01*
X-5394468Y12572478D02*
X-5470659Y12534382D01*
X-5470659Y12534382D02*
X-5508754Y12458192D01*
X-5508754Y12458192D02*
X-5508754Y12039144D01*
X-5699231Y11962954D02*
X-6308754Y11962954D01*
X-6499231Y12039144D02*
X-6499231Y12572478D01*
X-6499231Y12839144D02*
X-6461135Y12801049D01*
X-6461135Y12801049D02*
X-6499231Y12762954D01*
X-6499231Y12762954D02*
X-6537326Y12801049D01*
X-6537326Y12801049D02*
X-6499231Y12839144D01*
X-6499231Y12839144D02*
X-6499231Y12762954D01*
X-6880183Y12572478D02*
X-6880183Y12039144D01*
X-6880183Y12496287D02*
X-6918278Y12534382D01*
X-6918278Y12534382D02*
X-6994468Y12572478D01*
X-6994468Y12572478D02*
X-7108754Y12572478D01*
X-7108754Y12572478D02*
X-7184945Y12534382D01*
X-7184945Y12534382D02*
X-7223040Y12458192D01*
X-7223040Y12458192D02*
X-7223040Y12039144D01*
X-7489707Y12572478D02*
X-7794469Y12572478D01*
X-7603993Y12839144D02*
X-7603993Y12153430D01*
X-7603993Y12153430D02*
X-7642088Y12077240D01*
X-7642088Y12077240D02*
X-7718278Y12039144D01*
X-7718278Y12039144D02*
X-7794469Y12039144D01*
X-8365898Y12077240D02*
X-8289707Y12039144D01*
X-8289707Y12039144D02*
X-8137326Y12039144D01*
X-8137326Y12039144D02*
X-8061136Y12077240D01*
X-8061136Y12077240D02*
X-8023040Y12153430D01*
X-8023040Y12153430D02*
X-8023040Y12458192D01*
X-8023040Y12458192D02*
X-8061136Y12534382D01*
X-8061136Y12534382D02*
X-8137326Y12572478D01*
X-8137326Y12572478D02*
X-8289707Y12572478D01*
X-8289707Y12572478D02*
X-8365898Y12534382D01*
X-8365898Y12534382D02*
X-8403993Y12458192D01*
X-8403993Y12458192D02*
X-8403993Y12382001D01*
X-8403993Y12382001D02*
X-8023040Y12305811D01*
X-8746850Y12039144D02*
X-8746850Y12572478D01*
X-8746850Y12420097D02*
X-8784945Y12496287D01*
X-8784945Y12496287D02*
X-8823040Y12534382D01*
X-8823040Y12534382D02*
X-8899231Y12572478D01*
X-8899231Y12572478D02*
X-8975421Y12572478D01*
X-9127802Y12572478D02*
X-9432564Y12572478D01*
X-9242088Y12039144D02*
X-9242088Y12724859D01*
X-9242088Y12724859D02*
X-9280183Y12801049D01*
X-9280183Y12801049D02*
X-9356373Y12839144D01*
X-9356373Y12839144D02*
X-9432564Y12839144D01*
X-10042088Y12039144D02*
X-10042088Y12458192D01*
X-10042088Y12458192D02*
X-10003993Y12534382D01*
X-10003993Y12534382D02*
X-9927802Y12572478D01*
X-9927802Y12572478D02*
X-9775421Y12572478D01*
X-9775421Y12572478D02*
X-9699231Y12534382D01*
X-10042088Y12077240D02*
X-9965897Y12039144D01*
X-9965897Y12039144D02*
X-9775421Y12039144D01*
X-9775421Y12039144D02*
X-9699231Y12077240D01*
X-9699231Y12077240D02*
X-9661135Y12153430D01*
X-9661135Y12153430D02*
X-9661135Y12229620D01*
X-9661135Y12229620D02*
X-9699231Y12305811D01*
X-9699231Y12305811D02*
X-9775421Y12343906D01*
X-9775421Y12343906D02*
X-9965897Y12343906D01*
X-9965897Y12343906D02*
X-10042088Y12382001D01*
X-10765898Y12077240D02*
X-10689707Y12039144D01*
X-10689707Y12039144D02*
X-10537326Y12039144D01*
X-10537326Y12039144D02*
X-10461136Y12077240D01*
X-10461136Y12077240D02*
X-10423041Y12115335D01*
X-10423041Y12115335D02*
X-10384945Y12191525D01*
X-10384945Y12191525D02*
X-10384945Y12420097D01*
X-10384945Y12420097D02*
X-10423041Y12496287D01*
X-10423041Y12496287D02*
X-10461136Y12534382D01*
X-10461136Y12534382D02*
X-10537326Y12572478D01*
X-10537326Y12572478D02*
X-10689707Y12572478D01*
X-10689707Y12572478D02*
X-10765898Y12534382D01*
X-11413517Y12077240D02*
X-11337326Y12039144D01*
X-11337326Y12039144D02*
X-11184945Y12039144D01*
X-11184945Y12039144D02*
X-11108755Y12077240D01*
X-11108755Y12077240D02*
X-11070659Y12153430D01*
X-11070659Y12153430D02*
X-11070659Y12458192D01*
X-11070659Y12458192D02*
X-11108755Y12534382D01*
X-11108755Y12534382D02*
X-11184945Y12572478D01*
X-11184945Y12572478D02*
X-11337326Y12572478D01*
X-11337326Y12572478D02*
X-11413517Y12534382D01*
X-11413517Y12534382D02*
X-11451612Y12458192D01*
X-11451612Y12458192D02*
X-11451612Y12382001D01*
X-11451612Y12382001D02*
X-11070659Y12305811D01*
X-12746850Y12077240D02*
X-12670659Y12039144D01*
X-12670659Y12039144D02*
X-12518278Y12039144D01*
X-12518278Y12039144D02*
X-12442088Y12077240D01*
X-12442088Y12077240D02*
X-12403993Y12115335D01*
X-12403993Y12115335D02*
X-12365897Y12191525D01*
X-12365897Y12191525D02*
X-12365897Y12420097D01*
X-12365897Y12420097D02*
X-12403993Y12496287D01*
X-12403993Y12496287D02*
X-12442088Y12534382D01*
X-12442088Y12534382D02*
X-12518278Y12572478D01*
X-12518278Y12572478D02*
X-12670659Y12572478D01*
X-12670659Y12572478D02*
X-12746850Y12534382D01*
X-13432564Y12572478D02*
X-13432564Y12039144D01*
X-13089707Y12572478D02*
X-13089707Y12153430D01*
X-13089707Y12153430D02*
X-13127802Y12077240D01*
X-13127802Y12077240D02*
X-13203992Y12039144D01*
X-13203992Y12039144D02*
X-13318278Y12039144D01*
X-13318278Y12039144D02*
X-13394469Y12077240D01*
X-13394469Y12077240D02*
X-13432564Y12115335D01*
X-13699231Y12572478D02*
X-14003993Y12572478D01*
X-13813517Y12839144D02*
X-13813517Y12153430D01*
X-13813517Y12153430D02*
X-13851612Y12077240D01*
X-13851612Y12077240D02*
X-13927802Y12039144D01*
X-13927802Y12039144D02*
X-14003993Y12039144D01*
X-14384945Y12039144D02*
X-14308755Y12077240D01*
X-14308755Y12077240D02*
X-14270660Y12115335D01*
X-14270660Y12115335D02*
X-14232564Y12191525D01*
X-14232564Y12191525D02*
X-14232564Y12420097D01*
X-14232564Y12420097D02*
X-14270660Y12496287D01*
X-14270660Y12496287D02*
X-14308755Y12534382D01*
X-14308755Y12534382D02*
X-14384945Y12572478D01*
X-14384945Y12572478D02*
X-14499231Y12572478D01*
X-14499231Y12572478D02*
X-14575422Y12534382D01*
X-14575422Y12534382D02*
X-14613517Y12496287D01*
X-14613517Y12496287D02*
X-14651612Y12420097D01*
X-14651612Y12420097D02*
X-14651612Y12191525D01*
X-14651612Y12191525D02*
X-14613517Y12115335D01*
X-14613517Y12115335D02*
X-14575422Y12077240D01*
X-14575422Y12077240D02*
X-14499231Y12039144D01*
X-14499231Y12039144D02*
X-14384945Y12039144D01*
X-15337327Y12572478D02*
X-15337327Y12039144D01*
X-14994470Y12572478D02*
X-14994470Y12153430D01*
X-14994470Y12153430D02*
X-15032565Y12077240D01*
X-15032565Y12077240D02*
X-15108755Y12039144D01*
X-15108755Y12039144D02*
X-15223041Y12039144D01*
X-15223041Y12039144D02*
X-15299232Y12077240D01*
X-15299232Y12077240D02*
X-15337327Y12115335D01*
X-15603994Y12572478D02*
X-15908756Y12572478D01*
X-15718280Y12839144D02*
X-15718280Y12153430D01*
X-15718280Y12153430D02*
X-15756375Y12077240D01*
X-15756375Y12077240D02*
X-15832565Y12039144D01*
X-15832565Y12039144D02*
X-15908756Y12039144D01*
M02*
