%TF.GenerationSoftware,KiCad,Pcbnew,10.0.0*%
%TF.CreationDate,2026-09-03T12:15:46+02:00*%
%TF.ProjectId,activation_interface,61637469-7661-4746-996f-6e5f696e7465,rev?*%
%TF.SameCoordinates,Original*%
%TF.FileFunction,Copper,L1,Top*%
%TF.FilePolarity,Positive*%
%FSLAX46Y46*%
G04 Gerber Fmt 4.6, Leading zero omitted, Abs format (unit mm)*
G04 Created by KiCad (PCBNEW 10.0.0) date 2026-09-03 12:15:46*
%MOMM*%
%LPD*%
G01*
G04 APERTURE LIST*
%TA.AperFunction,SMDPad,CuDef*%
%ADD10R,0.600000X0.300000*%
%TD*%
%TA.AperFunction,SMDPad,CuDef*%
%ADD11R,0.300000X0.600000*%
%TD*%
%TA.AperFunction,SMDPad,CuDef*%
%ADD12R,0.600000X0.550000*%
%TD*%
%TA.AperFunction,SMDPad,CuDef*%
%ADD13R,0.850000X0.950000*%
%TD*%
%TA.AperFunction,SMDPad,CuDef*%
%ADD14R,0.950000X0.850000*%
%TD*%
%TA.AperFunction,SMDPad,CuDef*%
%ADD15R,1.475000X0.450000*%
%TD*%
%TA.AperFunction,SMDPad,CuDef*%
%ADD16R,2.460000X2.310000*%
%TD*%
%TA.AperFunction,SMDPad,CuDef*%
%ADD17R,2.450000X4.900000*%
%TD*%
%TA.AperFunction,SMDPad,CuDef*%
%ADD18R,2.000000X3.050000*%
%TD*%
%TA.AperFunction,SMDPad,CuDef*%
%ADD19R,0.550000X0.600000*%
%TD*%
%TA.AperFunction,SMDPad,CuDef*%
%ADD20R,0.900000X0.900000*%
%TD*%
%TA.AperFunction,ViaPad*%
%ADD21C,0.450000*%
%TD*%
%TA.AperFunction,Conductor*%
%ADD22C,0.100000*%
%TD*%
G04 APERTURE END LIST*
D10*
%TO.P,U_HACC,1*%
%TO.N,3V3*%
X-200000Y0D03*
%TO.P,U_HACC,2*%
%TO.N,N/C*%
X-200000Y500000D03*
%TO.P,U_HACC,3*%
X-200000Y1000000D03*
%TO.P,U_HACC,4*%
%TO.N,I2C3_SCL*%
X-200000Y1500000D03*
%TO.P,U_HACC,5*%
%TO.N,FLEX_GND*%
X-200000Y2000000D03*
D11*
%TO.P,U_HACC,6*%
%TO.N,I2C3_SDA*%
X500000Y2200000D03*
%TO.P,U_HACC,7*%
%TO.N,FLEX_GND*%
X1000000Y2200000D03*
%TO.P,U_HACC,8*%
%TO.N,3V3*%
X1500000Y2200000D03*
D10*
%TO.P,U_HACC,9*%
%TO.N,N/C*%
X2200000Y2000000D03*
%TO.P,U_HACC,10*%
%TO.N,FLEX_GND*%
X2200000Y1500000D03*
%TO.P,U_HACC,11*%
%TO.N,H3LIS_INT1*%
X2200000Y1000000D03*
%TO.P,U_HACC,12*%
%TO.N,FLEX_GND*%
X2200000Y500000D03*
%TO.P,U_HACC,13*%
X2200000Y0D03*
D11*
%TO.P,U_HACC,14*%
%TO.N,3V3*%
X1500000Y-200000D03*
%TO.P,U_HACC,15*%
X1000000Y-200000D03*
%TO.P,U_HACC,16*%
%TO.N,FLEX_GND*%
X500000Y-200000D03*
%TD*%
D12*
%TO.P,C_HACC1,1*%
%TO.N,3V3*%
X-1151000Y-475000D03*
%TO.P,C_HACC1,2*%
%TO.N,FLEX_GND*%
X-1151000Y475000D03*
%TD*%
D13*
%TO.P,C_HACC2_1,1*%
%TO.N,3V3*%
X-3026000Y-1326000D03*
%TO.P,C_HACC2_1,2*%
%TO.N,FLEX_GND*%
X-1426000Y-1326000D03*
%TD*%
%TO.P,C_HACC2_2,1*%
%TO.N,3V3*%
X-175000Y-2377000D03*
%TO.P,C_HACC2_2,2*%
%TO.N,FLEX_GND*%
X1425000Y-2377000D03*
%TD*%
D14*
%TO.P,C_HACC2_3,1*%
%TO.N,3V3*%
X2576000Y-3177000D03*
%TO.P,C_HACC2_3,2*%
%TO.N,FLEX_GND*%
X2576000Y-1577000D03*
%TD*%
D13*
%TO.P,C_HACC2_4,1*%
%TO.N,3V3*%
X-175000Y-3428000D03*
%TO.P,C_HACC2_4,2*%
%TO.N,FLEX_GND*%
X1425000Y-3428000D03*
%TD*%
%TO.P,C_HACC2_5,1*%
%TO.N,3V3*%
X-5129000Y0D03*
%TO.P,C_HACC2_5,2*%
%TO.N,FLEX_GND*%
X-3529000Y0D03*
%TD*%
D15*
%TO.P,U_FIRE_BOOST,1*%
%TO.N,FIRE_SW*%
X-2313000Y-4804000D03*
%TO.P,U_FIRE_BOOST,2*%
X-2313000Y-5454000D03*
%TO.P,U_FIRE_BOOST,3*%
%TO.N,COMP_5V*%
X-2313000Y-6104000D03*
%TO.P,U_FIRE_BOOST,4*%
X-2313000Y-6754000D03*
%TO.P,U_FIRE_BOOST,5*%
%TO.N,FIRE_SS*%
X-2313000Y-7404000D03*
%TO.P,U_FIRE_BOOST,6*%
%TO.N,FLEX_GND*%
X-2313000Y-8054000D03*
%TO.P,U_FIRE_BOOST,7*%
X-2313000Y-8704000D03*
%TO.P,U_FIRE_BOOST,8*%
%TO.N,FIRE_COMP*%
X3563000Y-8704000D03*
%TO.P,U_FIRE_BOOST,9*%
%TO.N,FIRE_FB*%
X3563000Y-8054000D03*
%TO.P,U_FIRE_BOOST,10*%
%TO.N,FIRE_FREQ*%
X3563000Y-7404000D03*
%TO.P,U_FIRE_BOOST,11*%
%TO.N,FLEX_GND*%
X3563000Y-6754000D03*
%TO.P,U_FIRE_BOOST,12*%
X3563000Y-6104000D03*
%TO.P,U_FIRE_BOOST,13*%
X3563000Y-5454000D03*
%TO.P,U_FIRE_BOOST,14*%
X3563000Y-4804000D03*
D16*
%TO.P,U_FIRE_BOOST,15*%
X625000Y-6754000D03*
%TD*%
D12*
%TO.P,R_FIRE_FREQ,1*%
%TO.N,FIRE_FREQ*%
X-2553000Y-475000D03*
%TO.P,R_FIRE_FREQ,2*%
%TO.N,FLEX_GND*%
X-2553000Y475000D03*
%TD*%
%TO.P,C_FIRE_SS,1*%
%TO.N,FIRE_SS*%
X-1852000Y-475000D03*
%TO.P,C_FIRE_SS,2*%
%TO.N,FLEX_GND*%
X-1852000Y475000D03*
%TD*%
D13*
%TO.P,C_FIRE_IN_1,1*%
%TO.N,COMP_5V*%
X-3026000Y-3428000D03*
%TO.P,C_FIRE_IN_1,2*%
%TO.N,FLEX_GND*%
X-1426000Y-3428000D03*
%TD*%
%TO.P,C_FIRE_IN_2,1*%
%TO.N,COMP_5V*%
X-3026000Y-2377000D03*
%TO.P,C_FIRE_IN_2,2*%
%TO.N,FLEX_GND*%
X-1426000Y-2377000D03*
%TD*%
D14*
%TO.P,C_FIRE_IN_3,1*%
%TO.N,COMP_5V*%
X3326000Y-175000D03*
%TO.P,C_FIRE_IN_3,2*%
%TO.N,FLEX_GND*%
X3326000Y1425000D03*
%TD*%
%TO.P,C_FIRE_IN_4,1*%
%TO.N,COMP_5V*%
X4377000Y-3026000D03*
%TO.P,C_FIRE_IN_4,2*%
%TO.N,FLEX_GND*%
X4377000Y-1426000D03*
%TD*%
%TO.P,C_FIRE_IN_5,1*%
%TO.N,COMP_5V*%
X-4528000Y1650000D03*
%TO.P,C_FIRE_IN_5,2*%
%TO.N,FLEX_GND*%
X-4528000Y3250000D03*
%TD*%
D17*
%TO.P,L_FIRE,1*%
%TO.N,COMP_5V*%
X-9010000Y-4010000D03*
%TO.P,L_FIRE,2*%
%TO.N,FIRE_SW*%
X-5410000Y-4010000D03*
%TD*%
D18*
%TO.P,D_FIRE,1*%
%TO.N,FIRE_HV*%
X-2600000Y6101000D03*
%TO.P,D_FIRE,2*%
%TO.N,FIRE_SW*%
X4600000Y6101000D03*
%TD*%
D12*
%TO.P,R_FIRE_FB1,1*%
%TO.N,FIRE_HV*%
X3501000Y-2076000D03*
%TO.P,R_FIRE_FB1,2*%
%TO.N,FIRE_FB*%
X3501000Y-1126000D03*
%TD*%
D19*
%TO.P,R_FIRE_FB2,1*%
%TO.N,FIRE_FB*%
X-2076000Y2450000D03*
%TO.P,R_FIRE_FB2,2*%
%TO.N,FLEX_GND*%
X-1126000Y2450000D03*
%TD*%
%TO.P,R_FIRE_COMP,1*%
%TO.N,FIRE_COMP*%
X-3677000Y2450000D03*
%TO.P,R_FIRE_COMP,2*%
%TO.N,FIRE_COMP_C*%
X-2727000Y2450000D03*
%TD*%
D13*
%TO.P,C_FIRE_COMP,1*%
%TO.N,FIRE_COMP_C*%
X-3026000Y1326000D03*
%TO.P,C_FIRE_COMP,2*%
%TO.N,FLEX_GND*%
X-1426000Y1326000D03*
%TD*%
%TO.P,C_FIRE_OUT_1,1*%
%TO.N,FIRE_HV*%
X-175000Y-1326000D03*
%TO.P,C_FIRE_OUT_1,2*%
%TO.N,FLEX_GND*%
X1425000Y-1326000D03*
%TD*%
D14*
%TO.P,C_FIRE_OUT_2,1*%
%TO.N,FIRE_HV*%
X4377000Y-175000D03*
%TO.P,C_FIRE_OUT_2,2*%
%TO.N,FLEX_GND*%
X4377000Y1425000D03*
%TD*%
D20*
%TO.P,J_activation_interface_spacer_activation_interface_cell_floor_board,1*%
%TO.N,3V3*%
X13950000Y-5950000D03*
%TO.P,J_activation_interface_spacer_activation_interface_cell_floor_board,2*%
%TO.N,3V3_AON*%
X13950000Y-4350000D03*
%TO.P,J_activation_interface_spacer_activation_interface_cell_floor_board,3*%
%TO.N,ACTIVATE_CONFIRM*%
X13950000Y-2750000D03*
%TO.P,J_activation_interface_spacer_activation_interface_cell_floor_board,4*%
%TO.N,ACTIVATE_SET*%
X13950000Y-1150000D03*
%TO.P,J_activation_interface_spacer_activation_interface_cell_floor_board,5*%
%TO.N,BAT_PROT*%
X13950000Y450000D03*
%TO.P,J_activation_interface_spacer_activation_interface_cell_floor_board,6*%
%TO.N,BAT_RAW*%
X13950000Y2050000D03*
%TO.P,J_activation_interface_spacer_activation_interface_cell_floor_board,7*%
%TO.N,BOOT0*%
X13950000Y3650000D03*
%TO.P,J_activation_interface_spacer_activation_interface_cell_floor_board,8*%
%TO.N,COMP_5V*%
X13950000Y5250000D03*
%TO.P,J_activation_interface_spacer_activation_interface_cell_floor_board,9*%
%TO.N,COMP_SWDCLK*%
X12350000Y-5950000D03*
%TO.P,J_activation_interface_spacer_activation_interface_cell_floor_board,10*%
%TO.N,COMP_SWDIO*%
X12350000Y-4350000D03*
%TO.P,J_activation_interface_spacer_activation_interface_cell_floor_board,11*%
%TO.N,EXT_CAN_RX*%
X12350000Y-2750000D03*
%TO.P,J_activation_interface_spacer_activation_interface_cell_floor_board,12*%
%TO.N,EXT_CAN_TX*%
X12350000Y-1150000D03*
%TO.P,J_activation_interface_spacer_activation_interface_cell_floor_board,13*%
%TO.N,FIN1_AOUT1*%
X12350000Y450000D03*
%TO.P,J_activation_interface_spacer_activation_interface_cell_floor_board,14*%
%TO.N,FIN2_AOUT1*%
X12350000Y2050000D03*
%TO.P,J_activation_interface_spacer_activation_interface_cell_floor_board,15*%
%TO.N,FIN3_AOUT1*%
X12350000Y3650000D03*
%TO.P,J_activation_interface_spacer_activation_interface_cell_floor_board,16*%
%TO.N,FIN4_AOUT1*%
X12350000Y5250000D03*
%TO.P,J_activation_interface_spacer_activation_interface_cell_floor_board,17*%
%TO.N,FIN_HALL*%
X12350000Y6850000D03*
%TO.P,J_activation_interface_spacer_activation_interface_cell_floor_board,18*%
%TO.N,FIN_VREF*%
X12350000Y8450000D03*
%TO.P,J_activation_interface_spacer_activation_interface_cell_floor_board,19*%
%TO.N,FLEX_GND*%
X10750000Y-5950000D03*
%TO.P,J_activation_interface_spacer_activation_interface_cell_floor_board,20*%
%TO.N,GPIO_EXT_0*%
X10750000Y-4350000D03*
%TO.P,J_activation_interface_spacer_activation_interface_cell_floor_board,21*%
%TO.N,GPIO_EXT_1*%
X10750000Y-2750000D03*
%TO.P,J_activation_interface_spacer_activation_interface_cell_floor_board,22*%
%TO.N,GPIO_EXT_2*%
X10750000Y-1150000D03*
%TO.P,J_activation_interface_spacer_activation_interface_cell_floor_board,23*%
%TO.N,GPIO_EXT_3*%
X10750000Y450000D03*
%TO.P,J_activation_interface_spacer_activation_interface_cell_floor_board,24*%
%TO.N,H3LIS_INT1*%
X10750000Y2050000D03*
%TO.P,J_activation_interface_spacer_activation_interface_cell_floor_board,25*%
%TO.N,I2C3_SCL*%
X10750000Y3650000D03*
%TO.P,J_activation_interface_spacer_activation_interface_cell_floor_board,26*%
%TO.N,I2C3_SDA*%
X10750000Y5250000D03*
%TO.P,J_activation_interface_spacer_activation_interface_cell_floor_board,27*%
%TO.N,JUMP_WAKE*%
X10750000Y6850000D03*
%TO.P,J_activation_interface_spacer_activation_interface_cell_floor_board,28*%
%TO.N,NRST*%
X10750000Y8450000D03*
%TO.P,J_activation_interface_spacer_activation_interface_cell_floor_board,29*%
%TO.N,SWO*%
X10750000Y10050000D03*
%TO.P,J_activation_interface_spacer_activation_interface_cell_floor_board,30*%
%TO.N,SYS_I2C_SCL*%
X9150000Y-5950000D03*
%TO.P,J_activation_interface_spacer_activation_interface_cell_floor_board,31*%
%TO.N,SYS_I2C_SDA*%
X9150000Y-4350000D03*
%TO.P,J_activation_interface_spacer_activation_interface_cell_floor_board,32*%
%TO.N,SYS_SPI_CS_FIN*%
X9150000Y-2750000D03*
%TO.P,J_activation_interface_spacer_activation_interface_cell_floor_board,33*%
%TO.N,SYS_SPI_MISO*%
X9150000Y-1150000D03*
%TO.P,J_activation_interface_spacer_activation_interface_cell_floor_board,34*%
%TO.N,SYS_SPI_MOSI*%
X9150000Y450000D03*
%TO.P,J_activation_interface_spacer_activation_interface_cell_floor_board,35*%
%TO.N,SYS_SPI_SCLK*%
X9150000Y2050000D03*
%TO.P,J_activation_interface_spacer_activation_interface_cell_floor_board,36*%
%TO.N,3V3*%
X9150000Y3650000D03*
%TO.P,J_activation_interface_spacer_activation_interface_cell_floor_board,37*%
%TO.N,3V3_AON*%
X9150000Y5250000D03*
%TO.P,J_activation_interface_spacer_activation_interface_cell_floor_board,38*%
%TO.N,BAT_PROT*%
X9150000Y6850000D03*
%TO.P,J_activation_interface_spacer_activation_interface_cell_floor_board,39*%
%TO.N,BAT_RAW*%
X9150000Y8450000D03*
%TO.P,J_activation_interface_spacer_activation_interface_cell_floor_board,40*%
%TO.N,COMP_5V*%
X9150000Y10050000D03*
%TO.P,J_activation_interface_spacer_activation_interface_cell_floor_board,41*%
%TO.N,3V3*%
X9150000Y11650000D03*
%TO.P,J_activation_interface_spacer_activation_interface_cell_floor_board,42*%
%TO.N,FLEX_GND*%
X7550000Y-4350000D03*
%TO.P,J_activation_interface_spacer_activation_interface_cell_floor_board,43*%
X7550000Y-2750000D03*
%TO.P,J_activation_interface_spacer_activation_interface_cell_floor_board,44*%
X7550000Y-1150000D03*
%TO.P,J_activation_interface_spacer_activation_interface_cell_floor_board,45*%
X7550000Y450000D03*
%TO.P,J_activation_interface_spacer_activation_interface_cell_floor_board,46*%
X7550000Y2050000D03*
%TO.P,J_activation_interface_spacer_activation_interface_cell_floor_board,47*%
X7550000Y3650000D03*
%TO.P,J_activation_interface_spacer_activation_interface_cell_floor_board,48*%
X7550000Y5250000D03*
%TO.P,J_activation_interface_spacer_activation_interface_cell_floor_board,49*%
X7550000Y6850000D03*
%TO.P,J_activation_interface_spacer_activation_interface_cell_floor_board,50*%
X7550000Y8450000D03*
%TO.P,J_activation_interface_spacer_activation_interface_cell_floor_board,51*%
X7550000Y10050000D03*
%TO.P,J_activation_interface_spacer_activation_interface_cell_floor_board,52*%
X7550000Y11650000D03*
%TO.P,J_activation_interface_spacer_activation_interface_cell_floor_board,53*%
X7550000Y13250000D03*
%TO.P,J_activation_interface_spacer_activation_interface_cell_floor_board,54*%
X5950000Y-13950000D03*
%TO.P,J_activation_interface_spacer_activation_interface_cell_floor_board,55*%
X5950000Y-12350000D03*
%TO.P,J_activation_interface_spacer_activation_interface_cell_floor_board,56*%
X5950000Y-10750000D03*
%TO.P,J_activation_interface_spacer_activation_interface_cell_floor_board,57*%
X5950000Y-9150000D03*
%TO.P,J_activation_interface_spacer_activation_interface_cell_floor_board,58*%
X5950000Y-2750000D03*
%TO.P,J_activation_interface_spacer_activation_interface_cell_floor_board,59*%
X5950000Y-1150000D03*
%TO.P,J_activation_interface_spacer_activation_interface_cell_floor_board,60*%
X5950000Y450000D03*
%TO.P,J_activation_interface_spacer_activation_interface_cell_floor_board,61*%
X5950000Y11650000D03*
%TO.P,J_activation_interface_spacer_activation_interface_cell_floor_board,62*%
X5950000Y13250000D03*
%TO.P,J_activation_interface_spacer_activation_interface_cell_floor_board,63*%
X4350000Y-13950000D03*
%TO.P,J_activation_interface_spacer_activation_interface_cell_floor_board,64*%
X4350000Y-12350000D03*
%TO.P,J_activation_interface_spacer_activation_interface_cell_floor_board,65*%
X4350000Y-10750000D03*
%TO.P,J_activation_interface_spacer_activation_interface_cell_floor_board,66*%
X4350000Y11650000D03*
%TO.P,J_activation_interface_spacer_activation_interface_cell_floor_board,67*%
X4350000Y13250000D03*
%TO.P,J_activation_interface_spacer_activation_interface_cell_floor_board,68*%
X2750000Y-13950000D03*
%TO.P,J_activation_interface_spacer_activation_interface_cell_floor_board,69*%
X2750000Y-12350000D03*
%TO.P,J_activation_interface_spacer_activation_interface_cell_floor_board,70*%
X2750000Y-10750000D03*
%TO.P,J_activation_interface_spacer_activation_interface_cell_floor_board,71*%
X2750000Y11650000D03*
%TO.P,J_activation_interface_spacer_activation_interface_cell_floor_board,72*%
X2750000Y13250000D03*
%TO.P,J_activation_interface_spacer_activation_interface_cell_floor_board,73*%
X2750000Y14850000D03*
%TO.P,J_activation_interface_spacer_activation_interface_cell_floor_board,74*%
X1150000Y-13950000D03*
%TO.P,J_activation_interface_spacer_activation_interface_cell_floor_board,75*%
X1150000Y-12350000D03*
%TO.P,J_activation_interface_spacer_activation_interface_cell_floor_board,76*%
X1150000Y-10750000D03*
%TO.P,J_activation_interface_spacer_activation_interface_cell_floor_board,77*%
X1150000Y11650000D03*
%TO.P,J_activation_interface_spacer_activation_interface_cell_floor_board,78*%
X1150000Y13250000D03*
%TO.P,J_activation_interface_spacer_activation_interface_cell_floor_board,79*%
X1150000Y14850000D03*
%TO.P,J_activation_interface_spacer_activation_interface_cell_floor_board,80*%
X-450000Y-13950000D03*
%TO.P,J_activation_interface_spacer_activation_interface_cell_floor_board,81*%
X-450000Y-12350000D03*
%TO.P,J_activation_interface_spacer_activation_interface_cell_floor_board,82*%
X-450000Y-10750000D03*
%TO.P,J_activation_interface_spacer_activation_interface_cell_floor_board,83*%
X-450000Y11650000D03*
%TO.P,J_activation_interface_spacer_activation_interface_cell_floor_board,84*%
X-450000Y13250000D03*
%TO.P,J_activation_interface_spacer_activation_interface_cell_floor_board,85*%
X-450000Y14850000D03*
%TO.P,J_activation_interface_spacer_activation_interface_cell_floor_board,86*%
X-2050000Y-13950000D03*
%TO.P,J_activation_interface_spacer_activation_interface_cell_floor_board,87*%
X-2050000Y-12350000D03*
%TO.P,J_activation_interface_spacer_activation_interface_cell_floor_board,88*%
X-2050000Y-10750000D03*
%TO.P,J_activation_interface_spacer_activation_interface_cell_floor_board,89*%
X-2050000Y11650000D03*
%TO.P,J_activation_interface_spacer_activation_interface_cell_floor_board,90*%
X-2050000Y13250000D03*
%TO.P,J_activation_interface_spacer_activation_interface_cell_floor_board,91*%
X-2050000Y14850000D03*
%TO.P,J_activation_interface_spacer_activation_interface_cell_floor_board,92*%
X-3650000Y-13950000D03*
%TO.P,J_activation_interface_spacer_activation_interface_cell_floor_board,93*%
X-3650000Y-12350000D03*
%TO.P,J_activation_interface_spacer_activation_interface_cell_floor_board,94*%
X-3650000Y-10750000D03*
%TO.P,J_activation_interface_spacer_activation_interface_cell_floor_board,95*%
X-3650000Y11650000D03*
%TO.P,J_activation_interface_spacer_activation_interface_cell_floor_board,96*%
X-3650000Y13250000D03*
%TO.P,J_activation_interface_spacer_activation_interface_cell_floor_board,97*%
X-3650000Y14850000D03*
%TO.P,J_activation_interface_spacer_activation_interface_cell_floor_board,98*%
X-5250000Y-13950000D03*
%TO.P,J_activation_interface_spacer_activation_interface_cell_floor_board,99*%
X-5250000Y-12350000D03*
%TO.P,J_activation_interface_spacer_activation_interface_cell_floor_board,100*%
X-5250000Y-10750000D03*
%TO.P,J_activation_interface_spacer_activation_interface_cell_floor_board,101*%
X-5250000Y-9150000D03*
%TO.P,J_activation_interface_spacer_activation_interface_cell_floor_board,102*%
X-5250000Y8450000D03*
%TO.P,J_activation_interface_spacer_activation_interface_cell_floor_board,103*%
X-5250000Y10050000D03*
%TO.P,J_activation_interface_spacer_activation_interface_cell_floor_board,104*%
X-5250000Y11650000D03*
%TO.P,J_activation_interface_spacer_activation_interface_cell_floor_board,105*%
X-5250000Y13250000D03*
%TO.P,J_activation_interface_spacer_activation_interface_cell_floor_board,106*%
X-6850000Y-12350000D03*
%TO.P,J_activation_interface_spacer_activation_interface_cell_floor_board,107*%
X-6850000Y-10750000D03*
%TO.P,J_activation_interface_spacer_activation_interface_cell_floor_board,108*%
X-6850000Y-9150000D03*
%TO.P,J_activation_interface_spacer_activation_interface_cell_floor_board,109*%
X-6850000Y450000D03*
%TO.P,J_activation_interface_spacer_activation_interface_cell_floor_board,110*%
X-6850000Y2050000D03*
%TO.P,J_activation_interface_spacer_activation_interface_cell_floor_board,111*%
X-6850000Y3650000D03*
%TO.P,J_activation_interface_spacer_activation_interface_cell_floor_board,112*%
X-6850000Y13250000D03*
%TO.P,J_activation_interface_spacer_activation_interface_cell_floor_board,113*%
X-8450000Y-12350000D03*
%TO.P,J_activation_interface_spacer_activation_interface_cell_floor_board,114*%
X-8450000Y-10750000D03*
%TO.P,J_activation_interface_spacer_activation_interface_cell_floor_board,115*%
X-8450000Y-9150000D03*
%TO.P,J_activation_interface_spacer_activation_interface_cell_floor_board,116*%
X-8450000Y450000D03*
%TO.P,J_activation_interface_spacer_activation_interface_cell_floor_board,117*%
X-8450000Y2050000D03*
%TO.P,J_activation_interface_spacer_activation_interface_cell_floor_board,118*%
X-8450000Y3650000D03*
%TO.P,J_activation_interface_spacer_activation_interface_cell_floor_board,119*%
X-8450000Y5250000D03*
%TO.P,J_activation_interface_spacer_activation_interface_cell_floor_board,120*%
X-10050000Y-10750000D03*
%TO.P,J_activation_interface_spacer_activation_interface_cell_floor_board,121*%
X-10050000Y-9150000D03*
%TO.P,J_activation_interface_spacer_activation_interface_cell_floor_board,122*%
X-10050000Y450000D03*
%TO.P,J_activation_interface_spacer_activation_interface_cell_floor_board,123*%
X-10050000Y2050000D03*
%TO.P,J_activation_interface_spacer_activation_interface_cell_floor_board,124*%
X-10050000Y3650000D03*
%TO.P,J_activation_interface_spacer_activation_interface_cell_floor_board,125*%
X-10050000Y5250000D03*
%TO.P,J_activation_interface_spacer_activation_interface_cell_floor_board,126*%
X-11650000Y-9150000D03*
%TO.P,J_activation_interface_spacer_activation_interface_cell_floor_board,127*%
X-11650000Y-7550000D03*
%TO.P,J_activation_interface_spacer_activation_interface_cell_floor_board,128*%
X-11650000Y-5950000D03*
%TO.P,J_activation_interface_spacer_activation_interface_cell_floor_board,129*%
X-11650000Y-4350000D03*
%TO.P,J_activation_interface_spacer_activation_interface_cell_floor_board,130*%
X-11650000Y-2750000D03*
%TO.P,J_activation_interface_spacer_activation_interface_cell_floor_board,131*%
X-11650000Y-1150000D03*
%TO.P,J_activation_interface_spacer_activation_interface_cell_floor_board,132*%
X-11650000Y450000D03*
%TO.P,J_activation_interface_spacer_activation_interface_cell_floor_board,133*%
X-11650000Y2050000D03*
%TO.P,J_activation_interface_spacer_activation_interface_cell_floor_board,134*%
X-11650000Y3650000D03*
%TO.P,J_activation_interface_spacer_activation_interface_cell_floor_board,135*%
X-11650000Y5250000D03*
%TO.P,J_activation_interface_spacer_activation_interface_cell_floor_board,136*%
X-13250000Y-7550000D03*
%TO.P,J_activation_interface_spacer_activation_interface_cell_floor_board,137*%
X-13250000Y-5950000D03*
%TO.P,J_activation_interface_spacer_activation_interface_cell_floor_board,138*%
X-13250000Y-4350000D03*
%TO.P,J_activation_interface_spacer_activation_interface_cell_floor_board,139*%
X-13250000Y-2750000D03*
%TO.P,J_activation_interface_spacer_activation_interface_cell_floor_board,140*%
X-13250000Y-1150000D03*
%TO.P,J_activation_interface_spacer_activation_interface_cell_floor_board,141*%
X-13250000Y450000D03*
%TO.P,J_activation_interface_spacer_activation_interface_cell_floor_board,142*%
X-13250000Y2050000D03*
%TO.P,J_activation_interface_spacer_activation_interface_cell_floor_board,143*%
X-13250000Y3650000D03*
%TO.P,J_activation_interface_spacer_activation_interface_cell_floor_board,144*%
X-13250000Y5250000D03*
%TO.P,J_activation_interface_spacer_activation_interface_cell_floor_board,145*%
X-13250000Y6850000D03*
%TO.P,J_activation_interface_spacer_activation_interface_cell_floor_board,146*%
X-14850000Y-2750000D03*
%TO.P,J_activation_interface_spacer_activation_interface_cell_floor_board,147*%
X-14850000Y-1150000D03*
%TO.P,J_activation_interface_spacer_activation_interface_cell_floor_board,148*%
X-14850000Y450000D03*
%TO.P,J_activation_interface_spacer_activation_interface_cell_floor_board,149*%
X-14850000Y2050000D03*
%TO.P,J_activation_interface_spacer_activation_interface_cell_floor_board,150*%
X-14850000Y3650000D03*
%TD*%
D21*
%TO.N,FIRE_HV*%
X562600Y-1363400D03*
X-2600000Y7933000D03*
X6788600Y9621300D03*
%TO.N,FLEX_GND*%
X1450000Y3550000D03*
X-11411400Y2850000D03*
X-5005300Y12450000D03*
X6750000Y12450000D03*
%TO.N,3V3*%
X6350000Y3670000D03*
X9600000Y4460000D03*
X3660000Y11010000D03*
X14000000Y-5910000D03*
X-6670000Y-600000D03*
X8910000Y10810000D03*
%TO.N,I2C3_SCL*%
X-464900Y3002700D03*
X10076100Y2976100D03*
%TO.N,I2C3_SDA*%
X500000Y3009500D03*
X10750000Y4491200D03*
%TO.N,H3LIS_INT1*%
X9995200Y2105100D03*
X3507000Y2354400D03*
%TO.N,COMP_5V*%
X-4820000Y-8200000D03*
X-5580000Y1950000D03*
%TO.N,FLEX_GND*%
X393900Y11082200D03*
%TO.N,COMP_5V*%
X3480000Y450000D03*
X5050000Y-4400000D03*
X-3770000Y-7090000D03*
X12327200Y4496700D03*
%TO.N,FIRE_FB*%
X-2163500Y1837100D03*
X4850000Y-5510000D03*
X5186700Y-2217700D03*
%TO.N,FIRE_COMP*%
X-4130000Y4280000D03*
X5490000Y-5760000D03*
%TO.N,FIRE_SW*%
X-5317800Y-7519200D03*
X3294500Y4971400D03*
%TO.N,FIRE_FREQ*%
X-5930000Y1150000D03*
X5220000Y-7580000D03*
%TO.N,3V3_AON*%
X13373300Y-3595500D03*
X13107800Y6274800D03*
X4350000Y10884000D03*
%TO.N,ACTIVATE_CONFIRM*%
X14709700Y-2878900D03*
%TO.N,ACTIVATE_SET*%
X14710500Y-1333800D03*
%TO.N,BAT_PROT*%
X9736700Y6057600D03*
X12682900Y-312500D03*
X3512200Y14850000D03*
%TO.N,BAT_RAW*%
X475600Y-13275600D03*
X14566700Y1305100D03*
X8877400Y9243600D03*
%TO.N,BOOT0*%
X14708500Y3831800D03*
%TO.N,COMP_SWDCLK*%
X12431000Y-6708500D03*
%TO.N,COMP_SWDIO*%
X11773300Y-6704000D03*
%TO.N,EXT_CAN_RX*%
X13190700Y-2906900D03*
%TO.N,EXT_CAN_TX*%
X13111300Y8450000D03*
X13720200Y-350000D03*
%TO.N,FIN1_AOUT1*%
X9419300Y-6704000D03*
X11593900Y-126700D03*
%TO.N,FIN2_AOUT1*%
X12032900Y-3587900D03*
X13307100Y1280300D03*
%TO.N,FIN3_AOUT1*%
X12990800Y-2063500D03*
X13108800Y2386600D03*
%TO.N,FIN4_AOUT1*%
X11855700Y7695200D03*
X11658800Y4611200D03*
%TO.N,FIN_HALL*%
X11503300Y6697600D03*
X11505600Y10148300D03*
%TO.N,FIN_VREF*%
X11492000Y9461600D03*
%TO.N,GPIO_EXT_0*%
X10750000Y-3593800D03*
X8303400Y13250000D03*
%TO.N,GPIO_EXT_1*%
X9922500Y-2664200D03*
X6706900Y-13950000D03*
%TO.N,GPIO_EXT_2*%
X10750000Y-1975900D03*
X6709500Y-12231800D03*
%TO.N,GPIO_EXT_3*%
X10517500Y-308100D03*
X5950000Y-8396500D03*
%TO.N,JUMP_WAKE*%
X8311700Y12673300D03*
%TO.N,NRST*%
X9986600Y8197500D03*
X6720600Y-13374800D03*
%TO.N,SWO*%
X6715400Y-11329000D03*
X9991200Y9857300D03*
%TO.N,SYS_I2C_SCL*%
X4350000Y-9982400D03*
X8397300Y-5950000D03*
%TO.N,SYS_I2C_SDA*%
X8395700Y-4527600D03*
X5112200Y12673300D03*
%TO.N,SYS_SPI_CS_FIN*%
X10407300Y-5104600D03*
X3512500Y-10849300D03*
%TO.N,SYS_SPI_MISO*%
X2750000Y6097300D03*
X8125200Y1207000D03*
%TO.N,SYS_SPI_MOSI*%
X9548800Y1213000D03*
X3516400Y8450000D03*
%TO.N,SYS_SPI_SCLK*%
X3503700Y9873000D03*
X8125200Y6003500D03*
%TD*%
%TO.N,FIRE_HV*%
D22*
X4928700Y-1973300D02*
X4826000Y-2076000D01*
X3590100Y-2591800D02*
X3501000Y-2502700D01*
X562600Y-1363400D02*
X375200Y-1550800D01*
X49800Y-1550800D02*
X375200Y-1550800D01*
X4826000Y-2076000D02*
X3501000Y-2076000D01*
X3087700Y-4043400D02*
X3590100Y-3541000D01*
X4377000Y-175000D02*
X4928700Y-175000D01*
X375200Y-1550800D02*
X375200Y-1650000D01*
X886300Y-4043400D02*
X3087700Y-4043400D01*
X534100Y-3691200D02*
X886300Y-4043400D01*
X375200Y-2444500D02*
X534100Y-2603400D01*
X375200Y-1650000D02*
X375200Y-2444500D01*
X-175000Y-1326000D02*
X49800Y-1550800D01*
X-2600000Y7933000D02*
X-2600000Y6101000D01*
X3590100Y-3541000D02*
X3590100Y-2591800D01*
X4928700Y-175000D02*
X4928700Y-1973300D01*
X534100Y-2603400D02*
X534100Y-3691200D01*
X3501000Y-2076000D02*
X3501000Y-2502700D01*
%TO.N,FLEX_GND*%
X2750000Y-12350000D02*
X2750000Y-13950000D01*
X-2553000Y475000D02*
X-2954700Y475000D01*
X-1538700Y-4029700D02*
X-2313000Y-4804000D01*
X4350000Y-12350000D02*
X4350000Y-13950000D01*
X7797900Y-4737900D02*
X7985200Y-4925200D01*
X3563000Y-9377000D02*
X3371800Y-9568200D01*
X1425000Y-2377000D02*
X1425000Y-1326000D01*
X1510000Y3490000D02*
X1450000Y3550000D01*
X3351500Y-3406000D02*
X3351500Y-3529700D01*
X-13250000Y-5950000D02*
X-13250000Y-7550000D01*
X7550000Y10050000D02*
X7550000Y11650000D01*
X-1221600Y1927700D02*
X-1126000Y2023300D01*
X7550000Y11650000D02*
X5950000Y11650000D01*
X2200000Y1500000D02*
X2060000Y1500000D01*
X1990000Y1430000D02*
X1730000Y1430000D01*
X1680000Y1380000D02*
X1680000Y680000D01*
X-450000Y-13950000D02*
X-2050000Y-13950000D01*
X-2050000Y11650000D02*
X-3650000Y11650000D01*
X-13250000Y5250000D02*
X-13250000Y6850000D01*
X7550000Y2050000D02*
X7550000Y3650000D01*
X-1426000Y1326000D02*
X-1426000Y1927700D01*
X5373300Y980400D02*
X4928700Y1425000D01*
X1150000Y-13950000D02*
X-450000Y-13950000D01*
X-5250000Y-12350000D02*
X-6850000Y-12350000D01*
X3126200Y-2520200D02*
X3126200Y-3180700D01*
X-450000Y-10750000D02*
X-450000Y-12350000D01*
X1738000Y-3428000D02*
X1425000Y-3428000D01*
X10173300Y-5950000D02*
X10750000Y-5950000D01*
X10173300Y-5373300D02*
X10173300Y-5950000D01*
X-8450000Y-10750000D02*
X-8450000Y-12350000D01*
X2750000Y-10750000D02*
X2750000Y-12350000D01*
X5950000Y-12350000D02*
X5950000Y-13950000D01*
X-1151000Y475000D02*
X-1151000Y901700D01*
X-5250000Y-10750000D02*
X-5250000Y-12350000D01*
X2576000Y-1650800D02*
X2576000Y-2074700D01*
X-6850000Y-9150000D02*
X-6850000Y-10750000D01*
X7985200Y-4925200D02*
X9725200Y-4925200D01*
X500000Y226700D02*
X500000Y1273300D01*
X1000000Y2200000D02*
X1000000Y1773300D01*
X-450000Y11650000D02*
X-450000Y13250000D01*
X-3650000Y-12350000D02*
X-5250000Y-12350000D01*
X5950000Y-1150000D02*
X5950000Y-2750000D01*
X-11073300Y-9704800D02*
X-11073300Y-9150000D01*
X2200000Y0D02*
X2200000Y-426700D01*
X-3650000Y11650000D02*
X-5250000Y11650000D01*
X5950000Y-2750000D02*
X7550000Y-2750000D01*
X-6850000Y3250000D02*
X-5079700Y3250000D01*
X-11650000Y3650000D02*
X-11650000Y5250000D01*
X2750000Y-13950000D02*
X1150000Y-13950000D01*
X-11650000Y450000D02*
X-13250000Y450000D01*
X-13250000Y450000D02*
X-13250000Y-1150000D01*
X625000Y-6754000D02*
X2913000Y-6754000D01*
X-1577000Y1176700D02*
X-1852000Y901700D01*
X-2050000Y-13950000D02*
X-3650000Y-13950000D01*
X-1426000Y-4029700D02*
X-1538700Y-4029700D01*
X-13250000Y-1150000D02*
X-13250000Y-2750000D01*
X5950000Y11650000D02*
X4350000Y11650000D01*
X2750000Y-10173300D02*
X2750000Y-10750000D01*
X-1151000Y901700D02*
X-1426000Y1176700D01*
X1976700Y-3667000D02*
X1976700Y-3666700D01*
X2750000Y11650000D02*
X1150000Y11650000D01*
X-1426000Y-2377000D02*
X-1426000Y-3428000D01*
X9725200Y-4925200D02*
X10173300Y-5373300D01*
X-1426000Y1176700D02*
X-1426000Y1326000D01*
X-13250000Y3650000D02*
X-13250000Y5250000D01*
X1150000Y13250000D02*
X1150000Y14850000D01*
X-1426000Y-1326000D02*
X-1426000Y-2377000D01*
X-656700Y-4799000D02*
X-1426000Y-4029700D01*
X-1426000Y-3428000D02*
X-1426000Y-4029700D01*
X3351500Y-3529700D02*
X3081400Y-3799800D01*
X-14850000Y2050000D02*
X-14850000Y3650000D01*
X1680000Y680000D02*
X1870000Y490000D01*
X7550000Y11650000D02*
X7550000Y13250000D01*
X-1426000Y1927700D02*
X-1221600Y1927700D01*
X4152200Y-1650800D02*
X4377000Y-1426000D01*
X1119800Y2520200D02*
X1510000Y2910400D01*
X7550000Y450000D02*
X7550000Y-1150000D01*
X4350000Y-13950000D02*
X2750000Y-13950000D01*
X-8450000Y450000D02*
X-8450000Y2050000D01*
X5570000Y450000D02*
X5373300Y646700D01*
X-14850000Y450000D02*
X-14850000Y-1150000D01*
X3371800Y-9568200D02*
X3355100Y-9568200D01*
X-3650000Y13250000D02*
X-3650000Y14850000D01*
X1870000Y490000D02*
X2150000Y490000D01*
X-13250000Y-7550000D02*
X-11650000Y-7550000D01*
X-200000Y2710000D02*
X60000Y2970000D01*
X-11650000Y2850000D02*
X-11650000Y3650000D01*
X2200000Y500000D02*
X2420000Y500000D01*
X-1126000Y3024000D02*
X-600000Y3550000D01*
X-10050000Y-9150000D02*
X-10050000Y-9767500D01*
X3901200Y-1650800D02*
X4152200Y-1650800D01*
X-5250000Y-9150000D02*
X-5250000Y-10750000D01*
X7550000Y6850000D02*
X7550000Y8450000D01*
X-13250000Y-2750000D02*
X-14850000Y-2750000D01*
X2420000Y500000D02*
X3300000Y1380000D01*
X-4528000Y3250000D02*
X-5079700Y3250000D01*
X-11411400Y2850000D02*
X-11650000Y2850000D01*
X-5005300Y12450000D02*
X-5250000Y12450000D01*
X-13250000Y450000D02*
X-13250000Y2050000D01*
X-2050000Y13250000D02*
X-2050000Y14850000D01*
X-14850000Y450000D02*
X-14850000Y2050000D01*
X7550000Y450000D02*
X7550000Y2050000D01*
X500000Y1273300D02*
X1000000Y1773300D01*
X-11650000Y2050000D02*
X-11650000Y2850000D01*
X5950000Y-13950000D02*
X4350000Y-13950000D01*
X-10050000Y-9767500D02*
X-11010600Y-9767500D01*
X7550000Y-1150000D02*
X7550000Y-2750000D01*
X-11650000Y-9150000D02*
X-11073300Y-9150000D01*
X-3650000Y-10750000D02*
X-3650000Y-12350000D01*
X5950000Y-10750000D02*
X5950000Y-12350000D01*
X4350000Y11650000D02*
X2750000Y11650000D01*
X-10050000Y-9767500D02*
X-10050000Y-10750000D01*
X-2977300Y452400D02*
X-2977300Y0D01*
X2750000Y13250000D02*
X2750000Y14850000D01*
X-10050000Y450000D02*
X-10050000Y2050000D01*
X-14850000Y-1150000D02*
X-14850000Y-2750000D01*
X2913000Y-6754000D02*
X3563000Y-7404000D01*
X-11650000Y450000D02*
X-11650000Y2050000D01*
X-2050000Y11650000D02*
X-2050000Y13250000D01*
X5950000Y450000D02*
X5570000Y450000D01*
X2060000Y1500000D02*
X1990000Y1430000D01*
X2576000Y-802700D02*
X2576000Y-1577000D01*
X4350000Y11650000D02*
X4350000Y13250000D01*
X-5250000Y13250000D02*
X-6850000Y13250000D01*
X2680000Y-2178700D02*
X2784700Y-2178700D01*
X-13250000Y-4350000D02*
X-13250000Y-5950000D01*
X1150000Y11650000D02*
X1150000Y13250000D01*
X-6850000Y-10750000D02*
X-6850000Y-12350000D01*
X2576000Y-2074700D02*
X2680000Y-2178700D01*
X-10050000Y3650000D02*
X-10050000Y5250000D01*
X7797900Y-4597900D02*
X7797900Y-4737900D01*
X3126200Y-3180700D02*
X3351500Y-3406000D01*
X-8450000Y3650000D02*
X-8450000Y5250000D01*
X2200000Y500000D02*
X2200000Y0D01*
X1150000Y-12350000D02*
X1150000Y-13950000D01*
X-450000Y-12350000D02*
X-450000Y-13950000D01*
X2784700Y-2178700D02*
X3126200Y-2520200D01*
X-6850000Y450000D02*
X-8450000Y450000D01*
X-600000Y3550000D02*
X260000Y3550000D01*
X3326000Y1425000D02*
X4377000Y1425000D01*
X1510000Y2910400D02*
X1510000Y3490000D01*
X-200000Y2000000D02*
X-200000Y2710000D01*
X7550000Y5250000D02*
X7550000Y6850000D01*
X-3650000Y-12350000D02*
X-3650000Y-13950000D01*
X-2313000Y-5387000D02*
X-2310000Y-5390000D01*
X-10050000Y2050000D02*
X-10050000Y3650000D01*
X260000Y3550000D02*
X1450000Y3550000D01*
X5950000Y-9150000D02*
X5950000Y-10750000D01*
X-6850000Y-12350000D02*
X-8450000Y-12350000D01*
X-450000Y13250000D02*
X-450000Y14850000D01*
X-516000Y-6754000D02*
X-656700Y-6613300D01*
X3563000Y-8704000D02*
X3563000Y-9377000D01*
X7550000Y8450000D02*
X7550000Y10050000D01*
X-1126000Y2450000D02*
X-1126000Y3024000D01*
X2200000Y-426700D02*
X2576000Y-802700D01*
X3563000Y-8054000D02*
X3563000Y-8704000D01*
X-2050000Y-12350000D02*
X-2050000Y-13950000D01*
X-13250000Y-2750000D02*
X-13250000Y-4350000D01*
X-5250000Y-12350000D02*
X-5250000Y-13950000D01*
X-8450000Y2050000D02*
X-8450000Y3650000D01*
X-5250000Y11650000D02*
X-5250000Y12450000D01*
X625000Y-6754000D02*
X-516000Y-6754000D01*
X2576000Y-1650800D02*
X3901200Y-1650800D01*
X1150000Y11650000D02*
X-450000Y11650000D01*
X-2954700Y475000D02*
X-2977300Y452400D01*
X-6850000Y3250000D02*
X-6850000Y3650000D01*
X1119800Y2520200D02*
X1000000Y2400400D01*
X5950000Y450000D02*
X5950000Y-1150000D01*
X-656700Y-6613300D02*
X-656700Y-4799000D01*
X-10050000Y450000D02*
X-11650000Y450000D01*
X1000000Y2400400D02*
X1000000Y2200000D01*
X3300000Y1380000D02*
X3300000Y1400000D01*
X-8450000Y-9150000D02*
X-8450000Y-10750000D01*
X2576000Y-1577000D02*
X2576000Y-1650800D01*
X5950000Y11650000D02*
X5950000Y13250000D01*
X7550000Y3650000D02*
X7550000Y5250000D01*
X-11010600Y-9767500D02*
X-11073300Y-9704800D01*
X-11650000Y-7550000D02*
X-11650000Y-9150000D01*
X4928700Y1425000D02*
X4377000Y1425000D01*
X-5250000Y12450000D02*
X-5250000Y13250000D01*
X4350000Y-10750000D02*
X4350000Y-12350000D01*
X-2050000Y-10750000D02*
X-2050000Y-12350000D01*
X1425000Y-2826300D02*
X1425000Y-2377000D01*
X-8450000Y-10750000D02*
X-10050000Y-10750000D01*
X1730000Y1430000D02*
X1680000Y1380000D01*
X-8450000Y450000D02*
X-10050000Y450000D01*
X-5250000Y8450000D02*
X-5250000Y10050000D01*
X5373300Y646700D02*
X5373300Y980400D01*
X-2313000Y-4804000D02*
X-2313000Y-5387000D01*
X2750000Y11650000D02*
X2750000Y13250000D01*
X-6850000Y2050000D02*
X-6850000Y3250000D01*
X-13250000Y2050000D02*
X-13250000Y3650000D01*
X3563000Y-7404000D02*
X3563000Y-8054000D01*
X3300000Y1400000D02*
X3330000Y1430000D01*
X7550000Y-4350000D02*
X7797900Y-4597900D01*
X-450000Y11650000D02*
X-2050000Y11650000D01*
X-6850000Y450000D02*
X-6850000Y2050000D01*
X-2553000Y475000D02*
X-1852000Y475000D01*
X3355100Y-9568200D02*
X2750000Y-10173300D01*
X2109500Y-3799800D02*
X1976700Y-3667000D01*
X500000Y-200000D02*
X500000Y226700D01*
X60000Y2970000D02*
X60000Y3350000D01*
X-1852000Y475000D02*
X-1852000Y901700D01*
X3081400Y-3799800D02*
X2109500Y-3799800D01*
X1425000Y-3428000D02*
X1425000Y-2826300D01*
X-3529000Y0D02*
X-2977300Y0D01*
X-5250000Y10050000D02*
X-5250000Y11650000D01*
X-1426000Y1176700D02*
X-1577000Y1176700D01*
X7550000Y-2750000D02*
X7550000Y-4350000D01*
X1976700Y-3666700D02*
X1738000Y-3428000D01*
X1150000Y-10750000D02*
X1150000Y-12350000D01*
X-3650000Y11650000D02*
X-3650000Y13250000D01*
X1224800Y2625200D02*
X1119800Y2520200D01*
X60000Y3350000D02*
X260000Y3550000D01*
X-1126000Y2450000D02*
X-1126000Y2023300D01*
%TO.N,3V3*%
X-633000Y-2377000D02*
X-726700Y-2283300D01*
X1500000Y226700D02*
X1500000Y2200000D01*
X-175000Y-2377000D02*
X-633000Y-2377000D01*
X-5129000Y0D02*
X-6130000Y0D01*
X-5129000Y-941000D02*
X-5129000Y0D01*
X-701000Y-426700D02*
X-200000Y-426700D01*
X-4744000Y-1326000D02*
X-5129000Y-941000D01*
X9150000Y11650000D02*
X9150000Y11080000D01*
X2024300Y-846100D02*
X2024300Y-3114300D01*
X1500000Y2430000D02*
X2740000Y3670000D01*
X-3026000Y-1326000D02*
X-4744000Y-1326000D01*
X-1151000Y-475000D02*
X-749300Y-475000D01*
X1804900Y-626700D02*
X2024300Y-846100D01*
X1500000Y2200000D02*
X1500000Y2430000D01*
X-6130000Y0D02*
X-6670000Y-540000D01*
X9600000Y4460000D02*
X9600000Y4390000D01*
X-726700Y-497600D02*
X-749300Y-475000D01*
X2100000Y-3190000D02*
X2170000Y-3190000D01*
X-175000Y-3428000D02*
X-175000Y-2377000D01*
X1000000Y-200000D02*
X1000000Y110000D01*
X-200000Y-426700D02*
X0Y-626700D01*
X9600000Y4390000D02*
X9150000Y3940000D01*
X1000000Y-626700D02*
X1804900Y-626700D01*
X1000000Y110000D02*
X1116700Y226700D01*
X-200000Y0D02*
X-200000Y-426700D01*
X2113000Y-3177000D02*
X2576000Y-3177000D01*
X2024300Y-3114300D02*
X2100000Y-3190000D01*
X-6670000Y-540000D02*
X-6670000Y-600000D01*
X-726700Y-2283300D02*
X-726700Y-497600D01*
X8910000Y10840000D02*
X8910000Y10810000D01*
X9150000Y11080000D02*
X8910000Y10840000D01*
X2740000Y3670000D02*
X6350000Y3670000D01*
X-749300Y-475000D02*
X-701000Y-426700D01*
X0Y-626700D02*
X1000000Y-626700D01*
X1116700Y226700D02*
X1500000Y226700D01*
X1000000Y-200000D02*
X1000000Y-626700D01*
X1500000Y-200000D02*
X1500000Y226700D01*
X9150000Y3940000D02*
X9150000Y3650000D01*
%TO.N,I2C3_SCL*%
X-630000Y2837600D02*
X-464900Y3002700D01*
X-470000Y1500000D02*
X-630000Y1660000D01*
X10173300Y3073300D02*
X10076100Y2976100D01*
X10330000Y3650000D02*
X10173300Y3493300D01*
X10173300Y3493300D02*
X10173300Y3073300D01*
X-200000Y1500000D02*
X-470000Y1500000D01*
X10750000Y3650000D02*
X10330000Y3650000D01*
X-630000Y1660000D02*
X-630000Y2837600D01*
%TO.N,I2C3_SDA*%
X10750000Y5250000D02*
X10750000Y4491200D01*
X500000Y2200000D02*
X500000Y3009500D01*
%TO.N,H3LIS_INT1*%
X10050300Y2050000D02*
X9995200Y2105100D01*
X2668500Y1848200D02*
X2668500Y1330900D01*
X2668500Y1330900D02*
X2337600Y1000000D01*
X2337600Y1000000D02*
X2200000Y1000000D01*
X3507000Y2354400D02*
X3174700Y2354400D01*
X3174700Y2354400D02*
X2668500Y1848200D01*
X10750000Y2050000D02*
X10050300Y2050000D01*
%TO.N,COMP_5V*%
X13660000Y8960000D02*
X11790000Y10830000D01*
X-3026000Y-3428000D02*
X-3026000Y-3496000D01*
X-4528000Y1650000D02*
X-5280000Y1650000D01*
X-7110000Y-6920000D02*
X-5830000Y-8200000D01*
X-5830000Y-8200000D02*
X-4820000Y-8200000D01*
X-2313000Y-7443000D02*
X-2320000Y-7450000D01*
X3326000Y-175000D02*
X3326000Y306000D01*
X9140000Y10010000D02*
X9130000Y10010000D01*
X9130000Y10010000D02*
X9120000Y10020000D01*
X9960000Y10830000D02*
X9140000Y10010000D01*
X4377000Y-3026000D02*
X5050000Y-3699000D01*
X3326000Y306000D02*
X3470000Y450000D01*
X-3026000Y-3496000D02*
X-3580000Y-4050000D01*
X-3350000Y-6800000D02*
X-3480000Y-6800000D01*
X13373300Y5103300D02*
X13373300Y5113300D01*
X14300000Y8030000D02*
X13660000Y8670000D01*
X13510000Y5250000D02*
X13950000Y5250000D01*
X-5280000Y1650000D02*
X-5580000Y1950000D01*
X-7110000Y-4240000D02*
X-7110000Y-6920000D01*
X12766700Y4496700D02*
X13373300Y5103300D01*
X-7340000Y-4010000D02*
X-7110000Y-4240000D01*
X13950000Y5250000D02*
X14300000Y5600000D01*
X-3410000Y-6800000D02*
X-3350000Y-6800000D01*
X13373300Y5113300D02*
X13510000Y5250000D01*
X3470000Y450000D02*
X3480000Y450000D01*
X-3580000Y-6630000D02*
X-3410000Y-6800000D01*
X-2313000Y-6754000D02*
X-2313000Y-7443000D01*
X11790000Y10830000D02*
X9960000Y10830000D01*
X12327200Y4496700D02*
X12766700Y4496700D01*
X-3026000Y-2377000D02*
X-3026000Y-3428000D01*
X-3350000Y-6800000D02*
X-2300000Y-6800000D01*
X-3580000Y-4050000D02*
X-3580000Y-6630000D01*
X13660000Y8670000D02*
X13660000Y8960000D01*
X-9010000Y-4010000D02*
X-7340000Y-4010000D01*
X14300000Y5600000D02*
X14300000Y8030000D01*
X-3480000Y-6800000D02*
X-3770000Y-7090000D01*
X5050000Y-3699000D02*
X5050000Y-4400000D01*
%TO.N,FIRE_FB*%
X2810300Y-789300D02*
X2774300Y-753300D01*
X-2163500Y1935800D02*
X-2163500Y1837100D01*
X2774300Y-753300D02*
X2774300Y423700D01*
X3164300Y-789300D02*
X2810300Y-789300D01*
X4730000Y-5510000D02*
X4850000Y-5510000D01*
X-2076000Y2023300D02*
X-2163500Y1935800D01*
X3563000Y-5454000D02*
X4674000Y-5454000D01*
X3160600Y810000D02*
X4569900Y810000D01*
X2774300Y423700D02*
X3160600Y810000D01*
X4569900Y810000D02*
X5186700Y193200D01*
X5186700Y193200D02*
X5186700Y-2217700D01*
X-2076000Y2450000D02*
X-2076000Y2023300D01*
X3501000Y-1126000D02*
X3164300Y-789300D01*
X4674000Y-5454000D02*
X4730000Y-5510000D01*
%TO.N,FIRE_SS*%
X-3200000Y-4490000D02*
X-2970000Y-4260000D01*
X-2313000Y-6104000D02*
X-2976000Y-6104000D01*
X-2976000Y-6104000D02*
X-3200000Y-5880000D01*
X-2110000Y-1210000D02*
X-2110000Y-670000D01*
X-2530000Y-4260000D02*
X-2290000Y-4020000D01*
X-3200000Y-5880000D02*
X-3200000Y-4490000D01*
X-2970000Y-4260000D02*
X-2530000Y-4260000D01*
X-2290000Y-1390000D02*
X-2110000Y-1210000D01*
X-2110000Y-670000D02*
X-1880000Y-440000D01*
X-2290000Y-4020000D02*
X-2290000Y-1390000D01*
%TO.N,FIRE_COMP*%
X4934000Y-4804000D02*
X5540000Y-5410000D01*
X-3677000Y3827000D02*
X-4130000Y4280000D01*
X-3677000Y2450000D02*
X-3677000Y3827000D01*
X3563000Y-4804000D02*
X4934000Y-4804000D01*
X5540000Y-5710000D02*
X5490000Y-5760000D01*
X5540000Y-5410000D02*
X5540000Y-5710000D01*
%TO.N,FIRE_COMP_C*%
X-2930400Y2023300D02*
X-3026000Y1927700D01*
X-2727000Y2023300D02*
X-2930400Y2023300D01*
X-3026000Y1326000D02*
X-3026000Y1927700D01*
X-2727000Y2450000D02*
X-2727000Y2023300D01*
%TO.N,FIRE_SW*%
X-5700000Y-6576700D02*
X-5317800Y-6958900D01*
X-5700000Y-4000000D02*
X-5700000Y-6576700D01*
X3641000Y6101000D02*
X3473300Y5933300D01*
X-3036000Y-8704000D02*
X-2313000Y-8704000D01*
X-2313000Y-8677000D02*
X-2310000Y-8680000D01*
X4600000Y6101000D02*
X3641000Y6101000D01*
X3473300Y5933300D02*
X3473300Y5150200D01*
X-4220800Y-7519200D02*
X-3036000Y-8704000D01*
X-5317800Y-6958900D02*
X-5317800Y-7519200D01*
X3473300Y5150200D02*
X3294500Y4971400D01*
X-2313000Y-8054000D02*
X-2313000Y-8677000D01*
X-5317800Y-7519200D02*
X-4220800Y-7519200D01*
%TO.N,FIRE_FREQ*%
X-2553000Y-475000D02*
X-2725000Y-475000D01*
X-5680000Y810000D02*
X-5930000Y1060000D01*
X-5930000Y1060000D02*
X-5930000Y1150000D01*
X-4520000Y810000D02*
X-5680000Y810000D01*
X-4180000Y-660000D02*
X-4320000Y-520000D01*
X-2725000Y-475000D02*
X-2910000Y-660000D01*
X-4320000Y-520000D02*
X-4320000Y610000D01*
X-2910000Y-660000D02*
X-4180000Y-660000D01*
X5220000Y-6900000D02*
X5220000Y-7580000D01*
X3563000Y-6104000D02*
X4424000Y-6104000D01*
X-4320000Y610000D02*
X-4520000Y810000D01*
X4424000Y-6104000D02*
X5220000Y-6900000D01*
%TO.N,3V3_AON*%
X9860000Y5630000D02*
X9860000Y5310000D01*
X9860000Y5310000D02*
X9800000Y5250000D01*
X13713300Y-3773300D02*
X13950000Y-4010000D01*
X13373300Y-3595500D02*
X13551100Y-3773300D01*
X13950000Y-4010000D02*
X13950000Y-4350000D01*
X13107800Y6274800D02*
X10504800Y6274800D01*
X9800000Y5250000D02*
X9150000Y5250000D01*
X10504800Y6274800D02*
X9860000Y5630000D01*
X13551100Y-3773300D02*
X13713300Y-3773300D01*
%TO.N,ACTIVATE_CONFIRM*%
X14709700Y-2878900D02*
X14655600Y-2878900D01*
X13950000Y-2750000D02*
X14526700Y-2750000D01*
X14655600Y-2878900D02*
X14526700Y-2750000D01*
%TO.N,ACTIVATE_SET*%
X14710500Y-1333800D02*
X14526700Y-1150000D01*
X13950000Y-1150000D02*
X14526700Y-1150000D01*
%TO.N,BAT_PROT*%
X12682900Y-312500D02*
X12697500Y-312500D01*
X12697500Y-312500D02*
X13460000Y450000D01*
X9150000Y6850000D02*
X9150000Y6360000D01*
X9521000Y6273300D02*
X9736700Y6057600D01*
X9150000Y6360000D02*
X9236700Y6273300D01*
X13460000Y450000D02*
X13950000Y450000D01*
X9236700Y6273300D02*
X9521000Y6273300D01*
%TO.N,BAT_RAW*%
X14566700Y1305100D02*
X14398500Y1473300D01*
X14398500Y1473300D02*
X14096700Y1473300D01*
X13950000Y1640000D02*
X13950000Y2050000D01*
X9150000Y8450000D02*
X9150000Y8971000D01*
X9150000Y8971000D02*
X8877400Y9243600D01*
X14096700Y1473300D02*
X13940000Y1630000D01*
X13940000Y1630000D02*
X13950000Y1640000D01*
%TO.N,BOOT0*%
X14708500Y3831800D02*
X14526700Y3650000D01*
X13950000Y3650000D02*
X14526700Y3650000D01*
%TO.N,COMP_SWDCLK*%
X12350000Y-5950000D02*
X12350000Y-6526700D01*
X12431000Y-6708500D02*
X12431000Y-6607700D01*
X12431000Y-6607700D02*
X12350000Y-6526700D01*
%TO.N,COMP_SWDIO*%
X11773300Y-5431200D02*
X11773300Y-6704000D01*
X12350000Y-4350000D02*
X12350000Y-4854500D01*
X12350000Y-4854500D02*
X11773300Y-5431200D01*
%TO.N,EXT_CAN_RX*%
X12350000Y-2750000D02*
X12926700Y-2750000D01*
X13083600Y-2906900D02*
X12926700Y-2750000D01*
X13190700Y-2906900D02*
X13083600Y-2906900D01*
%TO.N,EXT_CAN_TX*%
X12350000Y-1150000D02*
X12854600Y-1150000D01*
X12854600Y-1150000D02*
X13654600Y-350000D01*
X13654600Y-350000D02*
X13720200Y-350000D01*
%TO.N,FIN1_AOUT1*%
X12123300Y-126700D02*
X11593900Y-126700D01*
X12350000Y100000D02*
X12123300Y-126700D01*
X12350000Y450000D02*
X12350000Y100000D01*
%TO.N,FIN2_AOUT1*%
X12909300Y1660700D02*
X12926700Y1660700D01*
X12520000Y2050000D02*
X12909300Y1660700D01*
X12926700Y1660700D02*
X13307100Y1280300D01*
X12350000Y2050000D02*
X12520000Y2050000D01*
%TO.N,FIN3_AOUT1*%
X12350000Y3145400D02*
X12350000Y3650000D01*
X13108800Y2386600D02*
X12350000Y3145400D01*
%TO.N,FIN4_AOUT1*%
X11990000Y5250000D02*
X11773300Y5033300D01*
X11773300Y5033300D02*
X11773300Y4725700D01*
X11773300Y4725700D02*
X11658800Y4611200D01*
X12350000Y5250000D02*
X11990000Y5250000D01*
%TO.N,FIN_HALL*%
X11503300Y6697600D02*
X11620900Y6697600D01*
X12350000Y6850000D02*
X11773300Y6850000D01*
X11620900Y6697600D02*
X11773300Y6850000D01*
%TO.N,FIN_VREF*%
X11492000Y9461600D02*
X11926900Y9026700D01*
X11926900Y9026700D02*
X12223300Y9026700D01*
X12350000Y8900000D02*
X12350000Y8450000D01*
X12223300Y9026700D02*
X12350000Y8900000D01*
%TO.N,GPIO_EXT_0*%
X10750000Y-3593800D02*
X10750000Y-4350000D01*
%TO.N,GPIO_EXT_1*%
X10087500Y-2664200D02*
X9922500Y-2664200D01*
X10173300Y-2750000D02*
X10087500Y-2664200D01*
X10750000Y-2750000D02*
X10173300Y-2750000D01*
%TO.N,GPIO_EXT_2*%
X10750000Y-1150000D02*
X10750000Y-1975900D01*
%TO.N,GPIO_EXT_3*%
X10517500Y-308100D02*
X10750000Y-75600D01*
X10750000Y-75600D02*
X10750000Y450000D01*
%TO.N,JUMP_WAKE*%
X10245500Y6850000D02*
X9668800Y7426700D01*
X9040600Y7426700D02*
X8311700Y8155600D01*
X8311700Y8155600D02*
X8311700Y12673300D01*
X9668800Y7426700D02*
X9040600Y7426700D01*
X10750000Y6850000D02*
X10245500Y6850000D01*
%TO.N,NRST*%
X10750000Y8450000D02*
X10239100Y8450000D01*
X10239100Y8450000D02*
X9986600Y8197500D01*
%TO.N,SWO*%
X10750000Y10050000D02*
X10173300Y10050000D01*
X10173300Y10039400D02*
X10173300Y10050000D01*
X9991200Y9857300D02*
X10173300Y10039400D01*
%TO.N,SYS_I2C_SCL*%
X8397300Y-5950000D02*
X9150000Y-5950000D01*
%TO.N,SYS_I2C_SDA*%
X8395700Y-4527600D02*
X8573300Y-4350000D01*
X9150000Y-4350000D02*
X8573300Y-4350000D01*
%TO.N,SYS_SPI_CS_FIN*%
X9150000Y-2750000D02*
X9150000Y-3254500D01*
X9150000Y-3254500D02*
X9726700Y-3831200D01*
X9726700Y-4424000D02*
X10407300Y-5104600D01*
X9726700Y-3831200D02*
X9726700Y-4424000D01*
%TO.N,SYS_SPI_MISO*%
X8125200Y1207000D02*
X8125200Y-125200D01*
X8125200Y-125200D02*
X9150000Y-1150000D01*
%TO.N,SYS_SPI_MOSI*%
X9362500Y1026700D02*
X9548800Y1213000D01*
X9150000Y810000D02*
X9362500Y1022500D01*
X9362500Y1022500D02*
X9362500Y1026700D01*
X9150000Y450000D02*
X9150000Y810000D01*
%TO.N,SYS_SPI_SCLK*%
X8125200Y6003500D02*
X8125200Y3074800D01*
X8125200Y3074800D02*
X8573300Y2626700D01*
X8710000Y2050000D02*
X9150000Y2050000D01*
X8573300Y2166700D02*
X8700000Y2040000D01*
X8700000Y2040000D02*
X8710000Y2050000D01*
X8573300Y2626700D02*
X8573300Y2166700D01*
%TD*%
M02*
