ISO-10303-21;
HEADER;
FILE_DESCRIPTION (( 'STEP AP214' ),
    '1' );
FILE_NAME ('RR123-1H02-612.STEP',
    '2025-03-02T19:29:04',
    ( '' ),
    ( '' ),
    'SwSTEP 2.0',
    'SolidWorks 2023',
    '' );
FILE_SCHEMA (( 'AUTOMOTIVE_DESIGN' ));
ENDSEC;

DATA;
#1 = EDGE_LOOP ( 'NONE', ( #435, #672, #1147, #282 ) ) ;
#2 = CARTESIAN_POINT ( 'NONE',  ( 1.284999999999999920, 0.1401000000000000301, -0.7784953394006464134 ) ) ;
#3 = LINE ( 'NONE', #806, #690 ) ;
#4 = MECHANICAL_DESIGN_GEOMETRIC_PRESENTATION_REPRESENTATION (  '', ( #960 ), #339 ) ;
#5 = LINE ( 'NONE', #735, #443 ) ;
#6 = EDGE_LOOP ( 'NONE', ( #461, #226, #373, #278 ) ) ;
#7 = DIRECTION ( 'NONE',  ( -1.000000000000000000, -0.000000000000000000, -0.000000000000000000 ) ) ;
#8 = DIRECTION ( 'NONE',  ( 0.000000000000000000, 0.000000000000000000, 1.000000000000000000 ) ) ;
#9 = LINE ( 'NONE', #736, #1030 ) ;
#10 = VECTOR ( 'NONE', #265, 1000.000000000000000 ) ;
#11 = ORIENTED_EDGE ( 'NONE', *, *, #1246, .F. ) ;
#12 = SURFACE_STYLE_USAGE ( .BOTH. , #25 ) ;
#13 = VECTOR ( 'NONE', #452, 1000.000000000000000 ) ;
#14 = ADVANCED_FACE ( 'NONE', ( #487 ), #1018, .F. ) ;
#15 = CARTESIAN_POINT ( 'NONE',  ( -0.7250000000000001998, 0.1400000000000000133, -0.7784953394006464134 ) ) ;
#16 = PRESENTATION_STYLE_ASSIGNMENT (( #637 ) ) ;
#17 = PRODUCT ( 'RR123-1H02-612', 'RR123-1H02-612', '', ( #563 ) ) ;
#18 = PLANE ( 'NONE',  #1172 ) ;
#19 = FILL_AREA_STYLE_COLOUR ( '', #1099 ) ;
#20 = CARTESIAN_POINT ( 'NONE',  ( -0.5250000000000002442, -0.01000000000000000021, 0.4749999999999999223 ) ) ;
#21 = EDGE_CURVE ( 'NONE', #1208, #465, #1224, .T. ) ;
#22 = SURFACE_STYLE_USAGE ( .BOTH. , #1064 ) ;
#23 = MECHANICAL_DESIGN_GEOMETRIC_PRESENTATION_REPRESENTATION (  '', ( #787 ), #880 ) ;
#24 = VECTOR ( 'NONE', #706, 1000.000000000000000 ) ;
#25 = SURFACE_SIDE_STYLE ('',( #251 ) ) ;
#26 = ORIENTED_EDGE ( 'NONE', *, *, #917, .T. ) ;
#27 = CARTESIAN_POINT ( 'NONE',  ( 0.7249999999999997558, 0.4859999999999999876, 0.7250000000000000888 ) ) ;
#28 = ADVANCED_FACE ( 'NONE', ( #337 ), #931, .F. ) ;
#29 = DIRECTION ( 'NONE',  ( 1.000000000000000000, 0.000000000000000000, 0.000000000000000000 ) ) ;
#30 =( LENGTH_UNIT ( ) NAMED_UNIT ( * ) SI_UNIT ( .MILLI., .METRE. ) );
#31 = AXIS2_PLACEMENT_3D ( 'NONE', #793, #602, #611 ) ;
#32 = VERTEX_POINT ( 'NONE', #1052 ) ;
#33 = VECTOR ( 'NONE', #277, 1000.000000000000000 ) ;
#34 = APPLICATION_PROTOCOL_DEFINITION ( 'draft international standard', 'automotive_design', 1998, #153 ) ;
#35 = CARTESIAN_POINT ( 'NONE',  ( 0.1249999999999997363, -0.01000000000000000021, 0.4750000000000000333 ) ) ;
#36 = VECTOR ( 'NONE', #1182, 1000.000000000000000 ) ;
#37 = VERTEX_POINT ( 'NONE', #948 ) ;
#38 = EDGE_CURVE ( 'NONE', #696, #676, #342, .T. ) ;
#39 = CARTESIAN_POINT ( 'NONE',  ( 0.1249999999999995143, -0.01000000000000000021, -0.5250000000000000222 ) ) ;
#40 = UNCERTAINTY_MEASURE_WITH_UNIT (LENGTH_MEASURE( 1.000000000000000082E-05 ), #794, 'distance_accuracy_value', 'NONE');
#41 = ADVANCED_FACE ( 'NONE', ( #825 ), #831, .F. ) ;
#42 = FACE_OUTER_BOUND ( 'NONE', #1004, .T. ) ;
#43 = CARTESIAN_POINT ( 'NONE',  ( -0.5250000000000002442, -0.01000000000000000021, 0.4749999999999999223 ) ) ;
#44 =( NAMED_UNIT ( * ) SI_UNIT ( $, .STERADIAN. ) SOLID_ANGLE_UNIT ( ) );
#45 = FACE_OUTER_BOUND ( 'NONE', #378, .T. ) ;
#46 = ORIENTED_EDGE ( 'NONE', *, *, #135, .T. ) ;
#47 = CARTESIAN_POINT ( 'NONE',  ( 0.7249999999999997558, 0.000000000000000000, 0.7250000000000000888 ) ) ;
#48 = SURFACE_SIDE_STYLE ('',( #1324 ) ) ;
#49 = ORIENTED_EDGE ( 'NONE', *, *, #682, .T. ) ;
#50 = FACE_OUTER_BOUND ( 'NONE', #1016, .T. ) ;
#51 = DIRECTION ( 'NONE',  ( 0.000000000000000000, 1.000000000000000000, 0.000000000000000000 ) ) ;
#52 = ORIENTED_EDGE ( 'NONE', *, *, #841, .F. ) ;
#53 = PRESENTATION_STYLE_ASSIGNMENT (( #987 ) ) ;
#54 = PRODUCT_DEFINITION_CONTEXT ( 'detailed design', #153, 'design' ) ;
#55 = PLANE ( 'NONE',  #753 ) ;
#56 = MECHANICAL_DESIGN_GEOMETRIC_PRESENTATION_REPRESENTATION (  '', ( #822 ), #842 ) ;
#57 = VERTEX_POINT ( 'NONE', #239 ) ;
#58 = DIRECTION ( 'NONE',  ( -0.000000000000000000, 0.000000000000000000, 1.000000000000000000 ) ) ;
#59 = ADVANCED_FACE ( 'NONE', ( #720 ), #215, .F. ) ;
#60 = COLOUR_RGB ( '',0.6666666666666666297, 0.6980392156862744724, 0.7686274509803920907 ) ;
#61 = AXIS2_PLACEMENT_3D ( 'NONE', #455, #234, #349 ) ;
#62 = VECTOR ( 'NONE', #751, 1000.000000000000000 ) ;
#63 =( GEOMETRIC_REPRESENTATION_CONTEXT ( 3 ) GLOBAL_UNCERTAINTY_ASSIGNED_CONTEXT ( ( #599 ) ) GLOBAL_UNIT_ASSIGNED_CONTEXT ( ( #1203, #912, #394 ) ) REPRESENTATION_CONTEXT ( 'NONE', 'WORKASPACE' ) );
#64 = ORIENTED_EDGE ( 'NONE', *, *, #707, .T. ) ;
#65 = LINE ( 'NONE', #1082, #178 ) ;
#66 = FILL_AREA_STYLE ('',( #490 ) ) ;
#67 = ORIENTED_EDGE ( 'NONE', *, *, #801, .F. ) ;
#68 = SURFACE_SIDE_STYLE ('',( #919 ) ) ;
#69 =( NAMED_UNIT ( * ) PLANE_ANGLE_UNIT ( ) SI_UNIT ( $, .RADIAN. ) );
#70 = EDGE_LOOP ( 'NONE', ( #1093, #938, #566, #194, #483 ) ) ;
#71 = SURFACE_SIDE_STYLE ('',( #769 ) ) ;
#72 = LINE ( 'NONE', #799, #1273 ) ;
#73 = VERTEX_POINT ( 'NONE', #431 ) ;
#74 = LINE ( 'NONE', #375, #797 ) ;
#75 = DIRECTION ( 'NONE',  ( 0.000000000000000000, 1.000000000000000000, 0.000000000000000000 ) ) ;
#76 = FILL_AREA_STYLE ('',( #82 ) ) ;
#77 = FACE_OUTER_BOUND ( 'NONE', #924, .T. ) ;
#78 = EDGE_CURVE ( 'NONE', #1213, #1124, #5, .T. ) ;
#79 = ORIENTED_EDGE ( 'NONE', *, *, #914, .F. ) ;
#80 = PLANE ( 'NONE',  #1335 ) ;
#81 = AXIS2_PLACEMENT_3D ( 'NONE', #1032, #1248, #104 ) ;
#82 = FILL_AREA_STYLE_COLOUR ( '', #1045 ) ;
#83 = EDGE_CURVE ( 'NONE', #400, #615, #225, .T. ) ;
#84 = FILL_AREA_STYLE ('',( #519 ) ) ;
#85 = EDGE_CURVE ( 'NONE', #1008, #625, #890, .T. ) ;
#86 = ORIENTED_EDGE ( 'NONE', *, *, #664, .F. ) ;
#87 = DIRECTION ( 'NONE',  ( 1.000000000000000000, 0.000000000000000000, 0.000000000000000000 ) ) ;
#88 = VERTEX_POINT ( 'NONE', #1174 ) ;
#89 =( NAMED_UNIT ( * ) SI_UNIT ( $, .STERADIAN. ) SOLID_ANGLE_UNIT ( ) );
#90 = EDGE_LOOP ( 'NONE', ( #874, #792, #1234, #1081 ) ) ;
#91 = VECTOR ( 'NONE', #742, 1000.000000000000000 ) ;
#92 = DIRECTION ( 'NONE',  ( 0.000000000000000000, 1.000000000000000000, 0.000000000000000000 ) ) ;
#93 = SURFACE_SIDE_STYLE ('',( #623 ) ) ;
#94 = PLANE ( 'NONE',  #308 ) ;
#95 = EDGE_LOOP ( 'NONE', ( #950, #332, #962, #146 ) ) ;
#96 = DIRECTION ( 'NONE',  ( 0.000000000000000000, -0.000000000000000000, 1.000000000000000000 ) ) ;
#97 = ADVANCED_FACE ( 'NONE', ( #45 ), #154, .T. ) ;
#98 = PLANE ( 'NONE',  #311 ) ;
#99 =( NAMED_UNIT ( * ) SI_UNIT ( $, .STERADIAN. ) SOLID_ANGLE_UNIT ( ) );
#100 = STYLED_ITEM ( 'NONE', ( #1118 ), #425 ) ;
#101 = VECTOR ( 'NONE', #1257, 1000.000000000000000 ) ;
#102 = CARTESIAN_POINT ( 'NONE',  ( 0.7249999999999997558, 0.4859999999999999876, 0.7250000000000000888 ) ) ;
#103 = ORIENTED_EDGE ( 'NONE', *, *, #682, .F. ) ;
#104 = DIRECTION ( 'NONE',  ( -1.000000000000000000, 0.000000000000000000, -0.000000000000000000 ) ) ;
#105 = FILL_AREA_STYLE_COLOUR ( '', #1164 ) ;
#106 = DIRECTION ( 'NONE',  ( -1.000000000000000000, 0.000000000000000000, 0.000000000000000000 ) ) ;
#107 = LINE ( 'NONE', #1253, #592 ) ;
#108 = ORIENTED_EDGE ( 'NONE', *, *, #1196, .T. ) ;
#109 =( NAMED_UNIT ( * ) SI_UNIT ( $, .STERADIAN. ) SOLID_ANGLE_UNIT ( ) );
#110 = VECTOR ( 'NONE', #760, 1000.000000000000000 ) ;
#111 = CARTESIAN_POINT ( 'NONE',  ( 0.7249999999999997558, 0.1400000000000000411, -0.7250000000000000888 ) ) ;
#112 = CARTESIAN_POINT ( 'NONE',  ( 0.7249999999999997558, 0.4859999999999999876, 0.7250000000000000888 ) ) ;
#113 = VECTOR ( 'NONE', #629, 1000.000000000000000 ) ;
#114 = EDGE_CURVE ( 'NONE', #73, #426, #574, .T. ) ;
#115 = ORIENTED_EDGE ( 'NONE', *, *, #1246, .T. ) ;
#116 = DIRECTION ( 'NONE',  ( -1.000000000000000000, 0.000000000000000000, -0.000000000000000000 ) ) ;
#117 = VERTEX_POINT ( 'NONE', #469 ) ;
#118 =( NAMED_UNIT ( * ) SI_UNIT ( $, .STERADIAN. ) SOLID_ANGLE_UNIT ( ) );
#119 = LINE ( 'NONE', #422, #199 ) ;
#120 = CARTESIAN_POINT ( 'NONE',  ( 0.1249999999999995143, 0.000000000000000000, -0.5250000000000000222 ) ) ;
#121 = COLOUR_RGB ( '',0.6666666666666666297, 0.6980392156862744724, 0.7686274509803920907 ) ;
#122 = DIRECTION ( 'NONE',  ( -0.000000000000000000, 1.000000000000000000, -0.000000000000000000 ) ) ;
#123 = PRESENTATION_LAYER_ASSIGNMENT (  '', '', ( #481 ) ) ;
#124 = ADVANCED_FACE ( 'NONE', ( #660 ), #353, .F. ) ;
#125 = PRESENTATION_LAYER_ASSIGNMENT (  '', '', ( #217 ) ) ;
#126 = PLANE ( 'NONE',  #334 ) ;
#127 = PRESENTATION_LAYER_ASSIGNMENT (  '', '', ( #433 ) ) ;
#128 = FILL_AREA_STYLE_COLOUR ( '', #310 ) ;
#129 = DIRECTION ( 'NONE',  ( -0.000000000000000000, -1.000000000000000000, -0.000000000000000000 ) ) ;
#130 = LINE ( 'NONE', #554, #923 ) ;
#131 = PLANE ( 'NONE',  #410 ) ;
#132 = PLANE ( 'NONE',  #241 ) ;
#133 = ORIENTED_EDGE ( 'NONE', *, *, #390, .F. ) ;
#134 = PRESENTATION_STYLE_ASSIGNMENT (( #973 ) ) ;
#135 = EDGE_CURVE ( 'NONE', #994, #676, #581, .T. ) ;
#136 = LINE ( 'NONE', #249, #33 ) ;
#137 = FILL_AREA_STYLE ('',( #882 ) ) ;
#138 = COLOUR_RGB ( '',0.6666666666666666297, 0.6980392156862744724, 0.7686274509803920907 ) ;
#139 = FILL_AREA_STYLE ('',( #447 ) ) ;
#140 = VECTOR ( 'NONE', #844, 1000.000000000000000 ) ;
#141 = EDGE_LOOP ( 'NONE', ( #1039, #290, #1226, #601 ) ) ;
#142 =( NAMED_UNIT ( * ) SI_UNIT ( $, .STERADIAN. ) SOLID_ANGLE_UNIT ( ) );
#143 = DIRECTION ( 'NONE',  ( 0.000000000000000000, 0.000000000000000000, 1.000000000000000000 ) ) ;
#144 = EDGE_CURVE ( 'NONE', #868, #117, #774, .T. ) ;
#145 = PLANE ( 'NONE',  #1120 ) ;
#146 = ORIENTED_EDGE ( 'NONE', *, *, #252, .T. ) ;
#147 = CARTESIAN_POINT ( 'NONE',  ( 0.7249999999999997558, 0.000000000000000000, 0.7250000000000000888 ) ) ;
#148 = VECTOR ( 'NONE', #821, 1000.000000000000000 ) ;
#149 = AXIS2_PLACEMENT_3D ( 'NONE', #1316, #300, #576 ) ;
#150 = ORIENTED_EDGE ( 'NONE', *, *, #801, .T. ) ;
#151 = AXIS2_PLACEMENT_3D ( 'NONE', #438, #740, #1158 ) ;
#152 = FACE_OUTER_BOUND ( 'NONE', #684, .T. ) ;
#153 = APPLICATION_CONTEXT ( 'automotive_design' ) ;
#154 = PLANE ( 'NONE',  #320 ) ;
#155 = ORIENTED_EDGE ( 'NONE', *, *, #235, .F. ) ;
#156 = FILL_AREA_STYLE_COLOUR ( '', #292 ) ;
#157 = PRODUCT_RELATED_PRODUCT_CATEGORY ( 'part', '', ( #17 ) ) ;
#158 = UNCERTAINTY_MEASURE_WITH_UNIT (LENGTH_MEASURE( 1.000000000000000082E-05 ), #1227, 'distance_accuracy_value', 'NONE');
#159 =( NAMED_UNIT ( * ) SI_UNIT ( $, .STERADIAN. ) SOLID_ANGLE_UNIT ( ) );
#160 = EDGE_LOOP ( 'NONE', ( #1073, #514, #606, #680 ) ) ;
#161 = DIRECTION ( 'NONE',  ( -0.000000000000000000, 1.000000000000000000, -0.000000000000000000 ) ) ;
#162 = ORIENTED_EDGE ( 'NONE', *, *, #304, .T. ) ;
#163 = LINE ( 'NONE', #1009, #1232 ) ;
#164 = EDGE_CURVE ( 'NONE', #1217, #32, #361, .T. ) ;
#165 = DIRECTION ( 'NONE',  ( -0.7071067811865473507, 0.000000000000000000, 0.7071067811865477948 ) ) ;
#166 = COLOUR_RGB ( '',0.6666666666666666297, 0.6980392156862744724, 0.7686274509803920907 ) ;
#167 = VECTOR ( 'NONE', #1023, 1000.000000000000000 ) ;
#168 = VERTEX_POINT ( 'NONE', #1078 ) ;
#169 =( NAMED_UNIT ( * ) PLANE_ANGLE_UNIT ( ) SI_UNIT ( $, .RADIAN. ) );
#170 =( NAMED_UNIT ( * ) SI_UNIT ( $, .STERADIAN. ) SOLID_ANGLE_UNIT ( ) );
#171 = ORIENTED_EDGE ( 'NONE', *, *, #245, .T. ) ;
#172 = DIRECTION ( 'NONE',  ( 0.000000000000000000, 0.000000000000000000, -1.000000000000000000 ) ) ;
#173 = SURFACE_STYLE_USAGE ( .BOTH. , #1100 ) ;
#174 = ORIENTED_EDGE ( 'NONE', *, *, #245, .F. ) ;
#175 = DIRECTION ( 'NONE',  ( 0.000000000000000000, 0.000000000000000000, -1.000000000000000000 ) ) ;
#176 = MECHANICAL_DESIGN_GEOMETRIC_PRESENTATION_REPRESENTATION (  '', ( #752 ), #650 ) ;
#177 = VECTOR ( 'NONE', #204, 1000.000000000000000 ) ;
#178 = VECTOR ( 'NONE', #977, 1000.000000000000000 ) ;
#179 = ORIENTED_EDGE ( 'NONE', *, *, #899, .T. ) ;
#180 = CARTESIAN_POINT ( 'NONE',  ( -0.5000000000000002220, -0.01000000000000000021, -0.5249999999999999112 ) ) ;
#181 = DIRECTION ( 'NONE',  ( -0.000000000000000000, 0.000000000000000000, 1.000000000000000000 ) ) ;
#182 = ORIENTED_EDGE ( 'NONE', *, *, #1291, .T. ) ;
#183 =( NAMED_UNIT ( * ) SI_UNIT ( $, .STERADIAN. ) SOLID_ANGLE_UNIT ( ) );
#184 = EDGE_CURVE ( 'NONE', #615, #625, #130, .T. ) ;
#185 =( NAMED_UNIT ( * ) PLANE_ANGLE_UNIT ( ) SI_UNIT ( $, .RADIAN. ) );
#186 = DIRECTION ( 'NONE',  ( -1.000000000000000000, 0.000000000000000000, 0.000000000000000000 ) ) ;
#187 = LINE ( 'NONE', #379, #594 ) ;
#188 = PRESENTATION_LAYER_ASSIGNMENT (  '', '', ( #657 ) ) ;
#189 = EDGE_LOOP ( 'NONE', ( #1131, #587, #805, #710 ) ) ;
#190 = SURFACE_STYLE_USAGE ( .BOTH. , #68 ) ;
#191 = ADVANCED_FACE ( 'NONE', ( #1086 ), #145, .F. ) ;
#192 = ORIENTED_EDGE ( 'NONE', *, *, #888, .T. ) ;
#193 = CARTESIAN_POINT ( 'NONE',  ( -0.1750000000000003220, -0.01000000000000000021, 0.1250000000000000000 ) ) ;
#194 = ORIENTED_EDGE ( 'NONE', *, *, #979, .F. ) ;
#195 = CIRCLE ( 'NONE', #1075, 0.05000000000000002359 ) ;
#196 =( LENGTH_UNIT ( ) NAMED_UNIT ( * ) SI_UNIT ( .MILLI., .METRE. ) );
#197 = VECTOR ( 'NONE', #619, 1000.000000000000000 ) ;
#198 =( NAMED_UNIT ( * ) PLANE_ANGLE_UNIT ( ) SI_UNIT ( $, .RADIAN. ) );
#199 = VECTOR ( 'NONE', #734, 1000.000000000000000 ) ;
#200 = DIRECTION ( 'NONE',  ( 0.000000000000000000, 0.000000000000000000, 1.000000000000000000 ) ) ;
#201 = ORIENTED_EDGE ( 'NONE', *, *, #1339, .T. ) ;
#202 = CARTESIAN_POINT ( 'NONE',  ( -0.5000000000000002220, -0.01000000000000000021, -0.5249999999999999112 ) ) ;
#203 = DIRECTION ( 'NONE',  ( 1.000000000000000000, 0.000000000000000000, 0.000000000000000000 ) ) ;
#204 = DIRECTION ( 'NONE',  ( 0.7071067811865477948, 0.000000000000000000, 0.7071067811865473507 ) ) ;
#205 = ADVANCED_FACE ( 'NONE', ( #788 ), #1332, .F. ) ;
#206 = ORIENTED_EDGE ( 'NONE', *, *, #144, .F. ) ;
#207 = LINE ( 'NONE', #516, #567 ) ;
#208 = VECTOR ( 'NONE', #975, 1000.000000000000000 ) ;
#209 = DIRECTION ( 'NONE',  ( -1.000000000000000000, -0.000000000000000000, -0.000000000000000000 ) ) ;
#210 = MECHANICAL_DESIGN_GEOMETRIC_PRESENTATION_REPRESENTATION (  '', ( #1267 ), #1334 ) ;
#211 = CARTESIAN_POINT ( 'NONE',  ( -0.3250000000000002887, -0.01000000000000000021, -0.5249999999999999112 ) ) ;
#212 = ORIENTED_EDGE ( 'NONE', *, *, #724, .T. ) ;
#213 = SURFACE_STYLE_USAGE ( .BOTH. , #333 ) ;
#214 = CARTESIAN_POINT ( 'NONE',  ( 0.1249999999999995143, 0.000000000000000000, -0.1749999999999999611 ) ) ;
#215 = PLANE ( 'NONE',  #279 ) ;
#216 = VECTOR ( 'NONE', #730, 1000.000000000000000 ) ;
#217 = STYLED_ITEM ( 'NONE', ( #1271 ), #952 ) ;
#218 = VECTOR ( 'NONE', #1300, 1000.000000000000000 ) ;
#219 = CARTESIAN_POINT ( 'NONE',  ( -0.5250000000000002442, -0.01000000000000000021, 0.1250000000000000000 ) ) ;
#220 = EDGE_LOOP ( 'NONE', ( #1084, #133, #52, #171 ) ) ;
#221 = CARTESIAN_POINT ( 'NONE',  ( -0.1500000000000002720, 0.000000000000000000, -0.3499999999999999223 ) ) ;
#222 = DIRECTION ( 'NONE',  ( 0.000000000000000000, 0.000000000000000000, 1.000000000000000000 ) ) ;
#223 = CARTESIAN_POINT ( 'NONE',  ( 0.1249999999999997363, 0.000000000000000000, 0.1250000000000000555 ) ) ;
#224 = ADVANCED_FACE ( 'NONE', ( #904 ), #80, .F. ) ;
#225 = LINE ( 'NONE', #262, #208 ) ;
#226 = ORIENTED_EDGE ( 'NONE', *, *, #749, .T. ) ;
#227 = LINE ( 'NONE', #1022, #913 ) ;
#228 = SURFACE_SIDE_STYLE ('',( #946 ) ) ;
#229 = DIRECTION ( 'NONE',  ( -1.000000000000000000, 0.000000000000000000, -0.000000000000000000 ) ) ;
#230 = VECTOR ( 'NONE', #873, 1000.000000000000000 ) ;
#231 =( LENGTH_UNIT ( ) NAMED_UNIT ( * ) SI_UNIT ( .MILLI., .METRE. ) );
#232 = EDGE_CURVE ( 'NONE', #117, #725, #297, .T. ) ;
#233 = PRESENTATION_LAYER_ASSIGNMENT (  '', '', ( #854 ) ) ;
#234 = DIRECTION ( 'NONE',  ( 0.000000000000000000, 0.000000000000000000, -1.000000000000000000 ) ) ;
#235 = EDGE_CURVE ( 'NONE', #57, #1208, #699, .T. ) ;
#236 = LINE ( 'NONE', #1272, #36 ) ;
#237 = SURFACE_SIDE_STYLE ('',( #1071 ) ) ;
#238 = LINE ( 'NONE', #649, #1059 ) ;
#239 = CARTESIAN_POINT ( 'NONE',  ( 0.7249999999999999778, 0.1400000000000000411, 0.7250000000000000888 ) ) ;
#240 = STYLED_ITEM ( 'NONE', ( #327 ), #492 ) ;
#241 = AXIS2_PLACEMENT_3D ( 'NONE', #1199, #181, #683 ) ;
#242 = FACE_OUTER_BOUND ( 'NONE', #6, .T. ) ;
#243 = COLOUR_RGB ( '',0.6666666666666666297, 0.6980392156862744724, 0.7686274509803920907 ) ;
#244 = VECTOR ( 'NONE', #1116, 1000.000000000000000 ) ;
#245 = EDGE_CURVE ( 'NONE', #396, #1200, #1126, .T. ) ;
#246 = DIRECTION ( 'NONE',  ( -0.000000000000000000, 1.000000000000000000, -0.000000000000000000 ) ) ;
#247 = VECTOR ( 'NONE', #556, 1000.000000000000000 ) ;
#248 = CARTESIAN_POINT ( 'NONE',  ( -0.7250000000000001998, 0.4859999999999999876, 0.7250000000000000888 ) ) ;
#249 = CARTESIAN_POINT ( 'NONE',  ( -0.5000000000000002220, -0.01000000000000000021, -0.1749999999999998779 ) ) ;
#250 = CARTESIAN_POINT ( 'NONE',  ( 0.1249999999999995143, -0.01000000000000000021, -0.5250000000000000222 ) ) ;
#251 = SURFACE_STYLE_FILL_AREA ( #951 ) ;
#252 = EDGE_CURVE ( 'NONE', #352, #307, #1034, .T. ) ;
#253 = PLANE ( 'NONE',  #347 ) ;
#254 = CARTESIAN_POINT ( 'NONE',  ( 0.1249999999999995143, -0.01000000000000000021, -0.5250000000000000222 ) ) ;
#255 = MANIFOLD_SOLID_BREP ( 'Cut-Extrude1[2]', #1310 ) ;
#256 = COLOUR_RGB ( '',0.6666666666666666297, 0.6980392156862744724, 0.7686274509803920907 ) ;
#257 = ORIENTED_EDGE ( 'NONE', *, *, #698, .F. ) ;
#258 = LINE ( 'NONE', #662, #798 ) ;
#259 = UNCERTAINTY_MEASURE_WITH_UNIT (LENGTH_MEASURE( 1.000000000000000082E-05 ), #949, 'distance_accuracy_value', 'NONE');
#260 = SURFACE_STYLE_FILL_AREA ( #1176 ) ;
#261 =( NAMED_UNIT ( * ) PLANE_ANGLE_UNIT ( ) SI_UNIT ( $, .RADIAN. ) );
#262 = CARTESIAN_POINT ( 'NONE',  ( 0.7249999999999997558, 0.4859999999999999876, 0.7250000000000000888 ) ) ;
#263 = ORIENTED_EDGE ( 'NONE', *, *, #764, .T. ) ;
#264 = CARTESIAN_POINT ( 'NONE',  ( -0.5250000000000002442, 0.000000000000000000, 0.4749999999999999223 ) ) ;
#265 = DIRECTION ( 'NONE',  ( 1.000000000000000000, 0.000000000000000000, 0.000000000000000000 ) ) ;
#266 = PRESENTATION_LAYER_ASSIGNMENT (  '', '', ( #240 ) ) ;
#267 = PRESENTATION_LAYER_ASSIGNMENT (  '', '', ( #1212 ) ) ;
#268 = VERTEX_POINT ( 'NONE', #930 ) ;
#269 = LINE ( 'NONE', #43, #110 ) ;
#270 =( NAMED_UNIT ( * ) PLANE_ANGLE_UNIT ( ) SI_UNIT ( $, .RADIAN. ) );
#271 = DIRECTION ( 'NONE',  ( -0.000000000000000000, 0.000000000000000000, -1.000000000000000000 ) ) ;
#272 = ADVANCED_FACE ( 'NONE', ( #643 ), #529, .F. ) ;
#273 = VERTEX_POINT ( 'NONE', #111 ) ;
#274 = DIRECTION ( 'NONE',  ( -1.000000000000000000, -0.000000000000000000, -0.000000000000000000 ) ) ;
#275 = UNCERTAINTY_MEASURE_WITH_UNIT (LENGTH_MEASURE( 1.000000000000000082E-05 ), #467, 'distance_accuracy_value', 'NONE');
#276 = ORIENTED_EDGE ( 'NONE', *, *, #526, .F. ) ;
#277 = DIRECTION ( 'NONE',  ( -0.000000000000000000, 1.000000000000000000, -0.000000000000000000 ) ) ;
#278 = ORIENTED_EDGE ( 'NONE', *, *, #628, .T. ) ;
#279 = AXIS2_PLACEMENT_3D ( 'NONE', #631, #1037, #531 ) ;
#280 = DIRECTION ( 'NONE',  ( 1.000000000000000000, -0.000000000000000000, 0.000000000000000000 ) ) ;
#281 = SURFACE_STYLE_FILL_AREA ( #784 ) ;
#282 = ORIENTED_EDGE ( 'NONE', *, *, #83, .F. ) ;
#283 = CARTESIAN_POINT ( 'NONE',  ( -0.1750000000000003220, -0.01000000000000000021, 0.4749999999999999223 ) ) ;
#284 = CARTESIAN_POINT ( 'NONE',  ( 0.4749999999999997558, -0.01000000000000000021, 0.1250000000000000555 ) ) ;
#285 = DIRECTION ( 'NONE',  ( 0.000000000000000000, -1.000000000000000000, 0.000000000000000000 ) ) ;
#286 = UNCERTAINTY_MEASURE_WITH_UNIT (LENGTH_MEASURE( 1.000000000000000082E-05 ), #1133, 'distance_accuracy_value', 'NONE');
#287 = CARTESIAN_POINT ( 'NONE',  ( 0.7249999999999997558, 0.1400000000000000411, 0.7250000000000000888 ) ) ;
#288 = EDGE_CURVE ( 'NONE', #1295, #862, #468, .T. ) ;
#289 = PRESENTATION_LAYER_ASSIGNMENT (  '', '', ( #822 ) ) ;
#290 = ORIENTED_EDGE ( 'NONE', *, *, #1114, .F. ) ;
#291 = AXIS2_PLACEMENT_3D ( 'NONE', #1065, #1169, #569 ) ;
#292 = COLOUR_RGB ( '',0.1098039215686274495, 0.1098039215686274495, 0.1098039215686274495 ) ;
#293 = ORIENTED_EDGE ( 'NONE', *, *, #943, .T. ) ;
#294 = CARTESIAN_POINT ( 'NONE',  ( 0.1249999999999995143, -0.01000000000000000021, -0.1749999999999999611 ) ) ;
#295 = ORIENTED_EDGE ( 'NONE', *, *, #749, .F. ) ;
#296 = CARTESIAN_POINT ( 'NONE',  ( -0.7250000000000001998, 0.000000000000000000, 0.7250000000000000888 ) ) ;
#297 = LINE ( 'NONE', #283, #402 ) ;
#298 =( NAMED_UNIT ( * ) SI_UNIT ( $, .STERADIAN. ) SOLID_ANGLE_UNIT ( ) );
#299 = CIRCLE ( 'NONE', #534, 0.05000000000000002359 ) ;
#300 = DIRECTION ( 'NONE',  ( 0.000000000000000000, -1.000000000000000000, 0.000000000000000000 ) ) ;
#301 = ORIENTED_EDGE ( 'NONE', *, *, #1128, .F. ) ;
#302 = PLANE ( 'NONE',  #711 ) ;
#303 = DIRECTION ( 'NONE',  ( -0.000000000000000000, 1.000000000000000000, -0.000000000000000000 ) ) ;
#304 = EDGE_CURVE ( 'NONE', #32, #426, #940, .T. ) ;
#305 = SURFACE_SIDE_STYLE ('',( #499 ) ) ;
#306 = LINE ( 'NONE', #1233, #197 ) ;
#307 = VERTEX_POINT ( 'NONE', #309 ) ;
#308 = AXIS2_PLACEMENT_3D ( 'NONE', #507, #411, #1225 ) ;
#309 = CARTESIAN_POINT ( 'NONE',  ( 0.1249999999999997363, 0.000000000000000000, 0.1250000000000000555 ) ) ;
#310 = COLOUR_RGB ( '',0.6666666666666666297, 0.6980392156862744724, 0.7686274509803920907 ) ;
#311 = AXIS2_PLACEMENT_3D ( 'NONE', #112, #106, #1028 ) ;
#312 = ORIENTED_EDGE ( 'NONE', *, *, #724, .F. ) ;
#313 = AXIS2_PLACEMENT_3D ( 'NONE', #384, #280, #172 ) ;
#314 = EDGE_CURVE ( 'NONE', #1247, #879, #299, .T. ) ;
#315 = ORIENTED_EDGE ( 'NONE', *, *, #390, .T. ) ;
#316 = DIRECTION ( 'NONE',  ( -0.000000000000000000, -0.000000000000000000, 1.000000000000000000 ) ) ;
#317 = CARTESIAN_POINT ( 'NONE',  ( 0.7249999999999997558, 0.4859999999999999876, -0.7249999999999998668 ) ) ;
#318 = EDGE_LOOP ( 'NONE', ( #817, #999, #603, #1140 ) ) ;
#319 = CARTESIAN_POINT ( 'NONE',  ( 0.7249999999999997558, 0.4859999999999999876, -0.7249999999999998668 ) ) ;
#320 = AXIS2_PLACEMENT_3D ( 'NONE', #460, #51, #866 ) ;
#321 = PRESENTATION_STYLE_ASSIGNMENT (( #936 ) ) ;
#322 = CARTESIAN_POINT ( 'NONE',  ( -0.3250000000000002331, 0.000000000000000000, -0.5249999999999999112 ) ) ;
#323 =( GEOMETRIC_REPRESENTATION_CONTEXT ( 3 ) GLOBAL_UNCERTAINTY_ASSIGNED_CONTEXT ( ( #489 ) ) GLOBAL_UNIT_ASSIGNED_CONTEXT ( ( #1327, #1207, #589 ) ) REPRESENTATION_CONTEXT ( 'NONE', 'WORKASPACE' ) );
#324 = CARTESIAN_POINT ( 'NONE',  ( -0.5822321858220543822, 0.4849999999999999867, 0.5849380450127461550 ) ) ;
#325 = FACE_OUTER_BOUND ( 'NONE', #1, .T. ) ;
#326 = ORIENTED_EDGE ( 'NONE', *, *, #532, .T. ) ;
#327 = PRESENTATION_STYLE_ASSIGNMENT (( #213 ) ) ;
#328 = EDGE_CURVE ( 'NONE', #595, #1221, #811, .T. ) ;
#329 =( LENGTH_UNIT ( ) NAMED_UNIT ( * ) SI_UNIT ( .MILLI., .METRE. ) );
#330 = PRESENTATION_LAYER_ASSIGNMENT (  '', '', ( #935 ) ) ;
#331 = LINE ( 'NONE', #971, #732 ) ;
#332 = ORIENTED_EDGE ( 'NONE', *, *, #377, .F. ) ;
#333 = SURFACE_SIDE_STYLE ('',( #815 ) ) ;
#334 = AXIS2_PLACEMENT_3D ( 'NONE', #877, #871, #116 ) ;
#335 = LINE ( 'NONE', #1166, #1303 ) ;
#336 = EDGE_CURVE ( 'NONE', #88, #73, #523, .T. ) ;
#337 = FACE_OUTER_BOUND ( 'NONE', #90, .T. ) ;
#338 = FACE_OUTER_BOUND ( 'NONE', #1021, .T. ) ;
#339 =( GEOMETRIC_REPRESENTATION_CONTEXT ( 3 ) GLOBAL_UNCERTAINTY_ASSIGNED_CONTEXT ( ( #681 ) ) GLOBAL_UNIT_ASSIGNED_CONTEXT ( ( #231, #439, #416 ) ) REPRESENTATION_CONTEXT ( 'NONE', 'WORKASPACE' ) );
#340 = PRESENTATION_STYLE_ASSIGNMENT (( #553 ) ) ;
#341 = DIRECTION ( 'NONE',  ( 0.000000000000000000, 0.000000000000000000, 1.000000000000000000 ) ) ;
#342 = LINE ( 'NONE', #120, #362 ) ;
#343 = CARTESIAN_POINT ( 'NONE',  ( 0.7249999999999997558, 0.1401000000000000023, 0.7250000000000000888 ) ) ;
#344 = VECTOR ( 'NONE', #1282, 1000.000000000000000 ) ;
#345 = CARTESIAN_POINT ( 'NONE',  ( 0.1249999999999995143, -0.01000000000000000021, -0.5250000000000000222 ) ) ;
#346 = DIRECTION ( 'NONE',  ( -0.000000000000000000, -1.000000000000000000, -0.000000000000000000 ) ) ;
#347 = AXIS2_PLACEMENT_3D ( 'NONE', #991, #58, #786 ) ;
#348 = MECHANICAL_DESIGN_GEOMETRIC_PRESENTATION_REPRESENTATION (  '', ( #1212 ), #1321 ) ;
#349 = DIRECTION ( 'NONE',  ( -1.000000000000000000, 0.000000000000000000, -0.000000000000000000 ) ) ;
#350 = MECHANICAL_DESIGN_GEOMETRIC_PRESENTATION_REPRESENTATION (  '', ( #433 ), #63 ) ;
#351 = CARTESIAN_POINT ( 'NONE',  ( -0.1500000000000002720, -0.01000000000000000021, -0.3499999999999999223 ) ) ;
#352 = VERTEX_POINT ( 'NONE', #414 ) ;
#353 = PLANE ( 'NONE',  #513 ) ;
#354 = VERTEX_POINT ( 'NONE', #1150 ) ;
#355 = DIRECTION ( 'NONE',  ( 0.000000000000000000, 0.000000000000000000, 1.000000000000000000 ) ) ;
#356 = FACE_OUTER_BOUND ( 'NONE', #95, .T. ) ;
#357 = EDGE_LOOP ( 'NONE', ( #293, #1317, #206, #315 ) ) ;
#358 = CARTESIAN_POINT ( 'NONE',  ( -0.5250000000000002442, -0.01000000000000000021, 0.4749999999999999223 ) ) ;
#359 = PLANE ( 'NONE',  #1323 ) ;
#360 = AXIS2_PLACEMENT_3D ( 'NONE', #829, #92, #222 ) ;
#361 = LINE ( 'NONE', #35, #744 ) ;
#362 = VECTOR ( 'NONE', #1258, 1000.000000000000000 ) ;
#363 = ORIENTED_EDGE ( 'NONE', *, *, #628, .F. ) ;
#364 = LINE ( 'NONE', #488, #1033 ) ;
#365 = UNCERTAINTY_MEASURE_WITH_UNIT (LENGTH_MEASURE( 1.000000000000000082E-05 ), #196, 'distance_accuracy_value', 'NONE');
#366 = CARTESIAN_POINT ( 'NONE',  ( -0.7250000000000001998, 0.000000000000000000, -0.7249999999999998668 ) ) ;
#367 = CARTESIAN_POINT ( 'NONE',  ( 0.1249999999999997363, -0.01000000000000000021, 0.1250000000000000555 ) ) ;
#368 = EDGE_CURVE ( 'NONE', #117, #382, #269, .T. ) ;
#369 = CARTESIAN_POINT ( 'NONE',  ( -0.7250000000000001998, 0.4859999999999999876, -0.7249999999999998668 ) ) ;
#370 = ORIENTED_EDGE ( 'NONE', *, *, #1114, .T. ) ;
#371 = CARTESIAN_POINT ( 'NONE',  ( 0.4749999999999997558, -0.01000000000000000021, 0.4750000000000000333 ) ) ;
#372 = COLOUR_RGB ( '',0.6666666666666666297, 0.6980392156862744724, 0.7686274509803920907 ) ;
#373 = ORIENTED_EDGE ( 'NONE', *, *, #565, .T. ) ;
#374 = AXIS2_PLACEMENT_3D ( 'NONE', #1072, #143, #1292 ) ;
#375 = CARTESIAN_POINT ( 'NONE',  ( 0.4749999999999998113, 0.000000000000000000, -0.5250000000000000222 ) ) ;
#376 = LINE ( 'NONE', #20, #13 ) ;
#377 = EDGE_CURVE ( 'NONE', #610, #88, #466, .T. ) ;
#378 = EDGE_LOOP ( 'NONE', ( #783, #597 ) ) ;
#379 = CARTESIAN_POINT ( 'NONE',  ( -0.5000000000000002220, -0.01000000000000000021, -0.5249999999999999112 ) ) ;
#380 = UNCERTAINTY_MEASURE_WITH_UNIT (LENGTH_MEASURE( 1.000000000000000082E-05 ), #648, 'distance_accuracy_value', 'NONE');
#381 = FILL_AREA_STYLE_COLOUR ( '', #1171 ) ;
#382 = VERTEX_POINT ( 'NONE', #358 ) ;
#383 = COLOUR_RGB ( '',0.6666666666666666297, 0.6980392156862744724, 0.7686274509803920907 ) ;
#384 = CARTESIAN_POINT ( 'NONE',  ( -0.7250000000000001998, 0.4859999999999999876, 0.7250000000000000888 ) ) ;
#385 = ADVANCED_FACE ( 'NONE', ( #863 ), #673, .F. ) ;
#386 = ORIENTED_EDGE ( 'NONE', *, *, #666, .T. ) ;
#387 = ORIENTED_EDGE ( 'NONE', *, *, #1339, .F. ) ;
#388 = UNCERTAINTY_MEASURE_WITH_UNIT (LENGTH_MEASURE( 1.000000000000000082E-05 ), #1236, 'distance_accuracy_value', 'NONE');
#389 = APPLICATION_CONTEXT ( 'automotive_design' ) ;
#390 = EDGE_CURVE ( 'NONE', #868, #1326, #746, .T. ) ;
#391 = ORIENTED_EDGE ( 'NONE', *, *, #232, .T. ) ;
#392 =( GEOMETRIC_REPRESENTATION_CONTEXT ( 3 ) GLOBAL_UNCERTAINTY_ASSIGNED_CONTEXT ( ( #259 ) ) GLOBAL_UNIT_ASSIGNED_CONTEXT ( ( #949, #870, #638 ) ) REPRESENTATION_CONTEXT ( 'NONE', 'WORKASPACE' ) );
#393 = DIRECTION ( 'NONE',  ( 0.000000000000000000, 1.000000000000000000, 0.000000000000000000 ) ) ;
#394 =( NAMED_UNIT ( * ) SI_UNIT ( $, .STERADIAN. ) SOLID_ANGLE_UNIT ( ) );
#395 =( NAMED_UNIT ( * ) PLANE_ANGLE_UNIT ( ) SI_UNIT ( $, .RADIAN. ) );
#396 = VERTEX_POINT ( 'NONE', #1184 ) ;
#397 = ADVANCED_FACE ( 'NONE', ( #658 ), #967, .F. ) ;
#398 =( NAMED_UNIT ( * ) SI_UNIT ( $, .STERADIAN. ) SOLID_ANGLE_UNIT ( ) );
#399 = AXIS2_PLACEMENT_3D ( 'NONE', #539, #1264, #837 ) ;
#400 = VERTEX_POINT ( 'NONE', #27 ) ;
#401 = CARTESIAN_POINT ( 'NONE',  ( -0.7250000000000001998, 0.4859999999999999876, 0.7250000000000000888 ) ) ;
#402 = VECTOR ( 'NONE', #303, 1000.000000000000000 ) ;
#403 = EDGE_CURVE ( 'NONE', #886, #994, #1261, .T. ) ;
#404 = DIRECTION ( 'NONE',  ( 0.000000000000000000, 1.000000000000000000, 0.000000000000000000 ) ) ;
#405 = ORIENTED_EDGE ( 'NONE', *, *, #943, .F. ) ;
#406 = CARTESIAN_POINT ( 'NONE',  ( -0.5822321858220543822, 0.4859999999999999876, 0.6349380450127461994 ) ) ;
#407 = ORIENTED_EDGE ( 'NONE', *, *, #1080, .F. ) ;
#408 = CARTESIAN_POINT ( 'NONE',  ( -0.5000000000000002220, 0.000000000000000000, -0.1749999999999998779 ) ) ;
#409 = CIRCLE ( 'NONE', #291, 0.05000000000000002359 ) ;
#410 = AXIS2_PLACEMENT_3D ( 'NONE', #555, #285, #1215 ) ;
#411 = DIRECTION ( 'NONE',  ( -1.000000000000000000, 0.000000000000000000, 0.000000000000000000 ) ) ;
#412 = VERTEX_POINT ( 'NONE', #1177 ) ;
#413 = CARTESIAN_POINT ( 'NONE',  ( 0.7249999999999997558, 0.4859999999999999876, 0.7250000000000000888 ) ) ;
#414 = CARTESIAN_POINT ( 'NONE',  ( 0.1249999999999997363, -0.01000000000000000021, 0.1250000000000000555 ) ) ;
#415 = LINE ( 'NONE', #317, #548 ) ;
#416 =( NAMED_UNIT ( * ) SI_UNIT ( $, .STERADIAN. ) SOLID_ANGLE_UNIT ( ) );
#417 = ADVANCED_FACE ( 'NONE', ( #1276 ), #253, .F. ) ;
#418 = DIRECTION ( 'NONE',  ( -1.000000000000000000, 0.000000000000000000, 0.000000000000000000 ) ) ;
#419 = ORIENTED_EDGE ( 'NONE', *, *, #474, .F. ) ;
#420 = LINE ( 'NONE', #640, #148 ) ;
#421 = DIRECTION ( 'NONE',  ( -0.000000000000000000, 0.000000000000000000, 1.000000000000000000 ) ) ;
#422 = CARTESIAN_POINT ( 'NONE',  ( -0.7250000000000001998, 0.1401000000000000023, -0.7249999999999998668 ) ) ;
#423 =( GEOMETRIC_REPRESENTATION_CONTEXT ( 3 ) GLOBAL_UNCERTAINTY_ASSIGNED_CONTEXT ( ( #778 ) ) GLOBAL_UNIT_ASSIGNED_CONTEXT ( ( #437, #429, #739 ) ) REPRESENTATION_CONTEXT ( 'NONE', 'WORKASPACE' ) );
#424 = DIRECTION ( 'NONE',  ( -0.000000000000000000, 0.000000000000000000, 1.000000000000000000 ) ) ;
#425 = ADVANCED_FACE ( 'NONE', ( #903 ), #302, .F. ) ;
#426 = VERTEX_POINT ( 'NONE', #1222 ) ;
#427 = DIRECTION ( 'NONE',  ( -0.000000000000000000, 1.000000000000000000, -0.000000000000000000 ) ) ;
#428 = EDGE_CURVE ( 'NONE', #37, #687, #1103, .T. ) ;
#429 =( NAMED_UNIT ( * ) PLANE_ANGLE_UNIT ( ) SI_UNIT ( $, .RADIAN. ) );
#430 = CARTESIAN_POINT ( 'NONE',  ( -0.5822321858220543822, 0.4859999999999999876, 0.5349380450127461106 ) ) ;
#431 = CARTESIAN_POINT ( 'NONE',  ( 0.4749999999999997558, 0.000000000000000000, 0.4750000000000000333 ) ) ;
#432 = COLOUR_RGB ( '',0.6666666666666666297, 0.6980392156862744724, 0.7686274509803920907 ) ;
#433 = STYLED_ITEM ( 'NONE', ( #53 ), #1149 ) ;
#434 = CARTESIAN_POINT ( 'NONE',  ( 0.4749999999999997558, -0.01000000000000000021, 0.1250000000000000555 ) ) ;
#435 = ORIENTED_EDGE ( 'NONE', *, *, #907, .T. ) ;
#436 = DIRECTION ( 'NONE',  ( -1.000000000000000000, -0.000000000000000000, -0.000000000000000000 ) ) ;
#437 =( LENGTH_UNIT ( ) NAMED_UNIT ( * ) SI_UNIT ( .MILLI., .METRE. ) );
#438 = CARTESIAN_POINT ( 'NONE',  ( -0.5822321858220543822, 0.4849999999999999867, 0.5849380450127461550 ) ) ;
#439 =( NAMED_UNIT ( * ) PLANE_ANGLE_UNIT ( ) SI_UNIT ( $, .RADIAN. ) );
#440 = CARTESIAN_POINT ( 'NONE',  ( -0.7250000000000001998, 0.4859999999999999876, -0.7249999999999998668 ) ) ;
#441 = SURFACE_STYLE_USAGE ( .BOTH. , #571 ) ;
#442 = EDGE_LOOP ( 'NONE', ( #115, #301, #86, #475 ) ) ;
#443 = VECTOR ( 'NONE', #1153, 1000.000000000000000 ) ;
#444 = FILL_AREA_STYLE ('',( #1284 ) ) ;
#445 = ADVANCED_FACE ( 'NONE', ( #596 ), #1312, .F. ) ;
#446 = DIRECTION ( 'NONE',  ( 1.000000000000000000, 0.000000000000000000, -0.000000000000000000 ) ) ;
#447 = FILL_AREA_STYLE_COLOUR ( '', #372 ) ;
#448 = LINE ( 'NONE', #861, #1060 ) ;
#449 = MECHANICAL_DESIGN_GEOMETRIC_PRESENTATION_REPRESENTATION (  '', ( #1249 ), #632 ) ;
#450 = ORIENTED_EDGE ( 'NONE', *, *, #78, .F. ) ;
#451 = DIRECTION ( 'NONE',  ( 1.000000000000000000, -0.000000000000000000, 0.000000000000000000 ) ) ;
#452 = DIRECTION ( 'NONE',  ( -0.000000000000000000, 1.000000000000000000, -0.000000000000000000 ) ) ;
#453 = PRESENTATION_STYLE_ASSIGNMENT (( #1294 ) ) ;
#454 = PRESENTATION_LAYER_ASSIGNMENT (  '', '', ( #547 ) ) ;
#455 = CARTESIAN_POINT ( 'NONE',  ( -0.5000000000000002220, -0.01000000000000000021, -0.1749999999999998779 ) ) ;
#456 = COLOUR_RGB ( '',0.6666666666666666297, 0.6980392156862744724, 0.7686274509803920907 ) ;
#457 = CARTESIAN_POINT ( 'NONE',  ( 1.284999999999999920, 0.1400000000000000133, -0.7784953394006464134 ) ) ;
#458 = CARTESIAN_POINT ( 'NONE',  ( 0.4749999999999997558, -0.01000000000000000021, 0.1250000000000000555 ) ) ;
#459 = SHAPE_DEFINITION_REPRESENTATION ( #974, #813 ) ;
#460 = CARTESIAN_POINT ( 'NONE',  ( -0.5822321858220543822, 0.4849999999999999867, 0.5849380450127461550 ) ) ;
#461 = ORIENTED_EDGE ( 'NONE', *, *, #83, .T. ) ;
#462 = LINE ( 'NONE', #646, #1079 ) ;
#463 = EDGE_CURVE ( 'NONE', #1200, #1326, #692, .T. ) ;
#464 = CARTESIAN_POINT ( 'NONE',  ( -0.1500000000000002720, 0.000000000000000000, -0.1749999999999998779 ) ) ;
#465 = VERTEX_POINT ( 'NONE', #296 ) ;
#466 = LINE ( 'NONE', #458, #926 ) ;
#467 =( LENGTH_UNIT ( ) NAMED_UNIT ( * ) SI_UNIT ( .MILLI., .METRE. ) );
#468 = CIRCLE ( 'NONE', #360, 0.05000000000000002359 ) ;
#469 = CARTESIAN_POINT ( 'NONE',  ( -0.1750000000000003220, -0.01000000000000000021, 0.4749999999999999223 ) ) ;
#470 = PRESENTATION_LAYER_ASSIGNMENT (  '', '', ( #832 ) ) ;
#471 = ORIENTED_EDGE ( 'NONE', *, *, #1142, .T. ) ;
#472 = DIRECTION ( 'NONE',  ( -0.000000000000000000, -0.000000000000000000, -1.000000000000000000 ) ) ;
#473 = UNCERTAINTY_MEASURE_WITH_UNIT (LENGTH_MEASURE( 1.000000000000000082E-05 ), #1209, 'distance_accuracy_value', 'NONE');
#474 = EDGE_CURVE ( 'NONE', #557, #354, #74, .T. ) ;
#475 = ORIENTED_EDGE ( 'NONE', *, *, #540, .T. ) ;
#476 = DIRECTION ( 'NONE',  ( -0.000000000000000000, 0.000000000000000000, -1.000000000000000000 ) ) ;
#477 = FILL_AREA_STYLE_COLOUR ( '', #383 ) ;
#478 = ORIENTED_EDGE ( 'NONE', *, *, #533, .T. ) ;
#479 = STYLED_ITEM ( 'NONE', ( #1068 ), #741 ) ;
#480 = DIRECTION ( 'NONE',  ( 0.7071067811865477948, 0.000000000000000000, 0.7071067811865473507 ) ) ;
#481 = STYLED_ITEM ( 'NONE', ( #134 ), #397 ) ;
#482 =( GEOMETRIC_REPRESENTATION_CONTEXT ( 3 ) GLOBAL_UNCERTAINTY_ASSIGNED_CONTEXT ( ( #997 ) ) GLOBAL_UNIT_ASSIGNED_CONTEXT ( ( #494, #894, #604 ) ) REPRESENTATION_CONTEXT ( 'NONE', 'WORKASPACE' ) );
#483 = ORIENTED_EDGE ( 'NONE', *, *, #1001, .F. ) ;
#484 = FILL_AREA_STYLE ('',( #588 ) ) ;
#485 = PRODUCT_DEFINITION_FORMATION_WITH_SPECIFIED_SOURCE ( 'ANY', '', #17, .NOT_KNOWN. ) ;
#486 = SURFACE_SIDE_STYLE ('',( #1211 ) ) ;
#487 = FACE_OUTER_BOUND ( 'NONE', #141, .T. ) ;
#488 = CARTESIAN_POINT ( 'NONE',  ( -0.7250000000000001998, 0.4859999999999999876, -0.7249999999999998668 ) ) ;
#489 = UNCERTAINTY_MEASURE_WITH_UNIT (LENGTH_MEASURE( 1.000000000000000082E-05 ), #1327, 'distance_accuracy_value', 'NONE');
#490 = FILL_AREA_STYLE_COLOUR ( '', #432 ) ;
#491 = ORIENTED_EDGE ( 'NONE', *, *, #164, .T. ) ;
#492 = ADVANCED_FACE ( 'NONE', ( #781 ), #1201, .F. ) ;
#493 = EDGE_LOOP ( 'NONE', ( #909, #986, #927, #896 ) ) ;
#494 =( LENGTH_UNIT ( ) NAMED_UNIT ( * ) SI_UNIT ( .MILLI., .METRE. ) );
#495 =( LENGTH_UNIT ( ) NAMED_UNIT ( * ) SI_UNIT ( .MILLI., .METRE. ) );
#496 = VERTEX_POINT ( 'NONE', #1148 ) ;
#497 = FILL_AREA_STYLE_COLOUR ( '', #60 ) ;
#498 =( NAMED_UNIT ( * ) SI_UNIT ( $, .STERADIAN. ) SOLID_ANGLE_UNIT ( ) );
#499 = SURFACE_STYLE_FILL_AREA ( #76 ) ;
#500 = DIRECTION ( 'NONE',  ( 0.7071067811865477948, 0.000000000000000000, 0.7071067811865473507 ) ) ;
#501 = EDGE_LOOP ( 'NONE', ( #1115, #1155, #276, #49 ) ) ;
#502 = MECHANICAL_DESIGN_GEOMETRIC_PRESENTATION_REPRESENTATION (  '', ( #100 ), #1105 ) ;
#503 = MECHANICAL_DESIGN_GEOMETRIC_PRESENTATION_REPRESENTATION (  '', ( #568 ), #1254 ) ;
#504 = STYLED_ITEM ( 'NONE', ( #1178 ), #1348 ) ;
#505 = CARTESIAN_POINT ( 'NONE',  ( -0.7250000000000001998, 0.1400000000000000411, 0.7250000000000000888 ) ) ;
#506 = VERTEX_POINT ( 'NONE', #408 ) ;
#507 = CARTESIAN_POINT ( 'NONE',  ( 0.7249999999999997558, 0.4859999999999999876, 0.7250000000000000888 ) ) ;
#508 = EDGE_CURVE ( 'NONE', #862, #1247, #939, .T. ) ;
#509 = ORIENTED_EDGE ( 'NONE', *, *, #1333, .F. ) ;
#510 = LINE ( 'NONE', #401, #1076 ) ;
#511 = CARTESIAN_POINT ( 'NONE',  ( -0.5250000000000002442, -0.01000000000000000021, 0.1250000000000000000 ) ) ;
#512 = VERTEX_POINT ( 'NONE', #1345 ) ;
#513 = AXIS2_PLACEMENT_3D ( 'NONE', #250, #446, #271 ) ;
#514 = ORIENTED_EDGE ( 'NONE', *, *, #336, .F. ) ;
#515 = MECHANICAL_DESIGN_GEOMETRIC_PRESENTATION_REPRESENTATION (  '', ( #1244 ), #423 ) ;
#516 = CARTESIAN_POINT ( 'NONE',  ( 0.4749999999999998113, -0.01000000000000000021, -0.1749999999999999611 ) ) ;
#517 = PRESENTATION_STYLE_ASSIGNMENT (( #1241 ) ) ;
#518 = FILL_AREA_STYLE_COLOUR ( '', #641 ) ;
#519 = FILL_AREA_STYLE_COLOUR ( '', #689 ) ;
#520 = ORIENTED_EDGE ( 'NONE', *, *, #463, .F. ) ;
#521 = LINE ( 'NONE', #634, #688 ) ;
#522 = VECTOR ( 'NONE', #1156, 1000.000000000000000 ) ;
#523 = LINE ( 'NONE', #1346, #1287 ) ;
#524 = CARTESIAN_POINT ( 'NONE',  ( -0.3250000000000002887, -0.01000000000000000021, -0.5249999999999999112 ) ) ;
#525 = VECTOR ( 'NONE', #901, 1000.000000000000000 ) ;
#526 = EDGE_CURVE ( 'NONE', #1188, #1213, #840, .T. ) ;
#527 = CARTESIAN_POINT ( 'NONE',  ( -0.5250000000000002442, 0.000000000000000000, 0.1250000000000000000 ) ) ;
#528 = ORIENTED_EDGE ( 'NONE', *, *, #1228, .F. ) ;
#529 = PLANE ( 'NONE',  #1044 ) ;
#530 = DIRECTION ( 'NONE',  ( 1.000000000000000000, 0.000000000000000000, 0.000000000000000000 ) ) ;
#531 = DIRECTION ( 'NONE',  ( 0.000000000000000000, 0.000000000000000000, 1.000000000000000000 ) ) ;
#532 = EDGE_CURVE ( 'NONE', #32, #352, #420, .T. ) ;
#533 = EDGE_CURVE ( 'NONE', #57, #1112, #626, .T. ) ;
#534 = AXIS2_PLACEMENT_3D ( 'NONE', #718, #713, #1250 ) ;
#535 = ORIENTED_EDGE ( 'NONE', *, *, #1091, .T. ) ;
#536 = CARTESIAN_POINT ( 'NONE',  ( 0.7249999999999997558, 0.1401000000000000023, -0.7250000000000000888 ) ) ;
#537 = CARTESIAN_POINT ( 'NONE',  ( 0.1249999999999997363, -0.01000000000000000021, 0.1250000000000000555 ) ) ;
#538 = CARTESIAN_POINT ( 'NONE',  ( -0.1500000000000002720, -0.01000000000000000021, -0.1749999999999998779 ) ) ;
#539 = CARTESIAN_POINT ( 'NONE',  ( 0.000000000000000000, -0.01000000000000000021, 0.000000000000000000 ) ) ;
#540 = EDGE_CURVE ( 'NONE', #168, #354, #207, .T. ) ;
#541 = EDGE_LOOP ( 'NONE', ( #1311, #263, #478, #64 ) ) ;
#542 = CARTESIAN_POINT ( 'NONE',  ( -0.5822321858220543822, 0.4849999999999999867, 0.5849380450127461550 ) ) ;
#543 = EDGE_LOOP ( 'NONE', ( #982, #491, #326, #26 ) ) ;
#544 = FILL_AREA_STYLE ('',( #105 ) ) ;
#545 = LINE ( 'NONE', #1347, #755 ) ;
#546 =( NAMED_UNIT ( * ) PLANE_ANGLE_UNIT ( ) SI_UNIT ( $, .RADIAN. ) );
#547 = STYLED_ITEM ( 'NONE', ( #695 ), #766 ) ;
#548 = VECTOR ( 'NONE', #1051, 1000.000000000000000 ) ;
#549 = LINE ( 'NONE', #434, #1106 ) ;
#550 = LINE ( 'NONE', #966, #344 ) ;
#551 = EDGE_CURVE ( 'NONE', #412, #512, #227, .T. ) ;
#552 = ORIENTED_EDGE ( 'NONE', *, *, #1237, .F. ) ;
#553 = SURFACE_STYLE_USAGE ( .BOTH. , #237 ) ;
#554 = CARTESIAN_POINT ( 'NONE',  ( 0.7249999999999997558, 0.4859999999999999876, -0.7249999999999998668 ) ) ;
#555 = CARTESIAN_POINT ( 'NONE',  ( 0.000000000000000000, 0.4859999999999999876, 0.000000000000000000 ) ) ;
#556 = DIRECTION ( 'NONE',  ( 0.000000000000000000, 0.000000000000000000, -1.000000000000000000 ) ) ;
#557 = VERTEX_POINT ( 'NONE', #616 ) ;
#558 = PRESENTATION_LAYER_ASSIGNMENT (  '', '', ( #787 ) ) ;
#559 = PLANE ( 'NONE',  #613 ) ;
#560 =( NAMED_UNIT ( * ) PLANE_ANGLE_UNIT ( ) SI_UNIT ( $, .RADIAN. ) );
#561 = DIRECTION ( 'NONE',  ( 1.000000000000000000, 0.000000000000000000, 0.000000000000000000 ) ) ;
#562 = AXIS2_PLACEMENT_3D ( 'NONE', #457, #758, #745 ) ;
#563 = PRODUCT_CONTEXT ( 'NONE', #389, 'mechanical' ) ;
#564 =( LENGTH_UNIT ( ) NAMED_UNIT ( * ) SI_UNIT ( .MILLI., .METRE. ) );
#565 = EDGE_CURVE ( 'NONE', #785, #268, #510, .T. ) ;
#566 = ORIENTED_EDGE ( 'NONE', *, *, #859, .F. ) ;
#567 = VECTOR ( 'NONE', #928, 1000.000000000000000 ) ;
#568 = STYLED_ITEM ( 'NONE', ( #593 ), #782 ) ;
#569 = DIRECTION ( 'NONE',  ( 0.000000000000000000, 0.000000000000000000, 1.000000000000000000 ) ) ;
#570 =( GEOMETRIC_REPRESENTATION_CONTEXT ( 3 ) GLOBAL_UNCERTAINTY_ASSIGNED_CONTEXT ( ( #1297 ) ) GLOBAL_UNIT_ASSIGNED_CONTEXT ( ( #864, #270, #44 ) ) REPRESENTATION_CONTEXT ( 'NONE', 'WORKASPACE' ) );
#571 = SURFACE_SIDE_STYLE ('',( #260 ) ) ;
#572 =( LENGTH_UNIT ( ) NAMED_UNIT ( * ) SI_UNIT ( .MILLI., .METRE. ) );
#573 = DIRECTION ( 'NONE',  ( 0.000000000000000000, 0.000000000000000000, 1.000000000000000000 ) ) ;
#574 = LINE ( 'NONE', #984, #230 ) ;
#575 = ORIENTED_EDGE ( 'NONE', *, *, #1134, .F. ) ;
#576 = DIRECTION ( 'NONE',  ( 0.000000000000000000, -0.000000000000000000, -1.000000000000000000 ) ) ;
#577 = VERTEX_POINT ( 'NONE', #221 ) ;
#578 =( NAMED_UNIT ( * ) PLANE_ANGLE_UNIT ( ) SI_UNIT ( $, .RADIAN. ) );
#579 =( NAMED_UNIT ( * ) PLANE_ANGLE_UNIT ( ) SI_UNIT ( $, .RADIAN. ) );
#580 = VECTOR ( 'NONE', #1187, 1000.000000000000000 ) ;
#581 = LINE ( 'NONE', #254, #1092 ) ;
#582 = VERTEX_POINT ( 'NONE', #1235 ) ;
#583 = FILL_AREA_STYLE_COLOUR ( '', #456 ) ;
#584 = UNCERTAINTY_MEASURE_WITH_UNIT (LENGTH_MEASURE( 1.000000000000000082E-05 ), #30, 'distance_accuracy_value', 'NONE');
#585 = PRESENTATION_LAYER_ASSIGNMENT (  '', '', ( #1267 ) ) ;
#586 = ADVANCED_FACE ( 'NONE', ( #717 ), #621, .F. ) ;
#587 = ORIENTED_EDGE ( 'NONE', *, *, #540, .F. ) ;
#588 = FILL_AREA_STYLE_COLOUR ( '', #627 ) ;
#589 =( NAMED_UNIT ( * ) SI_UNIT ( $, .STERADIAN. ) SOLID_ANGLE_UNIT ( ) );
#590 = EDGE_LOOP ( 'NONE', ( #1306, #775, #1274, #1338 ) ) ;
#591 = FILL_AREA_STYLE ('',( #156 ) ) ;
#592 = VECTOR ( 'NONE', #1337, 1000.000000000000000 ) ;
#593 = PRESENTATION_STYLE_ASSIGNMENT (( #173 ) ) ;
#594 = VECTOR ( 'NONE', #472, 1000.000000000000000 ) ;
#595 = VERTEX_POINT ( 'NONE', #828 ) ;
#596 = FACE_OUTER_BOUND ( 'NONE', #501, .T. ) ;
#597 = ORIENTED_EDGE ( 'NONE', *, *, #698, .T. ) ;
#598 = SURFACE_STYLE_USAGE ( .BOTH. , #71 ) ;
#599 = UNCERTAINTY_MEASURE_WITH_UNIT (LENGTH_MEASURE( 1.000000000000000082E-05 ), #1203, 'distance_accuracy_value', 'NONE');
#600 = CARTESIAN_POINT ( 'NONE',  ( -0.3250000000000002887, -0.01000000000000000021, -0.5249999999999999112 ) ) ;
#601 = ORIENTED_EDGE ( 'NONE', *, *, #377, .T. ) ;
#602 = DIRECTION ( 'NONE',  ( -1.000000000000000000, 0.000000000000000000, 0.000000000000000000 ) ) ;
#603 = ORIENTED_EDGE ( 'NONE', *, *, #1223, .T. ) ;
#604 =( NAMED_UNIT ( * ) SI_UNIT ( $, .STERADIAN. ) SOLID_ANGLE_UNIT ( ) );
#605 =( GEOMETRIC_REPRESENTATION_CONTEXT ( 3 ) GLOBAL_UNCERTAINTY_ASSIGNED_CONTEXT ( ( #40 ) ) GLOBAL_UNIT_ASSIGNED_CONTEXT ( ( #794, #185, #498 ) ) REPRESENTATION_CONTEXT ( 'NONE', 'WORKASPACE' ) );
#606 = ORIENTED_EDGE ( 'NONE', *, *, #1193, .F. ) ;
#607 = ORIENTED_EDGE ( 'NONE', *, *, #304, .F. ) ;
#608 = EDGE_CURVE ( 'NONE', #382, #396, #521, .T. ) ;
#609 = CARTESIAN_POINT ( 'NONE',  ( -0.1750000000000003220, -0.01000000000000000021, 0.1250000000000000000 ) ) ;
#610 = VERTEX_POINT ( 'NONE', #934 ) ;
#611 = DIRECTION ( 'NONE',  ( 0.000000000000000000, 0.000000000000000000, 1.000000000000000000 ) ) ;
#612 = VECTOR ( 'NONE', #1000, 1000.000000000000000 ) ;
#613 = AXIS2_PLACEMENT_3D ( 'NONE', #369, #573, #872 ) ;
#614 = DIRECTION ( 'NONE',  ( 1.000000000000000000, -0.000000000000000000, 0.000000000000000000 ) ) ;
#615 = VERTEX_POINT ( 'NONE', #319 ) ;
#616 = CARTESIAN_POINT ( 'NONE',  ( 0.4749999999999998113, 0.000000000000000000, -0.5250000000000000222 ) ) ;
#617 = CARTESIAN_POINT ( 'NONE',  ( -0.5000000000000002220, -0.01000000000000000021, -0.5249999999999999112 ) ) ;
#618 = ORIENTED_EDGE ( 'NONE', *, *, #1263, .T. ) ;
#619 = DIRECTION ( 'NONE',  ( 1.000000000000000000, 0.000000000000000000, 0.000000000000000000 ) ) ;
#620 = ORIENTED_EDGE ( 'NONE', *, *, #314, .T. ) ;
#621 = PLANE ( 'NONE',  #668 ) ;
#622 = ADVANCED_FACE ( 'NONE', ( #726 ), #1141, .F. ) ;
#623 = SURFACE_STYLE_FILL_AREA ( #956 ) ;
#624 = LINE ( 'NONE', #102, #865 ) ;
#625 = VERTEX_POINT ( 'NONE', #536 ) ;
#626 = LINE ( 'NONE', #413, #522 ) ;
#627 = COLOUR_RGB ( '',0.6666666666666666297, 0.6980392156862744724, 0.7686274509803920907 ) ;
#628 = EDGE_CURVE ( 'NONE', #268, #400, #945, .T. ) ;
#629 = DIRECTION ( 'NONE',  ( -0.000000000000000000, 1.000000000000000000, -0.000000000000000000 ) ) ;
#630 = FACE_OUTER_BOUND ( 'NONE', #716, .T. ) ;
#631 = CARTESIAN_POINT ( 'NONE',  ( 0.4749999999999998113, -0.01000000000000000021, -0.5250000000000000222 ) ) ;
#632 =( GEOMETRIC_REPRESENTATION_CONTEXT ( 3 ) GLOBAL_UNCERTAINTY_ASSIGNED_CONTEXT ( ( #978 ) ) GLOBAL_UNIT_ASSIGNED_CONTEXT ( ( #972, #750, #1268 ) ) REPRESENTATION_CONTEXT ( 'NONE', 'WORKASPACE' ) );
#633 = ORIENTED_EDGE ( 'NONE', *, *, #252, .F. ) ;
#634 = CARTESIAN_POINT ( 'NONE',  ( -0.5250000000000002442, -0.01000000000000000021, 0.1250000000000000000 ) ) ;
#635 = SURFACE_STYLE_FILL_AREA ( #544 ) ;
#636 = DIRECTION ( 'NONE',  ( 0.000000000000000000, 0.000000000000000000, -1.000000000000000000 ) ) ;
#637 = SURFACE_STYLE_USAGE ( .BOTH. , #93 ) ;
#638 =( NAMED_UNIT ( * ) SI_UNIT ( $, .STERADIAN. ) SOLID_ANGLE_UNIT ( ) );
#639 = ORIENTED_EDGE ( 'NONE', *, *, #1091, .F. ) ;
#640 = CARTESIAN_POINT ( 'NONE',  ( 0.1249999999999997363, -0.01000000000000000021, 0.1250000000000000555 ) ) ;
#641 = COLOUR_RGB ( '',0.6666666666666666297, 0.6980392156862744724, 0.7686274509803920907 ) ;
#642 = ORIENTED_EDGE ( 'NONE', *, *, #85, .F. ) ;
#643 = FACE_OUTER_BOUND ( 'NONE', #883, .T. ) ;
#644 = CARTESIAN_POINT ( 'NONE',  ( -0.5250000000000002442, 0.000000000000000000, 0.1250000000000000000 ) ) ;
#645 = ADVANCED_FACE ( 'NONE', ( #42 ), #1074, .F. ) ;
#646 = CARTESIAN_POINT ( 'NONE',  ( -0.5000000000000002220, 0.000000000000000000, -0.5249999999999999112 ) ) ;
#647 = DIRECTION ( 'NONE',  ( 0.000000000000000000, 0.000000000000000000, 1.000000000000000000 ) ) ;
#648 =( LENGTH_UNIT ( ) NAMED_UNIT ( * ) SI_UNIT ( .MILLI., .METRE. ) );
#649 = CARTESIAN_POINT ( 'NONE',  ( -0.7250000000000001998, 0.4859999999999999876, 0.7250000000000000888 ) ) ;
#650 =( GEOMETRIC_REPRESENTATION_CONTEXT ( 3 ) GLOBAL_UNCERTAINTY_ASSIGNED_CONTEXT ( ( #365 ) ) GLOBAL_UNIT_ASSIGNED_CONTEXT ( ( #196, #1299, #183 ) ) REPRESENTATION_CONTEXT ( 'NONE', 'WORKASPACE' ) );
#651 = PRESENTATION_LAYER_ASSIGNMENT (  '', '', ( #479 ) ) ;
#652 = PRESENTATION_STYLE_ASSIGNMENT (( #1159 ) ) ;
#653 = CARTESIAN_POINT ( 'NONE',  ( 0.4749999999999998113, -0.01000000000000000021, -0.5250000000000000222 ) ) ;
#654 = DIRECTION ( 'NONE',  ( 0.000000000000000000, 1.000000000000000000, 0.000000000000000000 ) ) ;
#655 = SURFACE_SIDE_STYLE ('',( #1057 ) ) ;
#656 = DIRECTION ( 'NONE',  ( 0.000000000000000000, 0.000000000000000000, -1.000000000000000000 ) ) ;
#657 = STYLED_ITEM ( 'NONE', ( #1302 ), #124 ) ;
#658 = FACE_OUTER_BOUND ( 'NONE', #814, .T. ) ;
#659 = ADVANCED_FACE ( 'NONE', ( #763 ), #126, .F. ) ;
#660 = FACE_OUTER_BOUND ( 'NONE', #590, .T. ) ;
#661 = EDGE_LOOP ( 'NONE', ( #944, #1102, #891, #771 ) ) ;
#662 = CARTESIAN_POINT ( 'NONE',  ( 0.1249999999999997363, -0.01000000000000000021, 0.1250000000000000555 ) ) ;
#663 = CARTESIAN_POINT ( 'NONE',  ( -0.5822321858220543822, 0.4849999999999999867, 0.6349380450127461994 ) ) ;
#664 = EDGE_CURVE ( 'NONE', #168, #886, #448, .T. ) ;
#665 = SURFACE_STYLE_FILL_AREA ( #1179 ) ;
#666 = EDGE_CURVE ( 'NONE', #426, #307, #236, .T. ) ;
#667 = VERTEX_POINT ( 'NONE', #464 ) ;
#668 = AXIS2_PLACEMENT_3D ( 'NONE', #2, #1027, #96 ) ;
#669 = AXIS2_PLACEMENT_3D ( 'NONE', #193, #418, #200 ) ;
#670 = DIRECTION ( 'NONE',  ( -0.000000000000000000, -1.000000000000000000, -0.000000000000000000 ) ) ;
#671 = UNCERTAINTY_MEASURE_WITH_UNIT (LENGTH_MEASURE( 1.000000000000000082E-05 ), #329, 'distance_accuracy_value', 'NONE');
#672 = ORIENTED_EDGE ( 'NONE', *, *, #85, .T. ) ;
#673 = PLANE ( 'NONE',  #1119 ) ;
#674 = DIRECTION ( 'NONE',  ( 1.000000000000000000, 0.000000000000000000, -0.000000000000000000 ) ) ;
#675 = VECTOR ( 'NONE', #246, 1000.000000000000000 ) ;
#676 = VERTEX_POINT ( 'NONE', #1290 ) ;
#677 = ORIENTED_EDGE ( 'NONE', *, *, #164, .F. ) ;
#678 = FILL_AREA_STYLE ('',( #497 ) ) ;
#679 = CLOSED_SHELL ( 'NONE', ( #1281, #1036, #622, #385, #1331, #869, #586, #41, #97 ) ) ;
#680 = ORIENTED_EDGE ( 'NONE', *, *, #666, .F. ) ;
#681 = UNCERTAINTY_MEASURE_WITH_UNIT (LENGTH_MEASURE( 1.000000000000000082E-05 ), #231, 'distance_accuracy_value', 'NONE');
#682 = EDGE_CURVE ( 'NONE', #1188, #577, #1189, .T. ) ;
#683 = DIRECTION ( 'NONE',  ( 1.000000000000000000, 0.000000000000000000, 0.000000000000000000 ) ) ;
#684 = EDGE_LOOP ( 'NONE', ( #192, #174, #1336, #1278 ) ) ;
#685 = DIRECTION ( 'NONE',  ( -1.000000000000000000, 0.000000000000000000, -0.000000000000000000 ) ) ;
#686 = SURFACE_STYLE_USAGE ( .BOTH. , #1313 ) ;
#687 = VERTEX_POINT ( 'NONE', #366 ) ;
#688 = VECTOR ( 'NONE', #835, 1000.000000000000000 ) ;
#689 = COLOUR_RGB ( '',0.6666666666666666297, 0.6980392156862744724, 0.7686274509803920907 ) ;
#690 = VECTOR ( 'NONE', #209, 1000.000000000000000 ) ;
#691 = ORIENTED_EDGE ( 'NONE', *, *, #551, .F. ) ;
#692 = LINE ( 'NONE', #1113, #819 ) ;
#693 = SURFACE_STYLE_FILL_AREA ( #810 ) ;
#694 = ORIENTED_EDGE ( 'NONE', *, *, #1185, .F. ) ;
#695 = PRESENTATION_STYLE_ASSIGNMENT (( #895 ) ) ;
#696 = VERTEX_POINT ( 'NONE', #770 ) ;
#697 = PRESENTATION_STYLE_ASSIGNMENT (( #190 ) ) ;
#698 = EDGE_CURVE ( 'NONE', #862, #1295, #195, .T. ) ;
#699 = LINE ( 'NONE', #505, #24 ) ;
#700 = VECTOR ( 'NONE', #1157, 1000.000000000000000 ) ;
#701 = MECHANICAL_DESIGN_GEOMETRIC_PRESENTATION_REPRESENTATION (  '', ( #832 ), #1005 ) ;
#702 = CARTESIAN_POINT ( 'NONE',  ( -0.5250000000000002442, 0.000000000000000000, 0.4749999999999999223 ) ) ;
#703 = AXIS2_PLACEMENT_3D ( 'NONE', #1006, #75, #992 ) ;
#704 = ORIENTED_EDGE ( 'NONE', *, *, #114, .T. ) ;
#705 = FILL_AREA_STYLE ('',( #1094 ) ) ;
#706 = DIRECTION ( 'NONE',  ( -1.000000000000000000, 0.000000000000000000, 0.000000000000000000 ) ) ;
#707 = EDGE_CURVE ( 'NONE', #1112, #582, #1062, .T. ) ;
#708 = ORIENTED_EDGE ( 'NONE', *, *, #963, .F. ) ;
#709 = FACE_OUTER_BOUND ( 'NONE', #902, .T. ) ;
#710 = ORIENTED_EDGE ( 'NONE', *, *, #914, .T. ) ;
#711 = AXIS2_PLACEMENT_3D ( 'NONE', #803, #175, #685 ) ;
#712 = VECTOR ( 'NONE', #1029, 1000.000000000000000 ) ;
#713 = DIRECTION ( 'NONE',  ( 0.000000000000000000, 1.000000000000000000, 0.000000000000000000 ) ) ;
#714 = ORIENTED_EDGE ( 'NONE', *, *, #78, .T. ) ;
#715 = CARTESIAN_POINT ( 'NONE',  ( -0.7250000000000001998, 0.1401000000000000023, 0.7250000000000000888 ) ) ;
#716 = EDGE_LOOP ( 'NONE', ( #257, #1026, #620, #933 ) ) ;
#717 = FACE_OUTER_BOUND ( 'NONE', #900, .T. ) ;
#718 = CARTESIAN_POINT ( 'NONE',  ( -0.5822321858220543822, 0.4859999999999999876, 0.5849380450127461550 ) ) ;
#719 = CARTESIAN_POINT ( 'NONE',  ( -0.7250000000000001998, 0.1399999999999999856, 0.7250000000000000888 ) ) ;
#720 = FACE_OUTER_BOUND ( 'NONE', #189, .T. ) ;
#721 =( GEOMETRIC_REPRESENTATION_CONTEXT ( 3 ) GLOBAL_UNCERTAINTY_ASSIGNED_CONTEXT ( ( #1090 ) ) GLOBAL_UNIT_ASSIGNED_CONTEXT ( ( #858, #560, #1270 ) ) REPRESENTATION_CONTEXT ( 'NONE', 'WORKASPACE' ) );
#722 = CARTESIAN_POINT ( 'NONE',  ( -0.3250000000000002887, 0.000000000000000000, -0.5249999999999999112 ) ) ;
#723 = PRESENTATION_LAYER_ASSIGNMENT (  '', '', ( #1163 ) ) ;
#724 = EDGE_CURVE ( 'NONE', #37, #273, #550, .T. ) ;
#725 = VERTEX_POINT ( 'NONE', #849 ) ;
#726 = FACE_OUTER_BOUND ( 'NONE', #1329, .T. ) ;
#727 = CARTESIAN_POINT ( 'NONE',  ( -0.7250000000000001998, 0.000000000000000000, -0.7249999999999998668 ) ) ;
#728 = CARTESIAN_POINT ( 'NONE',  ( 0.1249999999999995143, -0.01000000000000000021, -0.1749999999999999611 ) ) ;
#729 = EDGE_LOOP ( 'NONE', ( #708, #1239 ) ) ;
#730 = DIRECTION ( 'NONE',  ( 0.000000000000000000, 0.000000000000000000, 1.000000000000000000 ) ) ;
#731 = MECHANICAL_DESIGN_GEOMETRIC_PRESENTATION_REPRESENTATION (  '', ( #240 ), #1192 ) ;
#732 = VECTOR ( 'NONE', #29, 1000.000000000000000 ) ;
#733 = DIRECTION ( 'NONE',  ( 0.000000000000000000, 0.000000000000000000, 1.000000000000000000 ) ) ;
#734 = DIRECTION ( 'NONE',  ( -1.000000000000000000, 0.000000000000000000, 0.000000000000000000 ) ) ;
#735 = CARTESIAN_POINT ( 'NONE',  ( -0.5000000000000002220, -0.01000000000000000021, -0.1749999999999998779 ) ) ;
#736 = CARTESIAN_POINT ( 'NONE',  ( -0.5000000000000002220, 0.000000000000000000, -0.5249999999999999112 ) ) ;
#737 = EDGE_LOOP ( 'NONE', ( #762, #103, #1298, #108 ) ) ;
#738 = CARTESIAN_POINT ( 'NONE',  ( -0.1500000000000002720, -0.01000000000000000021, -0.3499999999999999223 ) ) ;
#739 =( NAMED_UNIT ( * ) SI_UNIT ( $, .STERADIAN. ) SOLID_ANGLE_UNIT ( ) );
#740 = DIRECTION ( 'NONE',  ( -0.000000000000000000, 1.000000000000000000, -0.000000000000000000 ) ) ;
#741 = ADVANCED_FACE ( 'NONE', ( #356 ), #132, .F. ) ;
#742 = DIRECTION ( 'NONE',  ( -0.000000000000000000, -1.000000000000000000, -0.000000000000000000 ) ) ;
#743 = DIRECTION ( 'NONE',  ( 0.000000000000000000, 0.000000000000000000, -1.000000000000000000 ) ) ;
#744 = VECTOR ( 'NONE', #1277, 1000.000000000000000 ) ;
#745 = DIRECTION ( 'NONE',  ( 0.000000000000000000, -0.000000000000000000, -1.000000000000000000 ) ) ;
#746 = LINE ( 'NONE', #1085, #878 ) ;
#747 = DIRECTION ( 'NONE',  ( -0.000000000000000000, 1.000000000000000000, -0.000000000000000000 ) ) ;
#748 = FACE_BOUND ( 'NONE', #729, .T. ) ;
#749 = EDGE_CURVE ( 'NONE', #615, #785, #72, .T. ) ;
#750 =( NAMED_UNIT ( * ) PLANE_ANGLE_UNIT ( ) SI_UNIT ( $, .RADIAN. ) );
#751 = DIRECTION ( 'NONE',  ( -0.000000000000000000, -0.000000000000000000, -1.000000000000000000 ) ) ;
#752 = STYLED_ITEM ( 'NONE', ( #697 ), #445 ) ;
#753 = AXIS2_PLACEMENT_3D ( 'NONE', #600, #165, #480 ) ;
#754 = SURFACE_SIDE_STYLE ('',( #958 ) ) ;
#755 = VECTOR ( 'NONE', #747, 1000.000000000000000 ) ;
#756 = PLANE ( 'NONE',  #955 ) ;
#757 = ADVANCED_FACE ( 'NONE', ( #1220, #779, #998, #1083, #791 ), #988, .T. ) ;
#758 = DIRECTION ( 'NONE',  ( 0.000000000000000000, -1.000000000000000000, 0.000000000000000000 ) ) ;
#759 = ORIENTED_EDGE ( 'NONE', *, *, #979, .T. ) ;
#760 = DIRECTION ( 'NONE',  ( -1.000000000000000000, -0.000000000000000000, -0.000000000000000000 ) ) ;
#761 = APPLICATION_PROTOCOL_DEFINITION ( 'draft international standard', 'automotive_design', 1998, #389 ) ;
#762 = ORIENTED_EDGE ( 'NONE', *, *, #859, .T. ) ;
#763 = FACE_OUTER_BOUND ( 'NONE', #442, .T. ) ;
#764 = EDGE_CURVE ( 'NONE', #273, #57, #1216, .T. ) ;
#765 = DIRECTION ( 'NONE',  ( 0.000000000000000000, 0.000000000000000000, -1.000000000000000000 ) ) ;
#766 = ADVANCED_FACE ( 'NONE', ( #980 ), #55, .F. ) ;
#767 = CARTESIAN_POINT ( 'NONE',  ( 0.7249999999999997558, 0.1401000000000000023, 0.7250000000000000888 ) ) ;
#768 = ORIENTED_EDGE ( 'NONE', *, *, #532, .F. ) ;
#769 = SURFACE_STYLE_FILL_AREA ( #591 ) ;
#770 = CARTESIAN_POINT ( 'NONE',  ( 0.1249999999999995143, 0.000000000000000000, -0.1749999999999999611 ) ) ;
#771 = ORIENTED_EDGE ( 'NONE', *, *, #989, .T. ) ;
#772 = FILL_AREA_STYLE ('',( #128 ) ) ;
#773 = CARTESIAN_POINT ( 'NONE',  ( -0.1500000000000002720, 0.000000000000000000, -0.3499999999999999223 ) ) ;
#774 = LINE ( 'NONE', #964, #580 ) ;
#775 = ORIENTED_EDGE ( 'NONE', *, *, #135, .F. ) ;
#776 = VECTOR ( 'NONE', #826, 1000.000000000000000 ) ;
#777 = SURFACE_SIDE_STYLE ('',( #1296 ) ) ;
#778 = UNCERTAINTY_MEASURE_WITH_UNIT (LENGTH_MEASURE( 1.000000000000000082E-05 ), #437, 'distance_accuracy_value', 'NONE');
#779 = FACE_BOUND ( 'NONE', #1210, .T. ) ;
#780 = EDGE_LOOP ( 'NONE', ( #1070, #970, #528, #552 ) ) ;
#781 = FACE_OUTER_BOUND ( 'NONE', #1314, .T. ) ;
#782 = ADVANCED_FACE ( 'NONE', ( #1305 ), #1205, .F. ) ;
#783 = ORIENTED_EDGE ( 'NONE', *, *, #288, .T. ) ;
#784 = FILL_AREA_STYLE ('',( #381 ) ) ;
#785 = VERTEX_POINT ( 'NONE', #833 ) ;
#786 = DIRECTION ( 'NONE',  ( 1.000000000000000000, 0.000000000000000000, 0.000000000000000000 ) ) ;
#787 = STYLED_ITEM ( 'NONE', ( #652 ), #59 ) ;
#788 = FACE_OUTER_BOUND ( 'NONE', #661, .T. ) ;
#789 = FACE_OUTER_BOUND ( 'NONE', #493, .T. ) ;
#790 = PRODUCT_DEFINITION ( 'UNKNOWN', '', #485, #54 ) ;
#791 = FACE_BOUND ( 'NONE', #1012, .T. ) ;
#792 = ORIENTED_EDGE ( 'NONE', *, *, #368, .T. ) ;
#793 = CARTESIAN_POINT ( 'NONE',  ( -0.1500000000000002720, -0.01000000000000000021, -0.3499999999999999223 ) ) ;
#794 =( LENGTH_UNIT ( ) NAMED_UNIT ( * ) SI_UNIT ( .MILLI., .METRE. ) );
#795 = ORIENTED_EDGE ( 'NONE', *, *, #764, .F. ) ;
#796 = LINE ( 'NONE', #294, #1108 ) ;
#797 = VECTOR ( 'NONE', #1011, 1000.000000000000000 ) ;
#798 = VECTOR ( 'NONE', #561, 1000.000000000000000 ) ;
#799 = CARTESIAN_POINT ( 'NONE',  ( -0.7250000000000001998, 0.4859999999999999876, -0.7249999999999998668 ) ) ;
#800 = PRESENTATION_LAYER_ASSIGNMENT (  '', '', ( #504 ) ) ;
#801 = EDGE_CURVE ( 'NONE', #412, #1008, #818, .T. ) ;
#802 = ORIENTED_EDGE ( 'NONE', *, *, #1293, .F. ) ;
#803 = CARTESIAN_POINT ( 'NONE',  ( -0.5250000000000002442, -0.01000000000000000021, 0.4749999999999999223 ) ) ;
#804 = PRESENTATION_STYLE_ASSIGNMENT (( #898 ) ) ;
#805 = ORIENTED_EDGE ( 'NONE', *, *, #1101, .F. ) ;
#806 = CARTESIAN_POINT ( 'NONE',  ( -0.5000000000000002220, 0.000000000000000000, -0.1749999999999998779 ) ) ;
#807 =( NAMED_UNIT ( * ) PLANE_ANGLE_UNIT ( ) SI_UNIT ( $, .RADIAN. ) );
#808 = EDGE_LOOP ( 'NONE', ( #1183, #714, #1117, #471, #1202 ) ) ;
#809 = ADVANCED_FACE ( 'NONE', ( #709 ), #1245, .F. ) ;
#810 = FILL_AREA_STYLE ('',( #1121 ) ) ;
#811 = LINE ( 'NONE', #1137, #700 ) ;
#812 = LINE ( 'NONE', #722, #177 ) ;
#813 = ADVANCED_BREP_SHAPE_REPRESENTATION ( 'RR123-1H02-612', ( #255, #1066, #374 ), #846 ) ;
#814 = EDGE_LOOP ( 'NONE', ( #386, #633, #768, #162 ) ) ;
#815 = SURFACE_STYLE_FILL_AREA ( #678 ) ;
#816 = FILL_AREA_STYLE_COLOUR ( '', #256 ) ;
#817 = ORIENTED_EDGE ( 'NONE', *, *, #508, .F. ) ;
#818 = LINE ( 'NONE', #715, #993 ) ;
#819 = VECTOR ( 'NONE', #87, 1000.000000000000000 ) ;
#820 = ORIENTED_EDGE ( 'NONE', *, *, #551, .T. ) ;
#821 = DIRECTION ( 'NONE',  ( -0.000000000000000000, -0.000000000000000000, -1.000000000000000000 ) ) ;
#822 = STYLED_ITEM ( 'NONE', ( #340 ), #417 ) ;
#823 = MECHANICAL_DESIGN_GEOMETRIC_PRESENTATION_REPRESENTATION (  '', ( #935 ), #482 ) ;
#824 =( NAMED_UNIT ( * ) PLANE_ANGLE_UNIT ( ) SI_UNIT ( $, .RADIAN. ) );
#825 = FACE_OUTER_BOUND ( 'NONE', #318, .T. ) ;
#826 = DIRECTION ( 'NONE',  ( -0.000000000000000000, -0.000000000000000000, -1.000000000000000000 ) ) ;
#827 = EDGE_LOOP ( 'NONE', ( #834, #387, #450, #922 ) ) ;
#828 = CARTESIAN_POINT ( 'NONE',  ( -0.5000000000000002220, -0.01000000000000000021, -0.5249999999999999112 ) ) ;
#829 = CARTESIAN_POINT ( 'NONE',  ( -0.5822321858220543822, 0.4849999999999999867, 0.5849380450127461550 ) ) ;
#830 = LINE ( 'NONE', #1242, #1195 ) ;
#831 = CYLINDRICAL_SURFACE ( 'NONE', #1289, 0.05000000000000002359 ) ;
#832 = STYLED_ITEM ( 'NONE', ( #1322 ), #14 ) ;
#833 = CARTESIAN_POINT ( 'NONE',  ( -0.7250000000000001998, 0.4859999999999999876, -0.7249999999999998668 ) ) ;
#834 = ORIENTED_EDGE ( 'NONE', *, *, #1161, .T. ) ;
#835 = DIRECTION ( 'NONE',  ( -0.000000000000000000, -0.000000000000000000, -1.000000000000000000 ) ) ;
#836 = LINE ( 'NONE', #524, #1343 ) ;
#837 = DIRECTION ( 'NONE',  ( 0.000000000000000000, -0.000000000000000000, 1.000000000000000000 ) ) ;
#838 =( NAMED_UNIT ( * ) PLANE_ANGLE_UNIT ( ) SI_UNIT ( $, .RADIAN. ) );
#839 = ORIENTED_EDGE ( 'NONE', *, *, #428, .F. ) ;
#840 = LINE ( 'NONE', #738, #216 ) ;
#841 = EDGE_CURVE ( 'NONE', #396, #868, #925, .T. ) ;
#842 =( GEOMETRIC_REPRESENTATION_CONTEXT ( 3 ) GLOBAL_UNCERTAINTY_ASSIGNED_CONTEXT ( ( #380 ) ) GLOBAL_UNIT_ASSIGNED_CONTEXT ( ( #648, #261, #1190 ) ) REPRESENTATION_CONTEXT ( 'NONE', 'WORKASPACE' ) );
#843 = MECHANICAL_DESIGN_GEOMETRIC_PRESENTATION_REPRESENTATION (  '', ( #479 ), #1146 ) ;
#844 = DIRECTION ( 'NONE',  ( -0.000000000000000000, 1.000000000000000000, -0.000000000000000000 ) ) ;
#845 = LINE ( 'NONE', #727, #101 ) ;
#846 =( GEOMETRIC_REPRESENTATION_CONTEXT ( 3 ) GLOBAL_UNCERTAINTY_ASSIGNED_CONTEXT ( ( #275 ) ) GLOBAL_UNIT_ASSIGNED_CONTEXT ( ( #467, #579, #1186 ) ) REPRESENTATION_CONTEXT ( 'NONE', 'WORKASPACE' ) );
#847 = SURFACE_SIDE_STYLE ('',( #1340 ) ) ;
#848 = DIRECTION ( 'NONE',  ( 1.000000000000000000, 0.000000000000000000, 0.000000000000000000 ) ) ;
#849 = CARTESIAN_POINT ( 'NONE',  ( -0.1750000000000003220, 0.000000000000000000, 0.4749999999999999223 ) ) ;
#850 = ORIENTED_EDGE ( 'NONE', *, *, #1152, .T. ) ;
#851 = EDGE_CURVE ( 'NONE', #1213, #667, #107, .T. ) ;
#852 = CARTESIAN_POINT ( 'NONE',  ( 0.1249999999999997363, -0.01000000000000000021, 0.4750000000000000333 ) ) ;
#853 = DIRECTION ( 'NONE',  ( 0.000000000000000000, 0.000000000000000000, 1.000000000000000000 ) ) ;
#854 = STYLED_ITEM ( 'NONE', ( #1002 ), #224 ) ;
#855 = VERTEX_POINT ( 'NONE', #702 ) ;
#856 = DIRECTION ( 'NONE',  ( 1.000000000000000000, 0.000000000000000000, -0.000000000000000000 ) ) ;
#857 = CARTESIAN_POINT ( 'NONE',  ( -0.5250000000000002442, -0.01000000000000000021, 0.1250000000000000000 ) ) ;
#858 =( LENGTH_UNIT ( ) NAMED_UNIT ( * ) SI_UNIT ( .MILLI., .METRE. ) );
#859 = EDGE_CURVE ( 'NONE', #1229, #577, #812, .T. ) ;
#860 = LINE ( 'NONE', #653, #1230 ) ;
#861 = CARTESIAN_POINT ( 'NONE',  ( 0.1249999999999995143, -0.01000000000000000021, -0.1749999999999999611 ) ) ;
#862 = VERTEX_POINT ( 'NONE', #1123 ) ;
#863 = FACE_OUTER_BOUND ( 'NONE', #1003, .T. ) ;
#864 =( LENGTH_UNIT ( ) NAMED_UNIT ( * ) SI_UNIT ( .MILLI., .METRE. ) );
#865 = VECTOR ( 'NONE', #1054, 1000.000000000000000 ) ;
#866 = DIRECTION ( 'NONE',  ( 0.000000000000000000, -0.000000000000000000, 1.000000000000000000 ) ) ;
#867 = VECTOR ( 'NONE', #7, 1000.000000000000000 ) ;
#868 = VERTEX_POINT ( 'NONE', #609 ) ;
#869 = ADVANCED_FACE ( 'NONE', ( #325 ), #94, .F. ) ;
#870 =( NAMED_UNIT ( * ) PLANE_ANGLE_UNIT ( ) SI_UNIT ( $, .RADIAN. ) );
#871 = DIRECTION ( 'NONE',  ( 0.000000000000000000, 0.000000000000000000, -1.000000000000000000 ) ) ;
#872 = DIRECTION ( 'NONE',  ( 1.000000000000000000, 0.000000000000000000, -0.000000000000000000 ) ) ;
#873 = DIRECTION ( 'NONE',  ( -1.000000000000000000, -0.000000000000000000, -0.000000000000000000 ) ) ;
#874 = ORIENTED_EDGE ( 'NONE', *, *, #144, .T. ) ;
#875 = LINE ( 'NONE', #1046, #953 ) ;
#876 = UNCERTAINTY_MEASURE_WITH_UNIT (LENGTH_MEASURE( 1.000000000000000082E-05 ), #910, 'distance_accuracy_value', 'NONE');
#877 = CARTESIAN_POINT ( 'NONE',  ( 0.1249999999999995143, -0.01000000000000000021, -0.1749999999999999611 ) ) ;
#878 = VECTOR ( 'NONE', #161, 1000.000000000000000 ) ;
#879 = VERTEX_POINT ( 'NONE', #406 ) ;
#880 =( GEOMETRIC_REPRESENTATION_CONTEXT ( 3 ) GLOBAL_UNCERTAINTY_ASSIGNED_CONTEXT ( ( #388 ) ) GLOBAL_UNIT_ASSIGNED_CONTEXT ( ( #1236, #546, #99 ) ) REPRESENTATION_CONTEXT ( 'NONE', 'WORKASPACE' ) );
#881 = SURFACE_STYLE_FILL_AREA ( #444 ) ;
#882 = FILL_AREA_STYLE_COLOUR ( '', #138 ) ;
#883 = EDGE_LOOP ( 'NONE', ( #759, #1087, #1255, #1010 ) ) ;
#884 = DIRECTION ( 'NONE',  ( -0.000000000000000000, 1.000000000000000000, -0.000000000000000000 ) ) ;
#885 =( NAMED_UNIT ( * ) SI_UNIT ( $, .STERADIAN. ) SOLID_ANGLE_UNIT ( ) );
#886 = VERTEX_POINT ( 'NONE', #728 ) ;
#887 = CARTESIAN_POINT ( 'NONE',  ( -0.7250000000000001998, 0.4859999999999999876, -0.7249999999999998668 ) ) ;
#888 = EDGE_CURVE ( 'NONE', #855, #1200, #1144, .T. ) ;
#889 = SURFACE_STYLE_USAGE ( .BOTH. , #1191 ) ;
#890 = LINE ( 'NONE', #767, #1160 ) ;
#891 = ORIENTED_EDGE ( 'NONE', *, *, #403, .T. ) ;
#892 = AXIS2_PLACEMENT_3D ( 'NONE', #367, #856, #476 ) ;
#893 = MECHANICAL_DESIGN_GEOMETRIC_PRESENTATION_REPRESENTATION (  '', ( #217 ), #392 ) ;
#894 =( NAMED_UNIT ( * ) PLANE_ANGLE_UNIT ( ) SI_UNIT ( $, .RADIAN. ) );
#895 = SURFACE_STYLE_USAGE ( .BOTH. , #48 ) ;
#896 = ORIENTED_EDGE ( 'NONE', *, *, #1228, .T. ) ;
#897 = SURFACE_STYLE_FILL_AREA ( #484 ) ;
#898 = SURFACE_STYLE_USAGE ( .BOTH. , #486 ) ;
#899 = EDGE_CURVE ( 'NONE', #465, #1112, #306, .T. ) ;
#900 = EDGE_LOOP ( 'NONE', ( #642, #67, #820, #694 ) ) ;
#901 = DIRECTION ( 'NONE',  ( 1.000000000000000000, 0.000000000000000000, 0.000000000000000000 ) ) ;
#902 = EDGE_LOOP ( 'NONE', ( #618, #79, #1024, #46 ) ) ;
#903 = FACE_OUTER_BOUND ( 'NONE', #1098, .T. ) ;
#904 = FACE_OUTER_BOUND ( 'NONE', #808, .T. ) ;
#905 = VERTEX_POINT ( 'NONE', #211 ) ;
#906 = LINE ( 'NONE', #371, #244 ) ;
#907 = EDGE_CURVE ( 'NONE', #400, #1008, #624, .T. ) ;
#908 =( NAMED_UNIT ( * ) PLANE_ANGLE_UNIT ( ) SI_UNIT ( $, .RADIAN. ) );
#909 = ORIENTED_EDGE ( 'NONE', *, *, #21, .F. ) ;
#910 =( LENGTH_UNIT ( ) NAMED_UNIT ( * ) SI_UNIT ( .MILLI., .METRE. ) );
#911 = SURFACE_STYLE_USAGE ( .BOTH. , #305 ) ;
#912 =( NAMED_UNIT ( * ) PLANE_ANGLE_UNIT ( ) SI_UNIT ( $, .RADIAN. ) );
#913 = VECTOR ( 'NONE', #1049, 1000.000000000000000 ) ;
#914 = EDGE_CURVE ( 'NONE', #496, #557, #860, .T. ) ;
#915 = DIRECTION ( 'NONE',  ( 0.000000000000000000, 0.000000000000000000, 1.000000000000000000 ) ) ;
#916 = COLOUR_RGB ( '',0.6666666666666666297, 0.6980392156862744724, 0.7686274509803920907 ) ;
#917 = EDGE_CURVE ( 'NONE', #352, #610, #258, .T. ) ;
#918 = ORIENTED_EDGE ( 'NONE', *, *, #533, .F. ) ;
#919 = SURFACE_STYLE_FILL_AREA ( #705 ) ;
#920 = CARTESIAN_POINT ( 'NONE',  ( 0.000000000000000000, -0.01000000000000000021, 0.000000000000000000 ) ) ;
#921 = SURFACE_STYLE_FILL_AREA ( #84 ) ;
#922 = ORIENTED_EDGE ( 'NONE', *, *, #851, .T. ) ;
#923 = VECTOR ( 'NONE', #346, 1000.000000000000000 ) ;
#924 = EDGE_LOOP ( 'NONE', ( #704, #607, #677, #370 ) ) ;
#925 = LINE ( 'NONE', #219, #712 ) ;
#926 = VECTOR ( 'NONE', #1063, 1000.000000000000000 ) ;
#927 = ORIENTED_EDGE ( 'NONE', *, *, #428, .T. ) ;
#928 = DIRECTION ( 'NONE',  ( -0.000000000000000000, 1.000000000000000000, -0.000000000000000000 ) ) ;
#929 = EDGE_CURVE ( 'NONE', #610, #1217, #549, .T. ) ;
#930 = CARTESIAN_POINT ( 'NONE',  ( -0.7250000000000001998, 0.4859999999999999876, 0.7250000000000000888 ) ) ;
#931 = PLANE ( 'NONE',  #399 ) ;
#932 =( LENGTH_UNIT ( ) NAMED_UNIT ( * ) SI_UNIT ( .MILLI., .METRE. ) );
#933 = ORIENTED_EDGE ( 'NONE', *, *, #1223, .F. ) ;
#934 = CARTESIAN_POINT ( 'NONE',  ( 0.4749999999999997558, -0.01000000000000000021, 0.1250000000000000555 ) ) ;
#935 = STYLED_ITEM ( 'NONE', ( #1198 ), #1066 ) ;
#936 = SURFACE_STYLE_USAGE ( .BOTH. , #228 ) ;
#937 = CARTESIAN_POINT ( 'NONE',  ( -0.5000000000000002220, 0.000000000000000000, -0.5249999999999999112 ) ) ;
#938 = ORIENTED_EDGE ( 'NONE', *, *, #1325, .F. ) ;
#939 = LINE ( 'NONE', #1136, #1341 ) ;
#940 = LINE ( 'NONE', #852, #167 ) ;
#941 = CYLINDRICAL_SURFACE ( 'NONE', #151, 0.05000000000000002359 ) ;
#942 = MECHANICAL_DESIGN_GEOMETRIC_PRESENTATION_REPRESENTATION (  '', ( #1067 ), #1243 ) ;
#943 = EDGE_CURVE ( 'NONE', #1326, #725, #875, .T. ) ;
#944 = ORIENTED_EDGE ( 'NONE', *, *, #1101, .T. ) ;
#945 = LINE ( 'NONE', #1165, #10 ) ;
#946 = SURFACE_STYLE_FILL_AREA ( #1041 ) ;
#947 = LINE ( 'NONE', #214, #867 ) ;
#948 = CARTESIAN_POINT ( 'NONE',  ( -0.7250000000000001998, 0.1400000000000000133, -0.7250000000000000888 ) ) ;
#949 =( LENGTH_UNIT ( ) NAMED_UNIT ( * ) SI_UNIT ( .MILLI., .METRE. ) );
#950 = ORIENTED_EDGE ( 'NONE', *, *, #1193, .T. ) ;
#951 = FILL_AREA_STYLE ('',( #961 ) ) ;
#952 = ADVANCED_FACE ( 'NONE', ( #1181 ), #965, .F. ) ;
#953 = VECTOR ( 'NONE', #1061, 1000.000000000000000 ) ;
#954 = LINE ( 'NONE', #15, #1214 ) ;
#955 = AXIS2_PLACEMENT_3D ( 'NONE', #1266, #743, #1162 ) ;
#956 = FILL_AREA_STYLE ('',( #518 ) ) ;
#957 = SURFACE_STYLE_USAGE ( .BOTH. , #1154 ) ;
#958 = SURFACE_STYLE_FILL_AREA ( #137 ) ;
#959 = FACE_OUTER_BOUND ( 'NONE', #1122, .T. ) ;
#960 = STYLED_ITEM ( 'NONE', ( #16 ), #28 ) ;
#961 = FILL_AREA_STYLE_COLOUR ( '', #121 ) ;
#962 = ORIENTED_EDGE ( 'NONE', *, *, #917, .F. ) ;
#963 = EDGE_CURVE ( 'NONE', #879, #1247, #409, .T. ) ;
#964 = CARTESIAN_POINT ( 'NONE',  ( -0.1750000000000003220, -0.01000000000000000021, 0.1250000000000000000 ) ) ;
#965 = PLANE ( 'NONE',  #61 ) ;
#966 = CARTESIAN_POINT ( 'NONE',  ( -0.7250000000000001998, 0.1400000000000000411, -0.7249999999999998668 ) ) ;
#967 = PLANE ( 'NONE',  #892 ) ;
#968 = DIRECTION ( 'NONE',  ( -0.000000000000000000, 0.000000000000000000, -1.000000000000000000 ) ) ;
#969 = MECHANICAL_DESIGN_GEOMETRIC_PRESENTATION_REPRESENTATION (  '', ( #504 ), #570 ) ;
#970 = ORIENTED_EDGE ( 'NONE', *, *, #899, .F. ) ;
#971 = CARTESIAN_POINT ( 'NONE',  ( 0.1249999999999995143, -0.01000000000000000021, -0.5250000000000000222 ) ) ;
#972 =( LENGTH_UNIT ( ) NAMED_UNIT ( * ) SI_UNIT ( .MILLI., .METRE. ) );
#973 = SURFACE_STYLE_USAGE ( .BOTH. , #655 ) ;
#974 = PRODUCT_DEFINITION_SHAPE ( 'NONE', 'NONE',  #790 ) ;
#975 = DIRECTION ( 'NONE',  ( 0.000000000000000000, 0.000000000000000000, -1.000000000000000000 ) ) ;
#976 = ORIENTED_EDGE ( 'NONE', *, *, #38, .F. ) ;
#977 = DIRECTION ( 'NONE',  ( 0.000000000000000000, 0.000000000000000000, 1.000000000000000000 ) ) ;
#978 = UNCERTAINTY_MEASURE_WITH_UNIT (LENGTH_MEASURE( 1.000000000000000082E-05 ), #972, 'distance_accuracy_value', 'NONE');
#979 = EDGE_CURVE ( 'NONE', #1221, #1229, #9, .T. ) ;
#980 = FACE_OUTER_BOUND ( 'NONE', #737, .T. ) ;
#981 = COLOUR_RGB ( '',0.6666666666666666297, 0.6980392156862744724, 0.7686274509803920907 ) ;
#982 = ORIENTED_EDGE ( 'NONE', *, *, #929, .T. ) ;
#983 = AXIS2_PLACEMENT_3D ( 'NONE', #284, #186, #1328 ) ;
#984 = CARTESIAN_POINT ( 'NONE',  ( 0.1249999999999997363, 0.000000000000000000, 0.4750000000000000333 ) ) ;
#985 = MECHANICAL_DESIGN_GEOMETRIC_PRESENTATION_REPRESENTATION (  '', ( #854 ), #605 ) ;
#986 = ORIENTED_EDGE ( 'NONE', *, *, #1291, .F. ) ;
#987 = SURFACE_STYLE_USAGE ( .BOTH. , #777 ) ;
#988 = PLANE ( 'NONE',  #149 ) ;
#989 = EDGE_CURVE ( 'NONE', #994, #496, #331, .T. ) ;
#990 = ORIENTED_EDGE ( 'NONE', *, *, #907, .F. ) ;
#991 = CARTESIAN_POINT ( 'NONE',  ( -0.5250000000000002442, -0.01000000000000000021, 0.1250000000000000000 ) ) ;
#992 = DIRECTION ( 'NONE',  ( 0.000000000000000000, -0.000000000000000000, 1.000000000000000000 ) ) ;
#993 = VECTOR ( 'NONE', #614, 1000.000000000000000 ) ;
#994 = VERTEX_POINT ( 'NONE', #39 ) ;
#995 = VECTOR ( 'NONE', #1042, 1000.000000000000000 ) ;
#996 = LINE ( 'NONE', #264, #1015 ) ;
#997 = UNCERTAINTY_MEASURE_WITH_UNIT (LENGTH_MEASURE( 1.000000000000000082E-05 ), #494, 'distance_accuracy_value', 'NONE');
#998 = FACE_BOUND ( 'NONE', #160, .T. ) ;
#999 = ORIENTED_EDGE ( 'NONE', *, *, #288, .F. ) ;
#1000 = DIRECTION ( 'NONE',  ( -0.000000000000000000, -1.000000000000000000, -0.000000000000000000 ) ) ;
#1001 = EDGE_CURVE ( 'NONE', #506, #1221, #462, .T. ) ;
#1002 = PRESENTATION_STYLE_ASSIGNMENT (( #686 ) ) ;
#1003 = EDGE_LOOP ( 'NONE', ( #535, #691, #802, #1206 ) ) ;
#1004 = EDGE_LOOP ( 'NONE', ( #182, #155, #795, #312 ) ) ;
#1005 =( GEOMETRIC_REPRESENTATION_CONTEXT ( 3 ) GLOBAL_UNCERTAINTY_ASSIGNED_CONTEXT ( ( #286 ) ) GLOBAL_UNIT_ASSIGNED_CONTEXT ( ( #1133, #198, #298 ) ) REPRESENTATION_CONTEXT ( 'NONE', 'WORKASPACE' ) );
#1006 = CARTESIAN_POINT ( 'NONE',  ( 0.000000000000000000, -0.01000000000000000021, 0.000000000000000000 ) ) ;
#1007 = ADVANCED_FACE ( 'NONE', ( #959 ), #18, .F. ) ;
#1008 = VERTEX_POINT ( 'NONE', #343 ) ;
#1009 = CARTESIAN_POINT ( 'NONE',  ( -0.3250000000000002887, -0.01000000000000000021, -0.5249999999999999112 ) ) ;
#1010 = ORIENTED_EDGE ( 'NONE', *, *, #328, .T. ) ;
#1011 = DIRECTION ( 'NONE',  ( 0.000000000000000000, 0.000000000000000000, 1.000000000000000000 ) ) ;
#1012 = EDGE_LOOP ( 'NONE', ( #11, #419, #1048, #976 ) ) ;
#1013 = VECTOR ( 'NONE', #915, 1000.000000000000000 ) ;
#1014 = CARTESIAN_POINT ( 'NONE',  ( 0.1249999999999995143, -0.01000000000000000021, -0.5250000000000000222 ) ) ;
#1015 = VECTOR ( 'NONE', #274, 1000.000000000000000 ) ;
#1016 = EDGE_LOOP ( 'NONE', ( #1344, #1307, #639, #295 ) ) ;
#1017 = SURFACE_SIDE_STYLE ('',( #897 ) ) ;
#1018 = PLANE ( 'NONE',  #983 ) ;
#1019 = PRESENTATION_STYLE_ASSIGNMENT (( #1038 ) ) ;
#1020 = ADVANCED_FACE ( 'NONE', ( #338 ), #756, .F. ) ;
#1021 = EDGE_LOOP ( 'NONE', ( #918, #1286, #1197, #179 ) ) ;
#1022 = CARTESIAN_POINT ( 'NONE',  ( -0.7250000000000001998, 0.1401000000000000301, -0.7784953394006464134 ) ) ;
#1023 = DIRECTION ( 'NONE',  ( -0.000000000000000000, 1.000000000000000000, -0.000000000000000000 ) ) ;
#1024 = ORIENTED_EDGE ( 'NONE', *, *, #989, .F. ) ;
#1025 = MECHANICAL_DESIGN_GEOMETRIC_PRESENTATION_REPRESENTATION (  '', ( #1163 ), #323 ) ;
#1026 = ORIENTED_EDGE ( 'NONE', *, *, #508, .T. ) ;
#1027 = DIRECTION ( 'NONE',  ( 0.000000000000000000, 1.000000000000000000, 0.000000000000000000 ) ) ;
#1028 = DIRECTION ( 'NONE',  ( 0.000000000000000000, 0.000000000000000000, 1.000000000000000000 ) ) ;
#1029 = DIRECTION ( 'NONE',  ( 1.000000000000000000, 0.000000000000000000, 0.000000000000000000 ) ) ;
#1030 = VECTOR ( 'NONE', #848, 1000.000000000000000 ) ;
#1031 = ORIENTED_EDGE ( 'NONE', *, *, #1080, .T. ) ;
#1032 = CARTESIAN_POINT ( 'NONE',  ( -0.7250000000000001998, 0.4859999999999999876, 0.7250000000000000888 ) ) ;
#1033 = VECTOR ( 'NONE', #670, 1000.000000000000000 ) ;
#1034 = LINE ( 'NONE', #537, #140 ) ;
#1035 = CARTESIAN_POINT ( 'NONE',  ( 0.1249999999999997363, -0.01000000000000000021, 0.4750000000000000333 ) ) ;
#1036 = ADVANCED_FACE ( 'NONE', ( #748, #242 ), #131, .F. ) ;
#1037 = DIRECTION ( 'NONE',  ( -1.000000000000000000, 0.000000000000000000, 0.000000000000000000 ) ) ;
#1038 = SURFACE_STYLE_USAGE ( .BOTH. , #1238 ) ;
#1039 = ORIENTED_EDGE ( 'NONE', *, *, #336, .T. ) ;
#1040 = DIRECTION ( 'NONE',  ( 1.000000000000000000, 0.000000000000000000, -0.000000000000000000 ) ) ;
#1041 = FILL_AREA_STYLE ('',( #1132 ) ) ;
#1042 = DIRECTION ( 'NONE',  ( 1.000000000000000000, 0.000000000000000000, 0.000000000000000000 ) ) ;
#1043 = CARTESIAN_POINT ( 'NONE',  ( -0.7250000000000001998, 0.4859999999999999876, 0.7250000000000000888 ) ) ;
#1044 = AXIS2_PLACEMENT_3D ( 'NONE', #617, #421, #203 ) ;
#1045 = COLOUR_RGB ( '',0.6666666666666666297, 0.6980392156862744724, 0.7686274509803920907 ) ;
#1046 = CARTESIAN_POINT ( 'NONE',  ( -0.1750000000000003220, 0.000000000000000000, 0.1250000000000000000 ) ) ;
#1047 = ADVANCED_FACE ( 'NONE', ( #789 ), #1288, .F. ) ;
#1048 = ORIENTED_EDGE ( 'NONE', *, *, #1263, .F. ) ;
#1049 = DIRECTION ( 'NONE',  ( -0.000000000000000000, -0.000000000000000000, -1.000000000000000000 ) ) ;
#1050 = SURFACE_SIDE_STYLE ('',( #635 ) ) ;
#1051 = DIRECTION ( 'NONE',  ( -0.000000000000000000, -1.000000000000000000, -0.000000000000000000 ) ) ;
#1052 = CARTESIAN_POINT ( 'NONE',  ( 0.1249999999999997363, -0.01000000000000000021, 0.4750000000000000333 ) ) ;
#1053 = PRESENTATION_LAYER_ASSIGNMENT (  '', '', ( #1249 ) ) ;
#1054 = DIRECTION ( 'NONE',  ( -0.000000000000000000, -1.000000000000000000, -0.000000000000000000 ) ) ;
#1055 = PRESENTATION_STYLE_ASSIGNMENT (( #441 ) ) ;
#1056 = MECHANICAL_DESIGN_GEOMETRIC_PRESENTATION_REPRESENTATION (  '', ( #481 ), #1231 ) ;
#1057 = SURFACE_STYLE_FILL_AREA ( #1173 ) ;
#1058 = DIRECTION ( 'NONE',  ( -0.000000000000000000, 1.000000000000000000, -0.000000000000000000 ) ) ;
#1059 = VECTOR ( 'NONE', #129, 1000.000000000000000 ) ;
#1060 = VECTOR ( 'NONE', #436, 1000.000000000000000 ) ;
#1061 = DIRECTION ( 'NONE',  ( 0.000000000000000000, 0.000000000000000000, 1.000000000000000000 ) ) ;
#1062 = LINE ( 'NONE', #147, #247 ) ;
#1063 = DIRECTION ( 'NONE',  ( -0.000000000000000000, 1.000000000000000000, -0.000000000000000000 ) ) ;
#1064 = SURFACE_SIDE_STYLE ('',( #665 ) ) ;
#1065 = CARTESIAN_POINT ( 'NONE',  ( -0.5822321858220543822, 0.4859999999999999876, 0.5849380450127461550 ) ) ;
#1066 = MANIFOLD_SOLID_BREP ( 'Cut-Extrude2', #679 ) ;
#1067 = STYLED_ITEM ( 'NONE', ( #453 ), #191 ) ;
#1068 = PRESENTATION_STYLE_ASSIGNMENT (( #12 ) ) ;
#1069 = COLOUR_RGB ( '',0.6666666666666666297, 0.6980392156862744724, 0.7686274509803920907 ) ;
#1070 = ORIENTED_EDGE ( 'NONE', *, *, #707, .F. ) ;
#1071 = SURFACE_STYLE_FILL_AREA ( #772 ) ;
#1072 = CARTESIAN_POINT ( 'NONE',  ( 0.000000000000000000, 0.000000000000000000, 0.000000000000000000 ) ) ;
#1073 = ORIENTED_EDGE ( 'NONE', *, *, #114, .F. ) ;
#1074 = PLANE ( 'NONE',  #562 ) ;
#1075 = AXIS2_PLACEMENT_3D ( 'NONE', #542, #654, #647 ) ;
#1076 = VECTOR ( 'NONE', #316, 1000.000000000000000 ) ;
#1077 = PRESENTATION_LAYER_ASSIGNMENT (  '', '', ( #568 ) ) ;
#1078 = CARTESIAN_POINT ( 'NONE',  ( 0.4749999999999998113, -0.01000000000000000021, -0.1749999999999999611 ) ) ;
#1079 = VECTOR ( 'NONE', #1279, 1000.000000000000000 ) ;
#1080 = EDGE_CURVE ( 'NONE', #725, #855, #996, .T. ) ;
#1081 = ORIENTED_EDGE ( 'NONE', *, *, #841, .T. ) ;
#1082 = CARTESIAN_POINT ( 'NONE',  ( 0.4749999999999998113, -0.01000000000000000021, -0.5250000000000000222 ) ) ;
#1083 = FACE_BOUND ( 'NONE', #70, .T. ) ;
#1084 = ORIENTED_EDGE ( 'NONE', *, *, #463, .T. ) ;
#1085 = CARTESIAN_POINT ( 'NONE',  ( -0.1750000000000003220, -0.01000000000000000021, 0.1250000000000000000 ) ) ;
#1086 = FACE_OUTER_BOUND ( 'NONE', #543, .T. ) ;
#1087 = ORIENTED_EDGE ( 'NONE', *, *, #1196, .F. ) ;
#1088 = EDGE_CURVE ( 'NONE', #905, #1188, #163, .T. ) ;
#1089 = PLANE ( 'NONE',  #1275 ) ;
#1090 = UNCERTAINTY_MEASURE_WITH_UNIT (LENGTH_MEASURE( 1.000000000000000082E-05 ), #858, 'distance_accuracy_value', 'NONE');
#1091 = EDGE_CURVE ( 'NONE', #785, #512, #364, .T. ) ;
#1092 = VECTOR ( 'NONE', #1285, 1000.000000000000000 ) ;
#1093 = ORIENTED_EDGE ( 'NONE', *, *, #1161, .F. ) ;
#1094 = FILL_AREA_STYLE_COLOUR ( '', #1145 ) ;
#1095 = CARTESIAN_POINT ( 'NONE',  ( -0.1750000000000003220, 0.000000000000000000, 0.1250000000000000000 ) ) ;
#1096 = PRESENTATION_LAYER_ASSIGNMENT (  '', '', ( #1244 ) ) ;
#1097 = DIRECTION ( 'NONE',  ( 0.000000000000000000, -0.000000000000000000, 1.000000000000000000 ) ) ;
#1098 = EDGE_LOOP ( 'NONE', ( #1031, #509, #1180, #391 ) ) ;
#1099 = COLOUR_RGB ( '',0.6666666666666666297, 0.6980392156862744724, 0.7686274509803920907 ) ;
#1100 = SURFACE_SIDE_STYLE ('',( #281 ) ) ;
#1101 = EDGE_CURVE ( 'NONE', #496, #168, #65, .T. ) ;
#1102 = ORIENTED_EDGE ( 'NONE', *, *, #664, .T. ) ;
#1103 = LINE ( 'NONE', #887, #612 ) ;
#1104 = FILL_AREA_STYLE ('',( #816 ) ) ;
#1105 =( GEOMETRIC_REPRESENTATION_CONTEXT ( 3 ) GLOBAL_UNCERTAINTY_ASSIGNED_CONTEXT ( ( #876 ) ) GLOBAL_UNIT_ASSIGNED_CONTEXT ( ( #910, #169, #1125 ) ) REPRESENTATION_CONTEXT ( 'NONE', 'WORKASPACE' ) );
#1106 = VECTOR ( 'NONE', #355, 1000.000000000000000 ) ;
#1107 = ORIENTED_EDGE ( 'NONE', *, *, #888, .F. ) ;
#1108 = VECTOR ( 'NONE', #884, 1000.000000000000000 ) ;
#1109 = LINE ( 'NONE', #180, #525 ) ;
#1110 = UNCERTAINTY_MEASURE_WITH_UNIT (LENGTH_MEASURE( 1.000000000000000082E-05 ), #572, 'distance_accuracy_value', 'NONE');
#1111 = DIRECTION ( 'NONE',  ( -1.000000000000000000, -0.000000000000000000, -0.000000000000000000 ) ) ;
#1112 = VERTEX_POINT ( 'NONE', #47 ) ;
#1113 = CARTESIAN_POINT ( 'NONE',  ( -0.5250000000000002442, 0.000000000000000000, 0.1250000000000000000 ) ) ;
#1114 = EDGE_CURVE ( 'NONE', #1217, #73, #906, .T. ) ;
#1115 = ORIENTED_EDGE ( 'NONE', *, *, #1325, .T. ) ;
#1116 = DIRECTION ( 'NONE',  ( -0.000000000000000000, 1.000000000000000000, -0.000000000000000000 ) ) ;
#1117 = ORIENTED_EDGE ( 'NONE', *, *, #1134, .T. ) ;
#1118 = PRESENTATION_STYLE_ASSIGNMENT (( #1318 ) ) ;
#1119 = AXIS2_PLACEMENT_3D ( 'NONE', #248, #451, #765 ) ;
#1120 = AXIS2_PLACEMENT_3D ( 'NONE', #920, #404, #1097 ) ;
#1121 = FILL_AREA_STYLE_COLOUR ( '', #1069 ) ;
#1122 = EDGE_LOOP ( 'NONE', ( #839, #212, #850, #1260 ) ) ;
#1123 = CARTESIAN_POINT ( 'NONE',  ( -0.5822321858220543822, 0.4849999999999999867, 0.5349380450127461106 ) ) ;
#1124 = VERTEX_POINT ( 'NONE', #1315 ) ;
#1125 =( NAMED_UNIT ( * ) SI_UNIT ( $, .STERADIAN. ) SOLID_ANGLE_UNIT ( ) );
#1126 = LINE ( 'NONE', #511, #113 ) ;
#1127 = ORIENTED_EDGE ( 'NONE', *, *, #1293, .T. ) ;
#1128 = EDGE_CURVE ( 'NONE', #886, #696, #796, .T. ) ;
#1129 = PRESENTATION_LAYER_ASSIGNMENT (  '', '', ( #100 ) ) ;
#1130 = DIRECTION ( 'NONE',  ( 1.000000000000000000, 0.000000000000000000, 0.000000000000000000 ) ) ;
#1131 = ORIENTED_EDGE ( 'NONE', *, *, #474, .T. ) ;
#1132 = FILL_AREA_STYLE_COLOUR ( '', #166 ) ;
#1133 =( LENGTH_UNIT ( ) NAMED_UNIT ( * ) SI_UNIT ( .MILLI., .METRE. ) );
#1134 = EDGE_CURVE ( 'NONE', #1124, #595, #187, .T. ) ;
#1135 = ORIENTED_EDGE ( 'NONE', *, *, #1001, .T. ) ;
#1136 = CARTESIAN_POINT ( 'NONE',  ( -0.5822321858220543822, 0.4849999999999999867, 0.5349380450127461106 ) ) ;
#1137 = CARTESIAN_POINT ( 'NONE',  ( -0.5000000000000002220, -0.01000000000000000021, -0.5249999999999999112 ) ) ;
#1138 = MECHANICAL_DESIGN_GEOMETRIC_PRESENTATION_REPRESENTATION (  '', ( #657 ), #721 ) ;
#1139 = FILL_AREA_STYLE_COLOUR ( '', #981 ) ;
#1140 = ORIENTED_EDGE ( 'NONE', *, *, #963, .T. ) ;
#1141 = PLANE ( 'NONE',  #81 ) ;
#1142 = EDGE_CURVE ( 'NONE', #595, #905, #1109, .T. ) ;
#1143 = FACE_OUTER_BOUND ( 'NONE', #541, .T. ) ;
#1144 = LINE ( 'NONE', #527, #776 ) ;
#1145 = COLOUR_RGB ( '',0.6666666666666666297, 0.6980392156862744724, 0.7686274509803920907 ) ;
#1146 =( GEOMETRIC_REPRESENTATION_CONTEXT ( 3 ) GLOBAL_UNCERTAINTY_ASSIGNED_CONTEXT ( ( #584 ) ) GLOBAL_UNIT_ASSIGNED_CONTEXT ( ( #30, #807, #159 ) ) REPRESENTATION_CONTEXT ( 'NONE', 'WORKASPACE' ) );
#1147 = ORIENTED_EDGE ( 'NONE', *, *, #184, .F. ) ;
#1148 = CARTESIAN_POINT ( 'NONE',  ( 0.4749999999999998113, -0.01000000000000000021, -0.5250000000000000222 ) ) ;
#1149 = ADVANCED_FACE ( 'NONE', ( #77 ), #1089, .F. ) ;
#1150 = CARTESIAN_POINT ( 'NONE',  ( 0.4749999999999998113, 0.000000000000000000, -0.1749999999999999611 ) ) ;
#1151 = CARTESIAN_POINT ( 'NONE',  ( -0.1500000000000002720, -0.01000000000000000021, -0.3499999999999999223 ) ) ;
#1152 = EDGE_CURVE ( 'NONE', #273, #582, #415, .T. ) ;
#1153 = DIRECTION ( 'NONE',  ( -1.000000000000000000, -0.000000000000000000, -0.000000000000000000 ) ) ;
#1154 = SURFACE_SIDE_STYLE ('',( #1175 ) ) ;
#1155 = ORIENTED_EDGE ( 'NONE', *, *, #851, .F. ) ;
#1156 = DIRECTION ( 'NONE',  ( -0.000000000000000000, -1.000000000000000000, -0.000000000000000000 ) ) ;
#1157 = DIRECTION ( 'NONE',  ( -0.000000000000000000, 1.000000000000000000, -0.000000000000000000 ) ) ;
#1158 = DIRECTION ( 'NONE',  ( 0.000000000000000000, 0.000000000000000000, 1.000000000000000000 ) ) ;
#1159 = SURFACE_STYLE_USAGE ( .BOTH. , #847 ) ;
#1160 = VECTOR ( 'NONE', #656, 1000.000000000000000 ) ;
#1161 = EDGE_CURVE ( 'NONE', #667, #506, #3, .T. ) ;
#1162 = DIRECTION ( 'NONE',  ( -1.000000000000000000, 0.000000000000000000, -0.000000000000000000 ) ) ;
#1163 = STYLED_ITEM ( 'NONE', ( #804 ), #205 ) ;
#1164 = COLOUR_RGB ( '',0.1098039215686274495, 0.1098039215686274495, 0.1098039215686274495 ) ;
#1165 = CARTESIAN_POINT ( 'NONE',  ( -0.7250000000000001998, 0.4859999999999999876, 0.7250000000000000888 ) ) ;
#1166 = CARTESIAN_POINT ( 'NONE',  ( 0.1249999999999995143, 0.000000000000000000, -0.5250000000000000222 ) ) ;
#1167 = DIRECTION ( 'NONE',  ( -0.000000000000000000, 1.000000000000000000, -0.000000000000000000 ) ) ;
#1168 = ADVANCED_FACE ( 'NONE', ( #1143 ), #98, .F. ) ;
#1169 = DIRECTION ( 'NONE',  ( 0.000000000000000000, 1.000000000000000000, 0.000000000000000000 ) ) ;
#1170 = AXIS2_PLACEMENT_3D ( 'NONE', #202, #1040, #1256 ) ;
#1171 = COLOUR_RGB ( '',0.6666666666666666297, 0.6980392156862744724, 0.7686274509803920907 ) ;
#1172 = AXIS2_PLACEMENT_3D ( 'NONE', #440, #853, #1259 ) ;
#1173 = FILL_AREA_STYLE ('',( #1283 ) ) ;
#1174 = CARTESIAN_POINT ( 'NONE',  ( 0.4749999999999997558, 0.000000000000000000, 0.1250000000000000555 ) ) ;
#1175 = SURFACE_STYLE_FILL_AREA ( #139 ) ;
#1176 = FILL_AREA_STYLE ('',( #19 ) ) ;
#1177 = CARTESIAN_POINT ( 'NONE',  ( -0.7250000000000001998, 0.1401000000000000301, 0.7249999999999997558 ) ) ;
#1178 = PRESENTATION_STYLE_ASSIGNMENT (( #889 ) ) ;
#1179 = FILL_AREA_STYLE ('',( #477 ) ) ;
#1180 = ORIENTED_EDGE ( 'NONE', *, *, #368, .F. ) ;
#1181 = FACE_OUTER_BOUND ( 'NONE', #827, .T. ) ;
#1182 = DIRECTION ( 'NONE',  ( -0.000000000000000000, -0.000000000000000000, -1.000000000000000000 ) ) ;
#1183 = ORIENTED_EDGE ( 'NONE', *, *, #526, .T. ) ;
#1184 = CARTESIAN_POINT ( 'NONE',  ( -0.5250000000000002442, -0.01000000000000000021, 0.1250000000000000000 ) ) ;
#1185 = EDGE_CURVE ( 'NONE', #625, #512, #119, .T. ) ;
#1186 =( NAMED_UNIT ( * ) SI_UNIT ( $, .STERADIAN. ) SOLID_ANGLE_UNIT ( ) );
#1187 = DIRECTION ( 'NONE',  ( 0.000000000000000000, 0.000000000000000000, 1.000000000000000000 ) ) ;
#1188 = VERTEX_POINT ( 'NONE', #1151 ) ;
#1189 = LINE ( 'NONE', #351, #675 ) ;
#1190 =( NAMED_UNIT ( * ) SI_UNIT ( $, .STERADIAN. ) SOLID_ANGLE_UNIT ( ) );
#1191 = SURFACE_SIDE_STYLE ('',( #881 ) ) ;
#1192 =( GEOMETRIC_REPRESENTATION_CONTEXT ( 3 ) GLOBAL_UNCERTAINTY_ASSIGNED_CONTEXT ( ( #158 ) ) GLOBAL_UNIT_ASSIGNED_CONTEXT ( ( #1227, #1240, #109 ) ) REPRESENTATION_CONTEXT ( 'NONE', 'WORKASPACE' ) );
#1193 = EDGE_CURVE ( 'NONE', #307, #88, #1219, .T. ) ;
#1194 = MECHANICAL_DESIGN_GEOMETRIC_PRESENTATION_REPRESENTATION (  '', ( #547 ), #1301 ) ;
#1195 = VECTOR ( 'NONE', #1262, 1000.000000000000000 ) ;
#1196 = EDGE_CURVE ( 'NONE', #905, #1229, #836, .T. ) ;
#1197 = ORIENTED_EDGE ( 'NONE', *, *, #21, .T. ) ;
#1198 = PRESENTATION_STYLE_ASSIGNMENT (( #598 ) ) ;
#1199 = CARTESIAN_POINT ( 'NONE',  ( 0.1249999999999997363, -0.01000000000000000021, 0.1250000000000000555 ) ) ;
#1200 = VERTEX_POINT ( 'NONE', #644 ) ;
#1201 = PLANE ( 'NONE',  #1170 ) ;
#1202 = ORIENTED_EDGE ( 'NONE', *, *, #1088, .T. ) ;
#1203 =( LENGTH_UNIT ( ) NAMED_UNIT ( * ) SI_UNIT ( .MILLI., .METRE. ) );
#1204 = UNCERTAINTY_MEASURE_WITH_UNIT (LENGTH_MEASURE( 1.000000000000000082E-05 ), #495, 'distance_accuracy_value', 'NONE');
#1205 = PLANE ( 'NONE',  #669 ) ;
#1206 = ORIENTED_EDGE ( 'NONE', *, *, #565, .F. ) ;
#1207 =( NAMED_UNIT ( * ) PLANE_ANGLE_UNIT ( ) SI_UNIT ( $, .RADIAN. ) );
#1208 = VERTEX_POINT ( 'NONE', #719 ) ;
#1209 =( LENGTH_UNIT ( ) NAMED_UNIT ( * ) SI_UNIT ( .MILLI., .METRE. ) );
#1210 = EDGE_LOOP ( 'NONE', ( #407, #405, #520, #1107 ) ) ;
#1211 = SURFACE_STYLE_FILL_AREA ( #1104 ) ;
#1212 = STYLED_ITEM ( 'NONE', ( #1019 ), #809 ) ;
#1213 = VERTEX_POINT ( 'NONE', #538 ) ;
#1214 = VECTOR ( 'NONE', #341, 1000.000000000000000 ) ;
#1215 = DIRECTION ( 'NONE',  ( 0.000000000000000000, -0.000000000000000000, -1.000000000000000000 ) ) ;
#1216 = LINE ( 'NONE', #287, #1013 ) ;
#1217 = VERTEX_POINT ( 'NONE', #1251 ) ;
#1218 = DIRECTION ( 'NONE',  ( 0.000000000000000000, -0.000000000000000000, 1.000000000000000000 ) ) ;
#1219 = LINE ( 'NONE', #223, #995 ) ;
#1220 = FACE_OUTER_BOUND ( 'NONE', #780, .T. ) ;
#1221 = VERTEX_POINT ( 'NONE', #937 ) ;
#1222 = CARTESIAN_POINT ( 'NONE',  ( 0.1249999999999997363, 0.000000000000000000, 0.4750000000000000333 ) ) ;
#1223 = EDGE_CURVE ( 'NONE', #1295, #879, #545, .T. ) ;
#1224 = LINE ( 'NONE', #1043, #91 ) ;
#1225 = DIRECTION ( 'NONE',  ( 0.000000000000000000, 0.000000000000000000, 1.000000000000000000 ) ) ;
#1226 = ORIENTED_EDGE ( 'NONE', *, *, #929, .F. ) ;
#1227 =( LENGTH_UNIT ( ) NAMED_UNIT ( * ) SI_UNIT ( .MILLI., .METRE. ) );
#1228 = EDGE_CURVE ( 'NONE', #687, #465, #830, .T. ) ;
#1229 = VERTEX_POINT ( 'NONE', #322 ) ;
#1230 = VECTOR ( 'NONE', #122, 1000.000000000000000 ) ;
#1231 =( GEOMETRIC_REPRESENTATION_CONTEXT ( 3 ) GLOBAL_UNCERTAINTY_ASSIGNED_CONTEXT ( ( #1110 ) ) GLOBAL_UNIT_ASSIGNED_CONTEXT ( ( #572, #578, #142 ) ) REPRESENTATION_CONTEXT ( 'NONE', 'WORKASPACE' ) );
#1232 = VECTOR ( 'NONE', #500, 1000.000000000000000 ) ;
#1233 = CARTESIAN_POINT ( 'NONE',  ( -0.7250000000000001998, 0.000000000000000000, 0.7250000000000000888 ) ) ;
#1234 = ORIENTED_EDGE ( 'NONE', *, *, #608, .T. ) ;
#1235 = CARTESIAN_POINT ( 'NONE',  ( 0.7249999999999997558, 0.000000000000000000, -0.7249999999999998668 ) ) ;
#1236 =( LENGTH_UNIT ( ) NAMED_UNIT ( * ) SI_UNIT ( .MILLI., .METRE. ) );
#1237 = EDGE_CURVE ( 'NONE', #582, #687, #845, .T. ) ;
#1238 = SURFACE_SIDE_STYLE ('',( #921 ) ) ;
#1239 = ORIENTED_EDGE ( 'NONE', *, *, #314, .F. ) ;
#1240 =( NAMED_UNIT ( * ) PLANE_ANGLE_UNIT ( ) SI_UNIT ( $, .RADIAN. ) );
#1241 = SURFACE_STYLE_USAGE ( .BOTH. , #1050 ) ;
#1242 = CARTESIAN_POINT ( 'NONE',  ( -0.7250000000000001998, 0.000000000000000000, 0.7250000000000000888 ) ) ;
#1243 =( GEOMETRIC_REPRESENTATION_CONTEXT ( 3 ) GLOBAL_UNCERTAINTY_ASSIGNED_CONTEXT ( ( #1280 ) ) GLOBAL_UNIT_ASSIGNED_CONTEXT ( ( #564, #69, #170 ) ) REPRESENTATION_CONTEXT ( 'NONE', 'WORKASPACE' ) );
#1244 = STYLED_ITEM ( 'NONE', ( #321 ), #272 ) ;
#1245 = PLANE ( 'NONE',  #1342 ) ;
#1246 = EDGE_CURVE ( 'NONE', #354, #696, #947, .T. ) ;
#1247 = VERTEX_POINT ( 'NONE', #430 ) ;
#1248 = DIRECTION ( 'NONE',  ( 0.000000000000000000, 0.000000000000000000, -1.000000000000000000 ) ) ;
#1249 = STYLED_ITEM ( 'NONE', ( #1055 ), #659 ) ;
#1250 = DIRECTION ( 'NONE',  ( 0.000000000000000000, 0.000000000000000000, 1.000000000000000000 ) ) ;
#1251 = CARTESIAN_POINT ( 'NONE',  ( 0.4749999999999997558, -0.01000000000000000021, 0.4750000000000000333 ) ) ;
#1252 = FILL_AREA_STYLE ('',( #1139 ) ) ;
#1253 = CARTESIAN_POINT ( 'NONE',  ( -0.1500000000000002720, -0.01000000000000000021, -0.1749999999999998779 ) ) ;
#1254 =( GEOMETRIC_REPRESENTATION_CONTEXT ( 3 ) GLOBAL_UNCERTAINTY_ASSIGNED_CONTEXT ( ( #473 ) ) GLOBAL_UNIT_ASSIGNED_CONTEXT ( ( #1209, #908, #89 ) ) REPRESENTATION_CONTEXT ( 'NONE', 'WORKASPACE' ) );
#1255 = ORIENTED_EDGE ( 'NONE', *, *, #1142, .F. ) ;
#1256 = DIRECTION ( 'NONE',  ( -0.000000000000000000, 0.000000000000000000, -1.000000000000000000 ) ) ;
#1257 = DIRECTION ( 'NONE',  ( -1.000000000000000000, -0.000000000000000000, -0.000000000000000000 ) ) ;
#1258 = DIRECTION ( 'NONE',  ( -0.000000000000000000, -0.000000000000000000, -1.000000000000000000 ) ) ;
#1259 = DIRECTION ( 'NONE',  ( 1.000000000000000000, 0.000000000000000000, -0.000000000000000000 ) ) ;
#1260 = ORIENTED_EDGE ( 'NONE', *, *, #1237, .T. ) ;
#1261 = LINE ( 'NONE', #345, #62 ) ;
#1262 = DIRECTION ( 'NONE',  ( -0.000000000000000000, -0.000000000000000000, 1.000000000000000000 ) ) ;
#1263 = EDGE_CURVE ( 'NONE', #676, #557, #335, .T. ) ;
#1264 = DIRECTION ( 'NONE',  ( 0.000000000000000000, 1.000000000000000000, 0.000000000000000000 ) ) ;
#1265 = PRESENTATION_LAYER_ASSIGNMENT (  '', '', ( #1067 ) ) ;
#1266 = CARTESIAN_POINT ( 'NONE',  ( -0.7250000000000001998, 0.4859999999999999876, 0.7250000000000000888 ) ) ;
#1267 = STYLED_ITEM ( 'NONE', ( #517 ), #255 ) ;
#1268 =( NAMED_UNIT ( * ) SI_UNIT ( $, .STERADIAN. ) SOLID_ANGLE_UNIT ( ) );
#1269 = LINE ( 'NONE', #773, #218 ) ;
#1270 =( NAMED_UNIT ( * ) SI_UNIT ( $, .STERADIAN. ) SOLID_ANGLE_UNIT ( ) );
#1271 = PRESENTATION_STYLE_ASSIGNMENT (( #957 ) ) ;
#1272 = CARTESIAN_POINT ( 'NONE',  ( 0.1249999999999997363, 0.000000000000000000, 0.1250000000000000555 ) ) ;
#1273 = VECTOR ( 'NONE', #1111, 1000.000000000000000 ) ;
#1274 = ORIENTED_EDGE ( 'NONE', *, *, #403, .F. ) ;
#1275 = AXIS2_PLACEMENT_3D ( 'NONE', #1035, #636, #229 ) ;
#1276 = FACE_OUTER_BOUND ( 'NONE', #220, .T. ) ;
#1277 = DIRECTION ( 'NONE',  ( -1.000000000000000000, -0.000000000000000000, -0.000000000000000000 ) ) ;
#1278 = ORIENTED_EDGE ( 'NONE', *, *, #1333, .T. ) ;
#1279 = DIRECTION ( 'NONE',  ( -0.000000000000000000, -0.000000000000000000, -1.000000000000000000 ) ) ;
#1280 = UNCERTAINTY_MEASURE_WITH_UNIT (LENGTH_MEASURE( 1.000000000000000082E-05 ), #564, 'distance_accuracy_value', 'NONE');
#1281 = ADVANCED_FACE ( 'NONE', ( #630 ), #941, .F. ) ;
#1282 = DIRECTION ( 'NONE',  ( 1.000000000000000000, 0.000000000000000000, -0.000000000000000000 ) ) ;
#1283 = FILL_AREA_STYLE_COLOUR ( '', #243 ) ;
#1284 = FILL_AREA_STYLE_COLOUR ( '', #916 ) ;
#1285 = DIRECTION ( 'NONE',  ( -0.000000000000000000, 1.000000000000000000, -0.000000000000000000 ) ) ;
#1286 = ORIENTED_EDGE ( 'NONE', *, *, #235, .T. ) ;
#1287 = VECTOR ( 'NONE', #733, 1000.000000000000000 ) ;
#1288 = PLANE ( 'NONE',  #313 ) ;
#1289 = AXIS2_PLACEMENT_3D ( 'NONE', #324, #1167, #8 ) ;
#1290 = CARTESIAN_POINT ( 'NONE',  ( 0.1249999999999995143, -0.000000000000000000, -0.5250000000000000222 ) ) ;
#1291 = EDGE_CURVE ( 'NONE', #37, #1208, #954, .T. ) ;
#1292 = DIRECTION ( 'NONE',  ( 1.000000000000000000, 0.000000000000000000, 0.000000000000000000 ) ) ;
#1293 = EDGE_CURVE ( 'NONE', #268, #412, #238, .T. ) ;
#1294 = SURFACE_STYLE_USAGE ( .BOTH. , #754 ) ;
#1295 = VERTEX_POINT ( 'NONE', #663 ) ;
#1296 = SURFACE_STYLE_FILL_AREA ( #1308 ) ;
#1297 = UNCERTAINTY_MEASURE_WITH_UNIT (LENGTH_MEASURE( 1.000000000000000082E-05 ), #864, 'distance_accuracy_value', 'NONE');
#1298 = ORIENTED_EDGE ( 'NONE', *, *, #1088, .F. ) ;
#1299 =( NAMED_UNIT ( * ) PLANE_ANGLE_UNIT ( ) SI_UNIT ( $, .RADIAN. ) );
#1300 = DIRECTION ( 'NONE',  ( 0.000000000000000000, 0.000000000000000000, 1.000000000000000000 ) ) ;
#1301 =( GEOMETRIC_REPRESENTATION_CONTEXT ( 3 ) GLOBAL_UNCERTAINTY_ASSIGNED_CONTEXT ( ( #1204 ) ) GLOBAL_UNIT_ASSIGNED_CONTEXT ( ( #495, #395, #885 ) ) REPRESENTATION_CONTEXT ( 'NONE', 'WORKASPACE' ) );
#1302 = PRESENTATION_STYLE_ASSIGNMENT (( #22 ) ) ;
#1303 = VECTOR ( 'NONE', #530, 1000.000000000000000 ) ;
#1304 = ORIENTED_EDGE ( 'NONE', *, *, #328, .F. ) ;
#1305 = FACE_OUTER_BOUND ( 'NONE', #357, .T. ) ;
#1306 = ORIENTED_EDGE ( 'NONE', *, *, #38, .T. ) ;
#1307 = ORIENTED_EDGE ( 'NONE', *, *, #1185, .T. ) ;
#1308 = FILL_AREA_STYLE ('',( #583 ) ) ;
#1309 = UNCERTAINTY_MEASURE_WITH_UNIT (LENGTH_MEASURE( 1.000000000000000082E-05 ), #932, 'distance_accuracy_value', 'NONE');
#1310 = CLOSED_SHELL ( 'NONE', ( #757, #1168, #1007, #1047, #1020, #782, #425, #1348, #417, #28, #14, #1149, #397, #741, #191, #445, #952, #492, #272, #766, #224, #59, #659, #124, #809, #205, #645 ) ) ;
#1311 = ORIENTED_EDGE ( 'NONE', *, *, #1152, .F. ) ;
#1312 = PLANE ( 'NONE',  #31 ) ;
#1313 = SURFACE_SIDE_STYLE ('',( #693 ) ) ;
#1314 = EDGE_LOOP ( 'NONE', ( #1135, #1304, #575, #201 ) ) ;
#1315 = CARTESIAN_POINT ( 'NONE',  ( -0.5000000000000002220, -0.01000000000000000021, -0.1749999999999998779 ) ) ;
#1316 = CARTESIAN_POINT ( 'NONE',  ( 0.000000000000000000, 0.000000000000000000, 0.000000000000000000 ) ) ;
#1317 = ORIENTED_EDGE ( 'NONE', *, *, #232, .F. ) ;
#1318 = SURFACE_STYLE_USAGE ( .BOTH. , #1017 ) ;
#1319 = CARTESIAN_POINT ( 'NONE',  ( 0.000000000000000000, -0.01000000000000000021, 0.000000000000000000 ) ) ;
#1320 = PRESENTATION_LAYER_ASSIGNMENT (  '', '', ( #752 ) ) ;
#1321 =( GEOMETRIC_REPRESENTATION_CONTEXT ( 3 ) GLOBAL_UNCERTAINTY_ASSIGNED_CONTEXT ( ( #1309 ) ) GLOBAL_UNIT_ASSIGNED_CONTEXT ( ( #932, #838, #398 ) ) REPRESENTATION_CONTEXT ( 'NONE', 'WORKASPACE' ) );
#1322 = PRESENTATION_STYLE_ASSIGNMENT (( #911 ) ) ;
#1323 = AXIS2_PLACEMENT_3D ( 'NONE', #857, #674, #968 ) ;
#1324 = SURFACE_STYLE_FILL_AREA ( #66 ) ;
#1325 = EDGE_CURVE ( 'NONE', #577, #667, #1269, .T. ) ;
#1326 = VERTEX_POINT ( 'NONE', #1095 ) ;
#1327 =( LENGTH_UNIT ( ) NAMED_UNIT ( * ) SI_UNIT ( .MILLI., .METRE. ) );
#1328 = DIRECTION ( 'NONE',  ( 0.000000000000000000, 0.000000000000000000, 1.000000000000000000 ) ) ;
#1329 = EDGE_LOOP ( 'NONE', ( #1127, #150, #990, #363 ) ) ;
#1330 = PRESENTATION_LAYER_ASSIGNMENT (  '', '', ( #960 ) ) ;
#1331 = ADVANCED_FACE ( 'NONE', ( #50 ), #559, .F. ) ;
#1332 = PLANE ( 'NONE',  #703 ) ;
#1333 = EDGE_CURVE ( 'NONE', #382, #855, #376, .T. ) ;
#1334 =( GEOMETRIC_REPRESENTATION_CONTEXT ( 3 ) GLOBAL_UNCERTAINTY_ASSIGNED_CONTEXT ( ( #671 ) ) GLOBAL_UNIT_ASSIGNED_CONTEXT ( ( #329, #824, #118 ) ) REPRESENTATION_CONTEXT ( 'NONE', 'WORKASPACE' ) );
#1335 = AXIS2_PLACEMENT_3D ( 'NONE', #1319, #393, #1218 ) ;
#1336 = ORIENTED_EDGE ( 'NONE', *, *, #608, .F. ) ;
#1337 = DIRECTION ( 'NONE',  ( -0.000000000000000000, 1.000000000000000000, -0.000000000000000000 ) ) ;
#1338 = ORIENTED_EDGE ( 'NONE', *, *, #1128, .T. ) ;
#1339 = EDGE_CURVE ( 'NONE', #1124, #506, #136, .T. ) ;
#1340 = SURFACE_STYLE_FILL_AREA ( #1252 ) ;
#1341 = VECTOR ( 'NONE', #427, 1000.000000000000000 ) ;
#1342 = AXIS2_PLACEMENT_3D ( 'NONE', #1014, #424, #1130 ) ;
#1343 = VECTOR ( 'NONE', #1058, 1000.000000000000000 ) ;
#1344 = ORIENTED_EDGE ( 'NONE', *, *, #184, .T. ) ;
#1345 = CARTESIAN_POINT ( 'NONE',  ( -0.7250000000000001998, 0.1401000000000000301, -0.7250000000000000888 ) ) ;
#1346 = CARTESIAN_POINT ( 'NONE',  ( 0.4749999999999997558, 0.000000000000000000, 0.1250000000000000555 ) ) ;
#1347 = CARTESIAN_POINT ( 'NONE',  ( -0.5822321858220543822, 0.4849999999999999867, 0.6349380450127461994 ) ) ;
#1348 = ADVANCED_FACE ( 'NONE', ( #152 ), #359, .F. ) ;
ENDSEC;
END-ISO-10303-21;
