%TF.GenerationSoftware,KiCad,Pcbnew,10.0.3*%
%TF.CreationDate,2026-08-07T12:01:27+02:00*%
%TF.ProjectId,wakeup_board,77616b65-7570-45f6-926f-6172642e6b69,rev?*%
%TF.SameCoordinates,Original*%
%TF.FileFunction,Profile,NP*%
%FSLAX46Y46*%
G04 Gerber Fmt 4.6, Leading zero omitted, Abs format (unit mm)*
G04 Created by KiCad (PCBNEW 10.0.3) date 2026-08-07 12:01:27*
%MOMM*%
%LPD*%
G01*
G04 APERTURE LIST*
%TA.AperFunction,Profile*%
%ADD10C,0.150000*%
%TD*%
G04 APERTURE END LIST*
D10*
X-17000000Y0D02*
X-16962900Y-1121900D01*
X-16962900Y1121900D02*
X-17000000Y0D01*
X-16962900Y-1121900D02*
X-16851900Y-2238800D01*
X-16851900Y2238800D02*
X-16962900Y1121900D01*
X-16851900Y-2238800D02*
X-16667500Y-3346000D01*
X-16667500Y3346000D02*
X-16851900Y2238800D01*
X-16667500Y-3346000D02*
X-16410300Y-4438700D01*
X-16410300Y4438700D02*
X-16667500Y3346000D01*
X-16410300Y-4438700D02*
X-16081600Y-5511900D01*
X-16081600Y5511900D02*
X-16410300Y4438700D01*
X-16081600Y-5511900D02*
X-15682800Y-6561200D01*
X-15682800Y6561200D02*
X-16081600Y5511900D01*
X-15682800Y-6561200D02*
X-15215700Y-7581800D01*
X-15215700Y7581800D02*
X-15682800Y6561200D01*
X-15215700Y-7581800D02*
X-14682100Y-8569400D01*
X-14682100Y8569400D02*
X-15215700Y7581800D01*
X-14682100Y-8569400D02*
X-14084600Y-9519600D01*
X-14084600Y9519600D02*
X-14682100Y8569400D01*
X-14084600Y-9519600D02*
X-13425700Y-10428300D01*
X-13425700Y10428300D02*
X-14084600Y9519600D01*
X-13425700Y-10428300D02*
X-12708300Y-11291600D01*
X-12708300Y11291600D02*
X-13425700Y10428300D01*
X-12708300Y-11291600D02*
X-11935400Y-12105600D01*
X-11935400Y12105600D02*
X-12708300Y11291600D01*
X-11935400Y-12105600D02*
X-11110500Y-12866900D01*
X-11110500Y12866900D02*
X-11935400Y12105600D01*
X-11110500Y-12866900D02*
X-10237200Y-13572000D01*
X-10237200Y13572000D02*
X-11110500Y12866900D01*
X-10237200Y-13572000D02*
X-9319200Y-14218000D01*
X-9319200Y14218000D02*
X-10237200Y13572000D01*
X-9319200Y-14218000D02*
X-8360600Y-14802000D01*
X-8360600Y14802000D02*
X-9319200Y14218000D01*
X-8360600Y-14802000D02*
X-7365600Y-15321500D01*
X-7365600Y15321500D02*
X-8360600Y14802000D01*
X-7365600Y-15321500D02*
X-6338500Y-15774200D01*
X-6338500Y15774200D02*
X-7365600Y15321500D01*
X-6338500Y-15774200D02*
X-5283700Y-16158100D01*
X-5283700Y16158100D02*
X-6338500Y15774200D01*
X-5283700Y-16158100D02*
X-4205900Y-16471500D01*
X-4205900Y16471500D02*
X-5283700Y16158100D01*
X-4205900Y-16471500D02*
X-3109700Y-16713200D01*
X-3109700Y16713200D02*
X-4205900Y16471500D01*
X-3109700Y-16713200D02*
X-2000000Y-16881900D01*
X-2000000Y16881900D02*
X-3109700Y16713200D01*
X-2000000Y16881900D02*
X2000000Y16881900D01*
X2000000Y-16881900D02*
X-2000000Y-16881900D01*
X2000000Y-16881900D02*
X3109700Y-16713200D01*
X3109700Y16713200D02*
X2000000Y16881900D01*
X3109700Y-16713200D02*
X4205900Y-16471500D01*
X4205900Y16471500D02*
X3109700Y16713200D01*
X4205900Y-16471500D02*
X5283700Y-16158100D01*
X5283700Y16158100D02*
X4205900Y16471500D01*
X5283700Y-16158100D02*
X6338500Y-15774200D01*
X6338500Y15774200D02*
X5283700Y16158100D01*
X6338500Y-15774200D02*
X7365600Y-15321500D01*
X7365600Y15321500D02*
X6338500Y15774200D01*
X7365600Y-15321500D02*
X8360600Y-14802000D01*
X8360600Y14802000D02*
X7365600Y15321500D01*
X8360600Y-14802000D02*
X9319200Y-14218000D01*
X9319200Y14218000D02*
X8360600Y14802000D01*
X9319200Y-14218000D02*
X10237200Y-13572000D01*
X10237200Y13572000D02*
X9319200Y14218000D01*
X10237200Y-13572000D02*
X11110500Y-12866900D01*
X11110500Y12866900D02*
X10237200Y13572000D01*
X11110500Y-12866900D02*
X11935400Y-12105600D01*
X11935400Y12105600D02*
X11110500Y12866900D01*
X11935400Y-12105600D02*
X12708300Y-11291600D01*
X12708300Y11291600D02*
X11935400Y12105600D01*
X12708300Y-11291600D02*
X13425700Y-10428300D01*
X13425700Y10428300D02*
X12708300Y11291600D01*
X13425700Y-10428300D02*
X14084600Y-9519600D01*
X14084600Y9519600D02*
X13425700Y10428300D01*
X14084600Y-9519600D02*
X14682100Y-8569400D01*
X14682100Y8569400D02*
X14084600Y9519600D01*
X14682100Y-8569400D02*
X15215700Y-7581800D01*
X15215700Y7581800D02*
X14682100Y8569400D01*
X15215700Y-7581800D02*
X15682800Y-6561200D01*
X15682800Y6561200D02*
X15215700Y7581800D01*
X15682800Y-6561200D02*
X16081600Y-5511900D01*
X16081600Y5511900D02*
X15682800Y6561200D01*
X16081600Y-5511900D02*
X16410300Y-4438700D01*
X16410300Y4438700D02*
X16081600Y5511900D01*
X16410300Y-4438700D02*
X16667500Y-3346000D01*
X16667500Y3346000D02*
X16410300Y4438700D01*
X16667500Y-3346000D02*
X16851900Y-2238800D01*
X16851900Y2238800D02*
X16667500Y3346000D01*
X16851900Y-2238800D02*
X16962900Y-1121900D01*
X16962900Y1121900D02*
X16851900Y2238800D01*
X16962900Y-1121900D02*
X17000000Y0D01*
X17000000Y0D02*
X16962900Y1121900D01*
M02*
