%TF.GenerationSoftware,KiCad,Pcbnew,10.0.3*%
%TF.CreationDate,2026-08-07T12:01:27+02:00*%
%TF.ProjectId,wakeup_board,77616b65-7570-45f6-926f-6172642e6b69,rev?*%
%TF.SameCoordinates,Original*%
%TF.FileFunction,Copper,L4,Inr*%
%TF.FilePolarity,Positive*%
%FSLAX46Y46*%
G04 Gerber Fmt 4.6, Leading zero omitted, Abs format (unit mm)*
G04 Created by KiCad (PCBNEW 10.0.3) date 2026-08-07 12:01:27*
%MOMM*%
%LPD*%
G01*
G04 APERTURE LIST*
%TA.AperFunction,ViaPad*%
%ADD10C,0.300000*%
%TD*%
%TA.AperFunction,ViaPad*%
%ADD11C,0.200000*%
%TD*%
%TA.AperFunction,ViaPad*%
%ADD12C,0.250000*%
%TD*%
%TA.AperFunction,Conductor*%
%ADD13C,0.100000*%
%TD*%
%TA.AperFunction,Conductor*%
%ADD14C,0.070000*%
%TD*%
G04 APERTURE END LIST*
D10*
%TO.N,FLEX_GND*%
X5810000Y-10280000D03*
X4140000Y9200000D03*
D11*
X5100000Y-9490000D03*
D10*
X-2560000Y10250000D03*
X-60000Y7690000D03*
X-6600000Y10730000D03*
X-60000Y7690000D03*
X-2840000Y-11550000D03*
X10650000Y-7400000D03*
X10410000Y3960000D03*
X1880000Y-12900000D03*
X-5390000Y-5990000D03*
X-7890000Y-40000D03*
X-7090000Y-8810000D03*
D11*
X8070000Y-12420000D03*
D10*
X8090000Y-10330000D03*
X6310000Y11380000D03*
X5050000Y12150000D03*
X1020000Y3760000D03*
X-10000000Y-30000D03*
X860000Y-1590000D03*
X-7070000Y-4270000D03*
X5150000Y1370000D03*
X-9740000Y1350000D03*
X2770000Y-3490000D03*
X-12290000Y-9210000D03*
X8480000Y-1100000D03*
X11650000Y-1800000D03*
X-910000Y-4390000D03*
X-6080000Y140000D03*
X-10060000Y4160000D03*
X-6970000Y6640000D03*
X-4810000Y-10060000D03*
D11*
X5550000Y-6710000D03*
D10*
X9850000Y980000D03*
D11*
X6580000Y-6110000D03*
D10*
X100000Y-13370000D03*
X5670000Y-8110000D03*
X1740000Y14110000D03*
X-1590000Y-1660000D03*
X5290000Y-4450000D03*
X8660000Y6840000D03*
X10140000Y-5500000D03*
X1480000Y-6500000D03*
X910000Y6780000D03*
X-5660000Y-12000000D03*
X-7970000Y1930000D03*
X-9840000Y-6810000D03*
X-5160000Y-390000D03*
X-120000Y1170000D03*
X12340000Y-20000D03*
X5830000Y-10700000D03*
X3800000Y-11180000D03*
X3960000Y-8830000D03*
X5510000Y5650000D03*
X50000Y13170000D03*
X-6090000Y6540000D03*
X5830000Y-11110000D03*
X-2150000Y-8980000D03*
%TO.N,IMU1_SDX*%
X-9960000Y-5950000D03*
%TO.N,IMU1_SCX*%
X-8730000Y-5790000D03*
%TO.N,IMU1_INT*%
X-8130000Y-6100000D03*
X4150000Y-13890000D03*
%TO.N,3V3*%
X-6490000Y-4540000D03*
X520000Y10370000D03*
X-10160000Y-7980000D03*
X-7330000Y-6470000D03*
X8150000Y-1420000D03*
X1810000Y-620000D03*
X-3430000Y-10550000D03*
X-14090000Y3250000D03*
X11090000Y280000D03*
X3210000Y11420000D03*
X-1680000Y6960000D03*
X-8070000Y-5670000D03*
X14800000Y-5410000D03*
X5190000Y1780000D03*
X-2780000Y10620000D03*
X-1675000Y13365000D03*
X6310000Y9630000D03*
X850000Y13620000D03*
X-5210000Y-10880000D03*
X-5400000Y10970000D03*
X9710000Y2210000D03*
X5180000Y9380000D03*
X-3820000Y-12870000D03*
X9250000Y6800000D03*
X-4520000Y4530000D03*
X-1020000Y-1440000D03*
X-11380000Y-1900000D03*
%TO.N,I2C2_SCL*%
X6690000Y12290000D03*
X1660000Y-7750000D03*
X3780000Y9710000D03*
X-7130000Y-7650000D03*
%TO.N,I2C2_SDA*%
X7520000Y-11410000D03*
X-8130000Y-6530000D03*
%TO.N,3V3_AON*%
X2030000Y-13600000D03*
X4750000Y-10070000D03*
X6680000Y-8160000D03*
X-1940000Y-13340000D03*
X14150000Y-6970000D03*
X4140000Y-9220000D03*
X5100000Y-8400000D03*
X6830000Y-10500000D03*
X-7840000Y-12050000D03*
%TO.N,SYS_SPI_MISO*%
X4070000Y2620000D03*
%TO.N,SYS_SPI_SCLK*%
X-11270000Y-7640000D03*
%TO.N,FIN4_BPH*%
X5100000Y3180000D03*
X1100000Y3040000D03*
D11*
%TO.N,FIN1_BPH*%
X6950000Y2720000D03*
%TO.N,FIN2_BPH*%
X7420000Y2260000D03*
D10*
%TO.N,SYS_SPI_CS_FIN*%
X8000000Y2660000D03*
X-9540000Y-10930000D03*
X-8210000Y-14070000D03*
%TO.N,FIN3_BPH*%
X4605000Y6355000D03*
%TO.N,G0B1_FIN_NRST*%
X8440000Y6020000D03*
D11*
%TO.N,FIN4_APH*%
X7960000Y1690000D03*
D10*
%TO.N,FIN2_AEN*%
X5390000Y690000D03*
%TO.N,FIN1_BEN*%
X3995000Y165000D03*
D11*
X5320000Y260000D03*
%TO.N,FIN3_AEN*%
X6000000Y520000D03*
X7820000Y3880000D03*
D10*
%TO.N,FIN4_BEN*%
X4030000Y4240000D03*
X6850000Y4880000D03*
%TO.N,FIN_HALL*%
X10140000Y-380000D03*
D11*
%TO.N,FIN4_AEN*%
X4090000Y5200000D03*
X4680000Y3430000D03*
D10*
%TO.N,FIN_VREF*%
X-4630000Y3920000D03*
%TO.N,COMP_5V_RAW*%
X-3120000Y9340000D03*
X260000Y8500000D03*
X-2100000Y2460000D03*
X-2350000Y-4040000D03*
X13210000Y4500000D03*
X-9263500Y-1963500D03*
%TO.N,FIN3_AOUT1*%
X-1390000Y8650000D03*
X10360000Y9820000D03*
%TO.N,FIN3_DVDD*%
X-1780000Y3880000D03*
%TO.N,FIN4_AOUT1*%
X-6890000Y-1670000D03*
X8520000Y8710000D03*
%TO.N,FIN4_DVDD*%
X-4300000Y-2670000D03*
%TO.N,FIN4_DECAY*%
X-6340000Y3960000D03*
%TO.N,MAIN_SW_GATE*%
X-4580000Y-5920000D03*
X-4200000Y-6190000D03*
%TO.N,BAT_PROT*%
X14730000Y3120000D03*
X-10180000Y5200000D03*
%TO.N,REG_IN_MAIN*%
X5240000Y-3030000D03*
X6510000Y-5220000D03*
X-8640000Y5080000D03*
X-11380000Y2460000D03*
%TO.N,IMU3_INT*%
X-4630000Y11410000D03*
%TO.N,I2C3_SCL*%
X10000Y11330000D03*
%TO.N,I2C3_SDA*%
X-990000Y10680000D03*
%TO.N,IMU2_SDX*%
X-5470000Y-11250000D03*
%TO.N,IMU2_SCX*%
X-6620000Y-10990000D03*
%TO.N,WBA_VDD11*%
X3180000Y-10970000D03*
X3400000Y-10400000D03*
%TO.N,NFC_WAKE_K*%
X-2650000Y-9710000D03*
%TO.N,QHOLD2_GATE*%
X-6230000Y-5780000D03*
%TO.N,MAG_C1_TERM*%
X3940000Y12850000D03*
X2470000Y13410000D03*
X3710000Y13770000D03*
%TO.N,MAG_DRDY*%
X-3330000Y14010000D03*
X5630000Y11370000D03*
%TO.N,WBA_BOOT0*%
X-12730000Y-9110000D03*
D12*
%TO.N,NFC_GPO*%
X5710000Y-9920000D03*
D10*
X600000Y-9470000D03*
%TO.N,H3LIS_SCL*%
X4810000Y13410000D03*
X4270000Y-5920000D03*
D12*
X5800000Y-9580000D03*
D10*
X4240000Y-5630000D03*
D12*
%TO.N,H3LIS_SDA*%
X5860000Y-9000000D03*
D11*
X4810000Y-12410000D03*
D10*
%TO.N,WBA_NRST*%
X2750000Y-10070000D03*
D12*
%TO.N,WBA_AON_HOLD*%
X6160000Y-10550000D03*
D10*
X6640000Y-12840000D03*
%TO.N,WBA_HCI_MISO*%
X-15020000Y-5180000D03*
D12*
X7370000Y-9920000D03*
D10*
%TO.N,WBA_HCI_NSS*%
X-12870000Y-3430000D03*
D12*
X6910000Y-8520000D03*
D10*
%TO.N,H3LIS_INT1*%
X6550000Y8770000D03*
%TO.N,WBA_HCI_MOSI*%
X-15050000Y-2320000D03*
D12*
X7260000Y-9450000D03*
D10*
%TO.N,WBA_HCI_SCK*%
X-15080000Y-1150000D03*
D12*
X7230000Y-9010000D03*
D10*
%TO.N,FIN1_AOUT1*%
X-1810000Y1700000D03*
X9780000Y7190000D03*
%TO.N,FIN1_DVDD*%
X870000Y-3560000D03*
%TO.N,ACTIVATE_CONFIRM*%
X13360000Y-2980000D03*
%TO.N,ACTIVATE_SET*%
X14640000Y-890000D03*
%TO.N,BAT_RAW*%
X14740000Y3820000D03*
%TO.N,BOOT0*%
X14620000Y5770000D03*
%TO.N,COMP_1V8*%
X11020000Y-4650000D03*
%TO.N,COMP_5V*%
X13240000Y3100000D03*
X-10860000Y-10770000D03*
X4900000Y-820000D03*
X11780000Y920000D03*
%TO.N,COMP_OUT*%
X11790000Y3190000D03*
%TO.N,COMP_SWDCLK*%
X11680000Y4720000D03*
%TO.N,COMP_SWDIO*%
X12000000Y6330000D03*
%TO.N,EXT_CAN_RX*%
X12060000Y-6170000D03*
X14030000Y7480000D03*
%TO.N,EXT_CAN_TX*%
X11500000Y8380000D03*
%TO.N,GPIO_EXT_0*%
X8110000Y11390000D03*
%TO.N,GPIO_EXT_2*%
X7170000Y-12180000D03*
%TO.N,GPIO_EXT_3*%
X6450000Y10570000D03*
%TO.N,NRST*%
X-1390000Y13950000D03*
%TO.N,PWR_HOLD*%
X-7120000Y12180000D03*
%TO.N,USBWK_GATE*%
X-11350000Y-6330000D03*
%TO.N,WBA_RST_CMD*%
X-13530000Y-2190000D03*
X-600000Y-8100000D03*
%TO.N,FIN2_AOUT1*%
X-1940000Y-4480000D03*
X10080000Y8800000D03*
%TO.N,FIN2_DVDD*%
X-4370000Y-8610000D03*
%TO.N,FIN2_DECAY*%
X4120000Y-7200000D03*
%TD*%
%TO.N,3V3_AON*%
D13*
X-7840000Y-12050000D02*
X-6550000Y-13340000D01*
X-1060000Y-13690000D02*
X1940000Y-13690000D01*
X-1410000Y-13340000D02*
X-1060000Y-13690000D01*
X1940000Y-13690000D02*
X2030000Y-13600000D01*
X-1940000Y-13340000D02*
X-1410000Y-13340000D01*
X-6550000Y-13340000D02*
X-1940000Y-13340000D01*
%TO.N,FIN4_BPH*%
X1100000Y3040000D02*
X4960000Y3040000D01*
X4960000Y3040000D02*
X5100000Y3180000D01*
%TO.N,SYS_SPI_CS_FIN*%
D14*
X-8210000Y-14070000D02*
X-8360000Y-13920000D01*
X-8360000Y-13920000D02*
X-8610000Y-13920000D01*
X-8610000Y-13920000D02*
X-9540000Y-12990000D01*
X-9540000Y-12990000D02*
X-9540000Y-10930000D01*
%TO.N,FIN1_BEN*%
X4090000Y260000D02*
X3995000Y165000D01*
X5320000Y260000D02*
X4090000Y260000D01*
%TO.N,FIN3_AEN*%
X8460000Y1270000D02*
X8460000Y3710000D01*
X8290000Y3880000D02*
X7820000Y3880000D01*
X6000000Y520000D02*
X6540000Y1060000D01*
X8460000Y3710000D02*
X8290000Y3880000D01*
X6540000Y1060000D02*
X8250000Y1060000D01*
X8250000Y1060000D02*
X8460000Y1270000D01*
%TO.N,FIN4_BEN*%
X6440000Y4240000D02*
X4030000Y4240000D01*
X6850000Y4650000D02*
X6440000Y4240000D01*
X6850000Y4880000D02*
X6850000Y4650000D01*
%TO.N,FIN4_AEN*%
X3830000Y4930000D02*
X3740000Y4840000D01*
X3830000Y4940000D02*
X3830000Y4930000D01*
X4650000Y3400000D02*
X4680000Y3430000D01*
X3740000Y4840000D02*
X3740000Y3600000D01*
X3940000Y3400000D02*
X4650000Y3400000D01*
X3740000Y3600000D02*
X3940000Y3400000D01*
X4090000Y5200000D02*
X3830000Y4940000D01*
%TO.N,FIN3_AOUT1*%
D13*
X30000Y10070000D02*
X-1390000Y8650000D01*
X6650000Y10070000D02*
X30000Y10070000D01*
X6900000Y9820000D02*
X6650000Y10070000D01*
X10360000Y9820000D02*
X6900000Y9820000D01*
%TO.N,FIN4_AOUT1*%
X3595398Y7324602D02*
X2104602Y7324602D01*
X2104602Y7324602D02*
X-6890000Y-1670000D01*
X3620796Y7350000D02*
X3595398Y7324602D01*
X7670000Y8710000D02*
X6310000Y7350000D01*
X6310000Y7350000D02*
X3620796Y7350000D01*
X8520000Y8710000D02*
X7670000Y8710000D01*
%TO.N,NFC_GPO*%
D14*
X5290000Y-10340000D02*
X5290000Y-12480000D01*
X5040000Y-12730000D02*
X3860000Y-12730000D01*
X5290000Y-12480000D02*
X5040000Y-12730000D01*
X3860000Y-12730000D02*
X600000Y-9470000D01*
X5710000Y-9920000D02*
X5290000Y-10340000D01*
%TO.N,H3LIS_SCL*%
X4270000Y-5920000D02*
X4270000Y-5660000D01*
X6090000Y-7480000D02*
X6055000Y-7515000D01*
X4460000Y-5920000D02*
X4270000Y-5920000D01*
X6090000Y-9290000D02*
X6090000Y-7480000D01*
X6055000Y-7515000D02*
X4460000Y-5920000D01*
X4270000Y-5660000D02*
X4240000Y-5630000D01*
X5800000Y-9580000D02*
X6090000Y-9290000D01*
%TO.N,H3LIS_SDA*%
D13*
X5860000Y-9000000D02*
X5810000Y-9000000D01*
X5090000Y-12390000D02*
X4970000Y-12510000D01*
X5380000Y-9430000D02*
X5380000Y-9610000D01*
X5810000Y-9000000D02*
X5380000Y-9430000D01*
X4810000Y-12460000D02*
X4810000Y-12410000D01*
X5380000Y-9610000D02*
X5090000Y-9900000D01*
X5090000Y-9900000D02*
X5090000Y-12390000D01*
X4860000Y-12510000D02*
X4810000Y-12460000D01*
X4970000Y-12510000D02*
X4860000Y-12510000D01*
%TO.N,WBA_AON_HOLD*%
D14*
X6640000Y-12840000D02*
X6620000Y-12840000D01*
X6160000Y-12380000D02*
X6160000Y-10550000D01*
X6620000Y-12840000D02*
X6160000Y-12380000D01*
%TO.N,WBA_HCI_MISO*%
X5800000Y-5700000D02*
X5440000Y-5700000D01*
X-12170000Y-1920000D02*
X-13550000Y-540000D01*
X-15240000Y-540000D02*
X-15560000Y-860000D01*
X-15560000Y-2330000D02*
X-15020000Y-2870000D01*
X-15020000Y-2870000D02*
X-15020000Y-5180000D01*
X-13550000Y-540000D02*
X-15240000Y-540000D01*
X-11460000Y-4880000D02*
X-12170000Y-4170000D01*
X-12170000Y-4170000D02*
X-12170000Y-1920000D01*
X7370000Y-9680000D02*
X7660000Y-9390000D01*
X7660000Y-9170000D02*
X7620000Y-9130000D01*
X-15560000Y-860000D02*
X-15560000Y-2330000D01*
X4620000Y-4880000D02*
X-11460000Y-4880000D01*
X5440000Y-5700000D02*
X4620000Y-4880000D01*
X7370000Y-9920000D02*
X7370000Y-9680000D01*
X7660000Y-9390000D02*
X7660000Y-9170000D01*
X7620000Y-9130000D02*
X7620000Y-7520000D01*
X7620000Y-7520000D02*
X5800000Y-5700000D01*
%TO.N,WBA_HCI_NSS*%
X4410000Y-5370000D02*
X-12370000Y-5370000D01*
X-12370000Y-5370000D02*
X-12870000Y-4870000D01*
X-12870000Y-4870000D02*
X-12870000Y-3430000D01*
X7060000Y-8020000D02*
X4410000Y-5370000D01*
X6910000Y-8520000D02*
X7060000Y-8370000D01*
X7060000Y-8370000D02*
X7060000Y-8020000D01*
%TO.N,WBA_HCI_MOSI*%
X7260000Y-9450000D02*
X7260000Y-9360000D01*
X-13640000Y-690000D02*
X-15120000Y-690000D01*
X-12040000Y-5020000D02*
X-12320000Y-4740000D01*
X-12320000Y-2010000D02*
X-13640000Y-690000D01*
X4550000Y-5020000D02*
X-12040000Y-5020000D01*
X-15420000Y-990000D02*
X-15420000Y-1950000D01*
X7470000Y-7940000D02*
X4550000Y-5020000D01*
X-15120000Y-690000D02*
X-15420000Y-990000D01*
X7260000Y-9360000D02*
X7470000Y-9150000D01*
X-15420000Y-1950000D02*
X-15050000Y-2320000D01*
X-12320000Y-4740000D02*
X-12320000Y-2010000D01*
X7470000Y-9150000D02*
X7470000Y-7940000D01*
%TO.N,WBA_HCI_SCK*%
X-13700000Y-830000D02*
X-14760000Y-830000D01*
X4530000Y-5200000D02*
X-12160000Y-5200000D01*
X7230000Y-9010000D02*
X7230000Y-7900000D01*
X-12160000Y-5200000D02*
X-12490000Y-4870000D01*
X-12490000Y-4870000D02*
X-12490000Y-2040000D01*
X-14760000Y-830000D02*
X-15080000Y-1150000D01*
X7230000Y-7900000D02*
X4530000Y-5200000D01*
X-12490000Y-2040000D02*
X-13700000Y-830000D01*
%TO.N,FIN1_AOUT1*%
X3680000Y7190000D02*
X-1810000Y1700000D01*
X9780000Y7190000D02*
X3680000Y7190000D01*
%TO.N,COMP_5V*%
D13*
X4900000Y-820000D02*
X7910000Y-820000D01*
X7910000Y-820000D02*
X9330000Y600000D01*
X9330000Y600000D02*
X11190000Y600000D01*
X11190000Y600000D02*
X11510000Y920000D01*
X11510000Y920000D02*
X11780000Y920000D01*
%TO.N,EXT_CAN_RX*%
X12020000Y-6210000D02*
X12060000Y-6170000D01*
X12020000Y-6400000D02*
X12020000Y-6210000D01*
X14030000Y7480000D02*
X14030000Y7280000D01*
X15260000Y-5980000D02*
X14580000Y-6660000D01*
X14030000Y7280000D02*
X15230000Y6080000D01*
X15230000Y2600000D02*
X15260000Y2570000D01*
X14580000Y-6660000D02*
X12280000Y-6660000D01*
X15260000Y2570000D02*
X15260000Y-5980000D01*
X15230000Y6080000D02*
X15230000Y2600000D01*
X12280000Y-6660000D02*
X12020000Y-6400000D01*
%TO.N,WBA_RST_CMD*%
X-14410000Y-5880000D02*
X-14410000Y-2400000D01*
X-13750000Y-2190000D02*
X-13530000Y-2190000D01*
X-13760000Y-2180000D02*
X-13750000Y-2190000D01*
X-14190000Y-2180000D02*
X-13760000Y-2180000D01*
X-11450000Y-8840000D02*
X-14410000Y-5880000D01*
X-10500000Y-8900000D02*
X-10560000Y-8840000D01*
X-10560000Y-8840000D02*
X-11450000Y-8840000D01*
X-600000Y-8100000D02*
X-8560000Y-8100000D01*
X-14410000Y-2400000D02*
X-14190000Y-2180000D01*
X-8560000Y-8100000D02*
X-9360000Y-8900000D01*
X-9360000Y-8900000D02*
X-10500000Y-8900000D01*
%TO.N,FIN2_AOUT1*%
X11520000Y6610000D02*
X9490000Y6610000D01*
X9490000Y6610000D02*
X-1570000Y-4450000D01*
X-1910000Y-4450000D02*
X-1940000Y-4480000D01*
X10080000Y8800000D02*
X10940000Y7940000D01*
X11590000Y7940000D02*
X11880000Y7650000D01*
X11880000Y7650000D02*
X11880000Y6970000D01*
X-1570000Y-4450000D02*
X-1910000Y-4450000D01*
X11880000Y6970000D02*
X11520000Y6610000D01*
X10940000Y7940000D02*
X11590000Y7940000D01*
%TD*%
M02*
