%TF.GenerationSoftware,KiCad,Pcbnew,10.0.3*%
%TF.CreationDate,2026-08-07T12:01:27+02:00*%
%TF.ProjectId,wakeup_board,77616b65-7570-45f6-926f-6172642e6b69,rev?*%
%TF.SameCoordinates,Original*%
%TF.FileFunction,Legend,Top*%
%TF.FilePolarity,Positive*%
%FSLAX46Y46*%
G04 Gerber Fmt 4.6, Leading zero omitted, Abs format (unit mm)*
G04 Created by KiCad (PCBNEW 10.0.3) date 2026-08-07 12:01:27*
%MOMM*%
%LPD*%
G01*
G04 APERTURE LIST*
G04 Aperture macros list*
%AMRoundRect*
0 Rectangle with rounded corners*
0 $1 Rounding radius*
0 $2 $3 $4 $5 $6 $7 $8 $9 X,Y pos of 4 corners*
0 Add a 4 corners polygon primitive as box body*
4,1,4,$2,$3,$4,$5,$6,$7,$8,$9,$2,$3,0*
0 Add four circle primitives for the rounded corners*
1,1,$1+$1,$2,$3*
1,1,$1+$1,$4,$5*
1,1,$1+$1,$6,$7*
1,1,$1+$1,$8,$9*
0 Add four rect primitives between the rounded corners*
20,1,$1+$1,$2,$3,$4,$5,0*
20,1,$1+$1,$4,$5,$6,$7,0*
20,1,$1+$1,$6,$7,$8,$9,0*
20,1,$1+$1,$8,$9,$2,$3,0*%
G04 Aperture macros list end*
%ADD10C,0.120000*%
%ADD11C,0.037500*%
%ADD12C,0.150000*%
%ADD13RoundRect,0.100000X-0.130000X-0.100000X0.130000X-0.100000X0.130000X0.100000X-0.130000X0.100000X0*%
%ADD14R,0.550000X0.600000*%
%ADD15R,0.250000X0.475000*%
%ADD16RoundRect,0.250000X-0.300000X-0.250000X0.300000X-0.250000X0.300000X0.250000X-0.300000X0.250000X0*%
%ADD17C,0.224000*%
%ADD18R,0.600000X0.550000*%
%ADD19R,1.475000X0.450000*%
%ADD20R,2.310000X2.460000*%
%ADD21RoundRect,0.250000X-0.250000X-0.475000X0.250000X-0.475000X0.250000X0.475000X-0.250000X0.475000X0*%
%ADD22RoundRect,0.140000X0.170000X-0.140000X0.170000X0.140000X-0.170000X0.140000X-0.170000X-0.140000X0*%
%ADD23R,0.450000X1.475000*%
%ADD24RoundRect,0.112500X-0.350000X-0.112500X0.350000X-0.112500X0.350000X0.112500X-0.350000X0.112500X0*%
%ADD25RoundRect,0.250000X0.475000X-0.250000X0.475000X0.250000X-0.475000X0.250000X-0.475000X-0.250000X0*%
%ADD26R,1.300000X0.600000*%
%ADD27RoundRect,0.140000X-0.170000X0.140000X-0.170000X-0.140000X0.170000X-0.140000X0.170000X0.140000X0*%
%ADD28RoundRect,0.112500X0.112500X-0.350000X0.112500X0.350000X-0.112500X0.350000X-0.112500X-0.350000X0*%
%ADD29R,0.400000X0.800000*%
%ADD30R,1.750000X2.500000*%
%ADD31C,3.000000*%
%ADD32RoundRect,0.218750X0.256250X-0.218750X0.256250X0.218750X-0.256250X0.218750X-0.256250X-0.218750X0*%
%ADD33RoundRect,0.100000X-0.100000X0.155000X-0.100000X-0.155000X0.100000X-0.155000X0.100000X0.155000X0*%
%ADD34RoundRect,0.100000X0.155000X0.100000X-0.155000X0.100000X-0.155000X-0.100000X0.155000X-0.100000X0*%
%ADD35R,0.300000X0.350000*%
%ADD36C,0.221000*%
%ADD37R,0.900000X0.900000*%
%ADD38RoundRect,0.250000X0.250000X0.475000X-0.250000X0.475000X-0.250000X-0.475000X0.250000X-0.475000X0*%
%ADD39R,1.400000X0.600000*%
%ADD40R,0.850000X0.950000*%
G04 APERTURE END LIST*
D10*
X-13202000Y-1951000D02*
X-13202000Y-3271000D01*
X-13202000Y-3751000D02*
X-13202000Y-5071000D01*
X-13202000Y-5311000D02*
X-11882000Y-5311000D01*
X-11402000Y-5311000D02*
X-10082000Y-5311000D01*
X-13102000Y2250000D02*
X-13102000Y930000D01*
X-13102000Y450000D02*
X-13102000Y-870000D01*
X-13102000Y-1350000D02*
X-13102000Y-1951000D01*
X-13102000Y-1951000D02*
X-13202000Y-1951000D01*
X-12802000Y3651000D02*
X-12802000Y2331000D01*
X-12802000Y2250000D02*
X-13102000Y2250000D01*
X-12227000Y7646000D02*
X-12227000Y6326000D01*
X-12227000Y5846000D02*
X-12227000Y4526000D01*
X-12227000Y4046000D02*
X-12227000Y3651000D01*
X-12227000Y3651000D02*
X-12802000Y3651000D01*
X-10783400Y9015600D02*
X-9850019Y8082219D01*
X-9510608Y7742808D02*
X-9413800Y7646000D01*
X-9703000Y-5311000D02*
X-9703000Y-6631000D01*
X-9703000Y-7111000D02*
X-9703000Y-8431000D01*
X-9703000Y-8576000D02*
X-8383000Y-8576000D01*
X-7903000Y-8576000D02*
X-6919000Y-8576000D01*
X-9413800Y7646000D02*
X-10733800Y7646000D01*
X-11213800Y7646000D02*
X-12227000Y7646000D01*
X-9015600Y10783400D02*
X-9948981Y9850019D01*
X-10288392Y9510608D02*
X-10783400Y9015600D01*
X-8027000Y10527000D02*
X-8027000Y9794800D01*
X-8027000Y9794800D02*
X-8960381Y10728181D01*
X-6976000Y11877000D02*
X-6976000Y10557000D01*
X-6976000Y10527000D02*
X-8027000Y10527000D01*
X-6919000Y-8576000D02*
X-6919000Y-9896000D01*
X-6919000Y-10376000D02*
X-6919000Y-11696000D01*
X-6919000Y-12176000D02*
X-6919000Y-12879500D01*
X-6919000Y-12879500D02*
X-5599000Y-12879500D01*
X-5119000Y-12879500D02*
X-4299000Y-12879500D01*
X-4299000Y-12879500D02*
X-4299000Y-12903000D01*
X-4299000Y-12903000D02*
X-2979000Y-12903000D01*
X-3801000Y12905000D02*
X-3801000Y11877000D01*
X-3801000Y11877000D02*
X-5121000Y11877000D01*
X-5601000Y11877000D02*
X-6921000Y11877000D01*
X-2859000Y13839500D02*
X-2859000Y12905000D01*
X-2859000Y12905000D02*
X-3801000Y12905000D01*
X-2859000Y-12903000D02*
X-2859000Y-13839500D01*
X-2859000Y-13839500D02*
X-1539000Y-13839500D01*
X-1059000Y-13839500D02*
X261000Y-13839500D01*
X741000Y-13839500D02*
X2061000Y-13839500D01*
X2541000Y-13839500D02*
X2859000Y-13839500D01*
X2859000Y13839500D02*
X1539000Y13839500D01*
X1059000Y13839500D02*
X-261000Y13839500D01*
X-741000Y13839500D02*
X-2061000Y13839500D01*
X-2541000Y13839500D02*
X-2859000Y13839500D01*
X2859000Y12905000D02*
X2859000Y13839500D01*
X2859000Y-12032000D02*
X4179000Y-12032000D01*
X4659000Y-12032000D02*
X5979000Y-12032000D01*
X6459000Y-12032000D02*
X7779000Y-12032000D01*
X2859000Y-13839500D02*
X2859000Y-12519500D01*
X2859000Y-12039500D02*
X2859000Y-12032000D01*
X4349000Y12905000D02*
X3029000Y12905000D01*
X4349000Y12539500D02*
X4349000Y12905000D01*
X6269000Y12539500D02*
X4949000Y12539500D01*
X4469000Y12539500D02*
X4349000Y12539500D01*
X6269000Y8851000D02*
X6269000Y10171000D01*
X6269000Y10651000D02*
X6269000Y11971000D01*
X6269000Y12451000D02*
X6269000Y12539500D01*
X7836000Y-9603800D02*
X8769381Y-10537181D01*
X7836000Y-12032000D02*
X7836000Y-10712000D01*
X7836000Y-10232000D02*
X7836000Y-9603800D01*
X9015600Y-10783400D02*
X9948981Y-9850019D01*
X10288392Y-9510608D02*
X10783400Y-9015600D01*
X9618800Y-7851000D02*
X10577000Y-7851000D01*
X9801000Y8851000D02*
X8481000Y8851000D01*
X8001000Y8851000D02*
X6681000Y8851000D01*
X9801000Y6501000D02*
X9801000Y7821000D01*
X9801000Y8301000D02*
X9801000Y8851000D01*
X10577000Y-4251000D02*
X11897000Y-4251000D01*
X12377000Y-4251000D02*
X12477000Y-4251000D01*
X10577000Y-7851000D02*
X10577000Y-6531000D01*
X10577000Y-6051000D02*
X10577000Y-4731000D01*
X10577000Y-4251000D02*
X10577000Y-4251000D01*
X10783400Y-9015600D02*
X9850019Y-8082219D01*
X11076000Y3351000D02*
X11127000Y3351000D01*
X11076000Y1650000D02*
X11076000Y2970000D01*
X11127000Y6501000D02*
X9807000Y6501000D01*
X11127000Y3351000D02*
X11127000Y4671000D01*
X11127000Y5151000D02*
X11127000Y6471000D01*
X12477000Y-1650000D02*
X13797000Y-1650000D01*
X12477000Y-4251000D02*
X12477000Y-2931000D01*
X12477000Y-2451000D02*
X12477000Y-1650000D01*
X14137000Y1650000D02*
X12817000Y1650000D01*
X12337000Y1650000D02*
X11076000Y1650000D01*
X14137000Y-1650000D02*
X14137000Y-330000D01*
X14137000Y150000D02*
X14137000Y1470000D01*
X-12660537Y14513740D02*
X-12584346Y14475644D01*
X-12584346Y14475644D02*
X-12431965Y14475644D01*
X-12431965Y14475644D02*
X-12355775Y14513740D01*
X-12355775Y14513740D02*
X-12317679Y14589930D01*
X-12317679Y14589930D02*
X-12317679Y14628025D01*
X-12317679Y14628025D02*
X-12355775Y14704216D01*
X-12355775Y14704216D02*
X-12431965Y14742311D01*
X-12431965Y14742311D02*
X-12546251Y14742311D01*
X-12546251Y14742311D02*
X-12622441Y14780406D01*
X-12622441Y14780406D02*
X-12660537Y14856597D01*
X-12660537Y14856597D02*
X-12660537Y14894692D01*
X-12660537Y14894692D02*
X-12622441Y14970882D01*
X-12622441Y14970882D02*
X-12546251Y15008978D01*
X-12546251Y15008978D02*
X-12431965Y15008978D01*
X-12431965Y15008978D02*
X-12355775Y14970882D01*
X-11974822Y15008978D02*
X-11974822Y14208978D01*
X-11974822Y14970882D02*
X-11898632Y15008978D01*
X-11898632Y15008978D02*
X-11746251Y15008978D01*
X-11746251Y15008978D02*
X-11670060Y14970882D01*
X-11670060Y14970882D02*
X-11631965Y14932787D01*
X-11631965Y14932787D02*
X-11593870Y14856597D01*
X-11593870Y14856597D02*
X-11593870Y14628025D01*
X-11593870Y14628025D02*
X-11631965Y14551835D01*
X-11631965Y14551835D02*
X-11670060Y14513740D01*
X-11670060Y14513740D02*
X-11746251Y14475644D01*
X-11746251Y14475644D02*
X-11898632Y14475644D01*
X-11898632Y14475644D02*
X-11974822Y14513740D01*
X-10908155Y14475644D02*
X-10908155Y14894692D01*
X-10908155Y14894692D02*
X-10946250Y14970882D01*
X-10946250Y14970882D02*
X-11022441Y15008978D01*
X-11022441Y15008978D02*
X-11174822Y15008978D01*
X-11174822Y15008978D02*
X-11251012Y14970882D01*
X-10908155Y14513740D02*
X-10984346Y14475644D01*
X-10984346Y14475644D02*
X-11174822Y14475644D01*
X-11174822Y14475644D02*
X-11251012Y14513740D01*
X-11251012Y14513740D02*
X-11289108Y14589930D01*
X-11289108Y14589930D02*
X-11289108Y14666120D01*
X-11289108Y14666120D02*
X-11251012Y14742311D01*
X-11251012Y14742311D02*
X-11174822Y14780406D01*
X-11174822Y14780406D02*
X-10984346Y14780406D01*
X-10984346Y14780406D02*
X-10908155Y14818501D01*
X-10184345Y14513740D02*
X-10260536Y14475644D01*
X-10260536Y14475644D02*
X-10412917Y14475644D01*
X-10412917Y14475644D02*
X-10489107Y14513740D01*
X-10489107Y14513740D02*
X-10527202Y14551835D01*
X-10527202Y14551835D02*
X-10565298Y14628025D01*
X-10565298Y14628025D02*
X-10565298Y14856597D01*
X-10565298Y14856597D02*
X-10527202Y14932787D01*
X-10527202Y14932787D02*
X-10489107Y14970882D01*
X-10489107Y14970882D02*
X-10412917Y15008978D01*
X-10412917Y15008978D02*
X-10260536Y15008978D01*
X-10260536Y15008978D02*
X-10184345Y14970882D01*
X-9536726Y14513740D02*
X-9612917Y14475644D01*
X-9612917Y14475644D02*
X-9765298Y14475644D01*
X-9765298Y14475644D02*
X-9841488Y14513740D01*
X-9841488Y14513740D02*
X-9879584Y14589930D01*
X-9879584Y14589930D02*
X-9879584Y14894692D01*
X-9879584Y14894692D02*
X-9841488Y14970882D01*
X-9841488Y14970882D02*
X-9765298Y15008978D01*
X-9765298Y15008978D02*
X-9612917Y15008978D01*
X-9612917Y15008978D02*
X-9536726Y14970882D01*
X-9536726Y14970882D02*
X-9498631Y14894692D01*
X-9498631Y14894692D02*
X-9498631Y14818501D01*
X-9498631Y14818501D02*
X-9879584Y14742311D01*
X-9155774Y14475644D02*
X-9155774Y15008978D01*
X-9155774Y14856597D02*
X-9117679Y14932787D01*
X-9117679Y14932787D02*
X-9079584Y14970882D01*
X-9079584Y14970882D02*
X-9003393Y15008978D01*
X-9003393Y15008978D02*
X-8927203Y15008978D01*
X-8851013Y14399454D02*
X-8241489Y14399454D01*
X-8127203Y15008978D02*
X-7974822Y14475644D01*
X-7974822Y14475644D02*
X-7822441Y14856597D01*
X-7822441Y14856597D02*
X-7670060Y14475644D01*
X-7670060Y14475644D02*
X-7517679Y15008978D01*
X-6870060Y14475644D02*
X-6870060Y14894692D01*
X-6870060Y14894692D02*
X-6908155Y14970882D01*
X-6908155Y14970882D02*
X-6984346Y15008978D01*
X-6984346Y15008978D02*
X-7136727Y15008978D01*
X-7136727Y15008978D02*
X-7212917Y14970882D01*
X-6870060Y14513740D02*
X-6946251Y14475644D01*
X-6946251Y14475644D02*
X-7136727Y14475644D01*
X-7136727Y14475644D02*
X-7212917Y14513740D01*
X-7212917Y14513740D02*
X-7251013Y14589930D01*
X-7251013Y14589930D02*
X-7251013Y14666120D01*
X-7251013Y14666120D02*
X-7212917Y14742311D01*
X-7212917Y14742311D02*
X-7136727Y14780406D01*
X-7136727Y14780406D02*
X-6946251Y14780406D01*
X-6946251Y14780406D02*
X-6870060Y14818501D01*
X-6489107Y14475644D02*
X-6489107Y15275644D01*
X-6412917Y14780406D02*
X-6184345Y14475644D01*
X-6184345Y15008978D02*
X-6489107Y14704216D01*
X-5536726Y14513740D02*
X-5612917Y14475644D01*
X-5612917Y14475644D02*
X-5765298Y14475644D01*
X-5765298Y14475644D02*
X-5841488Y14513740D01*
X-5841488Y14513740D02*
X-5879584Y14589930D01*
X-5879584Y14589930D02*
X-5879584Y14894692D01*
X-5879584Y14894692D02*
X-5841488Y14970882D01*
X-5841488Y14970882D02*
X-5765298Y15008978D01*
X-5765298Y15008978D02*
X-5612917Y15008978D01*
X-5612917Y15008978D02*
X-5536726Y14970882D01*
X-5536726Y14970882D02*
X-5498631Y14894692D01*
X-5498631Y14894692D02*
X-5498631Y14818501D01*
X-5498631Y14818501D02*
X-5879584Y14742311D01*
X-4812917Y15008978D02*
X-4812917Y14475644D01*
X-5155774Y15008978D02*
X-5155774Y14589930D01*
X-5155774Y14589930D02*
X-5117679Y14513740D01*
X-5117679Y14513740D02*
X-5041489Y14475644D01*
X-5041489Y14475644D02*
X-4927203Y14475644D01*
X-4927203Y14475644D02*
X-4851012Y14513740D01*
X-4851012Y14513740D02*
X-4812917Y14551835D01*
X-4431964Y15008978D02*
X-4431964Y14208978D01*
X-4431964Y14970882D02*
X-4355774Y15008978D01*
X-4355774Y15008978D02*
X-4203393Y15008978D01*
X-4203393Y15008978D02*
X-4127202Y14970882D01*
X-4127202Y14970882D02*
X-4089107Y14932787D01*
X-4089107Y14932787D02*
X-4051012Y14856597D01*
X-4051012Y14856597D02*
X-4051012Y14628025D01*
X-4051012Y14628025D02*
X-4089107Y14551835D01*
X-4089107Y14551835D02*
X-4127202Y14513740D01*
X-4127202Y14513740D02*
X-4203393Y14475644D01*
X-4203393Y14475644D02*
X-4355774Y14475644D01*
X-4355774Y14475644D02*
X-4431964Y14513740D01*
X-3898631Y14399454D02*
X-3289107Y14399454D01*
X-3098630Y14475644D02*
X-3098630Y15275644D01*
X-3098630Y14970882D02*
X-3022440Y15008978D01*
X-3022440Y15008978D02*
X-2870059Y15008978D01*
X-2870059Y15008978D02*
X-2793868Y14970882D01*
X-2793868Y14970882D02*
X-2755773Y14932787D01*
X-2755773Y14932787D02*
X-2717678Y14856597D01*
X-2717678Y14856597D02*
X-2717678Y14628025D01*
X-2717678Y14628025D02*
X-2755773Y14551835D01*
X-2755773Y14551835D02*
X-2793868Y14513740D01*
X-2793868Y14513740D02*
X-2870059Y14475644D01*
X-2870059Y14475644D02*
X-3022440Y14475644D01*
X-3022440Y14475644D02*
X-3098630Y14513740D01*
X-2260535Y14475644D02*
X-2336725Y14513740D01*
X-2336725Y14513740D02*
X-2374820Y14551835D01*
X-2374820Y14551835D02*
X-2412916Y14628025D01*
X-2412916Y14628025D02*
X-2412916Y14856597D01*
X-2412916Y14856597D02*
X-2374820Y14932787D01*
X-2374820Y14932787D02*
X-2336725Y14970882D01*
X-2336725Y14970882D02*
X-2260535Y15008978D01*
X-2260535Y15008978D02*
X-2146249Y15008978D01*
X-2146249Y15008978D02*
X-2070058Y14970882D01*
X-2070058Y14970882D02*
X-2031963Y14932787D01*
X-2031963Y14932787D02*
X-1993868Y14856597D01*
X-1993868Y14856597D02*
X-1993868Y14628025D01*
X-1993868Y14628025D02*
X-2031963Y14551835D01*
X-2031963Y14551835D02*
X-2070058Y14513740D01*
X-2070058Y14513740D02*
X-2146249Y14475644D01*
X-2146249Y14475644D02*
X-2260535Y14475644D01*
X-1308153Y14475644D02*
X-1308153Y14894692D01*
X-1308153Y14894692D02*
X-1346248Y14970882D01*
X-1346248Y14970882D02*
X-1422439Y15008978D01*
X-1422439Y15008978D02*
X-1574820Y15008978D01*
X-1574820Y15008978D02*
X-1651010Y14970882D01*
X-1308153Y14513740D02*
X-1384344Y14475644D01*
X-1384344Y14475644D02*
X-1574820Y14475644D01*
X-1574820Y14475644D02*
X-1651010Y14513740D01*
X-1651010Y14513740D02*
X-1689106Y14589930D01*
X-1689106Y14589930D02*
X-1689106Y14666120D01*
X-1689106Y14666120D02*
X-1651010Y14742311D01*
X-1651010Y14742311D02*
X-1574820Y14780406D01*
X-1574820Y14780406D02*
X-1384344Y14780406D01*
X-1384344Y14780406D02*
X-1308153Y14818501D01*
X-927200Y14475644D02*
X-927200Y15008978D01*
X-927200Y14856597D02*
X-889105Y14932787D01*
X-889105Y14932787D02*
X-851010Y14970882D01*
X-851010Y14970882D02*
X-774819Y15008978D01*
X-774819Y15008978D02*
X-698629Y15008978D01*
X-89105Y14475644D02*
X-89105Y15275644D01*
X-89105Y14513740D02*
X-165296Y14475644D01*
X-165296Y14475644D02*
X-317677Y14475644D01*
X-317677Y14475644D02*
X-393867Y14513740D01*
X-393867Y14513740D02*
X-431962Y14551835D01*
X-431962Y14551835D02*
X-470058Y14628025D01*
X-470058Y14628025D02*
X-470058Y14856597D01*
X-470058Y14856597D02*
X-431962Y14932787D01*
X-431962Y14932787D02*
X-393867Y14970882D01*
X-393867Y14970882D02*
X-317677Y15008978D01*
X-317677Y15008978D02*
X-165296Y15008978D01*
X-165296Y15008978D02*
X-89105Y14970882D01*
X101371Y14399454D02*
X710894Y14399454D01*
X901371Y15008978D02*
X901371Y14208978D01*
X901371Y14970882D02*
X977561Y15008978D01*
X977561Y15008978D02*
X1129942Y15008978D01*
X1129942Y15008978D02*
X1206133Y14970882D01*
X1206133Y14970882D02*
X1244228Y14932787D01*
X1244228Y14932787D02*
X1282323Y14856597D01*
X1282323Y14856597D02*
X1282323Y14628025D01*
X1282323Y14628025D02*
X1244228Y14551835D01*
X1244228Y14551835D02*
X1206133Y14513740D01*
X1206133Y14513740D02*
X1129942Y14475644D01*
X1129942Y14475644D02*
X977561Y14475644D01*
X977561Y14475644D02*
X901371Y14513740D01*
X1739466Y14475644D02*
X1663276Y14513740D01*
X1663276Y14513740D02*
X1625181Y14551835D01*
X1625181Y14551835D02*
X1587085Y14628025D01*
X1587085Y14628025D02*
X1587085Y14856597D01*
X1587085Y14856597D02*
X1625181Y14932787D01*
X1625181Y14932787D02*
X1663276Y14970882D01*
X1663276Y14970882D02*
X1739466Y15008978D01*
X1739466Y15008978D02*
X1853752Y15008978D01*
X1853752Y15008978D02*
X1929943Y14970882D01*
X1929943Y14970882D02*
X1968038Y14932787D01*
X1968038Y14932787D02*
X2006133Y14856597D01*
X2006133Y14856597D02*
X2006133Y14628025D01*
X2006133Y14628025D02*
X1968038Y14551835D01*
X1968038Y14551835D02*
X1929943Y14513740D01*
X1929943Y14513740D02*
X1853752Y14475644D01*
X1853752Y14475644D02*
X1739466Y14475644D01*
X2272800Y15008978D02*
X2425181Y14475644D01*
X2425181Y14475644D02*
X2577562Y14856597D01*
X2577562Y14856597D02*
X2729943Y14475644D01*
X2729943Y14475644D02*
X2882324Y15008978D01*
X3491848Y14513740D02*
X3415657Y14475644D01*
X3415657Y14475644D02*
X3263276Y14475644D01*
X3263276Y14475644D02*
X3187086Y14513740D01*
X3187086Y14513740D02*
X3148990Y14589930D01*
X3148990Y14589930D02*
X3148990Y14894692D01*
X3148990Y14894692D02*
X3187086Y14970882D01*
X3187086Y14970882D02*
X3263276Y15008978D01*
X3263276Y15008978D02*
X3415657Y15008978D01*
X3415657Y15008978D02*
X3491848Y14970882D01*
X3491848Y14970882D02*
X3529943Y14894692D01*
X3529943Y14894692D02*
X3529943Y14818501D01*
X3529943Y14818501D02*
X3148990Y14742311D01*
X3872800Y14475644D02*
X3872800Y15008978D01*
X3872800Y14856597D02*
X3910895Y14932787D01*
X3910895Y14932787D02*
X3948990Y14970882D01*
X3948990Y14970882D02*
X4025181Y15008978D01*
X4025181Y15008978D02*
X4101371Y15008978D01*
X4177562Y14399454D02*
X4787085Y14399454D01*
X4977562Y14475644D02*
X4977562Y15275644D01*
X4977562Y14970882D02*
X5053752Y15008978D01*
X5053752Y15008978D02*
X5206133Y15008978D01*
X5206133Y15008978D02*
X5282324Y14970882D01*
X5282324Y14970882D02*
X5320419Y14932787D01*
X5320419Y14932787D02*
X5358514Y14856597D01*
X5358514Y14856597D02*
X5358514Y14628025D01*
X5358514Y14628025D02*
X5320419Y14551835D01*
X5320419Y14551835D02*
X5282324Y14513740D01*
X5282324Y14513740D02*
X5206133Y14475644D01*
X5206133Y14475644D02*
X5053752Y14475644D01*
X5053752Y14475644D02*
X4977562Y14513740D01*
X5815657Y14475644D02*
X5739467Y14513740D01*
X5739467Y14513740D02*
X5701372Y14551835D01*
X5701372Y14551835D02*
X5663276Y14628025D01*
X5663276Y14628025D02*
X5663276Y14856597D01*
X5663276Y14856597D02*
X5701372Y14932787D01*
X5701372Y14932787D02*
X5739467Y14970882D01*
X5739467Y14970882D02*
X5815657Y15008978D01*
X5815657Y15008978D02*
X5929943Y15008978D01*
X5929943Y15008978D02*
X6006134Y14970882D01*
X6006134Y14970882D02*
X6044229Y14932787D01*
X6044229Y14932787D02*
X6082324Y14856597D01*
X6082324Y14856597D02*
X6082324Y14628025D01*
X6082324Y14628025D02*
X6044229Y14551835D01*
X6044229Y14551835D02*
X6006134Y14513740D01*
X6006134Y14513740D02*
X5929943Y14475644D01*
X5929943Y14475644D02*
X5815657Y14475644D01*
X6768039Y14475644D02*
X6768039Y14894692D01*
X6768039Y14894692D02*
X6729944Y14970882D01*
X6729944Y14970882D02*
X6653753Y15008978D01*
X6653753Y15008978D02*
X6501372Y15008978D01*
X6501372Y15008978D02*
X6425182Y14970882D01*
X6768039Y14513740D02*
X6691848Y14475644D01*
X6691848Y14475644D02*
X6501372Y14475644D01*
X6501372Y14475644D02*
X6425182Y14513740D01*
X6425182Y14513740D02*
X6387086Y14589930D01*
X6387086Y14589930D02*
X6387086Y14666120D01*
X6387086Y14666120D02*
X6425182Y14742311D01*
X6425182Y14742311D02*
X6501372Y14780406D01*
X6501372Y14780406D02*
X6691848Y14780406D01*
X6691848Y14780406D02*
X6768039Y14818501D01*
X7148992Y14475644D02*
X7148992Y15008978D01*
X7148992Y14856597D02*
X7187087Y14932787D01*
X7187087Y14932787D02*
X7225182Y14970882D01*
X7225182Y14970882D02*
X7301373Y15008978D01*
X7301373Y15008978D02*
X7377563Y15008978D01*
X7987087Y14475644D02*
X7987087Y15275644D01*
X7987087Y14513740D02*
X7910896Y14475644D01*
X7910896Y14475644D02*
X7758515Y14475644D01*
X7758515Y14475644D02*
X7682325Y14513740D01*
X7682325Y14513740D02*
X7644230Y14551835D01*
X7644230Y14551835D02*
X7606134Y14628025D01*
X7606134Y14628025D02*
X7606134Y14856597D01*
X7606134Y14856597D02*
X7644230Y14932787D01*
X7644230Y14932787D02*
X7682325Y14970882D01*
X7682325Y14970882D02*
X7758515Y15008978D01*
X7758515Y15008978D02*
X7910896Y15008978D01*
X7910896Y15008978D02*
X7987087Y14970882D01*
X9320421Y14513740D02*
X9244230Y14475644D01*
X9244230Y14475644D02*
X9091849Y14475644D01*
X9091849Y14475644D02*
X9015659Y14513740D01*
X9015659Y14513740D02*
X8977564Y14551835D01*
X8977564Y14551835D02*
X8939468Y14628025D01*
X8939468Y14628025D02*
X8939468Y14856597D01*
X8939468Y14856597D02*
X8977564Y14932787D01*
X8977564Y14932787D02*
X9015659Y14970882D01*
X9015659Y14970882D02*
X9091849Y15008978D01*
X9091849Y15008978D02*
X9244230Y15008978D01*
X9244230Y15008978D02*
X9320421Y14970882D01*
X10006135Y15008978D02*
X10006135Y14475644D01*
X9663278Y15008978D02*
X9663278Y14589930D01*
X9663278Y14589930D02*
X9701373Y14513740D01*
X9701373Y14513740D02*
X9777563Y14475644D01*
X9777563Y14475644D02*
X9891849Y14475644D01*
X9891849Y14475644D02*
X9968040Y14513740D01*
X9968040Y14513740D02*
X10006135Y14551835D01*
X10272802Y15008978D02*
X10577564Y15008978D01*
X10387088Y15275644D02*
X10387088Y14589930D01*
X10387088Y14589930D02*
X10425183Y14513740D01*
X10425183Y14513740D02*
X10501373Y14475644D01*
X10501373Y14475644D02*
X10577564Y14475644D01*
X10958516Y14475644D02*
X10882326Y14513740D01*
X10882326Y14513740D02*
X10844231Y14551835D01*
X10844231Y14551835D02*
X10806135Y14628025D01*
X10806135Y14628025D02*
X10806135Y14856597D01*
X10806135Y14856597D02*
X10844231Y14932787D01*
X10844231Y14932787D02*
X10882326Y14970882D01*
X10882326Y14970882D02*
X10958516Y15008978D01*
X10958516Y15008978D02*
X11072802Y15008978D01*
X11072802Y15008978D02*
X11148993Y14970882D01*
X11148993Y14970882D02*
X11187088Y14932787D01*
X11187088Y14932787D02*
X11225183Y14856597D01*
X11225183Y14856597D02*
X11225183Y14628025D01*
X11225183Y14628025D02*
X11187088Y14551835D01*
X11187088Y14551835D02*
X11148993Y14513740D01*
X11148993Y14513740D02*
X11072802Y14475644D01*
X11072802Y14475644D02*
X10958516Y14475644D01*
X11910898Y15008978D02*
X11910898Y14475644D01*
X11568041Y15008978D02*
X11568041Y14589930D01*
X11568041Y14589930D02*
X11606136Y14513740D01*
X11606136Y14513740D02*
X11682326Y14475644D01*
X11682326Y14475644D02*
X11796612Y14475644D01*
X11796612Y14475644D02*
X11872803Y14513740D01*
X11872803Y14513740D02*
X11910898Y14551835D01*
X12177565Y15008978D02*
X12482327Y15008978D01*
X12291851Y15275644D02*
X12291851Y14589930D01*
X12291851Y14589930D02*
X12329946Y14513740D01*
X12329946Y14513740D02*
X12406136Y14475644D01*
X12406136Y14475644D02*
X12482327Y14475644D01*
D11*
X-5979285Y7636842D02*
X-5986428Y7629700D01*
X-5986428Y7629700D02*
X-6007856Y7622557D01*
X-6007856Y7622557D02*
X-6022142Y7622557D01*
X-6022142Y7622557D02*
X-6043571Y7629700D01*
X-6043571Y7629700D02*
X-6057856Y7643985D01*
X-6057856Y7643985D02*
X-6064999Y7658271D01*
X-6064999Y7658271D02*
X-6072142Y7686842D01*
X-6072142Y7686842D02*
X-6072142Y7708271D01*
X-6072142Y7708271D02*
X-6064999Y7736842D01*
X-6064999Y7736842D02*
X-6057856Y7751128D01*
X-6057856Y7751128D02*
X-6043571Y7765414D01*
X-6043571Y7765414D02*
X-6022142Y7772557D01*
X-6022142Y7772557D02*
X-6007856Y7772557D01*
X-6007856Y7772557D02*
X-5986428Y7765414D01*
X-5986428Y7765414D02*
X-5979285Y7758271D01*
X-5886428Y7772557D02*
X-5857856Y7772557D01*
X-5857856Y7772557D02*
X-5843571Y7765414D01*
X-5843571Y7765414D02*
X-5829285Y7751128D01*
X-5829285Y7751128D02*
X-5822142Y7722557D01*
X-5822142Y7722557D02*
X-5822142Y7672557D01*
X-5822142Y7672557D02*
X-5829285Y7643985D01*
X-5829285Y7643985D02*
X-5843571Y7629700D01*
X-5843571Y7629700D02*
X-5857856Y7622557D01*
X-5857856Y7622557D02*
X-5886428Y7622557D01*
X-5886428Y7622557D02*
X-5900714Y7629700D01*
X-5900714Y7629700D02*
X-5914999Y7643985D01*
X-5914999Y7643985D02*
X-5922142Y7672557D01*
X-5922142Y7672557D02*
X-5922142Y7722557D01*
X-5922142Y7722557D02*
X-5914999Y7751128D01*
X-5914999Y7751128D02*
X-5900714Y7765414D01*
X-5900714Y7765414D02*
X-5886428Y7772557D01*
X-5757856Y7772557D02*
X-5757856Y7651128D01*
X-5757856Y7651128D02*
X-5750713Y7636842D01*
X-5750713Y7636842D02*
X-5743571Y7629700D01*
X-5743571Y7629700D02*
X-5729285Y7622557D01*
X-5729285Y7622557D02*
X-5700713Y7622557D01*
X-5700713Y7622557D02*
X-5686428Y7629700D01*
X-5686428Y7629700D02*
X-5679285Y7636842D01*
X-5679285Y7636842D02*
X-5672142Y7651128D01*
X-5672142Y7651128D02*
X-5672142Y7772557D01*
X-5622142Y7772557D02*
X-5536428Y7772557D01*
X-5579285Y7622557D02*
X-5579285Y7772557D01*
X-5407856Y7622557D02*
X-5493570Y7622557D01*
X-5450713Y7622557D02*
X-5450713Y7772557D01*
X-5450713Y7772557D02*
X-5464999Y7751128D01*
X-5464999Y7751128D02*
X-5479284Y7736842D01*
X-5479284Y7736842D02*
X-5493570Y7729700D01*
%TO.C,Y_WBA_HSE*%
D10*
X-2670000Y-10080000D02*
X-2670000Y-13100000D01*
X-2670000Y-13100000D02*
X850000Y-13100000D01*
%TO.C,CBOOST_OUT1*%
X10368748Y-2305000D02*
X10891252Y-2305000D01*
X10368748Y-3775000D02*
X10891252Y-3775000D01*
%TO.C,C_WBA_PI2*%
X9382164Y-6850000D02*
X9597836Y-6850000D01*
X9382164Y-7570000D02*
X9597836Y-7570000D01*
%TO.C,QMAIN*%
X-10862000Y6861000D02*
X-9392000Y6861000D01*
X-10862000Y5561000D02*
X-10862000Y5891000D01*
X-9392000Y6861000D02*
X-9392000Y6211000D01*
X-9392000Y5241000D02*
X-9392000Y4591000D01*
X-9392000Y4591000D02*
X-10862000Y4591000D01*
X-11307000Y5886000D02*
X-11167000Y5696000D01*
X-11447000Y5696000D01*
X-11307000Y5886000D01*
G36*
X-11167000Y5696000D02*
G01*
X-11447000Y5696000D01*
X-11307000Y5886000D01*
X-11167000Y5696000D01*
G37*
%TO.C,COUT2*%
X-12185000Y-511252D02*
X-12185000Y11252D01*
X-10715000Y-511252D02*
X-10715000Y11252D01*
%TO.C,C_WBA_PI1*%
X5597836Y-6940000D02*
X5382164Y-6940000D01*
X5597836Y-7660000D02*
X5382164Y-7660000D01*
%TO.C,QHOLD*%
X-12687000Y-2896000D02*
X-12037000Y-2896000D01*
X-12687000Y-4366000D02*
X-12687000Y-2896000D01*
X-11387000Y-4366000D02*
X-11717000Y-4366000D01*
X-11067000Y-2896000D02*
X-10417000Y-2896000D01*
X-10417000Y-2896000D02*
X-10417000Y-4366000D01*
X-11712000Y-4811000D02*
X-11522000Y-4671000D01*
X-11522000Y-4951000D01*
X-11712000Y-4811000D01*
G36*
X-11522000Y-4951000D02*
G01*
X-11712000Y-4811000D01*
X-11522000Y-4671000D01*
X-11522000Y-4951000D01*
G37*
%TO.C,L_WBA_SMPS*%
X1540000Y-11322779D02*
X1540000Y-10997221D01*
X2560000Y-11322779D02*
X2560000Y-10997221D01*
%TO.C,D_NFC_WAKE*%
X-5730000Y-7847500D02*
X-5730000Y-9147500D01*
X-3930000Y-7847500D02*
X-3930000Y-9147500D01*
D12*
X-5265000Y-9747500D02*
G75*
G02*
X-5415000Y-9747500I-75000J0D01*
G01*
X-5415000Y-9747500D02*
G75*
G02*
X-5265000Y-9747500I75000J0D01*
G01*
%TO.C,QHOLD2*%
D10*
X-4275000Y-4910000D02*
X-5575000Y-4910000D01*
X-4275000Y-6710000D02*
X-5575000Y-6710000D01*
D12*
X-6100000Y-5300000D02*
G75*
G02*
X-6250000Y-5300000I-75000J0D01*
G01*
X-6250000Y-5300000D02*
G75*
G02*
X-6100000Y-5300000I75000J0D01*
G01*
%TO.C,COUT1*%
D10*
X-5478748Y10105000D02*
X-6001252Y10105000D01*
X-5478748Y8635000D02*
X-6001252Y8635000D01*
%TD*%
%LPC*%
D13*
%TO.C,R_FIN3_DECAY*%
X4245000Y5630000D03*
X4885000Y5630000D03*
%TD*%
D14*
%TO.C,CBOOST_OUT2*%
X9675000Y-4705000D03*
X9675000Y-5655000D03*
%TD*%
D15*
%TO.C,U_IMU1*%
X-8990000Y-6742000D03*
X-8990000Y-6242000D03*
X-8990000Y-5742000D03*
X-8990000Y-5242000D03*
X-8327000Y-5080000D03*
X-7827000Y-5080000D03*
X-7327000Y-5080000D03*
X-6664000Y-5242000D03*
X-6664000Y-5742000D03*
X-6664000Y-6242000D03*
X-6664000Y-6742000D03*
X-7327000Y-6904000D03*
X-7827000Y-6904000D03*
X-8327000Y-6904000D03*
%TD*%
D16*
%TO.C,Y_WBA_HSE*%
X-1860000Y-12340000D03*
X40000Y-12340000D03*
X40000Y-10840000D03*
X-1860000Y-10840000D03*
%TD*%
D17*
%TO.C,U_G0B1_FIN*%
X5690000Y3440000D03*
X6190000Y3440000D03*
X6690000Y3440000D03*
X7190000Y3440000D03*
X7690000Y3440000D03*
X8190000Y3440000D03*
X8690000Y3440000D03*
X9190000Y3440000D03*
X5690000Y2940000D03*
X6190000Y2940000D03*
X6690000Y2940000D03*
X7190000Y2940000D03*
X7690000Y2940000D03*
X8190000Y2940000D03*
X8690000Y2940000D03*
X9190000Y2940000D03*
X5690000Y2440000D03*
X6190000Y2440000D03*
X6690000Y2440000D03*
X7190000Y2440000D03*
X7690000Y2440000D03*
X8190000Y2440000D03*
X8690000Y2440000D03*
X9190000Y2440000D03*
X5690000Y1940000D03*
X6190000Y1940000D03*
X6690000Y1940000D03*
X7190000Y1940000D03*
X7690000Y1940000D03*
X8190000Y1940000D03*
X8690000Y1940000D03*
X9190000Y1940000D03*
X5690000Y1440000D03*
X6190000Y1440000D03*
X6690000Y1440000D03*
X7190000Y1440000D03*
X7690000Y1440000D03*
X8190000Y1440000D03*
X8690000Y1440000D03*
X9190000Y1440000D03*
X5690000Y940000D03*
X6190000Y940000D03*
X6690000Y940000D03*
X7190000Y940000D03*
X7690000Y940000D03*
X8190000Y940000D03*
X8690000Y940000D03*
X9190000Y940000D03*
X5690000Y440000D03*
X6190000Y440000D03*
X6690000Y440000D03*
X7190000Y440000D03*
X7690000Y440000D03*
X8190000Y440000D03*
X8690000Y440000D03*
X9190000Y440000D03*
X5690000Y-60000D03*
X6190000Y-60000D03*
X6690000Y-60000D03*
X7190000Y-60000D03*
X7690000Y-60000D03*
X8190000Y-60000D03*
X8690000Y-60000D03*
X9190000Y-60000D03*
%TD*%
D18*
%TO.C,R_BOOST_FB2*%
X11110000Y-600000D03*
X12060000Y-600000D03*
%TD*%
D19*
%TO.C,U_FIN3*%
X-3010000Y9080000D03*
X-3010000Y8430000D03*
X-3010000Y7780000D03*
X-3010000Y7130000D03*
X-3010000Y6480000D03*
X-3010000Y5830000D03*
X-3010000Y5180000D03*
X-3010000Y4530000D03*
X2866000Y4530000D03*
X2866000Y5180000D03*
X2866000Y5830000D03*
X2866000Y6480000D03*
X2866000Y7130000D03*
X2866000Y7780000D03*
X2866000Y8430000D03*
X2866000Y9080000D03*
D20*
X-72000Y6805000D03*
%TD*%
D21*
%TO.C,CBOOST_OUT1*%
X9680000Y-3040000D03*
X11580000Y-3040000D03*
%TD*%
D22*
%TO.C,C_WBA_PI2*%
X9010000Y-7210000D03*
X9970000Y-7210000D03*
%TD*%
D23*
%TO.C,U_FIN4*%
X-9263500Y-2938000D03*
X-8613500Y-2938000D03*
X-7963500Y-2938000D03*
X-7313500Y-2938000D03*
X-6663500Y-2938000D03*
X-6013500Y-2938000D03*
X-5363500Y-2938000D03*
X-4713500Y-2938000D03*
X-4713500Y2938000D03*
X-5363500Y2938000D03*
X-6013500Y2938000D03*
X-6663500Y2938000D03*
X-7313500Y2938000D03*
X-7963500Y2938000D03*
X-8613500Y2938000D03*
X-9263500Y2938000D03*
D20*
X-6988500Y0D03*
%TD*%
D24*
%TO.C,QMAIN*%
X-11014500Y6376000D03*
X-11014500Y5076000D03*
X-9239500Y5726000D03*
%TD*%
D25*
%TO.C,COUT2*%
X-11450000Y-1200000D03*
X-11450000Y700000D03*
%TD*%
D14*
%TO.C,R_WBA_BOOT0*%
X-6460000Y-9690000D03*
X-6460000Y-8740000D03*
%TD*%
D15*
%TO.C,U_IMU3*%
X-1213000Y11138000D03*
X-1213000Y11638000D03*
X-1213000Y12138000D03*
X-1213000Y12638000D03*
X-550000Y12800000D03*
X-50000Y12800000D03*
X450000Y12800000D03*
X1113000Y12638000D03*
X1113000Y12138000D03*
X1113000Y11638000D03*
X1113000Y11138000D03*
X450000Y10976000D03*
X-50000Y10976000D03*
X-550000Y10976000D03*
%TD*%
D26*
%TO.C,L_PWR*%
X13240000Y-960000D03*
X13240000Y640000D03*
%TD*%
D27*
%TO.C,C_WBA_PI1*%
X5970000Y-7300000D03*
X5010000Y-7300000D03*
%TD*%
D28*
%TO.C,QHOLD*%
X-12202000Y-4518500D03*
X-10902000Y-4518500D03*
X-11552000Y-2743500D03*
%TD*%
D15*
%TO.C,U_IMU2*%
X-5950000Y-12050000D03*
X-5950000Y-11550000D03*
X-5950000Y-11050000D03*
X-5950000Y-10550000D03*
X-5287000Y-10388000D03*
X-4787000Y-10388000D03*
X-4287000Y-10388000D03*
X-3624000Y-10550000D03*
X-3624000Y-11050000D03*
X-3624000Y-11550000D03*
X-3624000Y-12050000D03*
X-4287000Y-12212000D03*
X-4787000Y-12212000D03*
X-5287000Y-12212000D03*
%TD*%
D29*
%TO.C,U_PWR*%
X-7940000Y5450000D03*
X-7940000Y6400000D03*
X-7940000Y7350000D03*
X-4940000Y7350000D03*
X-4940000Y6400000D03*
X-4940000Y5450000D03*
D30*
X-6440000Y6400000D03*
%TD*%
D18*
%TO.C,R_IMU3_SDX_PU*%
X-3450000Y10600000D03*
X-3450000Y11550000D03*
%TD*%
D31*
%TO.C,*%
X-9899500Y9899500D03*
%TD*%
D32*
%TO.C,L_WBA_SMPS*%
X2050000Y-11947500D03*
X2050000Y-10372500D03*
%TD*%
D33*
%TO.C,D_NFC_WAKE*%
X-5330000Y-9142500D03*
X-4330000Y-9142500D03*
X-4830000Y-7852500D03*
%TD*%
D18*
%TO.C,L_WBA_PI*%
X7140000Y-7380000D03*
X8090000Y-7380000D03*
%TD*%
D34*
%TO.C,QHOLD2*%
X-5570000Y-5310000D03*
X-5570000Y-6310000D03*
X-4280000Y-5810000D03*
%TD*%
D14*
%TO.C,R_BOOST_FB1*%
X10355000Y-1540000D03*
X9405000Y-1540000D03*
%TD*%
%TO.C,R_FIN1_DECAY*%
X4190000Y-970000D03*
X4190000Y-1920000D03*
%TD*%
%TO.C,C_G0B1_FIN_NRST*%
X8530000Y8275000D03*
X8530000Y7325000D03*
%TD*%
D35*
%TO.C,U_MAG*%
X3769000Y10039500D03*
X3769000Y10539500D03*
X3769000Y11039500D03*
X3769000Y11539500D03*
X4269000Y11539500D03*
X4769000Y11539500D03*
X5269000Y11539500D03*
X5269000Y11039500D03*
X5269000Y10539500D03*
X5269000Y10039500D03*
X4769000Y10039500D03*
X4269000Y10039500D03*
%TD*%
D36*
%TO.C,U_WBA*%
X4756000Y-10092000D03*
X4756000Y-9692000D03*
X4756000Y-9292000D03*
X4756000Y-8892000D03*
X5106000Y-10292000D03*
X5106000Y-9892000D03*
X5106000Y-9492000D03*
X5106000Y-9092000D03*
X5106000Y-8692000D03*
X5456000Y-10892000D03*
X5456000Y-10492000D03*
X5456000Y-10092000D03*
X5456000Y-9692000D03*
X5456000Y-9292000D03*
X5456000Y-8892000D03*
X5806000Y-11092000D03*
X5806000Y-10692000D03*
X5806000Y-10292000D03*
X5806000Y-9892000D03*
X5806000Y-9492000D03*
X5806000Y-9092000D03*
X5806000Y-8692000D03*
X6156000Y-10892000D03*
X6156000Y-10492000D03*
X6156000Y-10092000D03*
X6156000Y-9692000D03*
X6156000Y-9292000D03*
X6156000Y-8892000D03*
X6506000Y-11092000D03*
X6506000Y-10692000D03*
X6506000Y-10292000D03*
X6506000Y-9892000D03*
X6506000Y-9492000D03*
X6506000Y-9092000D03*
X6506000Y-8692000D03*
X6856000Y-10892000D03*
X6856000Y-10492000D03*
X6856000Y-10092000D03*
X6856000Y-9692000D03*
X6856000Y-9292000D03*
X6856000Y-8892000D03*
%TD*%
D31*
%TO.C,*%
X9899500Y-9899500D03*
%TD*%
D19*
%TO.C,U_FIN1*%
X-3030000Y2460000D03*
X-3030000Y1810000D03*
X-3030000Y1160000D03*
X-3030000Y510000D03*
X-3030000Y-140000D03*
X-3030000Y-790000D03*
X-3030000Y-1440000D03*
X-3030000Y-2090000D03*
X2846000Y-2090000D03*
X2846000Y-1440000D03*
X2846000Y-790000D03*
X2846000Y-140000D03*
X2846000Y510000D03*
X2846000Y1160000D03*
X2846000Y1810000D03*
X2846000Y2460000D03*
D20*
X-92000Y185000D03*
%TD*%
D37*
%TO.C,J_wakeup_board_spacer_wakeup_board_power_board*%
X14200000Y-5591000D03*
X14200000Y-4241000D03*
X14200000Y-2891000D03*
X14200000Y2509000D03*
X14200000Y3859000D03*
X14200000Y5209000D03*
X12850000Y-5591000D03*
X12850000Y2509000D03*
X12850000Y3859000D03*
X12850000Y5209000D03*
X12850000Y6559000D03*
X12850000Y7909000D03*
X11500000Y-5591000D03*
X11500000Y7909000D03*
X11500000Y9259000D03*
X10150000Y10609000D03*
X8800000Y10609000D03*
X8800000Y11959000D03*
X7450000Y10609000D03*
X7450000Y11959000D03*
X7450000Y13309000D03*
X6100000Y-13691000D03*
X6100000Y13309000D03*
X4750000Y-13691000D03*
X4750000Y14659000D03*
X-4700000Y-13691000D03*
X-4700000Y13309000D03*
X-4700000Y14659000D03*
X-6050000Y-13691000D03*
X-6050000Y13309000D03*
X-7400000Y13309000D03*
X-8750000Y-12341000D03*
X-8750000Y-10991000D03*
X-8750000Y-9641000D03*
X-10100000Y-10991000D03*
X-10100000Y-9641000D03*
X-11450000Y-9641000D03*
X-11450000Y-8291000D03*
X-11450000Y-6941000D03*
X-12800000Y-8291000D03*
X-12800000Y-6941000D03*
X-14150000Y-5591000D03*
X-14150000Y-4241000D03*
X-14150000Y-2891000D03*
X-14150000Y-1541000D03*
X-14150000Y-191000D03*
X-14150000Y1159000D03*
X-14150000Y2509000D03*
X-14150000Y3859000D03*
X-14150000Y5209000D03*
X-15500000Y-191000D03*
%TD*%
D14*
%TO.C,R_G0B1_FIN_NRST*%
X9390000Y7310000D03*
X9390000Y8260000D03*
%TD*%
D38*
%TO.C,COUT1*%
X-4790000Y9370000D03*
X-6690000Y9370000D03*
%TD*%
D39*
%TO.C,U_BOOST*%
X5150000Y-5460000D03*
X5150000Y-4510000D03*
X5150000Y-3560000D03*
X7650000Y-3560000D03*
X7650000Y-4510000D03*
X7650000Y-5460000D03*
%TD*%
D19*
%TO.C,U_FIN2*%
X-3200000Y-4160000D03*
X-3200000Y-4810000D03*
X-3200000Y-5460000D03*
X-3200000Y-6110000D03*
X-3200000Y-6760000D03*
X-3200000Y-7410000D03*
X-3200000Y-8060000D03*
X-3200000Y-8710000D03*
X2676000Y-8710000D03*
X2676000Y-8060000D03*
X2676000Y-7410000D03*
X2676000Y-6760000D03*
X2676000Y-6110000D03*
X2676000Y-5460000D03*
X2676000Y-4810000D03*
X2676000Y-4160000D03*
D20*
X-262000Y-6435000D03*
%TD*%
D40*
%TO.C,C_FIN1_DVDD*%
X-100000Y-3170000D03*
X-1700000Y-3170000D03*
%TD*%
D14*
%TO.C,R_IMU3_SCX_PU*%
X-2560000Y11210000D03*
X-2560000Y12160000D03*
%TD*%
%LPD*%
M02*
