%TF.GenerationSoftware,KiCad,Pcbnew,10.0.3*%
%TF.CreationDate,2026-08-07T12:01:26+02:00*%
%TF.ProjectId,wakeup_board,77616b65-7570-45f6-926f-6172642e6b69,rev?*%
%TF.SameCoordinates,Original*%
%TF.FileFunction,Copper,L2,Inr*%
%TF.FilePolarity,Positive*%
%FSLAX46Y46*%
G04 Gerber Fmt 4.6, Leading zero omitted, Abs format (unit mm)*
G04 Created by KiCad (PCBNEW 10.0.3) date 2026-08-07 12:01:26*
%MOMM*%
%LPD*%
G01*
G04 APERTURE LIST*
%TA.AperFunction,ViaPad*%
%ADD10C,0.300000*%
%TD*%
%TA.AperFunction,ViaPad*%
%ADD11C,0.200000*%
%TD*%
%TA.AperFunction,ViaPad*%
%ADD12C,0.250000*%
%TD*%
%TA.AperFunction,Conductor*%
%ADD13C,0.100000*%
%TD*%
%TA.AperFunction,Conductor*%
%ADD14C,0.070000*%
%TD*%
%TA.AperFunction,Conductor*%
%ADD15C,0.075000*%
%TD*%
G04 APERTURE END LIST*
D10*
%TO.N,FLEX_GND*%
X5810000Y-10280000D03*
X4140000Y9200000D03*
D11*
X5100000Y-9490000D03*
D10*
X-2560000Y10250000D03*
X-60000Y7690000D03*
X-6600000Y10730000D03*
X-60000Y7690000D03*
X-2840000Y-11550000D03*
X10650000Y-7400000D03*
X10410000Y3960000D03*
X1880000Y-12900000D03*
X-5390000Y-5990000D03*
X-7890000Y-40000D03*
X-7090000Y-8810000D03*
D11*
X8070000Y-12420000D03*
D10*
X8090000Y-10330000D03*
X6310000Y11380000D03*
X5050000Y12150000D03*
X1020000Y3760000D03*
X-10000000Y-30000D03*
X860000Y-1590000D03*
X-7070000Y-4270000D03*
X5150000Y1370000D03*
X-9740000Y1350000D03*
X2770000Y-3490000D03*
X-12290000Y-9210000D03*
X8480000Y-1100000D03*
X11650000Y-1800000D03*
X-910000Y-4390000D03*
X-6080000Y140000D03*
X-10060000Y4160000D03*
X-6970000Y6640000D03*
X-4810000Y-10060000D03*
D11*
X5550000Y-6710000D03*
D10*
X9850000Y980000D03*
D11*
X6580000Y-6110000D03*
D10*
X100000Y-13370000D03*
X5670000Y-8110000D03*
X1740000Y14110000D03*
X-1590000Y-1660000D03*
X5290000Y-4450000D03*
X8660000Y6840000D03*
X10140000Y-5500000D03*
X1480000Y-6500000D03*
X910000Y6780000D03*
X-5660000Y-12000000D03*
X-7970000Y1930000D03*
X-9840000Y-6810000D03*
X-5160000Y-390000D03*
X-120000Y1170000D03*
X12340000Y-20000D03*
X5830000Y-10700000D03*
X3800000Y-11180000D03*
X3960000Y-8830000D03*
X5510000Y5650000D03*
X50000Y13170000D03*
X-6090000Y6540000D03*
X5830000Y-11110000D03*
X-2150000Y-8980000D03*
%TO.N,IMU1_SDX*%
X-9960000Y-5950000D03*
%TO.N,IMU1_SCX*%
X-8730000Y-5790000D03*
%TO.N,IMU1_INT*%
X-8130000Y-6100000D03*
X4150000Y-13890000D03*
%TO.N,3V3*%
X-6490000Y-4540000D03*
X520000Y10370000D03*
X-10160000Y-7980000D03*
X-7330000Y-6470000D03*
X8150000Y-1420000D03*
X1810000Y-620000D03*
X-3430000Y-10550000D03*
X-14090000Y3250000D03*
X11090000Y280000D03*
X3210000Y11420000D03*
X-1680000Y6960000D03*
X-8070000Y-5670000D03*
X14800000Y-5410000D03*
X5190000Y1780000D03*
X-2780000Y10620000D03*
X-1675000Y13365000D03*
X6310000Y9630000D03*
X850000Y13620000D03*
X-5210000Y-10880000D03*
X-5400000Y10970000D03*
X9710000Y2210000D03*
X5180000Y9380000D03*
X-3820000Y-12870000D03*
X9250000Y6800000D03*
X-4520000Y4530000D03*
X-1020000Y-1440000D03*
X-11380000Y-1900000D03*
%TO.N,I2C2_SCL*%
X6690000Y12290000D03*
X1660000Y-7750000D03*
X3780000Y9710000D03*
X-7130000Y-7650000D03*
%TO.N,I2C2_SDA*%
X7520000Y-11410000D03*
X-8130000Y-6530000D03*
%TO.N,3V3_AON*%
X2030000Y-13600000D03*
X4750000Y-10070000D03*
X6680000Y-8160000D03*
X-1940000Y-13340000D03*
X14150000Y-6970000D03*
X4140000Y-9220000D03*
X5100000Y-8400000D03*
X6830000Y-10500000D03*
D12*
%TO.N,WBA_HSE_IN*%
X4750000Y-9690000D03*
D10*
X720000Y-11250000D03*
%TO.N,SYS_SPI_MISO*%
X4070000Y2620000D03*
%TO.N,SYS_SPI_SCLK*%
X-11270000Y-7640000D03*
D11*
%TO.N,FIN1_BPH*%
X6950000Y2720000D03*
%TO.N,FIN2_BPH*%
X7420000Y2260000D03*
D10*
%TO.N,SYS_SPI_CS_FIN*%
X8000000Y2660000D03*
%TO.N,FIN3_BPH*%
X4605000Y6355000D03*
%TO.N,G0B1_FIN_NRST*%
X8440000Y6020000D03*
D11*
%TO.N,FIN4_APH*%
X7960000Y1690000D03*
D10*
%TO.N,FIN2_AEN*%
X5390000Y690000D03*
D11*
%TO.N,FIN3_AEN*%
X7820000Y3880000D03*
D10*
%TO.N,FIN_HALL*%
X10140000Y-380000D03*
%TO.N,FIN_VREF*%
X-4630000Y3920000D03*
%TO.N,COMP_5V_RAW*%
X-3120000Y9340000D03*
X260000Y8500000D03*
X-2100000Y2460000D03*
X-2350000Y-4040000D03*
X13210000Y4500000D03*
X-9263500Y-1963500D03*
%TO.N,FIN3_AOUT1*%
X-1390000Y8650000D03*
X10360000Y9820000D03*
%TO.N,FIN3_DVDD*%
X-1780000Y3880000D03*
%TO.N,FIN4_DVDD*%
X-4300000Y-2670000D03*
%TO.N,FIN4_DECAY*%
X-6340000Y3960000D03*
%TO.N,MAIN_SW_GATE*%
X-4580000Y-5920000D03*
X-4200000Y-6190000D03*
%TO.N,BAT_PROT*%
X14730000Y3120000D03*
X-10180000Y5200000D03*
%TO.N,REG_IN_MAIN*%
X5240000Y-3030000D03*
X6510000Y-5220000D03*
X-8640000Y5080000D03*
X-11380000Y2460000D03*
%TO.N,IMU3_INT*%
X-4630000Y11410000D03*
%TO.N,I2C3_SCL*%
X10000Y11330000D03*
%TO.N,I2C3_SDA*%
X-990000Y10680000D03*
%TO.N,IMU2_SDX*%
X-5470000Y-11250000D03*
%TO.N,IMU2_SCX*%
X-6620000Y-10990000D03*
%TO.N,WBA_VLX*%
X3190000Y-12610000D03*
X5460000Y-8890000D03*
D12*
X5400000Y-8640000D03*
D10*
%TO.N,WBA_VDD11*%
X3180000Y-10970000D03*
X3400000Y-10400000D03*
X5110000Y-9090000D03*
%TO.N,NFC_WAKE_K*%
X-2650000Y-9710000D03*
%TO.N,QHOLD2_GATE*%
X-6230000Y-5780000D03*
%TO.N,MAG_C1_TERM*%
X3940000Y12850000D03*
X2470000Y13410000D03*
X3710000Y13770000D03*
%TO.N,MAG_DRDY*%
X-3330000Y14010000D03*
X5630000Y11370000D03*
%TO.N,WBA_BOOT0*%
X-12730000Y-9110000D03*
D11*
X5380000Y-9841500D03*
X-7720000Y-11160000D03*
D10*
%TO.N,WBA_HCI_IRQ*%
X5440000Y-9280000D03*
X3840000Y-11730000D03*
%TO.N,H3LIS_SCL*%
X4810000Y13410000D03*
X4270000Y-5920000D03*
D11*
%TO.N,H3LIS_SDA*%
X4810000Y-12410000D03*
D10*
%TO.N,WBA_NRST*%
X2750000Y-10070000D03*
%TO.N,WBA_UART_RX*%
X6160000Y-9300000D03*
X-12690000Y240000D03*
D12*
X5790000Y-9300000D03*
D10*
%TO.N,WBA_WAKE*%
X6490000Y-10290000D03*
D12*
X6370000Y-10050000D03*
D10*
%TO.N,WBA_HCI_MISO*%
X6490000Y-9500000D03*
D12*
X7370000Y-9920000D03*
D10*
%TO.N,WBA_UART_TX*%
X-12480000Y1400000D03*
X6510000Y-9130000D03*
D12*
X6120000Y-8320000D03*
D10*
%TO.N,WBA_HCI_NSS*%
X6510000Y-8670000D03*
D12*
X6910000Y-8520000D03*
D10*
%TO.N,WBA_HCI_MOSI*%
X6880000Y-9300000D03*
D12*
X7260000Y-9450000D03*
D10*
%TO.N,WBA_HCI_SCK*%
X6830000Y-8860000D03*
D12*
X7230000Y-9010000D03*
D10*
%TO.N,FIN1_DVDD*%
X870000Y-3560000D03*
%TO.N,ACTIVATE_CONFIRM*%
X13360000Y-2980000D03*
%TO.N,ACTIVATE_SET*%
X14640000Y-890000D03*
%TO.N,BAT_RAW*%
X14740000Y3820000D03*
%TO.N,BOOT0*%
X14620000Y5770000D03*
%TO.N,COMP_1V8*%
X11020000Y-4650000D03*
%TO.N,COMP_5V*%
X13240000Y3100000D03*
X-10860000Y-10770000D03*
%TO.N,COMP_OUT*%
X11790000Y3190000D03*
%TO.N,COMP_SWDCLK*%
X11680000Y4720000D03*
%TO.N,COMP_SWDIO*%
X12000000Y6330000D03*
%TO.N,EXT_CAN_TX*%
X11500000Y8380000D03*
%TO.N,GPIO_EXT_0*%
X8110000Y11390000D03*
%TO.N,GPIO_EXT_2*%
X7170000Y-12180000D03*
%TO.N,GPIO_EXT_3*%
X6450000Y10570000D03*
%TO.N,NRST*%
X-1390000Y13950000D03*
%TO.N,PWR_HOLD*%
X-7120000Y12180000D03*
%TO.N,USBWK_GATE*%
X-11350000Y-6330000D03*
%TO.N,WBA_RST_CMD*%
X-13390000Y300000D03*
%TO.N,FIN2_DVDD*%
X-4370000Y-8610000D03*
%TO.N,FIN2_DECAY*%
X4120000Y-7200000D03*
%TD*%
%TO.N,WBA_HSE_IN*%
D13*
X790000Y-11320000D02*
X720000Y-11250000D01*
X4750000Y-9690000D02*
X4600000Y-9690000D01*
X3430000Y-11320000D02*
X790000Y-11320000D01*
X3480000Y-10810000D02*
X3480000Y-11270000D01*
X3480000Y-11270000D02*
X3430000Y-11320000D01*
X4600000Y-9690000D02*
X3480000Y-10810000D01*
%TO.N,WBA_VLX*%
D14*
X5460000Y-8890000D02*
X5460000Y-8690000D01*
X5460000Y-8690000D02*
X5420000Y-8650000D01*
%TO.N,WBA_VDD11*%
D13*
X3400000Y-10400000D02*
X3450000Y-10350000D01*
X5110000Y-9090000D02*
X5120000Y-9080000D01*
X4590000Y-9170000D02*
X5030000Y-9170000D01*
X5030000Y-9170000D02*
X5110000Y-9090000D01*
X4440000Y-9320000D02*
X4590000Y-9170000D01*
X3580000Y-10350000D02*
X4440000Y-9490000D01*
X4440000Y-9490000D02*
X4440000Y-9320000D01*
X3450000Y-10350000D02*
X3580000Y-10350000D01*
%TO.N,WBA_BOOT0*%
X5380000Y-10920000D02*
X4300000Y-12000000D01*
D15*
X5380000Y-9841500D02*
X5380000Y-10310000D01*
D13*
X4300000Y-12000000D02*
X1720000Y-12000000D01*
X-6350000Y-12530000D02*
X-7720000Y-11160000D01*
X1720000Y-12000000D02*
X1190000Y-12530000D01*
X5380000Y-10310000D02*
X5380000Y-10920000D01*
X1190000Y-12530000D02*
X-6350000Y-12530000D01*
%TO.N,WBA_HCI_IRQ*%
D14*
X5140000Y-10430000D02*
X5140000Y-9790000D01*
X5340000Y-9590000D02*
X5340000Y-9440000D01*
X5140000Y-9790000D02*
X5340000Y-9590000D01*
X5440000Y-9340000D02*
X5440000Y-9280000D01*
X5340000Y-9440000D02*
X5440000Y-9340000D01*
X3840000Y-11730000D02*
X5140000Y-10430000D01*
%TO.N,WBA_UART_RX*%
D13*
X5790000Y-9300000D02*
X6160000Y-9300000D01*
%TO.N,WBA_WAKE*%
D14*
X6490000Y-10290000D02*
X6490000Y-10160000D01*
X6490000Y-10160000D02*
X6390000Y-10060000D01*
%TO.N,WBA_HCI_MISO*%
X7350000Y-9930000D02*
X7360000Y-9920000D01*
X6490000Y-9500000D02*
X6490000Y-9750000D01*
X6670000Y-9930000D02*
X7350000Y-9930000D01*
X6490000Y-9750000D02*
X6670000Y-9930000D01*
%TO.N,WBA_UART_TX*%
X6240000Y-8440000D02*
X6120000Y-8320000D01*
X6510000Y-9080000D02*
X6240000Y-8810000D01*
X6510000Y-9130000D02*
X6510000Y-9080000D01*
X6240000Y-8810000D02*
X6240000Y-8440000D01*
%TO.N,WBA_HCI_NSS*%
X6510000Y-8670000D02*
X6610000Y-8570000D01*
X6840000Y-8570000D02*
X6890000Y-8520000D01*
X6610000Y-8570000D02*
X6840000Y-8570000D01*
%TO.N,WBA_HCI_MOSI*%
X6880000Y-9300000D02*
X7120000Y-9300000D01*
X7120000Y-9300000D02*
X7260000Y-9440000D01*
%TO.N,WBA_HCI_SCK*%
X6830000Y-8860000D02*
X7100000Y-8860000D01*
X7100000Y-8860000D02*
X7230000Y-8990000D01*
%TO.N,WBA_RST_CMD*%
D13*
X-13230000Y80000D02*
X-13410000Y-100000D01*
X-13230000Y130000D02*
X-13230000Y80000D01*
X-13410000Y-1940000D02*
X-7250000Y-8100000D01*
X-13390000Y290000D02*
X-13230000Y130000D01*
X-13390000Y300000D02*
X-13390000Y290000D01*
X-7250000Y-8100000D02*
X-600000Y-8100000D01*
X-13410000Y-100000D02*
X-13410000Y-1940000D01*
%TD*%
%TA.AperFunction,Conductor*%
%TO.N,FLEX_GND*%
G36*
X5026860Y-9294229D02*
G01*
X5066140Y-9310500D01*
X5066142Y-9310500D01*
X5153858Y-9310500D01*
X5153860Y-9310500D01*
X5159898Y-9307999D01*
X5182392Y-9307999D01*
X5197393Y-9307998D01*
X5197395Y-9307999D01*
X5197398Y-9308000D01*
X5212050Y-9322653D01*
X5223913Y-9334515D01*
X5225878Y-9339258D01*
X5238940Y-9370794D01*
X5238941Y-9408291D01*
X5234500Y-9419015D01*
X5234500Y-9526004D01*
X5220148Y-9560652D01*
X5080238Y-9700562D01*
X5059147Y-9721652D01*
X5024499Y-9736003D01*
X4989851Y-9721650D01*
X4975500Y-9687003D01*
X4975500Y-9645147D01*
X4975500Y-9645145D01*
X4941170Y-9562264D01*
X4941169Y-9562263D01*
X4941168Y-9562261D01*
X4877739Y-9498832D01*
X4877736Y-9498830D01*
X4794858Y-9464501D01*
X4794856Y-9464500D01*
X4794855Y-9464500D01*
X4705145Y-9464500D01*
X4705143Y-9464500D01*
X4705141Y-9464501D01*
X4628251Y-9496350D01*
X4590748Y-9496350D01*
X4564230Y-9469831D01*
X4560500Y-9451080D01*
X4560500Y-9390209D01*
X4574852Y-9355561D01*
X4625561Y-9304852D01*
X4660209Y-9290500D01*
X5006031Y-9290500D01*
X5008109Y-9290500D01*
X5026860Y-9294229D01*
G37*
%TD.AperFunction*%
%TA.AperFunction,Conductor*%
G36*
X1965832Y16380843D02*
G01*
X2171867Y16349521D01*
X3016482Y16221120D01*
X3019668Y16220528D01*
X4080437Y15986640D01*
X4083567Y15985840D01*
X5126518Y15682573D01*
X5129595Y15681567D01*
X6150251Y15310094D01*
X6153256Y15308887D01*
X7147129Y14870832D01*
X7150044Y14869430D01*
X8112878Y14366724D01*
X8115693Y14365134D01*
X9043292Y13800022D01*
X9045998Y13798249D01*
X9934330Y13173126D01*
X9936913Y13171178D01*
X10781952Y12488895D01*
X10784402Y12486779D01*
X11582624Y11750101D01*
X11584926Y11747832D01*
X12332842Y10960143D01*
X12334994Y10957720D01*
X13029170Y10122368D01*
X13031153Y10119815D01*
X13668748Y9240497D01*
X13670560Y9237817D01*
X14248758Y8318314D01*
X14250387Y8315522D01*
X14766725Y7359869D01*
X14768170Y7356969D01*
X15220146Y6369415D01*
X15221394Y6366431D01*
X15607299Y5351060D01*
X15608348Y5348002D01*
X15926426Y4309487D01*
X15927271Y4306364D01*
X16176150Y3249011D01*
X16176787Y3245834D01*
X16355219Y2174467D01*
X16355645Y2171263D01*
X16463059Y1090444D01*
X16463272Y1087218D01*
X16499172Y1620D01*
X16499172Y-1620D01*
X16463272Y-1087218D01*
X16463059Y-1090444D01*
X16355645Y-2171263D01*
X16355219Y-2174467D01*
X16176787Y-3245834D01*
X16176150Y-3249011D01*
X15927271Y-4306364D01*
X15926426Y-4309487D01*
X15608348Y-5348002D01*
X15607299Y-5351060D01*
X15221394Y-6366431D01*
X15220146Y-6369415D01*
X14768170Y-7356969D01*
X14766725Y-7359869D01*
X14250387Y-8315522D01*
X14248758Y-8318314D01*
X13670560Y-9237817D01*
X13668748Y-9240497D01*
X13031153Y-10119815D01*
X13029170Y-10122368D01*
X12334994Y-10957720D01*
X12332842Y-10960143D01*
X11584926Y-11747832D01*
X11582624Y-11750101D01*
X10784402Y-12486779D01*
X10781952Y-12488895D01*
X9936913Y-13171178D01*
X9934330Y-13173126D01*
X9045998Y-13798249D01*
X9043292Y-13800022D01*
X8115693Y-14365134D01*
X8112878Y-14366724D01*
X7150044Y-14869430D01*
X7147129Y-14870832D01*
X6153256Y-15308887D01*
X6150251Y-15310094D01*
X5129595Y-15681567D01*
X5126518Y-15682573D01*
X4083567Y-15985840D01*
X4080437Y-15986640D01*
X3019668Y-16220528D01*
X3016482Y-16221120D01*
X2171867Y-16349521D01*
X1965832Y-16380843D01*
X1958470Y-16381400D01*
X-1958475Y-16381400D01*
X-1965840Y-16380843D01*
X-3016483Y-16221120D01*
X-3019669Y-16220528D01*
X-4080441Y-15986640D01*
X-4083572Y-15985840D01*
X-5126519Y-15682573D01*
X-5129595Y-15681567D01*
X-6150246Y-15310096D01*
X-6153251Y-15308889D01*
X-7147129Y-14870832D01*
X-7150044Y-14869430D01*
X-8112889Y-14366718D01*
X-8115704Y-14365128D01*
X-8399701Y-14192111D01*
X-8460467Y-14155091D01*
X-6315500Y-14155091D01*
X-6315500Y-14224909D01*
X-6288782Y-14289413D01*
X-6288780Y-14289415D01*
X-6288780Y-14289416D01*
X-6239415Y-14338780D01*
X-6239413Y-14338782D01*
X-6174909Y-14365500D01*
X-6174907Y-14365500D01*
X-6105093Y-14365500D01*
X-6105091Y-14365500D01*
X-6040587Y-14338782D01*
X-6040585Y-14338780D01*
X-6040584Y-14338780D01*
X-5991220Y-14289416D01*
X-5991219Y-14289414D01*
X-5991218Y-14289413D01*
X-5964500Y-14224909D01*
X-5964500Y-14155091D01*
X-5964500Y-14155089D01*
X-5991219Y-14090585D01*
X-6040585Y-14041219D01*
X-6105089Y-14014500D01*
X-6105091Y-14014500D01*
X-6174909Y-14014500D01*
X-6174910Y-14014500D01*
X-6201628Y-14025567D01*
X-6239413Y-14041218D01*
X-6239414Y-14041219D01*
X-6239416Y-14041220D01*
X-6288780Y-14090584D01*
X-6288780Y-14090585D01*
X-6288782Y-14090587D01*
X-6315500Y-14155091D01*
X-8460467Y-14155091D01*
X-9043301Y-13800016D01*
X-9046007Y-13798242D01*
X-9717914Y-13325418D01*
X-9768000Y-13290172D01*
X-2190500Y-13290172D01*
X-2190500Y-13389828D01*
X-2152364Y-13481897D01*
X-2152362Y-13481899D01*
X-2152362Y-13481900D01*
X-2084091Y-13550170D01*
X-2081897Y-13552364D01*
X-1989828Y-13590500D01*
X-1989826Y-13590500D01*
X-1890174Y-13590500D01*
X-1890172Y-13590500D01*
X-1798103Y-13552364D01*
X-1798101Y-13552362D01*
X-1798100Y-13552362D01*
X-1795908Y-13550170D01*
X1779500Y-13550170D01*
X1779500Y-13550172D01*
X1779500Y-13649828D01*
X1817636Y-13741897D01*
X1817637Y-13741898D01*
X1817638Y-13741900D01*
X1888100Y-13812362D01*
X1888101Y-13812362D01*
X1888103Y-13812364D01*
X1980172Y-13850500D01*
X1980174Y-13850500D01*
X2079826Y-13850500D01*
X2079828Y-13850500D01*
X2104767Y-13840170D01*
X3899500Y-13840170D01*
X3899500Y-13840172D01*
X3899500Y-13939828D01*
X3937636Y-14031897D01*
X3937637Y-14031898D01*
X3937638Y-14031900D01*
X4008100Y-14102362D01*
X4008101Y-14102362D01*
X4008103Y-14102364D01*
X4100172Y-14140500D01*
X4100174Y-14140500D01*
X4199826Y-14140500D01*
X4199828Y-14140500D01*
X4291897Y-14102364D01*
X4291899Y-14102362D01*
X4291900Y-14102362D01*
X4362362Y-14031900D01*
X4362362Y-14031899D01*
X4362364Y-14031897D01*
X4400500Y-13939828D01*
X4400500Y-13840172D01*
X4362364Y-13748103D01*
X4362362Y-13748101D01*
X4362362Y-13748100D01*
X4291900Y-13677638D01*
X4291898Y-13677637D01*
X4291897Y-13677636D01*
X4224755Y-13649825D01*
X4199829Y-13639500D01*
X4199828Y-13639500D01*
X4100172Y-13639500D01*
X4100170Y-13639500D01*
X4008101Y-13677637D01*
X3937637Y-13748101D01*
X3899500Y-13840170D01*
X2104767Y-13840170D01*
X2171897Y-13812364D01*
X2171899Y-13812362D01*
X2171900Y-13812362D01*
X2242362Y-13741900D01*
X2242362Y-13741899D01*
X2242364Y-13741897D01*
X2280500Y-13649828D01*
X2280500Y-13550172D01*
X2242364Y-13458103D01*
X2242362Y-13458101D01*
X2242362Y-13458100D01*
X2171900Y-13387638D01*
X2171898Y-13387637D01*
X2171897Y-13387636D01*
X2117965Y-13365296D01*
X2079829Y-13349500D01*
X2079828Y-13349500D01*
X1980172Y-13349500D01*
X1980170Y-13349500D01*
X1888101Y-13387637D01*
X1817637Y-13458101D01*
X1779500Y-13550170D01*
X-1795908Y-13550170D01*
X-1727638Y-13481900D01*
X-1727637Y-13481898D01*
X-1727636Y-13481897D01*
X-1689500Y-13389828D01*
X-1689500Y-13290172D01*
X-1689500Y-13290170D01*
X-1727637Y-13198101D01*
X-1798101Y-13127637D01*
X-1890170Y-13089500D01*
X-1890172Y-13089500D01*
X-1989828Y-13089500D01*
X-1989829Y-13089500D01*
X-2027965Y-13105296D01*
X-2081897Y-13127636D01*
X-2081898Y-13127637D01*
X-2081900Y-13127638D01*
X-2152362Y-13198100D01*
X-2152362Y-13198101D01*
X-2152364Y-13198103D01*
X-2190500Y-13290172D01*
X-9768000Y-13290172D01*
X-9934320Y-13173132D01*
X-9936903Y-13171185D01*
X-10324314Y-12858390D01*
X-10365556Y-12825091D01*
X-8965500Y-12825091D01*
X-8965500Y-12894909D01*
X-8938782Y-12959413D01*
X-8938780Y-12959415D01*
X-8938780Y-12959416D01*
X-8889415Y-13008780D01*
X-8889413Y-13008782D01*
X-8824909Y-13035500D01*
X-8824907Y-13035500D01*
X-8755093Y-13035500D01*
X-8755091Y-13035500D01*
X-8690587Y-13008782D01*
X-8690585Y-13008780D01*
X-8690584Y-13008780D01*
X-8641220Y-12959416D01*
X-8641219Y-12959414D01*
X-8641218Y-12959413D01*
X-8624820Y-12919825D01*
X-8614500Y-12894910D01*
X-8614500Y-12825089D01*
X-8639352Y-12765093D01*
X-8641218Y-12760587D01*
X-8641218Y-12760586D01*
X-8641219Y-12760585D01*
X-8690585Y-12711219D01*
X-8755089Y-12684500D01*
X-8755091Y-12684500D01*
X-8824909Y-12684500D01*
X-8824910Y-12684500D01*
X-8838038Y-12689938D01*
X-8889413Y-12711218D01*
X-8889414Y-12711219D01*
X-8889416Y-12711220D01*
X-8938780Y-12760584D01*
X-8938780Y-12760585D01*
X-8938782Y-12760587D01*
X-8965500Y-12825091D01*
X-10365556Y-12825091D01*
X-10781959Y-12488889D01*
X-10784409Y-12486773D01*
X-11582624Y-11750101D01*
X-11584926Y-11747832D01*
X-12332842Y-10960143D01*
X-12334994Y-10957720D01*
X-12797144Y-10401582D01*
X-12819158Y-10375091D01*
X-11125500Y-10375091D01*
X-11125500Y-10444909D01*
X-11098782Y-10509413D01*
X-11060875Y-10547319D01*
X-11046524Y-10581966D01*
X-11060874Y-10616613D01*
X-11060877Y-10616616D01*
X-11072362Y-10628100D01*
X-11072362Y-10628101D01*
X-11072364Y-10628103D01*
X-11110500Y-10720172D01*
X-11110500Y-10819828D01*
X-11072364Y-10911897D01*
X-11072362Y-10911899D01*
X-11072362Y-10911900D01*
X-11026541Y-10957720D01*
X-11001897Y-10982364D01*
X-10909828Y-11020500D01*
X-10909826Y-11020500D01*
X-10810174Y-11020500D01*
X-10810172Y-11020500D01*
X-10718103Y-10982364D01*
X-10718101Y-10982362D01*
X-10718100Y-10982362D01*
X-10647638Y-10911900D01*
X-10647636Y-10911897D01*
X-10640675Y-10895091D01*
X-9715500Y-10895091D01*
X-9715500Y-10964909D01*
X-9688782Y-11029413D01*
X-9688780Y-11029415D01*
X-9688780Y-11029416D01*
X-9654778Y-11063417D01*
X-9639413Y-11078782D01*
X-9574909Y-11105500D01*
X-9574907Y-11105500D01*
X-9505093Y-11105500D01*
X-9505091Y-11105500D01*
X-9440587Y-11078782D01*
X-9440585Y-11078780D01*
X-9440584Y-11078780D01*
X-9391220Y-11029416D01*
X-9391219Y-11029414D01*
X-9391218Y-11029413D01*
X-9366299Y-10969253D01*
X-9364500Y-10964910D01*
X-9364500Y-10895089D01*
X-9391219Y-10830585D01*
X-9426713Y-10795091D01*
X-7895500Y-10795091D01*
X-7895500Y-10864909D01*
X-7868782Y-10929413D01*
X-7834307Y-10963887D01*
X-7819955Y-10998534D01*
X-7834306Y-11033182D01*
X-7864541Y-11063417D01*
X-7864541Y-11063418D01*
X-7864543Y-11063420D01*
X-7890500Y-11126085D01*
X-7890500Y-11193915D01*
X-7864543Y-11256580D01*
X-7864541Y-11256582D01*
X-7864541Y-11256583D01*
X-7836029Y-11285094D01*
X-7816580Y-11304543D01*
X-7753915Y-11330500D01*
X-7740209Y-11330500D01*
X-7705560Y-11344852D01*
X-6459046Y-12591364D01*
X-6459046Y-12591366D01*
X-6452155Y-12598257D01*
X-6452155Y-12598258D01*
X-6418258Y-12632155D01*
X-6373969Y-12650500D01*
X-6326031Y-12650500D01*
X-6011369Y-12650500D01*
X-5976721Y-12664852D01*
X-5962369Y-12699500D01*
X-5966099Y-12718251D01*
X-5985498Y-12765086D01*
X-5985500Y-12765091D01*
X-5985500Y-12834909D01*
X-5958782Y-12899413D01*
X-5958780Y-12899415D01*
X-5958780Y-12899416D01*
X-5909415Y-12948780D01*
X-5909413Y-12948782D01*
X-5844909Y-12975500D01*
X-5844907Y-12975500D01*
X-5775093Y-12975500D01*
X-5775091Y-12975500D01*
X-5710587Y-12948782D01*
X-5710585Y-12948780D01*
X-5710584Y-12948780D01*
X-5661220Y-12899416D01*
X-5661219Y-12899414D01*
X-5661218Y-12899413D01*
X-5634500Y-12834909D01*
X-5634500Y-12765091D01*
X-5634500Y-12765089D01*
X-5634501Y-12765086D01*
X-5653901Y-12718251D01*
X-5653901Y-12680748D01*
X-5627382Y-12654230D01*
X-5608631Y-12650500D01*
X-4072184Y-12650500D01*
X-4037536Y-12664852D01*
X-4023184Y-12699500D01*
X-4031440Y-12726720D01*
X-4032362Y-12728101D01*
X-4032364Y-12728103D01*
X-4070500Y-12820172D01*
X-4070500Y-12919828D01*
X-4032364Y-13011897D01*
X-4032362Y-13011899D01*
X-4032362Y-13011900D01*
X-3961899Y-13082362D01*
X-3961897Y-13082364D01*
X-3869828Y-13120500D01*
X-3869826Y-13120500D01*
X-3770174Y-13120500D01*
X-3770172Y-13120500D01*
X-3678103Y-13082364D01*
X-3678101Y-13082362D01*
X-3678100Y-13082362D01*
X-3607638Y-13011900D01*
X-3607637Y-13011898D01*
X-3607636Y-13011897D01*
X-3569500Y-12919828D01*
X-3569500Y-12820172D01*
X-3569500Y-12820170D01*
X-3607637Y-12728101D01*
X-3608560Y-12726720D01*
X-3608883Y-12725091D01*
X-3609483Y-12723645D01*
X-3609195Y-12723525D01*
X-3615874Y-12689938D01*
X-3595036Y-12658756D01*
X-3567816Y-12650500D01*
X1213967Y-12650500D01*
X1213969Y-12650500D01*
X1258258Y-12632155D01*
X1258260Y-12632153D01*
X1258261Y-12632153D01*
X1324276Y-12566138D01*
X2969500Y-12566138D01*
X2969500Y-12566140D01*
X2969500Y-12653860D01*
X3003069Y-12734903D01*
X3003070Y-12734904D01*
X3003071Y-12734906D01*
X3065094Y-12796929D01*
X3065095Y-12796929D01*
X3065097Y-12796931D01*
X3146140Y-12830500D01*
X3146142Y-12830500D01*
X3233858Y-12830500D01*
X3233860Y-12830500D01*
X3314903Y-12796931D01*
X3314905Y-12796929D01*
X3314906Y-12796929D01*
X3376929Y-12734906D01*
X3376929Y-12734905D01*
X3376931Y-12734903D01*
X3410500Y-12653860D01*
X3410500Y-12566140D01*
X3376931Y-12485097D01*
X3376929Y-12485095D01*
X3376929Y-12485094D01*
X3314906Y-12423071D01*
X3314903Y-12423069D01*
X3299114Y-12416529D01*
X3247496Y-12395148D01*
X3233861Y-12389500D01*
X3233860Y-12389500D01*
X3146140Y-12389500D01*
X3146138Y-12389500D01*
X3065095Y-12423070D01*
X3003070Y-12485095D01*
X2969500Y-12566138D01*
X1324276Y-12566138D01*
X1363748Y-12526666D01*
X1514331Y-12376083D01*
X4639500Y-12376083D01*
X4639500Y-12376085D01*
X4639500Y-12443915D01*
X4665457Y-12506580D01*
X4665458Y-12506581D01*
X4665459Y-12506583D01*
X4713417Y-12554541D01*
X4713418Y-12554541D01*
X4713420Y-12554543D01*
X4776085Y-12580500D01*
X4776087Y-12580500D01*
X4843913Y-12580500D01*
X4843915Y-12580500D01*
X4906580Y-12554543D01*
X4906582Y-12554541D01*
X4906583Y-12554541D01*
X4954541Y-12506583D01*
X4954541Y-12506582D01*
X4954543Y-12506580D01*
X4980500Y-12443915D01*
X4980500Y-12376085D01*
X4954543Y-12313420D01*
X4954541Y-12313418D01*
X4954541Y-12313417D01*
X4906583Y-12265459D01*
X4906581Y-12265458D01*
X4906580Y-12265457D01*
X4869873Y-12250252D01*
X4843916Y-12239500D01*
X4843915Y-12239500D01*
X4776085Y-12239500D01*
X4776083Y-12239500D01*
X4713418Y-12265458D01*
X4665458Y-12313418D01*
X4639500Y-12376083D01*
X1514331Y-12376083D01*
X1755561Y-12134852D01*
X1766864Y-12130170D01*
X6919500Y-12130170D01*
X6919500Y-12130172D01*
X6919500Y-12229828D01*
X6957636Y-12321897D01*
X6957637Y-12321898D01*
X6957638Y-12321900D01*
X7028100Y-12392362D01*
X7028101Y-12392362D01*
X7028103Y-12392364D01*
X7120172Y-12430500D01*
X7120174Y-12430500D01*
X7219826Y-12430500D01*
X7219828Y-12430500D01*
X7311897Y-12392364D01*
X7311899Y-12392362D01*
X7311900Y-12392362D01*
X7382362Y-12321900D01*
X7382362Y-12321899D01*
X7382364Y-12321897D01*
X7420500Y-12229828D01*
X7420500Y-12130172D01*
X7382364Y-12038103D01*
X7382362Y-12038101D01*
X7382362Y-12038100D01*
X7311900Y-11967638D01*
X7311898Y-11967637D01*
X7311897Y-11967636D01*
X7257965Y-11945296D01*
X7219829Y-11929500D01*
X7219828Y-11929500D01*
X7120172Y-11929500D01*
X7120170Y-11929500D01*
X7028101Y-11967637D01*
X6957637Y-12038101D01*
X6919500Y-12130170D01*
X1766864Y-12130170D01*
X1790209Y-12120500D01*
X4323967Y-12120500D01*
X4323969Y-12120500D01*
X4368258Y-12102155D01*
X4368260Y-12102153D01*
X4368261Y-12102153D01*
X4379716Y-12090698D01*
X5009823Y-11460589D01*
X5104274Y-11366138D01*
X7299500Y-11366138D01*
X7299500Y-11453861D01*
X7313405Y-11487430D01*
X7333069Y-11534903D01*
X7333070Y-11534904D01*
X7333071Y-11534906D01*
X7395094Y-11596929D01*
X7395095Y-11596929D01*
X7395097Y-11596931D01*
X7476140Y-11630500D01*
X7476142Y-11630500D01*
X7563858Y-11630500D01*
X7563860Y-11630500D01*
X7644903Y-11596931D01*
X7644905Y-11596929D01*
X7644906Y-11596929D01*
X7706929Y-11534906D01*
X7706929Y-11534905D01*
X7706931Y-11534903D01*
X7740500Y-11453860D01*
X7740500Y-11366140D01*
X7706931Y-11285097D01*
X7706929Y-11285095D01*
X7706929Y-11285094D01*
X7644906Y-11223071D01*
X7644904Y-11223070D01*
X7644903Y-11223069D01*
X7594912Y-11202362D01*
X7563861Y-11189500D01*
X7563860Y-11189500D01*
X7476140Y-11189500D01*
X7476138Y-11189500D01*
X7395095Y-11223070D01*
X7333070Y-11285095D01*
X7299500Y-11366138D01*
X5104274Y-11366138D01*
X5448256Y-11022155D01*
X5448258Y-11022155D01*
X5482155Y-10988258D01*
X5500500Y-10943969D01*
X5500500Y-10286031D01*
X5495635Y-10274285D01*
X5491730Y-10264857D01*
X5488000Y-10246106D01*
X5488000Y-10023657D01*
X5502352Y-9989009D01*
X5537000Y-9974657D01*
X5571648Y-9989009D01*
X5582271Y-10004908D01*
X5582413Y-10005252D01*
X5624747Y-10047586D01*
X5624748Y-10047586D01*
X5624749Y-10047587D01*
X5680064Y-10070500D01*
X5680066Y-10070500D01*
X5739934Y-10070500D01*
X5739936Y-10070500D01*
X5795251Y-10047587D01*
X5837587Y-10005251D01*
X5860500Y-9949936D01*
X5860500Y-9890064D01*
X5837587Y-9834749D01*
X5837586Y-9834748D01*
X5837586Y-9834747D01*
X5813486Y-9810647D01*
X5799134Y-9775999D01*
X5813486Y-9741351D01*
X5829382Y-9730729D01*
X5829935Y-9730500D01*
X5829936Y-9730500D01*
X5885251Y-9707587D01*
X5927587Y-9665251D01*
X5950500Y-9609936D01*
X5950500Y-9550064D01*
X5940309Y-9525461D01*
X5940309Y-9487958D01*
X5966827Y-9461439D01*
X6004330Y-9461439D01*
X6020228Y-9472062D01*
X6035094Y-9486929D01*
X6035095Y-9486929D01*
X6035097Y-9486931D01*
X6116140Y-9520500D01*
X6116142Y-9520500D01*
X6203858Y-9520500D01*
X6203860Y-9520500D01*
X6206353Y-9519466D01*
X6243856Y-9519463D01*
X6270377Y-9545979D01*
X6270379Y-9545983D01*
X6279541Y-9568101D01*
X6303069Y-9624903D01*
X6303070Y-9624904D01*
X6303070Y-9624905D01*
X6368510Y-9690344D01*
X6367449Y-9691404D01*
X6369340Y-9695249D01*
X6383557Y-9716517D01*
X6384096Y-9719808D01*
X6384500Y-9722935D01*
X6384500Y-9770985D01*
X6393520Y-9792763D01*
X6394355Y-9799222D01*
X6391029Y-9811514D01*
X6391029Y-9824253D01*
X6386305Y-9828976D01*
X6384561Y-9835424D01*
X6373515Y-9841765D01*
X6364509Y-9850771D01*
X6354287Y-9852803D01*
X6352037Y-9854096D01*
X6350237Y-9853609D01*
X6345759Y-9854500D01*
X6331111Y-9854500D01*
X6280619Y-9875415D01*
X6262139Y-9883070D01*
X6259256Y-9884264D01*
X6204264Y-9939256D01*
X6204263Y-9939257D01*
X6204263Y-9939258D01*
X6199841Y-9949933D01*
X6174500Y-10011111D01*
X6174500Y-10011113D01*
X6174500Y-10088887D01*
X6204263Y-10160742D01*
X6204264Y-10160743D01*
X6204265Y-10160745D01*
X6255148Y-10211628D01*
X6269500Y-10246276D01*
X6269500Y-10333861D01*
X6273528Y-10343584D01*
X6273528Y-10381087D01*
X6247010Y-10407606D01*
X6209507Y-10407606D01*
X6189940Y-10399501D01*
X6189937Y-10399500D01*
X6189936Y-10399500D01*
X6130064Y-10399500D01*
X6130062Y-10399500D01*
X6074747Y-10422413D01*
X6032413Y-10464747D01*
X6009500Y-10520062D01*
X6009500Y-10579937D01*
X6032413Y-10635252D01*
X6074747Y-10677586D01*
X6074748Y-10677586D01*
X6074749Y-10677587D01*
X6130064Y-10700500D01*
X6130066Y-10700500D01*
X6189934Y-10700500D01*
X6189936Y-10700500D01*
X6245251Y-10677587D01*
X6287587Y-10635251D01*
X6310500Y-10579936D01*
X6310500Y-10527649D01*
X6324852Y-10493001D01*
X6359500Y-10478649D01*
X6378247Y-10482378D01*
X6446140Y-10510500D01*
X6446142Y-10510500D01*
X6531464Y-10510500D01*
X6544679Y-10515974D01*
X6558709Y-10518773D01*
X6561487Y-10522936D01*
X6566112Y-10524852D01*
X6579528Y-10549967D01*
X6579862Y-10551651D01*
X6572525Y-10588429D01*
X6544352Y-10607242D01*
X6544523Y-10607653D01*
X6542456Y-10608508D01*
X6541359Y-10609242D01*
X6541331Y-10609247D01*
X6541331Y-10609248D01*
X6541329Y-10609247D01*
X6540065Y-10609499D01*
X6484747Y-10632413D01*
X6442413Y-10674747D01*
X6419500Y-10730062D01*
X6419500Y-10789937D01*
X6442413Y-10845252D01*
X6484747Y-10887586D01*
X6484748Y-10887586D01*
X6484749Y-10887587D01*
X6540064Y-10910500D01*
X6540066Y-10910500D01*
X6599934Y-10910500D01*
X6599936Y-10910500D01*
X6655251Y-10887587D01*
X6697587Y-10845251D01*
X6720500Y-10789936D01*
X6720500Y-10789927D01*
X6720755Y-10788650D01*
X6721486Y-10787555D01*
X6722347Y-10785477D01*
X6722760Y-10785648D01*
X6741585Y-10757464D01*
X6775346Y-10750742D01*
X6775346Y-10750500D01*
X6776563Y-10750500D01*
X6778366Y-10750141D01*
X6778374Y-10750142D01*
X6780170Y-10750499D01*
X6780172Y-10750500D01*
X6780174Y-10750500D01*
X6879826Y-10750500D01*
X6879828Y-10750500D01*
X6971897Y-10712364D01*
X6971899Y-10712362D01*
X6971900Y-10712362D01*
X7042362Y-10641900D01*
X7042362Y-10641899D01*
X7042364Y-10641897D01*
X7080500Y-10549828D01*
X7080500Y-10450172D01*
X7042364Y-10358103D01*
X7042362Y-10358101D01*
X7042362Y-10358100D01*
X6971900Y-10287638D01*
X6971898Y-10287637D01*
X6971897Y-10287636D01*
X6908123Y-10261220D01*
X6879829Y-10249500D01*
X6879828Y-10249500D01*
X6780172Y-10249500D01*
X6767159Y-10254890D01*
X6729656Y-10254888D01*
X6703139Y-10228370D01*
X6701278Y-10223876D01*
X6676931Y-10165097D01*
X6676930Y-10165096D01*
X6676929Y-10165094D01*
X6630983Y-10119148D01*
X6616631Y-10084500D01*
X6630983Y-10049852D01*
X6665631Y-10035500D01*
X7188725Y-10035500D01*
X7223373Y-10049852D01*
X7259258Y-10085737D01*
X7331113Y-10115500D01*
X7331115Y-10115500D01*
X7408885Y-10115500D01*
X7408887Y-10115500D01*
X7480742Y-10085737D01*
X7480744Y-10085735D01*
X7480745Y-10085735D01*
X7535735Y-10030745D01*
X7535735Y-10030744D01*
X7535737Y-10030742D01*
X7565500Y-9958887D01*
X7565500Y-9881113D01*
X7535737Y-9809258D01*
X7535735Y-9809256D01*
X7535735Y-9809255D01*
X7500018Y-9773538D01*
X8299000Y-9773538D01*
X8299000Y-10025462D01*
X8299837Y-10030745D01*
X8338409Y-10274282D01*
X8338410Y-10274285D01*
X8416259Y-10513880D01*
X8530628Y-10738342D01*
X8530630Y-10738345D01*
X8669449Y-10929414D01*
X8678708Y-10942157D01*
X8678712Y-10942162D01*
X8856838Y-11120288D01*
X8856842Y-11120291D01*
X8856844Y-11120293D01*
X9060655Y-11268370D01*
X9285121Y-11382741D01*
X9524715Y-11460590D01*
X9773538Y-11500000D01*
X9773539Y-11500000D01*
X10025461Y-11500000D01*
X10025462Y-11500000D01*
X10274285Y-11460590D01*
X10513879Y-11382741D01*
X10738345Y-11268370D01*
X10942156Y-11120293D01*
X10942159Y-11120289D01*
X10942162Y-11120288D01*
X11120288Y-10942162D01*
X11120289Y-10942159D01*
X11120293Y-10942156D01*
X11268370Y-10738345D01*
X11382741Y-10513879D01*
X11460590Y-10274285D01*
X11500000Y-10025462D01*
X11500000Y-9773538D01*
X11460590Y-9524715D01*
X11382741Y-9285121D01*
X11268370Y-9060655D01*
X11120293Y-8856844D01*
X11120291Y-8856842D01*
X11120288Y-8856838D01*
X10942162Y-8678712D01*
X10942157Y-8678708D01*
X10916172Y-8659829D01*
X10738345Y-8530630D01*
X10738344Y-8530629D01*
X10738342Y-8530628D01*
X10513880Y-8416259D01*
X10274285Y-8338410D01*
X10274282Y-8338409D01*
X10083142Y-8308135D01*
X10025462Y-8299000D01*
X9773538Y-8299000D01*
X9726712Y-8306416D01*
X9524717Y-8338409D01*
X9524714Y-8338410D01*
X9285119Y-8416259D01*
X9060657Y-8530628D01*
X8856842Y-8678708D01*
X8678708Y-8856842D01*
X8530628Y-9060657D01*
X8416259Y-9285119D01*
X8338410Y-9524714D01*
X8338409Y-9524717D01*
X8303611Y-9744423D01*
X8299000Y-9773538D01*
X7500018Y-9773538D01*
X7480745Y-9754265D01*
X7480743Y-9754264D01*
X7480742Y-9754263D01*
X7436658Y-9736003D01*
X7408888Y-9724500D01*
X7408887Y-9724500D01*
X7331113Y-9724500D01*
X7290696Y-9741240D01*
X7290692Y-9741242D01*
X7259257Y-9754263D01*
X7244506Y-9769015D01*
X7204263Y-9809258D01*
X7204262Y-9809259D01*
X7203374Y-9810148D01*
X7168725Y-9824500D01*
X6956635Y-9824500D01*
X6921987Y-9810148D01*
X6907635Y-9775500D01*
X6921987Y-9740852D01*
X6937586Y-9725252D01*
X6937587Y-9725251D01*
X6960500Y-9669936D01*
X6960500Y-9610064D01*
X6942219Y-9565931D01*
X6942219Y-9528429D01*
X6968734Y-9501912D01*
X7004903Y-9486931D01*
X7004903Y-9486930D01*
X7009362Y-9485084D01*
X7009401Y-9485178D01*
X7009772Y-9484808D01*
X7024013Y-9484808D01*
X7037972Y-9481998D01*
X7042199Y-9484808D01*
X7047275Y-9484808D01*
X7057344Y-9494877D01*
X7069203Y-9502761D01*
X7073794Y-9511326D01*
X7077180Y-9519500D01*
X7094263Y-9560742D01*
X7094264Y-9560743D01*
X7094265Y-9560745D01*
X7149255Y-9615735D01*
X7149256Y-9615735D01*
X7149258Y-9615737D01*
X7221113Y-9645500D01*
X7221115Y-9645500D01*
X7269686Y-9645500D01*
X7298887Y-9645500D01*
X7370742Y-9615737D01*
X7370744Y-9615735D01*
X7370745Y-9615735D01*
X7425735Y-9560745D01*
X7425735Y-9560744D01*
X7425737Y-9560742D01*
X7455500Y-9488887D01*
X7455500Y-9411113D01*
X7425737Y-9339258D01*
X7425735Y-9339256D01*
X7425735Y-9339255D01*
X7370743Y-9284263D01*
X7334030Y-9269056D01*
X7307512Y-9242537D01*
X7307512Y-9205034D01*
X7334029Y-9178517D01*
X7340742Y-9175737D01*
X7340744Y-9175735D01*
X7340745Y-9175735D01*
X7395735Y-9120745D01*
X7395735Y-9120744D01*
X7395737Y-9120742D01*
X7425500Y-9048887D01*
X7425500Y-8971113D01*
X7395737Y-8899258D01*
X7395735Y-8899256D01*
X7395735Y-8899255D01*
X7340745Y-8844265D01*
X7340743Y-8844264D01*
X7340742Y-8844263D01*
X7287868Y-8822362D01*
X7268888Y-8814500D01*
X7268887Y-8814500D01*
X7223996Y-8814500D01*
X7195808Y-8805580D01*
X7192339Y-8803140D01*
X7189439Y-8800240D01*
X7189439Y-8800239D01*
X7159761Y-8770561D01*
X7131323Y-8758782D01*
X7126320Y-8756709D01*
X7126318Y-8756708D01*
X7120988Y-8754500D01*
X7120986Y-8754500D01*
X7120985Y-8754500D01*
X7070276Y-8754500D01*
X7035628Y-8740148D01*
X7021276Y-8705500D01*
X7035628Y-8670852D01*
X7075735Y-8630745D01*
X7075735Y-8630744D01*
X7075737Y-8630742D01*
X7105500Y-8558887D01*
X7105500Y-8481113D01*
X7075737Y-8409258D01*
X7075735Y-8409256D01*
X7075735Y-8409255D01*
X7020745Y-8354265D01*
X7020743Y-8354264D01*
X7020742Y-8354263D01*
X6982467Y-8338409D01*
X6948886Y-8324499D01*
X6946571Y-8324039D01*
X6944610Y-8322728D01*
X6944428Y-8322653D01*
X6944443Y-8322616D01*
X6915391Y-8303200D01*
X6908077Y-8266417D01*
X6910862Y-8257237D01*
X6930500Y-8209828D01*
X6930500Y-8110172D01*
X6892364Y-8018103D01*
X6892362Y-8018101D01*
X6892362Y-8018100D01*
X6821900Y-7947638D01*
X6821898Y-7947637D01*
X6821897Y-7947636D01*
X6767965Y-7925296D01*
X6729829Y-7909500D01*
X6729828Y-7909500D01*
X6630172Y-7909500D01*
X6630170Y-7909500D01*
X6538101Y-7947637D01*
X6467637Y-8018101D01*
X6429500Y-8110170D01*
X6429500Y-8209829D01*
X6445296Y-8247965D01*
X6467636Y-8301897D01*
X6467637Y-8301898D01*
X6467638Y-8301900D01*
X6531590Y-8365852D01*
X6545942Y-8400500D01*
X6531590Y-8435148D01*
X6496942Y-8449500D01*
X6466140Y-8449500D01*
X6466138Y-8449500D01*
X6466135Y-8449501D01*
X6413252Y-8471406D01*
X6375749Y-8471406D01*
X6349231Y-8444887D01*
X6348612Y-8443317D01*
X6345501Y-8435007D01*
X6345501Y-8419015D01*
X6329439Y-8380239D01*
X6322337Y-8373137D01*
X6318611Y-8363184D01*
X6318918Y-8354256D01*
X6315500Y-8346003D01*
X6315500Y-8281115D01*
X6315499Y-8281111D01*
X6285737Y-8209258D01*
X6285735Y-8209256D01*
X6285735Y-8209255D01*
X6230745Y-8154265D01*
X6230743Y-8154264D01*
X6230742Y-8154263D01*
X6188651Y-8136828D01*
X6158888Y-8124500D01*
X6158887Y-8124500D01*
X6081113Y-8124500D01*
X6081111Y-8124500D01*
X6009256Y-8154264D01*
X5954264Y-8209256D01*
X5954263Y-8209257D01*
X5954263Y-8209258D01*
X5949572Y-8220584D01*
X5924500Y-8281111D01*
X5924500Y-8281113D01*
X5924500Y-8358887D01*
X5954263Y-8430742D01*
X5954264Y-8430743D01*
X5954265Y-8430745D01*
X6009255Y-8485735D01*
X6009256Y-8485735D01*
X6009258Y-8485737D01*
X6081113Y-8515500D01*
X6085500Y-8515500D01*
X6120148Y-8529852D01*
X6134500Y-8564500D01*
X6134500Y-8830988D01*
X6137824Y-8839013D01*
X6137826Y-8839015D01*
X6150561Y-8869761D01*
X6180239Y-8899439D01*
X6180240Y-8899439D01*
X6187131Y-8906330D01*
X6187130Y-8906330D01*
X6187132Y-8906331D01*
X6289030Y-9008230D01*
X6292759Y-9017232D01*
X6299652Y-9024125D01*
X6299652Y-9033873D01*
X6303382Y-9042878D01*
X6299653Y-9061628D01*
X6298058Y-9065479D01*
X6271540Y-9091999D01*
X6234037Y-9091999D01*
X6222928Y-9087398D01*
X6203861Y-9079500D01*
X6203860Y-9079500D01*
X6116140Y-9079500D01*
X6116138Y-9079500D01*
X6116135Y-9079501D01*
X6073130Y-9097314D01*
X6035627Y-9097314D01*
X6009109Y-9070795D01*
X6009109Y-9033294D01*
X6010500Y-9029936D01*
X6010500Y-8970064D01*
X5987587Y-8914749D01*
X5987586Y-8914748D01*
X5987586Y-8914747D01*
X5945252Y-8872413D01*
X5889937Y-8849500D01*
X5889936Y-8849500D01*
X5830064Y-8849500D01*
X5830062Y-8849500D01*
X5774747Y-8872413D01*
X5764148Y-8883013D01*
X5729500Y-8897365D01*
X5694852Y-8883013D01*
X5681531Y-8850855D01*
X5681441Y-8850873D01*
X5681350Y-8850418D01*
X5680500Y-8848365D01*
X5680500Y-8846142D01*
X5680499Y-8846138D01*
X5679723Y-8844264D01*
X5646931Y-8765097D01*
X5646929Y-8765095D01*
X5646929Y-8765094D01*
X5608250Y-8726415D01*
X5593898Y-8691767D01*
X5594839Y-8682208D01*
X5595498Y-8678889D01*
X5595500Y-8678887D01*
X5595500Y-8601113D01*
X5565737Y-8529258D01*
X5565735Y-8529256D01*
X5565735Y-8529255D01*
X5510745Y-8474265D01*
X5510743Y-8474264D01*
X5510742Y-8474263D01*
X5468651Y-8456828D01*
X5438888Y-8444500D01*
X5438887Y-8444500D01*
X5399500Y-8444500D01*
X5364852Y-8430148D01*
X5350500Y-8395500D01*
X5350500Y-8350174D01*
X5350499Y-8350170D01*
X5345628Y-8338410D01*
X5312364Y-8258103D01*
X5312362Y-8258101D01*
X5312362Y-8258100D01*
X5241900Y-8187638D01*
X5241898Y-8187637D01*
X5241897Y-8187636D01*
X5161332Y-8154265D01*
X5149829Y-8149500D01*
X5149828Y-8149500D01*
X5050172Y-8149500D01*
X5050170Y-8149500D01*
X4958101Y-8187637D01*
X4887637Y-8258101D01*
X4849500Y-8350170D01*
X4849500Y-8449829D01*
X4857350Y-8468780D01*
X4887636Y-8541897D01*
X4887637Y-8541898D01*
X4887638Y-8541900D01*
X4958100Y-8612362D01*
X4958101Y-8612362D01*
X4958103Y-8612364D01*
X5050172Y-8650500D01*
X5050174Y-8650500D01*
X5149827Y-8650500D01*
X5149828Y-8650500D01*
X5149828Y-8650499D01*
X5150028Y-8650460D01*
X5150229Y-8650500D01*
X5154654Y-8650500D01*
X5154654Y-8651379D01*
X5186811Y-8657772D01*
X5204863Y-8679765D01*
X5207337Y-8685737D01*
X5234263Y-8750742D01*
X5234264Y-8750743D01*
X5234265Y-8750745D01*
X5242755Y-8759235D01*
X5246461Y-8768183D01*
X5253330Y-8775017D01*
X5253342Y-8784794D01*
X5257107Y-8793883D01*
X5253424Y-8812520D01*
X5253377Y-8812631D01*
X5253378Y-8812633D01*
X5253311Y-8812794D01*
X5253177Y-8813119D01*
X5239500Y-8846140D01*
X5239500Y-8846377D01*
X5237594Y-8851012D01*
X5227438Y-8861219D01*
X5219413Y-8873175D01*
X5214602Y-8874121D01*
X5211143Y-8877598D01*
X5196742Y-8877634D01*
X5182615Y-8880413D01*
X5173679Y-8877691D01*
X5173640Y-8877692D01*
X5173622Y-8877674D01*
X5173526Y-8877645D01*
X5153864Y-8869501D01*
X5153861Y-8869500D01*
X5153860Y-8869500D01*
X5066140Y-8869500D01*
X5066138Y-8869500D01*
X5015441Y-8890500D01*
X4994303Y-8899256D01*
X4985095Y-8903070D01*
X4923070Y-8965095D01*
X4923069Y-8965096D01*
X4923069Y-8965097D01*
X4921012Y-8970064D01*
X4900637Y-9019252D01*
X4874118Y-9045770D01*
X4855367Y-9049500D01*
X4566029Y-9049500D01*
X4539100Y-9060655D01*
X4525854Y-9066142D01*
X4521740Y-9067846D01*
X4450823Y-9138763D01*
X4416175Y-9153115D01*
X4381527Y-9138763D01*
X4370905Y-9122866D01*
X4352364Y-9078103D01*
X4352363Y-9078102D01*
X4352362Y-9078100D01*
X4281900Y-9007638D01*
X4281898Y-9007637D01*
X4281897Y-9007636D01*
X4227014Y-8984903D01*
X4189829Y-8969500D01*
X4189828Y-8969500D01*
X4090172Y-8969500D01*
X4090170Y-8969500D01*
X3998101Y-9007637D01*
X3927637Y-9078101D01*
X3927636Y-9078102D01*
X3927636Y-9078103D01*
X3927057Y-9079501D01*
X3889500Y-9170170D01*
X3889500Y-9269829D01*
X3900726Y-9296931D01*
X3927636Y-9361897D01*
X3927637Y-9361898D01*
X3927638Y-9361900D01*
X3998100Y-9432362D01*
X3998101Y-9432362D01*
X3998103Y-9432364D01*
X4090172Y-9470500D01*
X4090174Y-9470500D01*
X4170791Y-9470500D01*
X4205439Y-9484852D01*
X4219791Y-9519500D01*
X4205439Y-9554148D01*
X3563337Y-10196248D01*
X3528689Y-10210600D01*
X3509937Y-10206870D01*
X3443861Y-10179500D01*
X3443860Y-10179500D01*
X3356140Y-10179500D01*
X3356138Y-10179500D01*
X3290063Y-10206870D01*
X3277920Y-10211900D01*
X3275095Y-10213070D01*
X3213070Y-10275095D01*
X3179500Y-10356138D01*
X3179500Y-10443861D01*
X3188152Y-10464749D01*
X3213069Y-10524903D01*
X3213070Y-10524904D01*
X3213071Y-10524906D01*
X3275094Y-10586929D01*
X3275095Y-10586929D01*
X3275097Y-10586931D01*
X3356140Y-10620500D01*
X3359467Y-10621878D01*
X3385985Y-10648397D01*
X3385985Y-10685900D01*
X3380766Y-10695377D01*
X3378337Y-10698822D01*
X3352412Y-10724748D01*
X3342160Y-10749500D01*
X3341506Y-10751077D01*
X3338367Y-10755532D01*
X3326771Y-10762868D01*
X3317068Y-10772573D01*
X3311435Y-10772573D01*
X3306675Y-10775585D01*
X3293286Y-10772573D01*
X3279565Y-10772573D01*
X3223863Y-10749501D01*
X3223861Y-10749500D01*
X3223860Y-10749500D01*
X3136140Y-10749500D01*
X3136138Y-10749500D01*
X3073493Y-10775449D01*
X3059564Y-10781219D01*
X3055095Y-10783070D01*
X2993070Y-10845095D01*
X2959500Y-10926138D01*
X2959500Y-11013861D01*
X2965943Y-11029416D01*
X2992017Y-11092364D01*
X2994916Y-11099361D01*
X2993324Y-11100020D01*
X2999300Y-11130059D01*
X2978465Y-11161242D01*
X2951241Y-11169500D01*
X990536Y-11169500D01*
X955888Y-11155148D01*
X945266Y-11139252D01*
X932364Y-11108103D01*
X932362Y-11108101D01*
X932362Y-11108100D01*
X861900Y-11037638D01*
X861898Y-11037637D01*
X861897Y-11037636D01*
X804496Y-11013860D01*
X769829Y-10999500D01*
X769828Y-10999500D01*
X670172Y-10999500D01*
X670170Y-10999500D01*
X578101Y-11037637D01*
X507637Y-11108101D01*
X469500Y-11200170D01*
X469500Y-11299829D01*
X482204Y-11330499D01*
X507636Y-11391897D01*
X507637Y-11391898D01*
X507638Y-11391900D01*
X578100Y-11462362D01*
X578101Y-11462362D01*
X578103Y-11462364D01*
X670172Y-11500500D01*
X670174Y-11500500D01*
X769826Y-11500500D01*
X769828Y-11500500D01*
X833250Y-11474229D01*
X852001Y-11470500D01*
X3459934Y-11470500D01*
X3459936Y-11470500D01*
X3483860Y-11460590D01*
X3515252Y-11447588D01*
X3607588Y-11355251D01*
X3619043Y-11327593D01*
X3630500Y-11299936D01*
X3630500Y-10892634D01*
X3644851Y-10857987D01*
X4415852Y-10086985D01*
X4450500Y-10072634D01*
X4485148Y-10086986D01*
X4496925Y-10115419D01*
X4498559Y-10115095D01*
X4499500Y-10119829D01*
X4500552Y-10122368D01*
X4537636Y-10211897D01*
X4537637Y-10211898D01*
X4537638Y-10211900D01*
X4608100Y-10282362D01*
X4608101Y-10282362D01*
X4608103Y-10282364D01*
X4700172Y-10320500D01*
X4700174Y-10320500D01*
X4799826Y-10320500D01*
X4799828Y-10320500D01*
X4891897Y-10282364D01*
X4891899Y-10282362D01*
X4891900Y-10282362D01*
X4950852Y-10223410D01*
X4985500Y-10209058D01*
X5020148Y-10223410D01*
X5034500Y-10258058D01*
X5034500Y-10366004D01*
X5020148Y-10400652D01*
X3925267Y-11495532D01*
X3890619Y-11509884D01*
X3886714Y-11509500D01*
X3883860Y-11509500D01*
X3796140Y-11509500D01*
X3796138Y-11509500D01*
X3715095Y-11543070D01*
X3653070Y-11605095D01*
X3619500Y-11686138D01*
X3619500Y-11773861D01*
X3635194Y-11811748D01*
X3635194Y-11849251D01*
X3608676Y-11875770D01*
X3589924Y-11879500D01*
X1696029Y-11879500D01*
X1651740Y-11897846D01*
X1651739Y-11897846D01*
X1154439Y-12395148D01*
X1119791Y-12409500D01*
X-6279792Y-12409500D01*
X-6314440Y-12395148D01*
X-7535148Y-11174439D01*
X-7549500Y-11139791D01*
X-7549500Y-11126083D01*
X-7575457Y-11063419D01*
X-7605693Y-11033183D01*
X-7611896Y-11018205D01*
X-7619737Y-11004015D01*
X-7618837Y-11001446D01*
X-7620044Y-10998534D01*
X-7609350Y-10967979D01*
X-7607638Y-10965833D01*
X-7581977Y-10940172D01*
X-6870500Y-10940172D01*
X-6870500Y-11039828D01*
X-6832364Y-11131897D01*
X-6832362Y-11131899D01*
X-6832362Y-11131900D01*
X-6794761Y-11169500D01*
X-6761897Y-11202364D01*
X-6669828Y-11240500D01*
X-6669826Y-11240500D01*
X-6570174Y-11240500D01*
X-6570172Y-11240500D01*
X-6478103Y-11202364D01*
X-6478101Y-11202362D01*
X-6478100Y-11202362D01*
X-6475910Y-11200172D01*
X-5720500Y-11200172D01*
X-5720500Y-11299828D01*
X-5682364Y-11391897D01*
X-5682362Y-11391899D01*
X-5682362Y-11391900D01*
X-5626674Y-11447587D01*
X-5611897Y-11462364D01*
X-5519828Y-11500500D01*
X-5519826Y-11500500D01*
X-5420174Y-11500500D01*
X-5420172Y-11500500D01*
X-5328103Y-11462364D01*
X-5328101Y-11462362D01*
X-5328100Y-11462362D01*
X-5257638Y-11391900D01*
X-5257637Y-11391898D01*
X-5257636Y-11391897D01*
X-5232204Y-11330499D01*
X-5219500Y-11299829D01*
X-5219500Y-11200169D01*
X-5220296Y-11198250D01*
X-5220295Y-11196172D01*
X-5220442Y-11195438D01*
X-5220295Y-11195408D01*
X-5220294Y-11160747D01*
X-5193775Y-11134229D01*
X-5175025Y-11130500D01*
X-5160174Y-11130500D01*
X-5160172Y-11130500D01*
X-5068103Y-11092364D01*
X-5068101Y-11092362D01*
X-5068100Y-11092362D01*
X-4997638Y-11021900D01*
X-4997637Y-11021898D01*
X-4997636Y-11021897D01*
X-4963785Y-10940174D01*
X-4959500Y-10929829D01*
X-4959500Y-10830170D01*
X-4992915Y-10749500D01*
X-4997636Y-10738103D01*
X-4997636Y-10738102D01*
X-4997637Y-10738101D01*
X-5068101Y-10667637D01*
X-5160170Y-10629500D01*
X-5160172Y-10629500D01*
X-5259828Y-10629500D01*
X-5259829Y-10629500D01*
X-5297965Y-10645296D01*
X-5351897Y-10667636D01*
X-5351898Y-10667637D01*
X-5351900Y-10667638D01*
X-5422362Y-10738100D01*
X-5422362Y-10738101D01*
X-5422364Y-10738103D01*
X-5460500Y-10830172D01*
X-5460500Y-10929828D01*
X-5460499Y-10929830D01*
X-5459704Y-10931750D01*
X-5459704Y-10933827D01*
X-5459558Y-10934562D01*
X-5459704Y-10934591D01*
X-5459706Y-10969253D01*
X-5486225Y-10995771D01*
X-5504975Y-10999500D01*
X-5519829Y-10999500D01*
X-5554496Y-11013860D01*
X-5611897Y-11037636D01*
X-5611898Y-11037637D01*
X-5611900Y-11037638D01*
X-5682362Y-11108100D01*
X-5682362Y-11108101D01*
X-5682364Y-11108103D01*
X-5720500Y-11200172D01*
X-6475910Y-11200172D01*
X-6407638Y-11131900D01*
X-6407637Y-11131898D01*
X-6407636Y-11131897D01*
X-6379272Y-11063420D01*
X-6369500Y-11039829D01*
X-6369500Y-10940170D01*
X-6407637Y-10848101D01*
X-6478101Y-10777637D01*
X-6570170Y-10739500D01*
X-6570172Y-10739500D01*
X-6669828Y-10739500D01*
X-6669829Y-10739500D01*
X-6696382Y-10750499D01*
X-6761897Y-10777636D01*
X-6761898Y-10777637D01*
X-6761900Y-10777638D01*
X-6832362Y-10848100D01*
X-6832362Y-10848101D01*
X-6832364Y-10848103D01*
X-6870500Y-10940172D01*
X-7581977Y-10940172D01*
X-7571218Y-10929413D01*
X-7552388Y-10883954D01*
X-7544500Y-10864910D01*
X-7544500Y-10795089D01*
X-7571219Y-10730585D01*
X-7620585Y-10681219D01*
X-7685089Y-10654500D01*
X-7685091Y-10654500D01*
X-7754909Y-10654500D01*
X-7754910Y-10654500D01*
X-7781628Y-10665567D01*
X-7819413Y-10681218D01*
X-7819414Y-10681219D01*
X-7819416Y-10681220D01*
X-7868780Y-10730584D01*
X-7868780Y-10730585D01*
X-7868782Y-10730587D01*
X-7895500Y-10795091D01*
X-9426713Y-10795091D01*
X-9440585Y-10781219D01*
X-9449233Y-10777637D01*
X-9461458Y-10772573D01*
X-9505089Y-10754500D01*
X-9505091Y-10754500D01*
X-9574909Y-10754500D01*
X-9574910Y-10754500D01*
X-9601628Y-10765567D01*
X-9639413Y-10781218D01*
X-9639414Y-10781219D01*
X-9639416Y-10781220D01*
X-9688780Y-10830584D01*
X-9688780Y-10830585D01*
X-9688782Y-10830587D01*
X-9715500Y-10895091D01*
X-10640675Y-10895091D01*
X-10630909Y-10871514D01*
X-10613956Y-10830587D01*
X-10609500Y-10819829D01*
X-10609500Y-10720170D01*
X-10645851Y-10632413D01*
X-10647636Y-10628103D01*
X-10647636Y-10628102D01*
X-10647637Y-10628101D01*
X-10718100Y-10557638D01*
X-10718101Y-10557636D01*
X-10760826Y-10539939D01*
X-10787344Y-10513420D01*
X-10787344Y-10475917D01*
X-10774500Y-10444910D01*
X-10774500Y-10375088D01*
X-10778641Y-10365091D01*
X-5915500Y-10365091D01*
X-5915500Y-10434909D01*
X-5888782Y-10499413D01*
X-5888780Y-10499415D01*
X-5888780Y-10499416D01*
X-5863343Y-10524852D01*
X-5839413Y-10548782D01*
X-5774909Y-10575500D01*
X-5774907Y-10575500D01*
X-5705093Y-10575500D01*
X-5705091Y-10575500D01*
X-5640587Y-10548782D01*
X-5640585Y-10548780D01*
X-5640584Y-10548780D01*
X-5591976Y-10500172D01*
X-3680500Y-10500172D01*
X-3680500Y-10599828D01*
X-3642364Y-10691897D01*
X-3642362Y-10691899D01*
X-3642362Y-10691900D01*
X-3604199Y-10730062D01*
X-3571897Y-10762364D01*
X-3479828Y-10800500D01*
X-3479826Y-10800500D01*
X-3380174Y-10800500D01*
X-3380172Y-10800500D01*
X-3288103Y-10762364D01*
X-3288101Y-10762362D01*
X-3288100Y-10762362D01*
X-3217638Y-10691900D01*
X-3217637Y-10691898D01*
X-3217636Y-10691897D01*
X-3191211Y-10628101D01*
X-3179500Y-10599829D01*
X-3179500Y-10500170D01*
X-3217637Y-10408101D01*
X-3288101Y-10337637D01*
X-3380170Y-10299500D01*
X-3380172Y-10299500D01*
X-3479828Y-10299500D01*
X-3479829Y-10299500D01*
X-3506590Y-10310585D01*
X-3571897Y-10337636D01*
X-3571898Y-10337637D01*
X-3571900Y-10337638D01*
X-3642362Y-10408100D01*
X-3642362Y-10408101D01*
X-3642364Y-10408103D01*
X-3680500Y-10500172D01*
X-5591976Y-10500172D01*
X-5591218Y-10499414D01*
X-5581766Y-10476594D01*
X-5581765Y-10476593D01*
X-5564501Y-10434913D01*
X-5564500Y-10434910D01*
X-5564500Y-10434909D01*
X-5564500Y-10365091D01*
X-5564500Y-10365089D01*
X-5591219Y-10300585D01*
X-5640585Y-10251219D01*
X-5705089Y-10224500D01*
X-5705091Y-10224500D01*
X-5774909Y-10224500D01*
X-5774910Y-10224500D01*
X-5799052Y-10234500D01*
X-5839413Y-10251218D01*
X-5839414Y-10251219D01*
X-5839416Y-10251220D01*
X-5888780Y-10300584D01*
X-5888780Y-10300585D01*
X-5888782Y-10300587D01*
X-5915500Y-10365091D01*
X-10778641Y-10365091D01*
X-10801218Y-10310586D01*
X-10850585Y-10261219D01*
X-10915089Y-10234500D01*
X-10915091Y-10234500D01*
X-10984909Y-10234500D01*
X-10984910Y-10234500D01*
X-11011628Y-10245567D01*
X-11049413Y-10261218D01*
X-11049414Y-10261219D01*
X-11049416Y-10261220D01*
X-11098780Y-10310584D01*
X-11098780Y-10310585D01*
X-11098782Y-10310587D01*
X-11125500Y-10375091D01*
X-12819158Y-10375091D01*
X-13029170Y-10122368D01*
X-13031153Y-10119815D01*
X-13081719Y-10050078D01*
X-13099078Y-10026138D01*
X2529500Y-10026138D01*
X2529500Y-10113861D01*
X2531972Y-10119828D01*
X2563069Y-10194903D01*
X2563070Y-10194904D01*
X2563071Y-10194906D01*
X2625094Y-10256929D01*
X2625095Y-10256929D01*
X2625097Y-10256931D01*
X2706140Y-10290500D01*
X2706142Y-10290500D01*
X2793858Y-10290500D01*
X2793860Y-10290500D01*
X2874903Y-10256931D01*
X2874905Y-10256929D01*
X2874906Y-10256929D01*
X2936929Y-10194906D01*
X2936929Y-10194905D01*
X2936931Y-10194903D01*
X2970500Y-10113860D01*
X2970500Y-10026140D01*
X2936931Y-9945097D01*
X2936929Y-9945095D01*
X2936929Y-9945094D01*
X2874906Y-9883071D01*
X2874904Y-9883070D01*
X2874903Y-9883069D01*
X2824815Y-9862322D01*
X2793861Y-9849500D01*
X2793860Y-9849500D01*
X2706140Y-9849500D01*
X2706138Y-9849500D01*
X2643575Y-9875415D01*
X2629815Y-9881115D01*
X2625095Y-9883070D01*
X2563070Y-9945095D01*
X2529500Y-10026138D01*
X-13099078Y-10026138D01*
X-13423278Y-9579029D01*
X-13440635Y-9555091D01*
X-9595500Y-9555091D01*
X-9595500Y-9624909D01*
X-9568782Y-9689413D01*
X-9568780Y-9689415D01*
X-9568780Y-9689416D01*
X-9541678Y-9716517D01*
X-9519413Y-9738782D01*
X-9454909Y-9765500D01*
X-9454907Y-9765500D01*
X-9385093Y-9765500D01*
X-9385091Y-9765500D01*
X-9320587Y-9738782D01*
X-9320585Y-9738780D01*
X-9320584Y-9738780D01*
X-9271220Y-9689416D01*
X-9271219Y-9689414D01*
X-9271218Y-9689413D01*
X-9259106Y-9660172D01*
X-2900500Y-9660172D01*
X-2900500Y-9759828D01*
X-2862364Y-9851897D01*
X-2862362Y-9851899D01*
X-2862362Y-9851900D01*
X-2824199Y-9890062D01*
X-2791897Y-9922364D01*
X-2699828Y-9960500D01*
X-2699826Y-9960500D01*
X-2600174Y-9960500D01*
X-2600172Y-9960500D01*
X-2508103Y-9922364D01*
X-2508101Y-9922362D01*
X-2508100Y-9922362D01*
X-2437638Y-9851900D01*
X-2437637Y-9851898D01*
X-2437636Y-9851897D01*
X-2406198Y-9775999D01*
X-2399500Y-9759829D01*
X-2399500Y-9660170D01*
X-2437637Y-9568101D01*
X-2508101Y-9497637D01*
X-2518364Y-9493386D01*
X-2538966Y-9484852D01*
X-2586677Y-9465089D01*
X814500Y-9465089D01*
X814500Y-9534910D01*
X822860Y-9555093D01*
X841218Y-9599413D01*
X841219Y-9599414D01*
X841220Y-9599416D01*
X890584Y-9648780D01*
X890585Y-9648780D01*
X890587Y-9648782D01*
X955091Y-9675500D01*
X955093Y-9675500D01*
X1024907Y-9675500D01*
X1024909Y-9675500D01*
X1089413Y-9648782D01*
X1089415Y-9648780D01*
X1089416Y-9648780D01*
X1138780Y-9599416D01*
X1138780Y-9599415D01*
X1138782Y-9599413D01*
X1165500Y-9534909D01*
X1165500Y-9465091D01*
X1138782Y-9400587D01*
X1138780Y-9400585D01*
X1138780Y-9400584D01*
X1089416Y-9351220D01*
X1089414Y-9351219D01*
X1089413Y-9351218D01*
X1039395Y-9330500D01*
X1024910Y-9324500D01*
X1024909Y-9324500D01*
X955091Y-9324500D01*
X955089Y-9324500D01*
X890585Y-9351219D01*
X841219Y-9400585D01*
X814500Y-9465089D01*
X-2586677Y-9465089D01*
X-2600170Y-9459500D01*
X-2600172Y-9459500D01*
X-2699828Y-9459500D01*
X-2699829Y-9459500D01*
X-2726382Y-9470499D01*
X-2791897Y-9497636D01*
X-2791898Y-9497637D01*
X-2791900Y-9497638D01*
X-2862362Y-9568100D01*
X-2862362Y-9568101D01*
X-2862364Y-9568103D01*
X-2900500Y-9660172D01*
X-9259106Y-9660172D01*
X-9249340Y-9636594D01*
X-9249339Y-9636593D01*
X-9244501Y-9624912D01*
X-9244500Y-9624911D01*
X-9244500Y-9624909D01*
X-9244500Y-9555091D01*
X-9244500Y-9555089D01*
X-9271219Y-9490585D01*
X-9320585Y-9441219D01*
X-9385089Y-9414500D01*
X-9385091Y-9414500D01*
X-9454909Y-9414500D01*
X-9454910Y-9414500D01*
X-9481628Y-9425567D01*
X-9519413Y-9441218D01*
X-9519414Y-9441219D01*
X-9519416Y-9441220D01*
X-9568780Y-9490584D01*
X-9568780Y-9490585D01*
X-9568782Y-9490587D01*
X-9595500Y-9555091D01*
X-13440635Y-9555091D01*
X-13668748Y-9240497D01*
X-13670560Y-9237817D01*
X-13765146Y-9087398D01*
X-13778513Y-9066140D01*
X-12950500Y-9066140D01*
X-12950500Y-9153860D01*
X-12916931Y-9234903D01*
X-12916929Y-9234905D01*
X-12916929Y-9234906D01*
X-12882778Y-9269056D01*
X-12854903Y-9296931D01*
X-12773860Y-9330500D01*
X-12773858Y-9330500D01*
X-12686142Y-9330500D01*
X-12686140Y-9330500D01*
X-12605097Y-9296931D01*
X-12605095Y-9296929D01*
X-12605094Y-9296929D01*
X-12543071Y-9234906D01*
X-12543070Y-9234904D01*
X-12543069Y-9234903D01*
X-12518561Y-9175735D01*
X-12509500Y-9153861D01*
X-12509500Y-9066138D01*
X-12543070Y-8985095D01*
X-12605095Y-8923070D01*
X-12686138Y-8889500D01*
X-12686140Y-8889500D01*
X-12773860Y-8889500D01*
X-12773861Y-8889500D01*
X-12792848Y-8897365D01*
X-12854903Y-8923069D01*
X-12854904Y-8923070D01*
X-12854906Y-8923071D01*
X-12916929Y-8985094D01*
X-12916929Y-8985095D01*
X-12916931Y-8985097D01*
X-12950500Y-9066140D01*
X-13778513Y-9066140D01*
X-14083306Y-8581430D01*
X-14096673Y-8560172D01*
X-4620500Y-8560172D01*
X-4620500Y-8659828D01*
X-4582364Y-8751897D01*
X-4582362Y-8751899D01*
X-4582362Y-8751900D01*
X-4545247Y-8789014D01*
X-4511897Y-8822364D01*
X-4419828Y-8860500D01*
X-4419826Y-8860500D01*
X-4320174Y-8860500D01*
X-4320172Y-8860500D01*
X-4228103Y-8822364D01*
X-4228101Y-8822362D01*
X-4228100Y-8822362D01*
X-4157638Y-8751900D01*
X-4157637Y-8751898D01*
X-4157636Y-8751897D01*
X-4119500Y-8659828D01*
X-4119500Y-8560172D01*
X-4119500Y-8560170D01*
X-4155084Y-8474264D01*
X-4157636Y-8468103D01*
X-4157636Y-8468102D01*
X-4157637Y-8468101D01*
X-4228101Y-8397637D01*
X-4320170Y-8359500D01*
X-4320172Y-8359500D01*
X-4419828Y-8359500D01*
X-4419829Y-8359500D01*
X-4450885Y-8372364D01*
X-4511897Y-8397636D01*
X-4511898Y-8397637D01*
X-4511900Y-8397638D01*
X-4582362Y-8468100D01*
X-4582362Y-8468101D01*
X-4582364Y-8468103D01*
X-4620500Y-8560172D01*
X-14096673Y-8560172D01*
X-14248761Y-8318309D01*
X-14250390Y-8315517D01*
X-14256852Y-8303557D01*
X-14266829Y-8285091D01*
X-9455500Y-8285091D01*
X-9455500Y-8354909D01*
X-9428782Y-8419413D01*
X-9428780Y-8419415D01*
X-9428780Y-8419416D01*
X-9403695Y-8444500D01*
X-9379413Y-8468782D01*
X-9314909Y-8495500D01*
X-9314907Y-8495500D01*
X-9245093Y-8495500D01*
X-9245091Y-8495500D01*
X-9180587Y-8468782D01*
X-9180585Y-8468780D01*
X-9180584Y-8468780D01*
X-9131220Y-8419416D01*
X-9131219Y-8419414D01*
X-9131218Y-8419413D01*
X-9111730Y-8372364D01*
X-9104500Y-8354910D01*
X-9104500Y-8285089D01*
X-9131219Y-8220585D01*
X-9180585Y-8171219D01*
X-9245089Y-8144500D01*
X-9245091Y-8144500D01*
X-9314909Y-8144500D01*
X-9314910Y-8144500D01*
X-9338479Y-8154263D01*
X-9379413Y-8171218D01*
X-9379414Y-8171219D01*
X-9379416Y-8171220D01*
X-9428780Y-8220584D01*
X-9428780Y-8220585D01*
X-9428782Y-8220587D01*
X-9455500Y-8285091D01*
X-14266829Y-8285091D01*
X-14449155Y-7947638D01*
X-14526173Y-7805091D01*
X-13795500Y-7805091D01*
X-13795500Y-7874909D01*
X-13768782Y-7939413D01*
X-13768780Y-7939415D01*
X-13768780Y-7939416D01*
X-13737696Y-7970499D01*
X-13719413Y-7988782D01*
X-13654909Y-8015500D01*
X-13654907Y-8015500D01*
X-13585093Y-8015500D01*
X-13585091Y-8015500D01*
X-13520587Y-7988782D01*
X-13520585Y-7988780D01*
X-13520584Y-7988780D01*
X-13471220Y-7939416D01*
X-13471219Y-7939414D01*
X-13471218Y-7939413D01*
X-13467390Y-7930172D01*
X-10410500Y-7930172D01*
X-10410500Y-8029828D01*
X-10372364Y-8121897D01*
X-10372362Y-8121899D01*
X-10372362Y-8121900D01*
X-10323043Y-8171218D01*
X-10301897Y-8192364D01*
X-10209828Y-8230500D01*
X-10209826Y-8230500D01*
X-10110174Y-8230500D01*
X-10110172Y-8230500D01*
X-10018103Y-8192364D01*
X-10018101Y-8192362D01*
X-10018100Y-8192362D01*
X-9947638Y-8121900D01*
X-9947637Y-8121898D01*
X-9947636Y-8121897D01*
X-9909500Y-8029828D01*
X-9909500Y-7930172D01*
X-9909500Y-7930170D01*
X-9947637Y-7838101D01*
X-10018101Y-7767637D01*
X-10110170Y-7729500D01*
X-10110172Y-7729500D01*
X-10209828Y-7729500D01*
X-10209829Y-7729500D01*
X-10236590Y-7740585D01*
X-10301897Y-7767636D01*
X-10301898Y-7767637D01*
X-10301900Y-7767638D01*
X-10372362Y-7838100D01*
X-10372362Y-7838101D01*
X-10372364Y-7838103D01*
X-10410500Y-7930172D01*
X-13467390Y-7930172D01*
X-13457624Y-7906594D01*
X-13457623Y-7906593D01*
X-13444501Y-7874913D01*
X-13444500Y-7874910D01*
X-13444500Y-7874909D01*
X-13444500Y-7805091D01*
X-13444500Y-7805089D01*
X-13471219Y-7740585D01*
X-13520585Y-7691219D01*
X-13585089Y-7664500D01*
X-13585091Y-7664500D01*
X-13654909Y-7664500D01*
X-13654910Y-7664500D01*
X-13664238Y-7668364D01*
X-13719413Y-7691218D01*
X-13719414Y-7691219D01*
X-13719416Y-7691220D01*
X-13768780Y-7740584D01*
X-13768780Y-7740585D01*
X-13768782Y-7740587D01*
X-13795500Y-7805091D01*
X-14526173Y-7805091D01*
X-14639069Y-7596140D01*
X-11490500Y-7596140D01*
X-11490500Y-7683860D01*
X-11456931Y-7764903D01*
X-11456929Y-7764905D01*
X-11456929Y-7764906D01*
X-11416745Y-7805089D01*
X-11394903Y-7826931D01*
X-11313860Y-7860500D01*
X-11313858Y-7860500D01*
X-11226142Y-7860500D01*
X-11226140Y-7860500D01*
X-11145097Y-7826931D01*
X-11145095Y-7826929D01*
X-11145094Y-7826929D01*
X-11083071Y-7764906D01*
X-11083070Y-7764904D01*
X-11083069Y-7764903D01*
X-11057433Y-7703012D01*
X-11049500Y-7683861D01*
X-11049500Y-7596138D01*
X-11083070Y-7515095D01*
X-11145095Y-7453070D01*
X-11226138Y-7419500D01*
X-11226140Y-7419500D01*
X-11313860Y-7419500D01*
X-11313861Y-7419500D01*
X-11338002Y-7429500D01*
X-11394903Y-7453069D01*
X-11394904Y-7453070D01*
X-11394906Y-7453071D01*
X-11456929Y-7515094D01*
X-11456929Y-7515095D01*
X-11456931Y-7515097D01*
X-11490500Y-7596140D01*
X-14639069Y-7596140D01*
X-14766720Y-7359880D01*
X-14768165Y-7356980D01*
X-15220146Y-6369416D01*
X-15221394Y-6366432D01*
X-15249396Y-6292754D01*
X-15254178Y-6280172D01*
X-11600500Y-6280172D01*
X-11600500Y-6379828D01*
X-11562364Y-6471897D01*
X-11562362Y-6471899D01*
X-11562362Y-6471900D01*
X-11514436Y-6519825D01*
X-11491897Y-6542364D01*
X-11399828Y-6580500D01*
X-11399826Y-6580500D01*
X-11300174Y-6580500D01*
X-11300172Y-6580500D01*
X-11208103Y-6542364D01*
X-11208101Y-6542362D01*
X-11208100Y-6542362D01*
X-11137638Y-6471900D01*
X-11137637Y-6471898D01*
X-11137636Y-6471897D01*
X-11109965Y-6405094D01*
X-11099500Y-6379829D01*
X-11099500Y-6280170D01*
X-11137637Y-6188101D01*
X-11208101Y-6117637D01*
X-11300170Y-6079500D01*
X-11300172Y-6079500D01*
X-11399828Y-6079500D01*
X-11399829Y-6079500D01*
X-11437965Y-6095296D01*
X-11491897Y-6117636D01*
X-11491898Y-6117637D01*
X-11491900Y-6117638D01*
X-11562362Y-6188100D01*
X-11562362Y-6188101D01*
X-11562364Y-6188103D01*
X-11600500Y-6280172D01*
X-15254178Y-6280172D01*
X-15475565Y-5697673D01*
X-15480347Y-5685091D01*
X-11545500Y-5685091D01*
X-11545500Y-5754909D01*
X-11518782Y-5819413D01*
X-11518780Y-5819415D01*
X-11518780Y-5819416D01*
X-11491601Y-5846594D01*
X-11469413Y-5868782D01*
X-11404909Y-5895500D01*
X-11404907Y-5895500D01*
X-11335093Y-5895500D01*
X-11335091Y-5895500D01*
X-11270587Y-5868782D01*
X-11270585Y-5868780D01*
X-11270584Y-5868780D01*
X-11221220Y-5819416D01*
X-11221219Y-5819414D01*
X-11221218Y-5819413D01*
X-11194500Y-5754909D01*
X-11194500Y-5685091D01*
X-11194500Y-5685089D01*
X-11221219Y-5620585D01*
X-11270585Y-5571219D01*
X-11279233Y-5567637D01*
X-11281653Y-5566634D01*
X-11335089Y-5544500D01*
X-11335091Y-5544500D01*
X-11404909Y-5544500D01*
X-11404910Y-5544500D01*
X-11431628Y-5555567D01*
X-11469413Y-5571218D01*
X-11469414Y-5571219D01*
X-11469416Y-5571220D01*
X-11518780Y-5620584D01*
X-11518780Y-5620585D01*
X-11518782Y-5620587D01*
X-11545500Y-5685091D01*
X-15480347Y-5685091D01*
X-15607301Y-5351056D01*
X-15608350Y-5347998D01*
X-15632293Y-5269825D01*
X-15670497Y-5145091D01*
X-15195500Y-5145091D01*
X-15195500Y-5214909D01*
X-15168782Y-5279413D01*
X-15168780Y-5279415D01*
X-15168780Y-5279416D01*
X-15119415Y-5328780D01*
X-15119413Y-5328782D01*
X-15054909Y-5355500D01*
X-15054907Y-5355500D01*
X-14985093Y-5355500D01*
X-14985091Y-5355500D01*
X-14920587Y-5328782D01*
X-14920585Y-5328780D01*
X-14920584Y-5328780D01*
X-14871220Y-5279416D01*
X-14871219Y-5279414D01*
X-14871218Y-5279413D01*
X-14844500Y-5214909D01*
X-14844500Y-5145091D01*
X-14844500Y-5145089D01*
X-14871219Y-5080585D01*
X-14920585Y-5031219D01*
X-14985089Y-5004500D01*
X-14985091Y-5004500D01*
X-15054909Y-5004500D01*
X-15054910Y-5004500D01*
X-15081628Y-5015567D01*
X-15119413Y-5031218D01*
X-15119414Y-5031219D01*
X-15119416Y-5031220D01*
X-15168780Y-5080584D01*
X-15168780Y-5080585D01*
X-15168782Y-5080587D01*
X-15195500Y-5145091D01*
X-15670497Y-5145091D01*
X-15865594Y-4508103D01*
X-15926426Y-4309487D01*
X-15927271Y-4306364D01*
X-15968432Y-4131492D01*
X-15969939Y-4125091D01*
X-13315500Y-4125091D01*
X-13315500Y-4194909D01*
X-13288782Y-4259413D01*
X-13288780Y-4259415D01*
X-13288780Y-4259416D01*
X-13258695Y-4289500D01*
X-13239413Y-4308782D01*
X-13174909Y-4335500D01*
X-13174907Y-4335500D01*
X-13105093Y-4335500D01*
X-13105091Y-4335500D01*
X-13040587Y-4308782D01*
X-13040585Y-4308780D01*
X-13040584Y-4308780D01*
X-12991220Y-4259416D01*
X-12991219Y-4259414D01*
X-12991218Y-4259413D01*
X-12964500Y-4194909D01*
X-12964500Y-4125091D01*
X-12964500Y-4125089D01*
X-12991219Y-4060585D01*
X-13040585Y-4011219D01*
X-13105089Y-3984500D01*
X-13105091Y-3984500D01*
X-13174909Y-3984500D01*
X-13174910Y-3984500D01*
X-13201628Y-3995567D01*
X-13239413Y-4011218D01*
X-13239414Y-4011219D01*
X-13239416Y-4011220D01*
X-13288780Y-4060584D01*
X-13288780Y-4060585D01*
X-13288782Y-4060587D01*
X-13315500Y-4125091D01*
X-15969939Y-4125091D01*
X-16140259Y-3401492D01*
X-16141766Y-3395091D01*
X-13045500Y-3395091D01*
X-13045500Y-3464909D01*
X-13018782Y-3529413D01*
X-13018780Y-3529415D01*
X-13018780Y-3529416D01*
X-12969415Y-3578780D01*
X-12969413Y-3578782D01*
X-12904909Y-3605500D01*
X-12904907Y-3605500D01*
X-12835093Y-3605500D01*
X-12835091Y-3605500D01*
X-12770587Y-3578782D01*
X-12770585Y-3578780D01*
X-12770584Y-3578780D01*
X-12721220Y-3529416D01*
X-12721219Y-3529414D01*
X-12721218Y-3529413D01*
X-12694500Y-3464909D01*
X-12694500Y-3395091D01*
X-12694500Y-3395089D01*
X-12721219Y-3330585D01*
X-12770585Y-3281219D01*
X-12772321Y-3280500D01*
X-12781653Y-3276634D01*
X-12835089Y-3254500D01*
X-12835091Y-3254500D01*
X-12904909Y-3254500D01*
X-12904910Y-3254500D01*
X-12931628Y-3265567D01*
X-12969413Y-3281218D01*
X-12969414Y-3281219D01*
X-12969416Y-3281220D01*
X-13018780Y-3330584D01*
X-13018780Y-3330585D01*
X-13018782Y-3330587D01*
X-13045500Y-3395091D01*
X-16141766Y-3395091D01*
X-16176150Y-3249011D01*
X-16176787Y-3245834D01*
X-16336258Y-2288315D01*
X-16336795Y-2285091D01*
X-15225500Y-2285091D01*
X-15225500Y-2354909D01*
X-15198782Y-2419413D01*
X-15198780Y-2419415D01*
X-15198780Y-2419416D01*
X-15163289Y-2454906D01*
X-15149413Y-2468782D01*
X-15084909Y-2495500D01*
X-15084907Y-2495500D01*
X-15015093Y-2495500D01*
X-15015091Y-2495500D01*
X-14950587Y-2468782D01*
X-14950585Y-2468780D01*
X-14950584Y-2468780D01*
X-14901220Y-2419416D01*
X-14901219Y-2419414D01*
X-14901218Y-2419413D01*
X-14874500Y-2354909D01*
X-14874500Y-2285091D01*
X-14874500Y-2285089D01*
X-14901219Y-2220585D01*
X-14950585Y-2171219D01*
X-14989521Y-2155091D01*
X-13705500Y-2155091D01*
X-13705500Y-2224909D01*
X-13678782Y-2289413D01*
X-13678780Y-2289415D01*
X-13678780Y-2289416D01*
X-13648782Y-2319413D01*
X-13629413Y-2338782D01*
X-13564909Y-2365500D01*
X-13564907Y-2365500D01*
X-13495093Y-2365500D01*
X-13495091Y-2365500D01*
X-13430587Y-2338782D01*
X-13430585Y-2338780D01*
X-13430584Y-2338780D01*
X-13381219Y-2289415D01*
X-13379428Y-2285091D01*
X-13377709Y-2280942D01*
X-13351193Y-2254424D01*
X-13313690Y-2254423D01*
X-13297795Y-2265043D01*
X-11578339Y-3984500D01*
X-9946987Y-5615852D01*
X-9932635Y-5650500D01*
X-9946987Y-5685148D01*
X-9981635Y-5699500D01*
X-10009829Y-5699500D01*
X-10029473Y-5707637D01*
X-10101897Y-5737636D01*
X-10101898Y-5737637D01*
X-10101900Y-5737638D01*
X-10172362Y-5808100D01*
X-10172362Y-5808101D01*
X-10172364Y-5808103D01*
X-10210500Y-5900172D01*
X-10210500Y-5999828D01*
X-10172364Y-6091897D01*
X-10172362Y-6091899D01*
X-10172362Y-6091900D01*
X-10131899Y-6132362D01*
X-10101897Y-6162364D01*
X-10009828Y-6200500D01*
X-10009826Y-6200500D01*
X-9910174Y-6200500D01*
X-9910172Y-6200500D01*
X-9818103Y-6162364D01*
X-9818101Y-6162362D01*
X-9818100Y-6162362D01*
X-9747638Y-6091900D01*
X-9747637Y-6091898D01*
X-9747636Y-6091897D01*
X-9710550Y-6002364D01*
X-9709500Y-5999829D01*
X-9709500Y-5971635D01*
X-9695148Y-5936987D01*
X-9660500Y-5922635D01*
X-9625852Y-5936987D01*
X-7335251Y-8227588D01*
X-7279936Y-8250500D01*
X-7279934Y-8250500D01*
X-570066Y-8250500D01*
X-570064Y-8250500D01*
X-514749Y-8227587D01*
X-514748Y-8227586D01*
X-514747Y-8227586D01*
X-472413Y-8185252D01*
X-449500Y-8129937D01*
X-449500Y-8070062D01*
X-472413Y-8014747D01*
X-514747Y-7972413D01*
X-570062Y-7949500D01*
X-570064Y-7949500D01*
X-7030523Y-7949500D01*
X-7065171Y-7935148D01*
X-7079523Y-7900500D01*
X-7065171Y-7865852D01*
X-7049275Y-7855230D01*
X-7005097Y-7836931D01*
X-7005095Y-7836929D01*
X-7005094Y-7836929D01*
X-6943071Y-7774906D01*
X-6943070Y-7774904D01*
X-6943069Y-7774903D01*
X-6914587Y-7706142D01*
X-6909500Y-7693861D01*
X-6909500Y-7606142D01*
X-6909501Y-7606136D01*
X-6914076Y-7595091D01*
X-5565500Y-7595091D01*
X-5565500Y-7664909D01*
X-5538782Y-7729413D01*
X-5538780Y-7729415D01*
X-5538780Y-7729416D01*
X-5506452Y-7761743D01*
X-5489413Y-7778782D01*
X-5424909Y-7805500D01*
X-5424907Y-7805500D01*
X-5355093Y-7805500D01*
X-5355091Y-7805500D01*
X-5290587Y-7778782D01*
X-5290585Y-7778780D01*
X-5290584Y-7778780D01*
X-5241220Y-7729416D01*
X-5241219Y-7729414D01*
X-5241218Y-7729413D01*
X-5231577Y-7706138D01*
X1439500Y-7706138D01*
X1439500Y-7706140D01*
X1439500Y-7793860D01*
X1473069Y-7874903D01*
X1473070Y-7874904D01*
X1473071Y-7874906D01*
X1535094Y-7936929D01*
X1535095Y-7936929D01*
X1535097Y-7936931D01*
X1616140Y-7970500D01*
X1616142Y-7970500D01*
X1703858Y-7970500D01*
X1703860Y-7970500D01*
X1784903Y-7936931D01*
X1784905Y-7936929D01*
X1784906Y-7936929D01*
X1846929Y-7874906D01*
X1846929Y-7874905D01*
X1846931Y-7874903D01*
X1880500Y-7793860D01*
X1880500Y-7706140D01*
X1846931Y-7625097D01*
X1846929Y-7625095D01*
X1846929Y-7625094D01*
X1784906Y-7563071D01*
X1784904Y-7563070D01*
X1784903Y-7563069D01*
X1737430Y-7543405D01*
X1703861Y-7529500D01*
X1703860Y-7529500D01*
X1616140Y-7529500D01*
X1616138Y-7529500D01*
X1535095Y-7563070D01*
X1473070Y-7625095D01*
X1439500Y-7706138D01*
X-5231577Y-7706138D01*
X-5221811Y-7682561D01*
X-5214501Y-7664912D01*
X-5214500Y-7664911D01*
X-5214500Y-7664909D01*
X-5214500Y-7595091D01*
X-5214500Y-7595089D01*
X-5241219Y-7530585D01*
X-5290585Y-7481219D01*
X-5355089Y-7454500D01*
X-5355091Y-7454500D01*
X-5424909Y-7454500D01*
X-5424910Y-7454500D01*
X-5445597Y-7463069D01*
X-5489413Y-7481218D01*
X-5489414Y-7481219D01*
X-5489416Y-7481220D01*
X-5538780Y-7530584D01*
X-5538780Y-7530585D01*
X-5538782Y-7530587D01*
X-5565500Y-7595091D01*
X-6914076Y-7595091D01*
X-6943070Y-7525095D01*
X-7005095Y-7463070D01*
X-7086138Y-7429500D01*
X-7086140Y-7429500D01*
X-7173860Y-7429500D01*
X-7173861Y-7429500D01*
X-7207430Y-7443405D01*
X-7254903Y-7463069D01*
X-7254904Y-7463070D01*
X-7254906Y-7463071D01*
X-7316929Y-7525094D01*
X-7316929Y-7525095D01*
X-7316931Y-7525097D01*
X-7350498Y-7606136D01*
X-7350499Y-7606138D01*
X-7350500Y-7606142D01*
X-7350500Y-7668364D01*
X-7364852Y-7703012D01*
X-7399500Y-7717364D01*
X-7434148Y-7703012D01*
X-7986990Y-7150170D01*
X3869500Y-7150170D01*
X3869500Y-7150172D01*
X3869500Y-7249828D01*
X3907636Y-7341897D01*
X3907637Y-7341898D01*
X3907638Y-7341900D01*
X3978100Y-7412362D01*
X3978101Y-7412362D01*
X3978103Y-7412364D01*
X4070172Y-7450500D01*
X4070174Y-7450500D01*
X4169826Y-7450500D01*
X4169828Y-7450500D01*
X4261897Y-7412364D01*
X4261899Y-7412362D01*
X4261900Y-7412362D01*
X4332362Y-7341900D01*
X4332362Y-7341899D01*
X4332364Y-7341897D01*
X4370500Y-7249828D01*
X4370500Y-7242079D01*
X4384852Y-7207431D01*
X4419500Y-7193079D01*
X4430226Y-7195213D01*
X4430357Y-7194558D01*
X4435089Y-7195499D01*
X4435091Y-7195500D01*
X4435093Y-7195500D01*
X4504907Y-7195500D01*
X4504909Y-7195500D01*
X4569413Y-7168782D01*
X4569415Y-7168780D01*
X4569416Y-7168780D01*
X4618780Y-7119416D01*
X4618780Y-7119415D01*
X4618782Y-7119413D01*
X4645500Y-7054909D01*
X4645500Y-6985091D01*
X4618782Y-6920587D01*
X4618781Y-6920586D01*
X4618780Y-6920584D01*
X4618366Y-6920170D01*
X13899500Y-6920170D01*
X13899500Y-6920172D01*
X13899500Y-7019828D01*
X13937636Y-7111897D01*
X13937637Y-7111898D01*
X13937638Y-7111900D01*
X14008100Y-7182362D01*
X14008101Y-7182362D01*
X14008103Y-7182364D01*
X14100172Y-7220500D01*
X14100174Y-7220500D01*
X14199826Y-7220500D01*
X14199828Y-7220500D01*
X14291897Y-7182364D01*
X14291899Y-7182362D01*
X14291900Y-7182362D01*
X14362362Y-7111900D01*
X14362362Y-7111899D01*
X14362364Y-7111897D01*
X14400500Y-7019828D01*
X14400500Y-6920172D01*
X14362364Y-6828103D01*
X14362362Y-6828101D01*
X14362362Y-6828100D01*
X14291900Y-6757638D01*
X14291898Y-6757637D01*
X14291897Y-6757636D01*
X14237965Y-6735296D01*
X14199829Y-6719500D01*
X14199828Y-6719500D01*
X14100172Y-6719500D01*
X14100170Y-6719500D01*
X14008101Y-6757637D01*
X13937637Y-6828101D01*
X13899500Y-6920170D01*
X4618366Y-6920170D01*
X4569416Y-6871220D01*
X4569414Y-6871219D01*
X4569413Y-6871218D01*
X4531628Y-6855567D01*
X4504910Y-6844500D01*
X4504909Y-6844500D01*
X4435091Y-6844500D01*
X4435089Y-6844500D01*
X4370585Y-6871219D01*
X4321220Y-6920584D01*
X4321219Y-6920584D01*
X4307576Y-6953521D01*
X4281056Y-6980039D01*
X4243555Y-6980038D01*
X4169831Y-6949501D01*
X4169829Y-6949500D01*
X4169828Y-6949500D01*
X4070172Y-6949500D01*
X4070170Y-6949500D01*
X3996446Y-6980038D01*
X3984243Y-6985093D01*
X3978101Y-6987637D01*
X3907637Y-7058101D01*
X3869500Y-7150170D01*
X-7986990Y-7150170D01*
X-9086988Y-6050172D01*
X-8380500Y-6050172D01*
X-8380500Y-6149828D01*
X-8342364Y-6241897D01*
X-8282695Y-6301565D01*
X-8268344Y-6336213D01*
X-8282695Y-6370861D01*
X-8282696Y-6370861D01*
X-8316929Y-6405094D01*
X-8316929Y-6405095D01*
X-8316931Y-6405097D01*
X-8350500Y-6486140D01*
X-8350500Y-6573860D01*
X-8316931Y-6654903D01*
X-8316929Y-6654905D01*
X-8316929Y-6654906D01*
X-8278768Y-6693066D01*
X-8254903Y-6716931D01*
X-8173860Y-6750500D01*
X-8173858Y-6750500D01*
X-8086142Y-6750500D01*
X-8086140Y-6750500D01*
X-8005097Y-6716931D01*
X-8005095Y-6716929D01*
X-8005094Y-6716929D01*
X-7943071Y-6654906D01*
X-7943070Y-6654904D01*
X-7943069Y-6654903D01*
X-7909500Y-6573860D01*
X-7909500Y-6486140D01*
X-7909500Y-6486138D01*
X-7928887Y-6439336D01*
X-7928886Y-6439336D01*
X-7936824Y-6420172D01*
X-7580500Y-6420172D01*
X-7580500Y-6519828D01*
X-7542364Y-6611897D01*
X-7542362Y-6611899D01*
X-7542362Y-6611900D01*
X-7499358Y-6654903D01*
X-7471897Y-6682364D01*
X-7379828Y-6720500D01*
X-7379826Y-6720500D01*
X-7280174Y-6720500D01*
X-7280172Y-6720500D01*
X-7188103Y-6682364D01*
X-7188101Y-6682362D01*
X-7188100Y-6682362D01*
X-7117638Y-6611900D01*
X-7117637Y-6611898D01*
X-7117636Y-6611897D01*
X-7095296Y-6557965D01*
X-7079500Y-6519829D01*
X-7079500Y-6420170D01*
X-7116064Y-6331898D01*
X-7117636Y-6328103D01*
X-7117636Y-6328102D01*
X-7117637Y-6328101D01*
X-7188101Y-6257637D01*
X-7280170Y-6219500D01*
X-7280172Y-6219500D01*
X-7379828Y-6219500D01*
X-7379829Y-6219500D01*
X-7417965Y-6235296D01*
X-7471897Y-6257636D01*
X-7471898Y-6257637D01*
X-7471900Y-6257638D01*
X-7542362Y-6328100D01*
X-7542362Y-6328101D01*
X-7542364Y-6328103D01*
X-7580500Y-6420172D01*
X-7936824Y-6420172D01*
X-7943069Y-6405097D01*
X-7980116Y-6368049D01*
X-7982446Y-6364808D01*
X-7985887Y-6350136D01*
X-7991655Y-6336212D01*
X-7990058Y-6332357D01*
X-7991011Y-6328296D01*
X-7983070Y-6315488D01*
X-7977303Y-6301565D01*
X-7917638Y-6241900D01*
X-7917637Y-6241898D01*
X-7917636Y-6241897D01*
X-7895296Y-6187965D01*
X-7879500Y-6149829D01*
X-7879500Y-6050170D01*
X-7917636Y-5958103D01*
X-7926092Y-5949647D01*
X-7940442Y-5914998D01*
X-7926090Y-5880352D01*
X-7857638Y-5811900D01*
X-7857637Y-5811898D01*
X-7857636Y-5811897D01*
X-7823785Y-5730172D01*
X-6480500Y-5730172D01*
X-6480500Y-5829828D01*
X-6442364Y-5921897D01*
X-6442362Y-5921899D01*
X-6442362Y-5921900D01*
X-6406161Y-5958100D01*
X-6371897Y-5992364D01*
X-6279828Y-6030500D01*
X-6279826Y-6030500D01*
X-6180174Y-6030500D01*
X-6180172Y-6030500D01*
X-6088103Y-5992364D01*
X-6088101Y-5992362D01*
X-6088100Y-5992362D01*
X-6017638Y-5921900D01*
X-6017636Y-5921897D01*
X-5996211Y-5870172D01*
X-4830500Y-5870172D01*
X-4830500Y-5969828D01*
X-4792364Y-6061897D01*
X-4792362Y-6061899D01*
X-4792362Y-6061900D01*
X-4747332Y-6106929D01*
X-4721897Y-6132364D01*
X-4629828Y-6170500D01*
X-4629826Y-6170500D01*
X-4530174Y-6170500D01*
X-4530172Y-6170500D01*
X-4518250Y-6165561D01*
X-4480750Y-6165561D01*
X-4454230Y-6192079D01*
X-4450500Y-6210832D01*
X-4450500Y-6239828D01*
X-4412364Y-6331897D01*
X-4412362Y-6331899D01*
X-4412362Y-6331900D01*
X-4376313Y-6367948D01*
X-4341897Y-6402364D01*
X-4249828Y-6440500D01*
X-4249826Y-6440500D01*
X-4150174Y-6440500D01*
X-4150172Y-6440500D01*
X-4058103Y-6402364D01*
X-4058101Y-6402362D01*
X-4058100Y-6402362D01*
X-3987638Y-6331900D01*
X-3987637Y-6331898D01*
X-3987636Y-6331897D01*
X-3956877Y-6257638D01*
X-3949500Y-6239829D01*
X-3949500Y-6140170D01*
X-3987637Y-6048101D01*
X-4058101Y-5977637D01*
X-4150170Y-5939500D01*
X-4150172Y-5939500D01*
X-4249828Y-5939500D01*
X-4249829Y-5939500D01*
X-4249832Y-5939501D01*
X-4261749Y-5944437D01*
X-4271495Y-5944437D01*
X-4280500Y-5948167D01*
X-4289505Y-5944437D01*
X-4299252Y-5944437D01*
X-4306144Y-5937544D01*
X-4315148Y-5933815D01*
X-4318877Y-5924810D01*
X-4325770Y-5917918D01*
X-4329500Y-5899167D01*
X-4329500Y-5876138D01*
X4049500Y-5876138D01*
X4049500Y-5963861D01*
X4061306Y-5992362D01*
X4083069Y-6044903D01*
X4083070Y-6044904D01*
X4083071Y-6044906D01*
X4145094Y-6106929D01*
X4145095Y-6106929D01*
X4145097Y-6106931D01*
X4226140Y-6140500D01*
X4226142Y-6140500D01*
X4313858Y-6140500D01*
X4313860Y-6140500D01*
X4326923Y-6135089D01*
X11884500Y-6135089D01*
X11884500Y-6135091D01*
X11884500Y-6204909D01*
X11911218Y-6269413D01*
X11911219Y-6269414D01*
X11911220Y-6269416D01*
X11960584Y-6318780D01*
X11960585Y-6318780D01*
X11960587Y-6318782D01*
X12025091Y-6345500D01*
X12025093Y-6345500D01*
X12094907Y-6345500D01*
X12094909Y-6345500D01*
X12159413Y-6318782D01*
X12159415Y-6318780D01*
X12159416Y-6318780D01*
X12208780Y-6269416D01*
X12208780Y-6269415D01*
X12208782Y-6269413D01*
X12235500Y-6204909D01*
X12235500Y-6135091D01*
X12208782Y-6070587D01*
X12208780Y-6070585D01*
X12208780Y-6070584D01*
X12159416Y-6021220D01*
X12159414Y-6021219D01*
X12159413Y-6021218D01*
X12113890Y-6002362D01*
X12094910Y-5994500D01*
X12094909Y-5994500D01*
X12025091Y-5994500D01*
X12025089Y-5994500D01*
X11960585Y-6021219D01*
X11911219Y-6070585D01*
X11884500Y-6135089D01*
X4326923Y-6135089D01*
X4394903Y-6106931D01*
X4394905Y-6106929D01*
X4394906Y-6106929D01*
X4456929Y-6044906D01*
X4456929Y-6044905D01*
X4456931Y-6044903D01*
X4490500Y-5963860D01*
X4490500Y-5876140D01*
X4456931Y-5795097D01*
X4456929Y-5795095D01*
X4456929Y-5795094D01*
X4394906Y-5733071D01*
X4394904Y-5733070D01*
X4394903Y-5733069D01*
X4333505Y-5707637D01*
X4313861Y-5699500D01*
X4313860Y-5699500D01*
X4226140Y-5699500D01*
X4226138Y-5699500D01*
X4145095Y-5733070D01*
X4083070Y-5795095D01*
X4049500Y-5876138D01*
X-4329500Y-5876138D01*
X-4329500Y-5870170D01*
X-4367637Y-5778101D01*
X-4438101Y-5707637D01*
X-4530170Y-5669500D01*
X-4530172Y-5669500D01*
X-4629828Y-5669500D01*
X-4629829Y-5669500D01*
X-4667463Y-5685089D01*
X-4721897Y-5707636D01*
X-4721898Y-5707637D01*
X-4721900Y-5707638D01*
X-4792362Y-5778100D01*
X-4792362Y-5778101D01*
X-4792364Y-5778103D01*
X-4830500Y-5870172D01*
X-5996211Y-5870172D01*
X-5986445Y-5846595D01*
X-5986445Y-5846594D01*
X-5979500Y-5829829D01*
X-5979500Y-5730170D01*
X-6017637Y-5638101D01*
X-6088101Y-5567637D01*
X-6180170Y-5529500D01*
X-6180172Y-5529500D01*
X-6279828Y-5529500D01*
X-6279829Y-5529500D01*
X-6316041Y-5544500D01*
X-6371897Y-5567636D01*
X-6371898Y-5567637D01*
X-6371900Y-5567638D01*
X-6442362Y-5638100D01*
X-6442362Y-5638101D01*
X-6442364Y-5638103D01*
X-6480500Y-5730172D01*
X-7823785Y-5730172D01*
X-7819500Y-5719828D01*
X-7819500Y-5620172D01*
X-7819500Y-5620170D01*
X-7852915Y-5539500D01*
X-7857636Y-5528103D01*
X-7857636Y-5528102D01*
X-7857637Y-5528101D01*
X-7928101Y-5457637D01*
X-8020170Y-5419500D01*
X-8020172Y-5419500D01*
X-8119828Y-5419500D01*
X-8119829Y-5419500D01*
X-8150880Y-5432362D01*
X-8211897Y-5457636D01*
X-8211898Y-5457637D01*
X-8211900Y-5457638D01*
X-8282362Y-5528100D01*
X-8282362Y-5528101D01*
X-8282364Y-5528103D01*
X-8320500Y-5620172D01*
X-8320500Y-5719828D01*
X-8282364Y-5811897D01*
X-8273911Y-5820349D01*
X-8259557Y-5854995D01*
X-8273906Y-5889644D01*
X-8342362Y-5958100D01*
X-8342362Y-5958101D01*
X-8342364Y-5958103D01*
X-8380500Y-6050172D01*
X-9086988Y-6050172D01*
X-9396988Y-5740172D01*
X-8980500Y-5740172D01*
X-8980500Y-5839828D01*
X-8942364Y-5931897D01*
X-8942362Y-5931899D01*
X-8942362Y-5931900D01*
X-8904436Y-5969825D01*
X-8871897Y-6002364D01*
X-8779828Y-6040500D01*
X-8779826Y-6040500D01*
X-8680174Y-6040500D01*
X-8680172Y-6040500D01*
X-8588103Y-6002364D01*
X-8588101Y-6002362D01*
X-8588099Y-6002361D01*
X-8517638Y-5931900D01*
X-8517637Y-5931898D01*
X-8517636Y-5931897D01*
X-8482303Y-5846595D01*
X-8479500Y-5839829D01*
X-8479500Y-5740170D01*
X-8517637Y-5648101D01*
X-8588101Y-5577637D01*
X-8680170Y-5539500D01*
X-8680172Y-5539500D01*
X-8779828Y-5539500D01*
X-8779829Y-5539500D01*
X-8817965Y-5555296D01*
X-8871897Y-5577636D01*
X-8871898Y-5577637D01*
X-8871900Y-5577638D01*
X-8942362Y-5648100D01*
X-8942362Y-5648101D01*
X-8942364Y-5648103D01*
X-8980500Y-5740172D01*
X-9396988Y-5740172D01*
X-9966990Y-5170170D01*
X6259500Y-5170170D01*
X6259500Y-5269829D01*
X6263471Y-5279416D01*
X6297636Y-5361897D01*
X6297637Y-5361898D01*
X6297638Y-5361900D01*
X6368100Y-5432362D01*
X6368101Y-5432362D01*
X6368103Y-5432364D01*
X6460172Y-5470500D01*
X6460174Y-5470500D01*
X6559826Y-5470500D01*
X6559828Y-5470500D01*
X6651897Y-5432364D01*
X6651899Y-5432362D01*
X6651900Y-5432362D01*
X6722362Y-5361900D01*
X6722362Y-5361898D01*
X6722364Y-5361897D01*
X6723079Y-5360170D01*
X14549500Y-5360170D01*
X14549500Y-5360172D01*
X14549500Y-5459828D01*
X14587636Y-5551897D01*
X14587637Y-5551898D01*
X14587638Y-5551900D01*
X14658100Y-5622362D01*
X14658101Y-5622362D01*
X14658103Y-5622364D01*
X14750172Y-5660500D01*
X14750174Y-5660500D01*
X14849826Y-5660500D01*
X14849828Y-5660500D01*
X14941897Y-5622364D01*
X14941899Y-5622362D01*
X14941900Y-5622362D01*
X15012362Y-5551900D01*
X15012362Y-5551899D01*
X15012364Y-5551897D01*
X15050500Y-5459828D01*
X15050500Y-5360172D01*
X15012364Y-5268103D01*
X15012362Y-5268101D01*
X15012362Y-5268100D01*
X14941900Y-5197638D01*
X14941898Y-5197637D01*
X14941897Y-5197636D01*
X14887965Y-5175296D01*
X14849829Y-5159500D01*
X14849828Y-5159500D01*
X14750172Y-5159500D01*
X14750170Y-5159500D01*
X14658101Y-5197637D01*
X14587637Y-5268101D01*
X14587636Y-5268102D01*
X14587636Y-5268103D01*
X14586921Y-5269829D01*
X14549500Y-5360170D01*
X6723079Y-5360170D01*
X6760500Y-5269828D01*
X6760500Y-5170172D01*
X6722364Y-5078103D01*
X6722362Y-5078101D01*
X6722362Y-5078100D01*
X6651900Y-5007638D01*
X6651898Y-5007637D01*
X6651897Y-5007636D01*
X6597965Y-4985296D01*
X6559829Y-4969500D01*
X6559828Y-4969500D01*
X6460172Y-4969500D01*
X6460170Y-4969500D01*
X6368101Y-5007637D01*
X6297637Y-5078101D01*
X6259500Y-5170170D01*
X-9966990Y-5170170D01*
X-10646988Y-4490172D01*
X-6740500Y-4490172D01*
X-6740500Y-4589828D01*
X-6702364Y-4681897D01*
X-6702362Y-4681899D01*
X-6702362Y-4681900D01*
X-6649355Y-4734906D01*
X-6631897Y-4752364D01*
X-6539828Y-4790500D01*
X-6539826Y-4790500D01*
X-6440174Y-4790500D01*
X-6440172Y-4790500D01*
X-6348103Y-4752364D01*
X-6348101Y-4752362D01*
X-6348100Y-4752362D01*
X-6277638Y-4681900D01*
X-6277637Y-4681898D01*
X-6277636Y-4681897D01*
X-6270674Y-4665089D01*
X6544500Y-4665089D01*
X6544500Y-4665091D01*
X6544500Y-4734909D01*
X6571218Y-4799413D01*
X6571219Y-4799414D01*
X6571220Y-4799416D01*
X6620584Y-4848780D01*
X6620585Y-4848780D01*
X6620587Y-4848782D01*
X6685091Y-4875500D01*
X6685093Y-4875500D01*
X6754907Y-4875500D01*
X6754909Y-4875500D01*
X6819413Y-4848782D01*
X6819415Y-4848780D01*
X6819416Y-4848780D01*
X6868780Y-4799416D01*
X6868780Y-4799415D01*
X6868782Y-4799413D01*
X6895500Y-4734909D01*
X6895500Y-4665091D01*
X6868782Y-4600587D01*
X6868781Y-4600586D01*
X6868780Y-4600584D01*
X6868366Y-4600170D01*
X10769500Y-4600170D01*
X10769500Y-4600172D01*
X10769500Y-4699828D01*
X10807636Y-4791897D01*
X10807637Y-4791898D01*
X10807638Y-4791900D01*
X10878100Y-4862362D01*
X10878101Y-4862362D01*
X10878103Y-4862364D01*
X10970172Y-4900500D01*
X10970174Y-4900500D01*
X11069826Y-4900500D01*
X11069828Y-4900500D01*
X11161897Y-4862364D01*
X11161899Y-4862362D01*
X11161900Y-4862362D01*
X11232362Y-4791900D01*
X11232362Y-4791899D01*
X11232364Y-4791897D01*
X11270500Y-4699828D01*
X11270500Y-4600172D01*
X11232364Y-4508103D01*
X11232362Y-4508101D01*
X11232362Y-4508100D01*
X11161900Y-4437638D01*
X11161898Y-4437637D01*
X11161897Y-4437636D01*
X11107965Y-4415296D01*
X11069829Y-4399500D01*
X11069828Y-4399500D01*
X10970172Y-4399500D01*
X10970170Y-4399500D01*
X10878101Y-4437637D01*
X10807637Y-4508101D01*
X10807636Y-4508102D01*
X10807636Y-4508103D01*
X10801768Y-4522269D01*
X10769500Y-4600170D01*
X6868366Y-4600170D01*
X6819416Y-4551220D01*
X6819414Y-4551219D01*
X6819413Y-4551218D01*
X6781628Y-4535567D01*
X6754910Y-4524500D01*
X6754909Y-4524500D01*
X6685091Y-4524500D01*
X6685089Y-4524500D01*
X6620585Y-4551219D01*
X6571219Y-4600585D01*
X6544500Y-4665089D01*
X-6270674Y-4665089D01*
X-6243956Y-4600586D01*
X-6239500Y-4589829D01*
X-6239500Y-4490170D01*
X-6252405Y-4459017D01*
X-6258173Y-4445091D01*
X-2115500Y-4445091D01*
X-2115500Y-4514909D01*
X-2088782Y-4579413D01*
X-2088780Y-4579415D01*
X-2088780Y-4579416D01*
X-2054098Y-4614097D01*
X-2039413Y-4628782D01*
X-1974909Y-4655500D01*
X-1974907Y-4655500D01*
X-1905093Y-4655500D01*
X-1905091Y-4655500D01*
X-1840587Y-4628782D01*
X-1840585Y-4628780D01*
X-1840584Y-4628780D01*
X-1791220Y-4579416D01*
X-1791219Y-4579414D01*
X-1791218Y-4579413D01*
X-1775567Y-4541628D01*
X-1764500Y-4514910D01*
X-1764500Y-4445089D01*
X-1791219Y-4380585D01*
X-1840585Y-4331219D01*
X-1849233Y-4327637D01*
X-1851653Y-4326634D01*
X-1905089Y-4304500D01*
X-1905091Y-4304500D01*
X-1974909Y-4304500D01*
X-1974910Y-4304500D01*
X-1985247Y-4308782D01*
X-2039413Y-4331218D01*
X-2039414Y-4331219D01*
X-2039416Y-4331220D01*
X-2088780Y-4380584D01*
X-2088780Y-4380585D01*
X-2088782Y-4380587D01*
X-2115500Y-4445091D01*
X-6258173Y-4445091D01*
X-6277058Y-4399500D01*
X-6277636Y-4398103D01*
X-6277636Y-4398102D01*
X-6277637Y-4398101D01*
X-6348101Y-4327637D01*
X-6440170Y-4289500D01*
X-6440172Y-4289500D01*
X-6539828Y-4289500D01*
X-6539829Y-4289500D01*
X-6576041Y-4304500D01*
X-6631897Y-4327636D01*
X-6631898Y-4327637D01*
X-6631900Y-4327638D01*
X-6702362Y-4398100D01*
X-6702362Y-4398101D01*
X-6702364Y-4398103D01*
X-6740500Y-4490172D01*
X-10646988Y-4490172D01*
X-11146988Y-3990172D01*
X-2600500Y-3990172D01*
X-2600500Y-4089828D01*
X-2562364Y-4181897D01*
X-2562362Y-4181899D01*
X-2562362Y-4181900D01*
X-2491899Y-4252362D01*
X-2491897Y-4252364D01*
X-2399828Y-4290500D01*
X-2399826Y-4290500D01*
X-2300174Y-4290500D01*
X-2300172Y-4290500D01*
X-2208103Y-4252364D01*
X-2208101Y-4252362D01*
X-2208100Y-4252362D01*
X-2137638Y-4181900D01*
X-2137637Y-4181898D01*
X-2137636Y-4181897D01*
X-2099500Y-4089828D01*
X-2099500Y-3990172D01*
X-2099500Y-3990170D01*
X-2137637Y-3898101D01*
X-2208101Y-3827637D01*
X-2300170Y-3789500D01*
X-2300172Y-3789500D01*
X-2399828Y-3789500D01*
X-2399829Y-3789500D01*
X-2437965Y-3805296D01*
X-2491897Y-3827636D01*
X-2491898Y-3827637D01*
X-2491900Y-3827638D01*
X-2562362Y-3898100D01*
X-2562362Y-3898101D01*
X-2562364Y-3898103D01*
X-2600500Y-3990172D01*
X-11146988Y-3990172D01*
X-11626990Y-3510170D01*
X619500Y-3510170D01*
X619500Y-3510172D01*
X619500Y-3609828D01*
X657636Y-3701897D01*
X657637Y-3701898D01*
X657638Y-3701900D01*
X728100Y-3772362D01*
X728101Y-3772362D01*
X728103Y-3772364D01*
X820172Y-3810500D01*
X820174Y-3810500D01*
X919826Y-3810500D01*
X919828Y-3810500D01*
X1011897Y-3772364D01*
X1011899Y-3772362D01*
X1011900Y-3772362D01*
X1082362Y-3701900D01*
X1082362Y-3701899D01*
X1082364Y-3701897D01*
X1120500Y-3609828D01*
X1120500Y-3510172D01*
X1082364Y-3418103D01*
X1082362Y-3418101D01*
X1082362Y-3418100D01*
X1011900Y-3347638D01*
X1011898Y-3347637D01*
X1011897Y-3347636D01*
X957965Y-3325296D01*
X919829Y-3309500D01*
X919828Y-3309500D01*
X820172Y-3309500D01*
X820170Y-3309500D01*
X728101Y-3347637D01*
X657637Y-3418101D01*
X619500Y-3510170D01*
X-11626990Y-3510170D01*
X-12156990Y-2980170D01*
X4989500Y-2980170D01*
X4989500Y-2980172D01*
X4989500Y-3079828D01*
X5027636Y-3171897D01*
X5027637Y-3171898D01*
X5027638Y-3171900D01*
X5098100Y-3242362D01*
X5098101Y-3242362D01*
X5098103Y-3242364D01*
X5190172Y-3280500D01*
X5190174Y-3280500D01*
X5289826Y-3280500D01*
X5289828Y-3280500D01*
X5381897Y-3242364D01*
X5381899Y-3242362D01*
X5381900Y-3242362D01*
X5452362Y-3171900D01*
X5452362Y-3171899D01*
X5452364Y-3171897D01*
X5490500Y-3079828D01*
X5490500Y-2980172D01*
X5490498Y-2980167D01*
X5475558Y-2944097D01*
X5469789Y-2930170D01*
X13109500Y-2930170D01*
X13109500Y-2930172D01*
X13109500Y-3029828D01*
X13147636Y-3121897D01*
X13147637Y-3121898D01*
X13147638Y-3121900D01*
X13218100Y-3192362D01*
X13218101Y-3192362D01*
X13218103Y-3192364D01*
X13310172Y-3230500D01*
X13310174Y-3230500D01*
X13409826Y-3230500D01*
X13409828Y-3230500D01*
X13501897Y-3192364D01*
X13501899Y-3192362D01*
X13501900Y-3192362D01*
X13572362Y-3121900D01*
X13572362Y-3121899D01*
X13572364Y-3121897D01*
X13610500Y-3029828D01*
X13610500Y-2930172D01*
X13572364Y-2838103D01*
X13572362Y-2838101D01*
X13572362Y-2838100D01*
X13501900Y-2767638D01*
X13501898Y-2767637D01*
X13501897Y-2767636D01*
X13447965Y-2745296D01*
X13409829Y-2729500D01*
X13409828Y-2729500D01*
X13310172Y-2729500D01*
X13310170Y-2729500D01*
X13218101Y-2767637D01*
X13147637Y-2838101D01*
X13109500Y-2930170D01*
X5469789Y-2930170D01*
X5465783Y-2920499D01*
X5452364Y-2888103D01*
X5452362Y-2888101D01*
X5452362Y-2888100D01*
X5381900Y-2817638D01*
X5381898Y-2817637D01*
X5381897Y-2817636D01*
X5327965Y-2795296D01*
X5289829Y-2779500D01*
X5289828Y-2779500D01*
X5190172Y-2779500D01*
X5190170Y-2779500D01*
X5098101Y-2817637D01*
X5027637Y-2888101D01*
X4989500Y-2980170D01*
X-12156990Y-2980170D01*
X-12516988Y-2620172D01*
X-4550500Y-2620172D01*
X-4550500Y-2719828D01*
X-4512364Y-2811897D01*
X-4512362Y-2811899D01*
X-4512362Y-2811900D01*
X-4441899Y-2882362D01*
X-4441897Y-2882364D01*
X-4349828Y-2920500D01*
X-4349826Y-2920500D01*
X-4250174Y-2920500D01*
X-4250172Y-2920500D01*
X-4158103Y-2882364D01*
X-4158101Y-2882362D01*
X-4158100Y-2882362D01*
X-4087638Y-2811900D01*
X-4087637Y-2811898D01*
X-4087636Y-2811897D01*
X-4049500Y-2719828D01*
X-4049500Y-2620172D01*
X-4049500Y-2620170D01*
X-4087637Y-2528101D01*
X-4158101Y-2457637D01*
X-4164685Y-2454910D01*
X-4235602Y-2425535D01*
X-4235602Y-2425534D01*
X-4250168Y-2419501D01*
X-4250170Y-2419500D01*
X-4250172Y-2419500D01*
X-4349828Y-2419500D01*
X-4349829Y-2419500D01*
X-4364398Y-2425535D01*
X-4441897Y-2457636D01*
X-4441898Y-2457637D01*
X-4441900Y-2457638D01*
X-4512362Y-2528100D01*
X-4512362Y-2528101D01*
X-4512364Y-2528103D01*
X-4550500Y-2620172D01*
X-12516988Y-2620172D01*
X-12952069Y-2185091D01*
X-12085500Y-2185091D01*
X-12085500Y-2254909D01*
X-12058782Y-2319413D01*
X-12058780Y-2319415D01*
X-12058780Y-2319416D01*
X-12028782Y-2349413D01*
X-12009413Y-2368782D01*
X-11944909Y-2395500D01*
X-11944907Y-2395500D01*
X-11875093Y-2395500D01*
X-11875091Y-2395500D01*
X-11810587Y-2368782D01*
X-11810585Y-2368780D01*
X-11810584Y-2368780D01*
X-11761220Y-2319416D01*
X-11761219Y-2319414D01*
X-11761218Y-2319413D01*
X-11734500Y-2254909D01*
X-11734500Y-2215091D01*
X-10365500Y-2215091D01*
X-10365500Y-2284909D01*
X-10338782Y-2349413D01*
X-10338780Y-2349415D01*
X-10338780Y-2349416D01*
X-10303106Y-2385089D01*
X-10289413Y-2398782D01*
X-10224909Y-2425500D01*
X-10224907Y-2425500D01*
X-10155093Y-2425500D01*
X-10155091Y-2425500D01*
X-10090587Y-2398782D01*
X-10090585Y-2398780D01*
X-10090584Y-2398780D01*
X-10076893Y-2385089D01*
X1684500Y-2385089D01*
X1684500Y-2454910D01*
X1685630Y-2457637D01*
X1711218Y-2519413D01*
X1711219Y-2519414D01*
X1711220Y-2519416D01*
X1760584Y-2568780D01*
X1760585Y-2568780D01*
X1760587Y-2568782D01*
X1825091Y-2595500D01*
X1825093Y-2595500D01*
X1894907Y-2595500D01*
X1894909Y-2595500D01*
X1959413Y-2568782D01*
X1959415Y-2568780D01*
X1959416Y-2568780D01*
X2008780Y-2519416D01*
X2008780Y-2519415D01*
X2008782Y-2519413D01*
X2035500Y-2454909D01*
X2035500Y-2385091D01*
X2008782Y-2320587D01*
X2008780Y-2320585D01*
X2008780Y-2320584D01*
X1959416Y-2271220D01*
X1959414Y-2271219D01*
X1959413Y-2271218D01*
X1918866Y-2254423D01*
X1894910Y-2244500D01*
X1894909Y-2244500D01*
X1825091Y-2244500D01*
X1825089Y-2244500D01*
X1760585Y-2271219D01*
X1711219Y-2320585D01*
X1684500Y-2385089D01*
X-10076893Y-2385089D01*
X-10041220Y-2349416D01*
X-10041219Y-2349414D01*
X-10041218Y-2349413D01*
X-10022712Y-2304736D01*
X-10014500Y-2284910D01*
X-10014500Y-2215089D01*
X-10039352Y-2155093D01*
X-10041218Y-2150587D01*
X-10041218Y-2150586D01*
X-10041219Y-2150585D01*
X-10090585Y-2101219D01*
X-10155089Y-2074500D01*
X-10155091Y-2074500D01*
X-10224909Y-2074500D01*
X-10224910Y-2074500D01*
X-10251628Y-2085567D01*
X-10289413Y-2101218D01*
X-10289414Y-2101219D01*
X-10289416Y-2101220D01*
X-10338780Y-2150584D01*
X-10338780Y-2150585D01*
X-10338782Y-2150587D01*
X-10365500Y-2215091D01*
X-11734500Y-2215091D01*
X-11734500Y-2185091D01*
X-11734500Y-2185089D01*
X-11761219Y-2120585D01*
X-11810585Y-2071219D01*
X-11875089Y-2044500D01*
X-11875091Y-2044500D01*
X-11944909Y-2044500D01*
X-11944910Y-2044500D01*
X-11971628Y-2055567D01*
X-12009413Y-2071218D01*
X-12009414Y-2071219D01*
X-12009416Y-2071220D01*
X-12058780Y-2120584D01*
X-12058780Y-2120585D01*
X-12058782Y-2120587D01*
X-12085500Y-2185091D01*
X-12952069Y-2185091D01*
X-13245148Y-1892012D01*
X-13259500Y-1857364D01*
X-13259500Y-1850172D01*
X-11630500Y-1850172D01*
X-11630500Y-1949828D01*
X-11592364Y-2041897D01*
X-11592362Y-2041899D01*
X-11592362Y-2041900D01*
X-11543677Y-2090584D01*
X-11521897Y-2112364D01*
X-11429828Y-2150500D01*
X-11429826Y-2150500D01*
X-11330174Y-2150500D01*
X-11330172Y-2150500D01*
X-11238103Y-2112364D01*
X-11238101Y-2112362D01*
X-11238100Y-2112362D01*
X-11167638Y-2041900D01*
X-11167637Y-2041898D01*
X-11167636Y-2041897D01*
X-11129500Y-1949828D01*
X-11129500Y-1913672D01*
X-9514000Y-1913672D01*
X-9514000Y-2013328D01*
X-9475864Y-2105397D01*
X-9475862Y-2105399D01*
X-9475862Y-2105400D01*
X-9436761Y-2144500D01*
X-9405397Y-2175864D01*
X-9313328Y-2214000D01*
X-9313326Y-2214000D01*
X-9213674Y-2214000D01*
X-9213672Y-2214000D01*
X-9121603Y-2175864D01*
X-9121601Y-2175862D01*
X-9121600Y-2175862D01*
X-9051138Y-2105400D01*
X-9051137Y-2105398D01*
X-9051136Y-2105397D01*
X-9024834Y-2041898D01*
X-9013000Y-2013329D01*
X-9013000Y-1913670D01*
X-9051137Y-1821601D01*
X-9121601Y-1751137D01*
X-9213670Y-1713000D01*
X-9213672Y-1713000D01*
X-9313328Y-1713000D01*
X-9313329Y-1713000D01*
X-9351465Y-1728796D01*
X-9405397Y-1751136D01*
X-9405398Y-1751137D01*
X-9405400Y-1751138D01*
X-9475862Y-1821600D01*
X-9475862Y-1821601D01*
X-9475864Y-1821603D01*
X-9514000Y-1913672D01*
X-11129500Y-1913672D01*
X-11129500Y-1850172D01*
X-11129500Y-1850170D01*
X-11167637Y-1758101D01*
X-11238101Y-1687637D01*
X-11267318Y-1675535D01*
X-11330170Y-1649500D01*
X-11330172Y-1649500D01*
X-11429828Y-1649500D01*
X-11429829Y-1649500D01*
X-11467965Y-1665296D01*
X-11521897Y-1687636D01*
X-11521898Y-1687637D01*
X-11521900Y-1687638D01*
X-11592362Y-1758100D01*
X-11592362Y-1758101D01*
X-11592364Y-1758103D01*
X-11630500Y-1850172D01*
X-13259500Y-1850172D01*
X-13259500Y-1635091D01*
X-7065500Y-1635091D01*
X-7065500Y-1704909D01*
X-7038782Y-1769413D01*
X-7038780Y-1769415D01*
X-7038780Y-1769416D01*
X-6989415Y-1818780D01*
X-6989413Y-1818782D01*
X-6924909Y-1845500D01*
X-6924907Y-1845500D01*
X-6855093Y-1845500D01*
X-6855091Y-1845500D01*
X-6790587Y-1818782D01*
X-6790585Y-1818780D01*
X-6790584Y-1818780D01*
X-6741220Y-1769416D01*
X-6741219Y-1769414D01*
X-6741218Y-1769413D01*
X-6714500Y-1704909D01*
X-6714500Y-1635091D01*
X-6714500Y-1635089D01*
X-6741219Y-1570585D01*
X-6790585Y-1521219D01*
X-6855089Y-1494500D01*
X-6855091Y-1494500D01*
X-6924909Y-1494500D01*
X-6924910Y-1494500D01*
X-6951628Y-1505567D01*
X-6989413Y-1521218D01*
X-6989414Y-1521219D01*
X-6989416Y-1521220D01*
X-7038780Y-1570584D01*
X-7038780Y-1570585D01*
X-7038782Y-1570587D01*
X-7065500Y-1635091D01*
X-13259500Y-1635091D01*
X-13259500Y-1390172D01*
X-1270500Y-1390172D01*
X-1270500Y-1489828D01*
X-1232364Y-1581897D01*
X-1232362Y-1581899D01*
X-1232362Y-1581900D01*
X-1181899Y-1632362D01*
X-1161897Y-1652364D01*
X-1069828Y-1690500D01*
X-1069826Y-1690500D01*
X-970174Y-1690500D01*
X-970172Y-1690500D01*
X-878103Y-1652364D01*
X-878101Y-1652362D01*
X-878100Y-1652362D01*
X-807638Y-1581900D01*
X-807637Y-1581898D01*
X-807636Y-1581897D01*
X-782503Y-1521220D01*
X-769500Y-1489829D01*
X-769500Y-1395089D01*
X4874500Y-1395089D01*
X4874500Y-1395091D01*
X4874500Y-1464909D01*
X4901218Y-1529413D01*
X4901219Y-1529414D01*
X4901220Y-1529416D01*
X4950584Y-1578780D01*
X4950585Y-1578780D01*
X4950587Y-1578782D01*
X5015091Y-1605500D01*
X5015093Y-1605500D01*
X5084907Y-1605500D01*
X5084909Y-1605500D01*
X5149413Y-1578782D01*
X5149415Y-1578780D01*
X5149416Y-1578780D01*
X5198780Y-1529416D01*
X5198780Y-1529415D01*
X5198782Y-1529413D01*
X5225500Y-1464909D01*
X5225500Y-1395091D01*
X5220946Y-1384096D01*
X5220946Y-1384095D01*
X5215178Y-1370170D01*
X7899500Y-1370170D01*
X7899500Y-1469829D01*
X7909719Y-1494500D01*
X7937636Y-1561897D01*
X7937637Y-1561898D01*
X7937638Y-1561900D01*
X8008100Y-1632362D01*
X8008101Y-1632362D01*
X8008103Y-1632364D01*
X8100172Y-1670500D01*
X8100174Y-1670500D01*
X8199826Y-1670500D01*
X8199828Y-1670500D01*
X8291897Y-1632364D01*
X8291899Y-1632362D01*
X8291900Y-1632362D01*
X8362362Y-1561900D01*
X8362362Y-1561899D01*
X8362364Y-1561897D01*
X8400500Y-1469828D01*
X8400500Y-1370172D01*
X8362364Y-1278103D01*
X8362362Y-1278101D01*
X8362362Y-1278100D01*
X8291900Y-1207638D01*
X8291898Y-1207637D01*
X8291897Y-1207636D01*
X8237022Y-1184906D01*
X8199829Y-1169500D01*
X8199828Y-1169500D01*
X8100172Y-1169500D01*
X8100170Y-1169500D01*
X8008101Y-1207637D01*
X7937637Y-1278101D01*
X7899500Y-1370170D01*
X5215178Y-1370170D01*
X5213285Y-1365601D01*
X5198782Y-1330587D01*
X5198780Y-1330585D01*
X5198780Y-1330584D01*
X5149416Y-1281220D01*
X5149414Y-1281219D01*
X5149413Y-1281218D01*
X5111628Y-1265567D01*
X5084910Y-1254500D01*
X5084909Y-1254500D01*
X5015091Y-1254500D01*
X5015089Y-1254500D01*
X4961653Y-1276634D01*
X4958108Y-1278103D01*
X4950585Y-1281219D01*
X4901219Y-1330585D01*
X4874500Y-1395089D01*
X-769500Y-1395089D01*
X-769500Y-1390170D01*
X-807637Y-1298101D01*
X-878101Y-1227637D01*
X-970170Y-1189500D01*
X-970172Y-1189500D01*
X-1069828Y-1189500D01*
X-1069829Y-1189500D01*
X-1105554Y-1204298D01*
X-1161897Y-1227636D01*
X-1161898Y-1227637D01*
X-1161900Y-1227638D01*
X-1232362Y-1298100D01*
X-1232362Y-1298101D01*
X-1232364Y-1298103D01*
X-1270500Y-1390172D01*
X-13259500Y-1390172D01*
X-13259500Y-570170D01*
X1559500Y-570170D01*
X1559500Y-669829D01*
X1562735Y-677638D01*
X1597636Y-761897D01*
X1597637Y-761898D01*
X1597638Y-761900D01*
X1668100Y-832362D01*
X1668101Y-832362D01*
X1668103Y-832364D01*
X1760172Y-870500D01*
X1760174Y-870500D01*
X1859826Y-870500D01*
X1859828Y-870500D01*
X1933052Y-840170D01*
X14389500Y-840170D01*
X14389500Y-939829D01*
X14405296Y-977965D01*
X14427636Y-1031897D01*
X14427637Y-1031898D01*
X14427638Y-1031900D01*
X14498100Y-1102362D01*
X14498101Y-1102362D01*
X14498103Y-1102364D01*
X14590172Y-1140500D01*
X14590174Y-1140500D01*
X14689826Y-1140500D01*
X14689828Y-1140500D01*
X14781897Y-1102364D01*
X14781899Y-1102362D01*
X14781900Y-1102362D01*
X14852362Y-1031900D01*
X14852362Y-1031899D01*
X14852364Y-1031897D01*
X14890500Y-939828D01*
X14890500Y-840172D01*
X14852364Y-748103D01*
X14852362Y-748101D01*
X14852362Y-748100D01*
X14781900Y-677638D01*
X14781898Y-677637D01*
X14781897Y-677636D01*
X14727965Y-655296D01*
X14689829Y-639500D01*
X14689828Y-639500D01*
X14590172Y-639500D01*
X14590170Y-639500D01*
X14498101Y-677637D01*
X14427637Y-748101D01*
X14389500Y-840170D01*
X1933052Y-840170D01*
X1951897Y-832364D01*
X1951899Y-832362D01*
X1951900Y-832362D01*
X2022362Y-761900D01*
X2022362Y-761899D01*
X2022364Y-761897D01*
X2060500Y-669828D01*
X2060500Y-570172D01*
X2022364Y-478103D01*
X2022362Y-478101D01*
X2022362Y-478100D01*
X1951900Y-407638D01*
X1951898Y-407637D01*
X1951897Y-407636D01*
X1897965Y-385296D01*
X1859829Y-369500D01*
X1859828Y-369500D01*
X1760172Y-369500D01*
X1760170Y-369500D01*
X1668101Y-407637D01*
X1597637Y-478101D01*
X1559500Y-570170D01*
X-13259500Y-570170D01*
X-13259500Y-205089D01*
X4804500Y-205089D01*
X4804500Y-274910D01*
X4815567Y-301628D01*
X4831218Y-339413D01*
X4831219Y-339414D01*
X4831220Y-339416D01*
X4880584Y-388780D01*
X4880585Y-388780D01*
X4880587Y-388782D01*
X4945091Y-415500D01*
X4945093Y-415500D01*
X5014907Y-415500D01*
X5014909Y-415500D01*
X5079413Y-388782D01*
X5079415Y-388780D01*
X5079416Y-388780D01*
X5128780Y-339416D01*
X5128780Y-339415D01*
X5128782Y-339413D01*
X5130139Y-336138D01*
X9919500Y-336138D01*
X9919500Y-336140D01*
X9919500Y-423860D01*
X9953069Y-504903D01*
X9953070Y-504904D01*
X9953071Y-504906D01*
X10015094Y-566929D01*
X10015095Y-566929D01*
X10015097Y-566931D01*
X10096140Y-600500D01*
X10096142Y-600500D01*
X10183858Y-600500D01*
X10183860Y-600500D01*
X10264903Y-566931D01*
X10264905Y-566929D01*
X10264906Y-566929D01*
X10326929Y-504906D01*
X10326929Y-504905D01*
X10326931Y-504903D01*
X10360500Y-423860D01*
X10360500Y-336140D01*
X10326931Y-255097D01*
X10326929Y-255095D01*
X10326929Y-255094D01*
X10264906Y-193071D01*
X10264904Y-193070D01*
X10264903Y-193069D01*
X10217430Y-173405D01*
X10183861Y-159500D01*
X10183860Y-159500D01*
X10096140Y-159500D01*
X10096138Y-159500D01*
X10015095Y-193070D01*
X9953070Y-255095D01*
X9919500Y-336138D01*
X5130139Y-336138D01*
X5155500Y-274909D01*
X5155500Y-205091D01*
X5128782Y-140587D01*
X5128780Y-140585D01*
X5128780Y-140584D01*
X5079416Y-91220D01*
X5079414Y-91219D01*
X5079413Y-91218D01*
X5028342Y-70064D01*
X5014910Y-64500D01*
X5014909Y-64500D01*
X4945091Y-64500D01*
X4945089Y-64500D01*
X4880585Y-91219D01*
X4831219Y-140585D01*
X4804500Y-205089D01*
X-13259500Y-205089D01*
X-13259500Y-182635D01*
X-13245148Y-147987D01*
X-13102414Y-5254D01*
X-13102414Y-5253D01*
X-13102413Y-5252D01*
X-13093520Y16218D01*
X-13088018Y29500D01*
X-13079500Y50062D01*
X-13079500Y159937D01*
X-13099390Y207954D01*
X-13102413Y215251D01*
X-13102413Y215252D01*
X-13126424Y239263D01*
X-13127588Y240611D01*
X-13132959Y256846D01*
X-13139500Y272635D01*
X-13139500Y283860D01*
X-12910500Y283860D01*
X-12910500Y196140D01*
X-12876931Y115097D01*
X-12876929Y115095D01*
X-12876929Y115094D01*
X-12814906Y53071D01*
X-12814904Y53070D01*
X-12814903Y53069D01*
X-12767430Y33405D01*
X-12733861Y19500D01*
X-12733860Y19500D01*
X-12646138Y19500D01*
X-12579000Y47310D01*
X-12565097Y53069D01*
X-12565096Y53069D01*
X-12565095Y53070D01*
X-12503070Y115095D01*
X-12469500Y196138D01*
X-12469500Y199910D01*
X3819500Y199910D01*
X3819500Y130089D01*
X3835545Y91354D01*
X3845368Y67638D01*
X3846219Y65585D01*
X3895585Y16219D01*
X3895586Y16218D01*
X3895587Y16218D01*
X3960091Y-10500D01*
X3960093Y-10500D01*
X4029907Y-10500D01*
X4029909Y-10500D01*
X4094413Y16218D01*
X4094414Y16219D01*
X4094416Y16220D01*
X4143780Y65584D01*
X4143780Y65585D01*
X4143782Y65587D01*
X4170500Y130091D01*
X4170500Y199909D01*
X4143782Y264413D01*
X4143780Y264415D01*
X4143780Y264416D01*
X4094415Y313780D01*
X4094413Y313782D01*
X4029909Y340500D01*
X3960091Y340500D01*
X3895587Y313782D01*
X3895585Y313780D01*
X3895584Y313780D01*
X3846220Y264416D01*
X3846219Y264414D01*
X3846218Y264413D01*
X3836359Y240611D01*
X3819500Y199910D01*
X-12469500Y199910D01*
X-12469500Y283861D01*
X-12494786Y344906D01*
X-12503069Y364903D01*
X-12503070Y364904D01*
X-12503071Y364906D01*
X-12565094Y426929D01*
X-12565095Y426929D01*
X-12565097Y426931D01*
X-12646140Y460500D01*
X-12733860Y460500D01*
X-12814903Y426931D01*
X-12814905Y426929D01*
X-12814906Y426929D01*
X-12876929Y364906D01*
X-12876929Y364905D01*
X-12876931Y364903D01*
X-12910500Y283860D01*
X-13139500Y283860D01*
X-13139500Y349829D01*
X-13168593Y420064D01*
X-13177636Y441897D01*
X-13177637Y441898D01*
X-13177638Y441900D01*
X-13248100Y512362D01*
X-13248101Y512362D01*
X-13248103Y512364D01*
X-13340172Y550500D01*
X-13439828Y550500D01*
X-13531897Y512364D01*
X-13531899Y512362D01*
X-13531900Y512362D01*
X-13602362Y441900D01*
X-13602362Y441899D01*
X-13602364Y441897D01*
X-13640500Y349828D01*
X-13640500Y250172D01*
X-13602364Y158103D01*
X-13602362Y158101D01*
X-13602362Y158100D01*
X-13531900Y87638D01*
X-13531897Y87636D01*
X-13531269Y87376D01*
X-13530788Y86895D01*
X-13527887Y84957D01*
X-13528273Y84379D01*
X-13504754Y60853D01*
X-13504759Y23350D01*
X-13509056Y15231D01*
X-13511815Y11023D01*
X-13537588Y-14748D01*
X-13551009Y-47151D01*
X-13560500Y-70064D01*
X-13560500Y-1969936D01*
X-13560498Y-1969940D01*
X-13560492Y-1969972D01*
X-13560500Y-1970012D01*
X-13560500Y-1974762D01*
X-13561444Y-1974762D01*
X-13567803Y-2006755D01*
X-13589798Y-2024809D01*
X-13629413Y-2041218D01*
X-13629416Y-2041220D01*
X-13678780Y-2090584D01*
X-13678780Y-2090585D01*
X-13678782Y-2090587D01*
X-13705500Y-2155091D01*
X-14989521Y-2155091D01*
X-15015089Y-2144500D01*
X-15015091Y-2144500D01*
X-15084909Y-2144500D01*
X-15084910Y-2144500D01*
X-15099600Y-2150585D01*
X-15149413Y-2171218D01*
X-15149414Y-2171219D01*
X-15149416Y-2171220D01*
X-15198780Y-2220584D01*
X-15198780Y-2220585D01*
X-15198782Y-2220587D01*
X-15225500Y-2285091D01*
X-16336795Y-2285091D01*
X-16355219Y-2174467D01*
X-16355645Y-2171263D01*
X-16460608Y-1115111D01*
X-16460608Y-1115110D01*
X-16460610Y-1115091D01*
X-15255500Y-1115091D01*
X-15255500Y-1184909D01*
X-15228782Y-1249413D01*
X-15228780Y-1249415D01*
X-15228780Y-1249416D01*
X-15200095Y-1278100D01*
X-15179413Y-1298782D01*
X-15114909Y-1325500D01*
X-15114907Y-1325500D01*
X-15045093Y-1325500D01*
X-15045091Y-1325500D01*
X-14980587Y-1298782D01*
X-14980585Y-1298780D01*
X-14980584Y-1298780D01*
X-14931220Y-1249416D01*
X-14931219Y-1249414D01*
X-14931218Y-1249413D01*
X-14915567Y-1211628D01*
X-14904500Y-1184910D01*
X-14904500Y-1115089D01*
X-14931219Y-1050585D01*
X-14980585Y-1001219D01*
X-15045089Y-974500D01*
X-15045091Y-974500D01*
X-15114909Y-974500D01*
X-15114910Y-974500D01*
X-15141628Y-985567D01*
X-15179413Y-1001218D01*
X-15179414Y-1001219D01*
X-15179416Y-1001220D01*
X-15228780Y-1050584D01*
X-15228780Y-1050585D01*
X-15228782Y-1050587D01*
X-15255500Y-1115091D01*
X-16460610Y-1115091D01*
X-16463059Y-1090443D01*
X-16463272Y-1087218D01*
X-16499172Y-1620D01*
X-16499172Y1619D01*
X-16496418Y84909D01*
X-15045500Y84909D01*
X-15045500Y15091D01*
X-15018782Y-49413D01*
X-15018780Y-49415D01*
X-15018780Y-49416D01*
X-14976977Y-91218D01*
X-14969413Y-98782D01*
X-14904909Y-125500D01*
X-14904907Y-125500D01*
X-14835093Y-125500D01*
X-14835091Y-125500D01*
X-14770587Y-98782D01*
X-14770585Y-98780D01*
X-14770584Y-98780D01*
X-14721220Y-49416D01*
X-14721219Y-49414D01*
X-14721218Y-49413D01*
X-14710151Y-22695D01*
X-14694500Y15089D01*
X-14694500Y84910D01*
X-14714176Y132412D01*
X-14721218Y149413D01*
X-14721219Y149414D01*
X-14721220Y149416D01*
X-14770584Y198780D01*
X-14770585Y198780D01*
X-14770587Y198782D01*
X-14835091Y225500D01*
X-14904909Y225500D01*
X-14969413Y198782D01*
X-14969415Y198780D01*
X-14969416Y198780D01*
X-15018780Y149416D01*
X-15018780Y149415D01*
X-15018782Y149413D01*
X-15045500Y84909D01*
X-16496418Y84909D01*
X-16496205Y91354D01*
X-16496205Y91355D01*
X-16474957Y733861D01*
X5169500Y733861D01*
X5169500Y646138D01*
X5195802Y582641D01*
X5197895Y577587D01*
X5203070Y565095D01*
X5265094Y503071D01*
X5265098Y503068D01*
X5280031Y496882D01*
X5306549Y470363D01*
X5306547Y432860D01*
X5280031Y406344D01*
X5246400Y392413D01*
X5234747Y387586D01*
X5192413Y345252D01*
X5169500Y289937D01*
X5169500Y230062D01*
X5192413Y174747D01*
X5234748Y132412D01*
X5274515Y115939D01*
X5301033Y89420D01*
X5301032Y51918D01*
X5279500Y-62D01*
X5279500Y-59937D01*
X5302413Y-115252D01*
X5344747Y-157586D01*
X5344748Y-157586D01*
X5344749Y-157587D01*
X5400064Y-180500D01*
X5400066Y-180500D01*
X5459934Y-180500D01*
X5459936Y-180500D01*
X5515251Y-157587D01*
X5557587Y-115251D01*
X5580500Y-59936D01*
X5580500Y-64D01*
X5557587Y55251D01*
X5515251Y97587D01*
X5475482Y114060D01*
X5448966Y140579D01*
X5448966Y169937D01*
X6839500Y169937D01*
X6839500Y110062D01*
X6862413Y54747D01*
X6904747Y12413D01*
X6947397Y-5253D01*
X6960064Y-10500D01*
X6960066Y-10500D01*
X7019934Y-10500D01*
X7019936Y-10500D01*
X7052339Y2922D01*
X7075252Y12413D01*
X7117586Y54747D01*
X7122076Y65585D01*
X7140500Y110064D01*
X7140500Y169936D01*
X7117587Y225251D01*
X7075251Y267587D01*
X7019936Y290500D01*
X6960064Y290500D01*
X6922870Y275093D01*
X6904747Y267586D01*
X6862413Y225252D01*
X6839500Y169937D01*
X5448966Y169937D01*
X5448966Y178080D01*
X5470500Y230064D01*
X5470500Y289936D01*
X5447587Y345251D01*
X5406496Y386341D01*
X5392145Y420988D01*
X5406496Y455637D01*
X5431585Y469047D01*
X5433857Y469499D01*
X5433859Y469500D01*
X5433860Y469500D01*
X5514903Y503069D01*
X5514904Y503070D01*
X5514906Y503071D01*
X5561772Y549937D01*
X5849500Y549937D01*
X5849500Y490062D01*
X5872413Y434747D01*
X5914747Y392413D01*
X5970062Y369500D01*
X5970064Y369500D01*
X6029937Y369500D01*
X6033434Y370949D01*
X6070937Y370949D01*
X6086834Y360327D01*
X6124747Y322413D01*
X6180062Y299500D01*
X6180064Y299500D01*
X6239937Y299500D01*
X6295252Y322413D01*
X6302668Y329829D01*
X10839500Y329829D01*
X10839500Y230170D01*
X10869352Y158103D01*
X10876610Y140579D01*
X10877637Y138101D01*
X10948101Y67637D01*
X11040170Y29500D01*
X11040172Y29500D01*
X11139829Y29500D01*
X11177965Y45296D01*
X11231897Y67636D01*
X11231898Y67637D01*
X11231900Y67638D01*
X11302362Y138100D01*
X11302362Y138101D01*
X11302364Y138103D01*
X11338462Y225252D01*
X11341533Y232665D01*
X11368052Y259183D01*
X11405555Y259183D01*
X11432073Y232665D01*
X11441218Y210585D01*
X11441220Y210584D01*
X11490585Y161219D01*
X11490586Y161218D01*
X11490587Y161218D01*
X11498112Y158101D01*
X11555089Y134500D01*
X11555091Y134500D01*
X11624910Y134500D01*
X11651628Y145567D01*
X11689413Y161218D01*
X11689414Y161219D01*
X11689416Y161220D01*
X11738780Y210584D01*
X11738780Y210585D01*
X11738782Y210587D01*
X11765500Y275091D01*
X11765500Y344909D01*
X11738782Y409413D01*
X11738780Y409415D01*
X11738780Y409416D01*
X11689415Y458780D01*
X11689413Y458782D01*
X11624909Y485500D01*
X11555091Y485500D01*
X11490587Y458782D01*
X11490585Y458780D01*
X11490584Y458780D01*
X11441220Y409416D01*
X11441219Y409414D01*
X11441218Y409413D01*
X11432178Y387587D01*
X11419646Y357334D01*
X11393127Y330816D01*
X11355624Y330816D01*
X11329106Y357335D01*
X11326035Y364749D01*
X11302364Y421897D01*
X11302362Y421898D01*
X11302362Y421900D01*
X11231899Y492362D01*
X11231897Y492364D01*
X11139828Y530500D01*
X11040172Y530500D01*
X10948103Y492364D01*
X10948101Y492362D01*
X10948100Y492362D01*
X10877638Y421900D01*
X10877637Y421898D01*
X10877636Y421897D01*
X10863424Y387586D01*
X10839500Y329829D01*
X6302668Y329829D01*
X6337586Y364747D01*
X6346531Y386340D01*
X6360500Y420064D01*
X6360500Y479936D01*
X6337587Y535251D01*
X6295251Y577587D01*
X6239936Y600500D01*
X6180064Y600500D01*
X6180062Y600499D01*
X6180061Y600499D01*
X6176565Y599051D01*
X6168550Y599051D01*
X6161390Y595452D01*
X6151716Y599051D01*
X6139062Y599051D01*
X6125787Y607236D01*
X6124431Y608406D01*
X6085251Y647587D01*
X6029936Y670500D01*
X5970064Y670500D01*
X5970062Y670499D01*
X5914747Y647586D01*
X5872413Y605252D01*
X5849500Y549937D01*
X5561772Y549937D01*
X5576929Y565094D01*
X5576930Y565096D01*
X5576931Y565097D01*
X5610500Y646140D01*
X5610500Y689937D01*
X8079500Y689937D01*
X8079500Y630062D01*
X8102413Y574747D01*
X8144747Y532413D01*
X8200062Y509500D01*
X8200064Y509500D01*
X8259937Y509500D01*
X8315252Y532413D01*
X8357586Y574747D01*
X8358763Y577587D01*
X8380500Y630064D01*
X8380500Y689936D01*
X8357587Y745251D01*
X8315251Y787587D01*
X8259936Y810500D01*
X8200064Y810500D01*
X8200062Y810499D01*
X8144747Y787586D01*
X8102413Y745252D01*
X8079500Y689937D01*
X5610500Y689937D01*
X5610500Y733860D01*
X5576931Y814903D01*
X5576929Y814905D01*
X5576929Y814906D01*
X5514905Y876929D01*
X5514903Y876931D01*
X5433860Y910500D01*
X5346140Y910500D01*
X5265097Y876931D01*
X5265095Y876929D01*
X5265094Y876929D01*
X5203071Y814906D01*
X5203070Y814904D01*
X5203069Y814903D01*
X5191754Y787586D01*
X5169500Y733861D01*
X-16474957Y733861D01*
X-16474744Y740306D01*
X-16474743Y740306D01*
X-16466820Y979937D01*
X6039500Y979937D01*
X6039500Y920062D01*
X6062413Y864747D01*
X6104747Y822413D01*
X6160062Y799500D01*
X6160064Y799500D01*
X6219937Y799500D01*
X6275252Y822413D01*
X6317586Y864747D01*
X6340499Y920062D01*
X6340500Y920064D01*
X6340500Y979936D01*
X6317587Y1035251D01*
X6275251Y1077587D01*
X6219936Y1100500D01*
X6160064Y1100500D01*
X6109368Y1079500D01*
X6104747Y1077586D01*
X6062413Y1035252D01*
X6039500Y979937D01*
X-16466820Y979937D01*
X-16466607Y986381D01*
X-16466607Y986382D01*
X-16463272Y1087218D01*
X-16463059Y1090444D01*
X-16427936Y1443860D01*
X-12700500Y1443860D01*
X-12700500Y1356140D01*
X-12666931Y1275097D01*
X-12666929Y1275095D01*
X-12666929Y1275094D01*
X-12604906Y1213071D01*
X-12604904Y1213070D01*
X-12604903Y1213069D01*
X-12573506Y1200064D01*
X-12523861Y1179500D01*
X-12523860Y1179500D01*
X-12436138Y1179500D01*
X-12355095Y1213070D01*
X-12308228Y1259937D01*
X7789500Y1259937D01*
X7789500Y1200062D01*
X7812413Y1144747D01*
X7854747Y1102413D01*
X7910062Y1079500D01*
X7910064Y1079500D01*
X7969937Y1079500D01*
X8025252Y1102413D01*
X8067586Y1144747D01*
X8090499Y1200062D01*
X8090500Y1200064D01*
X8090500Y1259936D01*
X8067587Y1315251D01*
X8025251Y1357587D01*
X7969936Y1380500D01*
X7910064Y1380500D01*
X7910062Y1380499D01*
X7854747Y1357586D01*
X7812413Y1315252D01*
X7789500Y1259937D01*
X-12308228Y1259937D01*
X-12293069Y1275096D01*
X-12289583Y1283513D01*
X-12289583Y1283514D01*
X-12259500Y1356138D01*
X-12259500Y1443861D01*
X-12273405Y1477430D01*
X-12293069Y1524903D01*
X-12293070Y1524904D01*
X-12293071Y1524906D01*
X-12355094Y1586929D01*
X-12355095Y1586929D01*
X-12355097Y1586931D01*
X-12436140Y1620500D01*
X-12523860Y1620500D01*
X-12604903Y1586931D01*
X-12604905Y1586929D01*
X-12604906Y1586929D01*
X-12666929Y1524906D01*
X-12666929Y1524905D01*
X-12666931Y1524903D01*
X-12700500Y1443860D01*
X-16427936Y1443860D01*
X-16426975Y1453532D01*
X-16399011Y1734909D01*
X-1985500Y1734909D01*
X-1985500Y1665091D01*
X-1958782Y1600587D01*
X-1958780Y1600585D01*
X-1958780Y1600584D01*
X-1909416Y1551220D01*
X-1909414Y1551219D01*
X-1909413Y1551218D01*
X-1895504Y1545457D01*
X-1844910Y1524500D01*
X-1844909Y1524500D01*
X-1775089Y1524500D01*
X-1710585Y1551219D01*
X-1661219Y1600585D01*
X-1634500Y1665089D01*
X-1634500Y1734910D01*
X-1645567Y1761628D01*
X-1661218Y1799413D01*
X-1661219Y1799414D01*
X-1661220Y1799416D01*
X-1691633Y1829829D01*
X4939500Y1829829D01*
X4939500Y1730170D01*
X4977637Y1638101D01*
X5048101Y1567637D01*
X5140170Y1529500D01*
X5140172Y1529500D01*
X5239829Y1529500D01*
X5292260Y1551218D01*
X5331897Y1567636D01*
X5331898Y1567637D01*
X5331900Y1567638D01*
X5402362Y1638100D01*
X5402362Y1638101D01*
X5402364Y1638103D01*
X5437909Y1723916D01*
X7789500Y1723916D01*
X7789500Y1656083D01*
X7815458Y1593418D01*
X7863418Y1545458D01*
X7926083Y1519500D01*
X7926085Y1519500D01*
X7993916Y1519500D01*
X8019873Y1530252D01*
X8056580Y1545457D01*
X8056581Y1545458D01*
X8056583Y1545459D01*
X8104541Y1593417D01*
X8104541Y1593418D01*
X8104543Y1593420D01*
X8130500Y1656085D01*
X8130500Y1723915D01*
X8104543Y1786580D01*
X8104541Y1786582D01*
X8104541Y1786583D01*
X8056582Y1834541D01*
X8056580Y1834543D01*
X7993915Y1860500D01*
X7926085Y1860500D01*
X7863420Y1834543D01*
X7863418Y1834541D01*
X7863417Y1834541D01*
X7815459Y1786583D01*
X7815458Y1786581D01*
X7815457Y1786580D01*
X7800252Y1749873D01*
X7789500Y1723916D01*
X5437909Y1723916D01*
X5440500Y1730172D01*
X5440500Y1829828D01*
X5402364Y1921897D01*
X5402362Y1921899D01*
X5402362Y1921900D01*
X5331899Y1992362D01*
X5331897Y1992364D01*
X5239828Y2030500D01*
X5140172Y2030500D01*
X5048103Y1992364D01*
X5048101Y1992362D01*
X5048100Y1992362D01*
X4977638Y1921900D01*
X4977637Y1921898D01*
X4977636Y1921897D01*
X4956383Y1870587D01*
X4939500Y1829829D01*
X-1691633Y1829829D01*
X-1710584Y1848780D01*
X-1710585Y1848780D01*
X-1710587Y1848782D01*
X-1775091Y1875500D01*
X-1844909Y1875500D01*
X-1909413Y1848782D01*
X-1909415Y1848780D01*
X-1909416Y1848780D01*
X-1958780Y1799416D01*
X-1958780Y1799415D01*
X-1958782Y1799413D01*
X-1985500Y1734909D01*
X-16399011Y1734909D01*
X-16398050Y1744581D01*
X-16372177Y2004909D01*
X-7045500Y2004909D01*
X-7045500Y1935091D01*
X-7018782Y1870587D01*
X-7018780Y1870585D01*
X-7018780Y1870584D01*
X-6969416Y1821220D01*
X-6969414Y1821219D01*
X-6969413Y1821218D01*
X-6931628Y1805567D01*
X-6904910Y1794500D01*
X-6904909Y1794500D01*
X-6835089Y1794500D01*
X-6770585Y1821219D01*
X-6721219Y1870585D01*
X-6719183Y1875499D01*
X-6704866Y1910064D01*
X-6694500Y1935089D01*
X-6694500Y2004910D01*
X-6717112Y2059500D01*
X-6721218Y2069413D01*
X-6721219Y2069414D01*
X-6721220Y2069416D01*
X-6770584Y2118780D01*
X-6770585Y2118780D01*
X-6770587Y2118782D01*
X-6835091Y2145500D01*
X-6904909Y2145500D01*
X-6969413Y2118782D01*
X-6969415Y2118780D01*
X-6969416Y2118780D01*
X-7018780Y2069416D01*
X-7018780Y2069415D01*
X-7018782Y2069413D01*
X-7045500Y2004909D01*
X-16372177Y2004909D01*
X-16371216Y2014581D01*
X-16355645Y2171263D01*
X-16355219Y2174467D01*
X-16299365Y2509828D01*
X-11630500Y2509828D01*
X-11630500Y2410172D01*
X-11592364Y2318103D01*
X-11592362Y2318101D01*
X-11592362Y2318100D01*
X-11521900Y2247638D01*
X-11521898Y2247637D01*
X-11521897Y2247636D01*
X-11467965Y2225296D01*
X-11429829Y2209500D01*
X-11429828Y2209500D01*
X-11330170Y2209500D01*
X-11238101Y2247637D01*
X-11167637Y2318101D01*
X-11129500Y2410170D01*
X-11129500Y2509828D01*
X-2350500Y2509828D01*
X-2350500Y2410172D01*
X-2312364Y2318103D01*
X-2312362Y2318101D01*
X-2312362Y2318100D01*
X-2241900Y2247638D01*
X-2241898Y2247637D01*
X-2241897Y2247636D01*
X-2187965Y2225296D01*
X-2149829Y2209500D01*
X-2149828Y2209500D01*
X-2050170Y2209500D01*
X-1958101Y2247637D01*
X-1887637Y2318101D01*
X-1849500Y2410170D01*
X-1849500Y2509829D01*
X-1872146Y2564500D01*
X-1887636Y2601897D01*
X-1887637Y2601898D01*
X-1887638Y2601900D01*
X-1949599Y2663861D01*
X3849500Y2663861D01*
X3849500Y2576138D01*
X3883070Y2495095D01*
X3945095Y2433070D01*
X4026138Y2399500D01*
X4026140Y2399500D01*
X4113861Y2399500D01*
X4163506Y2420064D01*
X4194903Y2433069D01*
X4194904Y2433070D01*
X4194906Y2433071D01*
X4256929Y2495094D01*
X4256929Y2495095D01*
X4256931Y2495097D01*
X4290500Y2576140D01*
X4290500Y2663860D01*
X4256931Y2744903D01*
X4256929Y2744905D01*
X4256929Y2744906D01*
X4226925Y2774910D01*
X5014500Y2774910D01*
X5014500Y2705089D01*
X5041219Y2640585D01*
X5090585Y2591219D01*
X5155089Y2564500D01*
X5155091Y2564500D01*
X5224910Y2564500D01*
X5256504Y2577587D01*
X5289413Y2591218D01*
X5289414Y2591219D01*
X5289416Y2591220D01*
X5338780Y2640584D01*
X5338780Y2640585D01*
X5338782Y2640587D01*
X5365500Y2705091D01*
X5365500Y2759883D01*
X6749500Y2759883D01*
X6749500Y2680116D01*
X6780025Y2606424D01*
X6836424Y2550025D01*
X6910116Y2519500D01*
X6910118Y2519500D01*
X6989880Y2519500D01*
X6989882Y2519500D01*
X6989889Y2519501D01*
X6991754Y2520274D01*
X6993770Y2520273D01*
X6994616Y2520442D01*
X6994649Y2520273D01*
X7029257Y2520270D01*
X7055772Y2493748D01*
X7059500Y2475002D01*
X7059500Y2420062D01*
X7082413Y2364747D01*
X7124747Y2322413D01*
X7184523Y2297653D01*
X7184155Y2296765D01*
X7211244Y2278662D01*
X7219500Y2251442D01*
X7219500Y2220116D01*
X7232003Y2189933D01*
X7244331Y2160170D01*
X7245126Y2158252D01*
X7245126Y2120749D01*
X7218608Y2094230D01*
X7199856Y2090500D01*
X7140064Y2090500D01*
X7118252Y2081464D01*
X7080750Y2081463D01*
X7054231Y2107981D01*
X7050500Y2126734D01*
X7050500Y2189933D01*
X7050500Y2189936D01*
X7027587Y2245251D01*
X6985251Y2287587D01*
X6929936Y2310500D01*
X6870064Y2310500D01*
X6844434Y2299883D01*
X6814747Y2287586D01*
X6772413Y2245252D01*
X6749500Y2189937D01*
X6749500Y2130062D01*
X6772413Y2074747D01*
X6814747Y2032413D01*
X6870062Y2009500D01*
X6870064Y2009500D01*
X6929937Y2009500D01*
X6951748Y2018535D01*
X6989251Y2018535D01*
X7015770Y1992017D01*
X7019500Y1973265D01*
X7019500Y1910062D01*
X7042413Y1854747D01*
X7084747Y1812413D01*
X7140062Y1789500D01*
X7140064Y1789500D01*
X7199937Y1789500D01*
X7255252Y1812413D01*
X7297586Y1854747D01*
X7304148Y1870587D01*
X7320500Y1910064D01*
X7320500Y1969936D01*
X7308639Y1998567D01*
X7308639Y2036068D01*
X7335157Y2062588D01*
X7372660Y2062589D01*
X7380116Y2059500D01*
X7380118Y2059500D01*
X7459883Y2059500D01*
X7496692Y2074747D01*
X7533574Y2090024D01*
X7533575Y2090025D01*
X7533577Y2090026D01*
X7589974Y2146423D01*
X7589974Y2146424D01*
X7589976Y2146426D01*
X7620500Y2220118D01*
X7620500Y2259829D01*
X9459500Y2259829D01*
X9459500Y2160170D01*
X9473350Y2126734D01*
X9497093Y2069413D01*
X9497637Y2068101D01*
X9568101Y1997637D01*
X9660170Y1959500D01*
X9660172Y1959500D01*
X9759829Y1959500D01*
X9797965Y1975296D01*
X9851897Y1997636D01*
X9851898Y1997637D01*
X9851900Y1997638D01*
X9922362Y2068100D01*
X9922362Y2068101D01*
X9922364Y2068103D01*
X9960500Y2160172D01*
X9960500Y2259828D01*
X9922364Y2351897D01*
X9922362Y2351899D01*
X9922362Y2351900D01*
X9851899Y2422362D01*
X9851897Y2422364D01*
X9759828Y2460500D01*
X9660172Y2460500D01*
X9568103Y2422364D01*
X9568101Y2422362D01*
X9568100Y2422362D01*
X9497638Y2351900D01*
X9497637Y2351898D01*
X9497636Y2351897D01*
X9478101Y2304736D01*
X9459500Y2259829D01*
X7620500Y2259829D01*
X7620500Y2299882D01*
X7589976Y2373574D01*
X7589974Y2373576D01*
X7589974Y2373577D01*
X7533576Y2429974D01*
X7533574Y2429976D01*
X7459882Y2460500D01*
X7401291Y2460500D01*
X7366643Y2474852D01*
X7356021Y2490748D01*
X7337587Y2535251D01*
X7295251Y2577587D01*
X7239936Y2600500D01*
X7190855Y2600500D01*
X7156207Y2614852D01*
X7141855Y2649500D01*
X7142369Y2656582D01*
X7143250Y2662615D01*
X7150500Y2680118D01*
X7150500Y2703861D01*
X7779500Y2703861D01*
X7779500Y2616138D01*
X7813070Y2535095D01*
X7875095Y2473070D01*
X7956138Y2439500D01*
X7956140Y2439500D01*
X8043861Y2439500D01*
X8094556Y2460499D01*
X8124903Y2473069D01*
X8124904Y2473070D01*
X8124906Y2473071D01*
X8186929Y2535094D01*
X8186929Y2535095D01*
X8186931Y2535097D01*
X8220500Y2616140D01*
X8220500Y2703860D01*
X8186931Y2784903D01*
X8186929Y2784905D01*
X8186929Y2784906D01*
X8124905Y2846929D01*
X8124903Y2846931D01*
X8043860Y2880500D01*
X7956140Y2880500D01*
X7875097Y2846931D01*
X7875095Y2846929D01*
X7875094Y2846929D01*
X7813071Y2784906D01*
X7813070Y2784904D01*
X7813069Y2784903D01*
X7802705Y2759882D01*
X7779500Y2703861D01*
X7150500Y2703861D01*
X7150500Y2730500D01*
X7164852Y2765148D01*
X7199500Y2779500D01*
X7219937Y2779500D01*
X7275252Y2802413D01*
X7317586Y2844747D01*
X7327840Y2869500D01*
X7340500Y2900064D01*
X7340500Y2959936D01*
X7317587Y3015251D01*
X7275251Y3057587D01*
X7219936Y3080500D01*
X7160064Y3080500D01*
X7160062Y3080499D01*
X7104747Y3057586D01*
X7062413Y3015252D01*
X7037653Y2955477D01*
X7036765Y2955844D01*
X7018662Y2928756D01*
X6991442Y2920500D01*
X6989882Y2920500D01*
X6910118Y2920500D01*
X6836426Y2889976D01*
X6836424Y2889974D01*
X6836423Y2889974D01*
X6780026Y2833577D01*
X6780025Y2833575D01*
X6780024Y2833574D01*
X6767117Y2802413D01*
X6749500Y2759883D01*
X5365500Y2759883D01*
X5365500Y2774909D01*
X5338782Y2839413D01*
X5338780Y2839415D01*
X5338780Y2839416D01*
X5289415Y2888780D01*
X5289413Y2888782D01*
X5224909Y2915500D01*
X5155091Y2915500D01*
X5090587Y2888782D01*
X5090585Y2888780D01*
X5090584Y2888780D01*
X5041220Y2839416D01*
X5041219Y2839414D01*
X5041218Y2839413D01*
X5027764Y2806931D01*
X5014500Y2774910D01*
X4226925Y2774910D01*
X4194905Y2806929D01*
X4194903Y2806931D01*
X4113860Y2840500D01*
X4026140Y2840500D01*
X3945097Y2806931D01*
X3945095Y2806929D01*
X3945094Y2806929D01*
X3883071Y2744906D01*
X3883070Y2744904D01*
X3883069Y2744903D01*
X3866067Y2703857D01*
X3849500Y2663861D01*
X-1949599Y2663861D01*
X-1958100Y2672362D01*
X-1958101Y2672362D01*
X-1958103Y2672364D01*
X-2050172Y2710500D01*
X-2149828Y2710500D01*
X-2241897Y2672364D01*
X-2241899Y2672362D01*
X-2241900Y2672362D01*
X-2312362Y2601900D01*
X-2312362Y2601899D01*
X-2312364Y2601897D01*
X-2350500Y2509828D01*
X-11129500Y2509828D01*
X-11129500Y2509829D01*
X-11152146Y2564500D01*
X-11167636Y2601897D01*
X-11167637Y2601898D01*
X-11167638Y2601900D01*
X-11238100Y2672362D01*
X-11238101Y2672362D01*
X-11238103Y2672364D01*
X-11330172Y2710500D01*
X-11429828Y2710500D01*
X-11521897Y2672364D01*
X-11521899Y2672362D01*
X-11521900Y2672362D01*
X-11592362Y2601900D01*
X-11592362Y2601899D01*
X-11592364Y2601897D01*
X-11630500Y2509828D01*
X-16299365Y2509828D01*
X-16297221Y2522704D01*
X-16176787Y3245834D01*
X-16176150Y3249011D01*
X-16164189Y3299828D01*
X-14340500Y3299828D01*
X-14340500Y3200172D01*
X-14302364Y3108103D01*
X-14302362Y3108101D01*
X-14302362Y3108100D01*
X-14231900Y3037638D01*
X-14231898Y3037637D01*
X-14231897Y3037636D01*
X-14177965Y3015296D01*
X-14139829Y2999500D01*
X-14139828Y2999500D01*
X-14040170Y2999500D01*
X-13948101Y3037637D01*
X-13877637Y3108101D01*
X-13839500Y3200170D01*
X-13839500Y3214910D01*
X4924500Y3214910D01*
X4924500Y3145089D01*
X4951219Y3080585D01*
X5000585Y3031219D01*
X5065089Y3004500D01*
X5065091Y3004500D01*
X5118516Y3004500D01*
X5134909Y3004500D01*
X5199413Y3031218D01*
X5199414Y3031219D01*
X5199416Y3031220D01*
X5248780Y3080584D01*
X5248780Y3080585D01*
X5248782Y3080587D01*
X5275500Y3145091D01*
X5275500Y3214909D01*
X5265178Y3239829D01*
X11539500Y3239829D01*
X11539500Y3140170D01*
X11577637Y3048101D01*
X11648101Y2977637D01*
X11740170Y2939500D01*
X11740172Y2939500D01*
X11839829Y2939500D01*
X11879286Y2955844D01*
X11931897Y2977636D01*
X11931898Y2977637D01*
X11931900Y2977638D01*
X12002362Y3048100D01*
X12002362Y3048101D01*
X12002364Y3048103D01*
X12040500Y3140172D01*
X12040500Y3149829D01*
X12989500Y3149829D01*
X12989500Y3050170D01*
X13027637Y2958101D01*
X13098101Y2887637D01*
X13190170Y2849500D01*
X13190172Y2849500D01*
X13289829Y2849500D01*
X13327965Y2865296D01*
X13381897Y2887636D01*
X13381898Y2887637D01*
X13381900Y2887638D01*
X13452362Y2958100D01*
X13452362Y2958101D01*
X13452364Y2958103D01*
X13490500Y3050172D01*
X13490500Y3149828D01*
X13482215Y3169829D01*
X14479500Y3169829D01*
X14479500Y3070170D01*
X14517637Y2978101D01*
X14588101Y2907637D01*
X14680170Y2869500D01*
X14680172Y2869500D01*
X14779829Y2869500D01*
X14829257Y2889974D01*
X14871897Y2907636D01*
X14871898Y2907637D01*
X14871900Y2907638D01*
X14942362Y2978100D01*
X14942362Y2978101D01*
X14942364Y2978103D01*
X14980500Y3070172D01*
X14980500Y3169828D01*
X14942364Y3261897D01*
X14942362Y3261899D01*
X14942362Y3261900D01*
X14871899Y3332362D01*
X14871897Y3332364D01*
X14779828Y3370500D01*
X14680172Y3370500D01*
X14588103Y3332364D01*
X14588101Y3332362D01*
X14588100Y3332362D01*
X14517638Y3261900D01*
X14517637Y3261898D01*
X14517636Y3261897D01*
X14498173Y3214909D01*
X14479500Y3169829D01*
X13482215Y3169829D01*
X13452364Y3241897D01*
X13452362Y3241899D01*
X13452362Y3241900D01*
X13381899Y3312362D01*
X13381897Y3312364D01*
X13289828Y3350500D01*
X13190172Y3350500D01*
X13098103Y3312364D01*
X13098101Y3312362D01*
X13098100Y3312362D01*
X13027638Y3241900D01*
X13027637Y3241898D01*
X13027636Y3241897D01*
X13016456Y3214906D01*
X12989500Y3149829D01*
X12040500Y3149829D01*
X12040500Y3239828D01*
X12002364Y3331897D01*
X12002362Y3331899D01*
X12002362Y3331900D01*
X11931899Y3402362D01*
X11931897Y3402364D01*
X11839828Y3440500D01*
X11740172Y3440500D01*
X11648103Y3402364D01*
X11648101Y3402362D01*
X11648100Y3402362D01*
X11577638Y3331900D01*
X11577637Y3331898D01*
X11577636Y3331897D01*
X11555898Y3279416D01*
X11539500Y3239829D01*
X5265178Y3239829D01*
X5248782Y3279413D01*
X5248780Y3279415D01*
X5248780Y3279416D01*
X5199415Y3328780D01*
X5199413Y3328782D01*
X5134909Y3355500D01*
X5065091Y3355500D01*
X5000587Y3328782D01*
X5000585Y3328780D01*
X5000584Y3328780D01*
X4951220Y3279416D01*
X4951219Y3279414D01*
X4951218Y3279413D01*
X4943964Y3261900D01*
X4924500Y3214910D01*
X-13839500Y3214910D01*
X-13839500Y3299829D01*
X-13855296Y3337965D01*
X-13877636Y3391897D01*
X-13877637Y3391898D01*
X-13877638Y3391900D01*
X-13948100Y3462362D01*
X-13948101Y3462362D01*
X-13948103Y3462364D01*
X-14040172Y3500500D01*
X-14139828Y3500500D01*
X-14231897Y3462364D01*
X-14231899Y3462362D01*
X-14231900Y3462362D01*
X-14302362Y3391900D01*
X-14302362Y3391899D01*
X-14302364Y3391897D01*
X-14340500Y3299828D01*
X-16164189Y3299828D01*
X-16160410Y3315881D01*
X-16088842Y3619937D01*
X5909500Y3619937D01*
X5909500Y3560062D01*
X5932413Y3504747D01*
X5974747Y3462413D01*
X6030062Y3439500D01*
X6030064Y3439500D01*
X6089937Y3439500D01*
X6145252Y3462413D01*
X6187586Y3504747D01*
X6210499Y3560062D01*
X6210500Y3560064D01*
X6210500Y3619936D01*
X6187587Y3675251D01*
X6145251Y3717587D01*
X6089936Y3740500D01*
X6030064Y3740500D01*
X6012130Y3733071D01*
X5974747Y3717586D01*
X5932413Y3675252D01*
X5909500Y3619937D01*
X-16088842Y3619937D01*
X-15927271Y4306364D01*
X-15926426Y4309487D01*
X-15872697Y4484909D01*
X-7125500Y4484909D01*
X-7125500Y4415091D01*
X-7098782Y4350587D01*
X-7098780Y4350585D01*
X-7098780Y4350584D01*
X-7049415Y4301219D01*
X-7049413Y4301218D01*
X-7047882Y4300584D01*
X-7030051Y4293198D01*
X-7003533Y4266678D01*
X-7003534Y4229175D01*
X-7030051Y4202659D01*
X-7039413Y4198782D01*
X-7039415Y4198780D01*
X-7039416Y4198780D01*
X-7088780Y4149416D01*
X-7088780Y4149415D01*
X-7088782Y4149413D01*
X-7115500Y4084909D01*
X-7115500Y4015091D01*
X-7088782Y3950587D01*
X-7088780Y3950585D01*
X-7088780Y3950584D01*
X-7039416Y3901220D01*
X-7039414Y3901219D01*
X-7039413Y3901218D01*
X-7001628Y3885567D01*
X-6974910Y3874500D01*
X-6974909Y3874500D01*
X-6905089Y3874500D01*
X-6840585Y3901219D01*
X-6791219Y3950585D01*
X-6766679Y4009828D01*
X-6590500Y4009828D01*
X-6590500Y3910172D01*
X-6552364Y3818103D01*
X-6552362Y3818101D01*
X-6552362Y3818100D01*
X-6481900Y3747638D01*
X-6481898Y3747637D01*
X-6481897Y3747636D01*
X-6427965Y3725296D01*
X-6389829Y3709500D01*
X-6389828Y3709500D01*
X-6290170Y3709500D01*
X-6198101Y3747637D01*
X-6127637Y3818101D01*
X-6089500Y3910170D01*
X-6089500Y3963860D01*
X-4850500Y3963860D01*
X-4850500Y3876140D01*
X-4816931Y3795097D01*
X-4816929Y3795095D01*
X-4816929Y3795094D01*
X-4754906Y3733071D01*
X-4754904Y3733070D01*
X-4754903Y3733069D01*
X-4707430Y3713405D01*
X-4673861Y3699500D01*
X-4673860Y3699500D01*
X-4586138Y3699500D01*
X-4505095Y3733070D01*
X-4443070Y3795095D01*
X-4409500Y3876138D01*
X-4409500Y3929828D01*
X-2030500Y3929828D01*
X-2030500Y3830172D01*
X-1992364Y3738103D01*
X-1992362Y3738101D01*
X-1992362Y3738100D01*
X-1921900Y3667638D01*
X-1921898Y3667637D01*
X-1921897Y3667636D01*
X-1867965Y3645296D01*
X-1829829Y3629500D01*
X-1829828Y3629500D01*
X-1730170Y3629500D01*
X-1638100Y3667637D01*
X-1567638Y3738100D01*
X-1567637Y3738101D01*
X-1563686Y3747638D01*
X-1554353Y3770170D01*
X-1529500Y3830170D01*
X-1529500Y3913916D01*
X7649500Y3913916D01*
X7649500Y3846083D01*
X7675458Y3783418D01*
X7723418Y3735458D01*
X7786083Y3709500D01*
X7786085Y3709500D01*
X7853916Y3709500D01*
X7879873Y3720252D01*
X7916580Y3735457D01*
X7916581Y3735458D01*
X7916583Y3735459D01*
X7964541Y3783417D01*
X7964541Y3783418D01*
X7964543Y3783420D01*
X7990500Y3846085D01*
X7990500Y3869829D01*
X14489500Y3869829D01*
X14489500Y3770170D01*
X14527637Y3678101D01*
X14598101Y3607637D01*
X14690170Y3569500D01*
X14690172Y3569500D01*
X14789829Y3569500D01*
X14827965Y3585296D01*
X14881897Y3607636D01*
X14881898Y3607637D01*
X14881900Y3607638D01*
X14952362Y3678100D01*
X14952362Y3678101D01*
X14952364Y3678103D01*
X14990500Y3770172D01*
X14990500Y3869828D01*
X14952364Y3961897D01*
X14952362Y3961899D01*
X14952362Y3961900D01*
X14881899Y4032362D01*
X14881897Y4032364D01*
X14789828Y4070500D01*
X14690172Y4070500D01*
X14598103Y4032364D01*
X14598101Y4032362D01*
X14598100Y4032362D01*
X14527638Y3961900D01*
X14527637Y3961898D01*
X14527636Y3961897D01*
X14507762Y3913916D01*
X14489500Y3869829D01*
X7990500Y3869829D01*
X7990500Y3913915D01*
X7964543Y3976580D01*
X7964541Y3976582D01*
X7964541Y3976583D01*
X7916582Y4024541D01*
X7916580Y4024543D01*
X7853915Y4050500D01*
X7786085Y4050500D01*
X7723420Y4024543D01*
X7723418Y4024541D01*
X7723417Y4024541D01*
X7675459Y3976583D01*
X7675458Y3976581D01*
X7675457Y3976580D01*
X7664689Y3950584D01*
X7649500Y3913916D01*
X-1529500Y3913916D01*
X-1529500Y3929829D01*
X-1548866Y3976581D01*
X-1567636Y4021897D01*
X-1567637Y4021898D01*
X-1567638Y4021900D01*
X-1638100Y4092362D01*
X-1638101Y4092362D01*
X-1638103Y4092364D01*
X-1730172Y4130500D01*
X-1829828Y4130500D01*
X-1921897Y4092364D01*
X-1921899Y4092362D01*
X-1921900Y4092362D01*
X-1992362Y4021900D01*
X-1992362Y4021899D01*
X-1992364Y4021897D01*
X-2030500Y3929828D01*
X-4409500Y3929828D01*
X-4409500Y3963861D01*
X-4430721Y4015091D01*
X-4443069Y4044903D01*
X-4443070Y4044904D01*
X-4443071Y4044906D01*
X-4505094Y4106929D01*
X-4505095Y4106929D01*
X-4505097Y4106931D01*
X-4586140Y4140500D01*
X-4673860Y4140500D01*
X-4754903Y4106931D01*
X-4754905Y4106929D01*
X-4754906Y4106929D01*
X-4816929Y4044906D01*
X-4816929Y4044905D01*
X-4816931Y4044903D01*
X-4850500Y3963860D01*
X-6089500Y3963860D01*
X-6089500Y4009829D01*
X-6114631Y4070500D01*
X-6127636Y4101897D01*
X-6127637Y4101898D01*
X-6127638Y4101900D01*
X-6198100Y4172362D01*
X-6198101Y4172362D01*
X-6198103Y4172364D01*
X-6290172Y4210500D01*
X-6389828Y4210500D01*
X-6481897Y4172364D01*
X-6481899Y4172362D01*
X-6481900Y4172362D01*
X-6552362Y4101900D01*
X-6552362Y4101899D01*
X-6552364Y4101897D01*
X-6590500Y4009828D01*
X-6766679Y4009828D01*
X-6764500Y4015089D01*
X-6764500Y4084910D01*
X-6787526Y4140499D01*
X-6791218Y4149413D01*
X-6791219Y4149414D01*
X-6791220Y4149416D01*
X-6840584Y4198780D01*
X-6840585Y4198780D01*
X-6840587Y4198782D01*
X-6859947Y4206801D01*
X-6886465Y4233320D01*
X-6886465Y4270823D01*
X-6859948Y4297340D01*
X-6854172Y4299732D01*
X-6850584Y4301219D01*
X-6850584Y4301220D01*
X-6801219Y4350585D01*
X-6774500Y4415089D01*
X-6774500Y4484910D01*
X-6800957Y4548782D01*
X-6801218Y4549413D01*
X-6801219Y4549414D01*
X-6801220Y4549416D01*
X-6831632Y4579828D01*
X-4770500Y4579828D01*
X-4770500Y4480172D01*
X-4732364Y4388103D01*
X-4732362Y4388101D01*
X-4732362Y4388100D01*
X-4661900Y4317638D01*
X-4661898Y4317637D01*
X-4661897Y4317636D01*
X-4612900Y4297341D01*
X-4569829Y4279500D01*
X-4569828Y4279500D01*
X-4470170Y4279500D01*
X-4378101Y4317637D01*
X-4307637Y4388101D01*
X-4269500Y4480170D01*
X-4269500Y4579829D01*
X-4285296Y4617965D01*
X-4307636Y4671897D01*
X-4307637Y4671898D01*
X-4307638Y4671900D01*
X-4378100Y4742362D01*
X-4378101Y4742362D01*
X-4378103Y4742364D01*
X-4444410Y4769829D01*
X11429500Y4769829D01*
X11429500Y4670170D01*
X11459071Y4598780D01*
X11466921Y4579828D01*
X11467637Y4578101D01*
X11538101Y4507637D01*
X11630170Y4469500D01*
X11630172Y4469500D01*
X11729829Y4469500D01*
X11767965Y4485296D01*
X11821897Y4507636D01*
X11821898Y4507637D01*
X11821900Y4507638D01*
X11864091Y4549829D01*
X12959500Y4549829D01*
X12959500Y4450170D01*
X12985210Y4388103D01*
X12994741Y4365091D01*
X12997637Y4358101D01*
X13068101Y4287637D01*
X13160170Y4249500D01*
X13160172Y4249500D01*
X13259829Y4249500D01*
X13301300Y4266678D01*
X13351897Y4287636D01*
X13351898Y4287637D01*
X13351900Y4287638D01*
X13422362Y4358100D01*
X13422362Y4358101D01*
X13422364Y4358103D01*
X13454178Y4434910D01*
X14504500Y4434910D01*
X14504500Y4365089D01*
X14531219Y4300585D01*
X14580585Y4251219D01*
X14645089Y4224500D01*
X14645091Y4224500D01*
X14714910Y4224500D01*
X14741628Y4235567D01*
X14779413Y4251218D01*
X14779414Y4251219D01*
X14779416Y4251220D01*
X14828780Y4300584D01*
X14828780Y4300585D01*
X14828782Y4300587D01*
X14855500Y4365091D01*
X14855500Y4434909D01*
X14828782Y4499413D01*
X14828780Y4499415D01*
X14828780Y4499416D01*
X14779415Y4548780D01*
X14779413Y4548782D01*
X14714909Y4575500D01*
X14645091Y4575500D01*
X14580587Y4548782D01*
X14580585Y4548780D01*
X14580584Y4548780D01*
X14531220Y4499416D01*
X14531219Y4499414D01*
X14531218Y4499413D01*
X14518828Y4469500D01*
X14504500Y4434910D01*
X13454178Y4434910D01*
X13460500Y4450172D01*
X13460500Y4549828D01*
X13422364Y4641897D01*
X13422362Y4641899D01*
X13422362Y4641900D01*
X13351899Y4712362D01*
X13351897Y4712364D01*
X13259828Y4750500D01*
X13160172Y4750500D01*
X13068103Y4712364D01*
X13068101Y4712362D01*
X13068100Y4712362D01*
X12997638Y4641900D01*
X12997637Y4641898D01*
X12997636Y4641897D01*
X12975296Y4587965D01*
X12959500Y4549829D01*
X11864091Y4549829D01*
X11892360Y4578098D01*
X11892362Y4578101D01*
X11892364Y4578103D01*
X11930500Y4670172D01*
X11930500Y4769828D01*
X11892364Y4861897D01*
X11892362Y4861899D01*
X11892362Y4861900D01*
X11821899Y4932362D01*
X11821897Y4932364D01*
X11729828Y4970500D01*
X11630172Y4970500D01*
X11538103Y4932364D01*
X11538101Y4932362D01*
X11538100Y4932362D01*
X11467638Y4861900D01*
X11467637Y4861898D01*
X11467636Y4861897D01*
X11462465Y4849413D01*
X11429500Y4769829D01*
X-4444410Y4769829D01*
X-4470172Y4780500D01*
X-4569828Y4780500D01*
X-4661897Y4742364D01*
X-4661899Y4742362D01*
X-4661900Y4742362D01*
X-4732362Y4671900D01*
X-4732362Y4671899D01*
X-4732364Y4671897D01*
X-4770500Y4579828D01*
X-6831632Y4579828D01*
X-6850584Y4598780D01*
X-6850585Y4598780D01*
X-6850587Y4598782D01*
X-6915091Y4625500D01*
X-6984909Y4625500D01*
X-7049413Y4598782D01*
X-7049415Y4598780D01*
X-7049416Y4598780D01*
X-7098780Y4549416D01*
X-7098780Y4549415D01*
X-7098782Y4549413D01*
X-7125500Y4484909D01*
X-15872697Y4484909D01*
X-15866824Y4504085D01*
X-15780813Y4784909D01*
X-7925500Y4784909D01*
X-7925500Y4715091D01*
X-7898782Y4650587D01*
X-7898780Y4650585D01*
X-7898780Y4650584D01*
X-7849416Y4601220D01*
X-7849414Y4601219D01*
X-7849413Y4601218D01*
X-7811628Y4585567D01*
X-7784910Y4574500D01*
X-7784909Y4574500D01*
X-7715089Y4574500D01*
X-7650585Y4601219D01*
X-7601219Y4650585D01*
X-7574500Y4715089D01*
X-7574500Y4784910D01*
X-7595250Y4835005D01*
X-7601218Y4849413D01*
X-7601219Y4849414D01*
X-7601220Y4849416D01*
X-7650584Y4898780D01*
X-7650585Y4898780D01*
X-7650587Y4898782D01*
X-7715091Y4925500D01*
X-7784909Y4925500D01*
X-7849413Y4898782D01*
X-7849415Y4898780D01*
X-7849416Y4898780D01*
X-7898780Y4849416D01*
X-7898780Y4849415D01*
X-7898782Y4849413D01*
X-7925500Y4784909D01*
X-15780813Y4784909D01*
X-15638417Y5249828D01*
X-10430500Y5249828D01*
X-10430500Y5150172D01*
X-10392364Y5058103D01*
X-10392362Y5058101D01*
X-10392362Y5058100D01*
X-10321900Y4987638D01*
X-10321898Y4987637D01*
X-10321897Y4987636D01*
X-10280524Y4970499D01*
X-10229829Y4949500D01*
X-10229828Y4949500D01*
X-10130170Y4949500D01*
X-10038101Y4987637D01*
X-9967637Y5058101D01*
X-9937926Y5129828D01*
X-8890500Y5129828D01*
X-8890500Y5030172D01*
X-8852364Y4938103D01*
X-8852362Y4938101D01*
X-8852362Y4938100D01*
X-8781900Y4867638D01*
X-8781898Y4867637D01*
X-8781897Y4867636D01*
X-8727965Y4845296D01*
X-8689829Y4829500D01*
X-8689828Y4829500D01*
X-8590170Y4829500D01*
X-8576882Y4835005D01*
X-8498103Y4867636D01*
X-8498102Y4867636D01*
X-8498101Y4867637D01*
X-8427637Y4938101D01*
X-8389500Y5030170D01*
X-8389500Y5129829D01*
X-8405296Y5167965D01*
X-8427636Y5221897D01*
X-8427637Y5221898D01*
X-8427638Y5221900D01*
X-8498100Y5292362D01*
X-8498101Y5292362D01*
X-8498103Y5292364D01*
X-8590172Y5330500D01*
X-8689828Y5330500D01*
X-8781897Y5292364D01*
X-8781899Y5292362D01*
X-8781900Y5292362D01*
X-8852362Y5221900D01*
X-8852362Y5221899D01*
X-8852364Y5221897D01*
X-8890500Y5129828D01*
X-9937926Y5129828D01*
X-9929501Y5150168D01*
X-9929500Y5150174D01*
X-9929500Y5249829D01*
X-9962915Y5330499D01*
X-9967636Y5341897D01*
X-9967637Y5341898D01*
X-9967638Y5341900D01*
X-10038100Y5412362D01*
X-10038101Y5412362D01*
X-10038103Y5412364D01*
X-10130172Y5450500D01*
X-10229828Y5450500D01*
X-10321897Y5412364D01*
X-10321899Y5412362D01*
X-10321900Y5412362D01*
X-10392362Y5341900D01*
X-10392362Y5341899D01*
X-10392364Y5341897D01*
X-10430500Y5249828D01*
X-15638417Y5249828D01*
X-15632544Y5269004D01*
X-15608350Y5347998D01*
X-15607301Y5351056D01*
X-15548758Y5505091D01*
X-15522223Y5574909D01*
X-4425500Y5574909D01*
X-4425500Y5505091D01*
X-4398782Y5440587D01*
X-4398780Y5440585D01*
X-4398780Y5440584D01*
X-4349416Y5391220D01*
X-4349414Y5391219D01*
X-4349413Y5391218D01*
X-4311628Y5375567D01*
X-4284910Y5364500D01*
X-4284909Y5364500D01*
X-4215089Y5364500D01*
X-4150585Y5391219D01*
X-4101218Y5440586D01*
X-4099427Y5444910D01*
X5934500Y5444910D01*
X5934500Y5375089D01*
X5961219Y5310585D01*
X6010585Y5261219D01*
X6075089Y5234500D01*
X6075091Y5234500D01*
X6144910Y5234500D01*
X6181907Y5249825D01*
X6209413Y5261218D01*
X6209414Y5261219D01*
X6209416Y5261220D01*
X6258780Y5310584D01*
X6258780Y5310585D01*
X6258782Y5310587D01*
X6285500Y5375091D01*
X6285500Y5444909D01*
X6258782Y5509413D01*
X6258780Y5509415D01*
X6258780Y5509416D01*
X6209415Y5558780D01*
X6209413Y5558782D01*
X6144909Y5585500D01*
X6075091Y5585500D01*
X6010587Y5558782D01*
X6010585Y5558780D01*
X6010584Y5558780D01*
X5961220Y5509416D01*
X5961219Y5509414D01*
X5961218Y5509413D01*
X5959429Y5505093D01*
X5934500Y5444910D01*
X-4099427Y5444910D01*
X-4089662Y5468486D01*
X-4089662Y5468487D01*
X-4074500Y5505089D01*
X-4074500Y5574910D01*
X-4096532Y5628100D01*
X-4101218Y5639413D01*
X-4101219Y5639414D01*
X-4101220Y5639416D01*
X-4150584Y5688780D01*
X-4150585Y5688780D01*
X-4150587Y5688782D01*
X-4215091Y5715500D01*
X-4284909Y5715500D01*
X-4349413Y5688782D01*
X-4349415Y5688780D01*
X-4349416Y5688780D01*
X-4398780Y5639416D01*
X-4398780Y5639415D01*
X-4398782Y5639413D01*
X-4425500Y5574909D01*
X-15522223Y5574909D01*
X-15324591Y6094909D01*
X-14695500Y6094909D01*
X-14695500Y6025091D01*
X-14668782Y5960587D01*
X-14668780Y5960585D01*
X-14668780Y5960584D01*
X-14619416Y5911220D01*
X-14619414Y5911219D01*
X-14619413Y5911218D01*
X-14581628Y5895567D01*
X-14554910Y5884500D01*
X-14554909Y5884500D01*
X-14485089Y5884500D01*
X-14420585Y5911219D01*
X-14371219Y5960585D01*
X-14344500Y6025089D01*
X-14344500Y6094910D01*
X-14347016Y6100983D01*
X-14347016Y6100984D01*
X-14352784Y6114909D01*
X-12585500Y6114909D01*
X-12585500Y6045091D01*
X-12558782Y5980587D01*
X-12558780Y5980585D01*
X-12558780Y5980584D01*
X-12509416Y5931220D01*
X-12509414Y5931219D01*
X-12509413Y5931218D01*
X-12471628Y5915567D01*
X-12444910Y5904500D01*
X-12444909Y5904500D01*
X-12375089Y5904500D01*
X-12310585Y5931219D01*
X-12261219Y5980585D01*
X-12234500Y6045089D01*
X-12234500Y6063861D01*
X8219500Y6063861D01*
X8219500Y5976138D01*
X8253070Y5895095D01*
X8315095Y5833070D01*
X8396138Y5799500D01*
X8396140Y5799500D01*
X8483861Y5799500D01*
X8532936Y5819828D01*
X8532938Y5819829D01*
X14369500Y5819829D01*
X14369500Y5720170D01*
X14388511Y5674275D01*
X14407629Y5628119D01*
X14407637Y5628101D01*
X14478101Y5557637D01*
X14570170Y5519500D01*
X14570172Y5519500D01*
X14669829Y5519500D01*
X14707965Y5535296D01*
X14761897Y5557636D01*
X14761898Y5557637D01*
X14761900Y5557638D01*
X14832362Y5628100D01*
X14832362Y5628101D01*
X14832364Y5628103D01*
X14870500Y5720172D01*
X14870500Y5819828D01*
X14832364Y5911897D01*
X14832362Y5911899D01*
X14832362Y5911900D01*
X14761899Y5982362D01*
X14761897Y5982364D01*
X14669828Y6020500D01*
X14570172Y6020500D01*
X14478103Y5982364D01*
X14478101Y5982362D01*
X14478100Y5982362D01*
X14407638Y5911900D01*
X14407637Y5911898D01*
X14407636Y5911897D01*
X14400676Y5895094D01*
X14369500Y5819829D01*
X8532938Y5819829D01*
X8564903Y5833069D01*
X8564904Y5833070D01*
X8564906Y5833071D01*
X8626929Y5895094D01*
X8626929Y5895095D01*
X8626931Y5895097D01*
X8660500Y5976140D01*
X8660500Y6063860D01*
X8626931Y6144903D01*
X8626929Y6144905D01*
X8626929Y6144906D01*
X8564905Y6206929D01*
X8564903Y6206931D01*
X8483860Y6240500D01*
X8396140Y6240500D01*
X8315097Y6206931D01*
X8315095Y6206929D01*
X8315094Y6206929D01*
X8253071Y6144906D01*
X8253070Y6144904D01*
X8253069Y6144903D01*
X8240250Y6113954D01*
X8219500Y6063861D01*
X-12234500Y6063861D01*
X-12234500Y6114910D01*
X-12252934Y6159413D01*
X-12261218Y6179413D01*
X-12261219Y6179414D01*
X-12261220Y6179416D01*
X-12310584Y6228780D01*
X-12310585Y6228780D01*
X-12310587Y6228782D01*
X-12375091Y6255500D01*
X-12444909Y6255500D01*
X-12509413Y6228782D01*
X-12509415Y6228780D01*
X-12509416Y6228780D01*
X-12558780Y6179416D01*
X-12558780Y6179415D01*
X-12558782Y6179413D01*
X-12585500Y6114909D01*
X-14352784Y6114909D01*
X-14371218Y6159413D01*
X-14371220Y6159416D01*
X-14420584Y6208780D01*
X-14420585Y6208780D01*
X-14420587Y6208782D01*
X-14485091Y6235500D01*
X-14554909Y6235500D01*
X-14619413Y6208782D01*
X-14619415Y6208780D01*
X-14619416Y6208780D01*
X-14668780Y6159416D01*
X-14668780Y6159415D01*
X-14668782Y6159413D01*
X-14695500Y6094909D01*
X-15324591Y6094909D01*
X-15300074Y6159416D01*
X-15221394Y6366432D01*
X-15220146Y6369416D01*
X-15203938Y6404829D01*
X4354500Y6404829D01*
X4354500Y6305170D01*
X4392637Y6213101D01*
X4463101Y6142637D01*
X4555170Y6104500D01*
X4555172Y6104500D01*
X4654826Y6104500D01*
X4654828Y6104500D01*
X4654829Y6104500D01*
X4654831Y6104501D01*
X4677655Y6113954D01*
X4677657Y6113956D01*
X4686546Y6117638D01*
X4746897Y6142636D01*
X4746898Y6142637D01*
X4746900Y6142638D01*
X4817362Y6213100D01*
X4817362Y6213101D01*
X4817364Y6213103D01*
X4855500Y6305172D01*
X4855500Y6379829D01*
X11749500Y6379829D01*
X11749500Y6280170D01*
X11787637Y6188101D01*
X11858101Y6117637D01*
X11858102Y6117636D01*
X11858103Y6117636D01*
X11866992Y6113954D01*
X11950170Y6079500D01*
X11950172Y6079500D01*
X12049829Y6079500D01*
X12101695Y6100984D01*
X12141897Y6117636D01*
X12141898Y6117637D01*
X12141900Y6117638D01*
X12212362Y6188100D01*
X12212362Y6188101D01*
X12212364Y6188103D01*
X12250500Y6280172D01*
X12250500Y6379828D01*
X12212364Y6471897D01*
X12212362Y6471899D01*
X12212362Y6471900D01*
X12141899Y6542362D01*
X12141897Y6542364D01*
X12049828Y6580500D01*
X11950172Y6580500D01*
X11858103Y6542364D01*
X11858101Y6542362D01*
X11858100Y6542362D01*
X11787638Y6471900D01*
X11787637Y6471898D01*
X11787636Y6471897D01*
X11770301Y6430046D01*
X11749500Y6379829D01*
X4855500Y6379829D01*
X4855500Y6404828D01*
X4817364Y6496897D01*
X4817362Y6496899D01*
X4817362Y6496900D01*
X4746899Y6567362D01*
X4746897Y6567364D01*
X4654828Y6605500D01*
X4555172Y6605500D01*
X4463103Y6567364D01*
X4463101Y6567362D01*
X4463100Y6567362D01*
X4392638Y6496900D01*
X4392637Y6496898D01*
X4392636Y6496897D01*
X4382282Y6471900D01*
X4354500Y6404829D01*
X-15203938Y6404829D01*
X-15192397Y6430046D01*
X-14846919Y7184906D01*
X-14846918Y7184909D01*
X-11235500Y7184909D01*
X-11235500Y7115091D01*
X-11208782Y7050587D01*
X-11208780Y7050585D01*
X-11208780Y7050584D01*
X-11159416Y7001220D01*
X-11159414Y7001219D01*
X-11159413Y7001218D01*
X-11121628Y6985567D01*
X-11094910Y6974500D01*
X-11094909Y6974500D01*
X-11025089Y6974500D01*
X-10960585Y7001219D01*
X-10951976Y7009828D01*
X-1930500Y7009828D01*
X-1930500Y6910172D01*
X-1892364Y6818103D01*
X-1892362Y6818101D01*
X-1892362Y6818100D01*
X-1821900Y6747638D01*
X-1821898Y6747637D01*
X-1821897Y6747636D01*
X-1767965Y6725296D01*
X-1729829Y6709500D01*
X-1729828Y6709500D01*
X-1630170Y6709500D01*
X-1538101Y6747637D01*
X-1467637Y6818101D01*
X-1454496Y6849825D01*
X-1454494Y6849829D01*
X8999500Y6849829D01*
X8999500Y6750170D01*
X9037637Y6658101D01*
X9108101Y6587637D01*
X9200170Y6549500D01*
X9200172Y6549500D01*
X9299829Y6549500D01*
X9342956Y6567364D01*
X9391897Y6587636D01*
X9391898Y6587637D01*
X9391900Y6587638D01*
X9462362Y6658100D01*
X9462362Y6658101D01*
X9462364Y6658103D01*
X9500500Y6750172D01*
X9500500Y6849828D01*
X9462364Y6941897D01*
X9462362Y6941899D01*
X9462362Y6941900D01*
X9391899Y7012362D01*
X9391897Y7012364D01*
X9299828Y7050500D01*
X9200172Y7050500D01*
X9108103Y7012364D01*
X9108101Y7012362D01*
X9108100Y7012362D01*
X9037638Y6941900D01*
X9037637Y6941898D01*
X9037636Y6941897D01*
X9015296Y6887965D01*
X8999500Y6849829D01*
X-1454494Y6849829D01*
X-1442866Y6877901D01*
X-1429500Y6910170D01*
X-1429500Y7009829D01*
X-1446383Y7050587D01*
X-1467636Y7101897D01*
X-1467637Y7101898D01*
X-1467638Y7101900D01*
X-1538100Y7172362D01*
X-1538101Y7172362D01*
X-1538103Y7172364D01*
X-1630172Y7210500D01*
X-1729828Y7210500D01*
X-1821897Y7172364D01*
X-1821899Y7172362D01*
X-1821900Y7172362D01*
X-1892362Y7101900D01*
X-1892362Y7101899D01*
X-1892364Y7101897D01*
X-1930500Y7009828D01*
X-10951976Y7009828D01*
X-10911219Y7050585D01*
X-10884500Y7115089D01*
X-10884500Y7184910D01*
X-10895567Y7211628D01*
X-10911218Y7249413D01*
X-10911219Y7249414D01*
X-10911220Y7249416D01*
X-10960584Y7298780D01*
X-10960585Y7298780D01*
X-10960587Y7298782D01*
X-11025091Y7325500D01*
X-11094909Y7325500D01*
X-11159413Y7298782D01*
X-11159415Y7298780D01*
X-11159416Y7298780D01*
X-11208780Y7249416D01*
X-11208780Y7249415D01*
X-11208782Y7249413D01*
X-11235500Y7184909D01*
X-14846918Y7184909D01*
X-14768165Y7356980D01*
X-14766720Y7359880D01*
X-14250390Y8315517D01*
X-14248761Y8318309D01*
X-13670560Y9237817D01*
X-13668748Y9240497D01*
X-13484273Y9494909D01*
X-13245500Y9494909D01*
X-13245500Y9425091D01*
X-13218782Y9360587D01*
X-13218780Y9360585D01*
X-13218780Y9360584D01*
X-13169416Y9311220D01*
X-13169414Y9311219D01*
X-13169413Y9311218D01*
X-13131628Y9295567D01*
X-13104910Y9284500D01*
X-13104909Y9284500D01*
X-13035089Y9284500D01*
X-12970585Y9311219D01*
X-12921219Y9360585D01*
X-12894500Y9425089D01*
X-12894500Y9494910D01*
X-12906164Y9523069D01*
X-12921218Y9559413D01*
X-12921219Y9559414D01*
X-12921220Y9559416D01*
X-12970584Y9608780D01*
X-12970585Y9608780D01*
X-12970587Y9608782D01*
X-13035091Y9635500D01*
X-13104909Y9635500D01*
X-13169413Y9608782D01*
X-13169415Y9608780D01*
X-13169416Y9608780D01*
X-13218780Y9559416D01*
X-13218780Y9559415D01*
X-13218782Y9559413D01*
X-13245500Y9494909D01*
X-13484273Y9494909D01*
X-13459917Y9528499D01*
X-13099569Y10025462D01*
X-11500000Y10025462D01*
X-11500000Y9773538D01*
X-11460590Y9524715D01*
X-11382741Y9285121D01*
X-11268370Y9060655D01*
X-11120293Y8856844D01*
X-11120291Y8856842D01*
X-11120288Y8856838D01*
X-10942162Y8678712D01*
X-10942157Y8678708D01*
X-10942156Y8678707D01*
X-10738345Y8530630D01*
X-10738342Y8530628D01*
X-10513880Y8416259D01*
X-10274285Y8338410D01*
X-10274282Y8338409D01*
X-10083142Y8308135D01*
X-10025462Y8299000D01*
X-10025461Y8299000D01*
X-9773539Y8299000D01*
X-9773538Y8299000D01*
X-9726712Y8306416D01*
X-9524717Y8338409D01*
X-9524714Y8338410D01*
X-9285119Y8416259D01*
X-9060657Y8530628D01*
X-8856842Y8678708D01*
X-8841690Y8693860D01*
X-1610500Y8693860D01*
X-1610500Y8606140D01*
X-1576931Y8525097D01*
X-1576929Y8525095D01*
X-1576929Y8525094D01*
X-1514906Y8463071D01*
X-1514904Y8463070D01*
X-1514903Y8463069D01*
X-1483757Y8450168D01*
X-1433861Y8429500D01*
X-1433860Y8429500D01*
X-1346138Y8429500D01*
X-1265095Y8463070D01*
X-1203070Y8525095D01*
X-1200777Y8530630D01*
X-1192825Y8549829D01*
X9500Y8549829D01*
X9500Y8450170D01*
X47637Y8358101D01*
X118101Y8287637D01*
X210170Y8249500D01*
X210172Y8249500D01*
X309829Y8249500D01*
X347965Y8265296D01*
X401897Y8287636D01*
X401898Y8287637D01*
X401900Y8287638D01*
X472362Y8358100D01*
X472362Y8358101D01*
X472364Y8358103D01*
X502074Y8429829D01*
X11249500Y8429829D01*
X11249500Y8330170D01*
X11287637Y8238101D01*
X11358101Y8167637D01*
X11450170Y8129500D01*
X11450172Y8129500D01*
X11549829Y8129500D01*
X11587965Y8145296D01*
X11641897Y8167636D01*
X11641898Y8167637D01*
X11641900Y8167638D01*
X11712362Y8238100D01*
X11712362Y8238101D01*
X11712364Y8238103D01*
X11750500Y8330172D01*
X11750500Y8429828D01*
X11712364Y8521897D01*
X11712362Y8521899D01*
X11712362Y8521900D01*
X11641899Y8592362D01*
X11641897Y8592364D01*
X11549828Y8630500D01*
X11450172Y8630500D01*
X11358103Y8592364D01*
X11358101Y8592362D01*
X11358100Y8592362D01*
X11287638Y8521900D01*
X11287637Y8521898D01*
X11287636Y8521897D01*
X11265296Y8467965D01*
X11249500Y8429829D01*
X502074Y8429829D01*
X510500Y8450172D01*
X510500Y8549828D01*
X472364Y8641897D01*
X472362Y8641899D01*
X472362Y8641900D01*
X401899Y8712362D01*
X401897Y8712364D01*
X309828Y8750500D01*
X210172Y8750500D01*
X118103Y8712364D01*
X118101Y8712362D01*
X118100Y8712362D01*
X47638Y8641900D01*
X47637Y8641898D01*
X47636Y8641897D01*
X42915Y8630499D01*
X9500Y8549829D01*
X-1192825Y8549829D01*
X-1175206Y8592364D01*
X-1169500Y8606138D01*
X-1169500Y8693861D01*
X-1198579Y8764062D01*
X-1203069Y8774903D01*
X-1203070Y8774904D01*
X-1203071Y8774906D01*
X-1265094Y8836929D01*
X-1265095Y8836929D01*
X-1265097Y8836931D01*
X-1346140Y8870500D01*
X-1433860Y8870500D01*
X-1514903Y8836931D01*
X-1514905Y8836929D01*
X-1514906Y8836929D01*
X-1576929Y8774906D01*
X-1576929Y8774905D01*
X-1576931Y8774903D01*
X-1610500Y8693860D01*
X-8841690Y8693860D01*
X-8678708Y8856842D01*
X-8530628Y9060657D01*
X-8416259Y9285119D01*
X-8391739Y9360587D01*
X-8382238Y9389828D01*
X-3370500Y9389828D01*
X-3370500Y9290172D01*
X-3332364Y9198103D01*
X-3332362Y9198101D01*
X-3332362Y9198100D01*
X-3261900Y9127638D01*
X-3261898Y9127637D01*
X-3261897Y9127636D01*
X-3207965Y9105296D01*
X-3169829Y9089500D01*
X-3169828Y9089500D01*
X-3070170Y9089500D01*
X-2978101Y9127637D01*
X-2907637Y9198101D01*
X-2869500Y9290170D01*
X-2869500Y9389825D01*
X-2869500Y9389829D01*
X-2869501Y9389832D01*
X-2880300Y9415903D01*
X-2886069Y9429829D01*
X4929500Y9429829D01*
X4929500Y9330170D01*
X4948161Y9285119D01*
X4967189Y9239181D01*
X4967637Y9238101D01*
X5038101Y9167637D01*
X5130170Y9129500D01*
X5130172Y9129500D01*
X5229829Y9129500D01*
X5267965Y9145296D01*
X5321897Y9167636D01*
X5321898Y9167637D01*
X5321900Y9167638D01*
X5392362Y9238100D01*
X5392362Y9238101D01*
X5392364Y9238103D01*
X5430500Y9330172D01*
X5430500Y9429828D01*
X5392364Y9521897D01*
X5392362Y9521899D01*
X5392362Y9521900D01*
X5321899Y9592362D01*
X5321897Y9592364D01*
X5229828Y9630500D01*
X5130172Y9630500D01*
X5038103Y9592364D01*
X5038101Y9592362D01*
X5038100Y9592362D01*
X4967638Y9521900D01*
X4967637Y9521898D01*
X4967636Y9521897D01*
X4953637Y9488100D01*
X4929500Y9429829D01*
X-2886069Y9429829D01*
X-2896533Y9455091D01*
X-2907636Y9481897D01*
X-2907637Y9481898D01*
X-2907638Y9481900D01*
X-2978100Y9552362D01*
X-2978101Y9552362D01*
X-2978103Y9552364D01*
X-3070172Y9590500D01*
X-3169828Y9590500D01*
X-3261897Y9552364D01*
X-3261899Y9552362D01*
X-3261900Y9552362D01*
X-3332362Y9481900D01*
X-3332362Y9481899D01*
X-3332364Y9481897D01*
X-3370500Y9389828D01*
X-8382238Y9389828D01*
X-8349852Y9489500D01*
X-8338410Y9524714D01*
X-8338409Y9524717D01*
X-8302116Y9753861D01*
X3559500Y9753861D01*
X3559500Y9666138D01*
X3574263Y9630499D01*
X3590831Y9590499D01*
X3593070Y9585095D01*
X3655095Y9523070D01*
X3655096Y9523069D01*
X3655097Y9523069D01*
X3669000Y9517310D01*
X3736138Y9489500D01*
X3736140Y9489500D01*
X3823861Y9489500D01*
X3857430Y9503405D01*
X3904903Y9523069D01*
X3904904Y9523070D01*
X3904906Y9523071D01*
X3966929Y9585094D01*
X3966929Y9585095D01*
X3966931Y9585097D01*
X4000500Y9666140D01*
X4000500Y9679829D01*
X6059500Y9679829D01*
X6059500Y9580170D01*
X6083637Y9521900D01*
X6097057Y9489500D01*
X6097637Y9488101D01*
X6168101Y9417637D01*
X6260170Y9379500D01*
X6260172Y9379500D01*
X6359829Y9379500D01*
X6432969Y9409796D01*
X6451897Y9417636D01*
X6451898Y9417637D01*
X6451900Y9417638D01*
X6522362Y9488100D01*
X6522362Y9488101D01*
X6522364Y9488103D01*
X6537610Y9524910D01*
X8054500Y9524910D01*
X8054500Y9455089D01*
X8081219Y9390585D01*
X8130585Y9341219D01*
X8195089Y9314500D01*
X8195091Y9314500D01*
X8264910Y9314500D01*
X8302750Y9330174D01*
X8329413Y9341218D01*
X8329414Y9341219D01*
X8329416Y9341220D01*
X8378780Y9390584D01*
X8378780Y9390585D01*
X8378782Y9390587D01*
X8405500Y9455091D01*
X8405500Y9524909D01*
X8378782Y9589413D01*
X8378780Y9589415D01*
X8378780Y9589416D01*
X8329415Y9638780D01*
X8329413Y9638782D01*
X8264909Y9665500D01*
X8195091Y9665500D01*
X8130587Y9638782D01*
X8130585Y9638780D01*
X8130584Y9638780D01*
X8081220Y9589416D01*
X8081219Y9589414D01*
X8081218Y9589413D01*
X8068793Y9559416D01*
X8054500Y9524910D01*
X6537610Y9524910D01*
X6551902Y9559413D01*
X6560498Y9580167D01*
X6560499Y9580170D01*
X6560500Y9580172D01*
X6560500Y9679828D01*
X6522364Y9771897D01*
X6522362Y9771899D01*
X6522362Y9771900D01*
X6460224Y9834038D01*
X6451899Y9842362D01*
X6451897Y9842364D01*
X6399998Y9863861D01*
X10139500Y9863861D01*
X10139500Y9776138D01*
X10173070Y9695095D01*
X10235095Y9633070D01*
X10316138Y9599500D01*
X10316140Y9599500D01*
X10403861Y9599500D01*
X10437430Y9613405D01*
X10484903Y9633069D01*
X10484904Y9633070D01*
X10484906Y9633071D01*
X10546929Y9695094D01*
X10546929Y9695095D01*
X10546931Y9695097D01*
X10580500Y9776140D01*
X10580500Y9863860D01*
X10546931Y9944903D01*
X10546929Y9944905D01*
X10546929Y9944906D01*
X10484905Y10006929D01*
X10484903Y10006931D01*
X10403860Y10040500D01*
X10316140Y10040500D01*
X10235097Y10006931D01*
X10235095Y10006929D01*
X10235094Y10006929D01*
X10173071Y9944906D01*
X10173070Y9944904D01*
X10173069Y9944903D01*
X10167103Y9930499D01*
X10139500Y9863861D01*
X6399998Y9863861D01*
X6359828Y9880500D01*
X6260172Y9880500D01*
X6168103Y9842364D01*
X6168101Y9842362D01*
X6168100Y9842362D01*
X6097638Y9771900D01*
X6097637Y9771898D01*
X6097636Y9771897D01*
X6090165Y9753860D01*
X6059500Y9679829D01*
X4000500Y9679829D01*
X4000500Y9753860D01*
X3966931Y9834903D01*
X3966929Y9834905D01*
X3966929Y9834906D01*
X3904905Y9896929D01*
X3904903Y9896931D01*
X3823860Y9930500D01*
X3736140Y9930500D01*
X3655097Y9896931D01*
X3655095Y9896929D01*
X3655094Y9896929D01*
X3593071Y9834906D01*
X3593070Y9834904D01*
X3593069Y9834903D01*
X3578617Y9800012D01*
X3559500Y9753861D01*
X-8302116Y9753861D01*
X-8300138Y9766351D01*
X-8300137Y9766351D01*
X-8299000Y9773535D01*
X-8299000Y10025461D01*
X-8338409Y10274282D01*
X-8338410Y10274285D01*
X-8416259Y10513880D01*
X-8495718Y10669828D01*
X-3030500Y10669828D01*
X-3030500Y10570172D01*
X-2992364Y10478103D01*
X-2992362Y10478101D01*
X-2992362Y10478100D01*
X-2921900Y10407638D01*
X-2921898Y10407637D01*
X-2921897Y10407636D01*
X-2867965Y10385296D01*
X-2829829Y10369500D01*
X-2829828Y10369500D01*
X-2730170Y10369500D01*
X-2638101Y10407637D01*
X-2625909Y10419829D01*
X269500Y10419829D01*
X269500Y10320170D01*
X307637Y10228101D01*
X378101Y10157637D01*
X470170Y10119500D01*
X470172Y10119500D01*
X569829Y10119500D01*
X607965Y10135296D01*
X661897Y10157636D01*
X661898Y10157637D01*
X661900Y10157638D01*
X732362Y10228100D01*
X732362Y10228101D01*
X732364Y10228103D01*
X770500Y10320172D01*
X770500Y10419828D01*
X732364Y10511897D01*
X732362Y10511899D01*
X732362Y10511900D01*
X661899Y10582362D01*
X661897Y10582364D01*
X571448Y10619829D01*
X6199500Y10619829D01*
X6199500Y10520170D01*
X6221261Y10467636D01*
X6237057Y10429500D01*
X6237637Y10428101D01*
X6308101Y10357637D01*
X6400170Y10319500D01*
X6400172Y10319500D01*
X6499829Y10319500D01*
X6537965Y10335296D01*
X6591897Y10357636D01*
X6591898Y10357637D01*
X6591900Y10357638D01*
X6662362Y10428100D01*
X6662362Y10428101D01*
X6662364Y10428103D01*
X6700500Y10520172D01*
X6700500Y10619828D01*
X6662364Y10711897D01*
X6662362Y10711899D01*
X6662362Y10711900D01*
X6591899Y10782362D01*
X6591897Y10782364D01*
X6499828Y10820500D01*
X6400172Y10820500D01*
X6308103Y10782364D01*
X6308101Y10782362D01*
X6308100Y10782362D01*
X6237638Y10711900D01*
X6237637Y10711898D01*
X6237636Y10711897D01*
X6220211Y10669829D01*
X6199500Y10619829D01*
X571448Y10619829D01*
X569828Y10620500D01*
X470172Y10620500D01*
X378103Y10582364D01*
X378101Y10582362D01*
X378100Y10582362D01*
X307638Y10511900D01*
X307637Y10511898D01*
X307636Y10511897D01*
X289303Y10467637D01*
X269500Y10419829D01*
X-2625909Y10419829D01*
X-2567637Y10478101D01*
X-2529500Y10570170D01*
X-2529500Y10669829D01*
X-2537008Y10687954D01*
X-2554353Y10729828D01*
X-1240500Y10729828D01*
X-1240500Y10630172D01*
X-1202364Y10538103D01*
X-1202362Y10538101D01*
X-1202362Y10538100D01*
X-1131900Y10467638D01*
X-1131898Y10467637D01*
X-1131897Y10467636D01*
X-1077965Y10445296D01*
X-1039829Y10429500D01*
X-1039828Y10429500D01*
X-940170Y10429500D01*
X-848101Y10467637D01*
X-848099Y10467638D01*
X-777638Y10538100D01*
X-777637Y10538101D01*
X-739500Y10630170D01*
X-739500Y10729829D01*
X-761261Y10782364D01*
X-777636Y10821897D01*
X-777637Y10821898D01*
X-777638Y10821900D01*
X-848100Y10892362D01*
X-848101Y10892362D01*
X-848103Y10892364D01*
X-940172Y10930500D01*
X-1039828Y10930500D01*
X-1131897Y10892364D01*
X-1131899Y10892362D01*
X-1131900Y10892362D01*
X-1202362Y10821900D01*
X-1202362Y10821899D01*
X-1202364Y10821897D01*
X-1240500Y10729828D01*
X-2554353Y10729828D01*
X-2567636Y10761897D01*
X-2567637Y10761898D01*
X-2567638Y10761900D01*
X-2638100Y10832362D01*
X-2638101Y10832362D01*
X-2638103Y10832364D01*
X-2730172Y10870500D01*
X-2829828Y10870500D01*
X-2921897Y10832364D01*
X-2921899Y10832362D01*
X-2921900Y10832362D01*
X-2992362Y10761900D01*
X-2992362Y10761899D01*
X-2992364Y10761897D01*
X-3030500Y10669828D01*
X-8495718Y10669828D01*
X-8530628Y10738342D01*
X-8544646Y10757636D01*
X-8678707Y10942156D01*
X-8678708Y10942157D01*
X-8678712Y10942162D01*
X-8856838Y11120288D01*
X-8856842Y11120291D01*
X-8856844Y11120293D01*
X-8890725Y11144909D01*
X-8225500Y11144909D01*
X-8225500Y11075091D01*
X-8198782Y11010587D01*
X-8198780Y11010585D01*
X-8198780Y11010584D01*
X-8149416Y10961220D01*
X-8149414Y10961219D01*
X-8149413Y10961218D01*
X-8111628Y10945567D01*
X-8084910Y10934500D01*
X-8084909Y10934500D01*
X-8015089Y10934500D01*
X-7956002Y10958975D01*
X-7950587Y10961218D01*
X-7950586Y10961218D01*
X-7950585Y10961219D01*
X-7901219Y11010585D01*
X-7897390Y11019828D01*
X-5650500Y11019828D01*
X-5650500Y10920172D01*
X-5612364Y10828103D01*
X-5612362Y10828101D01*
X-5612362Y10828100D01*
X-5541900Y10757638D01*
X-5541898Y10757637D01*
X-5541897Y10757636D01*
X-5495324Y10738345D01*
X-5449829Y10719500D01*
X-5449828Y10719500D01*
X-5350174Y10719500D01*
X-5350172Y10719500D01*
X-5350170Y10719500D01*
X-5350167Y10719501D01*
X-5349149Y10719922D01*
X-5349148Y10719924D01*
X-5258101Y10757637D01*
X-5187637Y10828101D01*
X-5149500Y10920170D01*
X-5149500Y11004910D01*
X4014500Y11004910D01*
X4014500Y10935089D01*
X4041219Y10870585D01*
X4090585Y10821219D01*
X4090586Y10821218D01*
X4090587Y10821218D01*
X4092323Y10820499D01*
X4155089Y10794500D01*
X4155091Y10794500D01*
X4224910Y10794500D01*
X4251628Y10805567D01*
X4289413Y10821218D01*
X4289414Y10821219D01*
X4289416Y10821220D01*
X4338780Y10870584D01*
X4338780Y10870585D01*
X4338782Y10870587D01*
X4365500Y10935091D01*
X4365500Y11004909D01*
X4338782Y11069413D01*
X4338780Y11069415D01*
X4338780Y11069416D01*
X4289415Y11118780D01*
X4289413Y11118782D01*
X4224909Y11145500D01*
X4155091Y11145500D01*
X4090587Y11118782D01*
X4090585Y11118780D01*
X4090584Y11118780D01*
X4041220Y11069416D01*
X4041219Y11069414D01*
X4041218Y11069413D01*
X4030446Y11043406D01*
X4014500Y11004910D01*
X-5149500Y11004910D01*
X-5149500Y11019829D01*
X-5170040Y11069416D01*
X-5187636Y11111897D01*
X-5187637Y11111898D01*
X-5187638Y11111900D01*
X-5258100Y11182362D01*
X-5258101Y11182362D01*
X-5258103Y11182364D01*
X-5350172Y11220500D01*
X-5449828Y11220500D01*
X-5541897Y11182364D01*
X-5541899Y11182362D01*
X-5541900Y11182362D01*
X-5612362Y11111900D01*
X-5612362Y11111899D01*
X-5612364Y11111897D01*
X-5650500Y11019828D01*
X-7897390Y11019828D01*
X-7887624Y11043406D01*
X-7887623Y11043406D01*
X-7874501Y11075086D01*
X-7874500Y11075093D01*
X-7874500Y11144910D01*
X-7892390Y11188100D01*
X-7901218Y11209413D01*
X-7901219Y11209414D01*
X-7901220Y11209416D01*
X-7950584Y11258780D01*
X-7950585Y11258780D01*
X-7950587Y11258782D01*
X-8015091Y11285500D01*
X-8084909Y11285500D01*
X-8149413Y11258782D01*
X-8149415Y11258780D01*
X-8149416Y11258780D01*
X-8198780Y11209416D01*
X-8198780Y11209415D01*
X-8198782Y11209413D01*
X-8225500Y11144909D01*
X-8890725Y11144909D01*
X-9060655Y11268370D01*
X-9285121Y11382741D01*
X-9522370Y11459828D01*
X-4880500Y11459828D01*
X-4880500Y11360172D01*
X-4842364Y11268103D01*
X-4842362Y11268101D01*
X-4842362Y11268100D01*
X-4771900Y11197638D01*
X-4771898Y11197637D01*
X-4771897Y11197636D01*
X-4735022Y11182362D01*
X-4679829Y11159500D01*
X-4679828Y11159500D01*
X-4580170Y11159500D01*
X-4488101Y11197637D01*
X-4417637Y11268101D01*
X-4417525Y11268370D01*
X-4410430Y11285500D01*
X-4379500Y11360170D01*
X-4379500Y11379828D01*
X-240500Y11379828D01*
X-240500Y11280172D01*
X-202364Y11188103D01*
X-202362Y11188101D01*
X-202362Y11188100D01*
X-131900Y11117638D01*
X-131898Y11117637D01*
X-131897Y11117636D01*
X-77965Y11095296D01*
X-39829Y11079500D01*
X-39828Y11079500D01*
X59829Y11079500D01*
X97965Y11095296D01*
X151897Y11117636D01*
X151898Y11117637D01*
X151900Y11117638D01*
X222362Y11188100D01*
X222362Y11188101D01*
X222364Y11188103D01*
X260500Y11280172D01*
X260500Y11379828D01*
X258395Y11384910D01*
X2064500Y11384910D01*
X2064500Y11315089D01*
X2091219Y11250585D01*
X2140585Y11201219D01*
X2140586Y11201218D01*
X2140587Y11201218D01*
X2149235Y11197636D01*
X2205089Y11174500D01*
X2205091Y11174500D01*
X2274910Y11174500D01*
X2307750Y11188103D01*
X2339413Y11201218D01*
X2339414Y11201219D01*
X2339416Y11201220D01*
X2388780Y11250584D01*
X2388780Y11250585D01*
X2388782Y11250587D01*
X2415500Y11315091D01*
X2415500Y11384909D01*
X2388782Y11449413D01*
X2368366Y11469829D01*
X2959500Y11469829D01*
X2959500Y11370170D01*
X2980211Y11320170D01*
X2994572Y11285499D01*
X2997637Y11278101D01*
X3068101Y11207637D01*
X3160170Y11169500D01*
X3160172Y11169500D01*
X3259829Y11169500D01*
X3297965Y11185296D01*
X3351897Y11207636D01*
X3351898Y11207637D01*
X3351900Y11207638D01*
X3422362Y11278100D01*
X3422362Y11278101D01*
X3422364Y11278103D01*
X3460500Y11370172D01*
X3460500Y11419829D01*
X5379500Y11419829D01*
X5379500Y11320170D01*
X5417637Y11228101D01*
X5488101Y11157637D01*
X5580170Y11119500D01*
X5580172Y11119500D01*
X5679829Y11119500D01*
X5717965Y11135296D01*
X5771897Y11157636D01*
X5771898Y11157637D01*
X5771900Y11157638D01*
X5842362Y11228100D01*
X5842362Y11228101D01*
X5842364Y11228103D01*
X5880500Y11320172D01*
X5880500Y11419828D01*
X5872215Y11439829D01*
X7859500Y11439829D01*
X7859500Y11340170D01*
X7884353Y11280170D01*
X7893213Y11258780D01*
X7897637Y11248101D01*
X7968101Y11177637D01*
X8060170Y11139500D01*
X8060172Y11139500D01*
X8159829Y11139500D01*
X8203617Y11157638D01*
X8251897Y11177636D01*
X8251898Y11177637D01*
X8251900Y11177638D01*
X8322362Y11248100D01*
X8322362Y11248101D01*
X8322364Y11248103D01*
X8360500Y11340172D01*
X8360500Y11439828D01*
X8345969Y11474910D01*
X9674500Y11474910D01*
X9674500Y11405089D01*
X9701219Y11340585D01*
X9750585Y11291219D01*
X9815089Y11264500D01*
X9815091Y11264500D01*
X9884910Y11264500D01*
X9922750Y11280174D01*
X9949413Y11291218D01*
X9949414Y11291219D01*
X9949416Y11291220D01*
X9998780Y11340584D01*
X9998780Y11340585D01*
X9998782Y11340587D01*
X10025500Y11405091D01*
X10025500Y11474909D01*
X9998782Y11539413D01*
X9998780Y11539415D01*
X9998780Y11539416D01*
X9949415Y11588780D01*
X9949413Y11588782D01*
X9884909Y11615500D01*
X9815091Y11615500D01*
X9750587Y11588782D01*
X9750585Y11588780D01*
X9750584Y11588780D01*
X9701220Y11539416D01*
X9701219Y11539414D01*
X9701218Y11539413D01*
X9695455Y11525499D01*
X9674500Y11474910D01*
X8345969Y11474910D01*
X8322364Y11531897D01*
X8322362Y11531898D01*
X8322362Y11531900D01*
X8251899Y11602362D01*
X8251897Y11602364D01*
X8159828Y11640500D01*
X8060172Y11640500D01*
X7968103Y11602364D01*
X7968101Y11602362D01*
X7968100Y11602362D01*
X7897638Y11531900D01*
X7897637Y11531898D01*
X7897636Y11531897D01*
X7883919Y11498780D01*
X7859500Y11439829D01*
X5872215Y11439829D01*
X5842364Y11511897D01*
X5842362Y11511899D01*
X5842362Y11511900D01*
X5771899Y11582362D01*
X5771897Y11582364D01*
X5679828Y11620500D01*
X5580172Y11620500D01*
X5488103Y11582364D01*
X5488101Y11582362D01*
X5488100Y11582362D01*
X5417638Y11511900D01*
X5417637Y11511898D01*
X5417636Y11511897D01*
X5412204Y11498782D01*
X5379500Y11419829D01*
X3460500Y11419829D01*
X3460500Y11469828D01*
X3422364Y11561897D01*
X3422362Y11561899D01*
X3422362Y11561900D01*
X3351899Y11632362D01*
X3351897Y11632364D01*
X3259828Y11670500D01*
X3160172Y11670500D01*
X3068103Y11632364D01*
X3068101Y11632362D01*
X3068100Y11632362D01*
X2997638Y11561900D01*
X2997637Y11561898D01*
X2997636Y11561897D01*
X2988323Y11539413D01*
X2959500Y11469829D01*
X2368366Y11469829D01*
X2339413Y11498782D01*
X2274909Y11525500D01*
X2205091Y11525500D01*
X2140587Y11498782D01*
X2140585Y11498780D01*
X2140584Y11498780D01*
X2091220Y11449416D01*
X2091219Y11449414D01*
X2091218Y11449413D01*
X2078228Y11418052D01*
X2064500Y11384910D01*
X258395Y11384910D01*
X222364Y11471897D01*
X222362Y11471899D01*
X222362Y11471900D01*
X151899Y11542362D01*
X151897Y11542364D01*
X59828Y11580500D01*
X-39828Y11580500D01*
X-131897Y11542364D01*
X-131899Y11542362D01*
X-131900Y11542362D01*
X-202362Y11471900D01*
X-202362Y11471899D01*
X-202364Y11471897D01*
X-240500Y11379828D01*
X-4379500Y11379828D01*
X-4379500Y11459829D01*
X-4409352Y11531897D01*
X-4417636Y11551897D01*
X-4417637Y11551898D01*
X-4417638Y11551900D01*
X-4488100Y11622362D01*
X-4488101Y11622362D01*
X-4488103Y11622364D01*
X-4580172Y11660500D01*
X-4679828Y11660500D01*
X-4771897Y11622364D01*
X-4771899Y11622362D01*
X-4771900Y11622362D01*
X-4842362Y11551900D01*
X-4842362Y11551899D01*
X-4842364Y11551897D01*
X-4880500Y11459828D01*
X-9522370Y11459828D01*
X-9524715Y11460590D01*
X-9773538Y11500000D01*
X-10025462Y11500000D01*
X-10274285Y11460590D01*
X-10513879Y11382741D01*
X-10738345Y11268370D01*
X-10942156Y11120293D01*
X-10942159Y11120289D01*
X-10942162Y11120288D01*
X-11120288Y10942162D01*
X-11120289Y10942159D01*
X-11120293Y10942156D01*
X-11268370Y10738345D01*
X-11382741Y10513879D01*
X-11460590Y10274285D01*
X-11500000Y10025462D01*
X-13099569Y10025462D01*
X-13077316Y10056151D01*
X-13031153Y10119815D01*
X-13029170Y10122368D01*
X-12334994Y10957720D01*
X-12332842Y10960143D01*
X-11584926Y11747832D01*
X-11582624Y11750101D01*
X-11062820Y12229828D01*
X-7370500Y12229828D01*
X-7370500Y12130172D01*
X-7332364Y12038103D01*
X-7332362Y12038101D01*
X-7332362Y12038100D01*
X-7261900Y11967638D01*
X-7261898Y11967637D01*
X-7261897Y11967636D01*
X-7207965Y11945296D01*
X-7169829Y11929500D01*
X-7169828Y11929500D01*
X-7070170Y11929500D01*
X-6978101Y11967637D01*
X-6907637Y12038101D01*
X-6869500Y12130170D01*
X-6869500Y12229825D01*
X-6869501Y12229829D01*
X-6876256Y12246138D01*
X-6906823Y12319935D01*
X-6907636Y12321897D01*
X-6907638Y12321900D01*
X-6919599Y12333861D01*
X6469500Y12333861D01*
X6469500Y12246138D01*
X6503070Y12165095D01*
X6565095Y12103070D01*
X6646138Y12069500D01*
X6646140Y12069500D01*
X6733861Y12069500D01*
X6767430Y12083405D01*
X6814903Y12103069D01*
X6814904Y12103070D01*
X6814906Y12103071D01*
X6876929Y12165094D01*
X6876929Y12165095D01*
X6876931Y12165097D01*
X6910500Y12246140D01*
X6910500Y12333860D01*
X6876931Y12414903D01*
X6876929Y12414905D01*
X6876929Y12414906D01*
X6814905Y12476929D01*
X6814903Y12476931D01*
X6733860Y12510500D01*
X6646140Y12510500D01*
X6565097Y12476931D01*
X6565095Y12476929D01*
X6565094Y12476929D01*
X6503071Y12414906D01*
X6503070Y12414904D01*
X6503069Y12414903D01*
X6483405Y12367430D01*
X6469500Y12333861D01*
X-6919599Y12333861D01*
X-6978100Y12392362D01*
X-6978101Y12392362D01*
X-6978103Y12392364D01*
X-7070172Y12430500D01*
X-7169828Y12430500D01*
X-7261897Y12392364D01*
X-7261899Y12392362D01*
X-7261900Y12392362D01*
X-7332362Y12321900D01*
X-7332362Y12321899D01*
X-7332364Y12321897D01*
X-7370500Y12229828D01*
X-11062820Y12229828D01*
X-10808100Y12464909D01*
X-7935500Y12464909D01*
X-7935500Y12395091D01*
X-7908782Y12330587D01*
X-7908780Y12330585D01*
X-7908780Y12330584D01*
X-7859416Y12281220D01*
X-7859414Y12281219D01*
X-7859413Y12281218D01*
X-7821628Y12265567D01*
X-7794910Y12254500D01*
X-7794909Y12254500D01*
X-7725093Y12254500D01*
X-7725091Y12254500D01*
X-7725089Y12254500D01*
X-7725087Y12254501D01*
X-7663713Y12279922D01*
X-7663712Y12279923D01*
X-7660587Y12281218D01*
X-7660586Y12281218D01*
X-7660585Y12281219D01*
X-7611219Y12330585D01*
X-7584500Y12395089D01*
X-7584500Y12464910D01*
X-7601829Y12506746D01*
X-7611218Y12529413D01*
X-7611219Y12529414D01*
X-7611220Y12529416D01*
X-7660584Y12578780D01*
X-7660585Y12578780D01*
X-7660587Y12578782D01*
X-7725091Y12605500D01*
X-7794909Y12605500D01*
X-7859413Y12578782D01*
X-7859415Y12578780D01*
X-7859416Y12578780D01*
X-7908780Y12529416D01*
X-7908780Y12529415D01*
X-7908782Y12529413D01*
X-7935500Y12464909D01*
X-10808100Y12464909D01*
X-10784409Y12486773D01*
X-10781959Y12488888D01*
X-10758473Y12507850D01*
X-10758463Y12507860D01*
X-10272991Y12899829D01*
X3689500Y12899829D01*
X3689500Y12800170D01*
X3727637Y12708101D01*
X3798101Y12637637D01*
X3890170Y12599500D01*
X3890172Y12599500D01*
X3989829Y12599500D01*
X4027965Y12615296D01*
X4081897Y12637636D01*
X4081898Y12637637D01*
X4081900Y12637638D01*
X4152362Y12708100D01*
X4152362Y12708101D01*
X4152364Y12708103D01*
X4190500Y12800172D01*
X4190500Y12899828D01*
X4152364Y12991897D01*
X4152362Y12991899D01*
X4152362Y12991900D01*
X4081899Y13062362D01*
X4081897Y13062364D01*
X3989828Y13100500D01*
X3890172Y13100500D01*
X3798103Y13062364D01*
X3798101Y13062362D01*
X3798100Y13062362D01*
X3727638Y12991900D01*
X3727637Y12991898D01*
X3727636Y12991897D01*
X3707291Y12942779D01*
X3689500Y12899829D01*
X-10272991Y12899829D01*
X-10219795Y12942779D01*
X-9936903Y13171185D01*
X-9934320Y13173133D01*
X-9590859Y13414828D01*
X-1925500Y13414828D01*
X-1925500Y13315172D01*
X-1887364Y13223103D01*
X-1887362Y13223101D01*
X-1887362Y13223100D01*
X-1816900Y13152638D01*
X-1816898Y13152637D01*
X-1816897Y13152636D01*
X-1762965Y13130296D01*
X-1724829Y13114500D01*
X-1724828Y13114500D01*
X-1625170Y13114500D01*
X-1533101Y13152637D01*
X-1462637Y13223101D01*
X-1424500Y13315170D01*
X-1424500Y13414829D01*
X-1443138Y13459825D01*
X-1462636Y13506897D01*
X-1462637Y13506898D01*
X-1462638Y13506900D01*
X-1533100Y13577362D01*
X-1533101Y13577362D01*
X-1533103Y13577364D01*
X-1625172Y13615500D01*
X-1724828Y13615500D01*
X-1816897Y13577364D01*
X-1816899Y13577362D01*
X-1816900Y13577362D01*
X-1887362Y13506900D01*
X-1887362Y13506899D01*
X-1887364Y13506897D01*
X-1925500Y13414828D01*
X-9590859Y13414828D01*
X-9527055Y13459727D01*
X-9527052Y13459727D01*
X-9228488Y13669829D01*
X599500Y13669829D01*
X599500Y13570170D01*
X620489Y13519500D01*
X635439Y13483406D01*
X637637Y13478101D01*
X708101Y13407637D01*
X800170Y13369500D01*
X800172Y13369500D01*
X899829Y13369500D01*
X937965Y13385296D01*
X991897Y13407636D01*
X991898Y13407637D01*
X991900Y13407638D01*
X1044091Y13459829D01*
X2219500Y13459829D01*
X2219500Y13360170D01*
X2257637Y13268101D01*
X2328101Y13197637D01*
X2420170Y13159500D01*
X2420172Y13159500D01*
X2519829Y13159500D01*
X2557965Y13175296D01*
X2611897Y13197636D01*
X2611898Y13197637D01*
X2611900Y13197638D01*
X2682362Y13268100D01*
X2682362Y13268101D01*
X2682364Y13268103D01*
X2720500Y13360172D01*
X2720500Y13453861D01*
X4589500Y13453861D01*
X4589500Y13366138D01*
X4623070Y13285095D01*
X4685095Y13223070D01*
X4766138Y13189500D01*
X4766140Y13189500D01*
X4853861Y13189500D01*
X4915234Y13214922D01*
X4934903Y13223069D01*
X4934904Y13223070D01*
X4934906Y13223071D01*
X4996929Y13285094D01*
X4996929Y13285095D01*
X4996931Y13285097D01*
X5030500Y13366140D01*
X5030500Y13453860D01*
X4996931Y13534903D01*
X4996929Y13534905D01*
X4996929Y13534906D01*
X4934905Y13596929D01*
X4934903Y13596931D01*
X4853860Y13630500D01*
X4766140Y13630500D01*
X4685097Y13596931D01*
X4685095Y13596929D01*
X4685094Y13596929D01*
X4623071Y13534906D01*
X4623070Y13534904D01*
X4623069Y13534903D01*
X4616689Y13519500D01*
X4589500Y13453861D01*
X2720500Y13453861D01*
X2720500Y13459828D01*
X2682364Y13551897D01*
X2682362Y13551899D01*
X2682362Y13551900D01*
X2611899Y13622362D01*
X2611897Y13622364D01*
X2519828Y13660500D01*
X2420172Y13660500D01*
X2328103Y13622364D01*
X2328101Y13622362D01*
X2328100Y13622362D01*
X2257638Y13551900D01*
X2257637Y13551898D01*
X2257636Y13551897D01*
X2248808Y13530584D01*
X2219500Y13459829D01*
X1044091Y13459829D01*
X1062362Y13478100D01*
X1062363Y13478102D01*
X1062364Y13478103D01*
X1100500Y13570172D01*
X1100500Y13669828D01*
X1062364Y13761897D01*
X1062362Y13761899D01*
X1062362Y13761900D01*
X1034256Y13790006D01*
X1004432Y13819829D01*
X3459500Y13819829D01*
X3459500Y13720170D01*
X3497637Y13628101D01*
X3568101Y13557637D01*
X3660170Y13519500D01*
X3660172Y13519500D01*
X3759829Y13519500D01*
X3797965Y13535296D01*
X3851897Y13557636D01*
X3851898Y13557637D01*
X3851900Y13557638D01*
X3922362Y13628100D01*
X3922362Y13628101D01*
X3922364Y13628103D01*
X3937610Y13664910D01*
X6564500Y13664910D01*
X6564500Y13595089D01*
X6591219Y13530585D01*
X6640585Y13481219D01*
X6640586Y13481218D01*
X6640587Y13481218D01*
X6648110Y13478102D01*
X6705089Y13454500D01*
X6705091Y13454500D01*
X6774910Y13454500D01*
X6801628Y13465567D01*
X6839413Y13481218D01*
X6839414Y13481219D01*
X6839416Y13481220D01*
X6888780Y13530584D01*
X6888780Y13530585D01*
X6888782Y13530587D01*
X6915500Y13595091D01*
X6915500Y13664909D01*
X6888782Y13729413D01*
X6888780Y13729415D01*
X6888780Y13729416D01*
X6839415Y13778780D01*
X6839413Y13778782D01*
X6774909Y13805500D01*
X6705091Y13805500D01*
X6640587Y13778782D01*
X6640585Y13778780D01*
X6640584Y13778780D01*
X6591220Y13729416D01*
X6591219Y13729414D01*
X6591218Y13729413D01*
X6587288Y13719924D01*
X6564500Y13664910D01*
X3937610Y13664910D01*
X3960500Y13720172D01*
X3960500Y13819828D01*
X3922364Y13911897D01*
X3922362Y13911899D01*
X3922362Y13911900D01*
X3851899Y13982362D01*
X3851897Y13982364D01*
X3759828Y14020500D01*
X3660172Y14020500D01*
X3568103Y13982364D01*
X3568101Y13982362D01*
X3568100Y13982362D01*
X3497638Y13911900D01*
X3497637Y13911898D01*
X3497636Y13911897D01*
X3479496Y13868103D01*
X3459500Y13819829D01*
X1004432Y13819829D01*
X991899Y13832362D01*
X991897Y13832364D01*
X899828Y13870500D01*
X800172Y13870500D01*
X708103Y13832364D01*
X708101Y13832362D01*
X708100Y13832362D01*
X637638Y13761900D01*
X637637Y13761898D01*
X637636Y13761897D01*
X615296Y13707965D01*
X599500Y13669829D01*
X-9228488Y13669829D01*
X-9046007Y13798242D01*
X-9043301Y13800016D01*
X-8616835Y14059828D01*
X-3580500Y14059828D01*
X-3580500Y13960172D01*
X-3542364Y13868103D01*
X-3542362Y13868101D01*
X-3542362Y13868100D01*
X-3471900Y13797638D01*
X-3471898Y13797637D01*
X-3471897Y13797636D01*
X-3453476Y13790006D01*
X-3379829Y13759500D01*
X-3379828Y13759500D01*
X-3280170Y13759500D01*
X-3188101Y13797637D01*
X-3117637Y13868101D01*
X-3079500Y13960170D01*
X-3079500Y13999828D01*
X-1640500Y13999828D01*
X-1640500Y13900172D01*
X-1602364Y13808103D01*
X-1602362Y13808101D01*
X-1602362Y13808100D01*
X-1531900Y13737638D01*
X-1531898Y13737637D01*
X-1531897Y13737636D01*
X-1489735Y13720172D01*
X-1439829Y13699500D01*
X-1439828Y13699500D01*
X-1340174Y13699500D01*
X-1340172Y13699500D01*
X-1340170Y13699500D01*
X-1340168Y13699501D01*
X-1290865Y13719922D01*
X-1290864Y13719924D01*
X-1290260Y13720174D01*
X-1248103Y13737636D01*
X-1248102Y13737636D01*
X-1248101Y13737637D01*
X-1177637Y13808101D01*
X-1139500Y13900170D01*
X-1139500Y13999829D01*
X-1155296Y14037965D01*
X-1177636Y14091897D01*
X-1177637Y14091898D01*
X-1177638Y14091900D01*
X-1248100Y14162362D01*
X-1248101Y14162362D01*
X-1248103Y14162364D01*
X-1340172Y14200500D01*
X-1439828Y14200500D01*
X-1531897Y14162364D01*
X-1531899Y14162362D01*
X-1531900Y14162362D01*
X-1602362Y14091900D01*
X-1602362Y14091899D01*
X-1602364Y14091897D01*
X-1640500Y13999828D01*
X-3079500Y13999828D01*
X-3079500Y14059829D01*
X-3098832Y14106500D01*
X-3117636Y14151897D01*
X-3117637Y14151898D01*
X-3117638Y14151900D01*
X-3188100Y14222362D01*
X-3188101Y14222362D01*
X-3188103Y14222364D01*
X-3280172Y14260500D01*
X-3379828Y14260500D01*
X-3471897Y14222364D01*
X-3471899Y14222362D01*
X-3471900Y14222362D01*
X-3542362Y14151900D01*
X-3542362Y14151899D01*
X-3542364Y14151897D01*
X-3580500Y14059828D01*
X-8616835Y14059828D01*
X-8540226Y14106500D01*
X-8115704Y14365128D01*
X-8112889Y14366718D01*
X-7771597Y14544910D01*
X5324500Y14544910D01*
X5324500Y14475089D01*
X5351219Y14410585D01*
X5400585Y14361219D01*
X5465089Y14334500D01*
X5465091Y14334500D01*
X5534910Y14334500D01*
X5561628Y14345567D01*
X5599413Y14361218D01*
X5599414Y14361219D01*
X5599416Y14361220D01*
X5648780Y14410584D01*
X5648780Y14410585D01*
X5648782Y14410587D01*
X5675500Y14475091D01*
X5675500Y14544909D01*
X5648782Y14609413D01*
X5648780Y14609415D01*
X5648780Y14609416D01*
X5599415Y14658780D01*
X5599413Y14658782D01*
X5534909Y14685500D01*
X5465091Y14685500D01*
X5400587Y14658782D01*
X5400585Y14658780D01*
X5400584Y14658780D01*
X5351220Y14609416D01*
X5351219Y14609414D01*
X5351218Y14609413D01*
X5335567Y14571628D01*
X5324500Y14544910D01*
X-7771597Y14544910D01*
X-7679163Y14593171D01*
X-7150044Y14869430D01*
X-7147129Y14870832D01*
X-6153251Y15308889D01*
X-6150246Y15310096D01*
X-5129595Y15681567D01*
X-5126519Y15682573D01*
X-4083572Y15985840D01*
X-4080441Y15986640D01*
X-3019669Y16220528D01*
X-3016483Y16221120D01*
X-1965840Y16380843D01*
X-1958475Y16381400D01*
X1958470Y16381400D01*
X1965832Y16380843D01*
G37*
%TD.AperFunction*%
%TD*%
M02*
