%TF.GenerationSoftware,KiCad,Pcbnew,10.0.3*%
%TF.CreationDate,2026-08-07T12:01:27+02:00*%
%TF.ProjectId,wakeup_board,77616b65-7570-45f6-926f-6172642e6b69,rev?*%
%TF.SameCoordinates,Original*%
%TF.FileFunction,Copper,L5,Inr*%
%TF.FilePolarity,Positive*%
%FSLAX46Y46*%
G04 Gerber Fmt 4.6, Leading zero omitted, Abs format (unit mm)*
G04 Created by KiCad (PCBNEW 10.0.3) date 2026-08-07 12:01:27*
%MOMM*%
%LPD*%
G01*
G04 APERTURE LIST*
%TA.AperFunction,ViaPad*%
%ADD10C,0.300000*%
%TD*%
%TA.AperFunction,ViaPad*%
%ADD11C,0.200000*%
%TD*%
G04 APERTURE END LIST*
D10*
%TO.N,FLEX_GND*%
X5810000Y-10280000D03*
X4140000Y9200000D03*
D11*
X5100000Y-9490000D03*
D10*
X-2560000Y10250000D03*
X-60000Y7690000D03*
X-6600000Y10730000D03*
X-60000Y7690000D03*
X-2840000Y-11550000D03*
X10650000Y-7400000D03*
X10410000Y3960000D03*
X1880000Y-12900000D03*
X-5390000Y-5990000D03*
X-7890000Y-40000D03*
X-7090000Y-8810000D03*
D11*
X8070000Y-12420000D03*
D10*
X8090000Y-10330000D03*
X6310000Y11380000D03*
X5050000Y12150000D03*
X1020000Y3760000D03*
X-10000000Y-30000D03*
X860000Y-1590000D03*
X-7070000Y-4270000D03*
X5150000Y1370000D03*
X-9740000Y1350000D03*
X2770000Y-3490000D03*
X-12290000Y-9210000D03*
X8480000Y-1100000D03*
X11650000Y-1800000D03*
X-910000Y-4390000D03*
X-6080000Y140000D03*
X-10060000Y4160000D03*
X-6970000Y6640000D03*
X-4810000Y-10060000D03*
D11*
X5550000Y-6710000D03*
D10*
X9850000Y980000D03*
D11*
X6580000Y-6110000D03*
D10*
X100000Y-13370000D03*
X5670000Y-8110000D03*
X1740000Y14110000D03*
X-1590000Y-1660000D03*
X5290000Y-4450000D03*
X8660000Y6840000D03*
X10140000Y-5500000D03*
X1480000Y-6500000D03*
X910000Y6780000D03*
X-5660000Y-12000000D03*
X-7970000Y1930000D03*
X-9840000Y-6810000D03*
X-5160000Y-390000D03*
X-120000Y1170000D03*
X12340000Y-20000D03*
X5830000Y-10700000D03*
X3800000Y-11180000D03*
X3960000Y-8830000D03*
X5510000Y5650000D03*
X50000Y13170000D03*
X-6090000Y6540000D03*
X5830000Y-11110000D03*
X-2150000Y-8980000D03*
%TO.N,IMU1_SDX*%
X-9960000Y-5950000D03*
%TO.N,IMU1_SCX*%
X-8730000Y-5790000D03*
%TO.N,IMU1_INT*%
X-8130000Y-6100000D03*
X4150000Y-13890000D03*
%TO.N,3V3*%
X-6490000Y-4540000D03*
X520000Y10370000D03*
X-10160000Y-7980000D03*
X-7330000Y-6470000D03*
X8150000Y-1420000D03*
X1810000Y-620000D03*
X-3430000Y-10550000D03*
X-14090000Y3250000D03*
X11090000Y280000D03*
X3210000Y11420000D03*
X-1680000Y6960000D03*
X-8070000Y-5670000D03*
X14800000Y-5410000D03*
X5190000Y1780000D03*
X-2780000Y10620000D03*
X-1675000Y13365000D03*
X6310000Y9630000D03*
X850000Y13620000D03*
X-5210000Y-10880000D03*
X-5400000Y10970000D03*
X9710000Y2210000D03*
X5180000Y9380000D03*
X-3820000Y-12870000D03*
X9250000Y6800000D03*
X-4520000Y4530000D03*
X-1020000Y-1440000D03*
X-11380000Y-1900000D03*
%TO.N,I2C2_SCL*%
X6690000Y12290000D03*
X1660000Y-7750000D03*
X3780000Y9710000D03*
X-7130000Y-7650000D03*
%TO.N,I2C2_SDA*%
X7520000Y-11410000D03*
X-8130000Y-6530000D03*
%TO.N,3V3_AON*%
X2030000Y-13600000D03*
X4750000Y-10070000D03*
X6680000Y-8160000D03*
X14150000Y-6970000D03*
X4140000Y-9220000D03*
X5100000Y-8400000D03*
X6830000Y-10500000D03*
X-7840000Y-12050000D03*
%TO.N,SYS_SPI_MISO*%
X4070000Y2620000D03*
%TO.N,SYS_SPI_SCLK*%
X-11270000Y-7640000D03*
D11*
%TO.N,FIN1_BPH*%
X6950000Y2720000D03*
%TO.N,FIN2_BPH*%
X7420000Y2260000D03*
D10*
%TO.N,SYS_SPI_CS_FIN*%
X8000000Y2660000D03*
%TO.N,FIN3_BPH*%
X4605000Y6355000D03*
%TO.N,G0B1_FIN_NRST*%
X8440000Y6020000D03*
D11*
%TO.N,FIN4_APH*%
X7960000Y1690000D03*
D10*
%TO.N,FIN2_AEN*%
X5390000Y690000D03*
%TO.N,FIN_HALL*%
X10140000Y-380000D03*
%TO.N,FIN_VREF*%
X-4630000Y3920000D03*
%TO.N,COMP_5V_RAW*%
X-3120000Y9340000D03*
X260000Y8500000D03*
X-2100000Y2460000D03*
X-2350000Y-4040000D03*
X13210000Y4500000D03*
X-9263500Y-1963500D03*
%TO.N,FIN3_AOUT1*%
X-1390000Y8650000D03*
X10360000Y9820000D03*
%TO.N,FIN3_DVDD*%
X-1780000Y3880000D03*
%TO.N,FIN4_DVDD*%
X-4300000Y-2670000D03*
%TO.N,FIN4_DECAY*%
X-6340000Y3960000D03*
%TO.N,MAIN_SW_GATE*%
X-4580000Y-5920000D03*
X-4200000Y-6190000D03*
%TO.N,BAT_PROT*%
X14730000Y3120000D03*
X-10180000Y5200000D03*
%TO.N,REG_IN_MAIN*%
X5240000Y-3030000D03*
X6510000Y-5220000D03*
X-8640000Y5080000D03*
X-11380000Y2460000D03*
%TO.N,IMU3_INT*%
X-4630000Y11410000D03*
%TO.N,I2C3_SCL*%
X10000Y11330000D03*
%TO.N,I2C3_SDA*%
X-990000Y10680000D03*
%TO.N,IMU2_SDX*%
X-5470000Y-11250000D03*
%TO.N,IMU2_SCX*%
X-6620000Y-10990000D03*
%TO.N,WBA_VDD11*%
X3180000Y-10970000D03*
X3400000Y-10400000D03*
%TO.N,NFC_WAKE_K*%
X-2650000Y-9710000D03*
%TO.N,QHOLD2_GATE*%
X-6230000Y-5780000D03*
%TO.N,MAG_C1_TERM*%
X3940000Y12850000D03*
X2470000Y13410000D03*
X3710000Y13770000D03*
%TO.N,MAG_DRDY*%
X-3330000Y14010000D03*
X5630000Y11370000D03*
%TO.N,WBA_BOOT0*%
X-12730000Y-9110000D03*
%TO.N,NFC_GPO*%
X600000Y-9470000D03*
%TO.N,H3LIS_SCL*%
X4810000Y13410000D03*
X4270000Y-5920000D03*
D11*
%TO.N,H3LIS_SDA*%
X4810000Y-12410000D03*
D10*
%TO.N,WBA_NRST*%
X2750000Y-10070000D03*
%TO.N,WBA_AON_HOLD*%
X6640000Y-12840000D03*
%TO.N,H3LIS_INT1*%
X6550000Y8770000D03*
%TO.N,FIN1_DVDD*%
X870000Y-3560000D03*
%TO.N,ACTIVATE_CONFIRM*%
X13360000Y-2980000D03*
%TO.N,ACTIVATE_SET*%
X14640000Y-890000D03*
%TO.N,BAT_RAW*%
X14740000Y3820000D03*
%TO.N,BOOT0*%
X14620000Y5770000D03*
%TO.N,COMP_1V8*%
X11020000Y-4650000D03*
%TO.N,COMP_5V*%
X13240000Y3100000D03*
X-10860000Y-10770000D03*
%TO.N,COMP_OUT*%
X11790000Y3190000D03*
%TO.N,COMP_SWDCLK*%
X11680000Y4720000D03*
%TO.N,COMP_SWDIO*%
X12000000Y6330000D03*
%TO.N,EXT_CAN_RX*%
X14030000Y7480000D03*
%TO.N,EXT_CAN_TX*%
X11500000Y8380000D03*
%TO.N,GPIO_EXT_0*%
X8110000Y11390000D03*
%TO.N,GPIO_EXT_2*%
X7170000Y-12180000D03*
%TO.N,GPIO_EXT_3*%
X6450000Y10570000D03*
%TO.N,NRST*%
X-1390000Y13950000D03*
%TO.N,PWR_HOLD*%
X-7120000Y12180000D03*
%TO.N,USBWK_GATE*%
X-11350000Y-6330000D03*
%TO.N,WBA_RST_CMD*%
X-600000Y-8100000D03*
%TO.N,FIN2_DVDD*%
X-4370000Y-8610000D03*
%TO.N,FIN2_DECAY*%
X4120000Y-7200000D03*
%TD*%
%TA.AperFunction,Conductor*%
%TO.N,3V3*%
G36*
X1971438Y16379991D02*
G01*
X3014043Y16221491D01*
X3022105Y16219991D01*
X4078008Y15987175D01*
X4085931Y15985152D01*
X5124137Y15683265D01*
X5131924Y15680719D01*
X6147931Y15310938D01*
X6155533Y15307883D01*
X7144846Y14871838D01*
X7152225Y14868291D01*
X8110684Y14367870D01*
X8117808Y14363846D01*
X9041185Y13801305D01*
X9048032Y13796817D01*
X9932299Y13174555D01*
X9938835Y13169626D01*
X10780023Y12490452D01*
X10786224Y12485097D01*
X11580810Y11751775D01*
X11586634Y11746033D01*
X12331130Y10961946D01*
X12336577Y10955815D01*
X13027585Y10124276D01*
X13032603Y10117816D01*
X13667302Y9242491D01*
X13671886Y9235708D01*
X14247430Y8320425D01*
X14251554Y8313361D01*
X14389735Y8057611D01*
X14404284Y7989272D01*
X14379577Y7923917D01*
X14323458Y7882294D01*
X14253745Y7877619D01*
X14218638Y7891281D01*
X14203886Y7899799D01*
X14089309Y7930500D01*
X13970691Y7930500D01*
X13856114Y7899799D01*
X13753387Y7840489D01*
X13669511Y7756613D01*
X13610201Y7653886D01*
X13579500Y7539309D01*
X13579500Y7420691D01*
X13603932Y7329511D01*
X13610202Y7306112D01*
X13669511Y7203387D01*
X13669513Y7203384D01*
X13753384Y7119513D01*
X13753387Y7119511D01*
X13856114Y7060201D01*
X13970691Y7029500D01*
X13970694Y7029500D01*
X14089306Y7029500D01*
X14089309Y7029500D01*
X14203886Y7060201D01*
X14306613Y7119511D01*
X14390489Y7203387D01*
X14449799Y7306114D01*
X14480500Y7420691D01*
X14480500Y7420693D01*
X14482603Y7428542D01*
X14484561Y7428017D01*
X14492957Y7446997D01*
X14504154Y7476616D01*
X14506987Y7478717D01*
X14508414Y7481943D01*
X14534838Y7499374D01*
X14560273Y7518239D01*
X14563793Y7518475D01*
X14566737Y7520417D01*
X14598392Y7520795D01*
X14629986Y7522914D01*
X14633074Y7521209D01*
X14636601Y7521252D01*
X14663436Y7504455D01*
X14691160Y7489158D01*
X14694003Y7485324D01*
X14695827Y7484183D01*
X14712186Y7460810D01*
X14765548Y7362046D01*
X14769205Y7354706D01*
X15219112Y6371673D01*
X15222271Y6364122D01*
X15606421Y5353368D01*
X15609073Y5345629D01*
X15925704Y4311840D01*
X15927842Y4303937D01*
X16175578Y3251438D01*
X16177192Y3243398D01*
X16354813Y2176903D01*
X16355890Y2168795D01*
X16462814Y1092912D01*
X16463354Y1084747D01*
X16499090Y4098D01*
X16499090Y-4098D01*
X16463354Y-1084747D01*
X16462814Y-1092912D01*
X16355890Y-2168795D01*
X16354813Y-2176903D01*
X16177192Y-3243398D01*
X16175578Y-3251438D01*
X15927842Y-4303937D01*
X15925704Y-4311840D01*
X15609073Y-5345629D01*
X15606421Y-5353368D01*
X15222271Y-6364122D01*
X15219112Y-6371673D01*
X14769205Y-7354706D01*
X14765548Y-7362046D01*
X14251554Y-8313361D01*
X14247430Y-8320425D01*
X13671886Y-9235708D01*
X13667302Y-9242491D01*
X13032603Y-10117816D01*
X13027585Y-10124276D01*
X12336577Y-10955815D01*
X12331130Y-10961946D01*
X11586634Y-11746033D01*
X11580810Y-11751775D01*
X10786224Y-12485097D01*
X10780023Y-12490452D01*
X9938835Y-13169626D01*
X9932299Y-13174555D01*
X9048032Y-13796817D01*
X9041185Y-13801305D01*
X8117808Y-14363846D01*
X8110684Y-14367870D01*
X7152225Y-14868291D01*
X7144846Y-14871838D01*
X6155533Y-15307883D01*
X6147931Y-15310938D01*
X5131924Y-15680719D01*
X5124137Y-15683265D01*
X4085931Y-15985152D01*
X4078008Y-15987175D01*
X3022105Y-16219991D01*
X3014043Y-16221491D01*
X1971438Y-16379991D01*
X1952801Y-16381400D01*
X-1952807Y-16381400D01*
X-1971444Y-16379991D01*
X-3014042Y-16221491D01*
X-3022104Y-16219991D01*
X-4078008Y-15987176D01*
X-4085932Y-15985153D01*
X-5124142Y-15683264D01*
X-5131928Y-15680718D01*
X-6147926Y-15310940D01*
X-6155528Y-15307885D01*
X-7144846Y-14871838D01*
X-7152225Y-14868291D01*
X-8058847Y-14394934D01*
X-8109164Y-14346457D01*
X-8125284Y-14278472D01*
X-8108899Y-14223108D01*
X-8100723Y-14208918D01*
X-8061218Y-14169413D01*
X-8049269Y-14140565D01*
X-6515500Y-14140565D01*
X-6515500Y-14239435D01*
X-6489910Y-14334938D01*
X-6440475Y-14420562D01*
X-6370562Y-14490475D01*
X-6284938Y-14539910D01*
X-6189435Y-14565500D01*
X-6189432Y-14565500D01*
X-6090567Y-14565500D01*
X-6090565Y-14565500D01*
X-5995062Y-14539910D01*
X-5909438Y-14490475D01*
X-5839525Y-14420562D01*
X-5790090Y-14334938D01*
X-5764500Y-14239435D01*
X-5764500Y-14140567D01*
X-5764499Y-14140567D01*
X-5790091Y-14045060D01*
X-5790091Y-14045059D01*
X-5839526Y-13959436D01*
X-5909436Y-13889526D01*
X-5995060Y-13840091D01*
X-5995060Y-13840090D01*
X-5995062Y-13840090D01*
X-6090565Y-13814500D01*
X-6189435Y-13814500D01*
X-6284938Y-13840090D01*
X-6370562Y-13889525D01*
X-6440475Y-13959438D01*
X-6489910Y-14045062D01*
X-6515500Y-14140565D01*
X-8049269Y-14140565D01*
X-8034500Y-14104909D01*
X-8034500Y-14035091D01*
X-8061218Y-13970587D01*
X-8061217Y-13970587D01*
X-8061218Y-13970586D01*
X-8110586Y-13921218D01*
X-8175091Y-13894500D01*
X-8244909Y-13894500D01*
X-8309413Y-13921218D01*
X-8358782Y-13970587D01*
X-8384882Y-14033599D01*
X-8428721Y-14088002D01*
X-8495015Y-14110068D01*
X-8562715Y-14092790D01*
X-8563957Y-14092043D01*
X-9041184Y-13801306D01*
X-9048031Y-13796818D01*
X-9738842Y-13310691D01*
X-350500Y-13310691D01*
X-350500Y-13429309D01*
X-319799Y-13543886D01*
X-260489Y-13646613D01*
X-176613Y-13730489D01*
X-73886Y-13789799D01*
X40691Y-13820500D01*
X40694Y-13820500D01*
X159306Y-13820500D01*
X159309Y-13820500D01*
X273886Y-13789799D01*
X376613Y-13730489D01*
X460489Y-13646613D01*
X519799Y-13543886D01*
X550500Y-13429309D01*
X550500Y-13310691D01*
X519799Y-13196114D01*
X460489Y-13093387D01*
X376613Y-13009511D01*
X273886Y-12950201D01*
X159309Y-12919500D01*
X40691Y-12919500D01*
X-73886Y-12950201D01*
X-176613Y-13009511D01*
X-260489Y-13093387D01*
X-319799Y-13196114D01*
X-350500Y-13310691D01*
X-9738842Y-13310691D01*
X-9932298Y-13174555D01*
X-9938834Y-13169626D01*
X-10274120Y-12898917D01*
X-10383548Y-12810565D01*
X-9165500Y-12810565D01*
X-9165500Y-12909435D01*
X-9139910Y-13004938D01*
X-9090475Y-13090562D01*
X-9020562Y-13160475D01*
X-8934938Y-13209910D01*
X-8839435Y-13235500D01*
X-8839432Y-13235500D01*
X-8740567Y-13235500D01*
X-8740565Y-13235500D01*
X-8645062Y-13209910D01*
X-8559438Y-13160475D01*
X-8489525Y-13090562D01*
X-8440090Y-13004938D01*
X-8414500Y-12909435D01*
X-8414500Y-12840691D01*
X1429500Y-12840691D01*
X1429500Y-12959309D01*
X1460201Y-13073886D01*
X1519511Y-13176613D01*
X1519513Y-13176615D01*
X1601049Y-13258151D01*
X1634534Y-13319474D01*
X1629550Y-13389166D01*
X1620756Y-13407830D01*
X1610203Y-13426108D01*
X1610202Y-13426109D01*
X1609345Y-13429309D01*
X1579500Y-13540691D01*
X1579500Y-13659309D01*
X1610201Y-13773886D01*
X1669511Y-13876613D01*
X1753387Y-13960489D01*
X1856114Y-14019799D01*
X1970691Y-14050500D01*
X1970694Y-14050500D01*
X2089306Y-14050500D01*
X2089309Y-14050500D01*
X2203886Y-14019799D01*
X2306613Y-13960489D01*
X2390489Y-13876613D01*
X2417002Y-13830691D01*
X3699500Y-13830691D01*
X3699500Y-13949309D01*
X3730201Y-14063886D01*
X3789511Y-14166613D01*
X3873387Y-14250489D01*
X3976114Y-14309799D01*
X4090691Y-14340500D01*
X4090694Y-14340500D01*
X4209306Y-14340500D01*
X4209309Y-14340500D01*
X4323886Y-14309799D01*
X4426613Y-14250489D01*
X4510489Y-14166613D01*
X4569799Y-14063886D01*
X4600500Y-13949309D01*
X4600500Y-13830691D01*
X4569799Y-13716114D01*
X4510489Y-13613387D01*
X4426613Y-13529511D01*
X4323886Y-13470201D01*
X4209309Y-13439500D01*
X4090691Y-13439500D01*
X3976114Y-13470201D01*
X3976112Y-13470201D01*
X3976112Y-13470202D01*
X3873387Y-13529511D01*
X3873384Y-13529513D01*
X3789513Y-13613384D01*
X3789511Y-13613387D01*
X3730201Y-13716114D01*
X3699500Y-13830691D01*
X2417002Y-13830691D01*
X2449799Y-13773886D01*
X2480500Y-13659309D01*
X2480500Y-13540691D01*
X2449799Y-13426114D01*
X2390489Y-13323387D01*
X2308950Y-13241848D01*
X2275465Y-13180525D01*
X2280449Y-13110833D01*
X2289246Y-13092164D01*
X2299797Y-13073889D01*
X2299798Y-13073887D01*
X2299799Y-13073886D01*
X2330500Y-12959309D01*
X2330500Y-12840691D01*
X2318562Y-12796138D01*
X6419500Y-12796138D01*
X6419500Y-12883861D01*
X6446979Y-12950201D01*
X6453069Y-12964903D01*
X6515097Y-13026931D01*
X6596140Y-13060500D01*
X6596142Y-13060500D01*
X6683858Y-13060500D01*
X6683860Y-13060500D01*
X6764903Y-13026931D01*
X6826931Y-12964903D01*
X6860500Y-12883860D01*
X6860500Y-12796140D01*
X6848312Y-12766717D01*
X6840844Y-12697251D01*
X6872118Y-12634771D01*
X6932207Y-12599118D01*
X6994968Y-12599491D01*
X6996111Y-12599797D01*
X6996114Y-12599799D01*
X7110691Y-12630500D01*
X7110694Y-12630500D01*
X7229306Y-12630500D01*
X7229309Y-12630500D01*
X7343886Y-12599799D01*
X7446613Y-12540489D01*
X7484851Y-12502250D01*
X7546172Y-12468766D01*
X7615863Y-12473750D01*
X7671797Y-12515620D01*
X7692305Y-12557838D01*
X7694049Y-12564347D01*
X7696792Y-12574585D01*
X7696793Y-12574587D01*
X7749520Y-12665913D01*
X7824087Y-12740480D01*
X7915413Y-12793207D01*
X8017273Y-12820500D01*
X8017275Y-12820500D01*
X8122725Y-12820500D01*
X8122727Y-12820500D01*
X8224587Y-12793207D01*
X8315913Y-12740480D01*
X8390480Y-12665913D01*
X8443207Y-12574587D01*
X8470500Y-12472727D01*
X8470500Y-12367273D01*
X8443207Y-12265413D01*
X8390480Y-12174087D01*
X8315913Y-12099520D01*
X8224587Y-12046793D01*
X8122727Y-12019500D01*
X8017273Y-12019500D01*
X7915413Y-12046793D01*
X7915410Y-12046794D01*
X7824087Y-12099520D01*
X7810914Y-12112693D01*
X7749590Y-12146176D01*
X7679898Y-12141190D01*
X7623966Y-12099317D01*
X7603462Y-12057105D01*
X7589799Y-12006114D01*
X7530489Y-11903387D01*
X7469283Y-11842181D01*
X7435798Y-11780858D01*
X7440782Y-11711166D01*
X7482654Y-11655233D01*
X7548118Y-11630816D01*
X7556964Y-11630500D01*
X7563858Y-11630500D01*
X7563860Y-11630500D01*
X7644903Y-11596931D01*
X7706931Y-11534903D01*
X7740500Y-11453860D01*
X7740500Y-11366140D01*
X7706931Y-11285097D01*
X7644903Y-11223069D01*
X7638701Y-11220500D01*
X7563861Y-11189500D01*
X7563860Y-11189500D01*
X7476140Y-11189500D01*
X7476138Y-11189500D01*
X7395096Y-11223069D01*
X7333069Y-11285096D01*
X7299500Y-11366138D01*
X7299500Y-11453861D01*
X7306388Y-11470489D01*
X7327895Y-11522413D01*
X7333070Y-11534905D01*
X7334210Y-11536611D01*
X7335551Y-11540894D01*
X7337234Y-11544957D01*
X7342086Y-11550187D01*
X7346902Y-11577149D01*
X7355087Y-11603289D01*
X7352958Y-11611047D01*
X7354373Y-11618967D01*
X7343848Y-11644252D01*
X7336601Y-11670668D01*
X7330615Y-11676044D01*
X7327524Y-11683472D01*
X7305000Y-11699053D01*
X7284622Y-11717358D01*
X7275208Y-11719662D01*
X7270063Y-11723222D01*
X7242572Y-11727652D01*
X7235319Y-11729428D01*
X7229747Y-11729617D01*
X7229309Y-11729500D01*
X7110691Y-11729500D01*
X7092892Y-11734268D01*
X7078712Y-11734751D01*
X7058060Y-11729442D01*
X7036739Y-11728934D01*
X7024894Y-11720916D01*
X7011043Y-11717356D01*
X6996539Y-11701723D01*
X6978878Y-11689769D01*
X6973247Y-11676619D01*
X6963521Y-11666136D01*
X6959771Y-11645147D01*
X6954060Y-11631809D01*
X6952883Y-11632044D01*
X6951774Y-11626469D01*
X6951376Y-11625540D01*
X6951284Y-11624011D01*
X6950500Y-11620066D01*
X6950500Y-11620065D01*
X6950500Y-11620064D01*
X6927587Y-11564749D01*
X6927585Y-11564747D01*
X6927585Y-11564746D01*
X6885253Y-11522414D01*
X6885251Y-11522413D01*
X6829936Y-11499500D01*
X6770064Y-11499500D01*
X6727279Y-11517222D01*
X6714746Y-11522414D01*
X6672414Y-11564746D01*
X6666012Y-11580201D01*
X6649500Y-11620064D01*
X6649500Y-11679936D01*
X6670001Y-11729428D01*
X6672414Y-11735253D01*
X6714746Y-11777585D01*
X6714747Y-11777585D01*
X6714749Y-11777587D01*
X6719203Y-11779432D01*
X6773606Y-11823271D01*
X6795672Y-11889565D01*
X6779138Y-11955993D01*
X6750202Y-12006110D01*
X6750201Y-12006114D01*
X6719500Y-12120691D01*
X6719500Y-12239309D01*
X6742894Y-12326615D01*
X6750202Y-12353889D01*
X6796166Y-12433500D01*
X6812639Y-12501400D01*
X6789787Y-12567427D01*
X6734866Y-12610617D01*
X6688779Y-12619500D01*
X6596138Y-12619500D01*
X6515096Y-12653069D01*
X6453069Y-12715096D01*
X6419500Y-12796138D01*
X2318562Y-12796138D01*
X2299799Y-12726114D01*
X2240489Y-12623387D01*
X2156613Y-12539511D01*
X2053886Y-12480201D01*
X1939309Y-12449500D01*
X1820691Y-12449500D01*
X1706114Y-12480201D01*
X1706112Y-12480201D01*
X1706112Y-12480202D01*
X1603387Y-12539511D01*
X1603384Y-12539513D01*
X1519513Y-12623384D01*
X1519511Y-12623387D01*
X1460201Y-12726114D01*
X1429500Y-12840691D01*
X-8414500Y-12840691D01*
X-8414500Y-12810567D01*
X-8414499Y-12810567D01*
X-8437129Y-12726114D01*
X-8440090Y-12715062D01*
X-8440091Y-12715060D01*
X-8440091Y-12715059D01*
X-8489526Y-12629436D01*
X-8559436Y-12559526D01*
X-8645060Y-12510091D01*
X-8645060Y-12510090D01*
X-8645062Y-12510090D01*
X-8740565Y-12484500D01*
X-8839435Y-12484500D01*
X-8934938Y-12510090D01*
X-9020562Y-12559525D01*
X-9090475Y-12629438D01*
X-9139910Y-12715062D01*
X-9165500Y-12810565D01*
X-10383548Y-12810565D01*
X-10780030Y-12490446D01*
X-10786231Y-12485091D01*
X-11232004Y-12073688D01*
X-11321935Y-11990691D01*
X-8290500Y-11990691D01*
X-8290500Y-12109309D01*
X-8259799Y-12223886D01*
X-8200489Y-12326613D01*
X-8116613Y-12410489D01*
X-8013886Y-12469799D01*
X-7899309Y-12500500D01*
X-7899306Y-12500500D01*
X-7780694Y-12500500D01*
X-7780691Y-12500500D01*
X-7666114Y-12469799D01*
X-7563387Y-12410489D01*
X-7479511Y-12326613D01*
X-7420201Y-12223886D01*
X-7389500Y-12109309D01*
X-7389500Y-11990691D01*
X-7420201Y-11876114D01*
X-7448780Y-11826615D01*
X-7479511Y-11773387D01*
X-7479513Y-11773384D01*
X-7563384Y-11689513D01*
X-7563387Y-11689511D01*
X-7666112Y-11630202D01*
X-7666112Y-11630201D01*
X-7666114Y-11630201D01*
X-7780691Y-11599500D01*
X-7899309Y-11599500D01*
X-8013886Y-11630201D01*
X-8116613Y-11689511D01*
X-8200489Y-11773387D01*
X-8259799Y-11876114D01*
X-8290500Y-11990691D01*
X-11321935Y-11990691D01*
X-11580810Y-11751775D01*
X-11586634Y-11746033D01*
X-12331130Y-10961946D01*
X-12336577Y-10955815D01*
X-12481171Y-10781815D01*
X-12540275Y-10710691D01*
X-11310500Y-10710691D01*
X-11310500Y-10829309D01*
X-11279799Y-10943886D01*
X-11220489Y-11046613D01*
X-11136613Y-11130489D01*
X-11033886Y-11189799D01*
X-10919309Y-11220500D01*
X-10919306Y-11220500D01*
X-10800694Y-11220500D01*
X-10800691Y-11220500D01*
X-10686114Y-11189799D01*
X-10583387Y-11130489D01*
X-10499511Y-11046613D01*
X-10457237Y-10973393D01*
X-10440201Y-10943887D01*
X-10436665Y-10930691D01*
X-7070500Y-10930691D01*
X-7070500Y-11049309D01*
X-7039799Y-11163886D01*
X-6980489Y-11266613D01*
X-6896613Y-11350489D01*
X-6793886Y-11409799D01*
X-6679309Y-11440500D01*
X-6679306Y-11440500D01*
X-6560694Y-11440500D01*
X-6560691Y-11440500D01*
X-6446114Y-11409799D01*
X-6343387Y-11350489D01*
X-6259511Y-11266613D01*
X-6200201Y-11163886D01*
X-6169500Y-11049309D01*
X-6169500Y-10930691D01*
X-6199290Y-10819513D01*
X-6199969Y-10816978D01*
X-6199969Y-10816976D01*
X-6200201Y-10816114D01*
X-6259511Y-10713387D01*
X-6299547Y-10673350D01*
X-6299552Y-10673344D01*
X-6343383Y-10629514D01*
X-6343387Y-10629511D01*
X-6446112Y-10570202D01*
X-6446112Y-10570201D01*
X-6446114Y-10570201D01*
X-6560691Y-10539500D01*
X-6679309Y-10539500D01*
X-6793886Y-10570201D01*
X-6896613Y-10629511D01*
X-6980489Y-10713387D01*
X-7039799Y-10816114D01*
X-7070500Y-10930691D01*
X-10436665Y-10930691D01*
X-10430572Y-10907951D01*
X-10409500Y-10829309D01*
X-10409500Y-10710691D01*
X-10440201Y-10596114D01*
X-10461451Y-10559309D01*
X-10499511Y-10493387D01*
X-10499513Y-10493384D01*
X-10583384Y-10409513D01*
X-10583387Y-10409511D01*
X-10685483Y-10350565D01*
X-6115500Y-10350565D01*
X-6115500Y-10449435D01*
X-6089910Y-10544938D01*
X-6040475Y-10630562D01*
X-5970562Y-10700475D01*
X-5884938Y-10749910D01*
X-5873200Y-10753055D01*
X-5813542Y-10789415D01*
X-5783011Y-10852261D01*
X-5791303Y-10921637D01*
X-5817612Y-10960510D01*
X-5830489Y-10973387D01*
X-5889799Y-11076114D01*
X-5920500Y-11190691D01*
X-5920500Y-11309309D01*
X-5889799Y-11423886D01*
X-5870135Y-11457944D01*
X-5853661Y-11525844D01*
X-5876512Y-11591871D01*
X-5915519Y-11627332D01*
X-5921004Y-11630499D01*
X-5936613Y-11639511D01*
X-6020489Y-11723387D01*
X-6079799Y-11826114D01*
X-6110500Y-11940691D01*
X-6110500Y-12059309D01*
X-6079799Y-12173886D01*
X-6020489Y-12276613D01*
X-5936613Y-12360489D01*
X-5833886Y-12419799D01*
X-5719309Y-12450500D01*
X-5719306Y-12450500D01*
X-5600694Y-12450500D01*
X-5600691Y-12450500D01*
X-5486114Y-12419799D01*
X-5410400Y-12376085D01*
X4639500Y-12376085D01*
X4639500Y-12443915D01*
X4665457Y-12506580D01*
X4713420Y-12554543D01*
X4776085Y-12580500D01*
X4776086Y-12580500D01*
X4843914Y-12580500D01*
X4843915Y-12580500D01*
X4906580Y-12554543D01*
X4954543Y-12506580D01*
X4980500Y-12443915D01*
X4980500Y-12376085D01*
X4954543Y-12313420D01*
X4906580Y-12265457D01*
X4843915Y-12239500D01*
X4776085Y-12239500D01*
X4776084Y-12239500D01*
X4731771Y-12257855D01*
X4713527Y-12265413D01*
X4713418Y-12265458D01*
X4665458Y-12313418D01*
X4645961Y-12360488D01*
X4639500Y-12376085D01*
X-5410400Y-12376085D01*
X-5383387Y-12360489D01*
X-5299511Y-12276613D01*
X-5240201Y-12173886D01*
X-5209500Y-12059309D01*
X-5209500Y-11940691D01*
X-5240201Y-11826114D01*
X-5240202Y-11826112D01*
X-5240202Y-11826111D01*
X-5259866Y-11792052D01*
X-5276337Y-11724152D01*
X-5253485Y-11658125D01*
X-5214478Y-11622666D01*
X-5209973Y-11620065D01*
X-5193387Y-11610489D01*
X-5109511Y-11526613D01*
X-5107086Y-11522413D01*
X-5088771Y-11490691D01*
X-3290500Y-11490691D01*
X-3290500Y-11609309D01*
X-3259799Y-11723886D01*
X-3200489Y-11826613D01*
X-3116613Y-11910489D01*
X-3013886Y-11969799D01*
X-2899309Y-12000500D01*
X-2899306Y-12000500D01*
X-2780694Y-12000500D01*
X-2780691Y-12000500D01*
X-2666114Y-11969799D01*
X-2563387Y-11910489D01*
X-2479511Y-11826613D01*
X-2420201Y-11723886D01*
X-2389500Y-11609309D01*
X-2389500Y-11490691D01*
X-2420201Y-11376114D01*
X-2425960Y-11366140D01*
X-2479511Y-11273387D01*
X-2479513Y-11273384D01*
X-2563384Y-11189513D01*
X-2563387Y-11189511D01*
X-2666112Y-11130202D01*
X-2666112Y-11130201D01*
X-2666114Y-11130201D01*
X-2780691Y-11099500D01*
X-2899309Y-11099500D01*
X-3013886Y-11130201D01*
X-3116613Y-11189511D01*
X-3200489Y-11273387D01*
X-3259799Y-11376114D01*
X-3290500Y-11490691D01*
X-5088771Y-11490691D01*
X-5050204Y-11423894D01*
X-5050202Y-11423890D01*
X-5040214Y-11386613D01*
X-5019500Y-11309309D01*
X-5019500Y-11190691D01*
X-5050201Y-11076114D01*
X-5050200Y-11076114D01*
X-5050202Y-11076110D01*
X-5108044Y-10975927D01*
X-5108044Y-10975926D01*
X-5109507Y-10973393D01*
X-5109513Y-10973384D01*
X-5156759Y-10926138D01*
X2959500Y-10926138D01*
X2959500Y-11013861D01*
X2985286Y-11076114D01*
X2993069Y-11094903D01*
X3055097Y-11156931D01*
X3136140Y-11190500D01*
X3136142Y-11190500D01*
X3236073Y-11190500D01*
X3236073Y-11193625D01*
X3286389Y-11198119D01*
X3341574Y-11240971D01*
X3360783Y-11281420D01*
X3380201Y-11353886D01*
X3439511Y-11456613D01*
X3523387Y-11540489D01*
X3626114Y-11599799D01*
X3740691Y-11630500D01*
X3740694Y-11630500D01*
X3859306Y-11630500D01*
X3859309Y-11630500D01*
X3973886Y-11599799D01*
X4076613Y-11540489D01*
X4160489Y-11456613D01*
X4219799Y-11353886D01*
X4250500Y-11239309D01*
X4250500Y-11120691D01*
X4219799Y-11006114D01*
X4160489Y-10903387D01*
X4076613Y-10819511D01*
X3973886Y-10760201D01*
X3859309Y-10729500D01*
X3740691Y-10729500D01*
X3740689Y-10729500D01*
X3698169Y-10740893D01*
X3628319Y-10739229D01*
X3570457Y-10700066D01*
X3542954Y-10635837D01*
X3554541Y-10566935D01*
X3578393Y-10533440D01*
X3586931Y-10524903D01*
X3620500Y-10443860D01*
X3620500Y-10356140D01*
X3586931Y-10275097D01*
X3524903Y-10213069D01*
X3443861Y-10179500D01*
X3443860Y-10179500D01*
X3356140Y-10179500D01*
X3356138Y-10179500D01*
X3275096Y-10213069D01*
X3213069Y-10275096D01*
X3179500Y-10356138D01*
X3179500Y-10443861D01*
X3213069Y-10524903D01*
X3225985Y-10537819D01*
X3259470Y-10599142D01*
X3254486Y-10668834D01*
X3212614Y-10724767D01*
X3147150Y-10749184D01*
X3138304Y-10749500D01*
X3136138Y-10749500D01*
X3055096Y-10783069D01*
X2993069Y-10845096D01*
X2959500Y-10926138D01*
X-5156759Y-10926138D01*
X-5193384Y-10889513D01*
X-5193387Y-10889511D01*
X-5296112Y-10830202D01*
X-5296112Y-10830201D01*
X-5296114Y-10830201D01*
X-5364038Y-10812000D01*
X-5423698Y-10775635D01*
X-5454227Y-10712788D01*
X-5445932Y-10643413D01*
X-5439331Y-10630226D01*
X-5390091Y-10544940D01*
X-5390091Y-10544939D01*
X-5390090Y-10544938D01*
X-5364500Y-10449435D01*
X-5364500Y-10441964D01*
X-5344815Y-10374925D01*
X-5292011Y-10329170D01*
X-5222853Y-10319226D01*
X-5159297Y-10348251D01*
X-5152819Y-10354283D01*
X-5086613Y-10420489D01*
X-4983886Y-10479799D01*
X-4869309Y-10510500D01*
X-4869306Y-10510500D01*
X-4750694Y-10510500D01*
X-4750691Y-10510500D01*
X-4636114Y-10479799D01*
X-4533387Y-10420489D01*
X-4449511Y-10336613D01*
X-4390201Y-10233886D01*
X-4359500Y-10119309D01*
X-4359500Y-10000691D01*
X-4390201Y-9886114D01*
X-4394020Y-9879500D01*
X-4449511Y-9783387D01*
X-4449513Y-9783384D01*
X-4502653Y-9730245D01*
X-4533384Y-9699513D01*
X-4533387Y-9699511D01*
X-4617945Y-9650691D01*
X-3100500Y-9650691D01*
X-3100500Y-9769309D01*
X-3069799Y-9883886D01*
X-3010489Y-9986613D01*
X-2926613Y-10070489D01*
X-2823886Y-10129799D01*
X-2709309Y-10160500D01*
X-2709306Y-10160500D01*
X-2590694Y-10160500D01*
X-2590691Y-10160500D01*
X-2476114Y-10129799D01*
X-2373387Y-10070489D01*
X-2329036Y-10026138D01*
X2529500Y-10026138D01*
X2529500Y-10113861D01*
X2556689Y-10179500D01*
X2563069Y-10194903D01*
X2625097Y-10256931D01*
X2706140Y-10290500D01*
X2706142Y-10290500D01*
X2793858Y-10290500D01*
X2793860Y-10290500D01*
X2874903Y-10256931D01*
X2936931Y-10194903D01*
X2970500Y-10113860D01*
X2970500Y-10026140D01*
X2936931Y-9945097D01*
X2874903Y-9883069D01*
X2862566Y-9877959D01*
X2793861Y-9849500D01*
X2793860Y-9849500D01*
X2706140Y-9849500D01*
X2706138Y-9849500D01*
X2625096Y-9883069D01*
X2563069Y-9945096D01*
X2529500Y-10026138D01*
X-2329036Y-10026138D01*
X-2289511Y-9986613D01*
X-2269484Y-9951926D01*
X-2230203Y-9883891D01*
X-2230202Y-9883890D01*
X-2218214Y-9839151D01*
X-2199500Y-9769309D01*
X-2199500Y-9650691D01*
X-2216675Y-9586593D01*
X-2215012Y-9516743D01*
X-2175849Y-9458881D01*
X-2130912Y-9435256D01*
X-2114238Y-9430500D01*
X-2090691Y-9430500D01*
X-1976114Y-9399799D01*
X-1946344Y-9382611D01*
X-1931618Y-9378411D01*
X-1911380Y-9378567D01*
X-1891709Y-9373795D01*
X-1877152Y-9378832D01*
X-1861751Y-9378952D01*
X-1844809Y-9390025D01*
X-1825681Y-9396646D01*
X-1822115Y-9399282D01*
X-1820572Y-9400464D01*
X-1820562Y-9400475D01*
X-1734938Y-9449910D01*
X-1639435Y-9475500D01*
X-1639432Y-9475500D01*
X-1540567Y-9475500D01*
X-1540565Y-9475500D01*
X-1445062Y-9449910D01*
X-1403888Y-9426138D01*
X379500Y-9426138D01*
X379500Y-9513861D01*
X409627Y-9586593D01*
X413069Y-9594903D01*
X475097Y-9656931D01*
X556140Y-9690500D01*
X556142Y-9690500D01*
X643858Y-9690500D01*
X643860Y-9690500D01*
X724903Y-9656931D01*
X724906Y-9656927D01*
X735057Y-9650146D01*
X735821Y-9651290D01*
X785508Y-9624156D01*
X855200Y-9629137D01*
X880768Y-9642221D01*
X890585Y-9648781D01*
X890586Y-9648781D01*
X890587Y-9648782D01*
X955091Y-9675500D01*
X955093Y-9675500D01*
X1024907Y-9675500D01*
X1024909Y-9675500D01*
X1089413Y-9648782D01*
X1138782Y-9599413D01*
X1165500Y-9534909D01*
X1165500Y-9465091D01*
X1138782Y-9400587D01*
X1089413Y-9351218D01*
X1024909Y-9324500D01*
X955091Y-9324500D01*
X955089Y-9324500D01*
X898164Y-9348079D01*
X828695Y-9355546D01*
X766216Y-9324271D01*
X763032Y-9321198D01*
X724903Y-9283069D01*
X643861Y-9249500D01*
X643860Y-9249500D01*
X556140Y-9249500D01*
X556138Y-9249500D01*
X475096Y-9283069D01*
X413069Y-9345096D01*
X379500Y-9426138D01*
X-1403888Y-9426138D01*
X-1359438Y-9400475D01*
X-1289525Y-9330562D01*
X-1247143Y-9257155D01*
X-1240091Y-9244940D01*
X-1240091Y-9244939D01*
X-1240090Y-9244938D01*
X-1214500Y-9149435D01*
X-1214500Y-9050567D01*
X-1214499Y-9050567D01*
X-1232042Y-8985097D01*
X-1240090Y-8955062D01*
X-1240091Y-8955060D01*
X-1240091Y-8955059D01*
X-1289526Y-8869436D01*
X-1308718Y-8850245D01*
X-1359436Y-8799526D01*
X-1409380Y-8770691D01*
X3509500Y-8770691D01*
X3509500Y-8889309D01*
X3540201Y-9003886D01*
X3599511Y-9106613D01*
X3599513Y-9106615D01*
X3653181Y-9160283D01*
X3686666Y-9221606D01*
X3689500Y-9247964D01*
X3689500Y-9279309D01*
X3720201Y-9393886D01*
X3779511Y-9496613D01*
X3863387Y-9580489D01*
X3966114Y-9639799D01*
X4080691Y-9670500D01*
X4080694Y-9670500D01*
X4199306Y-9670500D01*
X4199309Y-9670500D01*
X4219092Y-9665199D01*
X4288938Y-9666860D01*
X4346802Y-9706021D01*
X4374308Y-9770249D01*
X4362723Y-9839151D01*
X4358572Y-9846973D01*
X4330202Y-9896110D01*
X4330201Y-9896114D01*
X4299500Y-10010691D01*
X4299500Y-10129309D01*
X4330201Y-10243886D01*
X4389511Y-10346613D01*
X4473387Y-10430489D01*
X4576114Y-10489799D01*
X4690691Y-10520500D01*
X4690694Y-10520500D01*
X4809306Y-10520500D01*
X4809309Y-10520500D01*
X4923886Y-10489799D01*
X5026613Y-10430489D01*
X5110489Y-10346613D01*
X5132224Y-10308967D01*
X5146871Y-10295000D01*
X5157682Y-10277889D01*
X5171640Y-10271382D01*
X5182788Y-10260754D01*
X5202664Y-10256922D01*
X5221010Y-10248372D01*
X5236269Y-10250445D01*
X5251394Y-10247530D01*
X5270186Y-10255053D01*
X5290244Y-10257778D01*
X5301961Y-10267772D01*
X5316260Y-10273497D01*
X5328002Y-10289986D01*
X5343401Y-10303122D01*
X5353595Y-10325926D01*
X5356789Y-10330411D01*
X5358312Y-10335112D01*
X5359500Y-10339044D01*
X5359500Y-10339309D01*
X5390201Y-10453886D01*
X5398568Y-10468378D01*
X5402714Y-10482103D01*
X5402878Y-10503284D01*
X5407870Y-10523864D01*
X5403786Y-10550053D01*
X5384910Y-10620500D01*
X5379500Y-10640691D01*
X5379500Y-10759309D01*
X5409939Y-10872907D01*
X5409939Y-10937091D01*
X5379500Y-11050691D01*
X5379500Y-11169309D01*
X5410201Y-11283886D01*
X5469511Y-11386613D01*
X5553387Y-11470489D01*
X5656114Y-11529799D01*
X5770691Y-11560500D01*
X5770694Y-11560500D01*
X5889306Y-11560500D01*
X5889309Y-11560500D01*
X6003886Y-11529799D01*
X6106613Y-11470489D01*
X6190489Y-11386613D01*
X6249799Y-11283886D01*
X6280500Y-11169309D01*
X6280500Y-11050691D01*
X6250060Y-10937088D01*
X6250060Y-10921058D01*
X6245870Y-10907951D01*
X6250058Y-10872915D01*
X6261199Y-10831338D01*
X6297562Y-10771682D01*
X6360409Y-10741153D01*
X6429785Y-10749448D01*
X6468653Y-10775755D01*
X6469510Y-10776612D01*
X6469511Y-10776613D01*
X6553387Y-10860489D01*
X6656114Y-10919799D01*
X6770691Y-10950500D01*
X6770694Y-10950500D01*
X6889306Y-10950500D01*
X6889309Y-10950500D01*
X7003886Y-10919799D01*
X7106613Y-10860489D01*
X7190489Y-10776613D01*
X7249799Y-10673886D01*
X7280500Y-10559309D01*
X7280500Y-10440691D01*
X7249799Y-10326114D01*
X7249797Y-10326110D01*
X7248903Y-10324561D01*
X7217800Y-10270691D01*
X7639500Y-10270691D01*
X7639500Y-10389309D01*
X7670201Y-10503886D01*
X7729511Y-10606613D01*
X7813387Y-10690489D01*
X7916114Y-10749799D01*
X8030691Y-10780500D01*
X8030694Y-10780500D01*
X8149306Y-10780500D01*
X8149309Y-10780500D01*
X8263886Y-10749799D01*
X8361493Y-10693445D01*
X8429389Y-10676972D01*
X8495416Y-10699823D01*
X8527720Y-10734436D01*
X8527766Y-10734404D01*
X8528032Y-10734770D01*
X8529217Y-10736040D01*
X8530630Y-10738347D01*
X8678701Y-10942149D01*
X8678705Y-10942154D01*
X8856845Y-11120294D01*
X8856850Y-11120298D01*
X8994767Y-11220500D01*
X9060655Y-11268370D01*
X9203684Y-11341247D01*
X9285116Y-11382739D01*
X9285118Y-11382739D01*
X9285121Y-11382741D01*
X9524715Y-11460590D01*
X9773538Y-11500000D01*
X9773539Y-11500000D01*
X10025461Y-11500000D01*
X10025462Y-11500000D01*
X10274285Y-11460590D01*
X10513879Y-11382741D01*
X10738345Y-11268370D01*
X10942156Y-11120293D01*
X11120293Y-10942156D01*
X11268370Y-10738345D01*
X11382741Y-10513879D01*
X11460590Y-10274285D01*
X11500000Y-10025462D01*
X11500000Y-9773538D01*
X11460590Y-9524715D01*
X11382741Y-9285121D01*
X11382739Y-9285118D01*
X11382739Y-9285116D01*
X11334524Y-9190489D01*
X11268370Y-9060655D01*
X11202859Y-8970486D01*
X11120298Y-8856850D01*
X11120294Y-8856845D01*
X10942154Y-8678705D01*
X10942149Y-8678701D01*
X10738348Y-8530632D01*
X10738347Y-8530631D01*
X10738345Y-8530630D01*
X10668247Y-8494913D01*
X10513883Y-8416260D01*
X10274285Y-8338410D01*
X10160733Y-8320425D01*
X10025462Y-8299000D01*
X9773538Y-8299000D01*
X9692464Y-8311841D01*
X9524714Y-8338410D01*
X9285116Y-8416260D01*
X9060651Y-8530632D01*
X8856850Y-8678701D01*
X8856845Y-8678705D01*
X8678705Y-8856845D01*
X8678701Y-8856850D01*
X8530632Y-9060651D01*
X8416260Y-9285116D01*
X8338409Y-9524714D01*
X8298349Y-9777642D01*
X8268419Y-9840777D01*
X8209108Y-9877708D01*
X8157707Y-9877959D01*
X8157365Y-9880561D01*
X8149310Y-9879500D01*
X8149309Y-9879500D01*
X8030691Y-9879500D01*
X7916114Y-9910201D01*
X7916112Y-9910201D01*
X7916112Y-9910202D01*
X7813387Y-9969511D01*
X7813384Y-9969513D01*
X7729513Y-10053384D01*
X7729511Y-10053387D01*
X7691451Y-10119309D01*
X7670201Y-10156114D01*
X7639500Y-10270691D01*
X7217800Y-10270691D01*
X7212063Y-10260754D01*
X7190489Y-10223387D01*
X7106613Y-10139511D01*
X7003886Y-10080201D01*
X6889309Y-10049500D01*
X6770691Y-10049500D01*
X6656114Y-10080201D01*
X6656112Y-10080201D01*
X6656112Y-10080202D01*
X6553387Y-10139511D01*
X6553384Y-10139513D01*
X6469509Y-10223388D01*
X6468196Y-10225100D01*
X6466721Y-10226176D01*
X6463764Y-10229134D01*
X6463302Y-10228672D01*
X6411765Y-10266298D01*
X6342019Y-10270448D01*
X6281101Y-10236231D01*
X6250053Y-10181702D01*
X6229799Y-10106114D01*
X6170489Y-10003387D01*
X6086613Y-9919511D01*
X5983886Y-9860201D01*
X5869309Y-9829500D01*
X5750691Y-9829500D01*
X5670151Y-9851080D01*
X5636109Y-9860202D01*
X5636108Y-9860203D01*
X5605797Y-9877703D01*
X5537897Y-9894174D01*
X5471870Y-9871321D01*
X5428681Y-9816399D01*
X5422040Y-9746846D01*
X5436409Y-9708322D01*
X5473207Y-9644587D01*
X5500500Y-9542727D01*
X5500500Y-9437273D01*
X5473207Y-9335413D01*
X5420480Y-9244087D01*
X5345913Y-9169520D01*
X5254589Y-9116794D01*
X5254588Y-9116793D01*
X5172809Y-9094881D01*
X5152727Y-9089500D01*
X5047273Y-9089500D01*
X5027191Y-9094881D01*
X5027190Y-9094881D01*
X4945411Y-9116793D01*
X4945410Y-9116794D01*
X4854087Y-9169520D01*
X4799936Y-9223671D01*
X4738612Y-9257155D01*
X4668920Y-9252170D01*
X4612987Y-9210299D01*
X4592480Y-9168083D01*
X4590500Y-9160693D01*
X4590500Y-9160691D01*
X4559799Y-9046114D01*
X4500489Y-8943387D01*
X4446819Y-8889717D01*
X4413334Y-8828394D01*
X4410500Y-8802036D01*
X4410500Y-8770693D01*
X4410500Y-8770691D01*
X4379799Y-8656114D01*
X4320489Y-8553387D01*
X4236613Y-8469511D01*
X4133886Y-8410201D01*
X4019309Y-8379500D01*
X3900691Y-8379500D01*
X3786114Y-8410201D01*
X3786112Y-8410201D01*
X3786112Y-8410202D01*
X3683387Y-8469511D01*
X3683384Y-8469513D01*
X3599513Y-8553384D01*
X3599511Y-8553387D01*
X3569963Y-8604566D01*
X3540201Y-8656114D01*
X3509500Y-8770691D01*
X-1409380Y-8770691D01*
X-1445060Y-8750091D01*
X-1445060Y-8750090D01*
X-1445062Y-8750090D01*
X-1540565Y-8724500D01*
X-1639435Y-8724500D01*
X-1671993Y-8733223D01*
X-1741841Y-8731561D01*
X-1791765Y-8701131D01*
X-1873383Y-8619514D01*
X-1873387Y-8619511D01*
X-1976112Y-8560202D01*
X-1976112Y-8560201D01*
X-1976114Y-8560201D01*
X-2090691Y-8529500D01*
X-2209309Y-8529500D01*
X-2323886Y-8560201D01*
X-2426613Y-8619511D01*
X-2510489Y-8703387D01*
X-2569799Y-8806114D01*
X-2600500Y-8920691D01*
X-2600500Y-9039309D01*
X-2593310Y-9066141D01*
X-2583325Y-9103407D01*
X-2584988Y-9173257D01*
X-2624151Y-9231119D01*
X-2688379Y-9258623D01*
X-2703100Y-9259500D01*
X-2709309Y-9259500D01*
X-2823886Y-9290201D01*
X-2926613Y-9349511D01*
X-3010489Y-9433387D01*
X-3069799Y-9536114D01*
X-3100500Y-9650691D01*
X-4617945Y-9650691D01*
X-4636112Y-9640202D01*
X-4636112Y-9640201D01*
X-4636114Y-9640201D01*
X-4750691Y-9609500D01*
X-4869309Y-9609500D01*
X-4983886Y-9640201D01*
X-5086613Y-9699511D01*
X-5170489Y-9783387D01*
X-5229799Y-9886114D01*
X-5260500Y-10000691D01*
X-5260500Y-10000693D01*
X-5260500Y-10049101D01*
X-5280185Y-10116140D01*
X-5332989Y-10161895D01*
X-5402147Y-10171839D01*
X-5465703Y-10142814D01*
X-5472181Y-10136782D01*
X-5509436Y-10099526D01*
X-5595060Y-10050091D01*
X-5595060Y-10050090D01*
X-5595062Y-10050090D01*
X-5690565Y-10024500D01*
X-5789435Y-10024500D01*
X-5884938Y-10050090D01*
X-5884940Y-10050091D01*
X-5890649Y-10053387D01*
X-5970562Y-10099525D01*
X-6040475Y-10169438D01*
X-6089910Y-10255062D01*
X-6115500Y-10350565D01*
X-10685483Y-10350565D01*
X-10686115Y-10350200D01*
X-10757146Y-10331166D01*
X-10812730Y-10299074D01*
X-10850586Y-10261218D01*
X-10915091Y-10234500D01*
X-10984909Y-10234500D01*
X-11049413Y-10261218D01*
X-11098782Y-10310587D01*
X-11125500Y-10375091D01*
X-11125500Y-10375092D01*
X-11130173Y-10386374D01*
X-11133261Y-10385094D01*
X-11156329Y-10429198D01*
X-11157884Y-10430782D01*
X-11220489Y-10493387D01*
X-11279799Y-10596114D01*
X-11310500Y-10710691D01*
X-12540275Y-10710691D01*
X-13027585Y-10124276D01*
X-13032603Y-10117816D01*
X-13667302Y-9242491D01*
X-13671886Y-9235708D01*
X-13744686Y-9119935D01*
X-13778513Y-9066140D01*
X-12950500Y-9066140D01*
X-12950500Y-9153860D01*
X-12916931Y-9234903D01*
X-12854903Y-9296931D01*
X-12773860Y-9330500D01*
X-12773859Y-9330500D01*
X-12769062Y-9332487D01*
X-12714659Y-9376328D01*
X-12709129Y-9385046D01*
X-12650489Y-9486613D01*
X-12566613Y-9570489D01*
X-12463886Y-9629799D01*
X-12349309Y-9660500D01*
X-12349306Y-9660500D01*
X-12230694Y-9660500D01*
X-12230691Y-9660500D01*
X-12116114Y-9629799D01*
X-12013387Y-9570489D01*
X-11983463Y-9540565D01*
X-9795500Y-9540565D01*
X-9795500Y-9639435D01*
X-9769910Y-9734938D01*
X-9720475Y-9820562D01*
X-9650562Y-9890475D01*
X-9564938Y-9939910D01*
X-9469435Y-9965500D01*
X-9469432Y-9965500D01*
X-9370567Y-9965500D01*
X-9370565Y-9965500D01*
X-9275062Y-9939910D01*
X-9189438Y-9890475D01*
X-9119525Y-9820562D01*
X-9075566Y-9744423D01*
X-9070091Y-9734940D01*
X-9070091Y-9734939D01*
X-9070090Y-9734938D01*
X-9044500Y-9639435D01*
X-9044500Y-9540567D01*
X-9044499Y-9540567D01*
X-9058956Y-9486613D01*
X-9070090Y-9445062D01*
X-9070091Y-9445060D01*
X-9070091Y-9445059D01*
X-9119526Y-9359436D01*
X-9189436Y-9289526D01*
X-9275060Y-9240091D01*
X-9275060Y-9240090D01*
X-9275062Y-9240090D01*
X-9370565Y-9214500D01*
X-9469435Y-9214500D01*
X-9564938Y-9240090D01*
X-9564940Y-9240091D01*
X-9578576Y-9247964D01*
X-9650562Y-9289525D01*
X-9720475Y-9359438D01*
X-9769910Y-9445062D01*
X-9795500Y-9540565D01*
X-11983463Y-9540565D01*
X-11929511Y-9486613D01*
X-11929509Y-9486610D01*
X-11929506Y-9486606D01*
X-11920173Y-9470441D01*
X-11920172Y-9470437D01*
X-11908722Y-9450605D01*
X-11870201Y-9383886D01*
X-11839500Y-9269309D01*
X-11839500Y-9150691D01*
X-11870201Y-9036114D01*
X-11899657Y-8985096D01*
X-11929511Y-8933387D01*
X-11929513Y-8933384D01*
X-12013384Y-8849513D01*
X-12013387Y-8849511D01*
X-12116112Y-8790202D01*
X-12116112Y-8790201D01*
X-12116114Y-8790201D01*
X-12230691Y-8759500D01*
X-12349309Y-8759500D01*
X-12463886Y-8790201D01*
X-12566613Y-8849511D01*
X-12566615Y-8849513D01*
X-12572931Y-8855829D01*
X-12634254Y-8889314D01*
X-12684799Y-8889766D01*
X-12686137Y-8889500D01*
X-12686140Y-8889500D01*
X-12773860Y-8889500D01*
X-12773861Y-8889500D01*
X-12830102Y-8912796D01*
X-12854903Y-8923069D01*
X-12916931Y-8985097D01*
X-12950500Y-9066140D01*
X-13778513Y-9066140D01*
X-13976872Y-8750691D01*
X-7540500Y-8750691D01*
X-7540500Y-8869309D01*
X-7509799Y-8983886D01*
X-7450489Y-9086613D01*
X-7366613Y-9170489D01*
X-7263886Y-9229799D01*
X-7149309Y-9260500D01*
X-7149306Y-9260500D01*
X-7030694Y-9260500D01*
X-7030691Y-9260500D01*
X-6916114Y-9229799D01*
X-6813387Y-9170489D01*
X-6729511Y-9086613D01*
X-6670201Y-8983886D01*
X-6639500Y-8869309D01*
X-6639500Y-8750691D01*
X-6670201Y-8636114D01*
X-6670200Y-8636114D01*
X-6670202Y-8636110D01*
X-6688414Y-8604566D01*
X-6688416Y-8604565D01*
X-6719520Y-8550691D01*
X-4820500Y-8550691D01*
X-4820500Y-8669309D01*
X-4789799Y-8783886D01*
X-4730489Y-8886613D01*
X-4646613Y-8970489D01*
X-4543886Y-9029799D01*
X-4429309Y-9060500D01*
X-4429306Y-9060500D01*
X-4310694Y-9060500D01*
X-4310691Y-9060500D01*
X-4196114Y-9029799D01*
X-4093387Y-8970489D01*
X-4009511Y-8886613D01*
X-3950201Y-8783886D01*
X-3919500Y-8669309D01*
X-3919500Y-8550691D01*
X-3950201Y-8436114D01*
X-3976709Y-8390202D01*
X-4009511Y-8333387D01*
X-4009513Y-8333384D01*
X-4093384Y-8249513D01*
X-4093387Y-8249511D01*
X-4196112Y-8190202D01*
X-4196112Y-8190201D01*
X-4196114Y-8190201D01*
X-4310691Y-8159500D01*
X-4429309Y-8159500D01*
X-4543886Y-8190201D01*
X-4646613Y-8249511D01*
X-4730489Y-8333387D01*
X-4789799Y-8436114D01*
X-4820500Y-8550691D01*
X-6719520Y-8550691D01*
X-6729511Y-8533387D01*
X-6729513Y-8533384D01*
X-6813384Y-8449513D01*
X-6813387Y-8449511D01*
X-6916112Y-8390202D01*
X-6916112Y-8390201D01*
X-6916114Y-8390201D01*
X-7030691Y-8359500D01*
X-7149309Y-8359500D01*
X-7263886Y-8390201D01*
X-7366613Y-8449511D01*
X-7450489Y-8533387D01*
X-7509799Y-8636114D01*
X-7540500Y-8750691D01*
X-13976872Y-8750691D01*
X-14235821Y-8338886D01*
X-14235822Y-8338884D01*
X-14247434Y-8320417D01*
X-14251557Y-8313355D01*
X-14266828Y-8285091D01*
X-9455500Y-8285091D01*
X-9455500Y-8354909D01*
X-9428782Y-8419413D01*
X-9379413Y-8468782D01*
X-9314909Y-8495500D01*
X-9314907Y-8495500D01*
X-9245093Y-8495500D01*
X-9245091Y-8495500D01*
X-9180587Y-8468782D01*
X-9131218Y-8419413D01*
X-9104500Y-8354909D01*
X-9104500Y-8285091D01*
X-9109141Y-8273886D01*
X-9131218Y-8220586D01*
X-9180586Y-8171218D01*
X-9245091Y-8144500D01*
X-9314909Y-8144500D01*
X-9379413Y-8171218D01*
X-9428782Y-8220587D01*
X-9455500Y-8285091D01*
X-14266828Y-8285091D01*
X-14398877Y-8040691D01*
X-1050500Y-8040691D01*
X-1050500Y-8159309D01*
X-1019799Y-8273886D01*
X-960489Y-8376613D01*
X-876613Y-8460489D01*
X-773886Y-8519799D01*
X-659309Y-8550500D01*
X-659306Y-8550500D01*
X-540694Y-8550500D01*
X-540691Y-8550500D01*
X-426114Y-8519799D01*
X-323387Y-8460489D01*
X-239511Y-8376613D01*
X-218771Y-8340691D01*
X4649500Y-8340691D01*
X4649500Y-8459309D01*
X4680201Y-8573886D01*
X4739511Y-8676613D01*
X4823387Y-8760489D01*
X4926114Y-8819799D01*
X5040691Y-8850500D01*
X5159309Y-8850500D01*
X5273886Y-8819799D01*
X5376613Y-8760489D01*
X5460489Y-8676613D01*
X5491975Y-8622077D01*
X5542542Y-8573862D01*
X5602563Y-8562294D01*
X5602563Y-8560500D01*
X5729306Y-8560500D01*
X5729309Y-8560500D01*
X5843886Y-8529799D01*
X5946613Y-8470489D01*
X6030489Y-8386613D01*
X6053180Y-8347310D01*
X6103743Y-8299098D01*
X6172350Y-8285874D01*
X6237215Y-8311841D01*
X6267951Y-8347312D01*
X6319506Y-8436606D01*
X6319509Y-8436610D01*
X6319511Y-8436613D01*
X6403387Y-8520489D01*
X6506114Y-8579799D01*
X6620691Y-8610500D01*
X6620694Y-8610500D01*
X6739306Y-8610500D01*
X6739309Y-8610500D01*
X6853886Y-8579799D01*
X6956613Y-8520489D01*
X7040489Y-8436613D01*
X7099799Y-8333886D01*
X7130500Y-8219309D01*
X7130500Y-8100691D01*
X7099799Y-7986114D01*
X7040489Y-7883387D01*
X6956613Y-7799511D01*
X6853886Y-7740201D01*
X6739309Y-7709500D01*
X6620691Y-7709500D01*
X6506114Y-7740201D01*
X6506112Y-7740201D01*
X6506112Y-7740202D01*
X6403387Y-7799511D01*
X6403384Y-7799513D01*
X6319513Y-7883384D01*
X6319506Y-7883393D01*
X6296820Y-7922687D01*
X6246253Y-7970902D01*
X6177646Y-7984124D01*
X6112781Y-7958156D01*
X6082047Y-7922687D01*
X6059360Y-7883393D01*
X6030489Y-7833387D01*
X5946613Y-7749511D01*
X5843886Y-7690201D01*
X5729309Y-7659500D01*
X5610691Y-7659500D01*
X5496114Y-7690201D01*
X5496112Y-7690201D01*
X5496112Y-7690202D01*
X5393387Y-7749511D01*
X5393384Y-7749513D01*
X5309513Y-7833384D01*
X5309511Y-7833387D01*
X5278025Y-7887922D01*
X5227457Y-7936137D01*
X5167436Y-7947704D01*
X5167436Y-7949500D01*
X5159309Y-7949500D01*
X5040691Y-7949500D01*
X4926114Y-7980201D01*
X4926112Y-7980201D01*
X4926112Y-7980202D01*
X4823387Y-8039511D01*
X4823384Y-8039513D01*
X4739513Y-8123384D01*
X4739511Y-8123387D01*
X4683393Y-8220586D01*
X4680201Y-8226114D01*
X4649500Y-8340691D01*
X-218771Y-8340691D01*
X-180201Y-8273886D01*
X-149500Y-8159309D01*
X-149500Y-8040691D01*
X-180201Y-7926114D01*
X-182180Y-7922687D01*
X-239511Y-7823387D01*
X-239513Y-7823384D01*
X-281290Y-7781608D01*
X-323384Y-7739513D01*
X-323387Y-7739511D01*
X-381190Y-7706138D01*
X1439500Y-7706138D01*
X1439500Y-7793861D01*
X1462755Y-7850002D01*
X1473069Y-7874903D01*
X1535097Y-7936931D01*
X1616140Y-7970500D01*
X1616142Y-7970500D01*
X1703858Y-7970500D01*
X1703860Y-7970500D01*
X1714246Y-7966197D01*
X1783714Y-7958728D01*
X1846194Y-7990001D01*
X1876261Y-8033305D01*
X1891216Y-8069411D01*
X1891218Y-8069413D01*
X1940587Y-8118782D01*
X2005091Y-8145500D01*
X2005093Y-8145500D01*
X2074907Y-8145500D01*
X2074909Y-8145500D01*
X2139413Y-8118782D01*
X2188782Y-8069413D01*
X2215500Y-8004909D01*
X2215500Y-7935091D01*
X2188782Y-7870587D01*
X2139413Y-7821218D01*
X2074909Y-7794500D01*
X2005091Y-7794500D01*
X1999840Y-7794500D01*
X1932801Y-7774815D01*
X1887046Y-7722011D01*
X1885519Y-7717280D01*
X1885174Y-7717424D01*
X1871271Y-7683860D01*
X1846931Y-7625097D01*
X1784903Y-7563069D01*
X1778667Y-7560486D01*
X1703861Y-7529500D01*
X1703860Y-7529500D01*
X1616140Y-7529500D01*
X1616138Y-7529500D01*
X1535096Y-7563069D01*
X1473069Y-7625096D01*
X1439500Y-7706138D01*
X-381190Y-7706138D01*
X-426112Y-7680202D01*
X-426112Y-7680201D01*
X-426114Y-7680201D01*
X-540691Y-7649500D01*
X-659309Y-7649500D01*
X-773886Y-7680201D01*
X-876613Y-7739511D01*
X-960489Y-7823387D01*
X-1019799Y-7926114D01*
X-1050500Y-8040691D01*
X-14398877Y-8040691D01*
X-14613819Y-7642871D01*
X-14639068Y-7596140D01*
X-11490500Y-7596140D01*
X-11490500Y-7683860D01*
X-11456931Y-7764903D01*
X-11394903Y-7826931D01*
X-11313860Y-7860500D01*
X-11313858Y-7860500D01*
X-11226142Y-7860500D01*
X-11226140Y-7860500D01*
X-11145097Y-7826931D01*
X-11083069Y-7764903D01*
X-11075000Y-7745423D01*
X-11049500Y-7683861D01*
X-11049500Y-7606140D01*
X-7350500Y-7606140D01*
X-7350500Y-7693860D01*
X-7316931Y-7774903D01*
X-7254903Y-7836931D01*
X-7173860Y-7870500D01*
X-7173858Y-7870500D01*
X-7086142Y-7870500D01*
X-7086140Y-7870500D01*
X-7005097Y-7836931D01*
X-6943069Y-7774903D01*
X-6937618Y-7761743D01*
X-6909500Y-7693861D01*
X-6909500Y-7606140D01*
X-6920093Y-7580565D01*
X-5765500Y-7580565D01*
X-5765500Y-7679435D01*
X-5739910Y-7774938D01*
X-5690475Y-7860562D01*
X-5620562Y-7930475D01*
X-5534938Y-7979910D01*
X-5439435Y-8005500D01*
X-5439432Y-8005500D01*
X-5340567Y-8005500D01*
X-5340565Y-8005500D01*
X-5245062Y-7979910D01*
X-5159438Y-7930475D01*
X-5089525Y-7860562D01*
X-5040090Y-7774938D01*
X-5014500Y-7679435D01*
X-5014500Y-7580567D01*
X-5014499Y-7580567D01*
X-5032042Y-7515097D01*
X-5040090Y-7485062D01*
X-5040091Y-7485060D01*
X-5040091Y-7485059D01*
X-5089526Y-7399436D01*
X-5159436Y-7329526D01*
X-5245060Y-7280091D01*
X-5245060Y-7280090D01*
X-5245062Y-7280090D01*
X-5340565Y-7254500D01*
X-5439435Y-7254500D01*
X-5534938Y-7280090D01*
X-5620562Y-7329525D01*
X-5690475Y-7399438D01*
X-5739910Y-7485062D01*
X-5765500Y-7580565D01*
X-6920093Y-7580565D01*
X-6943069Y-7525096D01*
X-7005096Y-7463069D01*
X-7086138Y-7429500D01*
X-7086140Y-7429500D01*
X-7173860Y-7429500D01*
X-7173861Y-7429500D01*
X-7230761Y-7453069D01*
X-7254903Y-7463069D01*
X-7316931Y-7525097D01*
X-7350500Y-7606140D01*
X-11049500Y-7606140D01*
X-11049500Y-7596138D01*
X-11083069Y-7515096D01*
X-11145096Y-7453069D01*
X-11226138Y-7419500D01*
X-11226140Y-7419500D01*
X-11313860Y-7419500D01*
X-11313861Y-7419500D01*
X-11357273Y-7437482D01*
X-11394903Y-7453069D01*
X-11456931Y-7515097D01*
X-11490500Y-7596140D01*
X-14639068Y-7596140D01*
X-14765543Y-7362057D01*
X-14769200Y-7354717D01*
X-15219112Y-6371674D01*
X-15222271Y-6364124D01*
X-15244127Y-6306618D01*
X-15244127Y-6306616D01*
X-15257781Y-6270691D01*
X-11800500Y-6270691D01*
X-11800500Y-6389309D01*
X-11769799Y-6503886D01*
X-11710489Y-6606613D01*
X-11626613Y-6690489D01*
X-11523886Y-6749799D01*
X-11409309Y-6780500D01*
X-11409306Y-6780500D01*
X-11290694Y-6780500D01*
X-11290691Y-6780500D01*
X-11176114Y-6749799D01*
X-11073387Y-6690489D01*
X-10989511Y-6606613D01*
X-10930201Y-6503886D01*
X-10899500Y-6389309D01*
X-10899500Y-6270691D01*
X-10930201Y-6156114D01*
X-10933449Y-6150489D01*
X-10989511Y-6053387D01*
X-11010596Y-6032302D01*
X-11020481Y-6014197D01*
X-11034375Y-5998956D01*
X-11036884Y-5984155D01*
X-11044080Y-5970978D01*
X-11042608Y-5950403D01*
X-11046056Y-5930070D01*
X-11039806Y-5911251D01*
X-11039094Y-5901286D01*
X-11036968Y-5895966D01*
X-11034718Y-5890691D01*
X-10410500Y-5890691D01*
X-10410500Y-6009309D01*
X-10379799Y-6123886D01*
X-10320489Y-6226613D01*
X-10236613Y-6310489D01*
X-10212346Y-6324499D01*
X-10164133Y-6375065D01*
X-10150911Y-6443673D01*
X-10176879Y-6508537D01*
X-10186668Y-6519566D01*
X-10200489Y-6533387D01*
X-10259799Y-6636114D01*
X-10290500Y-6750691D01*
X-10290500Y-6869309D01*
X-10259799Y-6983886D01*
X-10200489Y-7086613D01*
X-10116613Y-7170489D01*
X-10013886Y-7229799D01*
X-9899309Y-7260500D01*
X-9899306Y-7260500D01*
X-9780694Y-7260500D01*
X-9780691Y-7260500D01*
X-9666114Y-7229799D01*
X-9563387Y-7170489D01*
X-9533589Y-7140691D01*
X3669500Y-7140691D01*
X3669500Y-7259309D01*
X3700201Y-7373886D01*
X3759511Y-7476613D01*
X3843387Y-7560489D01*
X3946114Y-7619799D01*
X4060691Y-7650500D01*
X4060694Y-7650500D01*
X4179306Y-7650500D01*
X4179309Y-7650500D01*
X4293886Y-7619799D01*
X4396613Y-7560489D01*
X4480489Y-7476613D01*
X4503082Y-7437479D01*
X4553646Y-7389266D01*
X4578371Y-7379707D01*
X4614938Y-7369910D01*
X4665547Y-7340691D01*
X10199500Y-7340691D01*
X10199500Y-7459309D01*
X10230201Y-7573886D01*
X10289511Y-7676613D01*
X10373387Y-7760489D01*
X10476114Y-7819799D01*
X10590691Y-7850500D01*
X10590694Y-7850500D01*
X10709306Y-7850500D01*
X10709309Y-7850500D01*
X10823886Y-7819799D01*
X10926613Y-7760489D01*
X11010489Y-7676613D01*
X11069799Y-7573886D01*
X11100500Y-7459309D01*
X11100500Y-7340691D01*
X11069799Y-7226114D01*
X11010489Y-7123387D01*
X10926613Y-7039511D01*
X10924792Y-7038459D01*
X10875416Y-7009951D01*
X10875415Y-7009951D01*
X10823889Y-6980202D01*
X10823890Y-6980202D01*
X10814494Y-6977684D01*
X10709309Y-6949500D01*
X10590691Y-6949500D01*
X10476114Y-6980201D01*
X10476112Y-6980201D01*
X10476112Y-6980202D01*
X10373387Y-7039511D01*
X10373384Y-7039513D01*
X10289513Y-7123384D01*
X10289511Y-7123387D01*
X10230201Y-7226114D01*
X10199500Y-7340691D01*
X4665547Y-7340691D01*
X4700562Y-7320475D01*
X4770475Y-7250562D01*
X4819910Y-7164938D01*
X4845500Y-7069435D01*
X4845500Y-6970565D01*
X4819910Y-6875062D01*
X4770475Y-6789438D01*
X4700562Y-6719525D01*
X4614938Y-6670090D01*
X4567104Y-6657273D01*
X5149500Y-6657273D01*
X5149500Y-6762727D01*
X5159650Y-6800605D01*
X5176793Y-6864586D01*
X5176794Y-6864589D01*
X5182841Y-6875062D01*
X5229520Y-6955913D01*
X5304087Y-7030480D01*
X5395413Y-7083207D01*
X5497273Y-7110500D01*
X5497275Y-7110500D01*
X5602725Y-7110500D01*
X5602727Y-7110500D01*
X5704587Y-7083207D01*
X5795913Y-7030480D01*
X5870480Y-6955913D01*
X5896589Y-6910691D01*
X13699500Y-6910691D01*
X13699500Y-7029309D01*
X13730201Y-7143886D01*
X13789511Y-7246613D01*
X13873387Y-7330489D01*
X13976114Y-7389799D01*
X14090691Y-7420500D01*
X14090694Y-7420500D01*
X14209306Y-7420500D01*
X14209309Y-7420500D01*
X14323886Y-7389799D01*
X14426613Y-7330489D01*
X14510489Y-7246613D01*
X14569799Y-7143886D01*
X14600500Y-7029309D01*
X14600500Y-6910691D01*
X14569799Y-6796114D01*
X14510489Y-6693387D01*
X14426613Y-6609511D01*
X14323886Y-6550201D01*
X14209309Y-6519500D01*
X14090691Y-6519500D01*
X13976114Y-6550201D01*
X13976112Y-6550201D01*
X13976112Y-6550202D01*
X13873387Y-6609511D01*
X13873384Y-6609513D01*
X13789513Y-6693384D01*
X13789511Y-6693387D01*
X13734057Y-6789436D01*
X13730201Y-6796114D01*
X13699500Y-6910691D01*
X5896589Y-6910691D01*
X5923207Y-6864587D01*
X5950500Y-6762727D01*
X5950500Y-6657273D01*
X5923207Y-6555413D01*
X5870480Y-6464087D01*
X5795913Y-6389520D01*
X5704587Y-6336793D01*
X5602727Y-6309500D01*
X5497273Y-6309500D01*
X5395413Y-6336793D01*
X5395410Y-6336794D01*
X5304085Y-6389521D01*
X5229521Y-6464085D01*
X5176794Y-6555410D01*
X5176793Y-6555413D01*
X5149500Y-6657273D01*
X4567104Y-6657273D01*
X4519435Y-6644500D01*
X4420565Y-6644500D01*
X4325062Y-6670090D01*
X4325060Y-6670091D01*
X4325059Y-6670091D01*
X4239441Y-6719522D01*
X4233771Y-6723874D01*
X4168603Y-6749070D01*
X4158282Y-6749500D01*
X4060691Y-6749500D01*
X3946114Y-6780201D01*
X3946112Y-6780201D01*
X3946112Y-6780202D01*
X3843387Y-6839511D01*
X3843384Y-6839513D01*
X3759513Y-6923384D01*
X3759511Y-6923387D01*
X3724582Y-6983886D01*
X3700201Y-7026114D01*
X3669500Y-7140691D01*
X-9533589Y-7140691D01*
X-9479511Y-7086613D01*
X-9420201Y-6983886D01*
X-9389500Y-6869309D01*
X-9389500Y-6750691D01*
X-9420201Y-6636114D01*
X-9437234Y-6606613D01*
X-9479511Y-6533387D01*
X-9479513Y-6533384D01*
X-9563384Y-6449513D01*
X-9563387Y-6449511D01*
X-9587655Y-6435499D01*
X-9635868Y-6384929D01*
X-9649088Y-6316322D01*
X-9623117Y-6251458D01*
X-9613331Y-6240433D01*
X-9599513Y-6226615D01*
X-9599511Y-6226613D01*
X-9540201Y-6123886D01*
X-9509500Y-6009309D01*
X-9509500Y-5890691D01*
X-9540201Y-5776114D01*
X-9566427Y-5730691D01*
X-9180500Y-5730691D01*
X-9180500Y-5849309D01*
X-9149799Y-5963886D01*
X-9090489Y-6066613D01*
X-9006613Y-6150489D01*
X-8903886Y-6209799D01*
X-8789309Y-6240500D01*
X-8789306Y-6240500D01*
X-8670693Y-6240500D01*
X-8670691Y-6240500D01*
X-8670689Y-6240499D01*
X-8662635Y-6239439D01*
X-8662318Y-6241839D01*
X-8604756Y-6243204D01*
X-8546890Y-6282361D01*
X-8535117Y-6299315D01*
X-8490489Y-6376613D01*
X-8406613Y-6460489D01*
X-8406605Y-6460493D01*
X-8400164Y-6465437D01*
X-8402116Y-6467981D01*
X-8364288Y-6507649D01*
X-8350500Y-6564477D01*
X-8350500Y-6573860D01*
X-8316931Y-6654903D01*
X-8254903Y-6716931D01*
X-8173860Y-6750500D01*
X-8173858Y-6750500D01*
X-8086142Y-6750500D01*
X-8086140Y-6750500D01*
X-8005097Y-6716931D01*
X-7943069Y-6654903D01*
X-7935286Y-6636114D01*
X-7909500Y-6573861D01*
X-7909500Y-6564477D01*
X-7889815Y-6497438D01*
X-7878513Y-6482474D01*
X-7865084Y-6467242D01*
X-7853387Y-6460489D01*
X-7769511Y-6376613D01*
X-7739773Y-6325106D01*
X-7731587Y-6315821D01*
X-7712083Y-6303521D01*
X-7695393Y-6287608D01*
X-7683087Y-6285236D01*
X-7672488Y-6278552D01*
X-7649428Y-6278749D01*
X-7626786Y-6274386D01*
X-7615152Y-6279043D01*
X-7602620Y-6279151D01*
X-7583328Y-6291784D01*
X-7561922Y-6300354D01*
X-7550892Y-6310143D01*
X-7550477Y-6310557D01*
X-7550475Y-6310562D01*
X-7480562Y-6380475D01*
X-7394938Y-6429910D01*
X-7299435Y-6455500D01*
X-7299432Y-6455500D01*
X-7200567Y-6455500D01*
X-7200565Y-6455500D01*
X-7105062Y-6429910D01*
X-7019438Y-6380475D01*
X-6949525Y-6310562D01*
X-6900090Y-6224938D01*
X-6874500Y-6129435D01*
X-6874500Y-6030565D01*
X-6900090Y-5935062D01*
X-6918041Y-5903969D01*
X-6918042Y-5903967D01*
X-6943145Y-5860488D01*
X-6949525Y-5849438D01*
X-6949525Y-5849437D01*
X-6949527Y-5849435D01*
X-7019436Y-5779526D01*
X-7105060Y-5730091D01*
X-7105060Y-5730090D01*
X-7105062Y-5730090D01*
X-7140139Y-5720691D01*
X-6680500Y-5720691D01*
X-6680500Y-5839309D01*
X-6649799Y-5953886D01*
X-6590489Y-6056613D01*
X-6506613Y-6140489D01*
X-6403886Y-6199799D01*
X-6289309Y-6230500D01*
X-6289306Y-6230500D01*
X-6170694Y-6230500D01*
X-6170691Y-6230500D01*
X-6056114Y-6199799D01*
X-5963214Y-6146162D01*
X-5895315Y-6129690D01*
X-5829288Y-6152542D01*
X-5793827Y-6191549D01*
X-5750489Y-6266613D01*
X-5666613Y-6350489D01*
X-5563886Y-6409799D01*
X-5449309Y-6440500D01*
X-5449306Y-6440500D01*
X-5330694Y-6440500D01*
X-5330691Y-6440500D01*
X-5216114Y-6409799D01*
X-5113387Y-6350489D01*
X-5037681Y-6274783D01*
X-4976358Y-6241298D01*
X-4906666Y-6246282D01*
X-4862319Y-6274783D01*
X-4856613Y-6280489D01*
X-4753886Y-6339799D01*
X-4661319Y-6364602D01*
X-4601663Y-6400964D01*
X-4586034Y-6422367D01*
X-4560489Y-6466613D01*
X-4476613Y-6550489D01*
X-4373886Y-6609799D01*
X-4259309Y-6640500D01*
X-4259306Y-6640500D01*
X-4140694Y-6640500D01*
X-4140691Y-6640500D01*
X-4026114Y-6609799D01*
X-3923387Y-6550489D01*
X-3839511Y-6466613D01*
X-3824545Y-6440691D01*
X1029500Y-6440691D01*
X1029500Y-6559309D01*
X1060201Y-6673886D01*
X1119511Y-6776613D01*
X1203387Y-6860489D01*
X1306114Y-6919799D01*
X1420691Y-6950500D01*
X1420694Y-6950500D01*
X1539306Y-6950500D01*
X1539309Y-6950500D01*
X1653886Y-6919799D01*
X1756613Y-6860489D01*
X1840489Y-6776613D01*
X1899799Y-6673886D01*
X1930500Y-6559309D01*
X1930500Y-6440691D01*
X1899799Y-6326114D01*
X1840489Y-6223387D01*
X1756613Y-6139511D01*
X1653886Y-6080201D01*
X1539309Y-6049500D01*
X1420691Y-6049500D01*
X1306114Y-6080201D01*
X1306112Y-6080201D01*
X1306112Y-6080202D01*
X1203387Y-6139511D01*
X1203384Y-6139513D01*
X1119513Y-6223384D01*
X1119511Y-6223387D01*
X1086545Y-6280486D01*
X1060201Y-6326114D01*
X1029500Y-6440691D01*
X-3824545Y-6440691D01*
X-3784056Y-6370563D01*
X-3784054Y-6370561D01*
X-3780202Y-6363889D01*
X-3778065Y-6355913D01*
X-3749500Y-6249309D01*
X-3749500Y-6130691D01*
X-3780201Y-6016114D01*
X-3832271Y-5925926D01*
X-3839509Y-5913390D01*
X-3839513Y-5913384D01*
X-3876759Y-5876138D01*
X4049500Y-5876138D01*
X4049500Y-5963861D01*
X4081324Y-6040691D01*
X4083069Y-6044903D01*
X4145097Y-6106931D01*
X4226140Y-6140500D01*
X4226142Y-6140500D01*
X4313858Y-6140500D01*
X4313860Y-6140500D01*
X4394903Y-6106931D01*
X4456931Y-6044903D01*
X4490500Y-5963860D01*
X4490500Y-5876140D01*
X4456931Y-5795097D01*
X4394903Y-5733069D01*
X4389162Y-5730691D01*
X4313861Y-5699500D01*
X4313860Y-5699500D01*
X4226140Y-5699500D01*
X4226138Y-5699500D01*
X4145096Y-5733069D01*
X4083069Y-5795096D01*
X4049500Y-5876138D01*
X-3876759Y-5876138D01*
X-3923384Y-5829513D01*
X-3923387Y-5829511D01*
X-4026112Y-5770202D01*
X-4026112Y-5770201D01*
X-4026114Y-5770201D01*
X-4118677Y-5745398D01*
X-4178337Y-5709034D01*
X-4193969Y-5687625D01*
X-4219507Y-5643393D01*
X-4219513Y-5643384D01*
X-4303384Y-5559513D01*
X-4303387Y-5559511D01*
X-4406112Y-5500202D01*
X-4406112Y-5500201D01*
X-4406114Y-5500201D01*
X-4520691Y-5469500D01*
X-4639309Y-5469500D01*
X-4753886Y-5500201D01*
X-4856613Y-5559511D01*
X-4856615Y-5559513D01*
X-4932318Y-5635216D01*
X-4993641Y-5668701D01*
X-5063333Y-5663717D01*
X-5107673Y-5635224D01*
X-5113384Y-5629513D01*
X-5113387Y-5629511D01*
X-5216112Y-5570202D01*
X-5216112Y-5570201D01*
X-5216114Y-5570201D01*
X-5330691Y-5539500D01*
X-5449309Y-5539500D01*
X-5563886Y-5570201D01*
X-5563889Y-5570202D01*
X-5656785Y-5623836D01*
X-5724685Y-5640309D01*
X-5790712Y-5617457D01*
X-5826171Y-5578451D01*
X-5869509Y-5503390D01*
X-5869513Y-5503384D01*
X-5953384Y-5419513D01*
X-5953387Y-5419511D01*
X-6056112Y-5360202D01*
X-6056112Y-5360201D01*
X-6056114Y-5360201D01*
X-6170691Y-5329500D01*
X-6289309Y-5329500D01*
X-6403886Y-5360201D01*
X-6506613Y-5419511D01*
X-6590489Y-5503387D01*
X-6649799Y-5606114D01*
X-6680500Y-5720691D01*
X-7140139Y-5720691D01*
X-7200565Y-5704500D01*
X-7299435Y-5704500D01*
X-7394938Y-5730090D01*
X-7394940Y-5730091D01*
X-7398653Y-5732235D01*
X-7480562Y-5779525D01*
X-7550475Y-5849438D01*
X-7550477Y-5849441D01*
X-7553908Y-5853913D01*
X-7610335Y-5895117D01*
X-7680081Y-5899272D01*
X-7741002Y-5865061D01*
X-7759671Y-5840429D01*
X-7769506Y-5823393D01*
X-7769513Y-5823384D01*
X-7853384Y-5739513D01*
X-7853387Y-5739511D01*
X-7956112Y-5680202D01*
X-7956112Y-5680201D01*
X-7956114Y-5680201D01*
X-8070691Y-5649500D01*
X-8189309Y-5649500D01*
X-8189310Y-5649500D01*
X-8197365Y-5650561D01*
X-8197680Y-5648163D01*
X-8255263Y-5646788D01*
X-8313123Y-5607621D01*
X-8324884Y-5590680D01*
X-8369506Y-5513393D01*
X-8369513Y-5513384D01*
X-8453384Y-5429513D01*
X-8453387Y-5429511D01*
X-8556112Y-5370202D01*
X-8556112Y-5370201D01*
X-8556114Y-5370201D01*
X-8670691Y-5339500D01*
X-8789309Y-5339500D01*
X-8903886Y-5370201D01*
X-9006613Y-5429511D01*
X-9090489Y-5513387D01*
X-9149799Y-5616114D01*
X-9180500Y-5730691D01*
X-9566427Y-5730691D01*
X-9571747Y-5721476D01*
X-9599511Y-5673387D01*
X-9599513Y-5673384D01*
X-9683384Y-5589513D01*
X-9683387Y-5589511D01*
X-9786112Y-5530202D01*
X-9786112Y-5530201D01*
X-9786114Y-5530201D01*
X-9900691Y-5499500D01*
X-10019309Y-5499500D01*
X-10133886Y-5530201D01*
X-10236613Y-5589511D01*
X-10320489Y-5673387D01*
X-10379799Y-5776114D01*
X-10410500Y-5890691D01*
X-11034718Y-5890691D01*
X-11034036Y-5889093D01*
X-11020090Y-5864938D01*
X-10994500Y-5769435D01*
X-10994500Y-5670567D01*
X-10994499Y-5670567D01*
X-11009091Y-5616112D01*
X-11020090Y-5575062D01*
X-11020091Y-5575060D01*
X-11020091Y-5575059D01*
X-11069526Y-5489436D01*
X-11139436Y-5419526D01*
X-11225060Y-5370091D01*
X-11225060Y-5370090D01*
X-11225062Y-5370090D01*
X-11320565Y-5344500D01*
X-11419435Y-5344500D01*
X-11514938Y-5370090D01*
X-11514940Y-5370091D01*
X-11515132Y-5370202D01*
X-11600562Y-5419525D01*
X-11670475Y-5489438D01*
X-11719910Y-5575062D01*
X-11745500Y-5670565D01*
X-11745500Y-5769435D01*
X-11719910Y-5864938D01*
X-11695058Y-5907982D01*
X-11678585Y-5975879D01*
X-11701436Y-6041906D01*
X-11705634Y-6046869D01*
X-11705542Y-6046941D01*
X-11710484Y-6053382D01*
X-11710489Y-6053387D01*
X-11769799Y-6156114D01*
X-11800500Y-6270691D01*
X-15257781Y-6270691D01*
X-15606423Y-5353364D01*
X-15609075Y-5345625D01*
X-15657079Y-5188891D01*
X-15657085Y-5188878D01*
X-15665718Y-5160691D01*
X6059500Y-5160691D01*
X6059500Y-5279309D01*
X6090201Y-5393886D01*
X6149511Y-5496613D01*
X6233387Y-5580489D01*
X6233390Y-5580490D01*
X6233393Y-5580493D01*
X6289799Y-5613060D01*
X6338014Y-5663627D01*
X6351236Y-5732235D01*
X6325268Y-5797099D01*
X6315480Y-5808127D01*
X6259520Y-5864087D01*
X6206794Y-5955410D01*
X6206793Y-5955413D01*
X6179500Y-6057273D01*
X6179500Y-6162727D01*
X6202700Y-6249309D01*
X6206793Y-6264586D01*
X6206794Y-6264589D01*
X6215972Y-6280486D01*
X6259520Y-6355913D01*
X6334087Y-6430480D01*
X6425413Y-6483207D01*
X6527273Y-6510500D01*
X6527275Y-6510500D01*
X6632725Y-6510500D01*
X6632727Y-6510500D01*
X6734587Y-6483207D01*
X6825913Y-6430480D01*
X6900480Y-6355913D01*
X6953207Y-6264587D01*
X6980500Y-6162727D01*
X6980500Y-6057273D01*
X6953207Y-5955413D01*
X6900480Y-5864087D01*
X6825913Y-5789520D01*
X6808423Y-5779422D01*
X6760210Y-5728855D01*
X6746988Y-5660248D01*
X6772957Y-5595384D01*
X6782745Y-5584355D01*
X6786608Y-5580491D01*
X6786613Y-5580489D01*
X6870489Y-5496613D01*
X6902776Y-5440691D01*
X9689500Y-5440691D01*
X9689500Y-5559309D01*
X9720201Y-5673886D01*
X9779511Y-5776613D01*
X9863387Y-5860489D01*
X9966114Y-5919799D01*
X10080691Y-5950500D01*
X10080694Y-5950500D01*
X10199306Y-5950500D01*
X10199309Y-5950500D01*
X10313886Y-5919799D01*
X10416613Y-5860489D01*
X10500489Y-5776613D01*
X10559799Y-5673886D01*
X10590500Y-5559309D01*
X10590500Y-5440691D01*
X10559799Y-5326114D01*
X10500489Y-5223387D01*
X10416613Y-5139511D01*
X10313886Y-5080201D01*
X10199309Y-5049500D01*
X10080691Y-5049500D01*
X9966114Y-5080201D01*
X9966112Y-5080201D01*
X9966112Y-5080202D01*
X9863387Y-5139511D01*
X9863384Y-5139513D01*
X9779513Y-5223384D01*
X9779511Y-5223387D01*
X9720201Y-5326114D01*
X9689500Y-5440691D01*
X6902776Y-5440691D01*
X6929799Y-5393886D01*
X6960500Y-5279309D01*
X6960500Y-5160691D01*
X6929799Y-5046114D01*
X6870489Y-4943387D01*
X6786613Y-4859511D01*
X6683886Y-4800201D01*
X6569309Y-4769500D01*
X6450691Y-4769500D01*
X6336114Y-4800201D01*
X6336112Y-4800201D01*
X6336112Y-4800202D01*
X6233387Y-4859511D01*
X6233384Y-4859513D01*
X6149513Y-4943384D01*
X6149511Y-4943387D01*
X6090201Y-5046114D01*
X6059500Y-5160691D01*
X-15665718Y-5160691D01*
X-15925705Y-4311840D01*
X-15927842Y-4303936D01*
X-15968583Y-4130848D01*
X-15973357Y-4110565D01*
X-13515500Y-4110565D01*
X-13515500Y-4209435D01*
X-13489910Y-4304938D01*
X-13440475Y-4390562D01*
X-13370562Y-4460475D01*
X-13284938Y-4509910D01*
X-13189435Y-4535500D01*
X-13189432Y-4535500D01*
X-13090567Y-4535500D01*
X-13090565Y-4535500D01*
X-12995062Y-4509910D01*
X-12909438Y-4460475D01*
X-12839525Y-4390562D01*
X-12796832Y-4316615D01*
X-12790091Y-4304940D01*
X-12790091Y-4304939D01*
X-12790090Y-4304938D01*
X-12764837Y-4210691D01*
X-7520500Y-4210691D01*
X-7520500Y-4329309D01*
X-7489799Y-4443886D01*
X-7430489Y-4546613D01*
X-7346613Y-4630489D01*
X-7243886Y-4689799D01*
X-7129309Y-4720500D01*
X-7129306Y-4720500D01*
X-7010694Y-4720500D01*
X-7010691Y-4720500D01*
X-6896114Y-4689799D01*
X-6793387Y-4630489D01*
X-6709511Y-4546613D01*
X-6650201Y-4443886D01*
X-6619500Y-4329309D01*
X-6619500Y-4210691D01*
X-6650201Y-4096114D01*
X-6709511Y-3993387D01*
X-6709513Y-3993384D01*
X-6722206Y-3980691D01*
X-2800500Y-3980691D01*
X-2800500Y-4099309D01*
X-2769799Y-4213886D01*
X-2710489Y-4316613D01*
X-2626613Y-4400489D01*
X-2523886Y-4459799D01*
X-2409309Y-4490500D01*
X-2409306Y-4490500D01*
X-2290694Y-4490500D01*
X-2290691Y-4490500D01*
X-2176114Y-4459799D01*
X-2073387Y-4400489D01*
X-2003589Y-4330691D01*
X-1360500Y-4330691D01*
X-1360500Y-4449309D01*
X-1329799Y-4563886D01*
X-1270489Y-4666613D01*
X-1186613Y-4750489D01*
X-1083886Y-4809799D01*
X-969309Y-4840500D01*
X-969306Y-4840500D01*
X-850694Y-4840500D01*
X-850691Y-4840500D01*
X-736114Y-4809799D01*
X-633387Y-4750489D01*
X-549511Y-4666613D01*
X-490201Y-4563886D01*
X-459500Y-4449309D01*
X-459500Y-4390691D01*
X4839500Y-4390691D01*
X4839500Y-4509309D01*
X4870201Y-4623886D01*
X4929511Y-4726613D01*
X5013387Y-4810489D01*
X5116114Y-4869799D01*
X5230691Y-4900500D01*
X5230694Y-4900500D01*
X5349306Y-4900500D01*
X5349309Y-4900500D01*
X5463886Y-4869799D01*
X5566613Y-4810489D01*
X5650489Y-4726613D01*
X5709799Y-4623886D01*
X5718694Y-4590691D01*
X10569500Y-4590691D01*
X10569500Y-4709309D01*
X10600201Y-4823886D01*
X10659511Y-4926613D01*
X10743387Y-5010489D01*
X10846114Y-5069799D01*
X10960691Y-5100500D01*
X10960694Y-5100500D01*
X11079306Y-5100500D01*
X11079309Y-5100500D01*
X11193886Y-5069799D01*
X11296613Y-5010489D01*
X11380489Y-4926613D01*
X11439799Y-4823886D01*
X11470500Y-4709309D01*
X11470500Y-4590691D01*
X11439799Y-4476114D01*
X11380489Y-4373387D01*
X11296613Y-4289511D01*
X11193886Y-4230201D01*
X11079309Y-4199500D01*
X10960691Y-4199500D01*
X10846114Y-4230201D01*
X10846112Y-4230201D01*
X10846112Y-4230202D01*
X10743387Y-4289511D01*
X10743384Y-4289513D01*
X10659513Y-4373384D01*
X10659511Y-4373387D01*
X10609621Y-4459799D01*
X10600201Y-4476114D01*
X10569500Y-4590691D01*
X5718694Y-4590691D01*
X5740500Y-4509309D01*
X5740500Y-4390691D01*
X5709799Y-4276114D01*
X5650489Y-4173387D01*
X5566613Y-4089511D01*
X5463886Y-4030201D01*
X5349309Y-3999500D01*
X5230691Y-3999500D01*
X5116114Y-4030201D01*
X5116112Y-4030201D01*
X5116112Y-4030202D01*
X5013387Y-4089511D01*
X5013384Y-4089513D01*
X4929513Y-4173384D01*
X4929511Y-4173387D01*
X4896709Y-4230202D01*
X4870201Y-4276114D01*
X4839500Y-4390691D01*
X-459500Y-4390691D01*
X-459500Y-4330691D01*
X-490201Y-4216114D01*
X-491486Y-4213889D01*
X-549511Y-4113387D01*
X-549513Y-4113384D01*
X-633384Y-4029513D01*
X-633387Y-4029511D01*
X-736112Y-3970202D01*
X-736112Y-3970201D01*
X-736114Y-3970201D01*
X-850691Y-3939500D01*
X-969309Y-3939500D01*
X-1083886Y-3970201D01*
X-1186613Y-4029511D01*
X-1270489Y-4113387D01*
X-1329799Y-4216114D01*
X-1360500Y-4330691D01*
X-2003589Y-4330691D01*
X-1989511Y-4316613D01*
X-1989509Y-4316610D01*
X-1989506Y-4316606D01*
X-1957149Y-4260563D01*
X-1930202Y-4213889D01*
X-1930201Y-4213886D01*
X-1899500Y-4099309D01*
X-1899500Y-3980691D01*
X-1930201Y-3866114D01*
X-1934005Y-3859526D01*
X-1989511Y-3763387D01*
X-1989513Y-3763384D01*
X-2073384Y-3679513D01*
X-2073387Y-3679511D01*
X-2176112Y-3620202D01*
X-2176112Y-3620201D01*
X-2176114Y-3620201D01*
X-2290691Y-3589500D01*
X-2409309Y-3589500D01*
X-2523886Y-3620201D01*
X-2626613Y-3679511D01*
X-2710489Y-3763387D01*
X-2769799Y-3866114D01*
X-2800500Y-3980691D01*
X-6722206Y-3980691D01*
X-6793384Y-3909513D01*
X-6793387Y-3909511D01*
X-6896112Y-3850202D01*
X-6896112Y-3850201D01*
X-6896114Y-3850201D01*
X-7010691Y-3819500D01*
X-7129309Y-3819500D01*
X-7243886Y-3850201D01*
X-7346613Y-3909511D01*
X-7430489Y-3993387D01*
X-7489799Y-4096114D01*
X-7520500Y-4210691D01*
X-12764837Y-4210691D01*
X-12764500Y-4209435D01*
X-12764500Y-4110567D01*
X-12764499Y-4110567D01*
X-12784864Y-4034565D01*
X-12790090Y-4015062D01*
X-12790091Y-4015060D01*
X-12790091Y-4015059D01*
X-12839526Y-3929436D01*
X-12909436Y-3859526D01*
X-12995060Y-3810091D01*
X-12995060Y-3810090D01*
X-12995062Y-3810090D01*
X-13090565Y-3784500D01*
X-13189435Y-3784500D01*
X-13284938Y-3810090D01*
X-13370562Y-3859525D01*
X-13440475Y-3929438D01*
X-13489910Y-4015062D01*
X-13515500Y-4110565D01*
X-15973357Y-4110565D01*
X-16116909Y-3500691D01*
X419500Y-3500691D01*
X419500Y-3619309D01*
X450201Y-3733886D01*
X509511Y-3836613D01*
X593387Y-3920489D01*
X696114Y-3979799D01*
X810691Y-4010500D01*
X810694Y-4010500D01*
X929306Y-4010500D01*
X929309Y-4010500D01*
X1043886Y-3979799D01*
X1146613Y-3920489D01*
X1230489Y-3836613D01*
X1289799Y-3733886D01*
X1320500Y-3619309D01*
X1320500Y-3500691D01*
X1301743Y-3430691D01*
X2319500Y-3430691D01*
X2319500Y-3549309D01*
X2350201Y-3663886D01*
X2409511Y-3766613D01*
X2493387Y-3850489D01*
X2596114Y-3909799D01*
X2710691Y-3940500D01*
X2710694Y-3940500D01*
X2829306Y-3940500D01*
X2829309Y-3940500D01*
X2943886Y-3909799D01*
X3046613Y-3850489D01*
X3130489Y-3766613D01*
X3189799Y-3663886D01*
X3220500Y-3549309D01*
X3220500Y-3430691D01*
X3189799Y-3316114D01*
X3130489Y-3213387D01*
X3046613Y-3129511D01*
X2943886Y-3070201D01*
X2829309Y-3039500D01*
X2710691Y-3039500D01*
X2596114Y-3070201D01*
X2596112Y-3070201D01*
X2596112Y-3070202D01*
X2493387Y-3129511D01*
X2493384Y-3129513D01*
X2409513Y-3213384D01*
X2409511Y-3213387D01*
X2350201Y-3316114D01*
X2319500Y-3430691D01*
X1301743Y-3430691D01*
X1289799Y-3386114D01*
X1230489Y-3283387D01*
X1146613Y-3199511D01*
X1043886Y-3140201D01*
X929309Y-3109500D01*
X810691Y-3109500D01*
X696114Y-3140201D01*
X696112Y-3140201D01*
X696112Y-3140202D01*
X593387Y-3199511D01*
X593384Y-3199513D01*
X509513Y-3283384D01*
X509511Y-3283387D01*
X476545Y-3340486D01*
X450201Y-3386114D01*
X419500Y-3500691D01*
X-16116909Y-3500691D01*
X-16175578Y-3251438D01*
X-16177192Y-3243398D01*
X-16353829Y-2182809D01*
X-16354812Y-2176911D01*
X-16355655Y-2170565D01*
X-12285500Y-2170565D01*
X-12285500Y-2269435D01*
X-12259910Y-2364938D01*
X-12210475Y-2450562D01*
X-12140562Y-2520475D01*
X-12054938Y-2569910D01*
X-11959435Y-2595500D01*
X-11959432Y-2595500D01*
X-11860567Y-2595500D01*
X-11860565Y-2595500D01*
X-11765062Y-2569910D01*
X-11679438Y-2520475D01*
X-11609525Y-2450562D01*
X-11560090Y-2364938D01*
X-11534500Y-2269435D01*
X-11534500Y-2200565D01*
X-10565500Y-2200565D01*
X-10565500Y-2299435D01*
X-10539910Y-2394938D01*
X-10490475Y-2480562D01*
X-10420562Y-2550475D01*
X-10334938Y-2599910D01*
X-10239435Y-2625500D01*
X-10239432Y-2625500D01*
X-10140567Y-2625500D01*
X-10140565Y-2625500D01*
X-10085297Y-2610691D01*
X-4750500Y-2610691D01*
X-4750500Y-2729309D01*
X-4719799Y-2843886D01*
X-4660489Y-2946613D01*
X-4576613Y-3030489D01*
X-4473886Y-3089799D01*
X-4359309Y-3120500D01*
X-4359306Y-3120500D01*
X-4240694Y-3120500D01*
X-4240691Y-3120500D01*
X-4126114Y-3089799D01*
X-4023387Y-3030489D01*
X-3963589Y-2970691D01*
X4789500Y-2970691D01*
X4789500Y-3089309D01*
X4820201Y-3203886D01*
X4879511Y-3306613D01*
X4963387Y-3390489D01*
X5066114Y-3449799D01*
X5180691Y-3480500D01*
X5180694Y-3480500D01*
X5299306Y-3480500D01*
X5299309Y-3480500D01*
X5413886Y-3449799D01*
X5516613Y-3390489D01*
X5600489Y-3306613D01*
X5659799Y-3203886D01*
X5690500Y-3089309D01*
X5690500Y-2970691D01*
X5677102Y-2920691D01*
X12909500Y-2920691D01*
X12909500Y-3039309D01*
X12940201Y-3153886D01*
X12999511Y-3256613D01*
X13083387Y-3340489D01*
X13186114Y-3399799D01*
X13300691Y-3430500D01*
X13300694Y-3430500D01*
X13419306Y-3430500D01*
X13419309Y-3430500D01*
X13533886Y-3399799D01*
X13636613Y-3340489D01*
X13720489Y-3256613D01*
X13779799Y-3153886D01*
X13810500Y-3039309D01*
X13810500Y-2920691D01*
X13779799Y-2806114D01*
X13720489Y-2703387D01*
X13636613Y-2619511D01*
X13533886Y-2560201D01*
X13419309Y-2529500D01*
X13300691Y-2529500D01*
X13186114Y-2560201D01*
X13186112Y-2560201D01*
X13186112Y-2560202D01*
X13083387Y-2619511D01*
X13083384Y-2619513D01*
X12999513Y-2703384D01*
X12999511Y-2703387D01*
X12954954Y-2780562D01*
X12940201Y-2806114D01*
X12909500Y-2920691D01*
X5677102Y-2920691D01*
X5659799Y-2856114D01*
X5600489Y-2753387D01*
X5516613Y-2669511D01*
X5413886Y-2610201D01*
X5299309Y-2579500D01*
X5180691Y-2579500D01*
X5066114Y-2610201D01*
X5066112Y-2610201D01*
X5066112Y-2610202D01*
X4963387Y-2669511D01*
X4963384Y-2669513D01*
X4879513Y-2753384D01*
X4879511Y-2753387D01*
X4820201Y-2856114D01*
X4789500Y-2970691D01*
X-3963589Y-2970691D01*
X-3939511Y-2946613D01*
X-3880201Y-2843886D01*
X-3849500Y-2729309D01*
X-3849500Y-2610691D01*
X-3880201Y-2496114D01*
X-3903992Y-2454908D01*
X-3939511Y-2393387D01*
X-3939513Y-2393384D01*
X-4023384Y-2309513D01*
X-4023387Y-2309511D01*
X-4126112Y-2250202D01*
X-4126112Y-2250201D01*
X-4126114Y-2250201D01*
X-4240691Y-2219500D01*
X-4359309Y-2219500D01*
X-4473886Y-2250201D01*
X-4576613Y-2309511D01*
X-4660489Y-2393387D01*
X-4719799Y-2496114D01*
X-4750500Y-2610691D01*
X-10085297Y-2610691D01*
X-10045062Y-2599910D01*
X-9959438Y-2550475D01*
X-9889525Y-2480562D01*
X-9840090Y-2394938D01*
X-9817291Y-2309851D01*
X-9780927Y-2250192D01*
X-9718080Y-2219663D01*
X-9648705Y-2227958D01*
X-9609841Y-2254260D01*
X-9540113Y-2323989D01*
X-9437386Y-2383299D01*
X-9322809Y-2414000D01*
X-9322806Y-2414000D01*
X-9204194Y-2414000D01*
X-9204191Y-2414000D01*
X-9089614Y-2383299D01*
X-8986887Y-2323989D01*
X-8903011Y-2240113D01*
X-8843701Y-2137386D01*
X-8813000Y-2022809D01*
X-8813000Y-1904191D01*
X-8843701Y-1789614D01*
X-8903011Y-1686887D01*
X-8903013Y-1686884D01*
X-8909653Y-1680245D01*
X-8986884Y-1603013D01*
X-8986887Y-1603011D01*
X-8990905Y-1600691D01*
X-2040500Y-1600691D01*
X-2040500Y-1719309D01*
X-2009799Y-1833886D01*
X-1950489Y-1936613D01*
X-1866613Y-2020489D01*
X-1763886Y-2079799D01*
X-1649309Y-2110500D01*
X-1649306Y-2110500D01*
X-1530694Y-2110500D01*
X-1530691Y-2110500D01*
X-1416114Y-2079799D01*
X-1313387Y-2020489D01*
X-1229511Y-1936613D01*
X-1170201Y-1833886D01*
X-1139500Y-1719309D01*
X-1139500Y-1600691D01*
X-1158257Y-1530691D01*
X409500Y-1530691D01*
X409500Y-1649309D01*
X440201Y-1763886D01*
X499511Y-1866613D01*
X583387Y-1950489D01*
X686114Y-2009799D01*
X800691Y-2040500D01*
X800694Y-2040500D01*
X879101Y-2040500D01*
X946140Y-2060185D01*
X991895Y-2112989D01*
X1001839Y-2182147D01*
X972814Y-2245703D01*
X966782Y-2252181D01*
X899526Y-2319436D01*
X850091Y-2405059D01*
X850091Y-2405060D01*
X850090Y-2405062D01*
X824500Y-2500565D01*
X824500Y-2599435D01*
X850090Y-2694938D01*
X899525Y-2780562D01*
X969438Y-2850475D01*
X1055062Y-2899910D01*
X1150565Y-2925500D01*
X1156992Y-2925500D01*
X1249432Y-2925500D01*
X1249435Y-2925500D01*
X1344938Y-2899910D01*
X1430562Y-2850475D01*
X1500475Y-2780562D01*
X1549910Y-2694938D01*
X1565786Y-2635687D01*
X1602148Y-2576030D01*
X1664994Y-2545500D01*
X1734370Y-2553794D01*
X1754454Y-2564684D01*
X1760585Y-2568781D01*
X1760586Y-2568781D01*
X1760587Y-2568782D01*
X1825091Y-2595500D01*
X1825093Y-2595500D01*
X1894907Y-2595500D01*
X1894909Y-2595500D01*
X1959413Y-2568782D01*
X2008782Y-2519413D01*
X2035500Y-2454909D01*
X2035500Y-2385091D01*
X2008782Y-2320587D01*
X1959413Y-2271218D01*
X1894909Y-2244500D01*
X1825091Y-2244500D01*
X1760586Y-2271218D01*
X1711215Y-2320589D01*
X1709295Y-2323463D01*
X1703500Y-2328304D01*
X1702582Y-2329223D01*
X1702499Y-2329140D01*
X1655678Y-2368262D01*
X1586352Y-2376962D01*
X1523328Y-2346801D01*
X1506007Y-2325434D01*
X1505421Y-2325884D01*
X1500475Y-2319438D01*
X1430563Y-2249526D01*
X1430562Y-2249525D01*
X1344938Y-2200090D01*
X1249435Y-2174500D01*
X1209968Y-2174500D01*
X1142929Y-2154815D01*
X1097174Y-2102011D01*
X1087230Y-2032853D01*
X1116255Y-1969297D01*
X1134481Y-1952125D01*
X1136608Y-1950491D01*
X1136613Y-1950489D01*
X1220489Y-1866613D01*
X1279799Y-1763886D01*
X1286014Y-1740691D01*
X11199500Y-1740691D01*
X11199500Y-1859309D01*
X11230201Y-1973886D01*
X11289511Y-2076613D01*
X11373387Y-2160489D01*
X11476114Y-2219799D01*
X11590691Y-2250500D01*
X11590694Y-2250500D01*
X11709306Y-2250500D01*
X11709309Y-2250500D01*
X11823886Y-2219799D01*
X11926613Y-2160489D01*
X12010489Y-2076613D01*
X12069799Y-1973886D01*
X12100500Y-1859309D01*
X12100500Y-1740691D01*
X12069799Y-1626114D01*
X12010489Y-1523387D01*
X11926613Y-1439511D01*
X11823886Y-1380201D01*
X11709309Y-1349500D01*
X11590691Y-1349500D01*
X11476114Y-1380201D01*
X11476112Y-1380201D01*
X11476112Y-1380202D01*
X11373387Y-1439511D01*
X11373384Y-1439513D01*
X11289513Y-1523384D01*
X11289511Y-1523387D01*
X11242103Y-1605500D01*
X11230201Y-1626114D01*
X11199500Y-1740691D01*
X1286014Y-1740691D01*
X1310500Y-1649309D01*
X1310500Y-1530691D01*
X1279799Y-1416114D01*
X1220489Y-1313387D01*
X1136613Y-1229511D01*
X1033886Y-1170201D01*
X919309Y-1139500D01*
X800691Y-1139500D01*
X686114Y-1170201D01*
X686112Y-1170201D01*
X686112Y-1170202D01*
X583387Y-1229511D01*
X583384Y-1229513D01*
X499513Y-1313384D01*
X499511Y-1313387D01*
X460936Y-1380201D01*
X440201Y-1416114D01*
X409500Y-1530691D01*
X-1158257Y-1530691D01*
X-1170201Y-1486114D01*
X-1229511Y-1383387D01*
X-1229513Y-1383384D01*
X-1313384Y-1299513D01*
X-1313387Y-1299511D01*
X-1416112Y-1240202D01*
X-1416112Y-1240201D01*
X-1416114Y-1240201D01*
X-1530691Y-1209500D01*
X-1649309Y-1209500D01*
X-1763886Y-1240201D01*
X-1866613Y-1299511D01*
X-1950489Y-1383387D01*
X-2009799Y-1486114D01*
X-2040500Y-1600691D01*
X-8990905Y-1600691D01*
X-9089612Y-1543702D01*
X-9089612Y-1543701D01*
X-9089614Y-1543701D01*
X-9204191Y-1513000D01*
X-9322809Y-1513000D01*
X-9437386Y-1543701D01*
X-9540113Y-1603011D01*
X-9623989Y-1686887D01*
X-9683299Y-1789614D01*
X-9714000Y-1904191D01*
X-9714000Y-1904193D01*
X-9715007Y-1911841D01*
X-9743275Y-1975737D01*
X-9801600Y-2014208D01*
X-9871465Y-2015038D01*
X-9925626Y-1983336D01*
X-9959436Y-1949526D01*
X-10045060Y-1900091D01*
X-10045060Y-1900090D01*
X-10045062Y-1900090D01*
X-10140565Y-1874500D01*
X-10239435Y-1874500D01*
X-10334938Y-1900090D01*
X-10420562Y-1949525D01*
X-10490475Y-2019438D01*
X-10539910Y-2105062D01*
X-10565500Y-2200565D01*
X-11534500Y-2200565D01*
X-11534500Y-2170567D01*
X-11534499Y-2170567D01*
X-11547295Y-2122813D01*
X-11560090Y-2075062D01*
X-11560091Y-2075060D01*
X-11560091Y-2075059D01*
X-11609526Y-1989436D01*
X-11679436Y-1919526D01*
X-11765060Y-1870091D01*
X-11765060Y-1870090D01*
X-11765062Y-1870090D01*
X-11860565Y-1844500D01*
X-11959435Y-1844500D01*
X-12054938Y-1870090D01*
X-12054940Y-1870091D01*
X-12077882Y-1883337D01*
X-12140562Y-1919525D01*
X-12210475Y-1989438D01*
X-12259910Y-2075062D01*
X-12285500Y-2170565D01*
X-16355655Y-2170565D01*
X-16355890Y-2168795D01*
X-16462814Y-1092912D01*
X-16463354Y-1084747D01*
X-16499090Y-4098D01*
X-16499090Y4098D01*
X-16495937Y99435D01*
X-15245500Y99435D01*
X-15245500Y565D01*
X-15219910Y-94938D01*
X-15170475Y-180562D01*
X-15100562Y-250475D01*
X-15014938Y-299910D01*
X-14919435Y-325500D01*
X-14919432Y-325500D01*
X-14820567Y-325500D01*
X-14820565Y-325500D01*
X-14725062Y-299910D01*
X-14639438Y-250475D01*
X-14569525Y-180562D01*
X-14531818Y-115251D01*
X-14520091Y-94940D01*
X-14520091Y-94939D01*
X-14520090Y-94938D01*
X-14494500Y565D01*
X-14494500Y29309D01*
X-10450500Y29309D01*
X-10450500Y-89309D01*
X-10419799Y-203886D01*
X-10360489Y-306613D01*
X-10276613Y-390489D01*
X-10173886Y-449799D01*
X-10059309Y-480500D01*
X-10059306Y-480500D01*
X-9940694Y-480500D01*
X-9940691Y-480500D01*
X-9826114Y-449799D01*
X-9723387Y-390489D01*
X-9639511Y-306613D01*
X-9580201Y-203886D01*
X-9549500Y-89309D01*
X-9549500Y19309D01*
X-8340500Y19309D01*
X-8340500Y-99309D01*
X-8309799Y-213886D01*
X-8250489Y-316613D01*
X-8166613Y-400489D01*
X-8063886Y-459799D01*
X-7949309Y-490500D01*
X-7949306Y-490500D01*
X-7830694Y-490500D01*
X-7830691Y-490500D01*
X-7716114Y-459799D01*
X-7613387Y-400489D01*
X-7529511Y-316613D01*
X-7470201Y-213886D01*
X-7439500Y-99309D01*
X-7439500Y19309D01*
X-7470201Y133886D01*
X-7507973Y199309D01*
X-6530500Y199309D01*
X-6530500Y80691D01*
X-6499799Y-33886D01*
X-6440489Y-136613D01*
X-6356613Y-220489D01*
X-6253886Y-279799D01*
X-6139309Y-310500D01*
X-6139306Y-310500D01*
X-6020694Y-310500D01*
X-6020691Y-310500D01*
X-5906114Y-279799D01*
X-5906111Y-279797D01*
X-5906109Y-279797D01*
X-5906108Y-279796D01*
X-5842041Y-242806D01*
X-5803387Y-220489D01*
X-5803386Y-220488D01*
X-5796501Y-216513D01*
X-5728601Y-200039D01*
X-5662574Y-222891D01*
X-5619383Y-277811D01*
X-5610500Y-323899D01*
X-5610500Y-330691D01*
X-5610500Y-449309D01*
X-5579799Y-563886D01*
X-5520489Y-666613D01*
X-5436613Y-750489D01*
X-5333886Y-809799D01*
X-5219309Y-840500D01*
X-5219306Y-840500D01*
X-5100694Y-840500D01*
X-5100691Y-840500D01*
X-4986114Y-809799D01*
X-4918159Y-770565D01*
X4524500Y-770565D01*
X4524500Y-869435D01*
X4550090Y-964938D01*
X4599525Y-1050562D01*
X4669438Y-1120475D01*
X4755062Y-1169910D01*
X4809947Y-1184616D01*
X4869605Y-1220979D01*
X4900135Y-1283826D01*
X4892414Y-1351841D01*
X4874500Y-1395089D01*
X4874500Y-1395091D01*
X4874500Y-1464909D01*
X4901218Y-1529413D01*
X4950587Y-1578782D01*
X5015091Y-1605500D01*
X5015093Y-1605500D01*
X5084907Y-1605500D01*
X5084909Y-1605500D01*
X5149413Y-1578782D01*
X5198782Y-1529413D01*
X5225500Y-1464909D01*
X5225500Y-1395091D01*
X5198782Y-1330587D01*
X5149413Y-1281218D01*
X5147297Y-1279102D01*
X5113812Y-1217779D01*
X5118796Y-1148087D01*
X5135756Y-1117050D01*
X5141050Y-1109986D01*
X5200475Y-1050562D01*
X5206174Y-1040691D01*
X8029500Y-1040691D01*
X8029500Y-1159309D01*
X8060201Y-1273886D01*
X8119511Y-1376613D01*
X8203387Y-1460489D01*
X8306114Y-1519799D01*
X8420691Y-1550500D01*
X8420694Y-1550500D01*
X8539306Y-1550500D01*
X8539309Y-1550500D01*
X8653886Y-1519799D01*
X8756613Y-1460489D01*
X8840489Y-1376613D01*
X8899799Y-1273886D01*
X8930500Y-1159309D01*
X8930500Y-1040691D01*
X8899799Y-926114D01*
X8899797Y-926111D01*
X8899797Y-926109D01*
X8899796Y-926108D01*
X8875812Y-884567D01*
X8875810Y-884565D01*
X8844706Y-830691D01*
X14189500Y-830691D01*
X14189500Y-949309D01*
X14220201Y-1063886D01*
X14279511Y-1166613D01*
X14363387Y-1250489D01*
X14466114Y-1309799D01*
X14580691Y-1340500D01*
X14580694Y-1340500D01*
X14699306Y-1340500D01*
X14699309Y-1340500D01*
X14813886Y-1309799D01*
X14916613Y-1250489D01*
X15000489Y-1166613D01*
X15059799Y-1063886D01*
X15090500Y-949309D01*
X15090500Y-830691D01*
X15059799Y-716114D01*
X15000489Y-613387D01*
X14916613Y-529511D01*
X14813886Y-470201D01*
X14699309Y-439500D01*
X14580691Y-439500D01*
X14466114Y-470201D01*
X14466112Y-470201D01*
X14466112Y-470202D01*
X14363387Y-529511D01*
X14363384Y-529513D01*
X14279513Y-613384D01*
X14279511Y-613387D01*
X14240936Y-680201D01*
X14220201Y-716114D01*
X14189500Y-830691D01*
X8844706Y-830691D01*
X8840489Y-823387D01*
X8756613Y-739511D01*
X8653886Y-680201D01*
X8539309Y-649500D01*
X8420691Y-649500D01*
X8306114Y-680201D01*
X8306112Y-680201D01*
X8306112Y-680202D01*
X8203387Y-739511D01*
X8203384Y-739513D01*
X8119513Y-823384D01*
X8119511Y-823387D01*
X8084190Y-884565D01*
X8060201Y-926114D01*
X8029500Y-1040691D01*
X5206174Y-1040691D01*
X5249910Y-964938D01*
X5275500Y-869435D01*
X5275500Y-770565D01*
X5249910Y-675062D01*
X5233818Y-647190D01*
X5217346Y-579293D01*
X5240198Y-513266D01*
X5253515Y-497521D01*
X5280475Y-470562D01*
X5329910Y-384938D01*
X5342986Y-336138D01*
X9919500Y-336138D01*
X9919500Y-423861D01*
X9942961Y-480500D01*
X9953069Y-504903D01*
X10015097Y-566931D01*
X10096140Y-600500D01*
X10096142Y-600500D01*
X10183858Y-600500D01*
X10183860Y-600500D01*
X10264903Y-566931D01*
X10326931Y-504903D01*
X10360500Y-423860D01*
X10360500Y-336140D01*
X10326931Y-255097D01*
X10264903Y-193069D01*
X10240051Y-182775D01*
X10183861Y-159500D01*
X10183860Y-159500D01*
X10096140Y-159500D01*
X10096138Y-159500D01*
X10015096Y-193069D01*
X9953069Y-255096D01*
X9919500Y-336138D01*
X5342986Y-336138D01*
X5355500Y-289435D01*
X5355500Y-287244D01*
X5357143Y-278987D01*
X5371525Y-251494D01*
X5384082Y-223107D01*
X5387586Y-220795D01*
X5389531Y-217078D01*
X5416497Y-201723D01*
X5442405Y-184633D01*
X5449774Y-182775D01*
X5450248Y-182506D01*
X5450739Y-182532D01*
X5454573Y-181566D01*
X5459930Y-180500D01*
X5459936Y-180500D01*
X5515251Y-157587D01*
X5557587Y-115251D01*
X5580500Y-59936D01*
X5580500Y-64D01*
X5557587Y55251D01*
X5538939Y73899D01*
X5518371Y94468D01*
X5515253Y97585D01*
X5515251Y97587D01*
X5459936Y120500D01*
X5400064Y120500D01*
X5344749Y97587D01*
X5344747Y97585D01*
X5344746Y97585D01*
X5339384Y92223D01*
X5278061Y58738D01*
X5208369Y63722D01*
X5189716Y72510D01*
X5124938Y109910D01*
X5029435Y135500D01*
X4930565Y135500D01*
X4835062Y109910D01*
X4749438Y60475D01*
X4749436Y60473D01*
X4679526Y-9436D01*
X4630091Y-95059D01*
X4630091Y-95060D01*
X4630090Y-95062D01*
X4604500Y-190565D01*
X4604500Y-289435D01*
X4630090Y-384938D01*
X4630091Y-384939D01*
X4630091Y-384940D01*
X4646180Y-412807D01*
X4662653Y-480708D01*
X4639800Y-546734D01*
X4626476Y-562487D01*
X4599525Y-589438D01*
X4550091Y-675059D01*
X4550091Y-675060D01*
X4550090Y-675062D01*
X4524500Y-770565D01*
X-4918159Y-770565D01*
X-4883387Y-750489D01*
X-4799511Y-666613D01*
X-4740201Y-563886D01*
X-4709500Y-449309D01*
X-4709500Y-330691D01*
X-4740201Y-216114D01*
X-4760727Y-180563D01*
X-4799511Y-113387D01*
X-4799513Y-113384D01*
X-4883384Y-29513D01*
X-4883387Y-29511D01*
X-4916315Y-10500D01*
X-4986114Y29799D01*
X-5100691Y60500D01*
X-5219309Y60500D01*
X-5333886Y29799D01*
X-5333888Y29797D01*
X-5333890Y29797D01*
X-5333890Y29796D01*
X-5436613Y-29511D01*
X-5443499Y-33487D01*
X-5511399Y-49961D01*
X-5577426Y-27109D01*
X-5620617Y27811D01*
X-5629500Y73899D01*
X-5629500Y169936D01*
X6839500Y169936D01*
X6839500Y110064D01*
X6846890Y92223D01*
X6862414Y54746D01*
X6904746Y12414D01*
X6911721Y9525D01*
X6960064Y-10500D01*
X6960066Y-10500D01*
X7019934Y-10500D01*
X7019936Y-10500D01*
X7075251Y12413D01*
X7075253Y12414D01*
X7117585Y54746D01*
X7117585Y54747D01*
X7117587Y54749D01*
X7140500Y110064D01*
X7140500Y169936D01*
X7117587Y225251D01*
X7082271Y260567D01*
X11214499Y260567D01*
X11220917Y236615D01*
X11232084Y194939D01*
X11240091Y165060D01*
X11240091Y165059D01*
X11289526Y79436D01*
X11359436Y9526D01*
X11359438Y9525D01*
X11445062Y-39910D01*
X11540565Y-65500D01*
X11540567Y-65500D01*
X11639432Y-65500D01*
X11639435Y-65500D01*
X11734938Y-39910D01*
X11734939Y-39908D01*
X11742788Y-37806D01*
X11743197Y-39333D01*
X11803390Y-32859D01*
X11865871Y-64132D01*
X11901151Y-122794D01*
X11920201Y-193886D01*
X11979511Y-296613D01*
X12063387Y-380489D01*
X12166114Y-439799D01*
X12280691Y-470500D01*
X12280694Y-470500D01*
X12399306Y-470500D01*
X12399309Y-470500D01*
X12513886Y-439799D01*
X12616613Y-380489D01*
X12700489Y-296613D01*
X12759799Y-193886D01*
X12790500Y-79309D01*
X12790500Y39309D01*
X12759799Y153886D01*
X12700489Y256613D01*
X12616613Y340489D01*
X12513886Y399799D01*
X12399309Y430500D01*
X12280691Y430500D01*
X12166114Y399799D01*
X12122959Y374883D01*
X12101452Y369665D01*
X12081553Y359993D01*
X12068165Y361590D01*
X12055061Y358411D01*
X12034146Y365649D01*
X12012175Y368271D01*
X12001775Y376853D01*
X11989034Y381263D01*
X11975354Y398657D01*
X11958287Y412743D01*
X11949983Y430919D01*
X11945843Y436184D01*
X11942857Y444486D01*
X11941956Y447301D01*
X11939910Y454938D01*
X11939019Y456480D01*
X11936600Y464043D01*
X11935878Y494023D01*
X11932671Y523832D01*
X11935047Y528581D01*
X11934920Y533892D01*
X11950519Y559497D01*
X11963939Y586314D01*
X11969603Y590824D01*
X11971271Y593561D01*
X11975816Y595770D01*
X11992698Y609211D01*
X12010562Y619525D01*
X12080475Y689438D01*
X12129910Y775062D01*
X12155500Y870565D01*
X12155500Y969435D01*
X12129910Y1064938D01*
X12080475Y1150562D01*
X12010562Y1220475D01*
X11924938Y1269910D01*
X11829435Y1295500D01*
X11730565Y1295500D01*
X11635062Y1269910D01*
X11549438Y1220475D01*
X11479525Y1150562D01*
X11430090Y1064938D01*
X11404500Y969435D01*
X11404500Y969432D01*
X11404500Y870567D01*
X11404499Y870567D01*
X11404500Y870565D01*
X11430090Y775062D01*
X11430090Y775060D01*
X11432194Y767212D01*
X11430802Y766839D01*
X11437324Y706146D01*
X11406045Y643669D01*
X11377299Y620787D01*
X11359438Y610475D01*
X11289525Y540562D01*
X11240090Y454938D01*
X11214500Y359435D01*
X11214500Y359432D01*
X11214500Y260567D01*
X11214499Y260567D01*
X7082271Y260567D01*
X7075251Y267587D01*
X7019936Y290500D01*
X6960064Y290500D01*
X6904749Y267587D01*
X6904747Y267585D01*
X6904746Y267585D01*
X6862414Y225253D01*
X6862413Y225251D01*
X6839500Y169936D01*
X-5629500Y169936D01*
X-5629500Y199306D01*
X-5629500Y199309D01*
X-5660201Y313886D01*
X-5719511Y416613D01*
X-5803387Y500489D01*
X-5906114Y559799D01*
X-6020691Y590500D01*
X-6139309Y590500D01*
X-6253886Y559799D01*
X-6356613Y500489D01*
X-6440489Y416613D01*
X-6499799Y313886D01*
X-6530500Y199309D01*
X-7507973Y199309D01*
X-7529511Y236613D01*
X-7613387Y320489D01*
X-7716114Y379799D01*
X-7830691Y410500D01*
X-7949309Y410500D01*
X-8063886Y379799D01*
X-8166613Y320489D01*
X-8250489Y236613D01*
X-8309799Y133886D01*
X-8340500Y19309D01*
X-9549500Y19309D01*
X-9549500Y29309D01*
X-9580201Y143886D01*
X-9639511Y246613D01*
X-9723387Y330489D01*
X-9826114Y389799D01*
X-9940691Y420500D01*
X-10059309Y420500D01*
X-10173886Y389799D01*
X-10276613Y330489D01*
X-10360489Y246613D01*
X-10419799Y143886D01*
X-10450500Y29309D01*
X-14494500Y29309D01*
X-14494500Y99435D01*
X-14520090Y194938D01*
X-14522614Y199309D01*
X-14537592Y225253D01*
X-14569525Y280562D01*
X-14639438Y350475D01*
X-14725062Y399910D01*
X-14820565Y425500D01*
X-14919435Y425500D01*
X-15014938Y399910D01*
X-15100562Y350475D01*
X-15170475Y280562D01*
X-15219910Y194938D01*
X-15245500Y99435D01*
X-16495937Y99435D01*
X-16495533Y111660D01*
X-16463354Y1084747D01*
X-16462814Y1092912D01*
X-16431369Y1409309D01*
X-10190500Y1409309D01*
X-10190500Y1290691D01*
X-10159799Y1176114D01*
X-10100489Y1073387D01*
X-10016613Y989511D01*
X-9913886Y930201D01*
X-9799309Y899500D01*
X-9799306Y899500D01*
X-9680694Y899500D01*
X-9680691Y899500D01*
X-9566114Y930201D01*
X-9531471Y950202D01*
X-9463387Y989511D01*
X-9463384Y989513D01*
X-9379513Y1073384D01*
X-9379511Y1073387D01*
X-9320202Y1176112D01*
X-9314842Y1196114D01*
X-9295196Y1269435D01*
X-1995500Y1269435D01*
X-1995500Y1170565D01*
X-1969910Y1075062D01*
X-1920475Y989438D01*
X-1850562Y919525D01*
X-1764938Y870090D01*
X-1669435Y844500D01*
X-1669433Y844500D01*
X-1570567Y844500D01*
X-1570565Y844500D01*
X-1475062Y870090D01*
X-1475060Y870091D01*
X-1475059Y870091D01*
X-1389436Y919526D01*
X-1319526Y989436D01*
X-1270091Y1075059D01*
X-1270091Y1075060D01*
X-1266398Y1088841D01*
X-1244500Y1170565D01*
X-1244500Y1229309D01*
X-570500Y1229309D01*
X-570500Y1110691D01*
X-539799Y996114D01*
X-480489Y893387D01*
X-396613Y809511D01*
X-293886Y750201D01*
X-179309Y719500D01*
X-179306Y719500D01*
X-60694Y719500D01*
X-60691Y719500D01*
X53886Y750201D01*
X156613Y809511D01*
X240489Y893387D01*
X299799Y996114D01*
X330500Y1110691D01*
X330500Y1229309D01*
X299799Y1343886D01*
X250480Y1429309D01*
X4699500Y1429309D01*
X4699500Y1310691D01*
X4730201Y1196114D01*
X4730202Y1196112D01*
X4789511Y1093387D01*
X4789513Y1093384D01*
X4873384Y1009513D01*
X4873387Y1009511D01*
X4955866Y961891D01*
X4976114Y950201D01*
X5090691Y919500D01*
X5094263Y918543D01*
X5153923Y882177D01*
X5184452Y819330D01*
X5176730Y751316D01*
X5174219Y745253D01*
X5169500Y733861D01*
X5169500Y733858D01*
X5169500Y646138D01*
X5203069Y565096D01*
X5265096Y503069D01*
X5346138Y469500D01*
X5346140Y469500D01*
X5433861Y469500D01*
X5514903Y503069D01*
X5576930Y565096D01*
X5576931Y565097D01*
X5610500Y646140D01*
X5610500Y689936D01*
X8079500Y689936D01*
X8079500Y630064D01*
X8087614Y610475D01*
X8102414Y574746D01*
X8144746Y532414D01*
X8151781Y529500D01*
X8200064Y509500D01*
X8200066Y509500D01*
X8259934Y509500D01*
X8259936Y509500D01*
X8315251Y532413D01*
X8315253Y532414D01*
X8357585Y574746D01*
X8357585Y574747D01*
X8357587Y574749D01*
X8380500Y630064D01*
X8380500Y689936D01*
X8357587Y745251D01*
X8315251Y787587D01*
X8259936Y810500D01*
X8200064Y810500D01*
X8144749Y787587D01*
X8144747Y787585D01*
X8144746Y787585D01*
X8102414Y745253D01*
X8102413Y745251D01*
X8079500Y689936D01*
X5610500Y689936D01*
X5610500Y733860D01*
X5576931Y814903D01*
X5514903Y876931D01*
X5514895Y876934D01*
X5508136Y881451D01*
X5499003Y892377D01*
X5486717Y899579D01*
X5477041Y918653D01*
X5463328Y935061D01*
X5461552Y949189D01*
X5455110Y961891D01*
X5457283Y983168D01*
X5454617Y1004386D01*
X5460899Y1018576D01*
X5462209Y1031399D01*
X5467464Y1039309D01*
X9399500Y1039309D01*
X9399500Y920691D01*
X9429291Y809511D01*
X9430202Y806112D01*
X9489511Y703387D01*
X9489513Y703384D01*
X9573384Y619513D01*
X9573387Y619511D01*
X9667635Y565096D01*
X9676114Y560201D01*
X9790691Y529500D01*
X9790694Y529500D01*
X9909306Y529500D01*
X9909309Y529500D01*
X10023886Y560201D01*
X10126613Y619511D01*
X10210489Y703387D01*
X10269799Y806114D01*
X10300500Y920691D01*
X10300500Y1039309D01*
X10269799Y1153886D01*
X10210489Y1256613D01*
X10126613Y1340489D01*
X10023886Y1399799D01*
X9909309Y1430500D01*
X9790691Y1430500D01*
X9676114Y1399799D01*
X9573387Y1340489D01*
X9489511Y1256613D01*
X9430201Y1153886D01*
X9399500Y1039309D01*
X5467464Y1039309D01*
X5475298Y1051102D01*
X5480056Y1061848D01*
X5484401Y1067299D01*
X5510489Y1093387D01*
X5569799Y1196114D01*
X5600500Y1310691D01*
X5600500Y1429309D01*
X5569799Y1543886D01*
X5510489Y1646613D01*
X5433189Y1723913D01*
X7789500Y1723913D01*
X7789500Y1656084D01*
X7793423Y1646613D01*
X7814595Y1595500D01*
X7815458Y1593418D01*
X7863418Y1545458D01*
X7863419Y1545457D01*
X7863420Y1545457D01*
X7867213Y1543886D01*
X7926084Y1519500D01*
X7926085Y1519500D01*
X7993915Y1519500D01*
X8056580Y1545457D01*
X8104543Y1593420D01*
X8130500Y1656085D01*
X8130500Y1723915D01*
X8104543Y1786580D01*
X8056580Y1834543D01*
X7993915Y1860500D01*
X7926085Y1860500D01*
X7863420Y1834543D01*
X7815457Y1786580D01*
X7795734Y1738966D01*
X7795733Y1738965D01*
X7789501Y1723920D01*
X7789500Y1723913D01*
X5433189Y1723913D01*
X5426613Y1730489D01*
X5323886Y1789799D01*
X5209309Y1820500D01*
X5090691Y1820500D01*
X4976114Y1789799D01*
X4873387Y1730489D01*
X4789511Y1646613D01*
X4730201Y1543886D01*
X4699500Y1429309D01*
X250480Y1429309D01*
X240489Y1446613D01*
X156613Y1530489D01*
X53886Y1589799D01*
X-60691Y1620500D01*
X-179309Y1620500D01*
X-293886Y1589799D01*
X-396613Y1530489D01*
X-480489Y1446613D01*
X-539799Y1343886D01*
X-570500Y1229309D01*
X-1244500Y1229309D01*
X-1244500Y1269435D01*
X-1270090Y1364938D01*
X-1319525Y1450562D01*
X-1389438Y1520475D01*
X-1475062Y1569910D01*
X-1570565Y1595500D01*
X-1669435Y1595500D01*
X-1764938Y1569910D01*
X-1850562Y1520475D01*
X-1920475Y1450562D01*
X-1969910Y1364938D01*
X-1995500Y1269435D01*
X-9295196Y1269435D01*
X-9289500Y1290691D01*
X-9289500Y1409309D01*
X-9320201Y1523886D01*
X-9379511Y1626613D01*
X-9463387Y1710489D01*
X-9566114Y1769799D01*
X-9680691Y1800500D01*
X-9799309Y1800500D01*
X-9913886Y1769799D01*
X-10016613Y1710489D01*
X-10100489Y1626613D01*
X-10159799Y1523886D01*
X-10190500Y1409309D01*
X-16431369Y1409309D01*
X-16429343Y1429699D01*
X-16373728Y1989309D01*
X-8420500Y1989309D01*
X-8420500Y1870691D01*
X-8389799Y1756114D01*
X-8330489Y1653387D01*
X-8246613Y1569511D01*
X-8143886Y1510201D01*
X-8029309Y1479500D01*
X-8029306Y1479500D01*
X-7910694Y1479500D01*
X-7910691Y1479500D01*
X-7796114Y1510201D01*
X-7778322Y1520473D01*
X-7693387Y1569511D01*
X-7693384Y1569513D01*
X-7609513Y1653384D01*
X-7609511Y1653387D01*
X-7550202Y1756112D01*
X-7546535Y1769797D01*
X-7519500Y1870691D01*
X-7519500Y1989309D01*
X-7550201Y2103886D01*
X-7609511Y2206613D01*
X-7693387Y2290489D01*
X-7796114Y2349799D01*
X-7910691Y2380500D01*
X-8029309Y2380500D01*
X-8143886Y2349799D01*
X-8246613Y2290489D01*
X-8330489Y2206613D01*
X-8389799Y2103886D01*
X-8420500Y1989309D01*
X-16373728Y1989309D01*
X-16355890Y2168795D01*
X-16354813Y2176903D01*
X-16297786Y2519309D01*
X-11830500Y2519309D01*
X-11830500Y2400691D01*
X-11799799Y2286114D01*
X-11740489Y2183387D01*
X-11656613Y2099511D01*
X-11553886Y2040201D01*
X-11439309Y2009500D01*
X-11439306Y2009500D01*
X-11320694Y2009500D01*
X-11320691Y2009500D01*
X-11206114Y2040201D01*
X-11103387Y2099511D01*
X-11103385Y2099512D01*
X-11019513Y2183384D01*
X-11019511Y2183387D01*
X-10960202Y2286112D01*
X-10956530Y2299815D01*
X-10929500Y2400691D01*
X-10929500Y2519309D01*
X-2550500Y2519309D01*
X-2550500Y2400691D01*
X-2519799Y2286114D01*
X-2460489Y2183387D01*
X-2376613Y2099511D01*
X-2273886Y2040201D01*
X-2159309Y2009500D01*
X-2159306Y2009500D01*
X-2040694Y2009500D01*
X-2040691Y2009500D01*
X-1926114Y2040201D01*
X-1823387Y2099511D01*
X-1823384Y2099513D01*
X-1739513Y2183384D01*
X-1739511Y2183387D01*
X-1680202Y2286112D01*
X-1676530Y2299815D01*
X-1649500Y2400691D01*
X-1649500Y2519309D01*
X-1680201Y2633886D01*
X-1697507Y2663861D01*
X3849500Y2663861D01*
X3849500Y2576138D01*
X3883069Y2495096D01*
X3945096Y2433069D01*
X4026138Y2399500D01*
X4026140Y2399500D01*
X4113861Y2399500D01*
X4194903Y2433069D01*
X4256930Y2495096D01*
X4256931Y2495097D01*
X4290500Y2576140D01*
X4290500Y2663860D01*
X4256931Y2744903D01*
X4226926Y2774908D01*
X5014500Y2774908D01*
X5014500Y2705091D01*
X5041218Y2640586D01*
X5090586Y2591218D01*
X5155091Y2564500D01*
X5224908Y2564500D01*
X5224909Y2564500D01*
X5289413Y2591218D01*
X5338782Y2640587D01*
X5365500Y2705091D01*
X5365500Y2772726D01*
X6549500Y2772726D01*
X6549500Y2667273D01*
X6576793Y2565413D01*
X6576794Y2565410D01*
X6629521Y2474085D01*
X6704085Y2399521D01*
X6795410Y2346794D01*
X6795413Y2346793D01*
X6897273Y2319500D01*
X6905333Y2318439D01*
X6905119Y2316816D01*
X6963019Y2299815D01*
X7008774Y2247011D01*
X7018919Y2211688D01*
X7019500Y2207273D01*
X7046793Y2105413D01*
X7046794Y2105410D01*
X7099521Y2014085D01*
X7174085Y1939521D01*
X7265410Y1886794D01*
X7265413Y1886793D01*
X7367273Y1859500D01*
X7472726Y1859500D01*
X7472727Y1859500D01*
X7574587Y1886793D01*
X7665913Y1939520D01*
X7740480Y2014087D01*
X7793207Y2105413D01*
X7820500Y2207273D01*
X7820500Y2312727D01*
X7820500Y2315500D01*
X7840185Y2382539D01*
X7892989Y2428294D01*
X7944500Y2439500D01*
X8043861Y2439500D01*
X8124903Y2473069D01*
X8186930Y2535096D01*
X8186931Y2535097D01*
X8220500Y2616140D01*
X8220500Y2703860D01*
X8186931Y2784903D01*
X8124903Y2846931D01*
X8043860Y2880500D01*
X7956140Y2880500D01*
X7875097Y2846931D01*
X7875096Y2846930D01*
X7813069Y2784903D01*
X7774826Y2692576D01*
X7773757Y2693018D01*
X7747154Y2642166D01*
X7686437Y2607595D01*
X7621671Y2609691D01*
X7608166Y2613819D01*
X7574587Y2633207D01*
X7472727Y2660500D01*
X7455486Y2660500D01*
X7437765Y2665918D01*
X7423436Y2675353D01*
X7406981Y2680185D01*
X7394866Y2694166D01*
X7379410Y2704344D01*
X7372457Y2720027D01*
X7361226Y2732989D01*
X7351133Y2768128D01*
X7351094Y2768218D01*
X7351098Y2768249D01*
X7351081Y2768312D01*
X7350500Y2772718D01*
X7350500Y2772727D01*
X7323207Y2874587D01*
X7270480Y2965913D01*
X7195913Y3040480D01*
X7104587Y3093207D01*
X7002727Y3120500D01*
X6897273Y3120500D01*
X6795413Y3093207D01*
X6704087Y3040480D01*
X6629520Y2965913D01*
X6576793Y2874587D01*
X6550085Y2774908D01*
X6549500Y2772726D01*
X5365500Y2772726D01*
X5365500Y2774909D01*
X5338782Y2839413D01*
X5289413Y2888782D01*
X5224909Y2915500D01*
X5155091Y2915500D01*
X5090587Y2888782D01*
X5041218Y2839413D01*
X5027764Y2806930D01*
X5014500Y2774908D01*
X4226926Y2774908D01*
X4194903Y2806931D01*
X4113860Y2840500D01*
X4026140Y2840500D01*
X3945097Y2806931D01*
X3945096Y2806930D01*
X3883069Y2744903D01*
X3849500Y2663861D01*
X-1697507Y2663861D01*
X-1739511Y2736613D01*
X-1823387Y2820489D01*
X-1926114Y2879799D01*
X-2040691Y2910500D01*
X-2159309Y2910500D01*
X-2273886Y2879799D01*
X-2376613Y2820489D01*
X-2460489Y2736613D01*
X-2519799Y2633886D01*
X-2550500Y2519309D01*
X-10929500Y2519309D01*
X-10960201Y2633886D01*
X-11019511Y2736613D01*
X-11103387Y2820489D01*
X-11206114Y2879799D01*
X-11320691Y2910500D01*
X-11439309Y2910500D01*
X-11553886Y2879799D01*
X-11656613Y2820489D01*
X-11740489Y2736613D01*
X-11799799Y2633886D01*
X-11830500Y2519309D01*
X-16297786Y2519309D01*
X-16293040Y2547807D01*
X-16177192Y3243398D01*
X-16176005Y3249309D01*
X11339500Y3249309D01*
X11339500Y3130691D01*
X11363673Y3040478D01*
X11370202Y3016112D01*
X11429511Y2913387D01*
X11429513Y2913384D01*
X11513384Y2829513D01*
X11513387Y2829511D01*
X11611740Y2772726D01*
X11616114Y2770201D01*
X11730691Y2739500D01*
X11730694Y2739500D01*
X11849306Y2739500D01*
X11849309Y2739500D01*
X11963886Y2770201D01*
X12066613Y2829511D01*
X12150489Y2913387D01*
X12209799Y3016114D01*
X12240500Y3130691D01*
X12240500Y3159309D01*
X12789500Y3159309D01*
X12789500Y3040691D01*
X12796086Y3016112D01*
X12820202Y2926112D01*
X12879511Y2823387D01*
X12879513Y2823384D01*
X12963384Y2739513D01*
X12963387Y2739511D01*
X13043914Y2693018D01*
X13066114Y2680201D01*
X13180691Y2649500D01*
X13180694Y2649500D01*
X13299306Y2649500D01*
X13299309Y2649500D01*
X13413886Y2680201D01*
X13516613Y2739511D01*
X13600489Y2823387D01*
X13659799Y2926114D01*
X13690500Y3040691D01*
X13690500Y3159309D01*
X13685141Y3179309D01*
X14279500Y3179309D01*
X14279500Y3060691D01*
X14291445Y3016112D01*
X14310202Y2946112D01*
X14369511Y2843387D01*
X14369513Y2843384D01*
X14453384Y2759513D01*
X14453387Y2759511D01*
X14547642Y2705092D01*
X14556114Y2700201D01*
X14670691Y2669500D01*
X14670694Y2669500D01*
X14789306Y2669500D01*
X14789309Y2669500D01*
X14903886Y2700201D01*
X15006613Y2759511D01*
X15090489Y2843387D01*
X15149799Y2946114D01*
X15180500Y3060691D01*
X15180500Y3179309D01*
X15149799Y3293886D01*
X15090489Y3396613D01*
X15090487Y3396614D01*
X15087854Y3401176D01*
X15071380Y3469075D01*
X15094232Y3535103D01*
X15096865Y3538664D01*
X15100486Y3543383D01*
X15100487Y3543385D01*
X15100489Y3543387D01*
X15159799Y3646114D01*
X15190500Y3760691D01*
X15190500Y3879309D01*
X15159799Y3993886D01*
X15100489Y4096613D01*
X15061962Y4135139D01*
X15028478Y4196460D01*
X15029869Y4254913D01*
X15029907Y4255058D01*
X15029910Y4255062D01*
X15055500Y4350565D01*
X15055500Y4449435D01*
X15029910Y4544938D01*
X14980475Y4630562D01*
X14910562Y4700475D01*
X14824938Y4749910D01*
X14729435Y4775500D01*
X14630565Y4775500D01*
X14535062Y4749910D01*
X14449438Y4700475D01*
X14379525Y4630562D01*
X14330090Y4544938D01*
X14304500Y4449435D01*
X14304500Y4449432D01*
X14304500Y4350567D01*
X14304499Y4350567D01*
X14314876Y4311840D01*
X14326221Y4269500D01*
X14330091Y4255060D01*
X14330092Y4255057D01*
X14364745Y4195035D01*
X14381216Y4127135D01*
X14364744Y4071037D01*
X14320202Y3993889D01*
X14320201Y3993886D01*
X14289500Y3879309D01*
X14289500Y3760691D01*
X14312393Y3675253D01*
X14320202Y3646110D01*
X14382146Y3538822D01*
X14398619Y3470922D01*
X14375767Y3404895D01*
X14373135Y3401336D01*
X14369513Y3396616D01*
X14369511Y3396613D01*
X14310201Y3293886D01*
X14279500Y3179309D01*
X13685141Y3179309D01*
X13659799Y3273886D01*
X13600489Y3376613D01*
X13516613Y3460489D01*
X13413886Y3519799D01*
X13299309Y3550500D01*
X13180691Y3550500D01*
X13066114Y3519799D01*
X12963387Y3460489D01*
X12879511Y3376613D01*
X12820201Y3273886D01*
X12789500Y3159309D01*
X12240500Y3159309D01*
X12240500Y3249309D01*
X12209799Y3363886D01*
X12150489Y3466613D01*
X12066613Y3550489D01*
X11963886Y3609799D01*
X11849309Y3640500D01*
X11730691Y3640500D01*
X11616114Y3609799D01*
X11513387Y3550489D01*
X11429511Y3466613D01*
X11370201Y3363886D01*
X11339500Y3249309D01*
X-16176005Y3249309D01*
X-16175578Y3251438D01*
X-15927842Y4303937D01*
X-15925705Y4311840D01*
X-15635513Y5259309D01*
X-10630500Y5259309D01*
X-10630500Y5140691D01*
X-10599799Y5026114D01*
X-10540489Y4923387D01*
X-10456613Y4839511D01*
X-10414098Y4814965D01*
X-10353885Y4780200D01*
X-10324006Y4772194D01*
X-10264346Y4735829D01*
X-10233818Y4672981D01*
X-10242113Y4603606D01*
X-10286599Y4549729D01*
X-10294089Y4545039D01*
X-10336613Y4520489D01*
X-10420489Y4436613D01*
X-10479799Y4333886D01*
X-10510500Y4219309D01*
X-10510500Y4100691D01*
X-10479799Y3986114D01*
X-10420489Y3883387D01*
X-10336613Y3799511D01*
X-10233886Y3740201D01*
X-10119309Y3709500D01*
X-10119306Y3709500D01*
X-10000694Y3709500D01*
X-10000691Y3709500D01*
X-9886114Y3740201D01*
X-9850624Y3760691D01*
X-9783387Y3799511D01*
X-9783384Y3799513D01*
X-9699513Y3883384D01*
X-9699511Y3883387D01*
X-9640201Y3986113D01*
X-9631307Y4019306D01*
X-9631306Y4019309D01*
X-6790500Y4019309D01*
X-6790500Y3900691D01*
X-6759799Y3786114D01*
X-6700489Y3683387D01*
X-6616613Y3599511D01*
X-6513886Y3540201D01*
X-6399309Y3509500D01*
X-6399306Y3509500D01*
X-6280694Y3509500D01*
X-6280691Y3509500D01*
X-6166114Y3540201D01*
X-6160602Y3543383D01*
X-6063387Y3599511D01*
X-6063384Y3599513D01*
X-5979513Y3683384D01*
X-5979511Y3683387D01*
X-5920202Y3786112D01*
X-5920201Y3786114D01*
X-5889500Y3900691D01*
X-5889500Y3963860D01*
X-4850500Y3963860D01*
X-4850500Y3876140D01*
X-4816931Y3795097D01*
X-4816930Y3795096D01*
X-4754903Y3733069D01*
X-4673861Y3699500D01*
X-4673860Y3699500D01*
X-4586138Y3699500D01*
X-4505096Y3733069D01*
X-4443069Y3795096D01*
X-4409500Y3876138D01*
X-4409500Y3939309D01*
X-2230500Y3939309D01*
X-2230500Y3820691D01*
X-2199799Y3706114D01*
X-2140489Y3603387D01*
X-2056613Y3519511D01*
X-1953886Y3460201D01*
X-1839309Y3429500D01*
X-1839306Y3429500D01*
X-1720694Y3429500D01*
X-1720691Y3429500D01*
X-1606114Y3460201D01*
X-1602282Y3462413D01*
X-1503387Y3519511D01*
X-1503384Y3519513D01*
X-1419513Y3603384D01*
X-1419511Y3603387D01*
X-1360202Y3706112D01*
X-1359294Y3709500D01*
X-1329870Y3819309D01*
X569500Y3819309D01*
X569500Y3700691D01*
X600201Y3586114D01*
X600202Y3586112D01*
X659511Y3483387D01*
X659513Y3483384D01*
X743384Y3399513D01*
X743387Y3399511D01*
X838236Y3344749D01*
X846114Y3340201D01*
X960691Y3309500D01*
X960694Y3309500D01*
X1079306Y3309500D01*
X1079309Y3309500D01*
X1193886Y3340201D01*
X1296613Y3399511D01*
X1357038Y3459936D01*
X4529500Y3459936D01*
X4529500Y3400064D01*
X4543948Y3365182D01*
X4552414Y3344746D01*
X4594746Y3302414D01*
X4607279Y3297222D01*
X4650064Y3279500D01*
X4650066Y3279500D01*
X4709934Y3279500D01*
X4709936Y3279500D01*
X4765251Y3302413D01*
X4765253Y3302414D01*
X4807585Y3344746D01*
X4807585Y3344747D01*
X4807587Y3344749D01*
X4830500Y3400064D01*
X4830500Y3459936D01*
X4807587Y3515251D01*
X4803039Y3519799D01*
X4778371Y3544468D01*
X4765253Y3557585D01*
X4765251Y3557587D01*
X4709936Y3580500D01*
X4650064Y3580500D01*
X4594749Y3557587D01*
X4594747Y3557585D01*
X4594746Y3557585D01*
X4552414Y3515253D01*
X4552413Y3515251D01*
X4529500Y3459936D01*
X1357038Y3459936D01*
X1380489Y3483387D01*
X1439799Y3586114D01*
X1448862Y3619936D01*
X5909500Y3619936D01*
X5909500Y3560064D01*
X5919840Y3535103D01*
X5932414Y3504746D01*
X5974746Y3462414D01*
X5987279Y3457222D01*
X6030064Y3439500D01*
X6030066Y3439500D01*
X6089934Y3439500D01*
X6089936Y3439500D01*
X6145251Y3462413D01*
X6145253Y3462414D01*
X6187585Y3504746D01*
X6187585Y3504747D01*
X6187587Y3504749D01*
X6210500Y3560064D01*
X6210500Y3619936D01*
X6187587Y3675251D01*
X6145251Y3717587D01*
X6089936Y3740500D01*
X6030064Y3740500D01*
X5974749Y3717587D01*
X5974747Y3717585D01*
X5974746Y3717585D01*
X5932414Y3675253D01*
X5932413Y3675251D01*
X5909500Y3619936D01*
X1448862Y3619936D01*
X1470500Y3700691D01*
X1470500Y3819309D01*
X1439799Y3933886D01*
X1390480Y4019309D01*
X9959500Y4019309D01*
X9959500Y3900691D01*
X9990201Y3786114D01*
X9990202Y3786112D01*
X10049511Y3683387D01*
X10049513Y3683384D01*
X10133384Y3599513D01*
X10133387Y3599511D01*
X10230602Y3543383D01*
X10236114Y3540201D01*
X10350691Y3509500D01*
X10350694Y3509500D01*
X10469306Y3509500D01*
X10469309Y3509500D01*
X10583886Y3540201D01*
X10686613Y3599511D01*
X10770489Y3683387D01*
X10829799Y3786114D01*
X10860500Y3900691D01*
X10860500Y4019309D01*
X10829799Y4133886D01*
X10770489Y4236613D01*
X10686613Y4320489D01*
X10583886Y4379799D01*
X10469309Y4410500D01*
X10350691Y4410500D01*
X10236114Y4379799D01*
X10133387Y4320489D01*
X10049511Y4236613D01*
X9990201Y4133886D01*
X9959500Y4019309D01*
X1390480Y4019309D01*
X1380489Y4036613D01*
X1296613Y4120489D01*
X1193886Y4179799D01*
X1079309Y4210500D01*
X960691Y4210500D01*
X846114Y4179799D01*
X743387Y4120489D01*
X659511Y4036613D01*
X600201Y3933886D01*
X569500Y3819309D01*
X-1329870Y3819309D01*
X-1329500Y3820691D01*
X-1329500Y3939309D01*
X-1360201Y4053886D01*
X-1419511Y4156613D01*
X-1503387Y4240489D01*
X-1606114Y4299799D01*
X-1720691Y4330500D01*
X-1839309Y4330500D01*
X-1953886Y4299799D01*
X-2056613Y4240489D01*
X-2140489Y4156613D01*
X-2199799Y4053886D01*
X-2230500Y3939309D01*
X-4409500Y3939309D01*
X-4409500Y3963861D01*
X-4443069Y4044903D01*
X-4505096Y4106930D01*
X-4505097Y4106931D01*
X-4586140Y4140500D01*
X-4673860Y4140500D01*
X-4754903Y4106931D01*
X-4816931Y4044903D01*
X-4850500Y3963860D01*
X-5889500Y3963860D01*
X-5889500Y4019309D01*
X-5920201Y4133886D01*
X-5979511Y4236613D01*
X-6063387Y4320489D01*
X-6166114Y4379799D01*
X-6280691Y4410500D01*
X-6399309Y4410500D01*
X-6513886Y4379799D01*
X-6616613Y4320489D01*
X-6700489Y4236613D01*
X-6759799Y4133886D01*
X-6790500Y4019309D01*
X-9631306Y4019309D01*
X-9609500Y4100691D01*
X-9609500Y4219309D01*
X-9640201Y4333886D01*
X-9699511Y4436613D01*
X-9783387Y4520489D01*
X-9886114Y4579799D01*
X-9915992Y4587805D01*
X-9975652Y4624169D01*
X-10006181Y4687016D01*
X-9997887Y4756391D01*
X-9953401Y4810269D01*
X-9945900Y4814965D01*
X-9903390Y4839509D01*
X-9903384Y4839513D01*
X-9819513Y4923384D01*
X-9819511Y4923387D01*
X-9760202Y5026112D01*
X-9760201Y5026114D01*
X-9729870Y5139309D01*
X-9090500Y5139309D01*
X-9090500Y5020691D01*
X-9059799Y4906114D01*
X-9000489Y4803387D01*
X-8916613Y4719511D01*
X-8813886Y4660201D01*
X-8699309Y4629500D01*
X-8699306Y4629500D01*
X-8580694Y4629500D01*
X-8580691Y4629500D01*
X-8466114Y4660201D01*
X-8443978Y4672981D01*
X-8363387Y4719511D01*
X-8363384Y4719513D01*
X-8279513Y4803384D01*
X-8279509Y4803390D01*
X-8278633Y4804908D01*
X3794500Y4804908D01*
X3794500Y4735091D01*
X3821218Y4670586D01*
X3870586Y4621218D01*
X3935091Y4594500D01*
X4004908Y4594500D01*
X4004909Y4594500D01*
X4069413Y4621218D01*
X4118782Y4670587D01*
X4145500Y4735091D01*
X4145500Y4804909D01*
X4118782Y4869413D01*
X4073287Y4914908D01*
X6674500Y4914908D01*
X6674500Y4845091D01*
X6701218Y4780586D01*
X6750586Y4731218D01*
X6815091Y4704500D01*
X6884908Y4704500D01*
X6884909Y4704500D01*
X6949413Y4731218D01*
X6997504Y4779309D01*
X11229500Y4779309D01*
X11229500Y4660691D01*
X11260201Y4546114D01*
X11260202Y4546112D01*
X11319511Y4443387D01*
X11319513Y4443384D01*
X11403384Y4359513D01*
X11403387Y4359511D01*
X11470979Y4320486D01*
X11506114Y4300201D01*
X11620691Y4269500D01*
X11620694Y4269500D01*
X11739306Y4269500D01*
X11739309Y4269500D01*
X11853886Y4300201D01*
X11956613Y4359511D01*
X12040489Y4443387D01*
X12099799Y4546114D01*
X12103335Y4559309D01*
X12759500Y4559309D01*
X12759500Y4440691D01*
X12789026Y4330500D01*
X12790202Y4326112D01*
X12849511Y4223387D01*
X12849513Y4223384D01*
X12933384Y4139513D01*
X12933387Y4139511D01*
X13007689Y4096612D01*
X13036114Y4080201D01*
X13150691Y4049500D01*
X13150694Y4049500D01*
X13269306Y4049500D01*
X13269309Y4049500D01*
X13383886Y4080201D01*
X13486613Y4139511D01*
X13570489Y4223387D01*
X13629799Y4326114D01*
X13660500Y4440691D01*
X13660500Y4559309D01*
X13629799Y4673886D01*
X13570489Y4776613D01*
X13486613Y4860489D01*
X13383886Y4919799D01*
X13269309Y4950500D01*
X13150691Y4950500D01*
X13036114Y4919799D01*
X12933387Y4860489D01*
X12849511Y4776613D01*
X12790201Y4673886D01*
X12759500Y4559309D01*
X12103335Y4559309D01*
X12130500Y4660691D01*
X12130500Y4779309D01*
X12099799Y4893886D01*
X12040489Y4996613D01*
X11956613Y5080489D01*
X11853886Y5139799D01*
X11739309Y5170500D01*
X11620691Y5170500D01*
X11506114Y5139799D01*
X11403387Y5080489D01*
X11319511Y4996613D01*
X11260201Y4893886D01*
X11229500Y4779309D01*
X6997504Y4779309D01*
X6998782Y4780587D01*
X7025500Y4845091D01*
X7025500Y4914909D01*
X6998782Y4979413D01*
X6949413Y5028782D01*
X6884909Y5055500D01*
X6815091Y5055500D01*
X6750587Y5028782D01*
X6701218Y4979413D01*
X6676105Y4918782D01*
X6674500Y4914908D01*
X4073287Y4914908D01*
X4069413Y4918782D01*
X4004909Y4945500D01*
X3935091Y4945500D01*
X3870587Y4918782D01*
X3821218Y4869413D01*
X3794502Y4804912D01*
X3794500Y4804908D01*
X-8278633Y4804908D01*
X-8235785Y4879122D01*
X-8235784Y4879122D01*
X-8235784Y4879124D01*
X-8220202Y4906111D01*
X-8217845Y4914908D01*
X-8189500Y5020691D01*
X-8189500Y5139309D01*
X-8220201Y5253886D01*
X-8279511Y5356613D01*
X-8363387Y5440489D01*
X-8466114Y5499799D01*
X-8580691Y5530500D01*
X-8699309Y5530500D01*
X-8813886Y5499799D01*
X-8916613Y5440489D01*
X-9000489Y5356613D01*
X-9059799Y5253886D01*
X-9090500Y5139309D01*
X-9729870Y5139309D01*
X-9729500Y5140691D01*
X-9729500Y5259309D01*
X-9760201Y5373886D01*
X-9819511Y5476613D01*
X-9903387Y5560489D01*
X-9953522Y5589435D01*
X-4625500Y5589435D01*
X-4625500Y5490565D01*
X-4599910Y5395062D01*
X-4550475Y5309438D01*
X-4480562Y5239525D01*
X-4394938Y5190090D01*
X-4299435Y5164500D01*
X-4299433Y5164500D01*
X-4200567Y5164500D01*
X-4200565Y5164500D01*
X-4105062Y5190090D01*
X-4105060Y5190091D01*
X-4105059Y5190091D01*
X-4019436Y5239526D01*
X-3949526Y5309436D01*
X-3900091Y5395059D01*
X-3900091Y5395060D01*
X-3900090Y5395062D01*
X-3874500Y5490565D01*
X-3874500Y5589435D01*
X-3900090Y5684938D01*
X-3914161Y5709309D01*
X5059500Y5709309D01*
X5059500Y5590691D01*
X5090068Y5476612D01*
X5090202Y5476112D01*
X5149511Y5373387D01*
X5149513Y5373384D01*
X5233384Y5289513D01*
X5233387Y5289511D01*
X5319964Y5239525D01*
X5336114Y5230201D01*
X5450691Y5199500D01*
X5450694Y5199500D01*
X5569306Y5199500D01*
X5569309Y5199500D01*
X5683886Y5230201D01*
X5786613Y5289511D01*
X5796772Y5299670D01*
X5858095Y5333155D01*
X5927787Y5328171D01*
X5972133Y5299671D01*
X6010586Y5261218D01*
X6075091Y5234500D01*
X6144908Y5234500D01*
X6144909Y5234500D01*
X6209413Y5261218D01*
X6258782Y5310587D01*
X6285500Y5375091D01*
X6285500Y5444909D01*
X6258782Y5509413D01*
X6209413Y5558782D01*
X6144909Y5585500D01*
X6084500Y5585500D01*
X6017461Y5605185D01*
X5971706Y5657989D01*
X5962274Y5701342D01*
X5961561Y5701249D01*
X5960500Y5709305D01*
X5960500Y5709306D01*
X5960500Y5709309D01*
X5929799Y5823886D01*
X5870489Y5926613D01*
X5786613Y6010489D01*
X5683886Y6069799D01*
X5569309Y6100500D01*
X5450691Y6100500D01*
X5336114Y6069799D01*
X5233387Y6010489D01*
X5149511Y5926613D01*
X5090201Y5823886D01*
X5059500Y5709309D01*
X-3914161Y5709309D01*
X-3949525Y5770562D01*
X-4019438Y5840475D01*
X-4105062Y5889910D01*
X-4200565Y5915500D01*
X-4299435Y5915500D01*
X-4394938Y5889910D01*
X-4480562Y5840475D01*
X-4550475Y5770562D01*
X-4599910Y5684938D01*
X-4625500Y5589435D01*
X-9953522Y5589435D01*
X-10006114Y5619799D01*
X-10120691Y5650500D01*
X-10239309Y5650500D01*
X-10353886Y5619799D01*
X-10456613Y5560489D01*
X-10540489Y5476613D01*
X-10599799Y5373886D01*
X-10630500Y5259309D01*
X-15635513Y5259309D01*
X-15621902Y5303750D01*
X-15621901Y5303751D01*
X-15609075Y5345626D01*
X-15606423Y5353364D01*
X-15311468Y6129435D01*
X-12785500Y6129435D01*
X-12785500Y6030565D01*
X-12759910Y5935062D01*
X-12710475Y5849438D01*
X-12640562Y5779525D01*
X-12554938Y5730090D01*
X-12459435Y5704500D01*
X-12459433Y5704500D01*
X-12360567Y5704500D01*
X-12360565Y5704500D01*
X-12265062Y5730090D01*
X-12265060Y5730091D01*
X-12265059Y5730091D01*
X-12179436Y5779526D01*
X-12109526Y5849436D01*
X-12060091Y5935059D01*
X-12060091Y5935060D01*
X-12060053Y5935201D01*
X-12034500Y6030565D01*
X-12034500Y6129435D01*
X-12060090Y6224938D01*
X-12109525Y6310562D01*
X-12179438Y6380475D01*
X-12265062Y6429910D01*
X-12360565Y6455500D01*
X-12459435Y6455500D01*
X-12554938Y6429910D01*
X-12640562Y6380475D01*
X-12710475Y6310562D01*
X-12759910Y6224938D01*
X-12785500Y6129435D01*
X-15311468Y6129435D01*
X-15291636Y6181615D01*
X-15291636Y6181616D01*
X-15222271Y6364124D01*
X-15219112Y6371674D01*
X-15069162Y6699309D01*
X-7420500Y6699309D01*
X-7420500Y6580691D01*
X-7389799Y6466114D01*
X-7330489Y6363387D01*
X-7246613Y6279511D01*
X-7143886Y6220201D01*
X-7029309Y6189500D01*
X-7029306Y6189500D01*
X-6910694Y6189500D01*
X-6910691Y6189500D01*
X-6796114Y6220201D01*
X-6787907Y6224939D01*
X-6693387Y6279511D01*
X-6693383Y6279514D01*
X-6659565Y6313332D01*
X-6598242Y6346817D01*
X-6528550Y6341831D01*
X-6472617Y6299959D01*
X-6464499Y6287652D01*
X-6459798Y6279511D01*
X-6450489Y6263387D01*
X-6366613Y6179511D01*
X-6263886Y6120201D01*
X-6149309Y6089500D01*
X-6149306Y6089500D01*
X-6030694Y6089500D01*
X-6030691Y6089500D01*
X-5916114Y6120201D01*
X-5900125Y6129432D01*
X-5813387Y6179511D01*
X-5813384Y6179513D01*
X-5729513Y6263384D01*
X-5729511Y6263387D01*
X-5670202Y6366112D01*
X-5669710Y6367948D01*
X-5639500Y6480691D01*
X-5639500Y6599309D01*
X-5670201Y6713886D01*
X-5670202Y6713890D01*
X-5670203Y6713891D01*
X-5711510Y6785435D01*
X-5711511Y6785436D01*
X-5712795Y6787660D01*
X-5729511Y6816613D01*
X-5752207Y6839309D01*
X459500Y6839309D01*
X459500Y6720691D01*
X490068Y6606612D01*
X490202Y6606112D01*
X549511Y6503387D01*
X549513Y6503384D01*
X633384Y6419513D01*
X633387Y6419511D01*
X730595Y6363387D01*
X736114Y6360201D01*
X850691Y6329500D01*
X850694Y6329500D01*
X969306Y6329500D01*
X969309Y6329500D01*
X1083886Y6360201D01*
X1177603Y6414309D01*
X4154500Y6414309D01*
X4154500Y6295691D01*
X4185067Y6181615D01*
X4185202Y6181112D01*
X4244511Y6078387D01*
X4244513Y6078384D01*
X4328384Y5994513D01*
X4328387Y5994511D01*
X4416069Y5943887D01*
X4431114Y5935201D01*
X4545691Y5904500D01*
X4545694Y5904500D01*
X4664306Y5904500D01*
X4664309Y5904500D01*
X4778886Y5935201D01*
X4881613Y5994511D01*
X4965489Y6078387D01*
X5024799Y6181114D01*
X5055500Y6295691D01*
X5055500Y6414309D01*
X5024799Y6528886D01*
X4965489Y6631613D01*
X4881613Y6715489D01*
X4778886Y6774799D01*
X4664309Y6805500D01*
X4545691Y6805500D01*
X4431114Y6774799D01*
X4328387Y6715489D01*
X4244511Y6631613D01*
X4185201Y6528886D01*
X4154500Y6414309D01*
X1177603Y6414309D01*
X1186613Y6419511D01*
X1270489Y6503387D01*
X1329799Y6606114D01*
X1360500Y6720691D01*
X1360500Y6839309D01*
X1344423Y6899309D01*
X8209500Y6899309D01*
X8209500Y6780691D01*
X8233670Y6690489D01*
X8240202Y6666112D01*
X8299511Y6563387D01*
X8299513Y6563384D01*
X8383384Y6479513D01*
X8383390Y6479509D01*
X8412001Y6462990D01*
X8460216Y6412422D01*
X8473437Y6343815D01*
X8447468Y6278950D01*
X8397452Y6241043D01*
X8396141Y6240500D01*
X8396140Y6240500D01*
X8315097Y6206931D01*
X8315096Y6206930D01*
X8253069Y6144903D01*
X8219500Y6063861D01*
X8219500Y5976138D01*
X8253069Y5895096D01*
X8315096Y5833069D01*
X8396138Y5799500D01*
X8396140Y5799500D01*
X8483861Y5799500D01*
X8555826Y5829309D01*
X14169500Y5829309D01*
X14169500Y5710691D01*
X14200201Y5596114D01*
X14200202Y5596112D01*
X14259511Y5493387D01*
X14259513Y5493384D01*
X14343384Y5409513D01*
X14343387Y5409511D01*
X14440635Y5353364D01*
X14446114Y5350201D01*
X14560691Y5319500D01*
X14560694Y5319500D01*
X14679306Y5319500D01*
X14679309Y5319500D01*
X14793886Y5350201D01*
X14896613Y5409511D01*
X14980489Y5493387D01*
X15039799Y5596114D01*
X15070500Y5710691D01*
X15070500Y5829309D01*
X15039799Y5943886D01*
X14980489Y6046613D01*
X14896613Y6130489D01*
X14793886Y6189799D01*
X14679309Y6220500D01*
X14560691Y6220500D01*
X14446114Y6189799D01*
X14343387Y6130489D01*
X14259511Y6046613D01*
X14200201Y5943886D01*
X14169500Y5829309D01*
X8555826Y5829309D01*
X8564903Y5833069D01*
X8626930Y5895096D01*
X8626931Y5895097D01*
X8660500Y5976140D01*
X8660500Y6063860D01*
X8626931Y6144903D01*
X8594015Y6177819D01*
X8560530Y6239142D01*
X8565514Y6308834D01*
X8607386Y6364767D01*
X8672850Y6389184D01*
X8676349Y6389309D01*
X11549500Y6389309D01*
X11549500Y6270691D01*
X11580201Y6156114D01*
X11580202Y6156112D01*
X11639511Y6053387D01*
X11639513Y6053384D01*
X11723384Y5969513D01*
X11723387Y5969511D01*
X11797689Y5926612D01*
X11826114Y5910201D01*
X11940691Y5879500D01*
X11940694Y5879500D01*
X12059306Y5879500D01*
X12059309Y5879500D01*
X12173886Y5910201D01*
X12276613Y5969511D01*
X12360489Y6053387D01*
X12419799Y6156114D01*
X12450500Y6270691D01*
X12450500Y6389309D01*
X12419799Y6503886D01*
X12360489Y6606613D01*
X12276613Y6690489D01*
X12173886Y6749799D01*
X12059309Y6780500D01*
X11940691Y6780500D01*
X11826114Y6749799D01*
X11723387Y6690489D01*
X11639511Y6606613D01*
X11580201Y6503886D01*
X11549500Y6389309D01*
X8676349Y6389309D01*
X8681696Y6389500D01*
X8719306Y6389500D01*
X8719309Y6389500D01*
X8833886Y6420201D01*
X8936613Y6479511D01*
X9020489Y6563387D01*
X9079799Y6666114D01*
X9110500Y6780691D01*
X9110500Y6899309D01*
X9079799Y7013886D01*
X9020489Y7116613D01*
X8936613Y7200489D01*
X8894318Y7224908D01*
X9604500Y7224908D01*
X9604500Y7155091D01*
X9631218Y7090586D01*
X9680586Y7041218D01*
X9745091Y7014500D01*
X9814908Y7014500D01*
X9814909Y7014500D01*
X9879413Y7041218D01*
X9928782Y7090587D01*
X9955500Y7155091D01*
X9955500Y7224909D01*
X9928782Y7289413D01*
X9879413Y7338782D01*
X9814909Y7365500D01*
X9745091Y7365500D01*
X9680587Y7338782D01*
X9631218Y7289413D01*
X9618690Y7259166D01*
X9604500Y7224908D01*
X8894318Y7224908D01*
X8833886Y7259799D01*
X8719309Y7290500D01*
X8600691Y7290500D01*
X8486114Y7259799D01*
X8383387Y7200489D01*
X8299511Y7116613D01*
X8240201Y7013886D01*
X8209500Y6899309D01*
X1344423Y6899309D01*
X1329799Y6953886D01*
X1270489Y7056613D01*
X1186613Y7140489D01*
X1083886Y7199799D01*
X969309Y7230500D01*
X850691Y7230500D01*
X736114Y7199799D01*
X633387Y7140489D01*
X549511Y7056613D01*
X490201Y6953886D01*
X459500Y6839309D01*
X-5752207Y6839309D01*
X-5813387Y6900489D01*
X-5916114Y6959799D01*
X-6030691Y6990500D01*
X-6149309Y6990500D01*
X-6263886Y6959799D01*
X-6366613Y6900489D01*
X-6400434Y6866667D01*
X-6461754Y6833183D01*
X-6531446Y6838167D01*
X-6587380Y6880037D01*
X-6595499Y6892346D01*
X-6609506Y6916606D01*
X-6609509Y6916610D01*
X-6609511Y6916613D01*
X-6693387Y7000489D01*
X-6796114Y7059799D01*
X-6910691Y7090500D01*
X-7029309Y7090500D01*
X-7143886Y7059799D01*
X-7246613Y7000489D01*
X-7330489Y6916613D01*
X-7389799Y6813886D01*
X-7420500Y6699309D01*
X-15069162Y6699309D01*
X-14840268Y7199435D01*
X-11435500Y7199435D01*
X-11435500Y7100565D01*
X-11409910Y7005062D01*
X-11360475Y6919438D01*
X-11290562Y6849525D01*
X-11204938Y6800090D01*
X-11109435Y6774500D01*
X-11109433Y6774500D01*
X-11010567Y6774500D01*
X-11010565Y6774500D01*
X-10946896Y6791560D01*
X-10915061Y6800090D01*
X-10904085Y6806427D01*
X-10889544Y6814823D01*
X-10889543Y6814823D01*
X-10829436Y6849526D01*
X-10759526Y6919436D01*
X-10710091Y7005059D01*
X-10710091Y7005060D01*
X-10707726Y7013886D01*
X-10684500Y7100565D01*
X-10684500Y7199435D01*
X-10710090Y7294938D01*
X-10759525Y7380562D01*
X-10829438Y7450475D01*
X-10915062Y7499910D01*
X-11010565Y7525500D01*
X-11109435Y7525500D01*
X-11204938Y7499910D01*
X-11290562Y7450475D01*
X-11360475Y7380562D01*
X-11409910Y7294938D01*
X-11435500Y7199435D01*
X-14840268Y7199435D01*
X-14812931Y7259166D01*
X-14769200Y7354717D01*
X-14765543Y7362057D01*
X-14556311Y7749309D01*
X-510500Y7749309D01*
X-510500Y7630691D01*
X-479799Y7516114D01*
X-420489Y7413387D01*
X-336613Y7329511D01*
X-233886Y7270201D01*
X-119309Y7239500D01*
X-119306Y7239500D01*
X-694Y7239500D01*
X-691Y7239500D01*
X113886Y7270201D01*
X216613Y7329511D01*
X300489Y7413387D01*
X359799Y7516114D01*
X390500Y7630691D01*
X390500Y7749309D01*
X359799Y7863886D01*
X342367Y7894078D01*
X325894Y7961975D01*
X348745Y8028003D01*
X403665Y8071194D01*
X417656Y8075852D01*
X433887Y8080201D01*
X492680Y8114146D01*
X536613Y8139511D01*
X620489Y8223387D01*
X679799Y8326114D01*
X710500Y8440691D01*
X710500Y8559309D01*
X679799Y8673886D01*
X620489Y8776613D01*
X536613Y8860489D01*
X433886Y8919799D01*
X319309Y8950500D01*
X200691Y8950500D01*
X86114Y8919799D01*
X-16613Y8860489D01*
X-100489Y8776613D01*
X-159799Y8673886D01*
X-190500Y8559309D01*
X-190500Y8440691D01*
X-159799Y8326114D01*
X-159798Y8326112D01*
X-159797Y8326109D01*
X-159796Y8326108D01*
X-142368Y8295922D01*
X-125894Y8228023D01*
X-148746Y8161995D01*
X-203666Y8118804D01*
X-217653Y8114148D01*
X-233886Y8109799D01*
X-336613Y8050489D01*
X-420489Y7966613D01*
X-479799Y7863886D01*
X-510500Y7749309D01*
X-14556311Y7749309D01*
X-14520072Y7816380D01*
X-14251557Y8313355D01*
X-14247433Y8320419D01*
X-13671886Y9235708D01*
X-13667302Y9242491D01*
X-13618451Y9309862D01*
X-13563161Y9352580D01*
X-13493553Y9358624D01*
X-13431728Y9326077D01*
X-13410679Y9299073D01*
X-13370475Y9229438D01*
X-13300562Y9159525D01*
X-13214938Y9110090D01*
X-13119435Y9084500D01*
X-13119433Y9084500D01*
X-13020567Y9084500D01*
X-13020565Y9084500D01*
X-12925062Y9110090D01*
X-12925060Y9110091D01*
X-12925059Y9110091D01*
X-12839436Y9159526D01*
X-12769526Y9229436D01*
X-12720091Y9315059D01*
X-12720091Y9315060D01*
X-12717139Y9326077D01*
X-12694500Y9410565D01*
X-12694500Y9509435D01*
X-12720090Y9604938D01*
X-12726831Y9616613D01*
X-12736331Y9633069D01*
X-12769525Y9690562D01*
X-12839438Y9760475D01*
X-12925062Y9809910D01*
X-13020565Y9835500D01*
X-13020567Y9835500D01*
X-13027953Y9837479D01*
X-13054598Y9853720D01*
X-13082196Y9868249D01*
X-13084177Y9871749D01*
X-13087613Y9873844D01*
X-13101244Y9901905D01*
X-13116610Y9929055D01*
X-13116384Y9933072D01*
X-13118142Y9936691D01*
X-13114438Y9967662D01*
X-13112687Y9998814D01*
X-13110134Y10003662D01*
X-13109847Y10006067D01*
X-13098845Y10025462D01*
X-11500000Y10025462D01*
X-11500000Y9773538D01*
X-11460590Y9524715D01*
X-11382741Y9285121D01*
X-11382739Y9285116D01*
X-11357564Y9235708D01*
X-11268370Y9060655D01*
X-11268367Y9060651D01*
X-11120298Y8856850D01*
X-11120294Y8856845D01*
X-10942154Y8678705D01*
X-10942149Y8678701D01*
X-10743672Y8534500D01*
X-10738345Y8530630D01*
X-10677300Y8499526D01*
X-10513883Y8416260D01*
X-10274285Y8338410D01*
X-10025462Y8299000D01*
X-10025461Y8299000D01*
X-9773539Y8299000D01*
X-9773538Y8299000D01*
X-9602386Y8326108D01*
X-9524714Y8338410D01*
X-9285116Y8416260D01*
X-9060651Y8530632D01*
X-8856850Y8678701D01*
X-8856845Y8678705D01*
X-8841690Y8693860D01*
X-1610500Y8693860D01*
X-1610500Y8606140D01*
X-1576931Y8525097D01*
X-1576930Y8525096D01*
X-1514903Y8463069D01*
X-1433861Y8429500D01*
X-1433860Y8429500D01*
X-1346138Y8429500D01*
X-1265096Y8463069D01*
X-1203069Y8525096D01*
X-1169500Y8606138D01*
X-1169500Y8693861D01*
X-1203069Y8774903D01*
X-1265096Y8836930D01*
X-1265097Y8836931D01*
X-1346140Y8870500D01*
X-1433860Y8870500D01*
X-1514903Y8836931D01*
X-1576931Y8774903D01*
X-1610500Y8693860D01*
X-8841690Y8693860D01*
X-8741797Y8793754D01*
X-8678705Y8856845D01*
X-8678701Y8856850D01*
X-8530632Y9060651D01*
X-8416260Y9285118D01*
X-8379157Y9399309D01*
X-3570500Y9399309D01*
X-3570500Y9280691D01*
X-3539799Y9166114D01*
X-3480489Y9063387D01*
X-3396613Y8979511D01*
X-3293886Y8920201D01*
X-3179309Y8889500D01*
X-3179306Y8889500D01*
X-3060694Y8889500D01*
X-3060691Y8889500D01*
X-2946114Y8920201D01*
X-2940595Y8923387D01*
X-2843387Y8979511D01*
X-2843384Y8979513D01*
X-2759513Y9063384D01*
X-2759511Y9063387D01*
X-2700202Y9166112D01*
X-2683234Y9229436D01*
X-2669500Y9280691D01*
X-2669500Y9399309D01*
X-2700201Y9513886D01*
X-2759511Y9616613D01*
X-2760402Y9618156D01*
X-2776875Y9686057D01*
X-2754023Y9752084D01*
X-2751763Y9753861D01*
X3559500Y9753861D01*
X3559500Y9666138D01*
X3593069Y9585096D01*
X3655095Y9523070D01*
X3665252Y9516284D01*
X3663644Y9513877D01*
X3703623Y9481651D01*
X3725679Y9415354D01*
X3721532Y9378853D01*
X3720201Y9373886D01*
X3689500Y9259309D01*
X3689500Y9140691D01*
X3720201Y9026114D01*
X3720202Y9026112D01*
X3779511Y8923387D01*
X3779513Y8923384D01*
X3863384Y8839513D01*
X3863387Y8839511D01*
X3932169Y8799799D01*
X3966114Y8780201D01*
X4080691Y8749500D01*
X4080694Y8749500D01*
X4199306Y8749500D01*
X4199309Y8749500D01*
X4313886Y8780201D01*
X4372186Y8813861D01*
X6329500Y8813861D01*
X6329500Y8726138D01*
X6363069Y8645096D01*
X6425096Y8583069D01*
X6506138Y8549500D01*
X6506140Y8549500D01*
X6593861Y8549500D01*
X6674903Y8583069D01*
X6736930Y8645096D01*
X6736931Y8645097D01*
X6770500Y8726140D01*
X6770500Y8744908D01*
X8344500Y8744908D01*
X8344500Y8675091D01*
X8371218Y8610586D01*
X8420586Y8561218D01*
X8485091Y8534500D01*
X8554908Y8534500D01*
X8554909Y8534500D01*
X8619413Y8561218D01*
X8668782Y8610587D01*
X8695500Y8675091D01*
X8695500Y8744909D01*
X8693156Y8750567D01*
X9704499Y8750567D01*
X9711045Y8726138D01*
X9729674Y8656613D01*
X9730091Y8655060D01*
X9730091Y8655059D01*
X9779526Y8569436D01*
X9849436Y8499526D01*
X9912582Y8463069D01*
X9935062Y8450090D01*
X10030565Y8424500D01*
X10030567Y8424500D01*
X10129433Y8424500D01*
X10129435Y8424500D01*
X10184703Y8439309D01*
X11049500Y8439309D01*
X11049500Y8320691D01*
X11080201Y8206114D01*
X11080202Y8206112D01*
X11139511Y8103387D01*
X11139513Y8103384D01*
X11223384Y8019513D01*
X11223387Y8019511D01*
X11315004Y7966615D01*
X11326114Y7960201D01*
X11440691Y7929500D01*
X11440694Y7929500D01*
X11559306Y7929500D01*
X11559309Y7929500D01*
X11673886Y7960201D01*
X11776613Y8019511D01*
X11860489Y8103387D01*
X11919799Y8206114D01*
X11950500Y8320691D01*
X11950500Y8439309D01*
X11919799Y8553886D01*
X11860489Y8656613D01*
X11776613Y8740489D01*
X11673886Y8799799D01*
X11559309Y8830500D01*
X11440691Y8830500D01*
X11326114Y8799799D01*
X11223387Y8740489D01*
X11139511Y8656613D01*
X11080201Y8553886D01*
X11049500Y8439309D01*
X10184703Y8439309D01*
X10224938Y8450090D01*
X10310562Y8499525D01*
X10380475Y8569438D01*
X10429910Y8655062D01*
X10455500Y8750565D01*
X10455500Y8849435D01*
X10429910Y8944938D01*
X10380475Y9030562D01*
X10310562Y9100475D01*
X10224938Y9149910D01*
X10129435Y9175500D01*
X10030565Y9175500D01*
X9935062Y9149910D01*
X9849438Y9100475D01*
X9779525Y9030562D01*
X9730090Y8944938D01*
X9704500Y8849435D01*
X9704500Y8849432D01*
X9704500Y8750567D01*
X9704499Y8750567D01*
X8693156Y8750567D01*
X8668782Y8809413D01*
X8619413Y8858782D01*
X8554909Y8885500D01*
X8485091Y8885500D01*
X8420587Y8858782D01*
X8371218Y8809413D01*
X8344502Y8744912D01*
X8344500Y8744908D01*
X6770500Y8744908D01*
X6770500Y8813860D01*
X6736931Y8894903D01*
X6674903Y8956931D01*
X6593860Y8990500D01*
X6506140Y8990500D01*
X6425097Y8956931D01*
X6425096Y8956930D01*
X6363069Y8894903D01*
X6329500Y8813861D01*
X4372186Y8813861D01*
X4416613Y8839511D01*
X4500489Y8923387D01*
X4559799Y9026114D01*
X4590500Y9140691D01*
X4590500Y9259309D01*
X4559799Y9373886D01*
X4521300Y9440567D01*
X7854499Y9440567D01*
X7865555Y9399306D01*
X7872366Y9373887D01*
X7880091Y9345060D01*
X7880091Y9345059D01*
X7929526Y9259436D01*
X7999436Y9189526D01*
X8084018Y9140693D01*
X8085062Y9140090D01*
X8180565Y9114500D01*
X8180567Y9114500D01*
X8279433Y9114500D01*
X8279435Y9114500D01*
X8374938Y9140090D01*
X8375983Y9140693D01*
X8436270Y9175500D01*
X8460562Y9189525D01*
X8530475Y9259438D01*
X8579910Y9345062D01*
X8605500Y9440565D01*
X8605500Y9539435D01*
X8579910Y9634938D01*
X8530475Y9720562D01*
X8460562Y9790475D01*
X8374938Y9839910D01*
X8285552Y9863861D01*
X10139500Y9863861D01*
X10139500Y9776138D01*
X10173069Y9695096D01*
X10235096Y9633069D01*
X10316138Y9599500D01*
X10316140Y9599500D01*
X10403861Y9599500D01*
X10484903Y9633069D01*
X10546930Y9695096D01*
X10546931Y9695097D01*
X10580500Y9776140D01*
X10580500Y9863860D01*
X10546931Y9944903D01*
X10484903Y10006931D01*
X10403860Y10040500D01*
X10316140Y10040500D01*
X10235097Y10006931D01*
X10235096Y10006930D01*
X10173069Y9944903D01*
X10139500Y9863861D01*
X8285552Y9863861D01*
X8279435Y9865500D01*
X8180565Y9865500D01*
X8085062Y9839910D01*
X7999438Y9790475D01*
X7929525Y9720562D01*
X7880090Y9634938D01*
X7854500Y9539435D01*
X7854500Y9539432D01*
X7854500Y9440567D01*
X7854499Y9440567D01*
X4521300Y9440567D01*
X4500489Y9476613D01*
X4416613Y9560489D01*
X4313886Y9619799D01*
X4199309Y9650500D01*
X4122824Y9650500D01*
X4055785Y9670185D01*
X4010030Y9722989D01*
X4001207Y9750308D01*
X4000500Y9753857D01*
X4000500Y9753860D01*
X3966931Y9834903D01*
X3904903Y9896931D01*
X3823860Y9930500D01*
X3736140Y9930500D01*
X3655097Y9896931D01*
X3655096Y9896930D01*
X3593069Y9834903D01*
X3559500Y9753861D01*
X-2751763Y9753861D01*
X-2699102Y9795274D01*
X-2629548Y9801916D01*
X-2620929Y9799934D01*
X-2619310Y9799500D01*
X-2619309Y9799500D01*
X-2500694Y9799500D01*
X-2500691Y9799500D01*
X-2386114Y9830201D01*
X-2311188Y9873460D01*
X-2311187Y9873460D01*
X-2283390Y9889509D01*
X-2283384Y9889513D01*
X-2199513Y9973384D01*
X-2199511Y9973387D01*
X-2140202Y10076112D01*
X-2140201Y10076114D01*
X-2109500Y10190691D01*
X-2109500Y10309309D01*
X-2140201Y10423886D01*
X-2199511Y10526613D01*
X-2283387Y10610489D01*
X-2303679Y10622204D01*
X-2334583Y10640048D01*
X-2334585Y10640049D01*
X-2386110Y10669797D01*
X-2386111Y10669797D01*
X-2386114Y10669799D01*
X-2500691Y10700500D01*
X-2619309Y10700500D01*
X-2733886Y10669799D01*
X-2836613Y10610489D01*
X-2920489Y10526613D01*
X-2979799Y10423886D01*
X-3010500Y10309309D01*
X-3010500Y10190691D01*
X-2979799Y10076114D01*
X-2920489Y9973387D01*
X-2920487Y9973385D01*
X-2919597Y9971843D01*
X-2903124Y9903943D01*
X-2925976Y9837916D01*
X-2980897Y9794725D01*
X-3050450Y9788083D01*
X-3059079Y9790068D01*
X-3060691Y9790500D01*
X-3179309Y9790500D01*
X-3293886Y9759799D01*
X-3396613Y9700489D01*
X-3480489Y9616613D01*
X-3539799Y9513886D01*
X-3570500Y9399309D01*
X-8379157Y9399309D01*
X-8364066Y9445754D01*
X-8364066Y9445755D01*
X-8338409Y9524714D01*
X-8299000Y9773538D01*
X-8299000Y10025461D01*
X-8314152Y10121124D01*
X-8338410Y10274285D01*
X-8353105Y10319511D01*
X-8416260Y10513883D01*
X-8505652Y10689325D01*
X-8505656Y10689331D01*
X-8530630Y10738345D01*
X-8622035Y10864153D01*
X-8622044Y10864167D01*
X-8678701Y10942149D01*
X-8678705Y10942154D01*
X-8856845Y11120294D01*
X-8856850Y11120298D01*
X-8910718Y11159435D01*
X-8425500Y11159435D01*
X-8425500Y11060565D01*
X-8399910Y10965062D01*
X-8350475Y10879438D01*
X-8280562Y10809525D01*
X-8194938Y10760090D01*
X-8099435Y10734500D01*
X-8099433Y10734500D01*
X-8000567Y10734500D01*
X-8000565Y10734500D01*
X-7905062Y10760090D01*
X-7905060Y10760091D01*
X-7905059Y10760091D01*
X-7854452Y10789309D01*
X-7050500Y10789309D01*
X-7050500Y10670691D01*
X-7019799Y10556114D01*
X-6960489Y10453387D01*
X-6876613Y10369511D01*
X-6773886Y10310201D01*
X-6659309Y10279500D01*
X-6659306Y10279500D01*
X-6540694Y10279500D01*
X-6540691Y10279500D01*
X-6426114Y10310201D01*
X-6323387Y10369511D01*
X-6323384Y10369513D01*
X-6239513Y10453384D01*
X-6239511Y10453387D01*
X-6180202Y10556112D01*
X-6165632Y10610486D01*
X-6149500Y10670691D01*
X-6149500Y10739309D01*
X-1440500Y10739309D01*
X-1440500Y10620691D01*
X-1409799Y10506114D01*
X-1350489Y10403387D01*
X-1266613Y10319511D01*
X-1163886Y10260201D01*
X-1049309Y10229500D01*
X-1049306Y10229500D01*
X-930694Y10229500D01*
X-930691Y10229500D01*
X-816114Y10260201D01*
X-729510Y10310202D01*
X-713387Y10319511D01*
X-713384Y10319513D01*
X-629513Y10403384D01*
X-629511Y10403387D01*
X-570202Y10506112D01*
X-568975Y10510691D01*
X-539500Y10620691D01*
X-539500Y10739309D01*
X-570201Y10853886D01*
X-629511Y10956613D01*
X-713387Y11040489D01*
X-816114Y11099799D01*
X-930691Y11130500D01*
X-1049309Y11130500D01*
X-1163886Y11099799D01*
X-1266613Y11040489D01*
X-1350489Y10956613D01*
X-1409799Y10853886D01*
X-1440500Y10739309D01*
X-6149500Y10739309D01*
X-6149500Y10789309D01*
X-6180201Y10903886D01*
X-6239511Y11006613D01*
X-6323387Y11090489D01*
X-6426114Y11149799D01*
X-6540691Y11180500D01*
X-6659309Y11180500D01*
X-6773886Y11149799D01*
X-6876613Y11090489D01*
X-6960489Y11006613D01*
X-7019799Y10903886D01*
X-7050500Y10789309D01*
X-7854452Y10789309D01*
X-7819436Y10809526D01*
X-7749526Y10879436D01*
X-7700091Y10965059D01*
X-7700091Y10965060D01*
X-7698898Y10969511D01*
X-7674500Y11060565D01*
X-7674500Y11159435D01*
X-7700090Y11254938D01*
X-7749525Y11340562D01*
X-7819438Y11410475D01*
X-7905062Y11459910D01*
X-7940139Y11469309D01*
X-5080500Y11469309D01*
X-5080500Y11350691D01*
X-5049799Y11236114D01*
X-4990489Y11133387D01*
X-4906613Y11049511D01*
X-4803886Y10990201D01*
X-4689309Y10959500D01*
X-4689306Y10959500D01*
X-4570694Y10959500D01*
X-4570691Y10959500D01*
X-4456114Y10990201D01*
X-4430642Y11004907D01*
X-4353387Y11049511D01*
X-4353384Y11049513D01*
X-4269513Y11133384D01*
X-4269511Y11133387D01*
X-4210202Y11236112D01*
X-4210201Y11236114D01*
X-4179500Y11350691D01*
X-4179500Y11389309D01*
X-440500Y11389309D01*
X-440500Y11270691D01*
X-409799Y11156114D01*
X-350489Y11053387D01*
X-266613Y10969511D01*
X-163886Y10910201D01*
X-49309Y10879500D01*
X-49306Y10879500D01*
X69306Y10879500D01*
X69309Y10879500D01*
X183886Y10910201D01*
X286613Y10969511D01*
X322010Y11004908D01*
X4014500Y11004908D01*
X4014500Y10935091D01*
X4041218Y10870586D01*
X4090586Y10821218D01*
X4155091Y10794500D01*
X4224908Y10794500D01*
X4224909Y10794500D01*
X4289413Y10821218D01*
X4338782Y10870587D01*
X4365500Y10935091D01*
X4365500Y11004909D01*
X4338782Y11069413D01*
X4289413Y11118782D01*
X4224909Y11145500D01*
X4155091Y11145500D01*
X4090587Y11118782D01*
X4041218Y11069413D01*
X4015206Y11006612D01*
X4014500Y11004908D01*
X322010Y11004908D01*
X370489Y11053387D01*
X391680Y11090091D01*
X429796Y11156108D01*
X429797Y11156109D01*
X429798Y11156112D01*
X429799Y11156114D01*
X460500Y11270691D01*
X460500Y11389309D01*
X429799Y11503886D01*
X370489Y11606613D01*
X370486Y11606615D01*
X369441Y11608426D01*
X352967Y11676326D01*
X375818Y11742354D01*
X389146Y11758109D01*
X430473Y11799436D01*
X430475Y11799438D01*
X479910Y11885062D01*
X505500Y11980565D01*
X505500Y12079435D01*
X479910Y12174938D01*
X460066Y12209309D01*
X4599500Y12209309D01*
X4599500Y12090691D01*
X4630201Y11976114D01*
X4630202Y11976112D01*
X4689511Y11873387D01*
X4689513Y11873384D01*
X4773384Y11789513D01*
X4773387Y11789511D01*
X4868766Y11734443D01*
X4876114Y11730201D01*
X4990691Y11699500D01*
X4990694Y11699500D01*
X5090298Y11699500D01*
X5157337Y11679815D01*
X5203092Y11627011D01*
X5213036Y11557853D01*
X5210075Y11543415D01*
X5179500Y11429309D01*
X5179500Y11310691D01*
X5207522Y11206112D01*
X5210202Y11196112D01*
X5269511Y11093387D01*
X5269513Y11093384D01*
X5353384Y11009513D01*
X5353387Y11009511D01*
X5445004Y10956615D01*
X5456114Y10950201D01*
X5570691Y10919500D01*
X5570694Y10919500D01*
X5689306Y10919500D01*
X5689309Y10919500D01*
X5803886Y10950201D01*
X5906613Y11009511D01*
X5906615Y11009513D01*
X5913651Y11013575D01*
X5914979Y11011274D01*
X5921412Y11013761D01*
X5937720Y11025365D01*
X5953337Y11026103D01*
X5967918Y11031740D01*
X5987522Y11027719D01*
X6007512Y11028664D01*
X6033296Y11018331D01*
X6036363Y11017702D01*
X6040273Y11015535D01*
X6042997Y11013961D01*
X6091195Y10963377D01*
X6104393Y10894765D01*
X6088346Y10844596D01*
X6030202Y10743889D01*
X6030201Y10743886D01*
X5999500Y10629309D01*
X5999500Y10510691D01*
X6028253Y10403384D01*
X6030202Y10396112D01*
X6089511Y10293387D01*
X6089513Y10293384D01*
X6173384Y10209513D01*
X6173387Y10209511D01*
X6276114Y10150201D01*
X6390691Y10119500D01*
X6390694Y10119500D01*
X6509306Y10119500D01*
X6509309Y10119500D01*
X6623886Y10150201D01*
X6726613Y10209511D01*
X6810489Y10293387D01*
X6869799Y10396114D01*
X6900500Y10510691D01*
X6900500Y10629309D01*
X6869799Y10743886D01*
X6810489Y10846613D01*
X6726613Y10930489D01*
X6717039Y10936016D01*
X6668824Y10986583D01*
X6655602Y11055190D01*
X6671652Y11105401D01*
X6729799Y11206114D01*
X6760500Y11320691D01*
X6760500Y11439309D01*
X6757820Y11449309D01*
X7659500Y11449309D01*
X7659500Y11330691D01*
X7684842Y11236114D01*
X7690202Y11216112D01*
X7749511Y11113387D01*
X7749513Y11113384D01*
X7833384Y11029513D01*
X7833387Y11029511D01*
X7902169Y10989799D01*
X7936114Y10970201D01*
X8050691Y10939500D01*
X8050694Y10939500D01*
X8169306Y10939500D01*
X8169309Y10939500D01*
X8283886Y10970201D01*
X8386613Y11029511D01*
X8470489Y11113387D01*
X8529799Y11216114D01*
X8560500Y11330691D01*
X8560500Y11390567D01*
X9474499Y11390567D01*
X9474837Y11389306D01*
X9495902Y11310691D01*
X9500091Y11295060D01*
X9500091Y11295059D01*
X9549526Y11209436D01*
X9619436Y11139526D01*
X9704373Y11090488D01*
X9705062Y11090090D01*
X9800565Y11064500D01*
X9800567Y11064500D01*
X9899433Y11064500D01*
X9899435Y11064500D01*
X9994938Y11090090D01*
X9995628Y11090488D01*
X10035284Y11113384D01*
X10080562Y11139525D01*
X10150475Y11209438D01*
X10199910Y11295062D01*
X10225500Y11390565D01*
X10225500Y11489435D01*
X10199910Y11584938D01*
X10150475Y11670562D01*
X10080562Y11740475D01*
X9994938Y11789910D01*
X9899435Y11815500D01*
X9800565Y11815500D01*
X9705062Y11789910D01*
X9619438Y11740475D01*
X9549525Y11670562D01*
X9500090Y11584938D01*
X9474500Y11489435D01*
X9474500Y11489432D01*
X9474500Y11390567D01*
X9474499Y11390567D01*
X8560500Y11390567D01*
X8560500Y11449309D01*
X8557660Y11459908D01*
X8556173Y11465459D01*
X8556170Y11465468D01*
X8555141Y11469309D01*
X8529799Y11563886D01*
X8470489Y11666613D01*
X8386613Y11750489D01*
X8283886Y11809799D01*
X8169309Y11840500D01*
X8050691Y11840500D01*
X7936114Y11809799D01*
X7833387Y11750489D01*
X7749511Y11666613D01*
X7690201Y11563886D01*
X7659500Y11449309D01*
X6757820Y11449309D01*
X6729799Y11553886D01*
X6670489Y11656613D01*
X6586613Y11740489D01*
X6483886Y11799799D01*
X6369309Y11830500D01*
X6250691Y11830500D01*
X6136114Y11799799D01*
X6033387Y11740489D01*
X6033386Y11740488D01*
X6026349Y11736425D01*
X6025020Y11738726D01*
X5972088Y11718260D01*
X5903642Y11732294D01*
X5899824Y11734408D01*
X5803886Y11789799D01*
X5689309Y11820500D01*
X5589702Y11820500D01*
X5522663Y11840185D01*
X5476908Y11892989D01*
X5466964Y11962147D01*
X5469924Y11976584D01*
X5500500Y12090691D01*
X5500500Y12209309D01*
X5469799Y12323886D01*
X5464040Y12333861D01*
X6469500Y12333861D01*
X6469500Y12246138D01*
X6503069Y12165096D01*
X6565096Y12103069D01*
X6646138Y12069500D01*
X6646140Y12069500D01*
X6733861Y12069500D01*
X6814903Y12103069D01*
X6876930Y12165096D01*
X6876931Y12165097D01*
X6910500Y12246140D01*
X6910500Y12333860D01*
X6876931Y12414903D01*
X6814903Y12476931D01*
X6733860Y12510500D01*
X6646140Y12510500D01*
X6565097Y12476931D01*
X6565096Y12476930D01*
X6503069Y12414903D01*
X6469500Y12333861D01*
X5464040Y12333861D01*
X5410489Y12426613D01*
X5326613Y12510489D01*
X5223886Y12569799D01*
X5109309Y12600500D01*
X4990691Y12600500D01*
X4876114Y12569799D01*
X4773387Y12510489D01*
X4689511Y12426613D01*
X4630201Y12323886D01*
X4599500Y12209309D01*
X460066Y12209309D01*
X430475Y12260562D01*
X360562Y12330475D01*
X274938Y12379910D01*
X179435Y12405500D01*
X80565Y12405500D01*
X-14938Y12379910D01*
X-100562Y12330475D01*
X-170475Y12260562D01*
X-219910Y12174938D01*
X-245500Y12079435D01*
X-245500Y11980565D01*
X-219910Y11885062D01*
X-219908Y11885059D01*
X-209333Y11866742D01*
X-192860Y11798842D01*
X-215713Y11732815D01*
X-254720Y11697354D01*
X-266613Y11690489D01*
X-350489Y11606613D01*
X-409799Y11503886D01*
X-440500Y11389309D01*
X-4179500Y11389309D01*
X-4179500Y11469309D01*
X-4210201Y11583886D01*
X-4269511Y11686613D01*
X-4353387Y11770489D01*
X-4456114Y11829799D01*
X-4570691Y11860500D01*
X-4689309Y11860500D01*
X-4803886Y11829799D01*
X-4906613Y11770489D01*
X-4990489Y11686613D01*
X-5049799Y11583886D01*
X-5080500Y11469309D01*
X-7940139Y11469309D01*
X-8000565Y11485500D01*
X-8099435Y11485500D01*
X-8194938Y11459910D01*
X-8280562Y11410475D01*
X-8350475Y11340562D01*
X-8399910Y11254938D01*
X-8425500Y11159435D01*
X-8910718Y11159435D01*
X-9060651Y11268367D01*
X-9060655Y11268370D01*
X-9222223Y11350693D01*
X-9285116Y11382739D01*
X-9285118Y11382739D01*
X-9285121Y11382741D01*
X-9524715Y11460590D01*
X-9773538Y11500000D01*
X-10025462Y11500000D01*
X-10274285Y11460590D01*
X-10513879Y11382741D01*
X-10738345Y11268370D01*
X-10942156Y11120293D01*
X-11120293Y10942156D01*
X-11268370Y10738345D01*
X-11382741Y10513879D01*
X-11460590Y10274285D01*
X-11500000Y10025462D01*
X-13098845Y10025462D01*
X-13096245Y10030045D01*
X-13043256Y10103121D01*
X-13043256Y10103123D01*
X-13032604Y10117814D01*
X-13027585Y10124276D01*
X-12336577Y10955815D01*
X-12331130Y10961946D01*
X-11586634Y11746033D01*
X-11580810Y11751775D01*
X-10792360Y12479435D01*
X-8135500Y12479435D01*
X-8135500Y12380565D01*
X-8109910Y12285062D01*
X-8060475Y12199438D01*
X-7990562Y12129525D01*
X-7904938Y12080090D01*
X-7809435Y12054500D01*
X-7809433Y12054500D01*
X-7710565Y12054500D01*
X-7678775Y12063017D01*
X-7608926Y12061355D01*
X-7551064Y12022192D01*
X-7539296Y12005244D01*
X-7480489Y11903387D01*
X-7396613Y11819511D01*
X-7293886Y11760201D01*
X-7179309Y11729500D01*
X-7179306Y11729500D01*
X-7060694Y11729500D01*
X-7060691Y11729500D01*
X-6946114Y11760201D01*
X-6928296Y11770488D01*
X-6843387Y11819511D01*
X-6843384Y11819513D01*
X-6759513Y11903384D01*
X-6759511Y11903387D01*
X-6700202Y12006112D01*
X-6687236Y12054500D01*
X-6669500Y12120691D01*
X-6669500Y12239309D01*
X-6700201Y12353886D01*
X-6759511Y12456613D01*
X-6843387Y12540489D01*
X-6946114Y12599799D01*
X-6982076Y12609435D01*
X-6435500Y12609435D01*
X-6435500Y12510565D01*
X-6409910Y12415062D01*
X-6360475Y12329438D01*
X-6290562Y12259525D01*
X-6204938Y12210090D01*
X-6109435Y12184500D01*
X-6109433Y12184500D01*
X-6010567Y12184500D01*
X-6010565Y12184500D01*
X-5915062Y12210090D01*
X-5915060Y12210091D01*
X-5915059Y12210091D01*
X-5829436Y12259526D01*
X-5759526Y12329436D01*
X-5710091Y12415059D01*
X-5710091Y12415060D01*
X-5710090Y12415062D01*
X-5684500Y12510565D01*
X-5684500Y12609435D01*
X-5710090Y12704938D01*
X-5759525Y12790562D01*
X-5829438Y12860475D01*
X-5915062Y12909910D01*
X-6010565Y12935500D01*
X-6109435Y12935500D01*
X-6204938Y12909910D01*
X-6290562Y12860475D01*
X-6360475Y12790562D01*
X-6409910Y12704938D01*
X-6435500Y12609435D01*
X-6982076Y12609435D01*
X-7060691Y12630500D01*
X-7179309Y12630500D01*
X-7293886Y12599799D01*
X-7293888Y12599797D01*
X-7293890Y12599797D01*
X-7298780Y12597772D01*
X-7368249Y12590303D01*
X-7430728Y12621579D01*
X-7453617Y12650329D01*
X-7459526Y12660563D01*
X-7529436Y12730473D01*
X-7529438Y12730475D01*
X-7615062Y12779910D01*
X-7710565Y12805500D01*
X-7809435Y12805500D01*
X-7904938Y12779910D01*
X-7990562Y12730475D01*
X-8060475Y12660562D01*
X-8109910Y12574938D01*
X-8135500Y12479435D01*
X-10792360Y12479435D01*
X-10786231Y12485091D01*
X-10780030Y12490446D01*
X-10664108Y12584041D01*
X-9938834Y13169626D01*
X-9932298Y13174555D01*
X-9854490Y13229309D01*
X-400500Y13229309D01*
X-400500Y13110691D01*
X-369799Y12996114D01*
X-310489Y12893387D01*
X-226613Y12809511D01*
X-123886Y12750201D01*
X-9309Y12719500D01*
X-9306Y12719500D01*
X109306Y12719500D01*
X109309Y12719500D01*
X223886Y12750201D01*
X326613Y12809511D01*
X410489Y12893387D01*
X469799Y12996114D01*
X500500Y13110691D01*
X500500Y13229309D01*
X469799Y13343886D01*
X410489Y13446613D01*
X326613Y13530489D01*
X223886Y13589799D01*
X109309Y13620500D01*
X-9309Y13620500D01*
X-123886Y13589799D01*
X-226613Y13530489D01*
X-310489Y13446613D01*
X-369799Y13343886D01*
X-400500Y13229309D01*
X-9854490Y13229309D01*
X-9698835Y13338844D01*
X-9048031Y13796818D01*
X-9041184Y13801306D01*
X-8601274Y14069309D01*
X-3780500Y14069309D01*
X-3780500Y13950691D01*
X-3749799Y13836114D01*
X-3690489Y13733387D01*
X-3606613Y13649511D01*
X-3503886Y13590201D01*
X-3389309Y13559500D01*
X-3389306Y13559500D01*
X-3270694Y13559500D01*
X-3270691Y13559500D01*
X-3156114Y13590201D01*
X-3053387Y13649511D01*
X-3053384Y13649513D01*
X-2969513Y13733384D01*
X-2969511Y13733387D01*
X-2910202Y13836112D01*
X-2910201Y13836114D01*
X-2879500Y13950691D01*
X-2879500Y14009309D01*
X-1840500Y14009309D01*
X-1840500Y13890691D01*
X-1809799Y13776114D01*
X-1750489Y13673387D01*
X-1666613Y13589511D01*
X-1563886Y13530201D01*
X-1449309Y13499500D01*
X-1449306Y13499500D01*
X-1330694Y13499500D01*
X-1330691Y13499500D01*
X-1216114Y13530201D01*
X-1113387Y13589511D01*
X-1113384Y13589513D01*
X-1029513Y13673384D01*
X-1029511Y13673387D01*
X-970202Y13776112D01*
X-964654Y13796817D01*
X-939500Y13890691D01*
X-939500Y14009309D01*
X-970201Y14123886D01*
X-996426Y14169309D01*
X1289500Y14169309D01*
X1289500Y14050691D01*
X1320201Y13936114D01*
X1320202Y13936112D01*
X1379511Y13833387D01*
X1379514Y13833383D01*
X1460565Y13752331D01*
X1494050Y13691008D01*
X1493020Y13647823D01*
X1495561Y13647489D01*
X1494501Y13639438D01*
X1494500Y13639435D01*
X1494500Y13639431D01*
X1494500Y13540567D01*
X1494499Y13540567D01*
X1497277Y13530201D01*
X1519674Y13446613D01*
X1520091Y13445060D01*
X1520091Y13445059D01*
X1569526Y13359436D01*
X1639436Y13289526D01*
X1714961Y13245922D01*
X1725062Y13240090D01*
X1820565Y13214500D01*
X1820567Y13214500D01*
X1919436Y13214500D01*
X1951584Y13223114D01*
X2021434Y13221451D01*
X2079296Y13182288D01*
X2091063Y13165340D01*
X2109511Y13133387D01*
X2109513Y13133384D01*
X2193384Y13049513D01*
X2193387Y13049511D01*
X2296114Y12990201D01*
X2410691Y12959500D01*
X2410694Y12959500D01*
X2529306Y12959500D01*
X2529309Y12959500D01*
X2643886Y12990201D01*
X2746613Y13049511D01*
X2830489Y13133387D01*
X2889799Y13236114D01*
X2920500Y13350691D01*
X2920500Y13469309D01*
X2889799Y13583886D01*
X2830489Y13686613D01*
X2746613Y13770489D01*
X2644735Y13829309D01*
X3259500Y13829309D01*
X3259500Y13710691D01*
X3290201Y13596114D01*
X3290202Y13596112D01*
X3349511Y13493387D01*
X3349513Y13493384D01*
X3433384Y13409513D01*
X3433387Y13409511D01*
X3536114Y13350200D01*
X3536116Y13350199D01*
X3539228Y13349366D01*
X3541555Y13347947D01*
X3543618Y13347093D01*
X3543484Y13346771D01*
X3598887Y13312999D01*
X3629413Y13250150D01*
X3621115Y13180775D01*
X3594810Y13141912D01*
X3579511Y13126613D01*
X3520201Y13023886D01*
X3489500Y12909309D01*
X3489500Y12790691D01*
X3512478Y12704938D01*
X3520202Y12676112D01*
X3579511Y12573387D01*
X3579513Y12573384D01*
X3663384Y12489513D01*
X3663387Y12489511D01*
X3710697Y12462196D01*
X3766114Y12430201D01*
X3880691Y12399500D01*
X3880694Y12399500D01*
X3999306Y12399500D01*
X3999309Y12399500D01*
X4113886Y12430201D01*
X4216613Y12489511D01*
X4300489Y12573387D01*
X4359799Y12676114D01*
X4390500Y12790691D01*
X4390500Y12909309D01*
X4359799Y13023886D01*
X4300489Y13126613D01*
X4216613Y13210489D01*
X4113886Y13269799D01*
X4110780Y13270631D01*
X4108454Y13272048D01*
X4106382Y13272907D01*
X4106515Y13273230D01*
X4051121Y13306990D01*
X4020588Y13369836D01*
X4028879Y13439212D01*
X4037202Y13453861D01*
X4589500Y13453861D01*
X4589500Y13366138D01*
X4623069Y13285096D01*
X4685096Y13223069D01*
X4766138Y13189500D01*
X4766140Y13189500D01*
X4853861Y13189500D01*
X4934903Y13223069D01*
X4996930Y13285096D01*
X4996931Y13285097D01*
X5030500Y13366140D01*
X5030500Y13453860D01*
X4996931Y13534903D01*
X4934903Y13596931D01*
X4853860Y13630500D01*
X4766140Y13630500D01*
X4685097Y13596931D01*
X4685096Y13596930D01*
X4623069Y13534903D01*
X4589500Y13453861D01*
X4037202Y13453861D01*
X4042588Y13463341D01*
X4048308Y13471206D01*
X4070489Y13493387D01*
X4093782Y13533731D01*
X4129796Y13596108D01*
X4129797Y13596109D01*
X4129798Y13596112D01*
X4129799Y13596114D01*
X4160500Y13710691D01*
X4160500Y13829309D01*
X4129799Y13943886D01*
X4070489Y14046613D01*
X3986613Y14130489D01*
X3883886Y14189799D01*
X3769309Y14220500D01*
X3650691Y14220500D01*
X3536114Y14189799D01*
X3433387Y14130489D01*
X3349511Y14046613D01*
X3290201Y13943886D01*
X3259500Y13829309D01*
X2644735Y13829309D01*
X2643886Y13829799D01*
X2529309Y13860500D01*
X2410691Y13860500D01*
X2326015Y13837811D01*
X2256171Y13839474D01*
X2198308Y13878636D01*
X2170803Y13942864D01*
X2174150Y13989674D01*
X2190500Y14050691D01*
X2190500Y14169309D01*
X2159799Y14283886D01*
X2100489Y14386613D01*
X2026535Y14460567D01*
X5124499Y14460567D01*
X5124500Y14460565D01*
X5149845Y14365976D01*
X5150091Y14365060D01*
X5150091Y14365059D01*
X5199526Y14279436D01*
X5269436Y14209526D01*
X5314806Y14183332D01*
X5355062Y14160090D01*
X5450565Y14134500D01*
X5450567Y14134500D01*
X5549433Y14134500D01*
X5549435Y14134500D01*
X5644938Y14160090D01*
X5730562Y14209525D01*
X5800475Y14279438D01*
X5849910Y14365062D01*
X5875500Y14460565D01*
X5875500Y14559435D01*
X5849910Y14654938D01*
X5800475Y14740562D01*
X5730562Y14810475D01*
X5644938Y14859910D01*
X5549435Y14885500D01*
X5450565Y14885500D01*
X5355062Y14859910D01*
X5269438Y14810475D01*
X5199525Y14740562D01*
X5150090Y14654938D01*
X5124500Y14559435D01*
X5124500Y14559432D01*
X5124500Y14460567D01*
X5124499Y14460567D01*
X2026535Y14460567D01*
X2016613Y14470489D01*
X1913886Y14529799D01*
X1799309Y14560500D01*
X1680691Y14560500D01*
X1566114Y14529799D01*
X1463387Y14470489D01*
X1379511Y14386613D01*
X1320201Y14283886D01*
X1289500Y14169309D01*
X-996426Y14169309D01*
X-1029511Y14226613D01*
X-1113387Y14310489D01*
X-1216114Y14369799D01*
X-1330691Y14400500D01*
X-1449309Y14400500D01*
X-1563886Y14369799D01*
X-1666613Y14310489D01*
X-1750489Y14226613D01*
X-1809799Y14123886D01*
X-1840500Y14009309D01*
X-2879500Y14009309D01*
X-2879500Y14069309D01*
X-2910201Y14183886D01*
X-2969511Y14286613D01*
X-3053387Y14370489D01*
X-3156114Y14429799D01*
X-3270691Y14460500D01*
X-3389309Y14460500D01*
X-3503886Y14429799D01*
X-3606613Y14370489D01*
X-3690489Y14286613D01*
X-3749799Y14183886D01*
X-3780500Y14069309D01*
X-8601274Y14069309D01*
X-8414112Y14183332D01*
X-8117819Y14363840D01*
X-8110695Y14367864D01*
X-7152225Y14868291D01*
X-7144846Y14871838D01*
X-6155528Y15307885D01*
X-6147926Y15310940D01*
X-5131928Y15680718D01*
X-5124142Y15683264D01*
X-4085932Y15985153D01*
X-4078008Y15987176D01*
X-3022104Y16219991D01*
X-3014042Y16221491D01*
X-1971444Y16379991D01*
X-1952807Y16381400D01*
X1952801Y16381400D01*
X1971438Y16379991D01*
G37*
%TD.AperFunction*%
%TD*%
M02*
