%TF.GenerationSoftware,KiCad,Pcbnew,10.0.3*%
%TF.CreationDate,2026-08-07T12:01:27+02:00*%
%TF.ProjectId,wakeup_board,77616b65-7570-45f6-926f-6172642e6b69,rev?*%
%TF.SameCoordinates,Original*%
%TF.FileFunction,Legend,Bot*%
%TF.FilePolarity,Positive*%
%FSLAX46Y46*%
G04 Gerber Fmt 4.6, Leading zero omitted, Abs format (unit mm)*
G04 Created by KiCad (PCBNEW 10.0.3) date 2026-08-07 12:01:27*
%MOMM*%
%LPD*%
G01*
G04 APERTURE LIST*
G04 Aperture macros list*
%AMRoundRect*
0 Rectangle with rounded corners*
0 $1 Rounding radius*
0 $2 $3 $4 $5 $6 $7 $8 $9 X,Y pos of 4 corners*
0 Add a 4 corners polygon primitive as box body*
4,1,4,$2,$3,$4,$5,$6,$7,$8,$9,$2,$3,0*
0 Add four circle primitives for the rounded corners*
1,1,$1+$1,$2,$3*
1,1,$1+$1,$4,$5*
1,1,$1+$1,$6,$7*
1,1,$1+$1,$8,$9*
0 Add four rect primitives between the rounded corners*
20,1,$1+$1,$2,$3,$4,$5,0*
20,1,$1+$1,$4,$5,$6,$7,0*
20,1,$1+$1,$6,$7,$8,$9,0*
20,1,$1+$1,$8,$9,$2,$3,0*%
G04 Aperture macros list end*
%ADD10C,0.120000*%
%ADD11C,0.150000*%
%ADD12C,3.000000*%
%ADD13R,0.600000X0.550000*%
%ADD14R,0.550000X0.600000*%
%ADD15RoundRect,0.100000X-0.100000X0.130000X-0.100000X-0.130000X0.100000X-0.130000X0.100000X0.130000X0*%
%ADD16C,1.500000*%
%ADD17C,2.000000*%
%ADD18RoundRect,0.140000X0.140000X0.170000X-0.140000X0.170000X-0.140000X-0.170000X0.140000X-0.170000X0*%
%ADD19R,0.850000X0.950000*%
%ADD20RoundRect,0.100000X0.130000X0.100000X-0.130000X0.100000X-0.130000X-0.100000X0.130000X-0.100000X0*%
%ADD21RoundRect,0.100000X0.100000X-0.130000X0.100000X0.130000X-0.100000X0.130000X-0.100000X-0.130000X0*%
%ADD22R,0.950000X0.850000*%
%ADD23R,0.900000X0.900000*%
%ADD24RoundRect,0.100000X-0.130000X-0.100000X0.130000X-0.100000X0.130000X0.100000X-0.130000X0.100000X0*%
%ADD25RoundRect,0.112500X-0.112500X0.350000X-0.112500X-0.350000X0.112500X-0.350000X0.112500X0.350000X0*%
G04 APERTURE END LIST*
D10*
X-13925000Y-1600000D02*
X-13925000Y-2920000D01*
X-13925000Y-3400000D02*
X-13925000Y-4720000D01*
X-13925000Y-5200000D02*
X-13925000Y-6520000D01*
X-13925000Y-7000000D02*
X-13925000Y-7400000D01*
X-13925000Y-7400000D02*
X-12605000Y-7400000D01*
X-12125000Y-7400000D02*
X-10805000Y-7400000D01*
X-10325000Y-7400000D02*
X-9005000Y-7400000D01*
X-8525000Y-7400000D02*
X-7363500Y-7400000D01*
X-12000000Y950000D02*
X-12000000Y-370000D01*
X-12000000Y-850000D02*
X-12000000Y-950000D01*
X-12000000Y-950000D02*
X-11092000Y-950000D01*
X-11092000Y3200000D02*
X-11092000Y1880000D01*
X-11092000Y1400000D02*
X-11092000Y950000D01*
X-11092000Y950000D02*
X-12000000Y950000D01*
X-11092000Y-950000D02*
X-11092000Y-1600000D01*
X-11092000Y-1600000D02*
X-12412000Y-1600000D01*
X-12892000Y-1600000D02*
X-13925000Y-1600000D01*
X-10783400Y9015600D02*
X-9850019Y8082219D01*
X-9510608Y7742808D02*
X-9102000Y7334200D01*
X-10153000Y6051000D02*
X-10153000Y4731000D01*
X-10153000Y4251000D02*
X-10153000Y3200000D01*
X-10153000Y3200000D02*
X-11092000Y3200000D01*
X-9102000Y7334200D02*
X-9102000Y6051000D01*
X-9102000Y6051000D02*
X-10153000Y6051000D01*
X-9015600Y10783400D02*
X-9948981Y9850019D01*
X-10288392Y9510608D02*
X-10783400Y9015600D01*
X-7363500Y-7400000D02*
X-7363500Y-8692000D01*
X-7363500Y-8692000D02*
X-6930000Y-8692000D01*
X-7282200Y9050000D02*
X-8215581Y9983381D01*
X-8554992Y10322792D02*
X-9015600Y10783400D01*
X-6930000Y-8692000D02*
X-6930000Y-9502000D01*
X-6930000Y-9502000D02*
X-5610000Y-9502000D01*
X-6652000Y10101000D02*
X-6652000Y9050000D01*
X-6652000Y9050000D02*
X-7282200Y9050000D01*
X-5329000Y-9502000D02*
X-5329000Y-10402000D01*
X-5329000Y-10402000D02*
X-4628000Y-10402000D01*
X-4628000Y-10402000D02*
X-4628000Y-11652000D01*
X-4628000Y-11652000D02*
X-3308000Y-11652000D01*
X-3801000Y11152000D02*
X-3801000Y10101000D01*
X-3801000Y10101000D02*
X-5121000Y10101000D01*
X-5601000Y10101000D02*
X-6652000Y10101000D01*
X-3278000Y-10752000D02*
X-1958000Y-10752000D01*
X-1478000Y-10752000D02*
X-726000Y-10752000D01*
X-3278000Y-11652000D02*
X-3278000Y-10752000D01*
X-950000Y11153000D02*
X-2270000Y11152537D01*
X-2750000Y11152369D02*
X-3801000Y11152001D01*
X-726000Y-10752000D02*
X-726000Y-11652000D01*
X-726000Y-11652000D02*
X594000Y-11652000D01*
X1074000Y-11652000D02*
X1675000Y-11652000D01*
X1675000Y-10752000D02*
X2995000Y-10752000D01*
X3475000Y-10752000D02*
X4526000Y-10752000D01*
X1675000Y-11652000D02*
X1675000Y-10752000D01*
X2210000Y11153000D02*
X890000Y11153000D01*
X410000Y11153000D02*
X-910000Y11153000D01*
X2551000Y11402000D02*
X2551000Y11153000D01*
X2551000Y11153000D02*
X2210000Y11153000D01*
X3901000Y11402000D02*
X2581000Y11402000D01*
X3901000Y9602000D02*
X3901000Y10922000D01*
X3901000Y11402000D02*
X3901000Y11402000D01*
X4526000Y-10402000D02*
X5462500Y-10402000D01*
X4526000Y-10752000D02*
X4526000Y-10402000D01*
X5462500Y-9502000D02*
X6782500Y-9502000D01*
X7262500Y-9502000D02*
X7734200Y-9502000D01*
X5462500Y-10402000D02*
X5462500Y-9502000D01*
X7200000Y9602000D02*
X5880000Y9602000D01*
X5400000Y9602000D02*
X4080000Y9602000D01*
X7200000Y8862000D02*
X7200000Y9602000D01*
X7734200Y-9502000D02*
X8667581Y-10435381D01*
X9006992Y-10774792D02*
X9015600Y-10783400D01*
X8251000Y8862000D02*
X7200000Y8862000D01*
X8251000Y7612000D02*
X8251000Y8862000D01*
X9015600Y-10783400D02*
X9948981Y-9850019D01*
X10288392Y-9510608D02*
X10783400Y-9015600D01*
X9051000Y7612000D02*
X8251000Y7612000D01*
X9051000Y6011000D02*
X9051000Y7331000D01*
X9365500Y-6451000D02*
X10685500Y-6451000D01*
X11165500Y-6451000D02*
X12485500Y-6451000D01*
X9365500Y-7597700D02*
X9365500Y-6451000D01*
X10201000Y6011000D02*
X9051000Y6011000D01*
X10201000Y2950000D02*
X10201000Y4270000D01*
X10201000Y4750000D02*
X10201000Y6011000D01*
X10783400Y-9015600D02*
X9850019Y-8082219D01*
X9510608Y-7742808D02*
X9365500Y-7597700D01*
X10801000Y2950000D02*
X10201000Y2950000D01*
X10801000Y-651000D02*
X10801000Y669000D01*
X10801000Y1149000D02*
X10801000Y2469000D01*
X10801000Y2949000D02*
X10801000Y2950000D01*
X12913500Y-651000D02*
X11593500Y-651000D01*
X11113500Y-651000D02*
X10801000Y-651000D01*
X12913500Y-6451000D02*
X12913500Y-5131000D01*
X12913500Y-4651000D02*
X12913500Y-3331000D01*
X12913500Y-2851000D02*
X12913500Y-1531000D01*
X12913500Y-1051000D02*
X12913500Y-651000D01*
X14041817Y12076240D02*
X13965626Y12038144D01*
X13965626Y12038144D02*
X13813245Y12038144D01*
X13813245Y12038144D02*
X13737055Y12076240D01*
X13737055Y12076240D02*
X13698959Y12152430D01*
X13698959Y12152430D02*
X13698959Y12190525D01*
X13698959Y12190525D02*
X13737055Y12266716D01*
X13737055Y12266716D02*
X13813245Y12304811D01*
X13813245Y12304811D02*
X13927531Y12304811D01*
X13927531Y12304811D02*
X14003721Y12342906D01*
X14003721Y12342906D02*
X14041817Y12419097D01*
X14041817Y12419097D02*
X14041817Y12457192D01*
X14041817Y12457192D02*
X14003721Y12533382D01*
X14003721Y12533382D02*
X13927531Y12571478D01*
X13927531Y12571478D02*
X13813245Y12571478D01*
X13813245Y12571478D02*
X13737055Y12533382D01*
X13356102Y12571478D02*
X13356102Y11771478D01*
X13356102Y12533382D02*
X13279912Y12571478D01*
X13279912Y12571478D02*
X13127531Y12571478D01*
X13127531Y12571478D02*
X13051340Y12533382D01*
X13051340Y12533382D02*
X13013245Y12495287D01*
X13013245Y12495287D02*
X12975150Y12419097D01*
X12975150Y12419097D02*
X12975150Y12190525D01*
X12975150Y12190525D02*
X13013245Y12114335D01*
X13013245Y12114335D02*
X13051340Y12076240D01*
X13051340Y12076240D02*
X13127531Y12038144D01*
X13127531Y12038144D02*
X13279912Y12038144D01*
X13279912Y12038144D02*
X13356102Y12076240D01*
X12289435Y12038144D02*
X12289435Y12457192D01*
X12289435Y12457192D02*
X12327530Y12533382D01*
X12327530Y12533382D02*
X12403721Y12571478D01*
X12403721Y12571478D02*
X12556102Y12571478D01*
X12556102Y12571478D02*
X12632292Y12533382D01*
X12289435Y12076240D02*
X12365626Y12038144D01*
X12365626Y12038144D02*
X12556102Y12038144D01*
X12556102Y12038144D02*
X12632292Y12076240D01*
X12632292Y12076240D02*
X12670388Y12152430D01*
X12670388Y12152430D02*
X12670388Y12228620D01*
X12670388Y12228620D02*
X12632292Y12304811D01*
X12632292Y12304811D02*
X12556102Y12342906D01*
X12556102Y12342906D02*
X12365626Y12342906D01*
X12365626Y12342906D02*
X12289435Y12381001D01*
X11565625Y12076240D02*
X11641816Y12038144D01*
X11641816Y12038144D02*
X11794197Y12038144D01*
X11794197Y12038144D02*
X11870387Y12076240D01*
X11870387Y12076240D02*
X11908482Y12114335D01*
X11908482Y12114335D02*
X11946578Y12190525D01*
X11946578Y12190525D02*
X11946578Y12419097D01*
X11946578Y12419097D02*
X11908482Y12495287D01*
X11908482Y12495287D02*
X11870387Y12533382D01*
X11870387Y12533382D02*
X11794197Y12571478D01*
X11794197Y12571478D02*
X11641816Y12571478D01*
X11641816Y12571478D02*
X11565625Y12533382D01*
X10918006Y12076240D02*
X10994197Y12038144D01*
X10994197Y12038144D02*
X11146578Y12038144D01*
X11146578Y12038144D02*
X11222768Y12076240D01*
X11222768Y12076240D02*
X11260864Y12152430D01*
X11260864Y12152430D02*
X11260864Y12457192D01*
X11260864Y12457192D02*
X11222768Y12533382D01*
X11222768Y12533382D02*
X11146578Y12571478D01*
X11146578Y12571478D02*
X10994197Y12571478D01*
X10994197Y12571478D02*
X10918006Y12533382D01*
X10918006Y12533382D02*
X10879911Y12457192D01*
X10879911Y12457192D02*
X10879911Y12381001D01*
X10879911Y12381001D02*
X11260864Y12304811D01*
X10537054Y12038144D02*
X10537054Y12571478D01*
X10537054Y12419097D02*
X10498959Y12495287D01*
X10498959Y12495287D02*
X10460864Y12533382D01*
X10460864Y12533382D02*
X10384673Y12571478D01*
X10384673Y12571478D02*
X10308483Y12571478D01*
X10232293Y11961954D02*
X9622769Y11961954D01*
X9089435Y12038144D02*
X9089435Y12457192D01*
X9089435Y12457192D02*
X9127530Y12533382D01*
X9127530Y12533382D02*
X9203721Y12571478D01*
X9203721Y12571478D02*
X9356102Y12571478D01*
X9356102Y12571478D02*
X9432292Y12533382D01*
X9089435Y12076240D02*
X9165626Y12038144D01*
X9165626Y12038144D02*
X9356102Y12038144D01*
X9356102Y12038144D02*
X9432292Y12076240D01*
X9432292Y12076240D02*
X9470388Y12152430D01*
X9470388Y12152430D02*
X9470388Y12228620D01*
X9470388Y12228620D02*
X9432292Y12304811D01*
X9432292Y12304811D02*
X9356102Y12342906D01*
X9356102Y12342906D02*
X9165626Y12342906D01*
X9165626Y12342906D02*
X9089435Y12381001D01*
X8365625Y12076240D02*
X8441816Y12038144D01*
X8441816Y12038144D02*
X8594197Y12038144D01*
X8594197Y12038144D02*
X8670387Y12076240D01*
X8670387Y12076240D02*
X8708482Y12114335D01*
X8708482Y12114335D02*
X8746578Y12190525D01*
X8746578Y12190525D02*
X8746578Y12419097D01*
X8746578Y12419097D02*
X8708482Y12495287D01*
X8708482Y12495287D02*
X8670387Y12533382D01*
X8670387Y12533382D02*
X8594197Y12571478D01*
X8594197Y12571478D02*
X8441816Y12571478D01*
X8441816Y12571478D02*
X8365625Y12533382D01*
X8137054Y12571478D02*
X7832292Y12571478D01*
X8022768Y12838144D02*
X8022768Y12152430D01*
X8022768Y12152430D02*
X7984673Y12076240D01*
X7984673Y12076240D02*
X7908483Y12038144D01*
X7908483Y12038144D02*
X7832292Y12038144D01*
X7565625Y12038144D02*
X7565625Y12571478D01*
X7565625Y12838144D02*
X7603721Y12800049D01*
X7603721Y12800049D02*
X7565625Y12761954D01*
X7565625Y12761954D02*
X7527530Y12800049D01*
X7527530Y12800049D02*
X7565625Y12838144D01*
X7565625Y12838144D02*
X7565625Y12761954D01*
X7260864Y12571478D02*
X7070388Y12038144D01*
X7070388Y12038144D02*
X6879911Y12571478D01*
X6232292Y12038144D02*
X6232292Y12457192D01*
X6232292Y12457192D02*
X6270387Y12533382D01*
X6270387Y12533382D02*
X6346578Y12571478D01*
X6346578Y12571478D02*
X6498959Y12571478D01*
X6498959Y12571478D02*
X6575149Y12533382D01*
X6232292Y12076240D02*
X6308483Y12038144D01*
X6308483Y12038144D02*
X6498959Y12038144D01*
X6498959Y12038144D02*
X6575149Y12076240D01*
X6575149Y12076240D02*
X6613245Y12152430D01*
X6613245Y12152430D02*
X6613245Y12228620D01*
X6613245Y12228620D02*
X6575149Y12304811D01*
X6575149Y12304811D02*
X6498959Y12342906D01*
X6498959Y12342906D02*
X6308483Y12342906D01*
X6308483Y12342906D02*
X6232292Y12381001D01*
X5965625Y12571478D02*
X5660863Y12571478D01*
X5851339Y12838144D02*
X5851339Y12152430D01*
X5851339Y12152430D02*
X5813244Y12076240D01*
X5813244Y12076240D02*
X5737054Y12038144D01*
X5737054Y12038144D02*
X5660863Y12038144D01*
X5394196Y12038144D02*
X5394196Y12571478D01*
X5394196Y12838144D02*
X5432292Y12800049D01*
X5432292Y12800049D02*
X5394196Y12761954D01*
X5394196Y12761954D02*
X5356101Y12800049D01*
X5356101Y12800049D02*
X5394196Y12838144D01*
X5394196Y12838144D02*
X5394196Y12761954D01*
X4898959Y12038144D02*
X4975149Y12076240D01*
X4975149Y12076240D02*
X5013244Y12114335D01*
X5013244Y12114335D02*
X5051340Y12190525D01*
X5051340Y12190525D02*
X5051340Y12419097D01*
X5051340Y12419097D02*
X5013244Y12495287D01*
X5013244Y12495287D02*
X4975149Y12533382D01*
X4975149Y12533382D02*
X4898959Y12571478D01*
X4898959Y12571478D02*
X4784673Y12571478D01*
X4784673Y12571478D02*
X4708482Y12533382D01*
X4708482Y12533382D02*
X4670387Y12495287D01*
X4670387Y12495287D02*
X4632292Y12419097D01*
X4632292Y12419097D02*
X4632292Y12190525D01*
X4632292Y12190525D02*
X4670387Y12114335D01*
X4670387Y12114335D02*
X4708482Y12076240D01*
X4708482Y12076240D02*
X4784673Y12038144D01*
X4784673Y12038144D02*
X4898959Y12038144D01*
X4289434Y12571478D02*
X4289434Y12038144D01*
X4289434Y12495287D02*
X4251339Y12533382D01*
X4251339Y12533382D02*
X4175149Y12571478D01*
X4175149Y12571478D02*
X4060863Y12571478D01*
X4060863Y12571478D02*
X3984672Y12533382D01*
X3984672Y12533382D02*
X3946577Y12457192D01*
X3946577Y12457192D02*
X3946577Y12038144D01*
X3756101Y11961954D02*
X3146577Y11961954D01*
X2956100Y12038144D02*
X2956100Y12571478D01*
X2956100Y12838144D02*
X2994196Y12800049D01*
X2994196Y12800049D02*
X2956100Y12761954D01*
X2956100Y12761954D02*
X2918005Y12800049D01*
X2918005Y12800049D02*
X2956100Y12838144D01*
X2956100Y12838144D02*
X2956100Y12761954D01*
X2575148Y12571478D02*
X2575148Y12038144D01*
X2575148Y12495287D02*
X2537053Y12533382D01*
X2537053Y12533382D02*
X2460863Y12571478D01*
X2460863Y12571478D02*
X2346577Y12571478D01*
X2346577Y12571478D02*
X2270386Y12533382D01*
X2270386Y12533382D02*
X2232291Y12457192D01*
X2232291Y12457192D02*
X2232291Y12038144D01*
X1965624Y12571478D02*
X1660862Y12571478D01*
X1851338Y12838144D02*
X1851338Y12152430D01*
X1851338Y12152430D02*
X1813243Y12076240D01*
X1813243Y12076240D02*
X1737053Y12038144D01*
X1737053Y12038144D02*
X1660862Y12038144D01*
X1089433Y12076240D02*
X1165624Y12038144D01*
X1165624Y12038144D02*
X1318005Y12038144D01*
X1318005Y12038144D02*
X1394195Y12076240D01*
X1394195Y12076240D02*
X1432291Y12152430D01*
X1432291Y12152430D02*
X1432291Y12457192D01*
X1432291Y12457192D02*
X1394195Y12533382D01*
X1394195Y12533382D02*
X1318005Y12571478D01*
X1318005Y12571478D02*
X1165624Y12571478D01*
X1165624Y12571478D02*
X1089433Y12533382D01*
X1089433Y12533382D02*
X1051338Y12457192D01*
X1051338Y12457192D02*
X1051338Y12381001D01*
X1051338Y12381001D02*
X1432291Y12304811D01*
X708481Y12038144D02*
X708481Y12571478D01*
X708481Y12419097D02*
X670386Y12495287D01*
X670386Y12495287D02*
X632291Y12533382D01*
X632291Y12533382D02*
X556100Y12571478D01*
X556100Y12571478D02*
X479910Y12571478D01*
X327529Y12571478D02*
X22767Y12571478D01*
X213243Y12038144D02*
X213243Y12723859D01*
X213243Y12723859D02*
X175148Y12800049D01*
X175148Y12800049D02*
X98958Y12838144D01*
X98958Y12838144D02*
X22767Y12838144D01*
X-586756Y12038144D02*
X-586756Y12457192D01*
X-586756Y12457192D02*
X-548661Y12533382D01*
X-548661Y12533382D02*
X-472470Y12571478D01*
X-472470Y12571478D02*
X-320089Y12571478D01*
X-320089Y12571478D02*
X-243899Y12533382D01*
X-586756Y12076240D02*
X-510565Y12038144D01*
X-510565Y12038144D02*
X-320089Y12038144D01*
X-320089Y12038144D02*
X-243899Y12076240D01*
X-243899Y12076240D02*
X-205803Y12152430D01*
X-205803Y12152430D02*
X-205803Y12228620D01*
X-205803Y12228620D02*
X-243899Y12304811D01*
X-243899Y12304811D02*
X-320089Y12342906D01*
X-320089Y12342906D02*
X-510565Y12342906D01*
X-510565Y12342906D02*
X-586756Y12381001D01*
X-1310566Y12076240D02*
X-1234375Y12038144D01*
X-1234375Y12038144D02*
X-1081994Y12038144D01*
X-1081994Y12038144D02*
X-1005804Y12076240D01*
X-1005804Y12076240D02*
X-967709Y12114335D01*
X-967709Y12114335D02*
X-929613Y12190525D01*
X-929613Y12190525D02*
X-929613Y12419097D01*
X-929613Y12419097D02*
X-967709Y12495287D01*
X-967709Y12495287D02*
X-1005804Y12533382D01*
X-1005804Y12533382D02*
X-1081994Y12571478D01*
X-1081994Y12571478D02*
X-1234375Y12571478D01*
X-1234375Y12571478D02*
X-1310566Y12533382D01*
X-1958185Y12076240D02*
X-1881994Y12038144D01*
X-1881994Y12038144D02*
X-1729613Y12038144D01*
X-1729613Y12038144D02*
X-1653423Y12076240D01*
X-1653423Y12076240D02*
X-1615327Y12152430D01*
X-1615327Y12152430D02*
X-1615327Y12457192D01*
X-1615327Y12457192D02*
X-1653423Y12533382D01*
X-1653423Y12533382D02*
X-1729613Y12571478D01*
X-1729613Y12571478D02*
X-1881994Y12571478D01*
X-1881994Y12571478D02*
X-1958185Y12533382D01*
X-1958185Y12533382D02*
X-1996280Y12457192D01*
X-1996280Y12457192D02*
X-1996280Y12381001D01*
X-1996280Y12381001D02*
X-1615327Y12304811D01*
X-2148661Y11961954D02*
X-2758184Y11961954D01*
X-2872470Y12571478D02*
X-3024851Y12038144D01*
X-3024851Y12038144D02*
X-3177232Y12419097D01*
X-3177232Y12419097D02*
X-3329613Y12038144D01*
X-3329613Y12038144D02*
X-3481994Y12571478D01*
X-4129613Y12038144D02*
X-4129613Y12457192D01*
X-4129613Y12457192D02*
X-4091518Y12533382D01*
X-4091518Y12533382D02*
X-4015327Y12571478D01*
X-4015327Y12571478D02*
X-3862946Y12571478D01*
X-3862946Y12571478D02*
X-3786756Y12533382D01*
X-4129613Y12076240D02*
X-4053422Y12038144D01*
X-4053422Y12038144D02*
X-3862946Y12038144D01*
X-3862946Y12038144D02*
X-3786756Y12076240D01*
X-3786756Y12076240D02*
X-3748660Y12152430D01*
X-3748660Y12152430D02*
X-3748660Y12228620D01*
X-3748660Y12228620D02*
X-3786756Y12304811D01*
X-3786756Y12304811D02*
X-3862946Y12342906D01*
X-3862946Y12342906D02*
X-4053422Y12342906D01*
X-4053422Y12342906D02*
X-4129613Y12381001D01*
X-4510566Y12038144D02*
X-4510566Y12838144D01*
X-4586756Y12342906D02*
X-4815328Y12038144D01*
X-4815328Y12571478D02*
X-4510566Y12266716D01*
X-5462947Y12076240D02*
X-5386756Y12038144D01*
X-5386756Y12038144D02*
X-5234375Y12038144D01*
X-5234375Y12038144D02*
X-5158185Y12076240D01*
X-5158185Y12076240D02*
X-5120089Y12152430D01*
X-5120089Y12152430D02*
X-5120089Y12457192D01*
X-5120089Y12457192D02*
X-5158185Y12533382D01*
X-5158185Y12533382D02*
X-5234375Y12571478D01*
X-5234375Y12571478D02*
X-5386756Y12571478D01*
X-5386756Y12571478D02*
X-5462947Y12533382D01*
X-5462947Y12533382D02*
X-5501042Y12457192D01*
X-5501042Y12457192D02*
X-5501042Y12381001D01*
X-5501042Y12381001D02*
X-5120089Y12304811D01*
X-6186756Y12571478D02*
X-6186756Y12038144D01*
X-5843899Y12571478D02*
X-5843899Y12152430D01*
X-5843899Y12152430D02*
X-5881994Y12076240D01*
X-5881994Y12076240D02*
X-5958184Y12038144D01*
X-5958184Y12038144D02*
X-6072470Y12038144D01*
X-6072470Y12038144D02*
X-6148661Y12076240D01*
X-6148661Y12076240D02*
X-6186756Y12114335D01*
X-6567709Y12571478D02*
X-6567709Y11771478D01*
X-6567709Y12533382D02*
X-6643899Y12571478D01*
X-6643899Y12571478D02*
X-6796280Y12571478D01*
X-6796280Y12571478D02*
X-6872471Y12533382D01*
X-6872471Y12533382D02*
X-6910566Y12495287D01*
X-6910566Y12495287D02*
X-6948661Y12419097D01*
X-6948661Y12419097D02*
X-6948661Y12190525D01*
X-6948661Y12190525D02*
X-6910566Y12114335D01*
X-6910566Y12114335D02*
X-6872471Y12076240D01*
X-6872471Y12076240D02*
X-6796280Y12038144D01*
X-6796280Y12038144D02*
X-6643899Y12038144D01*
X-6643899Y12038144D02*
X-6567709Y12076240D01*
X-7101043Y11961954D02*
X-7710566Y11961954D01*
X-7901043Y12038144D02*
X-7901043Y12838144D01*
X-7901043Y12533382D02*
X-7977233Y12571478D01*
X-7977233Y12571478D02*
X-8129614Y12571478D01*
X-8129614Y12571478D02*
X-8205805Y12533382D01*
X-8205805Y12533382D02*
X-8243900Y12495287D01*
X-8243900Y12495287D02*
X-8281995Y12419097D01*
X-8281995Y12419097D02*
X-8281995Y12190525D01*
X-8281995Y12190525D02*
X-8243900Y12114335D01*
X-8243900Y12114335D02*
X-8205805Y12076240D01*
X-8205805Y12076240D02*
X-8129614Y12038144D01*
X-8129614Y12038144D02*
X-7977233Y12038144D01*
X-7977233Y12038144D02*
X-7901043Y12076240D01*
X-8739138Y12038144D02*
X-8662948Y12076240D01*
X-8662948Y12076240D02*
X-8624853Y12114335D01*
X-8624853Y12114335D02*
X-8586757Y12190525D01*
X-8586757Y12190525D02*
X-8586757Y12419097D01*
X-8586757Y12419097D02*
X-8624853Y12495287D01*
X-8624853Y12495287D02*
X-8662948Y12533382D01*
X-8662948Y12533382D02*
X-8739138Y12571478D01*
X-8739138Y12571478D02*
X-8853424Y12571478D01*
X-8853424Y12571478D02*
X-8929615Y12533382D01*
X-8929615Y12533382D02*
X-8967710Y12495287D01*
X-8967710Y12495287D02*
X-9005805Y12419097D01*
X-9005805Y12419097D02*
X-9005805Y12190525D01*
X-9005805Y12190525D02*
X-8967710Y12114335D01*
X-8967710Y12114335D02*
X-8929615Y12076240D01*
X-8929615Y12076240D02*
X-8853424Y12038144D01*
X-8853424Y12038144D02*
X-8739138Y12038144D01*
X-9691520Y12038144D02*
X-9691520Y12457192D01*
X-9691520Y12457192D02*
X-9653425Y12533382D01*
X-9653425Y12533382D02*
X-9577234Y12571478D01*
X-9577234Y12571478D02*
X-9424853Y12571478D01*
X-9424853Y12571478D02*
X-9348663Y12533382D01*
X-9691520Y12076240D02*
X-9615329Y12038144D01*
X-9615329Y12038144D02*
X-9424853Y12038144D01*
X-9424853Y12038144D02*
X-9348663Y12076240D01*
X-9348663Y12076240D02*
X-9310567Y12152430D01*
X-9310567Y12152430D02*
X-9310567Y12228620D01*
X-9310567Y12228620D02*
X-9348663Y12304811D01*
X-9348663Y12304811D02*
X-9424853Y12342906D01*
X-9424853Y12342906D02*
X-9615329Y12342906D01*
X-9615329Y12342906D02*
X-9691520Y12381001D01*
X-10072473Y12038144D02*
X-10072473Y12571478D01*
X-10072473Y12419097D02*
X-10110568Y12495287D01*
X-10110568Y12495287D02*
X-10148663Y12533382D01*
X-10148663Y12533382D02*
X-10224854Y12571478D01*
X-10224854Y12571478D02*
X-10301044Y12571478D01*
X-10910568Y12038144D02*
X-10910568Y12838144D01*
X-10910568Y12076240D02*
X-10834377Y12038144D01*
X-10834377Y12038144D02*
X-10681996Y12038144D01*
X-10681996Y12038144D02*
X-10605806Y12076240D01*
X-10605806Y12076240D02*
X-10567711Y12114335D01*
X-10567711Y12114335D02*
X-10529615Y12190525D01*
X-10529615Y12190525D02*
X-10529615Y12419097D01*
X-10529615Y12419097D02*
X-10567711Y12495287D01*
X-10567711Y12495287D02*
X-10605806Y12533382D01*
X-10605806Y12533382D02*
X-10681996Y12571478D01*
X-10681996Y12571478D02*
X-10834377Y12571478D01*
X-10834377Y12571478D02*
X-10910568Y12533382D01*
X-12243902Y12076240D02*
X-12167711Y12038144D01*
X-12167711Y12038144D02*
X-12015330Y12038144D01*
X-12015330Y12038144D02*
X-11939140Y12076240D01*
X-11939140Y12076240D02*
X-11901045Y12114335D01*
X-11901045Y12114335D02*
X-11862949Y12190525D01*
X-11862949Y12190525D02*
X-11862949Y12419097D01*
X-11862949Y12419097D02*
X-11901045Y12495287D01*
X-11901045Y12495287D02*
X-11939140Y12533382D01*
X-11939140Y12533382D02*
X-12015330Y12571478D01*
X-12015330Y12571478D02*
X-12167711Y12571478D01*
X-12167711Y12571478D02*
X-12243902Y12533382D01*
X-12929616Y12571478D02*
X-12929616Y12038144D01*
X-12586759Y12571478D02*
X-12586759Y12152430D01*
X-12586759Y12152430D02*
X-12624854Y12076240D01*
X-12624854Y12076240D02*
X-12701044Y12038144D01*
X-12701044Y12038144D02*
X-12815330Y12038144D01*
X-12815330Y12038144D02*
X-12891521Y12076240D01*
X-12891521Y12076240D02*
X-12929616Y12114335D01*
X-13196283Y12571478D02*
X-13501045Y12571478D01*
X-13310569Y12838144D02*
X-13310569Y12152430D01*
X-13310569Y12152430D02*
X-13348664Y12076240D01*
X-13348664Y12076240D02*
X-13424854Y12038144D01*
X-13424854Y12038144D02*
X-13501045Y12038144D01*
X-13881997Y12038144D02*
X-13805807Y12076240D01*
X-13805807Y12076240D02*
X-13767712Y12114335D01*
X-13767712Y12114335D02*
X-13729616Y12190525D01*
X-13729616Y12190525D02*
X-13729616Y12419097D01*
X-13729616Y12419097D02*
X-13767712Y12495287D01*
X-13767712Y12495287D02*
X-13805807Y12533382D01*
X-13805807Y12533382D02*
X-13881997Y12571478D01*
X-13881997Y12571478D02*
X-13996283Y12571478D01*
X-13996283Y12571478D02*
X-14072474Y12533382D01*
X-14072474Y12533382D02*
X-14110569Y12495287D01*
X-14110569Y12495287D02*
X-14148664Y12419097D01*
X-14148664Y12419097D02*
X-14148664Y12190525D01*
X-14148664Y12190525D02*
X-14110569Y12114335D01*
X-14110569Y12114335D02*
X-14072474Y12076240D01*
X-14072474Y12076240D02*
X-13996283Y12038144D01*
X-13996283Y12038144D02*
X-13881997Y12038144D01*
X-14834379Y12571478D02*
X-14834379Y12038144D01*
X-14491522Y12571478D02*
X-14491522Y12152430D01*
X-14491522Y12152430D02*
X-14529617Y12076240D01*
X-14529617Y12076240D02*
X-14605807Y12038144D01*
X-14605807Y12038144D02*
X-14720093Y12038144D01*
X-14720093Y12038144D02*
X-14796284Y12076240D01*
X-14796284Y12076240D02*
X-14834379Y12114335D01*
X-15101046Y12571478D02*
X-15405808Y12571478D01*
X-15215332Y12838144D02*
X-15215332Y12152430D01*
X-15215332Y12152430D02*
X-15253427Y12076240D01*
X-15253427Y12076240D02*
X-15329617Y12038144D01*
X-15329617Y12038144D02*
X-15405808Y12038144D01*
D11*
X-6935180Y-4765952D02*
X-7411371Y-4432619D01*
X-6935180Y-4194524D02*
X-7935180Y-4194524D01*
X-7935180Y-4194524D02*
X-7935180Y-4575476D01*
X-7935180Y-4575476D02*
X-7887561Y-4670714D01*
X-7887561Y-4670714D02*
X-7839942Y-4718333D01*
X-7839942Y-4718333D02*
X-7744704Y-4765952D01*
X-7744704Y-4765952D02*
X-7601847Y-4765952D01*
X-7601847Y-4765952D02*
X-7506609Y-4718333D01*
X-7506609Y-4718333D02*
X-7458990Y-4670714D01*
X-7458990Y-4670714D02*
X-7411371Y-4575476D01*
X-7411371Y-4575476D02*
X-7411371Y-4194524D01*
X-6839942Y-4956429D02*
X-6839942Y-5718333D01*
X-6935180Y-5956429D02*
X-7935180Y-5956429D01*
X-6935180Y-6432619D02*
X-7935180Y-6432619D01*
X-7935180Y-6432619D02*
X-7220895Y-6765952D01*
X-7220895Y-6765952D02*
X-7935180Y-7099285D01*
X-7935180Y-7099285D02*
X-6935180Y-7099285D01*
X-7935180Y-7575476D02*
X-7125657Y-7575476D01*
X-7125657Y-7575476D02*
X-7030419Y-7623095D01*
X-7030419Y-7623095D02*
X-6982800Y-7670714D01*
X-6982800Y-7670714D02*
X-6935180Y-7765952D01*
X-6935180Y-7765952D02*
X-6935180Y-7956428D01*
X-6935180Y-7956428D02*
X-6982800Y-8051666D01*
X-6982800Y-8051666D02*
X-7030419Y-8099285D01*
X-7030419Y-8099285D02*
X-7125657Y-8146904D01*
X-7125657Y-8146904D02*
X-7935180Y-8146904D01*
X-7839942Y-8575476D02*
X-7887561Y-8623095D01*
X-7887561Y-8623095D02*
X-7935180Y-8718333D01*
X-7935180Y-8718333D02*
X-7935180Y-8956428D01*
X-7935180Y-8956428D02*
X-7887561Y-9051666D01*
X-7887561Y-9051666D02*
X-7839942Y-9099285D01*
X-7839942Y-9099285D02*
X-7744704Y-9146904D01*
X-7744704Y-9146904D02*
X-7649466Y-9146904D01*
X-7649466Y-9146904D02*
X-7506609Y-9099285D01*
X-7506609Y-9099285D02*
X-6935180Y-8527857D01*
X-6935180Y-8527857D02*
X-6935180Y-9146904D01*
X-6839942Y-9337381D02*
X-6839942Y-10099285D01*
X-6982800Y-10289762D02*
X-6935180Y-10432619D01*
X-6935180Y-10432619D02*
X-6935180Y-10670714D01*
X-6935180Y-10670714D02*
X-6982800Y-10765952D01*
X-6982800Y-10765952D02*
X-7030419Y-10813571D01*
X-7030419Y-10813571D02*
X-7125657Y-10861190D01*
X-7125657Y-10861190D02*
X-7220895Y-10861190D01*
X-7220895Y-10861190D02*
X-7316133Y-10813571D01*
X-7316133Y-10813571D02*
X-7363752Y-10765952D01*
X-7363752Y-10765952D02*
X-7411371Y-10670714D01*
X-7411371Y-10670714D02*
X-7458990Y-10480238D01*
X-7458990Y-10480238D02*
X-7506609Y-10385000D01*
X-7506609Y-10385000D02*
X-7554228Y-10337381D01*
X-7554228Y-10337381D02*
X-7649466Y-10289762D01*
X-7649466Y-10289762D02*
X-7744704Y-10289762D01*
X-7744704Y-10289762D02*
X-7839942Y-10337381D01*
X-7839942Y-10337381D02*
X-7887561Y-10385000D01*
X-7887561Y-10385000D02*
X-7935180Y-10480238D01*
X-7935180Y-10480238D02*
X-7935180Y-10718333D01*
X-7935180Y-10718333D02*
X-7887561Y-10861190D01*
X-7030419Y-11861190D02*
X-6982800Y-11813571D01*
X-6982800Y-11813571D02*
X-6935180Y-11670714D01*
X-6935180Y-11670714D02*
X-6935180Y-11575476D01*
X-6935180Y-11575476D02*
X-6982800Y-11432619D01*
X-6982800Y-11432619D02*
X-7078038Y-11337381D01*
X-7078038Y-11337381D02*
X-7173276Y-11289762D01*
X-7173276Y-11289762D02*
X-7363752Y-11242143D01*
X-7363752Y-11242143D02*
X-7506609Y-11242143D01*
X-7506609Y-11242143D02*
X-7697085Y-11289762D01*
X-7697085Y-11289762D02*
X-7792323Y-11337381D01*
X-7792323Y-11337381D02*
X-7887561Y-11432619D01*
X-7887561Y-11432619D02*
X-7935180Y-11575476D01*
X-7935180Y-11575476D02*
X-7935180Y-11670714D01*
X-7935180Y-11670714D02*
X-7887561Y-11813571D01*
X-7887561Y-11813571D02*
X-7839942Y-11861190D01*
X-7935180Y-12194524D02*
X-6935180Y-12861190D01*
X-7935180Y-12861190D02*
X-6935180Y-12194524D01*
X-6839942Y-13004048D02*
X-6839942Y-13765952D01*
X-6935180Y-14004048D02*
X-7935180Y-14004048D01*
X-7935180Y-14004048D02*
X-7935180Y-14385000D01*
X-7935180Y-14385000D02*
X-7887561Y-14480238D01*
X-7887561Y-14480238D02*
X-7839942Y-14527857D01*
X-7839942Y-14527857D02*
X-7744704Y-14575476D01*
X-7744704Y-14575476D02*
X-7601847Y-14575476D01*
X-7601847Y-14575476D02*
X-7506609Y-14527857D01*
X-7506609Y-14527857D02*
X-7458990Y-14480238D01*
X-7458990Y-14480238D02*
X-7411371Y-14385000D01*
X-7411371Y-14385000D02*
X-7411371Y-14004048D01*
X-7935180Y-15004048D02*
X-7125657Y-15004048D01*
X-7125657Y-15004048D02*
X-7030419Y-15051667D01*
X-7030419Y-15051667D02*
X-6982800Y-15099286D01*
X-6982800Y-15099286D02*
X-6935180Y-15194524D01*
X-6935180Y-15194524D02*
X-6935180Y-15385000D01*
X-6935180Y-15385000D02*
X-6982800Y-15480238D01*
X-6982800Y-15480238D02*
X-7030419Y-15527857D01*
X-7030419Y-15527857D02*
X-7125657Y-15575476D01*
X-7125657Y-15575476D02*
X-7935180Y-15575476D01*
X6584819Y-8139999D02*
X6108628Y-7806666D01*
X6584819Y-7568571D02*
X5584819Y-7568571D01*
X5584819Y-7568571D02*
X5584819Y-7949523D01*
X5584819Y-7949523D02*
X5632438Y-8044761D01*
X5632438Y-8044761D02*
X5680057Y-8092380D01*
X5680057Y-8092380D02*
X5775295Y-8139999D01*
X5775295Y-8139999D02*
X5918152Y-8139999D01*
X5918152Y-8139999D02*
X6013390Y-8092380D01*
X6013390Y-8092380D02*
X6061009Y-8044761D01*
X6061009Y-8044761D02*
X6108628Y-7949523D01*
X6108628Y-7949523D02*
X6108628Y-7568571D01*
X6584819Y-8568571D02*
X5584819Y-8568571D01*
X6061009Y-8568571D02*
X6061009Y-9139999D01*
X6584819Y-9139999D02*
X5584819Y-9139999D01*
X5584819Y-9806666D02*
X5584819Y-9997142D01*
X5584819Y-9997142D02*
X5632438Y-10092380D01*
X5632438Y-10092380D02*
X5727676Y-10187618D01*
X5727676Y-10187618D02*
X5918152Y-10235237D01*
X5918152Y-10235237D02*
X6251485Y-10235237D01*
X6251485Y-10235237D02*
X6441961Y-10187618D01*
X6441961Y-10187618D02*
X6537200Y-10092380D01*
X6537200Y-10092380D02*
X6584819Y-9997142D01*
X6584819Y-9997142D02*
X6584819Y-9806666D01*
X6584819Y-9806666D02*
X6537200Y-9711428D01*
X6537200Y-9711428D02*
X6441961Y-9616190D01*
X6441961Y-9616190D02*
X6251485Y-9568571D01*
X6251485Y-9568571D02*
X5918152Y-9568571D01*
X5918152Y-9568571D02*
X5727676Y-9616190D01*
X5727676Y-9616190D02*
X5632438Y-9711428D01*
X5632438Y-9711428D02*
X5584819Y-9806666D01*
X6584819Y-11139999D02*
X6584819Y-10663809D01*
X6584819Y-10663809D02*
X5584819Y-10663809D01*
X6584819Y-11473333D02*
X5584819Y-11473333D01*
X5584819Y-11473333D02*
X5584819Y-11711428D01*
X5584819Y-11711428D02*
X5632438Y-11854285D01*
X5632438Y-11854285D02*
X5727676Y-11949523D01*
X5727676Y-11949523D02*
X5822914Y-11997142D01*
X5822914Y-11997142D02*
X6013390Y-12044761D01*
X6013390Y-12044761D02*
X6156247Y-12044761D01*
X6156247Y-12044761D02*
X6346723Y-11997142D01*
X6346723Y-11997142D02*
X6441961Y-11949523D01*
X6441961Y-11949523D02*
X6537200Y-11854285D01*
X6537200Y-11854285D02*
X6584819Y-11711428D01*
X6584819Y-11711428D02*
X6584819Y-11473333D01*
X5680057Y-12425714D02*
X5632438Y-12473333D01*
X5632438Y-12473333D02*
X5584819Y-12568571D01*
X5584819Y-12568571D02*
X5584819Y-12806666D01*
X5584819Y-12806666D02*
X5632438Y-12901904D01*
X5632438Y-12901904D02*
X5680057Y-12949523D01*
X5680057Y-12949523D02*
X5775295Y-12997142D01*
X5775295Y-12997142D02*
X5870533Y-12997142D01*
X5870533Y-12997142D02*
X6013390Y-12949523D01*
X6013390Y-12949523D02*
X6584819Y-12378095D01*
X6584819Y-12378095D02*
X6584819Y-12997142D01*
X6680057Y-13187619D02*
X6680057Y-13949523D01*
X5632438Y-14711428D02*
X5584819Y-14616190D01*
X5584819Y-14616190D02*
X5584819Y-14473333D01*
X5584819Y-14473333D02*
X5632438Y-14330476D01*
X5632438Y-14330476D02*
X5727676Y-14235238D01*
X5727676Y-14235238D02*
X5822914Y-14187619D01*
X5822914Y-14187619D02*
X6013390Y-14140000D01*
X6013390Y-14140000D02*
X6156247Y-14140000D01*
X6156247Y-14140000D02*
X6346723Y-14187619D01*
X6346723Y-14187619D02*
X6441961Y-14235238D01*
X6441961Y-14235238D02*
X6537200Y-14330476D01*
X6537200Y-14330476D02*
X6584819Y-14473333D01*
X6584819Y-14473333D02*
X6584819Y-14568571D01*
X6584819Y-14568571D02*
X6537200Y-14711428D01*
X6537200Y-14711428D02*
X6489580Y-14759047D01*
X6489580Y-14759047D02*
X6156247Y-14759047D01*
X6156247Y-14759047D02*
X6156247Y-14568571D01*
X1309580Y15118571D02*
X1357200Y15166190D01*
X1357200Y15166190D02*
X1404819Y15309047D01*
X1404819Y15309047D02*
X1404819Y15404285D01*
X1404819Y15404285D02*
X1357200Y15547142D01*
X1357200Y15547142D02*
X1261961Y15642380D01*
X1261961Y15642380D02*
X1166723Y15689999D01*
X1166723Y15689999D02*
X976247Y15737618D01*
X976247Y15737618D02*
X833390Y15737618D01*
X833390Y15737618D02*
X642914Y15689999D01*
X642914Y15689999D02*
X547676Y15642380D01*
X547676Y15642380D02*
X452438Y15547142D01*
X452438Y15547142D02*
X404819Y15404285D01*
X404819Y15404285D02*
X404819Y15309047D01*
X404819Y15309047D02*
X452438Y15166190D01*
X452438Y15166190D02*
X500057Y15118571D01*
X1500057Y14928095D02*
X1500057Y14166190D01*
X1404819Y13928094D02*
X404819Y13928094D01*
X404819Y13928094D02*
X1119104Y13594761D01*
X1119104Y13594761D02*
X404819Y13261428D01*
X404819Y13261428D02*
X1404819Y13261428D01*
X1119104Y12832856D02*
X1119104Y12356666D01*
X1404819Y12928094D02*
X404819Y12594761D01*
X404819Y12594761D02*
X1404819Y12261428D01*
X452438Y11404285D02*
X404819Y11499523D01*
X404819Y11499523D02*
X404819Y11642380D01*
X404819Y11642380D02*
X452438Y11785237D01*
X452438Y11785237D02*
X547676Y11880475D01*
X547676Y11880475D02*
X642914Y11928094D01*
X642914Y11928094D02*
X833390Y11975713D01*
X833390Y11975713D02*
X976247Y11975713D01*
X976247Y11975713D02*
X1166723Y11928094D01*
X1166723Y11928094D02*
X1261961Y11880475D01*
X1261961Y11880475D02*
X1357200Y11785237D01*
X1357200Y11785237D02*
X1404819Y11642380D01*
X1404819Y11642380D02*
X1404819Y11547142D01*
X1404819Y11547142D02*
X1357200Y11404285D01*
X1357200Y11404285D02*
X1309580Y11356666D01*
X1309580Y11356666D02*
X976247Y11356666D01*
X976247Y11356666D02*
X976247Y11547142D01*
X1500057Y11166190D02*
X1500057Y10404285D01*
X1309580Y9594761D02*
X1357200Y9642380D01*
X1357200Y9642380D02*
X1404819Y9785237D01*
X1404819Y9785237D02*
X1404819Y9880475D01*
X1404819Y9880475D02*
X1357200Y10023332D01*
X1357200Y10023332D02*
X1261961Y10118570D01*
X1261961Y10118570D02*
X1166723Y10166189D01*
X1166723Y10166189D02*
X976247Y10213808D01*
X976247Y10213808D02*
X833390Y10213808D01*
X833390Y10213808D02*
X642914Y10166189D01*
X642914Y10166189D02*
X547676Y10118570D01*
X547676Y10118570D02*
X452438Y10023332D01*
X452438Y10023332D02*
X404819Y9880475D01*
X404819Y9880475D02*
X404819Y9785237D01*
X404819Y9785237D02*
X452438Y9642380D01*
X452438Y9642380D02*
X500057Y9594761D01*
X1404819Y8642380D02*
X1404819Y9213808D01*
X1404819Y8928094D02*
X404819Y8928094D01*
X404819Y8928094D02*
X547676Y9023332D01*
X547676Y9023332D02*
X642914Y9118570D01*
X642914Y9118570D02*
X690533Y9213808D01*
X-9935180Y129047D02*
X-10411371Y462380D01*
X-9935180Y700475D02*
X-10935180Y700475D01*
X-10935180Y700475D02*
X-10935180Y319523D01*
X-10935180Y319523D02*
X-10887561Y224285D01*
X-10887561Y224285D02*
X-10839942Y176666D01*
X-10839942Y176666D02*
X-10744704Y129047D01*
X-10744704Y129047D02*
X-10601847Y129047D01*
X-10601847Y129047D02*
X-10506609Y176666D01*
X-10506609Y176666D02*
X-10458990Y224285D01*
X-10458990Y224285D02*
X-10411371Y319523D01*
X-10411371Y319523D02*
X-10411371Y700475D01*
X-9839942Y-61429D02*
X-9839942Y-823333D01*
X-9935180Y-1061429D02*
X-10935180Y-1061429D01*
X-9935180Y-1537619D02*
X-10935180Y-1537619D01*
X-10935180Y-1537619D02*
X-10220895Y-1870952D01*
X-10220895Y-1870952D02*
X-10935180Y-2204285D01*
X-10935180Y-2204285D02*
X-9935180Y-2204285D01*
X-10935180Y-2680476D02*
X-10125657Y-2680476D01*
X-10125657Y-2680476D02*
X-10030419Y-2728095D01*
X-10030419Y-2728095D02*
X-9982800Y-2775714D01*
X-9982800Y-2775714D02*
X-9935180Y-2870952D01*
X-9935180Y-2870952D02*
X-9935180Y-3061428D01*
X-9935180Y-3061428D02*
X-9982800Y-3156666D01*
X-9982800Y-3156666D02*
X-10030419Y-3204285D01*
X-10030419Y-3204285D02*
X-10125657Y-3251904D01*
X-10125657Y-3251904D02*
X-10935180Y-3251904D01*
X-9935180Y-4251904D02*
X-9935180Y-3680476D01*
X-9935180Y-3966190D02*
X-10935180Y-3966190D01*
X-10935180Y-3966190D02*
X-10792323Y-3870952D01*
X-10792323Y-3870952D02*
X-10697085Y-3775714D01*
X-10697085Y-3775714D02*
X-10649466Y-3680476D01*
X-9839942Y-4442381D02*
X-9839942Y-5204285D01*
X-9982800Y-5394762D02*
X-9935180Y-5537619D01*
X-9935180Y-5537619D02*
X-9935180Y-5775714D01*
X-9935180Y-5775714D02*
X-9982800Y-5870952D01*
X-9982800Y-5870952D02*
X-10030419Y-5918571D01*
X-10030419Y-5918571D02*
X-10125657Y-5966190D01*
X-10125657Y-5966190D02*
X-10220895Y-5966190D01*
X-10220895Y-5966190D02*
X-10316133Y-5918571D01*
X-10316133Y-5918571D02*
X-10363752Y-5870952D01*
X-10363752Y-5870952D02*
X-10411371Y-5775714D01*
X-10411371Y-5775714D02*
X-10458990Y-5585238D01*
X-10458990Y-5585238D02*
X-10506609Y-5490000D01*
X-10506609Y-5490000D02*
X-10554228Y-5442381D01*
X-10554228Y-5442381D02*
X-10649466Y-5394762D01*
X-10649466Y-5394762D02*
X-10744704Y-5394762D01*
X-10744704Y-5394762D02*
X-10839942Y-5442381D01*
X-10839942Y-5442381D02*
X-10887561Y-5490000D01*
X-10887561Y-5490000D02*
X-10935180Y-5585238D01*
X-10935180Y-5585238D02*
X-10935180Y-5823333D01*
X-10935180Y-5823333D02*
X-10887561Y-5966190D01*
X-10030419Y-6966190D02*
X-9982800Y-6918571D01*
X-9982800Y-6918571D02*
X-9935180Y-6775714D01*
X-9935180Y-6775714D02*
X-9935180Y-6680476D01*
X-9935180Y-6680476D02*
X-9982800Y-6537619D01*
X-9982800Y-6537619D02*
X-10078038Y-6442381D01*
X-10078038Y-6442381D02*
X-10173276Y-6394762D01*
X-10173276Y-6394762D02*
X-10363752Y-6347143D01*
X-10363752Y-6347143D02*
X-10506609Y-6347143D01*
X-10506609Y-6347143D02*
X-10697085Y-6394762D01*
X-10697085Y-6394762D02*
X-10792323Y-6442381D01*
X-10792323Y-6442381D02*
X-10887561Y-6537619D01*
X-10887561Y-6537619D02*
X-10935180Y-6680476D01*
X-10935180Y-6680476D02*
X-10935180Y-6775714D01*
X-10935180Y-6775714D02*
X-10887561Y-6918571D01*
X-10887561Y-6918571D02*
X-10839942Y-6966190D01*
X-10935180Y-7299524D02*
X-9935180Y-7966190D01*
X-10935180Y-7966190D02*
X-9935180Y-7299524D01*
X-9839942Y-8109048D02*
X-9839942Y-8870952D01*
X-9935180Y-9109048D02*
X-10935180Y-9109048D01*
X-10935180Y-9109048D02*
X-10935180Y-9490000D01*
X-10935180Y-9490000D02*
X-10887561Y-9585238D01*
X-10887561Y-9585238D02*
X-10839942Y-9632857D01*
X-10839942Y-9632857D02*
X-10744704Y-9680476D01*
X-10744704Y-9680476D02*
X-10601847Y-9680476D01*
X-10601847Y-9680476D02*
X-10506609Y-9632857D01*
X-10506609Y-9632857D02*
X-10458990Y-9585238D01*
X-10458990Y-9585238D02*
X-10411371Y-9490000D01*
X-10411371Y-9490000D02*
X-10411371Y-9109048D01*
X-10935180Y-10109048D02*
X-10125657Y-10109048D01*
X-10125657Y-10109048D02*
X-10030419Y-10156667D01*
X-10030419Y-10156667D02*
X-9982800Y-10204286D01*
X-9982800Y-10204286D02*
X-9935180Y-10299524D01*
X-9935180Y-10299524D02*
X-9935180Y-10490000D01*
X-9935180Y-10490000D02*
X-9982800Y-10585238D01*
X-9982800Y-10585238D02*
X-10030419Y-10632857D01*
X-10030419Y-10632857D02*
X-10125657Y-10680476D01*
X-10125657Y-10680476D02*
X-10935180Y-10680476D01*
X-3835952Y-7794819D02*
X-3502619Y-7318628D01*
X-3264524Y-7794819D02*
X-3264524Y-6794819D01*
X-3264524Y-6794819D02*
X-3645476Y-6794819D01*
X-3645476Y-6794819D02*
X-3740714Y-6842438D01*
X-3740714Y-6842438D02*
X-3788333Y-6890057D01*
X-3788333Y-6890057D02*
X-3835952Y-6985295D01*
X-3835952Y-6985295D02*
X-3835952Y-7128152D01*
X-3835952Y-7128152D02*
X-3788333Y-7223390D01*
X-3788333Y-7223390D02*
X-3740714Y-7271009D01*
X-3740714Y-7271009D02*
X-3645476Y-7318628D01*
X-3645476Y-7318628D02*
X-3264524Y-7318628D01*
X-4026429Y-7890057D02*
X-4788333Y-7890057D01*
X-5026429Y-7794819D02*
X-5026429Y-6794819D01*
X-5502619Y-7794819D02*
X-5502619Y-6794819D01*
X-5502619Y-6794819D02*
X-5835952Y-7509104D01*
X-5835952Y-7509104D02*
X-6169285Y-6794819D01*
X-6169285Y-6794819D02*
X-6169285Y-7794819D01*
X-6645476Y-6794819D02*
X-6645476Y-7604342D01*
X-6645476Y-7604342D02*
X-6693095Y-7699580D01*
X-6693095Y-7699580D02*
X-6740714Y-7747200D01*
X-6740714Y-7747200D02*
X-6835952Y-7794819D01*
X-6835952Y-7794819D02*
X-7026428Y-7794819D01*
X-7026428Y-7794819D02*
X-7121666Y-7747200D01*
X-7121666Y-7747200D02*
X-7169285Y-7699580D01*
X-7169285Y-7699580D02*
X-7216904Y-7604342D01*
X-7216904Y-7604342D02*
X-7216904Y-6794819D01*
X-8216904Y-7794819D02*
X-7645476Y-7794819D01*
X-7931190Y-7794819D02*
X-7931190Y-6794819D01*
X-7931190Y-6794819D02*
X-7835952Y-6937676D01*
X-7835952Y-6937676D02*
X-7740714Y-7032914D01*
X-7740714Y-7032914D02*
X-7645476Y-7080533D01*
X-8407381Y-7890057D02*
X-9169285Y-7890057D01*
X-9359762Y-7747200D02*
X-9502619Y-7794819D01*
X-9502619Y-7794819D02*
X-9740714Y-7794819D01*
X-9740714Y-7794819D02*
X-9835952Y-7747200D01*
X-9835952Y-7747200D02*
X-9883571Y-7699580D01*
X-9883571Y-7699580D02*
X-9931190Y-7604342D01*
X-9931190Y-7604342D02*
X-9931190Y-7509104D01*
X-9931190Y-7509104D02*
X-9883571Y-7413866D01*
X-9883571Y-7413866D02*
X-9835952Y-7366247D01*
X-9835952Y-7366247D02*
X-9740714Y-7318628D01*
X-9740714Y-7318628D02*
X-9550238Y-7271009D01*
X-9550238Y-7271009D02*
X-9455000Y-7223390D01*
X-9455000Y-7223390D02*
X-9407381Y-7175771D01*
X-9407381Y-7175771D02*
X-9359762Y-7080533D01*
X-9359762Y-7080533D02*
X-9359762Y-6985295D01*
X-9359762Y-6985295D02*
X-9407381Y-6890057D01*
X-9407381Y-6890057D02*
X-9455000Y-6842438D01*
X-9455000Y-6842438D02*
X-9550238Y-6794819D01*
X-9550238Y-6794819D02*
X-9788333Y-6794819D01*
X-9788333Y-6794819D02*
X-9931190Y-6842438D01*
X-10359762Y-7794819D02*
X-10359762Y-6794819D01*
X-10359762Y-6794819D02*
X-10597857Y-6794819D01*
X-10597857Y-6794819D02*
X-10740714Y-6842438D01*
X-10740714Y-6842438D02*
X-10835952Y-6937676D01*
X-10835952Y-6937676D02*
X-10883571Y-7032914D01*
X-10883571Y-7032914D02*
X-10931190Y-7223390D01*
X-10931190Y-7223390D02*
X-10931190Y-7366247D01*
X-10931190Y-7366247D02*
X-10883571Y-7556723D01*
X-10883571Y-7556723D02*
X-10835952Y-7651961D01*
X-10835952Y-7651961D02*
X-10740714Y-7747200D01*
X-10740714Y-7747200D02*
X-10597857Y-7794819D01*
X-10597857Y-7794819D02*
X-10359762Y-7794819D01*
X-11264524Y-6794819D02*
X-11931190Y-7794819D01*
X-11931190Y-6794819D02*
X-11264524Y-7794819D01*
X-12074048Y-7890057D02*
X-12835952Y-7890057D01*
X-13074048Y-7794819D02*
X-13074048Y-6794819D01*
X-13074048Y-6794819D02*
X-13455000Y-6794819D01*
X-13455000Y-6794819D02*
X-13550238Y-6842438D01*
X-13550238Y-6842438D02*
X-13597857Y-6890057D01*
X-13597857Y-6890057D02*
X-13645476Y-6985295D01*
X-13645476Y-6985295D02*
X-13645476Y-7128152D01*
X-13645476Y-7128152D02*
X-13597857Y-7223390D01*
X-13597857Y-7223390D02*
X-13550238Y-7271009D01*
X-13550238Y-7271009D02*
X-13455000Y-7318628D01*
X-13455000Y-7318628D02*
X-13074048Y-7318628D01*
X-14074048Y-6794819D02*
X-14074048Y-7604342D01*
X-14074048Y-7604342D02*
X-14121667Y-7699580D01*
X-14121667Y-7699580D02*
X-14169286Y-7747200D01*
X-14169286Y-7747200D02*
X-14264524Y-7794819D01*
X-14264524Y-7794819D02*
X-14455000Y-7794819D01*
X-14455000Y-7794819D02*
X-14550238Y-7747200D01*
X-14550238Y-7747200D02*
X-14597857Y-7699580D01*
X-14597857Y-7699580D02*
X-14645476Y-7604342D01*
X-14645476Y-7604342D02*
X-14645476Y-6794819D01*
X-599942Y-6421904D02*
X-647561Y-6326666D01*
X-647561Y-6326666D02*
X-742800Y-6231428D01*
X-742800Y-6231428D02*
X-885657Y-6088571D01*
X-885657Y-6088571D02*
X-933276Y-5993333D01*
X-933276Y-5993333D02*
X-933276Y-5898095D01*
X-695180Y-5945714D02*
X-742800Y-5850476D01*
X-742800Y-5850476D02*
X-838038Y-5755238D01*
X-838038Y-5755238D02*
X-1028514Y-5707619D01*
X-1028514Y-5707619D02*
X-1361847Y-5707619D01*
X-1361847Y-5707619D02*
X-1552323Y-5755238D01*
X-1552323Y-5755238D02*
X-1647561Y-5850476D01*
X-1647561Y-5850476D02*
X-1695180Y-5945714D01*
X-1695180Y-5945714D02*
X-1695180Y-6136190D01*
X-1695180Y-6136190D02*
X-1647561Y-6231428D01*
X-1647561Y-6231428D02*
X-1552323Y-6326666D01*
X-1552323Y-6326666D02*
X-1361847Y-6374285D01*
X-1361847Y-6374285D02*
X-1028514Y-6374285D01*
X-1028514Y-6374285D02*
X-838038Y-6326666D01*
X-838038Y-6326666D02*
X-742800Y-6231428D01*
X-742800Y-6231428D02*
X-695180Y-6136190D01*
X-695180Y-6136190D02*
X-695180Y-5945714D01*
X-599942Y-6564762D02*
X-599942Y-7326666D01*
X-1695180Y-7469524D02*
X-695180Y-7707619D01*
X-695180Y-7707619D02*
X-1409466Y-7898095D01*
X-1409466Y-7898095D02*
X-695180Y-8088571D01*
X-695180Y-8088571D02*
X-1695180Y-8326667D01*
X-1218990Y-9040952D02*
X-1171371Y-9183809D01*
X-1171371Y-9183809D02*
X-1123752Y-9231428D01*
X-1123752Y-9231428D02*
X-1028514Y-9279047D01*
X-1028514Y-9279047D02*
X-885657Y-9279047D01*
X-885657Y-9279047D02*
X-790419Y-9231428D01*
X-790419Y-9231428D02*
X-742800Y-9183809D01*
X-742800Y-9183809D02*
X-695180Y-9088571D01*
X-695180Y-9088571D02*
X-695180Y-8707619D01*
X-695180Y-8707619D02*
X-1695180Y-8707619D01*
X-1695180Y-8707619D02*
X-1695180Y-9040952D01*
X-1695180Y-9040952D02*
X-1647561Y-9136190D01*
X-1647561Y-9136190D02*
X-1599942Y-9183809D01*
X-1599942Y-9183809D02*
X-1504704Y-9231428D01*
X-1504704Y-9231428D02*
X-1409466Y-9231428D01*
X-1409466Y-9231428D02*
X-1314228Y-9183809D01*
X-1314228Y-9183809D02*
X-1266609Y-9136190D01*
X-1266609Y-9136190D02*
X-1218990Y-9040952D01*
X-1218990Y-9040952D02*
X-1218990Y-8707619D01*
X-980895Y-9660000D02*
X-980895Y-10136190D01*
X-695180Y-9564762D02*
X-1695180Y-9898095D01*
X-1695180Y-9898095D02*
X-695180Y-10231428D01*
X-599942Y-10326667D02*
X-599942Y-11088571D01*
X-695180Y-11898095D02*
X-1171371Y-11564762D01*
X-695180Y-11326667D02*
X-1695180Y-11326667D01*
X-1695180Y-11326667D02*
X-1695180Y-11707619D01*
X-1695180Y-11707619D02*
X-1647561Y-11802857D01*
X-1647561Y-11802857D02*
X-1599942Y-11850476D01*
X-1599942Y-11850476D02*
X-1504704Y-11898095D01*
X-1504704Y-11898095D02*
X-1361847Y-11898095D01*
X-1361847Y-11898095D02*
X-1266609Y-11850476D01*
X-1266609Y-11850476D02*
X-1218990Y-11802857D01*
X-1218990Y-11802857D02*
X-1171371Y-11707619D01*
X-1171371Y-11707619D02*
X-1171371Y-11326667D01*
X-742800Y-12279048D02*
X-695180Y-12421905D01*
X-695180Y-12421905D02*
X-695180Y-12660000D01*
X-695180Y-12660000D02*
X-742800Y-12755238D01*
X-742800Y-12755238D02*
X-790419Y-12802857D01*
X-790419Y-12802857D02*
X-885657Y-12850476D01*
X-885657Y-12850476D02*
X-980895Y-12850476D01*
X-980895Y-12850476D02*
X-1076133Y-12802857D01*
X-1076133Y-12802857D02*
X-1123752Y-12755238D01*
X-1123752Y-12755238D02*
X-1171371Y-12660000D01*
X-1171371Y-12660000D02*
X-1218990Y-12469524D01*
X-1218990Y-12469524D02*
X-1266609Y-12374286D01*
X-1266609Y-12374286D02*
X-1314228Y-12326667D01*
X-1314228Y-12326667D02*
X-1409466Y-12279048D01*
X-1409466Y-12279048D02*
X-1504704Y-12279048D01*
X-1504704Y-12279048D02*
X-1599942Y-12326667D01*
X-1599942Y-12326667D02*
X-1647561Y-12374286D01*
X-1647561Y-12374286D02*
X-1695180Y-12469524D01*
X-1695180Y-12469524D02*
X-1695180Y-12707619D01*
X-1695180Y-12707619D02*
X-1647561Y-12850476D01*
X-1695180Y-13136191D02*
X-1695180Y-13707619D01*
X-695180Y-13421905D02*
X-1695180Y-13421905D01*
%TO.C,C_FIN2_DVDD*%
D10*
X-5112164Y-8320000D02*
X-5327836Y-8320000D01*
X-5112164Y-9040000D02*
X-5327836Y-9040000D01*
%TO.C,Q_WBA_RST*%
X-485000Y-8925000D02*
X-485000Y-10395000D01*
X-485000Y-10395000D02*
X165000Y-10395000D01*
X815000Y-8925000D02*
X485000Y-8925000D01*
X1135000Y-10395000D02*
X1785000Y-10395000D01*
X1785000Y-10395000D02*
X1785000Y-8925000D01*
X490000Y-8480000D02*
X680000Y-8620000D01*
X680000Y-8340000D01*
X490000Y-8480000D01*
G36*
X680000Y-8620000D02*
G01*
X490000Y-8480000D01*
X680000Y-8340000D01*
X680000Y-8620000D01*
G37*
%TD*%
%LPC*%
D12*
%TO.C,*%
X-9899500Y9899500D03*
%TD*%
%TO.C,*%
X9899500Y-9899500D03*
%TD*%
D13*
%TO.C,C_WBA_NRST*%
X3240000Y-9715000D03*
X3240000Y-8765000D03*
%TD*%
D14*
%TO.C,C_WBA_VDD1*%
X7420000Y-10860000D03*
X7420000Y-9910000D03*
%TD*%
%TO.C,C_IMU2_1*%
X-5300000Y-9780000D03*
X-4350000Y-9780000D03*
%TD*%
D15*
%TO.C,R_IMU2_SCX_PU*%
X-6340000Y-9565000D03*
X-6340000Y-10205000D03*
%TD*%
D14*
%TO.C,C_FIN2_VM*%
X-2090000Y-4830000D03*
X-1140000Y-4830000D03*
%TD*%
%TO.C,C_IMU1_1*%
X-7750000Y-5169000D03*
X-7750000Y-4219000D03*
%TD*%
D16*
%TO.C,TP_IMU1_INT*%
X-3202000Y-3329000D03*
%TD*%
D13*
%TO.C,RPU_I2C2_SDA*%
X-9130000Y-7050000D03*
X-8180000Y-7050000D03*
%TD*%
D14*
%TO.C,C_WBA_BULK_1*%
X3580000Y-7060000D03*
X2630000Y-7060000D03*
%TD*%
D17*
%TO.C,J_HALL_FIN_OUT*%
X6556000Y301000D03*
%TD*%
D14*
%TO.C,C_WBA_VDD11*%
X3175000Y-10950000D03*
X4125000Y-10950000D03*
%TD*%
%TO.C,C_IMU1_2*%
X-475000Y-1752000D03*
X475000Y-1752000D03*
%TD*%
D18*
%TO.C,C_FIN2_DVDD*%
X-4740000Y-8680000D03*
X-5700000Y-8680000D03*
%TD*%
D19*
%TO.C,C_G0B1_FIN_BULK*%
X2180000Y-10000D03*
X2180000Y1590000D03*
%TD*%
D14*
%TO.C,R_WILK_ISO*%
X-4120000Y2010000D03*
X-4120000Y2960000D03*
%TD*%
%TO.C,RHOLD_AON*%
X9210000Y-6420000D03*
X10160000Y-6420000D03*
%TD*%
D16*
%TO.C,TP_IMU3_INT*%
X-3827000Y7632000D03*
%TD*%
D20*
%TO.C,R_IMU2_SDX_PU*%
X-4410000Y-11380000D03*
X-5050000Y-11380000D03*
%TD*%
D21*
%TO.C,R_FIN2_DECAY*%
X3690000Y-6040000D03*
X3690000Y-5400000D03*
%TD*%
D13*
%TO.C,RPU_SDA_EXT*%
X-4060000Y10330000D03*
X-4060000Y11280000D03*
%TD*%
D14*
%TO.C,C_J_HALL_FIN_VCC*%
X7930000Y-890000D03*
X8880000Y-890000D03*
%TD*%
D13*
%TO.C,RHOLD2_PD*%
X-6280000Y-5375000D03*
X-6280000Y-6325000D03*
%TD*%
D14*
%TO.C,R_WBARST_PD*%
X-1060000Y-8590000D03*
X-2010000Y-8590000D03*
%TD*%
%TO.C,C_IMU2_3*%
X-3690000Y-10550000D03*
X-2740000Y-10550000D03*
%TD*%
D22*
%TO.C,C_MAG2*%
X5740000Y8610000D03*
X4140000Y8610000D03*
%TD*%
D16*
%TO.C,TP_IMU2_INT*%
X-4803000Y-4030000D03*
%TD*%
D21*
%TO.C,RHOLD2_G*%
X5080000Y-11460000D03*
X5080000Y-10820000D03*
%TD*%
D13*
%TO.C,C_IMU3_1*%
X300000Y13760000D03*
X-650000Y13760000D03*
%TD*%
D14*
%TO.C,C_IMU1_3*%
X-8456000Y-5169000D03*
X-8456000Y-4219000D03*
%TD*%
D13*
%TO.C,RPU_SCL_EXT*%
X-1310000Y13210000D03*
X-2260000Y13210000D03*
%TD*%
D14*
%TO.C,C_G0B1_FIN_VDD2*%
X10530000Y255000D03*
X10530000Y1205000D03*
%TD*%
D22*
%TO.C,C_FIN_VM_BULK_2*%
X-8230000Y-1140000D03*
X-6630000Y-1140000D03*
%TD*%
D13*
%TO.C,RMAIN_PU*%
X-4370000Y-7450000D03*
X-4370000Y-6500000D03*
%TD*%
D19*
%TO.C,C_FIN_VM_BULK_1*%
X-620000Y8470000D03*
X980000Y8470000D03*
%TD*%
%TO.C,CBOOST_IN1_1*%
X4220000Y-700000D03*
X4220000Y900000D03*
%TD*%
D13*
%TO.C,C_CAM_VDD*%
X10170000Y-4000000D03*
X10170000Y-4950000D03*
%TD*%
D14*
%TO.C,C_WBA_BULK_2*%
X4915000Y-7850000D03*
X5865000Y-7850000D03*
%TD*%
%TO.C,R_FIN4_DECAY*%
X-7440000Y3390000D03*
X-7440000Y2440000D03*
%TD*%
D13*
%TO.C,RHOLD_G*%
X-6625000Y10110000D03*
X-7575000Y10110000D03*
%TD*%
D17*
%TO.C,J_HALL_FIN_GND*%
X3110000Y-4820000D03*
%TD*%
D14*
%TO.C,C_FIN4_VM*%
X-9250000Y-1180000D03*
X-9250000Y-230000D03*
%TD*%
%TO.C,CBOOST_IN2*%
X3310000Y-3360000D03*
X2360000Y-3360000D03*
%TD*%
%TO.C,C_WBA_VDDA*%
X6800000Y-8200000D03*
X6800000Y-9150000D03*
%TD*%
%TO.C,RPU_I2C3_SDA*%
X-110000Y10320000D03*
X-110000Y9370000D03*
%TD*%
D16*
%TO.C,TP_WILK_B*%
X-5553000Y3278000D03*
%TD*%
D14*
%TO.C,C_FIN_VREF*%
X-475000Y-876000D03*
X475000Y-876000D03*
%TD*%
D16*
%TO.C,TP_3V3*%
X-2226000Y7632000D03*
%TD*%
D14*
%TO.C,C_WBA_HSE_VDD*%
X6695000Y-7350000D03*
X7645000Y-7350000D03*
%TD*%
D22*
%TO.C,CBOOST_IN1_3*%
X-9020000Y4540000D03*
X-9020000Y2940000D03*
%TD*%
D14*
%TO.C,C_IMU2_2*%
X-3210000Y-12520000D03*
X-3210000Y-11570000D03*
%TD*%
D13*
%TO.C,CMAIN_HOLD*%
X-4450000Y-5420000D03*
X-5400000Y-5420000D03*
%TD*%
D19*
%TO.C,C_FIN_VM_BULK_5*%
X-770000Y1740000D03*
X830000Y1740000D03*
%TD*%
D13*
%TO.C,C_WBA_VDDSMPS*%
X4930000Y-6415000D03*
X4930000Y-5465000D03*
%TD*%
D23*
%TO.C,P_wakeup_board_spacer_activation_interface_wakeup_board*%
X13950000Y-5441000D03*
X13950000Y-3841000D03*
X13950000Y-2241000D03*
X13950000Y-641000D03*
X13950000Y959000D03*
X13950000Y2559000D03*
X13950000Y4159000D03*
X13950000Y5759000D03*
X12350000Y959000D03*
X12350000Y2559000D03*
X12350000Y4159000D03*
X12350000Y5759000D03*
X12350000Y7359000D03*
X12350000Y8959000D03*
X10750000Y7359000D03*
X10750000Y8959000D03*
X10750000Y10559000D03*
X9150000Y8959000D03*
X9150000Y10559000D03*
X9150000Y12159000D03*
X7550000Y10559000D03*
X7550000Y12159000D03*
X5950000Y-13441000D03*
X5950000Y-11841000D03*
X5950000Y10559000D03*
X5950000Y12159000D03*
X5950000Y13759000D03*
X4350000Y-11841000D03*
X4350000Y12159000D03*
X2750000Y-11841000D03*
X2750000Y12159000D03*
X1150000Y12159000D03*
X-450000Y12159000D03*
X-2050000Y-11841000D03*
X-2050000Y12159000D03*
X-3650000Y12159000D03*
X-5250000Y-13441000D03*
X-5250000Y12159000D03*
X-5250000Y13759000D03*
X-6850000Y-13441000D03*
X-6850000Y-11841000D03*
X-6850000Y13759000D03*
X-8450000Y-11841000D03*
X-8450000Y-10241000D03*
X-8450000Y-8641000D03*
X-10050000Y-10241000D03*
X-10050000Y-8641000D03*
X-11650000Y-8641000D03*
X-11650000Y4159000D03*
X-11650000Y5759000D03*
X-13250000Y-641000D03*
X-13250000Y959000D03*
X-13250000Y2559000D03*
X-13250000Y4159000D03*
X-13250000Y5759000D03*
X-13250000Y7359000D03*
X-14850000Y-3841000D03*
X-14850000Y-2241000D03*
X-14850000Y-641000D03*
X-14850000Y959000D03*
X-14850000Y2559000D03*
X-14850000Y4159000D03*
%TD*%
D13*
%TO.C,C_WBA_VDDANA*%
X2820000Y-6280000D03*
X1870000Y-6280000D03*
%TD*%
D19*
%TO.C,C_FIN_VM_BULK_3*%
X-1940000Y-5840000D03*
X-340000Y-5840000D03*
%TD*%
D14*
%TO.C,COUT3*%
X-4927000Y4580000D03*
X-3977000Y4580000D03*
%TD*%
%TO.C,RPU_I2C2_SCL*%
X-9160000Y-7780000D03*
X-8210000Y-7780000D03*
%TD*%
D15*
%TO.C,C_MAG_C1*%
X2000000Y12510000D03*
X2000000Y11870000D03*
%TD*%
%TO.C,R_IMU1_SCX_PU*%
X-9340000Y-4670000D03*
X-9340000Y-5310000D03*
%TD*%
D19*
%TO.C,CBOOST_IN1_2*%
X-11700000Y2030000D03*
X-11700000Y3630000D03*
%TD*%
D14*
%TO.C,RHOLD_PD*%
X-5850000Y7120000D03*
X-6800000Y7120000D03*
%TD*%
D13*
%TO.C,R_WBA_NRST*%
X2270000Y-8870000D03*
X2270000Y-9820000D03*
%TD*%
D16*
%TO.C,TP_YAGI_RF_B*%
X0Y-3078000D03*
%TD*%
D13*
%TO.C,C_WBA_VDDRF*%
X1180000Y-13465000D03*
X1180000Y-12515000D03*
%TD*%
D14*
%TO.C,C_FIN1_VM*%
X-1010000Y2720000D03*
X-60000Y2720000D03*
%TD*%
D19*
%TO.C,CBOOST_IN1_4*%
X1440000Y-4660000D03*
X-160000Y-4660000D03*
%TD*%
%TO.C,C_FIN3_DVDD*%
X-1160000Y3700000D03*
X440000Y3700000D03*
%TD*%
D14*
%TO.C,C_G0B1_FIN_VREF*%
X9730000Y275000D03*
X9730000Y1225000D03*
%TD*%
D22*
%TO.C,C_FIN4_DVDD*%
X-4450000Y-1350000D03*
X-4450000Y250000D03*
%TD*%
D13*
%TO.C,RPU_I2C3_SCL*%
X-1480000Y9330000D03*
X-1480000Y10280000D03*
%TD*%
%TO.C,C_FIN3_VM*%
X-3260000Y9820000D03*
X-2310000Y9820000D03*
%TD*%
%TO.C,C_WBA_VDD2*%
X7710000Y-8245000D03*
X7710000Y-9195000D03*
%TD*%
D24*
%TO.C,R_IMU1_SDX_PU*%
X-9275000Y-6290000D03*
X-8635000Y-6290000D03*
%TD*%
D13*
%TO.C,C_WBA_VDDHPA*%
X5860000Y-9710000D03*
X5860000Y-10660000D03*
%TD*%
D16*
%TO.C,TP_BAT*%
X3704000Y-2175000D03*
%TD*%
D19*
%TO.C,CBOOST_IN1_5*%
X-10640000Y2270000D03*
X-10640000Y3870000D03*
%TD*%
D25*
%TO.C,Q_WBA_RST*%
X0Y-8772500D03*
X1300000Y-8772500D03*
X650000Y-10547500D03*
%TD*%
D14*
%TO.C,C_IMU3_2*%
X280000Y14500000D03*
X-670000Y14500000D03*
%TD*%
D13*
%TO.C,C_IMU3_3*%
X1330000Y14630000D03*
X1330000Y13680000D03*
%TD*%
D16*
%TO.C,TP_YAGI_RF_A*%
X-6053000Y5030000D03*
%TD*%
D14*
%TO.C,R_J_HALL_FIN_PU*%
X9640000Y-1630000D03*
X9640000Y-680000D03*
%TD*%
D16*
%TO.C,TP_WILK_A*%
X-5553000Y1677000D03*
%TD*%
D17*
%TO.C,J_HALL_FIN_VCC*%
X6256000Y-1925000D03*
%TD*%
D19*
%TO.C,C_FIN_VM_BULK_4*%
X-770000Y7357000D03*
X830000Y7357000D03*
%TD*%
D13*
%TO.C,C_WBA_VDDRFPA*%
X11870000Y-3480000D03*
X11870000Y-2530000D03*
%TD*%
D16*
%TO.C,TP_NFC_GPO*%
X2851000Y3628000D03*
%TD*%
D14*
%TO.C,C_MAG1*%
X1470000Y10410000D03*
X2420000Y10410000D03*
%TD*%
%TO.C,C_G0B1_FIN_VDD1*%
X10500000Y2460000D03*
X10500000Y3410000D03*
%TD*%
D13*
%TO.C,R_NFC_WAKE*%
X-2015000Y-9520000D03*
X-1065000Y-9520000D03*
%TD*%
%LPD*%
M02*
