%TF.GenerationSoftware,KiCad,Pcbnew,10.0.0*%
%TF.CreationDate,2026-09-10T18:17:51+02:00*%
%TF.ProjectId,aft_end_board,6166745f-656e-4645-9f62-6f6172642e6b,rev?*%
%TF.SameCoordinates,Original*%
%TF.FileFunction,Copper,L14,Bot*%
%TF.FilePolarity,Positive*%
%FSLAX46Y46*%
G04 Gerber Fmt 4.6, Leading zero omitted, Abs format (unit mm)*
G04 Created by KiCad (PCBNEW 10.0.0) date 2026-09-10 18:17:51*
%MOMM*%
%LPD*%
G01*
G04 APERTURE LIST*
%TA.AperFunction,SMDPad,CuDef*%
%ADD10R,2.000000X2.000000*%
%TD*%
%TA.AperFunction,SMDPad,CuDef*%
%ADD11C,2.000000*%
%TD*%
G04 APERTURE END LIST*
D10*
%TO.P,TP_SPI_MOSI,1*%
%TO.N,SYS_SPI_MOSI*%
X3040000Y10810000D03*
%TD*%
D11*
%TO.P,TP_SPI_CS_FIN,1*%
%TO.N,SYS_SPI_CS_FIN*%
X939000Y10810000D03*
%TD*%
%TO.P,TP_SPI_MISO,1*%
%TO.N,SYS_SPI_MISO*%
X-1162000Y10810000D03*
%TD*%
%TO.P,TP_SPI_SCLK,1*%
%TO.N,SYS_SPI_SCLK*%
X-3263000Y10810000D03*
%TD*%
D10*
%TO.P,TP_FIN1_A1,1*%
%TO.N,FIN1_AOUT1*%
X7760000Y7490000D03*
%TD*%
D11*
%TO.P,TP_FIN1_A2,1*%
%TO.N,FIN1_AOUT2*%
X5659000Y7490000D03*
%TD*%
%TO.P,TP_FIN1_B1,1*%
%TO.N,FIN1_BOUT1*%
X3558000Y7490000D03*
%TD*%
%TO.P,TP_FIN1_B2,1*%
%TO.N,FIN1_BOUT2*%
X1457000Y7490000D03*
%TD*%
D10*
%TO.P,TP_FIN2_A1,1*%
%TO.N,FIN2_AOUT1*%
X7760000Y4300000D03*
%TD*%
D11*
%TO.P,TP_FIN2_A2,1*%
%TO.N,FIN2_AOUT2*%
X5659000Y4300000D03*
%TD*%
%TO.P,TP_FIN2_B1,1*%
%TO.N,FIN2_BOUT1*%
X3558000Y4300000D03*
%TD*%
%TO.P,TP_FIN2_B2,1*%
%TO.N,FIN2_BOUT2*%
X1457000Y4300000D03*
%TD*%
D10*
%TO.P,TP_FIN3_A1,1*%
%TO.N,FIN3_AOUT1*%
X-1610000Y7490000D03*
%TD*%
D11*
%TO.P,TP_FIN3_A2,1*%
%TO.N,FIN3_AOUT2*%
X-3711000Y7490000D03*
%TD*%
%TO.P,TP_FIN3_B1,1*%
%TO.N,FIN3_BOUT1*%
X-5812000Y7490000D03*
%TD*%
%TO.P,TP_FIN3_B2,1*%
%TO.N,FIN3_BOUT2*%
X-7913000Y7490000D03*
%TD*%
D10*
%TO.P,TP_FIN4_A1,1*%
%TO.N,FIN4_AOUT1*%
X-1610000Y4300000D03*
%TD*%
D11*
%TO.P,TP_FIN4_A2,1*%
%TO.N,FIN4_AOUT2*%
X-3711000Y4300000D03*
%TD*%
%TO.P,TP_FIN4_B1,1*%
%TO.N,FIN4_BOUT1*%
X-5812000Y4300000D03*
%TD*%
%TO.P,TP_FIN4_B2,1*%
%TO.N,FIN4_BOUT2*%
X-7913000Y4300000D03*
%TD*%
D10*
%TO.P,TP_CAN_N,1*%
%TO.N,EXT_CAN_N*%
X11020000Y0D03*
%TD*%
D11*
%TO.P,TP_CAN_P,1*%
%TO.N,EXT_CAN_P*%
X11020000Y-2101000D03*
%TD*%
D10*
%TO.P,TP_BAT_RAW,1*%
%TO.N,BAT_RAW*%
X7310000Y0D03*
%TD*%
D11*
%TO.P,TP_BAT_PROT,1*%
%TO.N,BAT_PROT*%
X5209000Y0D03*
%TD*%
D10*
%TO.P,TP_ACT_CONFIRM,1*%
%TO.N,ACTIVATE_CONFIRM*%
X-6500000Y0D03*
%TD*%
D11*
%TO.P,TP_ACT_SET,1*%
%TO.N,ACTIVATE_SET*%
X-8601000Y0D03*
%TD*%
%TO.P,TP_GND_ACT,1*%
%TO.N,FLEX_GND*%
X-3500000Y0D03*
%TD*%
D10*
%TO.P,TP_FIN_HALL,1*%
%TO.N,FIN_HALL*%
X7310000Y-3490000D03*
%TD*%
D11*
%TO.P,TP_HALL_VIN,1*%
%TO.N,3V3*%
X5209000Y-3490000D03*
%TD*%
D10*
%TO.P,TP_I2C_SDA,1*%
%TO.N,SYS_I2C_SDA*%
X690000Y-3490000D03*
%TD*%
D11*
%TO.P,TP_I2C_SCL,1*%
%TO.N,SYS_I2C_SCL*%
X-1411000Y-3490000D03*
%TD*%
D10*
%TO.P,TP_VDD,1*%
%TO.N,3V3_AON*%
X7310000Y-6780000D03*
%TD*%
D11*
%TO.P,TP_SWDIO,1*%
%TO.N,COMP_SWDIO*%
X5209000Y-6780000D03*
%TD*%
%TO.P,TP_NRST,1*%
%TO.N,NRST*%
X3108000Y-6780000D03*
%TD*%
%TO.P,TP_SWCLK,1*%
%TO.N,COMP_SWDCLK*%
X1007000Y-6780000D03*
%TD*%
%TO.P,TP_MP25_GND1,1*%
%TO.N,FLEX_GND*%
X-1094000Y-6780000D03*
%TD*%
%TO.P,TP_SWO,1*%
%TO.N,SWO*%
X-3195000Y-6780000D03*
%TD*%
%TO.P,TP_MP25_GND2,1*%
%TO.N,FLEX_GND*%
X-5296000Y-6780000D03*
%TD*%
%TO.P,TP_BOOT0,1*%
%TO.N,BOOT0*%
X-7397000Y-6780000D03*
%TD*%
D10*
%TO.P,TP_GPIO_0,1*%
%TO.N,GPIO_EXT_0*%
X3040000Y-9970000D03*
%TD*%
D11*
%TO.P,TP_GPIO_1,1*%
%TO.N,GPIO_EXT_1*%
X939000Y-9970000D03*
%TD*%
%TO.P,TP_GPIO_2,1*%
%TO.N,GPIO_EXT_2*%
X-1162000Y-9970000D03*
%TD*%
%TO.P,TP_GPIO_3,1*%
%TO.N,GPIO_EXT_3*%
X-3263000Y-9970000D03*
%TD*%
%TO.P,P_FIRE_COMMON,1*%
%TO.N,FIRE_ARMED*%
X0Y0D03*
%TD*%
D10*
%TO.P,P_ACT_WIRE_0,1*%
%TO.N,ACT_WIRE_0*%
X15000000Y0D03*
%TD*%
D11*
%TO.P,P_ACT_WIRE_1,1*%
%TO.N,ACT_WIRE_1*%
X13860000Y5740000D03*
%TD*%
%TO.P,P_ACT_WIRE_2,1*%
%TO.N,ACT_WIRE_2*%
X10610000Y10610000D03*
%TD*%
%TO.P,P_ACT_WIRE_3,1*%
%TO.N,ACT_WIRE_3*%
X5740000Y13860000D03*
%TD*%
%TO.P,P_ACT_WIRE_4,1*%
%TO.N,ACT_WIRE_4*%
X0Y15000000D03*
%TD*%
%TO.P,P_ACT_WIRE_5,1*%
%TO.N,ACT_WIRE_5*%
X-5740000Y13860000D03*
%TD*%
%TO.P,P_ACT_WIRE_6,1*%
%TO.N,ACT_WIRE_6*%
X-10610000Y10610000D03*
%TD*%
%TO.P,P_ACT_WIRE_7,1*%
%TO.N,ACT_WIRE_7*%
X-13860000Y5740000D03*
%TD*%
%TO.P,P_ACT_WIRE_8,1*%
%TO.N,ACT_WIRE_8*%
X-15000000Y0D03*
%TD*%
%TO.P,P_ACT_WIRE_9,1*%
%TO.N,ACT_WIRE_9*%
X-13860000Y-5740000D03*
%TD*%
%TO.P,P_ACT_WIRE_10,1*%
%TO.N,ACT_WIRE_10*%
X-10610000Y-10610000D03*
%TD*%
%TO.P,P_ACT_WIRE_11,1*%
%TO.N,ACT_WIRE_11*%
X-5740000Y-13860000D03*
%TD*%
%TO.P,P_ACT_WIRE_12,1*%
%TO.N,ACT_WIRE_12*%
X0Y-15000000D03*
%TD*%
%TO.P,P_ACT_WIRE_13,1*%
%TO.N,ACT_WIRE_13*%
X5740000Y-13860000D03*
%TD*%
%TO.P,P_ACT_WIRE_14,1*%
%TO.N,ACT_WIRE_14*%
X10610000Y-10610000D03*
%TD*%
%TO.P,P_ACT_WIRE_15,1*%
%TO.N,ACT_WIRE_15*%
X13860000Y-5740000D03*
%TD*%
D10*
%TO.P,TP_JUMP_WAKE,1*%
%TO.N,JUMP_PAD*%
X-5700000Y-3490000D03*
%TD*%
D11*
%TO.P,TP_JUMP_GND,1*%
%TO.N,FLEX_GND*%
X-7801000Y-3490000D03*
%TD*%
M02*
