%TF.GenerationSoftware,KiCad,Pcbnew,10.0.0*%
%TF.CreationDate,2026-09-10T18:17:51+02:00*%
%TF.ProjectId,aft_end_board,6166745f-656e-4645-9f62-6f6172642e6b,rev?*%
%TF.SameCoordinates,Original*%
%TF.FileFunction,Soldermask,Top*%
%TF.FilePolarity,Negative*%
%FSLAX46Y46*%
G04 Gerber Fmt 4.6, Leading zero omitted, Abs format (unit mm)*
G04 Created by KiCad (PCBNEW 10.0.0) date 2026-09-10 18:17:51*
%MOMM*%
%LPD*%
G01*
G04 APERTURE LIST*
%ADD10R,1.528000X0.650000*%
%ADD11R,0.600000X0.550000*%
%ADD12R,0.550000X0.600000*%
%ADD13R,0.550000X1.050000*%
%ADD14R,0.950000X0.560000*%
%ADD15R,1.475000X0.450000*%
%ADD16R,1.100000X0.650000*%
%ADD17R,0.650000X1.100000*%
%ADD18R,0.900000X0.900000*%
G04 APERTURE END LIST*
D10*
%TO.C,U_CAN_GW*%
X-2711000Y5006000D03*
X-2711000Y3736000D03*
X-2711000Y2466000D03*
X-2711000Y1196000D03*
X2711000Y1196000D03*
X2711000Y2466000D03*
X2711000Y3736000D03*
X2711000Y5006000D03*
%TD*%
D11*
%TO.C,C_CAN_GW*%
X-11500000Y-475000D03*
X-11500000Y475000D03*
%TD*%
%TO.C,R_EXT_CAN_TERM*%
X-5702000Y-1426000D03*
X-5702000Y-476000D03*
%TD*%
D12*
%TO.C,R_FIRE_BLEED*%
X1126000Y0D03*
X2076000Y0D03*
%TD*%
%TO.C,R_FIRE_MON1*%
X-475000Y0D03*
X475000Y0D03*
%TD*%
%TO.C,R_FIRE_MON2*%
X3578000Y-1601000D03*
X4528000Y-1601000D03*
%TD*%
D13*
%TO.C,Q_FIRE_ARM*%
X6302000Y-4677000D03*
X7252000Y-4677000D03*
X8202000Y-4677000D03*
X8202000Y-2077000D03*
X7252000Y-2077000D03*
X6302000Y-2077000D03*
%TD*%
D11*
%TO.C,R_FIRE_ARM_H*%
X2201000Y-6728000D03*
X2201000Y-5778000D03*
%TD*%
%TO.C,R_FIRE_ARM_L*%
X2201000Y-1626000D03*
X2201000Y-676000D03*
%TD*%
D14*
%TO.C,Q_FIRE_ARM_LS*%
X-4476000Y-4402000D03*
X-4476000Y-6302000D03*
X-2376000Y-5352000D03*
%TD*%
D15*
%TO.C,U_FIRE_DEC*%
X4713000Y6676000D03*
X4713000Y6026000D03*
X4713000Y5376000D03*
X4713000Y4726000D03*
X4713000Y4076000D03*
X4713000Y3426000D03*
X4713000Y2776000D03*
X4713000Y2126000D03*
X4713000Y1476000D03*
X4713000Y826000D03*
X4713000Y176000D03*
X4713000Y-474000D03*
X10589000Y-474000D03*
X10589000Y176000D03*
X10589000Y826000D03*
X10589000Y1476000D03*
X10589000Y2126000D03*
X10589000Y2776000D03*
X10589000Y3426000D03*
X10589000Y4076000D03*
X10589000Y4726000D03*
X10589000Y5376000D03*
X10589000Y6026000D03*
X10589000Y6676000D03*
%TD*%
D16*
%TO.C,Q_FIRE_N0*%
X4526000Y9912000D03*
X4526000Y7992000D03*
X6626000Y8952000D03*
%TD*%
D17*
%TO.C,Q_FIRE_N1*%
X-4561000Y-3051000D03*
X-2641000Y-3051000D03*
X-3601000Y-951000D03*
%TD*%
D16*
%TO.C,Q_FIRE_N2*%
X-1050000Y-1141000D03*
X-1050000Y-3061000D03*
X1050000Y-2101000D03*
%TD*%
%TO.C,Q_FIRE_N3*%
X2651000Y-2742000D03*
X2651000Y-4662000D03*
X4751000Y-3702000D03*
%TD*%
%TO.C,Q_FIRE_N4*%
X-4751000Y-8143000D03*
X-4751000Y-10063000D03*
X-2651000Y-9103000D03*
%TD*%
D17*
%TO.C,Q_FIRE_N5*%
X-8062000Y-4652000D03*
X-6142000Y-4652000D03*
X-7102000Y-2552000D03*
%TD*%
%TO.C,Q_FIRE_N6*%
X-6436000Y4852000D03*
X-4516000Y4852000D03*
X-5476000Y6952000D03*
%TD*%
D16*
%TO.C,Q_FIRE_N7*%
X-1050000Y-4642000D03*
X-1050000Y-6562000D03*
X1050000Y-5602000D03*
%TD*%
D17*
%TO.C,Q_FIRE_N8*%
X7043000Y-8353000D03*
X8963000Y-8353000D03*
X8003000Y-6253000D03*
%TD*%
%TO.C,Q_FIRE_N9*%
X-9937000Y4852000D03*
X-8017000Y4852000D03*
X-8977000Y6952000D03*
%TD*%
D16*
%TO.C,Q_FIRE_N10*%
X-349000Y-9744000D03*
X-349000Y-11664000D03*
X1751000Y-10704000D03*
%TD*%
D17*
%TO.C,Q_FIRE_N11*%
X-9937000Y1151000D03*
X-8017000Y1151000D03*
X-8977000Y3251000D03*
%TD*%
D16*
%TO.C,Q_FIRE_N12*%
X-1050000Y8562000D03*
X-1050000Y6642000D03*
X1050000Y7602000D03*
%TD*%
%TO.C,Q_FIRE_N13*%
X3352000Y-6243000D03*
X3352000Y-8163000D03*
X5452000Y-7203000D03*
%TD*%
D17*
%TO.C,Q_FIRE_N14*%
X-6436000Y1151000D03*
X-4516000Y1151000D03*
X-5476000Y3251000D03*
%TD*%
D16*
%TO.C,Q_FIRE_N15*%
X-6426000Y10463000D03*
X-6426000Y8543000D03*
X-4326000Y9503000D03*
%TD*%
D11*
%TO.C,R_JUMP_PAD*%
X2902000Y-1626000D03*
X2902000Y-676000D03*
%TD*%
D18*
%TO.C,J_aft_end_board_spacer_aft_end_board_activation_interface*%
X13950000Y-5950000D03*
X13950000Y-4350000D03*
X13950000Y-2750000D03*
X13950000Y-1150000D03*
X13950000Y450000D03*
X13950000Y2050000D03*
X13950000Y3650000D03*
X13950000Y5250000D03*
X12350000Y-5950000D03*
X12350000Y-4350000D03*
X12350000Y-2750000D03*
X12350000Y8450000D03*
X10750000Y-5950000D03*
X10750000Y-4350000D03*
X10750000Y-2750000D03*
X10750000Y8450000D03*
X10750000Y10050000D03*
X9150000Y8450000D03*
X9150000Y10050000D03*
X9150000Y11650000D03*
X7550000Y11650000D03*
X7550000Y13250000D03*
X5950000Y-13950000D03*
X5950000Y-12350000D03*
X5950000Y-10750000D03*
X5950000Y11650000D03*
X5950000Y13250000D03*
X4350000Y-13950000D03*
X4350000Y-12350000D03*
X4350000Y-10750000D03*
X4350000Y11650000D03*
X4350000Y13250000D03*
X2750000Y-13950000D03*
X2750000Y6850000D03*
X2750000Y8450000D03*
X2750000Y10050000D03*
X2750000Y11650000D03*
X2750000Y13250000D03*
X2750000Y14850000D03*
X1150000Y-13950000D03*
X1150000Y11650000D03*
X1150000Y13250000D03*
X1150000Y14850000D03*
X-450000Y-13950000D03*
X-450000Y11650000D03*
X-450000Y13250000D03*
X-450000Y14850000D03*
X-2050000Y-13950000D03*
X-2050000Y-12350000D03*
X-2050000Y11650000D03*
X-2050000Y13250000D03*
X-2050000Y14850000D03*
X-3650000Y-13950000D03*
X-3650000Y-12350000D03*
X-3650000Y13250000D03*
X-3650000Y14850000D03*
X-5250000Y-13950000D03*
X-5250000Y-12350000D03*
X-5250000Y13250000D03*
X-6850000Y-12350000D03*
X-6850000Y-10750000D03*
X-6850000Y-9150000D03*
X-6850000Y-7550000D03*
X-6850000Y13250000D03*
X-8450000Y-12350000D03*
X-8450000Y-10750000D03*
X-8450000Y-9150000D03*
X-8450000Y-7550000D03*
X-10050000Y-10750000D03*
X-10050000Y-9150000D03*
X-10050000Y-7550000D03*
X-10050000Y-5950000D03*
X-10050000Y-4350000D03*
X-10050000Y-2750000D03*
X-10050000Y-1150000D03*
X-11650000Y-9150000D03*
X-11650000Y-7550000D03*
X-11650000Y-5950000D03*
X-11650000Y-4350000D03*
X-11650000Y-2750000D03*
X-11650000Y2050000D03*
X-11650000Y3650000D03*
X-11650000Y5250000D03*
X-13250000Y-7550000D03*
X-13250000Y-5950000D03*
X-13250000Y-4350000D03*
X-13250000Y-2750000D03*
X-13250000Y-1150000D03*
X-13250000Y450000D03*
X-13250000Y2050000D03*
X-13250000Y3650000D03*
X-13250000Y5250000D03*
X-13250000Y6850000D03*
X-14850000Y-2750000D03*
X-14850000Y-1150000D03*
X-14850000Y450000D03*
X-14850000Y2050000D03*
X-14850000Y3650000D03*
%TD*%
M02*
