%TF.GenerationSoftware,KiCad,Pcbnew,10.0.0*%
%TF.CreationDate,2026-09-03T12:15:46+02:00*%
%TF.ProjectId,activation_interface,61637469-7661-4746-996f-6e5f696e7465,rev?*%
%TF.SameCoordinates,Original*%
%TF.FileFunction,Copper,L2,Inr*%
%TF.FilePolarity,Positive*%
%FSLAX46Y46*%
G04 Gerber Fmt 4.6, Leading zero omitted, Abs format (unit mm)*
G04 Created by KiCad (PCBNEW 10.0.0) date 2026-09-03 12:15:46*
%MOMM*%
%LPD*%
G01*
G04 APERTURE LIST*
%TA.AperFunction,ViaPad*%
%ADD10C,0.450000*%
%TD*%
G04 APERTURE END LIST*
D10*
%TO.N,FIRE_HV*%
X562600Y-1363400D03*
X-2600000Y7933000D03*
X6788600Y9621300D03*
%TO.N,FLEX_GND*%
X1450000Y3550000D03*
X-11411400Y2850000D03*
X-5005300Y12450000D03*
X6750000Y12450000D03*
%TO.N,3V3*%
X6350000Y3670000D03*
X9600000Y4460000D03*
X3660000Y11010000D03*
X14000000Y-5910000D03*
X-6670000Y-600000D03*
X8910000Y10810000D03*
%TO.N,I2C3_SCL*%
X-464900Y3002700D03*
X10076100Y2976100D03*
%TO.N,I2C3_SDA*%
X500000Y3009500D03*
X10750000Y4491200D03*
%TO.N,H3LIS_INT1*%
X9995200Y2105100D03*
X3507000Y2354400D03*
%TO.N,COMP_5V*%
X-4820000Y-8200000D03*
X-5580000Y1950000D03*
%TO.N,FLEX_GND*%
X393900Y11082200D03*
%TO.N,COMP_5V*%
X3480000Y450000D03*
X5050000Y-4400000D03*
X-3770000Y-7090000D03*
X12327200Y4496700D03*
%TO.N,FIRE_FB*%
X-2163500Y1837100D03*
X4850000Y-5510000D03*
X5186700Y-2217700D03*
%TO.N,FIRE_COMP*%
X-4130000Y4280000D03*
X5490000Y-5760000D03*
%TO.N,FIRE_SW*%
X-5317800Y-7519200D03*
X3294500Y4971400D03*
%TO.N,FIRE_FREQ*%
X-5930000Y1150000D03*
X5220000Y-7580000D03*
%TO.N,3V3_AON*%
X13373300Y-3595500D03*
X13107800Y6274800D03*
X4350000Y10884000D03*
%TO.N,ACTIVATE_CONFIRM*%
X14709700Y-2878900D03*
%TO.N,ACTIVATE_SET*%
X14710500Y-1333800D03*
%TO.N,BAT_PROT*%
X9736700Y6057600D03*
X12682900Y-312500D03*
X3512200Y14850000D03*
%TO.N,BAT_RAW*%
X475600Y-13275600D03*
X14566700Y1305100D03*
X8877400Y9243600D03*
%TO.N,BOOT0*%
X14708500Y3831800D03*
%TO.N,COMP_SWDCLK*%
X12431000Y-6708500D03*
%TO.N,COMP_SWDIO*%
X11773300Y-6704000D03*
%TO.N,EXT_CAN_RX*%
X13190700Y-2906900D03*
%TO.N,EXT_CAN_TX*%
X13111300Y8450000D03*
X13720200Y-350000D03*
%TO.N,FIN1_AOUT1*%
X9419300Y-6704000D03*
X11593900Y-126700D03*
%TO.N,FIN2_AOUT1*%
X12032900Y-3587900D03*
X13307100Y1280300D03*
%TO.N,FIN3_AOUT1*%
X12990800Y-2063500D03*
X13108800Y2386600D03*
%TO.N,FIN4_AOUT1*%
X11855700Y7695200D03*
X11658800Y4611200D03*
%TO.N,FIN_HALL*%
X11503300Y6697600D03*
X11505600Y10148300D03*
%TO.N,FIN_VREF*%
X11492000Y9461600D03*
%TO.N,GPIO_EXT_0*%
X10750000Y-3593800D03*
X8303400Y13250000D03*
%TO.N,GPIO_EXT_1*%
X9922500Y-2664200D03*
X6706900Y-13950000D03*
%TO.N,GPIO_EXT_2*%
X10750000Y-1975900D03*
X6709500Y-12231800D03*
%TO.N,GPIO_EXT_3*%
X10517500Y-308100D03*
X5950000Y-8396500D03*
%TO.N,JUMP_WAKE*%
X8311700Y12673300D03*
%TO.N,NRST*%
X9986600Y8197500D03*
X6720600Y-13374800D03*
%TO.N,SWO*%
X6715400Y-11329000D03*
X9991200Y9857300D03*
%TO.N,SYS_I2C_SCL*%
X4350000Y-9982400D03*
X8397300Y-5950000D03*
%TO.N,SYS_I2C_SDA*%
X8395700Y-4527600D03*
X5112200Y12673300D03*
%TO.N,SYS_SPI_CS_FIN*%
X10407300Y-5104600D03*
X3512500Y-10849300D03*
%TO.N,SYS_SPI_MISO*%
X2750000Y6097300D03*
X8125200Y1207000D03*
%TO.N,SYS_SPI_MOSI*%
X9548800Y1213000D03*
X3516400Y8450000D03*
%TO.N,SYS_SPI_SCLK*%
X3503700Y9873000D03*
X8125200Y6003500D03*
%TD*%
%TA.AperFunction,Conductor*%
%TO.N,FLEX_GND*%
G36*
X169200Y16494500D02*
G01*
X182600Y16494000D01*
X877500Y16471300D01*
X879500Y16471200D01*
X1142800Y16458300D01*
X1148900Y16457800D01*
X2085200Y16365500D01*
X2091200Y16364800D01*
X2348000Y16326700D01*
X2350000Y16326400D01*
X3051100Y16210700D01*
X3055100Y16210000D01*
X3381000Y16145200D01*
X3385000Y16144300D01*
X4074000Y15983600D01*
X4075900Y15983200D01*
X4331500Y15919100D01*
X4337300Y15917500D01*
X5237800Y15644300D01*
X5243600Y15642400D01*
X5488000Y15554900D01*
X5489900Y15554300D01*
X6156100Y15303500D01*
X6159900Y15302000D01*
X6464700Y15175800D01*
X6468400Y15174200D01*
X7114600Y14881400D01*
X7116500Y14880500D01*
X7353900Y14768200D01*
X7359300Y14765500D01*
X8189000Y14322000D01*
X8194300Y14319000D01*
X8417200Y14185400D01*
X8419000Y14184300D01*
X9024300Y13807900D01*
X9027700Y13805700D01*
X9300100Y13623700D01*
X9303500Y13621300D01*
X9882300Y13206600D01*
X9883900Y13205400D01*
X10093500Y13050000D01*
X10098300Y13046200D01*
X10825100Y12449800D01*
X10829700Y12445900D01*
X11025400Y12268500D01*
X11026900Y12267100D01*
X11542700Y11784000D01*
X11545600Y11781200D01*
X11781200Y11545600D01*
X11784000Y11542700D01*
X12267100Y11026900D01*
X12268500Y11025400D01*
X12445900Y10829700D01*
X12449800Y10825100D01*
X13046200Y10098300D01*
X13050000Y10093500D01*
X13205400Y9883900D01*
X13206600Y9882300D01*
X13621300Y9303500D01*
X13623700Y9300100D01*
X13805700Y9027700D01*
X13807900Y9024300D01*
X14184300Y8419000D01*
X14185400Y8417200D01*
X14319000Y8194300D01*
X14322000Y8189000D01*
X14765500Y7359300D01*
X14768200Y7353900D01*
X14880500Y7116500D01*
X14881400Y7114600D01*
X15174200Y6468400D01*
X15175800Y6464700D01*
X15302000Y6159900D01*
X15303500Y6156100D01*
X15554300Y5489900D01*
X15554900Y5488000D01*
X15642400Y5243600D01*
X15644300Y5237800D01*
X15917500Y4337300D01*
X15919100Y4331500D01*
X15983200Y4075900D01*
X15983600Y4074000D01*
X16144300Y3385000D01*
X16145200Y3381000D01*
X16210000Y3055100D01*
X16210700Y3051100D01*
X16326400Y2350000D01*
X16326700Y2348000D01*
X16364800Y2091200D01*
X16365500Y2085200D01*
X16457800Y1148900D01*
X16458300Y1142800D01*
X16471200Y879500D01*
X16471300Y877500D01*
X16494500Y169200D01*
X16494500Y165200D01*
X16494500Y-165200D01*
X16494500Y-169200D01*
X16471300Y-877500D01*
X16471200Y-879500D01*
X16458300Y-1142800D01*
X16457800Y-1148900D01*
X16365500Y-2085200D01*
X16364800Y-2091200D01*
X16326700Y-2348000D01*
X16326400Y-2350000D01*
X16210700Y-3051100D01*
X16210000Y-3055100D01*
X16145200Y-3381000D01*
X16144300Y-3385000D01*
X15983600Y-4074000D01*
X15983200Y-4075900D01*
X15919100Y-4331500D01*
X15917500Y-4337300D01*
X15644300Y-5237800D01*
X15642400Y-5243600D01*
X15554900Y-5488000D01*
X15554300Y-5489900D01*
X15303500Y-6156100D01*
X15302000Y-6159900D01*
X15175800Y-6464700D01*
X15174200Y-6468400D01*
X14881400Y-7114600D01*
X14880500Y-7116500D01*
X14768200Y-7353900D01*
X14765500Y-7359300D01*
X14322000Y-8189000D01*
X14319000Y-8194300D01*
X14185400Y-8417200D01*
X14184300Y-8419000D01*
X13807900Y-9024300D01*
X13805700Y-9027700D01*
X13623700Y-9300100D01*
X13621300Y-9303500D01*
X13206600Y-9882300D01*
X13205400Y-9883900D01*
X13050000Y-10093500D01*
X13046200Y-10098300D01*
X12449800Y-10825100D01*
X12445900Y-10829700D01*
X12268500Y-11025400D01*
X12267100Y-11026900D01*
X11784000Y-11542700D01*
X11781200Y-11545600D01*
X11545600Y-11781200D01*
X11542700Y-11784000D01*
X11026900Y-12267100D01*
X11025400Y-12268500D01*
X10829700Y-12445900D01*
X10825100Y-12449800D01*
X10098300Y-13046200D01*
X10093500Y-13050000D01*
X9883900Y-13205400D01*
X9882300Y-13206600D01*
X9303500Y-13621300D01*
X9300100Y-13623700D01*
X9027700Y-13805700D01*
X9024300Y-13807900D01*
X8419000Y-14184300D01*
X8417200Y-14185400D01*
X8194300Y-14319000D01*
X8189000Y-14322000D01*
X7359300Y-14765500D01*
X7353900Y-14768200D01*
X7116500Y-14880500D01*
X7114600Y-14881400D01*
X6468400Y-15174200D01*
X6464700Y-15175800D01*
X6159900Y-15302000D01*
X6156100Y-15303500D01*
X5489900Y-15554300D01*
X5488000Y-15554900D01*
X5243600Y-15642400D01*
X5237800Y-15644300D01*
X4337300Y-15917500D01*
X4331500Y-15919100D01*
X4075900Y-15983200D01*
X4074000Y-15983600D01*
X3385000Y-16144300D01*
X3381000Y-16145200D01*
X3055100Y-16210000D01*
X3051100Y-16210700D01*
X2350000Y-16326400D01*
X2348000Y-16326700D01*
X2091200Y-16364800D01*
X2085200Y-16365500D01*
X1148900Y-16457800D01*
X1142800Y-16458300D01*
X879500Y-16471200D01*
X877500Y-16471300D01*
X182600Y-16494000D01*
X169200Y-16494500D01*
X165200Y-16494500D01*
X-165200Y-16494500D01*
X-169200Y-16494500D01*
X-182600Y-16494000D01*
X-877500Y-16471300D01*
X-879500Y-16471200D01*
X-1142800Y-16458300D01*
X-1148900Y-16457800D01*
X-2085200Y-16365500D01*
X-2091200Y-16364800D01*
X-2348000Y-16326700D01*
X-2350000Y-16326400D01*
X-3051100Y-16210700D01*
X-3055100Y-16210000D01*
X-3381000Y-16145200D01*
X-3385000Y-16144300D01*
X-4074000Y-15983600D01*
X-4075900Y-15983200D01*
X-4331500Y-15919100D01*
X-4337300Y-15917500D01*
X-5237800Y-15644300D01*
X-5243600Y-15642400D01*
X-5488000Y-15554900D01*
X-5489900Y-15554300D01*
X-6156100Y-15303500D01*
X-6159900Y-15302000D01*
X-6464700Y-15175800D01*
X-6468400Y-15174200D01*
X-7114600Y-14881400D01*
X-7116500Y-14880500D01*
X-7353900Y-14768200D01*
X-7359300Y-14765500D01*
X-8189000Y-14322000D01*
X-8194300Y-14319000D01*
X-8417200Y-14185400D01*
X-8419000Y-14184300D01*
X-8729600Y-13991200D01*
X-8885800Y-13894000D01*
X6281400Y-13894000D01*
X6281400Y-14006000D01*
X6310400Y-14114200D01*
X6366400Y-14211300D01*
X6445600Y-14290500D01*
X6542700Y-14346500D01*
X6650900Y-14375500D01*
X6762900Y-14375500D01*
X6871100Y-14346500D01*
X6968200Y-14290500D01*
X7047400Y-14211300D01*
X7103400Y-14114200D01*
X7132400Y-14006000D01*
X7132400Y-13894000D01*
X7103400Y-13785800D01*
X7074800Y-13736300D01*
X7058400Y-13668400D01*
X7074800Y-13612300D01*
X7117100Y-13539000D01*
X7146100Y-13430800D01*
X7146100Y-13318800D01*
X7117100Y-13210600D01*
X7061100Y-13113500D01*
X6981900Y-13034300D01*
X6884800Y-12978300D01*
X6776600Y-12949300D01*
X6664600Y-12949300D01*
X6556400Y-12978300D01*
X6459300Y-13034300D01*
X6380100Y-13113500D01*
X6324100Y-13210600D01*
X6295100Y-13318800D01*
X6295100Y-13430800D01*
X6323500Y-13536900D01*
X6324100Y-13539000D01*
X6352700Y-13588500D01*
X6369100Y-13656400D01*
X6352700Y-13712500D01*
X6310400Y-13785800D01*
X6281400Y-13894000D01*
X-8885800Y-13894000D01*
X-9024300Y-13807900D01*
X-9027700Y-13805700D01*
X-9300100Y-13623700D01*
X-9303500Y-13621300D01*
X-9734800Y-13312300D01*
X-9864200Y-13219600D01*
X50100Y-13219600D01*
X50100Y-13331600D01*
X79100Y-13439800D01*
X135100Y-13536900D01*
X214300Y-13616100D01*
X311400Y-13672100D01*
X419600Y-13701100D01*
X531600Y-13701100D01*
X639800Y-13672100D01*
X736900Y-13616100D01*
X816100Y-13536900D01*
X872100Y-13439800D01*
X901100Y-13331600D01*
X901100Y-13219600D01*
X872100Y-13111400D01*
X816100Y-13014300D01*
X736900Y-12935100D01*
X639800Y-12879100D01*
X531600Y-12850100D01*
X419600Y-12850100D01*
X311400Y-12879100D01*
X214300Y-12935100D01*
X135100Y-13014300D01*
X79100Y-13111400D01*
X50100Y-13219600D01*
X-9864200Y-13219600D01*
X-9882300Y-13206600D01*
X-9883900Y-13205400D01*
X-10093500Y-13050000D01*
X-10098300Y-13046200D01*
X-10825100Y-12449800D01*
X-10829700Y-12445900D01*
X-11025400Y-12268500D01*
X-11026900Y-12267100D01*
X-11036400Y-12258200D01*
X-11124400Y-12175800D01*
X6284000Y-12175800D01*
X6284000Y-12287800D01*
X6313000Y-12396000D01*
X6369000Y-12493100D01*
X6448200Y-12572300D01*
X6545300Y-12628300D01*
X6653500Y-12657300D01*
X6765500Y-12657300D01*
X6873700Y-12628300D01*
X6970800Y-12572300D01*
X7050000Y-12493100D01*
X7106000Y-12396000D01*
X7135000Y-12287800D01*
X7135000Y-12175800D01*
X7106000Y-12067600D01*
X7050000Y-11970500D01*
X6970800Y-11891300D01*
X6967600Y-11889500D01*
X6965500Y-11887300D01*
X6964300Y-11886400D01*
X6964500Y-11886200D01*
X6919400Y-11838900D01*
X6906200Y-11770300D01*
X6932100Y-11705500D01*
X6967600Y-11674700D01*
X6967800Y-11674600D01*
X6976700Y-11669500D01*
X7055900Y-11590300D01*
X7111900Y-11493200D01*
X7140900Y-11385000D01*
X7140900Y-11273000D01*
X7111900Y-11164800D01*
X7055900Y-11067700D01*
X6976700Y-10988500D01*
X6879600Y-10932500D01*
X6771400Y-10903500D01*
X6659400Y-10903500D01*
X6551200Y-10932500D01*
X6454100Y-10988500D01*
X6374900Y-11067700D01*
X6318900Y-11164800D01*
X6289900Y-11273000D01*
X6289900Y-11385000D01*
X6318900Y-11493200D01*
X6374900Y-11590300D01*
X6454100Y-11669500D01*
X6457300Y-11671300D01*
X6459400Y-11673500D01*
X6460600Y-11674400D01*
X6460400Y-11674600D01*
X6505500Y-11721900D01*
X6518700Y-11790500D01*
X6492800Y-11855300D01*
X6457300Y-11886100D01*
X6448200Y-11891300D01*
X6369000Y-11970500D01*
X6313000Y-12067600D01*
X6284000Y-12175800D01*
X-11124400Y-12175800D01*
X-11542700Y-11784000D01*
X-11545600Y-11781200D01*
X-11781200Y-11545600D01*
X-11784000Y-11542700D01*
X-12267100Y-11026900D01*
X-12268500Y-11025400D01*
X-12410700Y-10868400D01*
X-12445900Y-10829700D01*
X-12449800Y-10825100D01*
X-12475900Y-10793300D01*
X3087000Y-10793300D01*
X3087000Y-10905300D01*
X3116000Y-11013500D01*
X3172000Y-11110600D01*
X3251200Y-11189800D01*
X3348300Y-11245800D01*
X3456500Y-11274800D01*
X3568500Y-11274800D01*
X3676700Y-11245800D01*
X3773800Y-11189800D01*
X3853000Y-11110600D01*
X3909000Y-11013500D01*
X3938000Y-10905300D01*
X3938000Y-10793300D01*
X3909000Y-10685100D01*
X3853000Y-10588000D01*
X3773800Y-10508800D01*
X3676700Y-10452800D01*
X3568500Y-10423800D01*
X3456500Y-10423800D01*
X3348300Y-10452800D01*
X3251200Y-10508800D01*
X3172000Y-10588000D01*
X3116000Y-10685100D01*
X3087000Y-10793300D01*
X-12475900Y-10793300D01*
X-13046200Y-10098300D01*
X-13050000Y-10093500D01*
X-13125200Y-9992100D01*
X-13173900Y-9926400D01*
X3924500Y-9926400D01*
X3924500Y-10038400D01*
X3953500Y-10146600D01*
X4009500Y-10243700D01*
X4088700Y-10322900D01*
X4185800Y-10378900D01*
X4294000Y-10407900D01*
X4406000Y-10407900D01*
X4514200Y-10378900D01*
X4611300Y-10322900D01*
X4690500Y-10243700D01*
X4746500Y-10146600D01*
X4775500Y-10038400D01*
X4775500Y-9926400D01*
X4746500Y-9818200D01*
X4729100Y-9788000D01*
X8199000Y-9788000D01*
X8199000Y-10010900D01*
X8199000Y-10011000D01*
X8228100Y-10232000D01*
X8285800Y-10447300D01*
X8344100Y-10588000D01*
X8371100Y-10653200D01*
X8482600Y-10846300D01*
X8618300Y-11023100D01*
X8775900Y-11180700D01*
X8860700Y-11245800D01*
X8952700Y-11316400D01*
X9145800Y-11427900D01*
X9275600Y-11481700D01*
X9303500Y-11493200D01*
X9351700Y-11513200D01*
X9567000Y-11570900D01*
X9788000Y-11600000D01*
X9788100Y-11600000D01*
X10010900Y-11600000D01*
X10011000Y-11600000D01*
X10232000Y-11570900D01*
X10447300Y-11513200D01*
X10653200Y-11427900D01*
X10846300Y-11316400D01*
X11023100Y-11180700D01*
X11180700Y-11023100D01*
X11316400Y-10846300D01*
X11427900Y-10653200D01*
X11513200Y-10447300D01*
X11570900Y-10232000D01*
X11600000Y-10011000D01*
X11600000Y-9788000D01*
X11570900Y-9567000D01*
X11513200Y-9351700D01*
X11427900Y-9145800D01*
X11316400Y-8952700D01*
X11193900Y-8793000D01*
X11180700Y-8775900D01*
X11023100Y-8618300D01*
X10846300Y-8482600D01*
X10653200Y-8371100D01*
X10447300Y-8285800D01*
X10232000Y-8228100D01*
X10011000Y-8199000D01*
X9788000Y-8199000D01*
X9567000Y-8228100D01*
X9351700Y-8285800D01*
X9145800Y-8371100D01*
X8952700Y-8482600D01*
X8775900Y-8618300D01*
X8618300Y-8775900D01*
X8482600Y-8952700D01*
X8371100Y-9145800D01*
X8285800Y-9351700D01*
X8228100Y-9567000D01*
X8199000Y-9788000D01*
X4729100Y-9788000D01*
X4690500Y-9721100D01*
X4611300Y-9641900D01*
X4514200Y-9585900D01*
X4406000Y-9556900D01*
X4294000Y-9556900D01*
X4185800Y-9585900D01*
X4088700Y-9641900D01*
X4009500Y-9721100D01*
X3953500Y-9818200D01*
X3924500Y-9926400D01*
X-13173900Y-9926400D01*
X-13205400Y-9883900D01*
X-13206600Y-9882300D01*
X-13621300Y-9303500D01*
X-13623700Y-9300100D01*
X-13805700Y-9027700D01*
X-13807900Y-9024300D01*
X-14184300Y-8419000D01*
X-14185400Y-8417200D01*
X-14319000Y-8194300D01*
X-14322000Y-8189000D01*
X-14683100Y-7513500D01*
X-14710000Y-7463200D01*
X-5743300Y-7463200D01*
X-5743300Y-7575200D01*
X-5714300Y-7683400D01*
X-5658300Y-7780500D01*
X-5579100Y-7859700D01*
X-5482000Y-7915700D01*
X-5373800Y-7944700D01*
X-5353700Y-7944700D01*
X-5286700Y-7964400D01*
X-5240900Y-8017200D01*
X-5231000Y-8086300D01*
X-5233900Y-8100800D01*
X-5245500Y-8144000D01*
X-5245500Y-8256000D01*
X-5216500Y-8364200D01*
X-5160500Y-8461300D01*
X-5081300Y-8540500D01*
X-4984200Y-8596500D01*
X-4876000Y-8625500D01*
X-4764000Y-8625500D01*
X-4655800Y-8596500D01*
X-4558700Y-8540500D01*
X-4479500Y-8461300D01*
X-4423500Y-8364200D01*
X-4417100Y-8340500D01*
X5524500Y-8340500D01*
X5524500Y-8452500D01*
X5553500Y-8560700D01*
X5609500Y-8657800D01*
X5688700Y-8737000D01*
X5785800Y-8793000D01*
X5894000Y-8822000D01*
X6006000Y-8822000D01*
X6114200Y-8793000D01*
X6211300Y-8737000D01*
X6290500Y-8657800D01*
X6346500Y-8560700D01*
X6375500Y-8452500D01*
X6375500Y-8340500D01*
X6346500Y-8232300D01*
X6290500Y-8135200D01*
X6211300Y-8056000D01*
X6144000Y-8017200D01*
X6114200Y-8000000D01*
X6006000Y-7971000D01*
X5894000Y-7971000D01*
X5785800Y-8000000D01*
X5704600Y-8046800D01*
X5704600Y-8046900D01*
X5688700Y-8056000D01*
X5624900Y-8119800D01*
X5624900Y-8119900D01*
X5609500Y-8135200D01*
X5553500Y-8232300D01*
X5524500Y-8340500D01*
X-4417100Y-8340500D01*
X-4394500Y-8256000D01*
X-4394500Y-8144000D01*
X-4423500Y-8035800D01*
X-4479500Y-7938700D01*
X-4558700Y-7859500D01*
X-4655800Y-7803500D01*
X-4764000Y-7774500D01*
X-4784100Y-7774500D01*
X-4851100Y-7754800D01*
X-4896900Y-7702000D01*
X-4906800Y-7632900D01*
X-4903900Y-7618400D01*
X-4892300Y-7575200D01*
X-4892300Y-7524000D01*
X4794500Y-7524000D01*
X4794500Y-7636000D01*
X4823500Y-7744200D01*
X4879500Y-7841300D01*
X4958700Y-7920500D01*
X5055800Y-7976500D01*
X5164000Y-8005500D01*
X5276000Y-8005500D01*
X5384200Y-7976500D01*
X5481300Y-7920500D01*
X5560500Y-7841300D01*
X5616500Y-7744200D01*
X5645500Y-7636000D01*
X5645500Y-7524000D01*
X5616500Y-7415800D01*
X5560500Y-7318700D01*
X5481300Y-7239500D01*
X5384200Y-7183500D01*
X5276000Y-7154500D01*
X5164000Y-7154500D01*
X5055800Y-7183500D01*
X4958700Y-7239500D01*
X4879500Y-7318700D01*
X4823500Y-7415800D01*
X4794500Y-7524000D01*
X-4892300Y-7524000D01*
X-4892300Y-7463200D01*
X-4921300Y-7355000D01*
X-4977300Y-7257900D01*
X-5056500Y-7178700D01*
X-5135300Y-7133200D01*
X-5153600Y-7122700D01*
X-5261800Y-7093700D01*
X-5373800Y-7093700D01*
X-5482000Y-7122700D01*
X-5493800Y-7129500D01*
X-5579100Y-7178700D01*
X-5658300Y-7257900D01*
X-5714300Y-7355000D01*
X-5743300Y-7463200D01*
X-14710000Y-7463200D01*
X-14765500Y-7359300D01*
X-14768200Y-7353900D01*
X-14880500Y-7116500D01*
X-14881400Y-7114600D01*
X-14917900Y-7034000D01*
X-4195500Y-7034000D01*
X-4195500Y-7146000D01*
X-4166500Y-7254200D01*
X-4110500Y-7351300D01*
X-4031300Y-7430500D01*
X-3934200Y-7486500D01*
X-3826000Y-7515500D01*
X-3714000Y-7515500D01*
X-3605800Y-7486500D01*
X-3508700Y-7430500D01*
X-3429500Y-7351300D01*
X-3373500Y-7254200D01*
X-3344500Y-7146000D01*
X-3344500Y-7034000D01*
X-3373500Y-6925800D01*
X-3429500Y-6828700D01*
X-3508700Y-6749500D01*
X-3512700Y-6747200D01*
X-3605800Y-6693500D01*
X-3714000Y-6664500D01*
X-3826000Y-6664500D01*
X-3934200Y-6693500D01*
X-4031300Y-6749500D01*
X-4110500Y-6828700D01*
X-4166500Y-6925800D01*
X-4195500Y-7034000D01*
X-14917900Y-7034000D01*
X-15092800Y-6648000D01*
X8993800Y-6648000D01*
X8993800Y-6760000D01*
X9022800Y-6868200D01*
X9078800Y-6965300D01*
X9158000Y-7044500D01*
X9255100Y-7100500D01*
X9363300Y-7129500D01*
X9475300Y-7129500D01*
X9583500Y-7100500D01*
X9680600Y-7044500D01*
X9759800Y-6965300D01*
X9815800Y-6868200D01*
X9844800Y-6760000D01*
X9844800Y-6648000D01*
X11347800Y-6648000D01*
X11347800Y-6760000D01*
X11376800Y-6868200D01*
X11432800Y-6965300D01*
X11512000Y-7044500D01*
X11609100Y-7100500D01*
X11717300Y-7129500D01*
X11829300Y-7129500D01*
X11937500Y-7100500D01*
X12034600Y-7044500D01*
X12036600Y-7043300D01*
X12104500Y-7026800D01*
X12161700Y-7046600D01*
X12162700Y-7044900D01*
X12169700Y-7049000D01*
X12266800Y-7105000D01*
X12375000Y-7134000D01*
X12487000Y-7134000D01*
X12595200Y-7105000D01*
X12692300Y-7049000D01*
X12771500Y-6969800D01*
X12827500Y-6872700D01*
X12856500Y-6764500D01*
X12856500Y-6652500D01*
X12827500Y-6544300D01*
X12771500Y-6447200D01*
X12692300Y-6368000D01*
X12595200Y-6312000D01*
X12487000Y-6283000D01*
X12375000Y-6283000D01*
X12266800Y-6312000D01*
X12167700Y-6369200D01*
X12099800Y-6385700D01*
X12042600Y-6365900D01*
X12041600Y-6367600D01*
X11937500Y-6307500D01*
X11829300Y-6278500D01*
X11717300Y-6278500D01*
X11609100Y-6307500D01*
X11512000Y-6363500D01*
X11432800Y-6442700D01*
X11376800Y-6539800D01*
X11347800Y-6648000D01*
X9844800Y-6648000D01*
X9815800Y-6539800D01*
X9759800Y-6442700D01*
X9680600Y-6363500D01*
X9583500Y-6307500D01*
X9475300Y-6278500D01*
X9363300Y-6278500D01*
X9255100Y-6307500D01*
X9158000Y-6363500D01*
X9078800Y-6442700D01*
X9022800Y-6539800D01*
X8993800Y-6648000D01*
X-15092800Y-6648000D01*
X-15174200Y-6468400D01*
X-15175800Y-6464700D01*
X-15302000Y-6159900D01*
X-15303500Y-6156100D01*
X-15554300Y-5489900D01*
X-15554900Y-5488100D01*
X-15555000Y-5487800D01*
X-15555000Y-5487700D01*
X-15555100Y-5487600D01*
X-15567100Y-5454000D01*
X4424500Y-5454000D01*
X4424500Y-5566000D01*
X4446700Y-5648700D01*
X4453500Y-5674200D01*
X4461900Y-5688700D01*
X4509500Y-5771300D01*
X4588700Y-5850500D01*
X4685800Y-5906500D01*
X4794000Y-5935500D01*
X4906000Y-5935500D01*
X4982100Y-5915100D01*
X5052000Y-5916800D01*
X5109800Y-5955900D01*
X5121600Y-5972900D01*
X5149500Y-6021300D01*
X5228700Y-6100500D01*
X5325800Y-6156500D01*
X5434000Y-6185500D01*
X5546000Y-6185500D01*
X5654200Y-6156500D01*
X5751300Y-6100500D01*
X5830500Y-6021300D01*
X5886500Y-5924200D01*
X5894600Y-5894000D01*
X7971800Y-5894000D01*
X7971800Y-6006000D01*
X8000800Y-6114200D01*
X8056800Y-6211300D01*
X8136000Y-6290500D01*
X8233100Y-6346500D01*
X8341300Y-6375500D01*
X8453300Y-6375500D01*
X8561500Y-6346500D01*
X8658600Y-6290500D01*
X8737800Y-6211300D01*
X8793800Y-6114200D01*
X8822800Y-6006000D01*
X8822800Y-5894000D01*
X8812100Y-5854000D01*
X13574500Y-5854000D01*
X13574500Y-5966000D01*
X13603500Y-6074200D01*
X13659500Y-6171300D01*
X13738700Y-6250500D01*
X13835800Y-6306500D01*
X13944000Y-6335500D01*
X14056000Y-6335500D01*
X14164200Y-6306500D01*
X14261300Y-6250500D01*
X14340500Y-6171300D01*
X14396500Y-6074200D01*
X14425500Y-5966000D01*
X14425500Y-5854000D01*
X14396500Y-5745800D01*
X14340500Y-5648700D01*
X14261300Y-5569500D01*
X14164200Y-5513500D01*
X14056000Y-5484500D01*
X13944000Y-5484500D01*
X13835800Y-5513500D01*
X13738700Y-5569500D01*
X13659500Y-5648700D01*
X13603500Y-5745800D01*
X13574500Y-5854000D01*
X8812100Y-5854000D01*
X8793800Y-5785800D01*
X8737800Y-5688700D01*
X8658600Y-5609500D01*
X8561500Y-5553500D01*
X8453300Y-5524500D01*
X8341300Y-5524500D01*
X8233100Y-5553500D01*
X8136000Y-5609500D01*
X8056800Y-5688700D01*
X8000800Y-5785800D01*
X7971800Y-5894000D01*
X5894600Y-5894000D01*
X5915500Y-5816000D01*
X5915500Y-5704000D01*
X5886500Y-5595800D01*
X5830500Y-5498700D01*
X5751300Y-5419500D01*
X5686600Y-5382200D01*
X5654200Y-5363500D01*
X5546000Y-5334500D01*
X5434000Y-5334500D01*
X5357900Y-5354900D01*
X5288000Y-5353200D01*
X5230200Y-5314100D01*
X5218400Y-5297100D01*
X5190500Y-5248700D01*
X5111300Y-5169500D01*
X5014200Y-5113500D01*
X4906000Y-5084500D01*
X4794000Y-5084500D01*
X4685800Y-5113500D01*
X4588700Y-5169500D01*
X4509500Y-5248700D01*
X4453500Y-5345800D01*
X4424500Y-5454000D01*
X-15567100Y-5454000D01*
X-15642400Y-5243600D01*
X-15644300Y-5237800D01*
X-15701700Y-5048600D01*
X9981800Y-5048600D01*
X9981800Y-5160600D01*
X10010800Y-5268800D01*
X10066800Y-5365900D01*
X10146000Y-5445100D01*
X10243100Y-5501100D01*
X10351300Y-5530100D01*
X10463300Y-5530100D01*
X10571500Y-5501100D01*
X10668600Y-5445100D01*
X10747800Y-5365900D01*
X10803800Y-5268800D01*
X10832800Y-5160600D01*
X10832800Y-5048600D01*
X10803800Y-4940400D01*
X10747800Y-4843300D01*
X10668600Y-4764100D01*
X10571500Y-4708100D01*
X10463300Y-4679100D01*
X10351300Y-4679100D01*
X10243100Y-4708100D01*
X10146000Y-4764100D01*
X10066800Y-4843300D01*
X10010800Y-4940400D01*
X9981800Y-5048600D01*
X-15701700Y-5048600D01*
X-15907000Y-4371900D01*
X-15915500Y-4344000D01*
X4624500Y-4344000D01*
X4624500Y-4456000D01*
X4653500Y-4564200D01*
X4709500Y-4661300D01*
X4788700Y-4740500D01*
X4885800Y-4796500D01*
X4994000Y-4825500D01*
X5106000Y-4825500D01*
X5214200Y-4796500D01*
X5311300Y-4740500D01*
X5390500Y-4661300D01*
X5446500Y-4564200D01*
X5471300Y-4471600D01*
X7970200Y-4471600D01*
X7970200Y-4583600D01*
X7999200Y-4691800D01*
X8055200Y-4788900D01*
X8134400Y-4868100D01*
X8231500Y-4924100D01*
X8339700Y-4953100D01*
X8451700Y-4953100D01*
X8559900Y-4924100D01*
X8657000Y-4868100D01*
X8736200Y-4788900D01*
X8792200Y-4691800D01*
X8821200Y-4583600D01*
X8821200Y-4471600D01*
X8792200Y-4363400D01*
X8736200Y-4266300D01*
X8657000Y-4187100D01*
X8559900Y-4131100D01*
X8451700Y-4102100D01*
X8339700Y-4102100D01*
X8231500Y-4131100D01*
X8134400Y-4187100D01*
X8055200Y-4266300D01*
X7999200Y-4363400D01*
X7970200Y-4471600D01*
X5471300Y-4471600D01*
X5475500Y-4456000D01*
X5475500Y-4344000D01*
X5446500Y-4235800D01*
X5390500Y-4138700D01*
X5311300Y-4059500D01*
X5241600Y-4019300D01*
X5214200Y-4003500D01*
X5106000Y-3974500D01*
X4994000Y-3974500D01*
X4885800Y-4003500D01*
X4788700Y-4059500D01*
X4709500Y-4138700D01*
X4653500Y-4235800D01*
X4624500Y-4344000D01*
X-15915500Y-4344000D01*
X-15917500Y-4337300D01*
X-15919100Y-4331500D01*
X-15983200Y-4075900D01*
X-15983600Y-4074000D01*
X-16104000Y-3557800D01*
X-16108700Y-3537800D01*
X10324500Y-3537800D01*
X10324500Y-3649800D01*
X10353500Y-3758000D01*
X10409500Y-3855100D01*
X10488700Y-3934300D01*
X10585800Y-3990300D01*
X10694000Y-4019300D01*
X10806000Y-4019300D01*
X10914200Y-3990300D01*
X11011300Y-3934300D01*
X11090500Y-3855100D01*
X11146500Y-3758000D01*
X11175500Y-3649800D01*
X11175500Y-3537800D01*
X11173900Y-3531900D01*
X11607400Y-3531900D01*
X11607400Y-3643900D01*
X11609400Y-3651500D01*
X11636400Y-3752100D01*
X11640800Y-3759700D01*
X11692400Y-3849200D01*
X11771600Y-3928400D01*
X11868700Y-3984400D01*
X11976900Y-4013400D01*
X12088900Y-4013400D01*
X12197100Y-3984400D01*
X12294200Y-3928400D01*
X12373400Y-3849200D01*
X12429400Y-3752100D01*
X12458400Y-3643900D01*
X12458400Y-3531900D01*
X12429400Y-3423700D01*
X12373400Y-3326600D01*
X12294200Y-3247400D01*
X12197100Y-3191400D01*
X12088900Y-3162400D01*
X11976900Y-3162400D01*
X11868700Y-3191400D01*
X11771600Y-3247400D01*
X11692400Y-3326600D01*
X11636400Y-3423700D01*
X11607400Y-3531900D01*
X11173900Y-3531900D01*
X11146500Y-3429600D01*
X11090500Y-3332500D01*
X11011300Y-3253300D01*
X10918900Y-3200000D01*
X10914200Y-3197300D01*
X10806000Y-3168300D01*
X10694000Y-3168300D01*
X10585800Y-3197300D01*
X10488700Y-3253300D01*
X10409500Y-3332500D01*
X10353500Y-3429600D01*
X10324500Y-3537800D01*
X-16108700Y-3537800D01*
X-16144300Y-3385000D01*
X-16145200Y-3381000D01*
X-16210000Y-3055100D01*
X-16210700Y-3051100D01*
X-16326400Y-2350000D01*
X-16326700Y-2348000D01*
X-16352900Y-2171700D01*
X-16354400Y-2161700D01*
X4761200Y-2161700D01*
X4761200Y-2273700D01*
X4790200Y-2381900D01*
X4846200Y-2479000D01*
X4925400Y-2558200D01*
X5022500Y-2614200D01*
X5130700Y-2643200D01*
X5242700Y-2643200D01*
X5350900Y-2614200D01*
X5361400Y-2608200D01*
X9497000Y-2608200D01*
X9497000Y-2720200D01*
X9526000Y-2828400D01*
X9582000Y-2925500D01*
X9661200Y-3004700D01*
X9758300Y-3060700D01*
X9866500Y-3089700D01*
X9978500Y-3089700D01*
X10086700Y-3060700D01*
X10183800Y-3004700D01*
X10263000Y-2925500D01*
X10319000Y-2828400D01*
X10348000Y-2720200D01*
X10348000Y-2608200D01*
X10319000Y-2500000D01*
X10263000Y-2402900D01*
X10183800Y-2323700D01*
X10171100Y-2316400D01*
X10086700Y-2267700D01*
X9978500Y-2238700D01*
X9866500Y-2238700D01*
X9758300Y-2267700D01*
X9661200Y-2323700D01*
X9582000Y-2402900D01*
X9526000Y-2500000D01*
X9497000Y-2608200D01*
X5361400Y-2608200D01*
X5448000Y-2558200D01*
X5527200Y-2479000D01*
X5583200Y-2381900D01*
X5612200Y-2273700D01*
X5612200Y-2161700D01*
X5583200Y-2053500D01*
X5527200Y-1956400D01*
X5490600Y-1919900D01*
X10324500Y-1919900D01*
X10324500Y-2031900D01*
X10353500Y-2140100D01*
X10362200Y-2155200D01*
X10409500Y-2237200D01*
X10488700Y-2316400D01*
X10496600Y-2321000D01*
X10496700Y-2321000D01*
X10543500Y-2348000D01*
X10585800Y-2372400D01*
X10694000Y-2401400D01*
X10806000Y-2401400D01*
X10914200Y-2372400D01*
X11011300Y-2316400D01*
X11090500Y-2237200D01*
X11146500Y-2140100D01*
X11175500Y-2031900D01*
X11175500Y-2007500D01*
X12565300Y-2007500D01*
X12565300Y-2119500D01*
X12594300Y-2227700D01*
X12650300Y-2324800D01*
X12729500Y-2404000D01*
X12801400Y-2445500D01*
X12819300Y-2455800D01*
X12867500Y-2506400D01*
X12880700Y-2575000D01*
X12855100Y-2639100D01*
X12855200Y-2639200D01*
X12854900Y-2639600D01*
X12854800Y-2639800D01*
X12854000Y-2640700D01*
X12850200Y-2645600D01*
X12794200Y-2742700D01*
X12765200Y-2850900D01*
X12765200Y-2962900D01*
X12794200Y-3071100D01*
X12850200Y-3168200D01*
X12929400Y-3247400D01*
X12937200Y-3251900D01*
X12985400Y-3302400D01*
X12998600Y-3371000D01*
X12982600Y-3421200D01*
X12976800Y-3431300D01*
X12947800Y-3539500D01*
X12947800Y-3651500D01*
X12976800Y-3759700D01*
X13032800Y-3856800D01*
X13112000Y-3936000D01*
X13209100Y-3992000D01*
X13317300Y-4021000D01*
X13429300Y-4021000D01*
X13537500Y-3992000D01*
X13634600Y-3936000D01*
X13713800Y-3856800D01*
X13769800Y-3759700D01*
X13798800Y-3651500D01*
X13798800Y-3539500D01*
X13769800Y-3431300D01*
X13713800Y-3334200D01*
X13634600Y-3255000D01*
X13629100Y-3251900D01*
X13626800Y-3250500D01*
X13578600Y-3200000D01*
X13565400Y-3131400D01*
X13581400Y-3081100D01*
X13587200Y-3071100D01*
X13616200Y-2962900D01*
X13616200Y-2850900D01*
X13608700Y-2822900D01*
X14284200Y-2822900D01*
X14284200Y-2934900D01*
X14313200Y-3043100D01*
X14369200Y-3140200D01*
X14448400Y-3219400D01*
X14545500Y-3275400D01*
X14653700Y-3304400D01*
X14765700Y-3304400D01*
X14873900Y-3275400D01*
X14971000Y-3219400D01*
X15050200Y-3140200D01*
X15106200Y-3043100D01*
X15135200Y-2934900D01*
X15135200Y-2822900D01*
X15106200Y-2714700D01*
X15050200Y-2617600D01*
X14971000Y-2538400D01*
X14885400Y-2489000D01*
X14873900Y-2482400D01*
X14765700Y-2453400D01*
X14653700Y-2453400D01*
X14545500Y-2482400D01*
X14448400Y-2538400D01*
X14369200Y-2617600D01*
X14313200Y-2714700D01*
X14284200Y-2822900D01*
X13608700Y-2822900D01*
X13587200Y-2742700D01*
X13531200Y-2645600D01*
X13452000Y-2566400D01*
X13362200Y-2514600D01*
X13314000Y-2464000D01*
X13300800Y-2395400D01*
X13326400Y-2331300D01*
X13326300Y-2331200D01*
X13326600Y-2330800D01*
X13326700Y-2330600D01*
X13327500Y-2329700D01*
X13331300Y-2324800D01*
X13387300Y-2227700D01*
X13416300Y-2119500D01*
X13416300Y-2007500D01*
X13387300Y-1899300D01*
X13331300Y-1802200D01*
X13252100Y-1723000D01*
X13155000Y-1667000D01*
X13046800Y-1638000D01*
X12934800Y-1638000D01*
X12826600Y-1667000D01*
X12729500Y-1723000D01*
X12650300Y-1802200D01*
X12594300Y-1899300D01*
X12565300Y-2007500D01*
X11175500Y-2007500D01*
X11175500Y-1919900D01*
X11146500Y-1811700D01*
X11090500Y-1714600D01*
X11011300Y-1635400D01*
X10914200Y-1579400D01*
X10806000Y-1550400D01*
X10694000Y-1550400D01*
X10585800Y-1579400D01*
X10488700Y-1635400D01*
X10409500Y-1714600D01*
X10353500Y-1811700D01*
X10324500Y-1919900D01*
X5490600Y-1919900D01*
X5448000Y-1877200D01*
X5350900Y-1821200D01*
X5242700Y-1792200D01*
X5130700Y-1792200D01*
X5022500Y-1821200D01*
X4925400Y-1877200D01*
X4846200Y-1956400D01*
X4790200Y-2053500D01*
X4761200Y-2161700D01*
X-16354400Y-2161700D01*
X-16364800Y-2091200D01*
X-16365500Y-2085200D01*
X-16442200Y-1307400D01*
X137100Y-1307400D01*
X137100Y-1419400D01*
X166100Y-1527600D01*
X222100Y-1624700D01*
X301300Y-1703900D01*
X398400Y-1759900D01*
X506600Y-1788900D01*
X618600Y-1788900D01*
X726800Y-1759900D01*
X823900Y-1703900D01*
X903100Y-1624700D01*
X959100Y-1527600D01*
X988100Y-1419400D01*
X988100Y-1307400D01*
X980200Y-1277800D01*
X14285000Y-1277800D01*
X14285000Y-1389800D01*
X14314000Y-1498000D01*
X14370000Y-1595100D01*
X14449200Y-1674300D01*
X14546300Y-1730300D01*
X14654500Y-1759300D01*
X14766500Y-1759300D01*
X14874700Y-1730300D01*
X14971800Y-1674300D01*
X15051000Y-1595100D01*
X15107000Y-1498000D01*
X15136000Y-1389800D01*
X15136000Y-1277800D01*
X15107000Y-1169600D01*
X15051000Y-1072500D01*
X14971800Y-993300D01*
X14880300Y-940500D01*
X14874700Y-937300D01*
X14766500Y-908300D01*
X14654500Y-908300D01*
X14546300Y-937300D01*
X14449200Y-993300D01*
X14370000Y-1072500D01*
X14314000Y-1169600D01*
X14285000Y-1277800D01*
X980200Y-1277800D01*
X959100Y-1199200D01*
X903100Y-1102100D01*
X823900Y-1022900D01*
X726800Y-966900D01*
X618600Y-937900D01*
X506600Y-937900D01*
X398400Y-966900D01*
X301300Y-1022900D01*
X222100Y-1102100D01*
X166100Y-1199200D01*
X137100Y-1307400D01*
X-16442200Y-1307400D01*
X-16457800Y-1148900D01*
X-16458300Y-1142800D01*
X-16471200Y-879500D01*
X-16471300Y-877500D01*
X-16482200Y-544000D01*
X-7095500Y-544000D01*
X-7095500Y-656000D01*
X-7066500Y-764200D01*
X-7010500Y-861300D01*
X-6931300Y-940500D01*
X-6834200Y-996500D01*
X-6726000Y-1025500D01*
X-6614000Y-1025500D01*
X-6505800Y-996500D01*
X-6408700Y-940500D01*
X-6329500Y-861300D01*
X-6273500Y-764200D01*
X-6244500Y-656000D01*
X-6244500Y-544000D01*
X-6273500Y-435800D01*
X-6329500Y-338700D01*
X-6408700Y-259500D01*
X-6505800Y-203500D01*
X-6614000Y-174500D01*
X-6726000Y-174500D01*
X-6834200Y-203500D01*
X-6856300Y-216300D01*
X-6931300Y-259500D01*
X-7010500Y-338700D01*
X-7066500Y-435800D01*
X-7095500Y-544000D01*
X-16482200Y-544000D01*
X-16482300Y-539900D01*
X-16494500Y-169200D01*
X-16494500Y-165200D01*
X-16494500Y165200D01*
X-16494500Y169200D01*
X-16471300Y877500D01*
X-16471200Y879500D01*
X-16458300Y1142800D01*
X-16457800Y1148900D01*
X-16452200Y1206000D01*
X-6355500Y1206000D01*
X-6355500Y1094000D01*
X-6326500Y985800D01*
X-6270500Y888700D01*
X-6191300Y809500D01*
X-6094200Y753500D01*
X-5986000Y724500D01*
X-5874000Y724500D01*
X-5765800Y753500D01*
X-5668700Y809500D01*
X-5589500Y888700D01*
X-5533500Y985800D01*
X-5504500Y1094000D01*
X-5504500Y1206000D01*
X-5509400Y1224300D01*
X-5533500Y1314200D01*
X-5556600Y1354200D01*
X-5573000Y1422100D01*
X-5550200Y1488100D01*
X-5495300Y1531300D01*
X-5481300Y1535900D01*
X-5460300Y1541600D01*
X-5415800Y1553500D01*
X-5318700Y1609500D01*
X-5239500Y1688700D01*
X-5183500Y1785800D01*
X-5154700Y1893100D01*
X-2589000Y1893100D01*
X-2589000Y1781100D01*
X-2560000Y1672900D01*
X-2504000Y1575800D01*
X-2424800Y1496600D01*
X-2327700Y1440600D01*
X-2219500Y1411600D01*
X-2107500Y1411600D01*
X-1999300Y1440600D01*
X-1902200Y1496600D01*
X-1823000Y1575800D01*
X-1767000Y1672900D01*
X-1738000Y1781100D01*
X-1738000Y1893100D01*
X-1750800Y1940900D01*
X-1767000Y2001300D01*
X-1769700Y2006000D01*
X-1785700Y2033700D01*
X-1823000Y2098400D01*
X-1902200Y2177600D01*
X-1999300Y2233600D01*
X-2107500Y2262600D01*
X-2219500Y2262600D01*
X-2327700Y2233600D01*
X-2424800Y2177600D01*
X-2504000Y2098400D01*
X-2560000Y2001300D01*
X-2589000Y1893100D01*
X-5154700Y1893100D01*
X-5154500Y1894000D01*
X-5154500Y2006000D01*
X-5156600Y2013900D01*
X-5183500Y2114200D01*
X-5189900Y2125300D01*
X-5239500Y2211300D01*
X-5318700Y2290500D01*
X-5415800Y2346500D01*
X-5524000Y2375500D01*
X-5636000Y2375500D01*
X-5744200Y2346500D01*
X-5841300Y2290500D01*
X-5920500Y2211300D01*
X-5976500Y2114200D01*
X-6005500Y2006000D01*
X-6005500Y1894000D01*
X-5976500Y1785800D01*
X-5973800Y1781100D01*
X-5953400Y1745800D01*
X-5937000Y1677900D01*
X-5959800Y1611900D01*
X-6014700Y1568700D01*
X-6028700Y1564100D01*
X-6094200Y1546500D01*
X-6191300Y1490500D01*
X-6270500Y1411300D01*
X-6326500Y1314200D01*
X-6355500Y1206000D01*
X-16452200Y1206000D01*
X-16450200Y1226300D01*
X-16365500Y2085200D01*
X-16364800Y2091200D01*
X-16326700Y2348000D01*
X-16326400Y2350000D01*
X-16210700Y3051100D01*
X-16210000Y3055100D01*
X-16209300Y3058700D01*
X-890400Y3058700D01*
X-890400Y2946700D01*
X-861400Y2838500D01*
X-805400Y2741400D01*
X-763900Y2700000D01*
X-736300Y2672400D01*
X-702800Y2611000D01*
X-700000Y2584700D01*
X-700000Y-700000D01*
X2700000Y-700000D01*
X2700000Y-252100D01*
X10092000Y-252100D01*
X10092000Y-364100D01*
X10121000Y-472300D01*
X10177000Y-569400D01*
X10256200Y-648600D01*
X10353300Y-704600D01*
X10461500Y-733600D01*
X10573500Y-733600D01*
X10681700Y-704600D01*
X10778800Y-648600D01*
X10858000Y-569400D01*
X10914000Y-472300D01*
X10943000Y-364100D01*
X10943000Y-252100D01*
X10914000Y-143900D01*
X10871800Y-70700D01*
X11168400Y-70700D01*
X11168400Y-182700D01*
X11188300Y-256800D01*
X11189000Y-259500D01*
X11197400Y-290900D01*
X11253400Y-388000D01*
X11332600Y-467200D01*
X11429700Y-523200D01*
X11537900Y-552200D01*
X11649900Y-552200D01*
X11758100Y-523200D01*
X11855200Y-467200D01*
X11934400Y-388000D01*
X11990400Y-290900D01*
X11999600Y-256500D01*
X12257400Y-256500D01*
X12257400Y-368500D01*
X12286400Y-476700D01*
X12342400Y-573800D01*
X12421600Y-653000D01*
X12518700Y-709000D01*
X12626900Y-738000D01*
X12738900Y-738000D01*
X12847100Y-709000D01*
X12944200Y-653000D01*
X13023400Y-573800D01*
X13079400Y-476700D01*
X13081800Y-470800D01*
X13125700Y-416400D01*
X13192000Y-394400D01*
X13259700Y-411600D01*
X13307300Y-462800D01*
X13316200Y-486200D01*
X13323700Y-514200D01*
X13338500Y-539900D01*
X13379700Y-611300D01*
X13458900Y-690500D01*
X13556000Y-746500D01*
X13664200Y-775500D01*
X13776200Y-775500D01*
X13884400Y-746500D01*
X13981500Y-690500D01*
X14060700Y-611300D01*
X14116700Y-514200D01*
X14145700Y-406000D01*
X14145700Y-294000D01*
X14116700Y-185800D01*
X14060700Y-88700D01*
X13981500Y-9500D01*
X13884400Y46500D01*
X13776200Y75500D01*
X13664200Y75500D01*
X13556000Y46500D01*
X13540400Y37500D01*
X13458900Y-9500D01*
X13379700Y-88700D01*
X13323700Y-185800D01*
X13321300Y-191700D01*
X13277400Y-246100D01*
X13211100Y-268100D01*
X13143400Y-250900D01*
X13095800Y-199700D01*
X13086900Y-176300D01*
X13079400Y-148300D01*
X13023400Y-51200D01*
X12944200Y28000D01*
X12847100Y84000D01*
X12738900Y113000D01*
X12626900Y113000D01*
X12518700Y84000D01*
X12421600Y28000D01*
X12342400Y-51200D01*
X12286400Y-148300D01*
X12257400Y-256500D01*
X11999600Y-256500D01*
X12019400Y-182700D01*
X12019400Y-70700D01*
X11990400Y37500D01*
X11934400Y134600D01*
X11855200Y213800D01*
X11758100Y269800D01*
X11649900Y298800D01*
X11537900Y298800D01*
X11429700Y269800D01*
X11332600Y213800D01*
X11253400Y134600D01*
X11226800Y88400D01*
X11202600Y46500D01*
X11197400Y37500D01*
X11168400Y-70700D01*
X10871800Y-70700D01*
X10858000Y-46800D01*
X10778800Y32400D01*
X10681700Y88400D01*
X10573500Y117400D01*
X10461500Y117400D01*
X10353300Y88400D01*
X10256200Y32400D01*
X10177000Y-46800D01*
X10121000Y-143900D01*
X10092000Y-252100D01*
X2700000Y-252100D01*
X2700000Y506000D01*
X3054500Y506000D01*
X3054500Y394000D01*
X3083500Y285800D01*
X3139500Y188700D01*
X3218700Y109500D01*
X3315800Y53500D01*
X3424000Y24500D01*
X3536000Y24500D01*
X3644200Y53500D01*
X3741300Y109500D01*
X3820500Y188700D01*
X3876500Y285800D01*
X3905500Y394000D01*
X3905500Y506000D01*
X3876500Y614200D01*
X3820500Y711300D01*
X3741300Y790500D01*
X3644200Y846500D01*
X3536000Y875500D01*
X3424000Y875500D01*
X3315800Y846500D01*
X3218700Y790500D01*
X3139500Y711300D01*
X3083500Y614200D01*
X3054500Y506000D01*
X2700000Y506000D01*
X2700000Y1263000D01*
X7699700Y1263000D01*
X7699700Y1151000D01*
X7728700Y1042800D01*
X7784700Y945700D01*
X7863900Y866500D01*
X7961000Y810500D01*
X8069200Y781500D01*
X8181200Y781500D01*
X8289400Y810500D01*
X8386500Y866500D01*
X8465700Y945700D01*
X8521700Y1042800D01*
X8550700Y1151000D01*
X8550700Y1263000D01*
X8549100Y1269000D01*
X9123300Y1269000D01*
X9123300Y1157000D01*
X9152300Y1048800D01*
X9208300Y951700D01*
X9287500Y872500D01*
X9384600Y816500D01*
X9492800Y787500D01*
X9604800Y787500D01*
X9713000Y816500D01*
X9810100Y872500D01*
X9889300Y951700D01*
X9945300Y1048800D01*
X9974300Y1157000D01*
X9974300Y1269000D01*
X9956300Y1336300D01*
X12881600Y1336300D01*
X12881600Y1224300D01*
X12910600Y1116100D01*
X12966600Y1019000D01*
X13045800Y939800D01*
X13142900Y883800D01*
X13251100Y854800D01*
X13363100Y854800D01*
X13471300Y883800D01*
X13479900Y888700D01*
X13514300Y908600D01*
X13568400Y939800D01*
X13647600Y1019000D01*
X13703600Y1116100D01*
X13732600Y1224300D01*
X13732600Y1336300D01*
X13726000Y1361100D01*
X14141200Y1361100D01*
X14141200Y1249100D01*
X14170200Y1140900D01*
X14226200Y1043800D01*
X14305400Y964600D01*
X14402500Y908600D01*
X14510700Y879600D01*
X14622700Y879600D01*
X14730900Y908600D01*
X14828000Y964600D01*
X14907200Y1043800D01*
X14963200Y1140900D01*
X14992200Y1249100D01*
X14992200Y1361100D01*
X14963200Y1469300D01*
X14907200Y1566400D01*
X14828000Y1645600D01*
X14730900Y1701600D01*
X14622700Y1730600D01*
X14510700Y1730600D01*
X14402500Y1701600D01*
X14305400Y1645600D01*
X14226200Y1566400D01*
X14170200Y1469300D01*
X14143900Y1371200D01*
X14141200Y1361100D01*
X13726000Y1361100D01*
X13703600Y1444500D01*
X13647600Y1541600D01*
X13568400Y1620800D01*
X13471300Y1676800D01*
X13363100Y1705800D01*
X13251100Y1705800D01*
X13142900Y1676800D01*
X13045800Y1620800D01*
X12966600Y1541600D01*
X12910600Y1444500D01*
X12881600Y1336300D01*
X9956300Y1336300D01*
X9945300Y1377200D01*
X9889300Y1474300D01*
X9880100Y1483500D01*
X9871000Y1502800D01*
X9867600Y1524700D01*
X9859600Y1545300D01*
X9862300Y1558500D01*
X9860200Y1571900D01*
X9869200Y1592100D01*
X9873600Y1613700D01*
X9883100Y1623400D01*
X9888600Y1635800D01*
X9907000Y1647900D01*
X9922500Y1663700D01*
X9936700Y1667400D01*
X9946900Y1674200D01*
X9963100Y1674400D01*
X9983200Y1679600D01*
X10051200Y1679600D01*
X10159400Y1708600D01*
X10256500Y1764600D01*
X10335700Y1843800D01*
X10391700Y1940900D01*
X10420700Y2049100D01*
X10420700Y2161100D01*
X10391700Y2269300D01*
X10335700Y2366400D01*
X10279900Y2422200D01*
X10268700Y2442600D01*
X12683300Y2442600D01*
X12683300Y2330600D01*
X12712300Y2222400D01*
X12768300Y2125300D01*
X12847500Y2046100D01*
X12944600Y1990100D01*
X13052800Y1961100D01*
X13164800Y1961100D01*
X13273000Y1990100D01*
X13370100Y2046100D01*
X13449300Y2125300D01*
X13505300Y2222400D01*
X13534300Y2330600D01*
X13534300Y2442600D01*
X13505300Y2550800D01*
X13449300Y2647900D01*
X13370100Y2727100D01*
X13273000Y2783100D01*
X13164800Y2812100D01*
X13052800Y2812100D01*
X12944600Y2783100D01*
X12847500Y2727100D01*
X12768300Y2647900D01*
X12712300Y2550800D01*
X12684100Y2445600D01*
X12683300Y2442600D01*
X10268700Y2442600D01*
X10246400Y2483500D01*
X10251400Y2553200D01*
X10293200Y2609100D01*
X10305500Y2617200D01*
X10337400Y2635600D01*
X10416600Y2714800D01*
X10472600Y2811900D01*
X10501600Y2920100D01*
X10501600Y3032100D01*
X10472600Y3140300D01*
X10416600Y3237400D01*
X10337400Y3316600D01*
X10240300Y3372600D01*
X10132100Y3401600D01*
X10020100Y3401600D01*
X9911900Y3372600D01*
X9814800Y3316600D01*
X9735600Y3237400D01*
X9698900Y3173700D01*
X9682900Y3146000D01*
X9679600Y3140300D01*
X9657700Y3058700D01*
X9650600Y3032100D01*
X9650600Y2920100D01*
X9679600Y2811900D01*
X9735600Y2714800D01*
X9791400Y2659000D01*
X9824900Y2597700D01*
X9819900Y2528000D01*
X9778100Y2472100D01*
X9765800Y2464000D01*
X9733900Y2445600D01*
X9654700Y2366400D01*
X9598700Y2269300D01*
X9574100Y2177600D01*
X9569700Y2161100D01*
X9569700Y2049100D01*
X9598700Y1940900D01*
X9654700Y1843800D01*
X9659200Y1838000D01*
X9684400Y1772800D01*
X9670400Y1704400D01*
X9621500Y1654400D01*
X9560800Y1638500D01*
X9492800Y1638500D01*
X9384600Y1609500D01*
X9287500Y1553500D01*
X9208300Y1474300D01*
X9152300Y1377200D01*
X9132100Y1301700D01*
X9123300Y1269000D01*
X8549100Y1269000D01*
X8521700Y1371200D01*
X8465700Y1468300D01*
X8386500Y1547500D01*
X8289400Y1603500D01*
X8181200Y1632500D01*
X8069200Y1632500D01*
X7961000Y1603500D01*
X7863900Y1547500D01*
X7784700Y1468300D01*
X7732200Y1377200D01*
X7728700Y1371200D01*
X7701300Y1269000D01*
X7699700Y1263000D01*
X2700000Y1263000D01*
X2700000Y2410400D01*
X3081500Y2410400D01*
X3081500Y2298400D01*
X3110500Y2190200D01*
X3166500Y2093100D01*
X3245700Y2013900D01*
X3342800Y1957900D01*
X3451000Y1928900D01*
X3563000Y1928900D01*
X3671200Y1957900D01*
X3768300Y2013900D01*
X3847500Y2093100D01*
X3903500Y2190200D01*
X3932500Y2298400D01*
X3932500Y2410400D01*
X3903500Y2518600D01*
X3847500Y2615700D01*
X3768300Y2694900D01*
X3671200Y2750900D01*
X3563000Y2779900D01*
X3451000Y2779900D01*
X3342800Y2750900D01*
X3245700Y2694900D01*
X3166500Y2615700D01*
X3110500Y2518600D01*
X3090100Y2442600D01*
X3081500Y2410400D01*
X2700000Y2410400D01*
X2700000Y2700000D01*
X1019200Y2700000D01*
X952100Y2719700D01*
X906400Y2772500D01*
X896400Y2841600D01*
X899400Y2856100D01*
X902400Y2867300D01*
X925500Y2953500D01*
X925500Y3065500D01*
X896500Y3173700D01*
X840500Y3270800D01*
X761300Y3350000D01*
X664200Y3406000D01*
X556000Y3435000D01*
X444000Y3435000D01*
X335800Y3406000D01*
X238700Y3350000D01*
X159500Y3270800D01*
X140200Y3237400D01*
X123000Y3207500D01*
X72400Y3159300D01*
X3800Y3146000D01*
X-61100Y3172000D01*
X-91800Y3207500D01*
X-109100Y3237400D01*
X-124400Y3264000D01*
X-203600Y3343200D01*
X-300700Y3399200D01*
X-408900Y3428200D01*
X-520900Y3428200D01*
X-629100Y3399200D01*
X-726200Y3343200D01*
X-805400Y3264000D01*
X-861400Y3166900D01*
X-890400Y3058700D01*
X-16209300Y3058700D01*
X-16202800Y3091000D01*
X-16145200Y3381000D01*
X-16144300Y3385000D01*
X-16064800Y3726000D01*
X5924500Y3726000D01*
X5924500Y3614000D01*
X5953500Y3505800D01*
X6009500Y3408700D01*
X6088700Y3329500D01*
X6185800Y3273500D01*
X6294000Y3244500D01*
X6406000Y3244500D01*
X6514200Y3273500D01*
X6611300Y3329500D01*
X6690500Y3408700D01*
X6746500Y3505800D01*
X6775500Y3614000D01*
X6775500Y3726000D01*
X6746500Y3834200D01*
X6715600Y3887800D01*
X14283000Y3887800D01*
X14283000Y3775800D01*
X14312000Y3667600D01*
X14368000Y3570500D01*
X14447200Y3491300D01*
X14544300Y3435300D01*
X14652500Y3406300D01*
X14764500Y3406300D01*
X14872700Y3435300D01*
X14969800Y3491300D01*
X15049000Y3570500D01*
X15105000Y3667600D01*
X15134000Y3775800D01*
X15134000Y3887800D01*
X15105000Y3996000D01*
X15049000Y4093100D01*
X14969800Y4172300D01*
X14872700Y4228300D01*
X14764500Y4257300D01*
X14652500Y4257300D01*
X14544300Y4228300D01*
X14447200Y4172300D01*
X14368000Y4093100D01*
X14352200Y4065700D01*
X14312000Y3996000D01*
X14283000Y3887800D01*
X6715600Y3887800D01*
X6690500Y3931300D01*
X6611300Y4010500D01*
X6514200Y4066500D01*
X6406000Y4095500D01*
X6294000Y4095500D01*
X6185800Y4066500D01*
X6088700Y4010500D01*
X6009500Y3931300D01*
X5984400Y3887800D01*
X5953500Y3834200D01*
X5924500Y3726000D01*
X-16064800Y3726000D01*
X-15983600Y4074000D01*
X-15983200Y4075900D01*
X-15919100Y4331500D01*
X-15917900Y4336000D01*
X-4555500Y4336000D01*
X-4555500Y4224000D01*
X-4526500Y4115800D01*
X-4470500Y4018700D01*
X-4391300Y3939500D01*
X-4377000Y3931300D01*
X-4301700Y3887800D01*
X-4294200Y3883500D01*
X-4186000Y3854500D01*
X-4074000Y3854500D01*
X-3965800Y3883500D01*
X-3868700Y3939500D01*
X-3789500Y4018700D01*
X-3733500Y4115800D01*
X-3704500Y4224000D01*
X-3704500Y4336000D01*
X-3710600Y4358700D01*
X-3733500Y4444200D01*
X-3774900Y4516000D01*
X9174500Y4516000D01*
X9174500Y4404000D01*
X9203500Y4295800D01*
X9259500Y4198700D01*
X9338700Y4119500D01*
X9435800Y4063500D01*
X9544000Y4034500D01*
X9656000Y4034500D01*
X9764200Y4063500D01*
X9861300Y4119500D01*
X9940500Y4198700D01*
X9996500Y4295800D01*
X10025500Y4404000D01*
X10025500Y4516000D01*
X10017100Y4547200D01*
X10324500Y4547200D01*
X10324500Y4435200D01*
X10353500Y4327000D01*
X10409500Y4229900D01*
X10488700Y4150700D01*
X10585800Y4094700D01*
X10694000Y4065700D01*
X10806000Y4065700D01*
X10914200Y4094700D01*
X11011300Y4150700D01*
X11090500Y4229900D01*
X11137000Y4310500D01*
X11187600Y4358700D01*
X11256200Y4371900D01*
X11321000Y4346000D01*
X11332100Y4336200D01*
X11397500Y4270700D01*
X11494600Y4214700D01*
X11602800Y4185700D01*
X11714800Y4185700D01*
X11823000Y4214700D01*
X11846600Y4228300D01*
X11857600Y4234600D01*
X11925500Y4251100D01*
X11991500Y4228200D01*
X12007200Y4214900D01*
X12065900Y4156200D01*
X12163000Y4100200D01*
X12271200Y4071200D01*
X12383200Y4071200D01*
X12491400Y4100200D01*
X12588500Y4156200D01*
X12667700Y4235400D01*
X12723700Y4332500D01*
X12752700Y4440700D01*
X12752700Y4552700D01*
X12723700Y4660900D01*
X12667700Y4758000D01*
X12588500Y4837200D01*
X12491400Y4893200D01*
X12383200Y4922200D01*
X12271200Y4922200D01*
X12163000Y4893200D01*
X12128400Y4873300D01*
X12060500Y4856800D01*
X11994500Y4879700D01*
X11978800Y4893000D01*
X11920100Y4951700D01*
X11823000Y5007700D01*
X11714800Y5036700D01*
X11602800Y5036700D01*
X11494600Y5007700D01*
X11397500Y4951700D01*
X11318300Y4872500D01*
X11276800Y4800500D01*
X11271800Y4791900D01*
X11221200Y4743700D01*
X11152600Y4730500D01*
X11087800Y4756400D01*
X11076700Y4766200D01*
X11011300Y4831700D01*
X10914200Y4887700D01*
X10806000Y4916700D01*
X10694000Y4916700D01*
X10585800Y4887700D01*
X10488700Y4831700D01*
X10409500Y4752500D01*
X10385100Y4710100D01*
X10356700Y4660900D01*
X10353500Y4655400D01*
X10326000Y4552700D01*
X10324500Y4547200D01*
X10017100Y4547200D01*
X9996500Y4624200D01*
X9940500Y4721300D01*
X9861300Y4800500D01*
X9764200Y4856500D01*
X9656000Y4885500D01*
X9544000Y4885500D01*
X9435800Y4856500D01*
X9338700Y4800500D01*
X9259500Y4721300D01*
X9253100Y4710100D01*
X9207400Y4630900D01*
X9203500Y4624200D01*
X9174500Y4516000D01*
X-3774900Y4516000D01*
X-3789500Y4541300D01*
X-3868700Y4620500D01*
X-3965800Y4676500D01*
X-4074000Y4705500D01*
X-4186000Y4705500D01*
X-4294200Y4676500D01*
X-4391300Y4620500D01*
X-4470500Y4541300D01*
X-4526500Y4444200D01*
X-4555500Y4336000D01*
X-15917900Y4336000D01*
X-15917500Y4337300D01*
X-15904500Y4380100D01*
X-15708200Y5027400D01*
X2869000Y5027400D01*
X2869000Y4915400D01*
X2898000Y4807200D01*
X2954000Y4710100D01*
X3033200Y4630900D01*
X3130300Y4574900D01*
X3238500Y4545900D01*
X3350500Y4545900D01*
X3458700Y4574900D01*
X3537700Y4620500D01*
X3555800Y4630900D01*
X3635000Y4710100D01*
X3691000Y4807200D01*
X3720000Y4915400D01*
X3720000Y5027400D01*
X3691000Y5135600D01*
X3635000Y5232700D01*
X3555800Y5311900D01*
X3458700Y5367900D01*
X3350500Y5396900D01*
X3238500Y5396900D01*
X3130300Y5367900D01*
X3033200Y5311900D01*
X2954000Y5232700D01*
X2898000Y5135600D01*
X2869000Y5027400D01*
X-15708200Y5027400D01*
X-15694800Y5071500D01*
X-15644300Y5237800D01*
X-15642400Y5243600D01*
X-15554900Y5488000D01*
X-15554300Y5489900D01*
X-15304600Y6153300D01*
X2324500Y6153300D01*
X2324500Y6041300D01*
X2353500Y5933100D01*
X2409500Y5836000D01*
X2488700Y5756800D01*
X2585800Y5700800D01*
X2694000Y5671800D01*
X2806000Y5671800D01*
X2914200Y5700800D01*
X3011300Y5756800D01*
X3090500Y5836000D01*
X3146500Y5933100D01*
X3175500Y6041300D01*
X3175500Y6059500D01*
X7699700Y6059500D01*
X7699700Y5947500D01*
X7728700Y5839300D01*
X7784700Y5742200D01*
X7863900Y5663000D01*
X7961000Y5607000D01*
X8069200Y5578000D01*
X8181200Y5578000D01*
X8289400Y5607000D01*
X8386500Y5663000D01*
X8465700Y5742200D01*
X8521700Y5839300D01*
X8550700Y5947500D01*
X8550700Y6059500D01*
X8536200Y6113600D01*
X9311200Y6113600D01*
X9311200Y6001600D01*
X9340200Y5893400D01*
X9396200Y5796300D01*
X9475400Y5717100D01*
X9572500Y5661100D01*
X9680700Y5632100D01*
X9792700Y5632100D01*
X9900900Y5661100D01*
X9998000Y5717100D01*
X10077200Y5796300D01*
X10133200Y5893400D01*
X10162200Y6001600D01*
X10162200Y6113600D01*
X10133200Y6221800D01*
X10077200Y6318900D01*
X9998000Y6398100D01*
X9900900Y6454100D01*
X9792700Y6483100D01*
X9680700Y6483100D01*
X9572500Y6454100D01*
X9475400Y6398100D01*
X9396200Y6318900D01*
X9340200Y6221800D01*
X9321800Y6153300D01*
X9311200Y6113600D01*
X8536200Y6113600D01*
X8521700Y6167700D01*
X8465700Y6264800D01*
X8386500Y6344000D01*
X8289400Y6400000D01*
X8181200Y6429000D01*
X8069200Y6429000D01*
X7961000Y6400000D01*
X7863900Y6344000D01*
X7784700Y6264800D01*
X7728700Y6167700D01*
X7707800Y6089700D01*
X7699700Y6059500D01*
X3175500Y6059500D01*
X3175500Y6153300D01*
X3146500Y6261500D01*
X3090500Y6358600D01*
X3011300Y6437800D01*
X2914200Y6493800D01*
X2806000Y6522800D01*
X2694000Y6522800D01*
X2585800Y6493800D01*
X2488700Y6437800D01*
X2409500Y6358600D01*
X2393500Y6330800D01*
X2355400Y6264800D01*
X2353500Y6261500D01*
X2328400Y6167700D01*
X2324500Y6153300D01*
X-15304600Y6153300D01*
X-15303500Y6156100D01*
X-15302000Y6159900D01*
X-15281700Y6208900D01*
X-15175800Y6464700D01*
X-15174200Y6468400D01*
X-15045000Y6753600D01*
X11077800Y6753600D01*
X11077800Y6641600D01*
X11106800Y6533400D01*
X11162800Y6436300D01*
X11242000Y6357100D01*
X11339100Y6301100D01*
X11447300Y6272100D01*
X11559300Y6272100D01*
X11667500Y6301100D01*
X11719000Y6330800D01*
X12682300Y6330800D01*
X12682300Y6218800D01*
X12711300Y6110600D01*
X12767300Y6013500D01*
X12846500Y5934300D01*
X12943600Y5878300D01*
X13051800Y5849300D01*
X13163800Y5849300D01*
X13272000Y5878300D01*
X13369100Y5934300D01*
X13448300Y6013500D01*
X13504300Y6110600D01*
X13533300Y6218800D01*
X13533300Y6330800D01*
X13504300Y6439000D01*
X13448300Y6536100D01*
X13369100Y6615300D01*
X13272000Y6671300D01*
X13163800Y6700300D01*
X13051800Y6700300D01*
X12943600Y6671300D01*
X12846500Y6615300D01*
X12767300Y6536100D01*
X12711300Y6439000D01*
X12685800Y6344000D01*
X12682300Y6330800D01*
X11719000Y6330800D01*
X11764600Y6357100D01*
X11843800Y6436300D01*
X11899800Y6533400D01*
X11928800Y6641600D01*
X11928800Y6753600D01*
X11899800Y6861800D01*
X11843800Y6958900D01*
X11764600Y7038100D01*
X11764200Y7038300D01*
X11763900Y7038600D01*
X11758100Y7043000D01*
X11758800Y7043900D01*
X11716000Y7088900D01*
X11702700Y7157500D01*
X11728700Y7222400D01*
X11785600Y7262900D01*
X11826200Y7269700D01*
X11911700Y7269700D01*
X12019900Y7298700D01*
X12029000Y7303900D01*
X12052300Y7317400D01*
X12117000Y7354700D01*
X12196200Y7433900D01*
X12252200Y7531000D01*
X12281200Y7639200D01*
X12281200Y7751200D01*
X12252200Y7859400D01*
X12196200Y7956500D01*
X12117000Y8035700D01*
X12019900Y8091700D01*
X11911700Y8120700D01*
X11799700Y8120700D01*
X11691500Y8091700D01*
X11594400Y8035700D01*
X11515200Y7956500D01*
X11459200Y7859400D01*
X11434900Y7768800D01*
X11430200Y7751200D01*
X11430200Y7639200D01*
X11459200Y7531000D01*
X11515200Y7433900D01*
X11594400Y7354700D01*
X11594800Y7354500D01*
X11595100Y7354200D01*
X11600900Y7349800D01*
X11600200Y7348900D01*
X11643000Y7303900D01*
X11656300Y7235300D01*
X11630300Y7170400D01*
X11573400Y7129900D01*
X11532800Y7123100D01*
X11447300Y7123100D01*
X11339100Y7094100D01*
X11242000Y7038100D01*
X11162800Y6958900D01*
X11106800Y6861800D01*
X11077800Y6753600D01*
X-15045000Y6753600D01*
X-15018100Y6812900D01*
X-14881400Y7114600D01*
X-14880500Y7116500D01*
X-14768200Y7353900D01*
X-14765500Y7359300D01*
X-14428900Y7989000D01*
X-3025500Y7989000D01*
X-3025500Y7877000D01*
X-2996500Y7768800D01*
X-2940500Y7671700D01*
X-2861300Y7592500D01*
X-2764200Y7536500D01*
X-2656000Y7507500D01*
X-2544000Y7507500D01*
X-2435800Y7536500D01*
X-2338700Y7592500D01*
X-2259500Y7671700D01*
X-2203500Y7768800D01*
X-2174500Y7877000D01*
X-2174500Y7989000D01*
X-2184000Y8024500D01*
X-2203500Y8097200D01*
X-2259500Y8194300D01*
X-2338700Y8273500D01*
X-2435800Y8329500D01*
X-2544000Y8358500D01*
X-2656000Y8358500D01*
X-2764200Y8329500D01*
X-2861300Y8273500D01*
X-2940500Y8194300D01*
X-2943700Y8188700D01*
X-2996500Y8097200D01*
X-3025500Y7989000D01*
X-14428900Y7989000D01*
X-14393300Y8055600D01*
X-14322000Y8189000D01*
X-14319000Y8194300D01*
X-14185400Y8417200D01*
X-14184300Y8419000D01*
X-13807900Y9024300D01*
X-13805700Y9027700D01*
X-13623700Y9300100D01*
X-13621300Y9303500D01*
X-13206600Y9882300D01*
X-13205400Y9883900D01*
X-13111200Y10011000D01*
X-11600000Y10011000D01*
X-11600000Y9788000D01*
X-11570900Y9567000D01*
X-11513200Y9351700D01*
X-11427900Y9145800D01*
X-11316400Y8952700D01*
X-11180700Y8775900D01*
X-11023100Y8618300D01*
X-10876900Y8506000D01*
X-10846300Y8482600D01*
X-10692900Y8394000D01*
X-10653200Y8371100D01*
X-10447300Y8285800D01*
X-10232000Y8228100D01*
X-10011000Y8199000D01*
X-10010900Y8199000D01*
X-9788100Y8199000D01*
X-9788000Y8199000D01*
X-9567000Y8228100D01*
X-9351700Y8285800D01*
X-9145800Y8371100D01*
X-8952700Y8482600D01*
X-8922100Y8506000D01*
X3090900Y8506000D01*
X3090900Y8394000D01*
X3119900Y8285800D01*
X3175900Y8188700D01*
X3255100Y8109500D01*
X3352200Y8053500D01*
X3460400Y8024500D01*
X3572400Y8024500D01*
X3680600Y8053500D01*
X3777700Y8109500D01*
X3856900Y8188700D01*
X3894300Y8253500D01*
X9561100Y8253500D01*
X9561100Y8141500D01*
X9590100Y8033300D01*
X9646100Y7936200D01*
X9725300Y7857000D01*
X9822400Y7801000D01*
X9930600Y7772000D01*
X10042600Y7772000D01*
X10150800Y7801000D01*
X10247900Y7857000D01*
X10327100Y7936200D01*
X10383100Y8033300D01*
X10412100Y8141500D01*
X10412100Y8253500D01*
X10383100Y8361700D01*
X10327100Y8458800D01*
X10279800Y8506000D01*
X12685800Y8506000D01*
X12685800Y8394000D01*
X12714800Y8285800D01*
X12770800Y8188700D01*
X12850000Y8109500D01*
X12947100Y8053500D01*
X13055300Y8024500D01*
X13167300Y8024500D01*
X13275500Y8053500D01*
X13372600Y8109500D01*
X13451800Y8188700D01*
X13507800Y8285800D01*
X13536800Y8394000D01*
X13536800Y8506000D01*
X13507800Y8614200D01*
X13451800Y8711300D01*
X13372600Y8790500D01*
X13275500Y8846500D01*
X13167300Y8875500D01*
X13055300Y8875500D01*
X12947100Y8846500D01*
X12850000Y8790500D01*
X12770800Y8711300D01*
X12714800Y8614200D01*
X12694400Y8538000D01*
X12685800Y8506000D01*
X10279800Y8506000D01*
X10247900Y8538000D01*
X10150800Y8594000D01*
X10042600Y8623000D01*
X9930600Y8623000D01*
X9822400Y8594000D01*
X9725300Y8538000D01*
X9646100Y8458800D01*
X9590100Y8361700D01*
X9566400Y8273500D01*
X9561100Y8253500D01*
X3894300Y8253500D01*
X3912900Y8285800D01*
X3941900Y8394000D01*
X3941900Y8506000D01*
X3912900Y8614200D01*
X3856900Y8711300D01*
X3777700Y8790500D01*
X3680600Y8846500D01*
X3572400Y8875500D01*
X3460400Y8875500D01*
X3352200Y8846500D01*
X3255100Y8790500D01*
X3175900Y8711300D01*
X3119900Y8614200D01*
X3099500Y8538000D01*
X3090900Y8506000D01*
X-8922100Y8506000D01*
X-8783400Y8612500D01*
X-8783300Y8612500D01*
X-8775900Y8618300D01*
X-8618300Y8775900D01*
X-8482600Y8952700D01*
X-8371100Y9145800D01*
X-8285800Y9351700D01*
X-8270800Y9407800D01*
X-8228100Y9567000D01*
X-8199000Y9788000D01*
X-8199000Y9929000D01*
X3078200Y9929000D01*
X3078200Y9817000D01*
X3107200Y9708800D01*
X3163200Y9611700D01*
X3242400Y9532500D01*
X3339500Y9476500D01*
X3447700Y9447500D01*
X3559700Y9447500D01*
X3667900Y9476500D01*
X3765000Y9532500D01*
X3844200Y9611700D01*
X3882000Y9677300D01*
X6363100Y9677300D01*
X6363100Y9565300D01*
X6392100Y9457100D01*
X6448100Y9360000D01*
X6527300Y9280800D01*
X6624400Y9224800D01*
X6732600Y9195800D01*
X6844600Y9195800D01*
X6952800Y9224800D01*
X7049900Y9280800D01*
X7068700Y9299600D01*
X8451900Y9299600D01*
X8451900Y9187600D01*
X8480900Y9079400D01*
X8536900Y8982300D01*
X8616100Y8903100D01*
X8713200Y8847100D01*
X8821400Y8818100D01*
X8933400Y8818100D01*
X9041600Y8847100D01*
X9138700Y8903100D01*
X9217900Y8982300D01*
X9273900Y9079400D01*
X9302900Y9187600D01*
X9302900Y9299600D01*
X9273900Y9407800D01*
X9217900Y9504900D01*
X9138700Y9584100D01*
X9041600Y9640100D01*
X8933400Y9669100D01*
X8821400Y9669100D01*
X8713200Y9640100D01*
X8616100Y9584100D01*
X8536900Y9504900D01*
X8480900Y9407800D01*
X8465900Y9351700D01*
X8451900Y9299600D01*
X7068700Y9299600D01*
X7129100Y9360000D01*
X7185100Y9457100D01*
X7214100Y9565300D01*
X7214100Y9677300D01*
X7185100Y9785500D01*
X7129100Y9882600D01*
X7098300Y9913300D01*
X9565700Y9913300D01*
X9565700Y9801300D01*
X9594700Y9693100D01*
X9650700Y9596000D01*
X9729900Y9516800D01*
X9827000Y9460800D01*
X9935200Y9431800D01*
X10047200Y9431800D01*
X10155400Y9460800D01*
X10252500Y9516800D01*
X10253300Y9517600D01*
X11066500Y9517600D01*
X11066500Y9405600D01*
X11095500Y9297400D01*
X11151500Y9200300D01*
X11230700Y9121100D01*
X11327800Y9065100D01*
X11436000Y9036100D01*
X11548000Y9036100D01*
X11656200Y9065100D01*
X11753300Y9121100D01*
X11832500Y9200300D01*
X11888500Y9297400D01*
X11917500Y9405600D01*
X11917500Y9517600D01*
X11888500Y9625800D01*
X11832500Y9722900D01*
X11828400Y9729900D01*
X11829900Y9730700D01*
X11808100Y9787000D01*
X11822200Y9855400D01*
X11844000Y9885000D01*
X11846100Y9887000D01*
X11902100Y9984100D01*
X11931100Y10092300D01*
X11931100Y10204300D01*
X11902100Y10312500D01*
X11846100Y10409600D01*
X11766900Y10488800D01*
X11669800Y10544800D01*
X11561600Y10573800D01*
X11449600Y10573800D01*
X11341400Y10544800D01*
X11244300Y10488800D01*
X11165100Y10409600D01*
X11109100Y10312500D01*
X11082600Y10213500D01*
X11080100Y10204300D01*
X11080100Y10092300D01*
X11109100Y9984100D01*
X11169200Y9880000D01*
X11167700Y9879200D01*
X11189500Y9822900D01*
X11175400Y9754500D01*
X11153600Y9724900D01*
X11151500Y9722900D01*
X11095500Y9625800D01*
X11079300Y9565300D01*
X11066500Y9517600D01*
X10253300Y9517600D01*
X10331700Y9596000D01*
X10387700Y9693100D01*
X10416700Y9801300D01*
X10416700Y9913300D01*
X10387700Y10021500D01*
X10331700Y10118600D01*
X10252500Y10197800D01*
X10155400Y10253800D01*
X10047200Y10282800D01*
X9935200Y10282800D01*
X9827000Y10253800D01*
X9729900Y10197800D01*
X9650700Y10118600D01*
X9603800Y10037200D01*
X9594700Y10021500D01*
X9569900Y9929000D01*
X9565700Y9913300D01*
X7098300Y9913300D01*
X7049900Y9961800D01*
X6952800Y10017800D01*
X6844600Y10046800D01*
X6732600Y10046800D01*
X6624400Y10017800D01*
X6527300Y9961800D01*
X6448100Y9882600D01*
X6446600Y9880000D01*
X6401200Y9801300D01*
X6392100Y9785500D01*
X6377400Y9730700D01*
X6363100Y9677300D01*
X3882000Y9677300D01*
X3900200Y9708800D01*
X3929200Y9817000D01*
X3929200Y9929000D01*
X3900200Y10037200D01*
X3844200Y10134300D01*
X3765000Y10213500D01*
X3667900Y10269500D01*
X3559700Y10298500D01*
X3447700Y10298500D01*
X3339500Y10269500D01*
X3242400Y10213500D01*
X3163200Y10134300D01*
X3107200Y10037200D01*
X3092900Y9984100D01*
X3078200Y9929000D01*
X-8199000Y9929000D01*
X-8199000Y10010900D01*
X-8199000Y10011000D01*
X-8228100Y10232000D01*
X-8285800Y10447300D01*
X-8371100Y10653200D01*
X-8389800Y10685700D01*
X-8482600Y10846300D01*
X-8537600Y10918000D01*
X-8618300Y11023100D01*
X-8733300Y11138200D01*
X-31600Y11138200D01*
X-31600Y11026200D01*
X-2600Y10918000D01*
X53400Y10820900D01*
X132600Y10741700D01*
X229700Y10685700D01*
X337900Y10656700D01*
X449900Y10656700D01*
X558100Y10685700D01*
X655200Y10741700D01*
X734400Y10820900D01*
X790400Y10918000D01*
X819400Y11026200D01*
X819400Y11066000D01*
X3234500Y11066000D01*
X3234500Y10954000D01*
X3263500Y10845800D01*
X3319500Y10748700D01*
X3398700Y10669500D01*
X3495800Y10613500D01*
X3604000Y10584500D01*
X3716000Y10584500D01*
X3824200Y10613500D01*
X3840200Y10622700D01*
X3865200Y10637100D01*
X3933100Y10653600D01*
X3999100Y10630700D01*
X4014800Y10617400D01*
X4088700Y10543500D01*
X4185800Y10487500D01*
X4294000Y10458500D01*
X4406000Y10458500D01*
X4514200Y10487500D01*
X4611300Y10543500D01*
X4690500Y10622700D01*
X4746500Y10719800D01*
X4775500Y10828000D01*
X4775500Y10866000D01*
X8484500Y10866000D01*
X8484500Y10754000D01*
X8513500Y10645800D01*
X8569500Y10548700D01*
X8648700Y10469500D01*
X8745800Y10413500D01*
X8854000Y10384500D01*
X8966000Y10384500D01*
X9074200Y10413500D01*
X9171300Y10469500D01*
X9250500Y10548700D01*
X9306500Y10645800D01*
X9335500Y10754000D01*
X9335500Y10866000D01*
X9306500Y10974200D01*
X9250500Y11071300D01*
X9171300Y11150500D01*
X9074200Y11206500D01*
X8966000Y11235500D01*
X8854000Y11235500D01*
X8745800Y11206500D01*
X8648700Y11150500D01*
X8569500Y11071300D01*
X8513500Y10974200D01*
X8485300Y10869100D01*
X8484500Y10866000D01*
X4775500Y10866000D01*
X4775500Y10940000D01*
X4746500Y11048200D01*
X4690500Y11145300D01*
X4611300Y11224500D01*
X4514200Y11280500D01*
X4406000Y11309500D01*
X4294000Y11309500D01*
X4185800Y11280500D01*
X4144800Y11256900D01*
X4076900Y11240400D01*
X4010900Y11263300D01*
X3995200Y11276600D01*
X3921300Y11350500D01*
X3824200Y11406500D01*
X3716000Y11435500D01*
X3604000Y11435500D01*
X3495800Y11406500D01*
X3398700Y11350500D01*
X3319500Y11271300D01*
X3267300Y11180700D01*
X3263500Y11174200D01*
X3235900Y11071300D01*
X3234500Y11066000D01*
X819400Y11066000D01*
X819400Y11138200D01*
X790400Y11246400D01*
X734400Y11343500D01*
X655200Y11422700D01*
X558100Y11478700D01*
X449900Y11507700D01*
X337900Y11507700D01*
X229700Y11478700D01*
X132600Y11422700D01*
X53400Y11343500D01*
X-2600Y11246400D01*
X-31600Y11138200D01*
X-8733300Y11138200D01*
X-8775900Y11180700D01*
X-8952700Y11316400D01*
X-9145800Y11427900D01*
X-9338400Y11507700D01*
X-9351700Y11513200D01*
X-9567000Y11570900D01*
X-9788000Y11600000D01*
X-10011000Y11600000D01*
X-10232000Y11570900D01*
X-10447300Y11513200D01*
X-10653200Y11427900D01*
X-10846300Y11316400D01*
X-11023100Y11180700D01*
X-11180700Y11023100D01*
X-11316400Y10846300D01*
X-11427900Y10653200D01*
X-11513200Y10447300D01*
X-11570900Y10232000D01*
X-11600000Y10011000D01*
X-13111200Y10011000D01*
X-13053400Y10088900D01*
X-13050000Y10093500D01*
X-13046200Y10098300D01*
X-12449800Y10825100D01*
X-12445900Y10829700D01*
X-12268500Y11025400D01*
X-12267100Y11026900D01*
X-11784000Y11542700D01*
X-11781200Y11545600D01*
X-11545600Y11781200D01*
X-11542700Y11784000D01*
X-11026900Y12267100D01*
X-11025400Y12268500D01*
X-10829700Y12445900D01*
X-10825100Y12449800D01*
X-10484500Y12729300D01*
X4686700Y12729300D01*
X4686700Y12617300D01*
X4715700Y12509100D01*
X4771700Y12412000D01*
X4850900Y12332800D01*
X4948000Y12276800D01*
X5056200Y12247800D01*
X5168200Y12247800D01*
X5276400Y12276800D01*
X5373500Y12332800D01*
X5452700Y12412000D01*
X5508700Y12509100D01*
X5537700Y12617300D01*
X5537700Y12729300D01*
X5508700Y12837500D01*
X5452700Y12934600D01*
X5373500Y13013800D01*
X5276400Y13069800D01*
X5168200Y13098800D01*
X5056200Y13098800D01*
X4948000Y13069800D01*
X4850900Y13013800D01*
X4771700Y12934600D01*
X4734400Y12869900D01*
X4715700Y12837500D01*
X4686700Y12729300D01*
X-10484500Y12729300D01*
X-10357800Y12833300D01*
X-10098300Y13046200D01*
X-10093500Y13050000D01*
X-9883900Y13205400D01*
X-9882300Y13206600D01*
X-9743500Y13306000D01*
X7877900Y13306000D01*
X7877900Y13194000D01*
X7906900Y13085800D01*
X7946900Y13016500D01*
X7963400Y12948600D01*
X7946900Y12892500D01*
X7915200Y12837500D01*
X7886200Y12729300D01*
X7886200Y12617300D01*
X7915200Y12509100D01*
X7971200Y12412000D01*
X8050400Y12332800D01*
X8147500Y12276800D01*
X8255700Y12247800D01*
X8367700Y12247800D01*
X8475900Y12276800D01*
X8573000Y12332800D01*
X8652200Y12412000D01*
X8708200Y12509100D01*
X8737200Y12617300D01*
X8737200Y12729300D01*
X8708200Y12837500D01*
X8668200Y12906800D01*
X8651700Y12974700D01*
X8668200Y13030800D01*
X8699900Y13085800D01*
X8728900Y13194000D01*
X8728900Y13306000D01*
X8699900Y13414200D01*
X8643900Y13511300D01*
X8564700Y13590500D01*
X8467600Y13646500D01*
X8359400Y13675500D01*
X8247400Y13675500D01*
X8139200Y13646500D01*
X8042100Y13590500D01*
X7962900Y13511300D01*
X7906900Y13414200D01*
X7877900Y13306000D01*
X-9743500Y13306000D01*
X-9591500Y13414900D01*
X-9303500Y13621300D01*
X-9300100Y13623700D01*
X-9027700Y13805700D01*
X-9024300Y13807900D01*
X-8419000Y14184300D01*
X-8417200Y14185400D01*
X-8194300Y14319000D01*
X-8189000Y14322000D01*
X-7359300Y14765500D01*
X-7353900Y14768200D01*
X-7116500Y14880500D01*
X-7114600Y14881400D01*
X-7060300Y14906000D01*
X3086700Y14906000D01*
X3086700Y14794000D01*
X3115700Y14685800D01*
X3171700Y14588700D01*
X3250900Y14509500D01*
X3348000Y14453500D01*
X3456200Y14424500D01*
X3568200Y14424500D01*
X3676400Y14453500D01*
X3773500Y14509500D01*
X3852700Y14588700D01*
X3908700Y14685800D01*
X3937700Y14794000D01*
X3937700Y14906000D01*
X3908700Y15014200D01*
X3852700Y15111300D01*
X3773500Y15190500D01*
X3676400Y15246500D01*
X3568200Y15275500D01*
X3456200Y15275500D01*
X3348000Y15246500D01*
X3250900Y15190500D01*
X3171700Y15111300D01*
X3115700Y15014200D01*
X3086700Y14906000D01*
X-7060300Y14906000D01*
X-6793000Y15027100D01*
X-6468400Y15174200D01*
X-6464700Y15175800D01*
X-6159900Y15302000D01*
X-6156100Y15303500D01*
X-5489900Y15554300D01*
X-5488000Y15554900D01*
X-5243600Y15642400D01*
X-5237800Y15644300D01*
X-4337300Y15917500D01*
X-4331500Y15919100D01*
X-4075900Y15983200D01*
X-4074000Y15983600D01*
X-3385000Y16144300D01*
X-3381000Y16145200D01*
X-3055100Y16210000D01*
X-3051100Y16210700D01*
X-2350000Y16326400D01*
X-2348000Y16326700D01*
X-2091200Y16364800D01*
X-2085200Y16365500D01*
X-1148900Y16457800D01*
X-1142800Y16458300D01*
X-879500Y16471200D01*
X-877500Y16471300D01*
X-182600Y16494000D01*
X-169200Y16494500D01*
X-165200Y16494500D01*
X165200Y16494500D01*
X169200Y16494500D01*
G37*
%TD.AperFunction*%
%TD*%
M02*
