%TF.GenerationSoftware,KiCad,Pcbnew,10.0.3*%
%TF.CreationDate,2026-09-09T12:22:40+02:00*%
%TF.ProjectId,aft_end_board,6166745f-656e-4645-9f62-6f6172642e6b,rev?*%
%TF.SameCoordinates,Original*%
%TF.FileFunction,Copper,L14,Bot*%
%TF.FilePolarity,Positive*%
%FSLAX46Y46*%
G04 Gerber Fmt 4.6, Leading zero omitted, Abs format (unit mm)*
G04 Created by KiCad (PCBNEW 10.0.3) date 2026-09-09 12:22:40*
%MOMM*%
%LPD*%
G01*
G04 APERTURE LIST*
%TA.AperFunction,SMDPad,CuDef*%
%ADD10C,2.000000*%
%TD*%
%TA.AperFunction,SMDPad,CuDef*%
%ADD11C,1.500000*%
%TD*%
%TA.AperFunction,ViaPad*%
%ADD12C,0.450000*%
%TD*%
%TA.AperFunction,Conductor*%
%ADD13C,0.100000*%
%TD*%
G04 APERTURE END LIST*
D10*
%TO.P,P_ACT_WIRE_13,1*%
%TO.N,ACT_WIRE_13*%
X5740000Y-13860000D03*
%TD*%
D11*
%TO.P,TP_ACT_MOTOR3,1*%
%TO.N,FIN3_AOUT1*%
X-6370000Y1550000D03*
%TD*%
%TO.P,TP_GPIO_2,1*%
%TO.N,GPIO_EXT_2*%
X7820000Y2780000D03*
%TD*%
%TO.P,TP_CAN_P,1*%
%TO.N,EXT_CAN_P*%
X-9180000Y6060000D03*
%TD*%
%TO.P,TP_SPI_CS_FIN,1*%
%TO.N,SYS_SPI_CS_FIN*%
X190000Y4210000D03*
%TD*%
%TO.P,TP_CAN_N,1*%
%TO.N,EXT_CAN_N*%
X-7070000Y6320000D03*
%TD*%
%TO.P,TP_FIN_VREF,1*%
%TO.N,FIN_VREF*%
X2101000Y-6053000D03*
%TD*%
%TO.P,TP_NRST,1*%
%TO.N,NRST*%
X-2101000Y-6053000D03*
%TD*%
%TO.P,TP_ACT_MOTOR4,1*%
%TO.N,FIN4_AOUT1*%
X-2930000Y1600000D03*
%TD*%
%TO.P,TP_GPIO_1,1*%
%TO.N,GPIO_EXT_1*%
X10610000Y3320000D03*
%TD*%
%TO.P,TP_SPI_MOSI,1*%
%TO.N,SYS_SPI_MOSI*%
X2160000Y4210000D03*
%TD*%
D10*
%TO.P,P_ACT_WIRE_12,1*%
%TO.N,ACT_WIRE_12*%
X0Y-15000000D03*
%TD*%
D11*
%TO.P,TP_GND_ACT,1*%
%TO.N,FLEX_GND*%
X0Y-2101000D03*
%TD*%
D10*
%TO.P,P_ACT_WIRE_15,1*%
%TO.N,ACT_WIRE_15*%
X13860000Y-5740000D03*
%TD*%
D11*
%TO.P,TP_BOOT0,1*%
%TO.N,BOOT0*%
X-8070000Y1700000D03*
%TD*%
%TO.P,TP_JUMP_WAKE,1*%
%TO.N,JUMP_PAD*%
X-1851000Y0D03*
%TD*%
%TO.P,TP_SPI_SCLK,1*%
%TO.N,SYS_SPI_SCLK*%
X-7270000Y4030000D03*
%TD*%
%TO.P,TP_ACT_SET,1*%
%TO.N,ACTIVATE_SET*%
X4202000Y4452000D03*
%TD*%
%TO.P,TP_ACT_MOTOR2,1*%
%TO.N,FIN2_AOUT1*%
X-290000Y2200000D03*
%TD*%
%TO.P,TP_SPI_MISO,1*%
%TO.N,SYS_SPI_MISO*%
X-2510000Y4040000D03*
%TD*%
D10*
%TO.P,P_ACT_WIRE_3,1*%
%TO.N,ACT_WIRE_3*%
X5740000Y13860000D03*
%TD*%
D11*
%TO.P,TP_ACT_MOTOR1,1*%
%TO.N,FIN1_AOUT1*%
X2090000Y2060000D03*
%TD*%
D10*
%TO.P,P_ACT_WIRE_4,1*%
%TO.N,ACT_WIRE_4*%
X0Y15000000D03*
%TD*%
D11*
%TO.P,TP_BAT_RAW,1*%
%TO.N,BAT_RAW*%
X-2101000Y-3952000D03*
%TD*%
%TO.P,TP_GPIO_3,1*%
%TO.N,GPIO_EXT_3*%
X6680000Y290000D03*
%TD*%
%TO.P,TP_FIN_HALL,1*%
%TO.N,FIN_HALL*%
X120000Y-4230000D03*
%TD*%
%TO.P,TP_VDD,1*%
%TO.N,3V3_AON*%
X0Y6303000D03*
%TD*%
%TO.P,TP_ACT_CONFIRM,1*%
%TO.N,ACTIVATE_CONFIRM*%
X0Y-6303000D03*
%TD*%
D10*
%TO.P,P_ACT_WIRE_6,1*%
%TO.N,ACT_WIRE_6*%
X-10610000Y10610000D03*
%TD*%
%TO.P,P_ACT_WIRE_9,1*%
%TO.N,ACT_WIRE_9*%
X-13860000Y-5740000D03*
%TD*%
D11*
%TO.P,TP_SWO,1*%
%TO.N,SWO*%
X-4202000Y250000D03*
%TD*%
D10*
%TO.P,P_ACT_WIRE_0,1*%
%TO.N,ACT_WIRE_0*%
X15000000Y0D03*
%TD*%
%TO.P,P_ACT_WIRE_8,1*%
%TO.N,ACT_WIRE_8*%
X-15000000Y0D03*
%TD*%
D11*
%TO.P,P_FIRE_COMMON,1*%
%TO.N,FIRE_ARMED*%
X0Y0D03*
%TD*%
D10*
%TO.P,P_ACT_WIRE_2,1*%
%TO.N,ACT_WIRE_2*%
X10610000Y10610000D03*
%TD*%
%TO.P,P_ACT_WIRE_5,1*%
%TO.N,ACT_WIRE_5*%
X-5740000Y13860000D03*
%TD*%
D11*
%TO.P,TP_SWCLK,1*%
%TO.N,COMP_SWDCLK*%
X2101000Y-1851000D03*
%TD*%
%TO.P,TP_JUMP_GND,1*%
%TO.N,FLEX_GND*%
X1851000Y0D03*
%TD*%
D10*
%TO.P,P_ACT_WIRE_10,1*%
%TO.N,ACT_WIRE_10*%
X-10610000Y-10610000D03*
%TD*%
%TO.P,P_ACT_WIRE_7,1*%
%TO.N,ACT_WIRE_7*%
X-13860000Y5740000D03*
%TD*%
D11*
%TO.P,TP_BAT_PROT,1*%
%TO.N,BAT_PROT*%
X4202000Y2351000D03*
%TD*%
%TO.P,TP_SWDIO,1*%
%TO.N,COMP_SWDIO*%
X-2250000Y6290000D03*
%TD*%
%TO.P,TP_GPIO_0,1*%
%TO.N,GPIO_EXT_0*%
X7820000Y5120000D03*
%TD*%
D10*
%TO.P,P_ACT_WIRE_14,1*%
%TO.N,ACT_WIRE_14*%
X10610000Y-10610000D03*
%TD*%
D11*
%TO.P,TP_I2C_SDA,1*%
%TO.N,SYS_I2C_SDA*%
X8130000Y-4530000D03*
%TD*%
D10*
%TO.P,P_ACT_WIRE_11,1*%
%TO.N,ACT_WIRE_11*%
X-5740000Y-13860000D03*
%TD*%
%TO.P,P_ACT_WIRE_1,1*%
%TO.N,ACT_WIRE_1*%
X13860000Y5740000D03*
%TD*%
D11*
%TO.P,TP_I2C_SCL,1*%
%TO.N,SYS_I2C_SCL*%
X4320000Y-3952000D03*
%TD*%
D12*
%TO.N,EXT_CAN_TX*%
X13116300Y8450000D03*
X-809300Y5249100D03*
%TO.N,FLEX_GND*%
X7060000Y7250000D03*
X1140000Y-3190000D03*
X2950000Y810000D03*
X2160000Y-8390000D03*
X-2480000Y7600000D03*
X9000000Y-9460000D03*
X12920000Y6720000D03*
%TO.N,COMP_5V*%
X-12092100Y-513500D03*
X-1308400Y5000500D03*
X12552100Y5250000D03*
X879600Y10888500D03*
%TO.N,EXT_CAN_RX*%
X12774800Y-1989700D03*
X1306200Y6116800D03*
X12096800Y3280800D03*
%TO.N,3V3*%
X2424800Y10867300D03*
X12623100Y-5127600D03*
%TO.N,EXT_CAN_N*%
X-4660500Y5816500D03*
X2061300Y5918500D03*
%TO.N,EXT_CAN_P*%
X-2958500Y-865000D03*
X-5702000Y-2204900D03*
%TO.N,BAT_PROT*%
X5953000Y6676400D03*
X13195400Y1026700D03*
%TO.N,GPIO_EXT_0*%
X7573300Y12496300D03*
X5762100Y6104700D03*
%TO.N,GPIO_EXT_1*%
X7043500Y-13820800D03*
X5753100Y5401200D03*
%TO.N,Y7_FIRE_SEL*%
X542400Y-7617800D03*
X2991000Y5730700D03*
%TO.N,Y6_FIRE_SEL*%
X6371700Y4872700D03*
X-5829400Y5548900D03*
%TO.N,Y5_FIRE_SEL*%
X6539800Y3849400D03*
X-8699100Y-4869100D03*
%TO.N,Y4_FIRE_SEL*%
X5819800Y3065000D03*
X-197300Y-7632900D03*
X-4124200Y-8479500D03*
%TO.N,Y3_FIRE_SEL*%
X3010000Y-3260000D03*
X5920000Y2190000D03*
%TO.N,Y1_FIRE_SEL*%
X7613000Y806800D03*
X-5198000Y-3100600D03*
%TO.N,Y0_FIRE_SEL*%
X7447900Y-3342900D03*
X-349000Y-8889000D03*
%TO.N,Y13_FIRE_SEL*%
X9116500Y-6243000D03*
X3982700Y-6243000D03*
X10414800Y-1443600D03*
%TO.N,Y12_FIRE_SEL*%
X9455600Y-225400D03*
X-2056300Y8283600D03*
%TO.N,Y15_FIRE_SEL*%
X-5795300Y10001700D03*
X9937500Y8410800D03*
X11631400Y826000D03*
%TO.N,Y14_FIRE_SEL*%
X-5281300Y1464600D03*
X9454700Y561300D03*
%TO.N,Y9_FIRE_SEL*%
X11633600Y2541900D03*
X-9309700Y4768700D03*
%TO.N,Y8_FIRE_SEL*%
X9372700Y1418100D03*
X7512400Y-7512500D03*
%TO.N,Y11_FIRE_SEL*%
X9452500Y2658900D03*
X-9937000Y287600D03*
%TO.N,Y10_FIRE_SEL*%
X3898800Y9727700D03*
X9454100Y4347300D03*
X8105400Y8892600D03*
%TO.N,GPIO_EXT_2*%
X5938200Y-11598000D03*
X6570000Y1570000D03*
%TO.N,GPIO_EXT_3*%
X-6282300Y-1851000D03*
X5987800Y-9997900D03*
X9542200Y5340300D03*
%TO.N,FIRE_HV*%
X2201000Y-7369600D03*
X1150000Y12492500D03*
X8391600Y9912300D03*
X8785800Y-1449100D03*
%TO.N,ACTIVATE_CONFIRM*%
X13950000Y-3514600D03*
X3334200Y-4925400D03*
X922500Y-7225500D03*
%TO.N,JUMP_PAD*%
X3310000Y-2250000D03*
X-1690000Y-860000D03*
%TO.N,JUMP_WAKE*%
X8150000Y-850000D03*
X3150000Y-270000D03*
%TO.N,ACT_WIRE_13*%
X4664500Y-7290700D03*
X3753400Y-13207500D03*
%TO.N,ACT_WIRE_3*%
X6640400Y12601500D03*
X5834000Y-1305700D03*
%TO.N,ACT_WIRE_1*%
X-5027900Y-814100D03*
X13153700Y4603900D03*
%TO.N,ACT_WIRE_12*%
X1841200Y6817700D03*
X353400Y-13688800D03*
%TO.N,ACT_WIRE_5*%
X-6703700Y-1477000D03*
X-5740000Y12498200D03*
%TO.N,ACT_WIRE_6*%
X-11542800Y9677200D03*
X-5476000Y7804000D03*
%TO.N,ACT_WIRE_10*%
X3964000Y9144000D03*
X-9453400Y-9924300D03*
%TO.N,FIRE_ARM_GD*%
X-3730000Y-5280000D03*
X1030000Y-740000D03*
%TO.N,ACT_WIRE_7*%
X-12498000Y5740000D03*
X1330000Y-7562900D03*
%TO.N,ACT_WIRE_0*%
X13184400Y-1068200D03*
X2384900Y-10521800D03*
%TO.N,ACTIVATE_SET*%
X5817900Y4158200D03*
X13190200Y114400D03*
X-3840700Y-6485600D03*
%TO.N,ACT_WIRE_4*%
X-1083600Y14151800D03*
X-3285100Y-9737100D03*
%TO.N,3V3_AON*%
X12744100Y-1454600D03*
X-1600Y7611900D03*
%TO.N,BAT_RAW*%
X13192700Y1841500D03*
X967600Y-13190900D03*
%TO.N,BOOT0*%
X13196500Y3650000D03*
X6609300Y2691500D03*
X-7474100Y-436700D03*
%TO.N,COMP_SWDCLK*%
X3420000Y-2890000D03*
X12350000Y-6705600D03*
%TO.N,COMP_SWDIO*%
X11773300Y-1979600D03*
X-656300Y7497700D03*
%TO.N,FIN1_AOUT1*%
X1050000Y820000D03*
X10750000Y-6705900D03*
%TO.N,FIN2_AOUT1*%
X-910300Y3041700D03*
X10145300Y-3605900D03*
%TO.N,FIN3_AOUT1*%
X-5128300Y-4878300D03*
X11502800Y-3966300D03*
%TO.N,FIN4_AOUT1*%
X5829900Y1556500D03*
X10927500Y7695800D03*
%TO.N,FIN_HALL*%
X4787100Y-5522000D03*
X10038400Y9338400D03*
%TO.N,FIN_VREF*%
X4038600Y-5712700D03*
X8479100Y7777500D03*
%TO.N,NRST*%
X-735100Y-7418900D03*
%TO.N,SWO*%
X5345200Y-10017300D03*
X-6285400Y-1068200D03*
%TO.N,SYS_I2C_SCL*%
X4664800Y-8435200D03*
X5336500Y-4672300D03*
%TO.N,SYS_I2C_SDA*%
X-3825400Y5795800D03*
X4350000Y12490600D03*
%TO.N,SYS_SPI_CS_FIN*%
X-6114300Y3207600D03*
X2081900Y-13281900D03*
%TO.N,SYS_SPI_MISO*%
X5513600Y-1851000D03*
X3396900Y6162100D03*
%TO.N,SYS_SPI_MOSI*%
X2023500Y7483400D03*
%TO.N,SYS_SPI_SCLK*%
X1992400Y10012100D03*
X910800Y3041200D03*
%TO.N,FIRE_ARMED*%
X-1175800Y812400D03*
X6058100Y-3026600D03*
%TO.N,ACT_WIRE_15*%
X-4326000Y8642700D03*
X12893800Y-6706200D03*
%TO.N,ACT_WIRE_11*%
X-8977000Y2398900D03*
X-7050100Y-13654700D03*
%TO.N,ACT_WIRE_2*%
X8506100Y10735700D03*
X1350300Y-8189800D03*
%TO.N,ACT_WIRE_8*%
X7310000Y-6150000D03*
X-14079000Y921000D03*
%TO.N,ACT_WIRE_9*%
X-9613800Y7084900D03*
X-12599300Y-5150000D03*
%TO.N,ACT_WIRE_14*%
X-5476000Y5023600D03*
X10610000Y-9294700D03*
%TD*%
%TO.N,FLEX_GND*%
D13*
X1851000Y-609000D02*
X1851000Y0D01*
X941000Y-2991000D02*
X890000Y-2991000D01*
X359000Y-2101000D02*
X1851000Y-609000D01*
X0Y-2101000D02*
X359000Y-2101000D01*
X890000Y-2991000D02*
X0Y-2101000D01*
X1140000Y-3190000D02*
X941000Y-2991000D01*
%TO.N,EXT_CAN_N*%
X-7070000Y6320000D02*
X-5164000Y6320000D01*
X-5164000Y6320000D02*
X-4660500Y5816500D01*
%TO.N,EXT_CAN_P*%
X-2958500Y-865000D02*
X-3280000Y-543500D01*
X-3280000Y-543500D02*
X-3280000Y650000D01*
X-8150000Y5650000D02*
X-8540000Y6040000D01*
X-3840000Y1210000D02*
X-3840000Y1230000D01*
X-8150000Y3510000D02*
X-8150000Y5650000D01*
X-7080000Y2440000D02*
X-8150000Y3510000D01*
X-9200000Y6040000D02*
X-9240000Y6080000D01*
X-8540000Y6040000D02*
X-9200000Y6040000D01*
X-5050000Y2440000D02*
X-7080000Y2440000D01*
X-3840000Y1230000D02*
X-5050000Y2440000D01*
X-3280000Y650000D02*
X-3840000Y1210000D01*
%TO.N,BAT_PROT*%
X6020000Y5018300D02*
X6020000Y4727100D01*
X6169600Y4577500D02*
X6169600Y4012500D01*
X4508100Y2351000D02*
X4202000Y2351000D01*
X6169600Y6459800D02*
X6169600Y5167900D01*
X6169600Y4012500D02*
X4508100Y2351000D01*
X5953000Y6676400D02*
X6169600Y6459800D01*
X6020000Y4727100D02*
X6169600Y4577500D01*
X6169600Y5167900D02*
X6020000Y5018300D01*
%TO.N,GPIO_EXT_0*%
X7560000Y5190000D02*
X7400000Y5350000D01*
X7050000Y6450000D02*
X6290000Y7210000D01*
X7400000Y5620000D02*
X7050000Y5970000D01*
X5420000Y7020000D02*
X5410000Y7020000D01*
X5410000Y7020000D02*
X5410000Y6456800D01*
X7050000Y5970000D02*
X7050000Y6450000D01*
X5630000Y7210000D02*
X5620000Y7220000D01*
X6290000Y7210000D02*
X5630000Y7210000D01*
X5620000Y7220000D02*
X5420000Y7020000D01*
X5410000Y6456800D02*
X5762100Y6104700D01*
X7400000Y5350000D02*
X7400000Y5620000D01*
%TO.N,GPIO_EXT_1*%
X9640000Y3320000D02*
X10510000Y3320000D01*
X4870000Y7530000D02*
X5100000Y7760000D01*
X5753100Y5401200D02*
X4870000Y6284300D01*
X4870000Y6284300D02*
X4870000Y7530000D01*
X8810000Y4150000D02*
X9640000Y3320000D01*
X8810000Y6800000D02*
X8810000Y4150000D01*
X5100000Y7760000D02*
X7850000Y7760000D01*
X7850000Y7760000D02*
X8810000Y6800000D01*
%TO.N,GPIO_EXT_2*%
X7780000Y2780000D02*
X6570000Y1570000D01*
X7820000Y2780000D02*
X7780000Y2780000D01*
%TO.N,GPIO_EXT_3*%
X4940000Y-7890000D02*
X3740000Y-7890000D01*
X-1330000Y-5000000D02*
X-1020000Y-4690000D01*
X-1020000Y-3490000D02*
X-1590000Y-2920000D01*
X2100000Y-9530000D02*
X-1470000Y-9530000D01*
X-1020000Y-4690000D02*
X-1020000Y-3490000D01*
X-2980000Y-8020000D02*
X-2980000Y-5310000D01*
X8270000Y290000D02*
X8740000Y-180000D01*
X5060000Y-6540000D02*
X5060000Y-7770000D01*
X-1470000Y-9530000D02*
X-2980000Y-8020000D01*
X5060000Y-7770000D02*
X4940000Y-7890000D01*
X3740000Y-7890000D02*
X2100000Y-9530000D01*
X-2670000Y-5000000D02*
X-1330000Y-5000000D01*
X8740000Y-760000D02*
X6440000Y-3060000D01*
X-1590000Y-2920000D02*
X-2770000Y-2920000D01*
X-3839000Y-1851000D02*
X-6282300Y-1851000D01*
X-2770000Y-2920000D02*
X-3839000Y-1851000D01*
X6440000Y-5160000D02*
X5060000Y-6540000D01*
X6440000Y-3060000D02*
X6440000Y-5160000D01*
X6680000Y290000D02*
X8270000Y290000D01*
X-2980000Y-5310000D02*
X-2670000Y-5000000D01*
X8740000Y-180000D02*
X8740000Y-760000D01*
%TO.N,ACTIVATE_CONFIRM*%
X0Y-6303000D02*
X922500Y-7225500D01*
%TO.N,JUMP_PAD*%
X-1750000Y-860000D02*
X-1690000Y-860000D01*
X-1851000Y-759000D02*
X-1750000Y-860000D01*
X-1851000Y0D02*
X-1851000Y-759000D01*
%TO.N,JUMP_WAKE*%
X8090000Y-910000D02*
X8150000Y-850000D01*
X3350000Y-270000D02*
X3990000Y-910000D01*
X3150000Y-270000D02*
X3350000Y-270000D01*
X3990000Y-910000D02*
X8090000Y-910000D01*
%TO.N,ACT_WIRE_13*%
X3753400Y-13207500D02*
X5087500Y-13207500D01*
X5087500Y-13207500D02*
X5740000Y-13860000D01*
%TO.N,ACT_WIRE_3*%
X5740000Y13501900D02*
X5740000Y13860000D01*
X6640400Y12601500D02*
X5740000Y13501900D01*
%TO.N,ACT_WIRE_1*%
X13153700Y4603900D02*
X13860000Y5310200D01*
X13860000Y5310200D02*
X13860000Y5740000D01*
%TO.N,ACT_WIRE_12*%
X353400Y-14646600D02*
X0Y-15000000D01*
X353400Y-13688800D02*
X353400Y-14646600D01*
%TO.N,ACT_WIRE_5*%
X-5740000Y12498200D02*
X-5740000Y13860000D01*
%TO.N,ACT_WIRE_6*%
X-11542800Y9677200D02*
X-10610000Y10610000D01*
%TO.N,ACT_WIRE_10*%
X-9453400Y-9924300D02*
X-9924300Y-9924300D01*
X-9924300Y-9924300D02*
X-10610000Y-10610000D01*
%TO.N,ACT_WIRE_7*%
X-13860000Y5740000D02*
X-12498000Y5740000D01*
%TO.N,ACT_WIRE_0*%
X13184400Y-1068200D02*
X13931800Y-1068200D01*
X13931800Y-1068200D02*
X15000000Y0D01*
%TO.N,ACTIVATE_SET*%
X5817900Y4158200D02*
X5524100Y4452000D01*
X5524100Y4452000D02*
X4202000Y4452000D01*
%TO.N,ACT_WIRE_4*%
X-848200Y14151800D02*
X0Y15000000D01*
X-1083600Y14151800D02*
X-848200Y14151800D01*
%TO.N,3V3_AON*%
X0Y6303000D02*
X0Y7610300D01*
X0Y7610300D02*
X-1600Y7611900D01*
%TO.N,BAT_RAW*%
X-3081700Y-9141600D02*
X-3254400Y-9141600D01*
X-3254400Y-9141600D02*
X-3254400Y-5105400D01*
X-3076800Y-4927800D02*
X-2101000Y-3952000D01*
X967600Y-13190900D02*
X-3081700Y-9141600D01*
X-3254400Y-5105400D02*
X-3076800Y-4927800D01*
%TO.N,BOOT0*%
X-8290000Y-120000D02*
X-8290000Y1540000D01*
X-7474100Y-436700D02*
X-7973300Y-436700D01*
X-8290000Y1540000D02*
X-8140000Y1690000D01*
X-7973300Y-436700D02*
X-8290000Y-120000D01*
%TO.N,COMP_SWDCLK*%
X3140000Y-2890000D02*
X2101000Y-1851000D01*
X3420000Y-2890000D02*
X3140000Y-2890000D01*
%TO.N,COMP_SWDIO*%
X-656300Y7497700D02*
X-2101000Y6053000D01*
%TO.N,FIN1_AOUT1*%
X2101000Y1750100D02*
X2101000Y1851000D01*
X1050000Y820000D02*
X1170900Y820000D01*
X1170900Y820000D02*
X2101000Y1750100D01*
%TO.N,FIN2_AOUT1*%
X-180000Y1980000D02*
X-910300Y2710300D01*
X-910300Y2710300D02*
X-910300Y3041700D01*
%TO.N,FIN3_AOUT1*%
X-5321700Y-4878300D02*
X-5128300Y-4878300D01*
X-7110000Y-3090000D02*
X-5321700Y-4878300D01*
X-6350000Y1560000D02*
X-6350000Y-320000D01*
X-7110000Y-1080000D02*
X-7110000Y-3090000D01*
X-6350000Y-320000D02*
X-7110000Y-1080000D01*
%TO.N,FIN4_AOUT1*%
X1050000Y2370000D02*
X1790000Y3110000D01*
X1790000Y3110000D02*
X2790000Y3110000D01*
X-740000Y980000D02*
X390000Y980000D01*
X-940000Y1180000D02*
X-740000Y980000D01*
X-2550000Y1180000D02*
X-940000Y1180000D01*
X3230000Y2670000D02*
X3230000Y1222000D01*
X4202000Y250000D02*
X4523400Y250000D01*
X1040000Y2370000D02*
X1050000Y2370000D01*
X4523400Y250000D02*
X5829900Y1556500D01*
X1040000Y1630000D02*
X1040000Y2370000D01*
X3230000Y1222000D02*
X4202000Y250000D01*
X-2920000Y1550000D02*
X-2550000Y1180000D01*
X390000Y980000D02*
X1040000Y1630000D01*
X2790000Y3110000D02*
X3230000Y2670000D01*
%TO.N,FIN_HALL*%
X4787100Y-5522000D02*
X4558700Y-5293600D01*
X3201700Y-5293600D02*
X2101000Y-4192900D01*
X112900Y-4192900D02*
X70000Y-4150000D01*
X2101000Y-4192900D02*
X112900Y-4192900D01*
X4558700Y-5293600D02*
X3201700Y-5293600D01*
%TO.N,FIN_VREF*%
X2441300Y-5712700D02*
X4038600Y-5712700D01*
X2101000Y-6053000D02*
X2441300Y-5712700D01*
%TO.N,NRST*%
X-735100Y-7418900D02*
X-2101000Y-6053000D01*
%TO.N,SWO*%
X-5867500Y-1068200D02*
X-6285400Y-1068200D01*
X-4202000Y250000D02*
X-4549300Y250000D01*
X-4549300Y250000D02*
X-5867500Y-1068200D01*
%TO.N,SYS_I2C_SCL*%
X4616200Y-3952000D02*
X5336500Y-4672300D01*
X4202000Y-3952000D02*
X4616200Y-3952000D01*
%TO.N,SYS_I2C_SDA*%
X8690000Y-4290000D02*
X7870000Y-4290000D01*
X11600000Y5510000D02*
X11600000Y4420000D01*
X11600000Y4420000D02*
X12070000Y3950000D01*
X12720000Y-260000D02*
X8690000Y-4290000D01*
X7320000Y8280000D02*
X8830000Y8280000D01*
X8830000Y8280000D02*
X11600000Y5510000D01*
X12720000Y3710000D02*
X12720000Y-260000D01*
X5230000Y10370000D02*
X7320000Y8280000D01*
X-1780000Y10370000D02*
X5230000Y10370000D01*
X12480000Y3950000D02*
X12720000Y3710000D01*
X-3825400Y5795800D02*
X-3825400Y8324600D01*
X-3825400Y8324600D02*
X-1780000Y10370000D01*
X12070000Y3950000D02*
X12480000Y3950000D01*
%TO.N,SYS_SPI_CS_FIN*%
X-6114300Y3207600D02*
X-5946700Y3040000D01*
X-550000Y4180000D02*
X200000Y4180000D01*
X-5946700Y3040000D02*
X-1690000Y3040000D01*
X-1690000Y3040000D02*
X-550000Y4180000D01*
%TO.N,SYS_SPI_MISO*%
X-2650000Y4730000D02*
X-3250000Y5330000D01*
X2650000Y8670000D02*
X3650000Y7670000D01*
X-2650000Y4110000D02*
X-2650000Y4730000D01*
X3650000Y7670000D02*
X3650000Y6415200D01*
X-3250000Y5330000D02*
X-3250000Y8100000D01*
X3650000Y6415200D02*
X3396900Y6162100D01*
X-2680000Y8670000D02*
X2650000Y8670000D01*
X-3250000Y8100000D02*
X-2680000Y8670000D01*
%TO.N,SYS_SPI_MOSI*%
X2414600Y7092300D02*
X2023500Y7483400D01*
X2101000Y3952000D02*
X2414600Y4265600D01*
X2414600Y4265600D02*
X2414600Y7092300D01*
%TO.N,SYS_SPI_SCLK*%
X-6530000Y2730000D02*
X-2130000Y2730000D01*
X-7270000Y3470000D02*
X-6530000Y2730000D01*
X-700000Y1300000D02*
X210000Y1300000D01*
X780000Y1870000D02*
X780000Y2910400D01*
X-7270000Y4030000D02*
X-7270000Y3470000D01*
X-2130000Y2730000D02*
X-700000Y1300000D01*
X210000Y1300000D02*
X780000Y1870000D01*
X780000Y2910400D02*
X910800Y3041200D01*
%TO.N,FIRE_ARMED*%
X-363400Y0D02*
X0Y0D01*
X-1175800Y812400D02*
X-363400Y0D01*
%TO.N,ACT_WIRE_15*%
X12893800Y-6706200D02*
X13860000Y-5740000D01*
%TO.N,ACT_WIRE_11*%
X-7050100Y-13654700D02*
X-5945300Y-13654700D01*
X-5945300Y-13654700D02*
X-5740000Y-13860000D01*
%TO.N,ACT_WIRE_2*%
X8506100Y10735700D02*
X8631800Y10610000D01*
X8631800Y10610000D02*
X10610000Y10610000D01*
%TO.N,ACT_WIRE_8*%
X-14079000Y921000D02*
X-15000000Y0D01*
%TO.N,ACT_WIRE_9*%
X-13270000Y-5150000D02*
X-13860000Y-5740000D01*
X-12599300Y-5150000D02*
X-13270000Y-5150000D01*
%TO.N,ACT_WIRE_14*%
X10610000Y-9294700D02*
X10610000Y-10610000D01*
%TD*%
M02*
