%TF.GenerationSoftware,KiCad,Pcbnew,10.0.0*%
%TF.CreationDate,2026-09-03T12:15:51+02:00*%
%TF.ProjectId,spacer_aft_end_board_activation_interface,73706163-6572-45f6-9166-745f656e645f,rev?*%
%TF.SameCoordinates,Original*%
%TF.FileFunction,Copper,L2,Bot*%
%TF.FilePolarity,Positive*%
%FSLAX46Y46*%
G04 Gerber Fmt 4.6, Leading zero omitted, Abs format (unit mm)*
G04 Created by KiCad (PCBNEW 10.0.0) date 2026-09-03 12:15:51*
%MOMM*%
%LPD*%
G01*
G04 APERTURE LIST*
%TA.AperFunction,SMDPad,CuDef*%
%ADD10R,0.900000X0.900000*%
%TD*%
%TA.AperFunction,ViaPad*%
%ADD11C,0.900000*%
%TD*%
G04 APERTURE END LIST*
D10*
%TO.P,P_spacer_aft_end_board_activation_interface_bot,1*%
%TO.N,3V3*%
X-13950000Y-5950000D03*
%TO.P,P_spacer_aft_end_board_activation_interface_bot,2*%
%TO.N,3V3_AON*%
X-13950000Y-4350000D03*
%TO.P,P_spacer_aft_end_board_activation_interface_bot,3*%
%TO.N,ACTIVATE_CONFIRM*%
X-13950000Y-2750000D03*
%TO.P,P_spacer_aft_end_board_activation_interface_bot,4*%
%TO.N,ACTIVATE_SET*%
X-13950000Y-1150000D03*
%TO.P,P_spacer_aft_end_board_activation_interface_bot,5*%
%TO.N,BAT_PROT*%
X-13950000Y450000D03*
%TO.P,P_spacer_aft_end_board_activation_interface_bot,6*%
%TO.N,BAT_RAW*%
X-13950000Y2050000D03*
%TO.P,P_spacer_aft_end_board_activation_interface_bot,7*%
%TO.N,BOOT0*%
X-13950000Y3650000D03*
%TO.P,P_spacer_aft_end_board_activation_interface_bot,8*%
%TO.N,COMP_5V*%
X-13950000Y5250000D03*
%TO.P,P_spacer_aft_end_board_activation_interface_bot,9*%
%TO.N,COMP_SWDCLK*%
X-12350000Y-5950000D03*
%TO.P,P_spacer_aft_end_board_activation_interface_bot,10*%
%TO.N,COMP_SWDIO*%
X-12350000Y-4350000D03*
%TO.P,P_spacer_aft_end_board_activation_interface_bot,11*%
%TO.N,EXT_CAN_RX*%
X-12350000Y-2750000D03*
%TO.P,P_spacer_aft_end_board_activation_interface_bot,12*%
%TO.N,EXT_CAN_TX*%
X-12350000Y8450000D03*
%TO.P,P_spacer_aft_end_board_activation_interface_bot,13*%
%TO.N,FIN1_AOUT1*%
X-10750000Y-5950000D03*
%TO.P,P_spacer_aft_end_board_activation_interface_bot,14*%
%TO.N,FIN2_AOUT1*%
X-10750000Y-4350000D03*
%TO.P,P_spacer_aft_end_board_activation_interface_bot,15*%
%TO.N,FIN3_AOUT1*%
X-10750000Y-2750000D03*
%TO.P,P_spacer_aft_end_board_activation_interface_bot,16*%
%TO.N,FIN4_AOUT1*%
X-10750000Y8450000D03*
%TO.P,P_spacer_aft_end_board_activation_interface_bot,17*%
%TO.N,FIN_HALL*%
X-10750000Y10050000D03*
%TO.P,P_spacer_aft_end_board_activation_interface_bot,18*%
%TO.N,FIN_VREF*%
X-9150000Y8450000D03*
%TO.P,P_spacer_aft_end_board_activation_interface_bot,19*%
%TO.N,FIRE_HV*%
X-9150000Y10050000D03*
%TO.P,P_spacer_aft_end_board_activation_interface_bot,20*%
%TO.N,FLEX_GND*%
X-9150000Y11650000D03*
%TO.P,P_spacer_aft_end_board_activation_interface_bot,21*%
%TO.N,GPIO_EXT_0*%
X-7550000Y11650000D03*
%TO.P,P_spacer_aft_end_board_activation_interface_bot,22*%
%TO.N,GPIO_EXT_1*%
X-7550000Y13250000D03*
%TO.P,P_spacer_aft_end_board_activation_interface_bot,23*%
%TO.N,GPIO_EXT_2*%
X-5950000Y-13950000D03*
%TO.P,P_spacer_aft_end_board_activation_interface_bot,24*%
%TO.N,GPIO_EXT_3*%
X-5950000Y-12350000D03*
%TO.P,P_spacer_aft_end_board_activation_interface_bot,25*%
%TO.N,JUMP_WAKE*%
X-5950000Y-10750000D03*
%TO.P,P_spacer_aft_end_board_activation_interface_bot,26*%
%TO.N,NRST*%
X-5950000Y11650000D03*
%TO.P,P_spacer_aft_end_board_activation_interface_bot,27*%
%TO.N,SWO*%
X-5950000Y13250000D03*
%TO.P,P_spacer_aft_end_board_activation_interface_bot,28*%
%TO.N,SYS_I2C_SCL*%
X-4350000Y-13950000D03*
%TO.P,P_spacer_aft_end_board_activation_interface_bot,29*%
%TO.N,SYS_I2C_SDA*%
X-4350000Y-12350000D03*
%TO.P,P_spacer_aft_end_board_activation_interface_bot,30*%
%TO.N,SYS_SPI_CS_FIN*%
X-4350000Y-10750000D03*
%TO.P,P_spacer_aft_end_board_activation_interface_bot,31*%
%TO.N,SYS_SPI_MISO*%
X-4350000Y11650000D03*
%TO.P,P_spacer_aft_end_board_activation_interface_bot,32*%
%TO.N,SYS_SPI_MOSI*%
X-4350000Y13250000D03*
%TO.P,P_spacer_aft_end_board_activation_interface_bot,33*%
%TO.N,SYS_SPI_SCLK*%
X-2750000Y-13950000D03*
%TO.P,P_spacer_aft_end_board_activation_interface_bot,34*%
%TO.N,3V3*%
X-2750000Y6850000D03*
%TO.P,P_spacer_aft_end_board_activation_interface_bot,35*%
%TO.N,3V3_AON*%
X-2750000Y8450000D03*
%TO.P,P_spacer_aft_end_board_activation_interface_bot,36*%
%TO.N,BAT_PROT*%
X-2750000Y10050000D03*
%TO.P,P_spacer_aft_end_board_activation_interface_bot,37*%
%TO.N,BAT_RAW*%
X-2750000Y11650000D03*
%TO.P,P_spacer_aft_end_board_activation_interface_bot,38*%
%TO.N,COMP_5V*%
X-2750000Y13250000D03*
%TO.P,P_spacer_aft_end_board_activation_interface_bot,39*%
%TO.N,FIRE_HV*%
X-2750000Y14850000D03*
%TO.P,P_spacer_aft_end_board_activation_interface_bot,40*%
%TO.N,3V3*%
X-1150000Y-13950000D03*
%TO.P,P_spacer_aft_end_board_activation_interface_bot,41*%
%TO.N,FLEX_GND*%
X-1150000Y11650000D03*
%TO.P,P_spacer_aft_end_board_activation_interface_bot,42*%
X-1150000Y13250000D03*
%TO.P,P_spacer_aft_end_board_activation_interface_bot,43*%
X-1150000Y14850000D03*
%TO.P,P_spacer_aft_end_board_activation_interface_bot,44*%
X450000Y-13950000D03*
%TO.P,P_spacer_aft_end_board_activation_interface_bot,45*%
X450000Y11650000D03*
%TO.P,P_spacer_aft_end_board_activation_interface_bot,46*%
X450000Y13250000D03*
%TO.P,P_spacer_aft_end_board_activation_interface_bot,47*%
X450000Y14850000D03*
%TO.P,P_spacer_aft_end_board_activation_interface_bot,48*%
X2050000Y-13950000D03*
%TO.P,P_spacer_aft_end_board_activation_interface_bot,49*%
X2050000Y-12350000D03*
%TO.P,P_spacer_aft_end_board_activation_interface_bot,50*%
X2050000Y11650000D03*
%TO.P,P_spacer_aft_end_board_activation_interface_bot,51*%
X2050000Y13250000D03*
%TO.P,P_spacer_aft_end_board_activation_interface_bot,52*%
X2050000Y14850000D03*
%TO.P,P_spacer_aft_end_board_activation_interface_bot,53*%
X3650000Y-13950000D03*
%TO.P,P_spacer_aft_end_board_activation_interface_bot,54*%
X3650000Y-12350000D03*
%TO.P,P_spacer_aft_end_board_activation_interface_bot,55*%
X3650000Y13250000D03*
%TO.P,P_spacer_aft_end_board_activation_interface_bot,56*%
X3650000Y14850000D03*
%TO.P,P_spacer_aft_end_board_activation_interface_bot,57*%
X5250000Y-13950000D03*
%TO.P,P_spacer_aft_end_board_activation_interface_bot,58*%
X5250000Y-12350000D03*
%TO.P,P_spacer_aft_end_board_activation_interface_bot,59*%
X5250000Y13250000D03*
%TO.P,P_spacer_aft_end_board_activation_interface_bot,60*%
X6850000Y-12350000D03*
%TO.P,P_spacer_aft_end_board_activation_interface_bot,61*%
X6850000Y-10750000D03*
%TO.P,P_spacer_aft_end_board_activation_interface_bot,62*%
X6850000Y-9150000D03*
%TO.P,P_spacer_aft_end_board_activation_interface_bot,63*%
X6850000Y-7550000D03*
%TO.P,P_spacer_aft_end_board_activation_interface_bot,64*%
X6850000Y13250000D03*
%TO.P,P_spacer_aft_end_board_activation_interface_bot,65*%
X8450000Y-12350000D03*
%TO.P,P_spacer_aft_end_board_activation_interface_bot,66*%
X8450000Y-10750000D03*
%TO.P,P_spacer_aft_end_board_activation_interface_bot,67*%
X8450000Y-9150000D03*
%TO.P,P_spacer_aft_end_board_activation_interface_bot,68*%
X8450000Y-7550000D03*
%TO.P,P_spacer_aft_end_board_activation_interface_bot,69*%
X10050000Y-10750000D03*
%TO.P,P_spacer_aft_end_board_activation_interface_bot,70*%
X10050000Y-9150000D03*
%TO.P,P_spacer_aft_end_board_activation_interface_bot,71*%
X10050000Y-7550000D03*
%TO.P,P_spacer_aft_end_board_activation_interface_bot,72*%
X10050000Y-5950000D03*
%TO.P,P_spacer_aft_end_board_activation_interface_bot,73*%
X10050000Y-4350000D03*
%TO.P,P_spacer_aft_end_board_activation_interface_bot,74*%
X10050000Y-2750000D03*
%TO.P,P_spacer_aft_end_board_activation_interface_bot,75*%
X10050000Y-1150000D03*
%TO.P,P_spacer_aft_end_board_activation_interface_bot,76*%
X11650000Y-9150000D03*
%TO.P,P_spacer_aft_end_board_activation_interface_bot,77*%
X11650000Y-7550000D03*
%TO.P,P_spacer_aft_end_board_activation_interface_bot,78*%
X11650000Y-5950000D03*
%TO.P,P_spacer_aft_end_board_activation_interface_bot,79*%
X11650000Y-4350000D03*
%TO.P,P_spacer_aft_end_board_activation_interface_bot,80*%
X11650000Y-2750000D03*
%TO.P,P_spacer_aft_end_board_activation_interface_bot,81*%
X11650000Y2050000D03*
%TO.P,P_spacer_aft_end_board_activation_interface_bot,82*%
X11650000Y3650000D03*
%TO.P,P_spacer_aft_end_board_activation_interface_bot,83*%
X11650000Y5250000D03*
%TO.P,P_spacer_aft_end_board_activation_interface_bot,84*%
X13250000Y-7550000D03*
%TO.P,P_spacer_aft_end_board_activation_interface_bot,85*%
X13250000Y-5950000D03*
%TO.P,P_spacer_aft_end_board_activation_interface_bot,86*%
X13250000Y-4350000D03*
%TO.P,P_spacer_aft_end_board_activation_interface_bot,87*%
X13250000Y-2750000D03*
%TO.P,P_spacer_aft_end_board_activation_interface_bot,88*%
X13250000Y-1150000D03*
%TO.P,P_spacer_aft_end_board_activation_interface_bot,89*%
X13250000Y450000D03*
%TO.P,P_spacer_aft_end_board_activation_interface_bot,90*%
X13250000Y2050000D03*
%TO.P,P_spacer_aft_end_board_activation_interface_bot,91*%
X13250000Y3650000D03*
%TO.P,P_spacer_aft_end_board_activation_interface_bot,92*%
X13250000Y5250000D03*
%TO.P,P_spacer_aft_end_board_activation_interface_bot,93*%
X13250000Y6850000D03*
%TO.P,P_spacer_aft_end_board_activation_interface_bot,94*%
X14850000Y-2750000D03*
%TO.P,P_spacer_aft_end_board_activation_interface_bot,95*%
X14850000Y-1150000D03*
%TO.P,P_spacer_aft_end_board_activation_interface_bot,96*%
X14850000Y450000D03*
%TO.P,P_spacer_aft_end_board_activation_interface_bot,97*%
X14850000Y2050000D03*
%TO.P,P_spacer_aft_end_board_activation_interface_bot,98*%
X14850000Y3650000D03*
%TD*%
D11*
%TO.N,3V3*%
X-13950000Y-5950000D03*
%TO.N,3V3_AON*%
X-13950000Y-4350000D03*
%TO.N,ACTIVATE_CONFIRM*%
X-13950000Y-2750000D03*
%TO.N,ACTIVATE_SET*%
X-13950000Y-1150000D03*
%TO.N,BAT_PROT*%
X-13950000Y450000D03*
%TO.N,BAT_RAW*%
X-13950000Y2050000D03*
%TO.N,BOOT0*%
X-13950000Y3650000D03*
%TO.N,COMP_5V*%
X-13950000Y5250000D03*
%TO.N,COMP_SWDCLK*%
X-12350000Y-5950000D03*
%TO.N,COMP_SWDIO*%
X-12350000Y-4350000D03*
%TO.N,EXT_CAN_RX*%
X-12350000Y-2750000D03*
%TO.N,EXT_CAN_TX*%
X-12350000Y8450000D03*
%TO.N,FIN1_AOUT1*%
X-10750000Y-5950000D03*
%TO.N,FIN2_AOUT1*%
X-10750000Y-4350000D03*
%TO.N,FIN3_AOUT1*%
X-10750000Y-2750000D03*
%TO.N,FIN4_AOUT1*%
X-10750000Y8450000D03*
%TO.N,FIN_HALL*%
X-10750000Y10050000D03*
%TO.N,FIN_VREF*%
X-9150000Y8450000D03*
%TO.N,FIRE_HV*%
X-9150000Y10050000D03*
%TO.N,FLEX_GND*%
X-9150000Y11650000D03*
%TO.N,GPIO_EXT_0*%
X-7550000Y11650000D03*
%TO.N,GPIO_EXT_1*%
X-7550000Y13250000D03*
%TO.N,GPIO_EXT_2*%
X-5950000Y-13950000D03*
%TO.N,GPIO_EXT_3*%
X-5950000Y-12350000D03*
%TO.N,JUMP_WAKE*%
X-5950000Y-10750000D03*
%TO.N,NRST*%
X-5950000Y11650000D03*
%TO.N,SWO*%
X-5950000Y13250000D03*
%TO.N,SYS_I2C_SCL*%
X-4350000Y-13950000D03*
%TO.N,SYS_I2C_SDA*%
X-4350000Y-12350000D03*
%TO.N,SYS_SPI_CS_FIN*%
X-4350000Y-10750000D03*
%TO.N,SYS_SPI_MISO*%
X-4350000Y11650000D03*
%TO.N,SYS_SPI_MOSI*%
X-4350000Y13250000D03*
%TO.N,SYS_SPI_SCLK*%
X-2750000Y-13950000D03*
%TO.N,3V3*%
X-2750000Y6850000D03*
%TO.N,3V3_AON*%
X-2750000Y8450000D03*
%TO.N,BAT_PROT*%
X-2750000Y10050000D03*
%TO.N,BAT_RAW*%
X-2750000Y11650000D03*
%TO.N,COMP_5V*%
X-2750000Y13250000D03*
%TO.N,FIRE_HV*%
X-2750000Y14850000D03*
%TO.N,3V3*%
X-1150000Y-13950000D03*
%TO.N,FLEX_GND*%
X-1150000Y11650000D03*
X-1150000Y13250000D03*
X-1150000Y14850000D03*
X450000Y-13950000D03*
X450000Y11650000D03*
X450000Y13250000D03*
X450000Y14850000D03*
X2050000Y-13950000D03*
X2050000Y-12350000D03*
X2050000Y11650000D03*
X2050000Y13250000D03*
X2050000Y14850000D03*
X3650000Y-13950000D03*
X3650000Y-12350000D03*
X3650000Y13250000D03*
X3650000Y14850000D03*
X5250000Y-13950000D03*
X5250000Y-12350000D03*
X5250000Y13250000D03*
X6850000Y-12350000D03*
X6850000Y-10750000D03*
X6850000Y-9150000D03*
X6850000Y-7550000D03*
X6850000Y13250000D03*
X8450000Y-12350000D03*
X8450000Y-10750000D03*
X8450000Y-9150000D03*
X8450000Y-7550000D03*
X10050000Y-10750000D03*
X10050000Y-9150000D03*
X10050000Y-7550000D03*
X10050000Y-5950000D03*
X10050000Y-4350000D03*
X10050000Y-2750000D03*
X10050000Y-1150000D03*
X11650000Y-9150000D03*
X11650000Y-7550000D03*
X11650000Y-5950000D03*
X11650000Y-4350000D03*
X11650000Y-2750000D03*
X11650000Y2050000D03*
X11650000Y3650000D03*
X11650000Y5250000D03*
X13250000Y-7550000D03*
X13250000Y-5950000D03*
X13250000Y-4350000D03*
X13250000Y-2750000D03*
X13250000Y-1150000D03*
X13250000Y450000D03*
X13250000Y2050000D03*
X13250000Y3650000D03*
X13250000Y5250000D03*
X13250000Y6850000D03*
X14850000Y-2750000D03*
X14850000Y-1150000D03*
X14850000Y450000D03*
X14850000Y2050000D03*
X14850000Y3650000D03*
%TD*%
M02*
