M48
; DRILL file KiCad 10.0.3 date 2026-10-04T16:12:52
; FORMAT={-:-/ absolute / metric / decimal}
; #@! TF.CreationDate,2026-10-04T16:12:52+02:00
; #@! TF.GenerationSoftware,Kicad,Pcbnew,10.0.3
; #@! TF.FileFunction,Plated,1,14,PTH
FMAT,2
METRIC
; #@! TA.AperFunction,Plated,PTH,ViaDrill
T1C0.200
%
G90
G05
T1
X-13.799Y-3.078
X-13.35Y5.55
X-12.908Y-8.884
X-11.973Y7.064
X-11.95Y3.95
X-11.85Y-0.321
X-11.7Y10.79
X-11.649Y0.874
X-11.527Y-9.432
X-11.42Y-10.743
X-11.298Y-3.818
X-10.954Y2.038
X-10.95Y3.85
X-10.805Y-11.358
X-10.783Y7.125
X-9.745Y7.632
X-9.607Y-1.426
X-9.576Y1.262
X-9.513Y-11.155
X-9.22Y-12.35
X-8.75Y1.57
X-8.579Y6.25
X-8.532Y7.08
X-8.425Y-13.813
X-7.996Y12.368
X-7.841Y-11.03
X-7.754Y-14.429
X-7.72Y-13.73
X-7.607Y5.67
X-7.365Y7.304
X-7.338Y8.242
X-7.327Y8.981
X-7.055Y-14.415
X-6.895Y-11.33
X-6.836Y-12.091
X-6.74Y-9.027
X-6.658Y9.457
X-6.651Y7.177
X-6.575Y-9.85
X-6.35Y11.138
X-6.136Y12.368
X-5.951Y-11.428
X-5.685Y-1.458
X-5.45Y-14.391
X-5.353Y14.659
X-5.339Y-0.85
X-5.147Y2.044
X-5.037Y1.287
X-4.636Y-15.325
X-4.45Y11.938
X-4.264Y-1.057
X-4.24Y-12.11
X-4.23Y7.701
X-4.18Y-3.56
X-4.178Y-5.068
X-4.166Y2.097
X-3.888Y5.34
X-3.841Y-15.227
X-3.683Y-4.403
X-3.596Y-2.47
X-3.544Y10.702
X-3.238Y-15.63
X-3.23Y-3.39
X-3.087Y-13.754
X-2.845Y10.679
X-2.807Y5.334
X-2.25Y4.25
X-2.117Y-13.835
X-1.97Y-5.42
X-1.93Y-12.13
X-1.821Y-3.998
X-1.817Y-15.765
X-1.585Y5.531
X-1.157Y-7.809
X-1.026Y3.535
X-0.976Y4.985
X-0.757Y13.018
X-0.69Y-10.18
X-0.675Y-14.21
X-0.671Y-7.291
X-0.63Y-8.27
X-0.577Y-8.989
X-0.16Y-4.477
X-0.139Y-6.624
X0.104Y-7.661
X0.273Y-15.512
X0.956Y-15.356
X1.086Y5.194
X1.632Y13.722
X1.656Y1.455
X1.798Y-15.664
X1.867Y4.071
X2.026Y-2.865
X2.124Y-10.475
X2.26Y3.49
X2.275Y-8.647
X2.289Y12.748
X2.32Y-9.55
X2.33Y5.665
X2.593Y2.144
X2.616Y-11.388
X2.703Y-6.914
X3.001Y12.533
X3.005Y4.997
X3.12Y-15.28
X3.2Y-1.929
X3.362Y11.925
X3.44Y-10.533
X3.5Y-2.865
X3.577Y5.579
X3.662Y10.625
X3.717Y8.583
X3.818Y-15.331
X3.86Y-12.63
X4.04Y-11.63
X4.228Y6.919
X4.56Y10.687
X4.655Y1.873
X4.845Y-13.798
X4.89Y-6.94
X5.02Y-0.054
X5.137Y4.736
X5.155Y-1.251
X5.248Y10.077
X5.315Y3.509
X5.383Y2.024
X5.53Y-12.02
X5.535Y6.873
X5.882Y-0.755
X5.922Y5.561
X6.226Y4.316
X6.338Y-0.116
X6.38Y-11.54
X6.434Y10.183
X6.662Y5.857
X6.833Y-0.898
X7.137Y-13.002
X7.254Y6.25
X7.269Y2.031
X7.277Y10.206
X7.289Y8.877
X7.319Y6.961
X7.56Y-14.07
X7.612Y-11.504
X7.781Y0.795
X8.365Y-11.552
X8.45Y-8.14
X9.1Y-13.03
X9.173Y11.925
X9.47Y3.496
X9.523Y4.194
X9.577Y2.145
X9.897Y0.795
X9.897Y-0.675
X10.0Y-12.32
X10.058Y-1.418
X10.074Y0.074
X10.119Y11.926
X10.165Y3.412
X10.224Y-6.949
X10.285Y-6.217
X11.14Y11.37
X11.267Y-8.411
X11.874Y3.358
X12.104Y-9.001
X12.125Y4.984
X12.175Y6.66
X12.25Y10.008
X12.438Y-7.471
X12.645Y1.695
X13.42Y8.63
X13.487Y7.032
X13.639Y7.716
X14.352Y-7.39
X14.558Y-6.625
X14.662Y-1.457
X14.682Y-3.193
X14.735Y-3.891
X14.74Y5.7
X14.745Y-5.063
X14.815Y0.397
X14.832Y-0.303
X15.145Y-0.949
X15.325Y3.854
X15.341Y1.024
X15.41Y3.05
X15.425Y4.6
X15.77Y-1.67
X15.99Y0.33
M30
