%TF.GenerationSoftware,KiCad,Pcbnew,10.0.3*%
%TF.CreationDate,2026-10-04T16:12:51+02:00*%
%TF.ProjectId,fin_ble_board,66696e5f-626c-4655-9f62-6f6172642e6b,rev?*%
%TF.SameCoordinates,Original*%
%TF.FileFunction,Copper,L9,Inr*%
%TF.FilePolarity,Positive*%
%FSLAX46Y46*%
G04 Gerber Fmt 4.6, Leading zero omitted, Abs format (unit mm)*
G04 Created by KiCad (PCBNEW 10.0.3) date 2026-10-04 16:12:51*
%MOMM*%
%LPD*%
G01*
G04 APERTURE LIST*
%TA.AperFunction,ViaPad*%
%ADD10C,0.450000*%
%TD*%
%TA.AperFunction,Conductor*%
%ADD11C,0.300000*%
%TD*%
%TA.AperFunction,Conductor*%
%ADD12C,0.100000*%
%TD*%
%TA.AperFunction,Conductor*%
%ADD13C,0.250000*%
%TD*%
G04 APERTURE END LIST*
D10*
%TO.N,COMP_5V_RAW*%
X-9576000Y1262000D03*
X14832058Y-302919D03*
X3362000Y11925000D03*
X10074000Y74000D03*
X-13799000Y-3078000D03*
X-4450000Y11937999D03*
X3500000Y-2865000D03*
X-9220000Y-12350000D03*
X12104000Y-9001000D03*
X2703124Y-6913682D03*
%TO.N,FLEX_GND*%
X-6350000Y11138000D03*
X-12908023Y-8884159D03*
X-13350000Y5550000D03*
X3662000Y10625000D03*
X1655959Y1454649D03*
X-8750000Y1570000D03*
%TO.N,FIN2_AOUT1*%
X-9745100Y7632100D03*
X5247900Y10077300D03*
X-11298100Y-3817900D03*
%TO.N,FIN2_AOUT2*%
X-7607300Y5670500D03*
X7277200Y10206200D03*
X-9607500Y-1426300D03*
%TO.N,FIN2_BOUT2*%
X-5684679Y-1458439D03*
X7254000Y6250000D03*
%TO.N,FIN2_BOUT1*%
X-11849800Y-320600D03*
X5137326Y4735574D03*
%TO.N,FIN2_DVDD*%
X-5338550Y-850000D03*
X-8424763Y-13813048D03*
%TO.N,FIN_VREF*%
X5154600Y-1251300D03*
X5019700Y-53700D03*
X-4240000Y-12110000D03*
X6380000Y-11540000D03*
%TO.N,FIN2_DECAY*%
X-5146700Y2043800D03*
X14745000Y-5062597D03*
%TO.N,FIN2_APH*%
X-2116874Y-13834878D03*
X-2250000Y4250000D03*
%TO.N,FIN_NSLEEP*%
X-3230306Y-3390000D03*
X-10954500Y2037800D03*
X2289100Y12748400D03*
X-1820574Y-3998244D03*
%TO.N,PIEZO_P*%
X7780900Y794700D03*
X6337800Y-115900D03*
%TO.N,3V3*%
X14557540Y-6625000D03*
X-630000Y-8270000D03*
X-11649000Y874000D03*
X-11419714Y-10743038D03*
X7560000Y-14070000D03*
X-11950000Y3950000D03*
X-10950000Y3850000D03*
X-5450000Y-14391000D03*
X3199952Y-1928742D03*
X-6575000Y-9850000D03*
X14352080Y-7390015D03*
X5530000Y-12020000D03*
%TO.N,3V3_AON*%
X9470226Y3495597D03*
X-6135600Y12367900D03*
X-7995600Y12367900D03*
X-8578900Y6250000D03*
%TO.N,ACTIVATE_CONFIRM*%
X15990000Y330000D03*
%TO.N,ACTIVATE_SET*%
X15144738Y-949402D03*
X14740000Y5700000D03*
%TO.N,BAT_CELL1_POS*%
X15340720Y1024224D03*
X2329896Y5665152D03*
X2592659Y2144296D03*
%TO.N,BAT_CELL2_POS*%
X15325000Y3854000D03*
X6833300Y-898100D03*
%TO.N,BAT_CELL3_POS*%
X14814551Y396864D03*
X-4178497Y-5068136D03*
%TO.N,BAT_PROT*%
X13487311Y7032492D03*
X-11973300Y7063600D03*
X9577075Y2145000D03*
X-5353200Y14658500D03*
X-11700000Y10790000D03*
%TO.N,BAT_RAW*%
X-7054621Y-14414709D03*
X12437729Y-7471071D03*
X-10782600Y7125100D03*
X1866518Y4071113D03*
%TO.N,BOOT0*%
X15770000Y-1670000D03*
%TO.N,COMP_5V*%
X14662236Y-1456547D03*
X-7338400Y8241900D03*
X13639076Y7715845D03*
%TO.N,COMP_OUT*%
X10224050Y-6949394D03*
X12645000Y1695000D03*
%TO.N,COMP_SWDCLK*%
X5922326Y5560574D03*
X10165227Y3412066D03*
X6225800Y4315600D03*
%TO.N,COMP_SWDIO*%
X12125002Y4983998D03*
%TO.N,EXT_CAN_RX*%
X7319073Y6960972D03*
X15425002Y4600000D03*
%TO.N,EXT_CAN_TX*%
X9523166Y4193594D03*
X12174998Y6660000D03*
%TO.N,GPIO_EXT_0*%
X8450000Y-8140000D03*
%TO.N,GPIO_EXT_1*%
X9100000Y-13030000D03*
X11266926Y-8410681D03*
X273376Y-15511624D03*
%TO.N,GPIO_EXT_2*%
X955777Y-15355635D03*
X10000000Y-12320000D03*
X14681837Y-3192700D03*
%TO.N,GPIO_EXT_3*%
X3440100Y-10532800D03*
X9896700Y-674700D03*
%TO.N,H3LIS_INT1*%
X-670700Y-7291100D03*
X9896600Y794700D03*
%TO.N,I2C3_SCL*%
X10058400Y-1417700D03*
X1798000Y-15664000D03*
X7137300Y-13001700D03*
%TO.N,I2C3_SDA*%
X-674998Y-14210000D03*
X11874016Y3357824D03*
%TO.N,JUMP_WAKE*%
X-3682971Y-4402514D03*
X7269200Y2031200D03*
%TO.N,NRST*%
X-1816500Y-15764800D03*
X3818172Y-15330592D03*
X9173300Y11924800D03*
%TO.N,SWO*%
X-1929990Y-12130067D03*
X12250100Y10007900D03*
X-975891Y4985000D03*
%TO.N,SYS_I2C_SCL*%
X-3841400Y-15226600D03*
X-2844719Y10678772D03*
X10119100Y11926300D03*
%TO.N,SYS_I2C_SDA*%
X-3087364Y-13753788D03*
%TO.N,SYS_SPI_CS_FIN*%
X-1156987Y-7809253D03*
X1631800Y13722200D03*
X-7754475Y-14429153D03*
%TO.N,SYS_SPI_MISO*%
X-6835800Y-12091100D03*
X-4264500Y-1057200D03*
X-757100Y13018400D03*
%TO.N,SYS_SPI_MOSI*%
X-3544327Y10702264D03*
X-7720000Y-13730000D03*
X-9512934Y-11155000D03*
%TO.N,SYS_SPI_SCLK*%
X-4230100Y7700700D03*
X-3596292Y-2470074D03*
%TO.N,FIN1_AOUT1*%
X-6658100Y9456900D03*
X11140000Y11370000D03*
%TO.N,FIN1_AOUT2*%
X-7327400Y8981000D03*
X13420000Y8630000D03*
%TO.N,FIN1_BOUT2*%
X-7365000Y7304500D03*
X5535476Y6872824D03*
%TO.N,FIN1_BOUT1*%
X6661764Y5857367D03*
X-6650600Y7176600D03*
%TO.N,FIN1_DVDD*%
X-8532500Y7080400D03*
X-4180306Y-3559715D03*
X-3888100Y5339900D03*
X14734702Y-3890704D03*
%TO.N,FIN1_DECAY*%
X-139300Y-6624500D03*
X1085883Y5193798D03*
%TO.N,FIN1_BPH*%
X-1970000Y-5420000D03*
X-1584827Y5530578D03*
%TO.N,FIN1_BEN*%
X-3238300Y-15629900D03*
X-1025891Y3535000D03*
%TO.N,FIN1_AEN*%
X-2807500Y5333900D03*
X-4635521Y-15325002D03*
%TO.N,FIN3_AOUT1*%
X4560100Y10686600D03*
%TO.N,FIN3_AOUT2*%
X3001300Y12532700D03*
%TO.N,FIN3_BOUT2*%
X15409800Y3050000D03*
X3005324Y4997076D03*
X3716600Y8583500D03*
%TO.N,FIN3_BOUT1*%
X4227800Y6918900D03*
X5315100Y3508900D03*
%TO.N,FIN3_DVDD*%
X-5036700Y1287200D03*
X3576824Y5578576D03*
%TO.N,FIN3_DECAY*%
X-10804939Y-11357813D03*
X-4166300Y2097500D03*
X4654800Y1873000D03*
%TO.N,FIN3_BPH*%
X-6739948Y-9027000D03*
X2260000Y3490000D03*
X5882500Y-754999D03*
%TO.N,FIN3_BEN*%
X7288900Y8877400D03*
X4040000Y-11630000D03*
%TO.N,FIN3_APH*%
X5383100Y2023700D03*
X-576900Y-8989200D03*
%TO.N,FIN3_AEN*%
X-5950800Y-11427500D03*
X6433800Y10183000D03*
%TO.N,G0B1_FIN_NRST*%
X4890000Y-6940000D03*
X-11526838Y-9432070D03*
X-7841141Y-11029999D03*
%TO.N,FIN_HALL*%
X-690000Y-10180000D03*
%TO.N,FIN4_AEN*%
X-160000Y-4476600D03*
X-6895300Y-11329900D03*
%TO.N,FIN4_AOUT1*%
X4844943Y-13797700D03*
X104147Y-7660643D03*
%TO.N,FIN4_AOUT2*%
X8365000Y-11552068D03*
X2275422Y-8646642D03*
%TO.N,FIN4_BOUT2*%
X2320000Y-9550000D03*
X3860000Y-12630000D03*
%TO.N,FIN4_BOUT1*%
X3120000Y-15280000D03*
X2615700Y-11387700D03*
%TO.N,FIN4_DVDD*%
X2025700Y-2865000D03*
X2124300Y-10474998D03*
%TO.N,FIN4_DECAY*%
X7612300Y-11503557D03*
X10285011Y-6216680D03*
%TD*%
%TO.N,FIN2_AOUT1*%
D11*
X-1696752Y10325000D02*
X-1303248Y10325000D01*
X-1944452Y10077300D02*
X-1696752Y10325000D01*
X-2680300Y10077300D02*
X-1944452Y10077300D01*
X-7514900Y6614400D02*
X-6143200Y6614400D01*
X-9745100Y7632100D02*
X-8304000Y7632100D01*
X-7980800Y7308900D02*
X-7980800Y7080300D01*
X-1055548Y10077300D02*
X5247900Y10077300D01*
X-7980800Y7080300D02*
X-7514900Y6614400D01*
X-1303248Y10325000D02*
X-1055548Y10077300D01*
X-6143200Y6614400D02*
X-2680300Y10077300D01*
X-8304000Y7632100D02*
X-7980800Y7308900D01*
%TO.N,FIN2_AOUT2*%
X6015700Y9631300D02*
X2992800Y6608400D01*
X2992800Y6608400D02*
X-5540000Y6608400D01*
X-5540000Y6608400D02*
X-6477900Y5670500D01*
X-6477900Y5670500D02*
X-7607300Y5670500D01*
X6702300Y9631300D02*
X6015700Y9631300D01*
X7277200Y10206200D02*
X6702300Y9631300D01*
%TO.N,FIN2_DVDD*%
D12*
X-9989289Y-10700000D02*
X-8950000Y-10700000D01*
X-11712614Y-9918046D02*
X-10771243Y-9918046D01*
X-8675435Y-12967263D02*
X-8675435Y-13562376D01*
X-11610000Y2590000D02*
X-12480000Y1720000D01*
X-12001838Y-8687451D02*
X-12001838Y-9628822D01*
X-12001838Y-9628822D02*
X-11712614Y-9918046D01*
X-10600000Y2590000D02*
X-11610000Y2590000D01*
X-8675435Y-13562376D02*
X-8424763Y-13813048D01*
X-8480000Y-12771828D02*
X-8675435Y-12967263D01*
X-10040000Y2030000D02*
X-10600000Y2590000D01*
X-8218550Y2030000D02*
X-10040000Y2030000D01*
X-12480000Y-8209289D02*
X-12001838Y-8687451D01*
X-8950000Y-10700000D02*
X-8480000Y-11170000D01*
X-5338550Y-850000D02*
X-8218550Y2030000D01*
X-10771243Y-9918046D02*
X-9989289Y-10700000D01*
X-8480000Y-11170000D02*
X-8480000Y-12771828D01*
X-12480000Y1720000D02*
X-12480000Y-8209289D01*
%TO.N,FIN2_DECAY*%
X14745000Y-4552158D02*
X14745000Y-5062597D01*
X1602848Y-2616100D02*
X1828948Y-2390000D01*
X14738446Y-2616100D02*
X15377765Y-3255419D01*
X15377765Y-3255419D02*
X15377765Y-3919393D01*
X3696752Y-2390000D02*
X3922852Y-2616100D01*
X-486800Y-2616100D02*
X1602848Y-2616100D01*
X-5146700Y2043800D02*
X-486800Y-2616100D01*
X3922852Y-2616100D02*
X14738446Y-2616100D01*
X1828948Y-2390000D02*
X3696752Y-2390000D01*
X15377765Y-3919393D02*
X14745000Y-4552158D01*
%TO.N,FIN_NSLEEP*%
X-1820574Y-3998244D02*
X-1890002Y-3928816D01*
X-1890002Y-3928816D02*
X-1890002Y-3789961D01*
X-3535591Y-3084715D02*
X-3230306Y-3390000D01*
X-4538743Y-3246400D02*
X-4377058Y-3084715D01*
X-1890002Y-3789961D02*
X-2433563Y-3246400D01*
X-10954500Y2037800D02*
X-5670300Y-3246400D01*
X-5670300Y-3246400D02*
X-4538743Y-3246400D01*
X-2433563Y-3246400D02*
X-3086706Y-3246400D01*
X-4377058Y-3084715D02*
X-3535591Y-3084715D01*
X-3086706Y-3246400D02*
X-3230306Y-3390000D01*
%TO.N,3V3_AON*%
D13*
X8956529Y2981900D02*
X9470226Y3495597D01*
X-458583Y4606900D02*
X2100400Y4606900D01*
X-8578900Y5896900D02*
X-7482000Y4800000D01*
X-1559492Y4800000D02*
X-1194492Y4435000D01*
X-1194492Y4435000D02*
X-630483Y4435000D01*
X-7482000Y4800000D02*
X-1559492Y4800000D01*
X-630483Y4435000D02*
X-458583Y4606900D01*
X-8578900Y6250000D02*
X-8578900Y5896900D01*
X3725400Y2981900D02*
X8956529Y2981900D01*
X2100400Y4606900D02*
X3725400Y2981900D01*
%TO.N,BAT_CELL1_POS*%
X12603182Y959000D02*
X15275496Y959000D01*
X15275496Y959000D02*
X15340720Y1024224D01*
X3392255Y1344700D02*
X12217482Y1344700D01*
X2592659Y2144296D02*
X3392255Y1344700D01*
X12217482Y1344700D02*
X12603182Y959000D01*
%TO.N,BAT_PROT*%
X-8433100Y12717900D02*
X-9772100Y12717900D01*
X-6492500Y14658500D02*
X-8433100Y12717900D01*
X-9772100Y12717900D02*
X-11700000Y10790000D01*
X3022300Y2960200D02*
X3424600Y2557900D01*
X-7869900Y2960200D02*
X3022300Y2960200D01*
X-11973300Y7063600D02*
X-7869900Y2960200D01*
X9164175Y2557900D02*
X9577075Y2145000D01*
X3424600Y2557900D02*
X9164175Y2557900D01*
X-5353200Y14658500D02*
X-6492500Y14658500D01*
%TO.N,BAT_RAW*%
X-1575891Y3700000D02*
X-1575891Y3762818D01*
X-2550067Y-11580067D02*
X-3185000Y-12215000D01*
X-1575891Y3762818D02*
X-1253709Y4085000D01*
X-7054621Y-14362921D02*
X-7054621Y-14414709D01*
X-1180067Y-11580067D02*
X-2550067Y-11580067D01*
X2303358Y-8096642D02*
X2047604Y-8096642D01*
X-3869631Y-12659300D02*
X-5351000Y-12659300D01*
X-7357500Y3700000D02*
X-1575891Y3700000D01*
X1107305Y3311900D02*
X1866518Y4071113D01*
X188100Y3311900D02*
X1107305Y3311900D01*
X-585000Y4085000D02*
X188100Y3311900D01*
X-10782600Y7125100D02*
X-7357500Y3700000D01*
X-3185000Y-12215000D02*
X-3425331Y-12215000D01*
X-5351000Y-12659300D02*
X-7054621Y-14362921D01*
X1725422Y-8418824D02*
X1725422Y-8674578D01*
X-1253709Y4085000D02*
X-585000Y4085000D01*
X1725422Y-8674578D02*
X-1180067Y-11580067D01*
X12349900Y-7558900D02*
X2841100Y-7558900D01*
X2841100Y-7558900D02*
X2303358Y-8096642D01*
X-3425331Y-12215000D02*
X-3869631Y-12659300D01*
X12437729Y-7471071D02*
X12349900Y-7558900D01*
X2047604Y-8096642D02*
X1725422Y-8418824D01*
%TO.N,COMP_OUT*%
D12*
X15793248Y1214077D02*
X15793248Y805000D01*
X15830000Y-1058248D02*
X16245000Y-1473248D01*
X15793248Y805000D02*
X15515000Y526752D01*
X15220000Y-4360000D02*
X15220000Y-5740000D01*
X12645000Y1695000D02*
X15312325Y1695000D01*
X15515000Y526752D02*
X15515000Y170000D01*
X15515000Y170000D02*
X15830000Y-145000D01*
X15830000Y-2281752D02*
X15830000Y-3750000D01*
X15830000Y-145000D02*
X15830000Y-1058248D01*
X15220000Y-5740000D02*
X14810000Y-6150000D01*
X14810000Y-6150000D02*
X11023444Y-6150000D01*
X16245000Y-1473248D02*
X16245000Y-1866752D01*
X16245000Y-1866752D02*
X15830000Y-2281752D01*
X15830000Y-3750000D02*
X15220000Y-4360000D01*
X15312325Y1695000D02*
X15793248Y1214077D01*
X11023444Y-6150000D02*
X10224050Y-6949394D01*
%TO.N,GPIO_EXT_2*%
X6250948Y-14272700D02*
X6493248Y-14515000D01*
X7085000Y-14266752D02*
X7085000Y-13873248D01*
X8625000Y-13318100D02*
X8625000Y-12833248D01*
X955777Y-15355635D02*
X955777Y-15206423D01*
X7085000Y-13873248D02*
X7363248Y-13595000D01*
X9623100Y-12320000D02*
X10000000Y-12320000D01*
X955777Y-15206423D02*
X1889500Y-14272700D01*
X8625000Y-12833248D02*
X8857574Y-12600674D01*
X7363248Y-13595000D02*
X8348100Y-13595000D01*
X6493248Y-14515000D02*
X6836752Y-14515000D01*
X8857574Y-12600674D02*
X9342426Y-12600674D01*
X1889500Y-14272700D02*
X6250948Y-14272700D01*
X9342426Y-12600674D02*
X9623100Y-12320000D01*
X6836752Y-14515000D02*
X7085000Y-14266752D01*
X8348100Y-13595000D02*
X8625000Y-13318100D01*
%TO.N,NRST*%
X3235700Y-15904300D02*
X3809408Y-15330592D01*
X2196500Y-15904300D02*
X3235700Y-15904300D01*
X3809408Y-15330592D02*
X3818172Y-15330592D01*
X1812300Y-16288500D02*
X2196500Y-15904300D01*
X-1292800Y-16288500D02*
X1812300Y-16288500D01*
X-1816500Y-15764800D02*
X-1292800Y-16288500D01*
%TO.N,SWO*%
X4297600Y6306700D02*
X176121Y6306700D01*
X12250100Y10007900D02*
X10343700Y8101500D01*
X6092400Y8101500D02*
X4297600Y6306700D01*
X10343700Y8101500D02*
X6092400Y8101500D01*
X-975891Y5154688D02*
X-975891Y4985000D01*
X176121Y6306700D02*
X-975891Y5154688D01*
%TO.N,SYS_SPI_CS_FIN*%
X-1156987Y-7809253D02*
X-1156987Y-7856087D01*
X-1156987Y-7856087D02*
X-7227652Y-13926752D01*
X-7227652Y-13926752D02*
X-7245000Y-13926752D01*
X-7754475Y-14205000D02*
X-7754475Y-14429153D01*
X-7523248Y-14205000D02*
X-7754475Y-14205000D01*
X-7245000Y-13926752D02*
X-7523248Y-14205000D01*
%TO.N,FIN1_AOUT1*%
D11*
X-2081327Y11805000D02*
X-1646327Y11370000D01*
X-6658100Y9456900D02*
X-4745000Y11370000D01*
X-2973173Y11370000D02*
X-2538173Y11805000D01*
X-4745000Y11370000D02*
X-2973173Y11370000D01*
X-1646327Y11370000D02*
X11140000Y11370000D01*
X-2538173Y11805000D02*
X-2081327Y11805000D01*
%TO.N,FIN1_DVDD*%
D12*
X-2020570Y-4470000D02*
X-2943733Y-4470000D01*
X-3854018Y-3559715D02*
X-4180306Y-3559715D01*
X14734702Y-3890704D02*
X14600606Y-4024800D01*
X-2017326Y-4473244D02*
X-2020570Y-4470000D01*
X14600606Y-4024800D02*
X-744800Y-4024800D01*
X-1193244Y-4473244D02*
X-2017326Y-4473244D01*
X-744800Y-4024800D02*
X-1193244Y-4473244D01*
X-2943733Y-4470000D02*
X-3854018Y-3559715D01*
%TO.N,FIN3_BOUT2*%
D11*
X4767300Y5398300D02*
X4366076Y4997076D01*
X15409800Y3050000D02*
X15191300Y3050000D01*
X11300000Y5000000D02*
X5702800Y5000000D01*
X4366076Y4997076D02*
X3005324Y4997076D01*
X12682302Y5558998D02*
X11858998Y5558998D01*
X15191300Y3050000D02*
X12682302Y5558998D01*
X5304500Y5398300D02*
X4767300Y5398300D01*
X11858998Y5558998D02*
X11300000Y5000000D01*
X5702800Y5000000D02*
X5304500Y5398300D01*
%TO.N,FIN3_DECAY*%
D12*
X3628600Y1873000D02*
X4654800Y1873000D01*
X-3582100Y2681700D02*
X2819900Y2681700D01*
X-4166300Y2097500D02*
X-3582100Y2681700D01*
X2819900Y2681700D02*
X3628600Y1873000D01*
%TO.N,G0B1_FIN_NRST*%
X-11040182Y-9427175D02*
X-11092741Y-9427175D01*
X-10904963Y-9349527D02*
X-10909399Y-9353963D01*
X-11163729Y-9415801D02*
X-11104115Y-9415801D01*
X-11325007Y-9409004D02*
X-11325007Y-9494186D01*
X-10990252Y-9353963D02*
X-10941523Y-9402692D01*
X-11325007Y-9409004D02*
X-11325007Y-9494186D01*
X-11208552Y-9460624D02*
X-11273387Y-9460624D01*
X-11163729Y-9415801D02*
X-11208552Y-9460624D01*
X-11056822Y-9410535D02*
X-10978926Y-9410535D01*
X-10990252Y-9353963D02*
X-10941523Y-9402692D01*
X-10888819Y-9285114D02*
X-10955838Y-9218095D01*
X-10990252Y-9353963D02*
X-10909399Y-9353963D01*
X-11489859Y-9469049D02*
X-11526838Y-9432070D01*
X-11092741Y-9427175D02*
X-11104115Y-9415801D01*
X-10877553Y-9349527D02*
X-10941966Y-9285114D01*
X-11056822Y-9410535D02*
X-10978926Y-9410535D01*
X-11163729Y-9415801D02*
X-11104115Y-9415801D01*
X-11040182Y-9427175D02*
X-11092741Y-9427175D01*
X-11163729Y-9415801D02*
X-11208552Y-9460624D01*
X4124452Y-6172700D02*
X-7790161Y-6172700D01*
X-10888819Y-9285114D02*
X-10955838Y-9218095D01*
X-10986769Y-9402692D02*
X-10941523Y-9402692D01*
X-11350144Y-9469049D02*
X-11489859Y-9469049D01*
X-10835556Y-9218095D02*
X-10955838Y-9218095D01*
X-10990252Y-9353963D02*
X-10909399Y-9353963D01*
X-7841141Y-11029999D02*
X-8371140Y-10500000D01*
X-9517537Y-10500000D02*
X-10799442Y-9218095D01*
X-10877553Y-9349527D02*
X-10904963Y-9349527D01*
X-10877553Y-9349527D02*
X-10941966Y-9285114D01*
X-10904963Y-9349527D02*
X-10909399Y-9353963D01*
X-8371140Y-10500000D02*
X-9517537Y-10500000D01*
X4890000Y-6940000D02*
X4890000Y-6938248D01*
X-11325007Y-9409004D02*
X-11273387Y-9460624D01*
X-10986769Y-9402692D02*
X-10941523Y-9402692D01*
X-7790161Y-6172700D02*
X-10835556Y-9218095D01*
X-10888819Y-9285114D02*
X-10941966Y-9285114D01*
X-10986769Y-9402692D02*
X-10978926Y-9410535D01*
X-11325007Y-9494186D02*
X-11350144Y-9469049D01*
X-11489859Y-9469049D02*
X-11526838Y-9432070D01*
X-11056822Y-9410535D02*
X-11040182Y-9427175D01*
X-11092741Y-9427175D02*
X-11104115Y-9415801D01*
X-11350144Y-9469049D02*
X-11489859Y-9469049D01*
X-10799442Y-9218095D02*
X-10955838Y-9218095D01*
X4890000Y-6938248D02*
X4124452Y-6172700D01*
X-10986769Y-9402692D02*
X-10978926Y-9410535D01*
X-11208552Y-9460624D02*
X-11273387Y-9460624D01*
X-10877553Y-9349527D02*
X-10904963Y-9349527D01*
X-10888819Y-9285114D02*
X-10941966Y-9285114D01*
X-11325007Y-9409004D02*
X-11273387Y-9460624D01*
X-11056822Y-9410535D02*
X-11040182Y-9427175D01*
X-11325007Y-9494186D02*
X-11350144Y-9469049D01*
%TD*%
M02*
