%TF.GenerationSoftware,KiCad,Pcbnew,10.0.3*%
%TF.CreationDate,2026-10-04T16:12:51+02:00*%
%TF.ProjectId,fin_ble_board,66696e5f-626c-4655-9f62-6f6172642e6b,rev?*%
%TF.SameCoordinates,Original*%
%TF.FileFunction,Copper,L12,Inr*%
%TF.FilePolarity,Positive*%
%FSLAX46Y46*%
G04 Gerber Fmt 4.6, Leading zero omitted, Abs format (unit mm)*
G04 Created by KiCad (PCBNEW 10.0.3) date 2026-10-04 16:12:51*
%MOMM*%
%LPD*%
G01*
G04 APERTURE LIST*
%TA.AperFunction,ViaPad*%
%ADD10C,0.450000*%
%TD*%
%TA.AperFunction,Conductor*%
%ADD11C,0.100000*%
%TD*%
G04 APERTURE END LIST*
D10*
%TO.N,COMP_5V_RAW*%
X-9576000Y1262000D03*
X14832058Y-302919D03*
X3362000Y11925000D03*
X10074000Y74000D03*
X-13799000Y-3078000D03*
X-4450000Y11937999D03*
X3500000Y-2865000D03*
X-9220000Y-12350000D03*
X12104000Y-9001000D03*
X2703124Y-6913682D03*
%TO.N,FLEX_GND*%
X-6350000Y11138000D03*
X-12908023Y-8884159D03*
X-13350000Y5550000D03*
X3662000Y10625000D03*
X1655959Y1454649D03*
X-8750000Y1570000D03*
%TO.N,FIN2_AOUT1*%
X-9745100Y7632100D03*
X5247900Y10077300D03*
X-11298100Y-3817900D03*
%TO.N,FIN2_AOUT2*%
X-7607300Y5670500D03*
X7277200Y10206200D03*
X-9607500Y-1426300D03*
%TO.N,FIN2_BOUT2*%
X-5684679Y-1458439D03*
X7254000Y6250000D03*
%TO.N,FIN2_BOUT1*%
X-11849800Y-320600D03*
X5137326Y4735574D03*
%TO.N,FIN2_DVDD*%
X-5338550Y-850000D03*
X-8424763Y-13813048D03*
%TO.N,FIN_VREF*%
X5154600Y-1251300D03*
X5019700Y-53700D03*
X-4240000Y-12110000D03*
X6380000Y-11540000D03*
%TO.N,FIN2_DECAY*%
X-5146700Y2043800D03*
X14745000Y-5062597D03*
%TO.N,FIN2_APH*%
X-2116874Y-13834878D03*
X-2250000Y4250000D03*
%TO.N,FIN_NSLEEP*%
X-3230306Y-3390000D03*
X-10954500Y2037800D03*
X2289100Y12748400D03*
X-1820574Y-3998244D03*
%TO.N,PIEZO_P*%
X7780900Y794700D03*
X6337800Y-115900D03*
%TO.N,3V3*%
X14557540Y-6625000D03*
X-630000Y-8270000D03*
X-11649000Y874000D03*
X-11419714Y-10743038D03*
X7560000Y-14070000D03*
X-11950000Y3950000D03*
X-10950000Y3850000D03*
X-5450000Y-14391000D03*
X3199952Y-1928742D03*
X-6575000Y-9850000D03*
X14352080Y-7390015D03*
X5530000Y-12020000D03*
%TO.N,3V3_AON*%
X9470226Y3495597D03*
X-6135600Y12367900D03*
X-7995600Y12367900D03*
X-8578900Y6250000D03*
%TO.N,ACTIVATE_CONFIRM*%
X15990000Y330000D03*
%TO.N,ACTIVATE_SET*%
X15144738Y-949402D03*
X14740000Y5700000D03*
%TO.N,BAT_CELL1_POS*%
X15340720Y1024224D03*
X2329896Y5665152D03*
X2592659Y2144296D03*
%TO.N,BAT_CELL2_POS*%
X15325000Y3854000D03*
X6833300Y-898100D03*
%TO.N,BAT_CELL3_POS*%
X14814551Y396864D03*
X-4178497Y-5068136D03*
%TO.N,BAT_PROT*%
X13487311Y7032492D03*
X-11973300Y7063600D03*
X9577075Y2145000D03*
X-5353200Y14658500D03*
X-11700000Y10790000D03*
%TO.N,BAT_RAW*%
X-7054621Y-14414709D03*
X12437729Y-7471071D03*
X-10782600Y7125100D03*
X1866518Y4071113D03*
%TO.N,BOOT0*%
X15770000Y-1670000D03*
%TO.N,COMP_5V*%
X14662236Y-1456547D03*
X-7338400Y8241900D03*
X13639076Y7715845D03*
%TO.N,COMP_OUT*%
X10224050Y-6949394D03*
X12645000Y1695000D03*
%TO.N,COMP_SWDCLK*%
X5922326Y5560574D03*
X10165227Y3412066D03*
X6225800Y4315600D03*
%TO.N,COMP_SWDIO*%
X12125002Y4983998D03*
%TO.N,EXT_CAN_RX*%
X7319073Y6960972D03*
X15425002Y4600000D03*
%TO.N,EXT_CAN_TX*%
X9523166Y4193594D03*
X12174998Y6660000D03*
%TO.N,GPIO_EXT_0*%
X8450000Y-8140000D03*
%TO.N,GPIO_EXT_1*%
X9100000Y-13030000D03*
X11266926Y-8410681D03*
X273376Y-15511624D03*
%TO.N,GPIO_EXT_2*%
X955777Y-15355635D03*
X10000000Y-12320000D03*
X14681837Y-3192700D03*
%TO.N,GPIO_EXT_3*%
X3440100Y-10532800D03*
X9896700Y-674700D03*
%TO.N,H3LIS_INT1*%
X-670700Y-7291100D03*
X9896600Y794700D03*
%TO.N,I2C3_SCL*%
X10058400Y-1417700D03*
X1798000Y-15664000D03*
X7137300Y-13001700D03*
%TO.N,I2C3_SDA*%
X-674998Y-14210000D03*
X11874016Y3357824D03*
%TO.N,JUMP_WAKE*%
X-3682971Y-4402514D03*
X7269200Y2031200D03*
%TO.N,NRST*%
X-1816500Y-15764800D03*
X3818172Y-15330592D03*
X9173300Y11924800D03*
%TO.N,SWO*%
X-1929990Y-12130067D03*
X12250100Y10007900D03*
X-975891Y4985000D03*
%TO.N,SYS_I2C_SCL*%
X-3841400Y-15226600D03*
X-2844719Y10678772D03*
X10119100Y11926300D03*
%TO.N,SYS_I2C_SDA*%
X-3087364Y-13753788D03*
%TO.N,SYS_SPI_CS_FIN*%
X-1156987Y-7809253D03*
X1631800Y13722200D03*
X-7754475Y-14429153D03*
%TO.N,SYS_SPI_MISO*%
X-6835800Y-12091100D03*
X-4264500Y-1057200D03*
X-757100Y13018400D03*
%TO.N,SYS_SPI_MOSI*%
X-3544327Y10702264D03*
X-7720000Y-13730000D03*
X-9512934Y-11155000D03*
%TO.N,SYS_SPI_SCLK*%
X-4230100Y7700700D03*
X-3596292Y-2470074D03*
%TO.N,FIN1_AOUT1*%
X-6658100Y9456900D03*
X11140000Y11370000D03*
%TO.N,FIN1_AOUT2*%
X-7327400Y8981000D03*
X13420000Y8630000D03*
%TO.N,FIN1_BOUT2*%
X-7365000Y7304500D03*
X5535476Y6872824D03*
%TO.N,FIN1_BOUT1*%
X6661764Y5857367D03*
X-6650600Y7176600D03*
%TO.N,FIN1_DVDD*%
X-8532500Y7080400D03*
X-4180306Y-3559715D03*
X-3888100Y5339900D03*
X14734702Y-3890704D03*
%TO.N,FIN1_DECAY*%
X-139300Y-6624500D03*
X1085883Y5193798D03*
%TO.N,FIN1_BPH*%
X-1970000Y-5420000D03*
X-1584827Y5530578D03*
%TO.N,FIN1_BEN*%
X-3238300Y-15629900D03*
X-1025891Y3535000D03*
%TO.N,FIN1_AEN*%
X-2807500Y5333900D03*
X-4635521Y-15325002D03*
%TO.N,FIN3_AOUT1*%
X4560100Y10686600D03*
%TO.N,FIN3_AOUT2*%
X3001300Y12532700D03*
%TO.N,FIN3_BOUT2*%
X15409800Y3050000D03*
X3005324Y4997076D03*
X3716600Y8583500D03*
%TO.N,FIN3_BOUT1*%
X4227800Y6918900D03*
X5315100Y3508900D03*
%TO.N,FIN3_DVDD*%
X-5036700Y1287200D03*
X3576824Y5578576D03*
%TO.N,FIN3_DECAY*%
X-10804939Y-11357813D03*
X-4166300Y2097500D03*
X4654800Y1873000D03*
%TO.N,FIN3_BPH*%
X-6739948Y-9027000D03*
X2260000Y3490000D03*
X5882500Y-754999D03*
%TO.N,FIN3_BEN*%
X7288900Y8877400D03*
X4040000Y-11630000D03*
%TO.N,FIN3_APH*%
X5383100Y2023700D03*
X-576900Y-8989200D03*
%TO.N,FIN3_AEN*%
X-5950800Y-11427500D03*
X6433800Y10183000D03*
%TO.N,G0B1_FIN_NRST*%
X4890000Y-6940000D03*
X-11526838Y-9432070D03*
X-7841141Y-11029999D03*
%TO.N,FIN_HALL*%
X-690000Y-10180000D03*
%TO.N,FIN4_AEN*%
X-160000Y-4476600D03*
X-6895300Y-11329900D03*
%TO.N,FIN4_AOUT1*%
X4844943Y-13797700D03*
X104147Y-7660643D03*
%TO.N,FIN4_AOUT2*%
X8365000Y-11552068D03*
X2275422Y-8646642D03*
%TO.N,FIN4_BOUT2*%
X2320000Y-9550000D03*
X3860000Y-12630000D03*
%TO.N,FIN4_BOUT1*%
X3120000Y-15280000D03*
X2615700Y-11387700D03*
%TO.N,FIN4_DVDD*%
X2025700Y-2865000D03*
X2124300Y-10474998D03*
%TO.N,FIN4_DECAY*%
X7612300Y-11503557D03*
X10285011Y-6216680D03*
%TD*%
%TO.N,FIN3_BPH*%
D11*
X-1345574Y-4194996D02*
X-1623822Y-4473244D01*
X1682500Y-754999D02*
X-1300000Y-3737500D01*
X-2026535Y-4464035D02*
X-2817499Y-5255000D01*
X-1623822Y-4473244D02*
X-2017326Y-4473244D01*
X-1300000Y-3737500D02*
X-1300000Y-3824005D01*
X-2017326Y-4473244D02*
X-2026535Y-4464035D01*
X-2817499Y-5255000D02*
X-2917499Y-5255000D01*
X-1300000Y-3824005D02*
X-1345574Y-3869579D01*
X-1345574Y-3869579D02*
X-1345574Y-4194996D01*
X-2917499Y-5255000D02*
X-6667499Y-9004999D01*
X5882500Y-754999D02*
X1682500Y-754999D01*
%TD*%
M02*
