M48
; DRILL file KiCad 10.0.3 date 2026-10-04T16:12:52
; FORMAT={-:-/ absolute / metric / decimal}
; #@! TF.CreationDate,2026-10-04T16:12:52+02:00
; #@! TF.GenerationSoftware,Kicad,Pcbnew,10.0.3
; #@! TF.FileFunction,Plated,13,14,Blind
FMAT,2
METRIC
; #@! TA.AperFunction,Plated,Buried,ViaDrill
T1C0.100
%
G90
G05
T1
X-14.19Y6.21
X-12.91Y-4.44
X-12.56Y-1.33
X-10.79Y-0.57
X-10.79Y-2.13
X-10.77Y-4.62
X-9.48Y-9.94
X-7.66Y-8.41
X-5.95Y-8.46
X-1.15Y-5.23
X0.73Y-4.74
X0.9Y-4.48
X1.43Y-6.01
X1.75Y-7.76
X1.82Y-13.04
X3.36Y-7.701
X4.96Y-7.75
X6.58Y-7.64
X10.84Y-1.82
X11.03Y0.74
X11.34Y-6.73
X12.48Y-0.1
X12.54Y-2.53
M30
