%TF.GenerationSoftware,KiCad,Pcbnew,10.0.3*%
%TF.CreationDate,2026-10-04T16:12:51+02:00*%
%TF.ProjectId,fin_ble_board,66696e5f-626c-4655-9f62-6f6172642e6b,rev?*%
%TF.SameCoordinates,Original*%
%TF.FileFunction,Copper,L6,Inr*%
%TF.FilePolarity,Positive*%
%FSLAX46Y46*%
G04 Gerber Fmt 4.6, Leading zero omitted, Abs format (unit mm)*
G04 Created by KiCad (PCBNEW 10.0.3) date 2026-10-04 16:12:51*
%MOMM*%
%LPD*%
G01*
G04 APERTURE LIST*
%TA.AperFunction,ViaPad*%
%ADD10C,0.450000*%
%TD*%
%TA.AperFunction,Conductor*%
%ADD11C,0.300000*%
%TD*%
%TA.AperFunction,Conductor*%
%ADD12C,0.100000*%
%TD*%
%TA.AperFunction,Conductor*%
%ADD13C,0.250000*%
%TD*%
G04 APERTURE END LIST*
D10*
%TO.N,COMP_5V_RAW*%
X-9576000Y1262000D03*
X14832058Y-302919D03*
X3362000Y11925000D03*
X10074000Y74000D03*
X-13799000Y-3078000D03*
X-4450000Y11937999D03*
X3500000Y-2865000D03*
X-9220000Y-12350000D03*
X12104000Y-9001000D03*
X2703124Y-6913682D03*
%TO.N,FLEX_GND*%
X-6350000Y11138000D03*
X-12908023Y-8884159D03*
X-13350000Y5550000D03*
X3662000Y10625000D03*
X1655959Y1454649D03*
X-8750000Y1570000D03*
%TO.N,FIN2_AOUT1*%
X-9745100Y7632100D03*
X5247900Y10077300D03*
X-11298100Y-3817900D03*
%TO.N,FIN2_AOUT2*%
X-7607300Y5670500D03*
X7277200Y10206200D03*
X-9607500Y-1426300D03*
%TO.N,FIN2_BOUT2*%
X-5684679Y-1458439D03*
X7254000Y6250000D03*
%TO.N,FIN2_BOUT1*%
X-11849800Y-320600D03*
X5137326Y4735574D03*
%TO.N,FIN2_DVDD*%
X-5338550Y-850000D03*
X-8424763Y-13813048D03*
%TO.N,FIN_VREF*%
X5154600Y-1251300D03*
X5019700Y-53700D03*
X-4240000Y-12110000D03*
X6380000Y-11540000D03*
%TO.N,FIN2_DECAY*%
X-5146700Y2043800D03*
X14745000Y-5062597D03*
%TO.N,FIN2_APH*%
X-2116874Y-13834878D03*
X-2250000Y4250000D03*
%TO.N,FIN_NSLEEP*%
X-3230306Y-3390000D03*
X-10954500Y2037800D03*
X2289100Y12748400D03*
X-1820574Y-3998244D03*
%TO.N,PIEZO_P*%
X7780900Y794700D03*
X6337800Y-115900D03*
%TO.N,3V3*%
X14557540Y-6625000D03*
X-630000Y-8270000D03*
X-11649000Y874000D03*
X-11419714Y-10743038D03*
X7560000Y-14070000D03*
X-11950000Y3950000D03*
X-10950000Y3850000D03*
X-5450000Y-14391000D03*
X3199952Y-1928742D03*
X-6575000Y-9850000D03*
X14352080Y-7390015D03*
X5530000Y-12020000D03*
%TO.N,3V3_AON*%
X9470226Y3495597D03*
X-6135600Y12367900D03*
X-7995600Y12367900D03*
X-8578900Y6250000D03*
%TO.N,ACTIVATE_CONFIRM*%
X15990000Y330000D03*
%TO.N,ACTIVATE_SET*%
X15144738Y-949402D03*
X14740000Y5700000D03*
%TO.N,BAT_CELL1_POS*%
X15340720Y1024224D03*
X2329896Y5665152D03*
X2592659Y2144296D03*
%TO.N,BAT_CELL2_POS*%
X15325000Y3854000D03*
X6833300Y-898100D03*
%TO.N,BAT_CELL3_POS*%
X14814551Y396864D03*
X-4178497Y-5068136D03*
%TO.N,BAT_PROT*%
X13487311Y7032492D03*
X-11973300Y7063600D03*
X9577075Y2145000D03*
X-5353200Y14658500D03*
X-11700000Y10790000D03*
%TO.N,BAT_RAW*%
X-7054621Y-14414709D03*
X12437729Y-7471071D03*
X-10782600Y7125100D03*
X1866518Y4071113D03*
%TO.N,BOOT0*%
X15770000Y-1670000D03*
%TO.N,COMP_5V*%
X14662236Y-1456547D03*
X-7338400Y8241900D03*
X13639076Y7715845D03*
%TO.N,COMP_OUT*%
X10224050Y-6949394D03*
X12645000Y1695000D03*
%TO.N,COMP_SWDCLK*%
X5922326Y5560574D03*
X10165227Y3412066D03*
X6225800Y4315600D03*
%TO.N,COMP_SWDIO*%
X12125002Y4983998D03*
%TO.N,EXT_CAN_RX*%
X7319073Y6960972D03*
X15425002Y4600000D03*
%TO.N,EXT_CAN_TX*%
X9523166Y4193594D03*
X12174998Y6660000D03*
%TO.N,GPIO_EXT_0*%
X8450000Y-8140000D03*
%TO.N,GPIO_EXT_1*%
X9100000Y-13030000D03*
X11266926Y-8410681D03*
X273376Y-15511624D03*
%TO.N,GPIO_EXT_2*%
X955777Y-15355635D03*
X10000000Y-12320000D03*
X14681837Y-3192700D03*
%TO.N,GPIO_EXT_3*%
X3440100Y-10532800D03*
X9896700Y-674700D03*
%TO.N,H3LIS_INT1*%
X-670700Y-7291100D03*
X9896600Y794700D03*
%TO.N,I2C3_SCL*%
X10058400Y-1417700D03*
X1798000Y-15664000D03*
X7137300Y-13001700D03*
%TO.N,I2C3_SDA*%
X-674998Y-14210000D03*
X11874016Y3357824D03*
%TO.N,JUMP_WAKE*%
X-3682971Y-4402514D03*
X7269200Y2031200D03*
%TO.N,NRST*%
X-1816500Y-15764800D03*
X3818172Y-15330592D03*
X9173300Y11924800D03*
%TO.N,SWO*%
X-1929990Y-12130067D03*
X12250100Y10007900D03*
X-975891Y4985000D03*
%TO.N,SYS_I2C_SCL*%
X-3841400Y-15226600D03*
X-2844719Y10678772D03*
X10119100Y11926300D03*
%TO.N,SYS_I2C_SDA*%
X-3087364Y-13753788D03*
%TO.N,SYS_SPI_CS_FIN*%
X-1156987Y-7809253D03*
X1631800Y13722200D03*
X-7754475Y-14429153D03*
%TO.N,SYS_SPI_MISO*%
X-6835800Y-12091100D03*
X-4264500Y-1057200D03*
X-757100Y13018400D03*
%TO.N,SYS_SPI_MOSI*%
X-3544327Y10702264D03*
X-7720000Y-13730000D03*
X-9512934Y-11155000D03*
%TO.N,SYS_SPI_SCLK*%
X-4230100Y7700700D03*
X-3596292Y-2470074D03*
%TO.N,FIN1_AOUT1*%
X-6658100Y9456900D03*
X11140000Y11370000D03*
%TO.N,FIN1_AOUT2*%
X-7327400Y8981000D03*
X13420000Y8630000D03*
%TO.N,FIN1_BOUT2*%
X-7365000Y7304500D03*
X5535476Y6872824D03*
%TO.N,FIN1_BOUT1*%
X6661764Y5857367D03*
X-6650600Y7176600D03*
%TO.N,FIN1_DVDD*%
X-8532500Y7080400D03*
X-4180306Y-3559715D03*
X-3888100Y5339900D03*
X14734702Y-3890704D03*
%TO.N,FIN1_DECAY*%
X-139300Y-6624500D03*
X1085883Y5193798D03*
%TO.N,FIN1_BPH*%
X-1970000Y-5420000D03*
X-1584827Y5530578D03*
%TO.N,FIN1_BEN*%
X-3238300Y-15629900D03*
X-1025891Y3535000D03*
%TO.N,FIN1_AEN*%
X-2807500Y5333900D03*
X-4635521Y-15325002D03*
%TO.N,FIN3_AOUT1*%
X4560100Y10686600D03*
%TO.N,FIN3_AOUT2*%
X3001300Y12532700D03*
%TO.N,FIN3_BOUT2*%
X15409800Y3050000D03*
X3005324Y4997076D03*
X3716600Y8583500D03*
%TO.N,FIN3_BOUT1*%
X4227800Y6918900D03*
X5315100Y3508900D03*
%TO.N,FIN3_DVDD*%
X-5036700Y1287200D03*
X3576824Y5578576D03*
%TO.N,FIN3_DECAY*%
X-10804939Y-11357813D03*
X-4166300Y2097500D03*
X4654800Y1873000D03*
%TO.N,FIN3_BPH*%
X-6739948Y-9027000D03*
X2260000Y3490000D03*
X5882500Y-754999D03*
%TO.N,FIN3_BEN*%
X7288900Y8877400D03*
X4040000Y-11630000D03*
%TO.N,FIN3_APH*%
X5383100Y2023700D03*
X-576900Y-8989200D03*
%TO.N,FIN3_AEN*%
X-5950800Y-11427500D03*
X6433800Y10183000D03*
%TO.N,G0B1_FIN_NRST*%
X4890000Y-6940000D03*
X-11526838Y-9432070D03*
X-7841141Y-11029999D03*
%TO.N,FIN_HALL*%
X-690000Y-10180000D03*
%TO.N,FIN4_AEN*%
X-160000Y-4476600D03*
X-6895300Y-11329900D03*
%TO.N,FIN4_AOUT1*%
X4844943Y-13797700D03*
X104147Y-7660643D03*
%TO.N,FIN4_AOUT2*%
X8365000Y-11552068D03*
X2275422Y-8646642D03*
%TO.N,FIN4_BOUT2*%
X2320000Y-9550000D03*
X3860000Y-12630000D03*
%TO.N,FIN4_BOUT1*%
X3120000Y-15280000D03*
X2615700Y-11387700D03*
%TO.N,FIN4_DVDD*%
X2025700Y-2865000D03*
X2124300Y-10474998D03*
%TO.N,FIN4_DECAY*%
X7612300Y-11503557D03*
X10285011Y-6216680D03*
%TD*%
%TO.N,FIN2_AOUT1*%
D11*
X-9745100Y2001500D02*
X-9745100Y7632100D01*
X-11298100Y448500D02*
X-9745100Y2001500D01*
X-11298100Y-3817900D02*
X-11298100Y448500D01*
%TO.N,FIN_VREF*%
D12*
X5019700Y-53700D02*
X5019700Y-1116400D01*
X5019700Y-1116400D02*
X5154600Y-1251300D01*
%TO.N,FIN2_APH*%
X-2346100Y-11678700D02*
X-2346100Y-5715652D01*
X-2611400Y-13340352D02*
X-2611400Y-11944000D01*
X-2116874Y-13834878D02*
X-2611400Y-13340352D01*
X-2346100Y-5124348D02*
X-2346100Y4153900D01*
X-2445000Y-5223248D02*
X-2346100Y-5124348D01*
X-2611400Y-11944000D02*
X-2346100Y-11678700D01*
X-2346100Y4153900D02*
X-2250000Y4250000D01*
X-2346100Y-5715652D02*
X-2445000Y-5616752D01*
X-2445000Y-5616752D02*
X-2445000Y-5223248D01*
%TO.N,FIN_NSLEEP*%
X-1691600Y8562384D02*
X-1691600Y6309103D01*
X-1890002Y-3622255D02*
X-1890002Y-3928816D01*
X2289100Y12748400D02*
X-725000Y9734300D01*
X-1890002Y-3928816D02*
X-1820574Y-3998244D01*
X-1388075Y6005578D02*
X-1781579Y6005578D01*
X-725000Y9528984D02*
X-1691600Y8562384D01*
X-1496700Y-3199000D02*
X-1835000Y-3537300D01*
X-1835000Y-3537300D02*
X-1835000Y-3567253D01*
X-2059827Y5727330D02*
X-2059827Y5333826D01*
X-2059827Y5333826D02*
X-1496700Y4770699D01*
X-1835000Y-3567253D02*
X-1890002Y-3622255D01*
X-1700891Y3814594D02*
X-1700891Y3255405D01*
X-1496700Y3051215D02*
X-1496700Y-3199000D01*
X-1691600Y6309103D02*
X-1388075Y6005578D01*
X-1700891Y3255405D02*
X-1496700Y3051215D01*
X-1496700Y4018785D02*
X-1700891Y3814594D01*
X-725000Y9734300D02*
X-725000Y9528984D01*
X-1781579Y6005578D02*
X-2059827Y5727330D01*
X-1496700Y4770699D02*
X-1496700Y4018785D01*
%TO.N,3V3_AON*%
D13*
X-8578900Y6250000D02*
X-7995600Y6833300D01*
X-7995600Y6833300D02*
X-7995600Y12367900D01*
%TO.N,BAT_CELL1_POS*%
X2592659Y2144296D02*
X2432345Y2304610D01*
X2432345Y4040000D02*
X2432345Y5562703D01*
X2432345Y2884527D02*
X2810000Y3262182D01*
X2810000Y3662345D02*
X2432345Y4040000D01*
X2432345Y5562703D02*
X2329896Y5665152D01*
X2810000Y3262182D02*
X2810000Y3662345D01*
X2432345Y2304610D02*
X2432345Y2884527D01*
%TO.N,BAT_PROT*%
X-12084500Y10405500D02*
X-11700000Y10790000D01*
X11897184Y5533998D02*
X12865798Y5533998D01*
X-12084500Y7174800D02*
X-12084500Y10405500D01*
X13487311Y6155511D02*
X13487311Y7032492D01*
X11575002Y5211816D02*
X11897184Y5533998D01*
X11575002Y4044023D02*
X11575002Y5211816D01*
X-11973300Y7063600D02*
X-12084500Y7174800D01*
X12865798Y5533998D02*
X13487311Y6155511D01*
X9675979Y2145000D02*
X11575002Y4044023D01*
X9577075Y2145000D02*
X9675979Y2145000D01*
%TO.N,COMP_5V*%
X14050000Y6672182D02*
X14050000Y7304921D01*
X14662236Y-1456547D02*
X14190000Y-984311D01*
X14190000Y6532182D02*
X14050000Y6672182D01*
X14190000Y-984311D02*
X14190000Y6532182D01*
X14050000Y7304921D02*
X13639076Y7715845D01*
%TO.N,COMP_SWDCLK*%
D12*
X6225800Y5257100D02*
X5922326Y5560574D01*
X6225800Y4315600D02*
X6225800Y5257100D01*
%TO.N,GPIO_EXT_1*%
X11652000Y-8795755D02*
X11652000Y-10748000D01*
X9803248Y-11845000D02*
X9525000Y-12123248D01*
X9525000Y-12605000D02*
X9100000Y-13030000D01*
X10555000Y-11845000D02*
X9803248Y-11845000D01*
X11652000Y-10748000D02*
X10555000Y-11845000D01*
X11266926Y-8410681D02*
X11652000Y-8795755D01*
X9525000Y-12123248D02*
X9525000Y-12605000D01*
%TO.N,GPIO_EXT_3*%
X2970000Y-9700000D02*
X2970000Y-7601400D01*
X3440100Y-10532800D02*
X3440100Y-10170100D01*
X2970000Y-7601400D02*
X9896700Y-674700D01*
X3440100Y-10170100D02*
X2970000Y-9700000D01*
%TO.N,H3LIS_INT1*%
X9896600Y870800D02*
X9896600Y794700D01*
X-670700Y-7291100D02*
X-989400Y-6972400D01*
X-989400Y-3132500D02*
X4627200Y2484100D01*
X4627200Y2484100D02*
X8283300Y2484100D01*
X8283300Y2484100D02*
X9896600Y870800D01*
X-989400Y-6972400D02*
X-989400Y-3132500D01*
%TO.N,SWO*%
X-1296700Y3082322D02*
X-1296700Y3134057D01*
X-1296700Y4664191D02*
X-975891Y4985000D01*
X-1929990Y-12130067D02*
X-1972600Y-12087457D01*
X-1972600Y-12087457D02*
X-1972600Y-6452200D01*
X-1242900Y3028522D02*
X-1296700Y3082322D01*
X-1242900Y-5722500D02*
X-1242900Y3028522D01*
X-1296700Y3935943D02*
X-1296700Y4664191D01*
X-1296700Y3134057D02*
X-1500891Y3338248D01*
X-1500891Y3731752D02*
X-1296700Y3935943D01*
X-1500891Y3338248D02*
X-1500891Y3731752D01*
X-1972600Y-6452200D02*
X-1242900Y-5722500D01*
%TO.N,SYS_SPI_MISO*%
X-4618000Y1910500D02*
X-4264500Y1557000D01*
X-4618000Y4506594D02*
X-4795000Y4329594D01*
X-1344669Y9475000D02*
X-1622400Y9475000D01*
X-757200Y10340200D02*
X-1125000Y9972400D01*
X-1622400Y9475000D02*
X-4618000Y6479400D01*
X-4618000Y3593406D02*
X-4618000Y1910500D01*
X-4618000Y6479400D02*
X-4618000Y4506594D01*
X-4795000Y3770405D02*
X-4618000Y3593406D01*
X-4795000Y4329594D02*
X-4795000Y3770405D01*
X-757100Y13018400D02*
X-757200Y13018400D01*
X-1125000Y9972400D02*
X-1125000Y9694669D01*
X-4264500Y1557000D02*
X-4264500Y-1057200D01*
X-1125000Y9694669D02*
X-1344669Y9475000D01*
X-757200Y13018400D02*
X-757200Y10340200D01*
%TO.N,SYS_SPI_MOSI*%
X-9695000Y-12153248D02*
X-9695000Y-12624900D01*
X-9512934Y-11155000D02*
X-9332000Y-11335934D01*
X-9168451Y-13151449D02*
X-8298551Y-13151449D01*
X-8298551Y-13151449D02*
X-7720000Y-13730000D01*
X-9695000Y-12624900D02*
X-9168451Y-13151449D01*
X-9332000Y-11790248D02*
X-9695000Y-12153248D01*
X-9332000Y-11335934D02*
X-9332000Y-11790248D01*
%TO.N,FIN1_DVDD*%
X-3923248Y3575000D02*
X-4141700Y3575000D01*
X-4141700Y3365000D02*
X-3408300Y2631600D01*
X-3121292Y-2666826D02*
X-4014181Y-3559715D01*
X-3888100Y5339900D02*
X-4141700Y5086300D01*
X-3408300Y2631600D02*
X-3408300Y-1986314D01*
X-4141700Y5086300D02*
X-4141700Y4743452D01*
X-3645000Y4246752D02*
X-3645000Y3853248D01*
X-3121292Y-2273322D02*
X-3121292Y-2666826D01*
X-4141700Y3575000D02*
X-4141700Y3365000D01*
X-3645000Y3853248D02*
X-3923248Y3575000D01*
X-4014181Y-3559715D02*
X-4180306Y-3559715D01*
X-4141700Y4743452D02*
X-3645000Y4246752D01*
X-3408300Y-1986314D02*
X-3121292Y-2273322D01*
%TO.N,FIN3_BOUT2*%
D11*
X3112000Y5846925D02*
X3005324Y5740249D01*
X3716600Y8583500D02*
X3112000Y7978900D01*
X3005324Y5740249D02*
X3005324Y4997076D01*
X3112000Y7978900D02*
X3112000Y5846925D01*
%TO.N,FIN3_BOUT1*%
X5315100Y3508900D02*
X4227800Y4596200D01*
X4227800Y4596200D02*
X4227800Y6918900D01*
%TO.N,FIN3_DECAY*%
D12*
X-3811700Y-1545300D02*
X-9983200Y-7716800D01*
X-3811700Y1742900D02*
X-3811700Y-1545300D01*
X-9983200Y-10536074D02*
X-10804939Y-11357813D01*
X-4166300Y2097500D02*
X-3811700Y1742900D01*
X-9983200Y-7716800D02*
X-9983200Y-10536074D01*
%TO.N,FIN3_APH*%
X5383000Y2023700D02*
X5383100Y2023700D01*
X845000Y-7567300D02*
X845000Y-2577200D01*
X-576900Y-8989200D02*
X845000Y-7567300D01*
X845000Y-2577200D02*
X5383000Y1960800D01*
X5383000Y1960800D02*
X5383000Y2023700D01*
%TO.N,FIN3_AEN*%
X-4595000Y4246752D02*
X-4343400Y4498352D01*
X-4343400Y3601648D02*
X-4595000Y3853248D01*
X-1261826Y9275000D02*
X-925000Y9611827D01*
X-5950800Y-11427500D02*
X-5950800Y-3969600D01*
X-4343400Y2913400D02*
X-4343400Y3601648D01*
X1744900Y12861500D02*
X2127800Y13244400D01*
X-1496500Y9275000D02*
X-1261826Y9275000D01*
X-4343400Y6428100D02*
X-1496500Y9275000D01*
X-5950800Y-3969600D02*
X-3610000Y-1628800D01*
X-925000Y9846500D02*
X1744900Y12516400D01*
X1744900Y12516400D02*
X1744900Y12861500D01*
X-925000Y9611827D02*
X-925000Y9846500D01*
X-4595000Y3853248D02*
X-4595000Y4246752D01*
X3372400Y13244400D02*
X6433800Y10183000D01*
X-3610000Y-1628800D02*
X-3610000Y2180000D01*
X-3610000Y2180000D02*
X-4343400Y2913400D01*
X2127800Y13244400D02*
X3372400Y13244400D01*
X-4343400Y4498352D02*
X-4343400Y6428100D01*
%TO.N,FIN4_BOUT1*%
D11*
X2810000Y-14970000D02*
X3120000Y-15280000D01*
X2615700Y-14830185D02*
X2755515Y-14970000D01*
X2755515Y-14970000D02*
X2810000Y-14970000D01*
X2615700Y-11387700D02*
X2615700Y-14830185D01*
%TO.N,FIN4_DVDD*%
D12*
X2770000Y-7518558D02*
X3550000Y-6738557D01*
X3550000Y-5991752D02*
X3545000Y-5986752D01*
X2025700Y-3067800D02*
X2025700Y-2865000D01*
X2124300Y-10474998D02*
X2770000Y-9829298D01*
X3550000Y-6738557D02*
X3550000Y-5991752D01*
X2770000Y-9829298D02*
X2770000Y-7518558D01*
X3545000Y-5986752D02*
X3545000Y-4587100D01*
X3545000Y-4587100D02*
X2025700Y-3067800D01*
%TO.N,FIN4_DECAY*%
X10094320Y-6216680D02*
X8925000Y-7386000D01*
X8149500Y-10966357D02*
X7612300Y-11503557D01*
X8925000Y-8293000D02*
X8149500Y-9068500D01*
X8925000Y-7386000D02*
X8925000Y-8293000D01*
X8149500Y-9068500D02*
X8149500Y-10966357D01*
X10285011Y-6216680D02*
X10094320Y-6216680D01*
%TD*%
M02*
