%TF.GenerationSoftware,KiCad,Pcbnew,10.0.3*%
%TF.CreationDate,2026-10-04T16:12:52+02:00*%
%TF.ProjectId,fin_ble_board,66696e5f-626c-4655-9f62-6f6172642e6b,rev?*%
%TF.SameCoordinates,Original*%
%TF.FileFunction,Soldermask,Bot*%
%TF.FilePolarity,Negative*%
%FSLAX46Y46*%
G04 Gerber Fmt 4.6, Leading zero omitted, Abs format (unit mm)*
G04 Created by KiCad (PCBNEW 10.0.3) date 2026-10-04 16:12:52*
%MOMM*%
%LPD*%
G01*
G04 APERTURE LIST*
%ADD10C,3.000000*%
%ADD11C,6.000000*%
%ADD12R,0.550000X0.600000*%
%ADD13R,0.600000X0.550000*%
%ADD14R,1.450000X1.150000*%
%ADD15R,1.150000X1.450000*%
%ADD16C,2.000000*%
%ADD17R,0.900000X0.900000*%
%ADD18R,0.850000X0.950000*%
%ADD19R,0.950000X0.850000*%
G04 APERTURE END LIST*
D10*
%TO.C,*%
X9899500Y-9899500D03*
%TD*%
%TO.C,*%
X-9899500Y9899500D03*
%TD*%
D11*
%TO.C,P_CELL_CONTACTS*%
X0Y8600000D03*
X7447800Y-4300000D03*
X-7447800Y-4300000D03*
%TD*%
D12*
%TO.C,C_G0B1_FIN_VDD2*%
X-5953000Y-7701000D03*
X-6903000Y-7701000D03*
%TD*%
D13*
%TO.C,R_J_HALL_FIN_PU*%
X-10849000Y74000D03*
X-10849000Y1024000D03*
%TD*%
D14*
%TO.C,C_FIN1_DVDD*%
X12500000Y-4500000D03*
X12500000Y-2550000D03*
%TD*%
D12*
%TO.C,C_FIN3_VM*%
X7504000Y-7701000D03*
X6554000Y-7701000D03*
%TD*%
D13*
%TO.C,C_G0B1_FIN_VREF*%
X-5978000Y-9327000D03*
X-5978000Y-8377000D03*
%TD*%
D15*
%TO.C,C_FIN4_DVDD*%
X2839602Y-4330000D03*
X889602Y-4330000D03*
%TD*%
D16*
%TO.C,J_HALL_FIN_OUT*%
X-3337586Y597930D03*
%TD*%
D17*
%TO.C,P_fin_ble_board_spacer_battery_6*%
X14550000Y1450000D03*
X14550000Y3050000D03*
X14550000Y4650000D03*
X14550000Y6250000D03*
X12950000Y3050000D03*
X12950000Y4650000D03*
X12950000Y6250000D03*
X12950000Y7850000D03*
X11350000Y4650000D03*
X11350000Y6250000D03*
X11350000Y7850000D03*
X11350000Y9450000D03*
X11350000Y11050000D03*
X9750000Y4650000D03*
X9750000Y6250000D03*
X9750000Y7850000D03*
X9750000Y9450000D03*
X9750000Y11050000D03*
X8150000Y4650000D03*
X8150000Y6250000D03*
X8150000Y11050000D03*
X8150000Y12650000D03*
X6550000Y-14550000D03*
X6550000Y14250000D03*
X4950000Y-14550000D03*
X4950000Y-12950000D03*
X3350000Y-14550000D03*
X3350000Y-12950000D03*
X1750000Y-14550000D03*
X1750000Y-12950000D03*
X1750000Y-11350000D03*
X150000Y-14550000D03*
X150000Y-12950000D03*
X150000Y-11350000D03*
X150000Y-9750000D03*
X-1450000Y-14550000D03*
X-1450000Y-12950000D03*
X-1450000Y-11350000D03*
X-3050000Y-14550000D03*
X-3050000Y-12950000D03*
X-4650000Y-14550000D03*
X-4650000Y-12950000D03*
X-6250000Y-14550000D03*
X-6250000Y-12950000D03*
X-7850000Y-12950000D03*
X-7850000Y4650000D03*
X-9450000Y4650000D03*
X-9450000Y6250000D03*
X-11050000Y4650000D03*
X-11050000Y6250000D03*
X-12650000Y3050000D03*
X-12650000Y4650000D03*
X-12650000Y6250000D03*
X-14250000Y1450000D03*
X-14250000Y3050000D03*
X-14250000Y4650000D03*
X-14250000Y6250000D03*
X-15850000Y-1750000D03*
X-15850000Y-150000D03*
X-15850000Y1450000D03*
%TD*%
D12*
%TO.C,R_G0B1_FIN_NRST*%
X-9550000Y-8500000D03*
X-10500000Y-8500000D03*
%TD*%
D18*
%TO.C,C_FIN_VM_BULK_3*%
X2980000Y-6020000D03*
X1380000Y-6020000D03*
%TD*%
D13*
%TO.C,R_FIN4_DECAY*%
X10849000Y-2777000D03*
X10849000Y-1827000D03*
%TD*%
D15*
%TO.C,C_G0B1_FIN_BULK*%
X13452080Y-6490015D03*
X11502080Y-6490015D03*
%TD*%
D19*
%TO.C,C_FIN_VM_BULK_5*%
X-12500000Y-3000000D03*
X-12500000Y-1400000D03*
%TD*%
D12*
%TO.C,R_FIN1_DECAY*%
X2701000Y-7701000D03*
X1751000Y-7701000D03*
%TD*%
D15*
%TO.C,C_FIN3_DVDD*%
X-6025000Y500000D03*
X-7975000Y500000D03*
%TD*%
D13*
%TO.C,R_FIN2_DECAY*%
X12500000Y-975000D03*
X12500000Y-25000D03*
%TD*%
%TO.C,C_J_HALL_FIN_VCC*%
X-10849000Y-5475000D03*
X-10849000Y-4525000D03*
%TD*%
D18*
%TO.C,C_FIN_VM_BULK_1*%
X6300000Y-10340000D03*
X4700000Y-10340000D03*
%TD*%
D12*
%TO.C,C_FIN1_VM*%
X-11980000Y-4400000D03*
X-12930000Y-4400000D03*
%TD*%
D16*
%TO.C,J_HALL_FIN_VCC*%
X3199952Y-178742D03*
%TD*%
D13*
%TO.C,C_G0B1_FIN_VDD1*%
X6830000Y-9400000D03*
X6830000Y-8450000D03*
%TD*%
%TO.C,C_FIN4_VM*%
X-10849000Y-3128000D03*
X-10849000Y-2178000D03*
%TD*%
D15*
%TO.C,C_FIN2_DVDD*%
X-7525000Y-10000000D03*
X-9475000Y-10000000D03*
%TD*%
D19*
%TO.C,C_FIN_VM_BULK_4*%
X11024000Y-876000D03*
X11024000Y724000D03*
%TD*%
D12*
%TO.C,C_FIN_VREF*%
X5903000Y-7701000D03*
X4953000Y-7701000D03*
%TD*%
D16*
%TO.C,J_HALL_FIN_GND*%
X-12000000Y-8000000D03*
%TD*%
D13*
%TO.C,C_FIN2_VM*%
X-10849000Y-1527000D03*
X-10849000Y-577000D03*
%TD*%
D12*
%TO.C,R_FIN3_DECAY*%
X-6654000Y-8402000D03*
X-7604000Y-8402000D03*
%TD*%
%TO.C,C_G0B1_FIN_NRST*%
X4302000Y-7701000D03*
X3352000Y-7701000D03*
%TD*%
D19*
%TO.C,C_FIN_VM_BULK_2*%
X-990000Y-3600000D03*
X-990000Y-5200000D03*
%TD*%
M02*
