<svg xmlns="http://www.w3.org/2000/svg" viewBox="0 0 1922 876" width="1922" height="876">
<style>
 text{font-family:'Segoe UI','DejaVu Sans',sans-serif;fill:#1a1a1a}
 .h1{font-size:24px;font-weight:700}
 .h2{font-size:12.5px;fill:#5a5751}
 .vt{font-size:19px;font-weight:700}
 .vs{font-size:12px;fill:#5a5751}
 .lb{font-weight:600}
 .lg{font-size:12px}
 .lgt{font-size:13px;font-weight:700}
 .nt{font-size:11.5px;fill:#5a5751}
 .fl{font-size:11.5px;fill:#c0392b;font-weight:600}
</style>
<rect width="1922" height="876" fill="#ffffff"/>
<text x="34" y="40" class="h1">wakeup_board — cosa c'è sul top e sul bottom</text>
<text x="34" y="62" class="h2">Ø34 mm, 14 layer · 114 componenti: 30 sul top, 84 sul bottom · le scatole sono l'ingombro reale delle piazzole, i cerchi tratteggiati sono R5 / R10 / R15</text>
<g transform="translate(363.0,473.0)">
<circle cx="0" cy="0" r="323.0" fill="#f4f2ed" stroke="#1a1a1a" stroke-width="2.5"/>
<circle cx="0" cy="0" r="95.0" fill="none" stroke="#dcd8d0" stroke-width="1" stroke-dasharray="3 5"/>
<circle cx="0" cy="0" r="190.0" fill="none" stroke="#dcd8d0" stroke-width="1" stroke-dasharray="3 5"/>
<circle cx="0" cy="0" r="285.0" fill="none" stroke="#dcd8d0" stroke-width="1" stroke-dasharray="3 5"/>
<text x="0" y="-369.0" class="vt" text-anchor="middle">TOP  (F.Cu)</text>
<text x="0" y="-349.0" class="vs" text-anchor="middle">30 componenti · vista da sopra</text>
<rect x="256.5" y="94.8" width="17.1" height="17.1" rx="1" fill="#e6e6e6" stroke="#4a4a4a" stroke-width="0.8"/>
<rect x="256.5" y="64.4" width="17.1" height="17.1" rx="1" fill="#e6e6e6" stroke="#4a4a4a" stroke-width="0.8"/>
<rect x="256.5" y="34.0" width="17.1" height="17.1" rx="1" fill="#e6e6e6" stroke="#4a4a4a" stroke-width="0.8"/>
<rect x="256.5" y="3.6" width="17.1" height="17.1" rx="1" fill="#e6e6e6" stroke="#4a4a4a" stroke-width="0.8"/>
<rect x="256.5" y="-26.8" width="17.1" height="17.1" rx="1" fill="#e6e6e6" stroke="#4a4a4a" stroke-width="0.8"/>
<rect x="256.5" y="-57.2" width="17.1" height="17.1" rx="1" fill="#e6e6e6" stroke="#4a4a4a" stroke-width="0.8"/>
<rect x="256.5" y="-87.6" width="17.1" height="17.1" rx="1" fill="#e6e6e6" stroke="#4a4a4a" stroke-width="0.8"/>
<rect x="256.5" y="-118.0" width="17.1" height="17.1" rx="1" fill="#e6e6e6" stroke="#4a4a4a" stroke-width="0.8"/>
<rect x="226.1" y="94.8" width="17.1" height="17.1" rx="1" fill="#e6e6e6" stroke="#4a4a4a" stroke-width="0.8"/>
<rect x="226.1" y="64.4" width="17.1" height="17.1" rx="1" fill="#e6e6e6" stroke="#4a4a4a" stroke-width="0.8"/>
<rect x="226.1" y="-87.6" width="17.1" height="17.1" rx="1" fill="#e6e6e6" stroke="#4a4a4a" stroke-width="0.8"/>
<rect x="226.1" y="-118.0" width="17.1" height="17.1" rx="1" fill="#e6e6e6" stroke="#4a4a4a" stroke-width="0.8"/>
<rect x="226.1" y="-148.4" width="17.1" height="17.1" rx="1" fill="#e6e6e6" stroke="#4a4a4a" stroke-width="0.8"/>
<rect x="226.1" y="-178.8" width="17.1" height="17.1" rx="1" fill="#e6e6e6" stroke="#4a4a4a" stroke-width="0.8"/>
<rect x="195.7" y="94.8" width="17.1" height="17.1" rx="1" fill="#e6e6e6" stroke="#4a4a4a" stroke-width="0.8"/>
<rect x="195.7" y="64.4" width="17.1" height="17.1" rx="1" fill="#e6e6e6" stroke="#4a4a4a" stroke-width="0.8"/>
<rect x="195.7" y="-87.6" width="17.1" height="17.1" rx="1" fill="#e6e6e6" stroke="#4a4a4a" stroke-width="0.8"/>
<rect x="195.7" y="-118.0" width="17.1" height="17.1" rx="1" fill="#e6e6e6" stroke="#4a4a4a" stroke-width="0.8"/>
<rect x="195.7" y="-148.4" width="17.1" height="17.1" rx="1" fill="#e6e6e6" stroke="#4a4a4a" stroke-width="0.8"/>
<rect x="195.7" y="-178.8" width="17.1" height="17.1" rx="1" fill="#e6e6e6" stroke="#4a4a4a" stroke-width="0.8"/>
<rect x="195.7" y="-209.2" width="17.1" height="17.1" rx="1" fill="#e6e6e6" stroke="#4a4a4a" stroke-width="0.8"/>
<rect x="165.3" y="-209.2" width="17.1" height="17.1" rx="1" fill="#e6e6e6" stroke="#4a4a4a" stroke-width="0.8"/>
<rect x="165.3" y="-239.6" width="17.1" height="17.1" rx="1" fill="#e6e6e6" stroke="#4a4a4a" stroke-width="0.8"/>
<rect x="134.9" y="-209.2" width="17.1" height="17.1" rx="1" fill="#e6e6e6" stroke="#4a4a4a" stroke-width="0.8"/>
<rect x="134.9" y="-239.6" width="17.1" height="17.1" rx="1" fill="#e6e6e6" stroke="#4a4a4a" stroke-width="0.8"/>
<rect x="104.5" y="246.8" width="17.1" height="17.1" rx="1" fill="#e6e6e6" stroke="#4a4a4a" stroke-width="0.8"/>
<rect x="104.5" y="-209.2" width="17.1" height="17.1" rx="1" fill="#e6e6e6" stroke="#4a4a4a" stroke-width="0.8"/>
<rect x="104.5" y="-239.6" width="17.1" height="17.1" rx="1" fill="#e6e6e6" stroke="#4a4a4a" stroke-width="0.8"/>
<rect x="104.5" y="-270.0" width="17.1" height="17.1" rx="1" fill="#e6e6e6" stroke="#4a4a4a" stroke-width="0.8"/>
<rect x="74.1" y="-239.6" width="17.1" height="17.1" rx="1" fill="#e6e6e6" stroke="#4a4a4a" stroke-width="0.8"/>
<rect x="43.7" y="-239.6" width="17.1" height="17.1" rx="1" fill="#e6e6e6" stroke="#4a4a4a" stroke-width="0.8"/>
<rect x="-17.1" y="216.4" width="17.1" height="17.1" rx="1" fill="#e6e6e6" stroke="#4a4a4a" stroke-width="0.8"/>
<rect x="-47.5" y="216.4" width="17.1" height="17.1" rx="1" fill="#e6e6e6" stroke="#4a4a4a" stroke-width="0.8"/>
<rect x="-77.9" y="216.4" width="17.1" height="17.1" rx="1" fill="#e6e6e6" stroke="#4a4a4a" stroke-width="0.8"/>
<rect x="-108.3" y="246.8" width="17.1" height="17.1" rx="1" fill="#e6e6e6" stroke="#4a4a4a" stroke-width="0.8"/>
<rect x="-108.3" y="216.4" width="17.1" height="17.1" rx="1" fill="#e6e6e6" stroke="#4a4a4a" stroke-width="0.8"/>
<rect x="-138.7" y="246.8" width="17.1" height="17.1" rx="1" fill="#e6e6e6" stroke="#4a4a4a" stroke-width="0.8"/>
<rect x="-138.7" y="216.4" width="17.1" height="17.1" rx="1" fill="#e6e6e6" stroke="#4a4a4a" stroke-width="0.8"/>
<rect x="-169.1" y="216.4" width="17.1" height="17.1" rx="1" fill="#e6e6e6" stroke="#4a4a4a" stroke-width="0.8"/>
<rect x="-199.5" y="186.0" width="17.1" height="17.1" rx="1" fill="#e6e6e6" stroke="#4a4a4a" stroke-width="0.8"/>
<rect x="-199.5" y="155.6" width="17.1" height="17.1" rx="1" fill="#e6e6e6" stroke="#4a4a4a" stroke-width="0.8"/>
<rect x="-199.5" y="125.2" width="17.1" height="17.1" rx="1" fill="#e6e6e6" stroke="#4a4a4a" stroke-width="0.8"/>
<rect x="-199.5" y="94.8" width="17.1" height="17.1" rx="1" fill="#e6e6e6" stroke="#4a4a4a" stroke-width="0.8"/>
<rect x="-229.9" y="155.6" width="17.1" height="17.1" rx="1" fill="#e6e6e6" stroke="#4a4a4a" stroke-width="0.8"/>
<rect x="-229.9" y="125.2" width="17.1" height="17.1" rx="1" fill="#e6e6e6" stroke="#4a4a4a" stroke-width="0.8"/>
<rect x="-229.9" y="94.8" width="17.1" height="17.1" rx="1" fill="#e6e6e6" stroke="#4a4a4a" stroke-width="0.8"/>
<rect x="-229.9" y="64.4" width="17.1" height="17.1" rx="1" fill="#e6e6e6" stroke="#4a4a4a" stroke-width="0.8"/>
<rect x="-229.9" y="-87.6" width="17.1" height="17.1" rx="1" fill="#e6e6e6" stroke="#4a4a4a" stroke-width="0.8"/>
<rect x="-229.9" y="-118.0" width="17.1" height="17.1" rx="1" fill="#e6e6e6" stroke="#4a4a4a" stroke-width="0.8"/>
<rect x="-260.3" y="125.2" width="17.1" height="17.1" rx="1" fill="#e6e6e6" stroke="#4a4a4a" stroke-width="0.8"/>
<rect x="-260.3" y="94.8" width="17.1" height="17.1" rx="1" fill="#e6e6e6" stroke="#4a4a4a" stroke-width="0.8"/>
<rect x="-260.3" y="64.4" width="17.1" height="17.1" rx="1" fill="#e6e6e6" stroke="#4a4a4a" stroke-width="0.8"/>
<rect x="-260.3" y="34.0" width="17.1" height="17.1" rx="1" fill="#e6e6e6" stroke="#4a4a4a" stroke-width="0.8"/>
<rect x="-260.3" y="3.6" width="17.1" height="17.1" rx="1" fill="#e6e6e6" stroke="#4a4a4a" stroke-width="0.8"/>
<rect x="-260.3" y="-26.8" width="17.1" height="17.1" rx="1" fill="#e6e6e6" stroke="#4a4a4a" stroke-width="0.8"/>
<rect x="-260.3" y="-57.2" width="17.1" height="17.1" rx="1" fill="#e6e6e6" stroke="#4a4a4a" stroke-width="0.8"/>
<rect x="-260.3" y="-87.6" width="17.1" height="17.1" rx="1" fill="#e6e6e6" stroke="#4a4a4a" stroke-width="0.8"/>
<rect x="-260.3" y="-118.0" width="17.1" height="17.1" rx="1" fill="#e6e6e6" stroke="#4a4a4a" stroke-width="0.8"/>
<rect x="-260.3" y="-148.4" width="17.1" height="17.1" rx="1" fill="#e6e6e6" stroke="#4a4a4a" stroke-width="0.8"/>
<rect x="-290.7" y="64.4" width="17.1" height="17.1" rx="1" fill="#e6e6e6" stroke="#4a4a4a" stroke-width="0.8"/>
<rect x="-290.7" y="34.0" width="17.1" height="17.1" rx="1" fill="#e6e6e6" stroke="#4a4a4a" stroke-width="0.8"/>
<rect x="-290.7" y="3.6" width="17.1" height="17.1" rx="1" fill="#e6e6e6" stroke="#4a4a4a" stroke-width="0.8"/>
<rect x="-290.7" y="-26.8" width="17.1" height="17.1" rx="1" fill="#e6e6e6" stroke="#4a4a4a" stroke-width="0.8"/>
<rect x="-290.7" y="-57.2" width="17.1" height="17.1" rx="1" fill="#e6e6e6" stroke="#4a4a4a" stroke-width="0.8"/>
<rect x="-290.7" y="-87.6" width="17.1" height="17.1" rx="1" fill="#e6e6e6" stroke="#4a4a4a" stroke-width="0.8"/>
<text x="0" y="309.0" class="lb" font-size="12" fill="#4a4a4a" text-anchor="middle">65 land  ·  J → power_board</text>
<rect x="56.7" y="158.0" width="72.7" height="49.1" rx="1.5" fill="#d7f0ea" stroke="#0e7c66" stroke-width="1.1"/>
<text x="93.1" y="185.7" class="lb" font-size="9" fill="#0e7c66" text-anchor="middle">MAG_WAKE</text>
<rect x="-122.4" y="47.0" width="74.1" height="47.5" rx="1.5" fill="#fbe6d3" stroke="#b3560c" stroke-width="1.1"/>
<text x="-85.3" y="73.9" class="lb" font-size="9" fill="#b3560c" text-anchor="middle">BOOST</text>
<rect x="-35.1" y="-91.2" width="70.3" height="47.5" rx="1.5" fill="#fbe6d3" stroke="#b3560c" stroke-width="1.1"/>
<text x="0.0" y="-64.3" class="lb" font-size="9" fill="#b3560c" text-anchor="middle">TMR_LDO</text>
<rect x="-35.1" y="-23.8" width="70.3" height="47.5" rx="1.5" fill="#fbe6d3" stroke="#b3560c" stroke-width="1.1"/>
<text x="0.0" y="3.1" class="lb" font-size="9" fill="#b3560c" text-anchor="middle">AON_LDO</text>
<rect x="-25.7" y="-229.0" width="51.3" height="64.6" rx="1.5" fill="#fbe6d3" stroke="#b3560c" stroke-width="1.1"/>
<text x="0.0" y="-193.6" class="lb" font-size="9" fill="#b3560c" text-anchor="middle">PWR</text>
<rect x="-216.6" y="-216.6" width="57.0" height="57.0" rx="1.5" fill="#faf9f6" stroke="#8a8780" stroke-width="1.1"/>
<text x="-188.1" y="-184.9" class="lb" font-size="9" fill="#8a8780" text-anchor="middle">potting</text>
<rect x="159.6" y="159.6" width="57.0" height="57.0" rx="1.5" fill="#faf9f6" stroke="#8a8780" stroke-width="1.1"/>
<text x="188.1" y="191.2" class="lb" font-size="9" fill="#8a8780" text-anchor="middle">potting</text>
<rect x="-115.9" y="-89.3" width="72.2" height="43.7" rx="1.5" fill="#faf9f6" stroke="#8a8780" stroke-width="1.1"/>
<text x="-79.8" y="-64.3" class="lb" font-size="9" fill="#8a8780" text-anchor="middle">CBOOST_OUT1</text>
<rect x="-36.1" y="39.4" width="72.2" height="43.7" rx="1.5" fill="#faf9f6" stroke="#8a8780" stroke-width="1.1"/>
<text x="0.0" y="64.4" class="lb" font-size="9" fill="#8a8780" text-anchor="middle">COUT1</text>
<rect x="-36.1" y="-150.6" width="72.2" height="43.7" rx="1.5" fill="#faf9f6" stroke="#8a8780" stroke-width="1.1"/>
<text x="0.0" y="-125.6" class="lb" font-size="9" fill="#8a8780" text-anchor="middle">COUT2</text>
<rect x="-118.8" y="-234.2" width="55.1" height="57.0" rx="1.5" fill="#eedcf5" stroke="#7a1fa2" stroke-width="1.1"/>
<text x="-91.2" y="-202.6" class="lb" font-size="9" fill="#7a1fa2" text-anchor="middle">WBA_HSE</text>
<rect x="110.4" y="50.5" width="60.8" height="51.3" rx="1.5" fill="#fbe6d3" stroke="#b3560c" stroke-width="1.1"/>
<text x="140.8" y="79.3" class="lb" font-size="9" fill="#b3560c" text-anchor="middle">QMAIN</text>
<rect x="181.9" y="-25.2" width="60.8" height="51.3" rx="1.5" fill="#fbe6d3" stroke="#b3560c" stroke-width="1.1"/>
<text x="212.3" y="3.6" class="lb" font-size="9" fill="#b3560c" text-anchor="middle">Q_AON_EN</text>
<rect x="44.6" y="-26.6" width="57.9" height="53.2" rx="1.5" fill="#fbe6d3" stroke="#b3560c" stroke-width="1.1"/>
<text x="73.5" y="3.1" class="lb" font-size="9" fill="#b3560c" text-anchor="middle">D_JUMP_WAKE</text>
<rect x="-122.5" y="-26.6" width="57.9" height="53.2" rx="1.5" fill="#fbe6d3" stroke="#b3560c" stroke-width="1.1"/>
<text x="-93.5" y="3.1" class="lb" font-size="9" fill="#b3560c" text-anchor="middle">D_AON_WAKE</text>
<rect x="68.0" y="-91.8" width="54.1" height="50.5" rx="1.5" fill="#fbe6d3" stroke="#b3560c" stroke-width="1.1"/>
<text x="95.0" y="-63.4" class="lb" font-size="9" fill="#b3560c" text-anchor="middle">QHOLD</text>
<rect x="-98.8" y="-146.9" width="57.9" height="46.7" rx="1.5" fill="#fbe6d3" stroke="#b3560c" stroke-width="1.1"/>
<text x="-69.8" y="-120.4" class="lb" font-size="9" fill="#b3560c" text-anchor="middle">Q_USB_WAKE2</text>
<rect x="124.5" y="-88.5" width="57.9" height="46.7" rx="1.5" fill="#fbe6d3" stroke="#b3560c" stroke-width="1.1"/>
<text x="153.5" y="-61.9" class="lb" font-size="9" fill="#b3560c" text-anchor="middle">QHOLD2</text>
<rect x="120.9" y="-23.7" width="44.1" height="49.8" rx="1.5" fill="#dbe3f7" stroke="#1c3f94" stroke-width="1.1"/>
<text x="142.9" y="5.8" class="lb" font-size="13" fill="#1c3f94" text-anchor="middle">WBA</text>
<rect x="-123.5" y="125.9" width="48.9" height="43.7" rx="1.5" fill="#d7f0ea" stroke="#0e7c66" stroke-width="1.1"/>
<text x="-99.0" y="150.9" class="lb" font-size="9" fill="#0e7c66" text-anchor="middle">IMU2</text>
<rect x="97.5" y="-161.1" width="48.9" height="43.7" rx="1.5" fill="#d7f0ea" stroke="#0e7c66" stroke-width="1.1"/>
<text x="122.0" y="-136.1" class="lb" font-size="9" fill="#0e7c66" text-anchor="middle">IMU3</text>
<rect x="-189.6" y="-26.6" width="39.4" height="53.2" rx="1.5" fill="#d7f0ea" stroke="#0e7c66" stroke-width="1.1"/>
<text x="-169.9" y="3.1" class="lb" font-size="9" fill="#0e7c66" text-anchor="middle">IMU1</text>
<rect x="-175.1" y="-103.4" width="35.1" height="35.1" rx="1.5" fill="#d7f0ea" stroke="#0e7c66" stroke-width="1.1"/>
<text x="-157.6" y="-82.7" class="lb" font-size="9" fill="#0e7c66" text-anchor="middle">MAG</text>
<rect x="-23.3" y="89.8" width="46.6" height="18.1" rx="1.5" fill="#faf9f6" stroke="#8a8780" stroke-width="1.1"/>
<text x="0.0" y="101.5" class="lb" font-size="7.5" fill="#8a8780" text-anchor="middle">C_WBA_PI2</text>
<rect x="-58.0" y="-24.2" width="16.1" height="48.4" rx="1.5" fill="#faf9f6" stroke="#8a8780" stroke-width="1.1"/>
<text x="-49.9" y="2.6" class="lb" font-size="7.5" fill="#8a8780" text-anchor="middle">C_WBA_PI1</text>
<rect x="47.5" y="-138.3" width="11.4" height="55.1" rx="1.5" fill="#fbe6d3" stroke="#b3560c" stroke-width="1.1"/>
<text x="53.2" y="-108.1" class="lb" font-size="7.5" fill="#b3560c" text-anchor="middle">L_PWR</text>
<rect x="47.5" y="-88.8" width="11.4" height="55.1" rx="1.5" fill="#fbe6d3" stroke="#b3560c" stroke-width="1.1"/>
<text x="53.2" y="-58.7" class="lb" font-size="7.5" fill="#b3560c" text-anchor="middle">L_WBA_SMPS</text>
<rect x="62.9" y="59.6" width="19.6" height="19.6" rx="1.5" fill="#d7f0ea" stroke="#0e7c66" stroke-width="1.1"/>
<text x="72.7" y="72.0" class="lb" font-size="7.5" fill="#0e7c66" text-anchor="middle">MAG_SHELF</text>
<rect x="-39.0" y="89.3" width="10.5" height="29.4" rx="1.5" fill="#fbe6d3" stroke="#b3560c" stroke-width="1.1"/>
<text x="-33.7" y="106.7" class="lb" font-size="7.5" fill="#b3560c" text-anchor="middle">L_WBA_PI</text>
</g>
<g transform="translate(1049.0,473.0)">
<circle cx="0" cy="0" r="323.0" fill="#f4f2ed" stroke="#1a1a1a" stroke-width="2.5"/>
<circle cx="0" cy="0" r="95.0" fill="none" stroke="#dcd8d0" stroke-width="1" stroke-dasharray="3 5"/>
<circle cx="0" cy="0" r="190.0" fill="none" stroke="#dcd8d0" stroke-width="1" stroke-dasharray="3 5"/>
<circle cx="0" cy="0" r="285.0" fill="none" stroke="#dcd8d0" stroke-width="1" stroke-dasharray="3 5"/>
<text x="0" y="-369.0" class="vt" text-anchor="middle">BOTTOM  (B.Cu)</text>
<text x="0" y="-349.0" class="vs" text-anchor="middle">84 componenti · vista da sotto (specchiata)</text>
<rect x="256.5" y="94.8" width="17.1" height="17.1" rx="1" fill="#e6e6e6" stroke="#4a4a4a" stroke-width="0.8"/>
<rect x="256.5" y="64.4" width="17.1" height="17.1" rx="1" fill="#e6e6e6" stroke="#4a4a4a" stroke-width="0.8"/>
<rect x="256.5" y="34.0" width="17.1" height="17.1" rx="1" fill="#e6e6e6" stroke="#4a4a4a" stroke-width="0.8"/>
<rect x="256.5" y="3.6" width="17.1" height="17.1" rx="1" fill="#e6e6e6" stroke="#4a4a4a" stroke-width="0.8"/>
<rect x="256.5" y="-26.8" width="17.1" height="17.1" rx="1" fill="#e6e6e6" stroke="#4a4a4a" stroke-width="0.8"/>
<rect x="256.5" y="-57.2" width="17.1" height="17.1" rx="1" fill="#e6e6e6" stroke="#4a4a4a" stroke-width="0.8"/>
<rect x="256.5" y="-87.6" width="17.1" height="17.1" rx="1" fill="#e6e6e6" stroke="#4a4a4a" stroke-width="0.8"/>
<rect x="256.5" y="-118.0" width="17.1" height="17.1" rx="1" fill="#e6e6e6" stroke="#4a4a4a" stroke-width="0.8"/>
<rect x="226.1" y="94.8" width="17.1" height="17.1" rx="1" fill="#e6e6e6" stroke="#4a4a4a" stroke-width="0.8"/>
<rect x="226.1" y="64.4" width="17.1" height="17.1" rx="1" fill="#e6e6e6" stroke="#4a4a4a" stroke-width="0.8"/>
<rect x="226.1" y="34.0" width="17.1" height="17.1" rx="1" fill="#e6e6e6" stroke="#4a4a4a" stroke-width="0.8"/>
<rect x="226.1" y="3.6" width="17.1" height="17.1" rx="1" fill="#e6e6e6" stroke="#4a4a4a" stroke-width="0.8"/>
<rect x="226.1" y="-26.8" width="17.1" height="17.1" rx="1" fill="#e6e6e6" stroke="#4a4a4a" stroke-width="0.8"/>
<rect x="226.1" y="-57.2" width="17.1" height="17.1" rx="1" fill="#e6e6e6" stroke="#4a4a4a" stroke-width="0.8"/>
<rect x="226.1" y="-87.6" width="17.1" height="17.1" rx="1" fill="#e6e6e6" stroke="#4a4a4a" stroke-width="0.8"/>
<rect x="226.1" y="-118.0" width="17.1" height="17.1" rx="1" fill="#e6e6e6" stroke="#4a4a4a" stroke-width="0.8"/>
<rect x="226.1" y="-148.4" width="17.1" height="17.1" rx="1" fill="#e6e6e6" stroke="#4a4a4a" stroke-width="0.8"/>
<rect x="226.1" y="-178.8" width="17.1" height="17.1" rx="1" fill="#e6e6e6" stroke="#4a4a4a" stroke-width="0.8"/>
<rect x="195.7" y="94.8" width="17.1" height="17.1" rx="1" fill="#e6e6e6" stroke="#4a4a4a" stroke-width="0.8"/>
<rect x="195.7" y="64.4" width="17.1" height="17.1" rx="1" fill="#e6e6e6" stroke="#4a4a4a" stroke-width="0.8"/>
<rect x="195.7" y="34.0" width="17.1" height="17.1" rx="1" fill="#e6e6e6" stroke="#4a4a4a" stroke-width="0.8"/>
<rect x="195.7" y="3.6" width="17.1" height="17.1" rx="1" fill="#e6e6e6" stroke="#4a4a4a" stroke-width="0.8"/>
<rect x="195.7" y="-26.8" width="17.1" height="17.1" rx="1" fill="#e6e6e6" stroke="#4a4a4a" stroke-width="0.8"/>
<rect x="195.7" y="-57.2" width="17.1" height="17.1" rx="1" fill="#e6e6e6" stroke="#4a4a4a" stroke-width="0.8"/>
<rect x="195.7" y="-87.6" width="17.1" height="17.1" rx="1" fill="#e6e6e6" stroke="#4a4a4a" stroke-width="0.8"/>
<rect x="195.7" y="-118.0" width="17.1" height="17.1" rx="1" fill="#e6e6e6" stroke="#4a4a4a" stroke-width="0.8"/>
<rect x="195.7" y="-148.4" width="17.1" height="17.1" rx="1" fill="#e6e6e6" stroke="#4a4a4a" stroke-width="0.8"/>
<rect x="195.7" y="-178.8" width="17.1" height="17.1" rx="1" fill="#e6e6e6" stroke="#4a4a4a" stroke-width="0.8"/>
<rect x="195.7" y="-209.2" width="17.1" height="17.1" rx="1" fill="#e6e6e6" stroke="#4a4a4a" stroke-width="0.8"/>
<rect x="104.5" y="246.8" width="17.1" height="17.1" rx="1" fill="#e6e6e6" stroke="#4a4a4a" stroke-width="0.8"/>
<rect x="104.5" y="-270.0" width="17.1" height="17.1" rx="1" fill="#e6e6e6" stroke="#4a4a4a" stroke-width="0.8"/>
<rect x="-17.1" y="-239.6" width="17.1" height="17.1" rx="1" fill="#e6e6e6" stroke="#4a4a4a" stroke-width="0.8"/>
<rect x="-47.5" y="-239.6" width="17.1" height="17.1" rx="1" fill="#e6e6e6" stroke="#4a4a4a" stroke-width="0.8"/>
<rect x="-77.9" y="-239.6" width="17.1" height="17.1" rx="1" fill="#e6e6e6" stroke="#4a4a4a" stroke-width="0.8"/>
<rect x="-108.3" y="246.8" width="17.1" height="17.1" rx="1" fill="#e6e6e6" stroke="#4a4a4a" stroke-width="0.8"/>
<rect x="-108.3" y="-239.6" width="17.1" height="17.1" rx="1" fill="#e6e6e6" stroke="#4a4a4a" stroke-width="0.8"/>
<rect x="-108.3" y="-270.0" width="17.1" height="17.1" rx="1" fill="#e6e6e6" stroke="#4a4a4a" stroke-width="0.8"/>
<rect x="-138.7" y="246.8" width="17.1" height="17.1" rx="1" fill="#e6e6e6" stroke="#4a4a4a" stroke-width="0.8"/>
<rect x="-138.7" y="-270.0" width="17.1" height="17.1" rx="1" fill="#e6e6e6" stroke="#4a4a4a" stroke-width="0.8"/>
<rect x="-169.1" y="216.4" width="17.1" height="17.1" rx="1" fill="#e6e6e6" stroke="#4a4a4a" stroke-width="0.8"/>
<rect x="-169.1" y="186.0" width="17.1" height="17.1" rx="1" fill="#e6e6e6" stroke="#4a4a4a" stroke-width="0.8"/>
<rect x="-169.1" y="155.6" width="17.1" height="17.1" rx="1" fill="#e6e6e6" stroke="#4a4a4a" stroke-width="0.8"/>
<rect x="-169.1" y="125.2" width="17.1" height="17.1" rx="1" fill="#e6e6e6" stroke="#4a4a4a" stroke-width="0.8"/>
<rect x="-169.1" y="94.8" width="17.1" height="17.1" rx="1" fill="#e6e6e6" stroke="#4a4a4a" stroke-width="0.8"/>
<rect x="-199.5" y="186.0" width="17.1" height="17.1" rx="1" fill="#e6e6e6" stroke="#4a4a4a" stroke-width="0.8"/>
<rect x="-199.5" y="155.6" width="17.1" height="17.1" rx="1" fill="#e6e6e6" stroke="#4a4a4a" stroke-width="0.8"/>
<rect x="-199.5" y="125.2" width="17.1" height="17.1" rx="1" fill="#e6e6e6" stroke="#4a4a4a" stroke-width="0.8"/>
<rect x="-199.5" y="94.8" width="17.1" height="17.1" rx="1" fill="#e6e6e6" stroke="#4a4a4a" stroke-width="0.8"/>
<rect x="-199.5" y="-118.0" width="17.1" height="17.1" rx="1" fill="#e6e6e6" stroke="#4a4a4a" stroke-width="0.8"/>
<rect x="-229.9" y="155.6" width="17.1" height="17.1" rx="1" fill="#e6e6e6" stroke="#4a4a4a" stroke-width="0.8"/>
<rect x="-229.9" y="125.2" width="17.1" height="17.1" rx="1" fill="#e6e6e6" stroke="#4a4a4a" stroke-width="0.8"/>
<rect x="-229.9" y="94.8" width="17.1" height="17.1" rx="1" fill="#e6e6e6" stroke="#4a4a4a" stroke-width="0.8"/>
<rect x="-229.9" y="-118.0" width="17.1" height="17.1" rx="1" fill="#e6e6e6" stroke="#4a4a4a" stroke-width="0.8"/>
<rect x="-260.3" y="125.2" width="17.1" height="17.1" rx="1" fill="#e6e6e6" stroke="#4a4a4a" stroke-width="0.8"/>
<rect x="-260.3" y="94.8" width="17.1" height="17.1" rx="1" fill="#e6e6e6" stroke="#4a4a4a" stroke-width="0.8"/>
<rect x="-260.3" y="64.4" width="17.1" height="17.1" rx="1" fill="#e6e6e6" stroke="#4a4a4a" stroke-width="0.8"/>
<rect x="-260.3" y="34.0" width="17.1" height="17.1" rx="1" fill="#e6e6e6" stroke="#4a4a4a" stroke-width="0.8"/>
<rect x="-260.3" y="3.6" width="17.1" height="17.1" rx="1" fill="#e6e6e6" stroke="#4a4a4a" stroke-width="0.8"/>
<rect x="-260.3" y="-26.8" width="17.1" height="17.1" rx="1" fill="#e6e6e6" stroke="#4a4a4a" stroke-width="0.8"/>
<rect x="-260.3" y="-57.2" width="17.1" height="17.1" rx="1" fill="#e6e6e6" stroke="#4a4a4a" stroke-width="0.8"/>
<rect x="-260.3" y="-87.6" width="17.1" height="17.1" rx="1" fill="#e6e6e6" stroke="#4a4a4a" stroke-width="0.8"/>
<rect x="-260.3" y="-118.0" width="17.1" height="17.1" rx="1" fill="#e6e6e6" stroke="#4a4a4a" stroke-width="0.8"/>
<rect x="-260.3" y="-148.4" width="17.1" height="17.1" rx="1" fill="#e6e6e6" stroke="#4a4a4a" stroke-width="0.8"/>
<rect x="-290.7" y="64.4" width="17.1" height="17.1" rx="1" fill="#e6e6e6" stroke="#4a4a4a" stroke-width="0.8"/>
<rect x="-290.7" y="34.0" width="17.1" height="17.1" rx="1" fill="#e6e6e6" stroke="#4a4a4a" stroke-width="0.8"/>
<rect x="-290.7" y="3.6" width="17.1" height="17.1" rx="1" fill="#e6e6e6" stroke="#4a4a4a" stroke-width="0.8"/>
<rect x="-290.7" y="-26.8" width="17.1" height="17.1" rx="1" fill="#e6e6e6" stroke="#4a4a4a" stroke-width="0.8"/>
<rect x="-290.7" y="-57.2" width="17.1" height="17.1" rx="1" fill="#e6e6e6" stroke="#4a4a4a" stroke-width="0.8"/>
<rect x="-290.7" y="-87.6" width="17.1" height="17.1" rx="1" fill="#e6e6e6" stroke="#4a4a4a" stroke-width="0.8"/>
<text x="0" y="309.0" class="lb" font-size="12" fill="#4a4a4a" text-anchor="middle">69 land  ·  P → fin_ble_board</text>
<rect x="86.1" y="-79.0" width="54.1" height="50.5" rx="1.5" fill="#fbe6d3" stroke="#b3560c" stroke-width="1.1"/>
<text x="113.1" y="-50.5" class="lb" font-size="9" fill="#b3560c" text-anchor="middle">Q_WBA_RST</text>
<rect x="19.0" y="100.8" width="58.9" height="27.6" rx="1.5" fill="#faf9f6" stroke="#8a8780" stroke-width="1.1"/>
<text x="48.5" y="117.7" class="lb" font-size="9" fill="#8a8780" text-anchor="middle">C_AON_OUT</text>
<rect x="59.0" y="-40.8" width="21.8" height="64.6" rx="1.5" fill="#faf9f6" stroke="#8a8780" stroke-width="1.1"/>
<text x="69.9" y="-5.4" class="lb" font-size="9" fill="#8a8780" text-anchor="middle">C_MAG2</text>
<rect x="102.2" y="-22.8" width="21.8" height="64.6" rx="1.5" fill="#faf9f6" stroke="#8a8780" stroke-width="1.1"/>
<text x="113.1" y="12.7" class="lb" font-size="9" fill="#8a8780" text-anchor="middle">C_TMR_LDO</text>
<rect x="-96.5" y="32.4" width="21.8" height="64.6" rx="1.5" fill="#faf9f6" stroke="#8a8780" stroke-width="1.1"/>
<text x="-85.6" y="67.8" class="lb" font-size="9" fill="#8a8780" text-anchor="middle">C_AON_IN</text>
<rect x="-23.3" y="80.8" width="46.6" height="18.1" rx="1.5" fill="#faf9f6" stroke="#8a8780" stroke-width="1.1"/>
<text x="-0.0" y="92.5" class="lb" font-size="7.5" fill="#8a8780" text-anchor="middle">C_IMU1_2</text>
<rect x="-64.1" y="-116.9" width="46.6" height="18.1" rx="1.5" fill="#faf9f6" stroke="#8a8780" stroke-width="1.1"/>
<text x="-40.9" y="-105.3" class="lb" font-size="7.5" fill="#8a8780" text-anchor="middle">C_IMU2_2</text>
<rect x="-23.3" y="7.6" width="46.6" height="18.1" rx="1.5" fill="#faf9f6" stroke="#8a8780" stroke-width="1.1"/>
<text x="-0.0" y="19.3" class="lb" font-size="7.5" fill="#8a8780" text-anchor="middle">C_IMU3_2</text>
<rect x="-21.8" y="-42.8" width="46.6" height="18.1" rx="1.5" fill="#faf9f6" stroke="#8a8780" stroke-width="1.1"/>
<text x="1.4" y="-31.1" class="lb" font-size="7.5" fill="#8a8780" text-anchor="middle">CBOOST_IN1_2</text>
<rect x="20.5" y="-128.3" width="46.6" height="18.1" rx="1.5" fill="#faf9f6" stroke="#8a8780" stroke-width="1.1"/>
<text x="43.7" y="-116.7" class="lb" font-size="7.5" fill="#8a8780" text-anchor="middle">CBOOST_IN1_3</text>
<rect x="-65.6" y="100.8" width="46.6" height="18.1" rx="1.5" fill="#faf9f6" stroke="#8a8780" stroke-width="1.1"/>
<text x="-42.3" y="112.5" class="lb" font-size="7.5" fill="#8a8780" text-anchor="middle">CBOOST_IN1_4</text>
<rect x="-23.3" y="60.9" width="46.6" height="18.1" rx="1.5" fill="#faf9f6" stroke="#8a8780" stroke-width="1.1"/>
<text x="-0.0" y="72.5" class="lb" font-size="7.5" fill="#8a8780" text-anchor="middle">CBOOST_IN1_5</text>
<rect x="-23.3" y="40.9" width="46.6" height="18.1" rx="1.5" fill="#faf9f6" stroke="#8a8780" stroke-width="1.1"/>
<text x="-0.0" y="52.6" class="lb" font-size="7.5" fill="#8a8780" text-anchor="middle">C_WBA_BULK_2</text>
<rect x="-12.8" y="-73.2" width="28.5" height="28.5" rx="1.5" fill="#f2f2f2" stroke="#6b6b6b" stroke-width="1.1"/>
<text x="1.4" y="-56.3" class="lb" font-size="7.5" fill="#6b6b6b" text-anchor="middle">TP_MAG_DRDY</text>
<rect x="-58.0" y="-22.8" width="28.5" height="28.5" rx="1.5" fill="#f2f2f2" stroke="#6b6b6b" stroke-width="1.1"/>
<text x="-43.7" y="-5.9" class="lb" font-size="7.5" fill="#6b6b6b" text-anchor="middle">TP_IMU1_INT</text>
<rect x="-55.1" y="-97.0" width="28.5" height="28.5" rx="1.5" fill="#f2f2f2" stroke="#6b6b6b" stroke-width="1.1"/>
<text x="-40.9" y="-80.1" class="lb" font-size="7.5" fill="#6b6b6b" text-anchor="middle">TP_IMU2_INT</text>
<rect x="-121.7" y="-95.5" width="28.5" height="28.5" rx="1.5" fill="#f2f2f2" stroke="#6b6b6b" stroke-width="1.1"/>
<text x="-107.4" y="-78.6" class="lb" font-size="7.5" fill="#6b6b6b" text-anchor="middle">TP_IMU3_INT</text>
<rect x="-55.1" y="-53.2" width="28.5" height="28.5" rx="1.5" fill="#f2f2f2" stroke="#6b6b6b" stroke-width="1.1"/>
<text x="-40.9" y="-36.3" class="lb" font-size="7.5" fill="#6b6b6b" text-anchor="middle">TP_WILK_A</text>
<rect x="-12.8" y="-116.9" width="28.5" height="28.5" rx="1.5" fill="#f2f2f2" stroke="#6b6b6b" stroke-width="1.1"/>
<text x="1.4" y="-100.1" class="lb" font-size="7.5" fill="#6b6b6b" text-anchor="middle">TP_WILK_B</text>
<rect x="58.5" y="40.9" width="28.5" height="28.5" rx="1.5" fill="#f2f2f2" stroke="#6b6b6b" stroke-width="1.1"/>
<text x="72.7" y="57.8" class="lb" font-size="7.5" fill="#6b6b6b" text-anchor="middle">TP_YAGI_RF_A</text>
<rect x="28.0" y="54.2" width="28.5" height="28.5" rx="1.5" fill="#f2f2f2" stroke="#6b6b6b" stroke-width="1.1"/>
<text x="42.3" y="71.1" class="lb" font-size="7.5" fill="#6b6b6b" text-anchor="middle">TP_YAGI_RF_B</text>
<rect x="-99.3" y="98.9" width="28.5" height="28.5" rx="1.5" fill="#f2f2f2" stroke="#6b6b6b" stroke-width="1.1"/>
<text x="-85.1" y="115.8" class="lb" font-size="7.5" fill="#6b6b6b" text-anchor="middle">TP_BAT</text>
<rect x="-108.4" y="-10.9" width="28.5" height="28.5" rx="1.5" fill="#f2f2f2" stroke="#6b6b6b" stroke-width="1.1"/>
<text x="-94.1" y="5.9" class="lb" font-size="7.5" fill="#6b6b6b" text-anchor="middle">TP_3V3</text>
<rect x="-131.2" y="43.2" width="28.5" height="28.5" rx="1.5" fill="#f2f2f2" stroke="#6b6b6b" stroke-width="1.1"/>
<text x="-117.0" y="60.1" class="lb" font-size="7.5" fill="#6b6b6b" text-anchor="middle">TP_GND</text>
<rect x="-74.1" y="-75.1" width="16.1" height="48.4" rx="1.5" fill="#faf9f6" stroke="#8a8780" stroke-width="1.1"/>
<text x="-66.0" y="-48.2" class="lb" font-size="7.5" fill="#8a8780" text-anchor="middle">C_MAG_C1</text>
<rect x="-110.3" y="-63.2" width="16.1" height="48.4" rx="1.5" fill="#faf9f6" stroke="#8a8780" stroke-width="1.1"/>
<text x="-102.2" y="-36.3" class="lb" font-size="7.5" fill="#8a8780" text-anchor="middle">CBOOST_IN1_1</text>
<rect x="-130.3" y="-9.0" width="16.1" height="48.4" rx="1.5" fill="#faf9f6" stroke="#8a8780" stroke-width="1.1"/>
<text x="-122.2" y="17.8" class="lb" font-size="7.5" fill="#8a8780" text-anchor="middle">C_WBA_VDD11</text>
<rect x="-77.0" y="-20.9" width="16.1" height="48.4" rx="1.5" fill="#faf9f6" stroke="#8a8780" stroke-width="1.1"/>
<text x="-68.9" y="5.9" class="lb" font-size="7.5" fill="#8a8780" text-anchor="middle">C_WBA_BULK_1</text>
<rect x="-56.5" y="84.2" width="28.5" height="11.4" rx="1.5" fill="#faf9f6" stroke="#8a8780" stroke-width="1.1"/>
<rect x="-12.8" y="-130.2" width="28.5" height="11.4" rx="1.5" fill="#faf9f6" stroke="#8a8780" stroke-width="1.1"/>
<rect x="-141.7" y="-54.7" width="28.5" height="11.4" rx="1.5" fill="#faf9f6" stroke="#8a8780" stroke-width="1.1"/>
<rect x="-85.5" y="-97.0" width="28.5" height="11.4" rx="1.5" fill="#faf9f6" stroke="#8a8780" stroke-width="1.1"/>
<rect x="82.7" y="87.5" width="28.5" height="11.4" rx="1.5" fill="#faf9f6" stroke="#8a8780" stroke-width="1.1"/>
<rect x="-55.1" y="-66.5" width="28.5" height="11.4" rx="1.5" fill="#faf9f6" stroke="#8a8780" stroke-width="1.1"/>
<rect x="55.2" y="25.7" width="28.5" height="11.4" rx="1.5" fill="#faf9f6" stroke="#8a8780" stroke-width="1.1"/>
<rect x="-56.5" y="40.9" width="28.5" height="11.4" rx="1.5" fill="#faf9f6" stroke="#8a8780" stroke-width="1.1"/>
<rect x="-14.2" y="117.0" width="28.5" height="11.4" rx="1.5" fill="#faf9f6" stroke="#8a8780" stroke-width="1.1"/>
<rect x="-56.5" y="67.5" width="28.5" height="11.4" rx="1.5" fill="#faf9f6" stroke="#8a8780" stroke-width="1.1"/>
<rect x="-73.6" y="-130.2" width="28.5" height="11.4" rx="1.5" fill="#faf9f6" stroke="#8a8780" stroke-width="1.1"/>
<rect x="17.6" y="-108.4" width="28.5" height="11.4" rx="1.5" fill="#faf9f6" stroke="#8a8780" stroke-width="1.1"/>
<rect x="-14.2" y="100.8" width="28.5" height="11.4" rx="1.5" fill="#faf9f6" stroke="#8a8780" stroke-width="1.1"/>
<rect x="20.9" y="-66.5" width="28.5" height="11.4" rx="1.5" fill="#faf9f6" stroke="#8a8780" stroke-width="1.1"/>
<rect x="-14.2" y="27.6" width="28.5" height="11.4" rx="1.5" fill="#faf9f6" stroke="#8a8780" stroke-width="1.1"/>
<rect x="28.0" y="40.9" width="28.5" height="11.4" rx="1.5" fill="#faf9f6" stroke="#8a8780" stroke-width="1.1"/>
<rect x="-14.2" y="-19.0" width="28.5" height="11.4" rx="1.5" fill="#faf9f6" stroke="#8a8780" stroke-width="1.1"/>
<rect x="28.0" y="84.6" width="28.5" height="11.4" rx="1.5" fill="#faf9f6" stroke="#8a8780" stroke-width="1.1"/>
<rect x="-12.8" y="-143.6" width="28.5" height="11.4" rx="1.5" fill="#faf9f6" stroke="#8a8780" stroke-width="1.1"/>
<rect x="-12.8" y="-86.5" width="28.5" height="11.4" rx="1.5" fill="#faf9f6" stroke="#8a8780" stroke-width="1.1"/>
<rect x="-43.2" y="-130.2" width="28.5" height="11.4" rx="1.5" fill="#faf9f6" stroke="#8a8780" stroke-width="1.1"/>
<rect x="20.9" y="-79.9" width="28.5" height="11.4" rx="1.5" fill="#faf9f6" stroke="#8a8780" stroke-width="1.1"/>
<rect x="-14.2" y="-5.7" width="28.5" height="11.4" rx="1.5" fill="#faf9f6" stroke="#8a8780" stroke-width="1.1"/>
<rect x="-44.7" y="120.8" width="28.5" height="11.4" rx="1.5" fill="#faf9f6" stroke="#8a8780" stroke-width="1.1"/>
<rect x="58.5" y="71.3" width="28.5" height="11.4" rx="1.5" fill="#faf9f6" stroke="#8a8780" stroke-width="1.1"/>
<rect x="20.9" y="-93.2" width="28.5" height="11.4" rx="1.5" fill="#faf9f6" stroke="#8a8780" stroke-width="1.1"/>
<rect x="-56.5" y="54.2" width="28.5" height="11.4" rx="1.5" fill="#faf9f6" stroke="#8a8780" stroke-width="1.1"/>
<rect x="-97.4" y="-110.3" width="28.5" height="11.4" rx="1.5" fill="#faf9f6" stroke="#8a8780" stroke-width="1.1"/>
<rect x="51.8" y="-102.2" width="10.5" height="29.4" rx="1.5" fill="#faf9f6" stroke="#8a8780" stroke-width="1.1"/>
<rect x="129.8" y="-23.3" width="10.5" height="29.4" rx="1.5" fill="#faf9f6" stroke="#8a8780" stroke-width="1.1"/>
<rect x="16.6" y="-23.3" width="10.5" height="29.4" rx="1.5" fill="#faf9f6" stroke="#8a8780" stroke-width="1.1"/>
<rect x="69.9" y="-71.7" width="10.5" height="29.4" rx="1.5" fill="#faf9f6" stroke="#8a8780" stroke-width="1.1"/>
<rect x="-27.1" y="-23.3" width="10.5" height="29.4" rx="1.5" fill="#faf9f6" stroke="#8a8780" stroke-width="1.1"/>
<rect x="30.0" y="-53.7" width="10.5" height="29.4" rx="1.5" fill="#faf9f6" stroke="#8a8780" stroke-width="1.1"/>
<rect x="-141.2" y="-41.8" width="10.5" height="29.4" rx="1.5" fill="#faf9f6" stroke="#8a8780" stroke-width="1.1"/>
<rect x="86.1" y="7.1" width="10.5" height="29.4" rx="1.5" fill="#faf9f6" stroke="#8a8780" stroke-width="1.1"/>
<rect x="86.1" y="-23.3" width="10.5" height="29.4" rx="1.5" fill="#faf9f6" stroke="#8a8780" stroke-width="1.1"/>
<rect x="43.3" y="-23.3" width="10.5" height="29.4" rx="1.5" fill="#faf9f6" stroke="#8a8780" stroke-width="1.1"/>
<rect x="43.3" y="-53.7" width="10.5" height="29.4" rx="1.5" fill="#faf9f6" stroke="#8a8780" stroke-width="1.1"/>
<rect x="-52.3" y="7.1" width="10.5" height="29.4" rx="1.5" fill="#faf9f6" stroke="#8a8780" stroke-width="1.1"/>
<rect x="-39.0" y="7.1" width="10.5" height="29.4" rx="1.5" fill="#faf9f6" stroke="#8a8780" stroke-width="1.1"/>
<rect x="65.2" y="-102.2" width="10.5" height="29.4" rx="1.5" fill="#faf9f6" stroke="#8a8780" stroke-width="1.1"/>
<rect x="56.6" y="-71.7" width="10.5" height="29.4" rx="1.5" fill="#faf9f6" stroke="#8a8780" stroke-width="1.1"/>
<rect x="107.9" y="43.2" width="10.5" height="29.4" rx="1.5" fill="#faf9f6" stroke="#8a8780" stroke-width="1.1"/>
<rect x="-90.8" y="-84.1" width="10.5" height="29.4" rx="1.5" fill="#faf9f6" stroke="#8a8780" stroke-width="1.1"/>
<rect x="89.4" y="53.8" width="10.5" height="29.4" rx="1.5" fill="#faf9f6" stroke="#8a8780" stroke-width="1.1"/>
<rect x="129.8" y="7.1" width="10.5" height="29.4" rx="1.5" fill="#faf9f6" stroke="#8a8780" stroke-width="1.1"/>
<rect x="-124.1" y="-41.8" width="10.5" height="29.4" rx="1.5" fill="#faf9f6" stroke="#8a8780" stroke-width="1.1"/>
<rect x="41.8" y="7.1" width="10.5" height="29.4" rx="1.5" fill="#faf9f6" stroke="#8a8780" stroke-width="1.1"/>
<rect x="-69.4" y="62.3" width="10.5" height="29.4" rx="1.5" fill="#faf9f6" stroke="#8a8780" stroke-width="1.1"/>
<rect x="28.5" y="7.1" width="10.5" height="29.4" rx="1.5" fill="#faf9f6" stroke="#8a8780" stroke-width="1.1"/>
<rect x="-69.4" y="31.9" width="10.5" height="29.4" rx="1.5" fill="#faf9f6" stroke="#8a8780" stroke-width="1.1"/>
<rect x="86.1" y="-113.6" width="10.5" height="29.4" rx="1.5" fill="#faf9f6" stroke="#8a8780" stroke-width="1.1"/>
<rect x="-90.8" y="-53.7" width="10.5" height="29.4" rx="1.5" fill="#faf9f6" stroke="#8a8780" stroke-width="1.1"/>
<rect x="30.0" y="-23.3" width="10.5" height="29.4" rx="1.5" fill="#faf9f6" stroke="#8a8780" stroke-width="1.1"/>
</g>
<text x="1420" y="160" class="lgt">LEGENDA</text>
<rect x="1420" y="175" width="26" height="15" rx="2" fill="#dbe3f7" stroke="#1c3f94" stroke-width="1.2"/>
<text x="1454" y="186" class="lg">MCU BLE — 1</text>
<rect x="1420" y="199" width="26" height="15" rx="2" fill="#d7f0ea" stroke="#0e7c66" stroke-width="1.2"/>
<text x="1454" y="210" class="lg">sensori — 6</text>
<rect x="1420" y="223" width="26" height="15" rx="2" fill="#fbe6d3" stroke="#b3560c" stroke-width="1.2"/>
<text x="1454" y="234" class="lg">alimentazione / switch — 15</text>
<rect x="1420" y="247" width="26" height="15" rx="2" fill="#eedcf5" stroke="#7a1fa2" stroke-width="1.2"/>
<text x="1454" y="258" class="lg">oscillatore — 1</text>
<rect x="1420" y="271" width="26" height="15" rx="2" fill="#e6e6e6" stroke="#4a4a4a" stroke-width="1.2"/>
<text x="1454" y="282" class="lg">connettori di stack — 2</text>
<rect x="1420" y="295" width="26" height="15" rx="2" fill="#f2f2f2" stroke="#6b6b6b" stroke-width="1.2"/>
<text x="1454" y="306" class="lg">test point — 11</text>
<rect x="1420" y="319" width="26" height="15" rx="2" fill="#faf9f6" stroke="#8a8780" stroke-width="1.2"/>
<text x="1454" y="330" class="lg">passivi R/C/L — 78</text>
<text x="1420" y="380" class="lgt">COSA STA DOVE</text>
<text x="1420" y="402" class="nt">TOP — tutto cio che e attivo o alto:</text>
<text x="1420" y="417" class="nt">   U_WBA (BGA41), i 3 IMU, il magnetometro,</text>
<text x="1420" y="432" class="nt">   boost + i due LDO + i MOSFET, l'oscillatore,</text>
<text x="1420" y="447" class="nt">   le induttanze, i tantalio, la rete pi RF,</text>
<text x="1420" y="462" class="nt">   e il connettore J verso power_board.</text>
<text x="1420" y="477" class="nt"></text>
<text x="1420" y="492" class="nt">BOTTOM — il connettore P verso fin_ble_board</text>
<text x="1420" y="507" class="nt">   piu' tutti i passivi 0402/0603/0805:</text>
<text x="1420" y="522" class="nt">   decoupling, pull-up, partitore del boost.</text>
<text x="1420" y="537" class="nt"></text>
<text x="1420" y="552" class="nt">I due connettori di stack sono su facce opposte:</text>
<text x="1420" y="567" class="nt">la scheda e un passante fra power_board e</text>
<text x="1420" y="582" class="nt">fin_ble_board.</text>
<text x="1420" y="597" class="nt"></text>
<text x="1420" y="612" class="nt">11 test point, tutti sul bottom:</text>
<text x="1420" y="627" class="nt">   TP_3V3  ·  TP_BAT</text>
<text x="1420" y="641" class="nt">   TP_GND  ·  TP_IMU1_INT</text>
<text x="1420" y="655" class="nt">   TP_IMU2_INT  ·  TP_IMU3_INT</text>
<text x="1420" y="669" class="nt">   TP_MAG_DRDY  ·  TP_WILK_A</text>
<text x="1420" y="683" class="nt">   TP_WILK_B  ·  TP_YAGI_RF_A</text>
<text x="1420" y="697" class="nt">   TP_YAGI_RF_B</text>
<text x="34" y="854" class="nt">Il bottom e disegnato specchiato, cioe come lo vedi girando la scheda: la X e invertita rispetto alle coordinate del file.</text>
</svg>