%TF.GenerationSoftware,KiCad,Pcbnew,10.0.0*%
%TF.CreationDate,2026-09-03T12:15:51+02:00*%
%TF.ProjectId,spacer_activation_interface_cell_floor_board,73706163-6572-45f6-9163-746976617469,rev?*%
%TF.SameCoordinates,Original*%
%TF.FileFunction,Profile,NP*%
%FSLAX46Y46*%
G04 Gerber Fmt 4.6, Leading zero omitted, Abs format (unit mm)*
G04 Created by KiCad (PCBNEW 10.0.0) date 2026-09-03 12:15:51*
%MOMM*%
%LPD*%
G01*
G04 APERTURE LIST*
%TA.AperFunction,Profile*%
%ADD10C,0.150000*%
%TD*%
G04 APERTURE END LIST*
D10*
X17000000Y0D02*
G75*
G02*
X-17000000Y0I-17000000J0D01*
G01*
X-17000000Y0D02*
G75*
G02*
X17000000Y0I17000000J0D01*
G01*
X10635000Y-1110000D02*
X10635000Y-6910000D01*
X10635000Y-6910000D02*
X3785000Y-6910000D01*
X3785000Y-6910000D02*
X3785000Y-4103000D01*
X3785000Y-4103000D02*
X3450000Y-4103000D01*
X3450000Y-4103000D02*
X3450000Y-9704000D01*
X3450000Y-9704000D02*
X-4700000Y-9704000D01*
X-4700000Y-9704000D02*
X-4700000Y-6467800D01*
X-4700000Y-6467800D02*
X-9015600Y-10783400D01*
X-9015600Y-10783400D02*
X-10783400Y-9015600D01*
X-10783400Y-9015600D02*
X-5052000Y-3284200D01*
X-5052000Y-3284200D02*
X-5052000Y2200000D01*
X-5052000Y2200000D02*
X-2950000Y2200000D01*
X-2950000Y2200000D02*
X-2950000Y2651000D01*
X-2950000Y2651000D02*
X-6000000Y2651000D01*
X-6000000Y2651000D02*
X-6000000Y9551000D01*
X-6000000Y9551000D02*
X4000000Y9551000D01*
X4000000Y9551000D02*
X4000000Y5767800D01*
X4000000Y5767800D02*
X9015600Y10783400D01*
X9015600Y10783400D02*
X10783400Y9015600D01*
X10783400Y9015600D02*
X5203000Y3435200D01*
X5203000Y3435200D02*
X5203000Y675000D01*
X5203000Y675000D02*
X5904000Y675000D01*
X5904000Y675000D02*
X5904000Y-675000D01*
X5904000Y-675000D02*
X3801000Y-675000D01*
X3801000Y-675000D02*
X3801000Y-1110000D01*
X3801000Y-1110000D02*
X10635000Y-1110000D01*
M02*
