%TF.GenerationSoftware,KiCad,Pcbnew,10.0.0*%
%TF.CreationDate,2026-09-03T12:15:51+02:00*%
%TF.ProjectId,spacer_activation_interface_cell_floor_board,73706163-6572-45f6-9163-746976617469,rev?*%
%TF.SameCoordinates,Original*%
%TF.FileFunction,Copper,L2,Bot*%
%TF.FilePolarity,Positive*%
%FSLAX46Y46*%
G04 Gerber Fmt 4.6, Leading zero omitted, Abs format (unit mm)*
G04 Created by KiCad (PCBNEW 10.0.0) date 2026-09-03 12:15:51*
%MOMM*%
%LPD*%
G01*
G04 APERTURE LIST*
%TA.AperFunction,SMDPad,CuDef*%
%ADD10R,0.900000X0.900000*%
%TD*%
%TA.AperFunction,ViaPad*%
%ADD11C,0.900000*%
%TD*%
G04 APERTURE END LIST*
D10*
%TO.P,P_spacer_activation_interface_cell_floor_board_bot,1*%
%TO.N,3V3*%
X-13950000Y-5950000D03*
%TO.P,P_spacer_activation_interface_cell_floor_board_bot,2*%
%TO.N,3V3_AON*%
X-13950000Y-4350000D03*
%TO.P,P_spacer_activation_interface_cell_floor_board_bot,3*%
%TO.N,ACTIVATE_CONFIRM*%
X-13950000Y-2750000D03*
%TO.P,P_spacer_activation_interface_cell_floor_board_bot,4*%
%TO.N,ACTIVATE_SET*%
X-13950000Y-1150000D03*
%TO.P,P_spacer_activation_interface_cell_floor_board_bot,5*%
%TO.N,BAT_PROT*%
X-13950000Y450000D03*
%TO.P,P_spacer_activation_interface_cell_floor_board_bot,6*%
%TO.N,BAT_RAW*%
X-13950000Y2050000D03*
%TO.P,P_spacer_activation_interface_cell_floor_board_bot,7*%
%TO.N,BOOT0*%
X-13950000Y3650000D03*
%TO.P,P_spacer_activation_interface_cell_floor_board_bot,8*%
%TO.N,COMP_5V*%
X-13950000Y5250000D03*
%TO.P,P_spacer_activation_interface_cell_floor_board_bot,9*%
%TO.N,COMP_SWDCLK*%
X-12350000Y-5950000D03*
%TO.P,P_spacer_activation_interface_cell_floor_board_bot,10*%
%TO.N,COMP_SWDIO*%
X-12350000Y-4350000D03*
%TO.P,P_spacer_activation_interface_cell_floor_board_bot,11*%
%TO.N,EXT_CAN_RX*%
X-12350000Y-2750000D03*
%TO.P,P_spacer_activation_interface_cell_floor_board_bot,12*%
%TO.N,EXT_CAN_TX*%
X-12350000Y-1150000D03*
%TO.P,P_spacer_activation_interface_cell_floor_board_bot,13*%
%TO.N,FIN1_AOUT1*%
X-12350000Y450000D03*
%TO.P,P_spacer_activation_interface_cell_floor_board_bot,14*%
%TO.N,FIN2_AOUT1*%
X-12350000Y2050000D03*
%TO.P,P_spacer_activation_interface_cell_floor_board_bot,15*%
%TO.N,FIN3_AOUT1*%
X-12350000Y3650000D03*
%TO.P,P_spacer_activation_interface_cell_floor_board_bot,16*%
%TO.N,FIN4_AOUT1*%
X-12350000Y5250000D03*
%TO.P,P_spacer_activation_interface_cell_floor_board_bot,17*%
%TO.N,FIN_HALL*%
X-12350000Y6850000D03*
%TO.P,P_spacer_activation_interface_cell_floor_board_bot,18*%
%TO.N,FIN_VREF*%
X-12350000Y8450000D03*
%TO.P,P_spacer_activation_interface_cell_floor_board_bot,19*%
%TO.N,FLEX_GND*%
X-10750000Y-5950000D03*
%TO.P,P_spacer_activation_interface_cell_floor_board_bot,20*%
%TO.N,GPIO_EXT_0*%
X-10750000Y-4350000D03*
%TO.P,P_spacer_activation_interface_cell_floor_board_bot,21*%
%TO.N,GPIO_EXT_1*%
X-10750000Y-2750000D03*
%TO.P,P_spacer_activation_interface_cell_floor_board_bot,22*%
%TO.N,GPIO_EXT_2*%
X-10750000Y-1150000D03*
%TO.P,P_spacer_activation_interface_cell_floor_board_bot,23*%
%TO.N,GPIO_EXT_3*%
X-10750000Y450000D03*
%TO.P,P_spacer_activation_interface_cell_floor_board_bot,24*%
%TO.N,H3LIS_INT1*%
X-10750000Y2050000D03*
%TO.P,P_spacer_activation_interface_cell_floor_board_bot,25*%
%TO.N,I2C3_SCL*%
X-10750000Y3650000D03*
%TO.P,P_spacer_activation_interface_cell_floor_board_bot,26*%
%TO.N,I2C3_SDA*%
X-10750000Y5250000D03*
%TO.P,P_spacer_activation_interface_cell_floor_board_bot,27*%
%TO.N,JUMP_WAKE*%
X-10750000Y6850000D03*
%TO.P,P_spacer_activation_interface_cell_floor_board_bot,28*%
%TO.N,NRST*%
X-10750000Y8450000D03*
%TO.P,P_spacer_activation_interface_cell_floor_board_bot,29*%
%TO.N,SWO*%
X-10750000Y10050000D03*
%TO.P,P_spacer_activation_interface_cell_floor_board_bot,30*%
%TO.N,SYS_I2C_SCL*%
X-9150000Y-5950000D03*
%TO.P,P_spacer_activation_interface_cell_floor_board_bot,31*%
%TO.N,SYS_I2C_SDA*%
X-9150000Y-4350000D03*
%TO.P,P_spacer_activation_interface_cell_floor_board_bot,32*%
%TO.N,SYS_SPI_CS_FIN*%
X-9150000Y-2750000D03*
%TO.P,P_spacer_activation_interface_cell_floor_board_bot,33*%
%TO.N,SYS_SPI_MISO*%
X-9150000Y-1150000D03*
%TO.P,P_spacer_activation_interface_cell_floor_board_bot,34*%
%TO.N,SYS_SPI_MOSI*%
X-9150000Y450000D03*
%TO.P,P_spacer_activation_interface_cell_floor_board_bot,35*%
%TO.N,SYS_SPI_SCLK*%
X-9150000Y2050000D03*
%TO.P,P_spacer_activation_interface_cell_floor_board_bot,36*%
%TO.N,3V3*%
X-9150000Y3650000D03*
%TO.P,P_spacer_activation_interface_cell_floor_board_bot,37*%
%TO.N,3V3_AON*%
X-9150000Y5250000D03*
%TO.P,P_spacer_activation_interface_cell_floor_board_bot,38*%
%TO.N,BAT_PROT*%
X-9150000Y6850000D03*
%TO.P,P_spacer_activation_interface_cell_floor_board_bot,39*%
%TO.N,BAT_RAW*%
X-9150000Y8450000D03*
%TO.P,P_spacer_activation_interface_cell_floor_board_bot,40*%
%TO.N,COMP_5V*%
X-9150000Y10050000D03*
%TO.P,P_spacer_activation_interface_cell_floor_board_bot,41*%
%TO.N,3V3*%
X-9150000Y11650000D03*
%TO.P,P_spacer_activation_interface_cell_floor_board_bot,42*%
%TO.N,FLEX_GND*%
X-7550000Y-4350000D03*
%TO.P,P_spacer_activation_interface_cell_floor_board_bot,43*%
X-7550000Y-2750000D03*
%TO.P,P_spacer_activation_interface_cell_floor_board_bot,44*%
X-7550000Y-1150000D03*
%TO.P,P_spacer_activation_interface_cell_floor_board_bot,45*%
X-7550000Y450000D03*
%TO.P,P_spacer_activation_interface_cell_floor_board_bot,46*%
X-7550000Y2050000D03*
%TO.P,P_spacer_activation_interface_cell_floor_board_bot,47*%
X-7550000Y3650000D03*
%TO.P,P_spacer_activation_interface_cell_floor_board_bot,48*%
X-7550000Y5250000D03*
%TO.P,P_spacer_activation_interface_cell_floor_board_bot,49*%
X-7550000Y6850000D03*
%TO.P,P_spacer_activation_interface_cell_floor_board_bot,50*%
X-7550000Y8450000D03*
%TO.P,P_spacer_activation_interface_cell_floor_board_bot,51*%
X-7550000Y10050000D03*
%TO.P,P_spacer_activation_interface_cell_floor_board_bot,52*%
X-7550000Y11650000D03*
%TO.P,P_spacer_activation_interface_cell_floor_board_bot,53*%
X-7550000Y13250000D03*
%TO.P,P_spacer_activation_interface_cell_floor_board_bot,54*%
X-5950000Y-13950000D03*
%TO.P,P_spacer_activation_interface_cell_floor_board_bot,55*%
X-5950000Y-12350000D03*
%TO.P,P_spacer_activation_interface_cell_floor_board_bot,56*%
X-5950000Y-10750000D03*
%TO.P,P_spacer_activation_interface_cell_floor_board_bot,57*%
X-5950000Y-9150000D03*
%TO.P,P_spacer_activation_interface_cell_floor_board_bot,58*%
X-5950000Y-2750000D03*
%TO.P,P_spacer_activation_interface_cell_floor_board_bot,59*%
X-5950000Y-1150000D03*
%TO.P,P_spacer_activation_interface_cell_floor_board_bot,60*%
X-5950000Y450000D03*
%TO.P,P_spacer_activation_interface_cell_floor_board_bot,61*%
X-5950000Y11650000D03*
%TO.P,P_spacer_activation_interface_cell_floor_board_bot,62*%
X-5950000Y13250000D03*
%TO.P,P_spacer_activation_interface_cell_floor_board_bot,63*%
X-4350000Y-13950000D03*
%TO.P,P_spacer_activation_interface_cell_floor_board_bot,64*%
X-4350000Y-12350000D03*
%TO.P,P_spacer_activation_interface_cell_floor_board_bot,65*%
X-4350000Y-10750000D03*
%TO.P,P_spacer_activation_interface_cell_floor_board_bot,66*%
X-4350000Y11650000D03*
%TO.P,P_spacer_activation_interface_cell_floor_board_bot,67*%
X-4350000Y13250000D03*
%TO.P,P_spacer_activation_interface_cell_floor_board_bot,68*%
X-2750000Y-13950000D03*
%TO.P,P_spacer_activation_interface_cell_floor_board_bot,69*%
X-2750000Y-12350000D03*
%TO.P,P_spacer_activation_interface_cell_floor_board_bot,70*%
X-2750000Y-10750000D03*
%TO.P,P_spacer_activation_interface_cell_floor_board_bot,71*%
X-2750000Y11650000D03*
%TO.P,P_spacer_activation_interface_cell_floor_board_bot,72*%
X-2750000Y13250000D03*
%TO.P,P_spacer_activation_interface_cell_floor_board_bot,73*%
X-2750000Y14850000D03*
%TO.P,P_spacer_activation_interface_cell_floor_board_bot,74*%
X-1150000Y-13950000D03*
%TO.P,P_spacer_activation_interface_cell_floor_board_bot,75*%
X-1150000Y-12350000D03*
%TO.P,P_spacer_activation_interface_cell_floor_board_bot,76*%
X-1150000Y-10750000D03*
%TO.P,P_spacer_activation_interface_cell_floor_board_bot,77*%
X-1150000Y11650000D03*
%TO.P,P_spacer_activation_interface_cell_floor_board_bot,78*%
X-1150000Y13250000D03*
%TO.P,P_spacer_activation_interface_cell_floor_board_bot,79*%
X-1150000Y14850000D03*
%TO.P,P_spacer_activation_interface_cell_floor_board_bot,80*%
X450000Y-13950000D03*
%TO.P,P_spacer_activation_interface_cell_floor_board_bot,81*%
X450000Y-12350000D03*
%TO.P,P_spacer_activation_interface_cell_floor_board_bot,82*%
X450000Y-10750000D03*
%TO.P,P_spacer_activation_interface_cell_floor_board_bot,83*%
X450000Y11650000D03*
%TO.P,P_spacer_activation_interface_cell_floor_board_bot,84*%
X450000Y13250000D03*
%TO.P,P_spacer_activation_interface_cell_floor_board_bot,85*%
X450000Y14850000D03*
%TO.P,P_spacer_activation_interface_cell_floor_board_bot,86*%
X2050000Y-13950000D03*
%TO.P,P_spacer_activation_interface_cell_floor_board_bot,87*%
X2050000Y-12350000D03*
%TO.P,P_spacer_activation_interface_cell_floor_board_bot,88*%
X2050000Y-10750000D03*
%TO.P,P_spacer_activation_interface_cell_floor_board_bot,89*%
X2050000Y11650000D03*
%TO.P,P_spacer_activation_interface_cell_floor_board_bot,90*%
X2050000Y13250000D03*
%TO.P,P_spacer_activation_interface_cell_floor_board_bot,91*%
X2050000Y14850000D03*
%TO.P,P_spacer_activation_interface_cell_floor_board_bot,92*%
X3650000Y-13950000D03*
%TO.P,P_spacer_activation_interface_cell_floor_board_bot,93*%
X3650000Y-12350000D03*
%TO.P,P_spacer_activation_interface_cell_floor_board_bot,94*%
X3650000Y-10750000D03*
%TO.P,P_spacer_activation_interface_cell_floor_board_bot,95*%
X3650000Y11650000D03*
%TO.P,P_spacer_activation_interface_cell_floor_board_bot,96*%
X3650000Y13250000D03*
%TO.P,P_spacer_activation_interface_cell_floor_board_bot,97*%
X3650000Y14850000D03*
%TO.P,P_spacer_activation_interface_cell_floor_board_bot,98*%
X5250000Y-13950000D03*
%TO.P,P_spacer_activation_interface_cell_floor_board_bot,99*%
X5250000Y-12350000D03*
%TO.P,P_spacer_activation_interface_cell_floor_board_bot,100*%
X5250000Y-10750000D03*
%TO.P,P_spacer_activation_interface_cell_floor_board_bot,101*%
X5250000Y-9150000D03*
%TO.P,P_spacer_activation_interface_cell_floor_board_bot,102*%
X5250000Y8450000D03*
%TO.P,P_spacer_activation_interface_cell_floor_board_bot,103*%
X5250000Y10050000D03*
%TO.P,P_spacer_activation_interface_cell_floor_board_bot,104*%
X5250000Y11650000D03*
%TO.P,P_spacer_activation_interface_cell_floor_board_bot,105*%
X5250000Y13250000D03*
%TO.P,P_spacer_activation_interface_cell_floor_board_bot,106*%
X6850000Y-12350000D03*
%TO.P,P_spacer_activation_interface_cell_floor_board_bot,107*%
X6850000Y-10750000D03*
%TO.P,P_spacer_activation_interface_cell_floor_board_bot,108*%
X6850000Y-9150000D03*
%TO.P,P_spacer_activation_interface_cell_floor_board_bot,109*%
X6850000Y450000D03*
%TO.P,P_spacer_activation_interface_cell_floor_board_bot,110*%
X6850000Y2050000D03*
%TO.P,P_spacer_activation_interface_cell_floor_board_bot,111*%
X6850000Y3650000D03*
%TO.P,P_spacer_activation_interface_cell_floor_board_bot,112*%
X6850000Y13250000D03*
%TO.P,P_spacer_activation_interface_cell_floor_board_bot,113*%
X8450000Y-12350000D03*
%TO.P,P_spacer_activation_interface_cell_floor_board_bot,114*%
X8450000Y-10750000D03*
%TO.P,P_spacer_activation_interface_cell_floor_board_bot,115*%
X8450000Y-9150000D03*
%TO.P,P_spacer_activation_interface_cell_floor_board_bot,116*%
X8450000Y450000D03*
%TO.P,P_spacer_activation_interface_cell_floor_board_bot,117*%
X8450000Y2050000D03*
%TO.P,P_spacer_activation_interface_cell_floor_board_bot,118*%
X8450000Y3650000D03*
%TO.P,P_spacer_activation_interface_cell_floor_board_bot,119*%
X8450000Y5250000D03*
%TO.P,P_spacer_activation_interface_cell_floor_board_bot,120*%
X10050000Y-10750000D03*
%TO.P,P_spacer_activation_interface_cell_floor_board_bot,121*%
X10050000Y-9150000D03*
%TO.P,P_spacer_activation_interface_cell_floor_board_bot,122*%
X10050000Y450000D03*
%TO.P,P_spacer_activation_interface_cell_floor_board_bot,123*%
X10050000Y2050000D03*
%TO.P,P_spacer_activation_interface_cell_floor_board_bot,124*%
X10050000Y3650000D03*
%TO.P,P_spacer_activation_interface_cell_floor_board_bot,125*%
X10050000Y5250000D03*
%TO.P,P_spacer_activation_interface_cell_floor_board_bot,126*%
X11650000Y-9150000D03*
%TO.P,P_spacer_activation_interface_cell_floor_board_bot,127*%
X11650000Y-7550000D03*
%TO.P,P_spacer_activation_interface_cell_floor_board_bot,128*%
X11650000Y-5950000D03*
%TO.P,P_spacer_activation_interface_cell_floor_board_bot,129*%
X11650000Y-4350000D03*
%TO.P,P_spacer_activation_interface_cell_floor_board_bot,130*%
X11650000Y-2750000D03*
%TO.P,P_spacer_activation_interface_cell_floor_board_bot,131*%
X11650000Y-1150000D03*
%TO.P,P_spacer_activation_interface_cell_floor_board_bot,132*%
X11650000Y450000D03*
%TO.P,P_spacer_activation_interface_cell_floor_board_bot,133*%
X11650000Y2050000D03*
%TO.P,P_spacer_activation_interface_cell_floor_board_bot,134*%
X11650000Y3650000D03*
%TO.P,P_spacer_activation_interface_cell_floor_board_bot,135*%
X11650000Y5250000D03*
%TO.P,P_spacer_activation_interface_cell_floor_board_bot,136*%
X13250000Y-7550000D03*
%TO.P,P_spacer_activation_interface_cell_floor_board_bot,137*%
X13250000Y-5950000D03*
%TO.P,P_spacer_activation_interface_cell_floor_board_bot,138*%
X13250000Y-4350000D03*
%TO.P,P_spacer_activation_interface_cell_floor_board_bot,139*%
X13250000Y-2750000D03*
%TO.P,P_spacer_activation_interface_cell_floor_board_bot,140*%
X13250000Y-1150000D03*
%TO.P,P_spacer_activation_interface_cell_floor_board_bot,141*%
X13250000Y450000D03*
%TO.P,P_spacer_activation_interface_cell_floor_board_bot,142*%
X13250000Y2050000D03*
%TO.P,P_spacer_activation_interface_cell_floor_board_bot,143*%
X13250000Y3650000D03*
%TO.P,P_spacer_activation_interface_cell_floor_board_bot,144*%
X13250000Y5250000D03*
%TO.P,P_spacer_activation_interface_cell_floor_board_bot,145*%
X13250000Y6850000D03*
%TO.P,P_spacer_activation_interface_cell_floor_board_bot,146*%
X14850000Y-2750000D03*
%TO.P,P_spacer_activation_interface_cell_floor_board_bot,147*%
X14850000Y-1150000D03*
%TO.P,P_spacer_activation_interface_cell_floor_board_bot,148*%
X14850000Y450000D03*
%TO.P,P_spacer_activation_interface_cell_floor_board_bot,149*%
X14850000Y2050000D03*
%TO.P,P_spacer_activation_interface_cell_floor_board_bot,150*%
X14850000Y3650000D03*
%TD*%
D11*
%TO.N,3V3*%
X-13950000Y-5950000D03*
%TO.N,3V3_AON*%
X-13950000Y-4350000D03*
%TO.N,ACTIVATE_CONFIRM*%
X-13950000Y-2750000D03*
%TO.N,ACTIVATE_SET*%
X-13950000Y-1150000D03*
%TO.N,BAT_PROT*%
X-13950000Y450000D03*
%TO.N,BAT_RAW*%
X-13950000Y2050000D03*
%TO.N,BOOT0*%
X-13950000Y3650000D03*
%TO.N,COMP_5V*%
X-13950000Y5250000D03*
%TO.N,COMP_SWDCLK*%
X-12350000Y-5950000D03*
%TO.N,COMP_SWDIO*%
X-12350000Y-4350000D03*
%TO.N,EXT_CAN_RX*%
X-12350000Y-2750000D03*
%TO.N,EXT_CAN_TX*%
X-12350000Y-1150000D03*
%TO.N,FIN1_AOUT1*%
X-12350000Y450000D03*
%TO.N,FIN2_AOUT1*%
X-12350000Y2050000D03*
%TO.N,FIN3_AOUT1*%
X-12350000Y3650000D03*
%TO.N,FIN4_AOUT1*%
X-12350000Y5250000D03*
%TO.N,FIN_HALL*%
X-12350000Y6850000D03*
%TO.N,FIN_VREF*%
X-12350000Y8450000D03*
%TO.N,FLEX_GND*%
X-10750000Y-5950000D03*
%TO.N,GPIO_EXT_0*%
X-10750000Y-4350000D03*
%TO.N,GPIO_EXT_1*%
X-10750000Y-2750000D03*
%TO.N,GPIO_EXT_2*%
X-10750000Y-1150000D03*
%TO.N,GPIO_EXT_3*%
X-10750000Y450000D03*
%TO.N,H3LIS_INT1*%
X-10750000Y2050000D03*
%TO.N,I2C3_SCL*%
X-10750000Y3650000D03*
%TO.N,I2C3_SDA*%
X-10750000Y5250000D03*
%TO.N,JUMP_WAKE*%
X-10750000Y6850000D03*
%TO.N,NRST*%
X-10750000Y8450000D03*
%TO.N,SWO*%
X-10750000Y10050000D03*
%TO.N,SYS_I2C_SCL*%
X-9150000Y-5950000D03*
%TO.N,SYS_I2C_SDA*%
X-9150000Y-4350000D03*
%TO.N,SYS_SPI_CS_FIN*%
X-9150000Y-2750000D03*
%TO.N,SYS_SPI_MISO*%
X-9150000Y-1150000D03*
%TO.N,SYS_SPI_MOSI*%
X-9150000Y450000D03*
%TO.N,SYS_SPI_SCLK*%
X-9150000Y2050000D03*
%TO.N,3V3*%
X-9150000Y3650000D03*
%TO.N,3V3_AON*%
X-9150000Y5250000D03*
%TO.N,BAT_PROT*%
X-9150000Y6850000D03*
%TO.N,BAT_RAW*%
X-9150000Y8450000D03*
%TO.N,COMP_5V*%
X-9150000Y10050000D03*
%TO.N,3V3*%
X-9150000Y11650000D03*
%TO.N,FLEX_GND*%
X-7550000Y-4350000D03*
X-7550000Y-2750000D03*
X-7550000Y-1150000D03*
X-7550000Y450000D03*
X-7550000Y2050000D03*
X-7550000Y3650000D03*
X-7550000Y5250000D03*
X-7550000Y6850000D03*
X-7550000Y8450000D03*
X-7550000Y10050000D03*
X-7550000Y11650000D03*
X-7550000Y13250000D03*
X-5950000Y-13950000D03*
X-5950000Y-12350000D03*
X-5950000Y-10750000D03*
X-5950000Y-9150000D03*
X-5950000Y-2750000D03*
X-5950000Y-1150000D03*
X-5950000Y450000D03*
X-5950000Y11650000D03*
X-5950000Y13250000D03*
X-4350000Y-13950000D03*
X-4350000Y-12350000D03*
X-4350000Y-10750000D03*
X-4350000Y11650000D03*
X-4350000Y13250000D03*
X-2750000Y-13950000D03*
X-2750000Y-12350000D03*
X-2750000Y-10750000D03*
X-2750000Y11650000D03*
X-2750000Y13250000D03*
X-2750000Y14850000D03*
X-1150000Y-13950000D03*
X-1150000Y-12350000D03*
X-1150000Y-10750000D03*
X-1150000Y11650000D03*
X-1150000Y13250000D03*
X-1150000Y14850000D03*
X450000Y-13950000D03*
X450000Y-12350000D03*
X450000Y-10750000D03*
X450000Y11650000D03*
X450000Y13250000D03*
X450000Y14850000D03*
X2050000Y-13950000D03*
X2050000Y-12350000D03*
X2050000Y-10750000D03*
X2050000Y11650000D03*
X2050000Y13250000D03*
X2050000Y14850000D03*
X3650000Y-13950000D03*
X3650000Y-12350000D03*
X3650000Y-10750000D03*
X3650000Y11650000D03*
X3650000Y13250000D03*
X3650000Y14850000D03*
X5250000Y-13950000D03*
X5250000Y-12350000D03*
X5250000Y-10750000D03*
X5250000Y-9150000D03*
X5250000Y8450000D03*
X5250000Y10050000D03*
X5250000Y11650000D03*
X5250000Y13250000D03*
X6850000Y-12350000D03*
X6850000Y-10750000D03*
X6850000Y-9150000D03*
X6850000Y450000D03*
X6850000Y2050000D03*
X6850000Y3650000D03*
X6850000Y13250000D03*
X8450000Y-12350000D03*
X8450000Y-10750000D03*
X8450000Y-9150000D03*
X8450000Y450000D03*
X8450000Y2050000D03*
X8450000Y3650000D03*
X8450000Y5250000D03*
X10050000Y-10750000D03*
X10050000Y-9150000D03*
X10050000Y450000D03*
X10050000Y2050000D03*
X10050000Y3650000D03*
X10050000Y5250000D03*
X11650000Y-9150000D03*
X11650000Y-7550000D03*
X11650000Y-5950000D03*
X11650000Y-4350000D03*
X11650000Y-2750000D03*
X11650000Y-1150000D03*
X11650000Y450000D03*
X11650000Y2050000D03*
X11650000Y3650000D03*
X11650000Y5250000D03*
X13250000Y-7550000D03*
X13250000Y-5950000D03*
X13250000Y-4350000D03*
X13250000Y-2750000D03*
X13250000Y-1150000D03*
X13250000Y450000D03*
X13250000Y2050000D03*
X13250000Y3650000D03*
X13250000Y5250000D03*
X13250000Y6850000D03*
X14850000Y-2750000D03*
X14850000Y-1150000D03*
X14850000Y450000D03*
X14850000Y2050000D03*
X14850000Y3650000D03*
%TD*%
M02*
