%TF.GenerationSoftware,KiCad,Pcbnew,10.0.0*%
%TF.CreationDate,2026-09-03T12:15:51+02:00*%
%TF.ProjectId,spacer_activation_interface_cell_floor_board,73706163-6572-45f6-9163-746976617469,rev?*%
%TF.SameCoordinates,Original*%
%TF.FileFunction,Copper,L1,Top*%
%TF.FilePolarity,Positive*%
%FSLAX46Y46*%
G04 Gerber Fmt 4.6, Leading zero omitted, Abs format (unit mm)*
G04 Created by KiCad (PCBNEW 10.0.0) date 2026-09-03 12:15:51*
%MOMM*%
%LPD*%
G01*
G04 APERTURE LIST*
%TA.AperFunction,SMDPad,CuDef*%
%ADD10C,0.800000*%
%TD*%
%TA.AperFunction,SMDPad,CuDef*%
%ADD11R,0.900000X0.900000*%
%TD*%
%TA.AperFunction,ViaPad*%
%ADD12C,0.900000*%
%TD*%
G04 APERTURE END LIST*
D10*
%TO.P,SP_activation_interface_cell_floor_board,1*%
%TO.N,FLEX_GND*%
X0Y0D03*
%TD*%
D11*
%TO.P,J_spacer_activation_interface_cell_floor_board_top,1*%
%TO.N,3V3*%
X-13950000Y-5950000D03*
%TO.P,J_spacer_activation_interface_cell_floor_board_top,2*%
%TO.N,3V3_AON*%
X-13950000Y-4350000D03*
%TO.P,J_spacer_activation_interface_cell_floor_board_top,3*%
%TO.N,ACTIVATE_CONFIRM*%
X-13950000Y-2750000D03*
%TO.P,J_spacer_activation_interface_cell_floor_board_top,4*%
%TO.N,ACTIVATE_SET*%
X-13950000Y-1150000D03*
%TO.P,J_spacer_activation_interface_cell_floor_board_top,5*%
%TO.N,BAT_PROT*%
X-13950000Y450000D03*
%TO.P,J_spacer_activation_interface_cell_floor_board_top,6*%
%TO.N,BAT_RAW*%
X-13950000Y2050000D03*
%TO.P,J_spacer_activation_interface_cell_floor_board_top,7*%
%TO.N,BOOT0*%
X-13950000Y3650000D03*
%TO.P,J_spacer_activation_interface_cell_floor_board_top,8*%
%TO.N,COMP_5V*%
X-13950000Y5250000D03*
%TO.P,J_spacer_activation_interface_cell_floor_board_top,9*%
%TO.N,COMP_SWDCLK*%
X-12350000Y-5950000D03*
%TO.P,J_spacer_activation_interface_cell_floor_board_top,10*%
%TO.N,COMP_SWDIO*%
X-12350000Y-4350000D03*
%TO.P,J_spacer_activation_interface_cell_floor_board_top,11*%
%TO.N,EXT_CAN_RX*%
X-12350000Y-2750000D03*
%TO.P,J_spacer_activation_interface_cell_floor_board_top,12*%
%TO.N,EXT_CAN_TX*%
X-12350000Y-1150000D03*
%TO.P,J_spacer_activation_interface_cell_floor_board_top,13*%
%TO.N,FIN1_AOUT1*%
X-12350000Y450000D03*
%TO.P,J_spacer_activation_interface_cell_floor_board_top,14*%
%TO.N,FIN2_AOUT1*%
X-12350000Y2050000D03*
%TO.P,J_spacer_activation_interface_cell_floor_board_top,15*%
%TO.N,FIN3_AOUT1*%
X-12350000Y3650000D03*
%TO.P,J_spacer_activation_interface_cell_floor_board_top,16*%
%TO.N,FIN4_AOUT1*%
X-12350000Y5250000D03*
%TO.P,J_spacer_activation_interface_cell_floor_board_top,17*%
%TO.N,FIN_HALL*%
X-12350000Y6850000D03*
%TO.P,J_spacer_activation_interface_cell_floor_board_top,18*%
%TO.N,FIN_VREF*%
X-12350000Y8450000D03*
%TO.P,J_spacer_activation_interface_cell_floor_board_top,19*%
%TO.N,FLEX_GND*%
X-10750000Y-5950000D03*
%TO.P,J_spacer_activation_interface_cell_floor_board_top,20*%
%TO.N,GPIO_EXT_0*%
X-10750000Y-4350000D03*
%TO.P,J_spacer_activation_interface_cell_floor_board_top,21*%
%TO.N,GPIO_EXT_1*%
X-10750000Y-2750000D03*
%TO.P,J_spacer_activation_interface_cell_floor_board_top,22*%
%TO.N,GPIO_EXT_2*%
X-10750000Y-1150000D03*
%TO.P,J_spacer_activation_interface_cell_floor_board_top,23*%
%TO.N,GPIO_EXT_3*%
X-10750000Y450000D03*
%TO.P,J_spacer_activation_interface_cell_floor_board_top,24*%
%TO.N,H3LIS_INT1*%
X-10750000Y2050000D03*
%TO.P,J_spacer_activation_interface_cell_floor_board_top,25*%
%TO.N,I2C3_SCL*%
X-10750000Y3650000D03*
%TO.P,J_spacer_activation_interface_cell_floor_board_top,26*%
%TO.N,I2C3_SDA*%
X-10750000Y5250000D03*
%TO.P,J_spacer_activation_interface_cell_floor_board_top,27*%
%TO.N,JUMP_WAKE*%
X-10750000Y6850000D03*
%TO.P,J_spacer_activation_interface_cell_floor_board_top,28*%
%TO.N,NRST*%
X-10750000Y8450000D03*
%TO.P,J_spacer_activation_interface_cell_floor_board_top,29*%
%TO.N,SWO*%
X-10750000Y10050000D03*
%TO.P,J_spacer_activation_interface_cell_floor_board_top,30*%
%TO.N,SYS_I2C_SCL*%
X-9150000Y-5950000D03*
%TO.P,J_spacer_activation_interface_cell_floor_board_top,31*%
%TO.N,SYS_I2C_SDA*%
X-9150000Y-4350000D03*
%TO.P,J_spacer_activation_interface_cell_floor_board_top,32*%
%TO.N,SYS_SPI_CS_FIN*%
X-9150000Y-2750000D03*
%TO.P,J_spacer_activation_interface_cell_floor_board_top,33*%
%TO.N,SYS_SPI_MISO*%
X-9150000Y-1150000D03*
%TO.P,J_spacer_activation_interface_cell_floor_board_top,34*%
%TO.N,SYS_SPI_MOSI*%
X-9150000Y450000D03*
%TO.P,J_spacer_activation_interface_cell_floor_board_top,35*%
%TO.N,SYS_SPI_SCLK*%
X-9150000Y2050000D03*
%TO.P,J_spacer_activation_interface_cell_floor_board_top,36*%
%TO.N,3V3*%
X-9150000Y3650000D03*
%TO.P,J_spacer_activation_interface_cell_floor_board_top,37*%
%TO.N,3V3_AON*%
X-9150000Y5250000D03*
%TO.P,J_spacer_activation_interface_cell_floor_board_top,38*%
%TO.N,BAT_PROT*%
X-9150000Y6850000D03*
%TO.P,J_spacer_activation_interface_cell_floor_board_top,39*%
%TO.N,BAT_RAW*%
X-9150000Y8450000D03*
%TO.P,J_spacer_activation_interface_cell_floor_board_top,40*%
%TO.N,COMP_5V*%
X-9150000Y10050000D03*
%TO.P,J_spacer_activation_interface_cell_floor_board_top,41*%
%TO.N,3V3*%
X-9150000Y11650000D03*
%TO.P,J_spacer_activation_interface_cell_floor_board_top,42*%
%TO.N,FLEX_GND*%
X-7550000Y-4350000D03*
%TO.P,J_spacer_activation_interface_cell_floor_board_top,43*%
X-7550000Y-2750000D03*
%TO.P,J_spacer_activation_interface_cell_floor_board_top,44*%
X-7550000Y-1150000D03*
%TO.P,J_spacer_activation_interface_cell_floor_board_top,45*%
X-7550000Y450000D03*
%TO.P,J_spacer_activation_interface_cell_floor_board_top,46*%
X-7550000Y2050000D03*
%TO.P,J_spacer_activation_interface_cell_floor_board_top,47*%
X-7550000Y3650000D03*
%TO.P,J_spacer_activation_interface_cell_floor_board_top,48*%
X-7550000Y5250000D03*
%TO.P,J_spacer_activation_interface_cell_floor_board_top,49*%
X-7550000Y6850000D03*
%TO.P,J_spacer_activation_interface_cell_floor_board_top,50*%
X-7550000Y8450000D03*
%TO.P,J_spacer_activation_interface_cell_floor_board_top,51*%
X-7550000Y10050000D03*
%TO.P,J_spacer_activation_interface_cell_floor_board_top,52*%
X-7550000Y11650000D03*
%TO.P,J_spacer_activation_interface_cell_floor_board_top,53*%
X-7550000Y13250000D03*
%TO.P,J_spacer_activation_interface_cell_floor_board_top,54*%
X-5950000Y-13950000D03*
%TO.P,J_spacer_activation_interface_cell_floor_board_top,55*%
X-5950000Y-12350000D03*
%TO.P,J_spacer_activation_interface_cell_floor_board_top,56*%
X-5950000Y-10750000D03*
%TO.P,J_spacer_activation_interface_cell_floor_board_top,57*%
X-5950000Y-9150000D03*
%TO.P,J_spacer_activation_interface_cell_floor_board_top,58*%
X-5950000Y-2750000D03*
%TO.P,J_spacer_activation_interface_cell_floor_board_top,59*%
X-5950000Y-1150000D03*
%TO.P,J_spacer_activation_interface_cell_floor_board_top,60*%
X-5950000Y450000D03*
%TO.P,J_spacer_activation_interface_cell_floor_board_top,61*%
X-5950000Y11650000D03*
%TO.P,J_spacer_activation_interface_cell_floor_board_top,62*%
X-5950000Y13250000D03*
%TO.P,J_spacer_activation_interface_cell_floor_board_top,63*%
X-4350000Y-13950000D03*
%TO.P,J_spacer_activation_interface_cell_floor_board_top,64*%
X-4350000Y-12350000D03*
%TO.P,J_spacer_activation_interface_cell_floor_board_top,65*%
X-4350000Y-10750000D03*
%TO.P,J_spacer_activation_interface_cell_floor_board_top,66*%
X-4350000Y11650000D03*
%TO.P,J_spacer_activation_interface_cell_floor_board_top,67*%
X-4350000Y13250000D03*
%TO.P,J_spacer_activation_interface_cell_floor_board_top,68*%
X-2750000Y-13950000D03*
%TO.P,J_spacer_activation_interface_cell_floor_board_top,69*%
X-2750000Y-12350000D03*
%TO.P,J_spacer_activation_interface_cell_floor_board_top,70*%
X-2750000Y-10750000D03*
%TO.P,J_spacer_activation_interface_cell_floor_board_top,71*%
X-2750000Y11650000D03*
%TO.P,J_spacer_activation_interface_cell_floor_board_top,72*%
X-2750000Y13250000D03*
%TO.P,J_spacer_activation_interface_cell_floor_board_top,73*%
X-2750000Y14850000D03*
%TO.P,J_spacer_activation_interface_cell_floor_board_top,74*%
X-1150000Y-13950000D03*
%TO.P,J_spacer_activation_interface_cell_floor_board_top,75*%
X-1150000Y-12350000D03*
%TO.P,J_spacer_activation_interface_cell_floor_board_top,76*%
X-1150000Y-10750000D03*
%TO.P,J_spacer_activation_interface_cell_floor_board_top,77*%
X-1150000Y11650000D03*
%TO.P,J_spacer_activation_interface_cell_floor_board_top,78*%
X-1150000Y13250000D03*
%TO.P,J_spacer_activation_interface_cell_floor_board_top,79*%
X-1150000Y14850000D03*
%TO.P,J_spacer_activation_interface_cell_floor_board_top,80*%
X450000Y-13950000D03*
%TO.P,J_spacer_activation_interface_cell_floor_board_top,81*%
X450000Y-12350000D03*
%TO.P,J_spacer_activation_interface_cell_floor_board_top,82*%
X450000Y-10750000D03*
%TO.P,J_spacer_activation_interface_cell_floor_board_top,83*%
X450000Y11650000D03*
%TO.P,J_spacer_activation_interface_cell_floor_board_top,84*%
X450000Y13250000D03*
%TO.P,J_spacer_activation_interface_cell_floor_board_top,85*%
X450000Y14850000D03*
%TO.P,J_spacer_activation_interface_cell_floor_board_top,86*%
X2050000Y-13950000D03*
%TO.P,J_spacer_activation_interface_cell_floor_board_top,87*%
X2050000Y-12350000D03*
%TO.P,J_spacer_activation_interface_cell_floor_board_top,88*%
X2050000Y-10750000D03*
%TO.P,J_spacer_activation_interface_cell_floor_board_top,89*%
X2050000Y11650000D03*
%TO.P,J_spacer_activation_interface_cell_floor_board_top,90*%
X2050000Y13250000D03*
%TO.P,J_spacer_activation_interface_cell_floor_board_top,91*%
X2050000Y14850000D03*
%TO.P,J_spacer_activation_interface_cell_floor_board_top,92*%
X3650000Y-13950000D03*
%TO.P,J_spacer_activation_interface_cell_floor_board_top,93*%
X3650000Y-12350000D03*
%TO.P,J_spacer_activation_interface_cell_floor_board_top,94*%
X3650000Y-10750000D03*
%TO.P,J_spacer_activation_interface_cell_floor_board_top,95*%
X3650000Y11650000D03*
%TO.P,J_spacer_activation_interface_cell_floor_board_top,96*%
X3650000Y13250000D03*
%TO.P,J_spacer_activation_interface_cell_floor_board_top,97*%
X3650000Y14850000D03*
%TO.P,J_spacer_activation_interface_cell_floor_board_top,98*%
X5250000Y-13950000D03*
%TO.P,J_spacer_activation_interface_cell_floor_board_top,99*%
X5250000Y-12350000D03*
%TO.P,J_spacer_activation_interface_cell_floor_board_top,100*%
X5250000Y-10750000D03*
%TO.P,J_spacer_activation_interface_cell_floor_board_top,101*%
X5250000Y-9150000D03*
%TO.P,J_spacer_activation_interface_cell_floor_board_top,102*%
X5250000Y8450000D03*
%TO.P,J_spacer_activation_interface_cell_floor_board_top,103*%
X5250000Y10050000D03*
%TO.P,J_spacer_activation_interface_cell_floor_board_top,104*%
X5250000Y11650000D03*
%TO.P,J_spacer_activation_interface_cell_floor_board_top,105*%
X5250000Y13250000D03*
%TO.P,J_spacer_activation_interface_cell_floor_board_top,106*%
X6850000Y-12350000D03*
%TO.P,J_spacer_activation_interface_cell_floor_board_top,107*%
X6850000Y-10750000D03*
%TO.P,J_spacer_activation_interface_cell_floor_board_top,108*%
X6850000Y-9150000D03*
%TO.P,J_spacer_activation_interface_cell_floor_board_top,109*%
X6850000Y450000D03*
%TO.P,J_spacer_activation_interface_cell_floor_board_top,110*%
X6850000Y2050000D03*
%TO.P,J_spacer_activation_interface_cell_floor_board_top,111*%
X6850000Y3650000D03*
%TO.P,J_spacer_activation_interface_cell_floor_board_top,112*%
X6850000Y13250000D03*
%TO.P,J_spacer_activation_interface_cell_floor_board_top,113*%
X8450000Y-12350000D03*
%TO.P,J_spacer_activation_interface_cell_floor_board_top,114*%
X8450000Y-10750000D03*
%TO.P,J_spacer_activation_interface_cell_floor_board_top,115*%
X8450000Y-9150000D03*
%TO.P,J_spacer_activation_interface_cell_floor_board_top,116*%
X8450000Y450000D03*
%TO.P,J_spacer_activation_interface_cell_floor_board_top,117*%
X8450000Y2050000D03*
%TO.P,J_spacer_activation_interface_cell_floor_board_top,118*%
X8450000Y3650000D03*
%TO.P,J_spacer_activation_interface_cell_floor_board_top,119*%
X8450000Y5250000D03*
%TO.P,J_spacer_activation_interface_cell_floor_board_top,120*%
X10050000Y-10750000D03*
%TO.P,J_spacer_activation_interface_cell_floor_board_top,121*%
X10050000Y-9150000D03*
%TO.P,J_spacer_activation_interface_cell_floor_board_top,122*%
X10050000Y450000D03*
%TO.P,J_spacer_activation_interface_cell_floor_board_top,123*%
X10050000Y2050000D03*
%TO.P,J_spacer_activation_interface_cell_floor_board_top,124*%
X10050000Y3650000D03*
%TO.P,J_spacer_activation_interface_cell_floor_board_top,125*%
X10050000Y5250000D03*
%TO.P,J_spacer_activation_interface_cell_floor_board_top,126*%
X11650000Y-9150000D03*
%TO.P,J_spacer_activation_interface_cell_floor_board_top,127*%
X11650000Y-7550000D03*
%TO.P,J_spacer_activation_interface_cell_floor_board_top,128*%
X11650000Y-5950000D03*
%TO.P,J_spacer_activation_interface_cell_floor_board_top,129*%
X11650000Y-4350000D03*
%TO.P,J_spacer_activation_interface_cell_floor_board_top,130*%
X11650000Y-2750000D03*
%TO.P,J_spacer_activation_interface_cell_floor_board_top,131*%
X11650000Y-1150000D03*
%TO.P,J_spacer_activation_interface_cell_floor_board_top,132*%
X11650000Y450000D03*
%TO.P,J_spacer_activation_interface_cell_floor_board_top,133*%
X11650000Y2050000D03*
%TO.P,J_spacer_activation_interface_cell_floor_board_top,134*%
X11650000Y3650000D03*
%TO.P,J_spacer_activation_interface_cell_floor_board_top,135*%
X11650000Y5250000D03*
%TO.P,J_spacer_activation_interface_cell_floor_board_top,136*%
X13250000Y-7550000D03*
%TO.P,J_spacer_activation_interface_cell_floor_board_top,137*%
X13250000Y-5950000D03*
%TO.P,J_spacer_activation_interface_cell_floor_board_top,138*%
X13250000Y-4350000D03*
%TO.P,J_spacer_activation_interface_cell_floor_board_top,139*%
X13250000Y-2750000D03*
%TO.P,J_spacer_activation_interface_cell_floor_board_top,140*%
X13250000Y-1150000D03*
%TO.P,J_spacer_activation_interface_cell_floor_board_top,141*%
X13250000Y450000D03*
%TO.P,J_spacer_activation_interface_cell_floor_board_top,142*%
X13250000Y2050000D03*
%TO.P,J_spacer_activation_interface_cell_floor_board_top,143*%
X13250000Y3650000D03*
%TO.P,J_spacer_activation_interface_cell_floor_board_top,144*%
X13250000Y5250000D03*
%TO.P,J_spacer_activation_interface_cell_floor_board_top,145*%
X13250000Y6850000D03*
%TO.P,J_spacer_activation_interface_cell_floor_board_top,146*%
X14850000Y-2750000D03*
%TO.P,J_spacer_activation_interface_cell_floor_board_top,147*%
X14850000Y-1150000D03*
%TO.P,J_spacer_activation_interface_cell_floor_board_top,148*%
X14850000Y450000D03*
%TO.P,J_spacer_activation_interface_cell_floor_board_top,149*%
X14850000Y2050000D03*
%TO.P,J_spacer_activation_interface_cell_floor_board_top,150*%
X14850000Y3650000D03*
%TD*%
D12*
%TO.N,3V3*%
X-13950000Y-5950000D03*
%TO.N,3V3_AON*%
X-13950000Y-4350000D03*
%TO.N,ACTIVATE_CONFIRM*%
X-13950000Y-2750000D03*
%TO.N,ACTIVATE_SET*%
X-13950000Y-1150000D03*
%TO.N,BAT_PROT*%
X-13950000Y450000D03*
%TO.N,BAT_RAW*%
X-13950000Y2050000D03*
%TO.N,BOOT0*%
X-13950000Y3650000D03*
%TO.N,COMP_5V*%
X-13950000Y5250000D03*
%TO.N,COMP_SWDCLK*%
X-12350000Y-5950000D03*
%TO.N,COMP_SWDIO*%
X-12350000Y-4350000D03*
%TO.N,EXT_CAN_RX*%
X-12350000Y-2750000D03*
%TO.N,EXT_CAN_TX*%
X-12350000Y-1150000D03*
%TO.N,FIN1_AOUT1*%
X-12350000Y450000D03*
%TO.N,FIN2_AOUT1*%
X-12350000Y2050000D03*
%TO.N,FIN3_AOUT1*%
X-12350000Y3650000D03*
%TO.N,FIN4_AOUT1*%
X-12350000Y5250000D03*
%TO.N,FIN_HALL*%
X-12350000Y6850000D03*
%TO.N,FIN_VREF*%
X-12350000Y8450000D03*
%TO.N,FLEX_GND*%
X-10750000Y-5950000D03*
%TO.N,GPIO_EXT_0*%
X-10750000Y-4350000D03*
%TO.N,GPIO_EXT_1*%
X-10750000Y-2750000D03*
%TO.N,GPIO_EXT_2*%
X-10750000Y-1150000D03*
%TO.N,GPIO_EXT_3*%
X-10750000Y450000D03*
%TO.N,H3LIS_INT1*%
X-10750000Y2050000D03*
%TO.N,I2C3_SCL*%
X-10750000Y3650000D03*
%TO.N,I2C3_SDA*%
X-10750000Y5250000D03*
%TO.N,JUMP_WAKE*%
X-10750000Y6850000D03*
%TO.N,NRST*%
X-10750000Y8450000D03*
%TO.N,SWO*%
X-10750000Y10050000D03*
%TO.N,SYS_I2C_SCL*%
X-9150000Y-5950000D03*
%TO.N,SYS_I2C_SDA*%
X-9150000Y-4350000D03*
%TO.N,SYS_SPI_CS_FIN*%
X-9150000Y-2750000D03*
%TO.N,SYS_SPI_MISO*%
X-9150000Y-1150000D03*
%TO.N,SYS_SPI_MOSI*%
X-9150000Y450000D03*
%TO.N,SYS_SPI_SCLK*%
X-9150000Y2050000D03*
%TO.N,3V3*%
X-9150000Y3650000D03*
%TO.N,3V3_AON*%
X-9150000Y5250000D03*
%TO.N,BAT_PROT*%
X-9150000Y6850000D03*
%TO.N,BAT_RAW*%
X-9150000Y8450000D03*
%TO.N,COMP_5V*%
X-9150000Y10050000D03*
%TO.N,3V3*%
X-9150000Y11650000D03*
%TO.N,FLEX_GND*%
X-7550000Y-4350000D03*
X-7550000Y-2750000D03*
X-7550000Y-1150000D03*
X-7550000Y450000D03*
X-7550000Y2050000D03*
X-7550000Y3650000D03*
X-7550000Y5250000D03*
X-7550000Y6850000D03*
X-7550000Y8450000D03*
X-7550000Y10050000D03*
X-7550000Y11650000D03*
X-7550000Y13250000D03*
X-5950000Y-13950000D03*
X-5950000Y-12350000D03*
X-5950000Y-10750000D03*
X-5950000Y-9150000D03*
X-5950000Y-2750000D03*
X-5950000Y-1150000D03*
X-5950000Y450000D03*
X-5950000Y11650000D03*
X-5950000Y13250000D03*
X-4350000Y-13950000D03*
X-4350000Y-12350000D03*
X-4350000Y-10750000D03*
X-4350000Y11650000D03*
X-4350000Y13250000D03*
X-2750000Y-13950000D03*
X-2750000Y-12350000D03*
X-2750000Y-10750000D03*
X-2750000Y11650000D03*
X-2750000Y13250000D03*
X-2750000Y14850000D03*
X-1150000Y-13950000D03*
X-1150000Y-12350000D03*
X-1150000Y-10750000D03*
X-1150000Y11650000D03*
X-1150000Y13250000D03*
X-1150000Y14850000D03*
X450000Y-13950000D03*
X450000Y-12350000D03*
X450000Y-10750000D03*
X450000Y11650000D03*
X450000Y13250000D03*
X450000Y14850000D03*
X2050000Y-13950000D03*
X2050000Y-12350000D03*
X2050000Y-10750000D03*
X2050000Y11650000D03*
X2050000Y13250000D03*
X2050000Y14850000D03*
X3650000Y-13950000D03*
X3650000Y-12350000D03*
X3650000Y-10750000D03*
X3650000Y11650000D03*
X3650000Y13250000D03*
X3650000Y14850000D03*
X5250000Y-13950000D03*
X5250000Y-12350000D03*
X5250000Y-10750000D03*
X5250000Y-9150000D03*
X5250000Y8450000D03*
X5250000Y10050000D03*
X5250000Y11650000D03*
X5250000Y13250000D03*
X6850000Y-12350000D03*
X6850000Y-10750000D03*
X6850000Y-9150000D03*
X6850000Y450000D03*
X6850000Y2050000D03*
X6850000Y3650000D03*
X6850000Y13250000D03*
X8450000Y-12350000D03*
X8450000Y-10750000D03*
X8450000Y-9150000D03*
X8450000Y450000D03*
X8450000Y2050000D03*
X8450000Y3650000D03*
X8450000Y5250000D03*
X10050000Y-10750000D03*
X10050000Y-9150000D03*
X10050000Y450000D03*
X10050000Y2050000D03*
X10050000Y3650000D03*
X10050000Y5250000D03*
X11650000Y-9150000D03*
X11650000Y-7550000D03*
X11650000Y-5950000D03*
X11650000Y-4350000D03*
X11650000Y-2750000D03*
X11650000Y-1150000D03*
X11650000Y450000D03*
X11650000Y2050000D03*
X11650000Y3650000D03*
X11650000Y5250000D03*
X13250000Y-7550000D03*
X13250000Y-5950000D03*
X13250000Y-4350000D03*
X13250000Y-2750000D03*
X13250000Y-1150000D03*
X13250000Y450000D03*
X13250000Y2050000D03*
X13250000Y3650000D03*
X13250000Y5250000D03*
X13250000Y6850000D03*
X14850000Y-2750000D03*
X14850000Y-1150000D03*
X14850000Y450000D03*
X14850000Y2050000D03*
X14850000Y3650000D03*
%TD*%
M02*
