%TF.GenerationSoftware,KiCad,Pcbnew,10.0.0*%
%TF.CreationDate,2026-09-03T12:15:51+02:00*%
%TF.ProjectId,spacer_activation_interface_cell_floor_board,73706163-6572-45f6-9163-746976617469,rev?*%
%TF.SameCoordinates,Original*%
%TF.FileFunction,Paste,Bot*%
%TF.FilePolarity,Positive*%
%FSLAX46Y46*%
G04 Gerber Fmt 4.6, Leading zero omitted, Abs format (unit mm)*
G04 Created by KiCad (PCBNEW 10.0.0) date 2026-09-03 12:15:51*
%MOMM*%
%LPD*%
G01*
G04 APERTURE LIST*
%ADD10R,0.900000X0.900000*%
G04 APERTURE END LIST*
D10*
%TO.C,P_spacer_activation_interface_cell_floor_board_bot*%
X-13950000Y-5950000D03*
X-13950000Y-4350000D03*
X-13950000Y-2750000D03*
X-13950000Y-1150000D03*
X-13950000Y450000D03*
X-13950000Y2050000D03*
X-13950000Y3650000D03*
X-13950000Y5250000D03*
X-12350000Y-5950000D03*
X-12350000Y-4350000D03*
X-12350000Y-2750000D03*
X-12350000Y-1150000D03*
X-12350000Y450000D03*
X-12350000Y2050000D03*
X-12350000Y3650000D03*
X-12350000Y5250000D03*
X-12350000Y6850000D03*
X-12350000Y8450000D03*
X-10750000Y-5950000D03*
X-10750000Y-4350000D03*
X-10750000Y-2750000D03*
X-10750000Y-1150000D03*
X-10750000Y450000D03*
X-10750000Y2050000D03*
X-10750000Y3650000D03*
X-10750000Y5250000D03*
X-10750000Y6850000D03*
X-10750000Y8450000D03*
X-10750000Y10050000D03*
X-9150000Y-5950000D03*
X-9150000Y-4350000D03*
X-9150000Y-2750000D03*
X-9150000Y-1150000D03*
X-9150000Y450000D03*
X-9150000Y2050000D03*
X-9150000Y3650000D03*
X-9150000Y5250000D03*
X-9150000Y6850000D03*
X-9150000Y8450000D03*
X-9150000Y10050000D03*
X-9150000Y11650000D03*
X-7550000Y-4350000D03*
X-7550000Y-2750000D03*
X-7550000Y-1150000D03*
X-7550000Y450000D03*
X-7550000Y2050000D03*
X-7550000Y3650000D03*
X-7550000Y5250000D03*
X-7550000Y6850000D03*
X-7550000Y8450000D03*
X-7550000Y10050000D03*
X-7550000Y11650000D03*
X-7550000Y13250000D03*
X-5950000Y-13950000D03*
X-5950000Y-12350000D03*
X-5950000Y-10750000D03*
X-5950000Y-9150000D03*
X-5950000Y-2750000D03*
X-5950000Y-1150000D03*
X-5950000Y450000D03*
X-5950000Y11650000D03*
X-5950000Y13250000D03*
X-4350000Y-13950000D03*
X-4350000Y-12350000D03*
X-4350000Y-10750000D03*
X-4350000Y11650000D03*
X-4350000Y13250000D03*
X-2750000Y-13950000D03*
X-2750000Y-12350000D03*
X-2750000Y-10750000D03*
X-2750000Y11650000D03*
X-2750000Y13250000D03*
X-2750000Y14850000D03*
X-1150000Y-13950000D03*
X-1150000Y-12350000D03*
X-1150000Y-10750000D03*
X-1150000Y11650000D03*
X-1150000Y13250000D03*
X-1150000Y14850000D03*
X450000Y-13950000D03*
X450000Y-12350000D03*
X450000Y-10750000D03*
X450000Y11650000D03*
X450000Y13250000D03*
X450000Y14850000D03*
X2050000Y-13950000D03*
X2050000Y-12350000D03*
X2050000Y-10750000D03*
X2050000Y11650000D03*
X2050000Y13250000D03*
X2050000Y14850000D03*
X3650000Y-13950000D03*
X3650000Y-12350000D03*
X3650000Y-10750000D03*
X3650000Y11650000D03*
X3650000Y13250000D03*
X3650000Y14850000D03*
X5250000Y-13950000D03*
X5250000Y-12350000D03*
X5250000Y-10750000D03*
X5250000Y-9150000D03*
X5250000Y8450000D03*
X5250000Y10050000D03*
X5250000Y11650000D03*
X5250000Y13250000D03*
X6850000Y-12350000D03*
X6850000Y-10750000D03*
X6850000Y-9150000D03*
X6850000Y450000D03*
X6850000Y2050000D03*
X6850000Y3650000D03*
X6850000Y13250000D03*
X8450000Y-12350000D03*
X8450000Y-10750000D03*
X8450000Y-9150000D03*
X8450000Y450000D03*
X8450000Y2050000D03*
X8450000Y3650000D03*
X8450000Y5250000D03*
X10050000Y-10750000D03*
X10050000Y-9150000D03*
X10050000Y450000D03*
X10050000Y2050000D03*
X10050000Y3650000D03*
X10050000Y5250000D03*
X11650000Y-9150000D03*
X11650000Y-7550000D03*
X11650000Y-5950000D03*
X11650000Y-4350000D03*
X11650000Y-2750000D03*
X11650000Y-1150000D03*
X11650000Y450000D03*
X11650000Y2050000D03*
X11650000Y3650000D03*
X11650000Y5250000D03*
X13250000Y-7550000D03*
X13250000Y-5950000D03*
X13250000Y-4350000D03*
X13250000Y-2750000D03*
X13250000Y-1150000D03*
X13250000Y450000D03*
X13250000Y2050000D03*
X13250000Y3650000D03*
X13250000Y5250000D03*
X13250000Y6850000D03*
X14850000Y-2750000D03*
X14850000Y-1150000D03*
X14850000Y450000D03*
X14850000Y2050000D03*
X14850000Y3650000D03*
%TD*%
M02*
