%TF.GenerationSoftware,KiCad,Pcbnew,10.0.0*%
%TF.CreationDate,2026-09-10T18:17:51+02:00*%
%TF.ProjectId,aft_end_board,6166745f-656e-4645-9f62-6f6172642e6b,rev?*%
%TF.SameCoordinates,Original*%
%TF.FileFunction,Legend,Bot*%
%TF.FilePolarity,Positive*%
%FSLAX46Y46*%
G04 Gerber Fmt 4.6, Leading zero omitted, Abs format (unit mm)*
G04 Created by KiCad (PCBNEW 10.0.0) date 2026-09-10 18:17:51*
%MOMM*%
%LPD*%
G01*
G04 APERTURE LIST*
%ADD10C,0.120000*%
%ADD11C,0.075000*%
G04 APERTURE END LIST*
D10*
X-4413000Y9660000D02*
X-3093000Y9660000D01*
X-2613000Y9660000D02*
X-1293000Y9660000D01*
X-813000Y9660000D02*
X507000Y9660000D01*
X987000Y9660000D02*
X2307000Y9660000D01*
X2787000Y9660000D02*
X4107000Y9660000D01*
X4190000Y9660000D02*
X4190000Y10980000D01*
X4190000Y11460000D02*
X4190000Y11960000D01*
X4190000Y11960000D02*
X2870000Y11960000D01*
X2390000Y11960000D02*
X1070000Y11960000D01*
X590000Y11960000D02*
X-730000Y11960000D01*
X-1210000Y11960000D02*
X-2530000Y11960000D01*
X-3010000Y11960000D02*
X-4330000Y11960000D01*
X-4413000Y11960000D02*
X-4413000Y10640000D01*
X-4413000Y10160000D02*
X-4413000Y9660000D01*
D11*
X349213Y12102150D02*
X284928Y12080721D01*
X284928Y12080721D02*
X177785Y12080721D01*
X177785Y12080721D02*
X134928Y12102150D01*
X134928Y12102150D02*
X113499Y12123578D01*
X113499Y12123578D02*
X92070Y12166435D01*
X92070Y12166435D02*
X92070Y12209292D01*
X92070Y12209292D02*
X113499Y12252150D01*
X113499Y12252150D02*
X134928Y12273578D01*
X134928Y12273578D02*
X177785Y12295007D01*
X177785Y12295007D02*
X263499Y12316435D01*
X263499Y12316435D02*
X306356Y12337864D01*
X306356Y12337864D02*
X327785Y12359292D01*
X327785Y12359292D02*
X349213Y12402150D01*
X349213Y12402150D02*
X349213Y12445007D01*
X349213Y12445007D02*
X327785Y12487864D01*
X327785Y12487864D02*
X306356Y12509292D01*
X306356Y12509292D02*
X263499Y12530721D01*
X263499Y12530721D02*
X156356Y12530721D01*
X156356Y12530721D02*
X92070Y12509292D01*
X-100785Y12080721D02*
X-100785Y12530721D01*
X-100785Y12530721D02*
X-272214Y12530721D01*
X-272214Y12530721D02*
X-315071Y12509292D01*
X-315071Y12509292D02*
X-336500Y12487864D01*
X-336500Y12487864D02*
X-357928Y12445007D01*
X-357928Y12445007D02*
X-357928Y12380721D01*
X-357928Y12380721D02*
X-336500Y12337864D01*
X-336500Y12337864D02*
X-315071Y12316435D01*
X-315071Y12316435D02*
X-272214Y12295007D01*
X-272214Y12295007D02*
X-100785Y12295007D01*
X-550785Y12080721D02*
X-550785Y12530721D01*
D10*
X307000Y6340000D02*
X1627000Y6340000D01*
X2107000Y6340000D02*
X3427000Y6340000D01*
X3907000Y6340000D02*
X5227000Y6340000D01*
X5707000Y6340000D02*
X7027000Y6340000D01*
X7507000Y6340000D02*
X8827000Y6340000D01*
X8910000Y6340000D02*
X8910000Y7660000D01*
X8910000Y8140000D02*
X8910000Y8640000D01*
X8910000Y8640000D02*
X7590000Y8640000D01*
X7110000Y8640000D02*
X5790000Y8640000D01*
X5310000Y8640000D02*
X3990000Y8640000D01*
X3510000Y8640000D02*
X2190000Y8640000D01*
X1710000Y8640000D02*
X390000Y8640000D01*
X307000Y8640000D02*
X307000Y7320000D01*
X307000Y6840000D02*
X307000Y6340000D01*
D11*
X5272785Y8996435D02*
X5422785Y8996435D01*
X5422785Y8760721D02*
X5422785Y9210721D01*
X5422785Y9210721D02*
X5208499Y9210721D01*
X5037071Y8760721D02*
X5037071Y9210721D01*
X4822785Y8760721D02*
X4822785Y9210721D01*
X4822785Y9210721D02*
X4565642Y8760721D01*
X4565642Y8760721D02*
X4565642Y9210721D01*
X3772784Y8760721D02*
X4029927Y8760721D01*
X3901356Y8760721D02*
X3901356Y9210721D01*
X3901356Y9210721D02*
X3944213Y9146435D01*
X3944213Y9146435D02*
X3987070Y9103578D01*
X3987070Y9103578D02*
X4029927Y9082150D01*
D10*
X-9063000Y6340000D02*
X-7743000Y6340000D01*
X-7263000Y6340000D02*
X-5943000Y6340000D01*
X-5463000Y6340000D02*
X-4143000Y6340000D01*
X-3663000Y6340000D02*
X-2343000Y6340000D01*
X-1863000Y6340000D02*
X-543000Y6340000D01*
X-460000Y6340000D02*
X-460000Y7660000D01*
X-460000Y8140000D02*
X-460000Y8640000D01*
X-460000Y8640000D02*
X-1780000Y8640000D01*
X-2260000Y8640000D02*
X-3580000Y8640000D01*
X-4060000Y8640000D02*
X-5380000Y8640000D01*
X-5860000Y8640000D02*
X-7180000Y8640000D01*
X-7660000Y8640000D02*
X-8980000Y8640000D01*
X-9063000Y8640000D02*
X-9063000Y7320000D01*
X-9063000Y6840000D02*
X-9063000Y6340000D01*
D11*
X-4097214Y8996435D02*
X-3947214Y8996435D01*
X-3947214Y8760721D02*
X-3947214Y9210721D01*
X-3947214Y9210721D02*
X-4161500Y9210721D01*
X-4332928Y8760721D02*
X-4332928Y9210721D01*
X-4547214Y8760721D02*
X-4547214Y9210721D01*
X-4547214Y9210721D02*
X-4804357Y8760721D01*
X-4804357Y8760721D02*
X-4804357Y9210721D01*
X-5318643Y9210721D02*
X-5597215Y9210721D01*
X-5597215Y9210721D02*
X-5447215Y9039292D01*
X-5447215Y9039292D02*
X-5511500Y9039292D01*
X-5511500Y9039292D02*
X-5554358Y9017864D01*
X-5554358Y9017864D02*
X-5575786Y8996435D01*
X-5575786Y8996435D02*
X-5597215Y8953578D01*
X-5597215Y8953578D02*
X-5597215Y8846435D01*
X-5597215Y8846435D02*
X-5575786Y8803578D01*
X-5575786Y8803578D02*
X-5554358Y8782150D01*
X-5554358Y8782150D02*
X-5511500Y8760721D01*
X-5511500Y8760721D02*
X-5382929Y8760721D01*
X-5382929Y8760721D02*
X-5340072Y8782150D01*
X-5340072Y8782150D02*
X-5318643Y8803578D01*
D10*
X307000Y3150000D02*
X1627000Y3150000D01*
X2107000Y3150000D02*
X3427000Y3150000D01*
X3907000Y3150000D02*
X5227000Y3150000D01*
X5707000Y3150000D02*
X7027000Y3150000D01*
X7507000Y3150000D02*
X8827000Y3150000D01*
X8910000Y3150000D02*
X8910000Y4470000D01*
X8910000Y4950000D02*
X8910000Y5450000D01*
X8910000Y5450000D02*
X7590000Y5450000D01*
X7110000Y5450000D02*
X5790000Y5450000D01*
X5310000Y5450000D02*
X3990000Y5450000D01*
X3510000Y5450000D02*
X2190000Y5450000D01*
X1710000Y5450000D02*
X390000Y5450000D01*
X307000Y5450000D02*
X307000Y4130000D01*
X307000Y3650000D02*
X307000Y3150000D01*
D11*
X5272785Y5806435D02*
X5422785Y5806435D01*
X5422785Y5570721D02*
X5422785Y6020721D01*
X5422785Y6020721D02*
X5208499Y6020721D01*
X5037071Y5570721D02*
X5037071Y6020721D01*
X4822785Y5570721D02*
X4822785Y6020721D01*
X4822785Y6020721D02*
X4565642Y5570721D01*
X4565642Y5570721D02*
X4565642Y6020721D01*
X4029927Y5977864D02*
X4008499Y5999292D01*
X4008499Y5999292D02*
X3965642Y6020721D01*
X3965642Y6020721D02*
X3858499Y6020721D01*
X3858499Y6020721D02*
X3815642Y5999292D01*
X3815642Y5999292D02*
X3794213Y5977864D01*
X3794213Y5977864D02*
X3772784Y5935007D01*
X3772784Y5935007D02*
X3772784Y5892150D01*
X3772784Y5892150D02*
X3794213Y5827864D01*
X3794213Y5827864D02*
X4051356Y5570721D01*
X4051356Y5570721D02*
X3772784Y5570721D01*
D10*
X-9063000Y3150000D02*
X-7743000Y3150000D01*
X-7263000Y3150000D02*
X-5943000Y3150000D01*
X-5463000Y3150000D02*
X-4143000Y3150000D01*
X-3663000Y3150000D02*
X-2343000Y3150000D01*
X-1863000Y3150000D02*
X-543000Y3150000D01*
X-460000Y3150000D02*
X-460000Y4470000D01*
X-460000Y4950000D02*
X-460000Y5450000D01*
X-460000Y5450000D02*
X-1780000Y5450000D01*
X-2260000Y5450000D02*
X-3580000Y5450000D01*
X-4060000Y5450000D02*
X-5380000Y5450000D01*
X-5860000Y5450000D02*
X-7180000Y5450000D01*
X-7660000Y5450000D02*
X-8980000Y5450000D01*
X-9063000Y5450000D02*
X-9063000Y4130000D01*
X-9063000Y3650000D02*
X-9063000Y3150000D01*
D11*
X-4097214Y5806435D02*
X-3947214Y5806435D01*
X-3947214Y5570721D02*
X-3947214Y6020721D01*
X-3947214Y6020721D02*
X-4161500Y6020721D01*
X-4332928Y5570721D02*
X-4332928Y6020721D01*
X-4547214Y5570721D02*
X-4547214Y6020721D01*
X-4547214Y6020721D02*
X-4804357Y5570721D01*
X-4804357Y5570721D02*
X-4804357Y6020721D01*
X-5554358Y5870721D02*
X-5554358Y5570721D01*
X-5447215Y6042150D02*
X-5340072Y5720721D01*
X-5340072Y5720721D02*
X-5618643Y5720721D01*
D10*
X9870000Y-3251000D02*
X11190000Y-3251000D01*
X11670000Y-3251000D02*
X12170000Y-3251000D01*
X12170000Y-3251000D02*
X12170000Y-1931000D01*
X12170000Y-1451000D02*
X12170000Y-131000D01*
X12170000Y349000D02*
X12170000Y1150000D01*
X12170000Y1150000D02*
X10850000Y1150000D01*
X10370000Y1150000D02*
X9870000Y1150000D01*
X9870000Y1150000D02*
X9870000Y-170000D01*
X9870000Y-650000D02*
X9870000Y-1970000D01*
X9870000Y-2450000D02*
X9870000Y-3251000D01*
D11*
X11309285Y1313578D02*
X11330713Y1292150D01*
X11330713Y1292150D02*
X11394999Y1270721D01*
X11394999Y1270721D02*
X11437856Y1270721D01*
X11437856Y1270721D02*
X11502142Y1292150D01*
X11502142Y1292150D02*
X11544999Y1335007D01*
X11544999Y1335007D02*
X11566428Y1377864D01*
X11566428Y1377864D02*
X11587856Y1463578D01*
X11587856Y1463578D02*
X11587856Y1527864D01*
X11587856Y1527864D02*
X11566428Y1613578D01*
X11566428Y1613578D02*
X11544999Y1656435D01*
X11544999Y1656435D02*
X11502142Y1699292D01*
X11502142Y1699292D02*
X11437856Y1720721D01*
X11437856Y1720721D02*
X11394999Y1720721D01*
X11394999Y1720721D02*
X11330713Y1699292D01*
X11330713Y1699292D02*
X11309285Y1677864D01*
X11137856Y1399292D02*
X10923571Y1399292D01*
X11180713Y1270721D02*
X11030713Y1720721D01*
X11030713Y1720721D02*
X10880713Y1270721D01*
X10730714Y1270721D02*
X10730714Y1720721D01*
X10730714Y1720721D02*
X10473571Y1270721D01*
X10473571Y1270721D02*
X10473571Y1720721D01*
D10*
X4059000Y-1150000D02*
X5379000Y-1150000D01*
X5859000Y-1150000D02*
X7179000Y-1150000D01*
X7659000Y-1150000D02*
X8460000Y-1150000D01*
X8460000Y-1150000D02*
X8460000Y170000D01*
X8460000Y650000D02*
X8460000Y1150000D01*
X8460000Y1150000D02*
X7140000Y1150000D01*
X6660000Y1150000D02*
X5340000Y1150000D01*
X4860000Y1150000D02*
X4059000Y1150000D01*
X4059000Y1150000D02*
X4059000Y-170000D01*
X4059000Y-650000D02*
X4059000Y-1150000D01*
D11*
X6591642Y1506435D02*
X6527356Y1485007D01*
X6527356Y1485007D02*
X6505927Y1463578D01*
X6505927Y1463578D02*
X6484499Y1420721D01*
X6484499Y1420721D02*
X6484499Y1356435D01*
X6484499Y1356435D02*
X6505927Y1313578D01*
X6505927Y1313578D02*
X6527356Y1292150D01*
X6527356Y1292150D02*
X6570213Y1270721D01*
X6570213Y1270721D02*
X6741642Y1270721D01*
X6741642Y1270721D02*
X6741642Y1720721D01*
X6741642Y1720721D02*
X6591642Y1720721D01*
X6591642Y1720721D02*
X6548785Y1699292D01*
X6548785Y1699292D02*
X6527356Y1677864D01*
X6527356Y1677864D02*
X6505927Y1635007D01*
X6505927Y1635007D02*
X6505927Y1592150D01*
X6505927Y1592150D02*
X6527356Y1549292D01*
X6527356Y1549292D02*
X6548785Y1527864D01*
X6548785Y1527864D02*
X6591642Y1506435D01*
X6591642Y1506435D02*
X6741642Y1506435D01*
X6313070Y1399292D02*
X6098785Y1399292D01*
X6355927Y1270721D02*
X6205927Y1720721D01*
X6205927Y1720721D02*
X6055927Y1270721D01*
X5970213Y1720721D02*
X5713071Y1720721D01*
X5841642Y1270721D02*
X5841642Y1720721D01*
X471428Y1506435D02*
X621428Y1506435D01*
X621428Y1270721D02*
X621428Y1720721D01*
X621428Y1720721D02*
X407142Y1720721D01*
X235714Y1270721D02*
X235714Y1720721D01*
X-235714Y1270721D02*
X-85714Y1485007D01*
X21428Y1270721D02*
X21428Y1720721D01*
X21428Y1720721D02*
X-150000Y1720721D01*
X-150000Y1720721D02*
X-192857Y1699292D01*
X-192857Y1699292D02*
X-214286Y1677864D01*
X-214286Y1677864D02*
X-235714Y1635007D01*
X-235714Y1635007D02*
X-235714Y1570721D01*
X-235714Y1570721D02*
X-214286Y1527864D01*
X-214286Y1527864D02*
X-192857Y1506435D01*
X-192857Y1506435D02*
X-150000Y1485007D01*
X-150000Y1485007D02*
X21428Y1485007D01*
X-428571Y1506435D02*
X-578571Y1506435D01*
X-642857Y1270721D02*
X-428571Y1270721D01*
X-428571Y1270721D02*
X-428571Y1720721D01*
X-428571Y1720721D02*
X-642857Y1720721D01*
X-2460714Y1699292D02*
X-2417857Y1720721D01*
X-2417857Y1720721D02*
X-2353571Y1720721D01*
X-2353571Y1720721D02*
X-2289285Y1699292D01*
X-2289285Y1699292D02*
X-2246428Y1656435D01*
X-2246428Y1656435D02*
X-2224999Y1613578D01*
X-2224999Y1613578D02*
X-2203571Y1527864D01*
X-2203571Y1527864D02*
X-2203571Y1463578D01*
X-2203571Y1463578D02*
X-2224999Y1377864D01*
X-2224999Y1377864D02*
X-2246428Y1335007D01*
X-2246428Y1335007D02*
X-2289285Y1292150D01*
X-2289285Y1292150D02*
X-2353571Y1270721D01*
X-2353571Y1270721D02*
X-2396428Y1270721D01*
X-2396428Y1270721D02*
X-2460714Y1292150D01*
X-2460714Y1292150D02*
X-2482142Y1313578D01*
X-2482142Y1313578D02*
X-2482142Y1463578D01*
X-2482142Y1463578D02*
X-2396428Y1463578D01*
X-2932142Y1270721D02*
X-2782142Y1485007D01*
X-2674999Y1270721D02*
X-2674999Y1720721D01*
X-2674999Y1720721D02*
X-2846428Y1720721D01*
X-2846428Y1720721D02*
X-2889285Y1699292D01*
X-2889285Y1699292D02*
X-2910714Y1677864D01*
X-2910714Y1677864D02*
X-2932142Y1635007D01*
X-2932142Y1635007D02*
X-2932142Y1570721D01*
X-2932142Y1570721D02*
X-2910714Y1527864D01*
X-2910714Y1527864D02*
X-2889285Y1506435D01*
X-2889285Y1506435D02*
X-2846428Y1485007D01*
X-2846428Y1485007D02*
X-2674999Y1485007D01*
X-3210714Y1720721D02*
X-3296428Y1720721D01*
X-3296428Y1720721D02*
X-3339285Y1699292D01*
X-3339285Y1699292D02*
X-3382142Y1656435D01*
X-3382142Y1656435D02*
X-3403571Y1570721D01*
X-3403571Y1570721D02*
X-3403571Y1420721D01*
X-3403571Y1420721D02*
X-3382142Y1335007D01*
X-3382142Y1335007D02*
X-3339285Y1292150D01*
X-3339285Y1292150D02*
X-3296428Y1270721D01*
X-3296428Y1270721D02*
X-3210714Y1270721D01*
X-3210714Y1270721D02*
X-3167857Y1292150D01*
X-3167857Y1292150D02*
X-3124999Y1335007D01*
X-3124999Y1335007D02*
X-3103571Y1420721D01*
X-3103571Y1420721D02*
X-3103571Y1570721D01*
X-3103571Y1570721D02*
X-3124999Y1656435D01*
X-3124999Y1656435D02*
X-3167857Y1699292D01*
X-3167857Y1699292D02*
X-3210714Y1720721D01*
X-3596428Y1720721D02*
X-3596428Y1356435D01*
X-3596428Y1356435D02*
X-3617857Y1313578D01*
X-3617857Y1313578D02*
X-3639286Y1292150D01*
X-3639286Y1292150D02*
X-3682143Y1270721D01*
X-3682143Y1270721D02*
X-3767857Y1270721D01*
X-3767857Y1270721D02*
X-3810714Y1292150D01*
X-3810714Y1292150D02*
X-3832143Y1313578D01*
X-3832143Y1313578D02*
X-3853571Y1356435D01*
X-3853571Y1356435D02*
X-3853571Y1720721D01*
X-4067857Y1270721D02*
X-4067857Y1720721D01*
X-4067857Y1720721D02*
X-4325000Y1270721D01*
X-4325000Y1270721D02*
X-4325000Y1720721D01*
X-4539286Y1270721D02*
X-4539286Y1720721D01*
X-4539286Y1720721D02*
X-4646429Y1720721D01*
X-4646429Y1720721D02*
X-4710715Y1699292D01*
X-4710715Y1699292D02*
X-4753572Y1656435D01*
X-4753572Y1656435D02*
X-4775001Y1613578D01*
X-4775001Y1613578D02*
X-4796429Y1527864D01*
X-4796429Y1527864D02*
X-4796429Y1463578D01*
X-4796429Y1463578D02*
X-4775001Y1377864D01*
X-4775001Y1377864D02*
X-4753572Y1335007D01*
X-4753572Y1335007D02*
X-4710715Y1292150D01*
X-4710715Y1292150D02*
X-4646429Y1270721D01*
X-4646429Y1270721D02*
X-4539286Y1270721D01*
D10*
X-9751000Y-1150000D02*
X-8431000Y-1150000D01*
X-7951000Y-1150000D02*
X-6631000Y-1150000D01*
X-6151000Y-1150000D02*
X-5350000Y-1150000D01*
X-5350000Y-1150000D02*
X-5350000Y170000D01*
X-5350000Y650000D02*
X-5350000Y1150000D01*
X-5350000Y1150000D02*
X-6670000Y1150000D01*
X-7150000Y1150000D02*
X-8470000Y1150000D01*
X-8950000Y1150000D02*
X-9751000Y1150000D01*
X-9751000Y1150000D02*
X-9751000Y-170000D01*
X-9751000Y-650000D02*
X-9751000Y-1150000D01*
D11*
X-6961214Y1399292D02*
X-7175500Y1399292D01*
X-6918357Y1270721D02*
X-7068357Y1720721D01*
X-7068357Y1720721D02*
X-7218357Y1270721D01*
X-7625499Y1270721D02*
X-7475499Y1485007D01*
X-7368356Y1270721D02*
X-7368356Y1720721D01*
X-7368356Y1720721D02*
X-7539785Y1720721D01*
X-7539785Y1720721D02*
X-7582642Y1699292D01*
X-7582642Y1699292D02*
X-7604071Y1677864D01*
X-7604071Y1677864D02*
X-7625499Y1635007D01*
X-7625499Y1635007D02*
X-7625499Y1570721D01*
X-7625499Y1570721D02*
X-7604071Y1527864D01*
X-7604071Y1527864D02*
X-7582642Y1506435D01*
X-7582642Y1506435D02*
X-7539785Y1485007D01*
X-7539785Y1485007D02*
X-7368356Y1485007D01*
X-7818356Y1270721D02*
X-7818356Y1720721D01*
X-7818356Y1720721D02*
X-7968356Y1399292D01*
X-7968356Y1399292D02*
X-8118356Y1720721D01*
X-8118356Y1720721D02*
X-8118356Y1270721D01*
D10*
X4059000Y-4640000D02*
X5379000Y-4640000D01*
X5859000Y-4640000D02*
X7179000Y-4640000D01*
X7659000Y-4640000D02*
X8460000Y-4640000D01*
X8460000Y-4640000D02*
X8460000Y-3320000D01*
X8460000Y-2840000D02*
X8460000Y-2340000D01*
X8460000Y-2340000D02*
X7140000Y-2340000D01*
X6660000Y-2340000D02*
X5340000Y-2340000D01*
X4860000Y-2340000D02*
X4059000Y-2340000D01*
X4059000Y-2340000D02*
X4059000Y-3660000D01*
X4059000Y-4140000D02*
X4059000Y-4640000D01*
D11*
X6945214Y-2219278D02*
X6945214Y-1769278D01*
X6945214Y-1983564D02*
X6688071Y-1983564D01*
X6688071Y-2219278D02*
X6688071Y-1769278D01*
X6495213Y-2090707D02*
X6280928Y-2090707D01*
X6538070Y-2219278D02*
X6388070Y-1769278D01*
X6388070Y-1769278D02*
X6238070Y-2219278D01*
X5873785Y-2219278D02*
X6088071Y-2219278D01*
X6088071Y-2219278D02*
X6088071Y-1769278D01*
X5509499Y-2219278D02*
X5723785Y-2219278D01*
X5723785Y-2219278D02*
X5723785Y-1769278D01*
D10*
X-2561000Y-4640000D02*
X-1241000Y-4640000D01*
X-761000Y-4640000D02*
X559000Y-4640000D01*
X1039000Y-4640000D02*
X1840000Y-4640000D01*
X1840000Y-4640000D02*
X1840000Y-3320000D01*
X1840000Y-2840000D02*
X1840000Y-2340000D01*
X1840000Y-2340000D02*
X520000Y-2340000D01*
X40000Y-2340000D02*
X-1280000Y-2340000D01*
X-1760000Y-2340000D02*
X-2561000Y-2340000D01*
X-2561000Y-2340000D02*
X-2561000Y-3660000D01*
X-2561000Y-4140000D02*
X-2561000Y-4640000D01*
D11*
X78785Y-2219278D02*
X78785Y-1769278D01*
X-114072Y-1812135D02*
X-135500Y-1790707D01*
X-135500Y-1790707D02*
X-178358Y-1769278D01*
X-178358Y-1769278D02*
X-285500Y-1769278D01*
X-285500Y-1769278D02*
X-328358Y-1790707D01*
X-328358Y-1790707D02*
X-349786Y-1812135D01*
X-349786Y-1812135D02*
X-371215Y-1854992D01*
X-371215Y-1854992D02*
X-371215Y-1897850D01*
X-371215Y-1897850D02*
X-349786Y-1962135D01*
X-349786Y-1962135D02*
X-92643Y-2219278D01*
X-92643Y-2219278D02*
X-371215Y-2219278D01*
X-821214Y-2176421D02*
X-799786Y-2197850D01*
X-799786Y-2197850D02*
X-735500Y-2219278D01*
X-735500Y-2219278D02*
X-692643Y-2219278D01*
X-692643Y-2219278D02*
X-628357Y-2197850D01*
X-628357Y-2197850D02*
X-585500Y-2154992D01*
X-585500Y-2154992D02*
X-564071Y-2112135D01*
X-564071Y-2112135D02*
X-542643Y-2026421D01*
X-542643Y-2026421D02*
X-542643Y-1962135D01*
X-542643Y-1962135D02*
X-564071Y-1876421D01*
X-564071Y-1876421D02*
X-585500Y-1833564D01*
X-585500Y-1833564D02*
X-628357Y-1790707D01*
X-628357Y-1790707D02*
X-692643Y-1769278D01*
X-692643Y-1769278D02*
X-735500Y-1769278D01*
X-735500Y-1769278D02*
X-799786Y-1790707D01*
X-799786Y-1790707D02*
X-821214Y-1812135D01*
D10*
X-8951000Y-4640000D02*
X-7631000Y-4640000D01*
X-7151000Y-4640000D02*
X-5831000Y-4640000D01*
X-5351000Y-4640000D02*
X-4550000Y-4640000D01*
X-4550000Y-4640000D02*
X-4550000Y-3320000D01*
X-4550000Y-2840000D02*
X-4550000Y-2340000D01*
X-4550000Y-2340000D02*
X-5870000Y-2340000D01*
X-6350000Y-2340000D02*
X-7670000Y-2340000D01*
X-8150000Y-2340000D02*
X-8951000Y-2340000D01*
X-8951000Y-2340000D02*
X-8951000Y-3660000D01*
X-8951000Y-4140000D02*
X-8951000Y-4640000D01*
D11*
X-5121929Y-1769278D02*
X-5121929Y-2090707D01*
X-5121929Y-2090707D02*
X-5100500Y-2154992D01*
X-5100500Y-2154992D02*
X-5057643Y-2197850D01*
X-5057643Y-2197850D02*
X-4993357Y-2219278D01*
X-4993357Y-2219278D02*
X-4950500Y-2219278D01*
X-5336214Y-1769278D02*
X-5336214Y-2133564D01*
X-5336214Y-2133564D02*
X-5357643Y-2176421D01*
X-5357643Y-2176421D02*
X-5379072Y-2197850D01*
X-5379072Y-2197850D02*
X-5421929Y-2219278D01*
X-5421929Y-2219278D02*
X-5507643Y-2219278D01*
X-5507643Y-2219278D02*
X-5550500Y-2197850D01*
X-5550500Y-2197850D02*
X-5571929Y-2176421D01*
X-5571929Y-2176421D02*
X-5593357Y-2133564D01*
X-5593357Y-2133564D02*
X-5593357Y-1769278D01*
X-5807643Y-2219278D02*
X-5807643Y-1769278D01*
X-5807643Y-1769278D02*
X-5957643Y-2090707D01*
X-5957643Y-2090707D02*
X-6107643Y-1769278D01*
X-6107643Y-1769278D02*
X-6107643Y-2219278D01*
X-6321929Y-2219278D02*
X-6321929Y-1769278D01*
X-6321929Y-1769278D02*
X-6493358Y-1769278D01*
X-6493358Y-1769278D02*
X-6536215Y-1790707D01*
X-6536215Y-1790707D02*
X-6557644Y-1812135D01*
X-6557644Y-1812135D02*
X-6579072Y-1854992D01*
X-6579072Y-1854992D02*
X-6579072Y-1919278D01*
X-6579072Y-1919278D02*
X-6557644Y-1962135D01*
X-6557644Y-1962135D02*
X-6536215Y-1983564D01*
X-6536215Y-1983564D02*
X-6493358Y-2004992D01*
X-6493358Y-2004992D02*
X-6321929Y-2004992D01*
X-6750501Y-2197850D02*
X-6814787Y-2219278D01*
X-6814787Y-2219278D02*
X-6921929Y-2219278D01*
X-6921929Y-2219278D02*
X-6964787Y-2197850D01*
X-6964787Y-2197850D02*
X-6986215Y-2176421D01*
X-6986215Y-2176421D02*
X-7007644Y-2133564D01*
X-7007644Y-2133564D02*
X-7007644Y-2090707D01*
X-7007644Y-2090707D02*
X-6986215Y-2047850D01*
X-6986215Y-2047850D02*
X-6964787Y-2026421D01*
X-6964787Y-2026421D02*
X-6921929Y-2004992D01*
X-6921929Y-2004992D02*
X-6836215Y-1983564D01*
X-6836215Y-1983564D02*
X-6793358Y-1962135D01*
X-6793358Y-1962135D02*
X-6771929Y-1940707D01*
X-6771929Y-1940707D02*
X-6750501Y-1897850D01*
X-6750501Y-1897850D02*
X-6750501Y-1854992D01*
X-6750501Y-1854992D02*
X-6771929Y-1812135D01*
X-6771929Y-1812135D02*
X-6793358Y-1790707D01*
X-6793358Y-1790707D02*
X-6836215Y-1769278D01*
X-6836215Y-1769278D02*
X-6943358Y-1769278D01*
X-6943358Y-1769278D02*
X-7007644Y-1790707D01*
X-7136215Y-1769278D02*
X-7393358Y-1769278D01*
X-7264786Y-2219278D02*
X-7264786Y-1769278D01*
X-7521929Y-2090707D02*
X-7736215Y-2090707D01*
X-7479072Y-2219278D02*
X-7629072Y-1769278D01*
X-7629072Y-1769278D02*
X-7779072Y-2219278D01*
X-8186214Y-2219278D02*
X-8036214Y-2004992D01*
X-7929071Y-2219278D02*
X-7929071Y-1769278D01*
X-7929071Y-1769278D02*
X-8100500Y-1769278D01*
X-8100500Y-1769278D02*
X-8143357Y-1790707D01*
X-8143357Y-1790707D02*
X-8164786Y-1812135D01*
X-8164786Y-1812135D02*
X-8186214Y-1854992D01*
X-8186214Y-1854992D02*
X-8186214Y-1919278D01*
X-8186214Y-1919278D02*
X-8164786Y-1962135D01*
X-8164786Y-1962135D02*
X-8143357Y-1983564D01*
X-8143357Y-1983564D02*
X-8100500Y-2004992D01*
X-8100500Y-2004992D02*
X-7929071Y-2004992D01*
X-8314786Y-1769278D02*
X-8571929Y-1769278D01*
X-8443357Y-2219278D02*
X-8443357Y-1769278D01*
D10*
X-8547000Y-7930000D02*
X-7227000Y-7930000D01*
X-6747000Y-7930000D02*
X-5427000Y-7930000D01*
X-4947000Y-7930000D02*
X-3627000Y-7930000D01*
X-3147000Y-7930000D02*
X-1827000Y-7930000D01*
X-1347000Y-7930000D02*
X-27000Y-7930000D01*
X453000Y-7930000D02*
X1773000Y-7930000D01*
X2253000Y-7930000D02*
X3573000Y-7930000D01*
X4053000Y-7930000D02*
X5373000Y-7930000D01*
X5853000Y-7930000D02*
X7173000Y-7930000D01*
X7653000Y-7930000D02*
X8460000Y-7930000D01*
X8460000Y-7930000D02*
X8460000Y-6610000D01*
X8460000Y-6130000D02*
X8460000Y-5630000D01*
X8460000Y-5630000D02*
X7140000Y-5630000D01*
X6660000Y-5630000D02*
X5340000Y-5630000D01*
X4860000Y-5630000D02*
X3540000Y-5630000D01*
X3060000Y-5630000D02*
X1740000Y-5630000D01*
X1260000Y-5630000D02*
X-60000Y-5630000D01*
X-540000Y-5630000D02*
X-1860000Y-5630000D01*
X-2340000Y-5630000D02*
X-3660000Y-5630000D01*
X-4140000Y-5630000D02*
X-5460000Y-5630000D01*
X-5940000Y-5630000D02*
X-7260000Y-5630000D01*
X-7740000Y-5630000D02*
X-8547000Y-5630000D01*
X-8547000Y-5630000D02*
X-8547000Y-6950000D01*
X-8547000Y-7430000D02*
X-8547000Y-7930000D01*
D11*
X2517214Y-5509278D02*
X2517214Y-5059278D01*
X2517214Y-5059278D02*
X2345785Y-5059278D01*
X2345785Y-5059278D02*
X2302928Y-5080707D01*
X2302928Y-5080707D02*
X2281499Y-5102135D01*
X2281499Y-5102135D02*
X2260071Y-5144992D01*
X2260071Y-5144992D02*
X2260071Y-5209278D01*
X2260071Y-5209278D02*
X2281499Y-5252135D01*
X2281499Y-5252135D02*
X2302928Y-5273564D01*
X2302928Y-5273564D02*
X2345785Y-5294992D01*
X2345785Y-5294992D02*
X2517214Y-5294992D01*
X1810071Y-5509278D02*
X1960071Y-5294992D01*
X2067214Y-5509278D02*
X2067214Y-5059278D01*
X2067214Y-5059278D02*
X1895785Y-5059278D01*
X1895785Y-5059278D02*
X1852928Y-5080707D01*
X1852928Y-5080707D02*
X1831499Y-5102135D01*
X1831499Y-5102135D02*
X1810071Y-5144992D01*
X1810071Y-5144992D02*
X1810071Y-5209278D01*
X1810071Y-5209278D02*
X1831499Y-5252135D01*
X1831499Y-5252135D02*
X1852928Y-5273564D01*
X1852928Y-5273564D02*
X1895785Y-5294992D01*
X1895785Y-5294992D02*
X2067214Y-5294992D01*
X1531499Y-5059278D02*
X1445785Y-5059278D01*
X1445785Y-5059278D02*
X1402928Y-5080707D01*
X1402928Y-5080707D02*
X1360071Y-5123564D01*
X1360071Y-5123564D02*
X1338642Y-5209278D01*
X1338642Y-5209278D02*
X1338642Y-5359278D01*
X1338642Y-5359278D02*
X1360071Y-5444992D01*
X1360071Y-5444992D02*
X1402928Y-5487850D01*
X1402928Y-5487850D02*
X1445785Y-5509278D01*
X1445785Y-5509278D02*
X1531499Y-5509278D01*
X1531499Y-5509278D02*
X1574357Y-5487850D01*
X1574357Y-5487850D02*
X1617214Y-5444992D01*
X1617214Y-5444992D02*
X1638642Y-5359278D01*
X1638642Y-5359278D02*
X1638642Y-5209278D01*
X1638642Y-5209278D02*
X1617214Y-5123564D01*
X1617214Y-5123564D02*
X1574357Y-5080707D01*
X1574357Y-5080707D02*
X1531499Y-5059278D01*
X910070Y-5080707D02*
X952928Y-5059278D01*
X952928Y-5059278D02*
X1017213Y-5059278D01*
X1017213Y-5059278D02*
X1081499Y-5080707D01*
X1081499Y-5080707D02*
X1124356Y-5123564D01*
X1124356Y-5123564D02*
X1145785Y-5166421D01*
X1145785Y-5166421D02*
X1167213Y-5252135D01*
X1167213Y-5252135D02*
X1167213Y-5316421D01*
X1167213Y-5316421D02*
X1145785Y-5402135D01*
X1145785Y-5402135D02*
X1124356Y-5444992D01*
X1124356Y-5444992D02*
X1081499Y-5487850D01*
X1081499Y-5487850D02*
X1017213Y-5509278D01*
X1017213Y-5509278D02*
X974356Y-5509278D01*
X974356Y-5509278D02*
X910070Y-5487850D01*
X910070Y-5487850D02*
X888642Y-5466421D01*
X888642Y-5466421D02*
X888642Y-5316421D01*
X888642Y-5316421D02*
X974356Y-5316421D01*
X438642Y-5509278D02*
X588642Y-5294992D01*
X695785Y-5509278D02*
X695785Y-5059278D01*
X695785Y-5059278D02*
X524356Y-5059278D01*
X524356Y-5059278D02*
X481499Y-5080707D01*
X481499Y-5080707D02*
X460070Y-5102135D01*
X460070Y-5102135D02*
X438642Y-5144992D01*
X438642Y-5144992D02*
X438642Y-5209278D01*
X438642Y-5209278D02*
X460070Y-5252135D01*
X460070Y-5252135D02*
X481499Y-5273564D01*
X481499Y-5273564D02*
X524356Y-5294992D01*
X524356Y-5294992D02*
X695785Y-5294992D01*
X267213Y-5380707D02*
X52928Y-5380707D01*
X310070Y-5509278D02*
X160070Y-5059278D01*
X160070Y-5059278D02*
X10070Y-5509278D01*
X-139928Y-5509278D02*
X-139928Y-5059278D01*
X-139928Y-5059278D02*
X-289928Y-5380707D01*
X-289928Y-5380707D02*
X-439928Y-5059278D01*
X-439928Y-5059278D02*
X-439928Y-5509278D01*
X-547072Y-5552135D02*
X-889929Y-5552135D01*
X-997071Y-5509278D02*
X-997071Y-5059278D01*
X-997071Y-5059278D02*
X-1147071Y-5380707D01*
X-1147071Y-5380707D02*
X-1297071Y-5059278D01*
X-1297071Y-5059278D02*
X-1297071Y-5509278D01*
X-1511357Y-5509278D02*
X-1511357Y-5059278D01*
X-1511357Y-5059278D02*
X-1682786Y-5059278D01*
X-1682786Y-5059278D02*
X-1725643Y-5080707D01*
X-1725643Y-5080707D02*
X-1747072Y-5102135D01*
X-1747072Y-5102135D02*
X-1768500Y-5144992D01*
X-1768500Y-5144992D02*
X-1768500Y-5209278D01*
X-1768500Y-5209278D02*
X-1747072Y-5252135D01*
X-1747072Y-5252135D02*
X-1725643Y-5273564D01*
X-1725643Y-5273564D02*
X-1682786Y-5294992D01*
X-1682786Y-5294992D02*
X-1511357Y-5294992D01*
X-1939929Y-5102135D02*
X-1961357Y-5080707D01*
X-1961357Y-5080707D02*
X-2004215Y-5059278D01*
X-2004215Y-5059278D02*
X-2111357Y-5059278D01*
X-2111357Y-5059278D02*
X-2154215Y-5080707D01*
X-2154215Y-5080707D02*
X-2175643Y-5102135D01*
X-2175643Y-5102135D02*
X-2197072Y-5144992D01*
X-2197072Y-5144992D02*
X-2197072Y-5187850D01*
X-2197072Y-5187850D02*
X-2175643Y-5252135D01*
X-2175643Y-5252135D02*
X-1918500Y-5509278D01*
X-1918500Y-5509278D02*
X-2197072Y-5509278D01*
X-2604214Y-5059278D02*
X-2389928Y-5059278D01*
X-2389928Y-5059278D02*
X-2368500Y-5273564D01*
X-2368500Y-5273564D02*
X-2389928Y-5252135D01*
X-2389928Y-5252135D02*
X-2432786Y-5230707D01*
X-2432786Y-5230707D02*
X-2539928Y-5230707D01*
X-2539928Y-5230707D02*
X-2582786Y-5252135D01*
X-2582786Y-5252135D02*
X-2604214Y-5273564D01*
X-2604214Y-5273564D02*
X-2625643Y-5316421D01*
X-2625643Y-5316421D02*
X-2625643Y-5423564D01*
X-2625643Y-5423564D02*
X-2604214Y-5466421D01*
X-2604214Y-5466421D02*
X-2582786Y-5487850D01*
X-2582786Y-5487850D02*
X-2539928Y-5509278D01*
X-2539928Y-5509278D02*
X-2432786Y-5509278D01*
X-2432786Y-5509278D02*
X-2389928Y-5487850D01*
X-2389928Y-5487850D02*
X-2368500Y-5466421D01*
D10*
X-4413000Y-11120000D02*
X-3093000Y-11120000D01*
X-2613000Y-11120000D02*
X-1293000Y-11120000D01*
X-813000Y-11120000D02*
X507000Y-11120000D01*
X987000Y-11120000D02*
X2307000Y-11120000D01*
X2787000Y-11120000D02*
X4107000Y-11120000D01*
X4190000Y-11120000D02*
X4190000Y-9800000D01*
X4190000Y-9320000D02*
X4190000Y-8820000D01*
X4190000Y-8820000D02*
X2870000Y-8820000D01*
X2390000Y-8820000D02*
X1070000Y-8820000D01*
X590000Y-8820000D02*
X-730000Y-8820000D01*
X-1210000Y-8820000D02*
X-2530000Y-8820000D01*
X-3010000Y-8820000D02*
X-4330000Y-8820000D01*
X-4413000Y-8820000D02*
X-4413000Y-10140000D01*
X-4413000Y-10620000D02*
X-4413000Y-11120000D01*
D11*
X338499Y-8270707D02*
X381357Y-8249278D01*
X381357Y-8249278D02*
X445642Y-8249278D01*
X445642Y-8249278D02*
X509928Y-8270707D01*
X509928Y-8270707D02*
X552785Y-8313564D01*
X552785Y-8313564D02*
X574214Y-8356421D01*
X574214Y-8356421D02*
X595642Y-8442135D01*
X595642Y-8442135D02*
X595642Y-8506421D01*
X595642Y-8506421D02*
X574214Y-8592135D01*
X574214Y-8592135D02*
X552785Y-8634992D01*
X552785Y-8634992D02*
X509928Y-8677850D01*
X509928Y-8677850D02*
X445642Y-8699278D01*
X445642Y-8699278D02*
X402785Y-8699278D01*
X402785Y-8699278D02*
X338499Y-8677850D01*
X338499Y-8677850D02*
X317071Y-8656421D01*
X317071Y-8656421D02*
X317071Y-8506421D01*
X317071Y-8506421D02*
X402785Y-8506421D01*
X124214Y-8699278D02*
X124214Y-8249278D01*
X124214Y-8249278D02*
X-47214Y-8249278D01*
X-47214Y-8249278D02*
X-90071Y-8270707D01*
X-90071Y-8270707D02*
X-111500Y-8292135D01*
X-111500Y-8292135D02*
X-132928Y-8334992D01*
X-132928Y-8334992D02*
X-132928Y-8399278D01*
X-132928Y-8399278D02*
X-111500Y-8442135D01*
X-111500Y-8442135D02*
X-90071Y-8463564D01*
X-90071Y-8463564D02*
X-47214Y-8484992D01*
X-47214Y-8484992D02*
X124214Y-8484992D01*
X-325785Y-8699278D02*
X-325785Y-8249278D01*
X-625786Y-8249278D02*
X-711500Y-8249278D01*
X-711500Y-8249278D02*
X-754357Y-8270707D01*
X-754357Y-8270707D02*
X-797214Y-8313564D01*
X-797214Y-8313564D02*
X-818643Y-8399278D01*
X-818643Y-8399278D02*
X-818643Y-8549278D01*
X-818643Y-8549278D02*
X-797214Y-8634992D01*
X-797214Y-8634992D02*
X-754357Y-8677850D01*
X-754357Y-8677850D02*
X-711500Y-8699278D01*
X-711500Y-8699278D02*
X-625786Y-8699278D01*
X-625786Y-8699278D02*
X-582929Y-8677850D01*
X-582929Y-8677850D02*
X-540071Y-8634992D01*
X-540071Y-8634992D02*
X-518643Y-8549278D01*
X-518643Y-8549278D02*
X-518643Y-8399278D01*
X-518643Y-8399278D02*
X-540071Y-8313564D01*
X-540071Y-8313564D02*
X-582929Y-8270707D01*
X-582929Y-8270707D02*
X-625786Y-8249278D01*
M02*
