%TF.GenerationSoftware,KiCad,Pcbnew,10.0.3*%
%TF.CreationDate,2026-09-10T08:04:12+02:00*%
%TF.ProjectId,aft_end_board,6166745f-656e-4645-9f62-6f6172642e6b,rev?*%
%TF.SameCoordinates,Original*%
%TF.FileFunction,Drillmap*%
%TF.FilePolarity,Positive*%
%FSLAX45Y45*%
G04 Gerber Fmt 4.5, Leading zero omitted, Abs format (unit mm)*
G04 Created by KiCad (PCBNEW 10.0.3) date 2026-09-10 08:04:12*
%MOMM*%
%LPD*%
G01*
G04 APERTURE LIST*
%ADD10C,0.150000*%
%ADD11C,0.200000*%
%ADD12C,0.100000*%
G04 APERTURE END LIST*
D10*
X1700000Y0D02*
G75*
G02*
X-1700000Y0I-1700000J0D01*
G01*
X-1700000Y0D02*
G75*
G02*
X1700000Y0I1700000J0D01*
G01*
D11*
D12*
X-1417900Y102100D02*
X-1397900Y82100D01*
X-1397900Y102100D02*
X-1417900Y82100D01*
X-1269930Y-505000D02*
X-1249930Y-525000D01*
X-1249930Y-505000D02*
X-1269930Y-525000D01*
X-1259800Y720200D02*
X-1239800Y700200D01*
X-1239800Y720200D02*
X-1259800Y700200D01*
X-1174000Y659000D02*
X-1154000Y639000D01*
X-1154000Y659000D02*
X-1174000Y639000D01*
X-1101790Y-37500D02*
X-1081790Y-57500D01*
X-1081790Y-37500D02*
X-1101790Y-57500D01*
X-1003700Y409750D02*
X-983700Y389750D01*
X-983700Y409750D02*
X-1003700Y389750D01*
X-955340Y-982430D02*
X-935340Y-1002430D01*
X-935340Y-982430D02*
X-955340Y-1002430D01*
X-927000Y-74000D02*
X-907000Y-94000D01*
X-907000Y-74000D02*
X-927000Y-94000D01*
X-917280Y83850D02*
X-897280Y63850D01*
X-897280Y83850D02*
X-917280Y63850D01*
X-909200Y-369370D02*
X-889200Y-389370D01*
X-889200Y-369370D02*
X-909200Y-389370D01*
X-907700Y791370D02*
X-887700Y771370D01*
X-887700Y791370D02*
X-907700Y771370D01*
X-881150Y-478150D02*
X-861150Y-498150D01*
X-861150Y-478150D02*
X-881150Y-498150D01*
X-845030Y315950D02*
X-825030Y295950D01*
X-825030Y315950D02*
X-845030Y295950D01*
X-822000Y932000D02*
X-802000Y912000D01*
X-802000Y932000D02*
X-822000Y912000D01*
X-775940Y379860D02*
X-755940Y359860D01*
X-755940Y379860D02*
X-775940Y359860D01*
X-774840Y1071000D02*
X-754840Y1051000D01*
X-754840Y1071000D02*
X-774840Y1051000D01*
X-771150Y1315720D02*
X-751150Y1295720D01*
X-751150Y1315720D02*
X-771150Y1295720D01*
X-740000Y-1347000D02*
X-720000Y-1367000D01*
X-720000Y-1347000D02*
X-740000Y-1367000D01*
X-738190Y-159540D02*
X-718190Y-179540D01*
X-718190Y-159540D02*
X-738190Y-179540D01*
X-730740Y-562740D02*
X-710740Y-582740D01*
X-710740Y-562740D02*
X-730740Y-582740D01*
X-683350Y-1462090D02*
X-663350Y-1482090D01*
X-663350Y-1462090D02*
X-683350Y-1482090D01*
X-633070Y333920D02*
X-613070Y313920D01*
X-613070Y333920D02*
X-633070Y313920D01*
X-590310Y512960D02*
X-570310Y492960D01*
X-570310Y512960D02*
X-590310Y492960D01*
X-589640Y1119260D02*
X-569640Y1099260D01*
X-569640Y1119260D02*
X-589640Y1099260D01*
X-589630Y129420D02*
X-569630Y109420D01*
X-569630Y129420D02*
X-589630Y109420D01*
X-561920Y23350D02*
X-541920Y3350D01*
X-541920Y23350D02*
X-561920Y3350D01*
X-493810Y310020D02*
X-473810Y290020D01*
X-473810Y310020D02*
X-493810Y290020D01*
X-493080Y758340D02*
X-473080Y738340D01*
X-473080Y758340D02*
X-493080Y738340D01*
X-466100Y-208690D02*
X-446100Y-228690D01*
X-446100Y-208690D02*
X-466100Y-228690D01*
X-422050Y-804300D02*
X-402050Y-824300D01*
X-402050Y-804300D02*
X-422050Y-824300D01*
X-378820Y941690D02*
X-358820Y921690D01*
X-358820Y941690D02*
X-378820Y921690D01*
X-367660Y699340D02*
X-347660Y679340D01*
X-347660Y699340D02*
X-367660Y679340D01*
X-330440Y-734610D02*
X-310440Y-754610D01*
X-310440Y-734610D02*
X-330440Y-754610D01*
X-306600Y-42590D02*
X-286600Y-62590D01*
X-286600Y-42590D02*
X-306600Y-62590D01*
X-274160Y981800D02*
X-254160Y961800D01*
X-254160Y981800D02*
X-274160Y961800D01*
X-263880Y-744420D02*
X-243880Y-764420D01*
X-243880Y-744420D02*
X-263880Y-764420D01*
X-260000Y737260D02*
X-240000Y717260D01*
X-240000Y737260D02*
X-260000Y717260D01*
X-212180Y-892950D02*
X-192180Y-912950D01*
X-192180Y-892950D02*
X-212180Y-912950D01*
X-192030Y65820D02*
X-172030Y45820D01*
X-172030Y65820D02*
X-192030Y45820D01*
X-175340Y463860D02*
X-155340Y443860D01*
X-155340Y463860D02*
X-175340Y443860D01*
X-155190Y163240D02*
X-135190Y143240D01*
X-135190Y163240D02*
X-155190Y143240D01*
X-127480Y28740D02*
X-107480Y8740D01*
X-107480Y28740D02*
X-127480Y8740D01*
X-118360Y1425180D02*
X-98360Y1405180D01*
X-98360Y1425180D02*
X-118360Y1405180D01*
X-109020Y-951280D02*
X-89020Y-971280D01*
X-89020Y-951280D02*
X-109020Y-971280D01*
X-81980Y424070D02*
X-61980Y404070D01*
X-61980Y424070D02*
X-81980Y404070D01*
X-67940Y-537990D02*
X-47940Y-557990D01*
X-47940Y-537990D02*
X-67940Y-557990D01*
X-59840Y476760D02*
X-39840Y456760D01*
X-39840Y476760D02*
X-59840Y456760D01*
X-36410Y-170430D02*
X-16410Y-190430D01*
X-16410Y-170430D02*
X-36410Y-190430D01*
X-29150Y-305590D02*
X-9150Y-325590D01*
X-9150Y-305590D02*
X-29150Y-325590D01*
X-22940Y812990D02*
X-2940Y792990D01*
X-2940Y812990D02*
X-22940Y792990D01*
X-9120Y-524360D02*
X10880Y-544360D01*
X10880Y-524360D02*
X-9120Y-544360D01*
X-2050Y871380D02*
X17950Y851380D01*
X17950Y871380D02*
X-2050Y851380D01*
X14910Y-244940D02*
X34910Y-264940D01*
X34910Y-244940D02*
X14910Y-264940D01*
X17600Y-171020D02*
X37600Y-191020D01*
X37600Y-171020D02*
X17600Y-191020D01*
X18930Y-951980D02*
X38930Y-971980D01*
X38930Y-951980D02*
X18930Y-971980D01*
X23140Y94890D02*
X43140Y74890D01*
X43140Y94890D02*
X23140Y74890D01*
X42700Y517800D02*
X62700Y497800D01*
X62700Y517800D02*
X42700Y497800D01*
X86750Y-1309080D02*
X106750Y-1329080D01*
X106750Y-1309080D02*
X86750Y-1329080D01*
X97050Y-637030D02*
X117050Y-657030D01*
X117050Y-637030D02*
X97050Y-657030D01*
X116490Y284660D02*
X136490Y264660D01*
X136490Y284660D02*
X116490Y264660D01*
X121070Y-1529070D02*
X141070Y-1549070D01*
X141070Y-1529070D02*
X121070Y-1549070D01*
X136150Y91510D02*
X156150Y71510D01*
X156150Y91510D02*
X136150Y71510D01*
X140000Y454410D02*
X160000Y434410D01*
X160000Y454410D02*
X140000Y434410D01*
X151790Y323870D02*
X171790Y303870D01*
X171790Y323870D02*
X151790Y303870D01*
X157910Y783220D02*
X177910Y763220D01*
X177910Y783220D02*
X157910Y763220D01*
X158050Y-217820D02*
X178050Y-237820D01*
X178050Y-217820D02*
X158050Y-237820D01*
X159890Y-501850D02*
X179890Y-521850D01*
X179890Y-501850D02*
X159890Y-521850D01*
X168230Y-721720D02*
X188230Y-741720D01*
X188230Y-721720D02*
X168230Y-741720D01*
X180810Y-965250D02*
X200810Y-985250D01*
X200810Y-965250D02*
X180810Y-985250D01*
X187670Y1466170D02*
X207670Y1446170D01*
X207670Y1466170D02*
X187670Y1446170D01*
X189790Y902980D02*
X209790Y882980D01*
X209790Y902980D02*
X189790Y882980D01*
X244920Y-951980D02*
X264920Y-971980D01*
X264920Y-951980D02*
X244920Y-971980D01*
X260900Y779090D02*
X280900Y759090D01*
X280900Y779090D02*
X260900Y759090D01*
X271640Y-355340D02*
X291640Y-375340D01*
X291640Y-355340D02*
X271640Y-375340D01*
X328610Y-699480D02*
X348610Y-719480D01*
X348610Y-699480D02*
X328610Y-719480D01*
X330630Y1107920D02*
X350630Y1087920D01*
X350630Y1107920D02*
X330630Y1087920D01*
X332810Y42680D02*
X352810Y22680D01*
X352810Y42680D02*
X332810Y22680D01*
X335460Y-443950D02*
X355460Y-463950D01*
X355460Y-443950D02*
X335460Y-463950D01*
X341720Y1335000D02*
X361720Y1315000D01*
X361720Y1335000D02*
X341720Y1315000D01*
X341810Y-1382750D02*
X361810Y-1402750D01*
X361810Y-1382750D02*
X341810Y-1402750D01*
X343720Y-364880D02*
X363720Y-384880D01*
X363720Y-364880D02*
X343720Y-384880D01*
X351430Y-1124960D02*
X371430Y-1144960D01*
X371430Y-1124960D02*
X351430Y-1144960D01*
X375310Y1140580D02*
X395310Y1120580D01*
X395310Y1140580D02*
X375310Y1120580D01*
X375900Y767930D02*
X395900Y747930D01*
X395900Y767930D02*
X375900Y747930D01*
X379700Y856080D02*
X399700Y836080D01*
X399700Y856080D02*
X379700Y836080D01*
X392000Y-776000D02*
X412000Y-796000D01*
X412000Y-776000D02*
X392000Y-796000D01*
X412210Y-440000D02*
X432210Y-460000D01*
X432210Y-440000D02*
X412210Y-460000D01*
X419100Y1108510D02*
X439100Y1088510D01*
X439100Y1108510D02*
X419100Y1088510D01*
X425000Y1258150D02*
X445000Y1238150D01*
X445000Y1258150D02*
X425000Y1238150D01*
X465100Y-273050D02*
X485100Y-293050D01*
X485100Y-273050D02*
X465100Y-293050D01*
X470950Y-760230D02*
X490950Y-780230D01*
X490950Y-760230D02*
X470950Y-780230D01*
X506240Y793830D02*
X526240Y773830D01*
X526240Y793830D02*
X506240Y773830D01*
X534730Y1259740D02*
X554730Y1239740D01*
X554730Y1259740D02*
X534730Y1239740D01*
X542830Y-128010D02*
X562830Y-148010D01*
X562830Y-128010D02*
X542830Y-148010D01*
X551710Y-844070D02*
X571710Y-864070D01*
X571710Y-844070D02*
X551710Y-864070D01*
X566460Y469960D02*
X586460Y449960D01*
X586460Y469960D02*
X566460Y449960D01*
X569420Y11550D02*
X589420Y-8450D01*
X589420Y11550D02*
X569420Y-8450D01*
X569650Y125990D02*
X589650Y105990D01*
X589650Y125990D02*
X569650Y105990D01*
X577440Y-1149540D02*
X597440Y-1169540D01*
X597440Y-1149540D02*
X577440Y-1169540D01*
X578020Y-295280D02*
X598020Y-315280D01*
X598020Y-295280D02*
X578020Y-315280D01*
X587910Y342640D02*
X607910Y322640D01*
X607910Y342640D02*
X587910Y322640D01*
X609290Y745130D02*
X629290Y725130D01*
X629290Y745130D02*
X609290Y725130D01*
X620200Y-114330D02*
X640200Y-134330D01*
X640200Y-114330D02*
X620200Y-134330D01*
X650990Y841220D02*
X670990Y821220D01*
X670990Y841220D02*
X650990Y821220D01*
X654040Y1270150D02*
X674040Y1250150D01*
X674040Y1270150D02*
X654040Y1250150D01*
X654230Y677890D02*
X674230Y657890D01*
X674230Y677890D02*
X654230Y657890D01*
X655330Y-5700D02*
X675330Y-25700D01*
X675330Y-5700D02*
X655330Y-25700D01*
X656230Y247520D02*
X676230Y227520D01*
X676230Y247520D02*
X656230Y227520D01*
X668360Y106230D02*
X688360Y86230D01*
X688360Y106230D02*
X668360Y86230D01*
X669420Y321130D02*
X689420Y301130D01*
X689420Y321130D02*
X669420Y301130D01*
X674250Y499410D02*
X694250Y479410D01*
X694250Y499410D02*
X674250Y479410D01*
X694420Y-1419830D02*
X714420Y-1439830D01*
X714420Y-1419830D02*
X694420Y-1439830D01*
X695040Y-1340490D02*
X715040Y-1360490D01*
X715040Y-1340490D02*
X695040Y-1360490D01*
X700740Y614870D02*
X720740Y594870D01*
X720740Y614870D02*
X700740Y594870D01*
X721600Y-615240D02*
X741600Y-635240D01*
X741600Y-615240D02*
X721600Y-635240D01*
X747330Y1259670D02*
X767330Y1239670D01*
X767330Y1259670D02*
X747330Y1239670D01*
X758490Y-816790D02*
X778490Y-836790D01*
X778490Y-816790D02*
X758490Y-836790D01*
X779000Y-1077000D02*
X799000Y-1097000D01*
X799000Y-1077000D02*
X779000Y-1097000D01*
X817230Y909880D02*
X837230Y889880D01*
X837230Y909880D02*
X817230Y889880D01*
X840610Y1083570D02*
X860610Y1063570D01*
X860610Y1083570D02*
X840610Y1063570D01*
X854810Y196390D02*
X874810Y176390D01*
X874810Y196390D02*
X854810Y176390D01*
X859040Y-570370D02*
X879040Y-590370D01*
X879040Y-570370D02*
X859040Y-590370D01*
X868240Y108210D02*
X888240Y88210D01*
X888240Y108210D02*
X868240Y88210D01*
X873900Y582620D02*
X893900Y562620D01*
X893900Y582620D02*
X873900Y562620D01*
X878390Y404720D02*
X898390Y384720D01*
X898390Y404720D02*
X878390Y384720D01*
X897740Y13130D02*
X917740Y-6870D01*
X917740Y13130D02*
X897740Y-6870D01*
X913810Y-532810D02*
X933810Y-552810D01*
X933810Y-532810D02*
X913810Y-552810D01*
X947760Y-382360D02*
X967760Y-402360D01*
X967760Y-382360D02*
X947760Y-402360D01*
X962520Y778590D02*
X982520Y758590D01*
X982520Y778590D02*
X962520Y758590D01*
X963200Y-159970D02*
X983200Y-179970D01*
X983200Y-159970D02*
X963200Y-179970D01*
X963310Y-951980D02*
X983310Y-971980D01*
X983310Y-951980D02*
X963310Y-971980D01*
X987000Y1228000D02*
X1007000Y1208000D01*
X1007000Y1228000D02*
X987000Y1208000D01*
X989330Y-299110D02*
X1009330Y-319110D01*
X1009330Y-299110D02*
X989330Y-319110D01*
X1051000Y-919500D02*
X1071000Y-939500D01*
X1071000Y-919500D02*
X1051000Y-939500D01*
X1062530Y-95740D02*
X1082530Y-115740D01*
X1082530Y-95740D02*
X1062530Y-115740D01*
X1065000Y931950D02*
X1085000Y911950D01*
X1085000Y931950D02*
X1065000Y911950D01*
X1065000Y-189560D02*
X1085000Y-209560D01*
X1085000Y-189560D02*
X1065000Y-209560D01*
X1149550Y-527330D02*
X1169550Y-547330D01*
X1169550Y-527330D02*
X1149550Y-547330D01*
X1153140Y436480D02*
X1173140Y416480D01*
X1173140Y436480D02*
X1153140Y416480D01*
X1153720Y74200D02*
X1173720Y54200D01*
X1173720Y74200D02*
X1153720Y54200D01*
X1161000Y205870D02*
X1181000Y185870D01*
X1181000Y205870D02*
X1161000Y185870D01*
X1163430Y293240D02*
X1183430Y273240D01*
X1183430Y293240D02*
X1163430Y273240D01*
X1166000Y575000D02*
X1186000Y555000D01*
X1186000Y575000D02*
X1166000Y555000D01*
X1175950Y369100D02*
X1195950Y349100D01*
X1195950Y369100D02*
X1175950Y349100D01*
X1225000Y-189560D02*
X1245000Y-209560D01*
X1245000Y-189560D02*
X1225000Y-209560D01*
X1235670Y179550D02*
X1255670Y159550D01*
X1255670Y179550D02*
X1235670Y159550D01*
X1244810Y535000D02*
X1264810Y515000D01*
X1264810Y535000D02*
X1244810Y515000D01*
X1279380Y-660620D02*
X1299380Y-680620D01*
X1299380Y-660620D02*
X1279380Y-680620D01*
X1282670Y-348940D02*
X1302670Y-368940D01*
X1302670Y-348940D02*
X1282670Y-368940D01*
X1301630Y855000D02*
X1321630Y835000D01*
X1321630Y855000D02*
X1301630Y835000D01*
X1305370Y470390D02*
X1325370Y450390D01*
X1325370Y470390D02*
X1305370Y450390D01*
X1308440Y-96820D02*
X1328440Y-116820D01*
X1328440Y-96820D02*
X1308440Y-116820D01*
X1308510Y368180D02*
X1328510Y348180D01*
X1328510Y368180D02*
X1308510Y348180D01*
X1309240Y272670D02*
X1329240Y252670D01*
X1329240Y272670D02*
X1309240Y252670D01*
X1460820Y-243300D02*
X1480820Y-263300D01*
X1480820Y-243300D02*
X1460820Y-263300D01*
X1483240Y-486760D02*
X1503240Y-506760D01*
X1503240Y-486760D02*
X1483240Y-506760D01*
D11*
X-1446723Y-2018984D02*
X-1446723Y-1818984D01*
X-1446723Y-1818984D02*
X-1399104Y-1818984D01*
X-1399104Y-1818984D02*
X-1370533Y-1828508D01*
X-1370533Y-1828508D02*
X-1351485Y-1847555D01*
X-1351485Y-1847555D02*
X-1341961Y-1866603D01*
X-1341961Y-1866603D02*
X-1332437Y-1904698D01*
X-1332437Y-1904698D02*
X-1332437Y-1933269D01*
X-1332437Y-1933269D02*
X-1341961Y-1971365D01*
X-1341961Y-1971365D02*
X-1351485Y-1990412D01*
X-1351485Y-1990412D02*
X-1370533Y-2009460D01*
X-1370533Y-2009460D02*
X-1399104Y-2018984D01*
X-1399104Y-2018984D02*
X-1446723Y-2018984D01*
X-1246723Y-2018984D02*
X-1246723Y-1885650D01*
X-1246723Y-1923746D02*
X-1237199Y-1904698D01*
X-1237199Y-1904698D02*
X-1227676Y-1895174D01*
X-1227676Y-1895174D02*
X-1208628Y-1885650D01*
X-1208628Y-1885650D02*
X-1189580Y-1885650D01*
X-1122914Y-2018984D02*
X-1122914Y-1885650D01*
X-1122914Y-1818984D02*
X-1132437Y-1828508D01*
X-1132437Y-1828508D02*
X-1122914Y-1838031D01*
X-1122914Y-1838031D02*
X-1113390Y-1828508D01*
X-1113390Y-1828508D02*
X-1122914Y-1818984D01*
X-1122914Y-1818984D02*
X-1122914Y-1838031D01*
X-999104Y-2018984D02*
X-1018152Y-2009460D01*
X-1018152Y-2009460D02*
X-1027675Y-1990412D01*
X-1027675Y-1990412D02*
X-1027675Y-1818984D01*
X-894342Y-2018984D02*
X-913390Y-2009460D01*
X-913390Y-2009460D02*
X-922914Y-1990412D01*
X-922914Y-1990412D02*
X-922914Y-1818984D01*
X-665771Y-2018984D02*
X-665771Y-1818984D01*
X-665771Y-1818984D02*
X-599104Y-1961841D01*
X-599104Y-1961841D02*
X-532437Y-1818984D01*
X-532437Y-1818984D02*
X-532437Y-2018984D01*
X-351485Y-2018984D02*
X-351485Y-1914222D01*
X-351485Y-1914222D02*
X-361009Y-1895174D01*
X-361009Y-1895174D02*
X-380056Y-1885650D01*
X-380056Y-1885650D02*
X-418152Y-1885650D01*
X-418152Y-1885650D02*
X-437199Y-1895174D01*
X-351485Y-2009460D02*
X-370533Y-2018984D01*
X-370533Y-2018984D02*
X-418152Y-2018984D01*
X-418152Y-2018984D02*
X-437199Y-2009460D01*
X-437199Y-2009460D02*
X-446723Y-1990412D01*
X-446723Y-1990412D02*
X-446723Y-1971365D01*
X-446723Y-1971365D02*
X-437199Y-1952317D01*
X-437199Y-1952317D02*
X-418152Y-1942793D01*
X-418152Y-1942793D02*
X-370533Y-1942793D01*
X-370533Y-1942793D02*
X-351485Y-1933269D01*
X-256247Y-1885650D02*
X-256247Y-2085650D01*
X-256247Y-1895174D02*
X-237199Y-1885650D01*
X-237199Y-1885650D02*
X-199104Y-1885650D01*
X-199104Y-1885650D02*
X-180056Y-1895174D01*
X-180056Y-1895174D02*
X-170533Y-1904698D01*
X-170533Y-1904698D02*
X-161009Y-1923746D01*
X-161009Y-1923746D02*
X-161009Y-1980888D01*
X-161009Y-1980888D02*
X-170533Y-1999936D01*
X-170533Y-1999936D02*
X-180056Y-2009460D01*
X-180056Y-2009460D02*
X-199104Y-2018984D01*
X-199104Y-2018984D02*
X-237199Y-2018984D01*
X-237199Y-2018984D02*
X-256247Y-2009460D01*
X-75295Y-1999936D02*
X-65771Y-2009460D01*
X-65771Y-2009460D02*
X-75295Y-2018984D01*
X-75295Y-2018984D02*
X-84818Y-2009460D01*
X-84818Y-2009460D02*
X-75295Y-1999936D01*
X-75295Y-1999936D02*
X-75295Y-2018984D01*
X-75295Y-1895174D02*
X-65771Y-1904698D01*
X-65771Y-1904698D02*
X-75295Y-1914222D01*
X-75295Y-1914222D02*
X-84818Y-1904698D01*
X-84818Y-1904698D02*
X-75295Y-1895174D01*
X-75295Y-1895174D02*
X-75295Y-1914222D01*
D12*
X-1727500Y-2337500D02*
X-1707500Y-2357500D01*
X-1707500Y-2337500D02*
X-1727500Y-2357500D01*
D11*
X-1408628Y-2238984D02*
X-1389580Y-2238984D01*
X-1389580Y-2238984D02*
X-1370533Y-2248508D01*
X-1370533Y-2248508D02*
X-1361009Y-2258031D01*
X-1361009Y-2258031D02*
X-1351485Y-2277079D01*
X-1351485Y-2277079D02*
X-1341961Y-2315174D01*
X-1341961Y-2315174D02*
X-1341961Y-2362793D01*
X-1341961Y-2362793D02*
X-1351485Y-2400889D01*
X-1351485Y-2400889D02*
X-1361009Y-2419936D01*
X-1361009Y-2419936D02*
X-1370533Y-2429460D01*
X-1370533Y-2429460D02*
X-1389580Y-2438984D01*
X-1389580Y-2438984D02*
X-1408628Y-2438984D01*
X-1408628Y-2438984D02*
X-1427675Y-2429460D01*
X-1427675Y-2429460D02*
X-1437199Y-2419936D01*
X-1437199Y-2419936D02*
X-1446723Y-2400889D01*
X-1446723Y-2400889D02*
X-1456247Y-2362793D01*
X-1456247Y-2362793D02*
X-1456247Y-2315174D01*
X-1456247Y-2315174D02*
X-1446723Y-2277079D01*
X-1446723Y-2277079D02*
X-1437199Y-2258031D01*
X-1437199Y-2258031D02*
X-1427675Y-2248508D01*
X-1427675Y-2248508D02*
X-1408628Y-2238984D01*
X-1256247Y-2419936D02*
X-1246723Y-2429460D01*
X-1246723Y-2429460D02*
X-1256247Y-2438984D01*
X-1256247Y-2438984D02*
X-1265771Y-2429460D01*
X-1265771Y-2429460D02*
X-1256247Y-2419936D01*
X-1256247Y-2419936D02*
X-1256247Y-2438984D01*
X-1170533Y-2258031D02*
X-1161009Y-2248508D01*
X-1161009Y-2248508D02*
X-1141961Y-2238984D01*
X-1141961Y-2238984D02*
X-1094342Y-2238984D01*
X-1094342Y-2238984D02*
X-1075295Y-2248508D01*
X-1075295Y-2248508D02*
X-1065771Y-2258031D01*
X-1065771Y-2258031D02*
X-1056247Y-2277079D01*
X-1056247Y-2277079D02*
X-1056247Y-2296127D01*
X-1056247Y-2296127D02*
X-1065771Y-2324698D01*
X-1065771Y-2324698D02*
X-1180056Y-2438984D01*
X-1180056Y-2438984D02*
X-1056247Y-2438984D01*
X-932437Y-2238984D02*
X-913390Y-2238984D01*
X-913390Y-2238984D02*
X-894342Y-2248508D01*
X-894342Y-2248508D02*
X-884818Y-2258031D01*
X-884818Y-2258031D02*
X-875294Y-2277079D01*
X-875294Y-2277079D02*
X-865771Y-2315174D01*
X-865771Y-2315174D02*
X-865771Y-2362793D01*
X-865771Y-2362793D02*
X-875294Y-2400889D01*
X-875294Y-2400889D02*
X-884818Y-2419936D01*
X-884818Y-2419936D02*
X-894342Y-2429460D01*
X-894342Y-2429460D02*
X-913390Y-2438984D01*
X-913390Y-2438984D02*
X-932437Y-2438984D01*
X-932437Y-2438984D02*
X-951485Y-2429460D01*
X-951485Y-2429460D02*
X-961009Y-2419936D01*
X-961009Y-2419936D02*
X-970533Y-2400889D01*
X-970533Y-2400889D02*
X-980056Y-2362793D01*
X-980056Y-2362793D02*
X-980056Y-2315174D01*
X-980056Y-2315174D02*
X-970533Y-2277079D01*
X-970533Y-2277079D02*
X-961009Y-2258031D01*
X-961009Y-2258031D02*
X-951485Y-2248508D01*
X-951485Y-2248508D02*
X-932437Y-2238984D01*
X-741961Y-2238984D02*
X-722913Y-2238984D01*
X-722913Y-2238984D02*
X-703866Y-2248508D01*
X-703866Y-2248508D02*
X-694342Y-2258031D01*
X-694342Y-2258031D02*
X-684818Y-2277079D01*
X-684818Y-2277079D02*
X-675295Y-2315174D01*
X-675295Y-2315174D02*
X-675295Y-2362793D01*
X-675295Y-2362793D02*
X-684818Y-2400889D01*
X-684818Y-2400889D02*
X-694342Y-2419936D01*
X-694342Y-2419936D02*
X-703866Y-2429460D01*
X-703866Y-2429460D02*
X-722913Y-2438984D01*
X-722913Y-2438984D02*
X-741961Y-2438984D01*
X-741961Y-2438984D02*
X-761009Y-2429460D01*
X-761009Y-2429460D02*
X-770533Y-2419936D01*
X-770533Y-2419936D02*
X-780056Y-2400889D01*
X-780056Y-2400889D02*
X-789580Y-2362793D01*
X-789580Y-2362793D02*
X-789580Y-2315174D01*
X-789580Y-2315174D02*
X-780056Y-2277079D01*
X-780056Y-2277079D02*
X-770533Y-2258031D01*
X-770533Y-2258031D02*
X-761009Y-2248508D01*
X-761009Y-2248508D02*
X-741961Y-2238984D01*
X-589580Y-2438984D02*
X-589580Y-2305650D01*
X-589580Y-2324698D02*
X-580056Y-2315174D01*
X-580056Y-2315174D02*
X-561009Y-2305650D01*
X-561009Y-2305650D02*
X-532437Y-2305650D01*
X-532437Y-2305650D02*
X-513390Y-2315174D01*
X-513390Y-2315174D02*
X-503866Y-2334222D01*
X-503866Y-2334222D02*
X-503866Y-2438984D01*
X-503866Y-2334222D02*
X-494342Y-2315174D01*
X-494342Y-2315174D02*
X-475294Y-2305650D01*
X-475294Y-2305650D02*
X-446723Y-2305650D01*
X-446723Y-2305650D02*
X-427675Y-2315174D01*
X-427675Y-2315174D02*
X-418152Y-2334222D01*
X-418152Y-2334222D02*
X-418152Y-2438984D01*
X-322914Y-2438984D02*
X-322914Y-2305650D01*
X-322914Y-2324698D02*
X-313390Y-2315174D01*
X-313390Y-2315174D02*
X-294342Y-2305650D01*
X-294342Y-2305650D02*
X-265771Y-2305650D01*
X-265771Y-2305650D02*
X-246723Y-2315174D01*
X-246723Y-2315174D02*
X-237199Y-2334222D01*
X-237199Y-2334222D02*
X-237199Y-2438984D01*
X-237199Y-2334222D02*
X-227675Y-2315174D01*
X-227675Y-2315174D02*
X-208628Y-2305650D01*
X-208628Y-2305650D02*
X-180056Y-2305650D01*
X-180056Y-2305650D02*
X-161009Y-2315174D01*
X-161009Y-2315174D02*
X-151485Y-2334222D01*
X-151485Y-2334222D02*
X-151485Y-2438984D01*
X238991Y-2229460D02*
X67563Y-2486603D01*
X496134Y-2238984D02*
X515182Y-2238984D01*
X515182Y-2238984D02*
X534229Y-2248508D01*
X534229Y-2248508D02*
X543753Y-2258031D01*
X543753Y-2258031D02*
X553277Y-2277079D01*
X553277Y-2277079D02*
X562801Y-2315174D01*
X562801Y-2315174D02*
X562801Y-2362793D01*
X562801Y-2362793D02*
X553277Y-2400889D01*
X553277Y-2400889D02*
X543753Y-2419936D01*
X543753Y-2419936D02*
X534229Y-2429460D01*
X534229Y-2429460D02*
X515182Y-2438984D01*
X515182Y-2438984D02*
X496134Y-2438984D01*
X496134Y-2438984D02*
X477086Y-2429460D01*
X477086Y-2429460D02*
X467563Y-2419936D01*
X467563Y-2419936D02*
X458039Y-2400889D01*
X458039Y-2400889D02*
X448515Y-2362793D01*
X448515Y-2362793D02*
X448515Y-2315174D01*
X448515Y-2315174D02*
X458039Y-2277079D01*
X458039Y-2277079D02*
X467563Y-2258031D01*
X467563Y-2258031D02*
X477086Y-2248508D01*
X477086Y-2248508D02*
X496134Y-2238984D01*
X648515Y-2419936D02*
X658039Y-2429460D01*
X658039Y-2429460D02*
X648515Y-2438984D01*
X648515Y-2438984D02*
X638991Y-2429460D01*
X638991Y-2429460D02*
X648515Y-2419936D01*
X648515Y-2419936D02*
X648515Y-2438984D01*
X781848Y-2238984D02*
X800896Y-2238984D01*
X800896Y-2238984D02*
X819944Y-2248508D01*
X819944Y-2248508D02*
X829467Y-2258031D01*
X829467Y-2258031D02*
X838991Y-2277079D01*
X838991Y-2277079D02*
X848515Y-2315174D01*
X848515Y-2315174D02*
X848515Y-2362793D01*
X848515Y-2362793D02*
X838991Y-2400889D01*
X838991Y-2400889D02*
X829467Y-2419936D01*
X829467Y-2419936D02*
X819944Y-2429460D01*
X819944Y-2429460D02*
X800896Y-2438984D01*
X800896Y-2438984D02*
X781848Y-2438984D01*
X781848Y-2438984D02*
X762801Y-2429460D01*
X762801Y-2429460D02*
X753277Y-2419936D01*
X753277Y-2419936D02*
X743753Y-2400889D01*
X743753Y-2400889D02*
X734229Y-2362793D01*
X734229Y-2362793D02*
X734229Y-2315174D01*
X734229Y-2315174D02*
X743753Y-2277079D01*
X743753Y-2277079D02*
X753277Y-2258031D01*
X753277Y-2258031D02*
X762801Y-2248508D01*
X762801Y-2248508D02*
X781848Y-2238984D01*
X972325Y-2238984D02*
X991372Y-2238984D01*
X991372Y-2238984D02*
X1010420Y-2248508D01*
X1010420Y-2248508D02*
X1019944Y-2258031D01*
X1019944Y-2258031D02*
X1029467Y-2277079D01*
X1029467Y-2277079D02*
X1038991Y-2315174D01*
X1038991Y-2315174D02*
X1038991Y-2362793D01*
X1038991Y-2362793D02*
X1029467Y-2400889D01*
X1029467Y-2400889D02*
X1019944Y-2419936D01*
X1019944Y-2419936D02*
X1010420Y-2429460D01*
X1010420Y-2429460D02*
X991372Y-2438984D01*
X991372Y-2438984D02*
X972325Y-2438984D01*
X972325Y-2438984D02*
X953277Y-2429460D01*
X953277Y-2429460D02*
X943753Y-2419936D01*
X943753Y-2419936D02*
X934229Y-2400889D01*
X934229Y-2400889D02*
X924706Y-2362793D01*
X924706Y-2362793D02*
X924706Y-2315174D01*
X924706Y-2315174D02*
X934229Y-2277079D01*
X934229Y-2277079D02*
X943753Y-2258031D01*
X943753Y-2258031D02*
X953277Y-2248508D01*
X953277Y-2248508D02*
X972325Y-2238984D01*
X1105658Y-2238984D02*
X1238991Y-2238984D01*
X1238991Y-2238984D02*
X1153277Y-2438984D01*
X1324706Y-2438984D02*
X1362801Y-2438984D01*
X1362801Y-2438984D02*
X1381849Y-2429460D01*
X1381849Y-2429460D02*
X1391372Y-2419936D01*
X1391372Y-2419936D02*
X1410420Y-2391365D01*
X1410420Y-2391365D02*
X1419944Y-2353270D01*
X1419944Y-2353270D02*
X1419944Y-2277079D01*
X1419944Y-2277079D02*
X1410420Y-2258031D01*
X1410420Y-2258031D02*
X1400896Y-2248508D01*
X1400896Y-2248508D02*
X1381849Y-2238984D01*
X1381849Y-2238984D02*
X1343753Y-2238984D01*
X1343753Y-2238984D02*
X1324706Y-2248508D01*
X1324706Y-2248508D02*
X1315182Y-2258031D01*
X1315182Y-2258031D02*
X1305658Y-2277079D01*
X1305658Y-2277079D02*
X1305658Y-2324698D01*
X1305658Y-2324698D02*
X1315182Y-2343746D01*
X1315182Y-2343746D02*
X1324706Y-2353270D01*
X1324706Y-2353270D02*
X1343753Y-2362793D01*
X1343753Y-2362793D02*
X1381849Y-2362793D01*
X1381849Y-2362793D02*
X1400896Y-2353270D01*
X1400896Y-2353270D02*
X1410420Y-2343746D01*
X1410420Y-2343746D02*
X1419944Y-2324698D01*
X1496134Y-2238984D02*
X1496134Y-2277079D01*
X1572325Y-2238984D02*
X1572325Y-2277079D01*
X1867563Y-2515174D02*
X1858039Y-2505650D01*
X1858039Y-2505650D02*
X1838991Y-2477079D01*
X1838991Y-2477079D02*
X1829468Y-2458031D01*
X1829468Y-2458031D02*
X1819944Y-2429460D01*
X1819944Y-2429460D02*
X1810420Y-2381841D01*
X1810420Y-2381841D02*
X1810420Y-2343746D01*
X1810420Y-2343746D02*
X1819944Y-2296127D01*
X1819944Y-2296127D02*
X1829468Y-2267555D01*
X1829468Y-2267555D02*
X1838991Y-2248508D01*
X1838991Y-2248508D02*
X1858039Y-2219936D01*
X1858039Y-2219936D02*
X1867563Y-2210412D01*
X2048515Y-2438984D02*
X1934229Y-2438984D01*
X1991372Y-2438984D02*
X1991372Y-2238984D01*
X1991372Y-2238984D02*
X1972325Y-2267555D01*
X1972325Y-2267555D02*
X1953277Y-2286603D01*
X1953277Y-2286603D02*
X1934229Y-2296127D01*
X2229468Y-2238984D02*
X2134230Y-2238984D01*
X2134230Y-2238984D02*
X2124706Y-2334222D01*
X2124706Y-2334222D02*
X2134230Y-2324698D01*
X2134230Y-2324698D02*
X2153277Y-2315174D01*
X2153277Y-2315174D02*
X2200896Y-2315174D01*
X2200896Y-2315174D02*
X2219944Y-2324698D01*
X2219944Y-2324698D02*
X2229468Y-2334222D01*
X2229468Y-2334222D02*
X2238991Y-2353270D01*
X2238991Y-2353270D02*
X2238991Y-2400889D01*
X2238991Y-2400889D02*
X2229468Y-2419936D01*
X2229468Y-2419936D02*
X2219944Y-2429460D01*
X2219944Y-2429460D02*
X2200896Y-2438984D01*
X2200896Y-2438984D02*
X2153277Y-2438984D01*
X2153277Y-2438984D02*
X2134230Y-2429460D01*
X2134230Y-2429460D02*
X2124706Y-2419936D01*
X2410420Y-2238984D02*
X2372325Y-2238984D01*
X2372325Y-2238984D02*
X2353277Y-2248508D01*
X2353277Y-2248508D02*
X2343753Y-2258031D01*
X2343753Y-2258031D02*
X2324706Y-2286603D01*
X2324706Y-2286603D02*
X2315182Y-2324698D01*
X2315182Y-2324698D02*
X2315182Y-2400889D01*
X2315182Y-2400889D02*
X2324706Y-2419936D01*
X2324706Y-2419936D02*
X2334230Y-2429460D01*
X2334230Y-2429460D02*
X2353277Y-2438984D01*
X2353277Y-2438984D02*
X2391372Y-2438984D01*
X2391372Y-2438984D02*
X2410420Y-2429460D01*
X2410420Y-2429460D02*
X2419944Y-2419936D01*
X2419944Y-2419936D02*
X2429468Y-2400889D01*
X2429468Y-2400889D02*
X2429468Y-2353270D01*
X2429468Y-2353270D02*
X2419944Y-2334222D01*
X2419944Y-2334222D02*
X2410420Y-2324698D01*
X2410420Y-2324698D02*
X2391372Y-2315174D01*
X2391372Y-2315174D02*
X2353277Y-2315174D01*
X2353277Y-2315174D02*
X2334230Y-2324698D01*
X2334230Y-2324698D02*
X2324706Y-2334222D01*
X2324706Y-2334222D02*
X2315182Y-2353270D01*
X2667563Y-2438984D02*
X2667563Y-2238984D01*
X2753277Y-2438984D02*
X2753277Y-2334222D01*
X2753277Y-2334222D02*
X2743753Y-2315174D01*
X2743753Y-2315174D02*
X2724706Y-2305650D01*
X2724706Y-2305650D02*
X2696134Y-2305650D01*
X2696134Y-2305650D02*
X2677087Y-2315174D01*
X2677087Y-2315174D02*
X2667563Y-2324698D01*
X2877087Y-2438984D02*
X2858039Y-2429460D01*
X2858039Y-2429460D02*
X2848515Y-2419936D01*
X2848515Y-2419936D02*
X2838991Y-2400889D01*
X2838991Y-2400889D02*
X2838991Y-2343746D01*
X2838991Y-2343746D02*
X2848515Y-2324698D01*
X2848515Y-2324698D02*
X2858039Y-2315174D01*
X2858039Y-2315174D02*
X2877087Y-2305650D01*
X2877087Y-2305650D02*
X2905658Y-2305650D01*
X2905658Y-2305650D02*
X2924706Y-2315174D01*
X2924706Y-2315174D02*
X2934230Y-2324698D01*
X2934230Y-2324698D02*
X2943753Y-2343746D01*
X2943753Y-2343746D02*
X2943753Y-2400889D01*
X2943753Y-2400889D02*
X2934230Y-2419936D01*
X2934230Y-2419936D02*
X2924706Y-2429460D01*
X2924706Y-2429460D02*
X2905658Y-2438984D01*
X2905658Y-2438984D02*
X2877087Y-2438984D01*
X3058039Y-2438984D02*
X3038991Y-2429460D01*
X3038991Y-2429460D02*
X3029468Y-2410412D01*
X3029468Y-2410412D02*
X3029468Y-2238984D01*
X3210420Y-2429460D02*
X3191372Y-2438984D01*
X3191372Y-2438984D02*
X3153277Y-2438984D01*
X3153277Y-2438984D02*
X3134230Y-2429460D01*
X3134230Y-2429460D02*
X3124706Y-2410412D01*
X3124706Y-2410412D02*
X3124706Y-2334222D01*
X3124706Y-2334222D02*
X3134230Y-2315174D01*
X3134230Y-2315174D02*
X3153277Y-2305650D01*
X3153277Y-2305650D02*
X3191372Y-2305650D01*
X3191372Y-2305650D02*
X3210420Y-2315174D01*
X3210420Y-2315174D02*
X3219944Y-2334222D01*
X3219944Y-2334222D02*
X3219944Y-2353270D01*
X3219944Y-2353270D02*
X3124706Y-2372317D01*
X3296134Y-2429460D02*
X3315182Y-2438984D01*
X3315182Y-2438984D02*
X3353277Y-2438984D01*
X3353277Y-2438984D02*
X3372325Y-2429460D01*
X3372325Y-2429460D02*
X3381849Y-2410412D01*
X3381849Y-2410412D02*
X3381849Y-2400889D01*
X3381849Y-2400889D02*
X3372325Y-2381841D01*
X3372325Y-2381841D02*
X3353277Y-2372317D01*
X3353277Y-2372317D02*
X3324706Y-2372317D01*
X3324706Y-2372317D02*
X3305658Y-2362793D01*
X3305658Y-2362793D02*
X3296134Y-2343746D01*
X3296134Y-2343746D02*
X3296134Y-2334222D01*
X3296134Y-2334222D02*
X3305658Y-2315174D01*
X3305658Y-2315174D02*
X3324706Y-2305650D01*
X3324706Y-2305650D02*
X3353277Y-2305650D01*
X3353277Y-2305650D02*
X3372325Y-2315174D01*
X3448515Y-2515174D02*
X3458039Y-2505650D01*
X3458039Y-2505650D02*
X3477087Y-2477079D01*
X3477087Y-2477079D02*
X3486611Y-2458031D01*
X3486611Y-2458031D02*
X3496134Y-2429460D01*
X3496134Y-2429460D02*
X3505658Y-2381841D01*
X3505658Y-2381841D02*
X3505658Y-2343746D01*
X3505658Y-2343746D02*
X3496134Y-2296127D01*
X3496134Y-2296127D02*
X3486611Y-2267555D01*
X3486611Y-2267555D02*
X3477087Y-2248508D01*
X3477087Y-2248508D02*
X3458039Y-2219936D01*
X3458039Y-2219936D02*
X3448515Y-2210412D01*
M02*
