%TF.GenerationSoftware,KiCad,Pcbnew,10.0.3*%
%TF.CreationDate,2026-09-10T08:04:11+02:00*%
%TF.ProjectId,aft_end_board,6166745f-656e-4645-9f62-6f6172642e6b,rev?*%
%TF.SameCoordinates,Original*%
%TF.FileFunction,Copper,L2,Inr*%
%TF.FilePolarity,Positive*%
%FSLAX46Y46*%
G04 Gerber Fmt 4.6, Leading zero omitted, Abs format (unit mm)*
G04 Created by KiCad (PCBNEW 10.0.3) date 2026-09-10 08:04:11*
%MOMM*%
%LPD*%
G01*
G04 APERTURE LIST*
%TA.AperFunction,ViaPad*%
%ADD10C,0.450000*%
%TD*%
G04 APERTURE END LIST*
D10*
%TO.N,EXT_CAN_TX*%
X-1820300Y558200D03*
X13116300Y8450000D03*
%TO.N,FLEX_GND*%
X2549200Y-9619800D03*
X-9170000Y-840000D03*
X4020000Y-7860000D03*
X-11640000Y6490000D03*
X-8120000Y9220000D03*
X7890000Y-10870000D03*
X11760000Y5650000D03*
X-7300000Y-13570000D03*
X9970000Y12180000D03*
%TO.N,COMP_5V*%
X-10917900Y-475000D03*
X12548100Y5250000D03*
X79500Y8613800D03*
X-719800Y4140700D03*
%TO.N,EXT_CAN_RX*%
X12350000Y-1995600D03*
X6662300Y2375200D03*
X-1653400Y4538600D03*
%TO.N,3V3*%
X14932400Y-4967600D03*
X1997900Y8929800D03*
%TO.N,EXT_CAN_N*%
X527000Y5078000D03*
X-5803100Y5029600D03*
X-5519200Y133500D03*
%TO.N,EXT_CAN_P*%
X1617900Y3138700D03*
X-7659400Y3698600D03*
%TO.N,BAT_PROT*%
X3859000Y7579300D03*
X1976700Y14561700D03*
%TO.N,GPIO_EXT_0*%
X6642300Y6678900D03*
X7573300Y12496700D03*
%TO.N,GPIO_EXT_1*%
X8839000Y5726200D03*
X7050400Y-13504900D03*
%TO.N,Y7_FIRE_SEL*%
X8800Y-5343600D03*
X6842500Y4894100D03*
X3537200Y-3748800D03*
%TO.N,Y6_FIRE_SEL*%
X5979100Y3326400D03*
X-6230700Y3239200D03*
%TO.N,Y5_FIRE_SEL*%
X1264900Y2746600D03*
X-8711500Y-4881500D03*
%TO.N,Y4_FIRE_SEL*%
X6794200Y3111300D03*
X-4120500Y-8143000D03*
X-1451900Y1532400D03*
%TO.N,Y3_FIRE_SEL*%
X1698900Y-5118500D03*
X6783600Y962300D03*
%TO.N,Y1_FIRE_SEL*%
X-4561000Y-2186900D03*
X5796500Y1159900D03*
%TO.N,Y2_FIRE_SEL*%
X-1174800Y187400D03*
X5794200Y15500D03*
%TO.N,Y0_FIRE_SEL*%
X3428100Y326800D03*
X-990200Y-9612800D03*
%TO.N,Y13_FIRE_SEL*%
X3386100Y-7094800D03*
X5880200Y-3052800D03*
X10725300Y-1057400D03*
%TO.N,Y12_FIRE_SEL*%
X9077400Y31300D03*
X-129400Y8029900D03*
X7107400Y6048700D03*
%TO.N,Y15_FIRE_SEL*%
X-4830800Y7483400D03*
X-5796400Y11092600D03*
X11637200Y642000D03*
%TO.N,Y14_FIRE_SEL*%
X8648100Y1863900D03*
X-5796300Y1194200D03*
X12456700Y1695500D03*
%TO.N,Y9_FIRE_SEL*%
X11710000Y1958700D03*
X-9937000Y3997500D03*
%TO.N,Y8_FIRE_SEL*%
X7684900Y-8267900D03*
X11734300Y2832400D03*
%TO.N,Y11_FIRE_SEL*%
X11859500Y3591000D03*
X-9072800Y738500D03*
%TO.N,Y10_FIRE_SEL*%
X3897000Y8460800D03*
X8883900Y3947200D03*
%TO.N,GPIO_EXT_2*%
X5874400Y-11595400D03*
X11631400Y4264800D03*
%TO.N,GPIO_EXT_3*%
X5617100Y-8540700D03*
X8782400Y982100D03*
%TO.N,FIRE_HV*%
X8272300Y8998800D03*
X6653300Y-157000D03*
X1461500Y815100D03*
%TO.N,ACTIVATE_CONFIRM*%
X331400Y848900D03*
X14708200Y-2533000D03*
X276000Y-1810200D03*
%TO.N,JUMP_PAD*%
X2816400Y-3653400D03*
X289300Y-9619800D03*
%TO.N,JUMP_WAKE*%
X5447300Y12497400D03*
X5528300Y-1380100D03*
%TO.N,ACT_WIRE_13*%
X7044200Y-14298300D03*
X4809500Y-7702300D03*
%TO.N,ACT_WIRE_3*%
X4751000Y-2830500D03*
X6640400Y12601500D03*
%TO.N,ACT_WIRE_1*%
X13153700Y4603900D03*
X-2966000Y-525900D03*
%TO.N,ACT_WIRE_12*%
X1679100Y7732200D03*
X1310700Y-15390700D03*
%TO.N,ACT_WIRE_5*%
X-7611500Y13057200D03*
X-7281900Y-1695400D03*
%TO.N,ACT_WIRE_6*%
X-7648400Y10610000D03*
%TO.N,ACT_WIRE_10*%
X6609900Y8312200D03*
X-9453400Y-9924300D03*
%TO.N,FIRE_ARM_G*%
X1782300Y-7317200D03*
X249100Y-2549400D03*
X8690400Y-5803700D03*
%TO.N,FIRE_ARM_GD*%
X-264100Y-1804300D03*
X-2538800Y-7544200D03*
%TO.N,ACT_WIRE_7*%
X-191500Y-3155900D03*
X-12498000Y7102000D03*
%TO.N,ACT_WIRE_0*%
X1908100Y-9752500D03*
X13184400Y-1068200D03*
%TO.N,ACTIVATE_SET*%
X9732000Y-1699700D03*
X-3204400Y-7446100D03*
%TO.N,ACT_WIRE_4*%
X-2021800Y-9029500D03*
X-1083600Y14151800D03*
%TO.N,3V3_AON*%
X3517200Y13250000D03*
X9733100Y-9619800D03*
%TO.N,BAT_RAW*%
X3406300Y10979200D03*
X967500Y-13190800D03*
X13192400Y2626700D03*
%TO.N,BOOT0*%
X3454600Y-4539500D03*
X13185100Y3581800D03*
%TO.N,COMP_SWDCLK*%
X-7207400Y-5727400D03*
X11595500Y-5373300D03*
%TO.N,COMP_SWDIO*%
X12926700Y-3589400D03*
X-8992000Y-3793700D03*
%TO.N,FIN1_AOUT1*%
X5764600Y4599600D03*
X9577600Y-3923600D03*
%TO.N,FIN2_AOUT1*%
X9993300Y-3091100D03*
X1500000Y4444100D03*
%TO.N,FIN3_AOUT1*%
X-498400Y4667600D03*
X10750000Y-1995600D03*
%TO.N,FIN4_AOUT1*%
X-2500000Y7272600D03*
X10750000Y9219500D03*
%TO.N,FIN_HALL*%
X9725200Y7685900D03*
X-3576600Y6893400D03*
%TO.N,FIN_VREF*%
X6192900Y7351300D03*
%TO.N,NRST*%
X-579400Y-5479900D03*
%TO.N,SWO*%
X1070500Y-6470300D03*
%TO.N,SYS_I2C_SCL*%
X3614300Y-11349600D03*
X4222100Y-4500000D03*
%TO.N,SYS_I2C_SDA*%
X4350000Y12481500D03*
X9238100Y-5428100D03*
%TO.N,SYS_SPI_CS_FIN*%
X3518100Y-13927500D03*
X5162400Y7838300D03*
%TO.N,SYS_SPI_MISO*%
X2709000Y7690900D03*
%TO.N,SYS_SPI_MOSI*%
X4291000Y10985100D03*
%TO.N,SYS_SPI_SCLK*%
X3853100Y11305800D03*
X-2641600Y9718000D03*
%TO.N,FIRE_ARMED*%
X6302000Y-1243300D03*
%TO.N,ACT_WIRE_15*%
X12893800Y-6706200D03*
X-3688200Y9316900D03*
%TO.N,ACT_WIRE_11*%
X-6733500Y-14720900D03*
X-8350300Y3059500D03*
%TO.N,ACT_WIRE_2*%
X1680500Y-2278200D03*
X8506100Y10735700D03*
%TO.N,ACT_WIRE_8*%
X-14079000Y921000D03*
X7316000Y-6252400D03*
%TO.N,ACT_WIRE_9*%
X-12599300Y-5150000D03*
X-8977000Y7813700D03*
%TO.N,ACT_WIRE_14*%
X10610000Y-9295000D03*
X-4838100Y3000200D03*
%TD*%
%TA.AperFunction,Conductor*%
%TO.N,FLEX_GND*%
G36*
X127940Y16494413D02*
G01*
X1352643Y16440931D01*
X1359388Y16440452D01*
X1571721Y16419538D01*
X1575753Y16419074D01*
X2838174Y16252857D01*
X2846178Y16251535D01*
X2931850Y16234494D01*
X2934494Y16233939D01*
X4151545Y15964167D01*
X4154840Y15963389D01*
X4319042Y15922258D01*
X4326204Y15920233D01*
X5511321Y15546518D01*
X5515804Y15545010D01*
X5738165Y15465447D01*
X5743838Y15463259D01*
X6871740Y14996119D01*
X6877309Y14993651D01*
X7092819Y14891723D01*
X7097062Y14889616D01*
X8198692Y14316109D01*
X8205180Y14312480D01*
X8348892Y14226343D01*
X8351769Y14224565D01*
X9403754Y13554379D01*
X9406019Y13552900D01*
X9479172Y13504021D01*
X9485769Y13499294D01*
X10496101Y12724028D01*
X10499279Y12721506D01*
X10663836Y12586457D01*
X10668939Y12582031D01*
X11572057Y11754563D01*
X11575970Y11750817D01*
X11750817Y11575970D01*
X11754563Y11572057D01*
X12582031Y10668939D01*
X12586457Y10663836D01*
X12721506Y10499279D01*
X12724028Y10496101D01*
X13499294Y9485769D01*
X13504021Y9479172D01*
X13552900Y9406019D01*
X13554379Y9403754D01*
X14224565Y8351769D01*
X14226343Y8348892D01*
X14312480Y8205180D01*
X14316109Y8198692D01*
X14889616Y7097062D01*
X14891723Y7092819D01*
X14993651Y6877309D01*
X14996119Y6871740D01*
X15463259Y5743838D01*
X15465447Y5738165D01*
X15545010Y5515804D01*
X15546518Y5511321D01*
X15920233Y4326204D01*
X15922258Y4319042D01*
X15963389Y4154840D01*
X15964167Y4151545D01*
X16233939Y2934494D01*
X16234494Y2931850D01*
X16251535Y2846178D01*
X16252857Y2838174D01*
X16419074Y1575753D01*
X16419538Y1571721D01*
X16440452Y1359388D01*
X16440931Y1352643D01*
X16494413Y127940D01*
X16494531Y122530D01*
X16494531Y-122530D01*
X16494413Y-127940D01*
X16440931Y-1352643D01*
X16440452Y-1359388D01*
X16419538Y-1571721D01*
X16419074Y-1575753D01*
X16252857Y-2838174D01*
X16251535Y-2846178D01*
X16234494Y-2931850D01*
X16233939Y-2934494D01*
X15964167Y-4151545D01*
X15963389Y-4154840D01*
X15922258Y-4319042D01*
X15920233Y-4326204D01*
X15546518Y-5511321D01*
X15545010Y-5515804D01*
X15465447Y-5738165D01*
X15463259Y-5743838D01*
X14996119Y-6871740D01*
X14993651Y-6877309D01*
X14891723Y-7092819D01*
X14889616Y-7097062D01*
X14316109Y-8198692D01*
X14312480Y-8205180D01*
X14226343Y-8348892D01*
X14224565Y-8351769D01*
X13554379Y-9403754D01*
X13552900Y-9406019D01*
X13504021Y-9479172D01*
X13499294Y-9485769D01*
X12724028Y-10496101D01*
X12721506Y-10499279D01*
X12586457Y-10663836D01*
X12582031Y-10668939D01*
X11754563Y-11572057D01*
X11750817Y-11575970D01*
X11575970Y-11750817D01*
X11572057Y-11754563D01*
X10668939Y-12582031D01*
X10663836Y-12586457D01*
X10499279Y-12721506D01*
X10496101Y-12724028D01*
X9485769Y-13499294D01*
X9479172Y-13504021D01*
X9406019Y-13552900D01*
X9403754Y-13554379D01*
X8351769Y-14224565D01*
X8348892Y-14226343D01*
X8205180Y-14312480D01*
X8198692Y-14316109D01*
X7611842Y-14621623D01*
X7543288Y-14635120D01*
X7478320Y-14609411D01*
X7437565Y-14552659D01*
X7433962Y-14482882D01*
X7440022Y-14464179D01*
X7440697Y-14462547D01*
X7440703Y-14462537D01*
X7469700Y-14354318D01*
X7469700Y-14242282D01*
X7440703Y-14134063D01*
X7384685Y-14037037D01*
X7340029Y-13992381D01*
X7306544Y-13931058D01*
X7311528Y-13861366D01*
X7340029Y-13817019D01*
X7346229Y-13810819D01*
X7390885Y-13766163D01*
X7446903Y-13669137D01*
X7475900Y-13560918D01*
X7475900Y-13448882D01*
X7446903Y-13340663D01*
X7390885Y-13243637D01*
X7311663Y-13164415D01*
X7214637Y-13108397D01*
X7106418Y-13079400D01*
X6994382Y-13079400D01*
X6886163Y-13108397D01*
X6886160Y-13108398D01*
X6789140Y-13164413D01*
X6789134Y-13164417D01*
X6709917Y-13243634D01*
X6709913Y-13243640D01*
X6653898Y-13340660D01*
X6653897Y-13340663D01*
X6624900Y-13448882D01*
X6624900Y-13560918D01*
X6653897Y-13669137D01*
X6709915Y-13766163D01*
X6709917Y-13766165D01*
X6754571Y-13810819D01*
X6788056Y-13872142D01*
X6783072Y-13941834D01*
X6754571Y-13986181D01*
X6703717Y-14037034D01*
X6703713Y-14037040D01*
X6647698Y-14134060D01*
X6647697Y-14134063D01*
X6618700Y-14242282D01*
X6618700Y-14354318D01*
X6647697Y-14462537D01*
X6703715Y-14559563D01*
X6782937Y-14638785D01*
X6879963Y-14694803D01*
X6955315Y-14714993D01*
X6978411Y-14729071D01*
X7003161Y-14739976D01*
X7007797Y-14746982D01*
X7014973Y-14751356D01*
X7026792Y-14775686D01*
X7041719Y-14798243D01*
X7041831Y-14806644D01*
X7045503Y-14814203D01*
X7042292Y-14841061D01*
X7042654Y-14868106D01*
X7038206Y-14875234D01*
X7037209Y-14883579D01*
X7019986Y-14904437D01*
X7005670Y-14927385D01*
X6995463Y-14934138D01*
X6992724Y-14937457D01*
X6976236Y-14946862D01*
X6877308Y-14993651D01*
X6871740Y-14996119D01*
X5743838Y-15463259D01*
X5738165Y-15465447D01*
X5515804Y-15545010D01*
X5511321Y-15546518D01*
X4326204Y-15920233D01*
X4319042Y-15922258D01*
X4154840Y-15963389D01*
X4151545Y-15964167D01*
X2934494Y-16233939D01*
X2931850Y-16234494D01*
X2846178Y-16251535D01*
X2838174Y-16252857D01*
X1575753Y-16419074D01*
X1571721Y-16419538D01*
X1359388Y-16440452D01*
X1352643Y-16440931D01*
X127940Y-16494413D01*
X122530Y-16494531D01*
X-122530Y-16494531D01*
X-127940Y-16494413D01*
X-1352643Y-16440931D01*
X-1359388Y-16440452D01*
X-1571721Y-16419538D01*
X-1575753Y-16419074D01*
X-2838174Y-16252857D01*
X-2846178Y-16251535D01*
X-2931850Y-16234494D01*
X-2934494Y-16233939D01*
X-4151545Y-15964167D01*
X-4154840Y-15963389D01*
X-4319042Y-15922258D01*
X-4326204Y-15920233D01*
X-5511321Y-15546518D01*
X-5515804Y-15545010D01*
X-5738165Y-15465447D01*
X-5743838Y-15463259D01*
X-5797297Y-15441118D01*
X-6054285Y-15334682D01*
X885200Y-15334682D01*
X885200Y-15446718D01*
X914197Y-15554937D01*
X970215Y-15651963D01*
X1049437Y-15731185D01*
X1146463Y-15787203D01*
X1254682Y-15816200D01*
X1254684Y-15816200D01*
X1366716Y-15816200D01*
X1366718Y-15816200D01*
X1474937Y-15787203D01*
X1571963Y-15731185D01*
X1651185Y-15651963D01*
X1707203Y-15554937D01*
X1736200Y-15446718D01*
X1736200Y-15334682D01*
X1707203Y-15226463D01*
X1651185Y-15129437D01*
X1571963Y-15050215D01*
X1474937Y-14994197D01*
X1366718Y-14965200D01*
X1254682Y-14965200D01*
X1146463Y-14994197D01*
X1146460Y-14994198D01*
X1049440Y-15050213D01*
X1049434Y-15050217D01*
X970217Y-15129434D01*
X970213Y-15129440D01*
X914198Y-15226460D01*
X914197Y-15226463D01*
X885200Y-15334682D01*
X-6054285Y-15334682D01*
X-6371625Y-15203250D01*
X-6426030Y-15159411D01*
X-6448098Y-15093118D01*
X-6430821Y-15025418D01*
X-6411858Y-15001006D01*
X-6393017Y-14982165D01*
X-6393015Y-14982163D01*
X-6336997Y-14885137D01*
X-6308000Y-14776918D01*
X-6308000Y-14664882D01*
X-6336997Y-14556663D01*
X-6336998Y-14556660D01*
X-6393013Y-14459640D01*
X-6393017Y-14459634D01*
X-6472234Y-14380417D01*
X-6472240Y-14380413D01*
X-6569260Y-14324398D01*
X-6569263Y-14324397D01*
X-6677482Y-14295400D01*
X-6789518Y-14295400D01*
X-6897737Y-14324397D01*
X-6994763Y-14380415D01*
X-7073985Y-14459637D01*
X-7130003Y-14556663D01*
X-7159000Y-14664882D01*
X-7159000Y-14664893D01*
X-7159599Y-14669440D01*
X-7187864Y-14733337D01*
X-7246187Y-14771811D01*
X-7316051Y-14772645D01*
X-7339799Y-14763247D01*
X-8198692Y-14316109D01*
X-8205180Y-14312480D01*
X-8348892Y-14226343D01*
X-8351769Y-14224565D01*
X-8754597Y-13967936D01*
X-8906000Y-13871482D01*
X3092600Y-13871482D01*
X3092600Y-13983518D01*
X3121597Y-14091737D01*
X3177615Y-14188763D01*
X3256837Y-14267985D01*
X3353863Y-14324003D01*
X3462082Y-14353000D01*
X3462084Y-14353000D01*
X3574116Y-14353000D01*
X3574118Y-14353000D01*
X3682337Y-14324003D01*
X3779363Y-14267985D01*
X3858585Y-14188763D01*
X3914603Y-14091737D01*
X3943600Y-13983518D01*
X3943600Y-13871482D01*
X3914603Y-13763263D01*
X3858585Y-13666237D01*
X3779363Y-13587015D01*
X3682337Y-13530997D01*
X3574118Y-13502000D01*
X3462082Y-13502000D01*
X3353863Y-13530997D01*
X3353860Y-13530998D01*
X3256840Y-13587013D01*
X3256834Y-13587017D01*
X3177617Y-13666234D01*
X3177613Y-13666240D01*
X3121598Y-13763260D01*
X3121597Y-13763263D01*
X3092600Y-13871482D01*
X-8906000Y-13871482D01*
X-9403754Y-13554379D01*
X-9406019Y-13552900D01*
X-9479172Y-13504021D01*
X-9485769Y-13499294D01*
X-9843192Y-13225030D01*
X-9960804Y-13134782D01*
X542000Y-13134782D01*
X542000Y-13246818D01*
X570997Y-13355037D01*
X627015Y-13452063D01*
X706237Y-13531285D01*
X803263Y-13587303D01*
X911482Y-13616300D01*
X911484Y-13616300D01*
X1023516Y-13616300D01*
X1023518Y-13616300D01*
X1131737Y-13587303D01*
X1228763Y-13531285D01*
X1307985Y-13452063D01*
X1364003Y-13355037D01*
X1393000Y-13246818D01*
X1393000Y-13134782D01*
X1364003Y-13026563D01*
X1307985Y-12929537D01*
X1228763Y-12850315D01*
X1131737Y-12794297D01*
X1023518Y-12765300D01*
X911482Y-12765300D01*
X803263Y-12794297D01*
X803260Y-12794298D01*
X706240Y-12850313D01*
X706234Y-12850317D01*
X627017Y-12929534D01*
X627013Y-12929540D01*
X570998Y-13026560D01*
X570997Y-13026563D01*
X542000Y-13134782D01*
X-9960804Y-13134782D01*
X-10496101Y-12724028D01*
X-10499279Y-12721506D01*
X-10663836Y-12586457D01*
X-10668939Y-12582031D01*
X-11572057Y-11754563D01*
X-11575970Y-11750817D01*
X-11750817Y-11575970D01*
X-11754563Y-11572058D01*
X-11940407Y-11369224D01*
X-11940408Y-11369221D01*
X-12009711Y-11293582D01*
X3188800Y-11293582D01*
X3188800Y-11405618D01*
X3217797Y-11513837D01*
X3273815Y-11610863D01*
X3353037Y-11690085D01*
X3450063Y-11746103D01*
X3558282Y-11775100D01*
X3558284Y-11775100D01*
X3670316Y-11775100D01*
X3670318Y-11775100D01*
X3778537Y-11746103D01*
X3875563Y-11690085D01*
X3954785Y-11610863D01*
X3996055Y-11539382D01*
X5448900Y-11539382D01*
X5448900Y-11651418D01*
X5476538Y-11754563D01*
X5477897Y-11759636D01*
X5477898Y-11759639D01*
X5496569Y-11791979D01*
X5533915Y-11856663D01*
X5613137Y-11935885D01*
X5710163Y-11991903D01*
X5818382Y-12020900D01*
X5818384Y-12020900D01*
X5930416Y-12020900D01*
X5930418Y-12020900D01*
X6038637Y-11991903D01*
X6135663Y-11935885D01*
X6214885Y-11856663D01*
X6270903Y-11759637D01*
X6299900Y-11651418D01*
X6299900Y-11539382D01*
X6270903Y-11431163D01*
X6214885Y-11334137D01*
X6135663Y-11254915D01*
X6038637Y-11198897D01*
X5930418Y-11169900D01*
X5818382Y-11169900D01*
X5710163Y-11198897D01*
X5710160Y-11198898D01*
X5613140Y-11254913D01*
X5613134Y-11254917D01*
X5533917Y-11334134D01*
X5533913Y-11334140D01*
X5477898Y-11431160D01*
X5477897Y-11431163D01*
X5448900Y-11539382D01*
X3996055Y-11539382D01*
X4010803Y-11513837D01*
X4039800Y-11405618D01*
X4039800Y-11293582D01*
X4010803Y-11185363D01*
X3954785Y-11088337D01*
X3875563Y-11009115D01*
X3778537Y-10953097D01*
X3670318Y-10924100D01*
X3558282Y-10924100D01*
X3450063Y-10953097D01*
X3450060Y-10953098D01*
X3353040Y-11009113D01*
X3353034Y-11009117D01*
X3273817Y-11088334D01*
X3273813Y-11088340D01*
X3217798Y-11185360D01*
X3217797Y-11185363D01*
X3188800Y-11293582D01*
X-12009711Y-11293582D01*
X-12582031Y-10668939D01*
X-12586457Y-10663836D01*
X-12721506Y-10499279D01*
X-12724028Y-10496101D01*
X-13154089Y-9935642D01*
X-13205777Y-9868282D01*
X-9878900Y-9868282D01*
X-9878900Y-9980318D01*
X-9849903Y-10088537D01*
X-9793885Y-10185563D01*
X-9714663Y-10264785D01*
X-9617637Y-10320803D01*
X-9509418Y-10349800D01*
X-9509416Y-10349800D01*
X-9397384Y-10349800D01*
X-9397382Y-10349800D01*
X-9289163Y-10320803D01*
X-9192137Y-10264785D01*
X-9112915Y-10185563D01*
X-9075569Y-10120879D01*
X-9056898Y-10088539D01*
X-9056897Y-10088536D01*
X-9045311Y-10045299D01*
X-9027900Y-9980318D01*
X-9027900Y-9868282D01*
X-9056897Y-9760063D01*
X-9056898Y-9760060D01*
X-9112913Y-9663040D01*
X-9112917Y-9663034D01*
X-9192134Y-9583817D01*
X-9192140Y-9583813D01*
X-9238959Y-9556782D01*
X-1415700Y-9556782D01*
X-1415700Y-9668818D01*
X-1386703Y-9777037D01*
X-1330685Y-9874063D01*
X-1251463Y-9953285D01*
X-1154437Y-10009303D01*
X-1046218Y-10038300D01*
X-1046216Y-10038300D01*
X-934184Y-10038300D01*
X-934182Y-10038300D01*
X-825963Y-10009303D01*
X-728937Y-9953285D01*
X-649715Y-9874063D01*
X-611871Y-9808516D01*
X-593698Y-9777039D01*
X-593697Y-9777036D01*
X-572112Y-9696482D01*
X-564700Y-9668818D01*
X-564700Y-9563782D01*
X-136200Y-9563782D01*
X-136200Y-9675818D01*
X-107203Y-9784037D01*
X-51185Y-9881063D01*
X28037Y-9960285D01*
X125063Y-10016303D01*
X233282Y-10045300D01*
X233284Y-10045300D01*
X345316Y-10045300D01*
X345318Y-10045300D01*
X453537Y-10016303D01*
X550563Y-9960285D01*
X629785Y-9881063D01*
X685803Y-9784037D01*
X709263Y-9696482D01*
X1482600Y-9696482D01*
X1482600Y-9808518D01*
X1511597Y-9916737D01*
X1567615Y-10013763D01*
X1646837Y-10092985D01*
X1743863Y-10149003D01*
X1852082Y-10178000D01*
X1852084Y-10178000D01*
X1964116Y-10178000D01*
X1964118Y-10178000D01*
X2072337Y-10149003D01*
X2169363Y-10092985D01*
X2248585Y-10013763D01*
X2304603Y-9916737D01*
X2333600Y-9808518D01*
X2333600Y-9696482D01*
X2304603Y-9588263D01*
X2290469Y-9563782D01*
X9307600Y-9563782D01*
X9307600Y-9675818D01*
X9336597Y-9784037D01*
X9392615Y-9881063D01*
X9471837Y-9960285D01*
X9568863Y-10016303D01*
X9677082Y-10045300D01*
X9677084Y-10045300D01*
X9789116Y-10045300D01*
X9789118Y-10045300D01*
X9897337Y-10016303D01*
X9994363Y-9960285D01*
X10073585Y-9881063D01*
X10129603Y-9784037D01*
X10151959Y-9700600D01*
X10188322Y-9640943D01*
X10251169Y-9610413D01*
X10320545Y-9618707D01*
X10347221Y-9634322D01*
X10348734Y-9635482D01*
X10348737Y-9635485D01*
X10445763Y-9691503D01*
X10553982Y-9720500D01*
X10553984Y-9720500D01*
X10666016Y-9720500D01*
X10666018Y-9720500D01*
X10774237Y-9691503D01*
X10871263Y-9635485D01*
X10950485Y-9556263D01*
X11006503Y-9459237D01*
X11035500Y-9351018D01*
X11035500Y-9238982D01*
X11006503Y-9130763D01*
X10950485Y-9033737D01*
X10871263Y-8954515D01*
X10774237Y-8898497D01*
X10666018Y-8869500D01*
X10553982Y-8869500D01*
X10445763Y-8898497D01*
X10445760Y-8898498D01*
X10348740Y-8954513D01*
X10348734Y-8954517D01*
X10269517Y-9033734D01*
X10269513Y-9033740D01*
X10213498Y-9130760D01*
X10213497Y-9130761D01*
X10191141Y-9214197D01*
X10154775Y-9273857D01*
X10091928Y-9304386D01*
X10022553Y-9296091D01*
X9995880Y-9280479D01*
X9994363Y-9279315D01*
X9897339Y-9223298D01*
X9897338Y-9223297D01*
X9897337Y-9223297D01*
X9789118Y-9194300D01*
X9677082Y-9194300D01*
X9568863Y-9223297D01*
X9568860Y-9223298D01*
X9471840Y-9279313D01*
X9471834Y-9279317D01*
X9392617Y-9358534D01*
X9392613Y-9358540D01*
X9336598Y-9455560D01*
X9336597Y-9455563D01*
X9307600Y-9563782D01*
X2290469Y-9563782D01*
X2248585Y-9491237D01*
X2169363Y-9412015D01*
X2076742Y-9358540D01*
X2072339Y-9355998D01*
X2072338Y-9355997D01*
X2072337Y-9355997D01*
X1964118Y-9327000D01*
X1852082Y-9327000D01*
X1743863Y-9355997D01*
X1743860Y-9355998D01*
X1646840Y-9412013D01*
X1646834Y-9412017D01*
X1567617Y-9491234D01*
X1567613Y-9491240D01*
X1511598Y-9588260D01*
X1511597Y-9588263D01*
X1482600Y-9696482D01*
X709263Y-9696482D01*
X714800Y-9675818D01*
X714800Y-9563782D01*
X685803Y-9455563D01*
X629785Y-9358537D01*
X550563Y-9279315D01*
X453537Y-9223297D01*
X345318Y-9194300D01*
X233282Y-9194300D01*
X125063Y-9223297D01*
X125060Y-9223298D01*
X28040Y-9279313D01*
X28034Y-9279317D01*
X-19648Y-9327000D01*
X-51185Y-9358537D01*
X-107203Y-9455563D01*
X-136200Y-9563782D01*
X-564700Y-9563782D01*
X-564700Y-9556782D01*
X-593697Y-9448563D01*
X-593698Y-9448560D01*
X-649713Y-9351540D01*
X-649717Y-9351534D01*
X-728934Y-9272317D01*
X-728940Y-9272313D01*
X-825960Y-9216298D01*
X-825963Y-9216297D01*
X-934182Y-9187300D01*
X-1046218Y-9187300D01*
X-1154437Y-9216297D01*
X-1154438Y-9216297D01*
X-1154439Y-9216298D01*
X-1166563Y-9223298D01*
X-1251463Y-9272315D01*
X-1330685Y-9351537D01*
X-1386703Y-9448563D01*
X-1415700Y-9556782D01*
X-9238959Y-9556782D01*
X-9289160Y-9527798D01*
X-9289163Y-9527797D01*
X-9397382Y-9498800D01*
X-9509418Y-9498800D01*
X-9617637Y-9527797D01*
X-9714663Y-9583815D01*
X-9793885Y-9663037D01*
X-9849903Y-9760063D01*
X-9878900Y-9868282D01*
X-13205777Y-9868282D01*
X-13499294Y-9485769D01*
X-13504021Y-9479172D01*
X-13552900Y-9406019D01*
X-13554379Y-9403754D01*
X-13791224Y-9031980D01*
X-13828491Y-8973482D01*
X-2447300Y-8973482D01*
X-2447300Y-9085518D01*
X-2418303Y-9193737D01*
X-2362285Y-9290763D01*
X-2283063Y-9369985D01*
X-2186037Y-9426003D01*
X-2077818Y-9455000D01*
X-2077816Y-9455000D01*
X-1965784Y-9455000D01*
X-1965782Y-9455000D01*
X-1857563Y-9426003D01*
X-1760537Y-9369985D01*
X-1681315Y-9290763D01*
X-1625297Y-9193737D01*
X-1596300Y-9085518D01*
X-1596300Y-8973482D01*
X-1625297Y-8865263D01*
X-1625298Y-8865260D01*
X-1681313Y-8768240D01*
X-1681317Y-8768234D01*
X-1760534Y-8689017D01*
X-1760540Y-8689013D01*
X-1857560Y-8632998D01*
X-1857563Y-8632997D01*
X-1965782Y-8604000D01*
X-2077818Y-8604000D01*
X-2186037Y-8632997D01*
X-2283063Y-8689015D01*
X-2362285Y-8768237D01*
X-2418303Y-8865263D01*
X-2447300Y-8973482D01*
X-13828491Y-8973482D01*
X-14224565Y-8351769D01*
X-14226343Y-8348892D01*
X-14312480Y-8205180D01*
X-14316109Y-8198691D01*
X-14348684Y-8136116D01*
X-14348686Y-8136115D01*
X-14374265Y-8086982D01*
X-4546000Y-8086982D01*
X-4546000Y-8199018D01*
X-4517003Y-8307237D01*
X-4460985Y-8404263D01*
X-4381763Y-8483485D01*
X-4284737Y-8539503D01*
X-4176518Y-8568500D01*
X-4176516Y-8568500D01*
X-4064484Y-8568500D01*
X-4064482Y-8568500D01*
X-3956263Y-8539503D01*
X-3861310Y-8484682D01*
X5191600Y-8484682D01*
X5191600Y-8596718D01*
X5220597Y-8704937D01*
X5276615Y-8801963D01*
X5355837Y-8881185D01*
X5452863Y-8937203D01*
X5561082Y-8966200D01*
X5561084Y-8966200D01*
X5673116Y-8966200D01*
X5673118Y-8966200D01*
X5781337Y-8937203D01*
X5878363Y-8881185D01*
X5957585Y-8801963D01*
X6013603Y-8704937D01*
X6042600Y-8596718D01*
X6042600Y-8484682D01*
X6013603Y-8376463D01*
X5957585Y-8279437D01*
X5890030Y-8211882D01*
X7259400Y-8211882D01*
X7259400Y-8323918D01*
X7288397Y-8432137D01*
X7344415Y-8529163D01*
X7423637Y-8608385D01*
X7520663Y-8664403D01*
X7628882Y-8693400D01*
X7628884Y-8693400D01*
X7740916Y-8693400D01*
X7740918Y-8693400D01*
X7849137Y-8664403D01*
X7946163Y-8608385D01*
X8025385Y-8529163D01*
X8081403Y-8432137D01*
X8110400Y-8323918D01*
X8110400Y-8211882D01*
X8081403Y-8103663D01*
X8025385Y-8006637D01*
X7946163Y-7927415D01*
X7872154Y-7884686D01*
X7849139Y-7871398D01*
X7849138Y-7871397D01*
X7849137Y-7871397D01*
X7740918Y-7842400D01*
X7628882Y-7842400D01*
X7520663Y-7871397D01*
X7520660Y-7871398D01*
X7423640Y-7927413D01*
X7423634Y-7927417D01*
X7344417Y-8006634D01*
X7344413Y-8006640D01*
X7288398Y-8103660D01*
X7288397Y-8103663D01*
X7259400Y-8211882D01*
X5890030Y-8211882D01*
X5878363Y-8200215D01*
X5781337Y-8144197D01*
X5673118Y-8115200D01*
X5561082Y-8115200D01*
X5452863Y-8144197D01*
X5452860Y-8144198D01*
X5355840Y-8200213D01*
X5355834Y-8200217D01*
X5276617Y-8279434D01*
X5276613Y-8279440D01*
X5220598Y-8376460D01*
X5220597Y-8376463D01*
X5191600Y-8484682D01*
X-3861310Y-8484682D01*
X-3859237Y-8483485D01*
X-3780015Y-8404263D01*
X-3723997Y-8307237D01*
X-3695000Y-8199018D01*
X-3695000Y-8086982D01*
X-3723997Y-7978763D01*
X-3723998Y-7978760D01*
X-3780013Y-7881740D01*
X-3780017Y-7881734D01*
X-3859234Y-7802517D01*
X-3859240Y-7802513D01*
X-3956260Y-7746498D01*
X-3956263Y-7746497D01*
X-4064482Y-7717500D01*
X-4176518Y-7717500D01*
X-4284737Y-7746497D01*
X-4381763Y-7802515D01*
X-4460985Y-7881737D01*
X-4517003Y-7978763D01*
X-4546000Y-8086982D01*
X-14374265Y-8086982D01*
X-14711491Y-7439215D01*
X-14737070Y-7390082D01*
X-3629900Y-7390082D01*
X-3629900Y-7502118D01*
X-3600903Y-7610337D01*
X-3544885Y-7707363D01*
X-3465663Y-7786585D01*
X-3368637Y-7842603D01*
X-3260418Y-7871600D01*
X-3260416Y-7871600D01*
X-3148384Y-7871600D01*
X-3148382Y-7871600D01*
X-3040163Y-7842603D01*
X-2997024Y-7817696D01*
X-2929125Y-7801224D01*
X-2863098Y-7824076D01*
X-2847349Y-7837398D01*
X-2800063Y-7884685D01*
X-2703037Y-7940703D01*
X-2594818Y-7969700D01*
X-2594816Y-7969700D01*
X-2482784Y-7969700D01*
X-2482782Y-7969700D01*
X-2374563Y-7940703D01*
X-2277537Y-7884685D01*
X-2198315Y-7805463D01*
X-2160969Y-7740779D01*
X-2142298Y-7708439D01*
X-2142297Y-7708436D01*
X-2128698Y-7657686D01*
X-2113300Y-7600218D01*
X-2113300Y-7488182D01*
X-2142297Y-7379963D01*
X-2142298Y-7379960D01*
X-2179772Y-7315055D01*
X-2179771Y-7315055D01*
X-2198315Y-7282937D01*
X-2198317Y-7282934D01*
X-2220069Y-7261182D01*
X1356800Y-7261182D01*
X1356800Y-7373218D01*
X1358608Y-7379963D01*
X1385797Y-7481436D01*
X1385798Y-7481439D01*
X1391493Y-7491303D01*
X1441815Y-7578463D01*
X1521037Y-7657685D01*
X1618063Y-7713703D01*
X1726282Y-7742700D01*
X1726284Y-7742700D01*
X1838316Y-7742700D01*
X1838318Y-7742700D01*
X1946537Y-7713703D01*
X2043563Y-7657685D01*
X2054966Y-7646282D01*
X4384000Y-7646282D01*
X4384000Y-7758318D01*
X4406584Y-7842601D01*
X4412997Y-7866536D01*
X4412998Y-7866539D01*
X4415920Y-7871600D01*
X4469015Y-7963563D01*
X4548237Y-8042785D01*
X4645263Y-8098803D01*
X4753482Y-8127800D01*
X4753484Y-8127800D01*
X4865516Y-8127800D01*
X4865518Y-8127800D01*
X4973737Y-8098803D01*
X5070763Y-8042785D01*
X5149985Y-7963563D01*
X5206003Y-7866537D01*
X5235000Y-7758318D01*
X5235000Y-7646282D01*
X5206003Y-7538063D01*
X5149985Y-7441037D01*
X5070763Y-7361815D01*
X4973737Y-7305797D01*
X4865518Y-7276800D01*
X4753482Y-7276800D01*
X4645263Y-7305797D01*
X4645260Y-7305798D01*
X4548240Y-7361813D01*
X4548234Y-7361817D01*
X4469017Y-7441034D01*
X4469013Y-7441040D01*
X4412998Y-7538060D01*
X4412997Y-7538063D01*
X4384000Y-7646282D01*
X2054966Y-7646282D01*
X2122785Y-7578463D01*
X2178803Y-7481437D01*
X2207800Y-7373218D01*
X2207800Y-7261182D01*
X2178803Y-7152963D01*
X2122785Y-7055937D01*
X2105630Y-7038782D01*
X2960600Y-7038782D01*
X2960600Y-7150818D01*
X2969716Y-7184837D01*
X2989597Y-7259036D01*
X2989598Y-7259039D01*
X2999852Y-7276800D01*
X3045615Y-7356063D01*
X3124837Y-7435285D01*
X3221863Y-7491303D01*
X3330082Y-7520300D01*
X3330084Y-7520300D01*
X3442115Y-7520300D01*
X3442118Y-7520300D01*
X3550337Y-7491303D01*
X3647363Y-7435285D01*
X3726585Y-7356063D01*
X3782603Y-7259037D01*
X3811600Y-7150818D01*
X3811600Y-7038782D01*
X3782603Y-6930563D01*
X3726585Y-6833537D01*
X3647363Y-6754315D01*
X3550337Y-6698297D01*
X3442118Y-6669300D01*
X3330082Y-6669300D01*
X3221863Y-6698297D01*
X3221860Y-6698298D01*
X3124840Y-6754313D01*
X3124834Y-6754317D01*
X3045617Y-6833534D01*
X3045613Y-6833540D01*
X2989598Y-6930560D01*
X2989597Y-6930563D01*
X2960600Y-7038782D01*
X2105630Y-7038782D01*
X2043563Y-6976715D01*
X1978879Y-6939369D01*
X1946539Y-6920698D01*
X1946538Y-6920697D01*
X1946537Y-6920697D01*
X1838318Y-6891700D01*
X1726282Y-6891700D01*
X1618063Y-6920697D01*
X1618060Y-6920698D01*
X1521040Y-6976713D01*
X1521034Y-6976717D01*
X1441817Y-7055934D01*
X1441813Y-7055940D01*
X1385798Y-7152960D01*
X1385797Y-7152963D01*
X1356800Y-7261182D01*
X-2220069Y-7261182D01*
X-2277534Y-7203717D01*
X-2277540Y-7203713D01*
X-2374560Y-7147698D01*
X-2374563Y-7147697D01*
X-2482782Y-7118700D01*
X-2594818Y-7118700D01*
X-2703037Y-7147697D01*
X-2703038Y-7147697D01*
X-2703039Y-7147698D01*
X-2746174Y-7172602D01*
X-2814074Y-7189075D01*
X-2880101Y-7166222D01*
X-2895854Y-7152897D01*
X-2943133Y-7105618D01*
X-2943140Y-7105613D01*
X-3040160Y-7049598D01*
X-3040163Y-7049597D01*
X-3148382Y-7020600D01*
X-3260418Y-7020600D01*
X-3368637Y-7049597D01*
X-3368638Y-7049597D01*
X-3368639Y-7049598D01*
X-3400979Y-7068269D01*
X-3465663Y-7105615D01*
X-3544885Y-7184837D01*
X-3600903Y-7281863D01*
X-3629900Y-7390082D01*
X-14737070Y-7390082D01*
X-14889616Y-7097062D01*
X-14891723Y-7092819D01*
X-14993651Y-6877309D01*
X-14996119Y-6871740D01*
X-15169298Y-6453603D01*
X-15185583Y-6414282D01*
X645000Y-6414282D01*
X645000Y-6526318D01*
X673997Y-6634537D01*
X730015Y-6731563D01*
X809237Y-6810785D01*
X906263Y-6866803D01*
X1014482Y-6895800D01*
X1014484Y-6895800D01*
X1126516Y-6895800D01*
X1126518Y-6895800D01*
X1234737Y-6866803D01*
X1331763Y-6810785D01*
X1410985Y-6731563D01*
X1467003Y-6634537D01*
X1496000Y-6526318D01*
X1496000Y-6414282D01*
X1467003Y-6306063D01*
X1410985Y-6209037D01*
X1398330Y-6196382D01*
X6890500Y-6196382D01*
X6890500Y-6308418D01*
X6919497Y-6416637D01*
X6975515Y-6513663D01*
X7054737Y-6592885D01*
X7151763Y-6648903D01*
X7259982Y-6677900D01*
X7259984Y-6677900D01*
X7372016Y-6677900D01*
X7372018Y-6677900D01*
X7475464Y-6650182D01*
X12468300Y-6650182D01*
X12468300Y-6762218D01*
X12496324Y-6866803D01*
X12497297Y-6870436D01*
X12497298Y-6870439D01*
X12509573Y-6891700D01*
X12553315Y-6967463D01*
X12632537Y-7046685D01*
X12729563Y-7102703D01*
X12837782Y-7131700D01*
X12837784Y-7131700D01*
X12949816Y-7131700D01*
X12949818Y-7131700D01*
X13058037Y-7102703D01*
X13155063Y-7046685D01*
X13234285Y-6967463D01*
X13290303Y-6870437D01*
X13319300Y-6762218D01*
X13319300Y-6650182D01*
X13290303Y-6541963D01*
X13234285Y-6444937D01*
X13155063Y-6365715D01*
X13058037Y-6309697D01*
X12949818Y-6280700D01*
X12837782Y-6280700D01*
X12729563Y-6309697D01*
X12729560Y-6309698D01*
X12632540Y-6365713D01*
X12632534Y-6365717D01*
X12553317Y-6444934D01*
X12553313Y-6444940D01*
X12497298Y-6541960D01*
X12497297Y-6541963D01*
X12468300Y-6650182D01*
X7475464Y-6650182D01*
X7480237Y-6648903D01*
X7577263Y-6592885D01*
X7656485Y-6513663D01*
X7712503Y-6416637D01*
X7741500Y-6308418D01*
X7741500Y-6196382D01*
X7712503Y-6088163D01*
X7656485Y-5991137D01*
X7577263Y-5911915D01*
X7542144Y-5891639D01*
X7480238Y-5855897D01*
X7426127Y-5841398D01*
X7372018Y-5826900D01*
X7259982Y-5826900D01*
X7151763Y-5855897D01*
X7151760Y-5855898D01*
X7054740Y-5911913D01*
X7054734Y-5911917D01*
X6975517Y-5991134D01*
X6975513Y-5991140D01*
X6919498Y-6088160D01*
X6919497Y-6088163D01*
X6890500Y-6196382D01*
X1398330Y-6196382D01*
X1331763Y-6129815D01*
X1259620Y-6088163D01*
X1234739Y-6073798D01*
X1234738Y-6073797D01*
X1234737Y-6073797D01*
X1126518Y-6044800D01*
X1014482Y-6044800D01*
X906263Y-6073797D01*
X906260Y-6073798D01*
X809240Y-6129813D01*
X809234Y-6129817D01*
X730017Y-6209034D01*
X730013Y-6209040D01*
X673998Y-6306060D01*
X673997Y-6306063D01*
X645000Y-6414282D01*
X-15185583Y-6414282D01*
X-15463259Y-5743838D01*
X-15465447Y-5738165D01*
X-15489343Y-5671382D01*
X-7632900Y-5671382D01*
X-7632900Y-5783418D01*
X-7603903Y-5891637D01*
X-7547885Y-5988663D01*
X-7468663Y-6067885D01*
X-7371637Y-6123903D01*
X-7263418Y-6152900D01*
X-7263416Y-6152900D01*
X-7151384Y-6152900D01*
X-7151382Y-6152900D01*
X-7043163Y-6123903D01*
X-6946137Y-6067885D01*
X-6866915Y-5988663D01*
X-6822606Y-5911917D01*
X-6810898Y-5891639D01*
X-6810897Y-5891636D01*
X-6802344Y-5859718D01*
X-6781900Y-5783418D01*
X-6781900Y-5671382D01*
X-6810897Y-5563163D01*
X-6810898Y-5563160D01*
X-6860207Y-5477755D01*
X-6866913Y-5466140D01*
X-6866917Y-5466134D01*
X-6909169Y-5423882D01*
X-1004900Y-5423882D01*
X-1004900Y-5535918D01*
X-975903Y-5644137D01*
X-919885Y-5741163D01*
X-840663Y-5820385D01*
X-743637Y-5876403D01*
X-635418Y-5905400D01*
X-635416Y-5905400D01*
X-523384Y-5905400D01*
X-523382Y-5905400D01*
X-415163Y-5876403D01*
X-318137Y-5820385D01*
X-271060Y-5773308D01*
X-209737Y-5739823D01*
X-151291Y-5741213D01*
X-47218Y-5769100D01*
X-47215Y-5769100D01*
X64816Y-5769100D01*
X64818Y-5769100D01*
X144752Y-5747682D01*
X8264900Y-5747682D01*
X8264900Y-5859718D01*
X8277141Y-5905400D01*
X8293897Y-5967936D01*
X8293898Y-5967939D01*
X8307293Y-5991140D01*
X8349915Y-6064963D01*
X8429137Y-6144185D01*
X8526163Y-6200203D01*
X8634382Y-6229200D01*
X8634384Y-6229200D01*
X8746416Y-6229200D01*
X8746418Y-6229200D01*
X8854637Y-6200203D01*
X8951663Y-6144185D01*
X9030885Y-6064963D01*
X9086903Y-5967937D01*
X9092913Y-5945505D01*
X9129279Y-5885845D01*
X9192126Y-5855317D01*
X9212688Y-5853600D01*
X9294116Y-5853600D01*
X9294118Y-5853600D01*
X9402337Y-5824603D01*
X9499363Y-5768585D01*
X9578585Y-5689363D01*
X9634603Y-5592337D01*
X9663600Y-5484118D01*
X9663600Y-5372082D01*
X9648916Y-5317282D01*
X11170000Y-5317282D01*
X11170000Y-5429318D01*
X11191973Y-5511321D01*
X11198997Y-5537536D01*
X11198998Y-5537539D01*
X11213790Y-5563160D01*
X11255015Y-5634563D01*
X11334237Y-5713785D01*
X11431263Y-5769803D01*
X11539482Y-5798800D01*
X11539484Y-5798800D01*
X11651516Y-5798800D01*
X11651518Y-5798800D01*
X11759737Y-5769803D01*
X11856763Y-5713785D01*
X11935985Y-5634563D01*
X11992003Y-5537537D01*
X12021000Y-5429318D01*
X12021000Y-5317282D01*
X11992003Y-5209063D01*
X11935985Y-5112037D01*
X11856763Y-5032815D01*
X11775261Y-4985760D01*
X11759739Y-4976798D01*
X11759738Y-4976797D01*
X11759737Y-4976797D01*
X11651518Y-4947800D01*
X11539482Y-4947800D01*
X11431263Y-4976797D01*
X11431260Y-4976798D01*
X11334240Y-5032813D01*
X11334234Y-5032817D01*
X11255017Y-5112034D01*
X11255013Y-5112040D01*
X11198998Y-5209060D01*
X11198997Y-5209063D01*
X11170000Y-5317282D01*
X9648916Y-5317282D01*
X9634603Y-5263863D01*
X9578585Y-5166837D01*
X9499363Y-5087615D01*
X9426828Y-5045737D01*
X9402339Y-5031598D01*
X9402338Y-5031597D01*
X9402337Y-5031597D01*
X9294118Y-5002600D01*
X9182082Y-5002600D01*
X9073863Y-5031597D01*
X9073860Y-5031598D01*
X8976840Y-5087613D01*
X8976834Y-5087617D01*
X8897617Y-5166834D01*
X8897613Y-5166840D01*
X8841598Y-5263860D01*
X8841597Y-5263861D01*
X8837869Y-5277773D01*
X8837809Y-5278002D01*
X8835587Y-5286294D01*
X8799221Y-5345955D01*
X8736374Y-5376483D01*
X8715812Y-5378200D01*
X8634382Y-5378200D01*
X8526163Y-5407197D01*
X8526160Y-5407198D01*
X8429140Y-5463213D01*
X8429134Y-5463217D01*
X8349917Y-5542434D01*
X8349913Y-5542440D01*
X8293898Y-5639460D01*
X8293897Y-5639463D01*
X8264900Y-5747682D01*
X144752Y-5747682D01*
X173037Y-5740103D01*
X270063Y-5684085D01*
X349285Y-5604863D01*
X405303Y-5507837D01*
X434300Y-5399618D01*
X434300Y-5287582D01*
X405303Y-5179363D01*
X349285Y-5082337D01*
X329430Y-5062482D01*
X1273400Y-5062482D01*
X1273400Y-5174518D01*
X1301129Y-5278002D01*
X1302397Y-5282736D01*
X1302398Y-5282739D01*
X1305194Y-5287582D01*
X1358415Y-5379763D01*
X1437637Y-5458985D01*
X1534663Y-5515003D01*
X1642882Y-5544000D01*
X1642884Y-5544000D01*
X1754916Y-5544000D01*
X1754918Y-5544000D01*
X1863137Y-5515003D01*
X1960163Y-5458985D01*
X2039385Y-5379763D01*
X2095403Y-5282737D01*
X2124400Y-5174518D01*
X2124400Y-5062482D01*
X2095403Y-4954263D01*
X2039385Y-4857237D01*
X1960163Y-4778015D01*
X1895479Y-4740669D01*
X1863139Y-4721998D01*
X1863138Y-4721997D01*
X1863137Y-4721997D01*
X1754918Y-4693000D01*
X1642882Y-4693000D01*
X1534663Y-4721997D01*
X1534660Y-4721998D01*
X1437640Y-4778013D01*
X1437634Y-4778017D01*
X1358417Y-4857234D01*
X1358413Y-4857240D01*
X1302398Y-4954260D01*
X1302397Y-4954263D01*
X1273400Y-5062482D01*
X329430Y-5062482D01*
X270063Y-5003115D01*
X173037Y-4947097D01*
X64818Y-4918100D01*
X-47218Y-4918100D01*
X-155437Y-4947097D01*
X-252463Y-5003115D01*
X-252465Y-5003117D01*
X-299539Y-5050191D01*
X-360862Y-5083676D01*
X-419313Y-5082285D01*
X-523382Y-5054400D01*
X-635418Y-5054400D01*
X-743637Y-5083397D01*
X-743638Y-5083397D01*
X-743639Y-5083398D01*
X-750943Y-5087615D01*
X-840663Y-5139415D01*
X-919885Y-5218637D01*
X-975903Y-5315663D01*
X-1004900Y-5423882D01*
X-6909169Y-5423882D01*
X-6946134Y-5386917D01*
X-6946140Y-5386913D01*
X-7043160Y-5330898D01*
X-7043163Y-5330897D01*
X-7151382Y-5301900D01*
X-7263418Y-5301900D01*
X-7371637Y-5330897D01*
X-7371638Y-5330897D01*
X-7371639Y-5330898D01*
X-7397718Y-5345955D01*
X-7468663Y-5386915D01*
X-7547885Y-5466137D01*
X-7603903Y-5563163D01*
X-7632900Y-5671382D01*
X-15489343Y-5671382D01*
X-15545010Y-5515804D01*
X-15546518Y-5511321D01*
X-15668920Y-5123161D01*
X-15668926Y-5123147D01*
X-15671068Y-5116355D01*
X-15678123Y-5093982D01*
X-13024800Y-5093982D01*
X-13024800Y-5206018D01*
X-12995803Y-5314237D01*
X-12939785Y-5411263D01*
X-12860563Y-5490485D01*
X-12763537Y-5546503D01*
X-12655318Y-5575500D01*
X-12655316Y-5575500D01*
X-12543284Y-5575500D01*
X-12543282Y-5575500D01*
X-12435063Y-5546503D01*
X-12435059Y-5546501D01*
X-12381891Y-5515804D01*
X-12338037Y-5490485D01*
X-12258815Y-5411263D01*
X-12203620Y-5315663D01*
X-12202798Y-5314239D01*
X-12202797Y-5314236D01*
X-12199491Y-5301900D01*
X-12173800Y-5206018D01*
X-12173800Y-5093982D01*
X-12202797Y-4985763D01*
X-12202798Y-4985760D01*
X-12258815Y-4888736D01*
X-12322069Y-4825482D01*
X-9137000Y-4825482D01*
X-9137000Y-4937518D01*
X-9108003Y-5045737D01*
X-9051985Y-5142763D01*
X-8972763Y-5221985D01*
X-8875737Y-5278003D01*
X-8767518Y-5307000D01*
X-8767516Y-5307000D01*
X-8655484Y-5307000D01*
X-8655482Y-5307000D01*
X-8547263Y-5278003D01*
X-8450237Y-5221985D01*
X-8371015Y-5142763D01*
X-8324665Y-5062482D01*
X-8314998Y-5045739D01*
X-8314997Y-5045736D01*
X-8311208Y-5031598D01*
X-8286000Y-4937518D01*
X-8286000Y-4825482D01*
X-8314997Y-4717263D01*
X-8314998Y-4717260D01*
X-8371013Y-4620240D01*
X-8371017Y-4620234D01*
X-8450234Y-4541017D01*
X-8450240Y-4541013D01*
X-8547260Y-4484998D01*
X-8547263Y-4484997D01*
X-8655482Y-4456000D01*
X-8767518Y-4456000D01*
X-8875737Y-4484997D01*
X-8972763Y-4541015D01*
X-9051985Y-4620237D01*
X-9108003Y-4717263D01*
X-9137000Y-4825482D01*
X-12322069Y-4825482D01*
X-12338034Y-4809517D01*
X-12338040Y-4809513D01*
X-12435060Y-4753498D01*
X-12435063Y-4753497D01*
X-12543282Y-4724500D01*
X-12655318Y-4724500D01*
X-12763537Y-4753497D01*
X-12860563Y-4809515D01*
X-12939785Y-4888737D01*
X-12995803Y-4985763D01*
X-13024800Y-5093982D01*
X-15678123Y-5093982D01*
X-15913014Y-4349100D01*
X-15920234Y-4326204D01*
X-15922258Y-4319042D01*
X-15963389Y-4154840D01*
X-15964167Y-4151544D01*
X-16051757Y-3756389D01*
X-16055904Y-3737682D01*
X-9417500Y-3737682D01*
X-9417500Y-3849718D01*
X-9388503Y-3957937D01*
X-9332485Y-4054963D01*
X-9253263Y-4134185D01*
X-9156237Y-4190203D01*
X-9048018Y-4219200D01*
X-9048016Y-4219200D01*
X-8935984Y-4219200D01*
X-8935982Y-4219200D01*
X-8827763Y-4190203D01*
X-8730737Y-4134185D01*
X-8651515Y-4054963D01*
X-8611642Y-3985901D01*
X-8595498Y-3957939D01*
X-8595497Y-3957936D01*
X-8583902Y-3914665D01*
X-8566500Y-3849718D01*
X-8566500Y-3737682D01*
X-8595497Y-3629463D01*
X-8595498Y-3629460D01*
X-8614018Y-3597382D01*
X2390900Y-3597382D01*
X2390900Y-3709418D01*
X2419897Y-3817637D01*
X2475915Y-3914663D01*
X2555137Y-3993885D01*
X2652163Y-4049903D01*
X2760382Y-4078900D01*
X2760384Y-4078900D01*
X2872416Y-4078900D01*
X2872418Y-4078900D01*
X2980637Y-4049903D01*
X3021008Y-4026594D01*
X3088907Y-4010121D01*
X3154934Y-4032973D01*
X3198125Y-4087893D01*
X3204767Y-4157447D01*
X3172752Y-4219550D01*
X3170690Y-4221662D01*
X3114114Y-4278238D01*
X3114113Y-4278240D01*
X3058098Y-4375260D01*
X3058097Y-4375263D01*
X3029100Y-4483482D01*
X3029100Y-4595518D01*
X3037567Y-4627115D01*
X3058097Y-4703736D01*
X3058098Y-4703739D01*
X3076769Y-4736079D01*
X3114115Y-4800763D01*
X3193337Y-4879985D01*
X3290363Y-4936003D01*
X3398582Y-4965000D01*
X3398584Y-4965000D01*
X3510616Y-4965000D01*
X3510618Y-4965000D01*
X3618837Y-4936003D01*
X3715863Y-4879985D01*
X3770419Y-4825429D01*
X3831742Y-4791944D01*
X3901434Y-4796928D01*
X3945781Y-4825429D01*
X3960837Y-4840485D01*
X4057863Y-4896503D01*
X4166082Y-4925500D01*
X4166084Y-4925500D01*
X4278116Y-4925500D01*
X4278118Y-4925500D01*
X4330061Y-4911582D01*
X14506900Y-4911582D01*
X14506900Y-5023618D01*
X14535897Y-5131837D01*
X14591915Y-5228863D01*
X14671137Y-5308085D01*
X14768163Y-5364103D01*
X14876382Y-5393100D01*
X14876384Y-5393100D01*
X14988416Y-5393100D01*
X14988418Y-5393100D01*
X15096637Y-5364103D01*
X15193663Y-5308085D01*
X15272885Y-5228863D01*
X15328903Y-5131837D01*
X15357900Y-5023618D01*
X15357900Y-4911582D01*
X15328903Y-4803363D01*
X15272885Y-4706337D01*
X15193663Y-4627115D01*
X15096637Y-4571097D01*
X14988418Y-4542100D01*
X14876382Y-4542100D01*
X14768163Y-4571097D01*
X14768160Y-4571098D01*
X14671140Y-4627113D01*
X14671134Y-4627117D01*
X14591917Y-4706334D01*
X14591913Y-4706340D01*
X14535898Y-4803360D01*
X14535897Y-4803363D01*
X14506900Y-4911582D01*
X4330061Y-4911582D01*
X4386337Y-4896503D01*
X4483363Y-4840485D01*
X4562585Y-4761263D01*
X4618603Y-4664237D01*
X4647600Y-4556018D01*
X4647600Y-4443982D01*
X4618603Y-4335763D01*
X4562585Y-4238737D01*
X4483363Y-4159515D01*
X4386337Y-4103497D01*
X4278118Y-4074500D01*
X4166082Y-4074500D01*
X4166080Y-4074500D01*
X4070053Y-4100230D01*
X4000204Y-4098567D01*
X3942341Y-4059404D01*
X3914838Y-3995175D01*
X3919791Y-3942882D01*
X3923859Y-3930086D01*
X3933703Y-3913037D01*
X3945883Y-3867582D01*
X9152100Y-3867582D01*
X9152100Y-3979618D01*
X9181097Y-4087837D01*
X9237115Y-4184863D01*
X9316337Y-4264085D01*
X9413363Y-4320103D01*
X9521582Y-4349100D01*
X9521584Y-4349100D01*
X9633616Y-4349100D01*
X9633618Y-4349100D01*
X9741837Y-4320103D01*
X9838863Y-4264085D01*
X9918085Y-4184863D01*
X9974103Y-4087837D01*
X10003100Y-3979618D01*
X10003100Y-3867582D01*
X9974103Y-3759363D01*
X9941331Y-3702600D01*
X9924858Y-3634700D01*
X9947711Y-3568673D01*
X9992586Y-3533382D01*
X12501200Y-3533382D01*
X12501200Y-3645418D01*
X12530197Y-3753637D01*
X12586215Y-3850663D01*
X12665437Y-3929885D01*
X12762463Y-3985903D01*
X12870682Y-4014900D01*
X12870684Y-4014900D01*
X12982716Y-4014900D01*
X12982718Y-4014900D01*
X13090937Y-3985903D01*
X13187963Y-3929885D01*
X13267185Y-3850663D01*
X13323203Y-3753637D01*
X13352200Y-3645418D01*
X13352200Y-3533382D01*
X13323203Y-3425163D01*
X13267185Y-3328137D01*
X13187963Y-3248915D01*
X13090937Y-3192897D01*
X12982718Y-3163900D01*
X12870682Y-3163900D01*
X12762463Y-3192897D01*
X12762460Y-3192898D01*
X12665440Y-3248913D01*
X12665434Y-3248917D01*
X12586217Y-3328134D01*
X12586213Y-3328140D01*
X12530198Y-3425160D01*
X12530197Y-3425163D01*
X12501200Y-3533382D01*
X9992586Y-3533382D01*
X10002632Y-3525482D01*
X10041306Y-3518028D01*
X10041258Y-3517661D01*
X10047428Y-3516848D01*
X10048718Y-3516600D01*
X10049316Y-3516600D01*
X10049318Y-3516600D01*
X10157537Y-3487603D01*
X10254563Y-3431585D01*
X10333785Y-3352363D01*
X10389803Y-3255337D01*
X10418800Y-3147118D01*
X10418800Y-3035082D01*
X10389803Y-2926863D01*
X10333785Y-2829837D01*
X10254563Y-2750615D01*
X10157537Y-2694597D01*
X10049318Y-2665600D01*
X9937282Y-2665600D01*
X9829063Y-2694597D01*
X9829060Y-2694598D01*
X9732040Y-2750613D01*
X9732034Y-2750617D01*
X9652817Y-2829834D01*
X9652813Y-2829840D01*
X9596798Y-2926860D01*
X9596797Y-2926863D01*
X9567800Y-3035082D01*
X9567800Y-3147118D01*
X9595077Y-3248915D01*
X9596797Y-3255336D01*
X9596798Y-3255339D01*
X9629569Y-3312100D01*
X9646042Y-3380000D01*
X9623189Y-3446027D01*
X9568268Y-3489218D01*
X9529593Y-3496671D01*
X9529642Y-3497039D01*
X9523471Y-3497851D01*
X9522182Y-3498100D01*
X9521582Y-3498100D01*
X9413363Y-3527097D01*
X9413360Y-3527098D01*
X9316340Y-3583113D01*
X9316334Y-3583117D01*
X9237117Y-3662334D01*
X9237113Y-3662340D01*
X9181098Y-3759360D01*
X9181097Y-3759363D01*
X9152100Y-3867582D01*
X3945883Y-3867582D01*
X3962700Y-3804818D01*
X3962700Y-3692782D01*
X3933703Y-3584563D01*
X3877685Y-3487537D01*
X3798463Y-3408315D01*
X3701555Y-3352365D01*
X3701439Y-3352298D01*
X3701438Y-3352297D01*
X3701437Y-3352297D01*
X3593218Y-3323300D01*
X3481182Y-3323300D01*
X3372963Y-3352297D01*
X3372960Y-3352298D01*
X3293118Y-3398395D01*
X3225217Y-3414868D01*
X3159191Y-3392015D01*
X3143437Y-3378689D01*
X3077665Y-3312917D01*
X3077663Y-3312915D01*
X2980637Y-3256897D01*
X2872418Y-3227900D01*
X2760382Y-3227900D01*
X2652163Y-3256897D01*
X2652160Y-3256898D01*
X2555140Y-3312913D01*
X2555134Y-3312917D01*
X2475917Y-3392134D01*
X2475913Y-3392140D01*
X2419898Y-3489160D01*
X2419897Y-3489163D01*
X2390900Y-3597382D01*
X-8614018Y-3597382D01*
X-8651513Y-3532440D01*
X-8651517Y-3532434D01*
X-8730734Y-3453217D01*
X-8730740Y-3453213D01*
X-8827760Y-3397198D01*
X-8827763Y-3397197D01*
X-8935982Y-3368200D01*
X-9048018Y-3368200D01*
X-9156237Y-3397197D01*
X-9156238Y-3397197D01*
X-9156239Y-3397198D01*
X-9186844Y-3414868D01*
X-9253263Y-3453215D01*
X-9332485Y-3532437D01*
X-9388503Y-3629463D01*
X-9417500Y-3737682D01*
X-16055904Y-3737682D01*
X-16233939Y-2934494D01*
X-16234494Y-2931850D01*
X-16251535Y-2846178D01*
X-16252857Y-2838174D01*
X-16345983Y-2130882D01*
X-4986500Y-2130882D01*
X-4986500Y-2242918D01*
X-4957503Y-2351137D01*
X-4901485Y-2448163D01*
X-4822263Y-2527385D01*
X-4725237Y-2583403D01*
X-4617018Y-2612400D01*
X-4617016Y-2612400D01*
X-4504984Y-2612400D01*
X-4504982Y-2612400D01*
X-4396763Y-2583403D01*
X-4299737Y-2527385D01*
X-4220515Y-2448163D01*
X-4164497Y-2351137D01*
X-4135500Y-2242918D01*
X-4135500Y-2130882D01*
X-4164497Y-2022663D01*
X-4164498Y-2022660D01*
X-4220513Y-1925640D01*
X-4220517Y-1925634D01*
X-4299734Y-1846417D01*
X-4299740Y-1846413D01*
X-4396760Y-1790398D01*
X-4396763Y-1790397D01*
X-4504982Y-1761400D01*
X-4617018Y-1761400D01*
X-4725237Y-1790397D01*
X-4725238Y-1790397D01*
X-4725239Y-1790398D01*
X-4732378Y-1794520D01*
X-4822263Y-1846415D01*
X-4901485Y-1925637D01*
X-4957503Y-2022663D01*
X-4986500Y-2130882D01*
X-16345983Y-2130882D01*
X-16409635Y-1647442D01*
X-16410696Y-1639382D01*
X-7707400Y-1639382D01*
X-7707400Y-1751418D01*
X-7678403Y-1859637D01*
X-7622385Y-1956663D01*
X-7543163Y-2035885D01*
X-7446137Y-2091903D01*
X-7337918Y-2120900D01*
X-7337916Y-2120900D01*
X-7225884Y-2120900D01*
X-7225882Y-2120900D01*
X-7117663Y-2091903D01*
X-7020637Y-2035885D01*
X-6941415Y-1956663D01*
X-6898133Y-1881697D01*
X-6885398Y-1859639D01*
X-6885397Y-1859636D01*
X-6883538Y-1852700D01*
X-6856400Y-1751418D01*
X-6856400Y-1748282D01*
X-689600Y-1748282D01*
X-689600Y-1860318D01*
X-660603Y-1968537D01*
X-604585Y-2065563D01*
X-525363Y-2144785D01*
X-428337Y-2200803D01*
X-320118Y-2229800D01*
X-320116Y-2229800D01*
X-267373Y-2229800D01*
X-200334Y-2249485D01*
X-154579Y-2302289D01*
X-144635Y-2371447D01*
X-147595Y-2385880D01*
X-176400Y-2493382D01*
X-176400Y-2493384D01*
X-176400Y-2613545D01*
X-179256Y-2613545D01*
X-187869Y-2668913D01*
X-234229Y-2721186D01*
X-267965Y-2735878D01*
X-355737Y-2759397D01*
X-452763Y-2815415D01*
X-531985Y-2894637D01*
X-588003Y-2991663D01*
X-617000Y-3099882D01*
X-617000Y-3211918D01*
X-588003Y-3320137D01*
X-531985Y-3417163D01*
X-452763Y-3496385D01*
X-355737Y-3552403D01*
X-247518Y-3581400D01*
X-247516Y-3581400D01*
X-135484Y-3581400D01*
X-135482Y-3581400D01*
X-27263Y-3552403D01*
X69763Y-3496385D01*
X148985Y-3417163D01*
X205003Y-3320137D01*
X234000Y-3211918D01*
X234000Y-3099882D01*
X234000Y-3091755D01*
X236854Y-3091755D01*
X245472Y-3036380D01*
X291835Y-2984109D01*
X325564Y-2969421D01*
X413337Y-2945903D01*
X510363Y-2889885D01*
X589585Y-2810663D01*
X610474Y-2774482D01*
X4325500Y-2774482D01*
X4325500Y-2886518D01*
X4353674Y-2991663D01*
X4354497Y-2994736D01*
X4354498Y-2994739D01*
X4378539Y-3036380D01*
X4410515Y-3091763D01*
X4489737Y-3170985D01*
X4586763Y-3227003D01*
X4694982Y-3256000D01*
X4694984Y-3256000D01*
X4807016Y-3256000D01*
X4807018Y-3256000D01*
X4915237Y-3227003D01*
X5012263Y-3170985D01*
X5091485Y-3091763D01*
X5146322Y-2996782D01*
X5454700Y-2996782D01*
X5454700Y-3108818D01*
X5483697Y-3217037D01*
X5539715Y-3314063D01*
X5618937Y-3393285D01*
X5715963Y-3449303D01*
X5824182Y-3478300D01*
X5824184Y-3478300D01*
X5936216Y-3478300D01*
X5936218Y-3478300D01*
X6044437Y-3449303D01*
X6141463Y-3393285D01*
X6220685Y-3314063D01*
X6276703Y-3217037D01*
X6305700Y-3108818D01*
X6305700Y-2996782D01*
X6276703Y-2888563D01*
X6220685Y-2791537D01*
X6141463Y-2712315D01*
X6061699Y-2666263D01*
X6044439Y-2656298D01*
X6044438Y-2656297D01*
X6044437Y-2656297D01*
X5936218Y-2627300D01*
X5824182Y-2627300D01*
X5715963Y-2656297D01*
X5715960Y-2656298D01*
X5618940Y-2712313D01*
X5618934Y-2712317D01*
X5539717Y-2791534D01*
X5539713Y-2791540D01*
X5483698Y-2888560D01*
X5483697Y-2888563D01*
X5454700Y-2996782D01*
X5146322Y-2996782D01*
X5147503Y-2994737D01*
X5176500Y-2886518D01*
X5176500Y-2774482D01*
X5147503Y-2666263D01*
X5091485Y-2569237D01*
X5012263Y-2490015D01*
X4989689Y-2476982D01*
X14282700Y-2476982D01*
X14282700Y-2589018D01*
X14300728Y-2656297D01*
X14311697Y-2697236D01*
X14311698Y-2697239D01*
X14321167Y-2713639D01*
X14367715Y-2794263D01*
X14446937Y-2873485D01*
X14543963Y-2929503D01*
X14652182Y-2958500D01*
X14652184Y-2958500D01*
X14764216Y-2958500D01*
X14764218Y-2958500D01*
X14872437Y-2929503D01*
X14969463Y-2873485D01*
X15048685Y-2794263D01*
X15104703Y-2697237D01*
X15133700Y-2589018D01*
X15133700Y-2476982D01*
X15104703Y-2368763D01*
X15048685Y-2271737D01*
X14969463Y-2192515D01*
X14872437Y-2136497D01*
X14764218Y-2107500D01*
X14652182Y-2107500D01*
X14543963Y-2136497D01*
X14543960Y-2136498D01*
X14446940Y-2192513D01*
X14446934Y-2192517D01*
X14367717Y-2271734D01*
X14367713Y-2271740D01*
X14311698Y-2368760D01*
X14311697Y-2368763D01*
X14282700Y-2476982D01*
X4989689Y-2476982D01*
X4915237Y-2433997D01*
X4807018Y-2405000D01*
X4694982Y-2405000D01*
X4586763Y-2433997D01*
X4586760Y-2433998D01*
X4489740Y-2490013D01*
X4489734Y-2490017D01*
X4410517Y-2569234D01*
X4410513Y-2569240D01*
X4354498Y-2666260D01*
X4354497Y-2666263D01*
X4325500Y-2774482D01*
X610474Y-2774482D01*
X645603Y-2713637D01*
X674600Y-2605418D01*
X674600Y-2493382D01*
X645603Y-2385163D01*
X589585Y-2288137D01*
X580371Y-2278923D01*
X578449Y-2276816D01*
X564326Y-2247871D01*
X550299Y-2222182D01*
X1255000Y-2222182D01*
X1255000Y-2334218D01*
X1268847Y-2385894D01*
X1283997Y-2442436D01*
X1283998Y-2442439D01*
X1287303Y-2448163D01*
X1340015Y-2539463D01*
X1419237Y-2618685D01*
X1516263Y-2674703D01*
X1624482Y-2703700D01*
X1624484Y-2703700D01*
X1736516Y-2703700D01*
X1736518Y-2703700D01*
X1844737Y-2674703D01*
X1941763Y-2618685D01*
X2020985Y-2539463D01*
X2077003Y-2442437D01*
X2106000Y-2334218D01*
X2106000Y-2222182D01*
X2077003Y-2113963D01*
X2020985Y-2016937D01*
X1941763Y-1937715D01*
X1844737Y-1881697D01*
X1736518Y-1852700D01*
X1624482Y-1852700D01*
X1516263Y-1881697D01*
X1516260Y-1881698D01*
X1419240Y-1937713D01*
X1419234Y-1937717D01*
X1340017Y-2016934D01*
X1340013Y-2016940D01*
X1283998Y-2113960D01*
X1283997Y-2113963D01*
X1255000Y-2222182D01*
X550299Y-2222182D01*
X548894Y-2219608D01*
X549104Y-2216670D01*
X547812Y-2214022D01*
X551580Y-2182042D01*
X553878Y-2149916D01*
X555700Y-2147080D01*
X555989Y-2144632D01*
X561858Y-2137497D01*
X582379Y-2105569D01*
X596047Y-2091901D01*
X616485Y-2071463D01*
X672503Y-1974437D01*
X701500Y-1866218D01*
X701500Y-1754182D01*
X672503Y-1645963D01*
X616485Y-1548937D01*
X537263Y-1469715D01*
X500710Y-1448611D01*
X456945Y-1423343D01*
X456944Y-1423343D01*
X440237Y-1413697D01*
X433833Y-1411981D01*
X332018Y-1384700D01*
X219982Y-1384700D01*
X111763Y-1413697D01*
X111762Y-1413697D01*
X73058Y-1436043D01*
X5157Y-1452514D01*
X-50941Y-1436042D01*
X-99860Y-1407798D01*
X-99863Y-1407797D01*
X-208082Y-1378800D01*
X-320118Y-1378800D01*
X-428337Y-1407797D01*
X-428338Y-1407797D01*
X-428339Y-1407798D01*
X-460286Y-1426243D01*
X-525363Y-1463815D01*
X-604585Y-1543037D01*
X-660603Y-1640063D01*
X-689600Y-1748282D01*
X-6856400Y-1748282D01*
X-6856400Y-1639382D01*
X-6885397Y-1531163D01*
X-6885398Y-1531160D01*
X-6941413Y-1434140D01*
X-6941417Y-1434134D01*
X-7020634Y-1354917D01*
X-7020640Y-1354913D01*
X-7074040Y-1324082D01*
X5102800Y-1324082D01*
X5102800Y-1436118D01*
X5131450Y-1543040D01*
X5131797Y-1544336D01*
X5131798Y-1544339D01*
X5146423Y-1569670D01*
X5187815Y-1641363D01*
X5267037Y-1720585D01*
X5364063Y-1776603D01*
X5472282Y-1805600D01*
X5472284Y-1805600D01*
X5584316Y-1805600D01*
X5584318Y-1805600D01*
X5692537Y-1776603D01*
X5789563Y-1720585D01*
X5868785Y-1641363D01*
X5874705Y-1631110D01*
X5925271Y-1582894D01*
X5993878Y-1569670D01*
X6044091Y-1585721D01*
X6137763Y-1639803D01*
X6245982Y-1668800D01*
X6245984Y-1668800D01*
X6358016Y-1668800D01*
X6358018Y-1668800D01*
X6451760Y-1643682D01*
X9306500Y-1643682D01*
X9306500Y-1755718D01*
X9335497Y-1863937D01*
X9391515Y-1960963D01*
X9470737Y-2040185D01*
X9567763Y-2096203D01*
X9675982Y-2125200D01*
X9675984Y-2125200D01*
X9788016Y-2125200D01*
X9788018Y-2125200D01*
X9896237Y-2096203D01*
X9993263Y-2040185D01*
X10072485Y-1960963D01*
X10093113Y-1925233D01*
X10143680Y-1877019D01*
X10212287Y-1863795D01*
X10277152Y-1889763D01*
X10317680Y-1946677D01*
X10324500Y-1987234D01*
X10324500Y-2051618D01*
X10353497Y-2159837D01*
X10409515Y-2256863D01*
X10488737Y-2336085D01*
X10585763Y-2392103D01*
X10693982Y-2421100D01*
X10693984Y-2421100D01*
X10806016Y-2421100D01*
X10806018Y-2421100D01*
X10914237Y-2392103D01*
X11011263Y-2336085D01*
X11090485Y-2256863D01*
X11146503Y-2159837D01*
X11175500Y-2051618D01*
X11175500Y-1939582D01*
X11924500Y-1939582D01*
X11924500Y-2051618D01*
X11953497Y-2159837D01*
X12009515Y-2256863D01*
X12088737Y-2336085D01*
X12185763Y-2392103D01*
X12293982Y-2421100D01*
X12293984Y-2421100D01*
X12406016Y-2421100D01*
X12406018Y-2421100D01*
X12514237Y-2392103D01*
X12611263Y-2336085D01*
X12690485Y-2256863D01*
X12746503Y-2159837D01*
X12775500Y-2051618D01*
X12775500Y-1939582D01*
X12746503Y-1831363D01*
X12690485Y-1734337D01*
X12611263Y-1655115D01*
X12514237Y-1599097D01*
X12406018Y-1570100D01*
X12293982Y-1570100D01*
X12185763Y-1599097D01*
X12185760Y-1599098D01*
X12088740Y-1655113D01*
X12088734Y-1655117D01*
X12009517Y-1734334D01*
X12009513Y-1734340D01*
X11953498Y-1831360D01*
X11953497Y-1831363D01*
X11924500Y-1939582D01*
X11175500Y-1939582D01*
X11146503Y-1831363D01*
X11090485Y-1734337D01*
X11011263Y-1655115D01*
X10962144Y-1626756D01*
X10913929Y-1576188D01*
X10900707Y-1507581D01*
X10926675Y-1442716D01*
X10962144Y-1411982D01*
X10986563Y-1397885D01*
X11065785Y-1318663D01*
X11121803Y-1221637D01*
X11150800Y-1113418D01*
X11150800Y-1012182D01*
X12758900Y-1012182D01*
X12758900Y-1124218D01*
X12787897Y-1232437D01*
X12843915Y-1329463D01*
X12923137Y-1408685D01*
X13020163Y-1464703D01*
X13128382Y-1493700D01*
X13128384Y-1493700D01*
X13240416Y-1493700D01*
X13240418Y-1493700D01*
X13348637Y-1464703D01*
X13445663Y-1408685D01*
X13524885Y-1329463D01*
X13580903Y-1232437D01*
X13609900Y-1124218D01*
X13609900Y-1012182D01*
X13580903Y-903963D01*
X13524885Y-806937D01*
X13445663Y-727715D01*
X13348637Y-671697D01*
X13240418Y-642700D01*
X13128382Y-642700D01*
X13020163Y-671697D01*
X13020160Y-671698D01*
X12923140Y-727713D01*
X12923134Y-727717D01*
X12843917Y-806934D01*
X12843913Y-806940D01*
X12787898Y-903960D01*
X12787897Y-903963D01*
X12758900Y-1012182D01*
X11150800Y-1012182D01*
X11150800Y-1001382D01*
X11121803Y-893163D01*
X11065785Y-796137D01*
X10986563Y-716915D01*
X10889537Y-660897D01*
X10781318Y-631900D01*
X10669282Y-631900D01*
X10561063Y-660897D01*
X10561060Y-660898D01*
X10464040Y-716913D01*
X10464034Y-716917D01*
X10384817Y-796134D01*
X10384813Y-796140D01*
X10328798Y-893160D01*
X10328797Y-893163D01*
X10299800Y-1001382D01*
X10299800Y-1113418D01*
X10326692Y-1213779D01*
X10328797Y-1221636D01*
X10328798Y-1221639D01*
X10347469Y-1253979D01*
X10384815Y-1318663D01*
X10464037Y-1397885D01*
X10464038Y-1397886D01*
X10464040Y-1397887D01*
X10513154Y-1426243D01*
X10561370Y-1476810D01*
X10574592Y-1545417D01*
X10548624Y-1610282D01*
X10540045Y-1620085D01*
X10528050Y-1632417D01*
X10488737Y-1655115D01*
X10409515Y-1734337D01*
X10381162Y-1783444D01*
X10370391Y-1794520D01*
X10352874Y-1804403D01*
X10338319Y-1818281D01*
X10323067Y-1821220D01*
X10309539Y-1828853D01*
X10289459Y-1827697D01*
X10269712Y-1831503D01*
X10255293Y-1825730D01*
X10239785Y-1824838D01*
X10223518Y-1813009D01*
X10204847Y-1805535D01*
X10195836Y-1792881D01*
X10183275Y-1783747D01*
X10175985Y-1765002D01*
X10164320Y-1748620D01*
X10160286Y-1724634D01*
X10157951Y-1718629D01*
X10158676Y-1715058D01*
X10157500Y-1708065D01*
X10157500Y-1643684D01*
X10157500Y-1643682D01*
X10128503Y-1535463D01*
X10072485Y-1438437D01*
X9993263Y-1359215D01*
X9896237Y-1303197D01*
X9788018Y-1274200D01*
X9675982Y-1274200D01*
X9567763Y-1303197D01*
X9567760Y-1303198D01*
X9470740Y-1359213D01*
X9470734Y-1359217D01*
X9391517Y-1438434D01*
X9391513Y-1438440D01*
X9335498Y-1535460D01*
X9335497Y-1535463D01*
X9306500Y-1643682D01*
X6451760Y-1643682D01*
X6466237Y-1639803D01*
X6563263Y-1583785D01*
X6642485Y-1504563D01*
X6698503Y-1407537D01*
X6727500Y-1299318D01*
X6727500Y-1187282D01*
X6698503Y-1079063D01*
X6642485Y-982037D01*
X6563263Y-902815D01*
X6466237Y-846797D01*
X6358018Y-817800D01*
X6245982Y-817800D01*
X6137763Y-846797D01*
X6137760Y-846798D01*
X6040740Y-902813D01*
X6040734Y-902817D01*
X5961517Y-982034D01*
X5961510Y-982043D01*
X5955590Y-992297D01*
X5905020Y-1040509D01*
X5836412Y-1053728D01*
X5786207Y-1037677D01*
X5692539Y-983598D01*
X5692538Y-983597D01*
X5692537Y-983597D01*
X5584318Y-954600D01*
X5472282Y-954600D01*
X5364063Y-983597D01*
X5364060Y-983598D01*
X5267040Y-1039613D01*
X5267034Y-1039617D01*
X5187817Y-1118834D01*
X5187813Y-1118840D01*
X5131798Y-1215860D01*
X5131797Y-1215863D01*
X5102800Y-1324082D01*
X-7074040Y-1324082D01*
X-7117660Y-1298898D01*
X-7117663Y-1298897D01*
X-7225882Y-1269900D01*
X-7337918Y-1269900D01*
X-7446137Y-1298897D01*
X-7446138Y-1298897D01*
X-7446139Y-1298898D01*
X-7446866Y-1299318D01*
X-7543163Y-1354915D01*
X-7622385Y-1434137D01*
X-7678403Y-1531163D01*
X-7707400Y-1639382D01*
X-16410696Y-1639382D01*
X-16419074Y-1575753D01*
X-16419538Y-1571721D01*
X-16440452Y-1359388D01*
X-16440931Y-1352643D01*
X-16481703Y-418982D01*
X-11343400Y-418982D01*
X-11343400Y-531018D01*
X-11314403Y-639237D01*
X-11258385Y-736263D01*
X-11179163Y-815485D01*
X-11082137Y-871503D01*
X-10973918Y-900500D01*
X-10973916Y-900500D01*
X-10861884Y-900500D01*
X-10861882Y-900500D01*
X-10753663Y-871503D01*
X-10656637Y-815485D01*
X-10577415Y-736263D01*
X-10521397Y-639237D01*
X-10492400Y-531018D01*
X-10492400Y-469882D01*
X-3391500Y-469882D01*
X-3391500Y-581918D01*
X-3362503Y-690137D01*
X-3306485Y-787163D01*
X-3227263Y-866385D01*
X-3130237Y-922403D01*
X-3022018Y-951400D01*
X-3022016Y-951400D01*
X-2909984Y-951400D01*
X-2909982Y-951400D01*
X-2801763Y-922403D01*
X-2704737Y-866385D01*
X-2625515Y-787163D01*
X-2569497Y-690137D01*
X-2540500Y-581918D01*
X-2540500Y-469882D01*
X-2569497Y-361663D01*
X-2569498Y-361660D01*
X-2625513Y-264640D01*
X-2625517Y-264634D01*
X-2704734Y-185417D01*
X-2704740Y-185413D01*
X-2801760Y-129398D01*
X-2801763Y-129397D01*
X-2909982Y-100400D01*
X-3022018Y-100400D01*
X-3130237Y-129397D01*
X-3130238Y-129397D01*
X-3130239Y-129398D01*
X-3136372Y-132939D01*
X-3227263Y-185415D01*
X-3306485Y-264637D01*
X-3362503Y-361663D01*
X-3391500Y-469882D01*
X-10492400Y-469882D01*
X-10492400Y-418982D01*
X-10521397Y-310763D01*
X-10521398Y-310760D01*
X-10577413Y-213740D01*
X-10577417Y-213734D01*
X-10656634Y-134517D01*
X-10656640Y-134513D01*
X-10753660Y-78498D01*
X-10753663Y-78497D01*
X-10861882Y-49500D01*
X-10973918Y-49500D01*
X-11082137Y-78497D01*
X-11179163Y-134515D01*
X-11258385Y-213737D01*
X-11314403Y-310763D01*
X-11343400Y-418982D01*
X-16481703Y-418982D01*
X-16481822Y-416265D01*
X-16494413Y-127940D01*
X-16494531Y-122530D01*
X-16494531Y122530D01*
X-16494413Y127940D01*
X-16491724Y189518D01*
X-5944700Y189518D01*
X-5944700Y77482D01*
X-5915703Y-30737D01*
X-5859685Y-127763D01*
X-5780463Y-206985D01*
X-5683437Y-263003D01*
X-5575218Y-292000D01*
X-5575216Y-292000D01*
X-5463184Y-292000D01*
X-5463182Y-292000D01*
X-5354963Y-263003D01*
X-5257937Y-206985D01*
X-5178715Y-127763D01*
X-5122697Y-30737D01*
X-5093700Y77482D01*
X-5093700Y189518D01*
X-5122697Y297737D01*
X-5178715Y394763D01*
X-5257937Y473985D01*
X-5354963Y530003D01*
X-5463182Y559000D01*
X-5575218Y559000D01*
X-5683437Y530003D01*
X-5780463Y473985D01*
X-5859685Y394763D01*
X-5915703Y297737D01*
X-5944700Y189518D01*
X-16491724Y189518D01*
X-16457334Y977018D01*
X-14504500Y977018D01*
X-14504500Y864982D01*
X-14475503Y756763D01*
X-14419485Y659737D01*
X-14340263Y580515D01*
X-14294055Y553837D01*
X-14251290Y529146D01*
X-14243237Y524497D01*
X-14135018Y495500D01*
X-14135017Y495500D01*
X-14022982Y495500D01*
X-13914763Y524497D01*
X-13914760Y524498D01*
X-13817740Y580513D01*
X-13817734Y580517D01*
X-13738517Y659734D01*
X-13738513Y659740D01*
X-13682498Y756760D01*
X-13682498Y756761D01*
X-13681876Y759082D01*
X-13672381Y794518D01*
X-9498300Y794518D01*
X-9498300Y682482D01*
X-9469303Y574263D01*
X-9413285Y477237D01*
X-9334063Y398015D01*
X-9304131Y380734D01*
X-9253738Y351639D01*
X-9237037Y341997D01*
X-9128818Y313000D01*
X-9128817Y313000D01*
X-9016782Y313000D01*
X-8908563Y341997D01*
X-8908560Y341998D01*
X-8811540Y398013D01*
X-8811534Y398017D01*
X-8732317Y477234D01*
X-8732313Y477240D01*
X-8676298Y574260D01*
X-8676297Y574263D01*
X-8665591Y614218D01*
X-2245800Y614218D01*
X-2245800Y502182D01*
X-2216803Y393963D01*
X-2160785Y296937D01*
X-2081563Y217715D01*
X-1984537Y161697D01*
X-1876318Y132700D01*
X-1876317Y132700D01*
X-1764282Y132700D01*
X-1731387Y141513D01*
X-1661538Y139851D01*
X-1603676Y100688D01*
X-1579520Y53832D01*
X-1571303Y23163D01*
X-1515285Y-73863D01*
X-1436063Y-153085D01*
X-1339037Y-209103D01*
X-1230818Y-238100D01*
X-1230816Y-238100D01*
X-1118784Y-238100D01*
X-1118782Y-238100D01*
X-1010563Y-209103D01*
X-913537Y-153085D01*
X-834315Y-73863D01*
X-809416Y-30737D01*
X-778298Y23160D01*
X-778297Y23163D01*
X-749300Y131382D01*
X-749300Y243417D01*
X-749857Y245498D01*
X-778297Y351637D01*
X-780806Y355982D01*
X-796299Y382817D01*
X3002600Y382817D01*
X3002600Y270782D01*
X3031597Y162563D01*
X3031598Y162560D01*
X3087613Y65540D01*
X3087617Y65534D01*
X3129988Y23164D01*
X3166837Y-13685D01*
X3263863Y-69703D01*
X3372082Y-98700D01*
X3372084Y-98700D01*
X3484116Y-98700D01*
X3484118Y-98700D01*
X3592337Y-69703D01*
X3689363Y-13685D01*
X3768585Y65537D01*
X3772038Y71518D01*
X5368700Y71518D01*
X5368700Y-40518D01*
X5393887Y-134515D01*
X5397697Y-148736D01*
X5397698Y-148739D01*
X5400207Y-153085D01*
X5453715Y-245763D01*
X5532937Y-324985D01*
X5629963Y-381003D01*
X5738182Y-410000D01*
X5738184Y-410000D01*
X5850216Y-410000D01*
X5850218Y-410000D01*
X5958437Y-381003D01*
X6055463Y-324985D01*
X6070207Y-310240D01*
X6131527Y-276755D01*
X6201219Y-281738D01*
X6257153Y-323608D01*
X6265273Y-335918D01*
X6312815Y-418263D01*
X6392037Y-497485D01*
X6489063Y-553503D01*
X6597282Y-582500D01*
X6597284Y-582500D01*
X6709316Y-582500D01*
X6709318Y-582500D01*
X6817537Y-553503D01*
X6914563Y-497485D01*
X6993785Y-418263D01*
X7049803Y-321237D01*
X7078800Y-213018D01*
X7078800Y-100982D01*
X7049803Y7237D01*
X6993785Y104263D01*
X6914563Y183485D01*
X6817537Y239503D01*
X6709318Y268500D01*
X6597282Y268500D01*
X6489063Y239503D01*
X6392037Y183485D01*
X6392034Y183482D01*
X6377292Y168740D01*
X6315969Y135255D01*
X6246277Y140239D01*
X6190344Y182111D01*
X6182235Y194402D01*
X6134685Y276763D01*
X6055463Y355985D01*
X5958437Y412003D01*
X5850218Y441000D01*
X5738182Y441000D01*
X5629963Y412003D01*
X5532937Y355985D01*
X5453715Y276763D01*
X5448944Y268499D01*
X5399068Y182111D01*
X5397697Y179737D01*
X5368700Y71518D01*
X3772038Y71518D01*
X3824603Y162563D01*
X3853600Y270782D01*
X3853600Y382818D01*
X3824603Y491037D01*
X3768585Y588063D01*
X3689363Y667285D01*
X3592337Y723303D01*
X3484118Y752300D01*
X3372082Y752300D01*
X3263863Y723303D01*
X3166837Y667285D01*
X3087615Y588063D01*
X3066467Y551434D01*
X3038032Y502182D01*
X3031597Y491037D01*
X3005586Y393960D01*
X3002600Y382817D01*
X-796299Y382817D01*
X-813149Y412003D01*
X-834315Y448663D01*
X-913537Y527885D01*
X-1010563Y583903D01*
X-1118782Y612900D01*
X-1230818Y612900D01*
X-1263712Y604086D01*
X-1333558Y605747D01*
X-1391421Y644908D01*
X-1404895Y664910D01*
X-1411813Y677712D01*
X-1423797Y722437D01*
X-1479815Y819463D01*
X-1555571Y895219D01*
X-1560867Y904918D01*
X-94100Y904918D01*
X-94100Y792882D01*
X-65103Y684663D01*
X-9085Y587637D01*
X-9082Y587634D01*
X70134Y508417D01*
X70140Y508413D01*
X167160Y452398D01*
X167163Y452397D01*
X275382Y423400D01*
X387417Y423400D01*
X387418Y423400D01*
X495637Y452397D01*
X506799Y458841D01*
X533023Y473982D01*
X592663Y508415D01*
X671885Y587637D01*
X727903Y684663D01*
X756900Y792882D01*
X756900Y871117D01*
X1036000Y871117D01*
X1036000Y759082D01*
X1064997Y650863D01*
X1064998Y650860D01*
X1121013Y553840D01*
X1121017Y553834D01*
X1200234Y474617D01*
X1200240Y474613D01*
X1297260Y418598D01*
X1297263Y418597D01*
X1405482Y389600D01*
X1517517Y389600D01*
X1517518Y389600D01*
X1625737Y418597D01*
X1722763Y474615D01*
X1801985Y553837D01*
X1858003Y650863D01*
X1887000Y759082D01*
X1887000Y871118D01*
X1858003Y979337D01*
X1801985Y1076363D01*
X1722763Y1155585D01*
X1625737Y1211603D01*
X1609637Y1215917D01*
X5371000Y1215917D01*
X5371000Y1103882D01*
X5399997Y995663D01*
X5399998Y995660D01*
X5456013Y898640D01*
X5456017Y898634D01*
X5535234Y819417D01*
X5535240Y819413D01*
X5632260Y763398D01*
X5632263Y763397D01*
X5740482Y734400D01*
X5852517Y734400D01*
X5852518Y734400D01*
X5960737Y763397D01*
X6057763Y819415D01*
X6136985Y898637D01*
X6139726Y903385D01*
X6190291Y951601D01*
X6258898Y964826D01*
X6323763Y938859D01*
X6364293Y881946D01*
X6366889Y873481D01*
X6387097Y798061D01*
X6387098Y798060D01*
X6443113Y701040D01*
X6443117Y701034D01*
X6522334Y621817D01*
X6522340Y621813D01*
X6619360Y565798D01*
X6619363Y565797D01*
X6727582Y536800D01*
X6839617Y536800D01*
X6839618Y536800D01*
X6947837Y565797D01*
X7044863Y621815D01*
X7124085Y701037D01*
X7180103Y798063D01*
X7209100Y906282D01*
X7209100Y1018318D01*
X7180103Y1126537D01*
X7124085Y1223563D01*
X7044863Y1302785D01*
X6947837Y1358803D01*
X6839618Y1387800D01*
X6727582Y1387800D01*
X6619363Y1358803D01*
X6522337Y1302785D01*
X6443115Y1223563D01*
X6443113Y1223559D01*
X6440372Y1218812D01*
X6389805Y1170596D01*
X6321198Y1157374D01*
X6256333Y1183342D01*
X6215805Y1240256D01*
X6213216Y1248699D01*
X6193003Y1324137D01*
X6136985Y1421163D01*
X6057763Y1500385D01*
X5960737Y1556403D01*
X5852518Y1585400D01*
X5740482Y1585400D01*
X5632263Y1556403D01*
X5535237Y1500385D01*
X5456015Y1421163D01*
X5399997Y1324137D01*
X5371776Y1218812D01*
X5371000Y1215917D01*
X1609637Y1215917D01*
X1517518Y1240600D01*
X1405482Y1240600D01*
X1297263Y1211603D01*
X1200237Y1155585D01*
X1121015Y1076363D01*
X1064997Y979337D01*
X1038902Y881946D01*
X1036000Y871117D01*
X756900Y871117D01*
X756900Y904918D01*
X727903Y1013137D01*
X671885Y1110163D01*
X592663Y1189385D01*
X495637Y1245403D01*
X387418Y1274400D01*
X275382Y1274400D01*
X167163Y1245403D01*
X70137Y1189385D01*
X-9085Y1110163D01*
X-65103Y1013137D01*
X-94100Y904918D01*
X-1560867Y904918D01*
X-1589056Y956542D01*
X-1584072Y1026234D01*
X-1542200Y1082167D01*
X-1476736Y1106584D01*
X-1467890Y1106900D01*
X-1395882Y1106900D01*
X-1287663Y1135897D01*
X-1287660Y1135898D01*
X-1190640Y1191913D01*
X-1190634Y1191917D01*
X-1111417Y1271134D01*
X-1111413Y1271140D01*
X-1055398Y1368160D01*
X-1055397Y1368163D01*
X-1026400Y1476382D01*
X-1026400Y1588417D01*
X-1027012Y1590703D01*
X-1055397Y1696637D01*
X-1055861Y1697440D01*
X-1074069Y1728979D01*
X-1111415Y1793663D01*
X-1190637Y1872885D01*
X-1272099Y1919917D01*
X8222600Y1919917D01*
X8222600Y1807882D01*
X8251597Y1699663D01*
X8251598Y1699660D01*
X8307613Y1602640D01*
X8307617Y1602634D01*
X8386834Y1523417D01*
X8386837Y1523415D01*
X8459352Y1481548D01*
X8507567Y1430980D01*
X8520789Y1362373D01*
X8494821Y1297508D01*
X8485032Y1286480D01*
X8441915Y1243363D01*
X8412210Y1191913D01*
X8391235Y1155582D01*
X8385897Y1146337D01*
X8367850Y1078982D01*
X8356900Y1038117D01*
X8356900Y926082D01*
X8385897Y817863D01*
X8385898Y817860D01*
X8441913Y720840D01*
X8441917Y720834D01*
X8521134Y641617D01*
X8521140Y641613D01*
X8618160Y585598D01*
X8618163Y585597D01*
X8726382Y556600D01*
X8726383Y556600D01*
X8734232Y554497D01*
X8733411Y551434D01*
X8783686Y529146D01*
X8822110Y470791D01*
X8822885Y400926D01*
X8791209Y346857D01*
X8736915Y292563D01*
X8680897Y195537D01*
X8651900Y87318D01*
X8651900Y-24718D01*
X8679949Y-129397D01*
X8680897Y-132936D01*
X8680898Y-132939D01*
X8690019Y-148737D01*
X8736915Y-229963D01*
X8816137Y-309185D01*
X8913163Y-365203D01*
X9021382Y-394200D01*
X9021384Y-394200D01*
X9133416Y-394200D01*
X9133418Y-394200D01*
X9241637Y-365203D01*
X9338663Y-309185D01*
X9417885Y-229963D01*
X9473903Y-132937D01*
X9502900Y-24718D01*
X9502900Y87318D01*
X9473903Y195537D01*
X9417885Y292563D01*
X9338663Y371785D01*
X9241637Y427803D01*
X9133418Y456800D01*
X9133414Y456800D01*
X9126875Y458552D01*
X9126329Y458530D01*
X9125796Y458841D01*
X9125568Y458903D01*
X9125584Y458965D01*
X9101980Y472779D01*
X9076189Y484189D01*
X9072231Y490188D01*
X9066026Y493820D01*
X9053246Y518970D01*
X9037718Y542513D01*
X9037632Y549700D01*
X9034376Y556110D01*
X9037222Y584175D01*
X9036887Y612378D01*
X9040872Y620166D01*
X9041426Y625623D01*
X9051197Y640342D01*
X9059253Y656084D01*
X9063626Y661578D01*
X9100065Y698017D01*
X11211700Y698017D01*
X11211700Y585982D01*
X11240697Y477763D01*
X11240698Y477760D01*
X11296713Y380740D01*
X11296717Y380734D01*
X11375934Y301517D01*
X11375940Y301513D01*
X11472960Y245498D01*
X11472963Y245497D01*
X11581182Y216500D01*
X11693217Y216500D01*
X11693218Y216500D01*
X11801437Y245497D01*
X11898463Y301515D01*
X11977685Y380737D01*
X12033703Y477763D01*
X12062700Y585982D01*
X12062700Y698018D01*
X12033703Y806237D01*
X11977685Y903263D01*
X11898463Y982485D01*
X11801437Y1038503D01*
X11693218Y1067500D01*
X11581182Y1067500D01*
X11472963Y1038503D01*
X11375937Y982485D01*
X11296715Y903263D01*
X11268107Y853713D01*
X11247408Y817860D01*
X11240697Y806237D01*
X11217814Y720834D01*
X11211700Y698017D01*
X9100065Y698017D01*
X9122885Y720837D01*
X9178903Y817863D01*
X9207900Y926082D01*
X9207900Y1038118D01*
X9178903Y1146337D01*
X9122885Y1243363D01*
X9043663Y1322585D01*
X8971149Y1364451D01*
X8922933Y1415017D01*
X8909709Y1483624D01*
X8935677Y1548489D01*
X8945467Y1559519D01*
X8988582Y1602634D01*
X8988585Y1602637D01*
X9044603Y1699663D01*
X9073600Y1807882D01*
X9073600Y1919918D01*
X9044603Y2028137D01*
X8988585Y2125163D01*
X8909363Y2204385D01*
X8812337Y2260403D01*
X8704118Y2289400D01*
X8592082Y2289400D01*
X8483863Y2260403D01*
X8386837Y2204385D01*
X8307615Y2125163D01*
X8251597Y2028137D01*
X8225008Y1928902D01*
X8222600Y1919917D01*
X-1272099Y1919917D01*
X-1287663Y1928903D01*
X-1395882Y1957900D01*
X-1507918Y1957900D01*
X-1616137Y1928903D01*
X-1713163Y1872885D01*
X-1792385Y1793663D01*
X-1848403Y1696637D01*
X-1877400Y1588418D01*
X-1877400Y1476382D01*
X-1848403Y1368163D01*
X-1792385Y1271137D01*
X-1792382Y1271134D01*
X-1716629Y1195381D01*
X-1683144Y1134058D01*
X-1688128Y1064366D01*
X-1730000Y1008433D01*
X-1795464Y984016D01*
X-1804310Y983700D01*
X-1876318Y983700D01*
X-1984537Y954703D01*
X-2081563Y898685D01*
X-2160785Y819463D01*
X-2216803Y722437D01*
X-2245800Y614218D01*
X-8665591Y614218D01*
X-8647300Y682482D01*
X-8647300Y794517D01*
X-8648249Y798061D01*
X-8676297Y902737D01*
X-8676671Y903384D01*
X-8704509Y951601D01*
X-8732315Y999763D01*
X-8811537Y1078985D01*
X-8908563Y1135003D01*
X-9016782Y1164000D01*
X-9128818Y1164000D01*
X-9237037Y1135003D01*
X-9334063Y1078985D01*
X-9413285Y999763D01*
X-9469303Y902737D01*
X-9498300Y794518D01*
X-13672381Y794518D01*
X-13661604Y834739D01*
X-13661603Y834739D01*
X-13653500Y864982D01*
X-13653500Y977017D01*
X-13654121Y979337D01*
X-13682497Y1085237D01*
X-13738515Y1182263D01*
X-13806470Y1250218D01*
X-6221800Y1250218D01*
X-6221800Y1138182D01*
X-6192803Y1029963D01*
X-6136785Y932937D01*
X-6057563Y853715D01*
X-5998240Y819465D01*
X-5961168Y798061D01*
X-5960537Y797697D01*
X-5852318Y768700D01*
X-5852317Y768700D01*
X-5746933Y768700D01*
X-5740282Y768700D01*
X-5632063Y797697D01*
X-5628785Y799589D01*
X-5628783Y799590D01*
X-5535040Y853713D01*
X-5535034Y853717D01*
X-5455817Y932934D01*
X-5455813Y932940D01*
X-5399798Y1029960D01*
X-5399797Y1029963D01*
X-5370800Y1138182D01*
X-5370800Y1250217D01*
X-5376404Y1271134D01*
X-5399797Y1358437D01*
X-5405411Y1368160D01*
X-5428181Y1407600D01*
X-5455815Y1455463D01*
X-5535037Y1534685D01*
X-5632063Y1590703D01*
X-5740282Y1619700D01*
X-5852318Y1619700D01*
X-5960537Y1590703D01*
X-6057563Y1534685D01*
X-6136785Y1455463D01*
X-6192803Y1358437D01*
X-6221800Y1250218D01*
X-13806470Y1250218D01*
X-13817737Y1261485D01*
X-13914763Y1317503D01*
X-14022982Y1346500D01*
X-14135018Y1346500D01*
X-14243237Y1317503D01*
X-14340263Y1261485D01*
X-14419485Y1182263D01*
X-14475503Y1085237D01*
X-14504500Y977018D01*
X-16457334Y977018D01*
X-16456743Y990555D01*
X-16440931Y1352643D01*
X-16440452Y1359388D01*
X-16419538Y1571721D01*
X-16419074Y1575753D01*
X-16252857Y2838174D01*
X-16251535Y2846178D01*
X-16234494Y2931850D01*
X-16233939Y2934494D01*
X-16193813Y3115518D01*
X-8775800Y3115518D01*
X-8775800Y3003482D01*
X-8746803Y2895263D01*
X-8690785Y2798237D01*
X-8611563Y2719015D01*
X-8514537Y2662997D01*
X-8406318Y2634000D01*
X-8406317Y2634000D01*
X-8294282Y2634000D01*
X-8186063Y2662997D01*
X-8186060Y2662998D01*
X-8089040Y2719013D01*
X-8089034Y2719017D01*
X-8009817Y2798234D01*
X-8009813Y2798240D01*
X-7953798Y2895260D01*
X-7953797Y2895263D01*
X-7924800Y3003482D01*
X-7924800Y3115522D01*
X-7930898Y3138279D01*
X-7929234Y3208129D01*
X-7890071Y3265990D01*
X-7825842Y3293493D01*
X-7779031Y3290145D01*
X-7715418Y3273100D01*
X-7715417Y3273100D01*
X-7603382Y3273100D01*
X-7520836Y3295218D01*
X-6656200Y3295218D01*
X-6656200Y3183182D01*
X-6627203Y3074963D01*
X-6571185Y2977937D01*
X-6491963Y2898715D01*
X-6455108Y2877437D01*
X-6407656Y2850040D01*
X-6394937Y2842697D01*
X-6286718Y2813700D01*
X-6286717Y2813700D01*
X-6174682Y2813700D01*
X-6066463Y2842697D01*
X-6066460Y2842698D01*
X-5969440Y2898713D01*
X-5969434Y2898717D01*
X-5890217Y2977934D01*
X-5890213Y2977940D01*
X-5845019Y3056218D01*
X-5263600Y3056218D01*
X-5263600Y2944182D01*
X-5234603Y2835963D01*
X-5178585Y2738937D01*
X-5099363Y2659715D01*
X-5059093Y2636465D01*
X-5008715Y2607379D01*
X-5002337Y2603697D01*
X-4894118Y2574700D01*
X-4894117Y2574700D01*
X-4782082Y2574700D01*
X-4673863Y2603697D01*
X-4673860Y2603698D01*
X-4576840Y2659713D01*
X-4576834Y2659717D01*
X-4497617Y2738934D01*
X-4497613Y2738940D01*
X-4460849Y2802617D01*
X839400Y2802617D01*
X839400Y2690582D01*
X868397Y2582363D01*
X868398Y2582360D01*
X924413Y2485340D01*
X924417Y2485334D01*
X1003634Y2406117D01*
X1003640Y2406113D01*
X1100660Y2350098D01*
X1100663Y2350097D01*
X1208882Y2321100D01*
X1320917Y2321100D01*
X1320918Y2321100D01*
X1429137Y2350097D01*
X1445476Y2359530D01*
X1461479Y2368769D01*
X1526163Y2406115D01*
X1605385Y2485337D01*
X1661403Y2582363D01*
X1679675Y2650555D01*
X1716039Y2710215D01*
X1767352Y2738235D01*
X1782138Y2742197D01*
X1782140Y2742198D01*
X1879159Y2798212D01*
X1879165Y2798217D01*
X1958382Y2877434D01*
X1958385Y2877437D01*
X2014403Y2974463D01*
X2043400Y3082682D01*
X2043400Y3194718D01*
X2014403Y3302937D01*
X1968515Y3382417D01*
X5553600Y3382417D01*
X5553600Y3270382D01*
X5582597Y3162163D01*
X5582598Y3162160D01*
X5638613Y3065140D01*
X5638617Y3065134D01*
X5717834Y2985917D01*
X5717840Y2985913D01*
X5814860Y2929898D01*
X5814863Y2929897D01*
X5923082Y2900900D01*
X6035117Y2900900D01*
X6035118Y2900900D01*
X6143337Y2929897D01*
X6155540Y2936942D01*
X6234152Y2982329D01*
X6242949Y2984463D01*
X6250066Y2990060D01*
X6276371Y2992571D01*
X6302052Y2998802D01*
X6310608Y2995840D01*
X6319619Y2996701D01*
X6343107Y2984592D01*
X6368079Y2975949D01*
X6375317Y2967986D01*
X6381722Y2964685D01*
X6403539Y2936942D01*
X6436923Y2879119D01*
X6453396Y2811219D01*
X6430543Y2745192D01*
X6405025Y2718745D01*
X6401039Y2715686D01*
X6401037Y2715685D01*
X6321815Y2636463D01*
X6265797Y2539437D01*
X6251301Y2485334D01*
X6236800Y2431217D01*
X6236800Y2319182D01*
X6265797Y2210963D01*
X6265798Y2210960D01*
X6321813Y2113940D01*
X6321817Y2113934D01*
X6401034Y2034717D01*
X6401040Y2034713D01*
X6498060Y1978698D01*
X6498063Y1978697D01*
X6606282Y1949700D01*
X6718317Y1949700D01*
X6718318Y1949700D01*
X6826537Y1978697D01*
X6826539Y1978698D01*
X6923559Y2034712D01*
X6923565Y2034717D01*
X7002782Y2113934D01*
X7002785Y2113937D01*
X7058803Y2210963D01*
X7087800Y2319182D01*
X7087800Y2431218D01*
X7058803Y2539437D01*
X7019575Y2607380D01*
X7003102Y2675279D01*
X7025954Y2741306D01*
X7051476Y2767756D01*
X7055464Y2770816D01*
X7134682Y2850034D01*
X7134685Y2850037D01*
X7190703Y2947063D01*
X7219700Y3055282D01*
X7219700Y3167318D01*
X7190703Y3275537D01*
X7134685Y3372563D01*
X7055463Y3451785D01*
X6958437Y3507803D01*
X6850218Y3536800D01*
X6738182Y3536800D01*
X6629963Y3507803D01*
X6539145Y3455369D01*
X6471247Y3438897D01*
X6405220Y3461749D01*
X6369760Y3500757D01*
X6365693Y3507801D01*
X6319585Y3587663D01*
X6240363Y3666885D01*
X6143337Y3722903D01*
X6035118Y3751900D01*
X5923082Y3751900D01*
X5814863Y3722903D01*
X5717837Y3666885D01*
X5638615Y3587663D01*
X5582597Y3490637D01*
X5555907Y3391026D01*
X5553600Y3382417D01*
X1968515Y3382417D01*
X1958385Y3399963D01*
X1879163Y3479185D01*
X1782137Y3535203D01*
X1673918Y3564200D01*
X1561882Y3564200D01*
X1453663Y3535203D01*
X1356637Y3479185D01*
X1277415Y3399963D01*
X1267285Y3382417D01*
X1221398Y3302939D01*
X1221397Y3302938D01*
X1203125Y3234744D01*
X1166760Y3175084D01*
X1115441Y3147062D01*
X1100663Y3143103D01*
X1003637Y3087085D01*
X924415Y3007863D01*
X868397Y2910837D01*
X842370Y2813700D01*
X839400Y2802617D01*
X-4460849Y2802617D01*
X-4441598Y2835960D01*
X-4441595Y2835967D01*
X-4439754Y2842840D01*
X-4412600Y2944182D01*
X-4412600Y3056217D01*
X-4419691Y3082684D01*
X-4441597Y3164437D01*
X-4453641Y3185297D01*
X-4475835Y3223739D01*
X-4497615Y3261463D01*
X-4576837Y3340685D01*
X-4673863Y3396703D01*
X-4782082Y3425700D01*
X-4894118Y3425700D01*
X-5002337Y3396703D01*
X-5099363Y3340685D01*
X-5178585Y3261463D01*
X-5234603Y3164437D01*
X-5263600Y3056218D01*
X-5845019Y3056218D01*
X-5834198Y3074960D01*
X-5834197Y3074961D01*
X-5830073Y3090353D01*
X-5828443Y3096439D01*
X-5828442Y3096439D01*
X-5805200Y3183182D01*
X-5805200Y3295217D01*
X-5807043Y3302098D01*
X-5834197Y3403437D01*
X-5890215Y3500463D01*
X-5969437Y3579685D01*
X-6066463Y3635703D01*
X-6174682Y3664700D01*
X-6286718Y3664700D01*
X-6394937Y3635703D01*
X-6491963Y3579685D01*
X-6571185Y3500463D01*
X-6627203Y3403437D01*
X-6656200Y3295218D01*
X-7520836Y3295218D01*
X-7495163Y3302097D01*
X-7495160Y3302098D01*
X-7398140Y3358113D01*
X-7398134Y3358117D01*
X-7365226Y3391026D01*
X-7318917Y3437334D01*
X-7318913Y3437340D01*
X-7262898Y3534360D01*
X-7262897Y3534363D01*
X-7233900Y3642582D01*
X-7233900Y3754617D01*
X-7234066Y3755239D01*
X-7262897Y3862837D01*
X-7318915Y3959863D01*
X-7398137Y4039085D01*
X-7495163Y4095103D01*
X-7603382Y4124100D01*
X-7715418Y4124100D01*
X-7823637Y4095103D01*
X-7920663Y4039085D01*
X-7999885Y3959863D01*
X-8055903Y3862837D01*
X-8084900Y3754618D01*
X-8084900Y3642582D01*
X-8078801Y3619820D01*
X-8080464Y3549973D01*
X-8119626Y3492110D01*
X-8183855Y3464606D01*
X-8230663Y3467953D01*
X-8294282Y3485000D01*
X-8406318Y3485000D01*
X-8514537Y3456003D01*
X-8611563Y3399985D01*
X-8690785Y3320763D01*
X-8746803Y3223737D01*
X-8775800Y3115518D01*
X-16193813Y3115518D01*
X-16186063Y3150480D01*
X-15985896Y4053518D01*
X-10362500Y4053518D01*
X-10362500Y3941482D01*
X-10333503Y3833263D01*
X-10277485Y3736237D01*
X-10198263Y3657015D01*
X-10161348Y3635702D01*
X-10111138Y3606713D01*
X-10101237Y3600997D01*
X-9993018Y3572000D01*
X-9993017Y3572000D01*
X-9880982Y3572000D01*
X-9772763Y3600997D01*
X-9772760Y3600998D01*
X-9675740Y3657013D01*
X-9675734Y3657017D01*
X-9596517Y3736234D01*
X-9596513Y3736240D01*
X-9540498Y3833260D01*
X-9540497Y3833263D01*
X-9511500Y3941482D01*
X-9511500Y4053517D01*
X-9519850Y4084682D01*
X-9540497Y4161737D01*
X-9596515Y4258763D01*
X-9675737Y4337985D01*
X-9772763Y4394003D01*
X-9880982Y4423000D01*
X-9993018Y4423000D01*
X-10101237Y4394003D01*
X-10198263Y4337985D01*
X-10277485Y4258763D01*
X-10333503Y4161737D01*
X-10362500Y4053518D01*
X-15985896Y4053518D01*
X-15978146Y4088480D01*
X-15964167Y4151545D01*
X-15963389Y4154840D01*
X-15922258Y4319042D01*
X-15920234Y4326204D01*
X-15835592Y4594618D01*
X-2078900Y4594618D01*
X-2078900Y4482582D01*
X-2049903Y4374363D01*
X-1993885Y4277337D01*
X-1914663Y4198115D01*
X-1873068Y4174100D01*
X-1834002Y4151545D01*
X-1817637Y4142097D01*
X-1709418Y4113100D01*
X-1709417Y4113100D01*
X-1597382Y4113100D01*
X-1489163Y4142097D01*
X-1489160Y4142098D01*
X-1392140Y4198113D01*
X-1392134Y4198117D01*
X-1356981Y4233271D01*
X-1295658Y4266756D01*
X-1225966Y4261772D01*
X-1170033Y4219900D01*
X-1145616Y4154436D01*
X-1145300Y4145590D01*
X-1145300Y4084682D01*
X-1116303Y3976463D01*
X-1060285Y3879437D01*
X-981063Y3800215D01*
X-951176Y3782960D01*
X-887228Y3746039D01*
X-884037Y3744197D01*
X-775818Y3715200D01*
X-775817Y3715200D01*
X-663782Y3715200D01*
X-555563Y3744197D01*
X-555560Y3744198D01*
X-458540Y3800213D01*
X-458534Y3800217D01*
X-379317Y3879434D01*
X-379313Y3879440D01*
X-323298Y3976460D01*
X-323297Y3976463D01*
X-316128Y4003217D01*
X8458400Y4003217D01*
X8458400Y3891182D01*
X8487397Y3782963D01*
X8487398Y3782960D01*
X8543413Y3685940D01*
X8543417Y3685934D01*
X8622634Y3606717D01*
X8622640Y3606713D01*
X8719660Y3550698D01*
X8719663Y3550697D01*
X8827882Y3521700D01*
X8939917Y3521700D01*
X8939918Y3521700D01*
X9048137Y3550697D01*
X9145163Y3606715D01*
X9224385Y3685937D01*
X9280403Y3782963D01*
X9309400Y3891182D01*
X9309400Y4003218D01*
X9280403Y4111437D01*
X9224385Y4208463D01*
X9145163Y4287685D01*
X9087777Y4320817D01*
X11205900Y4320817D01*
X11205900Y4208782D01*
X11234897Y4100563D01*
X11234898Y4100560D01*
X11290913Y4003540D01*
X11290917Y4003534D01*
X11370134Y3924317D01*
X11370140Y3924313D01*
X11407420Y3902789D01*
X11455634Y3852222D01*
X11468856Y3783614D01*
X11463829Y3763428D01*
X11465101Y3763088D01*
X11462998Y3755239D01*
X11462997Y3755237D01*
X11439323Y3666882D01*
X11434000Y3647017D01*
X11434000Y3534982D01*
X11462997Y3426763D01*
X11462998Y3426761D01*
X11513439Y3339394D01*
X11529912Y3271493D01*
X11507059Y3205467D01*
X11478325Y3179345D01*
X11479486Y3177833D01*
X11473040Y3172887D01*
X11473037Y3172885D01*
X11393815Y3093663D01*
X11337797Y2996637D01*
X11310634Y2895260D01*
X11308800Y2888417D01*
X11308800Y2776382D01*
X11337797Y2668163D01*
X11337798Y2668160D01*
X11393813Y2571140D01*
X11393814Y2571138D01*
X11472061Y2492891D01*
X11505545Y2431567D01*
X11500561Y2361876D01*
X11458689Y2305942D01*
X11450538Y2300567D01*
X11448740Y2299187D01*
X11448737Y2299185D01*
X11369515Y2219963D01*
X11313497Y2122937D01*
X11285206Y2017350D01*
X11284500Y2014717D01*
X11284500Y1902682D01*
X11313497Y1794463D01*
X11313498Y1794460D01*
X11369513Y1697440D01*
X11369517Y1697434D01*
X11448734Y1618217D01*
X11448740Y1618213D01*
X11545760Y1562198D01*
X11545763Y1562197D01*
X11653982Y1533200D01*
X11766017Y1533200D01*
X11766018Y1533200D01*
X11874237Y1562197D01*
X11874239Y1562198D01*
X11874241Y1562199D01*
X11892927Y1572987D01*
X11960827Y1589458D01*
X12026854Y1566605D01*
X12062312Y1527599D01*
X12116213Y1434240D01*
X12116217Y1434234D01*
X12195434Y1355017D01*
X12195440Y1355013D01*
X12292460Y1298998D01*
X12292463Y1298997D01*
X12400682Y1270000D01*
X12512717Y1270000D01*
X12512718Y1270000D01*
X12620937Y1298997D01*
X12717963Y1355015D01*
X12797185Y1434237D01*
X12853203Y1531263D01*
X12882200Y1639482D01*
X12882200Y1751518D01*
X12853203Y1859737D01*
X12797185Y1956763D01*
X12717963Y2035985D01*
X12620937Y2092003D01*
X12512718Y2121000D01*
X12400682Y2121000D01*
X12292463Y2092003D01*
X12292460Y2092001D01*
X12273774Y2081213D01*
X12273120Y2081054D01*
X12272653Y2080574D01*
X12239286Y2072846D01*
X12205874Y2064740D01*
X12205237Y2064960D01*
X12204585Y2064809D01*
X12172311Y2076356D01*
X12139847Y2087593D01*
X12139220Y2088196D01*
X12138800Y2088347D01*
X12137079Y2090258D01*
X12113511Y2112967D01*
X12106858Y2121609D01*
X12106503Y2122937D01*
X12050485Y2219963D01*
X11971263Y2299185D01*
X11969310Y2300312D01*
X11961657Y2310256D01*
X11951803Y2335632D01*
X11938754Y2359530D01*
X11939340Y2367727D01*
X11936366Y2375387D01*
X11941795Y2402062D01*
X11943738Y2429222D01*
X11948663Y2435801D01*
X11950302Y2443853D01*
X11969291Y2463357D01*
X11985609Y2485156D01*
X11993760Y2490532D01*
X11995560Y2491913D01*
X11995563Y2491915D01*
X12074785Y2571137D01*
X12130803Y2668163D01*
X12159800Y2776382D01*
X12159800Y2888418D01*
X12130803Y2996637D01*
X12080358Y3084008D01*
X12063887Y3151904D01*
X12086739Y3217931D01*
X12115472Y3244057D01*
X12114314Y3245567D01*
X12120760Y3250513D01*
X12120763Y3250515D01*
X12199985Y3329737D01*
X12256003Y3426763D01*
X12285000Y3534982D01*
X12285000Y3647018D01*
X12256003Y3755237D01*
X12199985Y3852263D01*
X12120763Y3931485D01*
X12083479Y3953010D01*
X12035266Y4003575D01*
X12022042Y4072181D01*
X12027092Y4092365D01*
X12025799Y4092712D01*
X12028720Y4103613D01*
X12056900Y4208782D01*
X12056900Y4320818D01*
X12027903Y4429037D01*
X11971885Y4526063D01*
X11892663Y4605285D01*
X11795637Y4661303D01*
X11687418Y4690300D01*
X11575382Y4690300D01*
X11467163Y4661303D01*
X11370137Y4605285D01*
X11290915Y4526063D01*
X11274481Y4497598D01*
X11238548Y4435360D01*
X11234897Y4429037D01*
X11207588Y4327115D01*
X11205900Y4320817D01*
X9087777Y4320817D01*
X9048137Y4343703D01*
X8939918Y4372700D01*
X8827882Y4372700D01*
X8719663Y4343703D01*
X8622637Y4287685D01*
X8543415Y4208463D01*
X8487397Y4111437D01*
X8458486Y4003537D01*
X8458400Y4003217D01*
X-316128Y4003217D01*
X-294300Y4084682D01*
X-294300Y4196716D01*
X-295361Y4204774D01*
X-291918Y4205227D01*
X-290558Y4259173D01*
X-251313Y4316980D01*
X-241266Y4323946D01*
X-237134Y4327117D01*
X-157917Y4406334D01*
X-157913Y4406340D01*
X-103770Y4500117D01*
X1074500Y4500117D01*
X1074500Y4388082D01*
X1103497Y4279863D01*
X1103498Y4279860D01*
X1159513Y4182840D01*
X1159517Y4182834D01*
X1238734Y4103617D01*
X1238740Y4103613D01*
X1335760Y4047598D01*
X1335763Y4047597D01*
X1443982Y4018600D01*
X1556017Y4018600D01*
X1556018Y4018600D01*
X1664237Y4047597D01*
X1674493Y4053518D01*
X1728470Y4084682D01*
X1761263Y4103615D01*
X1840485Y4182837D01*
X1896503Y4279863D01*
X1925500Y4388082D01*
X1925500Y4500118D01*
X1896503Y4608337D01*
X1869206Y4655617D01*
X5339100Y4655617D01*
X5339100Y4543582D01*
X5368097Y4435363D01*
X5368098Y4435360D01*
X5424113Y4338340D01*
X5424117Y4338334D01*
X5503334Y4259117D01*
X5503340Y4259113D01*
X5600360Y4203098D01*
X5600363Y4203097D01*
X5708582Y4174100D01*
X5820617Y4174100D01*
X5820618Y4174100D01*
X5928837Y4203097D01*
X5932132Y4204999D01*
X6025253Y4258763D01*
X6025863Y4259115D01*
X6105085Y4338337D01*
X6161103Y4435363D01*
X6190100Y4543582D01*
X6190100Y4655618D01*
X6161103Y4763837D01*
X6105085Y4860863D01*
X6025863Y4940085D01*
X6008487Y4950117D01*
X6417000Y4950117D01*
X6417000Y4838082D01*
X6445997Y4729863D01*
X6445998Y4729860D01*
X6502013Y4632840D01*
X6502017Y4632834D01*
X6581234Y4553617D01*
X6581240Y4553613D01*
X6678260Y4497598D01*
X6678263Y4497597D01*
X6786482Y4468600D01*
X6898517Y4468600D01*
X6898518Y4468600D01*
X7006737Y4497597D01*
X7011104Y4500118D01*
X7053965Y4524864D01*
X7103763Y4553615D01*
X7182985Y4632837D01*
X7239003Y4729863D01*
X7268000Y4838082D01*
X7268000Y4950118D01*
X7239003Y5058337D01*
X7182985Y5155363D01*
X7103763Y5234585D01*
X7006737Y5290603D01*
X6898518Y5319600D01*
X6786482Y5319600D01*
X6678263Y5290603D01*
X6581237Y5234585D01*
X6502015Y5155363D01*
X6445997Y5058337D01*
X6420747Y4964100D01*
X6417000Y4950117D01*
X6008487Y4950117D01*
X5928837Y4996103D01*
X5820618Y5025100D01*
X5708582Y5025100D01*
X5600363Y4996103D01*
X5503337Y4940085D01*
X5424115Y4860863D01*
X5409492Y4835535D01*
X5370580Y4768137D01*
X5368097Y4763837D01*
X5340624Y4661303D01*
X5339100Y4655617D01*
X1869206Y4655617D01*
X1840485Y4705363D01*
X1761263Y4784585D01*
X1664237Y4840603D01*
X1556018Y4869600D01*
X1443982Y4869600D01*
X1335763Y4840603D01*
X1238737Y4784585D01*
X1159515Y4705363D01*
X1134077Y4661303D01*
X1105371Y4611582D01*
X1103497Y4608337D01*
X1075370Y4503363D01*
X1074500Y4500117D01*
X-103770Y4500117D01*
X-101898Y4503360D01*
X-101897Y4503363D01*
X-95814Y4526065D01*
X-72900Y4611582D01*
X-72900Y4723618D01*
X-101897Y4831837D01*
X-157915Y4928863D01*
X-237137Y5008085D01*
X-334163Y5064103D01*
X-442382Y5093100D01*
X-554418Y5093100D01*
X-662637Y5064103D01*
X-759663Y5008085D01*
X-838885Y4928863D01*
X-894903Y4831837D01*
X-923900Y4723618D01*
X-923900Y4723616D01*
X-923900Y4611583D01*
X-922839Y4603525D01*
X-926342Y4603063D01*
X-927520Y4549507D01*
X-961920Y4495633D01*
X-971933Y4486455D01*
X-981063Y4481185D01*
X-1018132Y4444115D01*
X-1020120Y4442294D01*
X-1049163Y4428039D01*
X-1077542Y4412544D01*
X-1080330Y4412743D01*
X-1082842Y4411511D01*
X-1114973Y4415220D01*
X-1147234Y4417528D01*
X-1149473Y4419204D01*
X-1152251Y4419525D01*
X-1177274Y4440016D01*
X-1203167Y4459400D01*
X-1204144Y4462020D01*
X-1206308Y4463792D01*
X-1216280Y4494557D01*
X-1227584Y4524864D01*
X-1227767Y4529996D01*
X-1227852Y4530258D01*
X-1227785Y4530509D01*
X-1227900Y4533710D01*
X-1227900Y4594617D01*
X-1230757Y4605282D01*
X-1256897Y4702837D01*
X-1258357Y4705365D01*
X-1292115Y4763836D01*
X-1312915Y4799863D01*
X-1392137Y4879085D01*
X-1489163Y4935103D01*
X-1597382Y4964100D01*
X-1709418Y4964100D01*
X-1817637Y4935103D01*
X-1914663Y4879085D01*
X-1993885Y4799863D01*
X-2049903Y4702837D01*
X-2078900Y4594618D01*
X-15835592Y4594618D01*
X-15832228Y4605286D01*
X-15680759Y5085618D01*
X-6228600Y5085618D01*
X-6228600Y4973582D01*
X-6199603Y4865363D01*
X-6143585Y4768337D01*
X-6064363Y4689115D01*
X-5967337Y4633097D01*
X-5859118Y4604100D01*
X-5859117Y4604100D01*
X-5747082Y4604100D01*
X-5638863Y4633097D01*
X-5638860Y4633098D01*
X-5541840Y4689113D01*
X-5541834Y4689117D01*
X-5540526Y4690426D01*
X-5462617Y4768334D01*
X-5462613Y4768340D01*
X-5406598Y4865360D01*
X-5406597Y4865363D01*
X-5377600Y4973582D01*
X-5377600Y5085617D01*
X-5389770Y5131039D01*
X-5390568Y5134017D01*
X101500Y5134017D01*
X101500Y5021982D01*
X127745Y4924029D01*
X127750Y4924013D01*
X130497Y4913763D01*
X132627Y4910072D01*
X132630Y4910066D01*
X186515Y4816737D01*
X186517Y4816734D01*
X265734Y4737517D01*
X265740Y4737513D01*
X362760Y4681498D01*
X362763Y4681497D01*
X470982Y4652500D01*
X583017Y4652500D01*
X583018Y4652500D01*
X691237Y4681497D01*
X706703Y4690426D01*
X764191Y4723617D01*
X788263Y4737515D01*
X867485Y4816737D01*
X923503Y4913763D01*
X952500Y5021982D01*
X952500Y5134018D01*
X923503Y5242237D01*
X867485Y5339263D01*
X788263Y5418485D01*
X691237Y5474503D01*
X583018Y5503500D01*
X470982Y5503500D01*
X362763Y5474503D01*
X265737Y5418485D01*
X186515Y5339263D01*
X130497Y5242237D01*
X107219Y5155359D01*
X101500Y5134017D01*
X-5390568Y5134017D01*
X-5406597Y5193837D01*
X-5462615Y5290863D01*
X-5541837Y5370085D01*
X-5638863Y5426103D01*
X-5747082Y5455100D01*
X-5859118Y5455100D01*
X-5967337Y5426103D01*
X-6064363Y5370085D01*
X-6143585Y5290863D01*
X-6199603Y5193837D01*
X-6228600Y5085618D01*
X-15680759Y5085618D01*
X-15666437Y5131037D01*
X-15666436Y5131039D01*
X-15546518Y5511321D01*
X-15545010Y5515804D01*
X-15465447Y5738165D01*
X-15463259Y5743838D01*
X-14996119Y6871740D01*
X-14993651Y6877309D01*
X-14891723Y7092819D01*
X-14889616Y7097062D01*
X-14857882Y7158018D01*
X-12923500Y7158018D01*
X-12923500Y7045982D01*
X-12894503Y6937763D01*
X-12838485Y6840737D01*
X-12759263Y6761515D01*
X-12662237Y6705497D01*
X-12554018Y6676500D01*
X-12554017Y6676500D01*
X-12441982Y6676500D01*
X-12333763Y6705497D01*
X-12333760Y6705498D01*
X-12236740Y6761513D01*
X-12236734Y6761517D01*
X-12157517Y6840734D01*
X-12157513Y6840740D01*
X-12101498Y6937760D01*
X-12101497Y6937763D01*
X-12098374Y6949418D01*
X-4002100Y6949418D01*
X-4002100Y6837382D01*
X-3973103Y6729163D01*
X-3917085Y6632137D01*
X-3837863Y6552915D01*
X-3740837Y6496897D01*
X-3632618Y6467900D01*
X-3632617Y6467900D01*
X-3520582Y6467900D01*
X-3412363Y6496897D01*
X-3412360Y6496898D01*
X-3315340Y6552913D01*
X-3315334Y6552917D01*
X-3236117Y6632134D01*
X-3236113Y6632140D01*
X-3180098Y6729160D01*
X-3180097Y6729163D01*
X-3151100Y6837382D01*
X-3151100Y6949417D01*
X-3152541Y6954797D01*
X-3180097Y7057637D01*
X-3191458Y7077314D01*
X-3229331Y7142913D01*
X-3236115Y7154663D01*
X-3315337Y7233885D01*
X-3323873Y7238813D01*
X-3411487Y7289397D01*
X-3412363Y7289903D01*
X-3520582Y7318900D01*
X-3632618Y7318900D01*
X-3740837Y7289903D01*
X-3837863Y7233885D01*
X-3917085Y7154663D01*
X-3973103Y7057637D01*
X-4002100Y6949418D01*
X-12098374Y6949418D01*
X-12072500Y7045982D01*
X-12072500Y7158017D01*
X-12079139Y7182797D01*
X-12101497Y7266237D01*
X-12157515Y7363263D01*
X-12236737Y7442485D01*
X-12333763Y7498503D01*
X-12441982Y7527500D01*
X-12554018Y7527500D01*
X-12662237Y7498503D01*
X-12759263Y7442485D01*
X-12838485Y7363263D01*
X-12894503Y7266237D01*
X-12923500Y7158018D01*
X-14857882Y7158018D01*
X-14823842Y7223405D01*
X-14487372Y7869718D01*
X-9402500Y7869718D01*
X-9402500Y7757682D01*
X-9373503Y7649463D01*
X-9317485Y7552437D01*
X-9238263Y7473215D01*
X-9234317Y7470937D01*
X-9154124Y7424637D01*
X-9141237Y7417197D01*
X-9033018Y7388200D01*
X-9033017Y7388200D01*
X-8920982Y7388200D01*
X-8812763Y7417197D01*
X-8812760Y7417198D01*
X-8715740Y7473213D01*
X-8715734Y7473217D01*
X-8649533Y7539418D01*
X-5256300Y7539418D01*
X-5256300Y7427382D01*
X-5227303Y7319163D01*
X-5171285Y7222137D01*
X-5092063Y7142915D01*
X-5089503Y7141437D01*
X-5000471Y7090034D01*
X-4995037Y7086897D01*
X-4886818Y7057900D01*
X-4886817Y7057900D01*
X-4774782Y7057900D01*
X-4702327Y7077314D01*
X-4702322Y7077315D01*
X-4684842Y7081999D01*
X-4666561Y7086897D01*
X-4666560Y7086898D01*
X-4569540Y7142913D01*
X-4569534Y7142917D01*
X-4490317Y7222134D01*
X-4490313Y7222140D01*
X-4434298Y7319160D01*
X-4434297Y7319163D01*
X-4431764Y7328618D01*
X-2925500Y7328618D01*
X-2925500Y7216582D01*
X-2896503Y7108363D01*
X-2840485Y7011337D01*
X-2761263Y6932115D01*
X-2664237Y6876097D01*
X-2556018Y6847100D01*
X-2556017Y6847100D01*
X-2443982Y6847100D01*
X-2335763Y6876097D01*
X-2335760Y6876098D01*
X-2238740Y6932113D01*
X-2238734Y6932117D01*
X-2159517Y7011334D01*
X-2159513Y7011340D01*
X-2103498Y7108360D01*
X-2103497Y7108363D01*
X-2074500Y7216582D01*
X-2074500Y7328617D01*
X-2079001Y7345417D01*
X-2103497Y7436837D01*
X-2104573Y7438700D01*
X-2148934Y7515536D01*
X-2159515Y7533863D01*
X-2238737Y7613085D01*
X-2335763Y7669103D01*
X-2443982Y7698100D01*
X-2556018Y7698100D01*
X-2664237Y7669103D01*
X-2761263Y7613085D01*
X-2840485Y7533863D01*
X-2896503Y7436837D01*
X-2925500Y7328618D01*
X-4431764Y7328618D01*
X-4405300Y7427382D01*
X-4405300Y7539417D01*
X-4408788Y7552437D01*
X-4434297Y7647637D01*
X-4435350Y7649460D01*
X-4488730Y7741918D01*
X-4490315Y7744663D01*
X-4569537Y7823885D01*
X-4666563Y7879903D01*
X-4774782Y7908900D01*
X-4886818Y7908900D01*
X-4995037Y7879903D01*
X-5092063Y7823885D01*
X-5171285Y7744663D01*
X-5227303Y7647637D01*
X-5256300Y7539418D01*
X-8649533Y7539418D01*
X-8636517Y7552434D01*
X-8636513Y7552440D01*
X-8603544Y7609545D01*
X-8580497Y7649463D01*
X-8551500Y7757682D01*
X-8551500Y7869718D01*
X-8580497Y7977937D01*
X-8583816Y7983686D01*
X-8611734Y8032042D01*
X-8611736Y8032044D01*
X-8613616Y8035300D01*
X-8636515Y8074963D01*
X-8647470Y8085918D01*
X-554900Y8085918D01*
X-554900Y7973882D01*
X-525903Y7865663D01*
X-469885Y7768637D01*
X-390663Y7689415D01*
X-355480Y7669102D01*
X-296965Y7635318D01*
X-293637Y7633397D01*
X-185418Y7604400D01*
X-185417Y7604400D01*
X-73382Y7604400D01*
X34837Y7633397D01*
X38165Y7635318D01*
X96680Y7669102D01*
X131863Y7689415D01*
X211085Y7768637D01*
X222390Y7788217D01*
X1253600Y7788217D01*
X1253600Y7676182D01*
X1282597Y7567963D01*
X1282598Y7567960D01*
X1338613Y7470940D01*
X1338617Y7470934D01*
X1417834Y7391717D01*
X1417840Y7391713D01*
X1514860Y7335698D01*
X1514863Y7335697D01*
X1623082Y7306700D01*
X1735117Y7306700D01*
X1735118Y7306700D01*
X1843337Y7335697D01*
X1940363Y7391715D01*
X2019585Y7470937D01*
X2075603Y7567963D01*
X2079667Y7575002D01*
X2082496Y7573368D01*
X2116711Y7615882D01*
X2182992Y7637989D01*
X2250702Y7620753D01*
X2298345Y7569646D01*
X2307270Y7546169D01*
X2312497Y7526663D01*
X2312498Y7526660D01*
X2368513Y7429640D01*
X2368517Y7429634D01*
X2447734Y7350417D01*
X2447740Y7350413D01*
X2544760Y7294398D01*
X2544763Y7294397D01*
X2652982Y7265400D01*
X2765017Y7265400D01*
X2765018Y7265400D01*
X2873237Y7294397D01*
X2874774Y7295284D01*
X2932509Y7328618D01*
X2970263Y7350415D01*
X3049485Y7429637D01*
X3105503Y7526663D01*
X3134500Y7634882D01*
X3134500Y7635317D01*
X3433500Y7635317D01*
X3433500Y7523282D01*
X3462497Y7415063D01*
X3462498Y7415060D01*
X3518513Y7318040D01*
X3518517Y7318034D01*
X3597734Y7238817D01*
X3597740Y7238813D01*
X3694760Y7182798D01*
X3694763Y7182797D01*
X3802982Y7153800D01*
X3915017Y7153800D01*
X3915018Y7153800D01*
X4023237Y7182797D01*
X4120263Y7238815D01*
X4199485Y7318037D01*
X4251031Y7407317D01*
X5767400Y7407317D01*
X5767400Y7295282D01*
X5796397Y7187063D01*
X5796398Y7187060D01*
X5852413Y7090040D01*
X5852417Y7090034D01*
X5931634Y7010817D01*
X5931640Y7010813D01*
X6028660Y6954798D01*
X6028661Y6954797D01*
X6139392Y6925127D01*
X6199053Y6888761D01*
X6229581Y6825914D01*
X6227073Y6773260D01*
X6216800Y6734920D01*
X6216800Y6622882D01*
X6245797Y6514663D01*
X6245798Y6514660D01*
X6301813Y6417640D01*
X6301817Y6417634D01*
X6381034Y6338417D01*
X6381040Y6338413D01*
X6478060Y6282398D01*
X6478061Y6282397D01*
X6592891Y6251629D01*
X6652551Y6215264D01*
X6683080Y6152416D01*
X6681204Y6113005D01*
X6682961Y6112774D01*
X6681900Y6104716D01*
X6681900Y5992682D01*
X6710897Y5884463D01*
X6710898Y5884460D01*
X6766913Y5787440D01*
X6766917Y5787434D01*
X6846134Y5708217D01*
X6846140Y5708213D01*
X6943160Y5652198D01*
X6943163Y5652197D01*
X7051382Y5623200D01*
X7163417Y5623200D01*
X7163418Y5623200D01*
X7271637Y5652197D01*
X7368663Y5708215D01*
X7442665Y5782217D01*
X8413500Y5782217D01*
X8413500Y5670182D01*
X8442497Y5561963D01*
X8442498Y5561960D01*
X8498513Y5464940D01*
X8498517Y5464934D01*
X8577734Y5385717D01*
X8577740Y5385713D01*
X8674760Y5329698D01*
X8674763Y5329697D01*
X8782982Y5300700D01*
X8895017Y5300700D01*
X8895018Y5300700D01*
X8914861Y5306017D01*
X12122600Y5306017D01*
X12122600Y5193982D01*
X12151597Y5085763D01*
X12151598Y5085760D01*
X12207613Y4988740D01*
X12207617Y4988734D01*
X12286834Y4909517D01*
X12286840Y4909513D01*
X12383860Y4853498D01*
X12383863Y4853497D01*
X12492082Y4824500D01*
X12610700Y4824500D01*
X12677739Y4804815D01*
X12723494Y4752011D01*
X12733438Y4682853D01*
X12730475Y4668407D01*
X12728200Y4659917D01*
X12728200Y4547882D01*
X12757197Y4439663D01*
X12757198Y4439660D01*
X12813213Y4342640D01*
X12813217Y4342634D01*
X12892434Y4263417D01*
X12892440Y4263413D01*
X12989460Y4207398D01*
X12989465Y4207396D01*
X12992776Y4206509D01*
X12995251Y4204999D01*
X12996970Y4204288D01*
X12996858Y4204019D01*
X13052434Y4170140D01*
X13082959Y4107291D01*
X13074660Y4037916D01*
X13030171Y3984041D01*
X13022675Y3979349D01*
X13020863Y3978303D01*
X12923837Y3922285D01*
X12844615Y3843063D01*
X12788597Y3746037D01*
X12764744Y3657013D01*
X12759600Y3637817D01*
X12759600Y3525782D01*
X12788597Y3417563D01*
X12788598Y3417560D01*
X12844613Y3320540D01*
X12844617Y3320534D01*
X12923834Y3241317D01*
X12923840Y3241313D01*
X12978892Y3209528D01*
X13027106Y3158961D01*
X13040328Y3090353D01*
X13014360Y3025489D01*
X12978890Y2994755D01*
X12931137Y2967185D01*
X12851915Y2887963D01*
X12795897Y2790937D01*
X12775496Y2714797D01*
X12766900Y2682717D01*
X12766900Y2570682D01*
X12795897Y2462463D01*
X12795898Y2462460D01*
X12851913Y2365440D01*
X12851917Y2365434D01*
X12931134Y2286217D01*
X12931140Y2286213D01*
X13028160Y2230198D01*
X13028163Y2230197D01*
X13136382Y2201200D01*
X13248417Y2201200D01*
X13248418Y2201200D01*
X13356637Y2230197D01*
X13453663Y2286215D01*
X13532885Y2365437D01*
X13588903Y2462463D01*
X13617900Y2570682D01*
X13617900Y2682718D01*
X13588903Y2790937D01*
X13532885Y2887963D01*
X13453663Y2967185D01*
X13398610Y2998970D01*
X13350394Y3049536D01*
X13337170Y3118143D01*
X13363138Y3183008D01*
X13398609Y3213744D01*
X13424865Y3228903D01*
X13446363Y3241315D01*
X13525585Y3320537D01*
X13581603Y3417563D01*
X13610600Y3525782D01*
X13610600Y3637818D01*
X13581603Y3746037D01*
X13525585Y3843063D01*
X13446363Y3922285D01*
X13349337Y3978303D01*
X13346034Y3979187D01*
X13343563Y3980694D01*
X13341830Y3981412D01*
X13341941Y3981682D01*
X13286374Y4015549D01*
X13255842Y4078395D01*
X13264134Y4147771D01*
X13308617Y4201651D01*
X13316124Y4206350D01*
X13376596Y4241264D01*
X13414963Y4263415D01*
X13494185Y4342637D01*
X13550203Y4439663D01*
X13579200Y4547882D01*
X13579200Y4659918D01*
X13550203Y4768137D01*
X13494185Y4865163D01*
X13414963Y4944385D01*
X13317937Y5000403D01*
X13209718Y5029400D01*
X13097682Y5029400D01*
X13091100Y5029400D01*
X13024061Y5049085D01*
X12978306Y5101889D01*
X12968362Y5171047D01*
X12971325Y5185493D01*
X12973600Y5193982D01*
X12973600Y5306018D01*
X12944603Y5414237D01*
X12888585Y5511263D01*
X12809363Y5590485D01*
X12712337Y5646503D01*
X12604118Y5675500D01*
X12492082Y5675500D01*
X12383863Y5646503D01*
X12286837Y5590485D01*
X12207615Y5511263D01*
X12180870Y5464940D01*
X12154050Y5418485D01*
X12151597Y5414237D01*
X12126240Y5319600D01*
X12122600Y5306017D01*
X8914861Y5306017D01*
X9003237Y5329697D01*
X9100263Y5385715D01*
X9179485Y5464937D01*
X9235503Y5561963D01*
X9264500Y5670182D01*
X9264500Y5782218D01*
X9235503Y5890437D01*
X9179485Y5987463D01*
X9100263Y6066685D01*
X9003237Y6122703D01*
X8895018Y6151700D01*
X8782982Y6151700D01*
X8674763Y6122703D01*
X8577737Y6066685D01*
X8498515Y5987463D01*
X8442497Y5890437D01*
X8414899Y5787437D01*
X8413500Y5782217D01*
X7442665Y5782217D01*
X7447885Y5787437D01*
X7503903Y5884463D01*
X7532900Y5992682D01*
X7532900Y6104718D01*
X7503903Y6212937D01*
X7447885Y6309963D01*
X7368663Y6389185D01*
X7271637Y6445203D01*
X7163418Y6474200D01*
X7163415Y6474200D01*
X7156809Y6475970D01*
X7097148Y6512335D01*
X7066619Y6575181D01*
X7068499Y6614594D01*
X7066739Y6614826D01*
X7067800Y6622884D01*
X7067800Y6734916D01*
X7067800Y6734918D01*
X7038803Y6843137D01*
X6982785Y6940163D01*
X6903563Y7019385D01*
X6806537Y7075403D01*
X6698318Y7104400D01*
X6698316Y7104400D01*
X6695808Y7105072D01*
X6636147Y7141437D01*
X6605618Y7204284D01*
X6608126Y7256940D01*
X6610617Y7266237D01*
X6618400Y7295282D01*
X6618400Y7407318D01*
X6589403Y7515537D01*
X6533385Y7612563D01*
X6470929Y7675019D01*
X6437444Y7736342D01*
X6437843Y7741917D01*
X9299700Y7741917D01*
X9299700Y7629882D01*
X9328697Y7521663D01*
X9328698Y7521660D01*
X9384713Y7424640D01*
X9384717Y7424634D01*
X9463934Y7345417D01*
X9463940Y7345413D01*
X9560960Y7289398D01*
X9560963Y7289397D01*
X9669182Y7260400D01*
X9781217Y7260400D01*
X9781218Y7260400D01*
X9889437Y7289397D01*
X9890314Y7289903D01*
X9957368Y7328617D01*
X9986463Y7345415D01*
X10065685Y7424637D01*
X10121703Y7521663D01*
X10150700Y7629882D01*
X10150700Y7741918D01*
X10121703Y7850137D01*
X10065685Y7947163D01*
X9986463Y8026385D01*
X9889437Y8082403D01*
X9781218Y8111400D01*
X9669182Y8111400D01*
X9560963Y8082403D01*
X9463937Y8026385D01*
X9384715Y7947163D01*
X9355428Y7896437D01*
X9330642Y7853505D01*
X9328697Y7850137D01*
X9300135Y7743539D01*
X9299700Y7741917D01*
X6437843Y7741917D01*
X6442428Y7806034D01*
X6484300Y7861967D01*
X6549764Y7886384D01*
X6558610Y7886700D01*
X6665917Y7886700D01*
X6665918Y7886700D01*
X6774137Y7915697D01*
X6781213Y7919782D01*
X6837301Y7952165D01*
X6871163Y7971715D01*
X6950385Y8050937D01*
X7006403Y8147963D01*
X7035400Y8256182D01*
X7035400Y8368218D01*
X7006403Y8476437D01*
X6989325Y8506017D01*
X12690800Y8506017D01*
X12690800Y8393982D01*
X12719797Y8285763D01*
X12719798Y8285760D01*
X12775813Y8188740D01*
X12775817Y8188734D01*
X12855034Y8109517D01*
X12855040Y8109513D01*
X12952060Y8053498D01*
X12952063Y8053497D01*
X13060282Y8024500D01*
X13172317Y8024500D01*
X13172318Y8024500D01*
X13280537Y8053497D01*
X13377563Y8109515D01*
X13456785Y8188737D01*
X13512803Y8285763D01*
X13541800Y8393982D01*
X13541800Y8506018D01*
X13512803Y8614237D01*
X13456785Y8711263D01*
X13377563Y8790485D01*
X13280537Y8846503D01*
X13172318Y8875500D01*
X13060282Y8875500D01*
X12952063Y8846503D01*
X12855037Y8790485D01*
X12775815Y8711263D01*
X12745244Y8658313D01*
X12726034Y8625039D01*
X12719797Y8614237D01*
X12691795Y8509729D01*
X12690800Y8506017D01*
X6989325Y8506017D01*
X6950385Y8573463D01*
X6871163Y8652685D01*
X6774137Y8708703D01*
X6665918Y8737700D01*
X6553882Y8737700D01*
X6445663Y8708703D01*
X6348637Y8652685D01*
X6269415Y8573463D01*
X6213397Y8476437D01*
X6188098Y8382017D01*
X6184400Y8368217D01*
X6184400Y8256182D01*
X6213397Y8147963D01*
X6213398Y8147960D01*
X6269413Y8050940D01*
X6269417Y8050934D01*
X6331871Y7988481D01*
X6365356Y7927158D01*
X6360372Y7857466D01*
X6318500Y7801533D01*
X6253036Y7777116D01*
X6244190Y7776800D01*
X6136882Y7776800D01*
X6028663Y7747803D01*
X5931637Y7691785D01*
X5852415Y7612563D01*
X5815069Y7547879D01*
X5800869Y7523282D01*
X5796397Y7515537D01*
X5769475Y7415060D01*
X5767400Y7407317D01*
X4251031Y7407317D01*
X4255503Y7415063D01*
X4284500Y7523282D01*
X4284500Y7635318D01*
X4255503Y7743537D01*
X4199485Y7840563D01*
X4145731Y7894317D01*
X4736900Y7894317D01*
X4736900Y7782282D01*
X4765897Y7674063D01*
X4765898Y7674060D01*
X4821913Y7577040D01*
X4821917Y7577034D01*
X4901134Y7497817D01*
X4901140Y7497813D01*
X4998160Y7441798D01*
X4998163Y7441797D01*
X5106382Y7412800D01*
X5218417Y7412800D01*
X5218418Y7412800D01*
X5326637Y7441797D01*
X5327824Y7442482D01*
X5381051Y7473213D01*
X5423663Y7497815D01*
X5502885Y7577037D01*
X5558903Y7674063D01*
X5587900Y7782282D01*
X5587900Y7894318D01*
X5558903Y8002537D01*
X5502885Y8099563D01*
X5423663Y8178785D01*
X5326637Y8234803D01*
X5218418Y8263800D01*
X5106382Y8263800D01*
X4998163Y8234803D01*
X4901137Y8178785D01*
X4821915Y8099563D01*
X4793841Y8050937D01*
X4767204Y8004800D01*
X4765897Y8002537D01*
X4737469Y7896439D01*
X4736900Y7894317D01*
X4145731Y7894317D01*
X4120263Y7919785D01*
X4120225Y7919806D01*
X4118733Y7921391D01*
X4103719Y7950949D01*
X4087824Y7980060D01*
X4087960Y7981975D01*
X4087092Y7983686D01*
X4090442Y8016674D01*
X4092808Y8049752D01*
X4093958Y8051288D01*
X4094152Y8053198D01*
X4114805Y8079137D01*
X4134679Y8105686D01*
X4137342Y8107442D01*
X4137673Y8107858D01*
X4138288Y8108066D01*
X4146988Y8113805D01*
X4158259Y8120312D01*
X4158265Y8120317D01*
X4237482Y8199534D01*
X4237485Y8199537D01*
X4293503Y8296563D01*
X4322500Y8404782D01*
X4322500Y8516818D01*
X4293503Y8625037D01*
X4237485Y8722063D01*
X4158263Y8801285D01*
X4061237Y8857303D01*
X3953018Y8886300D01*
X3840982Y8886300D01*
X3732763Y8857303D01*
X3635737Y8801285D01*
X3556515Y8722063D01*
X3500497Y8625037D01*
X3486679Y8573465D01*
X3471500Y8516817D01*
X3471500Y8404782D01*
X3500497Y8296563D01*
X3500498Y8296560D01*
X3556513Y8199540D01*
X3556514Y8199538D01*
X3634691Y8121361D01*
X3668175Y8060037D01*
X3663191Y7990346D01*
X3621319Y7934412D01*
X3609015Y7926296D01*
X3597737Y7919785D01*
X3518515Y7840563D01*
X3462497Y7743537D01*
X3436802Y7647639D01*
X3433500Y7635317D01*
X3134500Y7635317D01*
X3134500Y7746918D01*
X3105503Y7855137D01*
X3049485Y7952163D01*
X2970263Y8031385D01*
X2873237Y8087403D01*
X2765018Y8116400D01*
X2652982Y8116400D01*
X2544763Y8087403D01*
X2447737Y8031385D01*
X2368515Y7952163D01*
X2326796Y7879903D01*
X2308433Y7848098D01*
X2305611Y7849726D01*
X2271340Y7807184D01*
X2205049Y7785108D01*
X2137347Y7802376D01*
X2089728Y7853505D01*
X2080829Y7876930D01*
X2075603Y7896437D01*
X2019585Y7993463D01*
X1940363Y8072685D01*
X1843337Y8128703D01*
X1735118Y8157700D01*
X1623082Y8157700D01*
X1514863Y8128703D01*
X1417837Y8072685D01*
X1338615Y7993463D01*
X1314768Y7952159D01*
X1289793Y7908900D01*
X1282597Y7896437D01*
X1267627Y7840565D01*
X1253600Y7788217D01*
X222390Y7788217D01*
X261027Y7855139D01*
X262878Y7858345D01*
X267101Y7865660D01*
X267103Y7865663D01*
X296100Y7973882D01*
X296100Y8085918D01*
X283224Y8133972D01*
X284887Y8203821D01*
X324050Y8261683D01*
X340373Y8273016D01*
X340760Y8273313D01*
X340763Y8273315D01*
X419985Y8352537D01*
X476003Y8449563D01*
X505000Y8557782D01*
X505000Y8669818D01*
X476003Y8778037D01*
X419985Y8875063D01*
X340763Y8954285D01*
X286148Y8985817D01*
X1572400Y8985817D01*
X1572400Y8873782D01*
X1601397Y8765563D01*
X1601398Y8765560D01*
X1657413Y8668540D01*
X1657417Y8668534D01*
X1736634Y8589317D01*
X1736640Y8589313D01*
X1833660Y8533298D01*
X1833663Y8533297D01*
X1941882Y8504300D01*
X2053917Y8504300D01*
X2053918Y8504300D01*
X2162137Y8533297D01*
X2259163Y8589315D01*
X2338385Y8668537D01*
X2394403Y8765563D01*
X2423400Y8873782D01*
X2423400Y8985818D01*
X2404912Y9054817D01*
X7846800Y9054817D01*
X7846800Y8942782D01*
X7875797Y8834563D01*
X7875798Y8834560D01*
X7931813Y8737540D01*
X7931817Y8737534D01*
X8011034Y8658317D01*
X8011040Y8658313D01*
X8108060Y8602298D01*
X8108063Y8602297D01*
X8216282Y8573300D01*
X8328317Y8573300D01*
X8328318Y8573300D01*
X8436537Y8602297D01*
X8533563Y8658315D01*
X8612785Y8737537D01*
X8668803Y8834563D01*
X8697800Y8942782D01*
X8697800Y9054818D01*
X8668803Y9163037D01*
X8612785Y9260063D01*
X8597331Y9275517D01*
X10324500Y9275517D01*
X10324500Y9163482D01*
X10353497Y9055263D01*
X10353498Y9055260D01*
X10409513Y8958240D01*
X10409517Y8958234D01*
X10488734Y8879017D01*
X10488740Y8879013D01*
X10585760Y8822998D01*
X10585763Y8822997D01*
X10693982Y8794000D01*
X10806017Y8794000D01*
X10806018Y8794000D01*
X10914237Y8822997D01*
X11011263Y8879015D01*
X11090485Y8958237D01*
X11146503Y9055263D01*
X11175500Y9163482D01*
X11175500Y9275518D01*
X11146503Y9383737D01*
X11090485Y9480763D01*
X11011263Y9559985D01*
X10914237Y9616003D01*
X10806018Y9645000D01*
X10693982Y9645000D01*
X10585763Y9616003D01*
X10488737Y9559985D01*
X10409515Y9480763D01*
X10372169Y9416079D01*
X10366362Y9406019D01*
X10353497Y9383737D01*
X10329051Y9292500D01*
X10324500Y9275517D01*
X8597331Y9275517D01*
X8533563Y9339285D01*
X8436537Y9395303D01*
X8328318Y9424300D01*
X8216282Y9424300D01*
X8108063Y9395303D01*
X8011037Y9339285D01*
X7931815Y9260063D01*
X7931813Y9260059D01*
X7891976Y9191059D01*
X7875797Y9163037D01*
X7846919Y9055260D01*
X7846800Y9054817D01*
X2404912Y9054817D01*
X2394403Y9094037D01*
X2338385Y9191063D01*
X2259163Y9270285D01*
X2162137Y9326303D01*
X2053918Y9355300D01*
X1941882Y9355300D01*
X1833663Y9326303D01*
X1736637Y9270285D01*
X1657415Y9191063D01*
X1601397Y9094037D01*
X1578961Y9010302D01*
X1572400Y8985817D01*
X286148Y8985817D01*
X243737Y9010303D01*
X135518Y9039300D01*
X23482Y9039300D01*
X-84737Y9010303D01*
X-181763Y8954285D01*
X-260985Y8875063D01*
X-317003Y8778037D01*
X-346000Y8669818D01*
X-346000Y8557782D01*
X-335023Y8516816D01*
X-333124Y8509729D01*
X-334787Y8439879D01*
X-373950Y8382017D01*
X-390272Y8370684D01*
X-390656Y8370388D01*
X-390663Y8370385D01*
X-469885Y8291163D01*
X-525903Y8194137D01*
X-554900Y8085918D01*
X-8647470Y8085918D01*
X-8715737Y8154185D01*
X-8812763Y8210203D01*
X-8920982Y8239200D01*
X-9033018Y8239200D01*
X-9141237Y8210203D01*
X-9238263Y8154185D01*
X-9317485Y8074963D01*
X-9373503Y7977937D01*
X-9402500Y7869718D01*
X-14487372Y7869718D01*
X-14453332Y7935105D01*
X-14316109Y8198692D01*
X-14312480Y8205180D01*
X-14226343Y8348892D01*
X-14224565Y8351769D01*
X-13574024Y9372918D01*
X-4113700Y9372918D01*
X-4113700Y9260882D01*
X-4084703Y9152663D01*
X-4028685Y9055637D01*
X-3949463Y8976415D01*
X-3852437Y8920397D01*
X-3744218Y8891400D01*
X-3744217Y8891400D01*
X-3632182Y8891400D01*
X-3523963Y8920397D01*
X-3523960Y8920398D01*
X-3426940Y8976413D01*
X-3426934Y8976417D01*
X-3347717Y9055634D01*
X-3347713Y9055640D01*
X-3291698Y9152660D01*
X-3291697Y9152663D01*
X-3262700Y9260882D01*
X-3262700Y9372917D01*
X-3263932Y9377517D01*
X-3291697Y9481137D01*
X-3347715Y9578163D01*
X-3426937Y9657385D01*
X-3523963Y9713403D01*
X-3632182Y9742400D01*
X-3744218Y9742400D01*
X-3852437Y9713403D01*
X-3949463Y9657385D01*
X-4028685Y9578163D01*
X-4084703Y9481137D01*
X-4113700Y9372918D01*
X-13574024Y9372918D01*
X-13554379Y9403754D01*
X-13552900Y9406020D01*
X-13523556Y9449936D01*
X-13523555Y9449936D01*
X-13504022Y9479171D01*
X-13499294Y9485769D01*
X-13278110Y9774018D01*
X-3067100Y9774018D01*
X-3067100Y9661982D01*
X-3038103Y9553763D01*
X-2982085Y9456737D01*
X-2902863Y9377515D01*
X-2805837Y9321497D01*
X-2697618Y9292500D01*
X-2697617Y9292500D01*
X-2585582Y9292500D01*
X-2477363Y9321497D01*
X-2477360Y9321498D01*
X-2380340Y9377513D01*
X-2380334Y9377517D01*
X-2301117Y9456734D01*
X-2301113Y9456740D01*
X-2245098Y9553760D01*
X-2245097Y9553763D01*
X-2216100Y9661982D01*
X-2216100Y9774017D01*
X-2245097Y9882236D01*
X-2245098Y9882239D01*
X-2301113Y9979259D01*
X-2301115Y9979263D01*
X-2380337Y10058485D01*
X-2477363Y10114503D01*
X-2585582Y10143500D01*
X-2697618Y10143500D01*
X-2805837Y10114503D01*
X-2902863Y10058485D01*
X-2982085Y9979263D01*
X-3038103Y9882237D01*
X-3067100Y9774018D01*
X-13278110Y9774018D01*
X-12724028Y10496101D01*
X-12721506Y10499279D01*
X-12586457Y10663836D01*
X-12584564Y10666018D01*
X-8073900Y10666018D01*
X-8073900Y10553982D01*
X-8044903Y10445763D01*
X-7988885Y10348737D01*
X-7909663Y10269515D01*
X-7812637Y10213497D01*
X-7704418Y10184500D01*
X-7704417Y10184500D01*
X-7592382Y10184500D01*
X-7484163Y10213497D01*
X-7484160Y10213498D01*
X-7387140Y10269513D01*
X-7387134Y10269517D01*
X-7307917Y10348734D01*
X-7307913Y10348740D01*
X-7251898Y10445760D01*
X-7251897Y10445763D01*
X-7222900Y10553982D01*
X-7222900Y10666017D01*
X-7226561Y10679682D01*
X-7251897Y10774237D01*
X-7261989Y10791716D01*
X-7284864Y10831337D01*
X-7307915Y10871263D01*
X-7387137Y10950485D01*
X-7484163Y11006503D01*
X-7592382Y11035500D01*
X-7704418Y11035500D01*
X-7812637Y11006503D01*
X-7909663Y10950485D01*
X-7988885Y10871263D01*
X-8044903Y10774237D01*
X-8073900Y10666018D01*
X-12584564Y10666018D01*
X-12582031Y10668939D01*
X-12500510Y10757913D01*
X-12142533Y11148618D01*
X-6221900Y11148618D01*
X-6221900Y11036582D01*
X-6192903Y10928363D01*
X-6136885Y10831337D01*
X-6057663Y10752115D01*
X-5960637Y10696097D01*
X-5852418Y10667100D01*
X-5852417Y10667100D01*
X-5740382Y10667100D01*
X-5632163Y10696097D01*
X-5632160Y10696098D01*
X-5535140Y10752113D01*
X-5535134Y10752117D01*
X-5455917Y10831334D01*
X-5455913Y10831340D01*
X-5399898Y10928360D01*
X-5399897Y10928363D01*
X-5371266Y11035217D01*
X2980800Y11035217D01*
X2980800Y10923182D01*
X3009797Y10814963D01*
X3009798Y10814960D01*
X3065813Y10717940D01*
X3065817Y10717934D01*
X3145034Y10638717D01*
X3145040Y10638713D01*
X3242060Y10582698D01*
X3242063Y10582697D01*
X3350282Y10553700D01*
X3462317Y10553700D01*
X3462318Y10553700D01*
X3570537Y10582697D01*
X3667563Y10638715D01*
X3746785Y10717937D01*
X3746787Y10717940D01*
X3751733Y10724386D01*
X3754270Y10722438D01*
X3793933Y10760288D01*
X3862534Y10773539D01*
X3927410Y10747599D01*
X3949167Y10725592D01*
X3950510Y10723841D01*
X4029734Y10644617D01*
X4029740Y10644613D01*
X4126760Y10588598D01*
X4126763Y10588597D01*
X4234982Y10559600D01*
X4347017Y10559600D01*
X4347018Y10559600D01*
X4455237Y10588597D01*
X4552263Y10644615D01*
X4631485Y10723837D01*
X4670676Y10791717D01*
X8080600Y10791717D01*
X8080600Y10679682D01*
X8109597Y10571463D01*
X8109598Y10571460D01*
X8165613Y10474440D01*
X8165617Y10474434D01*
X8244834Y10395217D01*
X8244840Y10395213D01*
X8341860Y10339198D01*
X8341863Y10339197D01*
X8450082Y10310200D01*
X8562117Y10310200D01*
X8562118Y10310200D01*
X8670337Y10339197D01*
X8767363Y10395215D01*
X8846585Y10474437D01*
X8902603Y10571463D01*
X8931600Y10679682D01*
X8931600Y10791718D01*
X8902603Y10899937D01*
X8846585Y10996963D01*
X8767363Y11076185D01*
X8670337Y11132203D01*
X8562118Y11161200D01*
X8450082Y11161200D01*
X8341863Y11132203D01*
X8244837Y11076185D01*
X8165615Y10996963D01*
X8138781Y10950485D01*
X8123018Y10923182D01*
X8109597Y10899937D01*
X8086829Y10814963D01*
X8080600Y10791717D01*
X4670676Y10791717D01*
X4687503Y10820863D01*
X4716500Y10929082D01*
X4716500Y11041118D01*
X4687503Y11149337D01*
X4631485Y11246363D01*
X4552263Y11325585D01*
X4455237Y11381603D01*
X4347018Y11410600D01*
X4347006Y11410600D01*
X4339360Y11411607D01*
X4275462Y11439871D01*
X4248156Y11472543D01*
X4193585Y11567063D01*
X4114363Y11646285D01*
X4017337Y11702303D01*
X3909118Y11731300D01*
X3797082Y11731300D01*
X3688863Y11702303D01*
X3591837Y11646285D01*
X3512615Y11567063D01*
X3512613Y11567059D01*
X3454670Y11466700D01*
X3404103Y11418484D01*
X3358135Y11407332D01*
X3358342Y11405761D01*
X3350290Y11404700D01*
X3350282Y11404700D01*
X3242063Y11375703D01*
X3145037Y11319685D01*
X3065815Y11240463D01*
X3065813Y11240459D01*
X3013205Y11149339D01*
X3009797Y11143437D01*
X2980876Y11035499D01*
X2980800Y11035217D01*
X-5371266Y11035217D01*
X-5370900Y11036582D01*
X-5370900Y11148617D01*
X-5371092Y11149336D01*
X-5399897Y11256837D01*
X-5455915Y11353863D01*
X-5535137Y11433085D01*
X-5632163Y11489103D01*
X-5740382Y11518100D01*
X-5852418Y11518100D01*
X-5960637Y11489103D01*
X-6057663Y11433085D01*
X-6136885Y11353863D01*
X-6192903Y11256837D01*
X-6221900Y11148618D01*
X-12142533Y11148618D01*
X-11754563Y11572057D01*
X-11750817Y11575970D01*
X-11575970Y11750817D01*
X-11572057Y11754563D01*
X-10717523Y12537517D01*
X3924500Y12537517D01*
X3924500Y12425482D01*
X3953497Y12317263D01*
X3953498Y12317260D01*
X4009513Y12220240D01*
X4009517Y12220234D01*
X4088734Y12141017D01*
X4088740Y12141013D01*
X4185760Y12084998D01*
X4185763Y12084997D01*
X4293982Y12056000D01*
X4406017Y12056000D01*
X4406018Y12056000D01*
X4514237Y12084997D01*
X4611263Y12141015D01*
X4690485Y12220237D01*
X4746503Y12317263D01*
X4775500Y12425482D01*
X4775500Y12537518D01*
X4771240Y12553418D01*
X5021800Y12553418D01*
X5021800Y12441382D01*
X5023319Y12435709D01*
X5023320Y12435707D01*
X5050797Y12333163D01*
X5050798Y12333160D01*
X5106813Y12236140D01*
X5106817Y12236134D01*
X5186034Y12156917D01*
X5186040Y12156913D01*
X5283060Y12100898D01*
X5283063Y12100897D01*
X5391282Y12071900D01*
X5503317Y12071900D01*
X5503318Y12071900D01*
X5611537Y12100897D01*
X5708563Y12156915D01*
X5787785Y12236137D01*
X5843803Y12333163D01*
X5872800Y12441382D01*
X5872800Y12553418D01*
X5844907Y12657517D01*
X6214900Y12657517D01*
X6214900Y12545482D01*
X6243897Y12437263D01*
X6243898Y12437260D01*
X6299913Y12340240D01*
X6299917Y12340234D01*
X6379134Y12261017D01*
X6379140Y12261013D01*
X6476160Y12204998D01*
X6476163Y12204997D01*
X6584382Y12176000D01*
X6696417Y12176000D01*
X6696418Y12176000D01*
X6804637Y12204997D01*
X6901663Y12261015D01*
X6980885Y12340237D01*
X6986632Y12345984D01*
X6988765Y12343850D01*
X7033584Y12376570D01*
X7103330Y12380718D01*
X7164247Y12346501D01*
X7182908Y12321878D01*
X7232815Y12235437D01*
X7232817Y12235434D01*
X7312034Y12156217D01*
X7312040Y12156213D01*
X7409060Y12100198D01*
X7409063Y12100197D01*
X7517282Y12071200D01*
X7629317Y12071200D01*
X7629318Y12071200D01*
X7737537Y12100197D01*
X7738750Y12100897D01*
X7808239Y12141017D01*
X7834563Y12156215D01*
X7913785Y12235437D01*
X7969803Y12332463D01*
X7998800Y12440682D01*
X7998800Y12552718D01*
X7969803Y12660937D01*
X7913785Y12757963D01*
X7834563Y12837185D01*
X7737537Y12893203D01*
X7629318Y12922200D01*
X7517282Y12922200D01*
X7409063Y12893203D01*
X7312037Y12837185D01*
X7312034Y12837182D01*
X7227068Y12752216D01*
X7224935Y12754348D01*
X7180105Y12721625D01*
X7110358Y12717483D01*
X7049444Y12751707D01*
X7030791Y12776323D01*
X6980885Y12862763D01*
X6901663Y12941985D01*
X6804637Y12998003D01*
X6696418Y13027000D01*
X6584382Y13027000D01*
X6476163Y12998003D01*
X6379137Y12941985D01*
X6299915Y12862763D01*
X6243897Y12765737D01*
X6215734Y12660628D01*
X6214900Y12657517D01*
X5844907Y12657517D01*
X5843803Y12661637D01*
X5787785Y12758663D01*
X5708563Y12837885D01*
X5611537Y12893903D01*
X5503318Y12922900D01*
X5391282Y12922900D01*
X5283063Y12893903D01*
X5186037Y12837885D01*
X5106815Y12758663D01*
X5050797Y12661637D01*
X5021800Y12553418D01*
X4771240Y12553418D01*
X4746503Y12645737D01*
X4690485Y12742763D01*
X4611263Y12821985D01*
X4514237Y12878003D01*
X4406018Y12907000D01*
X4293982Y12907000D01*
X4185763Y12878003D01*
X4088737Y12821985D01*
X4009515Y12742763D01*
X3953497Y12645737D01*
X3926021Y12543192D01*
X3924500Y12537517D01*
X-10717523Y12537517D01*
X-10668939Y12582031D01*
X-10663836Y12586457D01*
X-10499279Y12721506D01*
X-10496101Y12724028D01*
X-9988906Y13113218D01*
X-8037000Y13113218D01*
X-8037000Y13001182D01*
X-8008003Y12892963D01*
X-7951985Y12795937D01*
X-7872763Y12716715D01*
X-7808079Y12679369D01*
X-7777364Y12661636D01*
X-7775737Y12660697D01*
X-7667518Y12631700D01*
X-7667517Y12631700D01*
X-7555482Y12631700D01*
X-7447263Y12660697D01*
X-7447260Y12660698D01*
X-7350240Y12716713D01*
X-7350234Y12716717D01*
X-7271017Y12795934D01*
X-7271013Y12795940D01*
X-7214998Y12892960D01*
X-7214997Y12892963D01*
X-7186000Y13001182D01*
X-7186000Y13113217D01*
X-7214997Y13221436D01*
X-7214999Y13221443D01*
X-7232724Y13252143D01*
X-7232726Y13252145D01*
X-7263829Y13306017D01*
X3091700Y13306017D01*
X3091700Y13193982D01*
X3120697Y13085763D01*
X3120698Y13085760D01*
X3176713Y12988740D01*
X3176717Y12988734D01*
X3255934Y12909517D01*
X3255940Y12909513D01*
X3352960Y12853498D01*
X3352963Y12853497D01*
X3461182Y12824500D01*
X3573217Y12824500D01*
X3573218Y12824500D01*
X3681437Y12853497D01*
X3778463Y12909515D01*
X3857685Y12988737D01*
X3913703Y13085763D01*
X3942700Y13193982D01*
X3942700Y13306018D01*
X3913703Y13414237D01*
X3857685Y13511263D01*
X3778463Y13590485D01*
X3681437Y13646503D01*
X3573218Y13675500D01*
X3461182Y13675500D01*
X3352963Y13646503D01*
X3255937Y13590485D01*
X3176715Y13511263D01*
X3176713Y13511259D01*
X3120698Y13414239D01*
X3120697Y13414236D01*
X3091700Y13306017D01*
X-7263829Y13306017D01*
X-7271013Y13318459D01*
X-7271015Y13318463D01*
X-7350237Y13397685D01*
X-7447263Y13453703D01*
X-7555482Y13482700D01*
X-7667518Y13482700D01*
X-7775737Y13453703D01*
X-7872763Y13397685D01*
X-7951985Y13318463D01*
X-8008003Y13221437D01*
X-8037000Y13113218D01*
X-9988906Y13113218D01*
X-9850112Y13219720D01*
X-9485769Y13499294D01*
X-9479172Y13504021D01*
X-9406019Y13552900D01*
X-9403754Y13554379D01*
X-8378057Y14207818D01*
X-1509100Y14207818D01*
X-1509100Y14095782D01*
X-1480103Y13987563D01*
X-1424085Y13890537D01*
X-1344863Y13811315D01*
X-1247837Y13755297D01*
X-1139618Y13726300D01*
X-1139617Y13726300D01*
X-1027582Y13726300D01*
X-919363Y13755297D01*
X-919360Y13755298D01*
X-822340Y13811313D01*
X-822334Y13811317D01*
X-743117Y13890534D01*
X-743113Y13890540D01*
X-687098Y13987560D01*
X-687097Y13987563D01*
X-658100Y14095782D01*
X-658100Y14207817D01*
X-662587Y14224565D01*
X-687097Y14316037D01*
X-687139Y14316109D01*
X-734107Y14397460D01*
X-743115Y14413063D01*
X-822337Y14492285D01*
X-919363Y14548303D01*
X-1027582Y14577300D01*
X-1139618Y14577300D01*
X-1247837Y14548303D01*
X-1344863Y14492285D01*
X-1424085Y14413063D01*
X-1480103Y14316037D01*
X-1509100Y14207818D01*
X-8378057Y14207818D01*
X-8351769Y14224565D01*
X-8348892Y14226343D01*
X-8205180Y14312480D01*
X-8198691Y14316109D01*
X-8179822Y14325931D01*
X-8179821Y14325933D01*
X-7619343Y14617717D01*
X1551200Y14617717D01*
X1551200Y14505682D01*
X1580197Y14397463D01*
X1580198Y14397460D01*
X1636213Y14300440D01*
X1636217Y14300434D01*
X1715434Y14221217D01*
X1715440Y14221213D01*
X1812460Y14165198D01*
X1812463Y14165197D01*
X1920682Y14136200D01*
X2032717Y14136200D01*
X2032718Y14136200D01*
X2140937Y14165197D01*
X2237963Y14221215D01*
X2317185Y14300437D01*
X2373203Y14397463D01*
X2402200Y14505682D01*
X2402200Y14617718D01*
X2373203Y14725937D01*
X2317185Y14822963D01*
X2237963Y14902185D01*
X2140937Y14958203D01*
X2032718Y14987200D01*
X1920682Y14987200D01*
X1812463Y14958203D01*
X1715437Y14902185D01*
X1636215Y14822963D01*
X1636213Y14822959D01*
X1587020Y14737754D01*
X1580197Y14725937D01*
X1564237Y14666371D01*
X1551200Y14617717D01*
X-7619343Y14617717D01*
X-7097062Y14889616D01*
X-7092819Y14891723D01*
X-6877309Y14993651D01*
X-6871740Y14996119D01*
X-5743838Y15463259D01*
X-5738165Y15465447D01*
X-5515804Y15545010D01*
X-5511321Y15546518D01*
X-4326204Y15920233D01*
X-4319042Y15922258D01*
X-4154840Y15963389D01*
X-4151545Y15964167D01*
X-2934494Y16233939D01*
X-2931850Y16234494D01*
X-2846178Y16251535D01*
X-2838174Y16252857D01*
X-1575753Y16419074D01*
X-1571721Y16419538D01*
X-1359388Y16440452D01*
X-1352643Y16440931D01*
X-127940Y16494413D01*
X-122530Y16494531D01*
X122530Y16494531D01*
X127940Y16494413D01*
G37*
%TD.AperFunction*%
%TD*%
M02*
