%TF.GenerationSoftware,KiCad,Pcbnew,10.0.3*%
%TF.CreationDate,2026-09-10T08:04:11+02:00*%
%TF.ProjectId,aft_end_board,6166745f-656e-4645-9f62-6f6172642e6b,rev?*%
%TF.SameCoordinates,Original*%
%TF.FileFunction,Copper,L8,Inr*%
%TF.FilePolarity,Positive*%
%FSLAX46Y46*%
G04 Gerber Fmt 4.6, Leading zero omitted, Abs format (unit mm)*
G04 Created by KiCad (PCBNEW 10.0.3) date 2026-09-10 08:04:11*
%MOMM*%
%LPD*%
G01*
G04 APERTURE LIST*
%TA.AperFunction,ViaPad*%
%ADD10C,0.450000*%
%TD*%
%TA.AperFunction,Conductor*%
%ADD11C,0.100000*%
%TD*%
G04 APERTURE END LIST*
D10*
%TO.N,EXT_CAN_TX*%
X-1820300Y558200D03*
X13116300Y8450000D03*
%TO.N,FLEX_GND*%
X2549200Y-9619800D03*
X-9170000Y-840000D03*
X4020000Y-7860000D03*
X-11640000Y6490000D03*
X-8120000Y9220000D03*
X7890000Y-10870000D03*
X11760000Y5650000D03*
X-7300000Y-13570000D03*
X9970000Y12180000D03*
%TO.N,COMP_5V*%
X-10917900Y-475000D03*
X12548100Y5250000D03*
X79500Y8613800D03*
X-719800Y4140700D03*
%TO.N,EXT_CAN_RX*%
X12350000Y-1995600D03*
X6662300Y2375200D03*
X-1653400Y4538600D03*
%TO.N,3V3*%
X14932400Y-4967600D03*
X1997900Y8929800D03*
%TO.N,EXT_CAN_N*%
X527000Y5078000D03*
X-5803100Y5029600D03*
X-5519200Y133500D03*
%TO.N,EXT_CAN_P*%
X1617900Y3138700D03*
X-7659400Y3698600D03*
%TO.N,BAT_PROT*%
X3859000Y7579300D03*
X1976700Y14561700D03*
%TO.N,GPIO_EXT_0*%
X6642300Y6678900D03*
X7573300Y12496700D03*
%TO.N,GPIO_EXT_1*%
X8839000Y5726200D03*
X7050400Y-13504900D03*
%TO.N,Y7_FIRE_SEL*%
X8800Y-5343600D03*
X6842500Y4894100D03*
X3537200Y-3748800D03*
%TO.N,Y6_FIRE_SEL*%
X5979100Y3326400D03*
X-6230700Y3239200D03*
%TO.N,Y5_FIRE_SEL*%
X1264900Y2746600D03*
X-8711500Y-4881500D03*
%TO.N,Y4_FIRE_SEL*%
X6794200Y3111300D03*
X-4120500Y-8143000D03*
X-1451900Y1532400D03*
%TO.N,Y3_FIRE_SEL*%
X1698900Y-5118500D03*
X6783600Y962300D03*
%TO.N,Y1_FIRE_SEL*%
X-4561000Y-2186900D03*
X5796500Y1159900D03*
%TO.N,Y2_FIRE_SEL*%
X-1174800Y187400D03*
X5794200Y15500D03*
%TO.N,Y0_FIRE_SEL*%
X3428100Y326800D03*
X-990200Y-9612800D03*
%TO.N,Y13_FIRE_SEL*%
X3386100Y-7094800D03*
X5880200Y-3052800D03*
X10725300Y-1057400D03*
%TO.N,Y12_FIRE_SEL*%
X9077400Y31300D03*
X-129400Y8029900D03*
X7107400Y6048700D03*
%TO.N,Y15_FIRE_SEL*%
X-4830800Y7483400D03*
X-5796400Y11092600D03*
X11637200Y642000D03*
%TO.N,Y14_FIRE_SEL*%
X8648100Y1863900D03*
X-5796300Y1194200D03*
X12456700Y1695500D03*
%TO.N,Y9_FIRE_SEL*%
X11710000Y1958700D03*
X-9937000Y3997500D03*
%TO.N,Y8_FIRE_SEL*%
X7684900Y-8267900D03*
X11734300Y2832400D03*
%TO.N,Y11_FIRE_SEL*%
X11859500Y3591000D03*
X-9072800Y738500D03*
%TO.N,Y10_FIRE_SEL*%
X3897000Y8460800D03*
X8883900Y3947200D03*
%TO.N,GPIO_EXT_2*%
X5874400Y-11595400D03*
X11631400Y4264800D03*
%TO.N,GPIO_EXT_3*%
X5617100Y-8540700D03*
X8782400Y982100D03*
%TO.N,FIRE_HV*%
X8272300Y8998800D03*
X6653300Y-157000D03*
X1461500Y815100D03*
%TO.N,ACTIVATE_CONFIRM*%
X331400Y848900D03*
X14708200Y-2533000D03*
X276000Y-1810200D03*
%TO.N,JUMP_PAD*%
X2816400Y-3653400D03*
X289300Y-9619800D03*
%TO.N,JUMP_WAKE*%
X5447300Y12497400D03*
X5528300Y-1380100D03*
%TO.N,ACT_WIRE_13*%
X7044200Y-14298300D03*
X4809500Y-7702300D03*
%TO.N,ACT_WIRE_3*%
X4751000Y-2830500D03*
X6640400Y12601500D03*
%TO.N,ACT_WIRE_1*%
X13153700Y4603900D03*
X-2966000Y-525900D03*
%TO.N,ACT_WIRE_12*%
X1679100Y7732200D03*
X1310700Y-15390700D03*
%TO.N,ACT_WIRE_5*%
X-7611500Y13057200D03*
X-7281900Y-1695400D03*
%TO.N,ACT_WIRE_6*%
X-7648400Y10610000D03*
%TO.N,ACT_WIRE_10*%
X6609900Y8312200D03*
X-9453400Y-9924300D03*
%TO.N,FIRE_ARM_G*%
X1782300Y-7317200D03*
X249100Y-2549400D03*
X8690400Y-5803700D03*
%TO.N,FIRE_ARM_GD*%
X-264100Y-1804300D03*
X-2538800Y-7544200D03*
%TO.N,ACT_WIRE_7*%
X-191500Y-3155900D03*
X-12498000Y7102000D03*
%TO.N,ACT_WIRE_0*%
X1908100Y-9752500D03*
X13184400Y-1068200D03*
%TO.N,ACTIVATE_SET*%
X9732000Y-1699700D03*
X-3204400Y-7446100D03*
%TO.N,ACT_WIRE_4*%
X-2021800Y-9029500D03*
X-1083600Y14151800D03*
%TO.N,3V3_AON*%
X3517200Y13250000D03*
X9733100Y-9619800D03*
%TO.N,BAT_RAW*%
X3406300Y10979200D03*
X967500Y-13190800D03*
X13192400Y2626700D03*
%TO.N,BOOT0*%
X3454600Y-4539500D03*
X13185100Y3581800D03*
%TO.N,COMP_SWDCLK*%
X-7207400Y-5727400D03*
X11595500Y-5373300D03*
%TO.N,COMP_SWDIO*%
X12926700Y-3589400D03*
X-8992000Y-3793700D03*
%TO.N,FIN1_AOUT1*%
X5764600Y4599600D03*
X9577600Y-3923600D03*
%TO.N,FIN2_AOUT1*%
X9993300Y-3091100D03*
X1500000Y4444100D03*
%TO.N,FIN3_AOUT1*%
X-498400Y4667600D03*
X10750000Y-1995600D03*
%TO.N,FIN4_AOUT1*%
X-2500000Y7272600D03*
X10750000Y9219500D03*
%TO.N,FIN_HALL*%
X9725200Y7685900D03*
X-3576600Y6893400D03*
%TO.N,FIN_VREF*%
X6192900Y7351300D03*
%TO.N,NRST*%
X-579400Y-5479900D03*
%TO.N,SWO*%
X1070500Y-6470300D03*
%TO.N,SYS_I2C_SCL*%
X3614300Y-11349600D03*
X4222100Y-4500000D03*
%TO.N,SYS_I2C_SDA*%
X4350000Y12481500D03*
X9238100Y-5428100D03*
%TO.N,SYS_SPI_CS_FIN*%
X3518100Y-13927500D03*
X5162400Y7838300D03*
%TO.N,SYS_SPI_MISO*%
X2709000Y7690900D03*
%TO.N,SYS_SPI_MOSI*%
X4291000Y10985100D03*
%TO.N,SYS_SPI_SCLK*%
X3853100Y11305800D03*
X-2641600Y9718000D03*
%TO.N,FIRE_ARMED*%
X6302000Y-1243300D03*
%TO.N,ACT_WIRE_15*%
X12893800Y-6706200D03*
X-3688200Y9316900D03*
%TO.N,ACT_WIRE_11*%
X-6733500Y-14720900D03*
X-8350300Y3059500D03*
%TO.N,ACT_WIRE_2*%
X1680500Y-2278200D03*
X8506100Y10735700D03*
%TO.N,ACT_WIRE_8*%
X-14079000Y921000D03*
X7316000Y-6252400D03*
%TO.N,ACT_WIRE_9*%
X-12599300Y-5150000D03*
X-8977000Y7813700D03*
%TO.N,ACT_WIRE_14*%
X10610000Y-9295000D03*
X-4838100Y3000200D03*
%TD*%
%TO.N,EXT_CAN_TX*%
D11*
X1843000Y699200D02*
X1607200Y463400D01*
X219600Y463400D02*
X124900Y558100D01*
X13116300Y8450000D02*
X13116300Y7679700D01*
X6638000Y1314000D02*
X6023200Y699200D01*
X1607200Y463400D02*
X219600Y463400D01*
X13116300Y7679700D02*
X6750600Y1314000D01*
X6023200Y699200D02*
X1843000Y699200D01*
X6750600Y1314000D02*
X6638000Y1314000D01*
X124900Y558100D02*
X-1820300Y558100D01*
X-1820300Y558100D02*
X-1820300Y558200D01*
%TO.N,EXT_CAN_RX*%
X510000Y2375200D02*
X-1653400Y4538600D01*
X6662300Y2375200D02*
X510000Y2375200D01*
%TO.N,Y13_FIRE_SEL*%
X10725300Y-1057400D02*
X7875600Y-1057400D01*
X7875600Y-1057400D02*
X5880200Y-3052800D01*
%TO.N,Y10_FIRE_SEL*%
X8410600Y3947200D02*
X3897000Y8460800D01*
X8883900Y3947200D02*
X8410600Y3947200D01*
%TO.N,BOOT0*%
X11734700Y2480700D02*
X12084000Y2480700D01*
X12084000Y2480700D02*
X13185100Y3581800D01*
X9223100Y-320400D02*
X9429100Y-114400D01*
X9429100Y-114400D02*
X9429100Y175100D01*
X9429100Y175100D02*
X11734700Y2480700D01*
X3454600Y-4539500D02*
X3539400Y-4539500D01*
X3539400Y-4539500D02*
X7758500Y-320400D01*
X7758500Y-320400D02*
X9223100Y-320400D01*
%TO.N,FIN4_AOUT1*%
X10750000Y9219500D02*
X10619000Y9350500D01*
X10619000Y9350500D02*
X-422100Y9350500D01*
X-422100Y9350500D02*
X-2500000Y7272600D01*
%TO.N,ACT_WIRE_8*%
X3449600Y-6252300D02*
X7316000Y-6252300D01*
X-14079000Y921000D02*
X-13909800Y1090200D01*
X-8727300Y1090200D02*
X-8479600Y842500D01*
X-13909800Y1090200D02*
X-8727300Y1090200D01*
X7316000Y-6252300D02*
X7316000Y-6252400D01*
X-3645200Y842500D02*
X3449600Y-6252300D01*
X-8479600Y842500D02*
X-3645200Y842500D01*
%TO.N,ACT_WIRE_14*%
X3734500Y-5338600D02*
X6899900Y-5338600D01*
X1328800Y-2310000D02*
X1328800Y-2932900D01*
X-110800Y-870400D02*
X1328800Y-2310000D01*
X1328800Y-2932900D02*
X3734500Y-5338600D01*
X-4838100Y3000200D02*
X-967500Y-870400D01*
X-967500Y-870400D02*
X-110800Y-870400D01*
X6899900Y-5338600D02*
X10610000Y-9048700D01*
X10610000Y-9048700D02*
X10610000Y-9295000D01*
%TD*%
M02*
