M48
; DRILL file KiCad 10.0.3 date 2026-09-10T08:04:12
; FORMAT={-:-/ absolute / metric / decimal}
; #@! TF.CreationDate,2026-09-10T08:04:12+02:00
; #@! TF.GenerationSoftware,Kicad,Pcbnew,10.0.3
; #@! TF.FileFunction,Plated,1,14,PTH
FMAT,2
METRIC
; #@! TA.AperFunction,Plated,PTH,ViaDrill
T1C0.200
%
G90
G05
T1
X-14.079Y0.921
X-12.599Y-5.15
X-12.498Y7.102
X-11.64Y6.49
X-10.918Y-0.475
X-9.937Y3.997
X-9.453Y-9.924
X-9.17Y-0.84
X-9.073Y0.738
X-8.992Y-3.794
X-8.977Y7.814
X-8.711Y-4.881
X-8.35Y3.059
X-8.12Y9.22
X-7.659Y3.699
X-7.648Y10.61
X-7.611Y13.057
X-7.3Y-13.57
X-7.282Y-1.695
X-7.207Y-5.727
X-6.733Y-14.721
X-6.231Y3.239
X-5.803Y5.03
X-5.796Y11.093
X-5.796Y1.194
X-5.519Y0.134
X-4.838Y3.0
X-4.831Y7.483
X-4.561Y-2.187
X-4.12Y-8.143
X-3.688Y9.317
X-3.577Y6.893
X-3.204Y-7.446
X-2.966Y-0.526
X-2.642Y9.718
X-2.539Y-7.544
X-2.5Y7.273
X-2.022Y-9.029
X-1.82Y0.558
X-1.653Y4.539
X-1.452Y1.532
X-1.175Y0.187
X-1.084Y14.152
X-0.99Y-9.613
X-0.72Y4.141
X-0.579Y-5.48
X-0.498Y4.668
X-0.264Y-1.804
X-0.192Y-3.156
X-0.129Y8.03
X0.009Y-5.344
X0.08Y8.614
X0.249Y-2.549
X0.276Y-1.81
X0.289Y-9.62
X0.331Y0.849
X0.527Y5.078
X0.967Y-13.191
X1.071Y-6.47
X1.265Y2.747
X1.311Y-15.391
X1.462Y0.815
X1.5Y4.444
X1.618Y3.139
X1.679Y7.732
X1.68Y-2.278
X1.699Y-5.119
X1.782Y-7.317
X1.908Y-9.752
X1.977Y14.562
X1.998Y8.93
X2.549Y-9.62
X2.709Y7.691
X2.816Y-3.653
X3.386Y-7.095
X3.406Y10.979
X3.428Y0.327
X3.455Y-4.539
X3.517Y13.25
X3.518Y-13.928
X3.537Y-3.749
X3.614Y-11.35
X3.853Y11.306
X3.859Y7.579
X3.897Y8.461
X4.02Y-7.86
X4.222Y-4.5
X4.291Y10.985
X4.35Y12.481
X4.751Y-2.83
X4.809Y-7.702
X5.162Y7.838
X5.447Y12.497
X5.528Y-1.38
X5.617Y-8.541
X5.765Y4.6
X5.794Y0.015
X5.796Y1.16
X5.874Y-11.595
X5.88Y-3.053
X5.979Y3.326
X6.193Y7.351
X6.302Y-1.243
X6.61Y8.312
X6.64Y12.601
X6.642Y6.679
X6.653Y-0.157
X6.662Y2.375
X6.784Y0.962
X6.794Y3.111
X6.842Y4.894
X7.044Y-14.298
X7.05Y-13.505
X7.107Y6.049
X7.316Y-6.252
X7.573Y12.497
X7.685Y-8.268
X7.89Y-10.87
X8.272Y8.999
X8.506Y10.736
X8.648Y1.864
X8.69Y-5.804
X8.782Y0.982
X8.839Y5.726
X8.884Y3.947
X9.077Y0.031
X9.238Y-5.428
X9.578Y-3.924
X9.725Y7.686
X9.732Y-1.7
X9.733Y-9.62
X9.97Y12.18
X9.993Y-3.091
X10.61Y-9.295
X10.725Y-1.057
X10.75Y9.22
X10.75Y-1.996
X11.595Y-5.373
X11.631Y4.265
X11.637Y0.642
X11.71Y1.959
X11.734Y2.832
X11.76Y5.65
X11.859Y3.591
X12.35Y-1.996
X12.457Y1.696
X12.548Y5.25
X12.894Y-6.706
X12.927Y-3.589
X13.116Y8.45
X13.154Y4.604
X13.184Y-1.068
X13.185Y3.582
X13.192Y2.627
X14.708Y-2.533
X14.932Y-4.968
M30
