%TF.GenerationSoftware,KiCad,Pcbnew,10.0.3*%
%TF.CreationDate,2026-09-10T08:04:11+02:00*%
%TF.ProjectId,aft_end_board,6166745f-656e-4645-9f62-6f6172642e6b,rev?*%
%TF.SameCoordinates,Original*%
%TF.FileFunction,Legend,Top*%
%TF.FilePolarity,Positive*%
%FSLAX46Y46*%
G04 Gerber Fmt 4.6, Leading zero omitted, Abs format (unit mm)*
G04 Created by KiCad (PCBNEW 10.0.3) date 2026-09-10 08:04:11*
%MOMM*%
%LPD*%
G01*
G04 APERTURE LIST*
%ADD10C,0.120000*%
G04 APERTURE END LIST*
D10*
X-12000000Y950000D02*
X-12000000Y-370000D01*
X-12000000Y-850000D02*
X-12000000Y-950000D01*
X-12000000Y-950000D02*
X-11000000Y-950000D01*
X-11000000Y201000D02*
X-9680000Y201000D01*
X-9200000Y201000D02*
X-7880000Y201000D01*
X-7400000Y201000D02*
X-6202000Y201000D01*
X-11000000Y-950000D02*
X-11000000Y201000D01*
X-10877000Y7902000D02*
X-10877000Y6582000D01*
X-10877000Y6102000D02*
X-10877000Y4782000D01*
X-10877000Y4302000D02*
X-10877000Y2982000D01*
X-10877000Y2502000D02*
X-10877000Y1182000D01*
X-10877000Y950000D02*
X-12000000Y950000D01*
X-10783400Y9015600D02*
X-9850019Y8082219D01*
X-9669800Y7902000D02*
X-10877000Y7902000D01*
X-9015600Y10783400D02*
X-9948981Y9850019D01*
X-10288392Y9510608D02*
X-10783400Y9015600D01*
X-9002000Y-1602000D02*
X-9002000Y-2922000D01*
X-9002000Y-3402000D02*
X-9002000Y-4722000D01*
X-9002000Y-5202000D02*
X-9002000Y-5602000D01*
X-9002000Y-5602000D02*
X-7682000Y-5602000D01*
X-7202000Y-5602000D02*
X-5882000Y-5602000D01*
X-5402000Y-5602000D02*
X-5061000Y-5602000D01*
X-7376000Y11403000D02*
X-7376000Y10083000D01*
X-7376000Y9603000D02*
X-7376000Y9143800D01*
X-7376000Y9143800D02*
X-8309381Y10077181D01*
X-8648792Y10416592D02*
X-9015600Y10783400D01*
X-6202000Y201000D02*
X-6202000Y-1119000D01*
X-6202000Y-1599000D02*
X-6202000Y-1602000D01*
X-6202000Y-1602000D02*
X-7522000Y-1602000D01*
X-8002000Y-1602000D02*
X-9002000Y-1602000D01*
X-5701000Y-7203000D02*
X-5701000Y-8523000D01*
X-5701000Y-9003000D02*
X-5701000Y-10323000D01*
X-5701000Y-10803000D02*
X-5701000Y-11003000D01*
X-5701000Y-11003000D02*
X-4381000Y-11003000D01*
X-3901000Y-11003000D02*
X-2581000Y-11003000D01*
X-2101000Y-11003000D02*
X-1299000Y-11003000D01*
X-5061000Y-5602000D02*
X-5061000Y-6922000D01*
X-5061000Y-7203000D02*
X-5701000Y-7203000D01*
X-3576000Y7603000D02*
X-3376000Y7603000D01*
X-3576000Y6001000D02*
X-3576000Y7321000D01*
X-3376000Y11403000D02*
X-4696000Y11403000D01*
X-5176000Y11403000D02*
X-6496000Y11403000D01*
X-6976000Y11403000D02*
X-7376000Y11403000D01*
X-3376000Y7603000D02*
X-3376000Y8923000D01*
X-3376000Y9403000D02*
X-3376000Y10723000D01*
X-3376000Y11203000D02*
X-3376000Y11403000D01*
X-2000000Y9502000D02*
X-2000000Y8182000D01*
X-2000000Y7702000D02*
X-2000000Y6382000D01*
X-2000000Y6001000D02*
X-3320000Y6001000D01*
X-1299000Y-11003000D02*
X-1299000Y-12323000D01*
X-1299000Y-12604000D02*
X21000Y-12604000D01*
X501000Y-12604000D02*
X1821000Y-12604000D01*
X2301000Y-12604000D02*
X2701000Y-12604000D01*
X2000000Y9502000D02*
X680000Y9502000D01*
X200000Y9502000D02*
X-1120000Y9502000D01*
X-1600000Y9502000D02*
X-2000000Y9502000D01*
X2000000Y6001000D02*
X2000000Y7321000D01*
X2000000Y7801000D02*
X2000000Y9121000D01*
X2701000Y-9103000D02*
X4021000Y-9103000D01*
X4501000Y-9103000D02*
X5821000Y-9103000D01*
X2701000Y-12604000D02*
X2701000Y-11284000D01*
X2701000Y-10804000D02*
X2701000Y-9484000D01*
X3576000Y11064500D02*
X3576000Y9744500D01*
X3576000Y9264500D02*
X3576000Y7944500D01*
X3576000Y7464500D02*
X3576000Y6144500D01*
X3576000Y6001000D02*
X2256000Y6001000D01*
X6103000Y-9103000D02*
X6103000Y-9303000D01*
X6103000Y-9303000D02*
X7423000Y-9303000D01*
X7535200Y-9303000D02*
X8468581Y-10236381D01*
X8807992Y-10575792D02*
X9015600Y-10783400D01*
X7576000Y11064500D02*
X6256000Y11064500D01*
X5776000Y11064500D02*
X4456000Y11064500D01*
X3976000Y11064500D02*
X3576000Y11064500D01*
X7576000Y7563500D02*
X7576000Y8883500D01*
X7576000Y9363500D02*
X7576000Y10683500D01*
X9015600Y-10783400D02*
X9948981Y-9850019D01*
X10288392Y-9510608D02*
X10783400Y-9015600D01*
X9102000Y-1361500D02*
X10422000Y-1361500D01*
X10902000Y-1361500D02*
X11726000Y-1361500D01*
X9102000Y-5303000D02*
X9102000Y-3983000D01*
X9102000Y-3503000D02*
X9102000Y-2183000D01*
X9102000Y-1703000D02*
X9102000Y-1361500D01*
X9903000Y-5303000D02*
X9102000Y-5303000D01*
X9903000Y-8135200D02*
X9903000Y-6815200D01*
X9903000Y-6335200D02*
X9903000Y-5303000D01*
X10783400Y-9015600D02*
X9903000Y-8135200D01*
X11726000Y7563500D02*
X10406000Y7563500D01*
X9926000Y7563500D02*
X8606000Y7563500D01*
X8126000Y7563500D02*
X7576000Y7563500D01*
X11726000Y-1361500D02*
X11726000Y-41500D01*
X11726000Y438500D02*
X11726000Y1758500D01*
X11726000Y2238500D02*
X11726000Y3558500D01*
X11726000Y4038500D02*
X11726000Y5358500D01*
X11726000Y5838500D02*
X11726000Y7158500D01*
X-15604765Y18184240D02*
X-15528574Y18146144D01*
X-15528574Y18146144D02*
X-15376193Y18146144D01*
X-15376193Y18146144D02*
X-15300003Y18184240D01*
X-15300003Y18184240D02*
X-15261907Y18260430D01*
X-15261907Y18260430D02*
X-15261907Y18298525D01*
X-15261907Y18298525D02*
X-15300003Y18374716D01*
X-15300003Y18374716D02*
X-15376193Y18412811D01*
X-15376193Y18412811D02*
X-15490479Y18412811D01*
X-15490479Y18412811D02*
X-15566669Y18450906D01*
X-15566669Y18450906D02*
X-15604765Y18527097D01*
X-15604765Y18527097D02*
X-15604765Y18565192D01*
X-15604765Y18565192D02*
X-15566669Y18641382D01*
X-15566669Y18641382D02*
X-15490479Y18679478D01*
X-15490479Y18679478D02*
X-15376193Y18679478D01*
X-15376193Y18679478D02*
X-15300003Y18641382D01*
X-14919050Y18679478D02*
X-14919050Y17879478D01*
X-14919050Y18641382D02*
X-14842860Y18679478D01*
X-14842860Y18679478D02*
X-14690479Y18679478D01*
X-14690479Y18679478D02*
X-14614288Y18641382D01*
X-14614288Y18641382D02*
X-14576193Y18603287D01*
X-14576193Y18603287D02*
X-14538098Y18527097D01*
X-14538098Y18527097D02*
X-14538098Y18298525D01*
X-14538098Y18298525D02*
X-14576193Y18222335D01*
X-14576193Y18222335D02*
X-14614288Y18184240D01*
X-14614288Y18184240D02*
X-14690479Y18146144D01*
X-14690479Y18146144D02*
X-14842860Y18146144D01*
X-14842860Y18146144D02*
X-14919050Y18184240D01*
X-13852383Y18146144D02*
X-13852383Y18565192D01*
X-13852383Y18565192D02*
X-13890478Y18641382D01*
X-13890478Y18641382D02*
X-13966669Y18679478D01*
X-13966669Y18679478D02*
X-14119050Y18679478D01*
X-14119050Y18679478D02*
X-14195240Y18641382D01*
X-13852383Y18184240D02*
X-13928574Y18146144D01*
X-13928574Y18146144D02*
X-14119050Y18146144D01*
X-14119050Y18146144D02*
X-14195240Y18184240D01*
X-14195240Y18184240D02*
X-14233336Y18260430D01*
X-14233336Y18260430D02*
X-14233336Y18336620D01*
X-14233336Y18336620D02*
X-14195240Y18412811D01*
X-14195240Y18412811D02*
X-14119050Y18450906D01*
X-14119050Y18450906D02*
X-13928574Y18450906D01*
X-13928574Y18450906D02*
X-13852383Y18489001D01*
X-13128573Y18184240D02*
X-13204764Y18146144D01*
X-13204764Y18146144D02*
X-13357145Y18146144D01*
X-13357145Y18146144D02*
X-13433335Y18184240D01*
X-13433335Y18184240D02*
X-13471430Y18222335D01*
X-13471430Y18222335D02*
X-13509526Y18298525D01*
X-13509526Y18298525D02*
X-13509526Y18527097D01*
X-13509526Y18527097D02*
X-13471430Y18603287D01*
X-13471430Y18603287D02*
X-13433335Y18641382D01*
X-13433335Y18641382D02*
X-13357145Y18679478D01*
X-13357145Y18679478D02*
X-13204764Y18679478D01*
X-13204764Y18679478D02*
X-13128573Y18641382D01*
X-12480954Y18184240D02*
X-12557145Y18146144D01*
X-12557145Y18146144D02*
X-12709526Y18146144D01*
X-12709526Y18146144D02*
X-12785716Y18184240D01*
X-12785716Y18184240D02*
X-12823812Y18260430D01*
X-12823812Y18260430D02*
X-12823812Y18565192D01*
X-12823812Y18565192D02*
X-12785716Y18641382D01*
X-12785716Y18641382D02*
X-12709526Y18679478D01*
X-12709526Y18679478D02*
X-12557145Y18679478D01*
X-12557145Y18679478D02*
X-12480954Y18641382D01*
X-12480954Y18641382D02*
X-12442859Y18565192D01*
X-12442859Y18565192D02*
X-12442859Y18489001D01*
X-12442859Y18489001D02*
X-12823812Y18412811D01*
X-12100002Y18146144D02*
X-12100002Y18679478D01*
X-12100002Y18527097D02*
X-12061907Y18603287D01*
X-12061907Y18603287D02*
X-12023812Y18641382D01*
X-12023812Y18641382D02*
X-11947621Y18679478D01*
X-11947621Y18679478D02*
X-11871431Y18679478D01*
X-11795241Y18069954D02*
X-11185717Y18069954D01*
X-10652383Y18146144D02*
X-10652383Y18565192D01*
X-10652383Y18565192D02*
X-10690478Y18641382D01*
X-10690478Y18641382D02*
X-10766669Y18679478D01*
X-10766669Y18679478D02*
X-10919050Y18679478D01*
X-10919050Y18679478D02*
X-10995240Y18641382D01*
X-10652383Y18184240D02*
X-10728574Y18146144D01*
X-10728574Y18146144D02*
X-10919050Y18146144D01*
X-10919050Y18146144D02*
X-10995240Y18184240D01*
X-10995240Y18184240D02*
X-11033336Y18260430D01*
X-11033336Y18260430D02*
X-11033336Y18336620D01*
X-11033336Y18336620D02*
X-10995240Y18412811D01*
X-10995240Y18412811D02*
X-10919050Y18450906D01*
X-10919050Y18450906D02*
X-10728574Y18450906D01*
X-10728574Y18450906D02*
X-10652383Y18489001D01*
X-10385716Y18679478D02*
X-10080954Y18679478D01*
X-10271430Y18146144D02*
X-10271430Y18831859D01*
X-10271430Y18831859D02*
X-10233335Y18908049D01*
X-10233335Y18908049D02*
X-10157145Y18946144D01*
X-10157145Y18946144D02*
X-10080954Y18946144D01*
X-9928573Y18679478D02*
X-9623811Y18679478D01*
X-9814287Y18946144D02*
X-9814287Y18260430D01*
X-9814287Y18260430D02*
X-9776192Y18184240D01*
X-9776192Y18184240D02*
X-9700002Y18146144D01*
X-9700002Y18146144D02*
X-9623811Y18146144D01*
X-9547621Y18069954D02*
X-8938097Y18069954D01*
X-8442858Y18184240D02*
X-8519049Y18146144D01*
X-8519049Y18146144D02*
X-8671430Y18146144D01*
X-8671430Y18146144D02*
X-8747620Y18184240D01*
X-8747620Y18184240D02*
X-8785716Y18260430D01*
X-8785716Y18260430D02*
X-8785716Y18565192D01*
X-8785716Y18565192D02*
X-8747620Y18641382D01*
X-8747620Y18641382D02*
X-8671430Y18679478D01*
X-8671430Y18679478D02*
X-8519049Y18679478D01*
X-8519049Y18679478D02*
X-8442858Y18641382D01*
X-8442858Y18641382D02*
X-8404763Y18565192D01*
X-8404763Y18565192D02*
X-8404763Y18489001D01*
X-8404763Y18489001D02*
X-8785716Y18412811D01*
X-8061906Y18679478D02*
X-8061906Y18146144D01*
X-8061906Y18603287D02*
X-8023811Y18641382D01*
X-8023811Y18641382D02*
X-7947621Y18679478D01*
X-7947621Y18679478D02*
X-7833335Y18679478D01*
X-7833335Y18679478D02*
X-7757144Y18641382D01*
X-7757144Y18641382D02*
X-7719049Y18565192D01*
X-7719049Y18565192D02*
X-7719049Y18146144D01*
X-6995239Y18146144D02*
X-6995239Y18946144D01*
X-6995239Y18184240D02*
X-7071430Y18146144D01*
X-7071430Y18146144D02*
X-7223811Y18146144D01*
X-7223811Y18146144D02*
X-7300001Y18184240D01*
X-7300001Y18184240D02*
X-7338096Y18222335D01*
X-7338096Y18222335D02*
X-7376192Y18298525D01*
X-7376192Y18298525D02*
X-7376192Y18527097D01*
X-7376192Y18527097D02*
X-7338096Y18603287D01*
X-7338096Y18603287D02*
X-7300001Y18641382D01*
X-7300001Y18641382D02*
X-7223811Y18679478D01*
X-7223811Y18679478D02*
X-7071430Y18679478D01*
X-7071430Y18679478D02*
X-6995239Y18641382D01*
X-6804763Y18069954D02*
X-6195239Y18069954D01*
X-6004762Y18146144D02*
X-6004762Y18946144D01*
X-6004762Y18641382D02*
X-5928572Y18679478D01*
X-5928572Y18679478D02*
X-5776191Y18679478D01*
X-5776191Y18679478D02*
X-5700000Y18641382D01*
X-5700000Y18641382D02*
X-5661905Y18603287D01*
X-5661905Y18603287D02*
X-5623810Y18527097D01*
X-5623810Y18527097D02*
X-5623810Y18298525D01*
X-5623810Y18298525D02*
X-5661905Y18222335D01*
X-5661905Y18222335D02*
X-5700000Y18184240D01*
X-5700000Y18184240D02*
X-5776191Y18146144D01*
X-5776191Y18146144D02*
X-5928572Y18146144D01*
X-5928572Y18146144D02*
X-6004762Y18184240D01*
X-5166667Y18146144D02*
X-5242857Y18184240D01*
X-5242857Y18184240D02*
X-5280952Y18222335D01*
X-5280952Y18222335D02*
X-5319048Y18298525D01*
X-5319048Y18298525D02*
X-5319048Y18527097D01*
X-5319048Y18527097D02*
X-5280952Y18603287D01*
X-5280952Y18603287D02*
X-5242857Y18641382D01*
X-5242857Y18641382D02*
X-5166667Y18679478D01*
X-5166667Y18679478D02*
X-5052381Y18679478D01*
X-5052381Y18679478D02*
X-4976190Y18641382D01*
X-4976190Y18641382D02*
X-4938095Y18603287D01*
X-4938095Y18603287D02*
X-4900000Y18527097D01*
X-4900000Y18527097D02*
X-4900000Y18298525D01*
X-4900000Y18298525D02*
X-4938095Y18222335D01*
X-4938095Y18222335D02*
X-4976190Y18184240D01*
X-4976190Y18184240D02*
X-5052381Y18146144D01*
X-5052381Y18146144D02*
X-5166667Y18146144D01*
X-4214285Y18146144D02*
X-4214285Y18565192D01*
X-4214285Y18565192D02*
X-4252380Y18641382D01*
X-4252380Y18641382D02*
X-4328571Y18679478D01*
X-4328571Y18679478D02*
X-4480952Y18679478D01*
X-4480952Y18679478D02*
X-4557142Y18641382D01*
X-4214285Y18184240D02*
X-4290476Y18146144D01*
X-4290476Y18146144D02*
X-4480952Y18146144D01*
X-4480952Y18146144D02*
X-4557142Y18184240D01*
X-4557142Y18184240D02*
X-4595238Y18260430D01*
X-4595238Y18260430D02*
X-4595238Y18336620D01*
X-4595238Y18336620D02*
X-4557142Y18412811D01*
X-4557142Y18412811D02*
X-4480952Y18450906D01*
X-4480952Y18450906D02*
X-4290476Y18450906D01*
X-4290476Y18450906D02*
X-4214285Y18489001D01*
X-3833332Y18146144D02*
X-3833332Y18679478D01*
X-3833332Y18527097D02*
X-3795237Y18603287D01*
X-3795237Y18603287D02*
X-3757142Y18641382D01*
X-3757142Y18641382D02*
X-3680951Y18679478D01*
X-3680951Y18679478D02*
X-3604761Y18679478D01*
X-2995237Y18146144D02*
X-2995237Y18946144D01*
X-2995237Y18184240D02*
X-3071428Y18146144D01*
X-3071428Y18146144D02*
X-3223809Y18146144D01*
X-3223809Y18146144D02*
X-3299999Y18184240D01*
X-3299999Y18184240D02*
X-3338094Y18222335D01*
X-3338094Y18222335D02*
X-3376190Y18298525D01*
X-3376190Y18298525D02*
X-3376190Y18527097D01*
X-3376190Y18527097D02*
X-3338094Y18603287D01*
X-3338094Y18603287D02*
X-3299999Y18641382D01*
X-3299999Y18641382D02*
X-3223809Y18679478D01*
X-3223809Y18679478D02*
X-3071428Y18679478D01*
X-3071428Y18679478D02*
X-2995237Y18641382D01*
X-2804761Y18069954D02*
X-2195237Y18069954D01*
X-1661903Y18146144D02*
X-1661903Y18565192D01*
X-1661903Y18565192D02*
X-1699998Y18641382D01*
X-1699998Y18641382D02*
X-1776189Y18679478D01*
X-1776189Y18679478D02*
X-1928570Y18679478D01*
X-1928570Y18679478D02*
X-2004760Y18641382D01*
X-1661903Y18184240D02*
X-1738094Y18146144D01*
X-1738094Y18146144D02*
X-1928570Y18146144D01*
X-1928570Y18146144D02*
X-2004760Y18184240D01*
X-2004760Y18184240D02*
X-2042856Y18260430D01*
X-2042856Y18260430D02*
X-2042856Y18336620D01*
X-2042856Y18336620D02*
X-2004760Y18412811D01*
X-2004760Y18412811D02*
X-1928570Y18450906D01*
X-1928570Y18450906D02*
X-1738094Y18450906D01*
X-1738094Y18450906D02*
X-1661903Y18489001D01*
X-938093Y18184240D02*
X-1014284Y18146144D01*
X-1014284Y18146144D02*
X-1166665Y18146144D01*
X-1166665Y18146144D02*
X-1242855Y18184240D01*
X-1242855Y18184240D02*
X-1280950Y18222335D01*
X-1280950Y18222335D02*
X-1319046Y18298525D01*
X-1319046Y18298525D02*
X-1319046Y18527097D01*
X-1319046Y18527097D02*
X-1280950Y18603287D01*
X-1280950Y18603287D02*
X-1242855Y18641382D01*
X-1242855Y18641382D02*
X-1166665Y18679478D01*
X-1166665Y18679478D02*
X-1014284Y18679478D01*
X-1014284Y18679478D02*
X-938093Y18641382D01*
X-709522Y18679478D02*
X-404760Y18679478D01*
X-595236Y18946144D02*
X-595236Y18260430D01*
X-595236Y18260430D02*
X-557141Y18184240D01*
X-557141Y18184240D02*
X-480951Y18146144D01*
X-480951Y18146144D02*
X-404760Y18146144D01*
X-138093Y18146144D02*
X-138093Y18679478D01*
X-138093Y18946144D02*
X-176189Y18908049D01*
X-176189Y18908049D02*
X-138093Y18869954D01*
X-138093Y18869954D02*
X-99998Y18908049D01*
X-99998Y18908049D02*
X-138093Y18946144D01*
X-138093Y18946144D02*
X-138093Y18869954D01*
X166667Y18679478D02*
X357143Y18146144D01*
X357143Y18146144D02*
X547620Y18679478D01*
X1195239Y18146144D02*
X1195239Y18565192D01*
X1195239Y18565192D02*
X1157144Y18641382D01*
X1157144Y18641382D02*
X1080953Y18679478D01*
X1080953Y18679478D02*
X928572Y18679478D01*
X928572Y18679478D02*
X852382Y18641382D01*
X1195239Y18184240D02*
X1119048Y18146144D01*
X1119048Y18146144D02*
X928572Y18146144D01*
X928572Y18146144D02*
X852382Y18184240D01*
X852382Y18184240D02*
X814286Y18260430D01*
X814286Y18260430D02*
X814286Y18336620D01*
X814286Y18336620D02*
X852382Y18412811D01*
X852382Y18412811D02*
X928572Y18450906D01*
X928572Y18450906D02*
X1119048Y18450906D01*
X1119048Y18450906D02*
X1195239Y18489001D01*
X1461906Y18679478D02*
X1766668Y18679478D01*
X1576192Y18946144D02*
X1576192Y18260430D01*
X1576192Y18260430D02*
X1614287Y18184240D01*
X1614287Y18184240D02*
X1690477Y18146144D01*
X1690477Y18146144D02*
X1766668Y18146144D01*
X2033335Y18146144D02*
X2033335Y18679478D01*
X2033335Y18946144D02*
X1995239Y18908049D01*
X1995239Y18908049D02*
X2033335Y18869954D01*
X2033335Y18869954D02*
X2071430Y18908049D01*
X2071430Y18908049D02*
X2033335Y18946144D01*
X2033335Y18946144D02*
X2033335Y18869954D01*
X2528572Y18146144D02*
X2452382Y18184240D01*
X2452382Y18184240D02*
X2414287Y18222335D01*
X2414287Y18222335D02*
X2376191Y18298525D01*
X2376191Y18298525D02*
X2376191Y18527097D01*
X2376191Y18527097D02*
X2414287Y18603287D01*
X2414287Y18603287D02*
X2452382Y18641382D01*
X2452382Y18641382D02*
X2528572Y18679478D01*
X2528572Y18679478D02*
X2642858Y18679478D01*
X2642858Y18679478D02*
X2719049Y18641382D01*
X2719049Y18641382D02*
X2757144Y18603287D01*
X2757144Y18603287D02*
X2795239Y18527097D01*
X2795239Y18527097D02*
X2795239Y18298525D01*
X2795239Y18298525D02*
X2757144Y18222335D01*
X2757144Y18222335D02*
X2719049Y18184240D01*
X2719049Y18184240D02*
X2642858Y18146144D01*
X2642858Y18146144D02*
X2528572Y18146144D01*
X3138097Y18679478D02*
X3138097Y18146144D01*
X3138097Y18603287D02*
X3176192Y18641382D01*
X3176192Y18641382D02*
X3252382Y18679478D01*
X3252382Y18679478D02*
X3366668Y18679478D01*
X3366668Y18679478D02*
X3442859Y18641382D01*
X3442859Y18641382D02*
X3480954Y18565192D01*
X3480954Y18565192D02*
X3480954Y18146144D01*
X3671431Y18069954D02*
X4280954Y18069954D01*
X4471431Y18146144D02*
X4471431Y18679478D01*
X4471431Y18946144D02*
X4433335Y18908049D01*
X4433335Y18908049D02*
X4471431Y18869954D01*
X4471431Y18869954D02*
X4509526Y18908049D01*
X4509526Y18908049D02*
X4471431Y18946144D01*
X4471431Y18946144D02*
X4471431Y18869954D01*
X4852383Y18679478D02*
X4852383Y18146144D01*
X4852383Y18603287D02*
X4890478Y18641382D01*
X4890478Y18641382D02*
X4966668Y18679478D01*
X4966668Y18679478D02*
X5080954Y18679478D01*
X5080954Y18679478D02*
X5157145Y18641382D01*
X5157145Y18641382D02*
X5195240Y18565192D01*
X5195240Y18565192D02*
X5195240Y18146144D01*
X5461907Y18679478D02*
X5766669Y18679478D01*
X5576193Y18946144D02*
X5576193Y18260430D01*
X5576193Y18260430D02*
X5614288Y18184240D01*
X5614288Y18184240D02*
X5690478Y18146144D01*
X5690478Y18146144D02*
X5766669Y18146144D01*
X6338098Y18184240D02*
X6261907Y18146144D01*
X6261907Y18146144D02*
X6109526Y18146144D01*
X6109526Y18146144D02*
X6033336Y18184240D01*
X6033336Y18184240D02*
X5995240Y18260430D01*
X5995240Y18260430D02*
X5995240Y18565192D01*
X5995240Y18565192D02*
X6033336Y18641382D01*
X6033336Y18641382D02*
X6109526Y18679478D01*
X6109526Y18679478D02*
X6261907Y18679478D01*
X6261907Y18679478D02*
X6338098Y18641382D01*
X6338098Y18641382D02*
X6376193Y18565192D01*
X6376193Y18565192D02*
X6376193Y18489001D01*
X6376193Y18489001D02*
X5995240Y18412811D01*
X6719050Y18146144D02*
X6719050Y18679478D01*
X6719050Y18527097D02*
X6757145Y18603287D01*
X6757145Y18603287D02*
X6795240Y18641382D01*
X6795240Y18641382D02*
X6871431Y18679478D01*
X6871431Y18679478D02*
X6947621Y18679478D01*
X7100002Y18679478D02*
X7404764Y18679478D01*
X7214288Y18146144D02*
X7214288Y18831859D01*
X7214288Y18831859D02*
X7252383Y18908049D01*
X7252383Y18908049D02*
X7328573Y18946144D01*
X7328573Y18946144D02*
X7404764Y18946144D01*
X8014288Y18146144D02*
X8014288Y18565192D01*
X8014288Y18565192D02*
X7976193Y18641382D01*
X7976193Y18641382D02*
X7900002Y18679478D01*
X7900002Y18679478D02*
X7747621Y18679478D01*
X7747621Y18679478D02*
X7671431Y18641382D01*
X8014288Y18184240D02*
X7938097Y18146144D01*
X7938097Y18146144D02*
X7747621Y18146144D01*
X7747621Y18146144D02*
X7671431Y18184240D01*
X7671431Y18184240D02*
X7633335Y18260430D01*
X7633335Y18260430D02*
X7633335Y18336620D01*
X7633335Y18336620D02*
X7671431Y18412811D01*
X7671431Y18412811D02*
X7747621Y18450906D01*
X7747621Y18450906D02*
X7938097Y18450906D01*
X7938097Y18450906D02*
X8014288Y18489001D01*
X8738098Y18184240D02*
X8661907Y18146144D01*
X8661907Y18146144D02*
X8509526Y18146144D01*
X8509526Y18146144D02*
X8433336Y18184240D01*
X8433336Y18184240D02*
X8395241Y18222335D01*
X8395241Y18222335D02*
X8357145Y18298525D01*
X8357145Y18298525D02*
X8357145Y18527097D01*
X8357145Y18527097D02*
X8395241Y18603287D01*
X8395241Y18603287D02*
X8433336Y18641382D01*
X8433336Y18641382D02*
X8509526Y18679478D01*
X8509526Y18679478D02*
X8661907Y18679478D01*
X8661907Y18679478D02*
X8738098Y18641382D01*
X9385717Y18184240D02*
X9309526Y18146144D01*
X9309526Y18146144D02*
X9157145Y18146144D01*
X9157145Y18146144D02*
X9080955Y18184240D01*
X9080955Y18184240D02*
X9042859Y18260430D01*
X9042859Y18260430D02*
X9042859Y18565192D01*
X9042859Y18565192D02*
X9080955Y18641382D01*
X9080955Y18641382D02*
X9157145Y18679478D01*
X9157145Y18679478D02*
X9309526Y18679478D01*
X9309526Y18679478D02*
X9385717Y18641382D01*
X9385717Y18641382D02*
X9423812Y18565192D01*
X9423812Y18565192D02*
X9423812Y18489001D01*
X9423812Y18489001D02*
X9042859Y18412811D01*
X10719050Y18184240D02*
X10642859Y18146144D01*
X10642859Y18146144D02*
X10490478Y18146144D01*
X10490478Y18146144D02*
X10414288Y18184240D01*
X10414288Y18184240D02*
X10376193Y18222335D01*
X10376193Y18222335D02*
X10338097Y18298525D01*
X10338097Y18298525D02*
X10338097Y18527097D01*
X10338097Y18527097D02*
X10376193Y18603287D01*
X10376193Y18603287D02*
X10414288Y18641382D01*
X10414288Y18641382D02*
X10490478Y18679478D01*
X10490478Y18679478D02*
X10642859Y18679478D01*
X10642859Y18679478D02*
X10719050Y18641382D01*
X11404764Y18679478D02*
X11404764Y18146144D01*
X11061907Y18679478D02*
X11061907Y18260430D01*
X11061907Y18260430D02*
X11100002Y18184240D01*
X11100002Y18184240D02*
X11176192Y18146144D01*
X11176192Y18146144D02*
X11290478Y18146144D01*
X11290478Y18146144D02*
X11366669Y18184240D01*
X11366669Y18184240D02*
X11404764Y18222335D01*
X11671431Y18679478D02*
X11976193Y18679478D01*
X11785717Y18946144D02*
X11785717Y18260430D01*
X11785717Y18260430D02*
X11823812Y18184240D01*
X11823812Y18184240D02*
X11900002Y18146144D01*
X11900002Y18146144D02*
X11976193Y18146144D01*
X12357145Y18146144D02*
X12280955Y18184240D01*
X12280955Y18184240D02*
X12242860Y18222335D01*
X12242860Y18222335D02*
X12204764Y18298525D01*
X12204764Y18298525D02*
X12204764Y18527097D01*
X12204764Y18527097D02*
X12242860Y18603287D01*
X12242860Y18603287D02*
X12280955Y18641382D01*
X12280955Y18641382D02*
X12357145Y18679478D01*
X12357145Y18679478D02*
X12471431Y18679478D01*
X12471431Y18679478D02*
X12547622Y18641382D01*
X12547622Y18641382D02*
X12585717Y18603287D01*
X12585717Y18603287D02*
X12623812Y18527097D01*
X12623812Y18527097D02*
X12623812Y18298525D01*
X12623812Y18298525D02*
X12585717Y18222335D01*
X12585717Y18222335D02*
X12547622Y18184240D01*
X12547622Y18184240D02*
X12471431Y18146144D01*
X12471431Y18146144D02*
X12357145Y18146144D01*
X13309527Y18679478D02*
X13309527Y18146144D01*
X12966670Y18679478D02*
X12966670Y18260430D01*
X12966670Y18260430D02*
X13004765Y18184240D01*
X13004765Y18184240D02*
X13080955Y18146144D01*
X13080955Y18146144D02*
X13195241Y18146144D01*
X13195241Y18146144D02*
X13271432Y18184240D01*
X13271432Y18184240D02*
X13309527Y18222335D01*
X13576194Y18679478D02*
X13880956Y18679478D01*
X13690480Y18946144D02*
X13690480Y18260430D01*
X13690480Y18260430D02*
X13728575Y18184240D01*
X13728575Y18184240D02*
X13804765Y18146144D01*
X13804765Y18146144D02*
X13880956Y18146144D01*
M02*
