%TF.GenerationSoftware,KiCad,Pcbnew,10.0.3*%
%TF.CreationDate,2026-09-10T08:04:11+02:00*%
%TF.ProjectId,aft_end_board,6166745f-656e-4645-9f62-6f6172642e6b,rev?*%
%TF.SameCoordinates,Original*%
%TF.FileFunction,Soldermask,Bot*%
%TF.FilePolarity,Negative*%
%FSLAX46Y46*%
G04 Gerber Fmt 4.6, Leading zero omitted, Abs format (unit mm)*
G04 Created by KiCad (PCBNEW 10.0.3) date 2026-09-10 08:04:11*
%MOMM*%
%LPD*%
G01*
G04 APERTURE LIST*
%ADD10C,2.000000*%
%ADD11C,1.500000*%
G04 APERTURE END LIST*
D10*
%TO.C,P_ACT_WIRE_13*%
X5740000Y-13860000D03*
%TD*%
D11*
%TO.C,TP_ACT_MOTOR3*%
X-500000Y5970000D03*
%TD*%
%TO.C,TP_GPIO_2*%
X10145000Y2780000D03*
%TD*%
%TO.C,TP_CAN_P*%
X-9330000Y6370000D03*
%TD*%
%TO.C,TP_SPI_CS_FIN*%
X3262000Y9668000D03*
%TD*%
%TO.C,TP_CAN_N*%
X-7070000Y6320000D03*
%TD*%
%TO.C,TP_FIN_VREF*%
X5500000Y5970000D03*
%TD*%
%TO.C,TP_NRST*%
X-3190000Y-4000000D03*
%TD*%
%TO.C,TP_ACT_MOTOR4*%
X-2500000Y5970000D03*
%TD*%
%TO.C,TP_GPIO_1*%
X10145000Y4630000D03*
%TD*%
%TO.C,TP_SPI_MOSI*%
X5492000Y9788000D03*
%TD*%
D10*
%TO.C,P_ACT_WIRE_12*%
X0Y-15000000D03*
%TD*%
D11*
%TO.C,TP_GND_ACT*%
X4000000Y-9500000D03*
%TD*%
D10*
%TO.C,P_ACT_WIRE_15*%
X13860000Y-5740000D03*
%TD*%
D11*
%TO.C,TP_BOOT0*%
X810000Y-4000000D03*
%TD*%
%TO.C,TP_JUMP_WAKE*%
X-2000000Y-11500000D03*
%TD*%
%TO.C,TP_SPI_SCLK*%
X-1328000Y9718000D03*
%TD*%
%TO.C,TP_ACT_SET*%
X-4000000Y-6400000D03*
%TD*%
%TO.C,TP_ACT_MOTOR2*%
X1500000Y5970000D03*
%TD*%
%TO.C,TP_SPI_MISO*%
X822000Y9718000D03*
%TD*%
D10*
%TO.C,P_ACT_WIRE_3*%
X5740000Y13860000D03*
%TD*%
D11*
%TO.C,TP_ACT_MOTOR1*%
X3500000Y6030000D03*
%TD*%
D10*
%TO.C,P_ACT_WIRE_4*%
X0Y15000000D03*
%TD*%
D11*
%TO.C,TP_BAT_RAW*%
X2050000Y11950000D03*
%TD*%
%TO.C,TP_GPIO_3*%
X10105000Y1050000D03*
%TD*%
%TO.C,TP_FIN_HALL*%
X-4500000Y5970000D03*
%TD*%
%TO.C,TP_VDD*%
X6500000Y-9500000D03*
%TD*%
%TO.C,TP_ACT_CONFIRM*%
X-1800000Y-6410000D03*
%TD*%
D10*
%TO.C,P_ACT_WIRE_6*%
X-10610000Y10610000D03*
%TD*%
%TO.C,P_ACT_WIRE_9*%
X-13860000Y-5740000D03*
%TD*%
D11*
%TO.C,TP_SWO*%
X-1190000Y-4000000D03*
%TD*%
D10*
%TO.C,P_ACT_WIRE_0*%
X15000000Y0D03*
%TD*%
%TO.C,P_ACT_WIRE_8*%
X-15000000Y0D03*
%TD*%
D11*
%TO.C,P_FIRE_COMMON*%
X0Y-500000D03*
%TD*%
D10*
%TO.C,P_ACT_WIRE_2*%
X10610000Y10610000D03*
%TD*%
%TO.C,P_ACT_WIRE_5*%
X-5740000Y13860000D03*
%TD*%
D11*
%TO.C,TP_SWCLK*%
X-5500000Y-4020000D03*
%TD*%
%TO.C,TP_JUMP_GND*%
X0Y-11500000D03*
%TD*%
D10*
%TO.C,P_ACT_WIRE_10*%
X-10610000Y-10610000D03*
%TD*%
%TO.C,P_ACT_WIRE_7*%
X-13860000Y5740000D03*
%TD*%
D11*
%TO.C,TP_BAT_PROT*%
X221000Y11942000D03*
%TD*%
%TO.C,TP_SWDIO*%
X-7690000Y-4000000D03*
%TD*%
%TO.C,TP_GPIO_0*%
X10145000Y6240000D03*
%TD*%
D10*
%TO.C,P_ACT_WIRE_14*%
X10610000Y-10610000D03*
%TD*%
D11*
%TO.C,TP_I2C_SDA*%
X8310000Y-4500000D03*
%TD*%
D10*
%TO.C,P_ACT_WIRE_11*%
X-5740000Y-13860000D03*
%TD*%
%TO.C,P_ACT_WIRE_1*%
X13860000Y5740000D03*
%TD*%
D11*
%TO.C,TP_I2C_SCL*%
X6000000Y-4500000D03*
%TD*%
M02*
