%TF.GenerationSoftware,KiCad,Pcbnew,10.0.3*%
%TF.CreationDate,2026-09-09T12:23:01+02:00*%
%TF.ProjectId,aft_end_board,6166745f-656e-4645-9f62-6f6172642e6b,rev?*%
%TF.SameCoordinates,Original*%
%TF.FileFunction,Drillmap*%
%TF.FilePolarity,Positive*%
%FSLAX45Y45*%
G04 Gerber Fmt 4.5, Leading zero omitted, Abs format (unit mm)*
G04 Created by KiCad (PCBNEW 10.0.3) date 2026-09-09 12:23:01*
%MOMM*%
%LPD*%
G01*
G04 APERTURE LIST*
%ADD10C,0.150000*%
%ADD11C,0.200000*%
%ADD12C,0.100000*%
G04 APERTURE END LIST*
D10*
X1700000Y0D02*
G75*
G02*
X-1700000Y0I-1700000J0D01*
G01*
X-1700000Y0D02*
G75*
G02*
X1700000Y0I1700000J0D01*
G01*
D11*
D12*
X-1417900Y102100D02*
X-1397900Y82100D01*
X-1397900Y102100D02*
X-1417900Y82100D01*
X-1269930Y-505000D02*
X-1249930Y-525000D01*
X-1249930Y-505000D02*
X-1269930Y-525000D01*
X-1259800Y584000D02*
X-1239800Y564000D01*
X-1239800Y584000D02*
X-1259800Y564000D01*
X-1219210Y-41350D02*
X-1199210Y-61350D01*
X-1199210Y-41350D02*
X-1219210Y-61350D01*
X-1164280Y977720D02*
X-1144280Y957720D01*
X-1144280Y977720D02*
X-1164280Y957720D01*
X-1003700Y38760D02*
X-983700Y18760D01*
X-983700Y38760D02*
X-1003700Y18760D01*
X-971380Y718490D02*
X-951380Y698490D01*
X-951380Y718490D02*
X-971380Y698490D01*
X-955340Y-982430D02*
X-935340Y-1002430D01*
X-935340Y-982430D02*
X-955340Y-1002430D01*
X-940970Y486870D02*
X-920970Y466870D01*
X-920970Y486870D02*
X-940970Y466870D01*
X-907700Y249890D02*
X-887700Y229890D01*
X-887700Y249890D02*
X-907700Y229890D01*
X-879910Y-476910D02*
X-859910Y-496910D01*
X-859910Y-476910D02*
X-879910Y-496910D01*
X-757410Y-33670D02*
X-737410Y-53670D01*
X-737410Y-33670D02*
X-757410Y-53670D01*
X-715010Y-1355470D02*
X-695010Y-1375470D01*
X-695010Y-1355470D02*
X-715010Y-1375470D01*
X-680370Y-137700D02*
X-660370Y-157700D01*
X-660370Y-137700D02*
X-680370Y-157700D01*
X-638540Y-96820D02*
X-618540Y-116820D01*
X-618540Y-96820D02*
X-638540Y-116820D01*
X-638230Y-175100D02*
X-618230Y-195100D01*
X-618230Y-175100D02*
X-638230Y-195100D01*
X-621430Y330760D02*
X-601430Y310760D01*
X-601430Y330760D02*
X-621430Y310760D01*
X-592940Y564890D02*
X-572940Y544890D01*
X-572940Y564890D02*
X-592940Y544890D01*
X-589530Y1010170D02*
X-569530Y990170D01*
X-569530Y1010170D02*
X-589530Y990170D01*
X-584000Y1259820D02*
X-564000Y1239820D01*
X-564000Y1259820D02*
X-584000Y1239820D01*
X-580200Y-210490D02*
X-560200Y-230490D01*
X-560200Y-210490D02*
X-580200Y-230490D01*
X-557600Y790400D02*
X-537600Y770400D01*
X-537600Y790400D02*
X-557600Y770400D01*
X-557600Y512360D02*
X-537600Y492360D01*
X-537600Y512360D02*
X-557600Y492360D01*
X-538130Y156460D02*
X-518130Y136460D01*
X-518130Y156460D02*
X-538130Y136460D01*
X-529800Y-300060D02*
X-509800Y-320060D01*
X-509800Y-300060D02*
X-529800Y-320060D01*
X-522830Y-477830D02*
X-502830Y-497830D01*
X-502830Y-477830D02*
X-522830Y-497830D01*
X-512790Y-71410D02*
X-492790Y-91410D01*
X-492790Y-71410D02*
X-512790Y-91410D01*
X-476050Y591650D02*
X-456050Y571650D01*
X-456050Y591650D02*
X-476050Y571650D01*
X-442600Y874270D02*
X-422600Y854270D01*
X-422600Y874270D02*
X-442600Y854270D01*
X-422420Y-837950D02*
X-402420Y-857950D01*
X-402420Y-837950D02*
X-422420Y-857950D01*
X-394070Y-638560D02*
X-374070Y-658560D01*
X-374070Y-638560D02*
X-394070Y-658560D01*
X-392540Y589580D02*
X-372540Y569580D01*
X-372540Y589580D02*
X-392540Y569580D01*
X-383000Y-518000D02*
X-363000Y-538000D01*
X-363000Y-518000D02*
X-383000Y-538000D01*
X-338510Y-963710D02*
X-318510Y-983710D01*
X-318510Y-963710D02*
X-338510Y-983710D01*
X-305850Y-76500D02*
X-285850Y-96500D01*
X-285850Y-76500D02*
X-305850Y-96500D01*
X-258000Y770000D02*
X-238000Y750000D01*
X-238000Y770000D02*
X-258000Y750000D01*
X-215630Y838360D02*
X-195630Y818360D01*
X-195630Y838360D02*
X-215630Y818360D01*
X-179000Y-76000D02*
X-159000Y-96000D01*
X-159000Y-76000D02*
X-179000Y-96000D01*
X-140840Y510050D02*
X-120840Y490050D01*
X-120840Y510050D02*
X-140840Y490050D01*
X-127580Y91240D02*
X-107580Y71240D01*
X-107580Y91240D02*
X-127580Y71240D01*
X-118360Y1425180D02*
X-98360Y1405180D01*
X-98360Y1425180D02*
X-118360Y1405180D01*
X-101030Y314170D02*
X-81030Y294170D01*
X-81030Y314170D02*
X-101030Y294170D01*
X-90930Y534910D02*
X-70930Y514910D01*
X-70930Y534910D02*
X-90930Y514910D01*
X-83510Y-731890D02*
X-63510Y-751890D01*
X-63510Y-731890D02*
X-83510Y-751890D01*
X-75630Y759770D02*
X-55630Y739770D01*
X-55630Y759770D02*
X-75630Y739770D01*
X-44900Y-878900D02*
X-24900Y-898900D01*
X-24900Y-878900D02*
X-44900Y-898900D01*
X-29730Y-753290D02*
X-9730Y-773290D01*
X-9730Y-753290D02*
X-29730Y-773290D01*
X-10160Y771190D02*
X9840Y751190D01*
X9840Y771190D02*
X-10160Y751190D01*
X25340Y-1358880D02*
X45340Y-1378880D01*
X45340Y-1358880D02*
X25340Y-1378880D01*
X44240Y-751780D02*
X64240Y-771780D01*
X64240Y-751780D02*
X44240Y-771780D01*
X77960Y1098850D02*
X97960Y1078850D01*
X97960Y1098850D02*
X77960Y1078850D01*
X81080Y314120D02*
X101080Y294120D01*
X101080Y314120D02*
X81080Y294120D01*
X82250Y-712550D02*
X102250Y-732550D01*
X102250Y-712550D02*
X82250Y-732550D01*
X86760Y-1309090D02*
X106760Y-1329090D01*
X106760Y-1309090D02*
X86760Y-1329090D01*
X93000Y-64000D02*
X113000Y-84000D01*
X113000Y-64000D02*
X93000Y-84000D01*
X95000Y92000D02*
X115000Y72000D01*
X115000Y92000D02*
X95000Y72000D01*
X104000Y-309000D02*
X124000Y-329000D01*
X124000Y-309000D02*
X104000Y-329000D01*
X105000Y1259250D02*
X125000Y1239250D01*
X125000Y1259250D02*
X105000Y1239250D01*
X120620Y621680D02*
X140620Y601680D01*
X140620Y621680D02*
X120620Y601680D01*
X123000Y-746290D02*
X143000Y-766290D01*
X143000Y-746290D02*
X123000Y-766290D01*
X125030Y-808980D02*
X145030Y-828980D01*
X145030Y-808980D02*
X125030Y-828980D01*
X174120Y691770D02*
X194120Y671770D01*
X194120Y691770D02*
X174120Y671770D01*
X189240Y1011210D02*
X209240Y991210D01*
X209240Y1011210D02*
X189240Y991210D01*
X192350Y758340D02*
X212350Y738340D01*
X212350Y758340D02*
X192350Y738340D01*
X196130Y601850D02*
X216130Y581850D01*
X216130Y601850D02*
X196130Y581850D01*
X198190Y-1318190D02*
X218190Y-1338190D01*
X218190Y-1318190D02*
X198190Y-1338190D01*
X206000Y-829000D02*
X226000Y-849000D01*
X226000Y-829000D02*
X206000Y-849000D01*
X210100Y-726960D02*
X230100Y-746960D01*
X230100Y-726960D02*
X210100Y-746960D01*
X228490Y-1042180D02*
X248490Y-1062180D01*
X248490Y-1042180D02*
X228490Y-1062180D01*
X232480Y1096730D02*
X252480Y1076730D01*
X252480Y1096730D02*
X232480Y1076730D01*
X285000Y91000D02*
X305000Y71000D01*
X305000Y91000D02*
X285000Y71000D01*
X289100Y583070D02*
X309100Y563070D01*
X309100Y583070D02*
X289100Y563070D01*
X291000Y-316000D02*
X311000Y-336000D01*
X311000Y-316000D02*
X291000Y-336000D01*
X305000Y-17000D02*
X325000Y-37000D01*
X325000Y-17000D02*
X305000Y-37000D01*
X321000Y-215000D02*
X341000Y-235000D01*
X341000Y-215000D02*
X321000Y-235000D01*
X323420Y-482540D02*
X343420Y-502540D01*
X343420Y-482540D02*
X323420Y-502540D01*
X329690Y626210D02*
X349690Y606210D01*
X349690Y626210D02*
X329690Y606210D01*
X332000Y-279000D02*
X352000Y-299000D01*
X352000Y-279000D02*
X332000Y-299000D01*
X365340Y-1310750D02*
X385340Y-1330750D01*
X385340Y-1310750D02*
X365340Y-1330750D01*
X379880Y982770D02*
X399880Y962770D01*
X399880Y982770D02*
X379880Y962770D01*
X386400Y924400D02*
X406400Y904400D01*
X406400Y924400D02*
X386400Y904400D01*
X388270Y-614300D02*
X408270Y-634300D01*
X408270Y-614300D02*
X388270Y-634300D01*
X393860Y-561270D02*
X413860Y-581270D01*
X413860Y-561270D02*
X393860Y-581270D01*
X425000Y1259060D02*
X445000Y1239060D01*
X445000Y1259060D02*
X425000Y1239060D01*
X456450Y-719070D02*
X476450Y-739070D01*
X476450Y-719070D02*
X456450Y-739070D01*
X456480Y-833520D02*
X476480Y-853520D01*
X476480Y-833520D02*
X456480Y-853520D01*
X468710Y-542200D02*
X488710Y-562200D01*
X488710Y-542200D02*
X468710Y-562200D01*
X523650Y-457230D02*
X543650Y-477230D01*
X543650Y-457230D02*
X523650Y-477230D01*
X524520Y-991730D02*
X544520Y-1011730D01*
X544520Y-991730D02*
X524520Y-1011730D01*
X541360Y-175100D02*
X561360Y-195100D01*
X561360Y-175100D02*
X541360Y-195100D01*
X565310Y550120D02*
X585310Y530120D01*
X585310Y550120D02*
X565310Y530120D01*
X566210Y620470D02*
X586210Y600470D01*
X586210Y620470D02*
X566210Y600470D01*
X571790Y425820D02*
X591790Y405820D01*
X591790Y425820D02*
X571790Y405820D01*
X571980Y316500D02*
X591980Y296500D01*
X591980Y316500D02*
X571980Y296500D01*
X572990Y165650D02*
X592990Y145650D01*
X592990Y165650D02*
X572990Y145650D01*
X573400Y-120570D02*
X593400Y-140570D01*
X593400Y-120570D02*
X573400Y-140570D01*
X582000Y229000D02*
X602000Y209000D01*
X602000Y229000D02*
X582000Y209000D01*
X583820Y-1149800D02*
X603820Y-1169800D01*
X603820Y-1149800D02*
X583820Y-1169800D01*
X585300Y677640D02*
X605300Y657640D01*
X605300Y677640D02*
X585300Y657640D01*
X588780Y-989790D02*
X608780Y-1009790D01*
X608780Y-989790D02*
X588780Y-1009790D01*
X595810Y-292660D02*
X615810Y-312660D01*
X615810Y-292660D02*
X595810Y-312660D01*
X627170Y497270D02*
X647170Y477270D01*
X647170Y497270D02*
X627170Y477270D01*
X643980Y394940D02*
X663980Y374940D01*
X663980Y394940D02*
X643980Y374940D01*
X647000Y167000D02*
X667000Y147000D01*
X667000Y167000D02*
X647000Y147000D01*
X650930Y279150D02*
X670930Y259150D01*
X670930Y279150D02*
X650930Y259150D01*
X654040Y1270150D02*
X674040Y1250150D01*
X674040Y1270150D02*
X654040Y1250150D01*
X694350Y-1372080D02*
X714350Y-1392080D01*
X714350Y-1372080D02*
X694350Y-1392080D01*
X696000Y735000D02*
X716000Y715000D01*
X716000Y735000D02*
X696000Y715000D01*
X721000Y-605000D02*
X741000Y-625000D01*
X741000Y-605000D02*
X721000Y-625000D01*
X734790Y-324290D02*
X754790Y-344290D01*
X754790Y-324290D02*
X734790Y-344290D01*
X741240Y-741250D02*
X761240Y-761250D01*
X761240Y-741250D02*
X741240Y-761250D01*
X747330Y1259630D02*
X767330Y1239630D01*
X767330Y1259630D02*
X747330Y1239630D01*
X751300Y90680D02*
X771300Y70680D01*
X771300Y90680D02*
X751300Y70680D01*
X800540Y899260D02*
X820540Y879260D01*
X820540Y899260D02*
X800540Y879260D01*
X805000Y-75000D02*
X825000Y-95000D01*
X825000Y-75000D02*
X805000Y-95000D01*
X829160Y1001230D02*
X849160Y981230D01*
X849160Y1001230D02*
X829160Y981230D01*
X837910Y787750D02*
X857910Y767750D01*
X857910Y787750D02*
X837910Y767750D01*
X840610Y1083570D02*
X860610Y1063570D01*
X860610Y1083570D02*
X840610Y1063570D01*
X868580Y-134910D02*
X888580Y-154910D01*
X888580Y-134910D02*
X868580Y-154910D01*
X890000Y-936000D02*
X910000Y-956000D01*
X910000Y-936000D02*
X890000Y-956000D01*
X901650Y-614300D02*
X921650Y-634300D01*
X921650Y-614300D02*
X901650Y-634300D01*
X927270Y151810D02*
X947270Y131810D01*
X947270Y151810D02*
X927270Y131810D01*
X935250Y275890D02*
X955250Y255890D01*
X955250Y275890D02*
X935250Y255890D01*
X935410Y444730D02*
X955410Y424730D01*
X955410Y444730D02*
X935410Y424730D01*
X935470Y66130D02*
X955470Y46130D01*
X955470Y66130D02*
X935470Y46130D01*
X935560Y-12540D02*
X955560Y-32540D01*
X955560Y-12540D02*
X935560Y-32540D01*
X944220Y544030D02*
X964220Y524030D01*
X964220Y544030D02*
X944220Y524030D01*
X983750Y851080D02*
X1003750Y831080D01*
X1003750Y851080D02*
X983750Y831080D01*
X993840Y943840D02*
X1013840Y923840D01*
X1013840Y943840D02*
X993840Y923840D01*
X1004530Y-350590D02*
X1024530Y-370590D01*
X1024530Y-350590D02*
X1004530Y-370590D01*
X1031480Y-134360D02*
X1051480Y-154360D01*
X1051480Y-134360D02*
X1031480Y-154360D01*
X1051000Y-919470D02*
X1071000Y-939470D01*
X1071000Y-919470D02*
X1051000Y-939470D01*
X1065000Y-660590D02*
X1085000Y-680590D01*
X1085000Y-660590D02*
X1065000Y-680590D01*
X1082750Y779580D02*
X1102750Y759580D01*
X1102750Y779580D02*
X1082750Y759580D01*
X1140280Y-386630D02*
X1160280Y-406630D01*
X1160280Y-386630D02*
X1140280Y-406630D01*
X1153140Y92600D02*
X1173140Y72600D01*
X1173140Y92600D02*
X1153140Y72600D01*
X1153360Y264190D02*
X1173360Y244190D01*
X1173360Y264190D02*
X1153360Y244190D01*
X1167330Y-187960D02*
X1187330Y-207960D01*
X1187330Y-187960D02*
X1167330Y-207960D01*
X1199680Y338080D02*
X1219680Y318080D01*
X1219680Y338080D02*
X1199680Y318080D01*
X1225000Y-660560D02*
X1245000Y-680560D01*
X1245000Y-660560D02*
X1225000Y-680560D01*
X1245210Y535000D02*
X1265210Y515000D01*
X1265210Y535000D02*
X1245210Y515000D01*
X1252310Y-502760D02*
X1272310Y-522760D01*
X1272310Y-502760D02*
X1252310Y-522760D01*
X1264410Y-135460D02*
X1284410Y-155460D01*
X1284410Y-135460D02*
X1264410Y-155460D01*
X1267480Y-188970D02*
X1287480Y-208970D01*
X1287480Y-188970D02*
X1267480Y-208970D01*
X1279380Y-660620D02*
X1299380Y-680620D01*
X1299380Y-660620D02*
X1279380Y-680620D01*
X1282000Y682000D02*
X1302000Y662000D01*
X1302000Y682000D02*
X1282000Y662000D01*
X1301630Y855000D02*
X1321630Y835000D01*
X1321630Y855000D02*
X1301630Y835000D01*
X1305370Y470390D02*
X1325370Y450390D01*
X1325370Y470390D02*
X1305370Y450390D01*
X1308440Y-96820D02*
X1328440Y-116820D01*
X1328440Y-96820D02*
X1308440Y-116820D01*
X1309020Y21440D02*
X1329020Y1440D01*
X1329020Y21440D02*
X1309020Y1440D01*
X1309270Y194150D02*
X1329270Y174150D01*
X1329270Y194150D02*
X1309270Y174150D01*
X1309540Y112670D02*
X1329540Y92670D01*
X1329540Y112670D02*
X1309540Y92670D01*
X1309650Y375000D02*
X1329650Y355000D01*
X1329650Y375000D02*
X1309650Y355000D01*
X1385000Y-341460D02*
X1405000Y-361460D01*
X1405000Y-341460D02*
X1385000Y-361460D01*
D11*
X-1446723Y-2018984D02*
X-1446723Y-1818984D01*
X-1446723Y-1818984D02*
X-1399104Y-1818984D01*
X-1399104Y-1818984D02*
X-1370533Y-1828508D01*
X-1370533Y-1828508D02*
X-1351485Y-1847555D01*
X-1351485Y-1847555D02*
X-1341961Y-1866603D01*
X-1341961Y-1866603D02*
X-1332437Y-1904698D01*
X-1332437Y-1904698D02*
X-1332437Y-1933269D01*
X-1332437Y-1933269D02*
X-1341961Y-1971365D01*
X-1341961Y-1971365D02*
X-1351485Y-1990412D01*
X-1351485Y-1990412D02*
X-1370533Y-2009460D01*
X-1370533Y-2009460D02*
X-1399104Y-2018984D01*
X-1399104Y-2018984D02*
X-1446723Y-2018984D01*
X-1246723Y-2018984D02*
X-1246723Y-1885650D01*
X-1246723Y-1923746D02*
X-1237199Y-1904698D01*
X-1237199Y-1904698D02*
X-1227676Y-1895174D01*
X-1227676Y-1895174D02*
X-1208628Y-1885650D01*
X-1208628Y-1885650D02*
X-1189580Y-1885650D01*
X-1122914Y-2018984D02*
X-1122914Y-1885650D01*
X-1122914Y-1818984D02*
X-1132437Y-1828508D01*
X-1132437Y-1828508D02*
X-1122914Y-1838031D01*
X-1122914Y-1838031D02*
X-1113390Y-1828508D01*
X-1113390Y-1828508D02*
X-1122914Y-1818984D01*
X-1122914Y-1818984D02*
X-1122914Y-1838031D01*
X-999104Y-2018984D02*
X-1018152Y-2009460D01*
X-1018152Y-2009460D02*
X-1027675Y-1990412D01*
X-1027675Y-1990412D02*
X-1027675Y-1818984D01*
X-894342Y-2018984D02*
X-913390Y-2009460D01*
X-913390Y-2009460D02*
X-922914Y-1990412D01*
X-922914Y-1990412D02*
X-922914Y-1818984D01*
X-665771Y-2018984D02*
X-665771Y-1818984D01*
X-665771Y-1818984D02*
X-599104Y-1961841D01*
X-599104Y-1961841D02*
X-532437Y-1818984D01*
X-532437Y-1818984D02*
X-532437Y-2018984D01*
X-351485Y-2018984D02*
X-351485Y-1914222D01*
X-351485Y-1914222D02*
X-361009Y-1895174D01*
X-361009Y-1895174D02*
X-380056Y-1885650D01*
X-380056Y-1885650D02*
X-418152Y-1885650D01*
X-418152Y-1885650D02*
X-437199Y-1895174D01*
X-351485Y-2009460D02*
X-370533Y-2018984D01*
X-370533Y-2018984D02*
X-418152Y-2018984D01*
X-418152Y-2018984D02*
X-437199Y-2009460D01*
X-437199Y-2009460D02*
X-446723Y-1990412D01*
X-446723Y-1990412D02*
X-446723Y-1971365D01*
X-446723Y-1971365D02*
X-437199Y-1952317D01*
X-437199Y-1952317D02*
X-418152Y-1942793D01*
X-418152Y-1942793D02*
X-370533Y-1942793D01*
X-370533Y-1942793D02*
X-351485Y-1933269D01*
X-256247Y-1885650D02*
X-256247Y-2085650D01*
X-256247Y-1895174D02*
X-237199Y-1885650D01*
X-237199Y-1885650D02*
X-199104Y-1885650D01*
X-199104Y-1885650D02*
X-180056Y-1895174D01*
X-180056Y-1895174D02*
X-170533Y-1904698D01*
X-170533Y-1904698D02*
X-161009Y-1923746D01*
X-161009Y-1923746D02*
X-161009Y-1980888D01*
X-161009Y-1980888D02*
X-170533Y-1999936D01*
X-170533Y-1999936D02*
X-180056Y-2009460D01*
X-180056Y-2009460D02*
X-199104Y-2018984D01*
X-199104Y-2018984D02*
X-237199Y-2018984D01*
X-237199Y-2018984D02*
X-256247Y-2009460D01*
X-75295Y-1999936D02*
X-65771Y-2009460D01*
X-65771Y-2009460D02*
X-75295Y-2018984D01*
X-75295Y-2018984D02*
X-84818Y-2009460D01*
X-84818Y-2009460D02*
X-75295Y-1999936D01*
X-75295Y-1999936D02*
X-75295Y-2018984D01*
X-75295Y-1895174D02*
X-65771Y-1904698D01*
X-65771Y-1904698D02*
X-75295Y-1914222D01*
X-75295Y-1914222D02*
X-84818Y-1904698D01*
X-84818Y-1904698D02*
X-75295Y-1895174D01*
X-75295Y-1895174D02*
X-75295Y-1914222D01*
D12*
X-1727500Y-2337500D02*
X-1707500Y-2357500D01*
X-1707500Y-2337500D02*
X-1727500Y-2357500D01*
D11*
X-1408628Y-2238984D02*
X-1389580Y-2238984D01*
X-1389580Y-2238984D02*
X-1370533Y-2248508D01*
X-1370533Y-2248508D02*
X-1361009Y-2258031D01*
X-1361009Y-2258031D02*
X-1351485Y-2277079D01*
X-1351485Y-2277079D02*
X-1341961Y-2315174D01*
X-1341961Y-2315174D02*
X-1341961Y-2362793D01*
X-1341961Y-2362793D02*
X-1351485Y-2400889D01*
X-1351485Y-2400889D02*
X-1361009Y-2419936D01*
X-1361009Y-2419936D02*
X-1370533Y-2429460D01*
X-1370533Y-2429460D02*
X-1389580Y-2438984D01*
X-1389580Y-2438984D02*
X-1408628Y-2438984D01*
X-1408628Y-2438984D02*
X-1427675Y-2429460D01*
X-1427675Y-2429460D02*
X-1437199Y-2419936D01*
X-1437199Y-2419936D02*
X-1446723Y-2400889D01*
X-1446723Y-2400889D02*
X-1456247Y-2362793D01*
X-1456247Y-2362793D02*
X-1456247Y-2315174D01*
X-1456247Y-2315174D02*
X-1446723Y-2277079D01*
X-1446723Y-2277079D02*
X-1437199Y-2258031D01*
X-1437199Y-2258031D02*
X-1427675Y-2248508D01*
X-1427675Y-2248508D02*
X-1408628Y-2238984D01*
X-1256247Y-2419936D02*
X-1246723Y-2429460D01*
X-1246723Y-2429460D02*
X-1256247Y-2438984D01*
X-1256247Y-2438984D02*
X-1265771Y-2429460D01*
X-1265771Y-2429460D02*
X-1256247Y-2419936D01*
X-1256247Y-2419936D02*
X-1256247Y-2438984D01*
X-1170533Y-2258031D02*
X-1161009Y-2248508D01*
X-1161009Y-2248508D02*
X-1141961Y-2238984D01*
X-1141961Y-2238984D02*
X-1094342Y-2238984D01*
X-1094342Y-2238984D02*
X-1075295Y-2248508D01*
X-1075295Y-2248508D02*
X-1065771Y-2258031D01*
X-1065771Y-2258031D02*
X-1056247Y-2277079D01*
X-1056247Y-2277079D02*
X-1056247Y-2296127D01*
X-1056247Y-2296127D02*
X-1065771Y-2324698D01*
X-1065771Y-2324698D02*
X-1180056Y-2438984D01*
X-1180056Y-2438984D02*
X-1056247Y-2438984D01*
X-932437Y-2238984D02*
X-913390Y-2238984D01*
X-913390Y-2238984D02*
X-894342Y-2248508D01*
X-894342Y-2248508D02*
X-884818Y-2258031D01*
X-884818Y-2258031D02*
X-875294Y-2277079D01*
X-875294Y-2277079D02*
X-865771Y-2315174D01*
X-865771Y-2315174D02*
X-865771Y-2362793D01*
X-865771Y-2362793D02*
X-875294Y-2400889D01*
X-875294Y-2400889D02*
X-884818Y-2419936D01*
X-884818Y-2419936D02*
X-894342Y-2429460D01*
X-894342Y-2429460D02*
X-913390Y-2438984D01*
X-913390Y-2438984D02*
X-932437Y-2438984D01*
X-932437Y-2438984D02*
X-951485Y-2429460D01*
X-951485Y-2429460D02*
X-961009Y-2419936D01*
X-961009Y-2419936D02*
X-970533Y-2400889D01*
X-970533Y-2400889D02*
X-980056Y-2362793D01*
X-980056Y-2362793D02*
X-980056Y-2315174D01*
X-980056Y-2315174D02*
X-970533Y-2277079D01*
X-970533Y-2277079D02*
X-961009Y-2258031D01*
X-961009Y-2258031D02*
X-951485Y-2248508D01*
X-951485Y-2248508D02*
X-932437Y-2238984D01*
X-741961Y-2238984D02*
X-722913Y-2238984D01*
X-722913Y-2238984D02*
X-703866Y-2248508D01*
X-703866Y-2248508D02*
X-694342Y-2258031D01*
X-694342Y-2258031D02*
X-684818Y-2277079D01*
X-684818Y-2277079D02*
X-675295Y-2315174D01*
X-675295Y-2315174D02*
X-675295Y-2362793D01*
X-675295Y-2362793D02*
X-684818Y-2400889D01*
X-684818Y-2400889D02*
X-694342Y-2419936D01*
X-694342Y-2419936D02*
X-703866Y-2429460D01*
X-703866Y-2429460D02*
X-722913Y-2438984D01*
X-722913Y-2438984D02*
X-741961Y-2438984D01*
X-741961Y-2438984D02*
X-761009Y-2429460D01*
X-761009Y-2429460D02*
X-770533Y-2419936D01*
X-770533Y-2419936D02*
X-780056Y-2400889D01*
X-780056Y-2400889D02*
X-789580Y-2362793D01*
X-789580Y-2362793D02*
X-789580Y-2315174D01*
X-789580Y-2315174D02*
X-780056Y-2277079D01*
X-780056Y-2277079D02*
X-770533Y-2258031D01*
X-770533Y-2258031D02*
X-761009Y-2248508D01*
X-761009Y-2248508D02*
X-741961Y-2238984D01*
X-589580Y-2438984D02*
X-589580Y-2305650D01*
X-589580Y-2324698D02*
X-580056Y-2315174D01*
X-580056Y-2315174D02*
X-561009Y-2305650D01*
X-561009Y-2305650D02*
X-532437Y-2305650D01*
X-532437Y-2305650D02*
X-513390Y-2315174D01*
X-513390Y-2315174D02*
X-503866Y-2334222D01*
X-503866Y-2334222D02*
X-503866Y-2438984D01*
X-503866Y-2334222D02*
X-494342Y-2315174D01*
X-494342Y-2315174D02*
X-475294Y-2305650D01*
X-475294Y-2305650D02*
X-446723Y-2305650D01*
X-446723Y-2305650D02*
X-427675Y-2315174D01*
X-427675Y-2315174D02*
X-418152Y-2334222D01*
X-418152Y-2334222D02*
X-418152Y-2438984D01*
X-322914Y-2438984D02*
X-322914Y-2305650D01*
X-322914Y-2324698D02*
X-313390Y-2315174D01*
X-313390Y-2315174D02*
X-294342Y-2305650D01*
X-294342Y-2305650D02*
X-265771Y-2305650D01*
X-265771Y-2305650D02*
X-246723Y-2315174D01*
X-246723Y-2315174D02*
X-237199Y-2334222D01*
X-237199Y-2334222D02*
X-237199Y-2438984D01*
X-237199Y-2334222D02*
X-227675Y-2315174D01*
X-227675Y-2315174D02*
X-208628Y-2305650D01*
X-208628Y-2305650D02*
X-180056Y-2305650D01*
X-180056Y-2305650D02*
X-161009Y-2315174D01*
X-161009Y-2315174D02*
X-151485Y-2334222D01*
X-151485Y-2334222D02*
X-151485Y-2438984D01*
X238991Y-2229460D02*
X67563Y-2486603D01*
X496134Y-2238984D02*
X515182Y-2238984D01*
X515182Y-2238984D02*
X534229Y-2248508D01*
X534229Y-2248508D02*
X543753Y-2258031D01*
X543753Y-2258031D02*
X553277Y-2277079D01*
X553277Y-2277079D02*
X562801Y-2315174D01*
X562801Y-2315174D02*
X562801Y-2362793D01*
X562801Y-2362793D02*
X553277Y-2400889D01*
X553277Y-2400889D02*
X543753Y-2419936D01*
X543753Y-2419936D02*
X534229Y-2429460D01*
X534229Y-2429460D02*
X515182Y-2438984D01*
X515182Y-2438984D02*
X496134Y-2438984D01*
X496134Y-2438984D02*
X477086Y-2429460D01*
X477086Y-2429460D02*
X467563Y-2419936D01*
X467563Y-2419936D02*
X458039Y-2400889D01*
X458039Y-2400889D02*
X448515Y-2362793D01*
X448515Y-2362793D02*
X448515Y-2315174D01*
X448515Y-2315174D02*
X458039Y-2277079D01*
X458039Y-2277079D02*
X467563Y-2258031D01*
X467563Y-2258031D02*
X477086Y-2248508D01*
X477086Y-2248508D02*
X496134Y-2238984D01*
X648515Y-2419936D02*
X658039Y-2429460D01*
X658039Y-2429460D02*
X648515Y-2438984D01*
X648515Y-2438984D02*
X638991Y-2429460D01*
X638991Y-2429460D02*
X648515Y-2419936D01*
X648515Y-2419936D02*
X648515Y-2438984D01*
X781848Y-2238984D02*
X800896Y-2238984D01*
X800896Y-2238984D02*
X819944Y-2248508D01*
X819944Y-2248508D02*
X829467Y-2258031D01*
X829467Y-2258031D02*
X838991Y-2277079D01*
X838991Y-2277079D02*
X848515Y-2315174D01*
X848515Y-2315174D02*
X848515Y-2362793D01*
X848515Y-2362793D02*
X838991Y-2400889D01*
X838991Y-2400889D02*
X829467Y-2419936D01*
X829467Y-2419936D02*
X819944Y-2429460D01*
X819944Y-2429460D02*
X800896Y-2438984D01*
X800896Y-2438984D02*
X781848Y-2438984D01*
X781848Y-2438984D02*
X762801Y-2429460D01*
X762801Y-2429460D02*
X753277Y-2419936D01*
X753277Y-2419936D02*
X743753Y-2400889D01*
X743753Y-2400889D02*
X734229Y-2362793D01*
X734229Y-2362793D02*
X734229Y-2315174D01*
X734229Y-2315174D02*
X743753Y-2277079D01*
X743753Y-2277079D02*
X753277Y-2258031D01*
X753277Y-2258031D02*
X762801Y-2248508D01*
X762801Y-2248508D02*
X781848Y-2238984D01*
X972325Y-2238984D02*
X991372Y-2238984D01*
X991372Y-2238984D02*
X1010420Y-2248508D01*
X1010420Y-2248508D02*
X1019944Y-2258031D01*
X1019944Y-2258031D02*
X1029467Y-2277079D01*
X1029467Y-2277079D02*
X1038991Y-2315174D01*
X1038991Y-2315174D02*
X1038991Y-2362793D01*
X1038991Y-2362793D02*
X1029467Y-2400889D01*
X1029467Y-2400889D02*
X1019944Y-2419936D01*
X1019944Y-2419936D02*
X1010420Y-2429460D01*
X1010420Y-2429460D02*
X991372Y-2438984D01*
X991372Y-2438984D02*
X972325Y-2438984D01*
X972325Y-2438984D02*
X953277Y-2429460D01*
X953277Y-2429460D02*
X943753Y-2419936D01*
X943753Y-2419936D02*
X934229Y-2400889D01*
X934229Y-2400889D02*
X924706Y-2362793D01*
X924706Y-2362793D02*
X924706Y-2315174D01*
X924706Y-2315174D02*
X934229Y-2277079D01*
X934229Y-2277079D02*
X943753Y-2258031D01*
X943753Y-2258031D02*
X953277Y-2248508D01*
X953277Y-2248508D02*
X972325Y-2238984D01*
X1105658Y-2238984D02*
X1238991Y-2238984D01*
X1238991Y-2238984D02*
X1153277Y-2438984D01*
X1324706Y-2438984D02*
X1362801Y-2438984D01*
X1362801Y-2438984D02*
X1381849Y-2429460D01*
X1381849Y-2429460D02*
X1391372Y-2419936D01*
X1391372Y-2419936D02*
X1410420Y-2391365D01*
X1410420Y-2391365D02*
X1419944Y-2353270D01*
X1419944Y-2353270D02*
X1419944Y-2277079D01*
X1419944Y-2277079D02*
X1410420Y-2258031D01*
X1410420Y-2258031D02*
X1400896Y-2248508D01*
X1400896Y-2248508D02*
X1381849Y-2238984D01*
X1381849Y-2238984D02*
X1343753Y-2238984D01*
X1343753Y-2238984D02*
X1324706Y-2248508D01*
X1324706Y-2248508D02*
X1315182Y-2258031D01*
X1315182Y-2258031D02*
X1305658Y-2277079D01*
X1305658Y-2277079D02*
X1305658Y-2324698D01*
X1305658Y-2324698D02*
X1315182Y-2343746D01*
X1315182Y-2343746D02*
X1324706Y-2353270D01*
X1324706Y-2353270D02*
X1343753Y-2362793D01*
X1343753Y-2362793D02*
X1381849Y-2362793D01*
X1381849Y-2362793D02*
X1400896Y-2353270D01*
X1400896Y-2353270D02*
X1410420Y-2343746D01*
X1410420Y-2343746D02*
X1419944Y-2324698D01*
X1496134Y-2238984D02*
X1496134Y-2277079D01*
X1572325Y-2238984D02*
X1572325Y-2277079D01*
X1867563Y-2515174D02*
X1858039Y-2505650D01*
X1858039Y-2505650D02*
X1838991Y-2477079D01*
X1838991Y-2477079D02*
X1829468Y-2458031D01*
X1829468Y-2458031D02*
X1819944Y-2429460D01*
X1819944Y-2429460D02*
X1810420Y-2381841D01*
X1810420Y-2381841D02*
X1810420Y-2343746D01*
X1810420Y-2343746D02*
X1819944Y-2296127D01*
X1819944Y-2296127D02*
X1829468Y-2267555D01*
X1829468Y-2267555D02*
X1838991Y-2248508D01*
X1838991Y-2248508D02*
X1858039Y-2219936D01*
X1858039Y-2219936D02*
X1867563Y-2210412D01*
X2048515Y-2438984D02*
X1934229Y-2438984D01*
X1991372Y-2438984D02*
X1991372Y-2238984D01*
X1991372Y-2238984D02*
X1972325Y-2267555D01*
X1972325Y-2267555D02*
X1953277Y-2286603D01*
X1953277Y-2286603D02*
X1934229Y-2296127D01*
X2229468Y-2238984D02*
X2134230Y-2238984D01*
X2134230Y-2238984D02*
X2124706Y-2334222D01*
X2124706Y-2334222D02*
X2134230Y-2324698D01*
X2134230Y-2324698D02*
X2153277Y-2315174D01*
X2153277Y-2315174D02*
X2200896Y-2315174D01*
X2200896Y-2315174D02*
X2219944Y-2324698D01*
X2219944Y-2324698D02*
X2229468Y-2334222D01*
X2229468Y-2334222D02*
X2238991Y-2353270D01*
X2238991Y-2353270D02*
X2238991Y-2400889D01*
X2238991Y-2400889D02*
X2229468Y-2419936D01*
X2229468Y-2419936D02*
X2219944Y-2429460D01*
X2219944Y-2429460D02*
X2200896Y-2438984D01*
X2200896Y-2438984D02*
X2153277Y-2438984D01*
X2153277Y-2438984D02*
X2134230Y-2429460D01*
X2134230Y-2429460D02*
X2124706Y-2419936D01*
X2410420Y-2305650D02*
X2410420Y-2438984D01*
X2362801Y-2229460D02*
X2315182Y-2372317D01*
X2315182Y-2372317D02*
X2438991Y-2372317D01*
X2667563Y-2438984D02*
X2667563Y-2238984D01*
X2753277Y-2438984D02*
X2753277Y-2334222D01*
X2753277Y-2334222D02*
X2743753Y-2315174D01*
X2743753Y-2315174D02*
X2724706Y-2305650D01*
X2724706Y-2305650D02*
X2696134Y-2305650D01*
X2696134Y-2305650D02*
X2677087Y-2315174D01*
X2677087Y-2315174D02*
X2667563Y-2324698D01*
X2877087Y-2438984D02*
X2858039Y-2429460D01*
X2858039Y-2429460D02*
X2848515Y-2419936D01*
X2848515Y-2419936D02*
X2838991Y-2400889D01*
X2838991Y-2400889D02*
X2838991Y-2343746D01*
X2838991Y-2343746D02*
X2848515Y-2324698D01*
X2848515Y-2324698D02*
X2858039Y-2315174D01*
X2858039Y-2315174D02*
X2877087Y-2305650D01*
X2877087Y-2305650D02*
X2905658Y-2305650D01*
X2905658Y-2305650D02*
X2924706Y-2315174D01*
X2924706Y-2315174D02*
X2934230Y-2324698D01*
X2934230Y-2324698D02*
X2943753Y-2343746D01*
X2943753Y-2343746D02*
X2943753Y-2400889D01*
X2943753Y-2400889D02*
X2934230Y-2419936D01*
X2934230Y-2419936D02*
X2924706Y-2429460D01*
X2924706Y-2429460D02*
X2905658Y-2438984D01*
X2905658Y-2438984D02*
X2877087Y-2438984D01*
X3058039Y-2438984D02*
X3038991Y-2429460D01*
X3038991Y-2429460D02*
X3029468Y-2410412D01*
X3029468Y-2410412D02*
X3029468Y-2238984D01*
X3210420Y-2429460D02*
X3191372Y-2438984D01*
X3191372Y-2438984D02*
X3153277Y-2438984D01*
X3153277Y-2438984D02*
X3134230Y-2429460D01*
X3134230Y-2429460D02*
X3124706Y-2410412D01*
X3124706Y-2410412D02*
X3124706Y-2334222D01*
X3124706Y-2334222D02*
X3134230Y-2315174D01*
X3134230Y-2315174D02*
X3153277Y-2305650D01*
X3153277Y-2305650D02*
X3191372Y-2305650D01*
X3191372Y-2305650D02*
X3210420Y-2315174D01*
X3210420Y-2315174D02*
X3219944Y-2334222D01*
X3219944Y-2334222D02*
X3219944Y-2353270D01*
X3219944Y-2353270D02*
X3124706Y-2372317D01*
X3296134Y-2429460D02*
X3315182Y-2438984D01*
X3315182Y-2438984D02*
X3353277Y-2438984D01*
X3353277Y-2438984D02*
X3372325Y-2429460D01*
X3372325Y-2429460D02*
X3381849Y-2410412D01*
X3381849Y-2410412D02*
X3381849Y-2400889D01*
X3381849Y-2400889D02*
X3372325Y-2381841D01*
X3372325Y-2381841D02*
X3353277Y-2372317D01*
X3353277Y-2372317D02*
X3324706Y-2372317D01*
X3324706Y-2372317D02*
X3305658Y-2362793D01*
X3305658Y-2362793D02*
X3296134Y-2343746D01*
X3296134Y-2343746D02*
X3296134Y-2334222D01*
X3296134Y-2334222D02*
X3305658Y-2315174D01*
X3305658Y-2315174D02*
X3324706Y-2305650D01*
X3324706Y-2305650D02*
X3353277Y-2305650D01*
X3353277Y-2305650D02*
X3372325Y-2315174D01*
X3448515Y-2515174D02*
X3458039Y-2505650D01*
X3458039Y-2505650D02*
X3477087Y-2477079D01*
X3477087Y-2477079D02*
X3486611Y-2458031D01*
X3486611Y-2458031D02*
X3496134Y-2429460D01*
X3496134Y-2429460D02*
X3505658Y-2381841D01*
X3505658Y-2381841D02*
X3505658Y-2343746D01*
X3505658Y-2343746D02*
X3496134Y-2296127D01*
X3496134Y-2296127D02*
X3486611Y-2267555D01*
X3486611Y-2267555D02*
X3477087Y-2248508D01*
X3477087Y-2248508D02*
X3458039Y-2219936D01*
X3458039Y-2219936D02*
X3448515Y-2210412D01*
M02*
