%TF.GenerationSoftware,KiCad,Pcbnew,10.0.0*%
%TF.CreationDate,2026-09-02T22:18:07+02:00*%
%TF.ProjectId,power_board,706f7765-725f-4626-9f61-72642e6b6963,rev?*%
%TF.SameCoordinates,Original*%
%TF.FileFunction,Legend,Top*%
%TF.FilePolarity,Positive*%
%FSLAX46Y46*%
G04 Gerber Fmt 4.6, Leading zero omitted, Abs format (unit mm)*
G04 Created by KiCad (PCBNEW 10.0.0) date 2026-09-02 22:18:07*
%MOMM*%
%LPD*%
G01*
G04 APERTURE LIST*
%ADD10C,0.120000*%
G04 APERTURE END LIST*
D10*
X8152000Y10479000D02*
X6832000Y10479000D01*
X6352000Y10479000D02*
X5032000Y10479000D01*
X4750000Y10479000D02*
X4750000Y11799000D01*
X4750000Y12279000D02*
X4750000Y13599000D01*
X4750000Y14079000D02*
X4750000Y14727000D01*
X4750000Y14727000D02*
X3430000Y14727000D01*
X2950000Y14727000D02*
X1630000Y14727000D01*
X1150000Y14727000D02*
X-170000Y14727000D01*
X-650000Y14727000D02*
X-1970000Y14727000D01*
X-2450000Y14727000D02*
X-3770000Y14727000D01*
X-4250000Y14727000D02*
X-4750000Y14727000D01*
X-4750000Y14727000D02*
X-4750000Y13407000D01*
X-4750000Y12927000D02*
X-4750000Y11607000D01*
X-4750000Y11127000D02*
X-4750000Y9807000D01*
X-4750000Y9327000D02*
X-4750000Y8127000D01*
X-4750000Y8127000D02*
X-3850000Y8127000D01*
X-3850000Y8127000D02*
X-3850000Y6807000D01*
X-3850000Y6327000D02*
X-3850000Y5617800D01*
X-3850000Y5617800D02*
X-4783381Y6551181D01*
X-5122792Y6890592D02*
X-6056173Y7823973D01*
X-6395584Y8163384D02*
X-7328965Y9096765D01*
X-7668377Y9436177D02*
X-8601758Y10369558D01*
X-8941169Y10708969D02*
X-9015600Y10783400D01*
X-9015600Y10783400D02*
X-9948981Y9850019D01*
X-10288392Y9510608D02*
X-10783400Y9015600D01*
X-10783400Y9015600D02*
X-9850019Y8082219D01*
X-9510608Y7742808D02*
X-8577227Y6809427D01*
X-8237816Y6470016D02*
X-8218800Y6451000D01*
X-8218800Y6451000D02*
X-8977000Y6451000D01*
X-8977000Y6451000D02*
X-8977000Y5131000D01*
X-8977000Y4651000D02*
X-8977000Y3331000D01*
X-8977000Y2851000D02*
X-8977000Y1650000D01*
X-8977000Y1650000D02*
X-10297000Y1650000D01*
X-10727000Y1650000D02*
X-10727000Y330000D01*
X-10727000Y-150000D02*
X-10727000Y-1470000D01*
X-10727000Y-1950000D02*
X-10727000Y-2280000D01*
X-10727000Y-2280000D02*
X-12047000Y-2280000D01*
X-12452000Y-2280000D02*
X-12452000Y-3600000D01*
X-12452000Y-4080000D02*
X-12452000Y-5400000D01*
X-12452000Y-5880000D02*
X-12452000Y-7200000D01*
X-12452000Y-7680000D02*
X-12452000Y-9000000D01*
X-12452000Y-9480000D02*
X-12452000Y-9980000D01*
X-12452000Y-9980000D02*
X-11132000Y-9980000D01*
X-10652000Y-9980000D02*
X-9332000Y-9980000D01*
X-8852000Y-9980000D02*
X-7752000Y-9980000D01*
X-7752000Y-9980000D02*
X-6432000Y-9980000D01*
X-5952000Y-9980000D02*
X-4632000Y-9980000D01*
X-4152000Y-9980000D02*
X-3850000Y-9980000D01*
X-3850000Y-9980000D02*
X-3850000Y-11300000D01*
X-3850000Y-11780000D02*
X-3850000Y-11827000D01*
X-3850000Y-11827000D02*
X-2530000Y-11827000D01*
X-2050000Y-11827000D02*
X-730000Y-11827000D01*
X-250000Y-11827000D02*
X1070000Y-11827000D01*
X1550000Y-11827000D02*
X2870000Y-11827000D01*
X3350000Y-11827000D02*
X3850000Y-11827000D01*
X3850000Y-11827000D02*
X3850000Y-10507000D01*
X3850000Y-10027000D02*
X3850000Y-9102000D01*
X3850000Y-9102000D02*
X5170000Y-9102000D01*
X5650000Y-9102000D02*
X6970000Y-9102000D01*
X7334200Y-9102000D02*
X8267581Y-10035381D01*
X8606992Y-10374792D02*
X9015600Y-10783400D01*
X9015600Y-10783400D02*
X9948981Y-9850019D01*
X10288392Y-9510608D02*
X10783400Y-9015600D01*
X10783400Y-9015600D02*
X9850019Y-8082219D01*
X9510608Y-7742808D02*
X8577227Y-6809427D01*
X8237816Y-6470016D02*
X7718800Y-5951000D01*
X7718800Y-5951000D02*
X9038800Y-5951000D01*
X9518800Y-5951000D02*
X10838800Y-5951000D01*
X11318800Y-5951000D02*
X11327000Y-5951000D01*
X11327000Y-5951000D02*
X11327000Y-4631000D01*
X11327000Y-4151000D02*
X11327000Y-2831000D01*
X11327000Y-2351000D02*
X11327000Y-1031000D01*
X11327000Y-551000D02*
X11327000Y769000D01*
X11327000Y1249000D02*
X11327000Y1451000D01*
X11327000Y1451000D02*
X12647000Y1451000D01*
X12728000Y1451000D02*
X12728000Y2771000D01*
X12728000Y3251000D02*
X12728000Y4571000D01*
X12728000Y5051000D02*
X12728000Y6371000D01*
X12728000Y6851000D02*
X12728000Y8171000D01*
X12728000Y8651000D02*
X12728000Y9151000D01*
X12728000Y9151000D02*
X11408000Y9151000D01*
X10928000Y9151000D02*
X9608000Y9151000D01*
X9128000Y9151000D02*
X8327000Y9151000D01*
X8327000Y9151000D02*
X8327000Y10152000D01*
X8327000Y10152000D02*
X8152000Y10152000D01*
X8152000Y10152000D02*
X8152000Y10479000D01*
X-14183799Y15401240D02*
X-14107608Y15363144D01*
X-14107608Y15363144D02*
X-13955227Y15363144D01*
X-13955227Y15363144D02*
X-13879037Y15401240D01*
X-13879037Y15401240D02*
X-13840941Y15477430D01*
X-13840941Y15477430D02*
X-13840941Y15515525D01*
X-13840941Y15515525D02*
X-13879037Y15591716D01*
X-13879037Y15591716D02*
X-13955227Y15629811D01*
X-13955227Y15629811D02*
X-14069513Y15629811D01*
X-14069513Y15629811D02*
X-14145703Y15667906D01*
X-14145703Y15667906D02*
X-14183799Y15744097D01*
X-14183799Y15744097D02*
X-14183799Y15782192D01*
X-14183799Y15782192D02*
X-14145703Y15858382D01*
X-14145703Y15858382D02*
X-14069513Y15896478D01*
X-14069513Y15896478D02*
X-13955227Y15896478D01*
X-13955227Y15896478D02*
X-13879037Y15858382D01*
X-13498084Y15896478D02*
X-13498084Y15096478D01*
X-13498084Y15858382D02*
X-13421894Y15896478D01*
X-13421894Y15896478D02*
X-13269513Y15896478D01*
X-13269513Y15896478D02*
X-13193322Y15858382D01*
X-13193322Y15858382D02*
X-13155227Y15820287D01*
X-13155227Y15820287D02*
X-13117132Y15744097D01*
X-13117132Y15744097D02*
X-13117132Y15515525D01*
X-13117132Y15515525D02*
X-13155227Y15439335D01*
X-13155227Y15439335D02*
X-13193322Y15401240D01*
X-13193322Y15401240D02*
X-13269513Y15363144D01*
X-13269513Y15363144D02*
X-13421894Y15363144D01*
X-13421894Y15363144D02*
X-13498084Y15401240D01*
X-12431417Y15363144D02*
X-12431417Y15782192D01*
X-12431417Y15782192D02*
X-12469512Y15858382D01*
X-12469512Y15858382D02*
X-12545703Y15896478D01*
X-12545703Y15896478D02*
X-12698084Y15896478D01*
X-12698084Y15896478D02*
X-12774274Y15858382D01*
X-12431417Y15401240D02*
X-12507608Y15363144D01*
X-12507608Y15363144D02*
X-12698084Y15363144D01*
X-12698084Y15363144D02*
X-12774274Y15401240D01*
X-12774274Y15401240D02*
X-12812370Y15477430D01*
X-12812370Y15477430D02*
X-12812370Y15553620D01*
X-12812370Y15553620D02*
X-12774274Y15629811D01*
X-12774274Y15629811D02*
X-12698084Y15667906D01*
X-12698084Y15667906D02*
X-12507608Y15667906D01*
X-12507608Y15667906D02*
X-12431417Y15706001D01*
X-11707607Y15401240D02*
X-11783798Y15363144D01*
X-11783798Y15363144D02*
X-11936179Y15363144D01*
X-11936179Y15363144D02*
X-12012369Y15401240D01*
X-12012369Y15401240D02*
X-12050464Y15439335D01*
X-12050464Y15439335D02*
X-12088560Y15515525D01*
X-12088560Y15515525D02*
X-12088560Y15744097D01*
X-12088560Y15744097D02*
X-12050464Y15820287D01*
X-12050464Y15820287D02*
X-12012369Y15858382D01*
X-12012369Y15858382D02*
X-11936179Y15896478D01*
X-11936179Y15896478D02*
X-11783798Y15896478D01*
X-11783798Y15896478D02*
X-11707607Y15858382D01*
X-11059988Y15401240D02*
X-11136179Y15363144D01*
X-11136179Y15363144D02*
X-11288560Y15363144D01*
X-11288560Y15363144D02*
X-11364750Y15401240D01*
X-11364750Y15401240D02*
X-11402846Y15477430D01*
X-11402846Y15477430D02*
X-11402846Y15782192D01*
X-11402846Y15782192D02*
X-11364750Y15858382D01*
X-11364750Y15858382D02*
X-11288560Y15896478D01*
X-11288560Y15896478D02*
X-11136179Y15896478D01*
X-11136179Y15896478D02*
X-11059988Y15858382D01*
X-11059988Y15858382D02*
X-11021893Y15782192D01*
X-11021893Y15782192D02*
X-11021893Y15706001D01*
X-11021893Y15706001D02*
X-11402846Y15629811D01*
X-10679036Y15363144D02*
X-10679036Y15896478D01*
X-10679036Y15744097D02*
X-10640941Y15820287D01*
X-10640941Y15820287D02*
X-10602846Y15858382D01*
X-10602846Y15858382D02*
X-10526655Y15896478D01*
X-10526655Y15896478D02*
X-10450465Y15896478D01*
X-10374275Y15286954D02*
X-9764751Y15286954D01*
X-9574274Y15896478D02*
X-9574274Y15096478D01*
X-9574274Y15858382D02*
X-9498084Y15896478D01*
X-9498084Y15896478D02*
X-9345703Y15896478D01*
X-9345703Y15896478D02*
X-9269512Y15858382D01*
X-9269512Y15858382D02*
X-9231417Y15820287D01*
X-9231417Y15820287D02*
X-9193322Y15744097D01*
X-9193322Y15744097D02*
X-9193322Y15515525D01*
X-9193322Y15515525D02*
X-9231417Y15439335D01*
X-9231417Y15439335D02*
X-9269512Y15401240D01*
X-9269512Y15401240D02*
X-9345703Y15363144D01*
X-9345703Y15363144D02*
X-9498084Y15363144D01*
X-9498084Y15363144D02*
X-9574274Y15401240D01*
X-8736179Y15363144D02*
X-8812369Y15401240D01*
X-8812369Y15401240D02*
X-8850464Y15439335D01*
X-8850464Y15439335D02*
X-8888560Y15515525D01*
X-8888560Y15515525D02*
X-8888560Y15744097D01*
X-8888560Y15744097D02*
X-8850464Y15820287D01*
X-8850464Y15820287D02*
X-8812369Y15858382D01*
X-8812369Y15858382D02*
X-8736179Y15896478D01*
X-8736179Y15896478D02*
X-8621893Y15896478D01*
X-8621893Y15896478D02*
X-8545702Y15858382D01*
X-8545702Y15858382D02*
X-8507607Y15820287D01*
X-8507607Y15820287D02*
X-8469512Y15744097D01*
X-8469512Y15744097D02*
X-8469512Y15515525D01*
X-8469512Y15515525D02*
X-8507607Y15439335D01*
X-8507607Y15439335D02*
X-8545702Y15401240D01*
X-8545702Y15401240D02*
X-8621893Y15363144D01*
X-8621893Y15363144D02*
X-8736179Y15363144D01*
X-8202845Y15896478D02*
X-8050464Y15363144D01*
X-8050464Y15363144D02*
X-7898083Y15744097D01*
X-7898083Y15744097D02*
X-7745702Y15363144D01*
X-7745702Y15363144D02*
X-7593321Y15896478D01*
X-6983797Y15401240D02*
X-7059988Y15363144D01*
X-7059988Y15363144D02*
X-7212369Y15363144D01*
X-7212369Y15363144D02*
X-7288559Y15401240D01*
X-7288559Y15401240D02*
X-7326655Y15477430D01*
X-7326655Y15477430D02*
X-7326655Y15782192D01*
X-7326655Y15782192D02*
X-7288559Y15858382D01*
X-7288559Y15858382D02*
X-7212369Y15896478D01*
X-7212369Y15896478D02*
X-7059988Y15896478D01*
X-7059988Y15896478D02*
X-6983797Y15858382D01*
X-6983797Y15858382D02*
X-6945702Y15782192D01*
X-6945702Y15782192D02*
X-6945702Y15706001D01*
X-6945702Y15706001D02*
X-7326655Y15629811D01*
X-6602845Y15363144D02*
X-6602845Y15896478D01*
X-6602845Y15744097D02*
X-6564750Y15820287D01*
X-6564750Y15820287D02*
X-6526655Y15858382D01*
X-6526655Y15858382D02*
X-6450464Y15896478D01*
X-6450464Y15896478D02*
X-6374274Y15896478D01*
X-6298084Y15286954D02*
X-5688560Y15286954D01*
X-5498083Y15363144D02*
X-5498083Y16163144D01*
X-5498083Y15858382D02*
X-5421893Y15896478D01*
X-5421893Y15896478D02*
X-5269512Y15896478D01*
X-5269512Y15896478D02*
X-5193321Y15858382D01*
X-5193321Y15858382D02*
X-5155226Y15820287D01*
X-5155226Y15820287D02*
X-5117131Y15744097D01*
X-5117131Y15744097D02*
X-5117131Y15515525D01*
X-5117131Y15515525D02*
X-5155226Y15439335D01*
X-5155226Y15439335D02*
X-5193321Y15401240D01*
X-5193321Y15401240D02*
X-5269512Y15363144D01*
X-5269512Y15363144D02*
X-5421893Y15363144D01*
X-5421893Y15363144D02*
X-5498083Y15401240D01*
X-4659988Y15363144D02*
X-4736178Y15401240D01*
X-4736178Y15401240D02*
X-4774273Y15439335D01*
X-4774273Y15439335D02*
X-4812369Y15515525D01*
X-4812369Y15515525D02*
X-4812369Y15744097D01*
X-4812369Y15744097D02*
X-4774273Y15820287D01*
X-4774273Y15820287D02*
X-4736178Y15858382D01*
X-4736178Y15858382D02*
X-4659988Y15896478D01*
X-4659988Y15896478D02*
X-4545702Y15896478D01*
X-4545702Y15896478D02*
X-4469511Y15858382D01*
X-4469511Y15858382D02*
X-4431416Y15820287D01*
X-4431416Y15820287D02*
X-4393321Y15744097D01*
X-4393321Y15744097D02*
X-4393321Y15515525D01*
X-4393321Y15515525D02*
X-4431416Y15439335D01*
X-4431416Y15439335D02*
X-4469511Y15401240D01*
X-4469511Y15401240D02*
X-4545702Y15363144D01*
X-4545702Y15363144D02*
X-4659988Y15363144D01*
X-3707606Y15363144D02*
X-3707606Y15782192D01*
X-3707606Y15782192D02*
X-3745701Y15858382D01*
X-3745701Y15858382D02*
X-3821892Y15896478D01*
X-3821892Y15896478D02*
X-3974273Y15896478D01*
X-3974273Y15896478D02*
X-4050463Y15858382D01*
X-3707606Y15401240D02*
X-3783797Y15363144D01*
X-3783797Y15363144D02*
X-3974273Y15363144D01*
X-3974273Y15363144D02*
X-4050463Y15401240D01*
X-4050463Y15401240D02*
X-4088559Y15477430D01*
X-4088559Y15477430D02*
X-4088559Y15553620D01*
X-4088559Y15553620D02*
X-4050463Y15629811D01*
X-4050463Y15629811D02*
X-3974273Y15667906D01*
X-3974273Y15667906D02*
X-3783797Y15667906D01*
X-3783797Y15667906D02*
X-3707606Y15706001D01*
X-3326653Y15363144D02*
X-3326653Y15896478D01*
X-3326653Y15744097D02*
X-3288558Y15820287D01*
X-3288558Y15820287D02*
X-3250463Y15858382D01*
X-3250463Y15858382D02*
X-3174272Y15896478D01*
X-3174272Y15896478D02*
X-3098082Y15896478D01*
X-2488558Y15363144D02*
X-2488558Y16163144D01*
X-2488558Y15401240D02*
X-2564749Y15363144D01*
X-2564749Y15363144D02*
X-2717130Y15363144D01*
X-2717130Y15363144D02*
X-2793320Y15401240D01*
X-2793320Y15401240D02*
X-2831415Y15439335D01*
X-2831415Y15439335D02*
X-2869511Y15515525D01*
X-2869511Y15515525D02*
X-2869511Y15744097D01*
X-2869511Y15744097D02*
X-2831415Y15820287D01*
X-2831415Y15820287D02*
X-2793320Y15858382D01*
X-2793320Y15858382D02*
X-2717130Y15896478D01*
X-2717130Y15896478D02*
X-2564749Y15896478D01*
X-2564749Y15896478D02*
X-2488558Y15858382D01*
X-2298082Y15286954D02*
X-1688558Y15286954D01*
X-1155224Y15401240D02*
X-1231415Y15363144D01*
X-1231415Y15363144D02*
X-1383796Y15363144D01*
X-1383796Y15363144D02*
X-1459986Y15401240D01*
X-1459986Y15401240D02*
X-1498081Y15439335D01*
X-1498081Y15439335D02*
X-1536177Y15515525D01*
X-1536177Y15515525D02*
X-1536177Y15744097D01*
X-1536177Y15744097D02*
X-1498081Y15820287D01*
X-1498081Y15820287D02*
X-1459986Y15858382D01*
X-1459986Y15858382D02*
X-1383796Y15896478D01*
X-1383796Y15896478D02*
X-1231415Y15896478D01*
X-1231415Y15896478D02*
X-1155224Y15858382D01*
X-698082Y15363144D02*
X-774272Y15401240D01*
X-774272Y15401240D02*
X-812367Y15439335D01*
X-812367Y15439335D02*
X-850463Y15515525D01*
X-850463Y15515525D02*
X-850463Y15744097D01*
X-850463Y15744097D02*
X-812367Y15820287D01*
X-812367Y15820287D02*
X-774272Y15858382D01*
X-774272Y15858382D02*
X-698082Y15896478D01*
X-698082Y15896478D02*
X-583796Y15896478D01*
X-583796Y15896478D02*
X-507605Y15858382D01*
X-507605Y15858382D02*
X-469510Y15820287D01*
X-469510Y15820287D02*
X-431415Y15744097D01*
X-431415Y15744097D02*
X-431415Y15515525D01*
X-431415Y15515525D02*
X-469510Y15439335D01*
X-469510Y15439335D02*
X-507605Y15401240D01*
X-507605Y15401240D02*
X-583796Y15363144D01*
X-583796Y15363144D02*
X-698082Y15363144D01*
X-88557Y15363144D02*
X-88557Y15896478D01*
X-88557Y15820287D02*
X-50462Y15858382D01*
X-50462Y15858382D02*
X25727Y15896478D01*
X25727Y15896478D02*
X140013Y15896478D01*
X140013Y15896478D02*
X216204Y15858382D01*
X216204Y15858382D02*
X254299Y15782192D01*
X254299Y15782192D02*
X254299Y15363144D01*
X254299Y15782192D02*
X292394Y15858382D01*
X292394Y15858382D02*
X368585Y15896478D01*
X368585Y15896478D02*
X482870Y15896478D01*
X482870Y15896478D02*
X559061Y15858382D01*
X559061Y15858382D02*
X597156Y15782192D01*
X597156Y15782192D02*
X597156Y15363144D01*
X978109Y15896478D02*
X978109Y15096478D01*
X978109Y15858382D02*
X1054299Y15896478D01*
X1054299Y15896478D02*
X1206680Y15896478D01*
X1206680Y15896478D02*
X1282871Y15858382D01*
X1282871Y15858382D02*
X1320966Y15820287D01*
X1320966Y15820287D02*
X1359061Y15744097D01*
X1359061Y15744097D02*
X1359061Y15515525D01*
X1359061Y15515525D02*
X1320966Y15439335D01*
X1320966Y15439335D02*
X1282871Y15401240D01*
X1282871Y15401240D02*
X1206680Y15363144D01*
X1206680Y15363144D02*
X1054299Y15363144D01*
X1054299Y15363144D02*
X978109Y15401240D01*
X2044776Y15363144D02*
X2044776Y15782192D01*
X2044776Y15782192D02*
X2006681Y15858382D01*
X2006681Y15858382D02*
X1930490Y15896478D01*
X1930490Y15896478D02*
X1778109Y15896478D01*
X1778109Y15896478D02*
X1701919Y15858382D01*
X2044776Y15401240D02*
X1968585Y15363144D01*
X1968585Y15363144D02*
X1778109Y15363144D01*
X1778109Y15363144D02*
X1701919Y15401240D01*
X1701919Y15401240D02*
X1663823Y15477430D01*
X1663823Y15477430D02*
X1663823Y15553620D01*
X1663823Y15553620D02*
X1701919Y15629811D01*
X1701919Y15629811D02*
X1778109Y15667906D01*
X1778109Y15667906D02*
X1968585Y15667906D01*
X1968585Y15667906D02*
X2044776Y15706001D01*
X2425729Y15896478D02*
X2425729Y15363144D01*
X2425729Y15820287D02*
X2463824Y15858382D01*
X2463824Y15858382D02*
X2540014Y15896478D01*
X2540014Y15896478D02*
X2654300Y15896478D01*
X2654300Y15896478D02*
X2730491Y15858382D01*
X2730491Y15858382D02*
X2768586Y15782192D01*
X2768586Y15782192D02*
X2768586Y15363144D01*
X3149539Y15363144D02*
X3149539Y15896478D01*
X3149539Y16163144D02*
X3111443Y16125049D01*
X3111443Y16125049D02*
X3149539Y16086954D01*
X3149539Y16086954D02*
X3187634Y16125049D01*
X3187634Y16125049D02*
X3149539Y16163144D01*
X3149539Y16163144D02*
X3149539Y16086954D01*
X3644776Y15363144D02*
X3568586Y15401240D01*
X3568586Y15401240D02*
X3530491Y15439335D01*
X3530491Y15439335D02*
X3492395Y15515525D01*
X3492395Y15515525D02*
X3492395Y15744097D01*
X3492395Y15744097D02*
X3530491Y15820287D01*
X3530491Y15820287D02*
X3568586Y15858382D01*
X3568586Y15858382D02*
X3644776Y15896478D01*
X3644776Y15896478D02*
X3759062Y15896478D01*
X3759062Y15896478D02*
X3835253Y15858382D01*
X3835253Y15858382D02*
X3873348Y15820287D01*
X3873348Y15820287D02*
X3911443Y15744097D01*
X3911443Y15744097D02*
X3911443Y15515525D01*
X3911443Y15515525D02*
X3873348Y15439335D01*
X3873348Y15439335D02*
X3835253Y15401240D01*
X3835253Y15401240D02*
X3759062Y15363144D01*
X3759062Y15363144D02*
X3644776Y15363144D01*
X4254301Y15896478D02*
X4254301Y15363144D01*
X4254301Y15820287D02*
X4292396Y15858382D01*
X4292396Y15858382D02*
X4368586Y15896478D01*
X4368586Y15896478D02*
X4482872Y15896478D01*
X4482872Y15896478D02*
X4559063Y15858382D01*
X4559063Y15858382D02*
X4597158Y15782192D01*
X4597158Y15782192D02*
X4597158Y15363144D01*
X4787635Y15286954D02*
X5397158Y15286954D01*
X5930492Y15401240D02*
X5854301Y15363144D01*
X5854301Y15363144D02*
X5701920Y15363144D01*
X5701920Y15363144D02*
X5625730Y15401240D01*
X5625730Y15401240D02*
X5587635Y15439335D01*
X5587635Y15439335D02*
X5549539Y15515525D01*
X5549539Y15515525D02*
X5549539Y15744097D01*
X5549539Y15744097D02*
X5587635Y15820287D01*
X5587635Y15820287D02*
X5625730Y15858382D01*
X5625730Y15858382D02*
X5701920Y15896478D01*
X5701920Y15896478D02*
X5854301Y15896478D01*
X5854301Y15896478D02*
X5930492Y15858382D01*
X6387634Y15363144D02*
X6311444Y15401240D01*
X6311444Y15401240D02*
X6273349Y15439335D01*
X6273349Y15439335D02*
X6235253Y15515525D01*
X6235253Y15515525D02*
X6235253Y15744097D01*
X6235253Y15744097D02*
X6273349Y15820287D01*
X6273349Y15820287D02*
X6311444Y15858382D01*
X6311444Y15858382D02*
X6387634Y15896478D01*
X6387634Y15896478D02*
X6501920Y15896478D01*
X6501920Y15896478D02*
X6578111Y15858382D01*
X6578111Y15858382D02*
X6616206Y15820287D01*
X6616206Y15820287D02*
X6654301Y15744097D01*
X6654301Y15744097D02*
X6654301Y15515525D01*
X6654301Y15515525D02*
X6616206Y15439335D01*
X6616206Y15439335D02*
X6578111Y15401240D01*
X6578111Y15401240D02*
X6501920Y15363144D01*
X6501920Y15363144D02*
X6387634Y15363144D01*
X6997159Y15363144D02*
X6997159Y15896478D01*
X6997159Y15820287D02*
X7035254Y15858382D01*
X7035254Y15858382D02*
X7111444Y15896478D01*
X7111444Y15896478D02*
X7225730Y15896478D01*
X7225730Y15896478D02*
X7301921Y15858382D01*
X7301921Y15858382D02*
X7340016Y15782192D01*
X7340016Y15782192D02*
X7340016Y15363144D01*
X7340016Y15782192D02*
X7378111Y15858382D01*
X7378111Y15858382D02*
X7454302Y15896478D01*
X7454302Y15896478D02*
X7568587Y15896478D01*
X7568587Y15896478D02*
X7644778Y15858382D01*
X7644778Y15858382D02*
X7682873Y15782192D01*
X7682873Y15782192D02*
X7682873Y15363144D01*
X8063826Y15896478D02*
X8063826Y15096478D01*
X8063826Y15858382D02*
X8140016Y15896478D01*
X8140016Y15896478D02*
X8292397Y15896478D01*
X8292397Y15896478D02*
X8368588Y15858382D01*
X8368588Y15858382D02*
X8406683Y15820287D01*
X8406683Y15820287D02*
X8444778Y15744097D01*
X8444778Y15744097D02*
X8444778Y15515525D01*
X8444778Y15515525D02*
X8406683Y15439335D01*
X8406683Y15439335D02*
X8368588Y15401240D01*
X8368588Y15401240D02*
X8292397Y15363144D01*
X8292397Y15363144D02*
X8140016Y15363144D01*
X8140016Y15363144D02*
X8063826Y15401240D01*
X9130493Y15896478D02*
X9130493Y15363144D01*
X8787636Y15896478D02*
X8787636Y15477430D01*
X8787636Y15477430D02*
X8825731Y15401240D01*
X8825731Y15401240D02*
X8901921Y15363144D01*
X8901921Y15363144D02*
X9016207Y15363144D01*
X9016207Y15363144D02*
X9092398Y15401240D01*
X9092398Y15401240D02*
X9130493Y15439335D01*
X9397160Y15896478D02*
X9701922Y15896478D01*
X9511446Y16163144D02*
X9511446Y15477430D01*
X9511446Y15477430D02*
X9549541Y15401240D01*
X9549541Y15401240D02*
X9625731Y15363144D01*
X9625731Y15363144D02*
X9701922Y15363144D01*
X10273351Y15401240D02*
X10197160Y15363144D01*
X10197160Y15363144D02*
X10044779Y15363144D01*
X10044779Y15363144D02*
X9968589Y15401240D01*
X9968589Y15401240D02*
X9930493Y15477430D01*
X9930493Y15477430D02*
X9930493Y15782192D01*
X9930493Y15782192D02*
X9968589Y15858382D01*
X9968589Y15858382D02*
X10044779Y15896478D01*
X10044779Y15896478D02*
X10197160Y15896478D01*
X10197160Y15896478D02*
X10273351Y15858382D01*
X10273351Y15858382D02*
X10311446Y15782192D01*
X10311446Y15782192D02*
X10311446Y15706001D01*
X10311446Y15706001D02*
X9930493Y15629811D01*
X11606684Y15401240D02*
X11530493Y15363144D01*
X11530493Y15363144D02*
X11378112Y15363144D01*
X11378112Y15363144D02*
X11301922Y15401240D01*
X11301922Y15401240D02*
X11263827Y15439335D01*
X11263827Y15439335D02*
X11225731Y15515525D01*
X11225731Y15515525D02*
X11225731Y15744097D01*
X11225731Y15744097D02*
X11263827Y15820287D01*
X11263827Y15820287D02*
X11301922Y15858382D01*
X11301922Y15858382D02*
X11378112Y15896478D01*
X11378112Y15896478D02*
X11530493Y15896478D01*
X11530493Y15896478D02*
X11606684Y15858382D01*
X12292398Y15896478D02*
X12292398Y15363144D01*
X11949541Y15896478D02*
X11949541Y15477430D01*
X11949541Y15477430D02*
X11987636Y15401240D01*
X11987636Y15401240D02*
X12063826Y15363144D01*
X12063826Y15363144D02*
X12178112Y15363144D01*
X12178112Y15363144D02*
X12254303Y15401240D01*
X12254303Y15401240D02*
X12292398Y15439335D01*
X12559065Y15896478D02*
X12863827Y15896478D01*
X12673351Y16163144D02*
X12673351Y15477430D01*
X12673351Y15477430D02*
X12711446Y15401240D01*
X12711446Y15401240D02*
X12787636Y15363144D01*
X12787636Y15363144D02*
X12863827Y15363144D01*
X13244779Y15363144D02*
X13168589Y15401240D01*
X13168589Y15401240D02*
X13130494Y15439335D01*
X13130494Y15439335D02*
X13092398Y15515525D01*
X13092398Y15515525D02*
X13092398Y15744097D01*
X13092398Y15744097D02*
X13130494Y15820287D01*
X13130494Y15820287D02*
X13168589Y15858382D01*
X13168589Y15858382D02*
X13244779Y15896478D01*
X13244779Y15896478D02*
X13359065Y15896478D01*
X13359065Y15896478D02*
X13435256Y15858382D01*
X13435256Y15858382D02*
X13473351Y15820287D01*
X13473351Y15820287D02*
X13511446Y15744097D01*
X13511446Y15744097D02*
X13511446Y15515525D01*
X13511446Y15515525D02*
X13473351Y15439335D01*
X13473351Y15439335D02*
X13435256Y15401240D01*
X13435256Y15401240D02*
X13359065Y15363144D01*
X13359065Y15363144D02*
X13244779Y15363144D01*
X14197161Y15896478D02*
X14197161Y15363144D01*
X13854304Y15896478D02*
X13854304Y15477430D01*
X13854304Y15477430D02*
X13892399Y15401240D01*
X13892399Y15401240D02*
X13968589Y15363144D01*
X13968589Y15363144D02*
X14082875Y15363144D01*
X14082875Y15363144D02*
X14159066Y15401240D01*
X14159066Y15401240D02*
X14197161Y15439335D01*
X14463828Y15896478D02*
X14768590Y15896478D01*
X14578114Y16163144D02*
X14578114Y15477430D01*
X14578114Y15477430D02*
X14616209Y15401240D01*
X14616209Y15401240D02*
X14692399Y15363144D01*
X14692399Y15363144D02*
X14768590Y15363144D01*
M02*
