%TF.GenerationSoftware,KiCad,Pcbnew,10.0.3*%
%TF.CreationDate,2026-09-04T14:05:15+02:00*%
%TF.ProjectId,spacer_activation_interface_cell_floor_board,73706163-6572-45f6-9163-746976617469,rev?*%
%TF.SameCoordinates,Original*%
%TF.FileFunction,Drillmap*%
%TF.FilePolarity,Positive*%
%FSLAX45Y45*%
G04 Gerber Fmt 4.5, Leading zero omitted, Abs format (unit mm)*
G04 Created by KiCad (PCBNEW 10.0.3) date 2026-09-04 14:05:15*
%MOMM*%
%LPD*%
G01*
G04 APERTURE LIST*
%ADD10C,0.150000*%
%ADD11C,0.100000*%
%ADD12C,0.200000*%
G04 APERTURE END LIST*
D10*
X-1078340Y-901560D02*
X-505200Y-328420D01*
X-901560Y-1078340D02*
X-1078340Y-901560D01*
X-600000Y955100D02*
X400000Y955100D01*
X-600000Y265100D02*
X-600000Y955100D01*
X-508200Y-334420D02*
X-508200Y214000D01*
X-505200Y220000D02*
X-295000Y220000D01*
X-470000Y-646780D02*
X-901560Y-1078340D01*
X-470000Y-970400D02*
X-470000Y-646780D01*
X-295000Y265100D02*
X-600000Y265100D01*
X-295000Y220000D02*
X-295000Y265100D01*
X1700000Y0D02*
G75*
G02*
X-1700000Y0I-1700000J0D01*
G01*
X-1700000Y0D02*
G75*
G02*
X1700000Y0I1700000J0D01*
G01*
X345000Y-410300D02*
X345000Y-970400D01*
X345000Y-970400D02*
X-470000Y-970400D01*
X378500Y-410300D02*
X345000Y-410300D01*
X378500Y-691000D02*
X378500Y-410300D01*
X380100Y-67500D02*
X380100Y-111000D01*
X380100Y-111000D02*
X1063500Y-111000D01*
X400000Y955100D02*
X400000Y576780D01*
X400000Y576780D02*
X901560Y1078340D01*
X520300Y343520D02*
X520300Y67500D01*
X520300Y67500D02*
X590400Y67500D01*
X590400Y67500D02*
X590400Y-67500D01*
X590400Y-67500D02*
X380100Y-67500D01*
X901560Y1078340D02*
X1078340Y901560D01*
X1063500Y-111000D02*
X1063500Y-691000D01*
X1063500Y-691000D02*
X378500Y-691000D01*
X1078340Y901560D02*
X520300Y343520D01*
D11*
X-505200Y-328400D02*
X-508200Y-334400D01*
X-508200Y214000D02*
X-505200Y220000D01*
D12*
D11*
X-1368000Y-703000D02*
X-1348000Y-723000D01*
X-1348000Y-703000D02*
X-1368000Y-723000D01*
X-1166000Y775000D02*
X-1146000Y755000D01*
X-1146000Y775000D02*
X-1166000Y755000D01*
X-606000Y197000D02*
X-586000Y177000D01*
X-586000Y197000D02*
X-606000Y177000D01*
X-1380000Y525000D02*
G75*
G02*
X-1410000Y525000I-15000J0D01*
G01*
X-1410000Y525000D02*
G75*
G02*
X-1380000Y525000I15000J0D01*
G01*
X-1380000Y365000D02*
G75*
G02*
X-1410000Y365000I-15000J0D01*
G01*
X-1410000Y365000D02*
G75*
G02*
X-1380000Y365000I15000J0D01*
G01*
X-1380000Y205000D02*
G75*
G02*
X-1410000Y205000I-15000J0D01*
G01*
X-1410000Y205000D02*
G75*
G02*
X-1380000Y205000I15000J0D01*
G01*
X-1380000Y45000D02*
G75*
G02*
X-1410000Y45000I-15000J0D01*
G01*
X-1410000Y45000D02*
G75*
G02*
X-1380000Y45000I15000J0D01*
G01*
X-1380000Y-115000D02*
G75*
G02*
X-1410000Y-115000I-15000J0D01*
G01*
X-1410000Y-115000D02*
G75*
G02*
X-1380000Y-115000I15000J0D01*
G01*
X-1380000Y-275000D02*
G75*
G02*
X-1410000Y-275000I-15000J0D01*
G01*
X-1410000Y-275000D02*
G75*
G02*
X-1380000Y-275000I15000J0D01*
G01*
X-1380000Y-435000D02*
G75*
G02*
X-1410000Y-435000I-15000J0D01*
G01*
X-1410000Y-435000D02*
G75*
G02*
X-1380000Y-435000I15000J0D01*
G01*
X-1380000Y-595000D02*
G75*
G02*
X-1410000Y-595000I-15000J0D01*
G01*
X-1410000Y-595000D02*
G75*
G02*
X-1380000Y-595000I15000J0D01*
G01*
X-1220000Y845000D02*
G75*
G02*
X-1250000Y845000I-15000J0D01*
G01*
X-1250000Y845000D02*
G75*
G02*
X-1220000Y845000I15000J0D01*
G01*
X-1220000Y685000D02*
G75*
G02*
X-1250000Y685000I-15000J0D01*
G01*
X-1250000Y685000D02*
G75*
G02*
X-1220000Y685000I15000J0D01*
G01*
X-1220000Y525000D02*
G75*
G02*
X-1250000Y525000I-15000J0D01*
G01*
X-1250000Y525000D02*
G75*
G02*
X-1220000Y525000I15000J0D01*
G01*
X-1220000Y365000D02*
G75*
G02*
X-1250000Y365000I-15000J0D01*
G01*
X-1250000Y365000D02*
G75*
G02*
X-1220000Y365000I15000J0D01*
G01*
X-1220000Y205000D02*
G75*
G02*
X-1250000Y205000I-15000J0D01*
G01*
X-1250000Y205000D02*
G75*
G02*
X-1220000Y205000I15000J0D01*
G01*
X-1220000Y45000D02*
G75*
G02*
X-1250000Y45000I-15000J0D01*
G01*
X-1250000Y45000D02*
G75*
G02*
X-1220000Y45000I15000J0D01*
G01*
X-1220000Y-115000D02*
G75*
G02*
X-1250000Y-115000I-15000J0D01*
G01*
X-1250000Y-115000D02*
G75*
G02*
X-1220000Y-115000I15000J0D01*
G01*
X-1220000Y-275000D02*
G75*
G02*
X-1250000Y-275000I-15000J0D01*
G01*
X-1250000Y-275000D02*
G75*
G02*
X-1220000Y-275000I15000J0D01*
G01*
X-1220000Y-435000D02*
G75*
G02*
X-1250000Y-435000I-15000J0D01*
G01*
X-1250000Y-435000D02*
G75*
G02*
X-1220000Y-435000I15000J0D01*
G01*
X-1220000Y-595000D02*
G75*
G02*
X-1250000Y-595000I-15000J0D01*
G01*
X-1250000Y-595000D02*
G75*
G02*
X-1220000Y-595000I15000J0D01*
G01*
X-1060000Y1005000D02*
G75*
G02*
X-1090000Y1005000I-15000J0D01*
G01*
X-1090000Y1005000D02*
G75*
G02*
X-1060000Y1005000I15000J0D01*
G01*
X-1060000Y845000D02*
G75*
G02*
X-1090000Y845000I-15000J0D01*
G01*
X-1090000Y845000D02*
G75*
G02*
X-1060000Y845000I15000J0D01*
G01*
X-1060000Y685000D02*
G75*
G02*
X-1090000Y685000I-15000J0D01*
G01*
X-1090000Y685000D02*
G75*
G02*
X-1060000Y685000I15000J0D01*
G01*
X-1060000Y525000D02*
G75*
G02*
X-1090000Y525000I-15000J0D01*
G01*
X-1090000Y525000D02*
G75*
G02*
X-1060000Y525000I15000J0D01*
G01*
X-1060000Y365000D02*
G75*
G02*
X-1090000Y365000I-15000J0D01*
G01*
X-1090000Y365000D02*
G75*
G02*
X-1060000Y365000I15000J0D01*
G01*
X-1060000Y205000D02*
G75*
G02*
X-1090000Y205000I-15000J0D01*
G01*
X-1090000Y205000D02*
G75*
G02*
X-1060000Y205000I15000J0D01*
G01*
X-1060000Y45000D02*
G75*
G02*
X-1090000Y45000I-15000J0D01*
G01*
X-1090000Y45000D02*
G75*
G02*
X-1060000Y45000I15000J0D01*
G01*
X-1060000Y-115000D02*
G75*
G02*
X-1090000Y-115000I-15000J0D01*
G01*
X-1090000Y-115000D02*
G75*
G02*
X-1060000Y-115000I15000J0D01*
G01*
X-1060000Y-275000D02*
G75*
G02*
X-1090000Y-275000I-15000J0D01*
G01*
X-1090000Y-275000D02*
G75*
G02*
X-1060000Y-275000I15000J0D01*
G01*
X-1060000Y-435000D02*
G75*
G02*
X-1090000Y-435000I-15000J0D01*
G01*
X-1090000Y-435000D02*
G75*
G02*
X-1060000Y-435000I15000J0D01*
G01*
X-1060000Y-595000D02*
G75*
G02*
X-1090000Y-595000I-15000J0D01*
G01*
X-1090000Y-595000D02*
G75*
G02*
X-1060000Y-595000I15000J0D01*
G01*
X-900000Y1165000D02*
G75*
G02*
X-930000Y1165000I-15000J0D01*
G01*
X-930000Y1165000D02*
G75*
G02*
X-900000Y1165000I15000J0D01*
G01*
X-900000Y1005000D02*
G75*
G02*
X-930000Y1005000I-15000J0D01*
G01*
X-930000Y1005000D02*
G75*
G02*
X-900000Y1005000I15000J0D01*
G01*
X-900000Y845000D02*
G75*
G02*
X-930000Y845000I-15000J0D01*
G01*
X-930000Y845000D02*
G75*
G02*
X-900000Y845000I15000J0D01*
G01*
X-900000Y685000D02*
G75*
G02*
X-930000Y685000I-15000J0D01*
G01*
X-930000Y685000D02*
G75*
G02*
X-900000Y685000I15000J0D01*
G01*
X-900000Y525000D02*
G75*
G02*
X-930000Y525000I-15000J0D01*
G01*
X-930000Y525000D02*
G75*
G02*
X-900000Y525000I15000J0D01*
G01*
X-900000Y365000D02*
G75*
G02*
X-930000Y365000I-15000J0D01*
G01*
X-930000Y365000D02*
G75*
G02*
X-900000Y365000I15000J0D01*
G01*
X-900000Y205000D02*
G75*
G02*
X-930000Y205000I-15000J0D01*
G01*
X-930000Y205000D02*
G75*
G02*
X-900000Y205000I15000J0D01*
G01*
X-900000Y45000D02*
G75*
G02*
X-930000Y45000I-15000J0D01*
G01*
X-930000Y45000D02*
G75*
G02*
X-900000Y45000I15000J0D01*
G01*
X-900000Y-115000D02*
G75*
G02*
X-930000Y-115000I-15000J0D01*
G01*
X-930000Y-115000D02*
G75*
G02*
X-900000Y-115000I15000J0D01*
G01*
X-900000Y-275000D02*
G75*
G02*
X-930000Y-275000I-15000J0D01*
G01*
X-930000Y-275000D02*
G75*
G02*
X-900000Y-275000I15000J0D01*
G01*
X-900000Y-435000D02*
G75*
G02*
X-930000Y-435000I-15000J0D01*
G01*
X-930000Y-435000D02*
G75*
G02*
X-900000Y-435000I15000J0D01*
G01*
X-900000Y-595000D02*
G75*
G02*
X-930000Y-595000I-15000J0D01*
G01*
X-930000Y-595000D02*
G75*
G02*
X-900000Y-595000I15000J0D01*
G01*
X-740000Y1325000D02*
G75*
G02*
X-770000Y1325000I-15000J0D01*
G01*
X-770000Y1325000D02*
G75*
G02*
X-740000Y1325000I15000J0D01*
G01*
X-740000Y1165000D02*
G75*
G02*
X-770000Y1165000I-15000J0D01*
G01*
X-770000Y1165000D02*
G75*
G02*
X-740000Y1165000I15000J0D01*
G01*
X-740000Y1005000D02*
G75*
G02*
X-770000Y1005000I-15000J0D01*
G01*
X-770000Y1005000D02*
G75*
G02*
X-740000Y1005000I15000J0D01*
G01*
X-740000Y845000D02*
G75*
G02*
X-770000Y845000I-15000J0D01*
G01*
X-770000Y845000D02*
G75*
G02*
X-740000Y845000I15000J0D01*
G01*
X-740000Y685000D02*
G75*
G02*
X-770000Y685000I-15000J0D01*
G01*
X-770000Y685000D02*
G75*
G02*
X-740000Y685000I15000J0D01*
G01*
X-740000Y525000D02*
G75*
G02*
X-770000Y525000I-15000J0D01*
G01*
X-770000Y525000D02*
G75*
G02*
X-740000Y525000I15000J0D01*
G01*
X-740000Y365000D02*
G75*
G02*
X-770000Y365000I-15000J0D01*
G01*
X-770000Y365000D02*
G75*
G02*
X-740000Y365000I15000J0D01*
G01*
X-740000Y205000D02*
G75*
G02*
X-770000Y205000I-15000J0D01*
G01*
X-770000Y205000D02*
G75*
G02*
X-740000Y205000I15000J0D01*
G01*
X-740000Y45000D02*
G75*
G02*
X-770000Y45000I-15000J0D01*
G01*
X-770000Y45000D02*
G75*
G02*
X-740000Y45000I15000J0D01*
G01*
X-740000Y-115000D02*
G75*
G02*
X-770000Y-115000I-15000J0D01*
G01*
X-770000Y-115000D02*
G75*
G02*
X-740000Y-115000I15000J0D01*
G01*
X-740000Y-275000D02*
G75*
G02*
X-770000Y-275000I-15000J0D01*
G01*
X-770000Y-275000D02*
G75*
G02*
X-740000Y-275000I15000J0D01*
G01*
X-740000Y-435000D02*
G75*
G02*
X-770000Y-435000I-15000J0D01*
G01*
X-770000Y-435000D02*
G75*
G02*
X-740000Y-435000I15000J0D01*
G01*
X-580000Y1325000D02*
G75*
G02*
X-610000Y1325000I-15000J0D01*
G01*
X-610000Y1325000D02*
G75*
G02*
X-580000Y1325000I15000J0D01*
G01*
X-580000Y1165000D02*
G75*
G02*
X-610000Y1165000I-15000J0D01*
G01*
X-610000Y1165000D02*
G75*
G02*
X-580000Y1165000I15000J0D01*
G01*
X-580000Y45000D02*
G75*
G02*
X-610000Y45000I-15000J0D01*
G01*
X-610000Y45000D02*
G75*
G02*
X-580000Y45000I15000J0D01*
G01*
X-580000Y-115000D02*
G75*
G02*
X-610000Y-115000I-15000J0D01*
G01*
X-610000Y-115000D02*
G75*
G02*
X-580000Y-115000I15000J0D01*
G01*
X-580000Y-275000D02*
G75*
G02*
X-610000Y-275000I-15000J0D01*
G01*
X-610000Y-275000D02*
G75*
G02*
X-580000Y-275000I15000J0D01*
G01*
X-580000Y-915000D02*
G75*
G02*
X-610000Y-915000I-15000J0D01*
G01*
X-610000Y-915000D02*
G75*
G02*
X-580000Y-915000I15000J0D01*
G01*
X-580000Y-1075000D02*
G75*
G02*
X-610000Y-1075000I-15000J0D01*
G01*
X-610000Y-1075000D02*
G75*
G02*
X-580000Y-1075000I15000J0D01*
G01*
X-580000Y-1235000D02*
G75*
G02*
X-610000Y-1235000I-15000J0D01*
G01*
X-610000Y-1235000D02*
G75*
G02*
X-580000Y-1235000I15000J0D01*
G01*
X-580000Y-1395000D02*
G75*
G02*
X-610000Y-1395000I-15000J0D01*
G01*
X-610000Y-1395000D02*
G75*
G02*
X-580000Y-1395000I15000J0D01*
G01*
X-420000Y1325000D02*
G75*
G02*
X-450000Y1325000I-15000J0D01*
G01*
X-450000Y1325000D02*
G75*
G02*
X-420000Y1325000I15000J0D01*
G01*
X-420000Y1165000D02*
G75*
G02*
X-450000Y1165000I-15000J0D01*
G01*
X-450000Y1165000D02*
G75*
G02*
X-420000Y1165000I15000J0D01*
G01*
X-420000Y-1075000D02*
G75*
G02*
X-450000Y-1075000I-15000J0D01*
G01*
X-450000Y-1075000D02*
G75*
G02*
X-420000Y-1075000I15000J0D01*
G01*
X-420000Y-1235000D02*
G75*
G02*
X-450000Y-1235000I-15000J0D01*
G01*
X-450000Y-1235000D02*
G75*
G02*
X-420000Y-1235000I15000J0D01*
G01*
X-420000Y-1395000D02*
G75*
G02*
X-450000Y-1395000I-15000J0D01*
G01*
X-450000Y-1395000D02*
G75*
G02*
X-420000Y-1395000I15000J0D01*
G01*
X-260000Y1485000D02*
G75*
G02*
X-290000Y1485000I-15000J0D01*
G01*
X-290000Y1485000D02*
G75*
G02*
X-260000Y1485000I15000J0D01*
G01*
X-260000Y1325000D02*
G75*
G02*
X-290000Y1325000I-15000J0D01*
G01*
X-290000Y1325000D02*
G75*
G02*
X-260000Y1325000I15000J0D01*
G01*
X-260000Y1165000D02*
G75*
G02*
X-290000Y1165000I-15000J0D01*
G01*
X-290000Y1165000D02*
G75*
G02*
X-260000Y1165000I15000J0D01*
G01*
X-260000Y-1075000D02*
G75*
G02*
X-290000Y-1075000I-15000J0D01*
G01*
X-290000Y-1075000D02*
G75*
G02*
X-260000Y-1075000I15000J0D01*
G01*
X-260000Y-1235000D02*
G75*
G02*
X-290000Y-1235000I-15000J0D01*
G01*
X-290000Y-1235000D02*
G75*
G02*
X-260000Y-1235000I15000J0D01*
G01*
X-260000Y-1395000D02*
G75*
G02*
X-290000Y-1395000I-15000J0D01*
G01*
X-290000Y-1395000D02*
G75*
G02*
X-260000Y-1395000I15000J0D01*
G01*
X-100000Y1485000D02*
G75*
G02*
X-130000Y1485000I-15000J0D01*
G01*
X-130000Y1485000D02*
G75*
G02*
X-100000Y1485000I15000J0D01*
G01*
X-100000Y1325000D02*
G75*
G02*
X-130000Y1325000I-15000J0D01*
G01*
X-130000Y1325000D02*
G75*
G02*
X-100000Y1325000I15000J0D01*
G01*
X-100000Y1165000D02*
G75*
G02*
X-130000Y1165000I-15000J0D01*
G01*
X-130000Y1165000D02*
G75*
G02*
X-100000Y1165000I15000J0D01*
G01*
X-100000Y-1075000D02*
G75*
G02*
X-130000Y-1075000I-15000J0D01*
G01*
X-130000Y-1075000D02*
G75*
G02*
X-100000Y-1075000I15000J0D01*
G01*
X-100000Y-1235000D02*
G75*
G02*
X-130000Y-1235000I-15000J0D01*
G01*
X-130000Y-1235000D02*
G75*
G02*
X-100000Y-1235000I15000J0D01*
G01*
X-100000Y-1395000D02*
G75*
G02*
X-130000Y-1395000I-15000J0D01*
G01*
X-130000Y-1395000D02*
G75*
G02*
X-100000Y-1395000I15000J0D01*
G01*
X60000Y1485000D02*
G75*
G02*
X30000Y1485000I-15000J0D01*
G01*
X30000Y1485000D02*
G75*
G02*
X60000Y1485000I15000J0D01*
G01*
X60000Y1325000D02*
G75*
G02*
X30000Y1325000I-15000J0D01*
G01*
X30000Y1325000D02*
G75*
G02*
X60000Y1325000I15000J0D01*
G01*
X60000Y1165000D02*
G75*
G02*
X30000Y1165000I-15000J0D01*
G01*
X30000Y1165000D02*
G75*
G02*
X60000Y1165000I15000J0D01*
G01*
X60000Y-1075000D02*
G75*
G02*
X30000Y-1075000I-15000J0D01*
G01*
X30000Y-1075000D02*
G75*
G02*
X60000Y-1075000I15000J0D01*
G01*
X60000Y-1235000D02*
G75*
G02*
X30000Y-1235000I-15000J0D01*
G01*
X30000Y-1235000D02*
G75*
G02*
X60000Y-1235000I15000J0D01*
G01*
X60000Y-1395000D02*
G75*
G02*
X30000Y-1395000I-15000J0D01*
G01*
X30000Y-1395000D02*
G75*
G02*
X60000Y-1395000I15000J0D01*
G01*
X220000Y1485000D02*
G75*
G02*
X190000Y1485000I-15000J0D01*
G01*
X190000Y1485000D02*
G75*
G02*
X220000Y1485000I15000J0D01*
G01*
X220000Y1325000D02*
G75*
G02*
X190000Y1325000I-15000J0D01*
G01*
X190000Y1325000D02*
G75*
G02*
X220000Y1325000I15000J0D01*
G01*
X220000Y1165000D02*
G75*
G02*
X190000Y1165000I-15000J0D01*
G01*
X190000Y1165000D02*
G75*
G02*
X220000Y1165000I15000J0D01*
G01*
X220000Y-1075000D02*
G75*
G02*
X190000Y-1075000I-15000J0D01*
G01*
X190000Y-1075000D02*
G75*
G02*
X220000Y-1075000I15000J0D01*
G01*
X220000Y-1235000D02*
G75*
G02*
X190000Y-1235000I-15000J0D01*
G01*
X190000Y-1235000D02*
G75*
G02*
X220000Y-1235000I15000J0D01*
G01*
X220000Y-1395000D02*
G75*
G02*
X190000Y-1395000I-15000J0D01*
G01*
X190000Y-1395000D02*
G75*
G02*
X220000Y-1395000I15000J0D01*
G01*
X380000Y1485000D02*
G75*
G02*
X350000Y1485000I-15000J0D01*
G01*
X350000Y1485000D02*
G75*
G02*
X380000Y1485000I15000J0D01*
G01*
X380000Y1325000D02*
G75*
G02*
X350000Y1325000I-15000J0D01*
G01*
X350000Y1325000D02*
G75*
G02*
X380000Y1325000I15000J0D01*
G01*
X380000Y1165000D02*
G75*
G02*
X350000Y1165000I-15000J0D01*
G01*
X350000Y1165000D02*
G75*
G02*
X380000Y1165000I15000J0D01*
G01*
X380000Y-1075000D02*
G75*
G02*
X350000Y-1075000I-15000J0D01*
G01*
X350000Y-1075000D02*
G75*
G02*
X380000Y-1075000I15000J0D01*
G01*
X380000Y-1235000D02*
G75*
G02*
X350000Y-1235000I-15000J0D01*
G01*
X350000Y-1235000D02*
G75*
G02*
X380000Y-1235000I15000J0D01*
G01*
X380000Y-1395000D02*
G75*
G02*
X350000Y-1395000I-15000J0D01*
G01*
X350000Y-1395000D02*
G75*
G02*
X380000Y-1395000I15000J0D01*
G01*
X540000Y1325000D02*
G75*
G02*
X510000Y1325000I-15000J0D01*
G01*
X510000Y1325000D02*
G75*
G02*
X540000Y1325000I15000J0D01*
G01*
X540000Y1165000D02*
G75*
G02*
X510000Y1165000I-15000J0D01*
G01*
X510000Y1165000D02*
G75*
G02*
X540000Y1165000I15000J0D01*
G01*
X540000Y1005000D02*
G75*
G02*
X510000Y1005000I-15000J0D01*
G01*
X510000Y1005000D02*
G75*
G02*
X540000Y1005000I15000J0D01*
G01*
X540000Y845000D02*
G75*
G02*
X510000Y845000I-15000J0D01*
G01*
X510000Y845000D02*
G75*
G02*
X540000Y845000I15000J0D01*
G01*
X540000Y-915000D02*
G75*
G02*
X510000Y-915000I-15000J0D01*
G01*
X510000Y-915000D02*
G75*
G02*
X540000Y-915000I15000J0D01*
G01*
X540000Y-1075000D02*
G75*
G02*
X510000Y-1075000I-15000J0D01*
G01*
X510000Y-1075000D02*
G75*
G02*
X540000Y-1075000I15000J0D01*
G01*
X540000Y-1235000D02*
G75*
G02*
X510000Y-1235000I-15000J0D01*
G01*
X510000Y-1235000D02*
G75*
G02*
X540000Y-1235000I15000J0D01*
G01*
X540000Y-1395000D02*
G75*
G02*
X510000Y-1395000I-15000J0D01*
G01*
X510000Y-1395000D02*
G75*
G02*
X540000Y-1395000I15000J0D01*
G01*
X700000Y1325000D02*
G75*
G02*
X670000Y1325000I-15000J0D01*
G01*
X670000Y1325000D02*
G75*
G02*
X700000Y1325000I15000J0D01*
G01*
X700000Y365000D02*
G75*
G02*
X670000Y365000I-15000J0D01*
G01*
X670000Y365000D02*
G75*
G02*
X700000Y365000I15000J0D01*
G01*
X700000Y205000D02*
G75*
G02*
X670000Y205000I-15000J0D01*
G01*
X670000Y205000D02*
G75*
G02*
X700000Y205000I15000J0D01*
G01*
X700000Y45000D02*
G75*
G02*
X670000Y45000I-15000J0D01*
G01*
X670000Y45000D02*
G75*
G02*
X700000Y45000I15000J0D01*
G01*
X700000Y-915000D02*
G75*
G02*
X670000Y-915000I-15000J0D01*
G01*
X670000Y-915000D02*
G75*
G02*
X700000Y-915000I15000J0D01*
G01*
X700000Y-1075000D02*
G75*
G02*
X670000Y-1075000I-15000J0D01*
G01*
X670000Y-1075000D02*
G75*
G02*
X700000Y-1075000I15000J0D01*
G01*
X700000Y-1235000D02*
G75*
G02*
X670000Y-1235000I-15000J0D01*
G01*
X670000Y-1235000D02*
G75*
G02*
X700000Y-1235000I15000J0D01*
G01*
X860000Y525000D02*
G75*
G02*
X830000Y525000I-15000J0D01*
G01*
X830000Y525000D02*
G75*
G02*
X860000Y525000I15000J0D01*
G01*
X860000Y365000D02*
G75*
G02*
X830000Y365000I-15000J0D01*
G01*
X830000Y365000D02*
G75*
G02*
X860000Y365000I15000J0D01*
G01*
X860000Y205000D02*
G75*
G02*
X830000Y205000I-15000J0D01*
G01*
X830000Y205000D02*
G75*
G02*
X860000Y205000I15000J0D01*
G01*
X860000Y45000D02*
G75*
G02*
X830000Y45000I-15000J0D01*
G01*
X830000Y45000D02*
G75*
G02*
X860000Y45000I15000J0D01*
G01*
X860000Y-915000D02*
G75*
G02*
X830000Y-915000I-15000J0D01*
G01*
X830000Y-915000D02*
G75*
G02*
X860000Y-915000I15000J0D01*
G01*
X860000Y-1075000D02*
G75*
G02*
X830000Y-1075000I-15000J0D01*
G01*
X830000Y-1075000D02*
G75*
G02*
X860000Y-1075000I15000J0D01*
G01*
X860000Y-1235000D02*
G75*
G02*
X830000Y-1235000I-15000J0D01*
G01*
X830000Y-1235000D02*
G75*
G02*
X860000Y-1235000I15000J0D01*
G01*
X1020000Y525000D02*
G75*
G02*
X990000Y525000I-15000J0D01*
G01*
X990000Y525000D02*
G75*
G02*
X1020000Y525000I15000J0D01*
G01*
X1020000Y365000D02*
G75*
G02*
X990000Y365000I-15000J0D01*
G01*
X990000Y365000D02*
G75*
G02*
X1020000Y365000I15000J0D01*
G01*
X1020000Y205000D02*
G75*
G02*
X990000Y205000I-15000J0D01*
G01*
X990000Y205000D02*
G75*
G02*
X1020000Y205000I15000J0D01*
G01*
X1020000Y45000D02*
G75*
G02*
X990000Y45000I-15000J0D01*
G01*
X990000Y45000D02*
G75*
G02*
X1020000Y45000I15000J0D01*
G01*
X1020000Y-915000D02*
G75*
G02*
X990000Y-915000I-15000J0D01*
G01*
X990000Y-915000D02*
G75*
G02*
X1020000Y-915000I15000J0D01*
G01*
X1020000Y-1075000D02*
G75*
G02*
X990000Y-1075000I-15000J0D01*
G01*
X990000Y-1075000D02*
G75*
G02*
X1020000Y-1075000I15000J0D01*
G01*
X1180000Y525000D02*
G75*
G02*
X1150000Y525000I-15000J0D01*
G01*
X1150000Y525000D02*
G75*
G02*
X1180000Y525000I15000J0D01*
G01*
X1180000Y365000D02*
G75*
G02*
X1150000Y365000I-15000J0D01*
G01*
X1150000Y365000D02*
G75*
G02*
X1180000Y365000I15000J0D01*
G01*
X1180000Y205000D02*
G75*
G02*
X1150000Y205000I-15000J0D01*
G01*
X1150000Y205000D02*
G75*
G02*
X1180000Y205000I15000J0D01*
G01*
X1180000Y45000D02*
G75*
G02*
X1150000Y45000I-15000J0D01*
G01*
X1150000Y45000D02*
G75*
G02*
X1180000Y45000I15000J0D01*
G01*
X1180000Y-115000D02*
G75*
G02*
X1150000Y-115000I-15000J0D01*
G01*
X1150000Y-115000D02*
G75*
G02*
X1180000Y-115000I15000J0D01*
G01*
X1180000Y-275000D02*
G75*
G02*
X1150000Y-275000I-15000J0D01*
G01*
X1150000Y-275000D02*
G75*
G02*
X1180000Y-275000I15000J0D01*
G01*
X1180000Y-435000D02*
G75*
G02*
X1150000Y-435000I-15000J0D01*
G01*
X1150000Y-435000D02*
G75*
G02*
X1180000Y-435000I15000J0D01*
G01*
X1180000Y-595000D02*
G75*
G02*
X1150000Y-595000I-15000J0D01*
G01*
X1150000Y-595000D02*
G75*
G02*
X1180000Y-595000I15000J0D01*
G01*
X1180000Y-755000D02*
G75*
G02*
X1150000Y-755000I-15000J0D01*
G01*
X1150000Y-755000D02*
G75*
G02*
X1180000Y-755000I15000J0D01*
G01*
X1180000Y-915000D02*
G75*
G02*
X1150000Y-915000I-15000J0D01*
G01*
X1150000Y-915000D02*
G75*
G02*
X1180000Y-915000I15000J0D01*
G01*
X1340000Y685000D02*
G75*
G02*
X1310000Y685000I-15000J0D01*
G01*
X1310000Y685000D02*
G75*
G02*
X1340000Y685000I15000J0D01*
G01*
X1340000Y525000D02*
G75*
G02*
X1310000Y525000I-15000J0D01*
G01*
X1310000Y525000D02*
G75*
G02*
X1340000Y525000I15000J0D01*
G01*
X1340000Y365000D02*
G75*
G02*
X1310000Y365000I-15000J0D01*
G01*
X1310000Y365000D02*
G75*
G02*
X1340000Y365000I15000J0D01*
G01*
X1340000Y205000D02*
G75*
G02*
X1310000Y205000I-15000J0D01*
G01*
X1310000Y205000D02*
G75*
G02*
X1340000Y205000I15000J0D01*
G01*
X1340000Y45000D02*
G75*
G02*
X1310000Y45000I-15000J0D01*
G01*
X1310000Y45000D02*
G75*
G02*
X1340000Y45000I15000J0D01*
G01*
X1340000Y-115000D02*
G75*
G02*
X1310000Y-115000I-15000J0D01*
G01*
X1310000Y-115000D02*
G75*
G02*
X1340000Y-115000I15000J0D01*
G01*
X1340000Y-275000D02*
G75*
G02*
X1310000Y-275000I-15000J0D01*
G01*
X1310000Y-275000D02*
G75*
G02*
X1340000Y-275000I15000J0D01*
G01*
X1340000Y-435000D02*
G75*
G02*
X1310000Y-435000I-15000J0D01*
G01*
X1310000Y-435000D02*
G75*
G02*
X1340000Y-435000I15000J0D01*
G01*
X1340000Y-595000D02*
G75*
G02*
X1310000Y-595000I-15000J0D01*
G01*
X1310000Y-595000D02*
G75*
G02*
X1340000Y-595000I15000J0D01*
G01*
X1340000Y-755000D02*
G75*
G02*
X1310000Y-755000I-15000J0D01*
G01*
X1310000Y-755000D02*
G75*
G02*
X1340000Y-755000I15000J0D01*
G01*
X1500000Y365000D02*
G75*
G02*
X1470000Y365000I-15000J0D01*
G01*
X1470000Y365000D02*
G75*
G02*
X1500000Y365000I15000J0D01*
G01*
X1500000Y205000D02*
G75*
G02*
X1470000Y205000I-15000J0D01*
G01*
X1470000Y205000D02*
G75*
G02*
X1500000Y205000I15000J0D01*
G01*
X1500000Y45000D02*
G75*
G02*
X1470000Y45000I-15000J0D01*
G01*
X1470000Y45000D02*
G75*
G02*
X1500000Y45000I15000J0D01*
G01*
X1500000Y-115000D02*
G75*
G02*
X1470000Y-115000I-15000J0D01*
G01*
X1470000Y-115000D02*
G75*
G02*
X1500000Y-115000I15000J0D01*
G01*
X1500000Y-275000D02*
G75*
G02*
X1470000Y-275000I-15000J0D01*
G01*
X1470000Y-275000D02*
G75*
G02*
X1500000Y-275000I15000J0D01*
G01*
D12*
X-1446723Y-2018984D02*
X-1446723Y-1818984D01*
X-1446723Y-1818984D02*
X-1399104Y-1818984D01*
X-1399104Y-1818984D02*
X-1370533Y-1828508D01*
X-1370533Y-1828508D02*
X-1351485Y-1847555D01*
X-1351485Y-1847555D02*
X-1341961Y-1866603D01*
X-1341961Y-1866603D02*
X-1332437Y-1904698D01*
X-1332437Y-1904698D02*
X-1332437Y-1933269D01*
X-1332437Y-1933269D02*
X-1341961Y-1971365D01*
X-1341961Y-1971365D02*
X-1351485Y-1990412D01*
X-1351485Y-1990412D02*
X-1370533Y-2009460D01*
X-1370533Y-2009460D02*
X-1399104Y-2018984D01*
X-1399104Y-2018984D02*
X-1446723Y-2018984D01*
X-1246723Y-2018984D02*
X-1246723Y-1885650D01*
X-1246723Y-1923746D02*
X-1237199Y-1904698D01*
X-1237199Y-1904698D02*
X-1227676Y-1895174D01*
X-1227676Y-1895174D02*
X-1208628Y-1885650D01*
X-1208628Y-1885650D02*
X-1189580Y-1885650D01*
X-1122914Y-2018984D02*
X-1122914Y-1885650D01*
X-1122914Y-1818984D02*
X-1132437Y-1828508D01*
X-1132437Y-1828508D02*
X-1122914Y-1838031D01*
X-1122914Y-1838031D02*
X-1113390Y-1828508D01*
X-1113390Y-1828508D02*
X-1122914Y-1818984D01*
X-1122914Y-1818984D02*
X-1122914Y-1838031D01*
X-999104Y-2018984D02*
X-1018152Y-2009460D01*
X-1018152Y-2009460D02*
X-1027675Y-1990412D01*
X-1027675Y-1990412D02*
X-1027675Y-1818984D01*
X-894342Y-2018984D02*
X-913390Y-2009460D01*
X-913390Y-2009460D02*
X-922914Y-1990412D01*
X-922914Y-1990412D02*
X-922914Y-1818984D01*
X-665771Y-2018984D02*
X-665771Y-1818984D01*
X-665771Y-1818984D02*
X-599104Y-1961841D01*
X-599104Y-1961841D02*
X-532437Y-1818984D01*
X-532437Y-1818984D02*
X-532437Y-2018984D01*
X-351485Y-2018984D02*
X-351485Y-1914222D01*
X-351485Y-1914222D02*
X-361009Y-1895174D01*
X-361009Y-1895174D02*
X-380056Y-1885650D01*
X-380056Y-1885650D02*
X-418152Y-1885650D01*
X-418152Y-1885650D02*
X-437199Y-1895174D01*
X-351485Y-2009460D02*
X-370533Y-2018984D01*
X-370533Y-2018984D02*
X-418152Y-2018984D01*
X-418152Y-2018984D02*
X-437199Y-2009460D01*
X-437199Y-2009460D02*
X-446723Y-1990412D01*
X-446723Y-1990412D02*
X-446723Y-1971365D01*
X-446723Y-1971365D02*
X-437199Y-1952317D01*
X-437199Y-1952317D02*
X-418152Y-1942793D01*
X-418152Y-1942793D02*
X-370533Y-1942793D01*
X-370533Y-1942793D02*
X-351485Y-1933269D01*
X-256247Y-1885650D02*
X-256247Y-2085650D01*
X-256247Y-1895174D02*
X-237199Y-1885650D01*
X-237199Y-1885650D02*
X-199104Y-1885650D01*
X-199104Y-1885650D02*
X-180056Y-1895174D01*
X-180056Y-1895174D02*
X-170533Y-1904698D01*
X-170533Y-1904698D02*
X-161009Y-1923746D01*
X-161009Y-1923746D02*
X-161009Y-1980888D01*
X-161009Y-1980888D02*
X-170533Y-1999936D01*
X-170533Y-1999936D02*
X-180056Y-2009460D01*
X-180056Y-2009460D02*
X-199104Y-2018984D01*
X-199104Y-2018984D02*
X-237199Y-2018984D01*
X-237199Y-2018984D02*
X-256247Y-2009460D01*
X-75295Y-1999936D02*
X-65771Y-2009460D01*
X-65771Y-2009460D02*
X-75295Y-2018984D01*
X-75295Y-2018984D02*
X-84818Y-2009460D01*
X-84818Y-2009460D02*
X-75295Y-1999936D01*
X-75295Y-1999936D02*
X-75295Y-2018984D01*
X-75295Y-1895174D02*
X-65771Y-1904698D01*
X-65771Y-1904698D02*
X-75295Y-1914222D01*
X-75295Y-1914222D02*
X-84818Y-1904698D01*
X-84818Y-1904698D02*
X-75295Y-1895174D01*
X-75295Y-1895174D02*
X-75295Y-1914222D01*
D11*
X-1727500Y-2337500D02*
X-1707500Y-2357500D01*
X-1707500Y-2337500D02*
X-1727500Y-2357500D01*
D12*
X-1408628Y-2238984D02*
X-1389580Y-2238984D01*
X-1389580Y-2238984D02*
X-1370533Y-2248508D01*
X-1370533Y-2248508D02*
X-1361009Y-2258031D01*
X-1361009Y-2258031D02*
X-1351485Y-2277079D01*
X-1351485Y-2277079D02*
X-1341961Y-2315174D01*
X-1341961Y-2315174D02*
X-1341961Y-2362793D01*
X-1341961Y-2362793D02*
X-1351485Y-2400889D01*
X-1351485Y-2400889D02*
X-1361009Y-2419936D01*
X-1361009Y-2419936D02*
X-1370533Y-2429460D01*
X-1370533Y-2429460D02*
X-1389580Y-2438984D01*
X-1389580Y-2438984D02*
X-1408628Y-2438984D01*
X-1408628Y-2438984D02*
X-1427675Y-2429460D01*
X-1427675Y-2429460D02*
X-1437199Y-2419936D01*
X-1437199Y-2419936D02*
X-1446723Y-2400889D01*
X-1446723Y-2400889D02*
X-1456247Y-2362793D01*
X-1456247Y-2362793D02*
X-1456247Y-2315174D01*
X-1456247Y-2315174D02*
X-1446723Y-2277079D01*
X-1446723Y-2277079D02*
X-1437199Y-2258031D01*
X-1437199Y-2258031D02*
X-1427675Y-2248508D01*
X-1427675Y-2248508D02*
X-1408628Y-2238984D01*
X-1256247Y-2419936D02*
X-1246723Y-2429460D01*
X-1246723Y-2429460D02*
X-1256247Y-2438984D01*
X-1256247Y-2438984D02*
X-1265771Y-2429460D01*
X-1265771Y-2429460D02*
X-1256247Y-2419936D01*
X-1256247Y-2419936D02*
X-1256247Y-2438984D01*
X-1170533Y-2258031D02*
X-1161009Y-2248508D01*
X-1161009Y-2248508D02*
X-1141961Y-2238984D01*
X-1141961Y-2238984D02*
X-1094342Y-2238984D01*
X-1094342Y-2238984D02*
X-1075295Y-2248508D01*
X-1075295Y-2248508D02*
X-1065771Y-2258031D01*
X-1065771Y-2258031D02*
X-1056247Y-2277079D01*
X-1056247Y-2277079D02*
X-1056247Y-2296127D01*
X-1056247Y-2296127D02*
X-1065771Y-2324698D01*
X-1065771Y-2324698D02*
X-1180056Y-2438984D01*
X-1180056Y-2438984D02*
X-1056247Y-2438984D01*
X-932437Y-2238984D02*
X-913390Y-2238984D01*
X-913390Y-2238984D02*
X-894342Y-2248508D01*
X-894342Y-2248508D02*
X-884818Y-2258031D01*
X-884818Y-2258031D02*
X-875294Y-2277079D01*
X-875294Y-2277079D02*
X-865771Y-2315174D01*
X-865771Y-2315174D02*
X-865771Y-2362793D01*
X-865771Y-2362793D02*
X-875294Y-2400889D01*
X-875294Y-2400889D02*
X-884818Y-2419936D01*
X-884818Y-2419936D02*
X-894342Y-2429460D01*
X-894342Y-2429460D02*
X-913390Y-2438984D01*
X-913390Y-2438984D02*
X-932437Y-2438984D01*
X-932437Y-2438984D02*
X-951485Y-2429460D01*
X-951485Y-2429460D02*
X-961009Y-2419936D01*
X-961009Y-2419936D02*
X-970533Y-2400889D01*
X-970533Y-2400889D02*
X-980056Y-2362793D01*
X-980056Y-2362793D02*
X-980056Y-2315174D01*
X-980056Y-2315174D02*
X-970533Y-2277079D01*
X-970533Y-2277079D02*
X-961009Y-2258031D01*
X-961009Y-2258031D02*
X-951485Y-2248508D01*
X-951485Y-2248508D02*
X-932437Y-2238984D01*
X-741961Y-2238984D02*
X-722913Y-2238984D01*
X-722913Y-2238984D02*
X-703866Y-2248508D01*
X-703866Y-2248508D02*
X-694342Y-2258031D01*
X-694342Y-2258031D02*
X-684818Y-2277079D01*
X-684818Y-2277079D02*
X-675295Y-2315174D01*
X-675295Y-2315174D02*
X-675295Y-2362793D01*
X-675295Y-2362793D02*
X-684818Y-2400889D01*
X-684818Y-2400889D02*
X-694342Y-2419936D01*
X-694342Y-2419936D02*
X-703866Y-2429460D01*
X-703866Y-2429460D02*
X-722913Y-2438984D01*
X-722913Y-2438984D02*
X-741961Y-2438984D01*
X-741961Y-2438984D02*
X-761009Y-2429460D01*
X-761009Y-2429460D02*
X-770533Y-2419936D01*
X-770533Y-2419936D02*
X-780056Y-2400889D01*
X-780056Y-2400889D02*
X-789580Y-2362793D01*
X-789580Y-2362793D02*
X-789580Y-2315174D01*
X-789580Y-2315174D02*
X-780056Y-2277079D01*
X-780056Y-2277079D02*
X-770533Y-2258031D01*
X-770533Y-2258031D02*
X-761009Y-2248508D01*
X-761009Y-2248508D02*
X-741961Y-2238984D01*
X-589580Y-2438984D02*
X-589580Y-2305650D01*
X-589580Y-2324698D02*
X-580056Y-2315174D01*
X-580056Y-2315174D02*
X-561009Y-2305650D01*
X-561009Y-2305650D02*
X-532437Y-2305650D01*
X-532437Y-2305650D02*
X-513390Y-2315174D01*
X-513390Y-2315174D02*
X-503866Y-2334222D01*
X-503866Y-2334222D02*
X-503866Y-2438984D01*
X-503866Y-2334222D02*
X-494342Y-2315174D01*
X-494342Y-2315174D02*
X-475294Y-2305650D01*
X-475294Y-2305650D02*
X-446723Y-2305650D01*
X-446723Y-2305650D02*
X-427675Y-2315174D01*
X-427675Y-2315174D02*
X-418152Y-2334222D01*
X-418152Y-2334222D02*
X-418152Y-2438984D01*
X-322914Y-2438984D02*
X-322914Y-2305650D01*
X-322914Y-2324698D02*
X-313390Y-2315174D01*
X-313390Y-2315174D02*
X-294342Y-2305650D01*
X-294342Y-2305650D02*
X-265771Y-2305650D01*
X-265771Y-2305650D02*
X-246723Y-2315174D01*
X-246723Y-2315174D02*
X-237199Y-2334222D01*
X-237199Y-2334222D02*
X-237199Y-2438984D01*
X-237199Y-2334222D02*
X-227675Y-2315174D01*
X-227675Y-2315174D02*
X-208628Y-2305650D01*
X-208628Y-2305650D02*
X-180056Y-2305650D01*
X-180056Y-2305650D02*
X-161009Y-2315174D01*
X-161009Y-2315174D02*
X-151485Y-2334222D01*
X-151485Y-2334222D02*
X-151485Y-2438984D01*
X238991Y-2229460D02*
X67563Y-2486603D01*
X496134Y-2238984D02*
X515182Y-2238984D01*
X515182Y-2238984D02*
X534229Y-2248508D01*
X534229Y-2248508D02*
X543753Y-2258031D01*
X543753Y-2258031D02*
X553277Y-2277079D01*
X553277Y-2277079D02*
X562801Y-2315174D01*
X562801Y-2315174D02*
X562801Y-2362793D01*
X562801Y-2362793D02*
X553277Y-2400889D01*
X553277Y-2400889D02*
X543753Y-2419936D01*
X543753Y-2419936D02*
X534229Y-2429460D01*
X534229Y-2429460D02*
X515182Y-2438984D01*
X515182Y-2438984D02*
X496134Y-2438984D01*
X496134Y-2438984D02*
X477086Y-2429460D01*
X477086Y-2429460D02*
X467563Y-2419936D01*
X467563Y-2419936D02*
X458039Y-2400889D01*
X458039Y-2400889D02*
X448515Y-2362793D01*
X448515Y-2362793D02*
X448515Y-2315174D01*
X448515Y-2315174D02*
X458039Y-2277079D01*
X458039Y-2277079D02*
X467563Y-2258031D01*
X467563Y-2258031D02*
X477086Y-2248508D01*
X477086Y-2248508D02*
X496134Y-2238984D01*
X648515Y-2419936D02*
X658039Y-2429460D01*
X658039Y-2429460D02*
X648515Y-2438984D01*
X648515Y-2438984D02*
X638991Y-2429460D01*
X638991Y-2429460D02*
X648515Y-2419936D01*
X648515Y-2419936D02*
X648515Y-2438984D01*
X781848Y-2238984D02*
X800896Y-2238984D01*
X800896Y-2238984D02*
X819944Y-2248508D01*
X819944Y-2248508D02*
X829467Y-2258031D01*
X829467Y-2258031D02*
X838991Y-2277079D01*
X838991Y-2277079D02*
X848515Y-2315174D01*
X848515Y-2315174D02*
X848515Y-2362793D01*
X848515Y-2362793D02*
X838991Y-2400889D01*
X838991Y-2400889D02*
X829467Y-2419936D01*
X829467Y-2419936D02*
X819944Y-2429460D01*
X819944Y-2429460D02*
X800896Y-2438984D01*
X800896Y-2438984D02*
X781848Y-2438984D01*
X781848Y-2438984D02*
X762801Y-2429460D01*
X762801Y-2429460D02*
X753277Y-2419936D01*
X753277Y-2419936D02*
X743753Y-2400889D01*
X743753Y-2400889D02*
X734229Y-2362793D01*
X734229Y-2362793D02*
X734229Y-2315174D01*
X734229Y-2315174D02*
X743753Y-2277079D01*
X743753Y-2277079D02*
X753277Y-2258031D01*
X753277Y-2258031D02*
X762801Y-2248508D01*
X762801Y-2248508D02*
X781848Y-2238984D01*
X972325Y-2238984D02*
X991372Y-2238984D01*
X991372Y-2238984D02*
X1010420Y-2248508D01*
X1010420Y-2248508D02*
X1019944Y-2258031D01*
X1019944Y-2258031D02*
X1029467Y-2277079D01*
X1029467Y-2277079D02*
X1038991Y-2315174D01*
X1038991Y-2315174D02*
X1038991Y-2362793D01*
X1038991Y-2362793D02*
X1029467Y-2400889D01*
X1029467Y-2400889D02*
X1019944Y-2419936D01*
X1019944Y-2419936D02*
X1010420Y-2429460D01*
X1010420Y-2429460D02*
X991372Y-2438984D01*
X991372Y-2438984D02*
X972325Y-2438984D01*
X972325Y-2438984D02*
X953277Y-2429460D01*
X953277Y-2429460D02*
X943753Y-2419936D01*
X943753Y-2419936D02*
X934229Y-2400889D01*
X934229Y-2400889D02*
X924706Y-2362793D01*
X924706Y-2362793D02*
X924706Y-2315174D01*
X924706Y-2315174D02*
X934229Y-2277079D01*
X934229Y-2277079D02*
X943753Y-2258031D01*
X943753Y-2258031D02*
X953277Y-2248508D01*
X953277Y-2248508D02*
X972325Y-2238984D01*
X1105658Y-2238984D02*
X1238991Y-2238984D01*
X1238991Y-2238984D02*
X1153277Y-2438984D01*
X1324706Y-2438984D02*
X1362801Y-2438984D01*
X1362801Y-2438984D02*
X1381849Y-2429460D01*
X1381849Y-2429460D02*
X1391372Y-2419936D01*
X1391372Y-2419936D02*
X1410420Y-2391365D01*
X1410420Y-2391365D02*
X1419944Y-2353270D01*
X1419944Y-2353270D02*
X1419944Y-2277079D01*
X1419944Y-2277079D02*
X1410420Y-2258031D01*
X1410420Y-2258031D02*
X1400896Y-2248508D01*
X1400896Y-2248508D02*
X1381849Y-2238984D01*
X1381849Y-2238984D02*
X1343753Y-2238984D01*
X1343753Y-2238984D02*
X1324706Y-2248508D01*
X1324706Y-2248508D02*
X1315182Y-2258031D01*
X1315182Y-2258031D02*
X1305658Y-2277079D01*
X1305658Y-2277079D02*
X1305658Y-2324698D01*
X1305658Y-2324698D02*
X1315182Y-2343746D01*
X1315182Y-2343746D02*
X1324706Y-2353270D01*
X1324706Y-2353270D02*
X1343753Y-2362793D01*
X1343753Y-2362793D02*
X1381849Y-2362793D01*
X1381849Y-2362793D02*
X1400896Y-2353270D01*
X1400896Y-2353270D02*
X1410420Y-2343746D01*
X1410420Y-2343746D02*
X1419944Y-2324698D01*
X1496134Y-2238984D02*
X1496134Y-2277079D01*
X1572325Y-2238984D02*
X1572325Y-2277079D01*
X1867563Y-2515174D02*
X1858039Y-2505650D01*
X1858039Y-2505650D02*
X1838991Y-2477079D01*
X1838991Y-2477079D02*
X1829468Y-2458031D01*
X1829468Y-2458031D02*
X1819944Y-2429460D01*
X1819944Y-2429460D02*
X1810420Y-2381841D01*
X1810420Y-2381841D02*
X1810420Y-2343746D01*
X1810420Y-2343746D02*
X1819944Y-2296127D01*
X1819944Y-2296127D02*
X1829468Y-2267555D01*
X1829468Y-2267555D02*
X1838991Y-2248508D01*
X1838991Y-2248508D02*
X1858039Y-2219936D01*
X1858039Y-2219936D02*
X1867563Y-2210412D01*
X1924706Y-2238984D02*
X2048515Y-2238984D01*
X2048515Y-2238984D02*
X1981848Y-2315174D01*
X1981848Y-2315174D02*
X2010420Y-2315174D01*
X2010420Y-2315174D02*
X2029468Y-2324698D01*
X2029468Y-2324698D02*
X2038991Y-2334222D01*
X2038991Y-2334222D02*
X2048515Y-2353270D01*
X2048515Y-2353270D02*
X2048515Y-2400889D01*
X2048515Y-2400889D02*
X2038991Y-2419936D01*
X2038991Y-2419936D02*
X2029468Y-2429460D01*
X2029468Y-2429460D02*
X2010420Y-2438984D01*
X2010420Y-2438984D02*
X1953277Y-2438984D01*
X1953277Y-2438984D02*
X1934229Y-2429460D01*
X1934229Y-2429460D02*
X1924706Y-2419936D01*
X2286611Y-2438984D02*
X2286611Y-2238984D01*
X2372325Y-2438984D02*
X2372325Y-2334222D01*
X2372325Y-2334222D02*
X2362801Y-2315174D01*
X2362801Y-2315174D02*
X2343753Y-2305650D01*
X2343753Y-2305650D02*
X2315182Y-2305650D01*
X2315182Y-2305650D02*
X2296134Y-2315174D01*
X2296134Y-2315174D02*
X2286611Y-2324698D01*
X2496134Y-2438984D02*
X2477087Y-2429460D01*
X2477087Y-2429460D02*
X2467563Y-2419936D01*
X2467563Y-2419936D02*
X2458039Y-2400889D01*
X2458039Y-2400889D02*
X2458039Y-2343746D01*
X2458039Y-2343746D02*
X2467563Y-2324698D01*
X2467563Y-2324698D02*
X2477087Y-2315174D01*
X2477087Y-2315174D02*
X2496134Y-2305650D01*
X2496134Y-2305650D02*
X2524706Y-2305650D01*
X2524706Y-2305650D02*
X2543753Y-2315174D01*
X2543753Y-2315174D02*
X2553277Y-2324698D01*
X2553277Y-2324698D02*
X2562801Y-2343746D01*
X2562801Y-2343746D02*
X2562801Y-2400889D01*
X2562801Y-2400889D02*
X2553277Y-2419936D01*
X2553277Y-2419936D02*
X2543753Y-2429460D01*
X2543753Y-2429460D02*
X2524706Y-2438984D01*
X2524706Y-2438984D02*
X2496134Y-2438984D01*
X2677087Y-2438984D02*
X2658039Y-2429460D01*
X2658039Y-2429460D02*
X2648515Y-2410412D01*
X2648515Y-2410412D02*
X2648515Y-2238984D01*
X2829468Y-2429460D02*
X2810420Y-2438984D01*
X2810420Y-2438984D02*
X2772325Y-2438984D01*
X2772325Y-2438984D02*
X2753277Y-2429460D01*
X2753277Y-2429460D02*
X2743753Y-2410412D01*
X2743753Y-2410412D02*
X2743753Y-2334222D01*
X2743753Y-2334222D02*
X2753277Y-2315174D01*
X2753277Y-2315174D02*
X2772325Y-2305650D01*
X2772325Y-2305650D02*
X2810420Y-2305650D01*
X2810420Y-2305650D02*
X2829468Y-2315174D01*
X2829468Y-2315174D02*
X2838991Y-2334222D01*
X2838991Y-2334222D02*
X2838991Y-2353270D01*
X2838991Y-2353270D02*
X2743753Y-2372317D01*
X2915182Y-2429460D02*
X2934230Y-2438984D01*
X2934230Y-2438984D02*
X2972325Y-2438984D01*
X2972325Y-2438984D02*
X2991372Y-2429460D01*
X2991372Y-2429460D02*
X3000896Y-2410412D01*
X3000896Y-2410412D02*
X3000896Y-2400889D01*
X3000896Y-2400889D02*
X2991372Y-2381841D01*
X2991372Y-2381841D02*
X2972325Y-2372317D01*
X2972325Y-2372317D02*
X2943753Y-2372317D01*
X2943753Y-2372317D02*
X2924706Y-2362793D01*
X2924706Y-2362793D02*
X2915182Y-2343746D01*
X2915182Y-2343746D02*
X2915182Y-2334222D01*
X2915182Y-2334222D02*
X2924706Y-2315174D01*
X2924706Y-2315174D02*
X2943753Y-2305650D01*
X2943753Y-2305650D02*
X2972325Y-2305650D01*
X2972325Y-2305650D02*
X2991372Y-2315174D01*
X3067563Y-2515174D02*
X3077087Y-2505650D01*
X3077087Y-2505650D02*
X3096134Y-2477079D01*
X3096134Y-2477079D02*
X3105658Y-2458031D01*
X3105658Y-2458031D02*
X3115182Y-2429460D01*
X3115182Y-2429460D02*
X3124706Y-2381841D01*
X3124706Y-2381841D02*
X3124706Y-2343746D01*
X3124706Y-2343746D02*
X3115182Y-2296127D01*
X3115182Y-2296127D02*
X3105658Y-2267555D01*
X3105658Y-2267555D02*
X3096134Y-2248508D01*
X3096134Y-2248508D02*
X3077087Y-2219936D01*
X3077087Y-2219936D02*
X3067563Y-2210412D01*
D11*
X-1707500Y-2611500D02*
G75*
G02*
X-1737500Y-2611500I-15000J0D01*
G01*
X-1737500Y-2611500D02*
G75*
G02*
X-1707500Y-2611500I15000J0D01*
G01*
D12*
X-1408628Y-2502984D02*
X-1389580Y-2502984D01*
X-1389580Y-2502984D02*
X-1370533Y-2512508D01*
X-1370533Y-2512508D02*
X-1361009Y-2522031D01*
X-1361009Y-2522031D02*
X-1351485Y-2541079D01*
X-1351485Y-2541079D02*
X-1341961Y-2579174D01*
X-1341961Y-2579174D02*
X-1341961Y-2626793D01*
X-1341961Y-2626793D02*
X-1351485Y-2664889D01*
X-1351485Y-2664889D02*
X-1361009Y-2683936D01*
X-1361009Y-2683936D02*
X-1370533Y-2693460D01*
X-1370533Y-2693460D02*
X-1389580Y-2702984D01*
X-1389580Y-2702984D02*
X-1408628Y-2702984D01*
X-1408628Y-2702984D02*
X-1427675Y-2693460D01*
X-1427675Y-2693460D02*
X-1437199Y-2683936D01*
X-1437199Y-2683936D02*
X-1446723Y-2664889D01*
X-1446723Y-2664889D02*
X-1456247Y-2626793D01*
X-1456247Y-2626793D02*
X-1456247Y-2579174D01*
X-1456247Y-2579174D02*
X-1446723Y-2541079D01*
X-1446723Y-2541079D02*
X-1437199Y-2522031D01*
X-1437199Y-2522031D02*
X-1427675Y-2512508D01*
X-1427675Y-2512508D02*
X-1408628Y-2502984D01*
X-1256247Y-2683936D02*
X-1246723Y-2693460D01*
X-1246723Y-2693460D02*
X-1256247Y-2702984D01*
X-1256247Y-2702984D02*
X-1265771Y-2693460D01*
X-1265771Y-2693460D02*
X-1256247Y-2683936D01*
X-1256247Y-2683936D02*
X-1256247Y-2702984D01*
X-1180056Y-2502984D02*
X-1056247Y-2502984D01*
X-1056247Y-2502984D02*
X-1122914Y-2579174D01*
X-1122914Y-2579174D02*
X-1094342Y-2579174D01*
X-1094342Y-2579174D02*
X-1075295Y-2588698D01*
X-1075295Y-2588698D02*
X-1065771Y-2598222D01*
X-1065771Y-2598222D02*
X-1056247Y-2617270D01*
X-1056247Y-2617270D02*
X-1056247Y-2664889D01*
X-1056247Y-2664889D02*
X-1065771Y-2683936D01*
X-1065771Y-2683936D02*
X-1075295Y-2693460D01*
X-1075295Y-2693460D02*
X-1094342Y-2702984D01*
X-1094342Y-2702984D02*
X-1151485Y-2702984D01*
X-1151485Y-2702984D02*
X-1170533Y-2693460D01*
X-1170533Y-2693460D02*
X-1180056Y-2683936D01*
X-932437Y-2502984D02*
X-913390Y-2502984D01*
X-913390Y-2502984D02*
X-894342Y-2512508D01*
X-894342Y-2512508D02*
X-884818Y-2522031D01*
X-884818Y-2522031D02*
X-875294Y-2541079D01*
X-875294Y-2541079D02*
X-865771Y-2579174D01*
X-865771Y-2579174D02*
X-865771Y-2626793D01*
X-865771Y-2626793D02*
X-875294Y-2664889D01*
X-875294Y-2664889D02*
X-884818Y-2683936D01*
X-884818Y-2683936D02*
X-894342Y-2693460D01*
X-894342Y-2693460D02*
X-913390Y-2702984D01*
X-913390Y-2702984D02*
X-932437Y-2702984D01*
X-932437Y-2702984D02*
X-951485Y-2693460D01*
X-951485Y-2693460D02*
X-961009Y-2683936D01*
X-961009Y-2683936D02*
X-970533Y-2664889D01*
X-970533Y-2664889D02*
X-980056Y-2626793D01*
X-980056Y-2626793D02*
X-980056Y-2579174D01*
X-980056Y-2579174D02*
X-970533Y-2541079D01*
X-970533Y-2541079D02*
X-961009Y-2522031D01*
X-961009Y-2522031D02*
X-951485Y-2512508D01*
X-951485Y-2512508D02*
X-932437Y-2502984D01*
X-741961Y-2502984D02*
X-722913Y-2502984D01*
X-722913Y-2502984D02*
X-703866Y-2512508D01*
X-703866Y-2512508D02*
X-694342Y-2522031D01*
X-694342Y-2522031D02*
X-684818Y-2541079D01*
X-684818Y-2541079D02*
X-675295Y-2579174D01*
X-675295Y-2579174D02*
X-675295Y-2626793D01*
X-675295Y-2626793D02*
X-684818Y-2664889D01*
X-684818Y-2664889D02*
X-694342Y-2683936D01*
X-694342Y-2683936D02*
X-703866Y-2693460D01*
X-703866Y-2693460D02*
X-722913Y-2702984D01*
X-722913Y-2702984D02*
X-741961Y-2702984D01*
X-741961Y-2702984D02*
X-761009Y-2693460D01*
X-761009Y-2693460D02*
X-770533Y-2683936D01*
X-770533Y-2683936D02*
X-780056Y-2664889D01*
X-780056Y-2664889D02*
X-789580Y-2626793D01*
X-789580Y-2626793D02*
X-789580Y-2579174D01*
X-789580Y-2579174D02*
X-780056Y-2541079D01*
X-780056Y-2541079D02*
X-770533Y-2522031D01*
X-770533Y-2522031D02*
X-761009Y-2512508D01*
X-761009Y-2512508D02*
X-741961Y-2502984D01*
X-589580Y-2702984D02*
X-589580Y-2569650D01*
X-589580Y-2588698D02*
X-580056Y-2579174D01*
X-580056Y-2579174D02*
X-561009Y-2569650D01*
X-561009Y-2569650D02*
X-532437Y-2569650D01*
X-532437Y-2569650D02*
X-513390Y-2579174D01*
X-513390Y-2579174D02*
X-503866Y-2598222D01*
X-503866Y-2598222D02*
X-503866Y-2702984D01*
X-503866Y-2598222D02*
X-494342Y-2579174D01*
X-494342Y-2579174D02*
X-475294Y-2569650D01*
X-475294Y-2569650D02*
X-446723Y-2569650D01*
X-446723Y-2569650D02*
X-427675Y-2579174D01*
X-427675Y-2579174D02*
X-418152Y-2598222D01*
X-418152Y-2598222D02*
X-418152Y-2702984D01*
X-322914Y-2702984D02*
X-322914Y-2569650D01*
X-322914Y-2588698D02*
X-313390Y-2579174D01*
X-313390Y-2579174D02*
X-294342Y-2569650D01*
X-294342Y-2569650D02*
X-265771Y-2569650D01*
X-265771Y-2569650D02*
X-246723Y-2579174D01*
X-246723Y-2579174D02*
X-237199Y-2598222D01*
X-237199Y-2598222D02*
X-237199Y-2702984D01*
X-237199Y-2598222D02*
X-227675Y-2579174D01*
X-227675Y-2579174D02*
X-208628Y-2569650D01*
X-208628Y-2569650D02*
X-180056Y-2569650D01*
X-180056Y-2569650D02*
X-161009Y-2579174D01*
X-161009Y-2579174D02*
X-151485Y-2598222D01*
X-151485Y-2598222D02*
X-151485Y-2702984D01*
X238991Y-2493460D02*
X67563Y-2750603D01*
X496134Y-2502984D02*
X515182Y-2502984D01*
X515182Y-2502984D02*
X534229Y-2512508D01*
X534229Y-2512508D02*
X543753Y-2522031D01*
X543753Y-2522031D02*
X553277Y-2541079D01*
X553277Y-2541079D02*
X562801Y-2579174D01*
X562801Y-2579174D02*
X562801Y-2626793D01*
X562801Y-2626793D02*
X553277Y-2664889D01*
X553277Y-2664889D02*
X543753Y-2683936D01*
X543753Y-2683936D02*
X534229Y-2693460D01*
X534229Y-2693460D02*
X515182Y-2702984D01*
X515182Y-2702984D02*
X496134Y-2702984D01*
X496134Y-2702984D02*
X477086Y-2693460D01*
X477086Y-2693460D02*
X467563Y-2683936D01*
X467563Y-2683936D02*
X458039Y-2664889D01*
X458039Y-2664889D02*
X448515Y-2626793D01*
X448515Y-2626793D02*
X448515Y-2579174D01*
X448515Y-2579174D02*
X458039Y-2541079D01*
X458039Y-2541079D02*
X467563Y-2522031D01*
X467563Y-2522031D02*
X477086Y-2512508D01*
X477086Y-2512508D02*
X496134Y-2502984D01*
X648515Y-2683936D02*
X658039Y-2693460D01*
X658039Y-2693460D02*
X648515Y-2702984D01*
X648515Y-2702984D02*
X638991Y-2693460D01*
X638991Y-2693460D02*
X648515Y-2683936D01*
X648515Y-2683936D02*
X648515Y-2702984D01*
X781848Y-2502984D02*
X800896Y-2502984D01*
X800896Y-2502984D02*
X819944Y-2512508D01*
X819944Y-2512508D02*
X829467Y-2522031D01*
X829467Y-2522031D02*
X838991Y-2541079D01*
X838991Y-2541079D02*
X848515Y-2579174D01*
X848515Y-2579174D02*
X848515Y-2626793D01*
X848515Y-2626793D02*
X838991Y-2664889D01*
X838991Y-2664889D02*
X829467Y-2683936D01*
X829467Y-2683936D02*
X819944Y-2693460D01*
X819944Y-2693460D02*
X800896Y-2702984D01*
X800896Y-2702984D02*
X781848Y-2702984D01*
X781848Y-2702984D02*
X762801Y-2693460D01*
X762801Y-2693460D02*
X753277Y-2683936D01*
X753277Y-2683936D02*
X743753Y-2664889D01*
X743753Y-2664889D02*
X734229Y-2626793D01*
X734229Y-2626793D02*
X734229Y-2579174D01*
X734229Y-2579174D02*
X743753Y-2541079D01*
X743753Y-2541079D02*
X753277Y-2522031D01*
X753277Y-2522031D02*
X762801Y-2512508D01*
X762801Y-2512508D02*
X781848Y-2502984D01*
X1038991Y-2702984D02*
X924706Y-2702984D01*
X981848Y-2702984D02*
X981848Y-2502984D01*
X981848Y-2502984D02*
X962801Y-2531555D01*
X962801Y-2531555D02*
X943753Y-2550603D01*
X943753Y-2550603D02*
X924706Y-2560127D01*
X1229468Y-2702984D02*
X1115182Y-2702984D01*
X1172325Y-2702984D02*
X1172325Y-2502984D01*
X1172325Y-2502984D02*
X1153277Y-2531555D01*
X1153277Y-2531555D02*
X1134229Y-2550603D01*
X1134229Y-2550603D02*
X1115182Y-2560127D01*
X1343753Y-2588698D02*
X1324706Y-2579174D01*
X1324706Y-2579174D02*
X1315182Y-2569650D01*
X1315182Y-2569650D02*
X1305658Y-2550603D01*
X1305658Y-2550603D02*
X1305658Y-2541079D01*
X1305658Y-2541079D02*
X1315182Y-2522031D01*
X1315182Y-2522031D02*
X1324706Y-2512508D01*
X1324706Y-2512508D02*
X1343753Y-2502984D01*
X1343753Y-2502984D02*
X1381849Y-2502984D01*
X1381849Y-2502984D02*
X1400896Y-2512508D01*
X1400896Y-2512508D02*
X1410420Y-2522031D01*
X1410420Y-2522031D02*
X1419944Y-2541079D01*
X1419944Y-2541079D02*
X1419944Y-2550603D01*
X1419944Y-2550603D02*
X1410420Y-2569650D01*
X1410420Y-2569650D02*
X1400896Y-2579174D01*
X1400896Y-2579174D02*
X1381849Y-2588698D01*
X1381849Y-2588698D02*
X1343753Y-2588698D01*
X1343753Y-2588698D02*
X1324706Y-2598222D01*
X1324706Y-2598222D02*
X1315182Y-2607746D01*
X1315182Y-2607746D02*
X1305658Y-2626793D01*
X1305658Y-2626793D02*
X1305658Y-2664889D01*
X1305658Y-2664889D02*
X1315182Y-2683936D01*
X1315182Y-2683936D02*
X1324706Y-2693460D01*
X1324706Y-2693460D02*
X1343753Y-2702984D01*
X1343753Y-2702984D02*
X1381849Y-2702984D01*
X1381849Y-2702984D02*
X1400896Y-2693460D01*
X1400896Y-2693460D02*
X1410420Y-2683936D01*
X1410420Y-2683936D02*
X1419944Y-2664889D01*
X1419944Y-2664889D02*
X1419944Y-2626793D01*
X1419944Y-2626793D02*
X1410420Y-2607746D01*
X1410420Y-2607746D02*
X1400896Y-2598222D01*
X1400896Y-2598222D02*
X1381849Y-2588698D01*
X1496134Y-2502984D02*
X1496134Y-2541079D01*
X1572325Y-2502984D02*
X1572325Y-2541079D01*
X1867563Y-2779174D02*
X1858039Y-2769650D01*
X1858039Y-2769650D02*
X1838991Y-2741079D01*
X1838991Y-2741079D02*
X1829468Y-2722031D01*
X1829468Y-2722031D02*
X1819944Y-2693460D01*
X1819944Y-2693460D02*
X1810420Y-2645841D01*
X1810420Y-2645841D02*
X1810420Y-2607746D01*
X1810420Y-2607746D02*
X1819944Y-2560127D01*
X1819944Y-2560127D02*
X1829468Y-2531555D01*
X1829468Y-2531555D02*
X1838991Y-2512508D01*
X1838991Y-2512508D02*
X1858039Y-2483936D01*
X1858039Y-2483936D02*
X1867563Y-2474412D01*
X2048515Y-2702984D02*
X1934229Y-2702984D01*
X1991372Y-2702984D02*
X1991372Y-2502984D01*
X1991372Y-2502984D02*
X1972325Y-2531555D01*
X1972325Y-2531555D02*
X1953277Y-2550603D01*
X1953277Y-2550603D02*
X1934229Y-2560127D01*
X2229468Y-2502984D02*
X2134230Y-2502984D01*
X2134230Y-2502984D02*
X2124706Y-2598222D01*
X2124706Y-2598222D02*
X2134230Y-2588698D01*
X2134230Y-2588698D02*
X2153277Y-2579174D01*
X2153277Y-2579174D02*
X2200896Y-2579174D01*
X2200896Y-2579174D02*
X2219944Y-2588698D01*
X2219944Y-2588698D02*
X2229468Y-2598222D01*
X2229468Y-2598222D02*
X2238991Y-2617270D01*
X2238991Y-2617270D02*
X2238991Y-2664889D01*
X2238991Y-2664889D02*
X2229468Y-2683936D01*
X2229468Y-2683936D02*
X2219944Y-2693460D01*
X2219944Y-2693460D02*
X2200896Y-2702984D01*
X2200896Y-2702984D02*
X2153277Y-2702984D01*
X2153277Y-2702984D02*
X2134230Y-2693460D01*
X2134230Y-2693460D02*
X2124706Y-2683936D01*
X2362801Y-2502984D02*
X2381849Y-2502984D01*
X2381849Y-2502984D02*
X2400896Y-2512508D01*
X2400896Y-2512508D02*
X2410420Y-2522031D01*
X2410420Y-2522031D02*
X2419944Y-2541079D01*
X2419944Y-2541079D02*
X2429468Y-2579174D01*
X2429468Y-2579174D02*
X2429468Y-2626793D01*
X2429468Y-2626793D02*
X2419944Y-2664889D01*
X2419944Y-2664889D02*
X2410420Y-2683936D01*
X2410420Y-2683936D02*
X2400896Y-2693460D01*
X2400896Y-2693460D02*
X2381849Y-2702984D01*
X2381849Y-2702984D02*
X2362801Y-2702984D01*
X2362801Y-2702984D02*
X2343753Y-2693460D01*
X2343753Y-2693460D02*
X2334230Y-2683936D01*
X2334230Y-2683936D02*
X2324706Y-2664889D01*
X2324706Y-2664889D02*
X2315182Y-2626793D01*
X2315182Y-2626793D02*
X2315182Y-2579174D01*
X2315182Y-2579174D02*
X2324706Y-2541079D01*
X2324706Y-2541079D02*
X2334230Y-2522031D01*
X2334230Y-2522031D02*
X2343753Y-2512508D01*
X2343753Y-2512508D02*
X2362801Y-2502984D01*
X2667563Y-2702984D02*
X2667563Y-2502984D01*
X2753277Y-2702984D02*
X2753277Y-2598222D01*
X2753277Y-2598222D02*
X2743753Y-2579174D01*
X2743753Y-2579174D02*
X2724706Y-2569650D01*
X2724706Y-2569650D02*
X2696134Y-2569650D01*
X2696134Y-2569650D02*
X2677087Y-2579174D01*
X2677087Y-2579174D02*
X2667563Y-2588698D01*
X2877087Y-2702984D02*
X2858039Y-2693460D01*
X2858039Y-2693460D02*
X2848515Y-2683936D01*
X2848515Y-2683936D02*
X2838991Y-2664889D01*
X2838991Y-2664889D02*
X2838991Y-2607746D01*
X2838991Y-2607746D02*
X2848515Y-2588698D01*
X2848515Y-2588698D02*
X2858039Y-2579174D01*
X2858039Y-2579174D02*
X2877087Y-2569650D01*
X2877087Y-2569650D02*
X2905658Y-2569650D01*
X2905658Y-2569650D02*
X2924706Y-2579174D01*
X2924706Y-2579174D02*
X2934230Y-2588698D01*
X2934230Y-2588698D02*
X2943753Y-2607746D01*
X2943753Y-2607746D02*
X2943753Y-2664889D01*
X2943753Y-2664889D02*
X2934230Y-2683936D01*
X2934230Y-2683936D02*
X2924706Y-2693460D01*
X2924706Y-2693460D02*
X2905658Y-2702984D01*
X2905658Y-2702984D02*
X2877087Y-2702984D01*
X3058039Y-2702984D02*
X3038991Y-2693460D01*
X3038991Y-2693460D02*
X3029468Y-2674412D01*
X3029468Y-2674412D02*
X3029468Y-2502984D01*
X3210420Y-2693460D02*
X3191372Y-2702984D01*
X3191372Y-2702984D02*
X3153277Y-2702984D01*
X3153277Y-2702984D02*
X3134230Y-2693460D01*
X3134230Y-2693460D02*
X3124706Y-2674412D01*
X3124706Y-2674412D02*
X3124706Y-2598222D01*
X3124706Y-2598222D02*
X3134230Y-2579174D01*
X3134230Y-2579174D02*
X3153277Y-2569650D01*
X3153277Y-2569650D02*
X3191372Y-2569650D01*
X3191372Y-2569650D02*
X3210420Y-2579174D01*
X3210420Y-2579174D02*
X3219944Y-2598222D01*
X3219944Y-2598222D02*
X3219944Y-2617270D01*
X3219944Y-2617270D02*
X3124706Y-2636317D01*
X3296134Y-2693460D02*
X3315182Y-2702984D01*
X3315182Y-2702984D02*
X3353277Y-2702984D01*
X3353277Y-2702984D02*
X3372325Y-2693460D01*
X3372325Y-2693460D02*
X3381849Y-2674412D01*
X3381849Y-2674412D02*
X3381849Y-2664889D01*
X3381849Y-2664889D02*
X3372325Y-2645841D01*
X3372325Y-2645841D02*
X3353277Y-2636317D01*
X3353277Y-2636317D02*
X3324706Y-2636317D01*
X3324706Y-2636317D02*
X3305658Y-2626793D01*
X3305658Y-2626793D02*
X3296134Y-2607746D01*
X3296134Y-2607746D02*
X3296134Y-2598222D01*
X3296134Y-2598222D02*
X3305658Y-2579174D01*
X3305658Y-2579174D02*
X3324706Y-2569650D01*
X3324706Y-2569650D02*
X3353277Y-2569650D01*
X3353277Y-2569650D02*
X3372325Y-2579174D01*
X3448515Y-2779174D02*
X3458039Y-2769650D01*
X3458039Y-2769650D02*
X3477087Y-2741079D01*
X3477087Y-2741079D02*
X3486611Y-2722031D01*
X3486611Y-2722031D02*
X3496134Y-2693460D01*
X3496134Y-2693460D02*
X3505658Y-2645841D01*
X3505658Y-2645841D02*
X3505658Y-2607746D01*
X3505658Y-2607746D02*
X3496134Y-2560127D01*
X3496134Y-2560127D02*
X3486611Y-2531555D01*
X3486611Y-2531555D02*
X3477087Y-2512508D01*
X3477087Y-2512508D02*
X3458039Y-2483936D01*
X3458039Y-2483936D02*
X3448515Y-2474412D01*
M02*
