%TF.GenerationSoftware,KiCad,Pcbnew,10.0.3*%
%TF.CreationDate,2026-09-04T14:05:14+02:00*%
%TF.ProjectId,spacer_activation_interface_cell_floor_board,73706163-6572-45f6-9163-746976617469,rev?*%
%TF.SameCoordinates,Original*%
%TF.FileFunction,Copper,L3,Inr*%
%TF.FilePolarity,Positive*%
%FSLAX46Y46*%
G04 Gerber Fmt 4.6, Leading zero omitted, Abs format (unit mm)*
G04 Created by KiCad (PCBNEW 10.0.3) date 2026-09-04 14:05:14*
%MOMM*%
%LPD*%
G01*
G04 APERTURE LIST*
%TA.AperFunction,ViaPad*%
%ADD10C,0.900000*%
%TD*%
%TA.AperFunction,ViaPad*%
%ADD11C,0.450000*%
%TD*%
G04 APERTURE END LIST*
D10*
%TO.N,3V3*%
X-9150000Y3650000D03*
X-13950000Y-5950000D03*
X-9150000Y11650000D03*
D11*
X-13580000Y-7130000D03*
D10*
%TO.N,3V3_AON*%
X-9150000Y5250000D03*
X-13950000Y-4350000D03*
%TO.N,ACTIVATE_CONFIRM*%
X-13950000Y-2750000D03*
%TO.N,ACTIVATE_SET*%
X-13950000Y-1150000D03*
%TO.N,BAT_PROT*%
X-13950000Y450000D03*
X-9150000Y6850000D03*
D11*
%TO.N,BAT_RAW*%
X-11560000Y7650000D03*
D10*
X-9150000Y8450000D03*
X-13950000Y2050000D03*
%TO.N,BOOT0*%
X-13950000Y3650000D03*
%TO.N,COMP_5V*%
X-9150000Y10050000D03*
X-13950000Y5250000D03*
%TO.N,COMP_SWDCLK*%
X-12350000Y-5950000D03*
%TO.N,COMP_SWDIO*%
X-12350000Y-4350000D03*
%TO.N,EXT_CAN_RX*%
X-12350000Y-2750000D03*
%TO.N,EXT_CAN_TX*%
X-12350000Y-1150000D03*
%TO.N,FIN1_AOUT1*%
X-12350000Y450000D03*
%TO.N,FIN2_AOUT1*%
X-12350000Y2050000D03*
%TO.N,FIN3_AOUT1*%
X-12350000Y3650000D03*
%TO.N,FIN4_AOUT1*%
X-12350000Y5250000D03*
%TO.N,FIN_HALL*%
X-12350000Y6850000D03*
%TO.N,FIN_VREF*%
X-12350000Y8450000D03*
%TO.N,FLEX_GND*%
X5250000Y-13950000D03*
X6850000Y3650000D03*
X-5950000Y-12350000D03*
X8450000Y2050000D03*
X-4350000Y-13950000D03*
X11650000Y-4350000D03*
X5250000Y13250000D03*
X-1150000Y13250000D03*
X5250000Y10050000D03*
X14850000Y-2750000D03*
X3650000Y11650000D03*
X6850000Y2050000D03*
X450000Y14850000D03*
X-1150000Y-12350000D03*
X-2750000Y-12350000D03*
X-1150000Y11650000D03*
X-7550000Y8450000D03*
X13250000Y-5950000D03*
X13250000Y-7550000D03*
X13250000Y-1150000D03*
X14850000Y-1150000D03*
X6850000Y13250000D03*
X10050000Y450000D03*
X-5950000Y-2750000D03*
X2050000Y11650000D03*
X-7550000Y6850000D03*
X5250000Y11650000D03*
X-7550000Y-1150000D03*
X-7550000Y5250000D03*
X6850000Y-10750000D03*
X13250000Y3650000D03*
X-5950000Y450000D03*
X6850000Y-9150000D03*
X11650000Y-9150000D03*
X-7550000Y2050000D03*
X8450000Y3650000D03*
X2050000Y-12350000D03*
X-5950000Y-10750000D03*
X2050000Y-10750000D03*
X10050000Y2050000D03*
X-7550000Y-4350000D03*
X-7550000Y13250000D03*
X3650000Y-12350000D03*
X5250000Y-12350000D03*
X11650000Y-5950000D03*
X-7550000Y11650000D03*
X14850000Y450000D03*
X-2750000Y-13950000D03*
X13250000Y450000D03*
X8450000Y-9150000D03*
X11650000Y-1150000D03*
X10050000Y3650000D03*
X8450000Y-12350000D03*
X-2750000Y13250000D03*
X6850000Y450000D03*
X8450000Y-10750000D03*
X-7550000Y450000D03*
X-7550000Y10050000D03*
X-4350000Y-12350000D03*
X13250000Y6850000D03*
X3650000Y-13950000D03*
X11650000Y3650000D03*
X-10750000Y-5950000D03*
X3650000Y13250000D03*
X6850000Y-12350000D03*
D11*
X-5960000Y1870000D03*
D10*
X-2750000Y-10750000D03*
X3650000Y14850000D03*
X5250000Y-9150000D03*
X-5950000Y13250000D03*
X-2750000Y14850000D03*
X13250000Y5250000D03*
X14850000Y3650000D03*
X-4350000Y-10750000D03*
X-5950000Y11650000D03*
X-5950000Y-13950000D03*
X11650000Y450000D03*
X13250000Y-2750000D03*
X5250000Y8450000D03*
X13250000Y2050000D03*
X-1150000Y14850000D03*
X10050000Y-9150000D03*
X14850000Y2050000D03*
X13250000Y-4350000D03*
X-1150000Y-13950000D03*
X11650000Y2050000D03*
X3650000Y-10750000D03*
X2050000Y13250000D03*
X-7550000Y3650000D03*
X-1150000Y-10750000D03*
X-5950000Y-1150000D03*
X-2750000Y11650000D03*
X450000Y-13950000D03*
X-5950000Y-9150000D03*
X450000Y11650000D03*
X11650000Y-2750000D03*
X11650000Y5250000D03*
X8450000Y5250000D03*
X450000Y-10750000D03*
X-4350000Y13250000D03*
X450000Y-12350000D03*
X10050000Y-10750000D03*
X2050000Y-13950000D03*
X450000Y13250000D03*
X10050000Y5250000D03*
X8450000Y450000D03*
X-4350000Y11650000D03*
X11650000Y-7550000D03*
X2050000Y14850000D03*
X5250000Y-10750000D03*
X-7550000Y-2750000D03*
%TO.N,GPIO_EXT_0*%
X-10750000Y-4350000D03*
%TO.N,GPIO_EXT_1*%
X-10750000Y-2750000D03*
%TO.N,GPIO_EXT_2*%
X-10750000Y-1150000D03*
%TO.N,GPIO_EXT_3*%
X-10750000Y450000D03*
%TO.N,H3LIS_INT1*%
X-10750000Y2050000D03*
%TO.N,I2C3_SCL*%
X-10750000Y3650000D03*
%TO.N,I2C3_SDA*%
X-10750000Y5250000D03*
%TO.N,JUMP_WAKE*%
X-10750000Y6850000D03*
%TO.N,NRST*%
X-10750000Y8450000D03*
%TO.N,SWO*%
X-10750000Y10050000D03*
%TO.N,SYS_I2C_SCL*%
X-9150000Y-5950000D03*
%TO.N,SYS_I2C_SDA*%
X-9150000Y-4350000D03*
%TO.N,SYS_SPI_CS_FIN*%
X-9150000Y-2750000D03*
%TO.N,SYS_SPI_MISO*%
X-9150000Y-1150000D03*
%TO.N,SYS_SPI_MOSI*%
X-9150000Y450000D03*
%TO.N,SYS_SPI_SCLK*%
X-9150000Y2050000D03*
%TD*%
M02*
