M48
; DRILL file KiCad 10.0.3 date 2026-09-04T14:05:15
; FORMAT={-:-/ absolute / metric / decimal}
; #@! TF.CreationDate,2026-09-04T14:05:15+02:00
; #@! TF.GenerationSoftware,Kicad,Pcbnew,10.0.3
; #@! TF.FileFunction,Plated,1,4,PTH
FMAT,2
METRIC
; #@! TA.AperFunction,Plated,PTH,ViaDrill
T1C0.200
; #@! TA.AperFunction,Plated,PTH,ViaDrill
T2C0.300
%
G90
G05
T1
X-13.58Y-7.13
X-11.56Y7.65
X-5.96Y1.87
T2
X-13.95Y5.25
X-13.95Y3.65
X-13.95Y2.05
X-13.95Y0.45
X-13.95Y-1.15
X-13.95Y-2.75
X-13.95Y-4.35
X-13.95Y-5.95
X-12.35Y8.45
X-12.35Y6.85
X-12.35Y5.25
X-12.35Y3.65
X-12.35Y2.05
X-12.35Y0.45
X-12.35Y-1.15
X-12.35Y-2.75
X-12.35Y-4.35
X-12.35Y-5.95
X-10.75Y10.05
X-10.75Y8.45
X-10.75Y6.85
X-10.75Y5.25
X-10.75Y3.65
X-10.75Y2.05
X-10.75Y0.45
X-10.75Y-1.15
X-10.75Y-2.75
X-10.75Y-4.35
X-10.75Y-5.95
X-9.15Y11.65
X-9.15Y10.05
X-9.15Y8.45
X-9.15Y6.85
X-9.15Y5.25
X-9.15Y3.65
X-9.15Y2.05
X-9.15Y0.45
X-9.15Y-1.15
X-9.15Y-2.75
X-9.15Y-4.35
X-9.15Y-5.95
X-7.55Y13.25
X-7.55Y11.65
X-7.55Y10.05
X-7.55Y8.45
X-7.55Y6.85
X-7.55Y5.25
X-7.55Y3.65
X-7.55Y2.05
X-7.55Y0.45
X-7.55Y-1.15
X-7.55Y-2.75
X-7.55Y-4.35
X-5.95Y13.25
X-5.95Y11.65
X-5.95Y0.45
X-5.95Y-1.15
X-5.95Y-2.75
X-5.95Y-9.15
X-5.95Y-10.75
X-5.95Y-12.35
X-5.95Y-13.95
X-4.35Y13.25
X-4.35Y11.65
X-4.35Y-10.75
X-4.35Y-12.35
X-4.35Y-13.95
X-2.75Y14.85
X-2.75Y13.25
X-2.75Y11.65
X-2.75Y-10.75
X-2.75Y-12.35
X-2.75Y-13.95
X-1.15Y14.85
X-1.15Y13.25
X-1.15Y11.65
X-1.15Y-10.75
X-1.15Y-12.35
X-1.15Y-13.95
X0.45Y14.85
X0.45Y13.25
X0.45Y11.65
X0.45Y-10.75
X0.45Y-12.35
X0.45Y-13.95
X2.05Y14.85
X2.05Y13.25
X2.05Y11.65
X2.05Y-10.75
X2.05Y-12.35
X2.05Y-13.95
X3.65Y14.85
X3.65Y13.25
X3.65Y11.65
X3.65Y-10.75
X3.65Y-12.35
X3.65Y-13.95
X5.25Y13.25
X5.25Y11.65
X5.25Y10.05
X5.25Y8.45
X5.25Y-9.15
X5.25Y-10.75
X5.25Y-12.35
X5.25Y-13.95
X6.85Y13.25
X6.85Y3.65
X6.85Y2.05
X6.85Y0.45
X6.85Y-9.15
X6.85Y-10.75
X6.85Y-12.35
X8.45Y5.25
X8.45Y3.65
X8.45Y2.05
X8.45Y0.45
X8.45Y-9.15
X8.45Y-10.75
X8.45Y-12.35
X10.05Y5.25
X10.05Y3.65
X10.05Y2.05
X10.05Y0.45
X10.05Y-9.15
X10.05Y-10.75
X11.65Y5.25
X11.65Y3.65
X11.65Y2.05
X11.65Y0.45
X11.65Y-1.15
X11.65Y-2.75
X11.65Y-4.35
X11.65Y-5.95
X11.65Y-7.55
X11.65Y-9.15
X13.25Y6.85
X13.25Y5.25
X13.25Y3.65
X13.25Y2.05
X13.25Y0.45
X13.25Y-1.15
X13.25Y-2.75
X13.25Y-4.35
X13.25Y-5.95
X13.25Y-7.55
X14.85Y3.65
X14.85Y2.05
X14.85Y0.45
X14.85Y-1.15
X14.85Y-2.75
M30
