%TF.GenerationSoftware,KiCad,Pcbnew,10.0.0*%
%TF.CreationDate,2026-09-03T12:15:48+02:00*%
%TF.ProjectId,wakeup_board,77616b65-7570-45f6-926f-6172642e6b69,rev?*%
%TF.SameCoordinates,Original*%
%TF.FileFunction,Paste,Bot*%
%TF.FilePolarity,Positive*%
%FSLAX46Y46*%
G04 Gerber Fmt 4.6, Leading zero omitted, Abs format (unit mm)*
G04 Created by KiCad (PCBNEW 10.0.0) date 2026-09-03 12:15:48*
%MOMM*%
%LPD*%
G01*
G04 APERTURE LIST*
%ADD10R,0.600000X0.550000*%
%ADD11R,0.950000X0.850000*%
%ADD12R,1.450000X1.150000*%
%ADD13C,1.500000*%
%ADD14R,0.550000X0.600000*%
%ADD15R,0.850000X0.950000*%
%ADD16R,1.150000X1.450000*%
%ADD17R,0.560000X0.950000*%
%ADD18R,0.900000X0.900000*%
G04 APERTURE END LIST*
D10*
%TO.C,RPU_SCL_EXT*%
X-3003000Y4129000D03*
X-3003000Y5079000D03*
%TD*%
%TO.C,RPU_SDA_EXT*%
X-7105000Y-25000D03*
X-7105000Y925000D03*
%TD*%
D11*
%TO.C,C_MAG_C1*%
X3476000Y1876000D03*
X3476000Y3476000D03*
%TD*%
D10*
%TO.C,C_MAG1*%
X-1151000Y-25000D03*
X-1151000Y925000D03*
%TD*%
D12*
%TO.C,C_MAG2*%
X-3679000Y-525000D03*
X-3679000Y1425000D03*
%TD*%
D13*
%TO.C,TP_MAG_DRDY*%
X-76000Y3102000D03*
%TD*%
D14*
%TO.C,RPU_I2C2_SCL*%
X2701000Y-4730000D03*
X1751000Y-4730000D03*
%TD*%
D10*
%TO.C,RPU_I2C2_SDA*%
X-3955000Y2526000D03*
X-3955000Y3476000D03*
%TD*%
D14*
%TO.C,RPU_I2C3_SCL*%
X399000Y6555000D03*
X-551000Y6555000D03*
%TD*%
%TO.C,RPU_I2C3_SDA*%
X7181000Y2577000D03*
X6231000Y2577000D03*
%TD*%
%TO.C,R_IMU1_SCX_PU*%
X4226000Y4803000D03*
X3276000Y4803000D03*
%TD*%
D10*
%TO.C,R_IMU1_SDX_PU*%
X1151000Y-25000D03*
X1151000Y925000D03*
%TD*%
D14*
%TO.C,C_IMU1_1*%
X-4627000Y-4905000D03*
X-5577000Y-4905000D03*
%TD*%
D15*
%TO.C,C_IMU1_2*%
X800000Y-4730000D03*
X-800000Y-4730000D03*
%TD*%
D10*
%TO.C,C_IMU1_3*%
X-1852000Y1576000D03*
X-1852000Y2526000D03*
%TD*%
D13*
%TO.C,TP_IMU1_INT*%
X2302000Y450000D03*
%TD*%
D10*
%TO.C,R_IMU2_SCX_PU*%
X7156000Y951000D03*
X7156000Y1901000D03*
%TD*%
%TO.C,R_IMU2_SDX_PU*%
X-4805000Y-1626000D03*
X-4805000Y-676000D03*
%TD*%
%TO.C,C_IMU2_1*%
X-4805000Y-25000D03*
X-4805000Y925000D03*
%TD*%
D15*
%TO.C,C_IMU2_2*%
X2950000Y5679000D03*
X1350000Y5679000D03*
%TD*%
D14*
%TO.C,C_IMU2_3*%
X2625000Y3202000D03*
X1675000Y3202000D03*
%TD*%
D13*
%TO.C,TP_IMU2_INT*%
X2150000Y4353000D03*
%TD*%
D10*
%TO.C,R_IMU3_SCX_PU*%
X-2553000Y-25000D03*
X-2553000Y925000D03*
%TD*%
%TO.C,R_IMU3_SDX_PU*%
X-2553000Y1576000D03*
X-2553000Y2526000D03*
%TD*%
%TO.C,C_IMU3_1*%
X2477000Y-1626000D03*
X2477000Y-676000D03*
%TD*%
D15*
%TO.C,C_IMU3_2*%
X800000Y-876000D03*
X-800000Y-876000D03*
%TD*%
D10*
%TO.C,C_IMU3_3*%
X1776000Y-1626000D03*
X1776000Y-676000D03*
%TD*%
D13*
%TO.C,TP_IMU3_INT*%
X5655000Y4277000D03*
%TD*%
D10*
%TO.C,C_CAM_VDD*%
X-3704000Y4129000D03*
X-3704000Y5079000D03*
%TD*%
D14*
%TO.C,RMAIN_PU*%
X-3179000Y-1651000D03*
X-4129000Y-1651000D03*
%TD*%
%TO.C,CMAIN_HOLD*%
X2701000Y-2453000D03*
X1751000Y-2453000D03*
%TD*%
%TO.C,RHOLD_G*%
X475000Y-6456000D03*
X-475000Y-6456000D03*
%TD*%
D10*
%TO.C,RHOLD_PD*%
X-3254000Y2526000D03*
X-3254000Y3476000D03*
%TD*%
%TO.C,C_MAG_WAKE*%
X-5955000Y-3526000D03*
X-5955000Y-2576000D03*
%TD*%
%TO.C,RPU_MAG_WAKE*%
X4504000Y3177000D03*
X4504000Y4127000D03*
%TD*%
D12*
%TO.C,C_TMR_LDO*%
X-5955000Y-1475000D03*
X-5955000Y475000D03*
%TD*%
D10*
%TO.C,C_MAG_SHELF*%
X-4978000Y-4079000D03*
X-4978000Y-3129000D03*
%TD*%
D14*
%TO.C,R_MAG_SHELF*%
X2701000Y-3855000D03*
X1751000Y-3855000D03*
%TD*%
%TO.C,R_JUMP_PU*%
X3601000Y6555000D03*
X2651000Y6555000D03*
%TD*%
%TO.C,R_JUMP_WAKE*%
X-1202000Y5404000D03*
X-2152000Y5404000D03*
%TD*%
D10*
%TO.C,R_BOOST_FB1*%
X-7105000Y-1626000D03*
X-7105000Y-676000D03*
%TD*%
D14*
%TO.C,R_BOOST_FB2*%
X475000Y-5606000D03*
X-475000Y-5606000D03*
%TD*%
D11*
%TO.C,CBOOST_IN1_1*%
X5380000Y1251000D03*
X5380000Y2851000D03*
%TD*%
D15*
%TO.C,CBOOST_IN1_2*%
X724000Y1776000D03*
X-876000Y1776000D03*
%TD*%
%TO.C,CBOOST_IN1_3*%
X-1502000Y6280000D03*
X-3102000Y6280000D03*
%TD*%
%TO.C,CBOOST_IN1_4*%
X3026000Y-5781000D03*
X1426000Y-5781000D03*
%TD*%
%TO.C,CBOOST_IN1_5*%
X800000Y-3679000D03*
X-800000Y-3679000D03*
%TD*%
D10*
%TO.C,CBOOST_IN2*%
X6256000Y951000D03*
X6256000Y1901000D03*
%TD*%
D14*
%TO.C,CBOOST_OUT2*%
X-1377000Y3202000D03*
X-2327000Y3202000D03*
%TD*%
%TO.C,COUT3*%
X475000Y-1752000D03*
X-475000Y-1752000D03*
%TD*%
D12*
%TO.C,C_AON_IN*%
X4503000Y-4378000D03*
X4503000Y-2428000D03*
%TD*%
D16*
%TO.C,C_AON_OUT*%
X-1576000Y-6031000D03*
X-3526000Y-6031000D03*
%TD*%
D14*
%TO.C,RAON_PU*%
X-1751000Y-2453000D03*
X-2701000Y-2453000D03*
%TD*%
D11*
%TO.C,C_WBA_VDD11*%
X6431000Y-1600000D03*
X6431000Y0D03*
%TD*%
D14*
%TO.C,C_WBA_VDDA*%
X475000Y701000D03*
X-475000Y701000D03*
%TD*%
%TO.C,C_WBA_VDDANA*%
X-1751000Y-4755000D03*
X-2701000Y-4755000D03*
%TD*%
D10*
%TO.C,C_WBA_VDD1*%
X-2477000Y-1626000D03*
X-2477000Y-676000D03*
%TD*%
%TO.C,C_WBA_VDD2*%
X3377000Y-4529000D03*
X3377000Y-3579000D03*
%TD*%
D14*
%TO.C,C_WBA_VDDRF*%
X399000Y7256000D03*
X-551000Y7256000D03*
%TD*%
%TO.C,C_WBA_VDDRFPA*%
X399000Y4253000D03*
X-551000Y4253000D03*
%TD*%
D10*
%TO.C,C_WBA_VDDHPA*%
X-1776000Y-1626000D03*
X-1776000Y-676000D03*
%TD*%
%TO.C,C_WBA_VDDSMPS*%
X3377000Y-2928000D03*
X3377000Y-1978000D03*
%TD*%
D11*
%TO.C,C_WBA_BULK_1*%
X3628000Y-975000D03*
X3628000Y625000D03*
%TD*%
D15*
%TO.C,C_WBA_BULK_2*%
X800000Y-2628000D03*
X-800000Y-2628000D03*
%TD*%
D14*
%TO.C,R_WBA_NRST*%
X2000000Y6555000D03*
X1050000Y6555000D03*
%TD*%
%TO.C,C_WBA_NRST*%
X-1377000Y3903000D03*
X-2327000Y3903000D03*
%TD*%
D17*
%TO.C,Q_WBA_RST*%
X-5005000Y1776000D03*
X-6905000Y1776000D03*
X-5955000Y3876000D03*
%TD*%
D14*
%TO.C,R_WBARST_PD*%
X475000Y0D03*
X-475000Y0D03*
%TD*%
%TO.C,R_WBA_BOOT0*%
X2076000Y-6657000D03*
X1126000Y-6657000D03*
%TD*%
%TO.C,C_WBA_HSE_VDD*%
X-3352000Y-4054000D03*
X-4302000Y-4054000D03*
%TD*%
%TO.C,RPU_IR_WAKE*%
X-1377000Y4604000D03*
X-2327000Y4604000D03*
%TD*%
%TO.C,C_IR_WAKE*%
X2701000Y-3154000D03*
X1751000Y-3154000D03*
%TD*%
D10*
%TO.C,RHOLD_AON*%
X-4805000Y4727000D03*
X-4805000Y5677000D03*
%TD*%
%TO.C,R_WILK_ISO*%
X4504000Y1576000D03*
X4504000Y2526000D03*
%TD*%
D13*
%TO.C,TP_WILK_A*%
X2150000Y2051000D03*
%TD*%
%TO.C,TP_WILK_B*%
X-76000Y5404000D03*
%TD*%
%TO.C,TP_YAGI_RF_A*%
X-3827000Y-2903000D03*
%TD*%
%TO.C,TP_YAGI_RF_B*%
X-2226000Y-3604000D03*
%TD*%
D14*
%TO.C,RHOLD2_G*%
X4851000Y5504000D03*
X3901000Y5504000D03*
%TD*%
D10*
%TO.C,RHOLD2_PD*%
X-1852000Y-25000D03*
X-1852000Y925000D03*
%TD*%
D13*
%TO.C,TP_BAT*%
X4478000Y-5954000D03*
%TD*%
%TO.C,TP_3V3*%
X4954000Y-175000D03*
%TD*%
%TO.C,TP_GND*%
X6156000Y-3026000D03*
%TD*%
D18*
%TO.C,P_wakeup_board_spacer_fin_ble_board_wakeup_board*%
X13950000Y-5441000D03*
X13950000Y-3841000D03*
X13950000Y-2241000D03*
X13950000Y-641000D03*
X13950000Y959000D03*
X13950000Y2559000D03*
X13950000Y4159000D03*
X13950000Y5759000D03*
X12350000Y-5441000D03*
X12350000Y-3841000D03*
X12350000Y-2241000D03*
X12350000Y-641000D03*
X12350000Y959000D03*
X12350000Y2559000D03*
X12350000Y4159000D03*
X12350000Y5759000D03*
X12350000Y7359000D03*
X12350000Y8959000D03*
X10750000Y-5441000D03*
X10750000Y-3841000D03*
X10750000Y-2241000D03*
X10750000Y-641000D03*
X10750000Y959000D03*
X10750000Y2559000D03*
X10750000Y4159000D03*
X10750000Y5759000D03*
X10750000Y7359000D03*
X10750000Y8959000D03*
X10750000Y10559000D03*
X5950000Y-13441000D03*
X5950000Y13759000D03*
X-450000Y12159000D03*
X-2050000Y12159000D03*
X-3650000Y12159000D03*
X-5250000Y-13441000D03*
X-5250000Y12159000D03*
X-5250000Y13759000D03*
X-6850000Y-13441000D03*
X-6850000Y13759000D03*
X-8450000Y-11841000D03*
X-8450000Y-10241000D03*
X-8450000Y-8641000D03*
X-8450000Y-7041000D03*
X-8450000Y-5441000D03*
X-10050000Y-10241000D03*
X-10050000Y-8641000D03*
X-10050000Y-7041000D03*
X-10050000Y-5441000D03*
X-10050000Y5759000D03*
X-11650000Y-8641000D03*
X-11650000Y-7041000D03*
X-11650000Y-5441000D03*
X-11650000Y5759000D03*
X-13250000Y-7041000D03*
X-13250000Y-5441000D03*
X-13250000Y-3841000D03*
X-13250000Y-2241000D03*
X-13250000Y-641000D03*
X-13250000Y959000D03*
X-13250000Y2559000D03*
X-13250000Y4159000D03*
X-13250000Y5759000D03*
X-13250000Y7359000D03*
X-14850000Y-3841000D03*
X-14850000Y-2241000D03*
X-14850000Y-641000D03*
X-14850000Y959000D03*
X-14850000Y2559000D03*
X-14850000Y4159000D03*
%TD*%
M02*
