%TF.GenerationSoftware,KiCad,Pcbnew,10.0.0*%
%TF.CreationDate,2026-09-03T12:15:46+02:00*%
%TF.ProjectId,activation_interface,61637469-7661-4746-996f-6e5f696e7465,rev?*%
%TF.SameCoordinates,Original*%
%TF.FileFunction,Soldermask,Bot*%
%TF.FilePolarity,Negative*%
%FSLAX46Y46*%
G04 Gerber Fmt 4.6, Leading zero omitted, Abs format (unit mm)*
G04 Created by KiCad (PCBNEW 10.0.0) date 2026-09-03 12:15:46*
%MOMM*%
%LPD*%
G01*
G04 APERTURE LIST*
%ADD10C,3.000000*%
%ADD11R,0.900000X0.900000*%
G04 APERTURE END LIST*
D10*
%TO.C,*%
X-9899500Y9899500D03*
%TD*%
%TO.C,*%
X9899500Y-9899500D03*
%TD*%
D11*
%TO.C,P_activation_interface_spacer_aft_end_board_activation_interface*%
X13950000Y-5950000D03*
X13950000Y-4350000D03*
X13950000Y-2750000D03*
X13950000Y-1150000D03*
X13950000Y450000D03*
X13950000Y2050000D03*
X13950000Y3650000D03*
X13950000Y5250000D03*
X12350000Y-5950000D03*
X12350000Y-4350000D03*
X12350000Y-2750000D03*
X12350000Y8450000D03*
X10750000Y-5950000D03*
X10750000Y-4350000D03*
X10750000Y-2750000D03*
X10750000Y8450000D03*
X10750000Y10050000D03*
X9150000Y8450000D03*
X9150000Y10050000D03*
X9150000Y11650000D03*
X7550000Y11650000D03*
X7550000Y13250000D03*
X5950000Y-13950000D03*
X5950000Y-12350000D03*
X5950000Y-10750000D03*
X5950000Y11650000D03*
X5950000Y13250000D03*
X4350000Y-13950000D03*
X4350000Y-12350000D03*
X4350000Y-10750000D03*
X4350000Y11650000D03*
X4350000Y13250000D03*
X2750000Y-13950000D03*
X2750000Y6850000D03*
X2750000Y8450000D03*
X2750000Y10050000D03*
X2750000Y11650000D03*
X2750000Y13250000D03*
X2750000Y14850000D03*
X1150000Y-13950000D03*
X1150000Y11650000D03*
X1150000Y13250000D03*
X1150000Y14850000D03*
X-450000Y-13950000D03*
X-450000Y11650000D03*
X-450000Y13250000D03*
X-450000Y14850000D03*
X-2050000Y-13950000D03*
X-2050000Y-12350000D03*
X-2050000Y11650000D03*
X-2050000Y13250000D03*
X-2050000Y14850000D03*
X-3650000Y-13950000D03*
X-3650000Y-12350000D03*
X-3650000Y13250000D03*
X-3650000Y14850000D03*
X-5250000Y-13950000D03*
X-5250000Y-12350000D03*
X-5250000Y13250000D03*
X-6850000Y-12350000D03*
X-6850000Y-10750000D03*
X-6850000Y-9150000D03*
X-6850000Y-7550000D03*
X-6850000Y13250000D03*
X-8450000Y-12350000D03*
X-8450000Y-10750000D03*
X-8450000Y-9150000D03*
X-8450000Y-7550000D03*
X-10050000Y-10750000D03*
X-10050000Y-9150000D03*
X-10050000Y-7550000D03*
X-10050000Y-5950000D03*
X-10050000Y-4350000D03*
X-10050000Y-2750000D03*
X-10050000Y-1150000D03*
X-11650000Y-9150000D03*
X-11650000Y-7550000D03*
X-11650000Y-5950000D03*
X-11650000Y-4350000D03*
X-11650000Y-2750000D03*
X-11650000Y2050000D03*
X-11650000Y3650000D03*
X-11650000Y5250000D03*
X-13250000Y-7550000D03*
X-13250000Y-5950000D03*
X-13250000Y-4350000D03*
X-13250000Y-2750000D03*
X-13250000Y-1150000D03*
X-13250000Y450000D03*
X-13250000Y2050000D03*
X-13250000Y3650000D03*
X-13250000Y5250000D03*
X-13250000Y6850000D03*
X-14850000Y-2750000D03*
X-14850000Y-1150000D03*
X-14850000Y450000D03*
X-14850000Y2050000D03*
X-14850000Y3650000D03*
%TD*%
M02*
