%TF.GenerationSoftware,KiCad,Pcbnew,10.0.0*%
%TF.CreationDate,2026-09-03T12:15:46+02:00*%
%TF.ProjectId,activation_interface,61637469-7661-4746-996f-6e5f696e7465,rev?*%
%TF.SameCoordinates,Original*%
%TF.FileFunction,Copper,L4,Inr*%
%TF.FilePolarity,Positive*%
%FSLAX46Y46*%
G04 Gerber Fmt 4.6, Leading zero omitted, Abs format (unit mm)*
G04 Created by KiCad (PCBNEW 10.0.0) date 2026-09-03 12:15:46*
%MOMM*%
%LPD*%
G01*
G04 APERTURE LIST*
%TA.AperFunction,ViaPad*%
%ADD10C,0.450000*%
%TD*%
%TA.AperFunction,Conductor*%
%ADD11C,0.100000*%
%TD*%
G04 APERTURE END LIST*
D10*
%TO.N,FIRE_HV*%
X562600Y-1363400D03*
X-2600000Y7933000D03*
X6788600Y9621300D03*
%TO.N,FLEX_GND*%
X1450000Y3550000D03*
X-11411400Y2850000D03*
X-5005300Y12450000D03*
X6750000Y12450000D03*
%TO.N,3V3*%
X6350000Y3670000D03*
X9600000Y4460000D03*
X3660000Y11010000D03*
X14000000Y-5910000D03*
X-6670000Y-600000D03*
X8910000Y10810000D03*
%TO.N,I2C3_SCL*%
X-464900Y3002700D03*
X10076100Y2976100D03*
%TO.N,I2C3_SDA*%
X500000Y3009500D03*
X10750000Y4491200D03*
%TO.N,H3LIS_INT1*%
X9995200Y2105100D03*
X3507000Y2354400D03*
%TO.N,COMP_5V*%
X-4820000Y-8200000D03*
X-5580000Y1950000D03*
%TO.N,FLEX_GND*%
X393900Y11082200D03*
%TO.N,COMP_5V*%
X3480000Y450000D03*
X5050000Y-4400000D03*
X-3770000Y-7090000D03*
X12327200Y4496700D03*
%TO.N,FIRE_FB*%
X-2163500Y1837100D03*
X4850000Y-5510000D03*
X5186700Y-2217700D03*
%TO.N,FIRE_COMP*%
X-4130000Y4280000D03*
X5490000Y-5760000D03*
%TO.N,FIRE_SW*%
X-5317800Y-7519200D03*
X3294500Y4971400D03*
%TO.N,FIRE_FREQ*%
X-5930000Y1150000D03*
X5220000Y-7580000D03*
%TO.N,3V3_AON*%
X13373300Y-3595500D03*
X13107800Y6274800D03*
X4350000Y10884000D03*
%TO.N,ACTIVATE_CONFIRM*%
X14709700Y-2878900D03*
%TO.N,ACTIVATE_SET*%
X14710500Y-1333800D03*
%TO.N,BAT_PROT*%
X9736700Y6057600D03*
X12682900Y-312500D03*
X3512200Y14850000D03*
%TO.N,BAT_RAW*%
X475600Y-13275600D03*
X14566700Y1305100D03*
X8877400Y9243600D03*
%TO.N,BOOT0*%
X14708500Y3831800D03*
%TO.N,COMP_SWDCLK*%
X12431000Y-6708500D03*
%TO.N,COMP_SWDIO*%
X11773300Y-6704000D03*
%TO.N,EXT_CAN_RX*%
X13190700Y-2906900D03*
%TO.N,EXT_CAN_TX*%
X13111300Y8450000D03*
X13720200Y-350000D03*
%TO.N,FIN1_AOUT1*%
X9419300Y-6704000D03*
X11593900Y-126700D03*
%TO.N,FIN2_AOUT1*%
X12032900Y-3587900D03*
X13307100Y1280300D03*
%TO.N,FIN3_AOUT1*%
X12990800Y-2063500D03*
X13108800Y2386600D03*
%TO.N,FIN4_AOUT1*%
X11855700Y7695200D03*
X11658800Y4611200D03*
%TO.N,FIN_HALL*%
X11503300Y6697600D03*
X11505600Y10148300D03*
%TO.N,FIN_VREF*%
X11492000Y9461600D03*
%TO.N,GPIO_EXT_0*%
X10750000Y-3593800D03*
X8303400Y13250000D03*
%TO.N,GPIO_EXT_1*%
X9922500Y-2664200D03*
X6706900Y-13950000D03*
%TO.N,GPIO_EXT_2*%
X10750000Y-1975900D03*
X6709500Y-12231800D03*
%TO.N,GPIO_EXT_3*%
X10517500Y-308100D03*
X5950000Y-8396500D03*
%TO.N,JUMP_WAKE*%
X8311700Y12673300D03*
%TO.N,NRST*%
X9986600Y8197500D03*
X6720600Y-13374800D03*
%TO.N,SWO*%
X6715400Y-11329000D03*
X9991200Y9857300D03*
%TO.N,SYS_I2C_SCL*%
X4350000Y-9982400D03*
X8397300Y-5950000D03*
%TO.N,SYS_I2C_SDA*%
X8395700Y-4527600D03*
X5112200Y12673300D03*
%TO.N,SYS_SPI_CS_FIN*%
X10407300Y-5104600D03*
X3512500Y-10849300D03*
%TO.N,SYS_SPI_MISO*%
X2750000Y6097300D03*
X8125200Y1207000D03*
%TO.N,SYS_SPI_MOSI*%
X9548800Y1213000D03*
X3516400Y8450000D03*
%TO.N,SYS_SPI_SCLK*%
X3503700Y9873000D03*
X8125200Y6003500D03*
%TD*%
%TO.N,FIRE_HV*%
D11*
X5100300Y7933000D02*
X-2600000Y7933000D01*
X6788600Y9621300D02*
X5100300Y7933000D01*
%TO.N,BAT_RAW*%
X14566700Y1305100D02*
X14190200Y928600D01*
X475600Y-11613200D02*
X475600Y-13275600D01*
X13155600Y928600D02*
X9914900Y-2312100D01*
X9776700Y-2312100D02*
X475600Y-11613200D01*
X9914900Y-2312100D02*
X9776700Y-2312100D01*
X14190200Y928600D02*
X13155600Y928600D01*
%TO.N,SYS_I2C_SCL*%
X4350000Y-9495600D02*
X7895600Y-5950000D01*
X7895600Y-5950000D02*
X8397300Y-5950000D01*
X4350000Y-9982400D02*
X4350000Y-9495600D01*
%TO.N,SYS_SPI_CS_FIN*%
X4662600Y-10849300D02*
X10407300Y-5104600D01*
X3512500Y-10849300D02*
X4662600Y-10849300D01*
%TO.N,SYS_SPI_MISO*%
X8125200Y1207000D02*
X7640300Y1207000D01*
X7640300Y1207000D02*
X2750000Y6097300D01*
%TD*%
M02*
