%TF.GenerationSoftware,KiCad,Pcbnew,10.0.0*%
%TF.CreationDate,2026-09-03T12:15:47+02:00*%
%TF.ProjectId,activation_interface,61637469-7661-4746-996f-6e5f696e7465,rev?*%
%TF.SameCoordinates,Original*%
%TF.FileFunction,Drillmap*%
%TF.FilePolarity,Positive*%
%FSLAX45Y45*%
G04 Gerber Fmt 4.5, Leading zero omitted, Abs format (unit mm)*
G04 Created by KiCad (PCBNEW 10.0.0) date 2026-09-03 12:15:47*
%MOMM*%
%LPD*%
G01*
G04 APERTURE LIST*
%ADD10C,0.150000*%
%ADD11C,0.200000*%
%ADD12C,0.100000*%
G04 APERTURE END LIST*
D10*
X1700000Y0D02*
G75*
G02*
X-1700000Y0I-1700000J0D01*
G01*
X-1700000Y0D02*
G75*
G02*
X1700000Y0I1700000J0D01*
G01*
D11*
D12*
X-1151140Y295000D02*
X-1131140Y275000D01*
X-1131140Y295000D02*
X-1151140Y275000D01*
X-677000Y-50000D02*
X-657000Y-70000D01*
X-657000Y-50000D02*
X-677000Y-70000D01*
X-603000Y125000D02*
X-583000Y105000D01*
X-583000Y125000D02*
X-603000Y105000D01*
X-568000Y205000D02*
X-548000Y185000D01*
X-548000Y205000D02*
X-568000Y185000D01*
X-541780Y-741920D02*
X-521780Y-761920D01*
X-521780Y-741920D02*
X-541780Y-761920D01*
X-510530Y1255000D02*
X-490530Y1235000D01*
X-490530Y1255000D02*
X-510530Y1235000D01*
X-492000Y-810000D02*
X-472000Y-830000D01*
X-472000Y-810000D02*
X-492000Y-830000D01*
X-423000Y438000D02*
X-403000Y418000D01*
X-403000Y438000D02*
X-423000Y418000D01*
X-387000Y-699000D02*
X-367000Y-719000D01*
X-367000Y-699000D02*
X-387000Y-719000D01*
X-270000Y803300D02*
X-250000Y783300D01*
X-250000Y803300D02*
X-270000Y783300D01*
X-226350Y193710D02*
X-206350Y173710D01*
X-206350Y193710D02*
X-226350Y173710D01*
X-56490Y310270D02*
X-36490Y290270D01*
X-36490Y310270D02*
X-56490Y290270D01*
X29390Y1118220D02*
X49390Y1098220D01*
X49390Y1118220D02*
X29390Y1098220D01*
X37560Y-1317560D02*
X57560Y-1337560D01*
X57560Y-1317560D02*
X37560Y-1337560D01*
X40000Y310950D02*
X60000Y290950D01*
X60000Y310950D02*
X40000Y290950D01*
X46260Y-126340D02*
X66260Y-146340D01*
X66260Y-126340D02*
X46260Y-146340D01*
X135000Y365000D02*
X155000Y345000D01*
X155000Y365000D02*
X135000Y345000D01*
X265000Y619730D02*
X285000Y599730D01*
X285000Y619730D02*
X265000Y599730D01*
X319450Y507140D02*
X339450Y487140D01*
X339450Y507140D02*
X319450Y487140D01*
X338000Y55000D02*
X358000Y35000D01*
X358000Y55000D02*
X338000Y35000D01*
X340370Y997300D02*
X360370Y977300D01*
X360370Y997300D02*
X340370Y977300D01*
X340700Y245440D02*
X360700Y225440D01*
X360700Y245440D02*
X340700Y225440D01*
X341220Y1495000D02*
X361220Y1475000D01*
X361220Y1495000D02*
X341220Y1475000D01*
X341250Y-1074930D02*
X361250Y-1094930D01*
X361250Y-1074930D02*
X341250Y-1094930D01*
X341640Y855000D02*
X361640Y835000D01*
X361640Y855000D02*
X341640Y835000D01*
X356000Y1111000D02*
X376000Y1091000D01*
X376000Y1111000D02*
X356000Y1091000D01*
X425000Y1098400D02*
X445000Y1078400D01*
X445000Y1098400D02*
X425000Y1078400D01*
X425000Y-988240D02*
X445000Y-1008240D01*
X445000Y-988240D02*
X425000Y-1008240D01*
X475000Y-541000D02*
X495000Y-561000D01*
X495000Y-541000D02*
X475000Y-561000D01*
X495000Y-430000D02*
X515000Y-450000D01*
X515000Y-430000D02*
X495000Y-450000D01*
X501220Y1277330D02*
X521220Y1257330D01*
X521220Y1277330D02*
X501220Y1257330D01*
X508670Y-211770D02*
X528670Y-231770D01*
X528670Y-211770D02*
X508670Y-231770D01*
X512000Y-748000D02*
X532000Y-768000D01*
X532000Y-748000D02*
X512000Y-768000D01*
X539000Y-566000D02*
X559000Y-586000D01*
X559000Y-566000D02*
X539000Y-586000D01*
X585000Y-829650D02*
X605000Y-849650D01*
X605000Y-829650D02*
X585000Y-849650D01*
X625000Y377000D02*
X645000Y357000D01*
X645000Y377000D02*
X625000Y357000D01*
X660690Y-1385000D02*
X680690Y-1405000D01*
X680690Y-1385000D02*
X660690Y-1405000D01*
X660950Y-1213180D02*
X680950Y-1233180D01*
X680950Y-1213180D02*
X660950Y-1233180D01*
X661540Y-1122900D02*
X681540Y-1142900D01*
X681540Y-1122900D02*
X661540Y-1142900D01*
X662060Y-1327480D02*
X682060Y-1347480D01*
X682060Y-1327480D02*
X662060Y-1347480D01*
X665000Y1255000D02*
X685000Y1235000D01*
X685000Y1255000D02*
X665000Y1235000D01*
X668860Y972130D02*
X688860Y952130D01*
X688860Y972130D02*
X668860Y952130D01*
X802520Y610350D02*
X822520Y590350D01*
X822520Y610350D02*
X802520Y590350D01*
X802520Y130700D02*
X822520Y110700D01*
X822520Y130700D02*
X802520Y110700D01*
X820340Y1335000D02*
X840340Y1315000D01*
X840340Y1335000D02*
X820340Y1315000D01*
X821170Y1277330D02*
X841170Y1257330D01*
X841170Y1277330D02*
X821170Y1257330D01*
X829570Y-442760D02*
X849570Y-462760D01*
X849570Y-442760D02*
X829570Y-462760D01*
X829730Y-585000D02*
X849730Y-605000D01*
X849730Y-585000D02*
X829730Y-605000D01*
X877740Y934360D02*
X897740Y914360D01*
X897740Y934360D02*
X877740Y914360D01*
X881000Y1091000D02*
X901000Y1071000D01*
X901000Y1091000D02*
X881000Y1071000D01*
X931930Y-660400D02*
X951930Y-680400D01*
X951930Y-660400D02*
X931930Y-680400D01*
X944880Y131300D02*
X964880Y111300D01*
X964880Y131300D02*
X944880Y111300D01*
X950000Y456000D02*
X970000Y436000D01*
X970000Y456000D02*
X950000Y436000D01*
X963670Y615760D02*
X983670Y595760D01*
X983670Y615760D02*
X963670Y595760D01*
X982250Y-256420D02*
X1002250Y-276420D01*
X1002250Y-256420D02*
X982250Y-276420D01*
X988660Y829750D02*
X1008660Y809750D01*
X1008660Y829750D02*
X988660Y809750D01*
X989120Y995730D02*
X1009120Y975730D01*
X1009120Y995730D02*
X989120Y975730D01*
X989520Y220510D02*
X1009520Y200510D01*
X1009520Y220510D02*
X989520Y200510D01*
X997610Y307610D02*
X1017610Y287610D01*
X1017610Y307610D02*
X997610Y287610D01*
X1030730Y-500460D02*
X1050730Y-520460D01*
X1050730Y-500460D02*
X1030730Y-520460D01*
X1041750Y-20810D02*
X1061750Y-40810D01*
X1061750Y-20810D02*
X1041750Y-40810D01*
X1065000Y459120D02*
X1085000Y439120D01*
X1085000Y459120D02*
X1065000Y439120D01*
X1065000Y-187590D02*
X1085000Y-207590D01*
X1085000Y-187590D02*
X1065000Y-207590D01*
X1065000Y-349380D02*
X1085000Y-369380D01*
X1085000Y-349380D02*
X1065000Y-369380D01*
X1139200Y956160D02*
X1159200Y936160D01*
X1159200Y956160D02*
X1139200Y936160D01*
X1140330Y679760D02*
X1160330Y659760D01*
X1160330Y679760D02*
X1140330Y659760D01*
X1140560Y1024830D02*
X1160560Y1004830D01*
X1160560Y1024830D02*
X1140560Y1004830D01*
X1149390Y-2670D02*
X1169390Y-22670D01*
X1169390Y-2670D02*
X1149390Y-22670D01*
X1155880Y471120D02*
X1175880Y451120D01*
X1175880Y471120D02*
X1155880Y451120D01*
X1167330Y-660400D02*
X1187330Y-680400D01*
X1187330Y-660400D02*
X1167330Y-680400D01*
X1175570Y779520D02*
X1195570Y759520D01*
X1195570Y779520D02*
X1175570Y759520D01*
X1193290Y-348790D02*
X1213290Y-368790D01*
X1213290Y-348790D02*
X1193290Y-368790D01*
X1222720Y459670D02*
X1242720Y439670D01*
X1242720Y459670D02*
X1222720Y439670D01*
X1233100Y-660850D02*
X1253100Y-680850D01*
X1253100Y-660850D02*
X1233100Y-680850D01*
X1258290Y-21250D02*
X1278290Y-41250D01*
X1278290Y-21250D02*
X1258290Y-41250D01*
X1289080Y-196350D02*
X1309080Y-216350D01*
X1309080Y-196350D02*
X1289080Y-216350D01*
X1300780Y637480D02*
X1320780Y617480D01*
X1320780Y637480D02*
X1300780Y617480D01*
X1300880Y248660D02*
X1320880Y228660D01*
X1320880Y248660D02*
X1300880Y228660D01*
X1301130Y855000D02*
X1321130Y835000D01*
X1321130Y855000D02*
X1301130Y835000D01*
X1309070Y-280690D02*
X1329070Y-300690D01*
X1329070Y-280690D02*
X1309070Y-300690D01*
X1320710Y138030D02*
X1340710Y118030D01*
X1340710Y138030D02*
X1320710Y118030D01*
X1327330Y-349550D02*
X1347330Y-369550D01*
X1347330Y-349550D02*
X1327330Y-369550D01*
X1362020Y-25000D02*
X1382020Y-45000D01*
X1382020Y-25000D02*
X1362020Y-45000D01*
X1390000Y-581000D02*
X1410000Y-601000D01*
X1410000Y-581000D02*
X1390000Y-601000D01*
X1446670Y140510D02*
X1466670Y120510D01*
X1466670Y140510D02*
X1446670Y120510D01*
X1460850Y393180D02*
X1480850Y373180D01*
X1480850Y393180D02*
X1460850Y373180D01*
X1460970Y-277890D02*
X1480970Y-297890D01*
X1480970Y-277890D02*
X1460970Y-297890D01*
X1461050Y-123380D02*
X1481050Y-143380D01*
X1481050Y-123380D02*
X1461050Y-143380D01*
D11*
X-1446723Y-2018984D02*
X-1446723Y-1818984D01*
X-1446723Y-1818984D02*
X-1399104Y-1818984D01*
X-1399104Y-1818984D02*
X-1370533Y-1828508D01*
X-1370533Y-1828508D02*
X-1351485Y-1847555D01*
X-1351485Y-1847555D02*
X-1341961Y-1866603D01*
X-1341961Y-1866603D02*
X-1332437Y-1904698D01*
X-1332437Y-1904698D02*
X-1332437Y-1933269D01*
X-1332437Y-1933269D02*
X-1341961Y-1971365D01*
X-1341961Y-1971365D02*
X-1351485Y-1990412D01*
X-1351485Y-1990412D02*
X-1370533Y-2009460D01*
X-1370533Y-2009460D02*
X-1399104Y-2018984D01*
X-1399104Y-2018984D02*
X-1446723Y-2018984D01*
X-1246723Y-2018984D02*
X-1246723Y-1885650D01*
X-1246723Y-1923746D02*
X-1237199Y-1904698D01*
X-1237199Y-1904698D02*
X-1227676Y-1895174D01*
X-1227676Y-1895174D02*
X-1208628Y-1885650D01*
X-1208628Y-1885650D02*
X-1189580Y-1885650D01*
X-1122914Y-2018984D02*
X-1122914Y-1885650D01*
X-1122914Y-1818984D02*
X-1132437Y-1828508D01*
X-1132437Y-1828508D02*
X-1122914Y-1838031D01*
X-1122914Y-1838031D02*
X-1113390Y-1828508D01*
X-1113390Y-1828508D02*
X-1122914Y-1818984D01*
X-1122914Y-1818984D02*
X-1122914Y-1838031D01*
X-999104Y-2018984D02*
X-1018152Y-2009460D01*
X-1018152Y-2009460D02*
X-1027675Y-1990412D01*
X-1027675Y-1990412D02*
X-1027675Y-1818984D01*
X-894342Y-2018984D02*
X-913390Y-2009460D01*
X-913390Y-2009460D02*
X-922914Y-1990412D01*
X-922914Y-1990412D02*
X-922914Y-1818984D01*
X-665771Y-2018984D02*
X-665771Y-1818984D01*
X-665771Y-1818984D02*
X-599104Y-1961841D01*
X-599104Y-1961841D02*
X-532437Y-1818984D01*
X-532437Y-1818984D02*
X-532437Y-2018984D01*
X-351485Y-2018984D02*
X-351485Y-1914222D01*
X-351485Y-1914222D02*
X-361009Y-1895174D01*
X-361009Y-1895174D02*
X-380056Y-1885650D01*
X-380056Y-1885650D02*
X-418152Y-1885650D01*
X-418152Y-1885650D02*
X-437199Y-1895174D01*
X-351485Y-2009460D02*
X-370533Y-2018984D01*
X-370533Y-2018984D02*
X-418152Y-2018984D01*
X-418152Y-2018984D02*
X-437199Y-2009460D01*
X-437199Y-2009460D02*
X-446723Y-1990412D01*
X-446723Y-1990412D02*
X-446723Y-1971365D01*
X-446723Y-1971365D02*
X-437199Y-1952317D01*
X-437199Y-1952317D02*
X-418152Y-1942793D01*
X-418152Y-1942793D02*
X-370533Y-1942793D01*
X-370533Y-1942793D02*
X-351485Y-1933269D01*
X-256247Y-1885650D02*
X-256247Y-2085650D01*
X-256247Y-1895174D02*
X-237199Y-1885650D01*
X-237199Y-1885650D02*
X-199104Y-1885650D01*
X-199104Y-1885650D02*
X-180056Y-1895174D01*
X-180056Y-1895174D02*
X-170533Y-1904698D01*
X-170533Y-1904698D02*
X-161009Y-1923746D01*
X-161009Y-1923746D02*
X-161009Y-1980888D01*
X-161009Y-1980888D02*
X-170533Y-1999936D01*
X-170533Y-1999936D02*
X-180056Y-2009460D01*
X-180056Y-2009460D02*
X-199104Y-2018984D01*
X-199104Y-2018984D02*
X-237199Y-2018984D01*
X-237199Y-2018984D02*
X-256247Y-2009460D01*
X-75295Y-1999936D02*
X-65771Y-2009460D01*
X-65771Y-2009460D02*
X-75295Y-2018984D01*
X-75295Y-2018984D02*
X-84818Y-2009460D01*
X-84818Y-2009460D02*
X-75295Y-1999936D01*
X-75295Y-1999936D02*
X-75295Y-2018984D01*
X-75295Y-1895174D02*
X-65771Y-1904698D01*
X-65771Y-1904698D02*
X-75295Y-1914222D01*
X-75295Y-1914222D02*
X-84818Y-1904698D01*
X-84818Y-1904698D02*
X-75295Y-1895174D01*
X-75295Y-1895174D02*
X-75295Y-1914222D01*
D12*
X-1727500Y-2337500D02*
X-1707500Y-2357500D01*
X-1707500Y-2337500D02*
X-1727500Y-2357500D01*
D11*
X-1408628Y-2238984D02*
X-1389580Y-2238984D01*
X-1389580Y-2238984D02*
X-1370533Y-2248508D01*
X-1370533Y-2248508D02*
X-1361009Y-2258031D01*
X-1361009Y-2258031D02*
X-1351485Y-2277079D01*
X-1351485Y-2277079D02*
X-1341961Y-2315174D01*
X-1341961Y-2315174D02*
X-1341961Y-2362793D01*
X-1341961Y-2362793D02*
X-1351485Y-2400889D01*
X-1351485Y-2400889D02*
X-1361009Y-2419936D01*
X-1361009Y-2419936D02*
X-1370533Y-2429460D01*
X-1370533Y-2429460D02*
X-1389580Y-2438984D01*
X-1389580Y-2438984D02*
X-1408628Y-2438984D01*
X-1408628Y-2438984D02*
X-1427675Y-2429460D01*
X-1427675Y-2429460D02*
X-1437199Y-2419936D01*
X-1437199Y-2419936D02*
X-1446723Y-2400889D01*
X-1446723Y-2400889D02*
X-1456247Y-2362793D01*
X-1456247Y-2362793D02*
X-1456247Y-2315174D01*
X-1456247Y-2315174D02*
X-1446723Y-2277079D01*
X-1446723Y-2277079D02*
X-1437199Y-2258031D01*
X-1437199Y-2258031D02*
X-1427675Y-2248508D01*
X-1427675Y-2248508D02*
X-1408628Y-2238984D01*
X-1256247Y-2419936D02*
X-1246723Y-2429460D01*
X-1246723Y-2429460D02*
X-1256247Y-2438984D01*
X-1256247Y-2438984D02*
X-1265771Y-2429460D01*
X-1265771Y-2429460D02*
X-1256247Y-2419936D01*
X-1256247Y-2419936D02*
X-1256247Y-2438984D01*
X-1170533Y-2258031D02*
X-1161009Y-2248508D01*
X-1161009Y-2248508D02*
X-1141961Y-2238984D01*
X-1141961Y-2238984D02*
X-1094342Y-2238984D01*
X-1094342Y-2238984D02*
X-1075295Y-2248508D01*
X-1075295Y-2248508D02*
X-1065771Y-2258031D01*
X-1065771Y-2258031D02*
X-1056247Y-2277079D01*
X-1056247Y-2277079D02*
X-1056247Y-2296127D01*
X-1056247Y-2296127D02*
X-1065771Y-2324698D01*
X-1065771Y-2324698D02*
X-1180056Y-2438984D01*
X-1180056Y-2438984D02*
X-1056247Y-2438984D01*
X-932437Y-2238984D02*
X-913390Y-2238984D01*
X-913390Y-2238984D02*
X-894342Y-2248508D01*
X-894342Y-2248508D02*
X-884818Y-2258031D01*
X-884818Y-2258031D02*
X-875294Y-2277079D01*
X-875294Y-2277079D02*
X-865771Y-2315174D01*
X-865771Y-2315174D02*
X-865771Y-2362793D01*
X-865771Y-2362793D02*
X-875294Y-2400889D01*
X-875294Y-2400889D02*
X-884818Y-2419936D01*
X-884818Y-2419936D02*
X-894342Y-2429460D01*
X-894342Y-2429460D02*
X-913390Y-2438984D01*
X-913390Y-2438984D02*
X-932437Y-2438984D01*
X-932437Y-2438984D02*
X-951485Y-2429460D01*
X-951485Y-2429460D02*
X-961009Y-2419936D01*
X-961009Y-2419936D02*
X-970533Y-2400889D01*
X-970533Y-2400889D02*
X-980056Y-2362793D01*
X-980056Y-2362793D02*
X-980056Y-2315174D01*
X-980056Y-2315174D02*
X-970533Y-2277079D01*
X-970533Y-2277079D02*
X-961009Y-2258031D01*
X-961009Y-2258031D02*
X-951485Y-2248508D01*
X-951485Y-2248508D02*
X-932437Y-2238984D01*
X-741961Y-2238984D02*
X-722913Y-2238984D01*
X-722913Y-2238984D02*
X-703866Y-2248508D01*
X-703866Y-2248508D02*
X-694342Y-2258031D01*
X-694342Y-2258031D02*
X-684818Y-2277079D01*
X-684818Y-2277079D02*
X-675295Y-2315174D01*
X-675295Y-2315174D02*
X-675295Y-2362793D01*
X-675295Y-2362793D02*
X-684818Y-2400889D01*
X-684818Y-2400889D02*
X-694342Y-2419936D01*
X-694342Y-2419936D02*
X-703866Y-2429460D01*
X-703866Y-2429460D02*
X-722913Y-2438984D01*
X-722913Y-2438984D02*
X-741961Y-2438984D01*
X-741961Y-2438984D02*
X-761009Y-2429460D01*
X-761009Y-2429460D02*
X-770533Y-2419936D01*
X-770533Y-2419936D02*
X-780056Y-2400889D01*
X-780056Y-2400889D02*
X-789580Y-2362793D01*
X-789580Y-2362793D02*
X-789580Y-2315174D01*
X-789580Y-2315174D02*
X-780056Y-2277079D01*
X-780056Y-2277079D02*
X-770533Y-2258031D01*
X-770533Y-2258031D02*
X-761009Y-2248508D01*
X-761009Y-2248508D02*
X-741961Y-2238984D01*
X-589580Y-2438984D02*
X-589580Y-2305650D01*
X-589580Y-2324698D02*
X-580056Y-2315174D01*
X-580056Y-2315174D02*
X-561009Y-2305650D01*
X-561009Y-2305650D02*
X-532437Y-2305650D01*
X-532437Y-2305650D02*
X-513390Y-2315174D01*
X-513390Y-2315174D02*
X-503866Y-2334222D01*
X-503866Y-2334222D02*
X-503866Y-2438984D01*
X-503866Y-2334222D02*
X-494342Y-2315174D01*
X-494342Y-2315174D02*
X-475294Y-2305650D01*
X-475294Y-2305650D02*
X-446723Y-2305650D01*
X-446723Y-2305650D02*
X-427675Y-2315174D01*
X-427675Y-2315174D02*
X-418152Y-2334222D01*
X-418152Y-2334222D02*
X-418152Y-2438984D01*
X-322914Y-2438984D02*
X-322914Y-2305650D01*
X-322914Y-2324698D02*
X-313390Y-2315174D01*
X-313390Y-2315174D02*
X-294342Y-2305650D01*
X-294342Y-2305650D02*
X-265771Y-2305650D01*
X-265771Y-2305650D02*
X-246723Y-2315174D01*
X-246723Y-2315174D02*
X-237199Y-2334222D01*
X-237199Y-2334222D02*
X-237199Y-2438984D01*
X-237199Y-2334222D02*
X-227675Y-2315174D01*
X-227675Y-2315174D02*
X-208628Y-2305650D01*
X-208628Y-2305650D02*
X-180056Y-2305650D01*
X-180056Y-2305650D02*
X-161009Y-2315174D01*
X-161009Y-2315174D02*
X-151485Y-2334222D01*
X-151485Y-2334222D02*
X-151485Y-2438984D01*
X238991Y-2229460D02*
X67563Y-2486603D01*
X496134Y-2238984D02*
X515182Y-2238984D01*
X515182Y-2238984D02*
X534229Y-2248508D01*
X534229Y-2248508D02*
X543753Y-2258031D01*
X543753Y-2258031D02*
X553277Y-2277079D01*
X553277Y-2277079D02*
X562801Y-2315174D01*
X562801Y-2315174D02*
X562801Y-2362793D01*
X562801Y-2362793D02*
X553277Y-2400889D01*
X553277Y-2400889D02*
X543753Y-2419936D01*
X543753Y-2419936D02*
X534229Y-2429460D01*
X534229Y-2429460D02*
X515182Y-2438984D01*
X515182Y-2438984D02*
X496134Y-2438984D01*
X496134Y-2438984D02*
X477086Y-2429460D01*
X477086Y-2429460D02*
X467563Y-2419936D01*
X467563Y-2419936D02*
X458039Y-2400889D01*
X458039Y-2400889D02*
X448515Y-2362793D01*
X448515Y-2362793D02*
X448515Y-2315174D01*
X448515Y-2315174D02*
X458039Y-2277079D01*
X458039Y-2277079D02*
X467563Y-2258031D01*
X467563Y-2258031D02*
X477086Y-2248508D01*
X477086Y-2248508D02*
X496134Y-2238984D01*
X648515Y-2419936D02*
X658039Y-2429460D01*
X658039Y-2429460D02*
X648515Y-2438984D01*
X648515Y-2438984D02*
X638991Y-2429460D01*
X638991Y-2429460D02*
X648515Y-2419936D01*
X648515Y-2419936D02*
X648515Y-2438984D01*
X781848Y-2238984D02*
X800896Y-2238984D01*
X800896Y-2238984D02*
X819944Y-2248508D01*
X819944Y-2248508D02*
X829467Y-2258031D01*
X829467Y-2258031D02*
X838991Y-2277079D01*
X838991Y-2277079D02*
X848515Y-2315174D01*
X848515Y-2315174D02*
X848515Y-2362793D01*
X848515Y-2362793D02*
X838991Y-2400889D01*
X838991Y-2400889D02*
X829467Y-2419936D01*
X829467Y-2419936D02*
X819944Y-2429460D01*
X819944Y-2429460D02*
X800896Y-2438984D01*
X800896Y-2438984D02*
X781848Y-2438984D01*
X781848Y-2438984D02*
X762801Y-2429460D01*
X762801Y-2429460D02*
X753277Y-2419936D01*
X753277Y-2419936D02*
X743753Y-2400889D01*
X743753Y-2400889D02*
X734229Y-2362793D01*
X734229Y-2362793D02*
X734229Y-2315174D01*
X734229Y-2315174D02*
X743753Y-2277079D01*
X743753Y-2277079D02*
X753277Y-2258031D01*
X753277Y-2258031D02*
X762801Y-2248508D01*
X762801Y-2248508D02*
X781848Y-2238984D01*
X972325Y-2238984D02*
X991372Y-2238984D01*
X991372Y-2238984D02*
X1010420Y-2248508D01*
X1010420Y-2248508D02*
X1019944Y-2258031D01*
X1019944Y-2258031D02*
X1029467Y-2277079D01*
X1029467Y-2277079D02*
X1038991Y-2315174D01*
X1038991Y-2315174D02*
X1038991Y-2362793D01*
X1038991Y-2362793D02*
X1029467Y-2400889D01*
X1029467Y-2400889D02*
X1019944Y-2419936D01*
X1019944Y-2419936D02*
X1010420Y-2429460D01*
X1010420Y-2429460D02*
X991372Y-2438984D01*
X991372Y-2438984D02*
X972325Y-2438984D01*
X972325Y-2438984D02*
X953277Y-2429460D01*
X953277Y-2429460D02*
X943753Y-2419936D01*
X943753Y-2419936D02*
X934229Y-2400889D01*
X934229Y-2400889D02*
X924706Y-2362793D01*
X924706Y-2362793D02*
X924706Y-2315174D01*
X924706Y-2315174D02*
X934229Y-2277079D01*
X934229Y-2277079D02*
X943753Y-2258031D01*
X943753Y-2258031D02*
X953277Y-2248508D01*
X953277Y-2248508D02*
X972325Y-2238984D01*
X1105658Y-2238984D02*
X1238991Y-2238984D01*
X1238991Y-2238984D02*
X1153277Y-2438984D01*
X1324706Y-2438984D02*
X1362801Y-2438984D01*
X1362801Y-2438984D02*
X1381849Y-2429460D01*
X1381849Y-2429460D02*
X1391372Y-2419936D01*
X1391372Y-2419936D02*
X1410420Y-2391365D01*
X1410420Y-2391365D02*
X1419944Y-2353270D01*
X1419944Y-2353270D02*
X1419944Y-2277079D01*
X1419944Y-2277079D02*
X1410420Y-2258031D01*
X1410420Y-2258031D02*
X1400896Y-2248508D01*
X1400896Y-2248508D02*
X1381849Y-2238984D01*
X1381849Y-2238984D02*
X1343753Y-2238984D01*
X1343753Y-2238984D02*
X1324706Y-2248508D01*
X1324706Y-2248508D02*
X1315182Y-2258031D01*
X1315182Y-2258031D02*
X1305658Y-2277079D01*
X1305658Y-2277079D02*
X1305658Y-2324698D01*
X1305658Y-2324698D02*
X1315182Y-2343746D01*
X1315182Y-2343746D02*
X1324706Y-2353270D01*
X1324706Y-2353270D02*
X1343753Y-2362793D01*
X1343753Y-2362793D02*
X1381849Y-2362793D01*
X1381849Y-2362793D02*
X1400896Y-2353270D01*
X1400896Y-2353270D02*
X1410420Y-2343746D01*
X1410420Y-2343746D02*
X1419944Y-2324698D01*
X1496134Y-2238984D02*
X1496134Y-2277079D01*
X1572325Y-2238984D02*
X1572325Y-2277079D01*
X1867563Y-2515174D02*
X1858039Y-2505650D01*
X1858039Y-2505650D02*
X1838991Y-2477079D01*
X1838991Y-2477079D02*
X1829468Y-2458031D01*
X1829468Y-2458031D02*
X1819944Y-2429460D01*
X1819944Y-2429460D02*
X1810420Y-2381841D01*
X1810420Y-2381841D02*
X1810420Y-2343746D01*
X1810420Y-2343746D02*
X1819944Y-2296127D01*
X1819944Y-2296127D02*
X1829468Y-2267555D01*
X1829468Y-2267555D02*
X1838991Y-2248508D01*
X1838991Y-2248508D02*
X1858039Y-2219936D01*
X1858039Y-2219936D02*
X1867563Y-2210412D01*
X1972325Y-2324698D02*
X1953277Y-2315174D01*
X1953277Y-2315174D02*
X1943753Y-2305650D01*
X1943753Y-2305650D02*
X1934229Y-2286603D01*
X1934229Y-2286603D02*
X1934229Y-2277079D01*
X1934229Y-2277079D02*
X1943753Y-2258031D01*
X1943753Y-2258031D02*
X1953277Y-2248508D01*
X1953277Y-2248508D02*
X1972325Y-2238984D01*
X1972325Y-2238984D02*
X2010420Y-2238984D01*
X2010420Y-2238984D02*
X2029468Y-2248508D01*
X2029468Y-2248508D02*
X2038991Y-2258031D01*
X2038991Y-2258031D02*
X2048515Y-2277079D01*
X2048515Y-2277079D02*
X2048515Y-2286603D01*
X2048515Y-2286603D02*
X2038991Y-2305650D01*
X2038991Y-2305650D02*
X2029468Y-2315174D01*
X2029468Y-2315174D02*
X2010420Y-2324698D01*
X2010420Y-2324698D02*
X1972325Y-2324698D01*
X1972325Y-2324698D02*
X1953277Y-2334222D01*
X1953277Y-2334222D02*
X1943753Y-2343746D01*
X1943753Y-2343746D02*
X1934229Y-2362793D01*
X1934229Y-2362793D02*
X1934229Y-2400889D01*
X1934229Y-2400889D02*
X1943753Y-2419936D01*
X1943753Y-2419936D02*
X1953277Y-2429460D01*
X1953277Y-2429460D02*
X1972325Y-2438984D01*
X1972325Y-2438984D02*
X2010420Y-2438984D01*
X2010420Y-2438984D02*
X2029468Y-2429460D01*
X2029468Y-2429460D02*
X2038991Y-2419936D01*
X2038991Y-2419936D02*
X2048515Y-2400889D01*
X2048515Y-2400889D02*
X2048515Y-2362793D01*
X2048515Y-2362793D02*
X2038991Y-2343746D01*
X2038991Y-2343746D02*
X2029468Y-2334222D01*
X2029468Y-2334222D02*
X2010420Y-2324698D01*
X2162801Y-2324698D02*
X2143753Y-2315174D01*
X2143753Y-2315174D02*
X2134230Y-2305650D01*
X2134230Y-2305650D02*
X2124706Y-2286603D01*
X2124706Y-2286603D02*
X2124706Y-2277079D01*
X2124706Y-2277079D02*
X2134230Y-2258031D01*
X2134230Y-2258031D02*
X2143753Y-2248508D01*
X2143753Y-2248508D02*
X2162801Y-2238984D01*
X2162801Y-2238984D02*
X2200896Y-2238984D01*
X2200896Y-2238984D02*
X2219944Y-2248508D01*
X2219944Y-2248508D02*
X2229468Y-2258031D01*
X2229468Y-2258031D02*
X2238991Y-2277079D01*
X2238991Y-2277079D02*
X2238991Y-2286603D01*
X2238991Y-2286603D02*
X2229468Y-2305650D01*
X2229468Y-2305650D02*
X2219944Y-2315174D01*
X2219944Y-2315174D02*
X2200896Y-2324698D01*
X2200896Y-2324698D02*
X2162801Y-2324698D01*
X2162801Y-2324698D02*
X2143753Y-2334222D01*
X2143753Y-2334222D02*
X2134230Y-2343746D01*
X2134230Y-2343746D02*
X2124706Y-2362793D01*
X2124706Y-2362793D02*
X2124706Y-2400889D01*
X2124706Y-2400889D02*
X2134230Y-2419936D01*
X2134230Y-2419936D02*
X2143753Y-2429460D01*
X2143753Y-2429460D02*
X2162801Y-2438984D01*
X2162801Y-2438984D02*
X2200896Y-2438984D01*
X2200896Y-2438984D02*
X2219944Y-2429460D01*
X2219944Y-2429460D02*
X2229468Y-2419936D01*
X2229468Y-2419936D02*
X2238991Y-2400889D01*
X2238991Y-2400889D02*
X2238991Y-2362793D01*
X2238991Y-2362793D02*
X2229468Y-2343746D01*
X2229468Y-2343746D02*
X2219944Y-2334222D01*
X2219944Y-2334222D02*
X2200896Y-2324698D01*
X2477087Y-2438984D02*
X2477087Y-2238984D01*
X2562801Y-2438984D02*
X2562801Y-2334222D01*
X2562801Y-2334222D02*
X2553277Y-2315174D01*
X2553277Y-2315174D02*
X2534230Y-2305650D01*
X2534230Y-2305650D02*
X2505658Y-2305650D01*
X2505658Y-2305650D02*
X2486611Y-2315174D01*
X2486611Y-2315174D02*
X2477087Y-2324698D01*
X2686611Y-2438984D02*
X2667563Y-2429460D01*
X2667563Y-2429460D02*
X2658039Y-2419936D01*
X2658039Y-2419936D02*
X2648515Y-2400889D01*
X2648515Y-2400889D02*
X2648515Y-2343746D01*
X2648515Y-2343746D02*
X2658039Y-2324698D01*
X2658039Y-2324698D02*
X2667563Y-2315174D01*
X2667563Y-2315174D02*
X2686611Y-2305650D01*
X2686611Y-2305650D02*
X2715182Y-2305650D01*
X2715182Y-2305650D02*
X2734230Y-2315174D01*
X2734230Y-2315174D02*
X2743753Y-2324698D01*
X2743753Y-2324698D02*
X2753277Y-2343746D01*
X2753277Y-2343746D02*
X2753277Y-2400889D01*
X2753277Y-2400889D02*
X2743753Y-2419936D01*
X2743753Y-2419936D02*
X2734230Y-2429460D01*
X2734230Y-2429460D02*
X2715182Y-2438984D01*
X2715182Y-2438984D02*
X2686611Y-2438984D01*
X2867563Y-2438984D02*
X2848515Y-2429460D01*
X2848515Y-2429460D02*
X2838991Y-2410412D01*
X2838991Y-2410412D02*
X2838991Y-2238984D01*
X3019944Y-2429460D02*
X3000896Y-2438984D01*
X3000896Y-2438984D02*
X2962801Y-2438984D01*
X2962801Y-2438984D02*
X2943753Y-2429460D01*
X2943753Y-2429460D02*
X2934230Y-2410412D01*
X2934230Y-2410412D02*
X2934230Y-2334222D01*
X2934230Y-2334222D02*
X2943753Y-2315174D01*
X2943753Y-2315174D02*
X2962801Y-2305650D01*
X2962801Y-2305650D02*
X3000896Y-2305650D01*
X3000896Y-2305650D02*
X3019944Y-2315174D01*
X3019944Y-2315174D02*
X3029468Y-2334222D01*
X3029468Y-2334222D02*
X3029468Y-2353270D01*
X3029468Y-2353270D02*
X2934230Y-2372317D01*
X3105658Y-2429460D02*
X3124706Y-2438984D01*
X3124706Y-2438984D02*
X3162801Y-2438984D01*
X3162801Y-2438984D02*
X3181849Y-2429460D01*
X3181849Y-2429460D02*
X3191372Y-2410412D01*
X3191372Y-2410412D02*
X3191372Y-2400889D01*
X3191372Y-2400889D02*
X3181849Y-2381841D01*
X3181849Y-2381841D02*
X3162801Y-2372317D01*
X3162801Y-2372317D02*
X3134230Y-2372317D01*
X3134230Y-2372317D02*
X3115182Y-2362793D01*
X3115182Y-2362793D02*
X3105658Y-2343746D01*
X3105658Y-2343746D02*
X3105658Y-2334222D01*
X3105658Y-2334222D02*
X3115182Y-2315174D01*
X3115182Y-2315174D02*
X3134230Y-2305650D01*
X3134230Y-2305650D02*
X3162801Y-2305650D01*
X3162801Y-2305650D02*
X3181849Y-2315174D01*
X3258039Y-2515174D02*
X3267563Y-2505650D01*
X3267563Y-2505650D02*
X3286611Y-2477079D01*
X3286611Y-2477079D02*
X3296134Y-2458031D01*
X3296134Y-2458031D02*
X3305658Y-2429460D01*
X3305658Y-2429460D02*
X3315182Y-2381841D01*
X3315182Y-2381841D02*
X3315182Y-2343746D01*
X3315182Y-2343746D02*
X3305658Y-2296127D01*
X3305658Y-2296127D02*
X3296134Y-2267555D01*
X3296134Y-2267555D02*
X3286611Y-2248508D01*
X3286611Y-2248508D02*
X3267563Y-2219936D01*
X3267563Y-2219936D02*
X3258039Y-2210412D01*
M02*
