%TF.GenerationSoftware,KiCad,Pcbnew,10.0.0*%
%TF.CreationDate,2026-08-28T12:46:40+02:00*%
%TF.ProjectId,activation_interface,61637469-7661-4746-996f-6e5f696e7465,rev?*%
%TF.SameCoordinates,Original*%
%TF.FileFunction,Copper,L1,Top*%
%TF.FilePolarity,Positive*%
%FSLAX46Y46*%
G04 Gerber Fmt 4.6, Leading zero omitted, Abs format (unit mm)*
G04 Created by KiCad (PCBNEW 10.0.0) date 2026-08-28 12:46:40*
%MOMM*%
%LPD*%
G01*
G04 APERTURE LIST*
%TA.AperFunction,SMDPad,CuDef*%
%ADD10R,2.450000X4.900000*%
%TD*%
%TA.AperFunction,SMDPad,CuDef*%
%ADD11R,0.300000X0.600000*%
%TD*%
%TA.AperFunction,SMDPad,CuDef*%
%ADD12R,0.850000X0.950000*%
%TD*%
%TA.AperFunction,SMDPad,CuDef*%
%ADD13R,0.550000X0.600000*%
%TD*%
%TA.AperFunction,SMDPad,CuDef*%
%ADD14R,2.000000X3.050000*%
%TD*%
%TA.AperFunction,SMDPad,CuDef*%
%ADD15R,0.450000X1.475000*%
%TD*%
%TA.AperFunction,SMDPad,CuDef*%
%ADD16R,2.310000X2.460000*%
%TD*%
%TA.AperFunction,SMDPad,CuDef*%
%ADD17R,0.900000X0.900000*%
%TD*%
G04 APERTURE END LIST*
D10*
%TO.P,L_FIRE,1*%
%TO.N,COMP_5V*%
X-9300000Y-4000000D03*
%TO.P,L_FIRE,2*%
%TO.N,FIRE_SW*%
X-5700000Y-4000000D03*
%TD*%
D11*
%TO.P,U_HACC,1*%
%TO.N,3V3*%
X-200000Y0D03*
%TO.P,U_HACC,2*%
%TO.N,N/C*%
X-200000Y500000D03*
%TO.P,U_HACC,3*%
X-200000Y1000000D03*
%TO.P,U_HACC,4*%
%TO.N,I2C3_SCL*%
X-200000Y1500000D03*
%TO.P,U_HACC,5*%
%TO.N,FLEX_GND*%
X-200000Y2000000D03*
%TO.P,U_HACC,6*%
%TO.N,I2C3_SDA*%
X500000Y2200000D03*
%TO.P,U_HACC,7*%
%TO.N,FLEX_GND*%
X1000000Y2200000D03*
%TO.P,U_HACC,8*%
%TO.N,3V3*%
X1500000Y2200000D03*
%TO.P,U_HACC,9*%
%TO.N,N/C*%
X2200000Y2000000D03*
%TO.P,U_HACC,10*%
%TO.N,FLEX_GND*%
X2200000Y1500000D03*
%TO.P,U_HACC,11*%
%TO.N,H3LIS_INT1*%
X2200000Y1000000D03*
%TO.P,U_HACC,12*%
%TO.N,FLEX_GND*%
X2200000Y500000D03*
%TO.P,U_HACC,13*%
X2200000Y0D03*
%TO.P,U_HACC,14*%
%TO.N,3V3*%
X1500000Y-200000D03*
%TO.P,U_HACC,15*%
X1000000Y-200000D03*
%TO.P,U_HACC,16*%
%TO.N,FLEX_GND*%
X500000Y-200000D03*
%TD*%
D12*
%TO.P,C_FIRE_OUT_1,1*%
%TO.N,FIRE_HV*%
X-175000Y-1326000D03*
%TO.P,C_FIRE_OUT_1,2*%
%TO.N,FLEX_GND*%
X1425000Y-1326000D03*
%TD*%
D13*
%TO.P,C_HACC1,1*%
%TO.N,3V3*%
X-1151000Y-475000D03*
%TO.P,C_HACC1,2*%
%TO.N,FLEX_GND*%
X-1151000Y475000D03*
%TD*%
D14*
%TO.P,D_FIRE,1*%
%TO.N,FIRE_HV*%
X-2600000Y6101000D03*
%TO.P,D_FIRE,2*%
%TO.N,FIRE_SW*%
X4600000Y6101000D03*
%TD*%
D12*
%TO.P,C_HACC2_2,1*%
%TO.N,3V3*%
X-175000Y-2377000D03*
%TO.P,C_HACC2_2,2*%
%TO.N,FLEX_GND*%
X1425000Y-2377000D03*
%TD*%
%TO.P,C_HACC2_1,1*%
%TO.N,3V3*%
X-3026000Y-1326000D03*
%TO.P,C_HACC2_1,2*%
%TO.N,FLEX_GND*%
X-1426000Y-1326000D03*
%TD*%
D13*
%TO.P,C_FIRE_SS,1*%
%TO.N,FIRE_SS*%
X-1852000Y-475000D03*
%TO.P,C_FIRE_SS,2*%
%TO.N,FLEX_GND*%
X-1852000Y475000D03*
%TD*%
D12*
%TO.P,C_FIRE_COMP,1*%
%TO.N,FIRE_COMP_C*%
X-3026000Y1326000D03*
%TO.P,C_FIRE_COMP,2*%
%TO.N,FLEX_GND*%
X-1426000Y1326000D03*
%TD*%
D13*
%TO.P,R_FIRE_FREQ,1*%
%TO.N,FIRE_FREQ*%
X-2553000Y-475000D03*
%TO.P,R_FIRE_FREQ,2*%
%TO.N,FLEX_GND*%
X-2553000Y475000D03*
%TD*%
D12*
%TO.P,C_FIRE_IN_2,1*%
%TO.N,COMP_5V*%
X-3026000Y-2377000D03*
%TO.P,C_FIRE_IN_2,2*%
%TO.N,FLEX_GND*%
X-1426000Y-2377000D03*
%TD*%
%TO.P,C_FIRE_IN_3,1*%
%TO.N,COMP_5V*%
X3326000Y-175000D03*
%TO.P,C_FIRE_IN_3,2*%
%TO.N,FLEX_GND*%
X3326000Y1425000D03*
%TD*%
%TO.P,C_HACC2_4,1*%
%TO.N,3V3*%
X-175000Y-3428000D03*
%TO.P,C_HACC2_4,2*%
%TO.N,FLEX_GND*%
X1425000Y-3428000D03*
%TD*%
%TO.P,C_HACC2_3,1*%
%TO.N,3V3*%
X2576000Y-3177000D03*
%TO.P,C_HACC2_3,2*%
%TO.N,FLEX_GND*%
X2576000Y-1577000D03*
%TD*%
D13*
%TO.P,R_FIRE_FB2,1*%
%TO.N,FIRE_FB*%
X-2076000Y2450000D03*
%TO.P,R_FIRE_FB2,2*%
%TO.N,FLEX_GND*%
X-1126000Y2450000D03*
%TD*%
D15*
%TO.P,U_FIRE_BOOST,1*%
%TO.N,FIRE_SW*%
X-2313000Y-8704000D03*
%TO.P,U_FIRE_BOOST,2*%
X-2313000Y-8054000D03*
%TO.P,U_FIRE_BOOST,3*%
%TO.N,COMP_5V*%
X-2313000Y-7404000D03*
%TO.P,U_FIRE_BOOST,4*%
X-2313000Y-6754000D03*
%TO.P,U_FIRE_BOOST,5*%
%TO.N,FIRE_SS*%
X-2313000Y-6104000D03*
%TO.P,U_FIRE_BOOST,6*%
%TO.N,FLEX_GND*%
X-2313000Y-5454000D03*
%TO.P,U_FIRE_BOOST,7*%
X-2313000Y-4804000D03*
%TO.P,U_FIRE_BOOST,8*%
%TO.N,FIRE_COMP*%
X3563000Y-4804000D03*
%TO.P,U_FIRE_BOOST,9*%
%TO.N,FIRE_FB*%
X3563000Y-5454000D03*
%TO.P,U_FIRE_BOOST,10*%
%TO.N,FIRE_FREQ*%
X3563000Y-6104000D03*
%TO.P,U_FIRE_BOOST,11*%
%TO.N,FLEX_GND*%
X3563000Y-6754000D03*
%TO.P,U_FIRE_BOOST,12*%
X3563000Y-7404000D03*
%TO.P,U_FIRE_BOOST,13*%
X3563000Y-8054000D03*
%TO.P,U_FIRE_BOOST,14*%
X3563000Y-8704000D03*
D16*
%TO.P,U_FIRE_BOOST,15*%
X625000Y-6754000D03*
%TD*%
D12*
%TO.P,C_FIRE_IN_1,1*%
%TO.N,COMP_5V*%
X-3026000Y-3428000D03*
%TO.P,C_FIRE_IN_1,2*%
%TO.N,FLEX_GND*%
X-1426000Y-3428000D03*
%TD*%
%TO.P,C_HACC2_5,1*%
%TO.N,3V3*%
X-5129000Y0D03*
%TO.P,C_HACC2_5,2*%
%TO.N,FLEX_GND*%
X-3529000Y0D03*
%TD*%
D13*
%TO.P,R_FIRE_FB1,1*%
%TO.N,FIRE_HV*%
X3501000Y-2076000D03*
%TO.P,R_FIRE_FB1,2*%
%TO.N,FIRE_FB*%
X3501000Y-1126000D03*
%TD*%
%TO.P,R_FIRE_COMP,1*%
%TO.N,FIRE_COMP*%
X-3677000Y2450000D03*
%TO.P,R_FIRE_COMP,2*%
%TO.N,FIRE_COMP_C*%
X-2727000Y2450000D03*
%TD*%
D12*
%TO.P,C_FIRE_OUT_2,1*%
%TO.N,FIRE_HV*%
X4377000Y-175000D03*
%TO.P,C_FIRE_OUT_2,2*%
%TO.N,FLEX_GND*%
X4377000Y1425000D03*
%TD*%
%TO.P,C_FIRE_IN_4,1*%
%TO.N,COMP_5V*%
X4377000Y-3026000D03*
%TO.P,C_FIRE_IN_4,2*%
%TO.N,FLEX_GND*%
X4377000Y-1426000D03*
%TD*%
%TO.P,C_FIRE_IN_5,1*%
%TO.N,COMP_5V*%
X-4528000Y1650000D03*
%TO.P,C_FIRE_IN_5,2*%
%TO.N,FLEX_GND*%
X-4528000Y3250000D03*
%TD*%
D17*
%TO.P,J_activation_interface_spacer_activation_interface_cell_floor_board,1*%
%TO.N,3V3*%
X13950000Y-5950000D03*
%TO.P,J_activation_interface_spacer_activation_interface_cell_floor_board,2*%
%TO.N,3V3_AON*%
X13950000Y-4350000D03*
%TO.P,J_activation_interface_spacer_activation_interface_cell_floor_board,3*%
%TO.N,ACTIVATE_CONFIRM*%
X13950000Y-2750000D03*
%TO.P,J_activation_interface_spacer_activation_interface_cell_floor_board,4*%
%TO.N,ACTIVATE_SET*%
X13950000Y-1150000D03*
%TO.P,J_activation_interface_spacer_activation_interface_cell_floor_board,5*%
%TO.N,BAT_PROT*%
X13950000Y450000D03*
%TO.P,J_activation_interface_spacer_activation_interface_cell_floor_board,6*%
%TO.N,BAT_RAW*%
X13950000Y2050000D03*
%TO.P,J_activation_interface_spacer_activation_interface_cell_floor_board,7*%
%TO.N,BOOT0*%
X13950000Y3650000D03*
%TO.P,J_activation_interface_spacer_activation_interface_cell_floor_board,8*%
%TO.N,COMP_5V*%
X13950000Y5250000D03*
%TO.P,J_activation_interface_spacer_activation_interface_cell_floor_board,9*%
%TO.N,COMP_SWDCLK*%
X12350000Y-5950000D03*
%TO.P,J_activation_interface_spacer_activation_interface_cell_floor_board,10*%
%TO.N,COMP_SWDIO*%
X12350000Y-4350000D03*
%TO.P,J_activation_interface_spacer_activation_interface_cell_floor_board,11*%
%TO.N,EXT_CAN_RX*%
X12350000Y-2750000D03*
%TO.P,J_activation_interface_spacer_activation_interface_cell_floor_board,12*%
%TO.N,EXT_CAN_TX*%
X12350000Y-1150000D03*
%TO.P,J_activation_interface_spacer_activation_interface_cell_floor_board,13*%
%TO.N,FIN1_AOUT1*%
X12350000Y450000D03*
%TO.P,J_activation_interface_spacer_activation_interface_cell_floor_board,14*%
%TO.N,FIN2_AOUT1*%
X12350000Y2050000D03*
%TO.P,J_activation_interface_spacer_activation_interface_cell_floor_board,15*%
%TO.N,FIN3_AOUT1*%
X12350000Y3650000D03*
%TO.P,J_activation_interface_spacer_activation_interface_cell_floor_board,16*%
%TO.N,FIN4_AOUT1*%
X12350000Y5250000D03*
%TO.P,J_activation_interface_spacer_activation_interface_cell_floor_board,17*%
%TO.N,FIN_HALL*%
X12350000Y6850000D03*
%TO.P,J_activation_interface_spacer_activation_interface_cell_floor_board,18*%
%TO.N,FIN_VREF*%
X12350000Y8450000D03*
%TO.P,J_activation_interface_spacer_activation_interface_cell_floor_board,19*%
%TO.N,FLEX_GND*%
X10750000Y-5950000D03*
%TO.P,J_activation_interface_spacer_activation_interface_cell_floor_board,20*%
%TO.N,GPIO_EXT_0*%
X10750000Y-4350000D03*
%TO.P,J_activation_interface_spacer_activation_interface_cell_floor_board,21*%
%TO.N,GPIO_EXT_1*%
X10750000Y-2750000D03*
%TO.P,J_activation_interface_spacer_activation_interface_cell_floor_board,22*%
%TO.N,GPIO_EXT_2*%
X10750000Y-1150000D03*
%TO.P,J_activation_interface_spacer_activation_interface_cell_floor_board,23*%
%TO.N,GPIO_EXT_3*%
X10750000Y450000D03*
%TO.P,J_activation_interface_spacer_activation_interface_cell_floor_board,24*%
%TO.N,H3LIS_INT1*%
X10750000Y2050000D03*
%TO.P,J_activation_interface_spacer_activation_interface_cell_floor_board,25*%
%TO.N,I2C3_SCL*%
X10750000Y3650000D03*
%TO.P,J_activation_interface_spacer_activation_interface_cell_floor_board,26*%
%TO.N,I2C3_SDA*%
X10750000Y5250000D03*
%TO.P,J_activation_interface_spacer_activation_interface_cell_floor_board,27*%
%TO.N,JUMP_WAKE*%
X10750000Y6850000D03*
%TO.P,J_activation_interface_spacer_activation_interface_cell_floor_board,28*%
%TO.N,NRST*%
X10750000Y8450000D03*
%TO.P,J_activation_interface_spacer_activation_interface_cell_floor_board,29*%
%TO.N,SWO*%
X10750000Y10050000D03*
%TO.P,J_activation_interface_spacer_activation_interface_cell_floor_board,30*%
%TO.N,SYS_I2C_SCL*%
X9150000Y-5950000D03*
%TO.P,J_activation_interface_spacer_activation_interface_cell_floor_board,31*%
%TO.N,SYS_I2C_SDA*%
X9150000Y-4350000D03*
%TO.P,J_activation_interface_spacer_activation_interface_cell_floor_board,32*%
%TO.N,SYS_SPI_CS_FIN*%
X9150000Y-2750000D03*
%TO.P,J_activation_interface_spacer_activation_interface_cell_floor_board,33*%
%TO.N,SYS_SPI_MISO*%
X9150000Y-1150000D03*
%TO.P,J_activation_interface_spacer_activation_interface_cell_floor_board,34*%
%TO.N,SYS_SPI_MOSI*%
X9150000Y450000D03*
%TO.P,J_activation_interface_spacer_activation_interface_cell_floor_board,35*%
%TO.N,SYS_SPI_SCLK*%
X9150000Y2050000D03*
%TO.P,J_activation_interface_spacer_activation_interface_cell_floor_board,36*%
%TO.N,3V3*%
X9150000Y3650000D03*
%TO.P,J_activation_interface_spacer_activation_interface_cell_floor_board,37*%
%TO.N,3V3_AON*%
X9150000Y5250000D03*
%TO.P,J_activation_interface_spacer_activation_interface_cell_floor_board,38*%
%TO.N,BAT_PROT*%
X9150000Y6850000D03*
%TO.P,J_activation_interface_spacer_activation_interface_cell_floor_board,39*%
%TO.N,BAT_RAW*%
X9150000Y8450000D03*
%TO.P,J_activation_interface_spacer_activation_interface_cell_floor_board,40*%
%TO.N,COMP_5V*%
X9150000Y10050000D03*
%TO.P,J_activation_interface_spacer_activation_interface_cell_floor_board,41*%
%TO.N,3V3*%
X9150000Y11650000D03*
%TO.P,J_activation_interface_spacer_activation_interface_cell_floor_board,42*%
%TO.N,FLEX_GND*%
X7550000Y-4350000D03*
%TO.P,J_activation_interface_spacer_activation_interface_cell_floor_board,43*%
X7550000Y-2750000D03*
%TO.P,J_activation_interface_spacer_activation_interface_cell_floor_board,44*%
X7550000Y-1150000D03*
%TO.P,J_activation_interface_spacer_activation_interface_cell_floor_board,45*%
X7550000Y450000D03*
%TO.P,J_activation_interface_spacer_activation_interface_cell_floor_board,46*%
X7550000Y2050000D03*
%TO.P,J_activation_interface_spacer_activation_interface_cell_floor_board,47*%
X7550000Y3650000D03*
%TO.P,J_activation_interface_spacer_activation_interface_cell_floor_board,48*%
X7550000Y5250000D03*
%TO.P,J_activation_interface_spacer_activation_interface_cell_floor_board,49*%
X7550000Y6850000D03*
%TO.P,J_activation_interface_spacer_activation_interface_cell_floor_board,50*%
X7550000Y8450000D03*
%TO.P,J_activation_interface_spacer_activation_interface_cell_floor_board,51*%
X7550000Y10050000D03*
%TO.P,J_activation_interface_spacer_activation_interface_cell_floor_board,52*%
X7550000Y11650000D03*
%TO.P,J_activation_interface_spacer_activation_interface_cell_floor_board,53*%
X7550000Y13250000D03*
%TO.P,J_activation_interface_spacer_activation_interface_cell_floor_board,54*%
X5950000Y-13950000D03*
%TO.P,J_activation_interface_spacer_activation_interface_cell_floor_board,55*%
X5950000Y-12350000D03*
%TO.P,J_activation_interface_spacer_activation_interface_cell_floor_board,56*%
X5950000Y-10750000D03*
%TO.P,J_activation_interface_spacer_activation_interface_cell_floor_board,57*%
X5950000Y-9150000D03*
%TO.P,J_activation_interface_spacer_activation_interface_cell_floor_board,58*%
X5950000Y-2750000D03*
%TO.P,J_activation_interface_spacer_activation_interface_cell_floor_board,59*%
X5950000Y-1150000D03*
%TO.P,J_activation_interface_spacer_activation_interface_cell_floor_board,60*%
X5950000Y450000D03*
%TO.P,J_activation_interface_spacer_activation_interface_cell_floor_board,61*%
X5950000Y11650000D03*
%TO.P,J_activation_interface_spacer_activation_interface_cell_floor_board,62*%
X5950000Y13250000D03*
%TO.P,J_activation_interface_spacer_activation_interface_cell_floor_board,63*%
X4350000Y-13950000D03*
%TO.P,J_activation_interface_spacer_activation_interface_cell_floor_board,64*%
X4350000Y-12350000D03*
%TO.P,J_activation_interface_spacer_activation_interface_cell_floor_board,65*%
X4350000Y-10750000D03*
%TO.P,J_activation_interface_spacer_activation_interface_cell_floor_board,66*%
X4350000Y11650000D03*
%TO.P,J_activation_interface_spacer_activation_interface_cell_floor_board,67*%
X4350000Y13250000D03*
%TO.P,J_activation_interface_spacer_activation_interface_cell_floor_board,68*%
X2750000Y-13950000D03*
%TO.P,J_activation_interface_spacer_activation_interface_cell_floor_board,69*%
X2750000Y-12350000D03*
%TO.P,J_activation_interface_spacer_activation_interface_cell_floor_board,70*%
X2750000Y-10750000D03*
%TO.P,J_activation_interface_spacer_activation_interface_cell_floor_board,71*%
X2750000Y11650000D03*
%TO.P,J_activation_interface_spacer_activation_interface_cell_floor_board,72*%
X2750000Y13250000D03*
%TO.P,J_activation_interface_spacer_activation_interface_cell_floor_board,73*%
X2750000Y14850000D03*
%TO.P,J_activation_interface_spacer_activation_interface_cell_floor_board,74*%
X1150000Y-13950000D03*
%TO.P,J_activation_interface_spacer_activation_interface_cell_floor_board,75*%
X1150000Y-12350000D03*
%TO.P,J_activation_interface_spacer_activation_interface_cell_floor_board,76*%
X1150000Y-10750000D03*
%TO.P,J_activation_interface_spacer_activation_interface_cell_floor_board,77*%
X1150000Y11650000D03*
%TO.P,J_activation_interface_spacer_activation_interface_cell_floor_board,78*%
X1150000Y13250000D03*
%TO.P,J_activation_interface_spacer_activation_interface_cell_floor_board,79*%
X1150000Y14850000D03*
%TO.P,J_activation_interface_spacer_activation_interface_cell_floor_board,80*%
X-450000Y-13950000D03*
%TO.P,J_activation_interface_spacer_activation_interface_cell_floor_board,81*%
X-450000Y-12350000D03*
%TO.P,J_activation_interface_spacer_activation_interface_cell_floor_board,82*%
X-450000Y-10750000D03*
%TO.P,J_activation_interface_spacer_activation_interface_cell_floor_board,83*%
X-450000Y11650000D03*
%TO.P,J_activation_interface_spacer_activation_interface_cell_floor_board,84*%
X-450000Y13250000D03*
%TO.P,J_activation_interface_spacer_activation_interface_cell_floor_board,85*%
X-450000Y14850000D03*
%TO.P,J_activation_interface_spacer_activation_interface_cell_floor_board,86*%
X-2050000Y-13950000D03*
%TO.P,J_activation_interface_spacer_activation_interface_cell_floor_board,87*%
X-2050000Y-12350000D03*
%TO.P,J_activation_interface_spacer_activation_interface_cell_floor_board,88*%
X-2050000Y-10750000D03*
%TO.P,J_activation_interface_spacer_activation_interface_cell_floor_board,89*%
X-2050000Y11650000D03*
%TO.P,J_activation_interface_spacer_activation_interface_cell_floor_board,90*%
X-2050000Y13250000D03*
%TO.P,J_activation_interface_spacer_activation_interface_cell_floor_board,91*%
X-2050000Y14850000D03*
%TO.P,J_activation_interface_spacer_activation_interface_cell_floor_board,92*%
X-3650000Y-13950000D03*
%TO.P,J_activation_interface_spacer_activation_interface_cell_floor_board,93*%
X-3650000Y-12350000D03*
%TO.P,J_activation_interface_spacer_activation_interface_cell_floor_board,94*%
X-3650000Y-10750000D03*
%TO.P,J_activation_interface_spacer_activation_interface_cell_floor_board,95*%
X-3650000Y11650000D03*
%TO.P,J_activation_interface_spacer_activation_interface_cell_floor_board,96*%
X-3650000Y13250000D03*
%TO.P,J_activation_interface_spacer_activation_interface_cell_floor_board,97*%
X-3650000Y14850000D03*
%TO.P,J_activation_interface_spacer_activation_interface_cell_floor_board,98*%
X-5250000Y-13950000D03*
%TO.P,J_activation_interface_spacer_activation_interface_cell_floor_board,99*%
X-5250000Y-12350000D03*
%TO.P,J_activation_interface_spacer_activation_interface_cell_floor_board,100*%
X-5250000Y-10750000D03*
%TO.P,J_activation_interface_spacer_activation_interface_cell_floor_board,101*%
X-5250000Y-9150000D03*
%TO.P,J_activation_interface_spacer_activation_interface_cell_floor_board,102*%
X-5250000Y8450000D03*
%TO.P,J_activation_interface_spacer_activation_interface_cell_floor_board,103*%
X-5250000Y10050000D03*
%TO.P,J_activation_interface_spacer_activation_interface_cell_floor_board,104*%
X-5250000Y11650000D03*
%TO.P,J_activation_interface_spacer_activation_interface_cell_floor_board,105*%
X-5250000Y13250000D03*
%TO.P,J_activation_interface_spacer_activation_interface_cell_floor_board,106*%
X-6850000Y-12350000D03*
%TO.P,J_activation_interface_spacer_activation_interface_cell_floor_board,107*%
X-6850000Y-10750000D03*
%TO.P,J_activation_interface_spacer_activation_interface_cell_floor_board,108*%
X-6850000Y-9150000D03*
%TO.P,J_activation_interface_spacer_activation_interface_cell_floor_board,109*%
X-6850000Y450000D03*
%TO.P,J_activation_interface_spacer_activation_interface_cell_floor_board,110*%
X-6850000Y2050000D03*
%TO.P,J_activation_interface_spacer_activation_interface_cell_floor_board,111*%
X-6850000Y3650000D03*
%TO.P,J_activation_interface_spacer_activation_interface_cell_floor_board,112*%
X-6850000Y13250000D03*
%TO.P,J_activation_interface_spacer_activation_interface_cell_floor_board,113*%
X-8450000Y-12350000D03*
%TO.P,J_activation_interface_spacer_activation_interface_cell_floor_board,114*%
X-8450000Y-10750000D03*
%TO.P,J_activation_interface_spacer_activation_interface_cell_floor_board,115*%
X-8450000Y-9150000D03*
%TO.P,J_activation_interface_spacer_activation_interface_cell_floor_board,116*%
X-8450000Y450000D03*
%TO.P,J_activation_interface_spacer_activation_interface_cell_floor_board,117*%
X-8450000Y2050000D03*
%TO.P,J_activation_interface_spacer_activation_interface_cell_floor_board,118*%
X-8450000Y3650000D03*
%TO.P,J_activation_interface_spacer_activation_interface_cell_floor_board,119*%
X-8450000Y5250000D03*
%TO.P,J_activation_interface_spacer_activation_interface_cell_floor_board,120*%
X-10050000Y-10750000D03*
%TO.P,J_activation_interface_spacer_activation_interface_cell_floor_board,121*%
X-10050000Y-9150000D03*
%TO.P,J_activation_interface_spacer_activation_interface_cell_floor_board,122*%
X-10050000Y450000D03*
%TO.P,J_activation_interface_spacer_activation_interface_cell_floor_board,123*%
X-10050000Y2050000D03*
%TO.P,J_activation_interface_spacer_activation_interface_cell_floor_board,124*%
X-10050000Y3650000D03*
%TO.P,J_activation_interface_spacer_activation_interface_cell_floor_board,125*%
X-10050000Y5250000D03*
%TO.P,J_activation_interface_spacer_activation_interface_cell_floor_board,126*%
X-11650000Y-9150000D03*
%TO.P,J_activation_interface_spacer_activation_interface_cell_floor_board,127*%
X-11650000Y-7550000D03*
%TO.P,J_activation_interface_spacer_activation_interface_cell_floor_board,128*%
X-11650000Y450000D03*
%TO.P,J_activation_interface_spacer_activation_interface_cell_floor_board,129*%
X-11650000Y2050000D03*
%TO.P,J_activation_interface_spacer_activation_interface_cell_floor_board,130*%
X-11650000Y3650000D03*
%TO.P,J_activation_interface_spacer_activation_interface_cell_floor_board,131*%
X-11650000Y5250000D03*
%TO.P,J_activation_interface_spacer_activation_interface_cell_floor_board,132*%
X-13250000Y-7550000D03*
%TO.P,J_activation_interface_spacer_activation_interface_cell_floor_board,133*%
X-13250000Y-5950000D03*
%TO.P,J_activation_interface_spacer_activation_interface_cell_floor_board,134*%
X-13250000Y-4350000D03*
%TO.P,J_activation_interface_spacer_activation_interface_cell_floor_board,135*%
X-13250000Y-2750000D03*
%TO.P,J_activation_interface_spacer_activation_interface_cell_floor_board,136*%
X-13250000Y-1150000D03*
%TO.P,J_activation_interface_spacer_activation_interface_cell_floor_board,137*%
X-13250000Y450000D03*
%TO.P,J_activation_interface_spacer_activation_interface_cell_floor_board,138*%
X-13250000Y2050000D03*
%TO.P,J_activation_interface_spacer_activation_interface_cell_floor_board,139*%
X-13250000Y3650000D03*
%TO.P,J_activation_interface_spacer_activation_interface_cell_floor_board,140*%
X-13250000Y5250000D03*
%TO.P,J_activation_interface_spacer_activation_interface_cell_floor_board,141*%
X-13250000Y6850000D03*
%TO.P,J_activation_interface_spacer_activation_interface_cell_floor_board,142*%
X-14850000Y-2750000D03*
%TO.P,J_activation_interface_spacer_activation_interface_cell_floor_board,143*%
X-14850000Y-1150000D03*
%TO.P,J_activation_interface_spacer_activation_interface_cell_floor_board,144*%
X-14850000Y450000D03*
%TO.P,J_activation_interface_spacer_activation_interface_cell_floor_board,145*%
X-14850000Y2050000D03*
%TO.P,J_activation_interface_spacer_activation_interface_cell_floor_board,146*%
X-14850000Y3650000D03*
%TD*%
M02*
