%TF.GenerationSoftware,KiCad,Pcbnew,10.0.0*%
%TF.CreationDate,2026-08-28T12:46:40+02:00*%
%TF.ProjectId,activation_interface,61637469-7661-4746-996f-6e5f696e7465,rev?*%
%TF.SameCoordinates,Original*%
%TF.FileFunction,Copper,L14,Bot*%
%TF.FilePolarity,Positive*%
%FSLAX46Y46*%
G04 Gerber Fmt 4.6, Leading zero omitted, Abs format (unit mm)*
G04 Created by KiCad (PCBNEW 10.0.0) date 2026-08-28 12:46:40*
%MOMM*%
%LPD*%
G01*
G04 APERTURE LIST*
%TA.AperFunction,SMDPad,CuDef*%
%ADD10R,0.900000X0.900000*%
%TD*%
G04 APERTURE END LIST*
D10*
%TO.P,P_activation_interface_spacer_aft_end_board_activation_interface,1*%
%TO.N,3V3*%
X13950000Y-5950000D03*
%TO.P,P_activation_interface_spacer_aft_end_board_activation_interface,2*%
%TO.N,3V3_AON*%
X13950000Y-4350000D03*
%TO.P,P_activation_interface_spacer_aft_end_board_activation_interface,3*%
%TO.N,ACTIVATE_CONFIRM*%
X13950000Y-2750000D03*
%TO.P,P_activation_interface_spacer_aft_end_board_activation_interface,4*%
%TO.N,ACTIVATE_SET*%
X13950000Y-1150000D03*
%TO.P,P_activation_interface_spacer_aft_end_board_activation_interface,5*%
%TO.N,BAT_PROT*%
X13950000Y450000D03*
%TO.P,P_activation_interface_spacer_aft_end_board_activation_interface,6*%
%TO.N,BAT_RAW*%
X13950000Y2050000D03*
%TO.P,P_activation_interface_spacer_aft_end_board_activation_interface,7*%
%TO.N,BOOT0*%
X13950000Y3650000D03*
%TO.P,P_activation_interface_spacer_aft_end_board_activation_interface,8*%
%TO.N,COMP_5V*%
X13950000Y5250000D03*
%TO.P,P_activation_interface_spacer_aft_end_board_activation_interface,9*%
%TO.N,COMP_SWDCLK*%
X12350000Y-5950000D03*
%TO.P,P_activation_interface_spacer_aft_end_board_activation_interface,10*%
%TO.N,COMP_SWDIO*%
X12350000Y-4350000D03*
%TO.P,P_activation_interface_spacer_aft_end_board_activation_interface,11*%
%TO.N,EXT_CAN_RX*%
X12350000Y-2750000D03*
%TO.P,P_activation_interface_spacer_aft_end_board_activation_interface,12*%
%TO.N,EXT_CAN_TX*%
X12350000Y8450000D03*
%TO.P,P_activation_interface_spacer_aft_end_board_activation_interface,13*%
%TO.N,FIN1_AOUT1*%
X10750000Y-5950000D03*
%TO.P,P_activation_interface_spacer_aft_end_board_activation_interface,14*%
%TO.N,FIN2_AOUT1*%
X10750000Y-4350000D03*
%TO.P,P_activation_interface_spacer_aft_end_board_activation_interface,15*%
%TO.N,FIN3_AOUT1*%
X10750000Y-2750000D03*
%TO.P,P_activation_interface_spacer_aft_end_board_activation_interface,16*%
%TO.N,FIN4_AOUT1*%
X10750000Y8450000D03*
%TO.P,P_activation_interface_spacer_aft_end_board_activation_interface,17*%
%TO.N,FIN_HALL*%
X10750000Y10050000D03*
%TO.P,P_activation_interface_spacer_aft_end_board_activation_interface,18*%
%TO.N,FIN_VREF*%
X9150000Y8450000D03*
%TO.P,P_activation_interface_spacer_aft_end_board_activation_interface,19*%
%TO.N,FIRE_HV*%
X9150000Y10050000D03*
%TO.P,P_activation_interface_spacer_aft_end_board_activation_interface,20*%
%TO.N,FLEX_GND*%
X9150000Y11650000D03*
%TO.P,P_activation_interface_spacer_aft_end_board_activation_interface,21*%
%TO.N,GPIO_EXT_0*%
X7550000Y13250000D03*
%TO.P,P_activation_interface_spacer_aft_end_board_activation_interface,22*%
%TO.N,GPIO_EXT_1*%
X5950000Y-13950000D03*
%TO.P,P_activation_interface_spacer_aft_end_board_activation_interface,23*%
%TO.N,GPIO_EXT_2*%
X5950000Y-12350000D03*
%TO.P,P_activation_interface_spacer_aft_end_board_activation_interface,24*%
%TO.N,GPIO_EXT_3*%
X5950000Y-10750000D03*
%TO.P,P_activation_interface_spacer_aft_end_board_activation_interface,25*%
%TO.N,JUMP_WAKE*%
X5950000Y13250000D03*
%TO.P,P_activation_interface_spacer_aft_end_board_activation_interface,26*%
%TO.N,NRST*%
X4350000Y-13950000D03*
%TO.P,P_activation_interface_spacer_aft_end_board_activation_interface,27*%
%TO.N,SWO*%
X4350000Y-12350000D03*
%TO.P,P_activation_interface_spacer_aft_end_board_activation_interface,28*%
%TO.N,SYS_I2C_SCL*%
X4350000Y-10750000D03*
%TO.P,P_activation_interface_spacer_aft_end_board_activation_interface,29*%
%TO.N,SYS_I2C_SDA*%
X4350000Y13250000D03*
%TO.P,P_activation_interface_spacer_aft_end_board_activation_interface,30*%
%TO.N,SYS_SPI_CS_FIN*%
X2750000Y-13950000D03*
%TO.P,P_activation_interface_spacer_aft_end_board_activation_interface,31*%
%TO.N,SYS_SPI_MISO*%
X2750000Y6850000D03*
%TO.P,P_activation_interface_spacer_aft_end_board_activation_interface,32*%
%TO.N,SYS_SPI_MOSI*%
X2750000Y8450000D03*
%TO.P,P_activation_interface_spacer_aft_end_board_activation_interface,33*%
%TO.N,SYS_SPI_SCLK*%
X2750000Y10050000D03*
%TO.P,P_activation_interface_spacer_aft_end_board_activation_interface,34*%
%TO.N,3V3*%
X2750000Y11650000D03*
%TO.P,P_activation_interface_spacer_aft_end_board_activation_interface,35*%
%TO.N,3V3_AON*%
X2750000Y13250000D03*
%TO.P,P_activation_interface_spacer_aft_end_board_activation_interface,36*%
%TO.N,BAT_PROT*%
X2750000Y14850000D03*
%TO.P,P_activation_interface_spacer_aft_end_board_activation_interface,37*%
%TO.N,BAT_RAW*%
X1150000Y-13950000D03*
%TO.P,P_activation_interface_spacer_aft_end_board_activation_interface,38*%
%TO.N,COMP_5V*%
X1150000Y11650000D03*
%TO.P,P_activation_interface_spacer_aft_end_board_activation_interface,39*%
%TO.N,FIRE_HV*%
X1150000Y13250000D03*
%TO.P,P_activation_interface_spacer_aft_end_board_activation_interface,40*%
%TO.N,3V3*%
X1150000Y14850000D03*
%TO.P,P_activation_interface_spacer_aft_end_board_activation_interface,41*%
%TO.N,FLEX_GND*%
X-450000Y-13950000D03*
%TO.P,P_activation_interface_spacer_aft_end_board_activation_interface,42*%
X-450000Y11650000D03*
%TO.P,P_activation_interface_spacer_aft_end_board_activation_interface,43*%
X-450000Y13250000D03*
%TO.P,P_activation_interface_spacer_aft_end_board_activation_interface,44*%
X-450000Y14850000D03*
%TO.P,P_activation_interface_spacer_aft_end_board_activation_interface,45*%
X-2050000Y-13950000D03*
%TO.P,P_activation_interface_spacer_aft_end_board_activation_interface,46*%
X-2050000Y-12350000D03*
%TO.P,P_activation_interface_spacer_aft_end_board_activation_interface,47*%
X-2050000Y11650000D03*
%TO.P,P_activation_interface_spacer_aft_end_board_activation_interface,48*%
X-2050000Y13250000D03*
%TO.P,P_activation_interface_spacer_aft_end_board_activation_interface,49*%
X-2050000Y14850000D03*
%TO.P,P_activation_interface_spacer_aft_end_board_activation_interface,50*%
X-3650000Y-13950000D03*
%TO.P,P_activation_interface_spacer_aft_end_board_activation_interface,51*%
X-3650000Y-12350000D03*
%TO.P,P_activation_interface_spacer_aft_end_board_activation_interface,52*%
X-3650000Y13250000D03*
%TO.P,P_activation_interface_spacer_aft_end_board_activation_interface,53*%
X-3650000Y14850000D03*
%TO.P,P_activation_interface_spacer_aft_end_board_activation_interface,54*%
X-5250000Y-13950000D03*
%TO.P,P_activation_interface_spacer_aft_end_board_activation_interface,55*%
X-5250000Y-12350000D03*
%TO.P,P_activation_interface_spacer_aft_end_board_activation_interface,56*%
X-5250000Y13250000D03*
%TO.P,P_activation_interface_spacer_aft_end_board_activation_interface,57*%
X-6850000Y-12350000D03*
%TO.P,P_activation_interface_spacer_aft_end_board_activation_interface,58*%
X-6850000Y-10750000D03*
%TO.P,P_activation_interface_spacer_aft_end_board_activation_interface,59*%
X-6850000Y-9150000D03*
%TO.P,P_activation_interface_spacer_aft_end_board_activation_interface,60*%
X-6850000Y-7550000D03*
%TO.P,P_activation_interface_spacer_aft_end_board_activation_interface,61*%
X-6850000Y13250000D03*
%TO.P,P_activation_interface_spacer_aft_end_board_activation_interface,62*%
X-8450000Y-12350000D03*
%TO.P,P_activation_interface_spacer_aft_end_board_activation_interface,63*%
X-8450000Y-10750000D03*
%TO.P,P_activation_interface_spacer_aft_end_board_activation_interface,64*%
X-8450000Y-9150000D03*
%TO.P,P_activation_interface_spacer_aft_end_board_activation_interface,65*%
X-8450000Y-7550000D03*
%TO.P,P_activation_interface_spacer_aft_end_board_activation_interface,66*%
X-10050000Y-10750000D03*
%TO.P,P_activation_interface_spacer_aft_end_board_activation_interface,67*%
X-10050000Y-9150000D03*
%TO.P,P_activation_interface_spacer_aft_end_board_activation_interface,68*%
X-10050000Y-7550000D03*
%TO.P,P_activation_interface_spacer_aft_end_board_activation_interface,69*%
X-10050000Y-5950000D03*
%TO.P,P_activation_interface_spacer_aft_end_board_activation_interface,70*%
X-10050000Y-4350000D03*
%TO.P,P_activation_interface_spacer_aft_end_board_activation_interface,71*%
X-10050000Y-2750000D03*
%TO.P,P_activation_interface_spacer_aft_end_board_activation_interface,72*%
X-10050000Y-1150000D03*
%TO.P,P_activation_interface_spacer_aft_end_board_activation_interface,73*%
X-11650000Y-9150000D03*
%TO.P,P_activation_interface_spacer_aft_end_board_activation_interface,74*%
X-11650000Y-7550000D03*
%TO.P,P_activation_interface_spacer_aft_end_board_activation_interface,75*%
X-11650000Y-5950000D03*
%TO.P,P_activation_interface_spacer_aft_end_board_activation_interface,76*%
X-11650000Y-4350000D03*
%TO.P,P_activation_interface_spacer_aft_end_board_activation_interface,77*%
X-11650000Y-2750000D03*
%TO.P,P_activation_interface_spacer_aft_end_board_activation_interface,78*%
X-11650000Y2050000D03*
%TO.P,P_activation_interface_spacer_aft_end_board_activation_interface,79*%
X-11650000Y3650000D03*
%TO.P,P_activation_interface_spacer_aft_end_board_activation_interface,80*%
X-11650000Y5250000D03*
%TO.P,P_activation_interface_spacer_aft_end_board_activation_interface,81*%
X-13250000Y-7550000D03*
%TO.P,P_activation_interface_spacer_aft_end_board_activation_interface,82*%
X-13250000Y-5950000D03*
%TO.P,P_activation_interface_spacer_aft_end_board_activation_interface,83*%
X-13250000Y-4350000D03*
%TO.P,P_activation_interface_spacer_aft_end_board_activation_interface,84*%
X-13250000Y-2750000D03*
%TO.P,P_activation_interface_spacer_aft_end_board_activation_interface,85*%
X-13250000Y-1150000D03*
%TO.P,P_activation_interface_spacer_aft_end_board_activation_interface,86*%
X-13250000Y450000D03*
%TO.P,P_activation_interface_spacer_aft_end_board_activation_interface,87*%
X-13250000Y2050000D03*
%TO.P,P_activation_interface_spacer_aft_end_board_activation_interface,88*%
X-13250000Y3650000D03*
%TO.P,P_activation_interface_spacer_aft_end_board_activation_interface,89*%
X-13250000Y5250000D03*
%TO.P,P_activation_interface_spacer_aft_end_board_activation_interface,90*%
X-13250000Y6850000D03*
%TO.P,P_activation_interface_spacer_aft_end_board_activation_interface,91*%
X-14850000Y-2750000D03*
%TO.P,P_activation_interface_spacer_aft_end_board_activation_interface,92*%
X-14850000Y-1150000D03*
%TO.P,P_activation_interface_spacer_aft_end_board_activation_interface,93*%
X-14850000Y450000D03*
%TO.P,P_activation_interface_spacer_aft_end_board_activation_interface,94*%
X-14850000Y2050000D03*
%TO.P,P_activation_interface_spacer_aft_end_board_activation_interface,95*%
X-14850000Y3650000D03*
%TD*%
M02*
