%TF.GenerationSoftware,KiCad,Pcbnew,10.0.0*%
%TF.CreationDate,2026-08-28T12:46:40+02:00*%
%TF.ProjectId,activation_interface,61637469-7661-4746-996f-6e5f696e7465,rev?*%
%TF.SameCoordinates,Original*%
%TF.FileFunction,Legend,Bot*%
%TF.FilePolarity,Positive*%
%FSLAX46Y46*%
G04 Gerber Fmt 4.6, Leading zero omitted, Abs format (unit mm)*
G04 Created by KiCad (PCBNEW 10.0.0) date 2026-08-28 12:46:40*
%MOMM*%
%LPD*%
G01*
G04 APERTURE LIST*
%ADD10C,0.120000*%
G04 APERTURE END LIST*
D10*
X-1299000Y-12604000D02*
X21000Y-12604000D01*
X501000Y-12604000D02*
X1821000Y-12604000D01*
X2301000Y-12604000D02*
X2701000Y-12604000D01*
X2701000Y-12604000D02*
X2701000Y-11284000D01*
X2701000Y-10804000D02*
X2701000Y-9484000D01*
X2701000Y-9103000D02*
X4021000Y-9103000D01*
X4501000Y-9103000D02*
X5821000Y-9103000D01*
X6103000Y-9103000D02*
X6103000Y-9303000D01*
X6103000Y-9303000D02*
X7423000Y-9303000D01*
X7535200Y-9303000D02*
X8468581Y-10236381D01*
X8807992Y-10575792D02*
X9015600Y-10783400D01*
X9015600Y-10783400D02*
X9948981Y-9850019D01*
X10288392Y-9510608D02*
X10783400Y-9015600D01*
X10783400Y-9015600D02*
X9903000Y-8135200D01*
X9903000Y-8135200D02*
X9903000Y-6815200D01*
X9903000Y-6335200D02*
X9903000Y-5303000D01*
X9903000Y-5303000D02*
X9102000Y-5303000D01*
X9102000Y-5303000D02*
X9102000Y-3983000D01*
X9102000Y-3503000D02*
X9102000Y-2183000D01*
X9102000Y-1703000D02*
X9102000Y-1361500D01*
X9102000Y-1361500D02*
X10422000Y-1361500D01*
X10902000Y-1361500D02*
X11726000Y-1361500D01*
X11726000Y-1361500D02*
X11726000Y-41500D01*
X11726000Y438500D02*
X11726000Y1758500D01*
X11726000Y2238500D02*
X11726000Y3558500D01*
X11726000Y4038500D02*
X11726000Y5358500D01*
X11726000Y5838500D02*
X11726000Y7158500D01*
X11726000Y7563500D02*
X10406000Y7563500D01*
X9926000Y7563500D02*
X8606000Y7563500D01*
X8126000Y7563500D02*
X7576000Y7563500D01*
X7576000Y7563500D02*
X7576000Y8883500D01*
X7576000Y9363500D02*
X7576000Y10683500D01*
X7576000Y11064500D02*
X6256000Y11064500D01*
X5776000Y11064500D02*
X4456000Y11064500D01*
X3976000Y11064500D02*
X3576000Y11064500D01*
X3576000Y11064500D02*
X3576000Y9744500D01*
X3576000Y9264500D02*
X3576000Y7944500D01*
X3576000Y7464500D02*
X3576000Y6144500D01*
X3576000Y6001000D02*
X2256000Y6001000D01*
X2000000Y6001000D02*
X2000000Y7321000D01*
X2000000Y7801000D02*
X2000000Y9121000D01*
X2000000Y9502000D02*
X680000Y9502000D01*
X200000Y9502000D02*
X-1120000Y9502000D01*
X-1600000Y9502000D02*
X-2000000Y9502000D01*
X-2000000Y9502000D02*
X-2000000Y8182000D01*
X-2000000Y7702000D02*
X-2000000Y6382000D01*
X-2000000Y6001000D02*
X-3320000Y6001000D01*
X-3576000Y6001000D02*
X-3576000Y7321000D01*
X-3576000Y7603000D02*
X-3376000Y7603000D01*
X-3376000Y7603000D02*
X-3376000Y8923000D01*
X-3376000Y9403000D02*
X-3376000Y10723000D01*
X-3376000Y11203000D02*
X-3376000Y11403000D01*
X-3376000Y11403000D02*
X-4696000Y11403000D01*
X-5176000Y11403000D02*
X-6496000Y11403000D01*
X-6976000Y11403000D02*
X-7376000Y11403000D01*
X-7376000Y11403000D02*
X-7376000Y10083000D01*
X-7376000Y9603000D02*
X-7376000Y9143800D01*
X-7376000Y9143800D02*
X-8309381Y10077181D01*
X-8648792Y10416592D02*
X-9015600Y10783400D01*
X-9015600Y10783400D02*
X-9948981Y9850019D01*
X-10288392Y9510608D02*
X-10783400Y9015600D01*
X-10783400Y9015600D02*
X-9850019Y8082219D01*
X-9669800Y7902000D02*
X-10877000Y7902000D01*
X-10877000Y7902000D02*
X-10877000Y6582000D01*
X-10877000Y6102000D02*
X-10877000Y4782000D01*
X-10877000Y4302000D02*
X-10877000Y2982000D01*
X-10877000Y2502000D02*
X-10877000Y1182000D01*
X-10877000Y950000D02*
X-12000000Y950000D01*
X-12000000Y950000D02*
X-12000000Y-370000D01*
X-12000000Y-850000D02*
X-12000000Y-950000D01*
X-12000000Y-950000D02*
X-11000000Y-950000D01*
X-11000000Y-950000D02*
X-11000000Y201000D01*
X-11000000Y201000D02*
X-9680000Y201000D01*
X-9200000Y201000D02*
X-7880000Y201000D01*
X-7400000Y201000D02*
X-6202000Y201000D01*
X-6202000Y201000D02*
X-6202000Y-1119000D01*
X-6202000Y-1599000D02*
X-6202000Y-1602000D01*
X-6202000Y-1602000D02*
X-7522000Y-1602000D01*
X-8002000Y-1602000D02*
X-9002000Y-1602000D01*
X-9002000Y-1602000D02*
X-9002000Y-2922000D01*
X-9002000Y-3402000D02*
X-9002000Y-4722000D01*
X-9002000Y-5202000D02*
X-9002000Y-5602000D01*
X-9002000Y-5602000D02*
X-7682000Y-5602000D01*
X-7202000Y-5602000D02*
X-5882000Y-5602000D01*
X-5402000Y-5602000D02*
X-5061000Y-5602000D01*
X-5061000Y-5602000D02*
X-5061000Y-6922000D01*
X-5061000Y-7203000D02*
X-5701000Y-7203000D01*
X-5701000Y-7203000D02*
X-5701000Y-8523000D01*
X-5701000Y-9003000D02*
X-5701000Y-10323000D01*
X-5701000Y-10803000D02*
X-5701000Y-11003000D01*
X-5701000Y-11003000D02*
X-4381000Y-11003000D01*
X-3901000Y-11003000D02*
X-2581000Y-11003000D01*
X-2101000Y-11003000D02*
X-1299000Y-11003000D01*
X-1299000Y-11003000D02*
X-1299000Y-12323000D01*
X13580865Y12077240D02*
X13504674Y12039144D01*
X13504674Y12039144D02*
X13352293Y12039144D01*
X13352293Y12039144D02*
X13276103Y12077240D01*
X13276103Y12077240D02*
X13238007Y12153430D01*
X13238007Y12153430D02*
X13238007Y12191525D01*
X13238007Y12191525D02*
X13276103Y12267716D01*
X13276103Y12267716D02*
X13352293Y12305811D01*
X13352293Y12305811D02*
X13466579Y12305811D01*
X13466579Y12305811D02*
X13542769Y12343906D01*
X13542769Y12343906D02*
X13580865Y12420097D01*
X13580865Y12420097D02*
X13580865Y12458192D01*
X13580865Y12458192D02*
X13542769Y12534382D01*
X13542769Y12534382D02*
X13466579Y12572478D01*
X13466579Y12572478D02*
X13352293Y12572478D01*
X13352293Y12572478D02*
X13276103Y12534382D01*
X12895150Y12572478D02*
X12895150Y11772478D01*
X12895150Y12534382D02*
X12818960Y12572478D01*
X12818960Y12572478D02*
X12666579Y12572478D01*
X12666579Y12572478D02*
X12590388Y12534382D01*
X12590388Y12534382D02*
X12552293Y12496287D01*
X12552293Y12496287D02*
X12514198Y12420097D01*
X12514198Y12420097D02*
X12514198Y12191525D01*
X12514198Y12191525D02*
X12552293Y12115335D01*
X12552293Y12115335D02*
X12590388Y12077240D01*
X12590388Y12077240D02*
X12666579Y12039144D01*
X12666579Y12039144D02*
X12818960Y12039144D01*
X12818960Y12039144D02*
X12895150Y12077240D01*
X11828483Y12039144D02*
X11828483Y12458192D01*
X11828483Y12458192D02*
X11866578Y12534382D01*
X11866578Y12534382D02*
X11942769Y12572478D01*
X11942769Y12572478D02*
X12095150Y12572478D01*
X12095150Y12572478D02*
X12171340Y12534382D01*
X11828483Y12077240D02*
X11904674Y12039144D01*
X11904674Y12039144D02*
X12095150Y12039144D01*
X12095150Y12039144D02*
X12171340Y12077240D01*
X12171340Y12077240D02*
X12209436Y12153430D01*
X12209436Y12153430D02*
X12209436Y12229620D01*
X12209436Y12229620D02*
X12171340Y12305811D01*
X12171340Y12305811D02*
X12095150Y12343906D01*
X12095150Y12343906D02*
X11904674Y12343906D01*
X11904674Y12343906D02*
X11828483Y12382001D01*
X11104673Y12077240D02*
X11180864Y12039144D01*
X11180864Y12039144D02*
X11333245Y12039144D01*
X11333245Y12039144D02*
X11409435Y12077240D01*
X11409435Y12077240D02*
X11447530Y12115335D01*
X11447530Y12115335D02*
X11485626Y12191525D01*
X11485626Y12191525D02*
X11485626Y12420097D01*
X11485626Y12420097D02*
X11447530Y12496287D01*
X11447530Y12496287D02*
X11409435Y12534382D01*
X11409435Y12534382D02*
X11333245Y12572478D01*
X11333245Y12572478D02*
X11180864Y12572478D01*
X11180864Y12572478D02*
X11104673Y12534382D01*
X10457054Y12077240D02*
X10533245Y12039144D01*
X10533245Y12039144D02*
X10685626Y12039144D01*
X10685626Y12039144D02*
X10761816Y12077240D01*
X10761816Y12077240D02*
X10799912Y12153430D01*
X10799912Y12153430D02*
X10799912Y12458192D01*
X10799912Y12458192D02*
X10761816Y12534382D01*
X10761816Y12534382D02*
X10685626Y12572478D01*
X10685626Y12572478D02*
X10533245Y12572478D01*
X10533245Y12572478D02*
X10457054Y12534382D01*
X10457054Y12534382D02*
X10418959Y12458192D01*
X10418959Y12458192D02*
X10418959Y12382001D01*
X10418959Y12382001D02*
X10799912Y12305811D01*
X10076102Y12039144D02*
X10076102Y12572478D01*
X10076102Y12420097D02*
X10038007Y12496287D01*
X10038007Y12496287D02*
X9999912Y12534382D01*
X9999912Y12534382D02*
X9923721Y12572478D01*
X9923721Y12572478D02*
X9847531Y12572478D01*
X9771341Y11962954D02*
X9161817Y11962954D01*
X8628483Y12039144D02*
X8628483Y12458192D01*
X8628483Y12458192D02*
X8666578Y12534382D01*
X8666578Y12534382D02*
X8742769Y12572478D01*
X8742769Y12572478D02*
X8895150Y12572478D01*
X8895150Y12572478D02*
X8971340Y12534382D01*
X8628483Y12077240D02*
X8704674Y12039144D01*
X8704674Y12039144D02*
X8895150Y12039144D01*
X8895150Y12039144D02*
X8971340Y12077240D01*
X8971340Y12077240D02*
X9009436Y12153430D01*
X9009436Y12153430D02*
X9009436Y12229620D01*
X9009436Y12229620D02*
X8971340Y12305811D01*
X8971340Y12305811D02*
X8895150Y12343906D01*
X8895150Y12343906D02*
X8704674Y12343906D01*
X8704674Y12343906D02*
X8628483Y12382001D01*
X8361816Y12572478D02*
X8057054Y12572478D01*
X8247530Y12039144D02*
X8247530Y12724859D01*
X8247530Y12724859D02*
X8209435Y12801049D01*
X8209435Y12801049D02*
X8133245Y12839144D01*
X8133245Y12839144D02*
X8057054Y12839144D01*
X7904673Y12572478D02*
X7599911Y12572478D01*
X7790387Y12839144D02*
X7790387Y12153430D01*
X7790387Y12153430D02*
X7752292Y12077240D01*
X7752292Y12077240D02*
X7676102Y12039144D01*
X7676102Y12039144D02*
X7599911Y12039144D01*
X7523721Y11962954D02*
X6914197Y11962954D01*
X6418958Y12077240D02*
X6495149Y12039144D01*
X6495149Y12039144D02*
X6647530Y12039144D01*
X6647530Y12039144D02*
X6723720Y12077240D01*
X6723720Y12077240D02*
X6761816Y12153430D01*
X6761816Y12153430D02*
X6761816Y12458192D01*
X6761816Y12458192D02*
X6723720Y12534382D01*
X6723720Y12534382D02*
X6647530Y12572478D01*
X6647530Y12572478D02*
X6495149Y12572478D01*
X6495149Y12572478D02*
X6418958Y12534382D01*
X6418958Y12534382D02*
X6380863Y12458192D01*
X6380863Y12458192D02*
X6380863Y12382001D01*
X6380863Y12382001D02*
X6761816Y12305811D01*
X6038006Y12572478D02*
X6038006Y12039144D01*
X6038006Y12496287D02*
X5999911Y12534382D01*
X5999911Y12534382D02*
X5923721Y12572478D01*
X5923721Y12572478D02*
X5809435Y12572478D01*
X5809435Y12572478D02*
X5733244Y12534382D01*
X5733244Y12534382D02*
X5695149Y12458192D01*
X5695149Y12458192D02*
X5695149Y12039144D01*
X4971339Y12039144D02*
X4971339Y12839144D01*
X4971339Y12077240D02*
X5047530Y12039144D01*
X5047530Y12039144D02*
X5199911Y12039144D01*
X5199911Y12039144D02*
X5276101Y12077240D01*
X5276101Y12077240D02*
X5314196Y12115335D01*
X5314196Y12115335D02*
X5352292Y12191525D01*
X5352292Y12191525D02*
X5352292Y12420097D01*
X5352292Y12420097D02*
X5314196Y12496287D01*
X5314196Y12496287D02*
X5276101Y12534382D01*
X5276101Y12534382D02*
X5199911Y12572478D01*
X5199911Y12572478D02*
X5047530Y12572478D01*
X5047530Y12572478D02*
X4971339Y12534382D01*
X4780863Y11962954D02*
X4171339Y11962954D01*
X3980862Y12039144D02*
X3980862Y12839144D01*
X3980862Y12534382D02*
X3904672Y12572478D01*
X3904672Y12572478D02*
X3752291Y12572478D01*
X3752291Y12572478D02*
X3676100Y12534382D01*
X3676100Y12534382D02*
X3638005Y12496287D01*
X3638005Y12496287D02*
X3599910Y12420097D01*
X3599910Y12420097D02*
X3599910Y12191525D01*
X3599910Y12191525D02*
X3638005Y12115335D01*
X3638005Y12115335D02*
X3676100Y12077240D01*
X3676100Y12077240D02*
X3752291Y12039144D01*
X3752291Y12039144D02*
X3904672Y12039144D01*
X3904672Y12039144D02*
X3980862Y12077240D01*
X3142767Y12039144D02*
X3218957Y12077240D01*
X3218957Y12077240D02*
X3257052Y12115335D01*
X3257052Y12115335D02*
X3295148Y12191525D01*
X3295148Y12191525D02*
X3295148Y12420097D01*
X3295148Y12420097D02*
X3257052Y12496287D01*
X3257052Y12496287D02*
X3218957Y12534382D01*
X3218957Y12534382D02*
X3142767Y12572478D01*
X3142767Y12572478D02*
X3028481Y12572478D01*
X3028481Y12572478D02*
X2952290Y12534382D01*
X2952290Y12534382D02*
X2914195Y12496287D01*
X2914195Y12496287D02*
X2876100Y12420097D01*
X2876100Y12420097D02*
X2876100Y12191525D01*
X2876100Y12191525D02*
X2914195Y12115335D01*
X2914195Y12115335D02*
X2952290Y12077240D01*
X2952290Y12077240D02*
X3028481Y12039144D01*
X3028481Y12039144D02*
X3142767Y12039144D01*
X2190385Y12039144D02*
X2190385Y12458192D01*
X2190385Y12458192D02*
X2228480Y12534382D01*
X2228480Y12534382D02*
X2304671Y12572478D01*
X2304671Y12572478D02*
X2457052Y12572478D01*
X2457052Y12572478D02*
X2533242Y12534382D01*
X2190385Y12077240D02*
X2266576Y12039144D01*
X2266576Y12039144D02*
X2457052Y12039144D01*
X2457052Y12039144D02*
X2533242Y12077240D01*
X2533242Y12077240D02*
X2571338Y12153430D01*
X2571338Y12153430D02*
X2571338Y12229620D01*
X2571338Y12229620D02*
X2533242Y12305811D01*
X2533242Y12305811D02*
X2457052Y12343906D01*
X2457052Y12343906D02*
X2266576Y12343906D01*
X2266576Y12343906D02*
X2190385Y12382001D01*
X1809432Y12039144D02*
X1809432Y12572478D01*
X1809432Y12420097D02*
X1771337Y12496287D01*
X1771337Y12496287D02*
X1733242Y12534382D01*
X1733242Y12534382D02*
X1657051Y12572478D01*
X1657051Y12572478D02*
X1580861Y12572478D01*
X971337Y12039144D02*
X971337Y12839144D01*
X971337Y12077240D02*
X1047528Y12039144D01*
X1047528Y12039144D02*
X1199909Y12039144D01*
X1199909Y12039144D02*
X1276099Y12077240D01*
X1276099Y12077240D02*
X1314194Y12115335D01*
X1314194Y12115335D02*
X1352290Y12191525D01*
X1352290Y12191525D02*
X1352290Y12420097D01*
X1352290Y12420097D02*
X1314194Y12496287D01*
X1314194Y12496287D02*
X1276099Y12534382D01*
X1276099Y12534382D02*
X1199909Y12572478D01*
X1199909Y12572478D02*
X1047528Y12572478D01*
X1047528Y12572478D02*
X971337Y12534382D01*
X780861Y11962954D02*
X171337Y11962954D01*
X-361996Y12039144D02*
X-361996Y12458192D01*
X-361996Y12458192D02*
X-323901Y12534382D01*
X-323901Y12534382D02*
X-247710Y12572478D01*
X-247710Y12572478D02*
X-95329Y12572478D01*
X-95329Y12572478D02*
X-19139Y12534382D01*
X-361996Y12077240D02*
X-285805Y12039144D01*
X-285805Y12039144D02*
X-95329Y12039144D01*
X-95329Y12039144D02*
X-19139Y12077240D01*
X-19139Y12077240D02*
X18956Y12153430D01*
X18956Y12153430D02*
X18956Y12229620D01*
X18956Y12229620D02*
X-19139Y12305811D01*
X-19139Y12305811D02*
X-95329Y12343906D01*
X-95329Y12343906D02*
X-285805Y12343906D01*
X-285805Y12343906D02*
X-361996Y12382001D01*
X-1085806Y12077240D02*
X-1009615Y12039144D01*
X-1009615Y12039144D02*
X-857234Y12039144D01*
X-857234Y12039144D02*
X-781044Y12077240D01*
X-781044Y12077240D02*
X-742949Y12115335D01*
X-742949Y12115335D02*
X-704853Y12191525D01*
X-704853Y12191525D02*
X-704853Y12420097D01*
X-704853Y12420097D02*
X-742949Y12496287D01*
X-742949Y12496287D02*
X-781044Y12534382D01*
X-781044Y12534382D02*
X-857234Y12572478D01*
X-857234Y12572478D02*
X-1009615Y12572478D01*
X-1009615Y12572478D02*
X-1085806Y12534382D01*
X-1314377Y12572478D02*
X-1619139Y12572478D01*
X-1428663Y12839144D02*
X-1428663Y12153430D01*
X-1428663Y12153430D02*
X-1466758Y12077240D01*
X-1466758Y12077240D02*
X-1542948Y12039144D01*
X-1542948Y12039144D02*
X-1619139Y12039144D01*
X-1885806Y12039144D02*
X-1885806Y12572478D01*
X-1885806Y12839144D02*
X-1847710Y12801049D01*
X-1847710Y12801049D02*
X-1885806Y12762954D01*
X-1885806Y12762954D02*
X-1923901Y12801049D01*
X-1923901Y12801049D02*
X-1885806Y12839144D01*
X-1885806Y12839144D02*
X-1885806Y12762954D01*
X-2190567Y12572478D02*
X-2381043Y12039144D01*
X-2381043Y12039144D02*
X-2571520Y12572478D01*
X-3219139Y12039144D02*
X-3219139Y12458192D01*
X-3219139Y12458192D02*
X-3181044Y12534382D01*
X-3181044Y12534382D02*
X-3104853Y12572478D01*
X-3104853Y12572478D02*
X-2952472Y12572478D01*
X-2952472Y12572478D02*
X-2876282Y12534382D01*
X-3219139Y12077240D02*
X-3142948Y12039144D01*
X-3142948Y12039144D02*
X-2952472Y12039144D01*
X-2952472Y12039144D02*
X-2876282Y12077240D01*
X-2876282Y12077240D02*
X-2838186Y12153430D01*
X-2838186Y12153430D02*
X-2838186Y12229620D01*
X-2838186Y12229620D02*
X-2876282Y12305811D01*
X-2876282Y12305811D02*
X-2952472Y12343906D01*
X-2952472Y12343906D02*
X-3142948Y12343906D01*
X-3142948Y12343906D02*
X-3219139Y12382001D01*
X-3485806Y12572478D02*
X-3790568Y12572478D01*
X-3600092Y12839144D02*
X-3600092Y12153430D01*
X-3600092Y12153430D02*
X-3638187Y12077240D01*
X-3638187Y12077240D02*
X-3714377Y12039144D01*
X-3714377Y12039144D02*
X-3790568Y12039144D01*
X-4057235Y12039144D02*
X-4057235Y12572478D01*
X-4057235Y12839144D02*
X-4019139Y12801049D01*
X-4019139Y12801049D02*
X-4057235Y12762954D01*
X-4057235Y12762954D02*
X-4095330Y12801049D01*
X-4095330Y12801049D02*
X-4057235Y12839144D01*
X-4057235Y12839144D02*
X-4057235Y12762954D01*
X-4552472Y12039144D02*
X-4476282Y12077240D01*
X-4476282Y12077240D02*
X-4438187Y12115335D01*
X-4438187Y12115335D02*
X-4400091Y12191525D01*
X-4400091Y12191525D02*
X-4400091Y12420097D01*
X-4400091Y12420097D02*
X-4438187Y12496287D01*
X-4438187Y12496287D02*
X-4476282Y12534382D01*
X-4476282Y12534382D02*
X-4552472Y12572478D01*
X-4552472Y12572478D02*
X-4666758Y12572478D01*
X-4666758Y12572478D02*
X-4742949Y12534382D01*
X-4742949Y12534382D02*
X-4781044Y12496287D01*
X-4781044Y12496287D02*
X-4819139Y12420097D01*
X-4819139Y12420097D02*
X-4819139Y12191525D01*
X-4819139Y12191525D02*
X-4781044Y12115335D01*
X-4781044Y12115335D02*
X-4742949Y12077240D01*
X-4742949Y12077240D02*
X-4666758Y12039144D01*
X-4666758Y12039144D02*
X-4552472Y12039144D01*
X-5161997Y12572478D02*
X-5161997Y12039144D01*
X-5161997Y12496287D02*
X-5200092Y12534382D01*
X-5200092Y12534382D02*
X-5276282Y12572478D01*
X-5276282Y12572478D02*
X-5390568Y12572478D01*
X-5390568Y12572478D02*
X-5466759Y12534382D01*
X-5466759Y12534382D02*
X-5504854Y12458192D01*
X-5504854Y12458192D02*
X-5504854Y12039144D01*
X-5695331Y11962954D02*
X-6304854Y11962954D01*
X-6495331Y12039144D02*
X-6495331Y12572478D01*
X-6495331Y12839144D02*
X-6457235Y12801049D01*
X-6457235Y12801049D02*
X-6495331Y12762954D01*
X-6495331Y12762954D02*
X-6533426Y12801049D01*
X-6533426Y12801049D02*
X-6495331Y12839144D01*
X-6495331Y12839144D02*
X-6495331Y12762954D01*
X-6876283Y12572478D02*
X-6876283Y12039144D01*
X-6876283Y12496287D02*
X-6914378Y12534382D01*
X-6914378Y12534382D02*
X-6990568Y12572478D01*
X-6990568Y12572478D02*
X-7104854Y12572478D01*
X-7104854Y12572478D02*
X-7181045Y12534382D01*
X-7181045Y12534382D02*
X-7219140Y12458192D01*
X-7219140Y12458192D02*
X-7219140Y12039144D01*
X-7485807Y12572478D02*
X-7790569Y12572478D01*
X-7600093Y12839144D02*
X-7600093Y12153430D01*
X-7600093Y12153430D02*
X-7638188Y12077240D01*
X-7638188Y12077240D02*
X-7714378Y12039144D01*
X-7714378Y12039144D02*
X-7790569Y12039144D01*
X-8361998Y12077240D02*
X-8285807Y12039144D01*
X-8285807Y12039144D02*
X-8133426Y12039144D01*
X-8133426Y12039144D02*
X-8057236Y12077240D01*
X-8057236Y12077240D02*
X-8019140Y12153430D01*
X-8019140Y12153430D02*
X-8019140Y12458192D01*
X-8019140Y12458192D02*
X-8057236Y12534382D01*
X-8057236Y12534382D02*
X-8133426Y12572478D01*
X-8133426Y12572478D02*
X-8285807Y12572478D01*
X-8285807Y12572478D02*
X-8361998Y12534382D01*
X-8361998Y12534382D02*
X-8400093Y12458192D01*
X-8400093Y12458192D02*
X-8400093Y12382001D01*
X-8400093Y12382001D02*
X-8019140Y12305811D01*
X-8742950Y12039144D02*
X-8742950Y12572478D01*
X-8742950Y12420097D02*
X-8781045Y12496287D01*
X-8781045Y12496287D02*
X-8819140Y12534382D01*
X-8819140Y12534382D02*
X-8895331Y12572478D01*
X-8895331Y12572478D02*
X-8971521Y12572478D01*
X-9123902Y12572478D02*
X-9428664Y12572478D01*
X-9238188Y12039144D02*
X-9238188Y12724859D01*
X-9238188Y12724859D02*
X-9276283Y12801049D01*
X-9276283Y12801049D02*
X-9352473Y12839144D01*
X-9352473Y12839144D02*
X-9428664Y12839144D01*
X-10038188Y12039144D02*
X-10038188Y12458192D01*
X-10038188Y12458192D02*
X-10000093Y12534382D01*
X-10000093Y12534382D02*
X-9923902Y12572478D01*
X-9923902Y12572478D02*
X-9771521Y12572478D01*
X-9771521Y12572478D02*
X-9695331Y12534382D01*
X-10038188Y12077240D02*
X-9961997Y12039144D01*
X-9961997Y12039144D02*
X-9771521Y12039144D01*
X-9771521Y12039144D02*
X-9695331Y12077240D01*
X-9695331Y12077240D02*
X-9657235Y12153430D01*
X-9657235Y12153430D02*
X-9657235Y12229620D01*
X-9657235Y12229620D02*
X-9695331Y12305811D01*
X-9695331Y12305811D02*
X-9771521Y12343906D01*
X-9771521Y12343906D02*
X-9961997Y12343906D01*
X-9961997Y12343906D02*
X-10038188Y12382001D01*
X-10761998Y12077240D02*
X-10685807Y12039144D01*
X-10685807Y12039144D02*
X-10533426Y12039144D01*
X-10533426Y12039144D02*
X-10457236Y12077240D01*
X-10457236Y12077240D02*
X-10419141Y12115335D01*
X-10419141Y12115335D02*
X-10381045Y12191525D01*
X-10381045Y12191525D02*
X-10381045Y12420097D01*
X-10381045Y12420097D02*
X-10419141Y12496287D01*
X-10419141Y12496287D02*
X-10457236Y12534382D01*
X-10457236Y12534382D02*
X-10533426Y12572478D01*
X-10533426Y12572478D02*
X-10685807Y12572478D01*
X-10685807Y12572478D02*
X-10761998Y12534382D01*
X-11409617Y12077240D02*
X-11333426Y12039144D01*
X-11333426Y12039144D02*
X-11181045Y12039144D01*
X-11181045Y12039144D02*
X-11104855Y12077240D01*
X-11104855Y12077240D02*
X-11066759Y12153430D01*
X-11066759Y12153430D02*
X-11066759Y12458192D01*
X-11066759Y12458192D02*
X-11104855Y12534382D01*
X-11104855Y12534382D02*
X-11181045Y12572478D01*
X-11181045Y12572478D02*
X-11333426Y12572478D01*
X-11333426Y12572478D02*
X-11409617Y12534382D01*
X-11409617Y12534382D02*
X-11447712Y12458192D01*
X-11447712Y12458192D02*
X-11447712Y12382001D01*
X-11447712Y12382001D02*
X-11066759Y12305811D01*
X-12742950Y12077240D02*
X-12666759Y12039144D01*
X-12666759Y12039144D02*
X-12514378Y12039144D01*
X-12514378Y12039144D02*
X-12438188Y12077240D01*
X-12438188Y12077240D02*
X-12400093Y12115335D01*
X-12400093Y12115335D02*
X-12361997Y12191525D01*
X-12361997Y12191525D02*
X-12361997Y12420097D01*
X-12361997Y12420097D02*
X-12400093Y12496287D01*
X-12400093Y12496287D02*
X-12438188Y12534382D01*
X-12438188Y12534382D02*
X-12514378Y12572478D01*
X-12514378Y12572478D02*
X-12666759Y12572478D01*
X-12666759Y12572478D02*
X-12742950Y12534382D01*
X-13428664Y12572478D02*
X-13428664Y12039144D01*
X-13085807Y12572478D02*
X-13085807Y12153430D01*
X-13085807Y12153430D02*
X-13123902Y12077240D01*
X-13123902Y12077240D02*
X-13200092Y12039144D01*
X-13200092Y12039144D02*
X-13314378Y12039144D01*
X-13314378Y12039144D02*
X-13390569Y12077240D01*
X-13390569Y12077240D02*
X-13428664Y12115335D01*
X-13695331Y12572478D02*
X-14000093Y12572478D01*
X-13809617Y12839144D02*
X-13809617Y12153430D01*
X-13809617Y12153430D02*
X-13847712Y12077240D01*
X-13847712Y12077240D02*
X-13923902Y12039144D01*
X-13923902Y12039144D02*
X-14000093Y12039144D01*
X-14381045Y12039144D02*
X-14304855Y12077240D01*
X-14304855Y12077240D02*
X-14266760Y12115335D01*
X-14266760Y12115335D02*
X-14228664Y12191525D01*
X-14228664Y12191525D02*
X-14228664Y12420097D01*
X-14228664Y12420097D02*
X-14266760Y12496287D01*
X-14266760Y12496287D02*
X-14304855Y12534382D01*
X-14304855Y12534382D02*
X-14381045Y12572478D01*
X-14381045Y12572478D02*
X-14495331Y12572478D01*
X-14495331Y12572478D02*
X-14571522Y12534382D01*
X-14571522Y12534382D02*
X-14609617Y12496287D01*
X-14609617Y12496287D02*
X-14647712Y12420097D01*
X-14647712Y12420097D02*
X-14647712Y12191525D01*
X-14647712Y12191525D02*
X-14609617Y12115335D01*
X-14609617Y12115335D02*
X-14571522Y12077240D01*
X-14571522Y12077240D02*
X-14495331Y12039144D01*
X-14495331Y12039144D02*
X-14381045Y12039144D01*
X-15333427Y12572478D02*
X-15333427Y12039144D01*
X-14990570Y12572478D02*
X-14990570Y12153430D01*
X-14990570Y12153430D02*
X-15028665Y12077240D01*
X-15028665Y12077240D02*
X-15104855Y12039144D01*
X-15104855Y12039144D02*
X-15219141Y12039144D01*
X-15219141Y12039144D02*
X-15295332Y12077240D01*
X-15295332Y12077240D02*
X-15333427Y12115335D01*
X-15600094Y12572478D02*
X-15904856Y12572478D01*
X-15714380Y12839144D02*
X-15714380Y12153430D01*
X-15714380Y12153430D02*
X-15752475Y12077240D01*
X-15752475Y12077240D02*
X-15828665Y12039144D01*
X-15828665Y12039144D02*
X-15904856Y12039144D01*
M02*
