%TF.GenerationSoftware,KiCad,Pcbnew,10.0.0*%
%TF.CreationDate,2026-08-28T12:46:40+02:00*%
%TF.ProjectId,activation_interface,61637469-7661-4746-996f-6e5f696e7465,rev?*%
%TF.SameCoordinates,Original*%
%TF.FileFunction,Paste,Top*%
%TF.FilePolarity,Positive*%
%FSLAX46Y46*%
G04 Gerber Fmt 4.6, Leading zero omitted, Abs format (unit mm)*
G04 Created by KiCad (PCBNEW 10.0.0) date 2026-08-28 12:46:40*
%MOMM*%
%LPD*%
G01*
G04 APERTURE LIST*
%ADD10R,2.450000X4.900000*%
%ADD11R,0.300000X0.600000*%
%ADD12R,0.850000X0.950000*%
%ADD13R,0.550000X0.600000*%
%ADD14R,2.000000X3.050000*%
%ADD15R,0.450000X1.475000*%
%ADD16R,2.310000X2.460000*%
%ADD17R,0.900000X0.900000*%
G04 APERTURE END LIST*
D10*
%TO.C,L_FIRE*%
X-9300000Y-4000000D03*
X-5700000Y-4000000D03*
%TD*%
D11*
%TO.C,U_HACC*%
X-200000Y0D03*
X-200000Y500000D03*
X-200000Y1000000D03*
X-200000Y1500000D03*
X-200000Y2000000D03*
X500000Y2200000D03*
X1000000Y2200000D03*
X1500000Y2200000D03*
X2200000Y2000000D03*
X2200000Y1500000D03*
X2200000Y1000000D03*
X2200000Y500000D03*
X2200000Y0D03*
X1500000Y-200000D03*
X1000000Y-200000D03*
X500000Y-200000D03*
%TD*%
D12*
%TO.C,C_FIRE_OUT_1*%
X-175000Y-1326000D03*
X1425000Y-1326000D03*
%TD*%
D13*
%TO.C,C_HACC1*%
X-1151000Y-475000D03*
X-1151000Y475000D03*
%TD*%
D14*
%TO.C,D_FIRE*%
X-2600000Y6101000D03*
X4600000Y6101000D03*
%TD*%
D12*
%TO.C,C_HACC2_2*%
X-175000Y-2377000D03*
X1425000Y-2377000D03*
%TD*%
%TO.C,C_HACC2_1*%
X-3026000Y-1326000D03*
X-1426000Y-1326000D03*
%TD*%
D13*
%TO.C,C_FIRE_SS*%
X-1852000Y-475000D03*
X-1852000Y475000D03*
%TD*%
D12*
%TO.C,C_FIRE_COMP*%
X-3026000Y1326000D03*
X-1426000Y1326000D03*
%TD*%
D13*
%TO.C,R_FIRE_FREQ*%
X-2553000Y-475000D03*
X-2553000Y475000D03*
%TD*%
D12*
%TO.C,C_FIRE_IN_2*%
X-3026000Y-2377000D03*
X-1426000Y-2377000D03*
%TD*%
%TO.C,C_FIRE_IN_3*%
X3326000Y-175000D03*
X3326000Y1425000D03*
%TD*%
%TO.C,C_HACC2_4*%
X-175000Y-3428000D03*
X1425000Y-3428000D03*
%TD*%
%TO.C,C_HACC2_3*%
X2576000Y-3177000D03*
X2576000Y-1577000D03*
%TD*%
D13*
%TO.C,R_FIRE_FB2*%
X-2076000Y2450000D03*
X-1126000Y2450000D03*
%TD*%
D15*
%TO.C,U_FIRE_BOOST*%
X-2313000Y-8704000D03*
X-2313000Y-8054000D03*
X-2313000Y-7404000D03*
X-2313000Y-6754000D03*
X-2313000Y-6104000D03*
X-2313000Y-5454000D03*
X-2313000Y-4804000D03*
X3563000Y-4804000D03*
X3563000Y-5454000D03*
X3563000Y-6104000D03*
X3563000Y-6754000D03*
X3563000Y-7404000D03*
X3563000Y-8054000D03*
X3563000Y-8704000D03*
D16*
X625000Y-6754000D03*
%TD*%
D12*
%TO.C,C_FIRE_IN_1*%
X-3026000Y-3428000D03*
X-1426000Y-3428000D03*
%TD*%
%TO.C,C_HACC2_5*%
X-5129000Y0D03*
X-3529000Y0D03*
%TD*%
D13*
%TO.C,R_FIRE_FB1*%
X3501000Y-2076000D03*
X3501000Y-1126000D03*
%TD*%
%TO.C,R_FIRE_COMP*%
X-3677000Y2450000D03*
X-2727000Y2450000D03*
%TD*%
D12*
%TO.C,C_FIRE_OUT_2*%
X4377000Y-175000D03*
X4377000Y1425000D03*
%TD*%
%TO.C,C_FIRE_IN_4*%
X4377000Y-3026000D03*
X4377000Y-1426000D03*
%TD*%
%TO.C,C_FIRE_IN_5*%
X-4528000Y1650000D03*
X-4528000Y3250000D03*
%TD*%
D17*
%TO.C,J_activation_interface_spacer_activation_interface_cell_floor_board*%
X13950000Y-5950000D03*
X13950000Y-4350000D03*
X13950000Y-2750000D03*
X13950000Y-1150000D03*
X13950000Y450000D03*
X13950000Y2050000D03*
X13950000Y3650000D03*
X13950000Y5250000D03*
X12350000Y-5950000D03*
X12350000Y-4350000D03*
X12350000Y-2750000D03*
X12350000Y-1150000D03*
X12350000Y450000D03*
X12350000Y2050000D03*
X12350000Y3650000D03*
X12350000Y5250000D03*
X12350000Y6850000D03*
X12350000Y8450000D03*
X10750000Y-5950000D03*
X10750000Y-4350000D03*
X10750000Y-2750000D03*
X10750000Y-1150000D03*
X10750000Y450000D03*
X10750000Y2050000D03*
X10750000Y3650000D03*
X10750000Y5250000D03*
X10750000Y6850000D03*
X10750000Y8450000D03*
X10750000Y10050000D03*
X9150000Y-5950000D03*
X9150000Y-4350000D03*
X9150000Y-2750000D03*
X9150000Y-1150000D03*
X9150000Y450000D03*
X9150000Y2050000D03*
X9150000Y3650000D03*
X9150000Y5250000D03*
X9150000Y6850000D03*
X9150000Y8450000D03*
X9150000Y10050000D03*
X9150000Y11650000D03*
X7550000Y-4350000D03*
X7550000Y-2750000D03*
X7550000Y-1150000D03*
X7550000Y450000D03*
X7550000Y2050000D03*
X7550000Y3650000D03*
X7550000Y5250000D03*
X7550000Y6850000D03*
X7550000Y8450000D03*
X7550000Y10050000D03*
X7550000Y11650000D03*
X7550000Y13250000D03*
X5950000Y-13950000D03*
X5950000Y-12350000D03*
X5950000Y-10750000D03*
X5950000Y-9150000D03*
X5950000Y-2750000D03*
X5950000Y-1150000D03*
X5950000Y450000D03*
X5950000Y11650000D03*
X5950000Y13250000D03*
X4350000Y-13950000D03*
X4350000Y-12350000D03*
X4350000Y-10750000D03*
X4350000Y11650000D03*
X4350000Y13250000D03*
X2750000Y-13950000D03*
X2750000Y-12350000D03*
X2750000Y-10750000D03*
X2750000Y11650000D03*
X2750000Y13250000D03*
X2750000Y14850000D03*
X1150000Y-13950000D03*
X1150000Y-12350000D03*
X1150000Y-10750000D03*
X1150000Y11650000D03*
X1150000Y13250000D03*
X1150000Y14850000D03*
X-450000Y-13950000D03*
X-450000Y-12350000D03*
X-450000Y-10750000D03*
X-450000Y11650000D03*
X-450000Y13250000D03*
X-450000Y14850000D03*
X-2050000Y-13950000D03*
X-2050000Y-12350000D03*
X-2050000Y-10750000D03*
X-2050000Y11650000D03*
X-2050000Y13250000D03*
X-2050000Y14850000D03*
X-3650000Y-13950000D03*
X-3650000Y-12350000D03*
X-3650000Y-10750000D03*
X-3650000Y11650000D03*
X-3650000Y13250000D03*
X-3650000Y14850000D03*
X-5250000Y-13950000D03*
X-5250000Y-12350000D03*
X-5250000Y-10750000D03*
X-5250000Y-9150000D03*
X-5250000Y8450000D03*
X-5250000Y10050000D03*
X-5250000Y11650000D03*
X-5250000Y13250000D03*
X-6850000Y-12350000D03*
X-6850000Y-10750000D03*
X-6850000Y-9150000D03*
X-6850000Y450000D03*
X-6850000Y2050000D03*
X-6850000Y3650000D03*
X-6850000Y13250000D03*
X-8450000Y-12350000D03*
X-8450000Y-10750000D03*
X-8450000Y-9150000D03*
X-8450000Y450000D03*
X-8450000Y2050000D03*
X-8450000Y3650000D03*
X-8450000Y5250000D03*
X-10050000Y-10750000D03*
X-10050000Y-9150000D03*
X-10050000Y450000D03*
X-10050000Y2050000D03*
X-10050000Y3650000D03*
X-10050000Y5250000D03*
X-11650000Y-9150000D03*
X-11650000Y-7550000D03*
X-11650000Y450000D03*
X-11650000Y2050000D03*
X-11650000Y3650000D03*
X-11650000Y5250000D03*
X-13250000Y-7550000D03*
X-13250000Y-5950000D03*
X-13250000Y-4350000D03*
X-13250000Y-2750000D03*
X-13250000Y-1150000D03*
X-13250000Y450000D03*
X-13250000Y2050000D03*
X-13250000Y3650000D03*
X-13250000Y5250000D03*
X-13250000Y6850000D03*
X-14850000Y-2750000D03*
X-14850000Y-1150000D03*
X-14850000Y450000D03*
X-14850000Y2050000D03*
X-14850000Y3650000D03*
%TD*%
M02*
