%TF.GenerationSoftware,KiCad,Pcbnew,10.0.0*%
%TF.CreationDate,2026-09-03T12:15:48+02:00*%
%TF.ProjectId,wakeup_board,77616b65-7570-45f6-926f-6172642e6b69,rev?*%
%TF.SameCoordinates,Original*%
%TF.FileFunction,Copper,L14,Bot*%
%TF.FilePolarity,Positive*%
%FSLAX46Y46*%
G04 Gerber Fmt 4.6, Leading zero omitted, Abs format (unit mm)*
G04 Created by KiCad (PCBNEW 10.0.0) date 2026-09-03 12:15:48*
%MOMM*%
%LPD*%
G01*
G04 APERTURE LIST*
%TA.AperFunction,SMDPad,CuDef*%
%ADD10R,0.600000X0.550000*%
%TD*%
%TA.AperFunction,SMDPad,CuDef*%
%ADD11R,0.950000X0.850000*%
%TD*%
%TA.AperFunction,SMDPad,CuDef*%
%ADD12R,1.450000X1.150000*%
%TD*%
%TA.AperFunction,SMDPad,CuDef*%
%ADD13C,1.500000*%
%TD*%
%TA.AperFunction,SMDPad,CuDef*%
%ADD14R,0.550000X0.600000*%
%TD*%
%TA.AperFunction,SMDPad,CuDef*%
%ADD15R,0.850000X0.950000*%
%TD*%
%TA.AperFunction,SMDPad,CuDef*%
%ADD16R,1.150000X1.450000*%
%TD*%
%TA.AperFunction,SMDPad,CuDef*%
%ADD17R,0.560000X0.950000*%
%TD*%
%TA.AperFunction,SMDPad,CuDef*%
%ADD18R,0.900000X0.900000*%
%TD*%
G04 APERTURE END LIST*
D10*
%TO.P,RPU_SCL_EXT,1*%
%TO.N,3V3*%
X-3003000Y4129000D03*
%TO.P,RPU_SCL_EXT,2*%
%TO.N,SYS_I2C_SCL*%
X-3003000Y5079000D03*
%TD*%
%TO.P,RPU_SDA_EXT,1*%
%TO.N,3V3*%
X-7105000Y-25000D03*
%TO.P,RPU_SDA_EXT,2*%
%TO.N,SYS_I2C_SDA*%
X-7105000Y925000D03*
%TD*%
D11*
%TO.P,C_MAG_C1,1*%
%TO.N,MAG_C1_TERM*%
X3476000Y1876000D03*
%TO.P,C_MAG_C1,2*%
%TO.N,FLEX_GND*%
X3476000Y3476000D03*
%TD*%
D10*
%TO.P,C_MAG1,1*%
%TO.N,3V3*%
X-1151000Y-25000D03*
%TO.P,C_MAG1,2*%
%TO.N,FLEX_GND*%
X-1151000Y925000D03*
%TD*%
D12*
%TO.P,C_MAG2,1*%
%TO.N,3V3*%
X-3679000Y-525000D03*
%TO.P,C_MAG2,2*%
%TO.N,FLEX_GND*%
X-3679000Y1425000D03*
%TD*%
D13*
%TO.P,TP_MAG_DRDY,1*%
%TO.N,MAG_DRDY*%
X-76000Y3102000D03*
%TD*%
D14*
%TO.P,RPU_I2C2_SCL,1*%
%TO.N,3V3*%
X2701000Y-4730000D03*
%TO.P,RPU_I2C2_SCL,2*%
%TO.N,I2C2_SCL*%
X1751000Y-4730000D03*
%TD*%
D10*
%TO.P,RPU_I2C2_SDA,1*%
%TO.N,3V3*%
X-3955000Y2526000D03*
%TO.P,RPU_I2C2_SDA,2*%
%TO.N,I2C2_SDA*%
X-3955000Y3476000D03*
%TD*%
D14*
%TO.P,RPU_I2C3_SCL,1*%
%TO.N,3V3*%
X399000Y6555000D03*
%TO.P,RPU_I2C3_SCL,2*%
%TO.N,I2C3_SCL*%
X-551000Y6555000D03*
%TD*%
%TO.P,RPU_I2C3_SDA,1*%
%TO.N,3V3*%
X7181000Y2577000D03*
%TO.P,RPU_I2C3_SDA,2*%
%TO.N,I2C3_SDA*%
X6231000Y2577000D03*
%TD*%
%TO.P,R_IMU1_SCX_PU,1*%
%TO.N,3V3*%
X4226000Y4803000D03*
%TO.P,R_IMU1_SCX_PU,2*%
%TO.N,IMU1_SCX*%
X3276000Y4803000D03*
%TD*%
D10*
%TO.P,R_IMU1_SDX_PU,1*%
%TO.N,3V3*%
X1151000Y-25000D03*
%TO.P,R_IMU1_SDX_PU,2*%
%TO.N,IMU1_SDX*%
X1151000Y925000D03*
%TD*%
D14*
%TO.P,C_IMU1_1,1*%
%TO.N,3V3*%
X-4627000Y-4905000D03*
%TO.P,C_IMU1_1,2*%
%TO.N,FLEX_GND*%
X-5577000Y-4905000D03*
%TD*%
D15*
%TO.P,C_IMU1_2,1*%
%TO.N,3V3*%
X800000Y-4730000D03*
%TO.P,C_IMU1_2,2*%
%TO.N,FLEX_GND*%
X-800000Y-4730000D03*
%TD*%
D10*
%TO.P,C_IMU1_3,1*%
%TO.N,3V3*%
X-1852000Y1576000D03*
%TO.P,C_IMU1_3,2*%
%TO.N,FLEX_GND*%
X-1852000Y2526000D03*
%TD*%
D13*
%TO.P,TP_IMU1_INT,1*%
%TO.N,IMU1_INT*%
X2302000Y450000D03*
%TD*%
D10*
%TO.P,R_IMU2_SCX_PU,1*%
%TO.N,3V3*%
X7156000Y951000D03*
%TO.P,R_IMU2_SCX_PU,2*%
%TO.N,IMU2_SCX*%
X7156000Y1901000D03*
%TD*%
%TO.P,R_IMU2_SDX_PU,1*%
%TO.N,3V3*%
X-4805000Y-1626000D03*
%TO.P,R_IMU2_SDX_PU,2*%
%TO.N,IMU2_SDX*%
X-4805000Y-676000D03*
%TD*%
%TO.P,C_IMU2_1,1*%
%TO.N,3V3*%
X-4805000Y-25000D03*
%TO.P,C_IMU2_1,2*%
%TO.N,FLEX_GND*%
X-4805000Y925000D03*
%TD*%
D15*
%TO.P,C_IMU2_2,1*%
%TO.N,3V3*%
X2950000Y5679000D03*
%TO.P,C_IMU2_2,2*%
%TO.N,FLEX_GND*%
X1350000Y5679000D03*
%TD*%
D14*
%TO.P,C_IMU2_3,1*%
%TO.N,3V3*%
X2625000Y3202000D03*
%TO.P,C_IMU2_3,2*%
%TO.N,FLEX_GND*%
X1675000Y3202000D03*
%TD*%
D13*
%TO.P,TP_IMU2_INT,1*%
%TO.N,IMU2_INT*%
X2150000Y4353000D03*
%TD*%
D10*
%TO.P,R_IMU3_SCX_PU,1*%
%TO.N,3V3*%
X-2553000Y-25000D03*
%TO.P,R_IMU3_SCX_PU,2*%
%TO.N,IMU3_SCX*%
X-2553000Y925000D03*
%TD*%
%TO.P,R_IMU3_SDX_PU,1*%
%TO.N,3V3*%
X-2553000Y1576000D03*
%TO.P,R_IMU3_SDX_PU,2*%
%TO.N,IMU3_SDX*%
X-2553000Y2526000D03*
%TD*%
%TO.P,C_IMU3_1,1*%
%TO.N,3V3*%
X2477000Y-1626000D03*
%TO.P,C_IMU3_1,2*%
%TO.N,FLEX_GND*%
X2477000Y-676000D03*
%TD*%
D15*
%TO.P,C_IMU3_2,1*%
%TO.N,3V3*%
X800000Y-876000D03*
%TO.P,C_IMU3_2,2*%
%TO.N,FLEX_GND*%
X-800000Y-876000D03*
%TD*%
D10*
%TO.P,C_IMU3_3,1*%
%TO.N,3V3*%
X1776000Y-1626000D03*
%TO.P,C_IMU3_3,2*%
%TO.N,FLEX_GND*%
X1776000Y-676000D03*
%TD*%
D13*
%TO.P,TP_IMU3_INT,1*%
%TO.N,IMU3_INT*%
X5655000Y4277000D03*
%TD*%
D10*
%TO.P,C_CAM_VDD,1*%
%TO.N,COMP_1V8*%
X-3704000Y4129000D03*
%TO.P,C_CAM_VDD,2*%
%TO.N,FLEX_GND*%
X-3704000Y5079000D03*
%TD*%
D14*
%TO.P,RMAIN_PU,1*%
%TO.N,BAT_RAW*%
X-3179000Y-1651000D03*
%TO.P,RMAIN_PU,2*%
%TO.N,MAIN_SW_GATE*%
X-4129000Y-1651000D03*
%TD*%
%TO.P,CMAIN_HOLD,1*%
%TO.N,MAIN_SW_GATE*%
X2701000Y-2453000D03*
%TO.P,CMAIN_HOLD,2*%
%TO.N,FLEX_GND*%
X1751000Y-2453000D03*
%TD*%
%TO.P,RHOLD_G,1*%
%TO.N,PWR_HOLD*%
X475000Y-6456000D03*
%TO.P,RHOLD_G,2*%
%TO.N,QHOLD_GATE*%
X-475000Y-6456000D03*
%TD*%
D10*
%TO.P,RHOLD_PD,1*%
%TO.N,QHOLD_GATE*%
X-3254000Y2526000D03*
%TO.P,RHOLD_PD,2*%
%TO.N,FLEX_GND*%
X-3254000Y3476000D03*
%TD*%
%TO.P,C_MAG_WAKE,1*%
%TO.N,3V3_AON*%
X-5955000Y-3526000D03*
%TO.P,C_MAG_WAKE,2*%
%TO.N,FLEX_GND*%
X-5955000Y-2576000D03*
%TD*%
%TO.P,RPU_MAG_WAKE,1*%
%TO.N,3V3_AON*%
X4504000Y3177000D03*
%TO.P,RPU_MAG_WAKE,2*%
%TO.N,MAG_WAKE_N*%
X4504000Y4127000D03*
%TD*%
D12*
%TO.P,C_TMR_LDO,1*%
%TO.N,TMR_VDD*%
X-5955000Y-1475000D03*
%TO.P,C_TMR_LDO,2*%
%TO.N,FLEX_GND*%
X-5955000Y475000D03*
%TD*%
D10*
%TO.P,C_MAG_SHELF,1*%
%TO.N,TMR_VDD*%
X-4978000Y-4079000D03*
%TO.P,C_MAG_SHELF,2*%
%TO.N,FLEX_GND*%
X-4978000Y-3129000D03*
%TD*%
D14*
%TO.P,R_MAG_SHELF,1*%
%TO.N,MAG_SHELF_K*%
X2701000Y-3855000D03*
%TO.P,R_MAG_SHELF,2*%
%TO.N,MAG_SHELF_N*%
X1751000Y-3855000D03*
%TD*%
%TO.P,R_JUMP_PU,1*%
%TO.N,BAT_RAW*%
X3601000Y6555000D03*
%TO.P,R_JUMP_PU,2*%
%TO.N,JUMP_WAKE*%
X2651000Y6555000D03*
%TD*%
%TO.P,R_JUMP_WAKE,1*%
%TO.N,JUMP_WAKE_K*%
X-1202000Y5404000D03*
%TO.P,R_JUMP_WAKE,2*%
%TO.N,JUMP_WAKE*%
X-2152000Y5404000D03*
%TD*%
D10*
%TO.P,R_BOOST_FB1,1*%
%TO.N,BOOST_OUT*%
X-7105000Y-1626000D03*
%TO.P,R_BOOST_FB1,2*%
%TO.N,BOOST_FB*%
X-7105000Y-676000D03*
%TD*%
D14*
%TO.P,R_BOOST_FB2,1*%
%TO.N,BOOST_FB*%
X475000Y-5606000D03*
%TO.P,R_BOOST_FB2,2*%
%TO.N,FLEX_GND*%
X-475000Y-5606000D03*
%TD*%
D11*
%TO.P,CBOOST_IN1_1,1*%
%TO.N,REG_IN_MAIN*%
X5380000Y1251000D03*
%TO.P,CBOOST_IN1_1,2*%
%TO.N,FLEX_GND*%
X5380000Y2851000D03*
%TD*%
D15*
%TO.P,CBOOST_IN1_2,1*%
%TO.N,REG_IN_MAIN*%
X724000Y1776000D03*
%TO.P,CBOOST_IN1_2,2*%
%TO.N,FLEX_GND*%
X-876000Y1776000D03*
%TD*%
%TO.P,CBOOST_IN1_3,1*%
%TO.N,REG_IN_MAIN*%
X-1502000Y6280000D03*
%TO.P,CBOOST_IN1_3,2*%
%TO.N,FLEX_GND*%
X-3102000Y6280000D03*
%TD*%
%TO.P,CBOOST_IN1_4,1*%
%TO.N,REG_IN_MAIN*%
X3026000Y-5781000D03*
%TO.P,CBOOST_IN1_4,2*%
%TO.N,FLEX_GND*%
X1426000Y-5781000D03*
%TD*%
%TO.P,CBOOST_IN1_5,1*%
%TO.N,REG_IN_MAIN*%
X800000Y-3679000D03*
%TO.P,CBOOST_IN1_5,2*%
%TO.N,FLEX_GND*%
X-800000Y-3679000D03*
%TD*%
D10*
%TO.P,CBOOST_IN2,1*%
%TO.N,REG_IN_MAIN*%
X6256000Y951000D03*
%TO.P,CBOOST_IN2,2*%
%TO.N,FLEX_GND*%
X6256000Y1901000D03*
%TD*%
D14*
%TO.P,CBOOST_OUT2,1*%
%TO.N,BOOST_OUT*%
X-1377000Y3202000D03*
%TO.P,CBOOST_OUT2,2*%
%TO.N,FLEX_GND*%
X-2327000Y3202000D03*
%TD*%
%TO.P,COUT3,1*%
%TO.N,3V3*%
X475000Y-1752000D03*
%TO.P,COUT3,2*%
%TO.N,FLEX_GND*%
X-475000Y-1752000D03*
%TD*%
D12*
%TO.P,C_AON_IN,1*%
%TO.N,BAT_RAW*%
X4503000Y-4378000D03*
%TO.P,C_AON_IN,2*%
%TO.N,FLEX_GND*%
X4503000Y-2428000D03*
%TD*%
D16*
%TO.P,C_AON_OUT,1*%
%TO.N,3V3_AON*%
X-1576000Y-6031000D03*
%TO.P,C_AON_OUT,2*%
%TO.N,FLEX_GND*%
X-3526000Y-6031000D03*
%TD*%
D14*
%TO.P,RAON_PU,1*%
%TO.N,BAT_RAW*%
X-1751000Y-2453000D03*
%TO.P,RAON_PU,2*%
%TO.N,AON_EN_GATE*%
X-2701000Y-2453000D03*
%TD*%
D11*
%TO.P,C_WBA_VDD11,1*%
%TO.N,WBA_VDD11*%
X6431000Y-1600000D03*
%TO.P,C_WBA_VDD11,2*%
%TO.N,FLEX_GND*%
X6431000Y0D03*
%TD*%
D14*
%TO.P,C_WBA_VDDA,1*%
%TO.N,3V3_AON*%
X475000Y701000D03*
%TO.P,C_WBA_VDDA,2*%
%TO.N,FLEX_GND*%
X-475000Y701000D03*
%TD*%
%TO.P,C_WBA_VDDANA,1*%
%TO.N,3V3_AON*%
X-1751000Y-4755000D03*
%TO.P,C_WBA_VDDANA,2*%
%TO.N,FLEX_GND*%
X-2701000Y-4755000D03*
%TD*%
D10*
%TO.P,C_WBA_VDD1,1*%
%TO.N,3V3_AON*%
X-2477000Y-1626000D03*
%TO.P,C_WBA_VDD1,2*%
%TO.N,FLEX_GND*%
X-2477000Y-676000D03*
%TD*%
%TO.P,C_WBA_VDD2,1*%
%TO.N,3V3_AON*%
X3377000Y-4529000D03*
%TO.P,C_WBA_VDD2,2*%
%TO.N,FLEX_GND*%
X3377000Y-3579000D03*
%TD*%
D14*
%TO.P,C_WBA_VDDRF,1*%
%TO.N,3V3_AON*%
X399000Y7256000D03*
%TO.P,C_WBA_VDDRF,2*%
%TO.N,FLEX_GND*%
X-551000Y7256000D03*
%TD*%
%TO.P,C_WBA_VDDRFPA,1*%
%TO.N,3V3_AON*%
X399000Y4253000D03*
%TO.P,C_WBA_VDDRFPA,2*%
%TO.N,FLEX_GND*%
X-551000Y4253000D03*
%TD*%
D10*
%TO.P,C_WBA_VDDHPA,1*%
%TO.N,3V3_AON*%
X-1776000Y-1626000D03*
%TO.P,C_WBA_VDDHPA,2*%
%TO.N,FLEX_GND*%
X-1776000Y-676000D03*
%TD*%
%TO.P,C_WBA_VDDSMPS,1*%
%TO.N,3V3_AON*%
X3377000Y-2928000D03*
%TO.P,C_WBA_VDDSMPS,2*%
%TO.N,FLEX_GND*%
X3377000Y-1978000D03*
%TD*%
D11*
%TO.P,C_WBA_BULK_1,1*%
%TO.N,3V3_AON*%
X3628000Y-975000D03*
%TO.P,C_WBA_BULK_1,2*%
%TO.N,FLEX_GND*%
X3628000Y625000D03*
%TD*%
D15*
%TO.P,C_WBA_BULK_2,1*%
%TO.N,3V3_AON*%
X800000Y-2628000D03*
%TO.P,C_WBA_BULK_2,2*%
%TO.N,FLEX_GND*%
X-800000Y-2628000D03*
%TD*%
D14*
%TO.P,R_WBA_NRST,1*%
%TO.N,3V3_AON*%
X2000000Y6555000D03*
%TO.P,R_WBA_NRST,2*%
%TO.N,WBA_NRST*%
X1050000Y6555000D03*
%TD*%
%TO.P,C_WBA_NRST,1*%
%TO.N,WBA_NRST*%
X-1377000Y3903000D03*
%TO.P,C_WBA_NRST,2*%
%TO.N,FLEX_GND*%
X-2327000Y3903000D03*
%TD*%
D17*
%TO.P,Q_WBA_RST,1*%
%TO.N,WBA_RST_CMD*%
X-5005000Y1776000D03*
%TO.P,Q_WBA_RST,2*%
%TO.N,FLEX_GND*%
X-6905000Y1776000D03*
%TO.P,Q_WBA_RST,3*%
%TO.N,WBA_NRST*%
X-5955000Y3876000D03*
%TD*%
D14*
%TO.P,R_WBARST_PD,1*%
%TO.N,WBA_RST_CMD*%
X475000Y0D03*
%TO.P,R_WBARST_PD,2*%
%TO.N,FLEX_GND*%
X-475000Y0D03*
%TD*%
%TO.P,R_WBA_BOOT0,1*%
%TO.N,WBA_BOOT0*%
X2076000Y-6657000D03*
%TO.P,R_WBA_BOOT0,2*%
%TO.N,FLEX_GND*%
X1126000Y-6657000D03*
%TD*%
%TO.P,C_WBA_HSE_VDD,1*%
%TO.N,3V3_AON*%
X-3352000Y-4054000D03*
%TO.P,C_WBA_HSE_VDD,2*%
%TO.N,FLEX_GND*%
X-4302000Y-4054000D03*
%TD*%
%TO.P,RPU_IR_WAKE,1*%
%TO.N,3V3_AON*%
X-1377000Y4604000D03*
%TO.P,RPU_IR_WAKE,2*%
%TO.N,IR_WAKE*%
X-2327000Y4604000D03*
%TD*%
%TO.P,C_IR_WAKE,1*%
%TO.N,IR_WAKE*%
X2701000Y-3154000D03*
%TO.P,C_IR_WAKE,2*%
%TO.N,FLEX_GND*%
X1751000Y-3154000D03*
%TD*%
D10*
%TO.P,RHOLD_AON,1*%
%TO.N,WBA_AON_HOLD*%
X-4805000Y4727000D03*
%TO.P,RHOLD_AON,2*%
%TO.N,AON_EN*%
X-4805000Y5677000D03*
%TD*%
%TO.P,R_WILK_ISO,1*%
%TO.N,YAGI_WILK_A*%
X4504000Y1576000D03*
%TO.P,R_WILK_ISO,2*%
%TO.N,YAGI_WILK_B*%
X4504000Y2526000D03*
%TD*%
D13*
%TO.P,TP_WILK_A,1*%
%TO.N,YAGI_WILK_A*%
X2150000Y2051000D03*
%TD*%
%TO.P,TP_WILK_B,1*%
%TO.N,YAGI_WILK_B*%
X-76000Y5404000D03*
%TD*%
%TO.P,TP_YAGI_RF_A,1*%
%TO.N,YAGI_RF_A*%
X-3827000Y-2903000D03*
%TD*%
%TO.P,TP_YAGI_RF_B,1*%
%TO.N,YAGI_RF_B*%
X-2226000Y-3604000D03*
%TD*%
D14*
%TO.P,RHOLD2_G,1*%
%TO.N,WBA_WAKE*%
X4851000Y5504000D03*
%TO.P,RHOLD2_G,2*%
%TO.N,QHOLD2_GATE*%
X3901000Y5504000D03*
%TD*%
D10*
%TO.P,RHOLD2_PD,1*%
%TO.N,QHOLD2_GATE*%
X-1852000Y-25000D03*
%TO.P,RHOLD2_PD,2*%
%TO.N,FLEX_GND*%
X-1852000Y925000D03*
%TD*%
D13*
%TO.P,TP_BAT,1*%
%TO.N,BAT_PROT*%
X4478000Y-5954000D03*
%TD*%
%TO.P,TP_3V3,1*%
%TO.N,3V3*%
X4954000Y-175000D03*
%TD*%
%TO.P,TP_GND,1*%
%TO.N,FLEX_GND*%
X6156000Y-3026000D03*
%TD*%
D18*
%TO.P,P_wakeup_board_spacer_fin_ble_board_wakeup_board,1*%
%TO.N,3V3*%
X13950000Y-5441000D03*
%TO.P,P_wakeup_board_spacer_fin_ble_board_wakeup_board,2*%
%TO.N,3V3_AON*%
X13950000Y-3841000D03*
%TO.P,P_wakeup_board_spacer_fin_ble_board_wakeup_board,3*%
%TO.N,ACTIVATE_CONFIRM*%
X13950000Y-2241000D03*
%TO.P,P_wakeup_board_spacer_fin_ble_board_wakeup_board,4*%
%TO.N,ACTIVATE_SET*%
X13950000Y-641000D03*
%TO.P,P_wakeup_board_spacer_fin_ble_board_wakeup_board,5*%
%TO.N,BAT_CELL1_POS*%
X13950000Y959000D03*
%TO.P,P_wakeup_board_spacer_fin_ble_board_wakeup_board,6*%
%TO.N,BAT_CELL2_POS*%
X13950000Y2559000D03*
%TO.P,P_wakeup_board_spacer_fin_ble_board_wakeup_board,7*%
%TO.N,BAT_CELL3_POS*%
X13950000Y4159000D03*
%TO.P,P_wakeup_board_spacer_fin_ble_board_wakeup_board,8*%
%TO.N,BAT_PROT*%
X13950000Y5759000D03*
%TO.P,P_wakeup_board_spacer_fin_ble_board_wakeup_board,9*%
%TO.N,BAT_RAW*%
X12350000Y-5441000D03*
%TO.P,P_wakeup_board_spacer_fin_ble_board_wakeup_board,10*%
%TO.N,BOOT0*%
X12350000Y-3841000D03*
%TO.P,P_wakeup_board_spacer_fin_ble_board_wakeup_board,11*%
%TO.N,COMP_5V*%
X12350000Y-2241000D03*
%TO.P,P_wakeup_board_spacer_fin_ble_board_wakeup_board,12*%
%TO.N,COMP_5V_RAW*%
X12350000Y-641000D03*
%TO.P,P_wakeup_board_spacer_fin_ble_board_wakeup_board,13*%
%TO.N,COMP_OUT*%
X12350000Y959000D03*
%TO.P,P_wakeup_board_spacer_fin_ble_board_wakeup_board,14*%
%TO.N,COMP_SWDCLK*%
X12350000Y2559000D03*
%TO.P,P_wakeup_board_spacer_fin_ble_board_wakeup_board,15*%
%TO.N,COMP_SWDIO*%
X12350000Y4159000D03*
%TO.P,P_wakeup_board_spacer_fin_ble_board_wakeup_board,16*%
%TO.N,EXT_CAN_RX*%
X12350000Y5759000D03*
%TO.P,P_wakeup_board_spacer_fin_ble_board_wakeup_board,17*%
%TO.N,EXT_CAN_TX*%
X12350000Y7359000D03*
%TO.P,P_wakeup_board_spacer_fin_ble_board_wakeup_board,18*%
%TO.N,FLEX_GND*%
X12350000Y8959000D03*
%TO.P,P_wakeup_board_spacer_fin_ble_board_wakeup_board,19*%
%TO.N,GPIO_EXT_0*%
X10750000Y-5441000D03*
%TO.P,P_wakeup_board_spacer_fin_ble_board_wakeup_board,20*%
%TO.N,GPIO_EXT_1*%
X10750000Y-3841000D03*
%TO.P,P_wakeup_board_spacer_fin_ble_board_wakeup_board,21*%
%TO.N,GPIO_EXT_2*%
X10750000Y-2241000D03*
%TO.P,P_wakeup_board_spacer_fin_ble_board_wakeup_board,22*%
%TO.N,GPIO_EXT_3*%
X10750000Y-641000D03*
%TO.P,P_wakeup_board_spacer_fin_ble_board_wakeup_board,23*%
%TO.N,H3LIS_INT1*%
X10750000Y959000D03*
%TO.P,P_wakeup_board_spacer_fin_ble_board_wakeup_board,24*%
%TO.N,I2C3_SCL*%
X10750000Y2559000D03*
%TO.P,P_wakeup_board_spacer_fin_ble_board_wakeup_board,25*%
%TO.N,I2C3_SDA*%
X10750000Y4159000D03*
%TO.P,P_wakeup_board_spacer_fin_ble_board_wakeup_board,26*%
%TO.N,JUMP_WAKE*%
X10750000Y5759000D03*
%TO.P,P_wakeup_board_spacer_fin_ble_board_wakeup_board,27*%
%TO.N,NRST*%
X10750000Y7359000D03*
%TO.P,P_wakeup_board_spacer_fin_ble_board_wakeup_board,28*%
%TO.N,SWO*%
X10750000Y8959000D03*
%TO.P,P_wakeup_board_spacer_fin_ble_board_wakeup_board,29*%
%TO.N,SYS_I2C_SCL*%
X10750000Y10559000D03*
%TO.P,P_wakeup_board_spacer_fin_ble_board_wakeup_board,30*%
%TO.N,SYS_I2C_SDA*%
X5950000Y-13441000D03*
%TO.P,P_wakeup_board_spacer_fin_ble_board_wakeup_board,31*%
%TO.N,SYS_SPI_CS_FIN*%
X5950000Y13759000D03*
%TO.P,P_wakeup_board_spacer_fin_ble_board_wakeup_board,32*%
%TO.N,SYS_SPI_MISO*%
X-450000Y12159000D03*
%TO.P,P_wakeup_board_spacer_fin_ble_board_wakeup_board,33*%
%TO.N,SYS_SPI_MOSI*%
X-2050000Y12159000D03*
%TO.P,P_wakeup_board_spacer_fin_ble_board_wakeup_board,34*%
%TO.N,SYS_SPI_SCLK*%
X-3650000Y12159000D03*
%TO.P,P_wakeup_board_spacer_fin_ble_board_wakeup_board,35*%
%TO.N,3V3*%
X-5250000Y-13441000D03*
%TO.P,P_wakeup_board_spacer_fin_ble_board_wakeup_board,36*%
%TO.N,3V3_AON*%
X-5250000Y12159000D03*
%TO.P,P_wakeup_board_spacer_fin_ble_board_wakeup_board,37*%
%TO.N,BAT_PROT*%
X-5250000Y13759000D03*
%TO.P,P_wakeup_board_spacer_fin_ble_board_wakeup_board,38*%
%TO.N,BAT_RAW*%
X-6850000Y-13441000D03*
%TO.P,P_wakeup_board_spacer_fin_ble_board_wakeup_board,39*%
%TO.N,COMP_5V*%
X-6850000Y13759000D03*
%TO.P,P_wakeup_board_spacer_fin_ble_board_wakeup_board,40*%
%TO.N,COMP_5V_RAW*%
X-8450000Y-11841000D03*
%TO.P,P_wakeup_board_spacer_fin_ble_board_wakeup_board,41*%
%TO.N,3V3*%
X-8450000Y-10241000D03*
%TO.P,P_wakeup_board_spacer_fin_ble_board_wakeup_board,42*%
%TO.N,FLEX_GND*%
X-8450000Y-8641000D03*
%TO.P,P_wakeup_board_spacer_fin_ble_board_wakeup_board,43*%
X-8450000Y-7041000D03*
%TO.P,P_wakeup_board_spacer_fin_ble_board_wakeup_board,44*%
X-8450000Y-5441000D03*
%TO.P,P_wakeup_board_spacer_fin_ble_board_wakeup_board,45*%
X-10050000Y-10241000D03*
%TO.P,P_wakeup_board_spacer_fin_ble_board_wakeup_board,46*%
X-10050000Y-8641000D03*
%TO.P,P_wakeup_board_spacer_fin_ble_board_wakeup_board,47*%
X-10050000Y-7041000D03*
%TO.P,P_wakeup_board_spacer_fin_ble_board_wakeup_board,48*%
X-10050000Y-5441000D03*
%TO.P,P_wakeup_board_spacer_fin_ble_board_wakeup_board,49*%
X-10050000Y5759000D03*
%TO.P,P_wakeup_board_spacer_fin_ble_board_wakeup_board,50*%
X-11650000Y-8641000D03*
%TO.P,P_wakeup_board_spacer_fin_ble_board_wakeup_board,51*%
X-11650000Y-7041000D03*
%TO.P,P_wakeup_board_spacer_fin_ble_board_wakeup_board,52*%
X-11650000Y-5441000D03*
%TO.P,P_wakeup_board_spacer_fin_ble_board_wakeup_board,53*%
X-11650000Y5759000D03*
%TO.P,P_wakeup_board_spacer_fin_ble_board_wakeup_board,54*%
X-13250000Y-7041000D03*
%TO.P,P_wakeup_board_spacer_fin_ble_board_wakeup_board,55*%
X-13250000Y-5441000D03*
%TO.P,P_wakeup_board_spacer_fin_ble_board_wakeup_board,56*%
X-13250000Y-3841000D03*
%TO.P,P_wakeup_board_spacer_fin_ble_board_wakeup_board,57*%
X-13250000Y-2241000D03*
%TO.P,P_wakeup_board_spacer_fin_ble_board_wakeup_board,58*%
X-13250000Y-641000D03*
%TO.P,P_wakeup_board_spacer_fin_ble_board_wakeup_board,59*%
X-13250000Y959000D03*
%TO.P,P_wakeup_board_spacer_fin_ble_board_wakeup_board,60*%
X-13250000Y2559000D03*
%TO.P,P_wakeup_board_spacer_fin_ble_board_wakeup_board,61*%
X-13250000Y4159000D03*
%TO.P,P_wakeup_board_spacer_fin_ble_board_wakeup_board,62*%
X-13250000Y5759000D03*
%TO.P,P_wakeup_board_spacer_fin_ble_board_wakeup_board,63*%
X-13250000Y7359000D03*
%TO.P,P_wakeup_board_spacer_fin_ble_board_wakeup_board,64*%
X-14850000Y-3841000D03*
%TO.P,P_wakeup_board_spacer_fin_ble_board_wakeup_board,65*%
X-14850000Y-2241000D03*
%TO.P,P_wakeup_board_spacer_fin_ble_board_wakeup_board,66*%
X-14850000Y-641000D03*
%TO.P,P_wakeup_board_spacer_fin_ble_board_wakeup_board,67*%
X-14850000Y959000D03*
%TO.P,P_wakeup_board_spacer_fin_ble_board_wakeup_board,68*%
X-14850000Y2559000D03*
%TO.P,P_wakeup_board_spacer_fin_ble_board_wakeup_board,69*%
X-14850000Y4159000D03*
%TD*%
M02*
