M48
; DRILL file KiCad 10.0.3 date 2026-09-02T16:43:32
; FORMAT={-:-/ absolute / metric / decimal}
; #@! TF.CreationDate,2026-09-02T16:43:32+02:00
; #@! TF.GenerationSoftware,Kicad,Pcbnew,10.0.3
; #@! TF.FileFunction,Plated,1,14,PTH
FMAT,2
METRIC
; #@! TA.AperFunction,Plated,PTH,ViaDrill
T1C0.200
%
G90
G05
T1
X-14.079Y0.921
X-12.599Y-5.15
X-12.498Y5.74
X-12.092Y-0.513
X-11.543Y9.677
X-9.937Y0.288
X-9.614Y7.085
X-9.453Y-9.924
X-9.31Y4.769
X-8.977Y2.399
X-8.699Y-4.869
X-7.474Y-0.437
X-7.05Y-13.655
X-6.704Y-1.477
X-6.285Y-1.068
X-6.282Y-1.851
X-6.114Y3.208
X-5.829Y5.549
X-5.795Y10.002
X-5.74Y12.498
X-5.702Y-2.205
X-5.476Y7.804
X-5.476Y5.024
X-5.281Y1.465
X-5.198Y-3.101
X-5.128Y-4.878
X-5.028Y-0.814
X-4.66Y5.816
X-4.326Y8.643
X-4.124Y-8.479
X-3.841Y-6.486
X-3.825Y5.796
X-3.73Y-5.28
X-3.285Y-9.737
X-2.958Y-0.865
X-2.48Y7.6
X-2.056Y8.284
X-1.69Y-0.86
X-1.308Y5.0
X-1.176Y0.812
X-1.084Y14.152
X-0.91Y3.042
X-0.809Y5.249
X-0.735Y-7.419
X-0.656Y7.498
X-0.349Y-8.889
X-0.197Y-7.633
X-0.002Y7.612
X0.353Y-13.689
X0.542Y-7.618
X0.88Y10.888
X0.911Y3.041
X0.922Y-7.225
X0.968Y-13.191
X1.03Y-0.74
X1.05Y0.82
X1.14Y-3.19
X1.15Y12.492
X1.306Y6.117
X1.33Y-7.563
X1.35Y-8.19
X1.841Y6.818
X1.992Y10.012
X2.023Y7.483
X2.061Y5.918
X2.082Y-13.282
X2.16Y-8.39
X2.201Y-7.37
X2.385Y-10.522
X2.425Y10.867
X2.95Y0.81
X2.991Y5.731
X3.01Y-3.26
X3.15Y-0.27
X3.31Y-2.25
X3.334Y-4.925
X3.397Y6.162
X3.42Y-2.89
X3.753Y-13.207
X3.899Y9.728
X3.964Y9.144
X3.983Y-6.243
X4.039Y-5.713
X4.35Y12.491
X4.664Y-7.291
X4.665Y-8.435
X4.787Y-5.522
X5.337Y-4.672
X5.345Y-10.017
X5.514Y-1.851
X5.753Y5.401
X5.762Y6.105
X5.818Y4.158
X5.82Y3.065
X5.83Y1.556
X5.834Y-1.306
X5.92Y2.19
X5.938Y-11.598
X5.953Y6.676
X5.988Y-9.998
X6.058Y-3.027
X6.372Y4.873
X6.54Y3.849
X6.57Y1.57
X6.609Y2.692
X6.64Y12.601
X7.043Y-13.821
X7.06Y7.25
X7.31Y-6.15
X7.448Y-3.343
X7.512Y-7.512
X7.573Y12.496
X7.613Y0.807
X8.105Y8.893
X8.15Y-0.85
X8.392Y9.912
X8.479Y7.777
X8.506Y10.736
X8.786Y-1.449
X9.0Y-9.46
X9.117Y-6.243
X9.373Y1.418
X9.452Y2.659
X9.454Y4.347
X9.455Y0.561
X9.456Y-0.225
X9.542Y5.34
X9.938Y8.411
X10.038Y9.338
X10.145Y-3.606
X10.415Y-1.444
X10.61Y-9.295
X10.75Y-6.706
X10.928Y7.696
X11.503Y-3.966
X11.631Y0.826
X11.634Y2.542
X11.773Y-1.98
X12.097Y3.281
X12.35Y-6.706
X12.552Y5.25
X12.623Y-5.128
X12.744Y-1.455
X12.775Y-1.99
X12.894Y-6.706
X12.92Y6.72
X13.116Y8.45
X13.154Y4.604
X13.184Y-1.068
X13.19Y0.114
X13.193Y1.841
X13.195Y1.027
X13.196Y3.65
X13.95Y-3.515
M30
