<?xml version="1.0" standalone="no"?>
 <!DOCTYPE svg PUBLIC "-//W3C//DTD SVG 1.1//EN" 
 "http://www.w3.org/Graphics/SVG/1.1/DTD/svg11.dtd"> 
<svg
  xmlns:svg="http://www.w3.org/2000/svg"
  xmlns="http://www.w3.org/2000/svg"
  xmlns:xlink="http://www.w3.org/1999/xlink"
  xmlns:inkscape="http://www.inkscape.org/namespaces/inkscape"
  version="1.1"
  width="33.9852mm" height="33.7566mm" viewBox="0.0000 0.0000 33.9852 33.7566">
<title>SVG Image created as chk_B_Mask.svg date 2026-09-12T18:36:49 </title>
  <desc>Image generated by PCBNEW </desc>
<g style="fill:#000000; fill-opacity:1.0000;stroke:#000000; stroke-opacity:1.0000;
stroke-linecap:round; stroke-linejoin:round;"
 transform="translate(0 0) scale(1 1)">
</g>
<g style="fill:#02FFEE; fill-opacity:0.4000; stroke:none;">
<circle cx="7.1005" cy="6.9824" r="1.5000" /> 
<circle cx="26.8995" cy="26.7814" r="1.5000" /> 
<path style="fill:#02FFEE; fill-opacity:0.4000; stroke:none;fill-rule:evenodd;"
d="M 15.3480,13.2789
15.3480,12.6789
15.8980,12.6789
15.8980,13.2789
Z" /> 
<path style="fill:#02FFEE; fill-opacity:0.4000; stroke:none;fill-rule:evenodd;"
d="M 14.3980,13.2789
14.3980,12.6789
14.9480,12.6789
14.9480,13.2789
Z" /> 
<path style="fill:#02FFEE; fill-opacity:0.4000; stroke:none;fill-rule:evenodd;"
d="M 14.2230,18.2329
14.8230,18.2329
14.8230,18.7829
14.2230,18.7829
Z" /> 
<path style="fill:#02FFEE; fill-opacity:0.4000; stroke:none;fill-rule:evenodd;"
d="M 14.2230,17.2829
14.8230,17.2829
14.8230,17.8329
14.2230,17.8329
Z" /> 
<path style="fill:#02FFEE; fill-opacity:0.4000; stroke:none;fill-rule:evenodd;"
d="M 11.8950,16.6319
12.4950,16.6319
12.4950,17.1819
11.8950,17.1819
Z" /> 
<path style="fill:#02FFEE; fill-opacity:0.4000; stroke:none;fill-rule:evenodd;"
d="M 11.8950,15.6819
12.4950,15.6819
12.4950,16.2319
11.8950,16.2319
Z" /> 
<path style="fill:#02FFEE; fill-opacity:0.4000; stroke:none;fill-rule:evenodd;"
d="M 23.8560,15.6559
24.4560,15.6559
24.4560,16.2059
23.8560,16.2059
Z" /> 
<path style="fill:#02FFEE; fill-opacity:0.4000; stroke:none;fill-rule:evenodd;"
d="M 23.8560,14.7059
24.4560,14.7059
24.4560,15.2559
23.8560,15.2559
Z" /> 
<path style="fill:#02FFEE; fill-opacity:0.4000; stroke:none;fill-rule:evenodd;"
d="M 20.3260,10.6269
20.3260,10.0269
20.8760,10.0269
20.8760,10.6269
Z" /> 
<path style="fill:#02FFEE; fill-opacity:0.4000; stroke:none;fill-rule:evenodd;"
d="M 19.3760,10.6269
19.3760,10.0269
19.9260,10.0269
19.9260,10.6269
Z" /> 
<path style="fill:#02FFEE; fill-opacity:0.4000; stroke:none;fill-rule:evenodd;"
d="M 16.3080,20.3079
16.3080,20.9079
15.7580,20.9079
15.7580,20.3079
Z" /> 
<path style="fill:#02FFEE; fill-opacity:0.4000; stroke:none;fill-rule:evenodd;"
d="M 17.2580,20.3079
17.2580,20.9079
16.7080,20.9079
16.7080,20.3079
Z" /> 
<path style="fill:#02FFEE; fill-opacity:0.4000; stroke:none;fill-rule:evenodd;"
d="M 12.0980,22.0869
12.0980,21.4869
12.6480,21.4869
12.6480,22.0869
Z" /> 
<path style="fill:#02FFEE; fill-opacity:0.4000; stroke:none;fill-rule:evenodd;"
d="M 11.1480,22.0869
11.1480,21.4869
11.6980,21.4869
11.6980,22.0869
Z" /> 
<circle cx="19.3020" cy="16.4319" r="0.5000" /> 
<path style="fill:#02FFEE; fill-opacity:0.4000; stroke:none;fill-rule:evenodd;"
d="M 12.8460,15.2069
13.7960,15.2069
13.7960,16.0569
12.8460,16.0569
Z" /> 
<path style="fill:#02FFEE; fill-opacity:0.4000; stroke:none;fill-rule:evenodd;"
d="M 12.8460,16.8069
13.7960,16.8069
13.7960,17.6569
12.8460,17.6569
Z" /> 
<path style="fill:#02FFEE; fill-opacity:0.4000; stroke:none;fill-rule:evenodd;"
d="M 12.7450,14.0809
13.3450,14.0809
13.3450,14.6309
12.7450,14.6309
Z" /> 
<path style="fill:#02FFEE; fill-opacity:0.4000; stroke:none;fill-rule:evenodd;"
d="M 12.7450,13.1309
13.3450,13.1309
13.3450,13.6809
12.7450,13.6809
Z" /> 
<path style="fill:#02FFEE; fill-opacity:0.4000; stroke:none;fill-rule:evenodd;"
d="M 17.2000,22.7879
17.2000,22.1879
17.7500,22.1879
17.7500,22.7879
Z" /> 
<path style="fill:#02FFEE; fill-opacity:0.4000; stroke:none;fill-rule:evenodd;"
d="M 16.2500,22.7879
16.2500,22.1879
16.8000,22.1879
16.8000,22.7879
Z" /> 
<path style="fill:#02FFEE; fill-opacity:0.4000; stroke:none;fill-rule:evenodd;"
d="M 20.1530,17.4319
21.1030,17.4319
21.1030,18.2819
20.1530,18.2819
Z" /> 
<path style="fill:#02FFEE; fill-opacity:0.4000; stroke:none;fill-rule:evenodd;"
d="M 20.1530,15.8319
21.1030,15.8319
21.1030,16.6819
20.1530,16.6819
Z" /> 
<path style="fill:#02FFEE; fill-opacity:0.4000; stroke:none;fill-rule:evenodd;"
d="M 15.5230,11.7779
15.5230,11.1779
16.0730,11.1779
16.0730,11.7779
Z" /> 
<path style="fill:#02FFEE; fill-opacity:0.4000; stroke:none;fill-rule:evenodd;"
d="M 14.5730,11.7779
14.5730,11.1779
15.1230,11.1779
15.1230,11.7779
Z" /> 
<path style="fill:#02FFEE; fill-opacity:0.4000; stroke:none;fill-rule:evenodd;"
d="M 22.9560,18.0569
23.9060,18.0569
23.9060,18.9069
22.9560,18.9069
Z" /> 
<path style="fill:#02FFEE; fill-opacity:0.4000; stroke:none;fill-rule:evenodd;"
d="M 22.9560,16.4569
23.9060,16.4569
23.9060,17.3069
22.9560,17.3069
Z" /> 
<path style="fill:#02FFEE; fill-opacity:0.4000; stroke:none;fill-rule:evenodd;"
d="M 17.3750,22.0869
17.3750,21.1369
18.2250,21.1369
18.2250,22.0869
Z" /> 
<path style="fill:#02FFEE; fill-opacity:0.4000; stroke:none;fill-rule:evenodd;"
d="M 15.7750,22.0869
15.7750,21.1369
16.6250,21.1369
16.6250,22.0869
Z" /> 
<path style="fill:#02FFEE; fill-opacity:0.4000; stroke:none;fill-rule:evenodd;"
d="M 21.2040,15.0309
21.8040,15.0309
21.8040,15.5809
21.2040,15.5809
Z" /> 
<path style="fill:#02FFEE; fill-opacity:0.4000; stroke:none;fill-rule:evenodd;"
d="M 21.2040,14.0809
21.8040,14.0809
21.8040,14.6309
21.2040,14.6309
Z" /> 
<circle cx="23.1560" cy="19.9079" r="0.5000" /> 
<path style="fill:#02FFEE; fill-opacity:0.4000; stroke:none;fill-rule:evenodd;"
d="M 21.2040,13.4299
21.8040,13.4299
21.8040,13.9799
21.2040,13.9799
Z" /> 
<path style="fill:#02FFEE; fill-opacity:0.4000; stroke:none;fill-rule:evenodd;"
d="M 21.2040,12.4799
21.8040,12.4799
21.8040,13.0299
21.2040,13.0299
Z" /> 
<path style="fill:#02FFEE; fill-opacity:0.4000; stroke:none;fill-rule:evenodd;"
d="M 30.5000,22.7729
30.5000,21.8729
31.4000,21.8729
31.4000,22.7729
Z" /> 
<path style="fill:#02FFEE; fill-opacity:0.4000; stroke:none;fill-rule:evenodd;"
d="M 30.5000,21.1729
30.5000,20.2729
31.4000,20.2729
31.4000,21.1729
Z" /> 
<path style="fill:#02FFEE; fill-opacity:0.4000; stroke:none;fill-rule:evenodd;"
d="M 30.5000,19.5729
30.5000,18.6729
31.4000,18.6729
31.4000,19.5729
Z" /> 
<path style="fill:#02FFEE; fill-opacity:0.4000; stroke:none;fill-rule:evenodd;"
d="M 30.5000,17.9729
30.5000,17.0729
31.4000,17.0729
31.4000,17.9729
Z" /> 
<path style="fill:#02FFEE; fill-opacity:0.4000; stroke:none;fill-rule:evenodd;"
d="M 30.5000,16.3729
30.5000,15.4729
31.4000,15.4729
31.4000,16.3729
Z" /> 
<path style="fill:#02FFEE; fill-opacity:0.4000; stroke:none;fill-rule:evenodd;"
d="M 30.5000,14.7729
30.5000,13.8729
31.4000,13.8729
31.4000,14.7729
Z" /> 
<path style="fill:#02FFEE; fill-opacity:0.4000; stroke:none;fill-rule:evenodd;"
d="M 30.5000,13.1729
30.5000,12.2729
31.4000,12.2729
31.4000,13.1729
Z" /> 
<path style="fill:#02FFEE; fill-opacity:0.4000; stroke:none;fill-rule:evenodd;"
d="M 30.5000,11.5729
30.5000,10.6729
31.4000,10.6729
31.4000,11.5729
Z" /> 
<path style="fill:#02FFEE; fill-opacity:0.4000; stroke:none;fill-rule:evenodd;"
d="M 28.9000,22.7729
28.9000,21.8729
29.8000,21.8729
29.8000,22.7729
Z" /> 
<path style="fill:#02FFEE; fill-opacity:0.4000; stroke:none;fill-rule:evenodd;"
d="M 28.9000,21.1729
28.9000,20.2729
29.8000,20.2729
29.8000,21.1729
Z" /> 
<path style="fill:#02FFEE; fill-opacity:0.4000; stroke:none;fill-rule:evenodd;"
d="M 28.9000,19.5729
28.9000,18.6729
29.8000,18.6729
29.8000,19.5729
Z" /> 
<path style="fill:#02FFEE; fill-opacity:0.4000; stroke:none;fill-rule:evenodd;"
d="M 28.9000,17.9729
28.9000,17.0729
29.8000,17.0729
29.8000,17.9729
Z" /> 
<path style="fill:#02FFEE; fill-opacity:0.4000; stroke:none;fill-rule:evenodd;"
d="M 28.9000,16.3729
28.9000,15.4729
29.8000,15.4729
29.8000,16.3729
Z" /> 
<path style="fill:#02FFEE; fill-opacity:0.4000; stroke:none;fill-rule:evenodd;"
d="M 28.9000,14.7729
28.9000,13.8729
29.8000,13.8729
29.8000,14.7729
Z" /> 
<path style="fill:#02FFEE; fill-opacity:0.4000; stroke:none;fill-rule:evenodd;"
d="M 28.9000,13.1729
28.9000,12.2729
29.8000,12.2729
29.8000,13.1729
Z" /> 
<path style="fill:#02FFEE; fill-opacity:0.4000; stroke:none;fill-rule:evenodd;"
d="M 28.9000,11.5729
28.9000,10.6729
29.8000,10.6729
29.8000,11.5729
Z" /> 
<path style="fill:#02FFEE; fill-opacity:0.4000; stroke:none;fill-rule:evenodd;"
d="M 28.9000,9.9729
28.9000,9.0729
29.8000,9.0729
29.8000,9.9729
Z" /> 
<path style="fill:#02FFEE; fill-opacity:0.4000; stroke:none;fill-rule:evenodd;"
d="M 28.9000,8.3729
28.9000,7.4729
29.8000,7.4729
29.8000,8.3729
Z" /> 
<path style="fill:#02FFEE; fill-opacity:0.4000; stroke:none;fill-rule:evenodd;"
d="M 27.3000,22.7729
27.3000,21.8729
28.2000,21.8729
28.2000,22.7729
Z" /> 
<path style="fill:#02FFEE; fill-opacity:0.4000; stroke:none;fill-rule:evenodd;"
d="M 27.3000,21.1729
27.3000,20.2729
28.2000,20.2729
28.2000,21.1729
Z" /> 
<path style="fill:#02FFEE; fill-opacity:0.4000; stroke:none;fill-rule:evenodd;"
d="M 27.3000,19.5729
27.3000,18.6729
28.2000,18.6729
28.2000,19.5729
Z" /> 
<path style="fill:#02FFEE; fill-opacity:0.4000; stroke:none;fill-rule:evenodd;"
d="M 27.3000,17.9729
27.3000,17.0729
28.2000,17.0729
28.2000,17.9729
Z" /> 
<path style="fill:#02FFEE; fill-opacity:0.4000; stroke:none;fill-rule:evenodd;"
d="M 27.3000,16.3729
27.3000,15.4729
28.2000,15.4729
28.2000,16.3729
Z" /> 
<path style="fill:#02FFEE; fill-opacity:0.4000; stroke:none;fill-rule:evenodd;"
d="M 27.3000,14.7729
27.3000,13.8729
28.2000,13.8729
28.2000,14.7729
Z" /> 
<path style="fill:#02FFEE; fill-opacity:0.4000; stroke:none;fill-rule:evenodd;"
d="M 27.3000,13.1729
27.3000,12.2729
28.2000,12.2729
28.2000,13.1729
Z" /> 
<path style="fill:#02FFEE; fill-opacity:0.4000; stroke:none;fill-rule:evenodd;"
d="M 27.3000,11.5729
27.3000,10.6729
28.2000,10.6729
28.2000,11.5729
Z" /> 
<path style="fill:#02FFEE; fill-opacity:0.4000; stroke:none;fill-rule:evenodd;"
d="M 27.3000,9.9729
27.3000,9.0729
28.2000,9.0729
28.2000,9.9729
Z" /> 
<path style="fill:#02FFEE; fill-opacity:0.4000; stroke:none;fill-rule:evenodd;"
d="M 27.3000,8.3729
27.3000,7.4729
28.2000,7.4729
28.2000,8.3729
Z" /> 
<path style="fill:#02FFEE; fill-opacity:0.4000; stroke:none;fill-rule:evenodd;"
d="M 27.3000,6.7729
27.3000,5.8729
28.2000,5.8729
28.2000,6.7729
Z" /> 
<path style="fill:#02FFEE; fill-opacity:0.4000; stroke:none;fill-rule:evenodd;"
d="M 22.5000,30.7729
22.5000,29.8729
23.4000,29.8729
23.4000,30.7729
Z" /> 
<path style="fill:#02FFEE; fill-opacity:0.4000; stroke:none;fill-rule:evenodd;"
d="M 22.5000,3.5729
22.5000,2.6729
23.4000,2.6729
23.4000,3.5729
Z" /> 
<path style="fill:#02FFEE; fill-opacity:0.4000; stroke:none;fill-rule:evenodd;"
d="M 16.1000,5.1729
16.1000,4.2729
17.0000,4.2729
17.0000,5.1729
Z" /> 
<path style="fill:#02FFEE; fill-opacity:0.4000; stroke:none;fill-rule:evenodd;"
d="M 14.5000,5.1729
14.5000,4.2729
15.4000,4.2729
15.4000,5.1729
Z" /> 
<path style="fill:#02FFEE; fill-opacity:0.4000; stroke:none;fill-rule:evenodd;"
d="M 12.9000,5.1729
12.9000,4.2729
13.8000,4.2729
13.8000,5.1729
Z" /> 
<path style="fill:#02FFEE; fill-opacity:0.4000; stroke:none;fill-rule:evenodd;"
d="M 11.3000,30.7729
11.3000,29.8729
12.2000,29.8729
12.2000,30.7729
Z" /> 
<path style="fill:#02FFEE; fill-opacity:0.4000; stroke:none;fill-rule:evenodd;"
d="M 11.3000,5.1729
11.3000,4.2729
12.2000,4.2729
12.2000,5.1729
Z" /> 
<path style="fill:#02FFEE; fill-opacity:0.4000; stroke:none;fill-rule:evenodd;"
d="M 11.3000,3.5729
11.3000,2.6729
12.2000,2.6729
12.2000,3.5729
Z" /> 
<path style="fill:#02FFEE; fill-opacity:0.4000; stroke:none;fill-rule:evenodd;"
d="M 9.7000,30.7729
9.7000,29.8729
10.6000,29.8729
10.6000,30.7729
Z" /> 
<path style="fill:#02FFEE; fill-opacity:0.4000; stroke:none;fill-rule:evenodd;"
d="M 9.7000,3.5729
9.7000,2.6729
10.6000,2.6729
10.6000,3.5729
Z" /> 
<path style="fill:#02FFEE; fill-opacity:0.4000; stroke:none;fill-rule:evenodd;"
d="M 8.1000,29.1729
8.1000,28.2729
9.0000,28.2729
9.0000,29.1729
Z" /> 
<path style="fill:#02FFEE; fill-opacity:0.4000; stroke:none;fill-rule:evenodd;"
d="M 8.1000,27.5729
8.1000,26.6729
9.0000,26.6729
9.0000,27.5729
Z" /> 
<path style="fill:#02FFEE; fill-opacity:0.4000; stroke:none;fill-rule:evenodd;"
d="M 8.1000,25.9729
8.1000,25.0729
9.0000,25.0729
9.0000,25.9729
Z" /> 
<path style="fill:#02FFEE; fill-opacity:0.4000; stroke:none;fill-rule:evenodd;"
d="M 8.1000,24.3729
8.1000,23.4729
9.0000,23.4729
9.0000,24.3729
Z" /> 
<path style="fill:#02FFEE; fill-opacity:0.4000; stroke:none;fill-rule:evenodd;"
d="M 8.1000,22.7729
8.1000,21.8729
9.0000,21.8729
9.0000,22.7729
Z" /> 
<path style="fill:#02FFEE; fill-opacity:0.4000; stroke:none;fill-rule:evenodd;"
d="M 6.5000,27.5729
6.5000,26.6729
7.4000,26.6729
7.4000,27.5729
Z" /> 
<path style="fill:#02FFEE; fill-opacity:0.4000; stroke:none;fill-rule:evenodd;"
d="M 6.5000,25.9729
6.5000,25.0729
7.4000,25.0729
7.4000,25.9729
Z" /> 
<path style="fill:#02FFEE; fill-opacity:0.4000; stroke:none;fill-rule:evenodd;"
d="M 6.5000,24.3729
6.5000,23.4729
7.4000,23.4729
7.4000,24.3729
Z" /> 
<path style="fill:#02FFEE; fill-opacity:0.4000; stroke:none;fill-rule:evenodd;"
d="M 6.5000,22.7729
6.5000,21.8729
7.4000,21.8729
7.4000,22.7729
Z" /> 
<path style="fill:#02FFEE; fill-opacity:0.4000; stroke:none;fill-rule:evenodd;"
d="M 6.5000,11.5729
6.5000,10.6729
7.4000,10.6729
7.4000,11.5729
Z" /> 
<path style="fill:#02FFEE; fill-opacity:0.4000; stroke:none;fill-rule:evenodd;"
d="M 4.9000,25.9729
4.9000,25.0729
5.8000,25.0729
5.8000,25.9729
Z" /> 
<path style="fill:#02FFEE; fill-opacity:0.4000; stroke:none;fill-rule:evenodd;"
d="M 4.9000,24.3729
4.9000,23.4729
5.8000,23.4729
5.8000,24.3729
Z" /> 
<path style="fill:#02FFEE; fill-opacity:0.4000; stroke:none;fill-rule:evenodd;"
d="M 4.9000,22.7729
4.9000,21.8729
5.8000,21.8729
5.8000,22.7729
Z" /> 
<path style="fill:#02FFEE; fill-opacity:0.4000; stroke:none;fill-rule:evenodd;"
d="M 4.9000,11.5729
4.9000,10.6729
5.8000,10.6729
5.8000,11.5729
Z" /> 
<path style="fill:#02FFEE; fill-opacity:0.4000; stroke:none;fill-rule:evenodd;"
d="M 3.3000,24.3729
3.3000,23.4729
4.2000,23.4729
4.2000,24.3729
Z" /> 
<path style="fill:#02FFEE; fill-opacity:0.4000; stroke:none;fill-rule:evenodd;"
d="M 3.3000,22.7729
3.3000,21.8729
4.2000,21.8729
4.2000,22.7729
Z" /> 
<path style="fill:#02FFEE; fill-opacity:0.4000; stroke:none;fill-rule:evenodd;"
d="M 3.3000,21.1729
3.3000,20.2729
4.2000,20.2729
4.2000,21.1729
Z" /> 
<path style="fill:#02FFEE; fill-opacity:0.4000; stroke:none;fill-rule:evenodd;"
d="M 3.3000,19.5729
3.3000,18.6729
4.2000,18.6729
4.2000,19.5729
Z" /> 
<path style="fill:#02FFEE; fill-opacity:0.4000; stroke:none;fill-rule:evenodd;"
d="M 3.3000,17.9729
3.3000,17.0729
4.2000,17.0729
4.2000,17.9729
Z" /> 
<path style="fill:#02FFEE; fill-opacity:0.4000; stroke:none;fill-rule:evenodd;"
d="M 3.3000,16.3729
3.3000,15.4729
4.2000,15.4729
4.2000,16.3729
Z" /> 
<path style="fill:#02FFEE; fill-opacity:0.4000; stroke:none;fill-rule:evenodd;"
d="M 3.3000,14.7729
3.3000,13.8729
4.2000,13.8729
4.2000,14.7729
Z" /> 
<path style="fill:#02FFEE; fill-opacity:0.4000; stroke:none;fill-rule:evenodd;"
d="M 3.3000,13.1729
3.3000,12.2729
4.2000,12.2729
4.2000,13.1729
Z" /> 
<path style="fill:#02FFEE; fill-opacity:0.4000; stroke:none;fill-rule:evenodd;"
d="M 3.3000,11.5729
3.3000,10.6729
4.2000,10.6729
4.2000,11.5729
Z" /> 
<path style="fill:#02FFEE; fill-opacity:0.4000; stroke:none;fill-rule:evenodd;"
d="M 3.3000,9.9729
3.3000,9.0729
4.2000,9.0729
4.2000,9.9729
Z" /> 
<path style="fill:#02FFEE; fill-opacity:0.4000; stroke:none;fill-rule:evenodd;"
d="M 1.7000,21.1729
1.7000,20.2729
2.6000,20.2729
2.6000,21.1729
Z" /> 
<path style="fill:#02FFEE; fill-opacity:0.4000; stroke:none;fill-rule:evenodd;"
d="M 1.7000,19.5729
1.7000,18.6729
2.6000,18.6729
2.6000,19.5729
Z" /> 
<path style="fill:#02FFEE; fill-opacity:0.4000; stroke:none;fill-rule:evenodd;"
d="M 1.7000,17.9729
1.7000,17.0729
2.6000,17.0729
2.6000,17.9729
Z" /> 
<path style="fill:#02FFEE; fill-opacity:0.4000; stroke:none;fill-rule:evenodd;"
d="M 1.7000,16.3729
1.7000,15.4729
2.6000,15.4729
2.6000,16.3729
Z" /> 
<path style="fill:#02FFEE; fill-opacity:0.4000; stroke:none;fill-rule:evenodd;"
d="M 1.7000,14.7729
1.7000,13.8729
2.6000,13.8729
2.6000,14.7729
Z" /> 
<path style="fill:#02FFEE; fill-opacity:0.4000; stroke:none;fill-rule:evenodd;"
d="M 1.7000,13.1729
1.7000,12.2729
2.6000,12.2729
2.6000,13.1729
Z" /> 
<path style="fill:#02FFEE; fill-opacity:0.4000; stroke:none;fill-rule:evenodd;"
d="M 11.8950,11.8799
12.4950,11.8799
12.4950,12.4299
11.8950,12.4299
Z" /> 
<path style="fill:#02FFEE; fill-opacity:0.4000; stroke:none;fill-rule:evenodd;"
d="M 11.8950,10.9299
12.4950,10.9299
12.4950,11.4799
11.8950,11.4799
Z" /> 
<circle cx="22.6550" cy="12.6049" r="0.5000" /> 
<path style="fill:#02FFEE; fill-opacity:0.4000; stroke:none;fill-rule:evenodd;"
d="M 11.8950,18.2329
12.4950,18.2329
12.4950,18.7829
11.8950,18.7829
Z" /> 
<path style="fill:#02FFEE; fill-opacity:0.4000; stroke:none;fill-rule:evenodd;"
d="M 11.8950,17.2829
12.4950,17.2829
12.4950,17.8329
11.8950,17.8329
Z" /> 
<path style="fill:#02FFEE; fill-opacity:0.4000; stroke:none;fill-rule:evenodd;"
d="M 9.5950,16.6319
10.1950,16.6319
10.1950,17.1819
9.5950,17.1819
Z" /> 
<path style="fill:#02FFEE; fill-opacity:0.4000; stroke:none;fill-rule:evenodd;"
d="M 9.5950,15.6819
10.1950,15.6819
10.1950,16.2319
9.5950,16.2319
Z" /> 
<path style="fill:#02FFEE; fill-opacity:0.4000; stroke:none;fill-rule:evenodd;"
d="M 14.8480,16.6319
15.4480,16.6319
15.4480,17.1819
14.8480,17.1819
Z" /> 
<path style="fill:#02FFEE; fill-opacity:0.4000; stroke:none;fill-rule:evenodd;"
d="M 14.8480,15.6819
15.4480,15.6819
15.4480,16.2319
14.8480,16.2319
Z" /> 
<path style="fill:#02FFEE; fill-opacity:0.4000; stroke:none;fill-rule:evenodd;"
d="M 17.2000,17.1819
17.2000,16.5819
17.7500,16.5819
17.7500,17.1819
Z" /> 
<path style="fill:#02FFEE; fill-opacity:0.4000; stroke:none;fill-rule:evenodd;"
d="M 16.2500,17.1819
16.2500,16.5819
16.8000,16.5819
16.8000,17.1819
Z" /> 
<path style="fill:#02FFEE; fill-opacity:0.4000; stroke:none;fill-rule:evenodd;"
d="M 21.0280,19.0599
21.9780,19.0599
21.9780,19.9099
21.0280,19.9099
Z" /> 
<path style="fill:#02FFEE; fill-opacity:0.4000; stroke:none;fill-rule:evenodd;"
d="M 21.0280,20.6599
21.9780,20.6599
21.9780,21.5099
21.0280,21.5099
Z" /> 
<path style="fill:#02FFEE; fill-opacity:0.4000; stroke:none;fill-rule:evenodd;"
d="M 19.3500,13.9799
19.3500,13.3799
19.9000,13.3799
19.9000,13.9799
Z" /> 
<path style="fill:#02FFEE; fill-opacity:0.4000; stroke:none;fill-rule:evenodd;"
d="M 18.4000,13.9799
18.4000,13.3799
18.9500,13.3799
18.9500,13.9799
Z" /> 
<path style="fill:#02FFEE; fill-opacity:0.4000; stroke:none;fill-rule:evenodd;"
d="M 18.8010,23.8389
18.8010,23.2389
19.3510,23.2389
19.3510,23.8389
Z" /> 
<path style="fill:#02FFEE; fill-opacity:0.4000; stroke:none;fill-rule:evenodd;"
d="M 17.8510,23.8389
17.8510,23.2389
18.4010,23.2389
18.4010,23.8389
Z" /> 
<circle cx="19.1500" cy="12.5289" r="0.5000" /> 
<path style="fill:#02FFEE; fill-opacity:0.4000; stroke:none;fill-rule:evenodd;"
d="M 21.5760,11.6779
21.5760,11.0779
22.1260,11.0779
22.1260,11.6779
Z" /> 
<path style="fill:#02FFEE; fill-opacity:0.4000; stroke:none;fill-rule:evenodd;"
d="M 20.6260,11.6779
20.6260,11.0779
21.1760,11.0779
21.1760,11.6779
Z" /> 
<path style="fill:#02FFEE; fill-opacity:0.4000; stroke:none;fill-rule:evenodd;"
d="M 26.0100,9.0369
25.4100,9.0369
25.4100,8.4869
26.0100,8.4869
Z" /> 
<path style="fill:#02FFEE; fill-opacity:0.4000; stroke:none;fill-rule:evenodd;"
d="M 26.0100,9.9869
25.4100,9.9869
25.4100,9.4369
26.0100,9.4369
Z" /> 
<path style="fill:#02FFEE; fill-opacity:0.4000; stroke:none;fill-rule:evenodd;"
d="M 14.8480,15.0309
15.4480,15.0309
15.4480,15.5809
14.8480,15.5809
Z" /> 
<path style="fill:#02FFEE; fill-opacity:0.4000; stroke:none;fill-rule:evenodd;"
d="M 14.8480,14.0809
15.4480,14.0809
15.4480,14.6309
14.8480,14.6309
Z" /> 
<path style="fill:#02FFEE; fill-opacity:0.4000; stroke:none;fill-rule:evenodd;"
d="M 13.6970,12.4779
14.2970,12.4779
14.2970,13.0279
13.6970,13.0279
Z" /> 
<path style="fill:#02FFEE; fill-opacity:0.4000; stroke:none;fill-rule:evenodd;"
d="M 13.6970,11.5279
14.2970,11.5279
14.2970,12.0779
13.6970,12.0779
Z" /> 
<path style="fill:#02FFEE; fill-opacity:0.4000; stroke:none;fill-rule:evenodd;"
d="M 13.5460,18.8329
13.5460,18.2329
14.0960,18.2329
14.0960,18.8329
Z" /> 
<path style="fill:#02FFEE; fill-opacity:0.4000; stroke:none;fill-rule:evenodd;"
d="M 12.5960,18.8329
12.5960,18.2329
13.1460,18.2329
13.1460,18.8329
Z" /> 
<circle cx="16.9240" cy="13.7799" r="0.5000" /> 
<path style="fill:#02FFEE; fill-opacity:0.4000; stroke:none;fill-rule:evenodd;"
d="M 9.5830,21.4579
10.5330,21.4579
10.5330,22.3079
9.5830,22.3079
Z" /> 
<path style="fill:#02FFEE; fill-opacity:0.4000; stroke:none;fill-rule:evenodd;"
d="M 9.5830,19.8579
10.5330,19.8579
10.5330,20.7079
9.5830,20.7079
Z" /> 
<path style="fill:#02FFEE; fill-opacity:0.4000; stroke:none;fill-rule:evenodd;"
d="M 12.9960,12.4779
13.5960,12.4779
13.5960,13.0279
12.9960,13.0279
Z" /> 
<path style="fill:#02FFEE; fill-opacity:0.4000; stroke:none;fill-rule:evenodd;"
d="M 12.9960,11.5279
13.5960,11.5279
13.5960,12.0779
12.9960,12.0779
Z" /> 
<path style="fill:#02FFEE; fill-opacity:0.4000; stroke:none;fill-rule:evenodd;"
d="M 17.3750,19.9849
17.3750,19.0349
18.2250,19.0349
18.2250,19.9849
Z" /> 
<path style="fill:#02FFEE; fill-opacity:0.4000; stroke:none;fill-rule:evenodd;"
d="M 15.7750,19.9849
15.7750,19.0349
16.6250,19.0349
16.6250,19.9849
Z" /> 
<path style="fill:#02FFEE; fill-opacity:0.4000; stroke:none;fill-rule:evenodd;"
d="M 17.2000,23.6379
17.2000,23.0379
17.7500,23.0379
17.7500,23.6379
Z" /> 
<path style="fill:#02FFEE; fill-opacity:0.4000; stroke:none;fill-rule:evenodd;"
d="M 16.2500,23.6379
16.2500,23.0379
16.8000,23.0379
16.8000,23.6379
Z" /> 
<path style="fill:#02FFEE; fill-opacity:0.4000; stroke:none;fill-rule:evenodd;"
d="M 13.2240,23.3879
13.2240,22.4379
14.0740,22.4379
14.0740,23.3879
Z" /> 
<path style="fill:#02FFEE; fill-opacity:0.4000; stroke:none;fill-rule:evenodd;"
d="M 14.8240,23.3879
14.8240,22.4379
15.6740,22.4379
15.6740,23.3879
Z" /> 
<path style="fill:#02FFEE; fill-opacity:0.4000; stroke:none;fill-rule:evenodd;"
d="M 8.8580,18.9829
8.8580,18.3829
9.4080,18.3829
9.4080,18.9829
Z" /> 
<path style="fill:#02FFEE; fill-opacity:0.4000; stroke:none;fill-rule:evenodd;"
d="M 7.9080,18.9829
7.9080,18.3829
8.4580,18.3829
8.4580,18.9829
Z" /> 
<path style="fill:#02FFEE; fill-opacity:0.4000; stroke:none;fill-rule:evenodd;"
d="M 17.2000,16.4809
17.2000,15.8809
17.7500,15.8809
17.7500,16.4809
Z" /> 
<path style="fill:#02FFEE; fill-opacity:0.4000; stroke:none;fill-rule:evenodd;"
d="M 16.2500,16.4809
16.2500,15.8809
16.8000,15.8809
16.8000,16.4809
Z" /> 
<path style="fill:#02FFEE; fill-opacity:0.4000; stroke:none;fill-rule:evenodd;"
d="M 14.1470,15.0309
14.7470,15.0309
14.7470,15.5809
14.1470,15.5809
Z" /> 
<path style="fill:#02FFEE; fill-opacity:0.4000; stroke:none;fill-rule:evenodd;"
d="M 14.1470,14.0809
14.7470,14.0809
14.7470,14.6309
14.1470,14.6309
Z" /> 
<path style="fill:#02FFEE; fill-opacity:0.4000; stroke:none;fill-rule:evenodd;"
d="M 10.7450,20.1329
11.3450,20.1329
11.3450,20.6829
10.7450,20.6829
Z" /> 
<path style="fill:#02FFEE; fill-opacity:0.4000; stroke:none;fill-rule:evenodd;"
d="M 10.7450,19.1829
11.3450,19.1829
11.3450,19.7329
10.7450,19.7329
Z" /> 
<path style="fill:#02FFEE; fill-opacity:0.4000; stroke:none;fill-rule:evenodd;"
d="M 20.1760,13.4559
20.7760,13.4559
20.7760,14.0059
20.1760,14.0059
Z" /> 
<path style="fill:#02FFEE; fill-opacity:0.4000; stroke:none;fill-rule:evenodd;"
d="M 20.1760,14.4059
20.7760,14.4059
20.7760,14.9559
20.1760,14.9559
Z" /> 
<path style="fill:#02FFEE; fill-opacity:0.4000; stroke:none;fill-rule:evenodd;"
d="M 23.9060,14.6049
23.9060,14.0049
24.4560,14.0049
24.4560,14.6049
Z" /> 
<path style="fill:#02FFEE; fill-opacity:0.4000; stroke:none;fill-rule:evenodd;"
d="M 22.9560,14.6049
22.9560,14.0049
23.5060,14.0049
23.5060,14.6049
Z" /> 
<circle cx="16.9240" cy="11.4779" r="0.5000" /> 
<circle cx="21.9540" cy="17.0569" r="0.5000" /> 
<path style="fill:#02FFEE; fill-opacity:0.4000; stroke:none;fill-rule:evenodd;"
d="M 13.3730,21.2359
13.3730,20.6359
13.9230,20.6359
13.9230,21.2359
Z" /> 
<path style="fill:#02FFEE; fill-opacity:0.4000; stroke:none;fill-rule:evenodd;"
d="M 12.4230,21.2359
12.4230,20.6359
12.9730,20.6359
12.9730,21.2359
Z" /> 
<path style="fill:#02FFEE; fill-opacity:0.4000; stroke:none;fill-rule:evenodd;"
d="M 8.3830,20.8579
9.3330,20.8579
9.3330,21.7079
8.3830,21.7079
Z" /> 
<path style="fill:#02FFEE; fill-opacity:0.4000; stroke:none;fill-rule:evenodd;"
d="M 8.3830,19.2579
9.3330,19.2579
9.3330,20.1079
8.3830,20.1079
Z" /> 
<path style="fill:#02FFEE; fill-opacity:0.4000; stroke:none;fill-rule:evenodd;"
d="M 19.5250,11.6779
19.5250,10.7279
20.3750,10.7279
20.3750,11.6779
Z" /> 
<path style="fill:#02FFEE; fill-opacity:0.4000; stroke:none;fill-rule:evenodd;"
d="M 17.9250,11.6779
17.9250,10.7279
18.7750,10.7279
18.7750,11.6779
Z" /> 
<path style="fill:#02FFEE; fill-opacity:0.4000; stroke:none;fill-rule:evenodd;"
d="M 19.4260,20.3359
19.4260,19.7359
19.9760,19.7359
19.9760,20.3359
Z" /> 
<path style="fill:#02FFEE; fill-opacity:0.4000; stroke:none;fill-rule:evenodd;"
d="M 18.4760,20.3359
18.4760,19.7359
19.0260,19.7359
19.0260,20.3359
Z" /> 
<path style="fill:#02FFEE; fill-opacity:0.4000; stroke:none;fill-rule:evenodd;"
d="M 19.4260,19.6349
19.4260,19.0349
19.9760,19.0349
19.9760,19.6349
Z" /> 
<path style="fill:#02FFEE; fill-opacity:0.4000; stroke:none;fill-rule:evenodd;"
d="M 18.4760,19.6349
18.4760,19.0349
19.0260,19.0349
19.0260,19.6349
Z" /> 
<path style="fill:#02FFEE; fill-opacity:0.4000; stroke:none;fill-rule:evenodd;"
d="M 9.5950,18.2329
10.1950,18.2329
10.1950,18.7829
9.5950,18.7829
Z" /> 
<path style="fill:#02FFEE; fill-opacity:0.4000; stroke:none;fill-rule:evenodd;"
d="M 9.5950,17.2829
10.1950,17.2829
10.1950,17.8329
9.5950,17.8329
Z" /> 
<path style="fill:#02FFEE; fill-opacity:0.4000; stroke:none;fill-rule:evenodd;"
d="M 10.5700,16.1569
11.5200,16.1569
11.5200,17.0069
10.5700,17.0069
Z" /> 
<path style="fill:#02FFEE; fill-opacity:0.4000; stroke:none;fill-rule:evenodd;"
d="M 10.5700,17.7569
11.5200,17.7569
11.5200,18.6069
10.5700,18.6069
Z" /> 
<path style="fill:#02FFEE; fill-opacity:0.4000; stroke:none;fill-rule:evenodd;"
d="M 20.0770,19.5349
20.6770,19.5349
20.6770,20.0849
20.0770,20.0849
Z" /> 
<path style="fill:#02FFEE; fill-opacity:0.4000; stroke:none;fill-rule:evenodd;"
d="M 20.0770,18.5849
20.6770,18.5849
20.6770,19.1349
20.0770,19.1349
Z" /> 
<path style="fill:#02FFEE; fill-opacity:0.4000; stroke:none;fill-rule:evenodd;"
d="M 14.9740,21.9369
14.9740,21.3369
15.5240,21.3369
15.5240,21.9369
Z" /> 
<path style="fill:#02FFEE; fill-opacity:0.4000; stroke:none;fill-rule:evenodd;"
d="M 14.0240,21.9369
14.0240,21.3369
14.5740,21.3369
14.5740,21.9369
Z" /> 
<path style="fill:#02FFEE; fill-opacity:0.4000; stroke:none;fill-rule:evenodd;"
d="M 17.2000,18.9339
17.2000,18.3339
17.7500,18.3339
17.7500,18.9339
Z" /> 
<path style="fill:#02FFEE; fill-opacity:0.4000; stroke:none;fill-rule:evenodd;"
d="M 16.2500,18.9339
16.2500,18.3339
16.8000,18.3339
16.8000,18.9339
Z" /> 
<path style="fill:#02FFEE; fill-opacity:0.4000; stroke:none;fill-rule:evenodd;"
d="M 14.9740,19.6349
14.9740,19.0349
15.5240,19.0349
15.5240,19.6349
Z" /> 
<path style="fill:#02FFEE; fill-opacity:0.4000; stroke:none;fill-rule:evenodd;"
d="M 14.0240,19.6349
14.0240,19.0349
14.5740,19.0349
14.5740,19.6349
Z" /> 
<path style="fill:#02FFEE; fill-opacity:0.4000; stroke:none;fill-rule:evenodd;"
d="M 19.4260,21.9119
19.4260,21.3119
19.9760,21.3119
19.9760,21.9119
Z" /> 
<path style="fill:#02FFEE; fill-opacity:0.4000; stroke:none;fill-rule:evenodd;"
d="M 18.4760,21.9119
18.4760,21.3119
19.0260,21.3119
19.0260,21.9119
Z" /> 
<path style="fill:#02FFEE; fill-opacity:0.4000; stroke:none;fill-rule:evenodd;"
d="M 20.9510,12.3789
20.9510,11.7789
21.5010,11.7789
21.5010,12.3789
Z" /> 
<path style="fill:#02FFEE; fill-opacity:0.4000; stroke:none;fill-rule:evenodd;"
d="M 20.0010,12.3789
20.0010,11.7789
20.5510,11.7789
20.5510,12.3789
Z" /> 
<path style="fill:#02FFEE; fill-opacity:0.4000; stroke:none;fill-rule:evenodd;"
d="M 11.2330,23.5579
11.2330,22.6079
12.0830,22.6079
12.0830,23.5579
Z" /> 
<path style="fill:#02FFEE; fill-opacity:0.4000; stroke:none;fill-rule:evenodd;"
d="M 9.6330,23.5579
9.6330,22.6079
10.4830,22.6079
10.4830,23.5579
Z" /> 
<path style="fill:#02FFEE; fill-opacity:0.4000; stroke:none;fill-rule:evenodd;"
d="M 13.4460,14.0809
14.0460,14.0809
14.0460,14.6309
13.4460,14.6309
Z" /> 
<path style="fill:#02FFEE; fill-opacity:0.4000; stroke:none;fill-rule:evenodd;"
d="M 13.4460,13.1309
14.0460,13.1309
14.0460,13.6809
13.4460,13.6809
Z" /> 
<path style="fill:#02FFEE; fill-opacity:0.4000; stroke:none;fill-rule:evenodd;"
d="M 18.7250,10.6269
18.7250,10.0269
19.2750,10.0269
19.2750,10.6269
Z" /> 
<path style="fill:#02FFEE; fill-opacity:0.4000; stroke:none;fill-rule:evenodd;"
d="M 17.7750,10.6269
17.7750,10.0269
18.3250,10.0269
18.3250,10.6269
Z" /> 
<circle cx="14.7740" cy="20.4859" r="0.5000" /> 
<path style="fill:#02FFEE; fill-opacity:0.4000; stroke:none;fill-rule:evenodd;"
d="M 17.1240,9.9259
17.1240,9.3259
17.6740,9.3259
17.6740,9.9259
Z" /> 
<path style="fill:#02FFEE; fill-opacity:0.4000; stroke:none;fill-rule:evenodd;"
d="M 16.1740,9.9259
16.1740,9.3259
16.7240,9.3259
16.7240,9.9259
Z" /> 
<path style="fill:#02FFEE; fill-opacity:0.4000; stroke:none;fill-rule:evenodd;"
d="M 11.2330,24.7579
11.2330,23.8079
12.0830,23.8079
12.0830,24.7579
Z" /> 
<path style="fill:#02FFEE; fill-opacity:0.4000; stroke:none;fill-rule:evenodd;"
d="M 9.6330,24.7579
9.6330,23.8079
10.4830,23.8079
10.4830,24.7579
Z" /> 
<path style="fill:#02FFEE; fill-opacity:0.4000; stroke:none;fill-rule:evenodd;"
d="M 17.1240,10.6269
17.1240,10.0269
17.6740,10.0269
17.6740,10.6269
Z" /> 
<path style="fill:#02FFEE; fill-opacity:0.4000; stroke:none;fill-rule:evenodd;"
d="M 16.1740,10.6269
16.1740,10.0269
16.7240,10.0269
16.7240,10.6269
Z" /> 
<path style="fill:#02FFEE; fill-opacity:0.4000; stroke:none;fill-rule:evenodd;"
d="M 20.0770,21.1359
20.6770,21.1359
20.6770,21.6859
20.0770,21.6859
Z" /> 
<path style="fill:#02FFEE; fill-opacity:0.4000; stroke:none;fill-rule:evenodd;"
d="M 20.0770,20.1859
20.6770,20.1859
20.6770,20.7359
20.0770,20.7359
Z" /> 
<path style="fill:#02FFEE; fill-opacity:0.4000; stroke:none;fill-rule:evenodd;"
d="M 17.8510,16.6319
18.4510,16.6319
18.4510,17.1819
17.8510,17.1819
Z" /> 
<path style="fill:#02FFEE; fill-opacity:0.4000; stroke:none;fill-rule:evenodd;"
d="M 17.8510,15.6819
18.4510,15.6819
18.4510,16.2319
17.8510,16.2319
Z" /> 
<path style="fill:#02FFEE; fill-opacity:0.4000; stroke:none;fill-rule:evenodd;"
d="M 14.9240,18.2329
15.5240,18.2329
15.5240,18.7829
14.9240,18.7829
Z" /> 
<path style="fill:#02FFEE; fill-opacity:0.4000; stroke:none;fill-rule:evenodd;"
d="M 14.9240,17.2829
15.5240,17.2829
15.5240,17.8329
14.9240,17.8329
Z" /> 
<circle cx="21.4780" cy="22.8359" r="0.5000" /> 
<path style="fill:#02FFEE; fill-opacity:0.4000; stroke:none;fill-rule:evenodd;"
d="M 19.4260,21.0369
19.4260,20.4369
19.9760,20.4369
19.9760,21.0369
Z" /> 
<path style="fill:#02FFEE; fill-opacity:0.4000; stroke:none;fill-rule:evenodd;"
d="M 18.4760,21.0369
18.4760,20.4369
19.0260,20.4369
19.0260,21.0369
Z" /> 
<path style="fill:#02FFEE; fill-opacity:0.4000; stroke:none;fill-rule:evenodd;"
d="M 7.1830,20.8579
8.1330,20.8579
8.1330,21.7079
7.1830,21.7079
Z" /> 
<path style="fill:#02FFEE; fill-opacity:0.4000; stroke:none;fill-rule:evenodd;"
d="M 7.1830,19.2579
8.1330,19.2579
8.1330,20.1079
7.1830,20.1079
Z" /> 
<path style="fill:#02FFEE; fill-opacity:0.4000; stroke:none;fill-rule:evenodd;"
d="M 15.3480,12.5779
15.3480,11.9779
15.8980,11.9779
15.8980,12.5779
Z" /> 
<path style="fill:#02FFEE; fill-opacity:0.4000; stroke:none;fill-rule:evenodd;"
d="M 14.3980,12.5779
14.3980,11.9779
14.9480,11.9779
14.9480,12.5779
Z" /> 
<path style="fill:#02FFEE; fill-opacity:0.4000; stroke:none;fill-rule:evenodd;"
d="M 11.7220,20.6859
12.3220,20.6859
12.3220,21.2359
11.7220,21.2359
Z" /> 
<path style="fill:#02FFEE; fill-opacity:0.4000; stroke:none;fill-rule:evenodd;"
d="M 11.7220,19.7359
12.3220,19.7359
12.3220,20.2859
11.7220,20.2859
Z" /> 
<path style="fill:#02FFEE; fill-opacity:0.4000; stroke:none;fill-rule:evenodd;"
d="M 11.7150,14.6309
12.2750,14.6309
12.2750,15.5809
11.7150,15.5809
Z" /> 
<path style="fill:#02FFEE; fill-opacity:0.4000; stroke:none;fill-rule:evenodd;"
d="M 9.8150,14.6309
10.3750,14.6309
10.3750,15.5809
9.8150,15.5809
Z" /> 
<path style="fill:#02FFEE; fill-opacity:0.4000; stroke:none;fill-rule:evenodd;"
d="M 10.7650,12.5309
11.3250,12.5309
11.3250,13.4809
10.7650,13.4809
Z" /> 
<path style="fill:#02FFEE; fill-opacity:0.4000; stroke:none;fill-rule:evenodd;"
d="M 23.1650,6.8269
23.1650,7.7769
22.3150,7.7769
22.3150,6.8269
Z" /> 
<path style="fill:#02FFEE; fill-opacity:0.4000; stroke:none;fill-rule:evenodd;"
d="M 24.7650,6.8269
24.7650,7.7769
23.9150,7.7769
23.9150,6.8269
Z" /> 
<path style="fill:#02FFEE; fill-opacity:0.4000; stroke:none;fill-rule:evenodd;"
d="M 23.2950,6.1219
23.2950,6.7219
22.7450,6.7219
22.7450,6.1219
Z" /> 
<path style="fill:#02FFEE; fill-opacity:0.4000; stroke:none;fill-rule:evenodd;"
d="M 24.2450,6.1219
24.2450,6.7219
23.6950,6.7219
23.6950,6.1219
Z" /> 
<circle cx="13.1730" cy="19.7849" r="0.5000" /> 
<circle cx="19.1500" cy="14.8309" r="0.5000" /> 
<path style="fill:#02FFEE; fill-opacity:0.4000; stroke:none;fill-rule:evenodd;"
d="M 17.1240,12.9289
17.1240,12.3289
17.6740,12.3289
17.6740,12.9289
Z" /> 
<path style="fill:#02FFEE; fill-opacity:0.4000; stroke:none;fill-rule:evenodd;"
d="M 16.1740,12.9289
16.1740,12.3289
16.7240,12.3289
16.7240,12.9289
Z" /> 
<path style="fill:#02FFEE; fill-opacity:0.4000; stroke:none;fill-rule:evenodd;"
d="M 15.5490,16.6319
16.1490,16.6319
16.1490,17.1819
15.5490,17.1819
Z" /> 
<path style="fill:#02FFEE; fill-opacity:0.4000; stroke:none;fill-rule:evenodd;"
d="M 15.5490,15.6819
16.1490,15.6819
16.1490,16.2319
15.5490,16.2319
Z" /> 
<path style="fill:#02FFEE; fill-opacity:0.4000; stroke:none;fill-rule:evenodd;"
d="M 14.1470,16.6319
14.7470,16.6319
14.7470,17.1819
14.1470,17.1819
Z" /> 
<path style="fill:#02FFEE; fill-opacity:0.4000; stroke:none;fill-rule:evenodd;"
d="M 14.1470,15.6819
14.7470,15.6819
14.7470,16.2319
14.1470,16.2319
Z" /> 
</g>
<g style="fill:#000000; fill-opacity:1.0000; stroke:none;">
<circle cx="7.1005" cy="6.9824" r="1.5000" /> 
<circle cx="26.8995" cy="26.7814" r="1.5000" /> 
</g> 
</svg>
