<?xml version="1.0" standalone="no"?>
 <!DOCTYPE svg PUBLIC "-//W3C//DTD SVG 1.1//EN" 
 "http://www.w3.org/Graphics/SVG/1.1/DTD/svg11.dtd"> 
<svg
  xmlns:svg="http://www.w3.org/2000/svg"
  xmlns="http://www.w3.org/2000/svg"
  xmlns:xlink="http://www.w3.org/1999/xlink"
  xmlns:inkscape="http://www.inkscape.org/namespaces/inkscape"
  version="1.1"
  width="33.9852mm" height="33.7566mm" viewBox="0.0000 0.0000 33.9852 33.7566">
<title>SVG Image created as lay_In8_Cu.svg date 2026-09-12T14:32:12 </title>
  <desc>Image generated by PCBNEW </desc>
<g style="fill:#000000; fill-opacity:1.0000;stroke:#000000; stroke-opacity:1.0000;
stroke-linecap:round; stroke-linejoin:round;"
 transform="translate(0 0) scale(1 1)">
</g>
<g style="fill:#F2EDA1; fill-opacity:1.0000; stroke:none;">
<circle cx="1.2787" cy="16.3292" r="0.2250" /> 
<circle cx="8.2720" cy="19.6109" r="0.2250" /> 
<circle cx="16.5782" cy="8.1496" r="0.2250" /> 
<circle cx="8.8004" cy="20.1729" r="0.2250" /> 
<circle cx="9.2246" cy="24.7641" r="0.2250" /> 
<circle cx="17.3035" cy="8.1824" r="0.2250" /> 
<circle cx="11.4710" cy="11.6432" r="0.2250" /> 
<circle cx="17.7750" cy="11.5299" r="0.2250" /> 
<circle cx="13.7000" cy="17.4819" r="0.2250" /> 
<circle cx="16.8559" cy="19.8870" r="0.2250" /> 
<circle cx="14.9480" cy="26.5859" r="0.2250" /> 
<circle cx="10.5710" cy="14.8819" r="0.2250" /> 
<circle cx="17.1240" cy="20.2569" r="0.2250" /> 
<circle cx="6.7284" cy="19.9320" r="0.2250" /> 
<circle cx="10.5730" cy="15.8079" r="0.2250" /> 
<circle cx="16.9500" cy="8.7529" r="0.2250" /> 
<circle cx="7.1956" cy="19.6829" r="0.2250" /> 
<circle cx="9.9460" cy="14.8059" r="0.2250" /> 
<circle cx="15.4490" cy="24.0129" r="0.2250" /> 
<circle cx="22.7194" cy="25.8384" r="0.2250" /> 
<circle cx="26.2810" cy="19.9819" r="0.2250" /> 
<circle cx="1.5986" cy="16.7104" r="0.2250" /> 
<circle cx="10.5450" cy="15.3569" r="0.2250" /> 
<circle cx="17.6093" cy="20.3418" r="0.2250" /> 
<circle cx="22.3541" cy="15.3043" r="0.2250" /> 
<circle cx="23.7810" cy="20.2319" r="0.2250" /> 
<circle cx="16.8805" cy="20.9314" r="0.2250" /> 
<circle cx="28.5625" cy="7.3715" r="0.2250" /> 
<circle cx="8.7500" cy="24.7229" r="0.2250" /> 
<circle cx="23.3030" cy="20.7349" r="0.2250" /> 
<circle cx="9.0580" cy="24.2829" r="0.2250" /> 
<circle cx="10.8230" cy="18.9869" r="0.2250" /> 
<circle cx="9.7070" cy="11.1129" r="0.2250" /> 
<circle cx="24.2500" cy="7.9319" r="0.2500" /> 
<circle cx="14.0992" cy="23.9957" r="0.2250" /> 
<circle cx="15.5490" cy="8.6289" r="0.2250" /> 
<circle cx="13.3490" cy="11.7809" r="0.2250" /> 
<circle cx="18.5965" cy="24.0996" r="0.2250" /> 
<circle cx="9.2246" cy="24.7641" r="0.2250" /> 
<circle cx="8.8270" cy="26.3089" r="0.2250" /> 
<circle cx="15.7890" cy="14.9118" r="0.2250" /> 
<circle cx="26.2100" cy="9.6019" r="0.2500" /> 
<circle cx="10.0950" cy="15.3319" r="0.2250" /> 
<circle cx="8.8070" cy="20.1383" r="0.2250" /> 
<circle cx="22.6260" cy="13.8309" r="0.2250" /> 
<circle cx="9.5268" cy="24.0029" r="0.2250" /> 
<circle cx="16.9955" cy="19.1946" r="0.2250" /> 
<circle cx="16.7520" cy="18.7216" r="0.2250" /> 
<circle cx="20.5770" cy="19.1609" r="0.2250" /> 
<circle cx="25.2810" cy="20.4819" r="0.2250" /> 
<circle cx="17.3250" cy="20.7839" r="0.2250" /> 
<circle cx="6.9196" cy="18.8108" r="0.2250" /> 
<circle cx="10.5082" cy="4.1131" r="0.2250" /> 
<circle cx="25.2100" cy="8.8019" r="0.2500" /> 
<circle cx="14.9000" cy="24.4579" r="0.2250" /> 
<circle cx="20.0500" cy="7.2529" r="0.2250" /> 
<circle cx="13.5500" cy="24.4579" r="0.2250" /> 
<circle cx="10.9970" cy="10.2529" r="0.2250" /> 
<circle cx="28.5500" cy="21.5229" r="0.2250" /> 
<circle cx="19.7000" cy="21.5079" r="0.2250" /> 
<circle cx="20.0750" cy="11.4299" r="0.2250" /> 
<circle cx="23.5260" cy="7.9789" r="0.2250" /> 
<circle cx="14.1144" cy="7.1853" r="0.2250" /> 
<circle cx="22.9200" cy="8.0319" r="0.2500" /> 
<circle cx="23.1000" cy="7.6029" r="0.2250" /> 
<circle cx="6.1450" cy="17.3069" r="0.2250" /> 
<circle cx="21.5698" cy="10.2130" r="0.2250" /> 
<circle cx="20.3500" cy="7.6029" r="0.2250" /> 
<circle cx="18.6071" cy="5.8120" r="0.2250" /> 
<circle cx="18.6863" cy="22.2507" r="0.2250" /> 
<circle cx="26.2720" cy="18.3469" r="0.2250" /> 
<circle cx="8.4620" cy="14.9076" r="0.2250" /> 
<circle cx="7.7745" cy="10.9629" r="0.2250" /> 
<circle cx="8.0212" cy="13.6440" r="0.2250" /> 
<circle cx="25.0447" cy="19.5460" r="0.2250" /> 
<circle cx="16.4290" cy="2.5197" r="0.2250" /> 
<circle cx="29.4687" cy="19.9175" r="0.2250" /> 
<circle cx="22.4046" cy="22.1750" r="0.2250" /> 
<circle cx="32.0500" cy="16.0229" r="0.2250" /> 
<circle cx="4.5500" cy="9.2913" r="0.2250" /> 
<circle cx="16.5008" cy="14.8974" r="0.2250" /> 
<circle cx="4.5500" cy="12.7293" r="0.2250" /> 
<circle cx="20.5975" cy="9.5045" r="0.2250" /> 
<circle cx="17.5040" cy="15.9049" r="0.2250" /> 
<circle cx="16.7990" cy="26.6629" r="0.2250" /> 
<circle cx="21.2270" cy="23.6609" r="0.2250" /> 
<circle cx="20.7720" cy="17.8469" r="0.2250" /> 
<circle cx="19.2490" cy="9.0759" r="0.2250" /> 
<circle cx="21.0720" cy="17.4969" r="0.2250" /> 
<circle cx="13.7480" cy="22.3859" r="0.2250" /> 
<circle cx="17.3476" cy="15.4617" r="0.2250" /> 
<circle cx="20.8525" cy="8.1192" r="0.2250" /> 
<circle cx="30.1625" cy="20.1715" r="0.2250" /> 
<circle cx="11.7516" cy="5.7899" r="0.2250" /> 
<circle cx="22.0720" cy="20.3469" r="0.2250" /> 
<circle cx="20.7780" cy="23.6069" r="0.2250" /> 
<circle cx="6.7049" cy="17.7805" r="0.2250" /> 
<circle cx="15.5077" cy="7.9204" r="0.2250" /> 
<circle cx="10.7083" cy="8.0885" r="0.2250" /> 
<circle cx="10.2396" cy="11.7989" r="0.2250" /> 
<circle cx="7.7500" cy="24.0260" r="0.2250" /> 
<circle cx="12.0449" cy="10.0461" r="0.2250" /> 
<circle cx="14.0692" cy="9.7260" r="0.2250" /> 
<circle cx="26.4307" cy="18.9001" r="0.2250" /> 
<circle cx="25.6083" cy="11.3708" r="0.2250" /> 
<circle cx="22.3254" cy="15.8561" r="0.2250" /> 
<circle cx="18.2059" cy="18.4607" r="0.2250" /> 
<circle cx="22.8324" cy="21.2601" r="0.2250" /> 
<circle cx="30.2733" cy="11.8229" r="0.2250" /> 
<circle cx="26.2634" cy="22.4583" r="0.2250" /> 
<circle cx="5.7484" cy="14.3229" r="0.2250" /> 
<circle cx="29.2331" cy="8.7259" r="0.2250" /> 
<circle cx="23.0757" cy="24.1765" r="0.2250" /> 
<circle cx="10.9642" cy="3.1229" r="0.2250" /> 
<circle cx="12.5616" cy="3.1229" r="0.2250" /> 
<circle cx="7.2500" cy="20.4829" r="0.2250" /> 
<circle cx="6.2580" cy="21.1579" r="0.2250" /> 
<circle cx="6.0271" cy="21.5549" r="0.2250" /> 
<circle cx="5.1054" cy="21.5062" r="0.2250" /> 
<circle cx="10.7654" cy="22.1903" r="0.2250" /> 
<circle cx="7.9623" cy="23.1182" r="0.2250" /> 
<circle cx="10.3731" cy="21.8344" r="0.2250" /> 
<circle cx="14.2080" cy="26.6829" r="0.2250" /> 
<circle cx="6.0080" cy="20.0079" r="0.2250" /> 
<circle cx="9.3053" cy="22.9579" r="0.2250" /> 
<circle cx="10.9375" cy="30.8743" r="0.2250" /> 
<circle cx="19.5120" cy="28.0879" r="0.2250" /> 
<circle cx="13.5516" cy="10.2297" r="0.2250" /> 
<circle cx="19.2852" cy="17.8614" r="0.2250" /> 
<circle cx="20.3634" cy="22.1636" r="0.2250" /> 
<circle cx="21.6480" cy="9.1821" r="0.2250" /> 
<circle cx="13.5708" cy="16.3836" r="0.2250" /> 
<circle cx="24.4103" cy="11.3895" r="0.2250" /> 
<circle cx="27.1800" cy="13.6719" r="0.2500" /> 
<circle cx="12.2255" cy="26.1396" r="0.2250" /> 
<circle cx="22.9500" cy="29.5384" r="0.2250" /> 
<circle cx="14.7710" cy="9.5552" r="0.2250" /> 
<circle cx="19.3991" cy="25.5772" r="0.2250" /> 
<circle cx="25.4279" cy="13.9848" r="0.2250" /> 
<circle cx="10.4804" cy="26.2333" r="0.2250" /> 
<circle cx="18.0668" cy="13.6444" r="0.2250" /> 
<circle cx="9.8610" cy="25.0846" r="0.2250" /> 
<circle cx="22.2631" cy="3.8098" r="0.2250" /> 
<circle cx="25.2220" cy="12.9469" r="0.2250" /> 
<circle cx="23.7033" cy="9.2709" r="0.2250" /> 
<circle cx="25.9924" cy="12.6297" r="0.2250" /> 
<circle cx="10.5694" cy="27.5523" r="0.2250" /> 
<circle cx="18.0258" cy="14.9116" r="0.2250" /> 
<circle cx="9.7392" cy="13.8078" r="0.2250" /> 
<circle cx="4.5624" cy="22.8239" r="0.2250" /> 
<circle cx="23.1220" cy="11.3469" r="0.2250" /> 
<circle cx="19.6786" cy="23.5398" r="0.2250" /> 
<circle cx="24.1720" cy="13.5469" r="0.2250" /> 
<circle cx="19.7500" cy="5.5122" r="0.2250" /> 
<circle cx="24.8720" cy="13.9469" r="0.2250" /> 
<circle cx="18.4402" cy="8.6263" r="0.2250" /> 
<circle cx="22.9772" cy="17.6881" r="0.2250" /> 
<circle cx="25.2220" cy="18.9469" r="0.2250" /> 
<circle cx="19.0205" cy="18.6233" r="0.2250" /> 
<circle cx="16.5500" cy="27.9357" r="0.2250" /> 
<circle cx="26.6220" cy="16.9469" r="0.2250" /> 
<circle cx="25.2220" cy="14.9469" r="0.2250" /> 
<circle cx="4.0149" cy="18.3069" r="0.2250" /> 
<circle cx="25.2946" cy="10.8769" r="0.2250" /> 
<circle cx="28.3720" cy="18.3469" r="0.2250" /> 
<circle cx="26.9720" cy="15.1469" r="0.2250" /> 
<circle cx="5.7135" cy="13.5009" r="0.2250" /> 
<circle cx="4.7118" cy="17.7629" r="0.2250" /> 
<circle cx="26.2720" cy="15.5469" r="0.2250" /> 
<circle cx="6.1632" cy="10.7679" r="0.2250" /> 
<circle cx="26.3153" cy="14.2043" r="0.2250" /> 
<circle cx="31.5053" cy="19.9353" r="0.2250" /> 
<circle cx="31.5041" cy="18.3353" r="0.2250" /> 
<circle cx="31.5821" cy="16.6535" r="0.2250" /> 
<circle cx="31.6504" cy="14.9859" r="0.2250" /> 
<circle cx="31.5107" cy="13.5105" r="0.2250" /> 
<circle cx="31.7022" cy="21.3481" r="0.2250" /> 
<circle cx="29.3500" cy="23.1073" r="0.2250" /> 
<circle cx="6.7560" cy="12.5057" r="0.2250" /> 
<circle cx="26.9525" cy="19.6914" r="0.2250" /> 
<circle cx="9.3937" cy="3.7948" r="0.2250" /> 
<circle cx="30.2748" cy="16.8244" r="0.2250" /> 
<circle cx="28.5500" cy="14.8405" r="0.2250" /> 
<circle cx="7.7431" cy="28.5927" r="0.2250" /> 
<circle cx="29.9996" cy="15.1976" r="0.2250" /> 
<circle cx="28.5635" cy="9.2193" r="0.2250" /> 
<circle cx="30.0309" cy="13.6420" r="0.2250" /> 
<circle cx="30.1337" cy="7.9229" r="0.2250" /> 
<circle cx="28.9500" cy="13.5229" r="0.2250" /> 
<circle cx="27.2036" cy="21.5387" r="0.2250" /> 
<circle cx="27.2690" cy="11.9402" r="0.2250" /> 
<circle cx="27.8753" cy="19.9373" r="0.2250" /> 
<circle cx="30.1123" cy="10.1231" r="0.2250" /> 
<circle cx="26.9665" cy="22.3229" r="0.2250" /> 
<circle cx="28.2029" cy="10.2999" r="0.2250" /> 
<circle cx="26.2151" cy="10.2551" r="0.2250" /> 
<circle cx="26.9724" cy="20.7769" r="0.2250" /> 
<circle cx="27.2059" cy="7.1071" r="0.2250" /> 
<circle cx="26.9716" cy="19.1396" r="0.2250" /> 
<circle cx="26.3860" cy="14.9913" r="0.2250" /> 
<circle cx="26.9286" cy="4.7229" r="0.2250" /> 
<circle cx="26.7323" cy="9.9851" r="0.2250" /> 
<circle cx="12.5368" cy="30.3229" r="0.2250" /> 
<circle cx="17.4750" cy="24.2096" r="0.2250" /> 
<circle cx="11.7500" cy="27.9291" r="0.2250" /> 
<circle cx="17.4750" cy="27.5184" r="0.2250" /> 
<circle cx="10.9318" cy="29.2739" r="0.2250" /> 
<circle cx="26.6578" cy="8.2336" r="0.2250" /> 
<circle cx="13.0427" cy="8.9517" r="0.2250" /> 
<circle cx="9.3325" cy="28.6380" r="0.2250" /> 
<circle cx="28.5296" cy="6.3229" r="0.2250" /> 
<circle cx="9.8631" cy="27.2884" r="0.2250" /> 
<circle cx="6.6497" cy="15.6659" r="0.2250" /> 
<circle cx="22.1689" cy="30.1435" r="0.2250" /> 
<circle cx="22.1608" cy="3.0832" r="0.2250" /> 
<circle cx="9.3346" cy="25.5229" r="0.2250" /> 
<circle cx="6.9500" cy="24.7073" r="0.2250" /> 
<circle cx="15.0440" cy="5.5451" r="0.2250" /> 
<circle cx="10.8218" cy="22.9057" r="0.2250" /> 
<circle cx="14.1658" cy="4.7229" r="0.2250" /> 
<circle cx="5.9517" cy="24.7587" r="0.2250" /> 
<circle cx="10.4081" cy="7.3304" r="0.2250" /> 
<circle cx="16.6866" cy="17.9124" r="0.2250" /> 
<circle cx="4.0153" cy="21.5058" r="0.2250" /> 
<circle cx="9.0514" cy="13.6444" r="0.2250" /> 
<circle cx="12.5253" cy="22.6933" r="0.2250" /> 
<circle cx="10.1201" cy="19.2064" r="0.2250" /> 
<circle cx="17.3647" cy="14.8594" r="0.2250" /> 
<circle cx="19.7354" cy="22.2388" r="0.2250" /> 
<circle cx="8.1227" cy="17.4741" r="0.2250" /> 
<circle cx="18.4527" cy="22.8098" r="0.2250" /> 
<circle cx="19.6119" cy="9.6999" r="0.2250" /> 
<circle cx="27.0057" cy="10.5041" r="0.2250" /> 
<circle cx="14.2280" cy="11.0951" r="0.2250" /> 
</g>
<g style="fill:none; 
stroke:#F2EDA1; stroke-width:0.1000; stroke-opacity:1; 
stroke-linecap:round; stroke-linejoin:round;">
<path d="M10.5082 6.5980
L7.1961 9.9101
" />
<path d="M7.1961 9.9101
L7.1961 18.5343
" />
<path d="M10.5082 4.1131
L10.5082 6.5980
" />
<path d="M7.1961 18.5343
L6.9196 18.8108
" />
<path d="M7.6440 14.0896
L8.4620 14.9076
" />
<path d="M7.7745 10.9629
L7.6440 11.0934
" />
<path d="M7.6440 11.0934
L7.6440 14.0896
" />
<path d="M8.1512 13.5140
L8.0212 13.6440
" />
<path d="M16.4290 2.5197
L15.8330 2.5197
" />
<path d="M8.1512 10.1130
L8.1512 13.5140
" />
<path d="M15.8330 2.5197
L10.6409 7.7118
" />
<path d="M10.6409 7.7118
L10.5524 7.7118
" />
<path d="M10.5524 7.7118
L8.1512 10.1130
" />
</g>
<g style="fill:none; 
stroke:#F2EDA1; stroke-width:0.2500; stroke-opacity:1; 
stroke-linecap:round; stroke-linejoin:round;">
<path d="M20.5975 10.1940
L16.5008 14.2907
" />
<path d="M16.5008 14.2907
L16.5008 14.8974
" />
<path d="M20.5975 9.5045
L20.5975 10.1940
" />
<path d="M10.7083 8.0885
L10.2396 8.5572
" />
<path d="M10.2396 8.5572
L10.2396 11.7989
" />
</g>
<g style="fill:none; 
stroke:#F2EDA1; stroke-width:0.1000; stroke-opacity:1; 
stroke-linecap:round; stroke-linejoin:round;">
<path d="M7.5406 23.8166
L7.7500 24.0260
" />
<path d="M11.2933 12.4667
L11.2933 19.2542
" />
<path d="M12.0449 11.7151
L11.2933 12.4667
" />
<path d="M12.0449 10.0461
L12.0449 11.7151
" />
<path d="M11.2933 19.2542
L7.5406 23.0069
" />
<path d="M7.5406 23.0069
L7.5406 23.8166
" />
<path d="M25.8499 13.8423
L25.6083 13.6007
" />
<path d="M25.6083 13.6007
L25.6083 11.3708
" />
<path d="M26.4307 18.9001
L26.2431 18.9001
" />
<path d="M26.2431 18.9001
L25.8499 18.5069
" />
<path d="M25.8499 18.5069
L25.8499 13.8423
" />
<path d="M13.5516 10.2297
L12.9826 9.6607
" />
<path d="M21.6480 9.1821
L21.5480 9.0821
" />
<path d="M19.9944 9.5466
L19.9944 9.9600
" />
<path d="M19.9944 9.9600
L13.5708 16.3836
" />
<path d="M20.4589 9.0821
L19.9944 9.5466
" />
<path d="M21.5480 9.0821
L20.4589 9.0821
" />
<path d="M12.7115 16.0978
L12.7115 11.6164
" />
<path d="M12.2255 26.1396
L12.1486 26.0627
" />
<path d="M12.7115 11.6164
L14.7710 9.5569
" />
<path d="M12.1486 26.0627
L12.1486 16.6607
" />
<path d="M12.1486 16.6607
L12.7115 16.0978
" />
<path d="M14.7710 9.5569
L14.7710 9.5552
" />
<path d="M19.3991 24.3693
L22.3748 21.3936
" />
<path d="M22.3748 21.3936
L22.3748 21.0233
" />
<path d="M23.9959 15.4168
L25.4279 13.9848
" />
<path d="M19.3991 25.5772
L19.3991 24.3693
" />
<path d="M23.9959 19.4022
L23.9959 15.4168
" />
<path d="M22.3748 21.0233
L23.9959 19.4022
" />
<path d="M12.6440 24.0917
L16.2620 20.4737
" />
<path d="M12.6440 26.3105
L12.6440 24.0917
" />
<path d="M16.8775 14.7547
L17.9878 13.6444
" />
<path d="M11.7634 26.5174
L12.4371 26.5174
" />
<path d="M12.4371 26.5174
L12.6440 26.3105
" />
<path d="M22.0615 10.2540
L18.6711 13.6444
" />
<path d="M16.2620 20.4737
L16.2620 15.6689
" />
<path d="M16.8775 15.0534
L16.8775 14.7547
" />
<path d="M22.2631 3.8098
L22.0615 4.0114
" />
<path d="M9.8610 25.0846
L10.3306 25.0846
" />
<path d="M16.2620 15.6689
L16.8775 15.0534
" />
<path d="M17.9878 13.6444
L18.0668 13.6444
" />
<path d="M18.6711 13.6444
L18.0668 13.6444
" />
<path d="M10.3306 25.0846
L11.7634 26.5174
" />
<path d="M22.0615 4.0114
L22.0615 10.2540
" />
<path d="M7.8412 17.7284
L7.8412 20.7617
" />
<path d="M9.7392 13.8078
L9.7392 14.1631
" />
<path d="M9.7392 14.1631
L7.7444 16.1579
" />
<path d="M10.5693 27.4294
L10.5693 27.5523
" />
<path d="M10.5693 27.5523
L10.5694 27.5523
" />
<path d="M7.8412 20.7617
L7.3218 21.2811
" />
<path d="M7.7444 16.1579
L7.7444 17.6316
" />
<path d="M7.7444 17.6316
L7.8412 17.7284
" />
<path d="M7.3218 24.1819
L10.5693 27.4294
" />
<path d="M7.3218 21.2811
L7.3218 24.1819
" />
<path d="M19.6786 23.4343
L23.3539 19.7590
" />
<path d="M19.6786 23.5398
L19.6786 23.4343
" />
<path d="M23.3539 11.5788
L23.1220 11.3469
" />
<path d="M23.3539 19.7590
L23.3539 11.5788
" />
<path d="M29.3627 10.0185
L29.3627 14.5607
" />
<path d="M28.5635 9.2193
L29.3627 10.0185
" />
<path d="M29.3627 14.5607
L29.9996 15.1976
" />
<path d="M29.7277 8.3289
L29.7277 13.3388
" />
<path d="M30.1337 7.9229
L29.7277 8.3289
" />
<path d="M29.7277 13.3388
L30.0309 13.6420
" />
<path d="M28.1005 10.4023
L28.2029 10.2999
" />
<path d="M26.9665 22.3229
L27.6311 21.6583
" />
<path d="M27.6311 20.2838
L27.4747 20.1274
" />
<path d="M27.4747 18.5465
L28.1005 17.9207
" />
<path d="M27.6311 21.6583
L27.6311 20.2838
" />
<path d="M28.1005 17.9207
L28.1005 10.4023
" />
<path d="M27.4747 20.1274
L27.4747 18.5465
" />
<path d="M27.6710 17.9648
L26.9716 18.6642
" />
<path d="M26.9716 18.6642
L26.9716 19.1396
" />
<path d="M27.6710 7.5722
L27.6710 17.9648
" />
<path d="M27.2059 7.1071
L27.6710 7.5722
" />
<path d="M26.6289 10.0885
L26.7323 9.9851
" />
<path d="M25.4506 10.5002
L25.6008 10.6504
" />
<path d="M16.5468 26.3129
L16.5468 23.4568
" />
<path d="M20.0653 13.8698
L23.4349 10.5002
" />
<path d="M23.4349 10.5002
L25.4506 10.5002
" />
<path d="M16.5468 23.4568
L20.0653 19.9383
" />
<path d="M26.6289 10.3779
L26.6289 10.0885
" />
<path d="M12.5368 30.3229
L16.5468 26.3129
" />
<path d="M20.0653 19.9383
L20.0653 13.8698
" />
<path d="M25.6008 10.6504
L26.3564 10.6504
" />
<path d="M26.3564 10.6504
L26.6289 10.3779
" />
<path d="M16.2742 24.0126
L16.2742 23.4442
" />
<path d="M24.3271 9.3075
L25.5839 9.3075
" />
<path d="M19.8636 19.8548
L19.8636 13.7710
" />
<path d="M10.9318 29.2739
L11.0129 29.2739
" />
<path d="M25.5839 9.3075
L26.6578 8.2336
" />
<path d="M19.8636 13.7710
L24.3271 9.3075
" />
<path d="M11.0129 29.2739
L16.2742 24.0126
" />
<path d="M16.2742 23.4442
L19.8636 19.8548
" />
<path d="M22.6079 2.6582
L19.3362 2.6582
" />
<path d="M19.3362 2.6582
L13.0427 8.9517
" />
<path d="M26.2726 6.3229
L22.6079 2.6582
" />
<path d="M28.5296 6.3229
L26.2726 6.3229
" />
<path d="M5.5594 16.7562
L6.6497 15.6659
" />
<path d="M9.8631 27.2884
L7.8742 27.2884
" />
<path d="M7.8742 27.2884
L5.5594 24.9736
" />
<path d="M5.5594 24.9736
L5.5594 16.7562
" />
<path d="M22.6726 3.5950
L22.1608 3.0832
" />
<path d="M22.3631 10.2376
L22.3631 7.9871
" />
<path d="M19.6619 19.0936
L19.6619 12.9388
" />
<path d="M9.3346 25.6201
L10.4400 26.7255
" />
<path d="M22.3631 7.9871
L22.6726 7.6776
" />
<path d="M22.6726 7.6776
L22.6726 3.5950
" />
<path d="M19.6619 12.9388
L22.3631 10.2376
" />
<path d="M10.4400 26.7255
L12.5142 26.7255
" />
<path d="M9.3346 25.5229
L9.3346 25.6201
" />
<path d="M13.1177 25.6378
L19.6619 19.0936
" />
<path d="M13.1177 26.1220
L13.1177 25.6378
" />
<path d="M12.5142 26.7255
L13.1177 26.1220
" />
<path d="M5.9517 22.3139
L7.6267 20.6389
" />
<path d="M7.6267 17.7991
L7.3978 17.5702
" />
<path d="M7.3978 10.3407
L10.4081 7.3304
" />
<path d="M7.3978 17.5702
L7.3978 10.3407
" />
<path d="M5.9517 24.7587
L5.9517 22.3139
" />
<path d="M7.6267 20.6389
L7.6267 17.7991
" />
<path d="M18.2168 11.0950
L14.2280 11.0950
" />
<path d="M14.2280 11.0950
L14.2280 11.0951
" />
<path d="M19.6119 9.6999
L18.2168 11.0950
" />
</g>
<g style="fill:#FFFFFF; fill-opacity:1.0000; stroke:none;">
<circle cx="1.2787" cy="16.3292" r="0.1000" /> 
<circle cx="8.2720" cy="19.6109" r="0.1000" /> 
<circle cx="16.5782" cy="8.1496" r="0.1000" /> 
<circle cx="8.8004" cy="20.1729" r="0.1000" /> 
<circle cx="9.2246" cy="24.7641" r="0.1000" /> 
<circle cx="17.3035" cy="8.1824" r="0.1000" /> 
<circle cx="11.4710" cy="11.6432" r="0.1000" /> 
<circle cx="17.7750" cy="11.5299" r="0.1000" /> 
<circle cx="13.7000" cy="17.4819" r="0.1000" /> 
<circle cx="16.8559" cy="19.8870" r="0.1000" /> 
<circle cx="14.9480" cy="26.5859" r="0.1000" /> 
<circle cx="10.5710" cy="14.8819" r="0.1000" /> 
<circle cx="17.1240" cy="20.2569" r="0.1000" /> 
<circle cx="6.7284" cy="19.9320" r="0.1000" /> 
<circle cx="10.5730" cy="15.8079" r="0.1000" /> 
<circle cx="16.9500" cy="8.7529" r="0.1000" /> 
<circle cx="7.1956" cy="19.6829" r="0.1000" /> 
<circle cx="9.9460" cy="14.8059" r="0.1000" /> 
<circle cx="15.4490" cy="24.0129" r="0.1000" /> 
<circle cx="22.7194" cy="25.8384" r="0.1000" /> 
<circle cx="26.2810" cy="19.9819" r="0.1000" /> 
<circle cx="1.5986" cy="16.7104" r="0.1000" /> 
<circle cx="10.5450" cy="15.3569" r="0.1000" /> 
<circle cx="17.6093" cy="20.3418" r="0.1000" /> 
<circle cx="22.3541" cy="15.3043" r="0.1000" /> 
<circle cx="23.7810" cy="20.2319" r="0.1000" /> 
<circle cx="16.8805" cy="20.9314" r="0.1000" /> 
<circle cx="28.5625" cy="7.3715" r="0.1000" /> 
<circle cx="8.7500" cy="24.7229" r="0.1000" /> 
<circle cx="23.3030" cy="20.7349" r="0.1000" /> 
<circle cx="9.0580" cy="24.2829" r="0.1000" /> 
<circle cx="10.8230" cy="18.9869" r="0.1000" /> 
<circle cx="9.7070" cy="11.1129" r="0.1000" /> 
<circle cx="24.2500" cy="7.9319" r="0.1250" /> 
<circle cx="14.0992" cy="23.9957" r="0.1000" /> 
<circle cx="15.5490" cy="8.6289" r="0.1000" /> 
<circle cx="13.3490" cy="11.7809" r="0.1000" /> 
<circle cx="18.5965" cy="24.0996" r="0.1000" /> 
<circle cx="9.2246" cy="24.7641" r="0.1000" /> 
<circle cx="8.8270" cy="26.3089" r="0.1000" /> 
<circle cx="15.7890" cy="14.9118" r="0.1000" /> 
<circle cx="26.2100" cy="9.6019" r="0.1250" /> 
<circle cx="10.0950" cy="15.3319" r="0.1000" /> 
<circle cx="8.8070" cy="20.1383" r="0.1000" /> 
<circle cx="22.6260" cy="13.8309" r="0.1000" /> 
<circle cx="9.5268" cy="24.0029" r="0.1000" /> 
<circle cx="16.9955" cy="19.1946" r="0.1000" /> 
<circle cx="16.7520" cy="18.7216" r="0.1000" /> 
<circle cx="20.5770" cy="19.1609" r="0.1000" /> 
<circle cx="25.2810" cy="20.4819" r="0.1000" /> 
<circle cx="17.3250" cy="20.7839" r="0.1000" /> 
<circle cx="6.9196" cy="18.8108" r="0.1000" /> 
<circle cx="10.5082" cy="4.1131" r="0.1000" /> 
<circle cx="25.2100" cy="8.8019" r="0.1250" /> 
<circle cx="14.9000" cy="24.4579" r="0.1000" /> 
<circle cx="20.0500" cy="7.2529" r="0.1000" /> 
<circle cx="13.5500" cy="24.4579" r="0.1000" /> 
<circle cx="10.9970" cy="10.2529" r="0.1000" /> 
<circle cx="28.5500" cy="21.5229" r="0.1000" /> 
<circle cx="19.7000" cy="21.5079" r="0.1000" /> 
<circle cx="20.0750" cy="11.4299" r="0.1000" /> 
<circle cx="23.5260" cy="7.9789" r="0.1000" /> 
<circle cx="14.1144" cy="7.1853" r="0.1000" /> 
<circle cx="22.9200" cy="8.0319" r="0.1250" /> 
<circle cx="23.1000" cy="7.6029" r="0.1000" /> 
<circle cx="6.1450" cy="17.3069" r="0.1000" /> 
<circle cx="21.5698" cy="10.2130" r="0.1000" /> 
<circle cx="20.3500" cy="7.6029" r="0.1000" /> 
<circle cx="18.6071" cy="5.8120" r="0.1000" /> 
<circle cx="18.6863" cy="22.2507" r="0.1000" /> 
<circle cx="26.2720" cy="18.3469" r="0.1000" /> 
<circle cx="8.4620" cy="14.9076" r="0.1000" /> 
<circle cx="7.7745" cy="10.9629" r="0.1000" /> 
<circle cx="8.0212" cy="13.6440" r="0.1000" /> 
<circle cx="25.0447" cy="19.5460" r="0.1000" /> 
<circle cx="16.4290" cy="2.5197" r="0.1000" /> 
<circle cx="29.4687" cy="19.9175" r="0.1000" /> 
<circle cx="22.4046" cy="22.1750" r="0.1000" /> 
<circle cx="32.0500" cy="16.0229" r="0.1000" /> 
<circle cx="4.5500" cy="9.2913" r="0.1000" /> 
<circle cx="16.5008" cy="14.8974" r="0.1000" /> 
<circle cx="4.5500" cy="12.7293" r="0.1000" /> 
<circle cx="20.5975" cy="9.5045" r="0.1000" /> 
<circle cx="17.5040" cy="15.9049" r="0.1000" /> 
<circle cx="16.7990" cy="26.6629" r="0.1000" /> 
<circle cx="21.2270" cy="23.6609" r="0.1000" /> 
<circle cx="20.7720" cy="17.8469" r="0.1000" /> 
<circle cx="19.2490" cy="9.0759" r="0.1000" /> 
<circle cx="21.0720" cy="17.4969" r="0.1000" /> 
<circle cx="13.7480" cy="22.3859" r="0.1000" /> 
<circle cx="17.3476" cy="15.4617" r="0.1000" /> 
<circle cx="20.8525" cy="8.1192" r="0.1000" /> 
<circle cx="30.1625" cy="20.1715" r="0.1000" /> 
<circle cx="11.7516" cy="5.7899" r="0.1000" /> 
<circle cx="22.0720" cy="20.3469" r="0.1000" /> 
<circle cx="20.7780" cy="23.6069" r="0.1000" /> 
<circle cx="6.7049" cy="17.7805" r="0.1000" /> 
<circle cx="15.5077" cy="7.9204" r="0.1000" /> 
<circle cx="10.7083" cy="8.0885" r="0.1000" /> 
<circle cx="10.2396" cy="11.7989" r="0.1000" /> 
<circle cx="7.7500" cy="24.0260" r="0.1000" /> 
<circle cx="12.0449" cy="10.0461" r="0.1000" /> 
<circle cx="14.0692" cy="9.7260" r="0.1000" /> 
<circle cx="26.4307" cy="18.9001" r="0.1000" /> 
<circle cx="25.6083" cy="11.3708" r="0.1000" /> 
<circle cx="22.3254" cy="15.8561" r="0.1000" /> 
<circle cx="18.2059" cy="18.4607" r="0.1000" /> 
<circle cx="22.8324" cy="21.2601" r="0.1000" /> 
<circle cx="30.2733" cy="11.8229" r="0.1000" /> 
<circle cx="26.2634" cy="22.4583" r="0.1000" /> 
<circle cx="5.7484" cy="14.3229" r="0.1000" /> 
<circle cx="29.2331" cy="8.7259" r="0.1000" /> 
<circle cx="23.0757" cy="24.1765" r="0.1000" /> 
<circle cx="10.9642" cy="3.1229" r="0.1000" /> 
<circle cx="12.5616" cy="3.1229" r="0.1000" /> 
<circle cx="7.2500" cy="20.4829" r="0.1000" /> 
<circle cx="6.2580" cy="21.1579" r="0.1000" /> 
<circle cx="6.0271" cy="21.5549" r="0.1000" /> 
<circle cx="5.1054" cy="21.5062" r="0.1000" /> 
<circle cx="10.7654" cy="22.1903" r="0.1000" /> 
<circle cx="7.9623" cy="23.1182" r="0.1000" /> 
<circle cx="10.3731" cy="21.8344" r="0.1000" /> 
<circle cx="14.2080" cy="26.6829" r="0.1000" /> 
<circle cx="6.0080" cy="20.0079" r="0.1000" /> 
<circle cx="9.3053" cy="22.9579" r="0.1000" /> 
<circle cx="10.9375" cy="30.8743" r="0.1000" /> 
<circle cx="19.5120" cy="28.0879" r="0.1000" /> 
<circle cx="13.5516" cy="10.2297" r="0.1000" /> 
<circle cx="19.2852" cy="17.8614" r="0.1000" /> 
<circle cx="20.3634" cy="22.1636" r="0.1000" /> 
<circle cx="21.6480" cy="9.1821" r="0.1000" /> 
<circle cx="13.5708" cy="16.3836" r="0.1000" /> 
<circle cx="24.4103" cy="11.3895" r="0.1000" /> 
<circle cx="27.1800" cy="13.6719" r="0.1250" /> 
<circle cx="12.2255" cy="26.1396" r="0.1000" /> 
<circle cx="22.9500" cy="29.5384" r="0.1000" /> 
<circle cx="14.7710" cy="9.5552" r="0.1000" /> 
<circle cx="19.3991" cy="25.5772" r="0.1000" /> 
<circle cx="25.4279" cy="13.9848" r="0.1000" /> 
<circle cx="10.4804" cy="26.2333" r="0.1000" /> 
<circle cx="18.0668" cy="13.6444" r="0.1000" /> 
<circle cx="9.8610" cy="25.0846" r="0.1000" /> 
<circle cx="22.2631" cy="3.8098" r="0.1000" /> 
<circle cx="25.2220" cy="12.9469" r="0.1000" /> 
<circle cx="23.7033" cy="9.2709" r="0.1000" /> 
<circle cx="25.9924" cy="12.6297" r="0.1000" /> 
<circle cx="10.5694" cy="27.5523" r="0.1000" /> 
<circle cx="18.0258" cy="14.9116" r="0.1000" /> 
<circle cx="9.7392" cy="13.8078" r="0.1000" /> 
<circle cx="4.5624" cy="22.8239" r="0.1000" /> 
<circle cx="23.1220" cy="11.3469" r="0.1000" /> 
<circle cx="19.6786" cy="23.5398" r="0.1000" /> 
<circle cx="24.1720" cy="13.5469" r="0.1000" /> 
<circle cx="19.7500" cy="5.5122" r="0.1000" /> 
<circle cx="24.8720" cy="13.9469" r="0.1000" /> 
<circle cx="18.4402" cy="8.6263" r="0.1000" /> 
<circle cx="22.9772" cy="17.6881" r="0.1000" /> 
<circle cx="25.2220" cy="18.9469" r="0.1000" /> 
<circle cx="19.0205" cy="18.6233" r="0.1000" /> 
<circle cx="16.5500" cy="27.9357" r="0.1000" /> 
<circle cx="26.6220" cy="16.9469" r="0.1000" /> 
<circle cx="25.2220" cy="14.9469" r="0.1000" /> 
<circle cx="4.0149" cy="18.3069" r="0.1000" /> 
<circle cx="25.2946" cy="10.8769" r="0.1000" /> 
<circle cx="28.3720" cy="18.3469" r="0.1000" /> 
<circle cx="26.9720" cy="15.1469" r="0.1000" /> 
<circle cx="5.7135" cy="13.5009" r="0.1000" /> 
<circle cx="4.7118" cy="17.7629" r="0.1000" /> 
<circle cx="26.2720" cy="15.5469" r="0.1000" /> 
<circle cx="6.1632" cy="10.7679" r="0.1000" /> 
<circle cx="26.3153" cy="14.2043" r="0.1000" /> 
<circle cx="31.5053" cy="19.9353" r="0.1000" /> 
<circle cx="31.5041" cy="18.3353" r="0.1000" /> 
<circle cx="31.5821" cy="16.6535" r="0.1000" /> 
<circle cx="31.6504" cy="14.9859" r="0.1000" /> 
<circle cx="31.5107" cy="13.5105" r="0.1000" /> 
<circle cx="31.7022" cy="21.3481" r="0.1000" /> 
<circle cx="29.3500" cy="23.1073" r="0.1000" /> 
<circle cx="6.7560" cy="12.5057" r="0.1000" /> 
<circle cx="26.9525" cy="19.6914" r="0.1000" /> 
<circle cx="9.3937" cy="3.7948" r="0.1000" /> 
<circle cx="30.2748" cy="16.8244" r="0.1000" /> 
<circle cx="28.5500" cy="14.8405" r="0.1000" /> 
<circle cx="7.7431" cy="28.5927" r="0.1000" /> 
<circle cx="29.9996" cy="15.1976" r="0.1000" /> 
<circle cx="28.5635" cy="9.2193" r="0.1000" /> 
<circle cx="30.0309" cy="13.6420" r="0.1000" /> 
<circle cx="30.1337" cy="7.9229" r="0.1000" /> 
<circle cx="28.9500" cy="13.5229" r="0.1000" /> 
<circle cx="27.2036" cy="21.5387" r="0.1000" /> 
<circle cx="27.2690" cy="11.9402" r="0.1000" /> 
<circle cx="27.8753" cy="19.9373" r="0.1000" /> 
<circle cx="30.1123" cy="10.1231" r="0.1000" /> 
<circle cx="26.9665" cy="22.3229" r="0.1000" /> 
<circle cx="28.2029" cy="10.2999" r="0.1000" /> 
<circle cx="26.2151" cy="10.2551" r="0.1000" /> 
<circle cx="26.9724" cy="20.7769" r="0.1000" /> 
<circle cx="27.2059" cy="7.1071" r="0.1000" /> 
<circle cx="26.9716" cy="19.1396" r="0.1000" /> 
<circle cx="26.3860" cy="14.9913" r="0.1000" /> 
<circle cx="26.9286" cy="4.7229" r="0.1000" /> 
<circle cx="26.7323" cy="9.9851" r="0.1000" /> 
<circle cx="12.5368" cy="30.3229" r="0.1000" /> 
<circle cx="17.4750" cy="24.2096" r="0.1000" /> 
<circle cx="11.7500" cy="27.9291" r="0.1000" /> 
<circle cx="17.4750" cy="27.5184" r="0.1000" /> 
<circle cx="10.9318" cy="29.2739" r="0.1000" /> 
<circle cx="26.6578" cy="8.2336" r="0.1000" /> 
<circle cx="13.0427" cy="8.9517" r="0.1000" /> 
<circle cx="9.3325" cy="28.6380" r="0.1000" /> 
<circle cx="28.5296" cy="6.3229" r="0.1000" /> 
<circle cx="9.8631" cy="27.2884" r="0.1000" /> 
<circle cx="6.6497" cy="15.6659" r="0.1000" /> 
<circle cx="22.1689" cy="30.1435" r="0.1000" /> 
<circle cx="22.1608" cy="3.0832" r="0.1000" /> 
<circle cx="9.3346" cy="25.5229" r="0.1000" /> 
<circle cx="6.9500" cy="24.7073" r="0.1000" /> 
<circle cx="15.0440" cy="5.5451" r="0.1000" /> 
<circle cx="10.8218" cy="22.9057" r="0.1000" /> 
<circle cx="14.1658" cy="4.7229" r="0.1000" /> 
<circle cx="5.9517" cy="24.7587" r="0.1000" /> 
<circle cx="10.4081" cy="7.3304" r="0.1000" /> 
<circle cx="16.6866" cy="17.9124" r="0.1000" /> 
<circle cx="4.0153" cy="21.5058" r="0.1000" /> 
<circle cx="9.0514" cy="13.6444" r="0.1000" /> 
<circle cx="12.5253" cy="22.6933" r="0.1000" /> 
<circle cx="10.1201" cy="19.2064" r="0.1000" /> 
<circle cx="17.3647" cy="14.8594" r="0.1000" /> 
<circle cx="19.7354" cy="22.2388" r="0.1000" /> 
<circle cx="8.1227" cy="17.4741" r="0.1000" /> 
<circle cx="18.4527" cy="22.8098" r="0.1000" /> 
<circle cx="19.6119" cy="9.6999" r="0.1000" /> 
<circle cx="27.0057" cy="10.5041" r="0.1000" /> 
<circle cx="14.2280" cy="11.0951" r="0.1000" /> 
</g>
<g style="fill:#000000; fill-opacity:1.0000; stroke:none;">
<circle cx="7.1005" cy="6.9824" r="1.5000" /> 
<circle cx="26.8995" cy="26.7814" r="1.5000" /> 
</g> 
</svg>
