%TF.GenerationSoftware,KiCad,Pcbnew,10.0.0*%
%TF.CreationDate,2026-09-03T12:15:46+02:00*%
%TF.ProjectId,aft_end_board,6166745f-656e-4645-9f62-6f6172642e6b,rev?*%
%TF.SameCoordinates,Original*%
%TF.FileFunction,Legend,Top*%
%TF.FilePolarity,Positive*%
%FSLAX46Y46*%
G04 Gerber Fmt 4.6, Leading zero omitted, Abs format (unit mm)*
G04 Created by KiCad (PCBNEW 10.0.0) date 2026-09-03 12:15:46*
%MOMM*%
%LPD*%
G01*
G04 APERTURE LIST*
%ADD10C,0.120000*%
G04 APERTURE END LIST*
D10*
X-1299000Y-12604000D02*
X21000Y-12604000D01*
X501000Y-12604000D02*
X1821000Y-12604000D01*
X2301000Y-12604000D02*
X2701000Y-12604000D01*
X2701000Y-12604000D02*
X2701000Y-11284000D01*
X2701000Y-10804000D02*
X2701000Y-9484000D01*
X2701000Y-9103000D02*
X4021000Y-9103000D01*
X4501000Y-9103000D02*
X5821000Y-9103000D01*
X6103000Y-9103000D02*
X6103000Y-9303000D01*
X6103000Y-9303000D02*
X7423000Y-9303000D01*
X7535200Y-9303000D02*
X8468581Y-10236381D01*
X8807992Y-10575792D02*
X9015600Y-10783400D01*
X9015600Y-10783400D02*
X9948981Y-9850019D01*
X10288392Y-9510608D02*
X10783400Y-9015600D01*
X10783400Y-9015600D02*
X9903000Y-8135200D01*
X9903000Y-8135200D02*
X9903000Y-6815200D01*
X9903000Y-6335200D02*
X9903000Y-5303000D01*
X9903000Y-5303000D02*
X9102000Y-5303000D01*
X9102000Y-5303000D02*
X9102000Y-3983000D01*
X9102000Y-3503000D02*
X9102000Y-2183000D01*
X9102000Y-1703000D02*
X9102000Y-1149000D01*
X9102000Y-1149000D02*
X10422000Y-1149000D01*
X10902000Y-1149000D02*
X11726000Y-1149000D01*
X11726000Y-1149000D02*
X11726000Y171000D01*
X11726000Y651000D02*
X11726000Y1971000D01*
X11726000Y2451000D02*
X11726000Y3771000D01*
X11726000Y4251000D02*
X11726000Y5571000D01*
X11726000Y6051000D02*
X11726000Y7351000D01*
X11726000Y7351000D02*
X10406000Y7351000D01*
X9926000Y7351000D02*
X8606000Y7351000D01*
X8126000Y7351000D02*
X7576000Y7351000D01*
X7576000Y7351000D02*
X7576000Y8671000D01*
X7576000Y9151000D02*
X7576000Y10471000D01*
X7576000Y10852000D02*
X6256000Y10852000D01*
X5776000Y10852000D02*
X4456000Y10852000D01*
X3976000Y10852000D02*
X3576000Y10852000D01*
X3576000Y10852000D02*
X3576000Y9532000D01*
X3576000Y9052000D02*
X3576000Y7732000D01*
X3576000Y7252000D02*
X3576000Y6001000D01*
X3576000Y6001000D02*
X2256000Y6001000D01*
X2000000Y6001000D02*
X2000000Y7321000D01*
X2000000Y7801000D02*
X2000000Y9121000D01*
X2000000Y9502000D02*
X680000Y9502000D01*
X200000Y9502000D02*
X-1120000Y9502000D01*
X-1600000Y9502000D02*
X-2000000Y9502000D01*
X-2000000Y9502000D02*
X-2000000Y8182000D01*
X-2000000Y7702000D02*
X-2000000Y6382000D01*
X-2000000Y6001000D02*
X-3320000Y6001000D01*
X-3576000Y6001000D02*
X-3576000Y7321000D01*
X-3576000Y7603000D02*
X-3376000Y7603000D01*
X-3376000Y7603000D02*
X-3376000Y8923000D01*
X-3376000Y9403000D02*
X-3376000Y10723000D01*
X-3376000Y11203000D02*
X-3376000Y11403000D01*
X-3376000Y11403000D02*
X-4696000Y11403000D01*
X-5176000Y11403000D02*
X-6496000Y11403000D01*
X-6976000Y11403000D02*
X-7376000Y11403000D01*
X-7376000Y11403000D02*
X-7376000Y10083000D01*
X-7376000Y9603000D02*
X-7376000Y9143800D01*
X-7376000Y9143800D02*
X-8309381Y10077181D01*
X-8648792Y10416592D02*
X-9015600Y10783400D01*
X-9015600Y10783400D02*
X-9948981Y9850019D01*
X-10288392Y9510608D02*
X-10783400Y9015600D01*
X-10783400Y9015600D02*
X-9850019Y8082219D01*
X-9669800Y7902000D02*
X-10877000Y7902000D01*
X-10877000Y7902000D02*
X-10877000Y6582000D01*
X-10877000Y6102000D02*
X-10877000Y4782000D01*
X-10877000Y4302000D02*
X-10877000Y2982000D01*
X-10877000Y2502000D02*
X-10877000Y1182000D01*
X-10877000Y950000D02*
X-12000000Y950000D01*
X-12000000Y950000D02*
X-12000000Y-370000D01*
X-12000000Y-850000D02*
X-12000000Y-950000D01*
X-12000000Y-950000D02*
X-11000000Y-950000D01*
X-11000000Y-950000D02*
X-11000000Y201000D01*
X-11000000Y201000D02*
X-9680000Y201000D01*
X-9200000Y201000D02*
X-7880000Y201000D01*
X-7400000Y201000D02*
X-6202000Y201000D01*
X-6202000Y201000D02*
X-6202000Y-1119000D01*
X-6202000Y-1599000D02*
X-6202000Y-1602000D01*
X-6202000Y-1602000D02*
X-7522000Y-1602000D01*
X-8002000Y-1602000D02*
X-9002000Y-1602000D01*
X-9002000Y-1602000D02*
X-9002000Y-2922000D01*
X-9002000Y-3402000D02*
X-9002000Y-4722000D01*
X-9002000Y-5202000D02*
X-9002000Y-5602000D01*
X-9002000Y-5602000D02*
X-7682000Y-5602000D01*
X-7202000Y-5602000D02*
X-5882000Y-5602000D01*
X-5402000Y-5602000D02*
X-5151000Y-5602000D01*
X-5151000Y-5602000D02*
X-5151000Y-6922000D01*
X-5151000Y-7203000D02*
X-5701000Y-7203000D01*
X-5701000Y-7203000D02*
X-5701000Y-8523000D01*
X-5701000Y-9003000D02*
X-5701000Y-10323000D01*
X-5701000Y-10803000D02*
X-5701000Y-11003000D01*
X-5701000Y-11003000D02*
X-4381000Y-11003000D01*
X-3901000Y-11003000D02*
X-2581000Y-11003000D01*
X-2101000Y-11003000D02*
X-1299000Y-11003000D01*
X-1299000Y-11003000D02*
X-1299000Y-12323000D01*
X-15832565Y12077240D02*
X-15756374Y12039144D01*
X-15756374Y12039144D02*
X-15603993Y12039144D01*
X-15603993Y12039144D02*
X-15527803Y12077240D01*
X-15527803Y12077240D02*
X-15489707Y12153430D01*
X-15489707Y12153430D02*
X-15489707Y12191525D01*
X-15489707Y12191525D02*
X-15527803Y12267716D01*
X-15527803Y12267716D02*
X-15603993Y12305811D01*
X-15603993Y12305811D02*
X-15718279Y12305811D01*
X-15718279Y12305811D02*
X-15794469Y12343906D01*
X-15794469Y12343906D02*
X-15832565Y12420097D01*
X-15832565Y12420097D02*
X-15832565Y12458192D01*
X-15832565Y12458192D02*
X-15794469Y12534382D01*
X-15794469Y12534382D02*
X-15718279Y12572478D01*
X-15718279Y12572478D02*
X-15603993Y12572478D01*
X-15603993Y12572478D02*
X-15527803Y12534382D01*
X-15146850Y12572478D02*
X-15146850Y11772478D01*
X-15146850Y12534382D02*
X-15070660Y12572478D01*
X-15070660Y12572478D02*
X-14918279Y12572478D01*
X-14918279Y12572478D02*
X-14842088Y12534382D01*
X-14842088Y12534382D02*
X-14803993Y12496287D01*
X-14803993Y12496287D02*
X-14765898Y12420097D01*
X-14765898Y12420097D02*
X-14765898Y12191525D01*
X-14765898Y12191525D02*
X-14803993Y12115335D01*
X-14803993Y12115335D02*
X-14842088Y12077240D01*
X-14842088Y12077240D02*
X-14918279Y12039144D01*
X-14918279Y12039144D02*
X-15070660Y12039144D01*
X-15070660Y12039144D02*
X-15146850Y12077240D01*
X-14080183Y12039144D02*
X-14080183Y12458192D01*
X-14080183Y12458192D02*
X-14118278Y12534382D01*
X-14118278Y12534382D02*
X-14194469Y12572478D01*
X-14194469Y12572478D02*
X-14346850Y12572478D01*
X-14346850Y12572478D02*
X-14423040Y12534382D01*
X-14080183Y12077240D02*
X-14156374Y12039144D01*
X-14156374Y12039144D02*
X-14346850Y12039144D01*
X-14346850Y12039144D02*
X-14423040Y12077240D01*
X-14423040Y12077240D02*
X-14461136Y12153430D01*
X-14461136Y12153430D02*
X-14461136Y12229620D01*
X-14461136Y12229620D02*
X-14423040Y12305811D01*
X-14423040Y12305811D02*
X-14346850Y12343906D01*
X-14346850Y12343906D02*
X-14156374Y12343906D01*
X-14156374Y12343906D02*
X-14080183Y12382001D01*
X-13356373Y12077240D02*
X-13432564Y12039144D01*
X-13432564Y12039144D02*
X-13584945Y12039144D01*
X-13584945Y12039144D02*
X-13661135Y12077240D01*
X-13661135Y12077240D02*
X-13699230Y12115335D01*
X-13699230Y12115335D02*
X-13737326Y12191525D01*
X-13737326Y12191525D02*
X-13737326Y12420097D01*
X-13737326Y12420097D02*
X-13699230Y12496287D01*
X-13699230Y12496287D02*
X-13661135Y12534382D01*
X-13661135Y12534382D02*
X-13584945Y12572478D01*
X-13584945Y12572478D02*
X-13432564Y12572478D01*
X-13432564Y12572478D02*
X-13356373Y12534382D01*
X-12708754Y12077240D02*
X-12784945Y12039144D01*
X-12784945Y12039144D02*
X-12937326Y12039144D01*
X-12937326Y12039144D02*
X-13013516Y12077240D01*
X-13013516Y12077240D02*
X-13051612Y12153430D01*
X-13051612Y12153430D02*
X-13051612Y12458192D01*
X-13051612Y12458192D02*
X-13013516Y12534382D01*
X-13013516Y12534382D02*
X-12937326Y12572478D01*
X-12937326Y12572478D02*
X-12784945Y12572478D01*
X-12784945Y12572478D02*
X-12708754Y12534382D01*
X-12708754Y12534382D02*
X-12670659Y12458192D01*
X-12670659Y12458192D02*
X-12670659Y12382001D01*
X-12670659Y12382001D02*
X-13051612Y12305811D01*
X-12327802Y12039144D02*
X-12327802Y12572478D01*
X-12327802Y12420097D02*
X-12289707Y12496287D01*
X-12289707Y12496287D02*
X-12251612Y12534382D01*
X-12251612Y12534382D02*
X-12175421Y12572478D01*
X-12175421Y12572478D02*
X-12099231Y12572478D01*
X-12023041Y11962954D02*
X-11413517Y11962954D01*
X-10880183Y12039144D02*
X-10880183Y12458192D01*
X-10880183Y12458192D02*
X-10918278Y12534382D01*
X-10918278Y12534382D02*
X-10994469Y12572478D01*
X-10994469Y12572478D02*
X-11146850Y12572478D01*
X-11146850Y12572478D02*
X-11223040Y12534382D01*
X-10880183Y12077240D02*
X-10956374Y12039144D01*
X-10956374Y12039144D02*
X-11146850Y12039144D01*
X-11146850Y12039144D02*
X-11223040Y12077240D01*
X-11223040Y12077240D02*
X-11261136Y12153430D01*
X-11261136Y12153430D02*
X-11261136Y12229620D01*
X-11261136Y12229620D02*
X-11223040Y12305811D01*
X-11223040Y12305811D02*
X-11146850Y12343906D01*
X-11146850Y12343906D02*
X-10956374Y12343906D01*
X-10956374Y12343906D02*
X-10880183Y12382001D01*
X-10613516Y12572478D02*
X-10308754Y12572478D01*
X-10499230Y12039144D02*
X-10499230Y12724859D01*
X-10499230Y12724859D02*
X-10461135Y12801049D01*
X-10461135Y12801049D02*
X-10384945Y12839144D01*
X-10384945Y12839144D02*
X-10308754Y12839144D01*
X-10156373Y12572478D02*
X-9851611Y12572478D01*
X-10042087Y12839144D02*
X-10042087Y12153430D01*
X-10042087Y12153430D02*
X-10003992Y12077240D01*
X-10003992Y12077240D02*
X-9927802Y12039144D01*
X-9927802Y12039144D02*
X-9851611Y12039144D01*
X-9775421Y11962954D02*
X-9165897Y11962954D01*
X-8670658Y12077240D02*
X-8746849Y12039144D01*
X-8746849Y12039144D02*
X-8899230Y12039144D01*
X-8899230Y12039144D02*
X-8975420Y12077240D01*
X-8975420Y12077240D02*
X-9013516Y12153430D01*
X-9013516Y12153430D02*
X-9013516Y12458192D01*
X-9013516Y12458192D02*
X-8975420Y12534382D01*
X-8975420Y12534382D02*
X-8899230Y12572478D01*
X-8899230Y12572478D02*
X-8746849Y12572478D01*
X-8746849Y12572478D02*
X-8670658Y12534382D01*
X-8670658Y12534382D02*
X-8632563Y12458192D01*
X-8632563Y12458192D02*
X-8632563Y12382001D01*
X-8632563Y12382001D02*
X-9013516Y12305811D01*
X-8289706Y12572478D02*
X-8289706Y12039144D01*
X-8289706Y12496287D02*
X-8251611Y12534382D01*
X-8251611Y12534382D02*
X-8175421Y12572478D01*
X-8175421Y12572478D02*
X-8061135Y12572478D01*
X-8061135Y12572478D02*
X-7984944Y12534382D01*
X-7984944Y12534382D02*
X-7946849Y12458192D01*
X-7946849Y12458192D02*
X-7946849Y12039144D01*
X-7223039Y12039144D02*
X-7223039Y12839144D01*
X-7223039Y12077240D02*
X-7299230Y12039144D01*
X-7299230Y12039144D02*
X-7451611Y12039144D01*
X-7451611Y12039144D02*
X-7527801Y12077240D01*
X-7527801Y12077240D02*
X-7565896Y12115335D01*
X-7565896Y12115335D02*
X-7603992Y12191525D01*
X-7603992Y12191525D02*
X-7603992Y12420097D01*
X-7603992Y12420097D02*
X-7565896Y12496287D01*
X-7565896Y12496287D02*
X-7527801Y12534382D01*
X-7527801Y12534382D02*
X-7451611Y12572478D01*
X-7451611Y12572478D02*
X-7299230Y12572478D01*
X-7299230Y12572478D02*
X-7223039Y12534382D01*
X-7032563Y11962954D02*
X-6423039Y11962954D01*
X-6232562Y12039144D02*
X-6232562Y12839144D01*
X-6232562Y12534382D02*
X-6156372Y12572478D01*
X-6156372Y12572478D02*
X-6003991Y12572478D01*
X-6003991Y12572478D02*
X-5927800Y12534382D01*
X-5927800Y12534382D02*
X-5889705Y12496287D01*
X-5889705Y12496287D02*
X-5851610Y12420097D01*
X-5851610Y12420097D02*
X-5851610Y12191525D01*
X-5851610Y12191525D02*
X-5889705Y12115335D01*
X-5889705Y12115335D02*
X-5927800Y12077240D01*
X-5927800Y12077240D02*
X-6003991Y12039144D01*
X-6003991Y12039144D02*
X-6156372Y12039144D01*
X-6156372Y12039144D02*
X-6232562Y12077240D01*
X-5394467Y12039144D02*
X-5470657Y12077240D01*
X-5470657Y12077240D02*
X-5508752Y12115335D01*
X-5508752Y12115335D02*
X-5546848Y12191525D01*
X-5546848Y12191525D02*
X-5546848Y12420097D01*
X-5546848Y12420097D02*
X-5508752Y12496287D01*
X-5508752Y12496287D02*
X-5470657Y12534382D01*
X-5470657Y12534382D02*
X-5394467Y12572478D01*
X-5394467Y12572478D02*
X-5280181Y12572478D01*
X-5280181Y12572478D02*
X-5203990Y12534382D01*
X-5203990Y12534382D02*
X-5165895Y12496287D01*
X-5165895Y12496287D02*
X-5127800Y12420097D01*
X-5127800Y12420097D02*
X-5127800Y12191525D01*
X-5127800Y12191525D02*
X-5165895Y12115335D01*
X-5165895Y12115335D02*
X-5203990Y12077240D01*
X-5203990Y12077240D02*
X-5280181Y12039144D01*
X-5280181Y12039144D02*
X-5394467Y12039144D01*
X-4442085Y12039144D02*
X-4442085Y12458192D01*
X-4442085Y12458192D02*
X-4480180Y12534382D01*
X-4480180Y12534382D02*
X-4556371Y12572478D01*
X-4556371Y12572478D02*
X-4708752Y12572478D01*
X-4708752Y12572478D02*
X-4784942Y12534382D01*
X-4442085Y12077240D02*
X-4518276Y12039144D01*
X-4518276Y12039144D02*
X-4708752Y12039144D01*
X-4708752Y12039144D02*
X-4784942Y12077240D01*
X-4784942Y12077240D02*
X-4823038Y12153430D01*
X-4823038Y12153430D02*
X-4823038Y12229620D01*
X-4823038Y12229620D02*
X-4784942Y12305811D01*
X-4784942Y12305811D02*
X-4708752Y12343906D01*
X-4708752Y12343906D02*
X-4518276Y12343906D01*
X-4518276Y12343906D02*
X-4442085Y12382001D01*
X-4061132Y12039144D02*
X-4061132Y12572478D01*
X-4061132Y12420097D02*
X-4023037Y12496287D01*
X-4023037Y12496287D02*
X-3984942Y12534382D01*
X-3984942Y12534382D02*
X-3908751Y12572478D01*
X-3908751Y12572478D02*
X-3832561Y12572478D01*
X-3223037Y12039144D02*
X-3223037Y12839144D01*
X-3223037Y12077240D02*
X-3299228Y12039144D01*
X-3299228Y12039144D02*
X-3451609Y12039144D01*
X-3451609Y12039144D02*
X-3527799Y12077240D01*
X-3527799Y12077240D02*
X-3565894Y12115335D01*
X-3565894Y12115335D02*
X-3603990Y12191525D01*
X-3603990Y12191525D02*
X-3603990Y12420097D01*
X-3603990Y12420097D02*
X-3565894Y12496287D01*
X-3565894Y12496287D02*
X-3527799Y12534382D01*
X-3527799Y12534382D02*
X-3451609Y12572478D01*
X-3451609Y12572478D02*
X-3299228Y12572478D01*
X-3299228Y12572478D02*
X-3223037Y12534382D01*
X-3032561Y11962954D02*
X-2423037Y11962954D01*
X-1889703Y12039144D02*
X-1889703Y12458192D01*
X-1889703Y12458192D02*
X-1927798Y12534382D01*
X-1927798Y12534382D02*
X-2003989Y12572478D01*
X-2003989Y12572478D02*
X-2156370Y12572478D01*
X-2156370Y12572478D02*
X-2232560Y12534382D01*
X-1889703Y12077240D02*
X-1965894Y12039144D01*
X-1965894Y12039144D02*
X-2156370Y12039144D01*
X-2156370Y12039144D02*
X-2232560Y12077240D01*
X-2232560Y12077240D02*
X-2270656Y12153430D01*
X-2270656Y12153430D02*
X-2270656Y12229620D01*
X-2270656Y12229620D02*
X-2232560Y12305811D01*
X-2232560Y12305811D02*
X-2156370Y12343906D01*
X-2156370Y12343906D02*
X-1965894Y12343906D01*
X-1965894Y12343906D02*
X-1889703Y12382001D01*
X-1165893Y12077240D02*
X-1242084Y12039144D01*
X-1242084Y12039144D02*
X-1394465Y12039144D01*
X-1394465Y12039144D02*
X-1470655Y12077240D01*
X-1470655Y12077240D02*
X-1508750Y12115335D01*
X-1508750Y12115335D02*
X-1546846Y12191525D01*
X-1546846Y12191525D02*
X-1546846Y12420097D01*
X-1546846Y12420097D02*
X-1508750Y12496287D01*
X-1508750Y12496287D02*
X-1470655Y12534382D01*
X-1470655Y12534382D02*
X-1394465Y12572478D01*
X-1394465Y12572478D02*
X-1242084Y12572478D01*
X-1242084Y12572478D02*
X-1165893Y12534382D01*
X-937322Y12572478D02*
X-632560Y12572478D01*
X-823036Y12839144D02*
X-823036Y12153430D01*
X-823036Y12153430D02*
X-784941Y12077240D01*
X-784941Y12077240D02*
X-708751Y12039144D01*
X-708751Y12039144D02*
X-632560Y12039144D01*
X-365893Y12039144D02*
X-365893Y12572478D01*
X-365893Y12839144D02*
X-403989Y12801049D01*
X-403989Y12801049D02*
X-365893Y12762954D01*
X-365893Y12762954D02*
X-327798Y12801049D01*
X-327798Y12801049D02*
X-365893Y12839144D01*
X-365893Y12839144D02*
X-365893Y12762954D01*
X-61132Y12572478D02*
X129343Y12039144D01*
X129343Y12039144D02*
X319820Y12572478D01*
X967439Y12039144D02*
X967439Y12458192D01*
X967439Y12458192D02*
X929344Y12534382D01*
X929344Y12534382D02*
X853153Y12572478D01*
X853153Y12572478D02*
X700772Y12572478D01*
X700772Y12572478D02*
X624582Y12534382D01*
X967439Y12077240D02*
X891248Y12039144D01*
X891248Y12039144D02*
X700772Y12039144D01*
X700772Y12039144D02*
X624582Y12077240D01*
X624582Y12077240D02*
X586486Y12153430D01*
X586486Y12153430D02*
X586486Y12229620D01*
X586486Y12229620D02*
X624582Y12305811D01*
X624582Y12305811D02*
X700772Y12343906D01*
X700772Y12343906D02*
X891248Y12343906D01*
X891248Y12343906D02*
X967439Y12382001D01*
X1234106Y12572478D02*
X1538868Y12572478D01*
X1348392Y12839144D02*
X1348392Y12153430D01*
X1348392Y12153430D02*
X1386487Y12077240D01*
X1386487Y12077240D02*
X1462677Y12039144D01*
X1462677Y12039144D02*
X1538868Y12039144D01*
X1805535Y12039144D02*
X1805535Y12572478D01*
X1805535Y12839144D02*
X1767439Y12801049D01*
X1767439Y12801049D02*
X1805535Y12762954D01*
X1805535Y12762954D02*
X1843630Y12801049D01*
X1843630Y12801049D02*
X1805535Y12839144D01*
X1805535Y12839144D02*
X1805535Y12762954D01*
X2300772Y12039144D02*
X2224582Y12077240D01*
X2224582Y12077240D02*
X2186487Y12115335D01*
X2186487Y12115335D02*
X2148391Y12191525D01*
X2148391Y12191525D02*
X2148391Y12420097D01*
X2148391Y12420097D02*
X2186487Y12496287D01*
X2186487Y12496287D02*
X2224582Y12534382D01*
X2224582Y12534382D02*
X2300772Y12572478D01*
X2300772Y12572478D02*
X2415058Y12572478D01*
X2415058Y12572478D02*
X2491249Y12534382D01*
X2491249Y12534382D02*
X2529344Y12496287D01*
X2529344Y12496287D02*
X2567439Y12420097D01*
X2567439Y12420097D02*
X2567439Y12191525D01*
X2567439Y12191525D02*
X2529344Y12115335D01*
X2529344Y12115335D02*
X2491249Y12077240D01*
X2491249Y12077240D02*
X2415058Y12039144D01*
X2415058Y12039144D02*
X2300772Y12039144D01*
X2910297Y12572478D02*
X2910297Y12039144D01*
X2910297Y12496287D02*
X2948392Y12534382D01*
X2948392Y12534382D02*
X3024582Y12572478D01*
X3024582Y12572478D02*
X3138868Y12572478D01*
X3138868Y12572478D02*
X3215059Y12534382D01*
X3215059Y12534382D02*
X3253154Y12458192D01*
X3253154Y12458192D02*
X3253154Y12039144D01*
X3443631Y11962954D02*
X4053154Y11962954D01*
X4243631Y12039144D02*
X4243631Y12572478D01*
X4243631Y12839144D02*
X4205535Y12801049D01*
X4205535Y12801049D02*
X4243631Y12762954D01*
X4243631Y12762954D02*
X4281726Y12801049D01*
X4281726Y12801049D02*
X4243631Y12839144D01*
X4243631Y12839144D02*
X4243631Y12762954D01*
X4624583Y12572478D02*
X4624583Y12039144D01*
X4624583Y12496287D02*
X4662678Y12534382D01*
X4662678Y12534382D02*
X4738868Y12572478D01*
X4738868Y12572478D02*
X4853154Y12572478D01*
X4853154Y12572478D02*
X4929345Y12534382D01*
X4929345Y12534382D02*
X4967440Y12458192D01*
X4967440Y12458192D02*
X4967440Y12039144D01*
X5234107Y12572478D02*
X5538869Y12572478D01*
X5348393Y12839144D02*
X5348393Y12153430D01*
X5348393Y12153430D02*
X5386488Y12077240D01*
X5386488Y12077240D02*
X5462678Y12039144D01*
X5462678Y12039144D02*
X5538869Y12039144D01*
X6110298Y12077240D02*
X6034107Y12039144D01*
X6034107Y12039144D02*
X5881726Y12039144D01*
X5881726Y12039144D02*
X5805536Y12077240D01*
X5805536Y12077240D02*
X5767440Y12153430D01*
X5767440Y12153430D02*
X5767440Y12458192D01*
X5767440Y12458192D02*
X5805536Y12534382D01*
X5805536Y12534382D02*
X5881726Y12572478D01*
X5881726Y12572478D02*
X6034107Y12572478D01*
X6034107Y12572478D02*
X6110298Y12534382D01*
X6110298Y12534382D02*
X6148393Y12458192D01*
X6148393Y12458192D02*
X6148393Y12382001D01*
X6148393Y12382001D02*
X5767440Y12305811D01*
X6491250Y12039144D02*
X6491250Y12572478D01*
X6491250Y12420097D02*
X6529345Y12496287D01*
X6529345Y12496287D02*
X6567440Y12534382D01*
X6567440Y12534382D02*
X6643631Y12572478D01*
X6643631Y12572478D02*
X6719821Y12572478D01*
X6872202Y12572478D02*
X7176964Y12572478D01*
X6986488Y12039144D02*
X6986488Y12724859D01*
X6986488Y12724859D02*
X7024583Y12801049D01*
X7024583Y12801049D02*
X7100773Y12839144D01*
X7100773Y12839144D02*
X7176964Y12839144D01*
X7786488Y12039144D02*
X7786488Y12458192D01*
X7786488Y12458192D02*
X7748393Y12534382D01*
X7748393Y12534382D02*
X7672202Y12572478D01*
X7672202Y12572478D02*
X7519821Y12572478D01*
X7519821Y12572478D02*
X7443631Y12534382D01*
X7786488Y12077240D02*
X7710297Y12039144D01*
X7710297Y12039144D02*
X7519821Y12039144D01*
X7519821Y12039144D02*
X7443631Y12077240D01*
X7443631Y12077240D02*
X7405535Y12153430D01*
X7405535Y12153430D02*
X7405535Y12229620D01*
X7405535Y12229620D02*
X7443631Y12305811D01*
X7443631Y12305811D02*
X7519821Y12343906D01*
X7519821Y12343906D02*
X7710297Y12343906D01*
X7710297Y12343906D02*
X7786488Y12382001D01*
X8510298Y12077240D02*
X8434107Y12039144D01*
X8434107Y12039144D02*
X8281726Y12039144D01*
X8281726Y12039144D02*
X8205536Y12077240D01*
X8205536Y12077240D02*
X8167441Y12115335D01*
X8167441Y12115335D02*
X8129345Y12191525D01*
X8129345Y12191525D02*
X8129345Y12420097D01*
X8129345Y12420097D02*
X8167441Y12496287D01*
X8167441Y12496287D02*
X8205536Y12534382D01*
X8205536Y12534382D02*
X8281726Y12572478D01*
X8281726Y12572478D02*
X8434107Y12572478D01*
X8434107Y12572478D02*
X8510298Y12534382D01*
X9157917Y12077240D02*
X9081726Y12039144D01*
X9081726Y12039144D02*
X8929345Y12039144D01*
X8929345Y12039144D02*
X8853155Y12077240D01*
X8853155Y12077240D02*
X8815059Y12153430D01*
X8815059Y12153430D02*
X8815059Y12458192D01*
X8815059Y12458192D02*
X8853155Y12534382D01*
X8853155Y12534382D02*
X8929345Y12572478D01*
X8929345Y12572478D02*
X9081726Y12572478D01*
X9081726Y12572478D02*
X9157917Y12534382D01*
X9157917Y12534382D02*
X9196012Y12458192D01*
X9196012Y12458192D02*
X9196012Y12382001D01*
X9196012Y12382001D02*
X8815059Y12305811D01*
X10491250Y12077240D02*
X10415059Y12039144D01*
X10415059Y12039144D02*
X10262678Y12039144D01*
X10262678Y12039144D02*
X10186488Y12077240D01*
X10186488Y12077240D02*
X10148393Y12115335D01*
X10148393Y12115335D02*
X10110297Y12191525D01*
X10110297Y12191525D02*
X10110297Y12420097D01*
X10110297Y12420097D02*
X10148393Y12496287D01*
X10148393Y12496287D02*
X10186488Y12534382D01*
X10186488Y12534382D02*
X10262678Y12572478D01*
X10262678Y12572478D02*
X10415059Y12572478D01*
X10415059Y12572478D02*
X10491250Y12534382D01*
X11176964Y12572478D02*
X11176964Y12039144D01*
X10834107Y12572478D02*
X10834107Y12153430D01*
X10834107Y12153430D02*
X10872202Y12077240D01*
X10872202Y12077240D02*
X10948392Y12039144D01*
X10948392Y12039144D02*
X11062678Y12039144D01*
X11062678Y12039144D02*
X11138869Y12077240D01*
X11138869Y12077240D02*
X11176964Y12115335D01*
X11443631Y12572478D02*
X11748393Y12572478D01*
X11557917Y12839144D02*
X11557917Y12153430D01*
X11557917Y12153430D02*
X11596012Y12077240D01*
X11596012Y12077240D02*
X11672202Y12039144D01*
X11672202Y12039144D02*
X11748393Y12039144D01*
X12129345Y12039144D02*
X12053155Y12077240D01*
X12053155Y12077240D02*
X12015060Y12115335D01*
X12015060Y12115335D02*
X11976964Y12191525D01*
X11976964Y12191525D02*
X11976964Y12420097D01*
X11976964Y12420097D02*
X12015060Y12496287D01*
X12015060Y12496287D02*
X12053155Y12534382D01*
X12053155Y12534382D02*
X12129345Y12572478D01*
X12129345Y12572478D02*
X12243631Y12572478D01*
X12243631Y12572478D02*
X12319822Y12534382D01*
X12319822Y12534382D02*
X12357917Y12496287D01*
X12357917Y12496287D02*
X12396012Y12420097D01*
X12396012Y12420097D02*
X12396012Y12191525D01*
X12396012Y12191525D02*
X12357917Y12115335D01*
X12357917Y12115335D02*
X12319822Y12077240D01*
X12319822Y12077240D02*
X12243631Y12039144D01*
X12243631Y12039144D02*
X12129345Y12039144D01*
X13081727Y12572478D02*
X13081727Y12039144D01*
X12738870Y12572478D02*
X12738870Y12153430D01*
X12738870Y12153430D02*
X12776965Y12077240D01*
X12776965Y12077240D02*
X12853155Y12039144D01*
X12853155Y12039144D02*
X12967441Y12039144D01*
X12967441Y12039144D02*
X13043632Y12077240D01*
X13043632Y12077240D02*
X13081727Y12115335D01*
X13348394Y12572478D02*
X13653156Y12572478D01*
X13462680Y12839144D02*
X13462680Y12153430D01*
X13462680Y12153430D02*
X13500775Y12077240D01*
X13500775Y12077240D02*
X13576965Y12039144D01*
X13576965Y12039144D02*
X13653156Y12039144D01*
M02*
