%TF.GenerationSoftware,KiCad,Pcbnew,10.0.3*%
%TF.CreationDate,2026-09-09T15:07:44+02:00*%
%TF.ProjectId,aft_end_board,6166745f-656e-4645-9f62-6f6172642e6b,rev?*%
%TF.SameCoordinates,Original*%
%TF.FileFunction,Copper,L10,Inr*%
%TF.FilePolarity,Positive*%
%FSLAX46Y46*%
G04 Gerber Fmt 4.6, Leading zero omitted, Abs format (unit mm)*
G04 Created by KiCad (PCBNEW 10.0.3) date 2026-09-09 15:07:44*
%MOMM*%
%LPD*%
G01*
G04 APERTURE LIST*
%TA.AperFunction,ViaPad*%
%ADD10C,0.450000*%
%TD*%
%TA.AperFunction,Conductor*%
%ADD11C,0.100000*%
%TD*%
G04 APERTURE END LIST*
D10*
%TO.N,EXT_CAN_TX*%
X13116300Y8450000D03*
X-809300Y5249100D03*
%TO.N,FLEX_GND*%
X7060000Y7250000D03*
X1140000Y-3190000D03*
X2950000Y810000D03*
X2160000Y-8390000D03*
X-2480000Y7600000D03*
X9000000Y-9460000D03*
X12920000Y6720000D03*
%TO.N,COMP_5V*%
X-12092100Y-513500D03*
X-1308400Y5000500D03*
X12552100Y5250000D03*
X879600Y10888500D03*
%TO.N,EXT_CAN_RX*%
X12774800Y-1989700D03*
X1306200Y6116800D03*
X12096800Y3280800D03*
%TO.N,3V3*%
X2424800Y10867300D03*
X12623100Y-5127600D03*
%TO.N,EXT_CAN_N*%
X-4660500Y5816500D03*
X2061300Y5918500D03*
%TO.N,EXT_CAN_P*%
X-2958500Y-865000D03*
X-5702000Y-2204900D03*
%TO.N,BAT_PROT*%
X5953000Y6676400D03*
X13195400Y1026700D03*
%TO.N,GPIO_EXT_0*%
X7573300Y12496300D03*
X5762100Y6104700D03*
%TO.N,GPIO_EXT_1*%
X7043500Y-13820800D03*
X5753100Y5401200D03*
%TO.N,Y7_FIRE_SEL*%
X542400Y-7617800D03*
X2991000Y5730700D03*
%TO.N,Y6_FIRE_SEL*%
X6371700Y4872700D03*
X-5829400Y5548900D03*
%TO.N,Y5_FIRE_SEL*%
X6539800Y3849400D03*
X-8699100Y-4869100D03*
%TO.N,Y4_FIRE_SEL*%
X5819800Y3065000D03*
X-197300Y-7632900D03*
X-4124200Y-8479500D03*
%TO.N,Y3_FIRE_SEL*%
X3010000Y-3260000D03*
X5920000Y2190000D03*
%TO.N,Y1_FIRE_SEL*%
X6190000Y730000D03*
X-5198000Y-3100600D03*
%TO.N,Y0_FIRE_SEL*%
X7447900Y-3342900D03*
X-349000Y-8889000D03*
%TO.N,Y13_FIRE_SEL*%
X9116500Y-6243000D03*
X3982700Y-6243000D03*
X10414800Y-1443600D03*
%TO.N,Y12_FIRE_SEL*%
X9455600Y-225400D03*
X-2056300Y8283600D03*
%TO.N,Y15_FIRE_SEL*%
X-5795300Y10001700D03*
X9937500Y8410800D03*
X11631400Y826000D03*
%TO.N,Y14_FIRE_SEL*%
X-5400000Y1020000D03*
X9454700Y561300D03*
%TO.N,Y9_FIRE_SEL*%
X11633600Y2541900D03*
X-9309700Y4768700D03*
%TO.N,Y8_FIRE_SEL*%
X9372700Y1418100D03*
X7512400Y-7512500D03*
%TO.N,Y11_FIRE_SEL*%
X9452500Y2658900D03*
X-10090000Y-80000D03*
%TO.N,Y10_FIRE_SEL*%
X3898800Y9727700D03*
X9454100Y4347300D03*
X8105400Y8892600D03*
%TO.N,GPIO_EXT_2*%
X5938200Y-11598000D03*
X6570000Y1570000D03*
%TO.N,GPIO_EXT_3*%
X-6282300Y-1851000D03*
X5987800Y-9997900D03*
X9542200Y5340300D03*
%TO.N,FIRE_HV*%
X2201000Y-7369600D03*
X1150000Y12492500D03*
X8391600Y9912300D03*
X8785800Y-1449100D03*
%TO.N,ACTIVATE_CONFIRM*%
X13950000Y-3514600D03*
X3334200Y-4925400D03*
X922500Y-7225500D03*
%TO.N,JUMP_PAD*%
X3310000Y-2250000D03*
X-1690000Y-860000D03*
%TO.N,JUMP_WAKE*%
X8150000Y-850000D03*
X3150000Y-270000D03*
%TO.N,ACT_WIRE_13*%
X4664500Y-7290700D03*
X3753400Y-13207500D03*
%TO.N,ACT_WIRE_3*%
X6640400Y12601500D03*
X5834000Y-1305700D03*
%TO.N,ACT_WIRE_1*%
X-5027900Y-814100D03*
X13153700Y4603900D03*
%TO.N,ACT_WIRE_12*%
X1841200Y6817700D03*
X353400Y-13688800D03*
%TO.N,ACT_WIRE_5*%
X-6703700Y-1477000D03*
X-5740000Y12498200D03*
%TO.N,ACT_WIRE_6*%
X-11542800Y9677200D03*
X-5476000Y7804000D03*
%TO.N,ACT_WIRE_10*%
X3964000Y9144000D03*
X-9453400Y-9924300D03*
%TO.N,FIRE_ARM_GD*%
X-3730000Y-5280000D03*
X1030000Y-740000D03*
%TO.N,ACT_WIRE_7*%
X-12498000Y5740000D03*
X1330000Y-7562900D03*
%TO.N,ACT_WIRE_0*%
X13184400Y-1068200D03*
X2384900Y-10521800D03*
%TO.N,ACTIVATE_SET*%
X5817900Y4158200D03*
X13190200Y114400D03*
X-3840700Y-6485600D03*
%TO.N,ACT_WIRE_4*%
X-1083600Y14151800D03*
X-3285100Y-9737100D03*
%TO.N,3V3_AON*%
X12744100Y-1454600D03*
X-1600Y7611900D03*
%TO.N,BAT_RAW*%
X13192700Y1841500D03*
X967600Y-13190900D03*
%TO.N,BOOT0*%
X13196500Y3650000D03*
X6609300Y2691500D03*
X-8670000Y-560000D03*
%TO.N,COMP_SWDCLK*%
X3420000Y-2890000D03*
X12350000Y-6705600D03*
%TO.N,COMP_SWDIO*%
X11773300Y-1979600D03*
X-656300Y7497700D03*
%TO.N,FIN1_AOUT1*%
X1050000Y820000D03*
X10750000Y-6705900D03*
%TO.N,FIN2_AOUT1*%
X-910300Y3041700D03*
X10145300Y-3605900D03*
%TO.N,FIN3_AOUT1*%
X-5128300Y-4878300D03*
X11502800Y-3966300D03*
%TO.N,FIN4_AOUT1*%
X5829900Y1556500D03*
X10927500Y7695800D03*
%TO.N,FIN_HALL*%
X4787100Y-5522000D03*
X10038400Y9338400D03*
%TO.N,FIN_VREF*%
X4038600Y-5712700D03*
X8479100Y7777500D03*
%TO.N,NRST*%
X-735100Y-7418900D03*
%TO.N,SWO*%
X5345200Y-10017300D03*
X-6810000Y-370000D03*
%TO.N,SYS_I2C_SCL*%
X4664800Y-8435200D03*
X5336500Y-4672300D03*
%TO.N,SYS_I2C_SDA*%
X-3825400Y5795800D03*
X4350000Y12490600D03*
%TO.N,SYS_SPI_CS_FIN*%
X-6240000Y3580000D03*
X2081900Y-13281900D03*
%TO.N,SYS_SPI_MISO*%
X5513600Y-1851000D03*
X3396900Y6162100D03*
%TO.N,SYS_SPI_MOSI*%
X2023500Y7483400D03*
%TO.N,SYS_SPI_SCLK*%
X1992400Y10012100D03*
X910800Y3041200D03*
%TO.N,FIRE_ARMED*%
X-1175800Y812400D03*
X6058100Y-3026600D03*
%TO.N,ACT_WIRE_15*%
X-4326000Y8642700D03*
X12893800Y-6706200D03*
%TO.N,ACT_WIRE_11*%
X-8977000Y2398900D03*
X-7050100Y-13654700D03*
%TO.N,ACT_WIRE_2*%
X8506100Y10735700D03*
X1350300Y-8189800D03*
%TO.N,ACT_WIRE_8*%
X7310000Y-6150000D03*
X-14079000Y921000D03*
%TO.N,ACT_WIRE_9*%
X-10280000Y7640000D03*
X-12599300Y-5150000D03*
%TO.N,ACT_WIRE_14*%
X-5476000Y5023600D03*
X10610000Y-9294700D03*
%TD*%
%TO.N,Y12_FIRE_SEL*%
D11*
X-2056300Y8283600D02*
X6452700Y-225400D01*
X6452700Y-225400D02*
X9455600Y-225400D01*
%TO.N,GPIO_EXT_3*%
X4776800Y-8786900D02*
X5987800Y-9997900D01*
X4519200Y-8786900D02*
X4776800Y-8786900D01*
X-2416700Y-1851000D02*
X4519200Y-8786900D01*
X-6282300Y-1851000D02*
X-2416700Y-1851000D01*
%TO.N,3V3_AON*%
X7028000Y4511400D02*
X12744100Y-1204700D01*
X308500Y7611900D02*
X1709600Y6210800D01*
X1709600Y5772900D02*
X2971100Y4511400D01*
X-1600Y7611900D02*
X308500Y7611900D01*
X1709600Y6210800D02*
X1709600Y5772900D01*
X2971100Y4511400D02*
X7028000Y4511400D01*
X12744100Y-1204700D02*
X12744100Y-1454600D01*
%TO.N,COMP_SWDIO*%
X8219900Y3069600D02*
X6645800Y3069600D01*
X11773300Y-483800D02*
X8219900Y3069600D01*
X3298400Y3543000D02*
X-656300Y7497700D01*
X6645800Y3069600D02*
X6172400Y3543000D01*
X11773300Y-1979600D02*
X11773300Y-483800D01*
X6172400Y3543000D02*
X3298400Y3543000D01*
%TO.N,FIN1_AOUT1*%
X1104000Y766000D02*
X1174000Y766000D01*
X1050000Y820000D02*
X1104000Y766000D01*
X8645900Y-6705900D02*
X10750000Y-6705900D01*
X1174000Y766000D02*
X8645900Y-6705900D01*
%TO.N,FIN2_AOUT1*%
X10145300Y-3605900D02*
X7312900Y-773500D01*
X3105200Y1623900D02*
X507500Y1623900D01*
X507500Y1623900D02*
X-910300Y3041700D01*
X5502600Y-773500D02*
X3105200Y1623900D01*
X7312900Y-773500D02*
X5502600Y-773500D01*
%TO.N,ACT_WIRE_15*%
X10704100Y-4516500D02*
X12893800Y-6706200D01*
X956500Y1413500D02*
X6886500Y-4516500D01*
X6886500Y-4516500D02*
X10704100Y-4516500D01*
X-2522400Y4136500D02*
X200600Y1413500D01*
X-2522400Y6839100D02*
X-2522400Y4136500D01*
X200600Y1413500D02*
X956500Y1413500D01*
X-4326000Y8642700D02*
X-2522400Y6839100D01*
%TO.N,ACT_WIRE_8*%
X-1364900Y400000D02*
X-13558000Y400000D01*
X7310000Y-6150000D02*
X4917800Y-6150000D01*
X4435400Y-5667600D02*
X4435400Y-5400300D01*
X4435400Y-5400300D02*
X-1364900Y400000D01*
X-13558000Y400000D02*
X-14079000Y921000D01*
X4917800Y-6150000D02*
X4435400Y-5667600D01*
%TO.N,ACT_WIRE_14*%
X1692700Y-22700D02*
X10610000Y-8940000D01*
X-5476000Y5023600D02*
X-4341700Y5023600D01*
X10610000Y-8940000D02*
X10610000Y-9294700D01*
X-4341700Y5023600D02*
X704600Y-22700D01*
X704600Y-22700D02*
X1692700Y-22700D01*
%TD*%
M02*
