%TF.GenerationSoftware,KiCad,Pcbnew,10.0.5*%
%TF.CreationDate,2026-08-31T15:50:45+02:00*%
%TF.ProjectId,power_board,706f7765-725f-4626-9f61-72642e6b6963,rev?*%
%TF.SameCoordinates,Original*%
%TF.FileFunction,Soldermask,Bot*%
%TF.FilePolarity,Negative*%
%FSLAX46Y46*%
G04 Gerber Fmt 4.6, Leading zero omitted, Abs format (unit mm)*
G04 Created by KiCad (PCBNEW 10.0.5) date 2026-08-31 15:50:45*
%MOMM*%
%LPD*%
G01*
G04 APERTURE LIST*
%ADD10C,3.000000*%
%ADD11R,2.000000X3.050000*%
%ADD12R,0.550000X0.600000*%
%ADD13R,0.850000X0.950000*%
%ADD14R,0.600000X1.300000*%
%ADD15R,0.560000X0.950000*%
%ADD16R,2.450000X4.900000*%
%ADD17R,1.150000X1.450000*%
%ADD18R,1.400000X2.300000*%
%ADD19R,0.450000X1.475000*%
%ADD20R,2.310000X2.460000*%
%ADD21R,0.900000X0.900000*%
G04 APERTURE END LIST*
D10*
%TO.C,*%
X-9899500Y9899500D03*
%TD*%
%TO.C,*%
X9899500Y-9899500D03*
%TD*%
D11*
%TO.C,D_USB_PWR*%
X-3600000Y0D03*
X3600000Y0D03*
%TD*%
D12*
%TO.C,C_PMIC_0V82_2*%
X-475000Y-3651000D03*
X475000Y-3651000D03*
%TD*%
D13*
%TO.C,C_PMIC_1V2_1_3*%
X-800000Y3826000D03*
X800000Y3826000D03*
%TD*%
D12*
%TO.C,R_BAT3_ISO*%
X-2076000Y-3651000D03*
X-1126000Y-3651000D03*
%TD*%
D13*
%TO.C,C_PMIC_VIN6*%
X1426000Y-3826000D03*
X3026000Y-3826000D03*
%TD*%
%TO.C,C_PMIC_1V2_1_2*%
X-1425000Y-4527000D03*
X175000Y-4527000D03*
%TD*%
D12*
%TO.C,C_PMIC_1V8_2*%
X-2701000Y3651000D03*
X-1751000Y3651000D03*
%TD*%
D14*
%TO.C,L_PMIC_BUCK5*%
X-800000Y5052000D03*
X800000Y5052000D03*
%TD*%
D12*
%TO.C,C_PMIC_LDO7*%
X1751000Y3651000D03*
X2701000Y3651000D03*
%TD*%
D13*
%TO.C,C_CAM_LDO_VAA_OUT_1*%
X-3651000Y4527000D03*
X-2051000Y4527000D03*
%TD*%
D12*
%TO.C,R_ISO_H*%
X-3677000Y-3651000D03*
X-2727000Y-3651000D03*
%TD*%
D15*
%TO.C,Q_USB_WAKE*%
X1906000Y4552000D03*
X1906000Y6452000D03*
X4006000Y5502000D03*
%TD*%
D12*
%TO.C,C_PMIC_LDO2*%
X1126000Y-4702000D03*
X2076000Y-4702000D03*
%TD*%
%TO.C,R_PMIC_WAKEUP*%
X-5201000Y-475000D03*
X-5201000Y475000D03*
%TD*%
%TO.C,C_PMIC_LDO4*%
X5201000Y-475000D03*
X5201000Y475000D03*
%TD*%
D16*
%TO.C,L_BOOST_COMP*%
X-2425000Y-7803000D03*
X1175000Y-7803000D03*
%TD*%
D12*
%TO.C,R_ISO_L*%
X-3326000Y-4352000D03*
X-2376000Y-4352000D03*
%TD*%
D13*
%TO.C,C_BOOST_OUT2_1*%
X-6077000Y-800000D03*
X-6077000Y800000D03*
%TD*%
D17*
%TO.C,C_CAM_LDO_VAA_IN*%
X6327000Y-975000D03*
X6327000Y975000D03*
%TD*%
D13*
%TO.C,C_PMIC_INTLDO_2*%
X-3651000Y5578000D03*
X-2051000Y5578000D03*
%TD*%
D12*
%TO.C,C_PMIC_2V8_2*%
X-4302000Y3651000D03*
X-3352000Y3651000D03*
%TD*%
D13*
%TO.C,C_PMIC_5V_FILT_3*%
X-800000Y6278000D03*
X800000Y6278000D03*
%TD*%
D12*
%TO.C,R_ISO_EN_S*%
X3352000Y3651000D03*
X4302000Y3651000D03*
%TD*%
D13*
%TO.C,C_PMIC_VIN4*%
X4277000Y-3826000D03*
X5877000Y-3826000D03*
%TD*%
D12*
%TO.C,R_BOOST_R2*%
X-5201000Y-2076000D03*
X-5201000Y-1126000D03*
%TD*%
%TO.C,C_PMIC_VLX7*%
X-5201000Y1126000D03*
X-5201000Y2076000D03*
%TD*%
%TO.C,R_PMIC_PWRCTRL2_PD*%
X5201000Y-2076000D03*
X5201000Y-1126000D03*
%TD*%
%TO.C,R_USBWK_PD*%
X5201000Y1126000D03*
X5201000Y2076000D03*
%TD*%
D13*
%TO.C,C_BOOST_OUT2_4*%
X-4528000Y-5526000D03*
X-4528000Y-3926000D03*
%TD*%
D12*
%TO.C,C_BOOST_SS*%
X2727000Y-4702000D03*
X3677000Y-4702000D03*
%TD*%
D13*
%TO.C,C_BOOST_OUT2_2*%
X-6077000Y-3651000D03*
X-6077000Y-2051000D03*
%TD*%
D12*
%TO.C,C_PMIC_VOUT7*%
X-5201000Y2727000D03*
X-5201000Y3677000D03*
%TD*%
D13*
%TO.C,C_PMIC_2V8_1_2*%
X-6077000Y2051000D03*
X-6077000Y3651000D03*
%TD*%
D18*
%TO.C,C_PMIC_0V82_1*%
X6301000Y3302000D03*
X6301000Y5702000D03*
%TD*%
D13*
%TO.C,C_USB_VBUS_1*%
X-7128000Y-800000D03*
X-7128000Y800000D03*
%TD*%
D12*
%TO.C,R_ISO_USB_H*%
X5176000Y-2752000D03*
X6126000Y-2752000D03*
%TD*%
%TO.C,R_BOOST_FREQ*%
X2976000Y-5403000D03*
X3926000Y-5403000D03*
%TD*%
D13*
%TO.C,C_BOOST_OUT2_5*%
X-3651000Y6629000D03*
X-2051000Y6629000D03*
%TD*%
%TO.C,C_USB_VBUS_2*%
X-800000Y7329000D03*
X800000Y7329000D03*
%TD*%
D12*
%TO.C,R_TMP1_ALERT_PU*%
X4328000Y-4702000D03*
X5278000Y-4702000D03*
%TD*%
D13*
%TO.C,C_USB_VBUS_5*%
X-5026000Y4628000D03*
X-5026000Y6228000D03*
%TD*%
%TO.C,C_PMIC_INTLDO_1*%
X3276000Y-6279000D03*
X4876000Y-6279000D03*
%TD*%
D12*
%TO.C,R_BOOST_COMP*%
X-6953000Y-2701000D03*
X-6953000Y-1751000D03*
%TD*%
D13*
%TO.C,C_PMIC_1V2_1_5*%
X7628000Y-800000D03*
X7628000Y800000D03*
%TD*%
%TO.C,C_BOOST_COMP*%
X-7128000Y2051000D03*
X-7128000Y3651000D03*
%TD*%
D12*
%TO.C,R_ISO_USB_L*%
X4577000Y-5403000D03*
X5527000Y-5403000D03*
%TD*%
D13*
%TO.C,C_PMIC_VIN3*%
X7028000Y-4626000D03*
X7028000Y-3026000D03*
%TD*%
D12*
%TO.C,C_PMIC_LDO8*%
X-6329000Y-4726000D03*
X-5379000Y-4726000D03*
%TD*%
%TO.C,C_PMIC_VIN2*%
X1751000Y7353000D03*
X2701000Y7353000D03*
%TD*%
%TO.C,C_PMIC_LDO1*%
X-5902000Y4602000D03*
X-5902000Y5552000D03*
%TD*%
D13*
%TO.C,C_PMIC_VIN5*%
X-8179000Y-800000D03*
X-8179000Y800000D03*
%TD*%
D12*
%TO.C,R_USBWK_G*%
X-2701000Y7505000D03*
X-1751000Y7505000D03*
%TD*%
D13*
%TO.C,C_PMIC_2V8_1_1*%
X-7829000Y-3651000D03*
X-7829000Y-2051000D03*
%TD*%
%TO.C,C_PMIC_1V2_1_4*%
X-800000Y8381000D03*
X800000Y8381000D03*
%TD*%
D12*
%TO.C,R_PMIC_NRST*%
X2976000Y-7155000D03*
X3926000Y-7155000D03*
%TD*%
%TO.C,C_TMP1*%
X-5404000Y-6352000D03*
X-5404000Y-5402000D03*
%TD*%
%TO.C,C_PMIC_LDO6*%
X7428000Y-1776000D03*
X8378000Y-1776000D03*
%TD*%
%TO.C,C_PMIC_3V3_2*%
X7428000Y1776000D03*
X8378000Y1776000D03*
%TD*%
%TO.C,C_PMIC_1V2_2*%
X-4353000Y-7427000D03*
X-4353000Y-6477000D03*
%TD*%
%TO.C,R_PMIC_PONKEY*%
X3352000Y7353000D03*
X4302000Y7353000D03*
%TD*%
%TO.C,R_BAT2_ISO*%
X1751000Y8054000D03*
X2701000Y8054000D03*
%TD*%
D13*
%TO.C,C_USB_VBUS_3*%
X-8179000Y2051000D03*
X-8179000Y3651000D03*
%TD*%
%TO.C,C_CAM_LDO_VDD_OUT*%
X8679000Y-800000D03*
X8679000Y800000D03*
%TD*%
D17*
%TO.C,CBAT3*%
X8329000Y-5126000D03*
X8329000Y-3176000D03*
%TD*%
D13*
%TO.C,C_PMIC_5V_FILT_2*%
X-6778000Y4902000D03*
X-6778000Y6502000D03*
%TD*%
D19*
%TO.C,U_COMP_BOOST*%
X-2938000Y9757000D03*
X-2938000Y10407000D03*
X-2938000Y11057000D03*
X-2938000Y11707000D03*
X-2938000Y12357000D03*
X-2938000Y13007000D03*
X-2938000Y13657000D03*
X2938000Y13657000D03*
X2938000Y13007000D03*
X2938000Y12357000D03*
X2938000Y11707000D03*
X2938000Y11057000D03*
X2938000Y10407000D03*
X2938000Y9757000D03*
D20*
X0Y11707000D03*
%TD*%
D12*
%TO.C,C_BOOST_OUT3*%
X-4302000Y7505000D03*
X-3352000Y7505000D03*
%TD*%
%TO.C,R_ISO_EN_PD*%
X-2701000Y8206000D03*
X-1751000Y8206000D03*
%TD*%
%TO.C,R_PMIC_PWRCTRL3_PD*%
X-6304000Y-6352000D03*
X-6304000Y-5402000D03*
%TD*%
D13*
%TO.C,C_BOOST_OUT2_3*%
X8277000Y3027000D03*
X8277000Y4627000D03*
%TD*%
%TO.C,C_PMIC_5V_FILT_1*%
X-9230000Y-800000D03*
X-9230000Y800000D03*
%TD*%
%TO.C,C_CAM_LDO_VAA_OUT_2*%
X-7180000Y-6601000D03*
X-7180000Y-5001000D03*
%TD*%
D12*
%TO.C,R_BAT1_ISO*%
X4577000Y-7155000D03*
X5527000Y-7155000D03*
%TD*%
%TO.C,C_PMIC_VPP_2*%
X5827000Y-6104000D03*
X6777000Y-6104000D03*
%TD*%
%TO.C,R_PMIC_PWR_OK*%
X3001000Y-8781000D03*
X3001000Y-7831000D03*
%TD*%
D13*
%TO.C,C_PMIC_5V_FILT_4*%
X-8880000Y-3651000D03*
X-8880000Y-2051000D03*
%TD*%
D12*
%TO.C,R_BOOST_R1*%
X-5902000Y6203000D03*
X-5902000Y7153000D03*
%TD*%
D13*
%TO.C,C_USB_VBUS_4*%
X3652000Y8229000D03*
X5252000Y8229000D03*
%TD*%
%TO.C,C_PMIC_5V_FILT_5*%
X5253000Y7178000D03*
X6853000Y7178000D03*
%TD*%
%TO.C,C_PMIC_1V2_1_1*%
X3977000Y-8306000D03*
X5577000Y-8306000D03*
%TD*%
D17*
%TO.C,C_CAM_LDO_VDD_IN*%
X9980000Y-975000D03*
X9980000Y975000D03*
%TD*%
D12*
%TO.C,C_PMIC_0V9_2*%
X-4302000Y8206000D03*
X-3352000Y8206000D03*
%TD*%
%TO.C,R_PMIC_PWRCTRL1_PD*%
X-6329000Y-7028000D03*
X-5379000Y-7028000D03*
%TD*%
D21*
%TO.C,P_power_board_spacer_wakeup_board_power_board*%
X13950000Y-5441000D03*
X13950000Y-3841000D03*
X13950000Y-2241000D03*
X13950000Y-641000D03*
X13950000Y959000D03*
X13950000Y2559000D03*
X13950000Y4159000D03*
X13950000Y5759000D03*
X12350000Y-5441000D03*
X12350000Y-3841000D03*
X12350000Y4159000D03*
X12350000Y5759000D03*
X12350000Y7359000D03*
X12350000Y8959000D03*
X10750000Y-5441000D03*
X10750000Y-3841000D03*
X10750000Y4159000D03*
X10750000Y5759000D03*
X10750000Y7359000D03*
X10750000Y8959000D03*
X10750000Y10559000D03*
X9150000Y10559000D03*
X9150000Y12159000D03*
X7550000Y10559000D03*
X7550000Y12159000D03*
X5950000Y-13441000D03*
X5950000Y10559000D03*
X5950000Y12159000D03*
X5950000Y13759000D03*
X-450000Y-11841000D03*
X-2050000Y-11841000D03*
X-3650000Y-11841000D03*
X-5250000Y-13441000D03*
X-5250000Y-11841000D03*
X-6850000Y-13441000D03*
X-6850000Y-11841000D03*
X-8450000Y-11841000D03*
X-10050000Y-10241000D03*
X-10050000Y-8641000D03*
X-10050000Y-7041000D03*
X-10050000Y-5441000D03*
X-11650000Y-8641000D03*
X-11650000Y-7041000D03*
X-11650000Y-5441000D03*
X-11650000Y-3841000D03*
X-11650000Y4159000D03*
X-11650000Y5759000D03*
X-13250000Y-7041000D03*
X-13250000Y-5441000D03*
X-13250000Y-3841000D03*
X-13250000Y-2241000D03*
X-13250000Y-641000D03*
X-13250000Y959000D03*
X-13250000Y2559000D03*
X-13250000Y4159000D03*
X-13250000Y5759000D03*
X-13250000Y7359000D03*
X-14850000Y-3841000D03*
X-14850000Y-2241000D03*
X-14850000Y-641000D03*
X-14850000Y959000D03*
X-14850000Y2559000D03*
X-14850000Y4159000D03*
%TD*%
M02*
