%TF.GenerationSoftware,KiCad,Pcbnew,10.0.5*%
%TF.CreationDate,2026-08-31T15:50:45+02:00*%
%TF.ProjectId,power_board,706f7765-725f-4626-9f61-72642e6b6963,rev?*%
%TF.SameCoordinates,Original*%
%TF.FileFunction,Legend,Top*%
%TF.FilePolarity,Positive*%
%FSLAX46Y46*%
G04 Gerber Fmt 4.6, Leading zero omitted, Abs format (unit mm)*
G04 Created by KiCad (PCBNEW 10.0.5) date 2026-08-31 15:50:45*
%MOMM*%
%LPD*%
G01*
G04 APERTURE LIST*
%ADD10C,0.120000*%
G04 APERTURE END LIST*
D10*
X10783400Y-9015600D02*
X9850019Y-8082219D01*
X9510608Y-7742808D02*
X8577227Y-6809427D01*
X8237816Y-6470016D02*
X7718800Y-5951000D01*
X7718800Y-5951000D02*
X9038800Y-5951000D01*
X9518800Y-5951000D02*
X10838800Y-5951000D01*
X11318800Y-5951000D02*
X11327000Y-5951000D01*
X11327000Y-5951000D02*
X11327000Y-4631000D01*
X11327000Y-4151000D02*
X11327000Y-2831000D01*
X11327000Y-2351000D02*
X11327000Y-1031000D01*
X11327000Y-551000D02*
X11327000Y769000D01*
X11327000Y1249000D02*
X11327000Y1451000D01*
X11327000Y1451000D02*
X12647000Y1451000D01*
X12728000Y1451000D02*
X12728000Y2771000D01*
X12728000Y3251000D02*
X12728000Y4571000D01*
X12728000Y5051000D02*
X12728000Y6371000D01*
X12728000Y6851000D02*
X12728000Y8171000D01*
X12728000Y8651000D02*
X12728000Y9151000D01*
X12728000Y9151000D02*
X11408000Y9151000D01*
X10928000Y9151000D02*
X9608000Y9151000D01*
X9128000Y9151000D02*
X8327000Y9151000D01*
X8327000Y9151000D02*
X8327000Y10152000D01*
X8327000Y10152000D02*
X8152000Y10152000D01*
X8152000Y10152000D02*
X8152000Y10479000D01*
X8152000Y10479000D02*
X6832000Y10479000D01*
X6352000Y10479000D02*
X5032000Y10479000D01*
X5000000Y10479000D02*
X5000000Y11799000D01*
X5000000Y12279000D02*
X5000000Y13599000D01*
X5000000Y14079000D02*
X5000000Y15027000D01*
X5000000Y15027000D02*
X3680000Y15027000D01*
X3200000Y15027000D02*
X1880000Y15027000D01*
X1400000Y15027000D02*
X80000Y15027000D01*
X-400000Y15027000D02*
X-1720000Y15027000D01*
X-2200000Y15027000D02*
X-3520000Y15027000D01*
X-4000000Y15027000D02*
X-5000000Y15027000D01*
X-5000000Y15027000D02*
X-5000000Y13707000D01*
X-5000000Y13227000D02*
X-5000000Y11907000D01*
X-5000000Y11427000D02*
X-5000000Y10107000D01*
X-5000000Y9627000D02*
X-5000000Y8307000D01*
X-5000000Y8127000D02*
X-3850000Y8127000D01*
X-3850000Y8127000D02*
X-3850000Y6807000D01*
X-3850000Y6327000D02*
X-3850000Y5617800D01*
X-3850000Y5617800D02*
X-4783381Y6551181D01*
X-5122792Y6890592D02*
X-6056173Y7823973D01*
X-6395584Y8163384D02*
X-7328965Y9096765D01*
X-7668377Y9436177D02*
X-8601758Y10369558D01*
X-8941169Y10708969D02*
X-9015600Y10783400D01*
X-9015600Y10783400D02*
X-9948981Y9850019D01*
X-10288392Y9510608D02*
X-10783400Y9015600D01*
X-10783400Y9015600D02*
X-9850019Y8082219D01*
X-9510608Y7742808D02*
X-8577227Y6809427D01*
X-8237816Y6470016D02*
X-8218800Y6451000D01*
X-8218800Y6451000D02*
X-8977000Y6451000D01*
X-8977000Y6451000D02*
X-8977000Y5131000D01*
X-8977000Y4651000D02*
X-8977000Y3331000D01*
X-8977000Y2851000D02*
X-8977000Y1650000D01*
X-8977000Y1650000D02*
X-10297000Y1650000D01*
X-10637000Y1650000D02*
X-10637000Y330000D01*
X-10637000Y-150000D02*
X-10637000Y-1470000D01*
X-10637000Y-1950000D02*
X-10637000Y-2280000D01*
X-10637000Y-2280000D02*
X-11957000Y-2280000D01*
X-12437000Y-2280000D02*
X-12452000Y-2280000D01*
X-12452000Y-2280000D02*
X-12452000Y-3600000D01*
X-12452000Y-4080000D02*
X-12452000Y-5400000D01*
X-12452000Y-5880000D02*
X-12452000Y-7200000D01*
X-12452000Y-7680000D02*
X-12452000Y-9000000D01*
X-12452000Y-9480000D02*
X-12452000Y-9980000D01*
X-12452000Y-9980000D02*
X-11132000Y-9980000D01*
X-10652000Y-9980000D02*
X-9332000Y-9980000D01*
X-8852000Y-9980000D02*
X-7752000Y-9980000D01*
X-7752000Y-9980000D02*
X-6432000Y-9980000D01*
X-5952000Y-9980000D02*
X-4632000Y-9980000D01*
X-4152000Y-9980000D02*
X-3850000Y-9980000D01*
X-3850000Y-9980000D02*
X-3850000Y-11300000D01*
X-3850000Y-11780000D02*
X-3850000Y-11827000D01*
X-3850000Y-11827000D02*
X-2530000Y-11827000D01*
X-2050000Y-11827000D02*
X-730000Y-11827000D01*
X-250000Y-11827000D02*
X1070000Y-11827000D01*
X1550000Y-11827000D02*
X2870000Y-11827000D01*
X3350000Y-11827000D02*
X3850000Y-11827000D01*
X3850000Y-11827000D02*
X3850000Y-10507000D01*
X3850000Y-10027000D02*
X3850000Y-9012000D01*
X3850000Y-9012000D02*
X5170000Y-9012000D01*
X5650000Y-9012000D02*
X6970000Y-9012000D01*
X7244200Y-9012000D02*
X8177581Y-9945381D01*
X8516992Y-10284792D02*
X9015600Y-10783400D01*
X9015600Y-10783400D02*
X9948981Y-9850019D01*
X10288392Y-9510608D02*
X10783400Y-9015600D01*
X-14180999Y15701240D02*
X-14104808Y15663144D01*
X-14104808Y15663144D02*
X-13952427Y15663144D01*
X-13952427Y15663144D02*
X-13876237Y15701240D01*
X-13876237Y15701240D02*
X-13838141Y15777430D01*
X-13838141Y15777430D02*
X-13838141Y15815525D01*
X-13838141Y15815525D02*
X-13876237Y15891716D01*
X-13876237Y15891716D02*
X-13952427Y15929811D01*
X-13952427Y15929811D02*
X-14066713Y15929811D01*
X-14066713Y15929811D02*
X-14142903Y15967906D01*
X-14142903Y15967906D02*
X-14180999Y16044097D01*
X-14180999Y16044097D02*
X-14180999Y16082192D01*
X-14180999Y16082192D02*
X-14142903Y16158382D01*
X-14142903Y16158382D02*
X-14066713Y16196478D01*
X-14066713Y16196478D02*
X-13952427Y16196478D01*
X-13952427Y16196478D02*
X-13876237Y16158382D01*
X-13495284Y16196478D02*
X-13495284Y15396478D01*
X-13495284Y16158382D02*
X-13419094Y16196478D01*
X-13419094Y16196478D02*
X-13266713Y16196478D01*
X-13266713Y16196478D02*
X-13190522Y16158382D01*
X-13190522Y16158382D02*
X-13152427Y16120287D01*
X-13152427Y16120287D02*
X-13114332Y16044097D01*
X-13114332Y16044097D02*
X-13114332Y15815525D01*
X-13114332Y15815525D02*
X-13152427Y15739335D01*
X-13152427Y15739335D02*
X-13190522Y15701240D01*
X-13190522Y15701240D02*
X-13266713Y15663144D01*
X-13266713Y15663144D02*
X-13419094Y15663144D01*
X-13419094Y15663144D02*
X-13495284Y15701240D01*
X-12428617Y15663144D02*
X-12428617Y16082192D01*
X-12428617Y16082192D02*
X-12466712Y16158382D01*
X-12466712Y16158382D02*
X-12542903Y16196478D01*
X-12542903Y16196478D02*
X-12695284Y16196478D01*
X-12695284Y16196478D02*
X-12771474Y16158382D01*
X-12428617Y15701240D02*
X-12504808Y15663144D01*
X-12504808Y15663144D02*
X-12695284Y15663144D01*
X-12695284Y15663144D02*
X-12771474Y15701240D01*
X-12771474Y15701240D02*
X-12809570Y15777430D01*
X-12809570Y15777430D02*
X-12809570Y15853620D01*
X-12809570Y15853620D02*
X-12771474Y15929811D01*
X-12771474Y15929811D02*
X-12695284Y15967906D01*
X-12695284Y15967906D02*
X-12504808Y15967906D01*
X-12504808Y15967906D02*
X-12428617Y16006001D01*
X-11704807Y15701240D02*
X-11780998Y15663144D01*
X-11780998Y15663144D02*
X-11933379Y15663144D01*
X-11933379Y15663144D02*
X-12009569Y15701240D01*
X-12009569Y15701240D02*
X-12047664Y15739335D01*
X-12047664Y15739335D02*
X-12085760Y15815525D01*
X-12085760Y15815525D02*
X-12085760Y16044097D01*
X-12085760Y16044097D02*
X-12047664Y16120287D01*
X-12047664Y16120287D02*
X-12009569Y16158382D01*
X-12009569Y16158382D02*
X-11933379Y16196478D01*
X-11933379Y16196478D02*
X-11780998Y16196478D01*
X-11780998Y16196478D02*
X-11704807Y16158382D01*
X-11057188Y15701240D02*
X-11133379Y15663144D01*
X-11133379Y15663144D02*
X-11285760Y15663144D01*
X-11285760Y15663144D02*
X-11361950Y15701240D01*
X-11361950Y15701240D02*
X-11400046Y15777430D01*
X-11400046Y15777430D02*
X-11400046Y16082192D01*
X-11400046Y16082192D02*
X-11361950Y16158382D01*
X-11361950Y16158382D02*
X-11285760Y16196478D01*
X-11285760Y16196478D02*
X-11133379Y16196478D01*
X-11133379Y16196478D02*
X-11057188Y16158382D01*
X-11057188Y16158382D02*
X-11019093Y16082192D01*
X-11019093Y16082192D02*
X-11019093Y16006001D01*
X-11019093Y16006001D02*
X-11400046Y15929811D01*
X-10676236Y15663144D02*
X-10676236Y16196478D01*
X-10676236Y16044097D02*
X-10638141Y16120287D01*
X-10638141Y16120287D02*
X-10600046Y16158382D01*
X-10600046Y16158382D02*
X-10523855Y16196478D01*
X-10523855Y16196478D02*
X-10447665Y16196478D01*
X-10371475Y15586954D02*
X-9761951Y15586954D01*
X-9571474Y16196478D02*
X-9571474Y15396478D01*
X-9571474Y16158382D02*
X-9495284Y16196478D01*
X-9495284Y16196478D02*
X-9342903Y16196478D01*
X-9342903Y16196478D02*
X-9266712Y16158382D01*
X-9266712Y16158382D02*
X-9228617Y16120287D01*
X-9228617Y16120287D02*
X-9190522Y16044097D01*
X-9190522Y16044097D02*
X-9190522Y15815525D01*
X-9190522Y15815525D02*
X-9228617Y15739335D01*
X-9228617Y15739335D02*
X-9266712Y15701240D01*
X-9266712Y15701240D02*
X-9342903Y15663144D01*
X-9342903Y15663144D02*
X-9495284Y15663144D01*
X-9495284Y15663144D02*
X-9571474Y15701240D01*
X-8733379Y15663144D02*
X-8809569Y15701240D01*
X-8809569Y15701240D02*
X-8847664Y15739335D01*
X-8847664Y15739335D02*
X-8885760Y15815525D01*
X-8885760Y15815525D02*
X-8885760Y16044097D01*
X-8885760Y16044097D02*
X-8847664Y16120287D01*
X-8847664Y16120287D02*
X-8809569Y16158382D01*
X-8809569Y16158382D02*
X-8733379Y16196478D01*
X-8733379Y16196478D02*
X-8619093Y16196478D01*
X-8619093Y16196478D02*
X-8542902Y16158382D01*
X-8542902Y16158382D02*
X-8504807Y16120287D01*
X-8504807Y16120287D02*
X-8466712Y16044097D01*
X-8466712Y16044097D02*
X-8466712Y15815525D01*
X-8466712Y15815525D02*
X-8504807Y15739335D01*
X-8504807Y15739335D02*
X-8542902Y15701240D01*
X-8542902Y15701240D02*
X-8619093Y15663144D01*
X-8619093Y15663144D02*
X-8733379Y15663144D01*
X-8200045Y16196478D02*
X-8047664Y15663144D01*
X-8047664Y15663144D02*
X-7895283Y16044097D01*
X-7895283Y16044097D02*
X-7742902Y15663144D01*
X-7742902Y15663144D02*
X-7590521Y16196478D01*
X-6980997Y15701240D02*
X-7057188Y15663144D01*
X-7057188Y15663144D02*
X-7209569Y15663144D01*
X-7209569Y15663144D02*
X-7285759Y15701240D01*
X-7285759Y15701240D02*
X-7323855Y15777430D01*
X-7323855Y15777430D02*
X-7323855Y16082192D01*
X-7323855Y16082192D02*
X-7285759Y16158382D01*
X-7285759Y16158382D02*
X-7209569Y16196478D01*
X-7209569Y16196478D02*
X-7057188Y16196478D01*
X-7057188Y16196478D02*
X-6980997Y16158382D01*
X-6980997Y16158382D02*
X-6942902Y16082192D01*
X-6942902Y16082192D02*
X-6942902Y16006001D01*
X-6942902Y16006001D02*
X-7323855Y15929811D01*
X-6600045Y15663144D02*
X-6600045Y16196478D01*
X-6600045Y16044097D02*
X-6561950Y16120287D01*
X-6561950Y16120287D02*
X-6523855Y16158382D01*
X-6523855Y16158382D02*
X-6447664Y16196478D01*
X-6447664Y16196478D02*
X-6371474Y16196478D01*
X-6295284Y15586954D02*
X-5685760Y15586954D01*
X-5495283Y15663144D02*
X-5495283Y16463144D01*
X-5495283Y16158382D02*
X-5419093Y16196478D01*
X-5419093Y16196478D02*
X-5266712Y16196478D01*
X-5266712Y16196478D02*
X-5190521Y16158382D01*
X-5190521Y16158382D02*
X-5152426Y16120287D01*
X-5152426Y16120287D02*
X-5114331Y16044097D01*
X-5114331Y16044097D02*
X-5114331Y15815525D01*
X-5114331Y15815525D02*
X-5152426Y15739335D01*
X-5152426Y15739335D02*
X-5190521Y15701240D01*
X-5190521Y15701240D02*
X-5266712Y15663144D01*
X-5266712Y15663144D02*
X-5419093Y15663144D01*
X-5419093Y15663144D02*
X-5495283Y15701240D01*
X-4657188Y15663144D02*
X-4733378Y15701240D01*
X-4733378Y15701240D02*
X-4771473Y15739335D01*
X-4771473Y15739335D02*
X-4809569Y15815525D01*
X-4809569Y15815525D02*
X-4809569Y16044097D01*
X-4809569Y16044097D02*
X-4771473Y16120287D01*
X-4771473Y16120287D02*
X-4733378Y16158382D01*
X-4733378Y16158382D02*
X-4657188Y16196478D01*
X-4657188Y16196478D02*
X-4542902Y16196478D01*
X-4542902Y16196478D02*
X-4466711Y16158382D01*
X-4466711Y16158382D02*
X-4428616Y16120287D01*
X-4428616Y16120287D02*
X-4390521Y16044097D01*
X-4390521Y16044097D02*
X-4390521Y15815525D01*
X-4390521Y15815525D02*
X-4428616Y15739335D01*
X-4428616Y15739335D02*
X-4466711Y15701240D01*
X-4466711Y15701240D02*
X-4542902Y15663144D01*
X-4542902Y15663144D02*
X-4657188Y15663144D01*
X-3704806Y15663144D02*
X-3704806Y16082192D01*
X-3704806Y16082192D02*
X-3742901Y16158382D01*
X-3742901Y16158382D02*
X-3819092Y16196478D01*
X-3819092Y16196478D02*
X-3971473Y16196478D01*
X-3971473Y16196478D02*
X-4047663Y16158382D01*
X-3704806Y15701240D02*
X-3780997Y15663144D01*
X-3780997Y15663144D02*
X-3971473Y15663144D01*
X-3971473Y15663144D02*
X-4047663Y15701240D01*
X-4047663Y15701240D02*
X-4085759Y15777430D01*
X-4085759Y15777430D02*
X-4085759Y15853620D01*
X-4085759Y15853620D02*
X-4047663Y15929811D01*
X-4047663Y15929811D02*
X-3971473Y15967906D01*
X-3971473Y15967906D02*
X-3780997Y15967906D01*
X-3780997Y15967906D02*
X-3704806Y16006001D01*
X-3323853Y15663144D02*
X-3323853Y16196478D01*
X-3323853Y16044097D02*
X-3285758Y16120287D01*
X-3285758Y16120287D02*
X-3247663Y16158382D01*
X-3247663Y16158382D02*
X-3171472Y16196478D01*
X-3171472Y16196478D02*
X-3095282Y16196478D01*
X-2485758Y15663144D02*
X-2485758Y16463144D01*
X-2485758Y15701240D02*
X-2561949Y15663144D01*
X-2561949Y15663144D02*
X-2714330Y15663144D01*
X-2714330Y15663144D02*
X-2790520Y15701240D01*
X-2790520Y15701240D02*
X-2828615Y15739335D01*
X-2828615Y15739335D02*
X-2866711Y15815525D01*
X-2866711Y15815525D02*
X-2866711Y16044097D01*
X-2866711Y16044097D02*
X-2828615Y16120287D01*
X-2828615Y16120287D02*
X-2790520Y16158382D01*
X-2790520Y16158382D02*
X-2714330Y16196478D01*
X-2714330Y16196478D02*
X-2561949Y16196478D01*
X-2561949Y16196478D02*
X-2485758Y16158382D01*
X-2295282Y15586954D02*
X-1685758Y15586954D01*
X-1152424Y15701240D02*
X-1228615Y15663144D01*
X-1228615Y15663144D02*
X-1380996Y15663144D01*
X-1380996Y15663144D02*
X-1457186Y15701240D01*
X-1457186Y15701240D02*
X-1495281Y15739335D01*
X-1495281Y15739335D02*
X-1533377Y15815525D01*
X-1533377Y15815525D02*
X-1533377Y16044097D01*
X-1533377Y16044097D02*
X-1495281Y16120287D01*
X-1495281Y16120287D02*
X-1457186Y16158382D01*
X-1457186Y16158382D02*
X-1380996Y16196478D01*
X-1380996Y16196478D02*
X-1228615Y16196478D01*
X-1228615Y16196478D02*
X-1152424Y16158382D01*
X-695282Y15663144D02*
X-771472Y15701240D01*
X-771472Y15701240D02*
X-809567Y15739335D01*
X-809567Y15739335D02*
X-847663Y15815525D01*
X-847663Y15815525D02*
X-847663Y16044097D01*
X-847663Y16044097D02*
X-809567Y16120287D01*
X-809567Y16120287D02*
X-771472Y16158382D01*
X-771472Y16158382D02*
X-695282Y16196478D01*
X-695282Y16196478D02*
X-580996Y16196478D01*
X-580996Y16196478D02*
X-504805Y16158382D01*
X-504805Y16158382D02*
X-466710Y16120287D01*
X-466710Y16120287D02*
X-428615Y16044097D01*
X-428615Y16044097D02*
X-428615Y15815525D01*
X-428615Y15815525D02*
X-466710Y15739335D01*
X-466710Y15739335D02*
X-504805Y15701240D01*
X-504805Y15701240D02*
X-580996Y15663144D01*
X-580996Y15663144D02*
X-695282Y15663144D01*
X-85757Y15663144D02*
X-85757Y16196478D01*
X-85757Y16120287D02*
X-47662Y16158382D01*
X-47662Y16158382D02*
X28527Y16196478D01*
X28527Y16196478D02*
X142813Y16196478D01*
X142813Y16196478D02*
X219004Y16158382D01*
X219004Y16158382D02*
X257099Y16082192D01*
X257099Y16082192D02*
X257099Y15663144D01*
X257099Y16082192D02*
X295194Y16158382D01*
X295194Y16158382D02*
X371385Y16196478D01*
X371385Y16196478D02*
X485670Y16196478D01*
X485670Y16196478D02*
X561861Y16158382D01*
X561861Y16158382D02*
X599956Y16082192D01*
X599956Y16082192D02*
X599956Y15663144D01*
X980909Y16196478D02*
X980909Y15396478D01*
X980909Y16158382D02*
X1057099Y16196478D01*
X1057099Y16196478D02*
X1209480Y16196478D01*
X1209480Y16196478D02*
X1285671Y16158382D01*
X1285671Y16158382D02*
X1323766Y16120287D01*
X1323766Y16120287D02*
X1361861Y16044097D01*
X1361861Y16044097D02*
X1361861Y15815525D01*
X1361861Y15815525D02*
X1323766Y15739335D01*
X1323766Y15739335D02*
X1285671Y15701240D01*
X1285671Y15701240D02*
X1209480Y15663144D01*
X1209480Y15663144D02*
X1057099Y15663144D01*
X1057099Y15663144D02*
X980909Y15701240D01*
X2047576Y15663144D02*
X2047576Y16082192D01*
X2047576Y16082192D02*
X2009481Y16158382D01*
X2009481Y16158382D02*
X1933290Y16196478D01*
X1933290Y16196478D02*
X1780909Y16196478D01*
X1780909Y16196478D02*
X1704719Y16158382D01*
X2047576Y15701240D02*
X1971385Y15663144D01*
X1971385Y15663144D02*
X1780909Y15663144D01*
X1780909Y15663144D02*
X1704719Y15701240D01*
X1704719Y15701240D02*
X1666623Y15777430D01*
X1666623Y15777430D02*
X1666623Y15853620D01*
X1666623Y15853620D02*
X1704719Y15929811D01*
X1704719Y15929811D02*
X1780909Y15967906D01*
X1780909Y15967906D02*
X1971385Y15967906D01*
X1971385Y15967906D02*
X2047576Y16006001D01*
X2428529Y16196478D02*
X2428529Y15663144D01*
X2428529Y16120287D02*
X2466624Y16158382D01*
X2466624Y16158382D02*
X2542814Y16196478D01*
X2542814Y16196478D02*
X2657100Y16196478D01*
X2657100Y16196478D02*
X2733291Y16158382D01*
X2733291Y16158382D02*
X2771386Y16082192D01*
X2771386Y16082192D02*
X2771386Y15663144D01*
X3152339Y15663144D02*
X3152339Y16196478D01*
X3152339Y16463144D02*
X3114243Y16425049D01*
X3114243Y16425049D02*
X3152339Y16386954D01*
X3152339Y16386954D02*
X3190434Y16425049D01*
X3190434Y16425049D02*
X3152339Y16463144D01*
X3152339Y16463144D02*
X3152339Y16386954D01*
X3647576Y15663144D02*
X3571386Y15701240D01*
X3571386Y15701240D02*
X3533291Y15739335D01*
X3533291Y15739335D02*
X3495195Y15815525D01*
X3495195Y15815525D02*
X3495195Y16044097D01*
X3495195Y16044097D02*
X3533291Y16120287D01*
X3533291Y16120287D02*
X3571386Y16158382D01*
X3571386Y16158382D02*
X3647576Y16196478D01*
X3647576Y16196478D02*
X3761862Y16196478D01*
X3761862Y16196478D02*
X3838053Y16158382D01*
X3838053Y16158382D02*
X3876148Y16120287D01*
X3876148Y16120287D02*
X3914243Y16044097D01*
X3914243Y16044097D02*
X3914243Y15815525D01*
X3914243Y15815525D02*
X3876148Y15739335D01*
X3876148Y15739335D02*
X3838053Y15701240D01*
X3838053Y15701240D02*
X3761862Y15663144D01*
X3761862Y15663144D02*
X3647576Y15663144D01*
X4257101Y16196478D02*
X4257101Y15663144D01*
X4257101Y16120287D02*
X4295196Y16158382D01*
X4295196Y16158382D02*
X4371386Y16196478D01*
X4371386Y16196478D02*
X4485672Y16196478D01*
X4485672Y16196478D02*
X4561863Y16158382D01*
X4561863Y16158382D02*
X4599958Y16082192D01*
X4599958Y16082192D02*
X4599958Y15663144D01*
X4790435Y15586954D02*
X5399958Y15586954D01*
X5933292Y15701240D02*
X5857101Y15663144D01*
X5857101Y15663144D02*
X5704720Y15663144D01*
X5704720Y15663144D02*
X5628530Y15701240D01*
X5628530Y15701240D02*
X5590435Y15739335D01*
X5590435Y15739335D02*
X5552339Y15815525D01*
X5552339Y15815525D02*
X5552339Y16044097D01*
X5552339Y16044097D02*
X5590435Y16120287D01*
X5590435Y16120287D02*
X5628530Y16158382D01*
X5628530Y16158382D02*
X5704720Y16196478D01*
X5704720Y16196478D02*
X5857101Y16196478D01*
X5857101Y16196478D02*
X5933292Y16158382D01*
X6390434Y15663144D02*
X6314244Y15701240D01*
X6314244Y15701240D02*
X6276149Y15739335D01*
X6276149Y15739335D02*
X6238053Y15815525D01*
X6238053Y15815525D02*
X6238053Y16044097D01*
X6238053Y16044097D02*
X6276149Y16120287D01*
X6276149Y16120287D02*
X6314244Y16158382D01*
X6314244Y16158382D02*
X6390434Y16196478D01*
X6390434Y16196478D02*
X6504720Y16196478D01*
X6504720Y16196478D02*
X6580911Y16158382D01*
X6580911Y16158382D02*
X6619006Y16120287D01*
X6619006Y16120287D02*
X6657101Y16044097D01*
X6657101Y16044097D02*
X6657101Y15815525D01*
X6657101Y15815525D02*
X6619006Y15739335D01*
X6619006Y15739335D02*
X6580911Y15701240D01*
X6580911Y15701240D02*
X6504720Y15663144D01*
X6504720Y15663144D02*
X6390434Y15663144D01*
X6999959Y15663144D02*
X6999959Y16196478D01*
X6999959Y16120287D02*
X7038054Y16158382D01*
X7038054Y16158382D02*
X7114244Y16196478D01*
X7114244Y16196478D02*
X7228530Y16196478D01*
X7228530Y16196478D02*
X7304721Y16158382D01*
X7304721Y16158382D02*
X7342816Y16082192D01*
X7342816Y16082192D02*
X7342816Y15663144D01*
X7342816Y16082192D02*
X7380911Y16158382D01*
X7380911Y16158382D02*
X7457102Y16196478D01*
X7457102Y16196478D02*
X7571387Y16196478D01*
X7571387Y16196478D02*
X7647578Y16158382D01*
X7647578Y16158382D02*
X7685673Y16082192D01*
X7685673Y16082192D02*
X7685673Y15663144D01*
X8066626Y16196478D02*
X8066626Y15396478D01*
X8066626Y16158382D02*
X8142816Y16196478D01*
X8142816Y16196478D02*
X8295197Y16196478D01*
X8295197Y16196478D02*
X8371388Y16158382D01*
X8371388Y16158382D02*
X8409483Y16120287D01*
X8409483Y16120287D02*
X8447578Y16044097D01*
X8447578Y16044097D02*
X8447578Y15815525D01*
X8447578Y15815525D02*
X8409483Y15739335D01*
X8409483Y15739335D02*
X8371388Y15701240D01*
X8371388Y15701240D02*
X8295197Y15663144D01*
X8295197Y15663144D02*
X8142816Y15663144D01*
X8142816Y15663144D02*
X8066626Y15701240D01*
X9133293Y16196478D02*
X9133293Y15663144D01*
X8790436Y16196478D02*
X8790436Y15777430D01*
X8790436Y15777430D02*
X8828531Y15701240D01*
X8828531Y15701240D02*
X8904721Y15663144D01*
X8904721Y15663144D02*
X9019007Y15663144D01*
X9019007Y15663144D02*
X9095198Y15701240D01*
X9095198Y15701240D02*
X9133293Y15739335D01*
X9399960Y16196478D02*
X9704722Y16196478D01*
X9514246Y16463144D02*
X9514246Y15777430D01*
X9514246Y15777430D02*
X9552341Y15701240D01*
X9552341Y15701240D02*
X9628531Y15663144D01*
X9628531Y15663144D02*
X9704722Y15663144D01*
X10276151Y15701240D02*
X10199960Y15663144D01*
X10199960Y15663144D02*
X10047579Y15663144D01*
X10047579Y15663144D02*
X9971389Y15701240D01*
X9971389Y15701240D02*
X9933293Y15777430D01*
X9933293Y15777430D02*
X9933293Y16082192D01*
X9933293Y16082192D02*
X9971389Y16158382D01*
X9971389Y16158382D02*
X10047579Y16196478D01*
X10047579Y16196478D02*
X10199960Y16196478D01*
X10199960Y16196478D02*
X10276151Y16158382D01*
X10276151Y16158382D02*
X10314246Y16082192D01*
X10314246Y16082192D02*
X10314246Y16006001D01*
X10314246Y16006001D02*
X9933293Y15929811D01*
X11609484Y15701240D02*
X11533293Y15663144D01*
X11533293Y15663144D02*
X11380912Y15663144D01*
X11380912Y15663144D02*
X11304722Y15701240D01*
X11304722Y15701240D02*
X11266627Y15739335D01*
X11266627Y15739335D02*
X11228531Y15815525D01*
X11228531Y15815525D02*
X11228531Y16044097D01*
X11228531Y16044097D02*
X11266627Y16120287D01*
X11266627Y16120287D02*
X11304722Y16158382D01*
X11304722Y16158382D02*
X11380912Y16196478D01*
X11380912Y16196478D02*
X11533293Y16196478D01*
X11533293Y16196478D02*
X11609484Y16158382D01*
X12295198Y16196478D02*
X12295198Y15663144D01*
X11952341Y16196478D02*
X11952341Y15777430D01*
X11952341Y15777430D02*
X11990436Y15701240D01*
X11990436Y15701240D02*
X12066626Y15663144D01*
X12066626Y15663144D02*
X12180912Y15663144D01*
X12180912Y15663144D02*
X12257103Y15701240D01*
X12257103Y15701240D02*
X12295198Y15739335D01*
X12561865Y16196478D02*
X12866627Y16196478D01*
X12676151Y16463144D02*
X12676151Y15777430D01*
X12676151Y15777430D02*
X12714246Y15701240D01*
X12714246Y15701240D02*
X12790436Y15663144D01*
X12790436Y15663144D02*
X12866627Y15663144D01*
X13247579Y15663144D02*
X13171389Y15701240D01*
X13171389Y15701240D02*
X13133294Y15739335D01*
X13133294Y15739335D02*
X13095198Y15815525D01*
X13095198Y15815525D02*
X13095198Y16044097D01*
X13095198Y16044097D02*
X13133294Y16120287D01*
X13133294Y16120287D02*
X13171389Y16158382D01*
X13171389Y16158382D02*
X13247579Y16196478D01*
X13247579Y16196478D02*
X13361865Y16196478D01*
X13361865Y16196478D02*
X13438056Y16158382D01*
X13438056Y16158382D02*
X13476151Y16120287D01*
X13476151Y16120287D02*
X13514246Y16044097D01*
X13514246Y16044097D02*
X13514246Y15815525D01*
X13514246Y15815525D02*
X13476151Y15739335D01*
X13476151Y15739335D02*
X13438056Y15701240D01*
X13438056Y15701240D02*
X13361865Y15663144D01*
X13361865Y15663144D02*
X13247579Y15663144D01*
X14199961Y16196478D02*
X14199961Y15663144D01*
X13857104Y16196478D02*
X13857104Y15777430D01*
X13857104Y15777430D02*
X13895199Y15701240D01*
X13895199Y15701240D02*
X13971389Y15663144D01*
X13971389Y15663144D02*
X14085675Y15663144D01*
X14085675Y15663144D02*
X14161866Y15701240D01*
X14161866Y15701240D02*
X14199961Y15739335D01*
X14466628Y16196478D02*
X14771390Y16196478D01*
X14580914Y16463144D02*
X14580914Y15777430D01*
X14580914Y15777430D02*
X14619009Y15701240D01*
X14619009Y15701240D02*
X14695199Y15663144D01*
X14695199Y15663144D02*
X14771390Y15663144D01*
M02*
