%TF.GenerationSoftware,KiCad,Pcbnew,10.0.3*%
%TF.CreationDate,2026-09-18T11:00:01+02:00*%
%TF.ProjectId,wakeup_board,77616b65-7570-45f6-926f-6172642e6b69,rev?*%
%TF.SameCoordinates,Original*%
%TF.FileFunction,Paste,Bot*%
%TF.FilePolarity,Positive*%
%FSLAX46Y46*%
G04 Gerber Fmt 4.6, Leading zero omitted, Abs format (unit mm)*
G04 Created by KiCad (PCBNEW 10.0.3) date 2026-09-18 11:00:01*
%MOMM*%
%LPD*%
G01*
G04 APERTURE LIST*
%ADD10R,0.550000X0.600000*%
%ADD11R,0.600000X0.550000*%
%ADD12C,1.000000*%
%ADD13R,0.850000X0.950000*%
%ADD14R,1.450000X1.150000*%
%ADD15R,1.150000X1.450000*%
%ADD16C,1.500000*%
%ADD17R,0.950000X0.850000*%
%ADD18R,0.900000X0.900000*%
%ADD19R,0.560000X0.950000*%
G04 APERTURE END LIST*
D10*
%TO.C,C_WBA_NRST*%
X-6880000Y4170000D03*
X-7830000Y4170000D03*
%TD*%
D11*
%TO.C,C_WBA_VDD1*%
X-2477000Y-1626000D03*
X-2477000Y-676000D03*
%TD*%
D10*
%TO.C,C_IMU2_1*%
X-1080000Y-8010000D03*
X-130000Y-8010000D03*
%TD*%
%TO.C,R_JUMP_PU*%
X3601000Y6555000D03*
X2651000Y6555000D03*
%TD*%
D11*
%TO.C,C_IMU1_1*%
X-10920000Y-1410000D03*
X-10920000Y-460000D03*
%TD*%
D12*
%TO.C,TP_IMU1_INT*%
X2302000Y450000D03*
%TD*%
D11*
%TO.C,RPU_I2C2_SDA*%
X-9680000Y3625000D03*
X-9680000Y4575000D03*
%TD*%
D10*
%TO.C,R_BOOST_FB2*%
X550000Y-5606000D03*
X-400000Y-5606000D03*
%TD*%
D13*
%TO.C,C_WBA_BULK_1*%
X6700000Y-4770000D03*
X8300000Y-4770000D03*
%TD*%
D10*
%TO.C,R_JUMP_WAKE*%
X-1202000Y5404000D03*
X-2152000Y5404000D03*
%TD*%
D11*
%TO.C,C_WBA_VDD11*%
X7890000Y770000D03*
X7890000Y-180000D03*
%TD*%
D13*
%TO.C,C_IMU1_2*%
X-10980000Y2180000D03*
X-9380000Y2180000D03*
%TD*%
D14*
%TO.C,C_AON_IN*%
X4500000Y-4350000D03*
X4500000Y-2400000D03*
%TD*%
D11*
%TO.C,R_WILK_ISO*%
X4504000Y1576000D03*
X4504000Y2526000D03*
%TD*%
D12*
%TO.C,TP_GND*%
X6156000Y-3026000D03*
%TD*%
D11*
%TO.C,RHOLD_AON*%
X7290000Y-2300000D03*
X7290000Y-3250000D03*
%TD*%
D15*
%TO.C,C_AON_OUT*%
X-1576000Y-6031000D03*
X-3526000Y-6031000D03*
%TD*%
D16*
%TO.C,TP_IMU3_INT*%
X5655000Y4277000D03*
%TD*%
D10*
%TO.C,R_IMU2_SDX_PU*%
X-6350000Y-7660000D03*
X-7300000Y-7660000D03*
%TD*%
D11*
%TO.C,RPU_SDA_EXT*%
X-7105000Y-25000D03*
X-7105000Y925000D03*
%TD*%
D10*
%TO.C,RHOLD2_PD*%
X3126000Y5500000D03*
X2176000Y5500000D03*
%TD*%
%TO.C,R_WBARST_PD*%
X475000Y0D03*
X-475000Y0D03*
%TD*%
%TO.C,C_IMU2_3*%
X-210000Y-8710000D03*
X-1160000Y-8710000D03*
%TD*%
D14*
%TO.C,C_MAG2*%
X-7090000Y8050000D03*
X-7090000Y6100000D03*
%TD*%
D11*
%TO.C,R_WBA_BOOT0*%
X2010000Y-6810000D03*
X2010000Y-7760000D03*
%TD*%
D12*
%TO.C,TP_IMU2_INT*%
X2150000Y4353000D03*
%TD*%
D10*
%TO.C,RHOLD2_G*%
X4851000Y5504000D03*
X3901000Y5504000D03*
%TD*%
D11*
%TO.C,C_IMU3_1*%
X8710000Y8120000D03*
X8710000Y7170000D03*
%TD*%
%TO.C,C_IMU1_3*%
X-1852000Y1576000D03*
X-1852000Y2526000D03*
%TD*%
%TO.C,RPU_SCL_EXT*%
X-3003000Y4129000D03*
X-3003000Y5079000D03*
%TD*%
D10*
%TO.C,RMAIN_PU*%
X-3580000Y-700000D03*
X-4530000Y-700000D03*
%TD*%
D12*
%TO.C,TP_MAG_DRDY*%
X-76000Y3102000D03*
%TD*%
D17*
%TO.C,CBOOST_IN1_1*%
X7370000Y-6500000D03*
X7370000Y-8100000D03*
%TD*%
D10*
%TO.C,C_WBA_PI1*%
X7025000Y-1310000D03*
X6075000Y-1310000D03*
%TD*%
D11*
%TO.C,C_CAM_VDD*%
X-11250000Y4050000D03*
X-11250000Y5000000D03*
%TD*%
D13*
%TO.C,C_WBA_BULK_2*%
X-1010000Y-2628000D03*
X590000Y-2628000D03*
%TD*%
D10*
%TO.C,RHOLD_G*%
X2290000Y3290000D03*
X3240000Y3290000D03*
%TD*%
%TO.C,CBOOST_IN2*%
X-11325000Y-3830000D03*
X-12275000Y-3830000D03*
%TD*%
D18*
%TO.C,P_wakeup_board_spacer_fin_ble_board_wakeup_board*%
X13950000Y-5441000D03*
X13950000Y-3841000D03*
X13950000Y-2241000D03*
X13950000Y-641000D03*
X13950000Y959000D03*
X13950000Y2559000D03*
X13950000Y4159000D03*
X13950000Y5759000D03*
X12350000Y-5441000D03*
X12350000Y-3841000D03*
X12350000Y-2241000D03*
X12350000Y-641000D03*
X12350000Y959000D03*
X12350000Y2559000D03*
X12350000Y4159000D03*
X12350000Y5759000D03*
X12350000Y7359000D03*
X12350000Y8959000D03*
X10750000Y-5441000D03*
X10750000Y-3841000D03*
X10750000Y-2241000D03*
X10750000Y-641000D03*
X10750000Y959000D03*
X10750000Y2559000D03*
X10750000Y4159000D03*
X10750000Y5759000D03*
X10750000Y7359000D03*
X10750000Y8959000D03*
X10750000Y10559000D03*
X5950000Y-13441000D03*
X5950000Y13759000D03*
X-450000Y12159000D03*
X-2050000Y12159000D03*
X-3650000Y12159000D03*
X-5250000Y-13441000D03*
X-5250000Y12159000D03*
X-5250000Y13759000D03*
X-6850000Y-13441000D03*
X-6850000Y13759000D03*
X-8450000Y-11841000D03*
X-8450000Y-10241000D03*
X-8450000Y-8641000D03*
X-8450000Y-7041000D03*
X-8450000Y-5441000D03*
X-10050000Y-10241000D03*
X-10050000Y-8641000D03*
X-10050000Y-7041000D03*
X-10050000Y-5441000D03*
X-10050000Y5759000D03*
X-11650000Y-8641000D03*
X-11650000Y-7041000D03*
X-11650000Y-5441000D03*
X-11650000Y5759000D03*
X-13250000Y-7041000D03*
X-13250000Y-5441000D03*
X-13250000Y-3841000D03*
X-13250000Y-2241000D03*
X-13250000Y-641000D03*
X-13250000Y959000D03*
X-13250000Y2559000D03*
X-13250000Y4159000D03*
X-13250000Y5759000D03*
X-13250000Y7359000D03*
X-14850000Y-3841000D03*
X-14850000Y-2241000D03*
X-14850000Y-641000D03*
X-14850000Y959000D03*
X-14850000Y2559000D03*
X-14850000Y4159000D03*
%TD*%
D10*
%TO.C,C_WBA_VDDA*%
X475000Y701000D03*
X-475000Y701000D03*
%TD*%
D11*
%TO.C,R_IMU3_SDX_PU*%
X-2553000Y1576000D03*
X-2553000Y2526000D03*
%TD*%
D10*
%TO.C,RPU_I2C3_SDA*%
X7090000Y2620000D03*
X6140000Y2620000D03*
%TD*%
D12*
%TO.C,TP_WILK_B*%
X-76000Y5404000D03*
%TD*%
%TO.C,TP_3V3*%
X4954000Y-175000D03*
%TD*%
D10*
%TO.C,C_WBA_HSE_VDD*%
X7370000Y-3950000D03*
X8320000Y-3950000D03*
%TD*%
D17*
%TO.C,CBOOST_IN1_3*%
X-7830000Y-4050000D03*
X-7830000Y-2450000D03*
%TD*%
D13*
%TO.C,C_IMU2_2*%
X-860000Y-9670000D03*
X-2460000Y-9670000D03*
%TD*%
D11*
%TO.C,C_IR_WAKE*%
X9880000Y-470000D03*
X9880000Y-1420000D03*
%TD*%
D10*
%TO.C,CMAIN_HOLD*%
X2701000Y-2453000D03*
X1751000Y-2453000D03*
%TD*%
D11*
%TO.C,R_BOOST_FB1*%
X-7105000Y-1626000D03*
X-7105000Y-676000D03*
%TD*%
D10*
%TO.C,C_WBA_VDDSMPS*%
X4540000Y-8280000D03*
X3590000Y-8280000D03*
%TD*%
%TO.C,C_WBA_VDDANA*%
X-1751000Y-4755000D03*
X-2701000Y-4755000D03*
%TD*%
%TO.C,COUT3*%
X475000Y-1752000D03*
X-475000Y-1752000D03*
%TD*%
%TO.C,RAON_PU*%
X-3560000Y180000D03*
X-4510000Y180000D03*
%TD*%
%TO.C,RPU_I2C2_SCL*%
X770000Y-4730000D03*
X1720000Y-4730000D03*
%TD*%
D17*
%TO.C,C_MAG_C1*%
X4510000Y-10870000D03*
X4510000Y-9270000D03*
%TD*%
D10*
%TO.C,R_IMU1_SCX_PU*%
X-10930000Y-2500000D03*
X-9980000Y-2500000D03*
%TD*%
D13*
%TO.C,CBOOST_IN1_2*%
X-5342000Y-6201000D03*
X-6942000Y-6201000D03*
%TD*%
D11*
%TO.C,RHOLD_PD*%
X3940000Y3510000D03*
X3940000Y4460000D03*
%TD*%
D10*
%TO.C,R_WBA_NRST*%
X2000000Y6555000D03*
X1050000Y6555000D03*
%TD*%
D12*
%TO.C,TP_YAGI_RF_B*%
X-2226000Y-3604000D03*
%TD*%
D11*
%TO.C,C_WBA_VDDRF*%
X5980000Y-6140000D03*
X5980000Y-7090000D03*
%TD*%
D13*
%TO.C,CBOOST_IN1_4*%
X5090000Y-7380000D03*
X3490000Y-7380000D03*
%TD*%
D10*
%TO.C,RPU_I2C3_SCL*%
X310000Y6555000D03*
X-640000Y6555000D03*
%TD*%
%TO.C,C_WBA_VDD2*%
X3340000Y-5940000D03*
X2390000Y-5940000D03*
%TD*%
D11*
%TO.C,C_WBA_VDDHPA*%
X-1776000Y-1626000D03*
X-1776000Y-676000D03*
%TD*%
D12*
%TO.C,TP_BAT*%
X4478000Y-5954000D03*
%TD*%
D10*
%TO.C,R_MAG_SHELF*%
X2701000Y-3855000D03*
X1751000Y-3855000D03*
%TD*%
D17*
%TO.C,CBOOST_IN1_5*%
X-8900000Y-4010000D03*
X-8900000Y-2410000D03*
%TD*%
D10*
%TO.C,RPU_IR_WAKE*%
X9920000Y460000D03*
X8970000Y460000D03*
%TD*%
D11*
%TO.C,C_MAG_SHELF*%
X-4978000Y-4079000D03*
X-4978000Y-3129000D03*
%TD*%
D19*
%TO.C,Q_WBA_RST*%
X-5010000Y1776000D03*
X-6910000Y1776000D03*
X-5960000Y3876000D03*
%TD*%
D13*
%TO.C,C_IMU3_2*%
X5030000Y9190000D03*
X6630000Y9190000D03*
%TD*%
D10*
%TO.C,C_IMU3_3*%
X6020000Y10460000D03*
X6970000Y10460000D03*
%TD*%
D16*
%TO.C,TP_YAGI_RF_A*%
X-3827000Y-2903000D03*
%TD*%
D12*
%TO.C,TP_WILK_A*%
X2150000Y2051000D03*
%TD*%
D14*
%TO.C,C_TMR_LDO*%
X-5955000Y-1475000D03*
X-5955000Y475000D03*
%TD*%
D10*
%TO.C,C_WBA_VDDRFPA*%
X850000Y7320000D03*
X-100000Y7320000D03*
%TD*%
D11*
%TO.C,C_MAG1*%
X560000Y-8935000D03*
X560000Y-7985000D03*
%TD*%
%TO.C,R_IMU3_SCX_PU*%
X-2520000Y-25000D03*
X-2520000Y925000D03*
%TD*%
M02*
