%TF.GenerationSoftware,KiCad,Pcbnew,10.0.3*%
%TF.CreationDate,2026-09-18T11:00:00+02:00*%
%TF.ProjectId,wakeup_board,77616b65-7570-45f6-926f-6172642e6b69,rev?*%
%TF.SameCoordinates,Original*%
%TF.FileFunction,Copper,L6,Inr*%
%TF.FilePolarity,Positive*%
%FSLAX46Y46*%
G04 Gerber Fmt 4.6, Leading zero omitted, Abs format (unit mm)*
G04 Created by KiCad (PCBNEW 10.0.3) date 2026-09-18 11:00:00*
%MOMM*%
%LPD*%
G01*
G04 APERTURE LIST*
%TA.AperFunction,ViaPad*%
%ADD10C,0.500000*%
%TD*%
%TA.AperFunction,ViaPad*%
%ADD11C,0.450000*%
%TD*%
%TA.AperFunction,ViaPad*%
%ADD12C,0.400000*%
%TD*%
%TA.AperFunction,Conductor*%
%ADD13C,0.100000*%
%TD*%
%TA.AperFunction,Conductor*%
%ADD14C,0.250000*%
%TD*%
%TA.AperFunction,Conductor*%
%ADD15C,0.200000*%
%TD*%
%TA.AperFunction,Conductor*%
%ADD16C,0.180000*%
%TD*%
G04 APERTURE END LIST*
D10*
%TO.N,3V3*%
X8210000Y8080000D03*
D11*
X-2100000Y-7576000D03*
X3050000Y9629000D03*
X-3450000Y-7576000D03*
X-9066900Y-9530000D03*
X-6270000Y7300000D03*
X-11830000Y1300000D03*
X11550000Y-4641000D03*
X-1500000Y7560000D03*
D10*
X5754998Y8797296D03*
D11*
X-3005981Y1916643D03*
X4656000Y6668900D03*
X7280000Y-10770000D03*
X3350000Y9279000D03*
X1607066Y11069938D03*
X90000Y-3990000D03*
%TO.N,IMU2_SCX*%
X2399100Y-8695300D03*
D12*
X8427900Y2897100D03*
D11*
X-6450024Y-9281824D03*
%TO.N,BOOST_OUT*%
X-10361286Y-931704D03*
X-1492300Y8961500D03*
X-6329749Y8948084D03*
X-6360800Y5144141D03*
%TO.N,FLEX_GND*%
X-14890000Y940000D03*
X0Y10160000D03*
X-15230000Y-3065998D03*
X-6480001Y774541D03*
X4095998Y-1412480D03*
X5719391Y-8956500D03*
X-15401434Y171470D03*
X11562470Y9510434D03*
X-8216900Y-7082900D03*
X-2791999Y-9801000D03*
X-7293000Y5769000D03*
D10*
X7250000Y8950000D03*
D11*
X-7430000Y11050000D03*
X-12480000Y-7810000D03*
%TO.N,IMU1_SCX*%
X-9798300Y-2569541D03*
%TO.N,IMU1_INT*%
X1550000Y324998D03*
X-10059533Y-1841275D03*
X-6491800Y12768800D03*
%TO.N,I2C2_SCL*%
X1550352Y-5258283D03*
X9255000Y-1593200D03*
X8300000Y11220000D03*
X-8538000Y1974300D03*
X-9225500Y5919000D03*
%TO.N,I2C2_SDA*%
X-8978800Y3237900D03*
D12*
X8037544Y-2688281D03*
D11*
X-571000Y14362200D03*
%TO.N,BAT_RAW*%
X12468714Y-3035644D03*
X4420000Y-14810000D03*
X11250000Y-6600000D03*
X5404600Y-5293100D03*
X14735000Y859000D03*
X-12450000Y7590600D03*
X-499200Y1984500D03*
X-12450000Y4152600D03*
X3597500Y7377400D03*
%TO.N,AON_EN*%
X9090000Y-3960000D03*
X6680047Y-3690002D03*
%TO.N,3V3_AON*%
X2316446Y8866446D03*
X3907542Y-6580000D03*
X-1279040Y-7082900D03*
X131621Y1188379D03*
X-20687Y-9700819D03*
X3852494Y8762717D03*
X11864999Y185889D03*
X13143312Y-3543259D03*
X-5248400Y11092000D03*
X5155302Y-3441155D03*
%TO.N,WBA_HSE_IN*%
X-2960000Y9900000D03*
X220000Y4610000D03*
%TO.N,USBWK_GATE*%
X-9250000Y-7144100D03*
X-5474560Y6924122D03*
%TO.N,AON_EN_GATE*%
X-3046703Y7040759D03*
X-4830000Y810000D03*
X9700000Y-2160000D03*
X8850000Y5511100D03*
%TO.N,MAIN_SW_GATE*%
X5188610Y1035372D03*
X1205900Y-1578800D03*
X-5047000Y-495000D03*
X5832400Y-4378200D03*
%TO.N,BAT_PROT*%
X13375985Y4979723D03*
X15430000Y4350000D03*
X9066500Y-5548420D03*
X-12040000Y2850000D03*
X12233100Y8156000D03*
X10600000Y-7885000D03*
X4834579Y-6314579D03*
X-6035800Y13759000D03*
X-4438400Y13759000D03*
%TO.N,REG_IN_MAIN*%
X-9750000Y-3601000D03*
X-10590000Y-4020000D03*
X-10972937Y-4673041D03*
X6640000Y-6610000D03*
X-11902951Y-4616000D03*
X-6234635Y-5308364D03*
X-6626860Y-4952465D03*
X-10992000Y-3126000D03*
X-9183656Y-8032363D03*
X-8050000Y-13560000D03*
X2511999Y-11206000D03*
%TO.N,JUMP_WAKE_K*%
X-3855000Y6546905D03*
X2186900Y-979500D03*
%TO.N,MAG_SHELF_K*%
X-4660000Y-2220000D03*
X3433682Y-5148236D03*
%TO.N,IMU3_SDX*%
X-1227291Y1864785D03*
%TO.N,IMU3_SCX*%
X4586500Y7699800D03*
X-3321630Y857794D03*
%TO.N,IMU3_INT*%
X7410300Y5492400D03*
D12*
%TO.N,I2C3_SCL*%
X10580000Y3240000D03*
D11*
X-4774500Y-9257700D03*
X5950000Y-12656500D03*
X-3042501Y7740749D03*
%TO.N,I2C3_SDA*%
X5880000Y6940000D03*
X-3990000Y-11061500D03*
X6097600Y11085002D03*
%TO.N,QHOLD_GATE*%
X4592121Y3417121D03*
%TO.N,IMU2_SDX*%
X-6940000Y-8392041D03*
%TO.N,IMU2_INT*%
X-5500000Y-7743600D03*
X1066800Y3237500D03*
X4560000Y13340000D03*
%TO.N,WBA_VDD11*%
X8200000Y4115000D03*
%TO.N,WBA_RF*%
X7069432Y-1105771D03*
%TO.N,QHOLD2_GATE*%
X6745000Y7637840D03*
X8992400Y4252200D03*
%TO.N,MAG_C1_TERM*%
X5530000Y-11340000D03*
X-8267637Y2983492D03*
%TO.N,MAG_DRDY*%
X-6430600Y-10670400D03*
X896157Y1575000D03*
X-6839237Y3280000D03*
%TO.N,WBA_BOOT0*%
X-12132180Y-6267595D03*
X6164601Y5492399D03*
X2617724Y-6597024D03*
%TO.N,WBA_HCI_IRQ*%
X6897000Y3472222D03*
X-12415546Y-2384454D03*
%TO.N,IR_TX*%
X2750000Y11369700D03*
X7790000Y3148082D03*
%TO.N,WBA_NRST*%
X1470000Y8255600D03*
X-7840000Y7040000D03*
D12*
X5931255Y-658343D03*
%TO.N,WBA_AON_HOLD*%
X8221999Y-2065000D03*
D11*
%TO.N,IR_WAKE*%
X2011831Y-1727998D03*
X-450000Y-11111500D03*
X9302998Y435000D03*
D12*
%TO.N,WBA_UART_RX*%
X7482485Y1908409D03*
D11*
X-12985100Y-1425000D03*
%TO.N,WBA_WAKE*%
X8294600Y6005000D03*
X11372000Y-1465000D03*
D12*
%TO.N,WBA_HCI_MISO*%
X10270000Y1710000D03*
D11*
X-11286500Y3381000D03*
%TO.N,WBA_UART_TX*%
X-11997579Y-652421D03*
D12*
X9272000Y1335000D03*
D11*
%TO.N,WBA_HCI_NSS*%
X15665446Y2184554D03*
X-13385000Y-6265998D03*
%TO.N,WBA_HCI_MOSI*%
X-10836800Y6114000D03*
D12*
X9489357Y2709357D03*
D11*
%TO.N,WBA_HCI_SCK*%
X-14270000Y-4920000D03*
X8536584Y1817597D03*
%TO.N,ACTIVATE_CONFIRM*%
X13890000Y-4616002D03*
%TO.N,ACTIVATE_SET*%
X14770000Y-800000D03*
%TO.N,BAT_CELL1_POS*%
X14570052Y178709D03*
%TO.N,BAT_CELL2_POS*%
X14548667Y1730440D03*
%TO.N,BAT_CELL3_POS*%
X14220730Y3350976D03*
%TO.N,BOOT0*%
X13156429Y-4497688D03*
X12350000Y-6225400D03*
%TO.N,COMP_1V8*%
X-10350300Y4711100D03*
X10049700Y-3065998D03*
%TO.N,COMP_5V*%
X-7606300Y13087100D03*
X13352264Y212404D03*
%TO.N,COMP_5V_RAW*%
X11525500Y2415977D03*
X-9256900Y-11710800D03*
%TO.N,COMP_OUT*%
X12915900Y1660000D03*
X11563500Y7662600D03*
%TO.N,COMP_SWDCLK*%
X13155000Y3025385D03*
X13133700Y8959000D03*
%TO.N,COMP_SWDIO*%
X11855000Y3330871D03*
X10141274Y-4594474D03*
%TO.N,EXT_CAN_RX*%
X10357800Y4941700D03*
X11209679Y-3049679D03*
%TO.N,EXT_CAN_TX*%
X13195000Y7360000D03*
%TO.N,GPIO_EXT_0*%
X9966500Y-5441000D03*
X11202900Y6582000D03*
%TO.N,GPIO_EXT_1*%
X9000000Y6569998D03*
X9972400Y-3895000D03*
%TO.N,GPIO_EXT_2*%
X10205900Y9774800D03*
X9390000Y-2820000D03*
%TO.N,GPIO_EXT_3*%
X13174998Y900000D03*
D12*
%TO.N,H3LIS_INT1*%
X9640000Y1890600D03*
D11*
X9928600Y12159000D03*
%TO.N,NRST*%
X9732300Y6896800D03*
X-4463200Y-13441000D03*
%TO.N,PWR_HOLD*%
X380000Y-6625000D03*
X-5250000Y-11047200D03*
X427524Y-10578800D03*
%TO.N,SWO*%
X-6068200Y-12392000D03*
X9410000Y9090000D03*
%TO.N,SYS_I2C_SCL*%
X-4025926Y7998826D03*
X-7667500Y-11756100D03*
X11529600Y10559000D03*
%TO.N,SYS_I2C_SDA*%
X-7136900Y-10406500D03*
X-10350300Y1216000D03*
X5168900Y-13261600D03*
%TO.N,SYS_SPI_CS_FIN*%
X5157354Y13826118D03*
X-7665400Y-8641000D03*
%TO.N,SYS_SPI_MISO*%
X-10050000Y-7825400D03*
X-2068376Y11318524D03*
%TO.N,SYS_SPI_MOSI*%
X-6178200Y-6023800D03*
X-2570000Y12343800D03*
%TO.N,SYS_SPI_SCLK*%
X-11048300Y-7876800D03*
X-6614124Y9925000D03*
%TO.N,WBA_RST_CMD*%
X-311297Y-1077984D03*
X-12889200Y-4623900D03*
D12*
X-7464773Y2834773D03*
D11*
%TO.N,TMR_VDD*%
X-4526002Y-5716500D03*
X-6879900Y-2324500D03*
X311921Y1960579D03*
X2740000Y-4820000D03*
%TO.N,MAG_SHELF_N*%
X4016002Y-3318256D03*
%TO.N,BOOST_FB*%
X-8877300Y-592200D03*
X1428308Y-6000954D03*
%TO.N,JUMP_WAKE*%
X2563653Y7616346D03*
X9865000Y6190126D03*
X-2970000Y5750000D03*
%TD*%
%TO.N,IMU2_SCX*%
D13*
X-5863500Y-8695300D02*
X-6450024Y-9281824D01*
X2399100Y-8695300D02*
X-5863500Y-8695300D01*
%TO.N,BOOST_OUT*%
D14*
X-2635198Y8793400D02*
X-1660400Y8793400D01*
X-6175065Y8793400D02*
X-4805509Y8793400D01*
X-4753908Y8845000D02*
X-2686797Y8845000D01*
X-6329749Y8948084D02*
X-6175065Y8793400D01*
X-4805509Y8793400D02*
X-4753908Y8845000D01*
X-2686797Y8845000D02*
X-2635198Y8793400D01*
X-1660400Y8793400D02*
X-1492300Y8961500D01*
%TO.N,I2C2_SCL*%
D13*
X5898100Y-5741900D02*
X2059400Y-5741900D01*
X1055000Y-6425406D02*
X1078394Y-6448800D01*
X9255000Y-1593200D02*
X9143800Y-1593200D01*
X-7248941Y-5554100D02*
X-6354241Y-6448800D01*
X9054000Y-1793859D02*
X9005700Y-1842159D01*
X2059400Y-5708869D02*
X1608814Y-5258283D01*
X9054000Y-1683000D02*
X9054000Y-1793859D01*
X659594Y-5950000D02*
X1055000Y-6345406D01*
X1055000Y-6345406D02*
X1055000Y-6425406D01*
X2059400Y-6041614D02*
X2059400Y-5741900D01*
X-13409700Y-4799941D02*
X-12655541Y-5554100D01*
X-295000Y-6345406D02*
X100406Y-5950000D01*
X-295000Y-6425406D02*
X-295000Y-6345406D01*
X1078394Y-6448800D02*
X1652214Y-6448800D01*
X1608814Y-5258283D02*
X1550352Y-5258283D01*
X9005700Y-1842159D02*
X9005700Y-2634300D01*
X-13409700Y-919700D02*
X-13409700Y-4799941D01*
X-318394Y-6448800D02*
X-295000Y-6425406D01*
X-8742300Y1770000D02*
X-10720000Y1770000D01*
X100406Y-5950000D02*
X659594Y-5950000D01*
X-10720000Y1770000D02*
X-13409700Y-919700D01*
X2059400Y-5741900D02*
X2059400Y-5708869D01*
X1652214Y-6448800D02*
X2059400Y-6041614D01*
X-8538000Y1974300D02*
X-8742300Y1770000D01*
X9005700Y-2634300D02*
X5898100Y-5741900D01*
X-6354241Y-6448800D02*
X-318394Y-6448800D01*
X-12655541Y-5554100D02*
X-7248941Y-5554100D01*
X9143800Y-1593200D02*
X9054000Y-1683000D01*
%TO.N,BAT_RAW*%
D15*
X-2526920Y9180100D02*
X-1980807Y9180100D01*
X2476300Y9413700D02*
X3680000Y8210000D01*
X-1237393Y9413700D02*
X2476300Y9413700D01*
X-7756300Y9052500D02*
X-7756300Y9473700D01*
X-3194999Y9194999D02*
X-2541819Y9194999D01*
X-9218200Y7590600D02*
X-7756300Y9052500D01*
X-12450000Y7590600D02*
X-9218200Y7590600D01*
X3680000Y7459900D02*
X3597500Y7377400D01*
X3680000Y8210000D02*
X3680000Y7459900D01*
X-1980807Y9180100D02*
X-1699407Y9461500D01*
X-4400000Y10400000D02*
X-3194999Y9194999D01*
X-7756300Y9473700D02*
X-6830000Y10400000D01*
X-2541819Y9194999D02*
X-2526920Y9180100D01*
X-1699407Y9461500D02*
X-1285193Y9461500D01*
X-1285193Y9461500D02*
X-1237393Y9413700D01*
X-6830000Y10400000D02*
X-4400000Y10400000D01*
%TO.N,AON_EN_GATE*%
D13*
X7472959Y6225600D02*
X2542900Y6225600D01*
X-1356500Y8035000D02*
X-1696752Y8035000D01*
X-1025000Y7703500D02*
X-1356500Y8035000D01*
X1065000Y7703500D02*
X-1025000Y7703500D01*
X-1696752Y8035000D02*
X-2028252Y7703500D01*
X-2403800Y7703500D02*
X-3046703Y7060597D01*
X-3046703Y7060597D02*
X-3046703Y7040759D01*
X2542900Y6225600D02*
X1065000Y7703500D01*
X8187459Y5511100D02*
X7472959Y6225600D01*
X-2028252Y7703500D02*
X-2403800Y7703500D01*
X8850000Y5511100D02*
X8187459Y5511100D01*
%TO.N,MAIN_SW_GATE*%
X-4141903Y-388097D02*
X-4940097Y-388097D01*
X1205900Y-1578800D02*
X4005300Y-4378200D01*
X-4940097Y-388097D02*
X-5047000Y-495000D01*
X-3950000Y-580000D02*
X-4141903Y-388097D01*
X207100Y-580000D02*
X-3950000Y-580000D01*
X1205900Y-1578800D02*
X207100Y-580000D01*
X4005300Y-4378200D02*
X5832400Y-4378200D01*
%TO.N,BAT_PROT*%
D14*
X1481000Y13759000D02*
X-4438400Y13759000D01*
X10658407Y9274800D02*
X9998793Y9274800D01*
X9998793Y9274800D02*
X9209993Y10063600D01*
X11777207Y8156000D02*
X10658407Y9274800D01*
X9209993Y10063600D02*
X5176400Y10063600D01*
X12233100Y8156000D02*
X11777207Y8156000D01*
X5176400Y10063600D02*
X1481000Y13759000D01*
%TO.N,I2C3_SCL*%
D13*
X-2953171Y6227200D02*
X-2901433Y6278938D01*
X-3003543Y6227200D02*
X-2953171Y6227200D01*
X-2507929Y6278938D02*
X-2456191Y6227200D01*
X-3624441Y7158810D02*
X-3624441Y6988098D01*
X-2901433Y6278938D02*
X-2507929Y6278938D01*
X-3624441Y6988098D02*
X-3380000Y6743657D01*
X10580000Y3789158D02*
X10580000Y3240000D01*
X-3380000Y6603657D02*
X-3003543Y6227200D01*
X7586341Y5067400D02*
X7776541Y4877200D01*
X9491958Y4877200D02*
X10580000Y3789158D01*
X-3380000Y6743657D02*
X-3380000Y6603657D01*
X-2456191Y6227200D02*
X-167200Y6227200D01*
X1695600Y-9257700D02*
X-4774500Y-9257700D01*
X5094400Y-12656500D02*
X1695600Y-9257700D01*
X7776541Y4877200D02*
X9491958Y4877200D01*
X5950000Y-12656500D02*
X5094400Y-12656500D01*
X-167200Y6227200D02*
X992600Y5067400D01*
X992600Y5067400D02*
X7586341Y5067400D01*
X-3042501Y7740749D02*
X-3624441Y7158810D01*
%TO.N,MAG_C1_TERM*%
X-12875000Y7414559D02*
X-12875000Y7766641D01*
X-8031300Y9166408D02*
X-8031300Y13263141D01*
X13699800Y-111812D02*
X13699800Y-3658523D01*
X12409141Y8581000D02*
X12690900Y8299241D01*
X-10856541Y2350000D02*
X-11711500Y3204959D01*
X10630900Y9707159D02*
X11757059Y8581000D01*
X-6507241Y14787200D02*
X5794541Y14787200D01*
X-8910000Y2350000D02*
X-10856541Y2350000D01*
X13034817Y-4018259D02*
X5823076Y-11230000D01*
X13827264Y409156D02*
X13827264Y15652D01*
X-8267637Y2983492D02*
X-8505229Y2745900D01*
X-9182108Y8015600D02*
X-8031300Y9166408D01*
X5823076Y-11230000D02*
X5540000Y-11230000D01*
X5794541Y14787200D02*
X10630900Y9950841D01*
X-8505229Y2745900D02*
X-8514100Y2745900D01*
X-8514100Y2745900D02*
X-8910000Y2350000D01*
X-11711500Y6251059D02*
X-12875000Y7414559D01*
X12690900Y8299241D02*
X12690900Y4230100D01*
X5540000Y-11330000D02*
X5530000Y-11340000D01*
X13699800Y536620D02*
X13827264Y409156D01*
X13827264Y15652D02*
X13699800Y-111812D01*
X-12875000Y7766641D02*
X-12626041Y8015600D01*
X-11711500Y3204959D02*
X-11711500Y6251059D01*
X10630900Y9950841D02*
X10630900Y9707159D01*
X13699800Y3221200D02*
X13699800Y536620D01*
X12690900Y4230100D02*
X13699800Y3221200D01*
X11757059Y8581000D02*
X12409141Y8581000D01*
X13340064Y-4018259D02*
X13034817Y-4018259D01*
X-12626041Y8015600D02*
X-9182108Y8015600D01*
X-8031300Y13263141D02*
X-6507241Y14787200D01*
X5540000Y-11230000D02*
X5540000Y-11330000D01*
X13699800Y-3658523D02*
X13340064Y-4018259D01*
%TO.N,MAG_DRDY*%
X961588Y1640431D02*
X896157Y1575000D01*
X-6839237Y3280000D02*
X-6633337Y3074100D01*
X1417Y3074100D02*
X961588Y2113929D01*
X-6633337Y3074100D02*
X1417Y3074100D01*
X961588Y2113929D02*
X961588Y1640431D01*
%TO.N,WBA_BOOT0*%
X-95000Y-6508248D02*
X-95000Y-6428248D01*
X-8858259Y-6657900D02*
X-244652Y-6657900D01*
X183248Y-6150000D02*
X576752Y-6150000D01*
X1004652Y-6657900D02*
X2556848Y-6657900D01*
X855000Y-6428248D02*
X855000Y-6508248D01*
X576752Y-6150000D02*
X855000Y-6428248D01*
X-95000Y-6428248D02*
X183248Y-6150000D01*
X-12132180Y-6267595D02*
X-12112005Y-6267595D01*
X2556848Y-6657900D02*
X2617724Y-6597024D01*
X-244652Y-6657900D02*
X-95000Y-6508248D01*
X-8861659Y-6661300D02*
X-8858259Y-6657900D01*
X855000Y-6508248D02*
X1004652Y-6657900D01*
X-12112005Y-6267595D02*
X-11718300Y-6661300D01*
X-11718300Y-6661300D02*
X-8861659Y-6661300D01*
%TO.N,WBA_NRST*%
X-5277808Y6449122D02*
X-5671312Y6449122D01*
X-4640000Y8570000D02*
X-4999560Y8210440D01*
X-5949560Y6727370D02*
X-6170878Y6727370D01*
X-5671312Y6449122D02*
X-5949560Y6727370D01*
X-4999560Y6727370D02*
X-5277808Y6449122D01*
X-2800706Y8570000D02*
X-4640000Y8570000D01*
X-7450000Y6650000D02*
X-7840000Y7040000D01*
X-2486306Y8255600D02*
X-2800706Y8570000D01*
X-6170878Y6727370D02*
X-6248248Y6650000D01*
X1470000Y8255600D02*
X-2486306Y8255600D01*
X-4999560Y8210440D02*
X-4999560Y6727370D01*
X-6248248Y6650000D02*
X-7450000Y6650000D01*
%TO.N,IR_WAKE*%
X9302998Y435000D02*
X9190000Y322002D01*
X3899246Y-937480D02*
X3095326Y-1741400D01*
X3095326Y-1741400D02*
X2118415Y-1741400D01*
X7945600Y-1741400D02*
X5096670Y-1741400D01*
X9190000Y322002D02*
X9190000Y-497000D01*
X4292750Y-937480D02*
X3899246Y-937480D01*
X2118415Y-1741400D02*
X2105013Y-1727998D01*
X5096670Y-1741400D02*
X4292750Y-937480D01*
X9190000Y-497000D02*
X7945600Y-1741400D01*
X2105013Y-1727998D02*
X2011831Y-1727998D01*
%TO.N,WBA_UART_RX*%
X-4782075Y250000D02*
X-7321300Y250000D01*
X-4762075Y230000D02*
X-4782075Y250000D01*
X4948177Y1630000D02*
X4111683Y793506D01*
X-7321300Y250000D02*
X-7531300Y460000D01*
X7482485Y1851087D02*
X7261398Y1630000D01*
X-11486200Y460000D02*
X-12985100Y-1038900D01*
X-12985100Y-1038900D02*
X-12985100Y-1425000D01*
X2848248Y-170000D02*
X-3360000Y-170000D01*
X-3360000Y-170000D02*
X-3760000Y230000D01*
X3811754Y793506D02*
X2848248Y-170000D01*
X-7531300Y460000D02*
X-11486200Y460000D01*
X-3760000Y230000D02*
X-4762075Y230000D01*
X4111683Y793506D02*
X3811754Y793506D01*
X7261398Y1630000D02*
X4948177Y1630000D01*
X7482485Y1908409D02*
X7482485Y1851087D01*
%TO.N,WBA_WAKE*%
X11091700Y-1184700D02*
X11091700Y3606759D01*
X9235002Y6144998D02*
X8434598Y6144998D01*
X11372000Y-1465000D02*
X11091700Y-1184700D01*
X9932800Y4765659D02*
X9932800Y5447200D01*
X8434598Y6144998D02*
X8294600Y6005000D01*
X9932800Y5447200D02*
X9235002Y6144998D01*
X11091700Y3606759D02*
X9932800Y4765659D01*
%TO.N,WBA_HCI_MISO*%
X10270000Y1900000D02*
X9860643Y2309357D01*
X9279928Y2353100D02*
X5055100Y2353100D01*
X10270000Y1710000D02*
X10270000Y1900000D01*
X5055100Y2353100D02*
X3661300Y3746900D01*
X9860643Y2309357D02*
X9323671Y2309357D01*
X9323671Y2309357D02*
X9279928Y2353100D01*
X3661300Y3746900D02*
X-10920600Y3746900D01*
X-10920600Y3746900D02*
X-11286500Y3381000D01*
%TO.N,WBA_UART_TX*%
X8180966Y0D02*
X8401904Y220938D01*
X-7030100Y-370000D02*
X-5820000Y-370000D01*
X-11997579Y-652421D02*
X-11997579Y-590379D01*
X3301091Y0D02*
X8180966Y0D01*
X8401904Y220938D02*
X8401904Y464904D01*
X-3442842Y-370000D02*
X2931091Y-370000D01*
X8401904Y464904D02*
X9272000Y1335000D01*
X-7630100Y230000D02*
X-7030100Y-370000D01*
X-5470000Y-20000D02*
X-3792842Y-20000D01*
X-11177200Y230000D02*
X-7630100Y230000D01*
X-5820000Y-370000D02*
X-5470000Y-20000D01*
X-11997579Y-590379D02*
X-11177200Y230000D01*
X2931091Y-370000D02*
X3301091Y0D01*
X-3792842Y-20000D02*
X-3442842Y-370000D01*
%TO.N,WBA_HCI_MOSI*%
X8136918Y3573082D02*
X7940000Y3770000D01*
X9489357Y2709357D02*
X9283543Y2709357D01*
X7640000Y3770000D02*
X7463100Y3946900D01*
X9283543Y2709357D02*
X8419818Y3573082D01*
X7463100Y3946900D02*
X-10566900Y3946900D01*
X-10836800Y4216800D02*
X-10836800Y6114000D01*
X7940000Y3770000D02*
X7640000Y3770000D01*
X-10566900Y3946900D02*
X-10836800Y4216800D01*
X8419818Y3573082D02*
X8136918Y3573082D01*
%TO.N,BOOT0*%
X13156429Y-4497688D02*
X13156429Y-5418971D01*
X13156429Y-5418971D02*
X12350000Y-6225400D01*
%TO.N,COMP_1V8*%
X7630000Y4560000D02*
X7255000Y4185000D01*
X8636900Y4677200D02*
X8519700Y4560000D01*
X10020841Y-3037139D02*
X10020841Y-2809500D01*
X10891700Y2238300D02*
X10500000Y2630000D01*
X10490000Y2630000D02*
X10170000Y2950000D01*
X10891700Y-1938641D02*
X10891700Y2238300D01*
X10020841Y-2809500D02*
X10891700Y-1938641D01*
X9372800Y4677200D02*
X8636900Y4677200D01*
X7255000Y4185000D02*
X43959Y4185000D01*
X8519700Y4560000D02*
X7630000Y4560000D01*
X43959Y4185000D02*
X-181041Y4410000D01*
X-181041Y4410000D02*
X-10277800Y4410000D01*
X10049700Y-3065998D02*
X10020841Y-3037139D01*
X10170000Y2950000D02*
X10170000Y3880000D01*
X10500000Y2630000D02*
X10490000Y2630000D01*
X10170000Y3880000D02*
X9372800Y4677200D01*
X-10350300Y4482500D02*
X-10350300Y4711100D01*
X-10277800Y4410000D02*
X-10350300Y4482500D01*
%TO.N,COMP_5V*%
D15*
X5179998Y8559123D02*
X5179998Y9035469D01*
X-7450500Y13242900D02*
X-6724807Y13242900D01*
X5516825Y9372296D02*
X5993171Y9372296D01*
X12415900Y3600207D02*
X12450000Y3566107D01*
X-6258793Y13242900D02*
X145300Y13242900D01*
X-6698907Y13268800D02*
X-6284693Y13268800D01*
X6095875Y8325000D02*
X7712537Y8325000D01*
X10998100Y7211900D02*
X11293800Y7211900D01*
X-6284693Y13268800D02*
X-6258793Y13242900D01*
X12450000Y3566107D02*
X12450000Y3151893D01*
X7992537Y8605000D02*
X9605000Y8605000D01*
X12415900Y6089800D02*
X12415900Y3600207D01*
X5063200Y8325000D02*
X5414121Y8325000D01*
X12415900Y3117793D02*
X12415900Y916400D01*
X145300Y13242900D02*
X5063200Y8325000D01*
X6329998Y8559123D02*
X6095875Y8325000D01*
X12450000Y3151893D02*
X12415900Y3117793D01*
X5993171Y9372296D02*
X6329998Y9035469D01*
X5179998Y9035469D02*
X5516825Y9372296D01*
X13119896Y212404D02*
X13352264Y212404D01*
X6329998Y9035469D02*
X6329998Y8559123D01*
X11293800Y7211900D02*
X12415900Y6089800D01*
X-7606300Y13087100D02*
X-7450500Y13242900D01*
X7712537Y8325000D02*
X7992537Y8605000D01*
X12415900Y916400D02*
X13119896Y212404D01*
X9605000Y8605000D02*
X10998100Y7211900D01*
X-6724807Y13242900D02*
X-6698907Y13268800D01*
X5414121Y8325000D02*
X5179998Y8559123D01*
%TO.N,COMP_5V_RAW*%
D16*
X11872300Y-1142300D02*
X11872300Y-3280993D01*
X11872300Y-3280993D02*
X10703600Y-4449693D01*
X-7019600Y-9144293D02*
X-7019600Y-9212700D01*
X10703600Y-5411007D02*
X7919307Y-8195300D01*
X11525500Y2415977D02*
X11525500Y2266510D01*
X7919307Y-8195300D02*
X2191993Y-8195300D01*
X11400000Y-670000D02*
X11872300Y-1142300D01*
X-6118907Y-8243600D02*
X-7019600Y-9144293D01*
X-7019600Y-9212700D02*
X-9256900Y-11450000D01*
X11525500Y2266510D02*
X11400000Y2141010D01*
X11400000Y2141010D02*
X11400000Y-670000D01*
X-9256900Y-11450000D02*
X-9256900Y-11710800D01*
X2143693Y-8243600D02*
X-6118907Y-8243600D01*
X2191993Y-8195300D02*
X2143693Y-8243600D01*
X10703600Y-4449693D02*
X10703600Y-5411007D01*
%TO.N,PWR_HOLD*%
D13*
X-4781600Y-10578800D02*
X427524Y-10578800D01*
X-5250000Y-11047200D02*
X-4781600Y-10578800D01*
%TO.N,SYS_I2C_SDA*%
X230772Y-10103800D02*
X95472Y-10239100D01*
X5168900Y-13261600D02*
X2146400Y-10239100D01*
X624276Y-10103800D02*
X230772Y-10103800D01*
X759576Y-10239100D02*
X624276Y-10103800D01*
X-6969500Y-10239100D02*
X-7136900Y-10406500D01*
X95472Y-10239100D02*
X-6969500Y-10239100D01*
X2146400Y-10239100D02*
X759576Y-10239100D01*
%TO.N,WBA_RST_CMD*%
X-7813000Y30000D02*
X-9240000Y30000D01*
X-358781Y-1030500D02*
X-4321379Y-1030500D01*
X-6752500Y-1030500D02*
X-7813000Y30000D01*
X-5409436Y-1306090D02*
X-5685027Y-1030500D01*
X-4596969Y-1306090D02*
X-5409436Y-1306090D01*
X-9240000Y30000D02*
X-9936286Y-666286D01*
X-9936286Y-1107745D02*
X-12984700Y-4156159D01*
X-9936286Y-666286D02*
X-9936286Y-1107745D01*
X-5685027Y-1030500D02*
X-6752500Y-1030500D01*
X-311297Y-1077984D02*
X-358781Y-1030500D01*
X-12984700Y-4528400D02*
X-12889200Y-4623900D01*
X-4321379Y-1030500D02*
X-4596969Y-1306090D01*
X-12984700Y-4156159D02*
X-12984700Y-4528400D01*
%TO.N,TMR_VDD*%
X-4379800Y-5716500D02*
X-4526002Y-5716500D01*
X-3933800Y-5270500D02*
X-3483300Y-4820000D01*
X-3933800Y-5270500D02*
X-6879900Y-2324500D01*
X-3483300Y-4820000D02*
X2740000Y-4820000D01*
X-3933800Y-5270500D02*
X-4379800Y-5716500D01*
%TO.N,BOOST_FB*%
X-423937Y-6191500D02*
X17564Y-5750000D01*
X-5001002Y-5913252D02*
X-4722754Y-6191500D01*
X742436Y-5750000D02*
X1183936Y-6191500D01*
X-8877300Y-592200D02*
X-8877300Y-1962300D01*
X1237762Y-6191500D02*
X1428308Y-6000954D01*
X-8877300Y-1962300D02*
X-5001002Y-5838598D01*
X-5001002Y-5838598D02*
X-5001002Y-5913252D01*
X-4722754Y-6191500D02*
X-423937Y-6191500D01*
X17564Y-5750000D02*
X742436Y-5750000D01*
X1183936Y-6191500D02*
X1237762Y-6191500D01*
%TO.N,JUMP_WAKE*%
X5683248Y7415000D02*
X6033900Y7415000D01*
X8363900Y7093900D02*
X8910000Y7640000D01*
X3040499Y7139501D02*
X3234358Y7139501D01*
X10730000Y7126446D02*
X10730000Y6180000D01*
X3234358Y7139501D02*
X3421459Y6952400D01*
X10730000Y6180000D02*
X10670000Y6120000D01*
X10670000Y6120000D02*
X9935126Y6120000D01*
X6355000Y7093900D02*
X8363900Y7093900D01*
X4393759Y7093900D02*
X5362148Y7093900D01*
X9935126Y6120000D02*
X9865000Y6190126D01*
X5362148Y7093900D02*
X5683248Y7415000D01*
X4252259Y6952400D02*
X4393759Y7093900D01*
X6033900Y7415000D02*
X6355000Y7093900D01*
X8910000Y7640000D02*
X10216446Y7640000D01*
X3421459Y6952400D02*
X4252259Y6952400D01*
X10216446Y7640000D02*
X10730000Y7126446D01*
X2563653Y7616346D02*
X3040499Y7139501D01*
%TD*%
M02*
