M48
; DRILL file KiCad 10.0.3 date 2026-09-18T11:00:01
; FORMAT={-:-/ absolute / metric / decimal}
; #@! TF.CreationDate,2026-09-18T11:00:01+02:00
; #@! TF.GenerationSoftware,Kicad,Pcbnew,10.0.3
; #@! TF.FileFunction,Plated,1,14,PTH
FMAT,2
METRIC
; #@! TA.AperFunction,Plated,PTH,ViaDrill
T1C0.200
; #@! TA.AperFunction,Plated,PTH,ViaDrill
T2C0.250
%
G90
G05
T1
X-15.401Y0.171
X-15.23Y-3.066
X-14.89Y0.94
X-14.27Y-4.92
X-13.385Y-6.266
X-12.985Y-1.425
X-12.889Y-4.624
X-12.48Y-7.81
X-12.45Y7.591
X-12.45Y4.153
X-12.416Y-2.384
X-12.132Y-6.268
X-12.04Y2.85
X-11.998Y-0.652
X-11.903Y-4.616
X-11.83Y1.3
X-11.287Y3.381
X-11.048Y-7.877
X-10.992Y-3.126
X-10.973Y-4.673
X-10.837Y6.114
X-10.59Y-4.02
X-10.361Y-0.932
X-10.35Y4.711
X-10.35Y1.216
X-10.06Y-1.841
X-10.05Y-7.825
X-9.798Y-2.57
X-9.75Y-3.601
X-9.257Y-11.711
X-9.25Y-7.144
X-9.226Y5.919
X-9.184Y-8.032
X-9.067Y-9.53
X-8.979Y3.238
X-8.877Y-0.592
X-8.538Y1.974
X-8.268Y2.983
X-8.217Y-7.083
X-8.05Y-13.56
X-7.84Y7.04
X-7.667Y-11.756
X-7.665Y-8.641
X-7.606Y13.087
X-7.465Y2.835
X-7.43Y11.05
X-7.293Y5.769
X-7.137Y-10.406
X-6.94Y-8.392
X-6.88Y-2.325
X-6.839Y3.28
X-6.627Y-4.952
X-6.614Y9.925
X-6.492Y12.769
X-6.48Y0.775
X-6.45Y-9.282
X-6.431Y-10.67
X-6.361Y5.144
X-6.33Y8.948
X-6.27Y7.3
X-6.235Y-5.308
X-6.178Y-6.024
X-6.068Y-12.392
X-6.036Y13.759
X-5.5Y-7.744
X-5.475Y6.924
X-5.25Y-11.047
X-5.248Y11.092
X-5.047Y-0.495
X-4.83Y0.81
X-4.774Y-9.258
X-4.66Y-2.22
X-4.526Y-5.716
X-4.463Y-13.441
X-4.438Y13.759
X-4.026Y7.999
X-3.99Y-11.061
X-3.855Y6.547
X-3.45Y-7.576
X-3.322Y0.858
X-3.047Y7.041
X-3.043Y7.741
X-3.006Y1.917
X-2.97Y5.75
X-2.96Y9.9
X-2.792Y-9.801
X-2.57Y12.344
X-2.1Y-7.576
X-2.068Y11.319
X-1.5Y7.56
X-1.492Y8.961
X-1.279Y-7.083
X-1.227Y1.865
X-0.571Y14.362
X-0.499Y1.984
X-0.45Y-11.111
X-0.311Y-1.078
X-0.021Y-9.701
X0.0Y10.16
X0.09Y-3.99
X0.132Y1.188
X0.22Y4.61
X0.312Y1.961
X0.38Y-6.625
X0.428Y-10.579
X0.896Y1.575
X1.067Y3.237
X1.206Y-1.579
X1.428Y-6.001
X1.47Y8.256
X1.55Y0.325
X1.55Y-5.258
X1.607Y11.07
X2.012Y-1.728
X2.187Y-0.979
X2.316Y8.866
X2.399Y-8.695
X2.512Y-11.206
X2.564Y7.616
X2.618Y-6.597
X2.74Y-4.82
X2.75Y11.37
X3.05Y9.629
X3.35Y9.279
X3.434Y-5.148
X3.597Y7.377
X3.852Y8.763
X3.908Y-6.58
X4.016Y-3.318
X4.096Y-1.412
X4.42Y-14.81
X4.56Y13.34
X4.587Y7.7
X4.592Y3.417
X4.656Y6.669
X4.835Y-6.315
X5.155Y-3.441
X5.157Y13.826
X5.169Y-13.262
X5.189Y1.035
X5.405Y-5.293
X5.53Y-11.34
X5.719Y-8.957
X5.832Y-4.378
X5.88Y6.94
X5.931Y-0.658
X5.95Y-12.656
X6.098Y11.085
X6.165Y5.492
X6.64Y-6.61
X6.68Y-3.69
X6.745Y7.638
X6.897Y3.472
X7.069Y-1.106
X7.28Y-10.77
X7.41Y5.492
X7.482Y1.908
X7.79Y3.148
X8.038Y-2.688
X8.2Y4.115
X8.222Y-2.065
X8.295Y6.005
X8.3Y11.22
X8.428Y2.897
X8.537Y1.818
X8.85Y5.511
X8.992Y4.252
X9.0Y6.57
X9.066Y-5.548
X9.09Y-3.96
X9.255Y-1.593
X9.272Y1.335
X9.303Y0.435
X9.39Y-2.82
X9.41Y9.09
X9.489Y2.709
X9.64Y1.891
X9.7Y-2.16
X9.732Y6.897
X9.865Y6.19
X9.929Y12.159
X9.966Y-5.441
X9.972Y-3.895
X10.05Y-3.066
X10.141Y-4.594
X10.206Y9.775
X10.27Y1.71
X10.358Y4.942
X10.6Y-7.885
X11.203Y6.582
X11.21Y-3.05
X11.25Y-6.6
X11.372Y-1.465
X11.525Y2.416
X11.53Y10.559
X11.55Y-4.641
X11.562Y9.51
X11.563Y7.663
X11.855Y3.331
X11.865Y0.186
X12.233Y8.156
X12.35Y-6.225
X12.469Y-3.036
X12.916Y1.66
X13.134Y8.959
X13.143Y-3.543
X13.155Y3.025
X13.156Y-4.498
X13.175Y0.9
X13.195Y7.36
X13.352Y0.212
X13.376Y4.98
X13.89Y-4.616
X14.221Y3.351
X14.549Y1.73
X14.57Y0.179
X14.735Y0.859
X14.77Y-0.8
X15.43Y4.35
X15.665Y2.185
T2
X5.755Y8.797
X7.25Y8.95
X8.21Y8.08
X10.58Y3.24
M30
