%TF.GenerationSoftware,KiCad,Pcbnew,10.0.3*%
%TF.CreationDate,2026-09-09T18:47:45+02:00*%
%TF.ProjectId,aft_end_board,6166745f-656e-4645-9f62-6f6172642e6b,rev?*%
%TF.SameCoordinates,Original*%
%TF.FileFunction,Legend,Top*%
%TF.FilePolarity,Positive*%
%FSLAX46Y46*%
G04 Gerber Fmt 4.6, Leading zero omitted, Abs format (unit mm)*
G04 Created by KiCad (PCBNEW 10.0.3) date 2026-09-09 18:47:45*
%MOMM*%
%LPD*%
G01*
G04 APERTURE LIST*
%ADD10C,0.120000*%
G04 APERTURE END LIST*
D10*
X-12000000Y950000D02*
X-12000000Y-370000D01*
X-12000000Y-850000D02*
X-12000000Y-950000D01*
X-12000000Y-950000D02*
X-11000000Y-950000D01*
X-11000000Y201000D02*
X-9680000Y201000D01*
X-9200000Y201000D02*
X-7880000Y201000D01*
X-7400000Y201000D02*
X-6202000Y201000D01*
X-11000000Y-950000D02*
X-11000000Y201000D01*
X-10877000Y7902000D02*
X-10877000Y6582000D01*
X-10877000Y6102000D02*
X-10877000Y4782000D01*
X-10877000Y4302000D02*
X-10877000Y2982000D01*
X-10877000Y2502000D02*
X-10877000Y1182000D01*
X-10877000Y950000D02*
X-12000000Y950000D01*
X-10783400Y9015600D02*
X-9850019Y8082219D01*
X-9669800Y7902000D02*
X-10877000Y7902000D01*
X-9015600Y10783400D02*
X-9948981Y9850019D01*
X-10288392Y9510608D02*
X-10783400Y9015600D01*
X-9002000Y-1602000D02*
X-9002000Y-2922000D01*
X-9002000Y-3402000D02*
X-9002000Y-4722000D01*
X-9002000Y-5202000D02*
X-9002000Y-5602000D01*
X-9002000Y-5602000D02*
X-7682000Y-5602000D01*
X-7202000Y-5602000D02*
X-5882000Y-5602000D01*
X-5402000Y-5602000D02*
X-5061000Y-5602000D01*
X-7376000Y11403000D02*
X-7376000Y10083000D01*
X-7376000Y9603000D02*
X-7376000Y9143800D01*
X-7376000Y9143800D02*
X-8309381Y10077181D01*
X-8648792Y10416592D02*
X-9015600Y10783400D01*
X-6202000Y201000D02*
X-6202000Y-1119000D01*
X-6202000Y-1599000D02*
X-6202000Y-1602000D01*
X-6202000Y-1602000D02*
X-7522000Y-1602000D01*
X-8002000Y-1602000D02*
X-9002000Y-1602000D01*
X-5701000Y-7203000D02*
X-5701000Y-8523000D01*
X-5701000Y-9003000D02*
X-5701000Y-10323000D01*
X-5701000Y-10803000D02*
X-5701000Y-11003000D01*
X-5701000Y-11003000D02*
X-4381000Y-11003000D01*
X-3901000Y-11003000D02*
X-2581000Y-11003000D01*
X-2101000Y-11003000D02*
X-1299000Y-11003000D01*
X-5061000Y-5602000D02*
X-5061000Y-6922000D01*
X-5061000Y-7203000D02*
X-5701000Y-7203000D01*
X-3576000Y7603000D02*
X-3376000Y7603000D01*
X-3576000Y6001000D02*
X-3576000Y7321000D01*
X-3376000Y11403000D02*
X-4696000Y11403000D01*
X-5176000Y11403000D02*
X-6496000Y11403000D01*
X-6976000Y11403000D02*
X-7376000Y11403000D01*
X-3376000Y7603000D02*
X-3376000Y8923000D01*
X-3376000Y9403000D02*
X-3376000Y10723000D01*
X-3376000Y11203000D02*
X-3376000Y11403000D01*
X-2000000Y9502000D02*
X-2000000Y8182000D01*
X-2000000Y7702000D02*
X-2000000Y6382000D01*
X-2000000Y6001000D02*
X-3320000Y6001000D01*
X-1299000Y-11003000D02*
X-1299000Y-12323000D01*
X-1299000Y-12604000D02*
X21000Y-12604000D01*
X501000Y-12604000D02*
X1821000Y-12604000D01*
X2301000Y-12604000D02*
X2701000Y-12604000D01*
X2000000Y9502000D02*
X680000Y9502000D01*
X200000Y9502000D02*
X-1120000Y9502000D01*
X-1600000Y9502000D02*
X-2000000Y9502000D01*
X2000000Y6001000D02*
X2000000Y7321000D01*
X2000000Y7801000D02*
X2000000Y9121000D01*
X2701000Y-9103000D02*
X4021000Y-9103000D01*
X4501000Y-9103000D02*
X5821000Y-9103000D01*
X2701000Y-12604000D02*
X2701000Y-11284000D01*
X2701000Y-10804000D02*
X2701000Y-9484000D01*
X3576000Y11064500D02*
X3576000Y9744500D01*
X3576000Y9264500D02*
X3576000Y7944500D01*
X3576000Y7464500D02*
X3576000Y6144500D01*
X3576000Y6001000D02*
X2256000Y6001000D01*
X6103000Y-9103000D02*
X6103000Y-9303000D01*
X6103000Y-9303000D02*
X7423000Y-9303000D01*
X7535200Y-9303000D02*
X8468581Y-10236381D01*
X8807992Y-10575792D02*
X9015600Y-10783400D01*
X7576000Y11064500D02*
X6256000Y11064500D01*
X5776000Y11064500D02*
X4456000Y11064500D01*
X3976000Y11064500D02*
X3576000Y11064500D01*
X7576000Y7563500D02*
X7576000Y8883500D01*
X7576000Y9363500D02*
X7576000Y10683500D01*
X9015600Y-10783400D02*
X9948981Y-9850019D01*
X10288392Y-9510608D02*
X10783400Y-9015600D01*
X9102000Y-1361500D02*
X10422000Y-1361500D01*
X10902000Y-1361500D02*
X11726000Y-1361500D01*
X9102000Y-5303000D02*
X9102000Y-3983000D01*
X9102000Y-3503000D02*
X9102000Y-2183000D01*
X9102000Y-1703000D02*
X9102000Y-1361500D01*
X9903000Y-5303000D02*
X9102000Y-5303000D01*
X9903000Y-8135200D02*
X9903000Y-6815200D01*
X9903000Y-6335200D02*
X9903000Y-5303000D01*
X10783400Y-9015600D02*
X9903000Y-8135200D01*
X11726000Y7563500D02*
X10406000Y7563500D01*
X9926000Y7563500D02*
X8606000Y7563500D01*
X8126000Y7563500D02*
X7576000Y7563500D01*
X11726000Y-1361500D02*
X11726000Y-41500D01*
X11726000Y438500D02*
X11726000Y1758500D01*
X11726000Y2238500D02*
X11726000Y3558500D01*
X11726000Y4038500D02*
X11726000Y5358500D01*
X11726000Y5838500D02*
X11726000Y7158500D01*
X-15828665Y12077240D02*
X-15752474Y12039144D01*
X-15752474Y12039144D02*
X-15600093Y12039144D01*
X-15600093Y12039144D02*
X-15523903Y12077240D01*
X-15523903Y12077240D02*
X-15485807Y12153430D01*
X-15485807Y12153430D02*
X-15485807Y12191525D01*
X-15485807Y12191525D02*
X-15523903Y12267716D01*
X-15523903Y12267716D02*
X-15600093Y12305811D01*
X-15600093Y12305811D02*
X-15714379Y12305811D01*
X-15714379Y12305811D02*
X-15790569Y12343906D01*
X-15790569Y12343906D02*
X-15828665Y12420097D01*
X-15828665Y12420097D02*
X-15828665Y12458192D01*
X-15828665Y12458192D02*
X-15790569Y12534382D01*
X-15790569Y12534382D02*
X-15714379Y12572478D01*
X-15714379Y12572478D02*
X-15600093Y12572478D01*
X-15600093Y12572478D02*
X-15523903Y12534382D01*
X-15142950Y12572478D02*
X-15142950Y11772478D01*
X-15142950Y12534382D02*
X-15066760Y12572478D01*
X-15066760Y12572478D02*
X-14914379Y12572478D01*
X-14914379Y12572478D02*
X-14838188Y12534382D01*
X-14838188Y12534382D02*
X-14800093Y12496287D01*
X-14800093Y12496287D02*
X-14761998Y12420097D01*
X-14761998Y12420097D02*
X-14761998Y12191525D01*
X-14761998Y12191525D02*
X-14800093Y12115335D01*
X-14800093Y12115335D02*
X-14838188Y12077240D01*
X-14838188Y12077240D02*
X-14914379Y12039144D01*
X-14914379Y12039144D02*
X-15066760Y12039144D01*
X-15066760Y12039144D02*
X-15142950Y12077240D01*
X-14076283Y12039144D02*
X-14076283Y12458192D01*
X-14076283Y12458192D02*
X-14114378Y12534382D01*
X-14114378Y12534382D02*
X-14190569Y12572478D01*
X-14190569Y12572478D02*
X-14342950Y12572478D01*
X-14342950Y12572478D02*
X-14419140Y12534382D01*
X-14076283Y12077240D02*
X-14152474Y12039144D01*
X-14152474Y12039144D02*
X-14342950Y12039144D01*
X-14342950Y12039144D02*
X-14419140Y12077240D01*
X-14419140Y12077240D02*
X-14457236Y12153430D01*
X-14457236Y12153430D02*
X-14457236Y12229620D01*
X-14457236Y12229620D02*
X-14419140Y12305811D01*
X-14419140Y12305811D02*
X-14342950Y12343906D01*
X-14342950Y12343906D02*
X-14152474Y12343906D01*
X-14152474Y12343906D02*
X-14076283Y12382001D01*
X-13352473Y12077240D02*
X-13428664Y12039144D01*
X-13428664Y12039144D02*
X-13581045Y12039144D01*
X-13581045Y12039144D02*
X-13657235Y12077240D01*
X-13657235Y12077240D02*
X-13695330Y12115335D01*
X-13695330Y12115335D02*
X-13733426Y12191525D01*
X-13733426Y12191525D02*
X-13733426Y12420097D01*
X-13733426Y12420097D02*
X-13695330Y12496287D01*
X-13695330Y12496287D02*
X-13657235Y12534382D01*
X-13657235Y12534382D02*
X-13581045Y12572478D01*
X-13581045Y12572478D02*
X-13428664Y12572478D01*
X-13428664Y12572478D02*
X-13352473Y12534382D01*
X-12704854Y12077240D02*
X-12781045Y12039144D01*
X-12781045Y12039144D02*
X-12933426Y12039144D01*
X-12933426Y12039144D02*
X-13009616Y12077240D01*
X-13009616Y12077240D02*
X-13047712Y12153430D01*
X-13047712Y12153430D02*
X-13047712Y12458192D01*
X-13047712Y12458192D02*
X-13009616Y12534382D01*
X-13009616Y12534382D02*
X-12933426Y12572478D01*
X-12933426Y12572478D02*
X-12781045Y12572478D01*
X-12781045Y12572478D02*
X-12704854Y12534382D01*
X-12704854Y12534382D02*
X-12666759Y12458192D01*
X-12666759Y12458192D02*
X-12666759Y12382001D01*
X-12666759Y12382001D02*
X-13047712Y12305811D01*
X-12323902Y12039144D02*
X-12323902Y12572478D01*
X-12323902Y12420097D02*
X-12285807Y12496287D01*
X-12285807Y12496287D02*
X-12247712Y12534382D01*
X-12247712Y12534382D02*
X-12171521Y12572478D01*
X-12171521Y12572478D02*
X-12095331Y12572478D01*
X-12019141Y11962954D02*
X-11409617Y11962954D01*
X-10876283Y12039144D02*
X-10876283Y12458192D01*
X-10876283Y12458192D02*
X-10914378Y12534382D01*
X-10914378Y12534382D02*
X-10990569Y12572478D01*
X-10990569Y12572478D02*
X-11142950Y12572478D01*
X-11142950Y12572478D02*
X-11219140Y12534382D01*
X-10876283Y12077240D02*
X-10952474Y12039144D01*
X-10952474Y12039144D02*
X-11142950Y12039144D01*
X-11142950Y12039144D02*
X-11219140Y12077240D01*
X-11219140Y12077240D02*
X-11257236Y12153430D01*
X-11257236Y12153430D02*
X-11257236Y12229620D01*
X-11257236Y12229620D02*
X-11219140Y12305811D01*
X-11219140Y12305811D02*
X-11142950Y12343906D01*
X-11142950Y12343906D02*
X-10952474Y12343906D01*
X-10952474Y12343906D02*
X-10876283Y12382001D01*
X-10609616Y12572478D02*
X-10304854Y12572478D01*
X-10495330Y12039144D02*
X-10495330Y12724859D01*
X-10495330Y12724859D02*
X-10457235Y12801049D01*
X-10457235Y12801049D02*
X-10381045Y12839144D01*
X-10381045Y12839144D02*
X-10304854Y12839144D01*
X-10152473Y12572478D02*
X-9847711Y12572478D01*
X-10038187Y12839144D02*
X-10038187Y12153430D01*
X-10038187Y12153430D02*
X-10000092Y12077240D01*
X-10000092Y12077240D02*
X-9923902Y12039144D01*
X-9923902Y12039144D02*
X-9847711Y12039144D01*
X-9771521Y11962954D02*
X-9161997Y11962954D01*
X-8666758Y12077240D02*
X-8742949Y12039144D01*
X-8742949Y12039144D02*
X-8895330Y12039144D01*
X-8895330Y12039144D02*
X-8971520Y12077240D01*
X-8971520Y12077240D02*
X-9009616Y12153430D01*
X-9009616Y12153430D02*
X-9009616Y12458192D01*
X-9009616Y12458192D02*
X-8971520Y12534382D01*
X-8971520Y12534382D02*
X-8895330Y12572478D01*
X-8895330Y12572478D02*
X-8742949Y12572478D01*
X-8742949Y12572478D02*
X-8666758Y12534382D01*
X-8666758Y12534382D02*
X-8628663Y12458192D01*
X-8628663Y12458192D02*
X-8628663Y12382001D01*
X-8628663Y12382001D02*
X-9009616Y12305811D01*
X-8285806Y12572478D02*
X-8285806Y12039144D01*
X-8285806Y12496287D02*
X-8247711Y12534382D01*
X-8247711Y12534382D02*
X-8171521Y12572478D01*
X-8171521Y12572478D02*
X-8057235Y12572478D01*
X-8057235Y12572478D02*
X-7981044Y12534382D01*
X-7981044Y12534382D02*
X-7942949Y12458192D01*
X-7942949Y12458192D02*
X-7942949Y12039144D01*
X-7219139Y12039144D02*
X-7219139Y12839144D01*
X-7219139Y12077240D02*
X-7295330Y12039144D01*
X-7295330Y12039144D02*
X-7447711Y12039144D01*
X-7447711Y12039144D02*
X-7523901Y12077240D01*
X-7523901Y12077240D02*
X-7561996Y12115335D01*
X-7561996Y12115335D02*
X-7600092Y12191525D01*
X-7600092Y12191525D02*
X-7600092Y12420097D01*
X-7600092Y12420097D02*
X-7561996Y12496287D01*
X-7561996Y12496287D02*
X-7523901Y12534382D01*
X-7523901Y12534382D02*
X-7447711Y12572478D01*
X-7447711Y12572478D02*
X-7295330Y12572478D01*
X-7295330Y12572478D02*
X-7219139Y12534382D01*
X-7028663Y11962954D02*
X-6419139Y11962954D01*
X-6228662Y12039144D02*
X-6228662Y12839144D01*
X-6228662Y12534382D02*
X-6152472Y12572478D01*
X-6152472Y12572478D02*
X-6000091Y12572478D01*
X-6000091Y12572478D02*
X-5923900Y12534382D01*
X-5923900Y12534382D02*
X-5885805Y12496287D01*
X-5885805Y12496287D02*
X-5847710Y12420097D01*
X-5847710Y12420097D02*
X-5847710Y12191525D01*
X-5847710Y12191525D02*
X-5885805Y12115335D01*
X-5885805Y12115335D02*
X-5923900Y12077240D01*
X-5923900Y12077240D02*
X-6000091Y12039144D01*
X-6000091Y12039144D02*
X-6152472Y12039144D01*
X-6152472Y12039144D02*
X-6228662Y12077240D01*
X-5390567Y12039144D02*
X-5466757Y12077240D01*
X-5466757Y12077240D02*
X-5504852Y12115335D01*
X-5504852Y12115335D02*
X-5542948Y12191525D01*
X-5542948Y12191525D02*
X-5542948Y12420097D01*
X-5542948Y12420097D02*
X-5504852Y12496287D01*
X-5504852Y12496287D02*
X-5466757Y12534382D01*
X-5466757Y12534382D02*
X-5390567Y12572478D01*
X-5390567Y12572478D02*
X-5276281Y12572478D01*
X-5276281Y12572478D02*
X-5200090Y12534382D01*
X-5200090Y12534382D02*
X-5161995Y12496287D01*
X-5161995Y12496287D02*
X-5123900Y12420097D01*
X-5123900Y12420097D02*
X-5123900Y12191525D01*
X-5123900Y12191525D02*
X-5161995Y12115335D01*
X-5161995Y12115335D02*
X-5200090Y12077240D01*
X-5200090Y12077240D02*
X-5276281Y12039144D01*
X-5276281Y12039144D02*
X-5390567Y12039144D01*
X-4438185Y12039144D02*
X-4438185Y12458192D01*
X-4438185Y12458192D02*
X-4476280Y12534382D01*
X-4476280Y12534382D02*
X-4552471Y12572478D01*
X-4552471Y12572478D02*
X-4704852Y12572478D01*
X-4704852Y12572478D02*
X-4781042Y12534382D01*
X-4438185Y12077240D02*
X-4514376Y12039144D01*
X-4514376Y12039144D02*
X-4704852Y12039144D01*
X-4704852Y12039144D02*
X-4781042Y12077240D01*
X-4781042Y12077240D02*
X-4819138Y12153430D01*
X-4819138Y12153430D02*
X-4819138Y12229620D01*
X-4819138Y12229620D02*
X-4781042Y12305811D01*
X-4781042Y12305811D02*
X-4704852Y12343906D01*
X-4704852Y12343906D02*
X-4514376Y12343906D01*
X-4514376Y12343906D02*
X-4438185Y12382001D01*
X-4057232Y12039144D02*
X-4057232Y12572478D01*
X-4057232Y12420097D02*
X-4019137Y12496287D01*
X-4019137Y12496287D02*
X-3981042Y12534382D01*
X-3981042Y12534382D02*
X-3904851Y12572478D01*
X-3904851Y12572478D02*
X-3828661Y12572478D01*
X-3219137Y12039144D02*
X-3219137Y12839144D01*
X-3219137Y12077240D02*
X-3295328Y12039144D01*
X-3295328Y12039144D02*
X-3447709Y12039144D01*
X-3447709Y12039144D02*
X-3523899Y12077240D01*
X-3523899Y12077240D02*
X-3561994Y12115335D01*
X-3561994Y12115335D02*
X-3600090Y12191525D01*
X-3600090Y12191525D02*
X-3600090Y12420097D01*
X-3600090Y12420097D02*
X-3561994Y12496287D01*
X-3561994Y12496287D02*
X-3523899Y12534382D01*
X-3523899Y12534382D02*
X-3447709Y12572478D01*
X-3447709Y12572478D02*
X-3295328Y12572478D01*
X-3295328Y12572478D02*
X-3219137Y12534382D01*
X-3028661Y11962954D02*
X-2419137Y11962954D01*
X-1885803Y12039144D02*
X-1885803Y12458192D01*
X-1885803Y12458192D02*
X-1923898Y12534382D01*
X-1923898Y12534382D02*
X-2000089Y12572478D01*
X-2000089Y12572478D02*
X-2152470Y12572478D01*
X-2152470Y12572478D02*
X-2228660Y12534382D01*
X-1885803Y12077240D02*
X-1961994Y12039144D01*
X-1961994Y12039144D02*
X-2152470Y12039144D01*
X-2152470Y12039144D02*
X-2228660Y12077240D01*
X-2228660Y12077240D02*
X-2266756Y12153430D01*
X-2266756Y12153430D02*
X-2266756Y12229620D01*
X-2266756Y12229620D02*
X-2228660Y12305811D01*
X-2228660Y12305811D02*
X-2152470Y12343906D01*
X-2152470Y12343906D02*
X-1961994Y12343906D01*
X-1961994Y12343906D02*
X-1885803Y12382001D01*
X-1161993Y12077240D02*
X-1238184Y12039144D01*
X-1238184Y12039144D02*
X-1390565Y12039144D01*
X-1390565Y12039144D02*
X-1466755Y12077240D01*
X-1466755Y12077240D02*
X-1504850Y12115335D01*
X-1504850Y12115335D02*
X-1542946Y12191525D01*
X-1542946Y12191525D02*
X-1542946Y12420097D01*
X-1542946Y12420097D02*
X-1504850Y12496287D01*
X-1504850Y12496287D02*
X-1466755Y12534382D01*
X-1466755Y12534382D02*
X-1390565Y12572478D01*
X-1390565Y12572478D02*
X-1238184Y12572478D01*
X-1238184Y12572478D02*
X-1161993Y12534382D01*
X-933422Y12572478D02*
X-628660Y12572478D01*
X-819136Y12839144D02*
X-819136Y12153430D01*
X-819136Y12153430D02*
X-781041Y12077240D01*
X-781041Y12077240D02*
X-704851Y12039144D01*
X-704851Y12039144D02*
X-628660Y12039144D01*
X-361993Y12039144D02*
X-361993Y12572478D01*
X-361993Y12839144D02*
X-400089Y12801049D01*
X-400089Y12801049D02*
X-361993Y12762954D01*
X-361993Y12762954D02*
X-323898Y12801049D01*
X-323898Y12801049D02*
X-361993Y12839144D01*
X-361993Y12839144D02*
X-361993Y12762954D01*
X-57232Y12572478D02*
X133243Y12039144D01*
X133243Y12039144D02*
X323720Y12572478D01*
X971339Y12039144D02*
X971339Y12458192D01*
X971339Y12458192D02*
X933244Y12534382D01*
X933244Y12534382D02*
X857053Y12572478D01*
X857053Y12572478D02*
X704672Y12572478D01*
X704672Y12572478D02*
X628482Y12534382D01*
X971339Y12077240D02*
X895148Y12039144D01*
X895148Y12039144D02*
X704672Y12039144D01*
X704672Y12039144D02*
X628482Y12077240D01*
X628482Y12077240D02*
X590386Y12153430D01*
X590386Y12153430D02*
X590386Y12229620D01*
X590386Y12229620D02*
X628482Y12305811D01*
X628482Y12305811D02*
X704672Y12343906D01*
X704672Y12343906D02*
X895148Y12343906D01*
X895148Y12343906D02*
X971339Y12382001D01*
X1238006Y12572478D02*
X1542768Y12572478D01*
X1352292Y12839144D02*
X1352292Y12153430D01*
X1352292Y12153430D02*
X1390387Y12077240D01*
X1390387Y12077240D02*
X1466577Y12039144D01*
X1466577Y12039144D02*
X1542768Y12039144D01*
X1809435Y12039144D02*
X1809435Y12572478D01*
X1809435Y12839144D02*
X1771339Y12801049D01*
X1771339Y12801049D02*
X1809435Y12762954D01*
X1809435Y12762954D02*
X1847530Y12801049D01*
X1847530Y12801049D02*
X1809435Y12839144D01*
X1809435Y12839144D02*
X1809435Y12762954D01*
X2304672Y12039144D02*
X2228482Y12077240D01*
X2228482Y12077240D02*
X2190387Y12115335D01*
X2190387Y12115335D02*
X2152291Y12191525D01*
X2152291Y12191525D02*
X2152291Y12420097D01*
X2152291Y12420097D02*
X2190387Y12496287D01*
X2190387Y12496287D02*
X2228482Y12534382D01*
X2228482Y12534382D02*
X2304672Y12572478D01*
X2304672Y12572478D02*
X2418958Y12572478D01*
X2418958Y12572478D02*
X2495149Y12534382D01*
X2495149Y12534382D02*
X2533244Y12496287D01*
X2533244Y12496287D02*
X2571339Y12420097D01*
X2571339Y12420097D02*
X2571339Y12191525D01*
X2571339Y12191525D02*
X2533244Y12115335D01*
X2533244Y12115335D02*
X2495149Y12077240D01*
X2495149Y12077240D02*
X2418958Y12039144D01*
X2418958Y12039144D02*
X2304672Y12039144D01*
X2914197Y12572478D02*
X2914197Y12039144D01*
X2914197Y12496287D02*
X2952292Y12534382D01*
X2952292Y12534382D02*
X3028482Y12572478D01*
X3028482Y12572478D02*
X3142768Y12572478D01*
X3142768Y12572478D02*
X3218959Y12534382D01*
X3218959Y12534382D02*
X3257054Y12458192D01*
X3257054Y12458192D02*
X3257054Y12039144D01*
X3447531Y11962954D02*
X4057054Y11962954D01*
X4247531Y12039144D02*
X4247531Y12572478D01*
X4247531Y12839144D02*
X4209435Y12801049D01*
X4209435Y12801049D02*
X4247531Y12762954D01*
X4247531Y12762954D02*
X4285626Y12801049D01*
X4285626Y12801049D02*
X4247531Y12839144D01*
X4247531Y12839144D02*
X4247531Y12762954D01*
X4628483Y12572478D02*
X4628483Y12039144D01*
X4628483Y12496287D02*
X4666578Y12534382D01*
X4666578Y12534382D02*
X4742768Y12572478D01*
X4742768Y12572478D02*
X4857054Y12572478D01*
X4857054Y12572478D02*
X4933245Y12534382D01*
X4933245Y12534382D02*
X4971340Y12458192D01*
X4971340Y12458192D02*
X4971340Y12039144D01*
X5238007Y12572478D02*
X5542769Y12572478D01*
X5352293Y12839144D02*
X5352293Y12153430D01*
X5352293Y12153430D02*
X5390388Y12077240D01*
X5390388Y12077240D02*
X5466578Y12039144D01*
X5466578Y12039144D02*
X5542769Y12039144D01*
X6114198Y12077240D02*
X6038007Y12039144D01*
X6038007Y12039144D02*
X5885626Y12039144D01*
X5885626Y12039144D02*
X5809436Y12077240D01*
X5809436Y12077240D02*
X5771340Y12153430D01*
X5771340Y12153430D02*
X5771340Y12458192D01*
X5771340Y12458192D02*
X5809436Y12534382D01*
X5809436Y12534382D02*
X5885626Y12572478D01*
X5885626Y12572478D02*
X6038007Y12572478D01*
X6038007Y12572478D02*
X6114198Y12534382D01*
X6114198Y12534382D02*
X6152293Y12458192D01*
X6152293Y12458192D02*
X6152293Y12382001D01*
X6152293Y12382001D02*
X5771340Y12305811D01*
X6495150Y12039144D02*
X6495150Y12572478D01*
X6495150Y12420097D02*
X6533245Y12496287D01*
X6533245Y12496287D02*
X6571340Y12534382D01*
X6571340Y12534382D02*
X6647531Y12572478D01*
X6647531Y12572478D02*
X6723721Y12572478D01*
X6876102Y12572478D02*
X7180864Y12572478D01*
X6990388Y12039144D02*
X6990388Y12724859D01*
X6990388Y12724859D02*
X7028483Y12801049D01*
X7028483Y12801049D02*
X7104673Y12839144D01*
X7104673Y12839144D02*
X7180864Y12839144D01*
X7790388Y12039144D02*
X7790388Y12458192D01*
X7790388Y12458192D02*
X7752293Y12534382D01*
X7752293Y12534382D02*
X7676102Y12572478D01*
X7676102Y12572478D02*
X7523721Y12572478D01*
X7523721Y12572478D02*
X7447531Y12534382D01*
X7790388Y12077240D02*
X7714197Y12039144D01*
X7714197Y12039144D02*
X7523721Y12039144D01*
X7523721Y12039144D02*
X7447531Y12077240D01*
X7447531Y12077240D02*
X7409435Y12153430D01*
X7409435Y12153430D02*
X7409435Y12229620D01*
X7409435Y12229620D02*
X7447531Y12305811D01*
X7447531Y12305811D02*
X7523721Y12343906D01*
X7523721Y12343906D02*
X7714197Y12343906D01*
X7714197Y12343906D02*
X7790388Y12382001D01*
X8514198Y12077240D02*
X8438007Y12039144D01*
X8438007Y12039144D02*
X8285626Y12039144D01*
X8285626Y12039144D02*
X8209436Y12077240D01*
X8209436Y12077240D02*
X8171341Y12115335D01*
X8171341Y12115335D02*
X8133245Y12191525D01*
X8133245Y12191525D02*
X8133245Y12420097D01*
X8133245Y12420097D02*
X8171341Y12496287D01*
X8171341Y12496287D02*
X8209436Y12534382D01*
X8209436Y12534382D02*
X8285626Y12572478D01*
X8285626Y12572478D02*
X8438007Y12572478D01*
X8438007Y12572478D02*
X8514198Y12534382D01*
X9161817Y12077240D02*
X9085626Y12039144D01*
X9085626Y12039144D02*
X8933245Y12039144D01*
X8933245Y12039144D02*
X8857055Y12077240D01*
X8857055Y12077240D02*
X8818959Y12153430D01*
X8818959Y12153430D02*
X8818959Y12458192D01*
X8818959Y12458192D02*
X8857055Y12534382D01*
X8857055Y12534382D02*
X8933245Y12572478D01*
X8933245Y12572478D02*
X9085626Y12572478D01*
X9085626Y12572478D02*
X9161817Y12534382D01*
X9161817Y12534382D02*
X9199912Y12458192D01*
X9199912Y12458192D02*
X9199912Y12382001D01*
X9199912Y12382001D02*
X8818959Y12305811D01*
X10495150Y12077240D02*
X10418959Y12039144D01*
X10418959Y12039144D02*
X10266578Y12039144D01*
X10266578Y12039144D02*
X10190388Y12077240D01*
X10190388Y12077240D02*
X10152293Y12115335D01*
X10152293Y12115335D02*
X10114197Y12191525D01*
X10114197Y12191525D02*
X10114197Y12420097D01*
X10114197Y12420097D02*
X10152293Y12496287D01*
X10152293Y12496287D02*
X10190388Y12534382D01*
X10190388Y12534382D02*
X10266578Y12572478D01*
X10266578Y12572478D02*
X10418959Y12572478D01*
X10418959Y12572478D02*
X10495150Y12534382D01*
X11180864Y12572478D02*
X11180864Y12039144D01*
X10838007Y12572478D02*
X10838007Y12153430D01*
X10838007Y12153430D02*
X10876102Y12077240D01*
X10876102Y12077240D02*
X10952292Y12039144D01*
X10952292Y12039144D02*
X11066578Y12039144D01*
X11066578Y12039144D02*
X11142769Y12077240D01*
X11142769Y12077240D02*
X11180864Y12115335D01*
X11447531Y12572478D02*
X11752293Y12572478D01*
X11561817Y12839144D02*
X11561817Y12153430D01*
X11561817Y12153430D02*
X11599912Y12077240D01*
X11599912Y12077240D02*
X11676102Y12039144D01*
X11676102Y12039144D02*
X11752293Y12039144D01*
X12133245Y12039144D02*
X12057055Y12077240D01*
X12057055Y12077240D02*
X12018960Y12115335D01*
X12018960Y12115335D02*
X11980864Y12191525D01*
X11980864Y12191525D02*
X11980864Y12420097D01*
X11980864Y12420097D02*
X12018960Y12496287D01*
X12018960Y12496287D02*
X12057055Y12534382D01*
X12057055Y12534382D02*
X12133245Y12572478D01*
X12133245Y12572478D02*
X12247531Y12572478D01*
X12247531Y12572478D02*
X12323722Y12534382D01*
X12323722Y12534382D02*
X12361817Y12496287D01*
X12361817Y12496287D02*
X12399912Y12420097D01*
X12399912Y12420097D02*
X12399912Y12191525D01*
X12399912Y12191525D02*
X12361817Y12115335D01*
X12361817Y12115335D02*
X12323722Y12077240D01*
X12323722Y12077240D02*
X12247531Y12039144D01*
X12247531Y12039144D02*
X12133245Y12039144D01*
X13085627Y12572478D02*
X13085627Y12039144D01*
X12742770Y12572478D02*
X12742770Y12153430D01*
X12742770Y12153430D02*
X12780865Y12077240D01*
X12780865Y12077240D02*
X12857055Y12039144D01*
X12857055Y12039144D02*
X12971341Y12039144D01*
X12971341Y12039144D02*
X13047532Y12077240D01*
X13047532Y12077240D02*
X13085627Y12115335D01*
X13352294Y12572478D02*
X13657056Y12572478D01*
X13466580Y12839144D02*
X13466580Y12153430D01*
X13466580Y12153430D02*
X13504675Y12077240D01*
X13504675Y12077240D02*
X13580865Y12039144D01*
X13580865Y12039144D02*
X13657056Y12039144D01*
M02*
