%TF.GenerationSoftware,KiCad,Pcbnew,10.0.3*%
%TF.CreationDate,2026-09-09T15:07:44+02:00*%
%TF.ProjectId,aft_end_board,6166745f-656e-4645-9f62-6f6172642e6b,rev?*%
%TF.SameCoordinates,Original*%
%TF.FileFunction,Legend,Bot*%
%TF.FilePolarity,Positive*%
%FSLAX46Y46*%
G04 Gerber Fmt 4.6, Leading zero omitted, Abs format (unit mm)*
G04 Created by KiCad (PCBNEW 10.0.3) date 2026-09-09 15:07:44*
%MOMM*%
%LPD*%
G01*
G04 APERTURE LIST*
%ADD10C,0.100000*%
%ADD11C,0.125000*%
G04 APERTURE END LIST*
D10*
X-10400000Y7230000D02*
X-6020000Y7230000D01*
X-6020000Y5300000D01*
X-10400000Y5300000D01*
X-10400000Y7230000D01*
X-5660000Y4950000D02*
X3160000Y4950000D01*
X3160000Y3140000D01*
X-5660000Y3140000D01*
X-5660000Y4950000D01*
X-4820000Y-2820000D02*
X-930000Y-2820000D01*
X-930000Y-4980000D01*
X-4820000Y-4980000D01*
X-4820000Y-2820000D01*
X3360000Y-3010000D02*
X9370000Y-3010000D01*
X9370000Y-4900000D01*
X3360000Y-4900000D01*
X3360000Y-3010000D01*
X6950000Y7200000D02*
X8780000Y7200000D01*
X8780000Y240000D01*
X6950000Y240000D01*
X6950000Y7200000D01*
X-7255312Y7582819D02*
X-7207693Y7535200D01*
X-7207693Y7535200D02*
X-7064836Y7487580D01*
X-7064836Y7487580D02*
X-6969598Y7487580D01*
X-6969598Y7487580D02*
X-6826741Y7535200D01*
X-6826741Y7535200D02*
X-6731503Y7630438D01*
X-6731503Y7630438D02*
X-6683884Y7725676D01*
X-6683884Y7725676D02*
X-6636265Y7916152D01*
X-6636265Y7916152D02*
X-6636265Y8059009D01*
X-6636265Y8059009D02*
X-6683884Y8249485D01*
X-6683884Y8249485D02*
X-6731503Y8344723D01*
X-6731503Y8344723D02*
X-6826741Y8439961D01*
X-6826741Y8439961D02*
X-6969598Y8487580D01*
X-6969598Y8487580D02*
X-7064836Y8487580D01*
X-7064836Y8487580D02*
X-7207693Y8439961D01*
X-7207693Y8439961D02*
X-7255312Y8392342D01*
X-7636265Y7773295D02*
X-8112455Y7773295D01*
X-7541027Y7487580D02*
X-7874360Y8487580D01*
X-7874360Y8487580D02*
X-8207693Y7487580D01*
X-8541027Y7487580D02*
X-8541027Y8487580D01*
X-8541027Y8487580D02*
X-9112455Y7487580D01*
X-9112455Y7487580D02*
X-9112455Y8487580D01*
X-5887217Y-3318609D02*
X-6030074Y-3366228D01*
X-6030074Y-3366228D02*
X-6077693Y-3413847D01*
X-6077693Y-3413847D02*
X-6125312Y-3509085D01*
X-6125312Y-3509085D02*
X-6125312Y-3651942D01*
X-6125312Y-3651942D02*
X-6077693Y-3747180D01*
X-6077693Y-3747180D02*
X-6030074Y-3794800D01*
X-6030074Y-3794800D02*
X-5934836Y-3842419D01*
X-5934836Y-3842419D02*
X-5553884Y-3842419D01*
X-5553884Y-3842419D02*
X-5553884Y-2842419D01*
X-5553884Y-2842419D02*
X-5887217Y-2842419D01*
X-5887217Y-2842419D02*
X-5982455Y-2890038D01*
X-5982455Y-2890038D02*
X-6030074Y-2937657D01*
X-6030074Y-2937657D02*
X-6077693Y-3032895D01*
X-6077693Y-3032895D02*
X-6077693Y-3128133D01*
X-6077693Y-3128133D02*
X-6030074Y-3223371D01*
X-6030074Y-3223371D02*
X-5982455Y-3270990D01*
X-5982455Y-3270990D02*
X-5887217Y-3318609D01*
X-5887217Y-3318609D02*
X-5553884Y-3318609D01*
X-6506265Y-3556704D02*
X-6982455Y-3556704D01*
X-6411027Y-3842419D02*
X-6744360Y-2842419D01*
X-6744360Y-2842419D02*
X-7077693Y-3842419D01*
X-7268170Y-2842419D02*
X-7839598Y-2842419D01*
X-7553884Y-3842419D02*
X-7553884Y-2842419D01*
X8692306Y8499961D02*
X8787544Y8547580D01*
X8787544Y8547580D02*
X8930401Y8547580D01*
X8930401Y8547580D02*
X9073258Y8499961D01*
X9073258Y8499961D02*
X9168496Y8404723D01*
X9168496Y8404723D02*
X9216115Y8309485D01*
X9216115Y8309485D02*
X9263734Y8119009D01*
X9263734Y8119009D02*
X9263734Y7976152D01*
X9263734Y7976152D02*
X9216115Y7785676D01*
X9216115Y7785676D02*
X9168496Y7690438D01*
X9168496Y7690438D02*
X9073258Y7595200D01*
X9073258Y7595200D02*
X8930401Y7547580D01*
X8930401Y7547580D02*
X8835163Y7547580D01*
X8835163Y7547580D02*
X8692306Y7595200D01*
X8692306Y7595200D02*
X8644687Y7642819D01*
X8644687Y7642819D02*
X8644687Y7976152D01*
X8644687Y7976152D02*
X8835163Y7976152D01*
X8216115Y7547580D02*
X8216115Y8547580D01*
X8216115Y8547580D02*
X7835163Y8547580D01*
X7835163Y8547580D02*
X7739925Y8499961D01*
X7739925Y8499961D02*
X7692306Y8452342D01*
X7692306Y8452342D02*
X7644687Y8357104D01*
X7644687Y8357104D02*
X7644687Y8214247D01*
X7644687Y8214247D02*
X7692306Y8119009D01*
X7692306Y8119009D02*
X7739925Y8071390D01*
X7739925Y8071390D02*
X7835163Y8023771D01*
X7835163Y8023771D02*
X8216115Y8023771D01*
X7216115Y7547580D02*
X7216115Y8547580D01*
X6549449Y8547580D02*
X6358973Y8547580D01*
X6358973Y8547580D02*
X6263735Y8499961D01*
X6263735Y8499961D02*
X6168497Y8404723D01*
X6168497Y8404723D02*
X6120878Y8214247D01*
X6120878Y8214247D02*
X6120878Y7880914D01*
X6120878Y7880914D02*
X6168497Y7690438D01*
X6168497Y7690438D02*
X6263735Y7595200D01*
X6263735Y7595200D02*
X6358973Y7547580D01*
X6358973Y7547580D02*
X6549449Y7547580D01*
X6549449Y7547580D02*
X6644687Y7595200D01*
X6644687Y7595200D02*
X6739925Y7690438D01*
X6739925Y7690438D02*
X6787544Y7880914D01*
X6787544Y7880914D02*
X6787544Y8214247D01*
X6787544Y8214247D02*
X6739925Y8404723D01*
X6739925Y8404723D02*
X6644687Y8499961D01*
X6644687Y8499961D02*
X6549449Y8547580D01*
X11466115Y-3342419D02*
X11466115Y-2342419D01*
X11037544Y-2437657D02*
X10989925Y-2390038D01*
X10989925Y-2390038D02*
X10894687Y-2342419D01*
X10894687Y-2342419D02*
X10656592Y-2342419D01*
X10656592Y-2342419D02*
X10561354Y-2390038D01*
X10561354Y-2390038D02*
X10513735Y-2437657D01*
X10513735Y-2437657D02*
X10466116Y-2532895D01*
X10466116Y-2532895D02*
X10466116Y-2628133D01*
X10466116Y-2628133D02*
X10513735Y-2770990D01*
X10513735Y-2770990D02*
X11085163Y-3342419D01*
X11085163Y-3342419D02*
X10466116Y-3342419D01*
X9466116Y-3247180D02*
X9513735Y-3294800D01*
X9513735Y-3294800D02*
X9656592Y-3342419D01*
X9656592Y-3342419D02*
X9751830Y-3342419D01*
X9751830Y-3342419D02*
X9894687Y-3294800D01*
X9894687Y-3294800D02*
X9989925Y-3199561D01*
X9989925Y-3199561D02*
X10037544Y-3104323D01*
X10037544Y-3104323D02*
X10085163Y-2913847D01*
X10085163Y-2913847D02*
X10085163Y-2770990D01*
X10085163Y-2770990D02*
X10037544Y-2580514D01*
X10037544Y-2580514D02*
X9989925Y-2485276D01*
X9989925Y-2485276D02*
X9894687Y-2390038D01*
X9894687Y-2390038D02*
X9751830Y-2342419D01*
X9751830Y-2342419D02*
X9656592Y-2342419D01*
X9656592Y-2342419D02*
X9513735Y-2390038D01*
X9513735Y-2390038D02*
X9466116Y-2437657D01*
D11*
X-6092712Y3816500D02*
X-6235569Y3768880D01*
X-6235569Y3768880D02*
X-6473664Y3768880D01*
X-6473664Y3768880D02*
X-6568902Y3816500D01*
X-6568902Y3816500D02*
X-6616521Y3864119D01*
X-6616521Y3864119D02*
X-6664140Y3959357D01*
X-6664140Y3959357D02*
X-6664140Y4054595D01*
X-6664140Y4054595D02*
X-6616521Y4149833D01*
X-6616521Y4149833D02*
X-6568902Y4197452D01*
X-6568902Y4197452D02*
X-6473664Y4245071D01*
X-6473664Y4245071D02*
X-6283188Y4292690D01*
X-6283188Y4292690D02*
X-6187950Y4340309D01*
X-6187950Y4340309D02*
X-6140331Y4387928D01*
X-6140331Y4387928D02*
X-6092712Y4483166D01*
X-6092712Y4483166D02*
X-6092712Y4578404D01*
X-6092712Y4578404D02*
X-6140331Y4673642D01*
X-6140331Y4673642D02*
X-6187950Y4721261D01*
X-6187950Y4721261D02*
X-6283188Y4768880D01*
X-6283188Y4768880D02*
X-6521283Y4768880D01*
X-6521283Y4768880D02*
X-6664140Y4721261D01*
X-7092712Y3768880D02*
X-7092712Y4768880D01*
X-7092712Y4768880D02*
X-7473664Y4768880D01*
X-7473664Y4768880D02*
X-7568902Y4721261D01*
X-7568902Y4721261D02*
X-7616521Y4673642D01*
X-7616521Y4673642D02*
X-7664140Y4578404D01*
X-7664140Y4578404D02*
X-7664140Y4435547D01*
X-7664140Y4435547D02*
X-7616521Y4340309D01*
X-7616521Y4340309D02*
X-7568902Y4292690D01*
X-7568902Y4292690D02*
X-7473664Y4245071D01*
X-7473664Y4245071D02*
X-7092712Y4245071D01*
X-8092712Y3768880D02*
X-8092712Y4768880D01*
M02*
