M48
; DRILL file KiCad 10.0.0 date 2026-09-03T12:15:54
; FORMAT={-:-/ absolute / metric / decimal}
; #@! TF.CreationDate,2026-09-03T12:15:54+02:00
; #@! TF.GenerationSoftware,Kicad,Pcbnew,10.0.0
; #@! TF.FileFunction,Plated,1,2,PTH
FMAT,2
METRIC
; #@! TA.AperFunction,Plated,PTH,ViaDrill
T1C0.300
%
G90
G05
T1
X-14.55Y6.25
X-14.55Y4.65
X-14.55Y3.05
X-14.55Y1.45
X-12.95Y7.85
X-12.95Y6.25
X-12.95Y4.65
X-12.95Y3.05
X-11.35Y11.05
X-11.35Y9.45
X-11.35Y7.85
X-11.35Y6.25
X-11.35Y4.65
X-9.75Y11.05
X-9.75Y9.45
X-9.75Y7.85
X-9.75Y6.25
X-9.75Y4.65
X-8.15Y12.65
X-8.15Y11.05
X-8.15Y6.25
X-8.15Y4.65
X-6.55Y14.25
X-6.55Y-14.55
X-4.95Y-12.95
X-4.95Y-14.55
X-3.35Y-12.95
X-3.35Y-14.55
X-1.75Y-11.35
X-1.75Y-12.95
X-1.75Y-14.55
X-0.15Y-9.75
X-0.15Y-11.35
X-0.15Y-12.95
X-0.15Y-14.55
X1.45Y-11.35
X1.45Y-12.95
X1.45Y-14.55
X3.05Y-12.95
X3.05Y-14.55
X4.65Y-12.95
X4.65Y-14.55
X6.25Y-12.95
X6.25Y-14.55
X7.85Y4.65
X7.85Y-12.95
X9.45Y6.25
X9.45Y4.65
X11.05Y6.25
X11.05Y4.65
X12.65Y6.25
X12.65Y4.65
X12.65Y3.05
X14.25Y6.25
X14.25Y4.65
X14.25Y3.05
X14.25Y1.45
X15.85Y1.45
X15.85Y-0.15
X15.85Y-1.75
M30
