%TF.GenerationSoftware,KiCad,Pcbnew,10.0.0*%
%TF.CreationDate,2026-09-03T12:15:54+02:00*%
%TF.ProjectId,spacer_battery_4,73706163-6572-45f6-9261-74746572795f,rev?*%
%TF.SameCoordinates,Original*%
%TF.FileFunction,Profile,NP*%
%FSLAX46Y46*%
G04 Gerber Fmt 4.6, Leading zero omitted, Abs format (unit mm)*
G04 Created by KiCad (PCBNEW 10.0.0) date 2026-09-03 12:15:54*
%MOMM*%
%LPD*%
G01*
G04 APERTURE LIST*
%TA.AperFunction,Profile*%
%ADD10C,0.150000*%
%TD*%
G04 APERTURE END LIST*
D10*
X17000000Y0D02*
G75*
G02*
X-17000000Y0I-17000000J0D01*
G01*
X-17000000Y0D02*
G75*
G02*
X17000000Y0I17000000J0D01*
G01*
X-9548300Y-11664900D02*
X-9723100Y-11690800D01*
X-9723100Y-11690800D02*
X-9899500Y-11699500D01*
X-9899500Y-11699500D02*
X-10075900Y-11690800D01*
X-10075900Y-11690800D02*
X-10250700Y-11664900D01*
X-10250700Y-11664900D02*
X-10422000Y-11622000D01*
X-10422000Y-11622000D02*
X-10588300Y-11562500D01*
X-10588300Y-11562500D02*
X-10748000Y-11487000D01*
X-10748000Y-11487000D02*
X-10899500Y-11396100D01*
X-10899500Y-11396100D02*
X-11041400Y-11290900D01*
X-11041400Y-11290900D02*
X-11172300Y-11172300D01*
X-11172300Y-11172300D02*
X-11290900Y-11041400D01*
X-11290900Y-11041400D02*
X-11396100Y-10899500D01*
X-11396100Y-10899500D02*
X-11487000Y-10748000D01*
X-11487000Y-10748000D02*
X-11504900Y-10710000D01*
X-11504900Y-10710000D02*
X-12074400Y-10329500D01*
X-12074400Y-10329500D02*
X-12821800Y-9674000D01*
X-12821800Y-9674000D02*
X-13477300Y-8926600D01*
X-13477300Y-8926600D02*
X-14029600Y-8100000D01*
X-14029600Y-8100000D02*
X-14469300Y-7208400D01*
X-14469300Y-7208400D02*
X-14788900Y-6267000D01*
X-14788900Y-6267000D02*
X-14982800Y-5292000D01*
X-14982800Y-5292000D02*
X-15047800Y-4300000D01*
X-15047800Y-4300000D02*
X-14982800Y-3308000D01*
X-14982800Y-3308000D02*
X-14788900Y-2333000D01*
X-14788900Y-2333000D02*
X-14469300Y-1391600D01*
X-14469300Y-1391600D02*
X-14029600Y-500000D01*
X-14029600Y-500000D02*
X-13477300Y326600D01*
X-13477300Y326600D02*
X-12821800Y1074000D01*
X-12821800Y1074000D02*
X-12074400Y1729500D01*
X-12074400Y1729500D02*
X-11247800Y2281800D01*
X-11247800Y2281800D02*
X-10356200Y2721500D01*
X-10356200Y2721500D02*
X-9414800Y3041000D01*
X-9414800Y3041000D02*
X-8439800Y3235000D01*
X-8439800Y3235000D02*
X-7447800Y3300000D01*
X-7447800Y3300000D02*
X-6455800Y3235000D01*
X-6455800Y3235000D02*
X-5480800Y3041000D01*
X-5480800Y3041000D02*
X-4962500Y2865100D01*
X-4962500Y2865100D02*
X-5374000Y3226000D01*
X-5374000Y3226000D02*
X-6029500Y3973400D01*
X-6029500Y3973400D02*
X-6581800Y4800000D01*
X-6581800Y4800000D02*
X-7021500Y5691600D01*
X-7021500Y5691600D02*
X-7341000Y6633000D01*
X-7341000Y6633000D02*
X-7535000Y7608000D01*
X-7535000Y7608000D02*
X-7600000Y8600000D01*
X-7600000Y8600000D02*
X-7535000Y9592000D01*
X-7535000Y9592000D02*
X-7341000Y10567000D01*
X-7341000Y10567000D02*
X-7021500Y11508400D01*
X-7021500Y11508400D02*
X-6581800Y12400000D01*
X-6581800Y12400000D02*
X-6029500Y13226600D01*
X-6029500Y13226600D02*
X-5374000Y13974000D01*
X-5374000Y13974000D02*
X-4626600Y14629500D01*
X-4626600Y14629500D02*
X-3800000Y15181800D01*
X-3800000Y15181800D02*
X-2908400Y15621500D01*
X-2908400Y15621500D02*
X-1967000Y15941000D01*
X-1967000Y15941000D02*
X-992000Y16135000D01*
X-992000Y16135000D02*
X0Y16200000D01*
X0Y16200000D02*
X992000Y16135000D01*
X992000Y16135000D02*
X1967000Y15941000D01*
X1967000Y15941000D02*
X2908400Y15621500D01*
X2908400Y15621500D02*
X3800000Y15181800D01*
X3800000Y15181800D02*
X4626600Y14629500D01*
X4626600Y14629500D02*
X5374000Y13974000D01*
X5374000Y13974000D02*
X6029500Y13226600D01*
X6029500Y13226600D02*
X6581800Y12400000D01*
X6581800Y12400000D02*
X7021500Y11508400D01*
X7021500Y11508400D02*
X7341000Y10567000D01*
X7341000Y10567000D02*
X7535000Y9592000D01*
X7535000Y9592000D02*
X7600000Y8600000D01*
X7600000Y8600000D02*
X7535000Y7608000D01*
X7535000Y7608000D02*
X7341000Y6633000D01*
X7341000Y6633000D02*
X7021500Y5691600D01*
X7021500Y5691600D02*
X6581800Y4800000D01*
X6581800Y4800000D02*
X6029500Y3973400D01*
X6029500Y3973400D02*
X5374000Y3226000D01*
X5374000Y3226000D02*
X4962500Y2865100D01*
X4962500Y2865100D02*
X5480800Y3041000D01*
X5480800Y3041000D02*
X6455800Y3235000D01*
X6455800Y3235000D02*
X7447800Y3300000D01*
X7447800Y3300000D02*
X8439800Y3235000D01*
X8439800Y3235000D02*
X9414800Y3041000D01*
X9414800Y3041000D02*
X10356200Y2721500D01*
X10356200Y2721500D02*
X11247800Y2281800D01*
X11247800Y2281800D02*
X12074400Y1729500D01*
X12074400Y1729500D02*
X12821800Y1074000D01*
X12821800Y1074000D02*
X13477300Y326600D01*
X13477300Y326600D02*
X14029600Y-500000D01*
X14029600Y-500000D02*
X14469300Y-1391600D01*
X14469300Y-1391600D02*
X14788900Y-2333000D01*
X14788900Y-2333000D02*
X14982800Y-3308000D01*
X14982800Y-3308000D02*
X15047800Y-4300000D01*
X15047800Y-4300000D02*
X14982800Y-5292000D01*
X14982800Y-5292000D02*
X14788900Y-6267000D01*
X14788900Y-6267000D02*
X14469300Y-7208400D01*
X14469300Y-7208400D02*
X14029600Y-8100000D01*
X14029600Y-8100000D02*
X13477300Y-8926600D01*
X13477300Y-8926600D02*
X12821800Y-9674000D01*
X12821800Y-9674000D02*
X12074400Y-10329500D01*
X12074400Y-10329500D02*
X11247800Y-10881800D01*
X11247800Y-10881800D02*
X10356200Y-11321500D01*
X10356200Y-11321500D02*
X9414800Y-11641000D01*
X9414800Y-11641000D02*
X8439800Y-11835000D01*
X8439800Y-11835000D02*
X7447800Y-11900000D01*
X7447800Y-11900000D02*
X6455800Y-11835000D01*
X6455800Y-11835000D02*
X5480800Y-11641000D01*
X5480800Y-11641000D02*
X4539400Y-11321500D01*
X4539400Y-11321500D02*
X3647800Y-10881800D01*
X3647800Y-10881800D02*
X2821200Y-10329500D01*
X2821200Y-10329500D02*
X2073800Y-9674000D01*
X2073800Y-9674000D02*
X1418300Y-8926600D01*
X1418300Y-8926600D02*
X866000Y-8100000D01*
X866000Y-8100000D02*
X426300Y-7208400D01*
X426300Y-7208400D02*
X106800Y-6267000D01*
X106800Y-6267000D02*
X0Y-5730200D01*
X0Y-5730200D02*
X-106800Y-6267000D01*
X-106800Y-6267000D02*
X-426300Y-7208400D01*
X-426300Y-7208400D02*
X-866000Y-8100000D01*
X-866000Y-8100000D02*
X-1418300Y-8926600D01*
X-1418300Y-8926600D02*
X-2073800Y-9674000D01*
X-2073800Y-9674000D02*
X-2821200Y-10329500D01*
X-2821200Y-10329500D02*
X-3647800Y-10881800D01*
X-3647800Y-10881800D02*
X-4539400Y-11321500D01*
X-4539400Y-11321500D02*
X-5480800Y-11641000D01*
X-5480800Y-11641000D02*
X-6455800Y-11835000D01*
X-6455800Y-11835000D02*
X-7447800Y-11900000D01*
X-7447800Y-11900000D02*
X-8439800Y-11835000D01*
X-8439800Y-11835000D02*
X-9414800Y-11641000D01*
X-9414800Y-11641000D02*
X-9431100Y-11635500D01*
X-9431100Y-11635500D02*
X-9548300Y-11664900D01*
M02*
