%TF.GenerationSoftware,KiCad,Pcbnew,10.0.0*%
%TF.CreationDate,2026-09-03T12:15:54+02:00*%
%TF.ProjectId,spacer_battery_4,73706163-6572-45f6-9261-74746572795f,rev?*%
%TF.SameCoordinates,Original*%
%TF.FileFunction,Paste,Top*%
%TF.FilePolarity,Positive*%
%FSLAX46Y46*%
G04 Gerber Fmt 4.6, Leading zero omitted, Abs format (unit mm)*
G04 Created by KiCad (PCBNEW 10.0.0) date 2026-09-03 12:15:54*
%MOMM*%
%LPD*%
G01*
G04 APERTURE LIST*
%ADD10C,0.800000*%
%ADD11R,0.900000X0.900000*%
G04 APERTURE END LIST*
D10*
%TO.C,SP_battery_4*%
X0Y0D03*
%TD*%
D11*
%TO.C,J_spacer_battery_4_top*%
X-14550000Y1450000D03*
X-14550000Y3050000D03*
X-14550000Y4650000D03*
X-14550000Y6250000D03*
X-12950000Y3050000D03*
X-12950000Y4650000D03*
X-12950000Y6250000D03*
X-12950000Y7850000D03*
X-11350000Y4650000D03*
X-11350000Y6250000D03*
X-11350000Y7850000D03*
X-11350000Y9450000D03*
X-11350000Y11050000D03*
X-9750000Y4650000D03*
X-9750000Y6250000D03*
X-9750000Y7850000D03*
X-9750000Y9450000D03*
X-9750000Y11050000D03*
X-8150000Y4650000D03*
X-8150000Y6250000D03*
X-8150000Y11050000D03*
X-8150000Y12650000D03*
X-6550000Y-14550000D03*
X-6550000Y14250000D03*
X-4950000Y-14550000D03*
X-4950000Y-12950000D03*
X-3350000Y-14550000D03*
X-3350000Y-12950000D03*
X-1750000Y-14550000D03*
X-1750000Y-12950000D03*
X-1750000Y-11350000D03*
X-150000Y-14550000D03*
X-150000Y-12950000D03*
X-150000Y-11350000D03*
X-150000Y-9750000D03*
X1450000Y-14550000D03*
X1450000Y-12950000D03*
X1450000Y-11350000D03*
X3050000Y-14550000D03*
X3050000Y-12950000D03*
X4650000Y-14550000D03*
X4650000Y-12950000D03*
X6250000Y-14550000D03*
X6250000Y-12950000D03*
X7850000Y-12950000D03*
X7850000Y4650000D03*
X9450000Y4650000D03*
X9450000Y6250000D03*
X11050000Y4650000D03*
X11050000Y6250000D03*
X12650000Y3050000D03*
X12650000Y4650000D03*
X12650000Y6250000D03*
X14250000Y1450000D03*
X14250000Y3050000D03*
X14250000Y4650000D03*
X14250000Y6250000D03*
X15850000Y-1750000D03*
X15850000Y-150000D03*
X15850000Y1450000D03*
%TD*%
M02*
