%TF.GenerationSoftware,KiCad,Pcbnew,10.0.3*%
%TF.CreationDate,2026-09-09T12:22:40+02:00*%
%TF.ProjectId,aft_end_board,6166745f-656e-4645-9f62-6f6172642e6b,rev?*%
%TF.SameCoordinates,Original*%
%TF.FileFunction,Copper,L3,Inr*%
%TF.FilePolarity,Positive*%
%FSLAX46Y46*%
G04 Gerber Fmt 4.6, Leading zero omitted, Abs format (unit mm)*
G04 Created by KiCad (PCBNEW 10.0.3) date 2026-09-09 12:22:40*
%MOMM*%
%LPD*%
G01*
G04 APERTURE LIST*
%TA.AperFunction,ViaPad*%
%ADD10C,0.450000*%
%TD*%
G04 APERTURE END LIST*
D10*
%TO.N,EXT_CAN_TX*%
X13116300Y8450000D03*
X-809300Y5249100D03*
%TO.N,FLEX_GND*%
X7060000Y7250000D03*
X1140000Y-3190000D03*
X2950000Y810000D03*
X2160000Y-8390000D03*
X-2480000Y7600000D03*
X9000000Y-9460000D03*
X12920000Y6720000D03*
%TO.N,COMP_5V*%
X-12092100Y-513500D03*
X-1308400Y5000500D03*
X12552100Y5250000D03*
X879600Y10888500D03*
%TO.N,EXT_CAN_RX*%
X12774800Y-1989700D03*
X1306200Y6116800D03*
X12096800Y3280800D03*
%TO.N,3V3*%
X2424800Y10867300D03*
X12623100Y-5127600D03*
%TO.N,EXT_CAN_N*%
X-4660500Y5816500D03*
X2061300Y5918500D03*
%TO.N,EXT_CAN_P*%
X-2958500Y-865000D03*
X-5702000Y-2204900D03*
%TO.N,BAT_PROT*%
X5953000Y6676400D03*
X13195400Y1026700D03*
%TO.N,GPIO_EXT_0*%
X7573300Y12496300D03*
X5762100Y6104700D03*
%TO.N,GPIO_EXT_1*%
X7043500Y-13820800D03*
X5753100Y5401200D03*
%TO.N,Y7_FIRE_SEL*%
X542400Y-7617800D03*
X2991000Y5730700D03*
%TO.N,Y6_FIRE_SEL*%
X6371700Y4872700D03*
X-5829400Y5548900D03*
%TO.N,Y5_FIRE_SEL*%
X6539800Y3849400D03*
X-8699100Y-4869100D03*
%TO.N,Y4_FIRE_SEL*%
X5819800Y3065000D03*
X-197300Y-7632900D03*
X-4124200Y-8479500D03*
%TO.N,Y3_FIRE_SEL*%
X3010000Y-3260000D03*
X5920000Y2190000D03*
%TO.N,Y1_FIRE_SEL*%
X7613000Y806800D03*
X-5198000Y-3100600D03*
%TO.N,Y0_FIRE_SEL*%
X7447900Y-3342900D03*
X-349000Y-8889000D03*
%TO.N,Y13_FIRE_SEL*%
X9116500Y-6243000D03*
X3982700Y-6243000D03*
X10414800Y-1443600D03*
%TO.N,Y12_FIRE_SEL*%
X9455600Y-225400D03*
X-2056300Y8283600D03*
%TO.N,Y15_FIRE_SEL*%
X-5795300Y10001700D03*
X9937500Y8410800D03*
X11631400Y826000D03*
%TO.N,Y14_FIRE_SEL*%
X-5281300Y1464600D03*
X9454700Y561300D03*
%TO.N,Y9_FIRE_SEL*%
X11633600Y2541900D03*
X-9309700Y4768700D03*
%TO.N,Y8_FIRE_SEL*%
X9372700Y1418100D03*
X7512400Y-7512500D03*
%TO.N,Y11_FIRE_SEL*%
X9452500Y2658900D03*
X-9937000Y287600D03*
%TO.N,Y10_FIRE_SEL*%
X3898800Y9727700D03*
X9454100Y4347300D03*
X8105400Y8892600D03*
%TO.N,GPIO_EXT_2*%
X5938200Y-11598000D03*
X6570000Y1570000D03*
%TO.N,GPIO_EXT_3*%
X-6282300Y-1851000D03*
X5987800Y-9997900D03*
X9542200Y5340300D03*
%TO.N,FIRE_HV*%
X2201000Y-7369600D03*
X1150000Y12492500D03*
X8391600Y9912300D03*
X8785800Y-1449100D03*
%TO.N,ACTIVATE_CONFIRM*%
X13950000Y-3514600D03*
X3334200Y-4925400D03*
X922500Y-7225500D03*
%TO.N,JUMP_PAD*%
X3310000Y-2250000D03*
X-1690000Y-860000D03*
%TO.N,JUMP_WAKE*%
X8150000Y-850000D03*
X3150000Y-270000D03*
%TO.N,ACT_WIRE_13*%
X4664500Y-7290700D03*
X3753400Y-13207500D03*
%TO.N,ACT_WIRE_3*%
X6640400Y12601500D03*
X5834000Y-1305700D03*
%TO.N,ACT_WIRE_1*%
X-5027900Y-814100D03*
X13153700Y4603900D03*
%TO.N,ACT_WIRE_12*%
X1841200Y6817700D03*
X353400Y-13688800D03*
%TO.N,ACT_WIRE_5*%
X-6703700Y-1477000D03*
X-5740000Y12498200D03*
%TO.N,ACT_WIRE_6*%
X-11542800Y9677200D03*
X-5476000Y7804000D03*
%TO.N,ACT_WIRE_10*%
X3964000Y9144000D03*
X-9453400Y-9924300D03*
%TO.N,FIRE_ARM_GD*%
X-3730000Y-5280000D03*
X1030000Y-740000D03*
%TO.N,ACT_WIRE_7*%
X-12498000Y5740000D03*
X1330000Y-7562900D03*
%TO.N,ACT_WIRE_0*%
X13184400Y-1068200D03*
X2384900Y-10521800D03*
%TO.N,ACTIVATE_SET*%
X5817900Y4158200D03*
X13190200Y114400D03*
X-3840700Y-6485600D03*
%TO.N,ACT_WIRE_4*%
X-1083600Y14151800D03*
X-3285100Y-9737100D03*
%TO.N,3V3_AON*%
X12744100Y-1454600D03*
X-1600Y7611900D03*
%TO.N,BAT_RAW*%
X13192700Y1841500D03*
X967600Y-13190900D03*
%TO.N,BOOT0*%
X13196500Y3650000D03*
X6609300Y2691500D03*
X-7474100Y-436700D03*
%TO.N,COMP_SWDCLK*%
X3420000Y-2890000D03*
X12350000Y-6705600D03*
%TO.N,COMP_SWDIO*%
X11773300Y-1979600D03*
X-656300Y7497700D03*
%TO.N,FIN1_AOUT1*%
X1050000Y820000D03*
X10750000Y-6705900D03*
%TO.N,FIN2_AOUT1*%
X-910300Y3041700D03*
X10145300Y-3605900D03*
%TO.N,FIN3_AOUT1*%
X-5128300Y-4878300D03*
X11502800Y-3966300D03*
%TO.N,FIN4_AOUT1*%
X5829900Y1556500D03*
X10927500Y7695800D03*
%TO.N,FIN_HALL*%
X4787100Y-5522000D03*
X10038400Y9338400D03*
%TO.N,FIN_VREF*%
X4038600Y-5712700D03*
X8479100Y7777500D03*
%TO.N,NRST*%
X-735100Y-7418900D03*
%TO.N,SWO*%
X5345200Y-10017300D03*
X-6285400Y-1068200D03*
%TO.N,SYS_I2C_SCL*%
X4664800Y-8435200D03*
X5336500Y-4672300D03*
%TO.N,SYS_I2C_SDA*%
X-3825400Y5795800D03*
X4350000Y12490600D03*
%TO.N,SYS_SPI_CS_FIN*%
X-6114300Y3207600D03*
X2081900Y-13281900D03*
%TO.N,SYS_SPI_MISO*%
X5513600Y-1851000D03*
X3396900Y6162100D03*
%TO.N,SYS_SPI_MOSI*%
X2023500Y7483400D03*
%TO.N,SYS_SPI_SCLK*%
X1992400Y10012100D03*
X910800Y3041200D03*
%TO.N,FIRE_ARMED*%
X-1175800Y812400D03*
X6058100Y-3026600D03*
%TO.N,ACT_WIRE_15*%
X-4326000Y8642700D03*
X12893800Y-6706200D03*
%TO.N,ACT_WIRE_11*%
X-8977000Y2398900D03*
X-7050100Y-13654700D03*
%TO.N,ACT_WIRE_2*%
X8506100Y10735700D03*
X1350300Y-8189800D03*
%TO.N,ACT_WIRE_8*%
X7310000Y-6150000D03*
X-14079000Y921000D03*
%TO.N,ACT_WIRE_9*%
X-9613800Y7084900D03*
X-12599300Y-5150000D03*
%TO.N,ACT_WIRE_14*%
X-5476000Y5023600D03*
X10610000Y-9294700D03*
%TD*%
%TA.AperFunction,Conductor*%
%TO.N,FLEX_GND*%
G36*
X127940Y16494413D02*
G01*
X1352643Y16440931D01*
X1359388Y16440452D01*
X1571721Y16419538D01*
X1575753Y16419074D01*
X2838174Y16252857D01*
X2846178Y16251535D01*
X2931850Y16234494D01*
X2934494Y16233939D01*
X4151545Y15964167D01*
X4154840Y15963389D01*
X4319042Y15922258D01*
X4326204Y15920233D01*
X5511321Y15546518D01*
X5515804Y15545010D01*
X5738165Y15465447D01*
X5743838Y15463259D01*
X6871740Y14996119D01*
X6877309Y14993651D01*
X7092819Y14891723D01*
X7097062Y14889616D01*
X8198692Y14316109D01*
X8205180Y14312480D01*
X8348892Y14226343D01*
X8351769Y14224565D01*
X9403754Y13554379D01*
X9406019Y13552900D01*
X9479172Y13504021D01*
X9485769Y13499294D01*
X10496101Y12724028D01*
X10499279Y12721506D01*
X10663836Y12586457D01*
X10668939Y12582031D01*
X11572057Y11754563D01*
X11575970Y11750817D01*
X11750817Y11575970D01*
X11754563Y11572057D01*
X12582031Y10668939D01*
X12586457Y10663836D01*
X12721506Y10499279D01*
X12724028Y10496101D01*
X13499294Y9485769D01*
X13504021Y9479172D01*
X13552900Y9406019D01*
X13554379Y9403754D01*
X14224565Y8351769D01*
X14226343Y8348892D01*
X14312480Y8205180D01*
X14316109Y8198692D01*
X14889616Y7097062D01*
X14891723Y7092819D01*
X14993651Y6877309D01*
X14996119Y6871740D01*
X15463259Y5743838D01*
X15465447Y5738165D01*
X15545010Y5515804D01*
X15546518Y5511321D01*
X15920233Y4326204D01*
X15922258Y4319042D01*
X15963389Y4154840D01*
X15964167Y4151545D01*
X16233939Y2934494D01*
X16234494Y2931850D01*
X16251535Y2846178D01*
X16252857Y2838174D01*
X16419074Y1575753D01*
X16419538Y1571722D01*
X16419538Y1571721D01*
X16440452Y1359388D01*
X16440931Y1352643D01*
X16494413Y127940D01*
X16494531Y122530D01*
X16494531Y-122530D01*
X16494413Y-127940D01*
X16440931Y-1352643D01*
X16440452Y-1359388D01*
X16419538Y-1571721D01*
X16419074Y-1575753D01*
X16252857Y-2838174D01*
X16251535Y-2846178D01*
X16234494Y-2931850D01*
X16233939Y-2934494D01*
X15964167Y-4151545D01*
X15963389Y-4154840D01*
X15922258Y-4319042D01*
X15920233Y-4326204D01*
X15546518Y-5511321D01*
X15545010Y-5515804D01*
X15465447Y-5738165D01*
X15463259Y-5743838D01*
X14996119Y-6871740D01*
X14993651Y-6877309D01*
X14891723Y-7092819D01*
X14889616Y-7097062D01*
X14316109Y-8198692D01*
X14312480Y-8205180D01*
X14226343Y-8348892D01*
X14224565Y-8351769D01*
X13554379Y-9403754D01*
X13552900Y-9406019D01*
X13504021Y-9479172D01*
X13499294Y-9485769D01*
X12724028Y-10496101D01*
X12721506Y-10499279D01*
X12586457Y-10663836D01*
X12582031Y-10668939D01*
X11754563Y-11572057D01*
X11750817Y-11575970D01*
X11575970Y-11750817D01*
X11572057Y-11754563D01*
X10668939Y-12582031D01*
X10663836Y-12586457D01*
X10499279Y-12721506D01*
X10496101Y-12724028D01*
X9485769Y-13499294D01*
X9479172Y-13504021D01*
X9406019Y-13552900D01*
X9403754Y-13554379D01*
X8351769Y-14224565D01*
X8348892Y-14226343D01*
X8205180Y-14312480D01*
X8198692Y-14316109D01*
X7097062Y-14889616D01*
X7092819Y-14891723D01*
X6877309Y-14993651D01*
X6871740Y-14996119D01*
X5743838Y-15463259D01*
X5738165Y-15465447D01*
X5515804Y-15545010D01*
X5511321Y-15546518D01*
X4326204Y-15920233D01*
X4319042Y-15922258D01*
X4154840Y-15963389D01*
X4151545Y-15964167D01*
X2934494Y-16233939D01*
X2931850Y-16234494D01*
X2846178Y-16251535D01*
X2838174Y-16252857D01*
X1575753Y-16419074D01*
X1571721Y-16419538D01*
X1359388Y-16440452D01*
X1352643Y-16440931D01*
X127940Y-16494413D01*
X122530Y-16494531D01*
X-122530Y-16494531D01*
X-127940Y-16494413D01*
X-1352643Y-16440931D01*
X-1359388Y-16440452D01*
X-1571721Y-16419538D01*
X-1575753Y-16419074D01*
X-2838174Y-16252857D01*
X-2846178Y-16251535D01*
X-2931850Y-16234494D01*
X-2934494Y-16233939D01*
X-4151545Y-15964167D01*
X-4154840Y-15963389D01*
X-4319042Y-15922258D01*
X-4326204Y-15920233D01*
X-5511321Y-15546518D01*
X-5515804Y-15545010D01*
X-5738165Y-15465447D01*
X-5743838Y-15463259D01*
X-6871740Y-14996119D01*
X-6877309Y-14993651D01*
X-7092819Y-14891723D01*
X-7097062Y-14889616D01*
X-8198692Y-14316109D01*
X-8205180Y-14312480D01*
X-8348892Y-14226343D01*
X-8351769Y-14224565D01*
X-9182809Y-13695136D01*
X-9334212Y-13598682D01*
X-7475600Y-13598682D01*
X-7475600Y-13710718D01*
X-7446603Y-13818937D01*
X-7390585Y-13915963D01*
X-7311363Y-13995185D01*
X-7214337Y-14051203D01*
X-7106118Y-14080200D01*
X-7106116Y-14080200D01*
X-6994084Y-14080200D01*
X-6994082Y-14080200D01*
X-6885863Y-14051203D01*
X-6788837Y-13995185D01*
X-6709615Y-13915963D01*
X-6653597Y-13818937D01*
X-6624600Y-13710718D01*
X-6624600Y-13632782D01*
X-72100Y-13632782D01*
X-72100Y-13744818D01*
X-43103Y-13853037D01*
X12915Y-13950063D01*
X92137Y-14029285D01*
X189163Y-14085303D01*
X297382Y-14114300D01*
X297384Y-14114300D01*
X409416Y-14114300D01*
X409418Y-14114300D01*
X517637Y-14085303D01*
X614663Y-14029285D01*
X693885Y-13950063D01*
X749903Y-13853037D01*
X773551Y-13764782D01*
X6618000Y-13764782D01*
X6618000Y-13876818D01*
X6637627Y-13950065D01*
X6646997Y-13985036D01*
X6646998Y-13985039D01*
X6665669Y-14017379D01*
X6703015Y-14082063D01*
X6782237Y-14161285D01*
X6879263Y-14217303D01*
X6987482Y-14246300D01*
X6987484Y-14246300D01*
X7099516Y-14246300D01*
X7099518Y-14246300D01*
X7207737Y-14217303D01*
X7304763Y-14161285D01*
X7383985Y-14082063D01*
X7440003Y-13985037D01*
X7469000Y-13876818D01*
X7469000Y-13764782D01*
X7440003Y-13656563D01*
X7383985Y-13559537D01*
X7304763Y-13480315D01*
X7207737Y-13424297D01*
X7099518Y-13395300D01*
X6987482Y-13395300D01*
X6879263Y-13424297D01*
X6879260Y-13424298D01*
X6782240Y-13480313D01*
X6782234Y-13480317D01*
X6703017Y-13559534D01*
X6703013Y-13559540D01*
X6646998Y-13656560D01*
X6646997Y-13656563D01*
X6618000Y-13764782D01*
X773551Y-13764782D01*
X778900Y-13744818D01*
X778900Y-13740326D01*
X798585Y-13673287D01*
X851389Y-13627532D01*
X903455Y-13619773D01*
X903455Y-13616400D01*
X1023616Y-13616400D01*
X1023618Y-13616400D01*
X1131837Y-13587403D01*
X1228863Y-13531385D01*
X1308085Y-13452163D01*
X1364103Y-13355137D01*
X1393100Y-13246918D01*
X1393100Y-13225882D01*
X1656400Y-13225882D01*
X1656400Y-13337918D01*
X1685397Y-13446137D01*
X1741415Y-13543163D01*
X1820637Y-13622385D01*
X1917663Y-13678403D01*
X2025882Y-13707400D01*
X2025884Y-13707400D01*
X2137916Y-13707400D01*
X2137918Y-13707400D01*
X2246137Y-13678403D01*
X2343163Y-13622385D01*
X2422385Y-13543163D01*
X2478403Y-13446137D01*
X2507400Y-13337918D01*
X2507400Y-13225882D01*
X2487465Y-13151482D01*
X3327900Y-13151482D01*
X3327900Y-13263518D01*
X3347836Y-13337918D01*
X3356897Y-13371736D01*
X3356898Y-13371739D01*
X3369427Y-13393440D01*
X3412915Y-13468763D01*
X3492137Y-13547985D01*
X3589163Y-13604003D01*
X3697382Y-13633000D01*
X3697384Y-13633000D01*
X3809416Y-13633000D01*
X3809418Y-13633000D01*
X3917637Y-13604003D01*
X4014663Y-13547985D01*
X4093885Y-13468763D01*
X4149903Y-13371737D01*
X4178900Y-13263518D01*
X4178900Y-13151482D01*
X4149903Y-13043263D01*
X4093885Y-12946237D01*
X4014663Y-12867015D01*
X3917637Y-12810997D01*
X3809418Y-12782000D01*
X3697382Y-12782000D01*
X3589163Y-12810997D01*
X3589160Y-12810998D01*
X3492140Y-12867013D01*
X3492134Y-12867017D01*
X3412917Y-12946234D01*
X3412913Y-12946240D01*
X3356898Y-13043260D01*
X3356897Y-13043263D01*
X3327900Y-13151482D01*
X2487465Y-13151482D01*
X2478403Y-13117663D01*
X2422385Y-13020637D01*
X2343163Y-12941415D01*
X2246137Y-12885397D01*
X2137918Y-12856400D01*
X2025882Y-12856400D01*
X1917663Y-12885397D01*
X1917660Y-12885398D01*
X1820640Y-12941413D01*
X1820634Y-12941417D01*
X1741417Y-13020634D01*
X1741413Y-13020640D01*
X1685398Y-13117660D01*
X1685397Y-13117663D01*
X1656400Y-13225882D01*
X1393100Y-13225882D01*
X1393100Y-13134882D01*
X1364103Y-13026663D01*
X1308085Y-12929637D01*
X1228863Y-12850415D01*
X1131837Y-12794397D01*
X1023618Y-12765400D01*
X911582Y-12765400D01*
X803363Y-12794397D01*
X803360Y-12794398D01*
X706340Y-12850413D01*
X706334Y-12850417D01*
X627117Y-12929634D01*
X627113Y-12929640D01*
X571098Y-13026660D01*
X571097Y-13026663D01*
X542100Y-13134882D01*
X542100Y-13139373D01*
X522415Y-13206412D01*
X469611Y-13252167D01*
X417545Y-13259972D01*
X417545Y-13263300D01*
X297382Y-13263300D01*
X189163Y-13292297D01*
X189160Y-13292298D01*
X92140Y-13348313D01*
X92134Y-13348317D01*
X12917Y-13427534D01*
X12915Y-13427537D01*
X-43103Y-13524563D01*
X-72100Y-13632782D01*
X-6624600Y-13632782D01*
X-6624600Y-13598682D01*
X-6653597Y-13490463D01*
X-6653598Y-13490460D01*
X-6709613Y-13393440D01*
X-6709617Y-13393434D01*
X-6788834Y-13314217D01*
X-6788840Y-13314213D01*
X-6885860Y-13258198D01*
X-6885863Y-13258197D01*
X-6994082Y-13229200D01*
X-7106118Y-13229200D01*
X-7214337Y-13258197D01*
X-7214338Y-13258197D01*
X-7214339Y-13258198D01*
X-7223176Y-13263300D01*
X-7311363Y-13314215D01*
X-7390585Y-13393437D01*
X-7446603Y-13490463D01*
X-7475600Y-13598682D01*
X-9334212Y-13598682D01*
X-9403754Y-13554379D01*
X-9406019Y-13552900D01*
X-9479172Y-13504021D01*
X-9485769Y-13499294D01*
X-10496101Y-12724028D01*
X-10499279Y-12721506D01*
X-10663836Y-12586457D01*
X-10668939Y-12582031D01*
X-11572057Y-11754563D01*
X-11575970Y-11750817D01*
X-11750817Y-11575970D01*
X-11754563Y-11572057D01*
X-11782119Y-11541982D01*
X5512700Y-11541982D01*
X5512700Y-11654018D01*
X5541697Y-11762237D01*
X5597715Y-11859263D01*
X5676937Y-11938485D01*
X5773963Y-11994503D01*
X5882182Y-12023500D01*
X5882184Y-12023500D01*
X5994216Y-12023500D01*
X5994218Y-12023500D01*
X6102437Y-11994503D01*
X6199463Y-11938485D01*
X6278685Y-11859263D01*
X6334703Y-11762237D01*
X6363700Y-11654018D01*
X6363700Y-11541982D01*
X6334703Y-11433763D01*
X6278685Y-11336737D01*
X6199463Y-11257515D01*
X6102437Y-11201497D01*
X5994218Y-11172500D01*
X5882182Y-11172500D01*
X5773963Y-11201497D01*
X5773960Y-11201498D01*
X5676940Y-11257513D01*
X5676934Y-11257517D01*
X5597717Y-11336734D01*
X5597713Y-11336740D01*
X5541698Y-11433760D01*
X5541697Y-11433763D01*
X5512700Y-11541982D01*
X-11782119Y-11541982D01*
X-12582031Y-10668939D01*
X-12586457Y-10663836D01*
X-12721506Y-10499279D01*
X-12724028Y-10496101D01*
X-12747293Y-10465782D01*
X1959400Y-10465782D01*
X1959400Y-10577818D01*
X1988397Y-10686037D01*
X2044415Y-10783063D01*
X2123637Y-10862285D01*
X2220663Y-10918303D01*
X2328882Y-10947300D01*
X2328884Y-10947300D01*
X2440916Y-10947300D01*
X2440918Y-10947300D01*
X2549137Y-10918303D01*
X2646163Y-10862285D01*
X2725385Y-10783063D01*
X2781403Y-10686037D01*
X2810400Y-10577818D01*
X2810400Y-10465782D01*
X2781403Y-10357563D01*
X2725385Y-10260537D01*
X2646163Y-10181315D01*
X2581479Y-10143969D01*
X2549139Y-10125298D01*
X2549138Y-10125297D01*
X2549137Y-10125297D01*
X2440918Y-10096300D01*
X2328882Y-10096300D01*
X2220663Y-10125297D01*
X2220660Y-10125298D01*
X2123640Y-10181313D01*
X2123634Y-10181317D01*
X2044417Y-10260534D01*
X2044413Y-10260540D01*
X1988398Y-10357560D01*
X1988397Y-10357563D01*
X1959400Y-10465782D01*
X-12747293Y-10465782D01*
X-13154089Y-9935642D01*
X-13205777Y-9868282D01*
X-9878900Y-9868282D01*
X-9878900Y-9980318D01*
X-9849903Y-10088537D01*
X-9793885Y-10185563D01*
X-9714663Y-10264785D01*
X-9617637Y-10320803D01*
X-9509418Y-10349800D01*
X-9509416Y-10349800D01*
X-9397384Y-10349800D01*
X-9397382Y-10349800D01*
X-9289163Y-10320803D01*
X-9192137Y-10264785D01*
X-9112915Y-10185563D01*
X-9056897Y-10088537D01*
X-9027900Y-9980318D01*
X-9027900Y-9868282D01*
X-9056897Y-9760063D01*
X-9056898Y-9760060D01*
X-9071393Y-9734955D01*
X-9102496Y-9681082D01*
X-3710600Y-9681082D01*
X-3710600Y-9793118D01*
X-3681603Y-9901337D01*
X-3625585Y-9998363D01*
X-3546363Y-10077585D01*
X-3449337Y-10133603D01*
X-3341118Y-10162600D01*
X-3341116Y-10162600D01*
X-3229084Y-10162600D01*
X-3229082Y-10162600D01*
X-3120863Y-10133603D01*
X-3023837Y-10077585D01*
X-2944615Y-9998363D01*
X-2923206Y-9961282D01*
X4919700Y-9961282D01*
X4919700Y-10073318D01*
X4943500Y-10162139D01*
X4948697Y-10181536D01*
X4948698Y-10181539D01*
X4967369Y-10213879D01*
X5004715Y-10278563D01*
X5083937Y-10357785D01*
X5180963Y-10413803D01*
X5289182Y-10442800D01*
X5289184Y-10442800D01*
X5401216Y-10442800D01*
X5401218Y-10442800D01*
X5509437Y-10413803D01*
X5606463Y-10357785D01*
X5606470Y-10357777D01*
X5606703Y-10357600D01*
X5606946Y-10357505D01*
X5613502Y-10353721D01*
X5614091Y-10354742D01*
X5671869Y-10332400D01*
X5740316Y-10346432D01*
X5744198Y-10348582D01*
X5760142Y-10357787D01*
X5823563Y-10394403D01*
X5931782Y-10423400D01*
X5931784Y-10423400D01*
X6043816Y-10423400D01*
X6043818Y-10423400D01*
X6152037Y-10394403D01*
X6249063Y-10338385D01*
X6328285Y-10259163D01*
X6384303Y-10162137D01*
X6413300Y-10053918D01*
X6413300Y-9941882D01*
X6384303Y-9833663D01*
X6328285Y-9736637D01*
X6249063Y-9657415D01*
X6152037Y-9601397D01*
X6043818Y-9572400D01*
X5931782Y-9572400D01*
X5823563Y-9601397D01*
X5823560Y-9601398D01*
X5726530Y-9657418D01*
X5726280Y-9657611D01*
X5726030Y-9657707D01*
X5719498Y-9661479D01*
X5718909Y-9660459D01*
X5661109Y-9682801D01*
X5592665Y-9668757D01*
X5588802Y-9666618D01*
X5509437Y-9620797D01*
X5437038Y-9601398D01*
X5401218Y-9591800D01*
X5289182Y-9591800D01*
X5180963Y-9620797D01*
X5180960Y-9620798D01*
X5083940Y-9676813D01*
X5083934Y-9676817D01*
X5004717Y-9756034D01*
X5004713Y-9756040D01*
X4948698Y-9853060D01*
X4948697Y-9853063D01*
X4919700Y-9961282D01*
X-2923206Y-9961282D01*
X-2912007Y-9941884D01*
X-2888597Y-9901338D01*
X-2859600Y-9793117D01*
X-2859600Y-9681082D01*
X-2888597Y-9572863D01*
X-2888598Y-9572860D01*
X-2944613Y-9475840D01*
X-2944617Y-9475834D01*
X-3023834Y-9396617D01*
X-3023840Y-9396613D01*
X-3120860Y-9340598D01*
X-3120863Y-9340597D01*
X-3229082Y-9311600D01*
X-3341118Y-9311600D01*
X-3449337Y-9340597D01*
X-3546363Y-9396615D01*
X-3625585Y-9475837D01*
X-3681603Y-9572863D01*
X-3710600Y-9681082D01*
X-9102496Y-9681082D01*
X-9112913Y-9663040D01*
X-9112917Y-9663034D01*
X-9192134Y-9583817D01*
X-9192140Y-9583813D01*
X-9289160Y-9527798D01*
X-9289163Y-9527797D01*
X-9397382Y-9498800D01*
X-9509418Y-9498800D01*
X-9617637Y-9527797D01*
X-9714663Y-9583815D01*
X-9793885Y-9663037D01*
X-9849903Y-9760063D01*
X-9878900Y-9868282D01*
X-13205777Y-9868282D01*
X-13499294Y-9485769D01*
X-13504021Y-9479172D01*
X-13552900Y-9406019D01*
X-13554379Y-9403754D01*
X-14141612Y-8481980D01*
X-14178879Y-8423482D01*
X-4549700Y-8423482D01*
X-4549700Y-8535518D01*
X-4520703Y-8643737D01*
X-4464685Y-8740763D01*
X-4385463Y-8819985D01*
X-4288437Y-8876003D01*
X-4180218Y-8905000D01*
X-4180216Y-8905000D01*
X-4068184Y-8905000D01*
X-4068182Y-8905000D01*
X-3959963Y-8876003D01*
X-3885448Y-8832982D01*
X-774500Y-8832982D01*
X-774500Y-8945018D01*
X-745503Y-9053237D01*
X-689485Y-9150263D01*
X-610263Y-9229485D01*
X-513237Y-9285503D01*
X-405018Y-9314500D01*
X-405016Y-9314500D01*
X-292984Y-9314500D01*
X-292982Y-9314500D01*
X-184763Y-9285503D01*
X-103667Y-9238682D01*
X10184500Y-9238682D01*
X10184500Y-9350718D01*
X10213497Y-9458937D01*
X10269515Y-9555963D01*
X10348737Y-9635185D01*
X10445763Y-9691203D01*
X10553982Y-9720200D01*
X10553984Y-9720200D01*
X10666016Y-9720200D01*
X10666018Y-9720200D01*
X10774237Y-9691203D01*
X10871263Y-9635185D01*
X10950485Y-9555963D01*
X11006503Y-9458937D01*
X11035500Y-9350718D01*
X11035500Y-9238682D01*
X11006503Y-9130463D01*
X10950485Y-9033437D01*
X10871263Y-8954215D01*
X10786020Y-8905000D01*
X10774239Y-8898198D01*
X10774238Y-8898197D01*
X10774237Y-8898197D01*
X10666018Y-8869200D01*
X10553982Y-8869200D01*
X10445763Y-8898197D01*
X10445760Y-8898198D01*
X10348740Y-8954213D01*
X10348734Y-8954217D01*
X10269517Y-9033434D01*
X10269513Y-9033440D01*
X10213498Y-9130460D01*
X10213497Y-9130463D01*
X10184500Y-9238682D01*
X-103667Y-9238682D01*
X-87737Y-9229485D01*
X-8515Y-9150263D01*
X47503Y-9053237D01*
X76500Y-8945018D01*
X76500Y-8832982D01*
X47503Y-8724763D01*
X-8515Y-8627737D01*
X-8517Y-8627734D01*
X-87734Y-8548517D01*
X-87740Y-8548513D01*
X-184760Y-8492498D01*
X-184763Y-8492497D01*
X-292982Y-8463500D01*
X-405018Y-8463500D01*
X-513237Y-8492497D01*
X-610263Y-8548515D01*
X-689485Y-8627737D01*
X-745503Y-8724763D01*
X-774500Y-8832982D01*
X-3885448Y-8832982D01*
X-3862937Y-8819985D01*
X-3783715Y-8740763D01*
X-3727697Y-8643737D01*
X-3698700Y-8535518D01*
X-3698700Y-8423482D01*
X-3727697Y-8315263D01*
X-3727698Y-8315260D01*
X-3783713Y-8218240D01*
X-3783717Y-8218234D01*
X-3862934Y-8139017D01*
X-3862940Y-8139013D01*
X-3959960Y-8082998D01*
X-3959963Y-8082997D01*
X-4068182Y-8054000D01*
X-4180218Y-8054000D01*
X-4288437Y-8082997D01*
X-4385463Y-8139015D01*
X-4464685Y-8218237D01*
X-4520703Y-8315263D01*
X-4549700Y-8423482D01*
X-14178879Y-8423482D01*
X-14224565Y-8351769D01*
X-14226343Y-8348892D01*
X-14312480Y-8205180D01*
X-14316109Y-8198692D01*
X-14725652Y-7412015D01*
X-14751231Y-7362882D01*
X-1160600Y-7362882D01*
X-1160600Y-7474918D01*
X-1131603Y-7583137D01*
X-1075585Y-7680163D01*
X-996363Y-7759385D01*
X-899337Y-7815403D01*
X-791118Y-7844400D01*
X-791116Y-7844400D01*
X-679085Y-7844400D01*
X-679082Y-7844400D01*
X-673502Y-7842905D01*
X-603656Y-7844566D01*
X-545793Y-7883726D01*
X-542928Y-7887860D01*
X-542735Y-7887712D01*
X-537788Y-7894156D01*
X-537785Y-7894163D01*
X-458563Y-7973385D01*
X-361537Y-8029403D01*
X-253318Y-8058400D01*
X-253316Y-8058400D01*
X-141284Y-8058400D01*
X-141282Y-8058400D01*
X-33063Y-8029403D01*
X63963Y-7973385D01*
X92419Y-7944929D01*
X153742Y-7911444D01*
X223434Y-7916428D01*
X267781Y-7944929D01*
X281137Y-7958285D01*
X378163Y-8014303D01*
X486382Y-8043300D01*
X486384Y-8043300D01*
X598416Y-8043300D01*
X598418Y-8043300D01*
X706637Y-8014303D01*
X743346Y-7993109D01*
X811242Y-7976636D01*
X877269Y-7999487D01*
X920461Y-8054407D01*
X927104Y-8123961D01*
X925122Y-8132576D01*
X924801Y-8133772D01*
X924800Y-8133781D01*
X924800Y-8133782D01*
X924800Y-8245818D01*
X953797Y-8354037D01*
X1009815Y-8451063D01*
X1089037Y-8530285D01*
X1186063Y-8586303D01*
X1294282Y-8615300D01*
X1294284Y-8615300D01*
X1406316Y-8615300D01*
X1406318Y-8615300D01*
X1514537Y-8586303D01*
X1611563Y-8530285D01*
X1690785Y-8451063D01*
X1732286Y-8379182D01*
X4239300Y-8379182D01*
X4239300Y-8491218D01*
X4264778Y-8586301D01*
X4268297Y-8599436D01*
X4268298Y-8599439D01*
X4284634Y-8627734D01*
X4324315Y-8696463D01*
X4403537Y-8775685D01*
X4500563Y-8831703D01*
X4608782Y-8860700D01*
X4608784Y-8860700D01*
X4720816Y-8860700D01*
X4720818Y-8860700D01*
X4829037Y-8831703D01*
X4926063Y-8775685D01*
X5005285Y-8696463D01*
X5061303Y-8599437D01*
X5090300Y-8491218D01*
X5090300Y-8379182D01*
X5061303Y-8270963D01*
X5005285Y-8173937D01*
X4926063Y-8094715D01*
X4829037Y-8038697D01*
X4720818Y-8009700D01*
X4608782Y-8009700D01*
X4500563Y-8038697D01*
X4500560Y-8038698D01*
X4403540Y-8094713D01*
X4403534Y-8094717D01*
X4324317Y-8173934D01*
X4324313Y-8173940D01*
X4268298Y-8270960D01*
X4268297Y-8270963D01*
X4239300Y-8379182D01*
X1732286Y-8379182D01*
X1746803Y-8354037D01*
X1775800Y-8245818D01*
X1775800Y-8133782D01*
X1746803Y-8025563D01*
X1690785Y-7928537D01*
X1690784Y-7928536D01*
X1686721Y-7921498D01*
X1689625Y-7919821D01*
X1688031Y-7915695D01*
X1676448Y-7899429D01*
X1675701Y-7883770D01*
X1670054Y-7869146D01*
X1674073Y-7849585D01*
X1673123Y-7829639D01*
X1683496Y-7803726D01*
X1684117Y-7800706D01*
X1686218Y-7796911D01*
X1726503Y-7727137D01*
X1726504Y-7727131D01*
X1729992Y-7721091D01*
X1780559Y-7672875D01*
X1849166Y-7659651D01*
X1914031Y-7685619D01*
X1925061Y-7695409D01*
X1939737Y-7710085D01*
X2036763Y-7766103D01*
X2144982Y-7795100D01*
X2144984Y-7795100D01*
X2257016Y-7795100D01*
X2257018Y-7795100D01*
X2365237Y-7766103D01*
X2462263Y-7710085D01*
X2541485Y-7630863D01*
X2597503Y-7533837D01*
X2626500Y-7425618D01*
X2626500Y-7313582D01*
X2605359Y-7234682D01*
X4239000Y-7234682D01*
X4239000Y-7346718D01*
X4267997Y-7454937D01*
X4324015Y-7551963D01*
X4403237Y-7631185D01*
X4500263Y-7687203D01*
X4608482Y-7716200D01*
X4608484Y-7716200D01*
X4720516Y-7716200D01*
X4720518Y-7716200D01*
X4828737Y-7687203D01*
X4925763Y-7631185D01*
X5004985Y-7551963D01*
X5060111Y-7456482D01*
X7086900Y-7456482D01*
X7086900Y-7568518D01*
X7103692Y-7631185D01*
X7115897Y-7676736D01*
X7115898Y-7676739D01*
X7126677Y-7695409D01*
X7171915Y-7773763D01*
X7251137Y-7852985D01*
X7348163Y-7909003D01*
X7456382Y-7938000D01*
X7456384Y-7938000D01*
X7568416Y-7938000D01*
X7568418Y-7938000D01*
X7676637Y-7909003D01*
X7773663Y-7852985D01*
X7852885Y-7773763D01*
X7908903Y-7676737D01*
X7937900Y-7568518D01*
X7937900Y-7456482D01*
X7908903Y-7348263D01*
X7852885Y-7251237D01*
X7773663Y-7172015D01*
X7694765Y-7126463D01*
X7676639Y-7115998D01*
X7676638Y-7115997D01*
X7676637Y-7115997D01*
X7568418Y-7087000D01*
X7456382Y-7087000D01*
X7348163Y-7115997D01*
X7348160Y-7115998D01*
X7251140Y-7172013D01*
X7251134Y-7172017D01*
X7171917Y-7251234D01*
X7171913Y-7251240D01*
X7115898Y-7348260D01*
X7115897Y-7348263D01*
X7086900Y-7456482D01*
X5060111Y-7456482D01*
X5061003Y-7454937D01*
X5090000Y-7346718D01*
X5090000Y-7234682D01*
X5061003Y-7126463D01*
X5004985Y-7029437D01*
X4925763Y-6950215D01*
X4828737Y-6894197D01*
X4720518Y-6865200D01*
X4608482Y-6865200D01*
X4500263Y-6894197D01*
X4500260Y-6894198D01*
X4403240Y-6950213D01*
X4403234Y-6950217D01*
X4324017Y-7029434D01*
X4324013Y-7029440D01*
X4267998Y-7126460D01*
X4267997Y-7126463D01*
X4239000Y-7234682D01*
X2605359Y-7234682D01*
X2597503Y-7205363D01*
X2541485Y-7108337D01*
X2462263Y-7029115D01*
X2365237Y-6973097D01*
X2257018Y-6944100D01*
X2144982Y-6944100D01*
X2036763Y-6973097D01*
X2036760Y-6973098D01*
X1939740Y-7029113D01*
X1939734Y-7029117D01*
X1860517Y-7108334D01*
X1860513Y-7108340D01*
X1801006Y-7211409D01*
X1750439Y-7259625D01*
X1681832Y-7272847D01*
X1616967Y-7246879D01*
X1605938Y-7237090D01*
X1591265Y-7222417D01*
X1591263Y-7222415D01*
X1503964Y-7172013D01*
X1494239Y-7166398D01*
X1494238Y-7166397D01*
X1494237Y-7166397D01*
X1404947Y-7142472D01*
X1345289Y-7106108D01*
X1324391Y-7067822D01*
X1322111Y-7068767D01*
X1319001Y-7061259D01*
X1262987Y-6964240D01*
X1262982Y-6964234D01*
X1183765Y-6885017D01*
X1183763Y-6885015D01*
X1086737Y-6828997D01*
X978518Y-6800000D01*
X866482Y-6800000D01*
X758263Y-6828997D01*
X758260Y-6828998D01*
X661240Y-6885013D01*
X661234Y-6885017D01*
X582017Y-6964234D01*
X582013Y-6964240D01*
X525998Y-7061260D01*
X525995Y-7061267D01*
X509762Y-7121849D01*
X473397Y-7181509D01*
X422083Y-7209528D01*
X378167Y-7221295D01*
X378160Y-7221298D01*
X281140Y-7277313D01*
X281134Y-7277317D01*
X252681Y-7305771D01*
X191358Y-7339256D01*
X121666Y-7334272D01*
X77319Y-7305771D01*
X63965Y-7292417D01*
X63963Y-7292415D01*
X30070Y-7272847D01*
X-33060Y-7236398D01*
X-33063Y-7236397D01*
X-141282Y-7207400D01*
X-253318Y-7207400D01*
X-253319Y-7207400D01*
X-258901Y-7208896D01*
X-328751Y-7207231D01*
X-386612Y-7168066D01*
X-389480Y-7163937D01*
X-389669Y-7164082D01*
X-394611Y-7157640D01*
X-473838Y-7078414D01*
X-473840Y-7078413D01*
X-570860Y-7022398D01*
X-570863Y-7022397D01*
X-679082Y-6993400D01*
X-791118Y-6993400D01*
X-899337Y-7022397D01*
X-899338Y-7022397D01*
X-899339Y-7022398D01*
X-911531Y-7029437D01*
X-996363Y-7078415D01*
X-1075585Y-7157637D01*
X-1131603Y-7254663D01*
X-1160600Y-7362882D01*
X-14751231Y-7362882D01*
X-14889616Y-7097062D01*
X-14891723Y-7092819D01*
X-14993651Y-6877309D01*
X-14996119Y-6871740D01*
X-15162961Y-6468903D01*
X-15179246Y-6429582D01*
X-4266200Y-6429582D01*
X-4266200Y-6541618D01*
X-4237203Y-6649837D01*
X-4181185Y-6746863D01*
X-4101963Y-6826085D01*
X-4004937Y-6882103D01*
X-3896718Y-6911100D01*
X-3896716Y-6911100D01*
X-3784684Y-6911100D01*
X-3784682Y-6911100D01*
X-3676463Y-6882103D01*
X-3579437Y-6826085D01*
X-3500215Y-6746863D01*
X-3454972Y-6668500D01*
X-3444198Y-6649839D01*
X-3444197Y-6649836D01*
X-3441427Y-6639501D01*
X-3415200Y-6541618D01*
X-3415200Y-6429582D01*
X-3444197Y-6321363D01*
X-3444198Y-6321360D01*
X-3500213Y-6224340D01*
X-3500217Y-6224334D01*
X-3579434Y-6145117D01*
X-3579440Y-6145113D01*
X-3676460Y-6089098D01*
X-3676463Y-6089097D01*
X-3784682Y-6060100D01*
X-3896718Y-6060100D01*
X-4004937Y-6089097D01*
X-4101963Y-6145115D01*
X-4181185Y-6224337D01*
X-4237203Y-6321363D01*
X-4266200Y-6429582D01*
X-15179246Y-6429582D01*
X-15463259Y-5743838D01*
X-15465447Y-5738165D01*
X-15545010Y-5515804D01*
X-15546518Y-5511321D01*
X-15668920Y-5123161D01*
X-15668926Y-5123147D01*
X-15676919Y-5097800D01*
X-15678123Y-5093982D01*
X-13024800Y-5093982D01*
X-13024800Y-5206018D01*
X-12995803Y-5314237D01*
X-12939785Y-5411263D01*
X-12860563Y-5490485D01*
X-12763537Y-5546503D01*
X-12655318Y-5575500D01*
X-12655316Y-5575500D01*
X-12543284Y-5575500D01*
X-12543282Y-5575500D01*
X-12435063Y-5546503D01*
X-12338037Y-5490485D01*
X-12258815Y-5411263D01*
X-12203930Y-5316199D01*
X-12202798Y-5314239D01*
X-12202797Y-5314236D01*
X-12200000Y-5303800D01*
X-12173800Y-5206018D01*
X-12173800Y-5093982D01*
X-12202797Y-4985763D01*
X-12202798Y-4985760D01*
X-12258813Y-4888740D01*
X-12258817Y-4888734D01*
X-12334469Y-4813082D01*
X-9124600Y-4813082D01*
X-9124600Y-4925118D01*
X-9095603Y-5033337D01*
X-9039585Y-5130363D01*
X-8960363Y-5209585D01*
X-8863337Y-5265603D01*
X-8755118Y-5294600D01*
X-8755116Y-5294600D01*
X-8643084Y-5294600D01*
X-8643082Y-5294600D01*
X-8534863Y-5265603D01*
X-8437837Y-5209585D01*
X-8358615Y-5130363D01*
X-8302597Y-5033337D01*
X-8273600Y-4925118D01*
X-8273600Y-4822282D01*
X-5553800Y-4822282D01*
X-5553800Y-4934318D01*
X-5524803Y-5042537D01*
X-5468785Y-5139563D01*
X-5389563Y-5218785D01*
X-5292537Y-5274803D01*
X-5184318Y-5303800D01*
X-5184316Y-5303800D01*
X-5072284Y-5303800D01*
X-5072282Y-5303800D01*
X-4964063Y-5274803D01*
X-4876038Y-5223982D01*
X-4155500Y-5223982D01*
X-4155500Y-5336018D01*
X-4126503Y-5444237D01*
X-4070485Y-5541263D01*
X-3991263Y-5620485D01*
X-3894237Y-5676503D01*
X-3786018Y-5705500D01*
X-3786016Y-5705500D01*
X-3673984Y-5705500D01*
X-3673982Y-5705500D01*
X-3565763Y-5676503D01*
X-3468737Y-5620485D01*
X-3389515Y-5541263D01*
X-3333497Y-5444237D01*
X-3304500Y-5336018D01*
X-3304500Y-5223982D01*
X-3333497Y-5115763D01*
X-3333498Y-5115760D01*
X-3389513Y-5018740D01*
X-3389517Y-5018734D01*
X-3459316Y-4948936D01*
X-3468734Y-4939517D01*
X-3468740Y-4939513D01*
X-3565760Y-4883498D01*
X-3565763Y-4883497D01*
X-3618441Y-4869382D01*
X2908700Y-4869382D01*
X2908700Y-4981418D01*
X2932115Y-5068802D01*
X2937697Y-5089636D01*
X2937698Y-5089639D01*
X2944634Y-5101652D01*
X2993715Y-5186663D01*
X3072937Y-5265885D01*
X3169963Y-5321903D01*
X3278182Y-5350900D01*
X3278184Y-5350900D01*
X3390216Y-5350900D01*
X3390218Y-5350900D01*
X3498437Y-5321903D01*
X3509357Y-5315598D01*
X3577253Y-5299123D01*
X3643281Y-5321972D01*
X3686474Y-5376891D01*
X3693119Y-5446444D01*
X3678747Y-5484982D01*
X3642097Y-5548462D01*
X3642097Y-5548463D01*
X3613100Y-5656682D01*
X3613100Y-5768718D01*
X3624031Y-5809515D01*
X3642099Y-5876943D01*
X3644023Y-5881589D01*
X3651487Y-5951059D01*
X3636847Y-5991033D01*
X3586197Y-6078762D01*
X3586197Y-6078763D01*
X3557200Y-6186982D01*
X3557200Y-6299018D01*
X3575072Y-6365715D01*
X3586197Y-6407236D01*
X3586198Y-6407239D01*
X3599098Y-6429582D01*
X3642215Y-6504263D01*
X3721437Y-6583485D01*
X3818463Y-6639503D01*
X3926682Y-6668500D01*
X3926684Y-6668500D01*
X4038716Y-6668500D01*
X4038718Y-6668500D01*
X4146937Y-6639503D01*
X4243963Y-6583485D01*
X4323185Y-6504263D01*
X4379203Y-6407237D01*
X4408200Y-6299018D01*
X4408200Y-6186982D01*
X4383281Y-6093982D01*
X6884500Y-6093982D01*
X6884500Y-6206018D01*
X6913497Y-6314237D01*
X6969515Y-6411263D01*
X7048737Y-6490485D01*
X7145763Y-6546503D01*
X7253982Y-6575500D01*
X7253984Y-6575500D01*
X7366016Y-6575500D01*
X7366018Y-6575500D01*
X7474237Y-6546503D01*
X7571263Y-6490485D01*
X7650485Y-6411263D01*
X7706503Y-6314237D01*
X7735500Y-6206018D01*
X7735500Y-6186982D01*
X8691000Y-6186982D01*
X8691000Y-6299018D01*
X8708872Y-6365715D01*
X8719997Y-6407236D01*
X8719998Y-6407239D01*
X8732898Y-6429582D01*
X8776015Y-6504263D01*
X8855237Y-6583485D01*
X8952263Y-6639503D01*
X9060482Y-6668500D01*
X9060484Y-6668500D01*
X9172516Y-6668500D01*
X9172518Y-6668500D01*
X9242002Y-6649882D01*
X10324500Y-6649882D01*
X10324500Y-6761918D01*
X10353417Y-6869836D01*
X10353497Y-6870136D01*
X10353498Y-6870139D01*
X10362086Y-6885013D01*
X10409515Y-6967163D01*
X10488737Y-7046385D01*
X10585763Y-7102403D01*
X10693982Y-7131400D01*
X10693984Y-7131400D01*
X10806016Y-7131400D01*
X10806018Y-7131400D01*
X10914237Y-7102403D01*
X11011263Y-7046385D01*
X11090485Y-6967163D01*
X11146503Y-6870137D01*
X11175500Y-6761918D01*
X11175500Y-6649882D01*
X11175420Y-6649582D01*
X11924500Y-6649582D01*
X11924500Y-6761618D01*
X11942555Y-6828998D01*
X11953497Y-6869836D01*
X11953498Y-6869839D01*
X11954596Y-6871740D01*
X12009515Y-6966863D01*
X12088737Y-7046085D01*
X12185763Y-7102103D01*
X12293982Y-7131100D01*
X12293984Y-7131100D01*
X12406016Y-7131100D01*
X12406018Y-7131100D01*
X12514237Y-7102103D01*
X12559382Y-7076038D01*
X12627279Y-7059566D01*
X12683379Y-7076038D01*
X12729563Y-7102703D01*
X12837782Y-7131700D01*
X12837784Y-7131700D01*
X12949816Y-7131700D01*
X12949818Y-7131700D01*
X13058037Y-7102703D01*
X13155063Y-7046685D01*
X13234285Y-6967463D01*
X13290303Y-6870437D01*
X13319300Y-6762218D01*
X13319300Y-6650182D01*
X13290303Y-6541963D01*
X13234285Y-6444937D01*
X13155063Y-6365715D01*
X13058037Y-6309697D01*
X12949818Y-6280700D01*
X12837782Y-6280700D01*
X12729563Y-6309697D01*
X12729562Y-6309697D01*
X12684418Y-6335761D01*
X12616517Y-6352232D01*
X12560419Y-6335760D01*
X12514239Y-6309098D01*
X12514238Y-6309097D01*
X12514237Y-6309097D01*
X12406018Y-6280100D01*
X12293982Y-6280100D01*
X12185763Y-6309097D01*
X12185760Y-6309098D01*
X12088740Y-6365113D01*
X12088734Y-6365117D01*
X12009517Y-6444334D01*
X12009513Y-6444340D01*
X11953498Y-6541360D01*
X11953497Y-6541363D01*
X11924500Y-6649582D01*
X11175420Y-6649582D01*
X11146503Y-6541663D01*
X11090485Y-6444637D01*
X11011263Y-6365415D01*
X10922620Y-6314237D01*
X10914239Y-6309398D01*
X10914238Y-6309397D01*
X10914237Y-6309397D01*
X10806018Y-6280400D01*
X10693982Y-6280400D01*
X10585763Y-6309397D01*
X10585760Y-6309398D01*
X10488740Y-6365413D01*
X10488734Y-6365417D01*
X10409517Y-6444634D01*
X10409513Y-6444640D01*
X10353498Y-6541660D01*
X10353497Y-6541663D01*
X10324500Y-6649882D01*
X9242002Y-6649882D01*
X9280737Y-6639503D01*
X9377763Y-6583485D01*
X9456985Y-6504263D01*
X9513003Y-6407237D01*
X9542000Y-6299018D01*
X9542000Y-6186982D01*
X9513003Y-6078763D01*
X9456985Y-5981737D01*
X9377763Y-5902515D01*
X9280737Y-5846497D01*
X9172518Y-5817500D01*
X9060482Y-5817500D01*
X8952263Y-5846497D01*
X8952260Y-5846498D01*
X8855240Y-5902513D01*
X8855234Y-5902517D01*
X8776017Y-5981734D01*
X8776013Y-5981740D01*
X8719998Y-6078760D01*
X8719997Y-6078763D01*
X8691000Y-6186982D01*
X7735500Y-6186982D01*
X7735500Y-6093982D01*
X7706503Y-5985763D01*
X7650485Y-5888737D01*
X7571263Y-5809515D01*
X7474237Y-5753497D01*
X7366018Y-5724500D01*
X7253982Y-5724500D01*
X7145763Y-5753497D01*
X7145760Y-5753498D01*
X7048740Y-5809513D01*
X7048734Y-5809517D01*
X6969517Y-5888734D01*
X6969513Y-5888740D01*
X6913498Y-5985760D01*
X6913497Y-5985763D01*
X6884500Y-6093982D01*
X4383281Y-6093982D01*
X4379203Y-6078763D01*
X4376665Y-6074367D01*
X4373003Y-6062077D01*
X4372887Y-6033285D01*
X4369808Y-6004654D01*
X4372740Y-5996645D01*
X4372723Y-5992208D01*
X4376587Y-5986141D01*
X4384449Y-5964670D01*
X4402046Y-5934192D01*
X4452611Y-5885979D01*
X4521218Y-5872757D01*
X4571426Y-5888806D01*
X4622863Y-5918503D01*
X4731082Y-5947500D01*
X4731084Y-5947500D01*
X4843116Y-5947500D01*
X4843118Y-5947500D01*
X4951337Y-5918503D01*
X5048363Y-5862485D01*
X5127585Y-5783263D01*
X5183603Y-5686237D01*
X5212600Y-5578018D01*
X5212600Y-5465982D01*
X5183603Y-5357763D01*
X5137994Y-5278765D01*
X5121522Y-5210870D01*
X5144374Y-5144843D01*
X5199295Y-5101652D01*
X5268848Y-5095010D01*
X5277473Y-5096993D01*
X5280482Y-5097800D01*
X5280484Y-5097800D01*
X5392516Y-5097800D01*
X5392518Y-5097800D01*
X5490366Y-5071582D01*
X12197600Y-5071582D01*
X12197600Y-5183618D01*
X12222033Y-5274801D01*
X12226597Y-5291836D01*
X12226598Y-5291839D01*
X12231601Y-5300505D01*
X12282615Y-5388863D01*
X12361837Y-5468085D01*
X12458863Y-5524103D01*
X12567082Y-5553100D01*
X12567084Y-5553100D01*
X12679116Y-5553100D01*
X12679118Y-5553100D01*
X12787337Y-5524103D01*
X12884363Y-5468085D01*
X12963585Y-5388863D01*
X13019603Y-5291837D01*
X13048600Y-5183618D01*
X13048600Y-5071582D01*
X13019603Y-4963363D01*
X12963585Y-4866337D01*
X12884363Y-4787115D01*
X12787337Y-4731097D01*
X12679118Y-4702100D01*
X12567082Y-4702100D01*
X12458863Y-4731097D01*
X12458860Y-4731098D01*
X12361840Y-4787113D01*
X12361834Y-4787117D01*
X12282617Y-4866334D01*
X12282613Y-4866340D01*
X12226598Y-4963360D01*
X12226597Y-4963363D01*
X12197600Y-5071582D01*
X5490366Y-5071582D01*
X5500737Y-5068803D01*
X5597763Y-5012785D01*
X5676985Y-4933563D01*
X5733003Y-4836537D01*
X5762000Y-4728318D01*
X5762000Y-4616282D01*
X5733003Y-4508063D01*
X5676985Y-4411037D01*
X5597763Y-4331815D01*
X5500737Y-4275797D01*
X5392518Y-4246800D01*
X5280482Y-4246800D01*
X5172263Y-4275797D01*
X5172260Y-4275798D01*
X5075240Y-4331813D01*
X5075234Y-4331817D01*
X4996017Y-4411034D01*
X4996013Y-4411040D01*
X4939998Y-4508060D01*
X4939997Y-4508063D01*
X4911000Y-4616282D01*
X4911000Y-4728318D01*
X4939997Y-4836537D01*
X4970136Y-4888740D01*
X4985604Y-4915530D01*
X5002077Y-4983430D01*
X4979225Y-5049457D01*
X4924304Y-5092647D01*
X4854750Y-5099289D01*
X4846132Y-5097307D01*
X4843122Y-5096500D01*
X4843118Y-5096500D01*
X4731082Y-5096500D01*
X4622863Y-5125497D01*
X4622860Y-5125498D01*
X4525840Y-5181513D01*
X4525834Y-5181517D01*
X4446617Y-5260734D01*
X4446613Y-5260740D01*
X4423654Y-5300505D01*
X4373086Y-5348720D01*
X4304479Y-5361941D01*
X4254269Y-5345891D01*
X4202837Y-5316197D01*
X4156570Y-5303800D01*
X4094618Y-5287200D01*
X3982582Y-5287200D01*
X3874363Y-5316197D01*
X3874358Y-5316199D01*
X3863438Y-5322504D01*
X3795538Y-5338975D01*
X3729511Y-5316122D01*
X3686322Y-5261200D01*
X3679681Y-5191647D01*
X3694053Y-5153116D01*
X3730703Y-5089637D01*
X3759700Y-4981418D01*
X3759700Y-4869382D01*
X3730703Y-4761163D01*
X3674685Y-4664137D01*
X3595463Y-4584915D01*
X3513887Y-4537817D01*
X3498439Y-4528898D01*
X3498438Y-4528897D01*
X3498437Y-4528897D01*
X3390218Y-4499900D01*
X3278182Y-4499900D01*
X3169963Y-4528897D01*
X3169960Y-4528898D01*
X3072940Y-4584913D01*
X3072934Y-4584917D01*
X2993717Y-4664134D01*
X2993713Y-4664140D01*
X2937698Y-4761160D01*
X2937697Y-4761163D01*
X2908700Y-4869382D01*
X-3618441Y-4869382D01*
X-3673982Y-4854500D01*
X-3786018Y-4854500D01*
X-3894237Y-4883497D01*
X-3991263Y-4939515D01*
X-4070485Y-5018737D01*
X-4126503Y-5115763D01*
X-4155500Y-5223982D01*
X-4876038Y-5223982D01*
X-4867037Y-5218785D01*
X-4787815Y-5139563D01*
X-4746961Y-5068802D01*
X-4731798Y-5042539D01*
X-4731797Y-5042536D01*
X-4729332Y-5033339D01*
X-4702800Y-4934318D01*
X-4702800Y-4822282D01*
X-4731797Y-4714063D01*
X-4731798Y-4714060D01*
X-4787813Y-4617040D01*
X-4787817Y-4617034D01*
X-4867034Y-4537817D01*
X-4867040Y-4537813D01*
X-4964060Y-4481798D01*
X-4964063Y-4481797D01*
X-5072282Y-4452800D01*
X-5184318Y-4452800D01*
X-5292537Y-4481797D01*
X-5389563Y-4537815D01*
X-5468785Y-4617037D01*
X-5524803Y-4714063D01*
X-5553800Y-4822282D01*
X-8273600Y-4822282D01*
X-8273600Y-4813082D01*
X-8302597Y-4704863D01*
X-8302598Y-4704860D01*
X-8358613Y-4607840D01*
X-8358617Y-4607834D01*
X-8437834Y-4528617D01*
X-8437840Y-4528613D01*
X-8534860Y-4472598D01*
X-8534863Y-4472597D01*
X-8643082Y-4443600D01*
X-8755118Y-4443600D01*
X-8863337Y-4472597D01*
X-8960363Y-4528615D01*
X-9039585Y-4607837D01*
X-9095603Y-4704863D01*
X-9124600Y-4813082D01*
X-12334469Y-4813082D01*
X-12338034Y-4809517D01*
X-12338040Y-4809513D01*
X-12435060Y-4753498D01*
X-12435063Y-4753497D01*
X-12543282Y-4724500D01*
X-12655318Y-4724500D01*
X-12763537Y-4753497D01*
X-12860563Y-4809515D01*
X-12939785Y-4888737D01*
X-12995803Y-4985763D01*
X-13024800Y-5093982D01*
X-15678123Y-5093982D01*
X-15853505Y-4537813D01*
X-15920234Y-4326204D01*
X-15922258Y-4319042D01*
X-15963389Y-4154840D01*
X-15964167Y-4151545D01*
X-16233939Y-2934494D01*
X-16234494Y-2931850D01*
X-16251535Y-2846178D01*
X-16252857Y-2838174D01*
X-16419074Y-1575753D01*
X-16419538Y-1571720D01*
X-16433988Y-1425009D01*
X-16434385Y-1420982D01*
X-7129200Y-1420982D01*
X-7129200Y-1533018D01*
X-7100203Y-1641237D01*
X-7044185Y-1738263D01*
X-6964963Y-1817485D01*
X-6867937Y-1873503D01*
X-6774237Y-1898609D01*
X-6714580Y-1934973D01*
X-6686560Y-1986285D01*
X-6678803Y-2015237D01*
X-6622785Y-2112263D01*
X-6543563Y-2191485D01*
X-6446537Y-2247503D01*
X-6338318Y-2276500D01*
X-6338316Y-2276500D01*
X-6218473Y-2276500D01*
X-6151434Y-2296185D01*
X-6105679Y-2348989D01*
X-6098700Y-2368401D01*
X-6098503Y-2369137D01*
X-6042485Y-2466163D01*
X-5963263Y-2545385D01*
X-5866237Y-2601403D01*
X-5758018Y-2630400D01*
X-5758016Y-2630400D01*
X-5645987Y-2630400D01*
X-5645982Y-2630400D01*
X-5645977Y-2630398D01*
X-5643747Y-2630105D01*
X-5641854Y-2630400D01*
X-5637855Y-2630400D01*
X-5637855Y-2631023D01*
X-5574711Y-2640866D01*
X-5522452Y-2687242D01*
X-5503562Y-2754510D01*
X-5524038Y-2821312D01*
X-5534414Y-2834033D01*
X-5538479Y-2839331D01*
X-5538485Y-2839337D01*
X-5594503Y-2936363D01*
X-5623500Y-3044582D01*
X-5623500Y-3156618D01*
X-5594503Y-3264837D01*
X-5538485Y-3361863D01*
X-5459263Y-3441085D01*
X-5362237Y-3497103D01*
X-5254018Y-3526100D01*
X-5254016Y-3526100D01*
X-5141984Y-3526100D01*
X-5141982Y-3526100D01*
X-5033763Y-3497103D01*
X-4936737Y-3441085D01*
X-4857515Y-3361863D01*
X-4801831Y-3265415D01*
X-4801498Y-3264839D01*
X-4801497Y-3264836D01*
X-4785191Y-3203982D01*
X2584500Y-3203982D01*
X2584500Y-3316018D01*
X2613497Y-3424237D01*
X2669515Y-3521263D01*
X2748737Y-3600485D01*
X2845763Y-3656503D01*
X2953982Y-3685500D01*
X2953984Y-3685500D01*
X3066016Y-3685500D01*
X3066018Y-3685500D01*
X3174237Y-3656503D01*
X3271263Y-3600485D01*
X3350485Y-3521263D01*
X3406503Y-3424237D01*
X3413987Y-3396306D01*
X3450347Y-3336650D01*
X3501663Y-3308628D01*
X3584237Y-3286503D01*
X3681263Y-3230485D01*
X3760485Y-3151263D01*
X3816503Y-3054237D01*
X3838918Y-2970582D01*
X5632600Y-2970582D01*
X5632600Y-3082618D01*
X5661597Y-3190837D01*
X5717615Y-3287863D01*
X5796837Y-3367085D01*
X5893863Y-3423103D01*
X6002082Y-3452100D01*
X6002084Y-3452100D01*
X6114116Y-3452100D01*
X6114118Y-3452100D01*
X6222337Y-3423103D01*
X6319363Y-3367085D01*
X6398585Y-3287863D01*
X6399151Y-3286882D01*
X7022400Y-3286882D01*
X7022400Y-3398918D01*
X7051397Y-3507137D01*
X7107415Y-3604163D01*
X7186637Y-3683385D01*
X7283663Y-3739403D01*
X7391882Y-3768400D01*
X7391884Y-3768400D01*
X7503916Y-3768400D01*
X7503918Y-3768400D01*
X7612137Y-3739403D01*
X7709163Y-3683385D01*
X7788385Y-3604163D01*
X7819724Y-3549882D01*
X9719800Y-3549882D01*
X9719800Y-3661918D01*
X9748332Y-3768399D01*
X9748797Y-3770136D01*
X9748798Y-3770139D01*
X9752103Y-3775863D01*
X9804815Y-3867163D01*
X9884037Y-3946385D01*
X9981063Y-4002403D01*
X10089282Y-4031400D01*
X10089284Y-4031400D01*
X10201316Y-4031400D01*
X10201318Y-4031400D01*
X10309537Y-4002403D01*
X10406563Y-3946385D01*
X10442666Y-3910282D01*
X11077300Y-3910282D01*
X11077300Y-4022318D01*
X11106297Y-4130537D01*
X11162315Y-4227563D01*
X11241537Y-4306785D01*
X11338563Y-4362803D01*
X11446782Y-4391800D01*
X11446784Y-4391800D01*
X11558816Y-4391800D01*
X11558818Y-4391800D01*
X11667037Y-4362803D01*
X11764063Y-4306785D01*
X11843285Y-4227563D01*
X11899303Y-4130537D01*
X11928300Y-4022318D01*
X11928300Y-3910282D01*
X11899303Y-3802063D01*
X11843285Y-3705037D01*
X11764063Y-3625815D01*
X11668459Y-3570618D01*
X11667039Y-3569798D01*
X11667038Y-3569797D01*
X11667037Y-3569797D01*
X11558818Y-3540800D01*
X11446782Y-3540800D01*
X11338563Y-3569797D01*
X11338560Y-3569798D01*
X11241540Y-3625813D01*
X11241534Y-3625817D01*
X11162317Y-3705034D01*
X11162313Y-3705040D01*
X11106298Y-3802060D01*
X11106297Y-3802063D01*
X11077300Y-3910282D01*
X10442666Y-3910282D01*
X10485785Y-3867163D01*
X10541803Y-3770137D01*
X10570800Y-3661918D01*
X10570800Y-3549882D01*
X10546336Y-3458582D01*
X13524500Y-3458582D01*
X13524500Y-3570618D01*
X13553497Y-3678837D01*
X13609515Y-3775863D01*
X13688737Y-3855085D01*
X13785763Y-3911103D01*
X13893982Y-3940100D01*
X13893984Y-3940100D01*
X14006016Y-3940100D01*
X14006018Y-3940100D01*
X14114237Y-3911103D01*
X14211263Y-3855085D01*
X14290485Y-3775863D01*
X14346503Y-3678837D01*
X14375500Y-3570618D01*
X14375500Y-3458582D01*
X14346503Y-3350363D01*
X14290485Y-3253337D01*
X14211263Y-3174115D01*
X14114237Y-3118097D01*
X14006018Y-3089100D01*
X13893982Y-3089100D01*
X13785763Y-3118097D01*
X13785760Y-3118098D01*
X13688740Y-3174113D01*
X13688734Y-3174117D01*
X13609517Y-3253334D01*
X13609513Y-3253340D01*
X13553498Y-3350360D01*
X13553497Y-3350363D01*
X13524500Y-3458582D01*
X10546336Y-3458582D01*
X10541803Y-3441663D01*
X10485785Y-3344637D01*
X10406563Y-3265415D01*
X10341879Y-3228069D01*
X10309539Y-3209398D01*
X10309538Y-3209397D01*
X10309537Y-3209397D01*
X10201318Y-3180400D01*
X10089282Y-3180400D01*
X9981063Y-3209397D01*
X9981060Y-3209398D01*
X9884040Y-3265413D01*
X9884034Y-3265417D01*
X9804817Y-3344634D01*
X9804813Y-3344640D01*
X9748798Y-3441660D01*
X9748797Y-3441663D01*
X9719800Y-3549882D01*
X7819724Y-3549882D01*
X7844403Y-3507137D01*
X7873400Y-3398918D01*
X7873400Y-3286882D01*
X7844403Y-3178663D01*
X7788385Y-3081637D01*
X7709163Y-3002415D01*
X7612137Y-2946397D01*
X7503918Y-2917400D01*
X7391882Y-2917400D01*
X7283663Y-2946397D01*
X7283660Y-2946398D01*
X7186640Y-3002413D01*
X7186634Y-3002417D01*
X7107417Y-3081634D01*
X7107413Y-3081640D01*
X7051398Y-3178660D01*
X7051397Y-3178663D01*
X7022400Y-3286882D01*
X6399151Y-3286882D01*
X6454603Y-3190837D01*
X6483600Y-3082618D01*
X6483600Y-2970582D01*
X6454603Y-2862363D01*
X6398585Y-2765337D01*
X6319363Y-2686115D01*
X6254679Y-2648769D01*
X6222339Y-2630098D01*
X6222338Y-2630097D01*
X6222337Y-2630097D01*
X6114118Y-2601100D01*
X6002082Y-2601100D01*
X5893863Y-2630097D01*
X5893860Y-2630098D01*
X5796840Y-2686113D01*
X5796834Y-2686117D01*
X5717617Y-2765334D01*
X5717613Y-2765340D01*
X5661598Y-2862360D01*
X5661597Y-2862363D01*
X5632600Y-2970582D01*
X3838918Y-2970582D01*
X3845500Y-2946018D01*
X3845500Y-2833982D01*
X3816503Y-2725763D01*
X3760485Y-2628737D01*
X3715029Y-2583281D01*
X3681544Y-2521958D01*
X3686528Y-2452266D01*
X3695319Y-2433606D01*
X3706503Y-2414237D01*
X3735500Y-2306018D01*
X3735500Y-2193982D01*
X3706503Y-2085763D01*
X3650485Y-1988737D01*
X3571263Y-1909515D01*
X3474237Y-1853497D01*
X3366018Y-1824500D01*
X3253982Y-1824500D01*
X3145763Y-1853497D01*
X3145760Y-1853498D01*
X3048740Y-1909513D01*
X3048734Y-1909517D01*
X2969517Y-1988734D01*
X2969513Y-1988740D01*
X2913498Y-2085760D01*
X2913497Y-2085763D01*
X2884500Y-2193982D01*
X2884500Y-2306018D01*
X2913497Y-2414237D01*
X2969515Y-2511263D01*
X2969517Y-2511265D01*
X3014970Y-2556718D01*
X3024251Y-2573715D01*
X3037596Y-2587756D01*
X3040651Y-2603750D01*
X3048455Y-2618041D01*
X3047073Y-2637360D01*
X3050708Y-2656385D01*
X3044278Y-2676445D01*
X3043471Y-2687733D01*
X3042332Y-2690670D01*
X3039057Y-2698811D01*
X3023497Y-2725763D01*
X3014076Y-2760921D01*
X3011282Y-2767869D01*
X2994095Y-2789651D01*
X2979649Y-2813352D01*
X2972175Y-2817432D01*
X2968003Y-2822721D01*
X2953084Y-2827857D01*
X2928334Y-2841372D01*
X2892195Y-2851055D01*
X2845761Y-2863497D01*
X2845760Y-2863498D01*
X2748740Y-2919513D01*
X2748734Y-2919517D01*
X2669517Y-2998734D01*
X2669513Y-2998740D01*
X2613498Y-3095760D01*
X2613497Y-3095763D01*
X2584500Y-3203982D01*
X-4785191Y-3203982D01*
X-4772500Y-3156618D01*
X-4772500Y-3044582D01*
X-4801497Y-2936363D01*
X-4801498Y-2936360D01*
X-4857513Y-2839340D01*
X-4857517Y-2839334D01*
X-4936734Y-2760117D01*
X-4936740Y-2760113D01*
X-5033760Y-2704098D01*
X-5033763Y-2704097D01*
X-5141982Y-2675100D01*
X-5254018Y-2675100D01*
X-5254022Y-2675100D01*
X-5256263Y-2675395D01*
X-5258155Y-2675100D01*
X-5262145Y-2675100D01*
X-5262145Y-2674477D01*
X-5325298Y-2664629D01*
X-5377553Y-2618248D01*
X-5396437Y-2550979D01*
X-5375955Y-2484178D01*
X-5365580Y-2471460D01*
X-5361519Y-2466167D01*
X-5361515Y-2466163D01*
X-5305497Y-2369137D01*
X-5276500Y-2260918D01*
X-5276500Y-2148882D01*
X-5305497Y-2040663D01*
X-5305498Y-2040660D01*
X-5361513Y-1943640D01*
X-5361517Y-1943634D01*
X-5440734Y-1864417D01*
X-5440740Y-1864413D01*
X-5537760Y-1808398D01*
X-5537763Y-1808397D01*
X-5587829Y-1794982D01*
X5088100Y-1794982D01*
X5088100Y-1907018D01*
X5117097Y-2015237D01*
X5173115Y-2112263D01*
X5252337Y-2191485D01*
X5349363Y-2247503D01*
X5457582Y-2276500D01*
X5457584Y-2276500D01*
X5569616Y-2276500D01*
X5569618Y-2276500D01*
X5677837Y-2247503D01*
X5774863Y-2191485D01*
X5854085Y-2112263D01*
X5910103Y-2015237D01*
X5934662Y-1923582D01*
X11347800Y-1923582D01*
X11347800Y-2035618D01*
X11376797Y-2143837D01*
X11432815Y-2240863D01*
X11512037Y-2320085D01*
X11609063Y-2376103D01*
X11717282Y-2405100D01*
X11717284Y-2405100D01*
X11829316Y-2405100D01*
X11829318Y-2405100D01*
X11937537Y-2376103D01*
X12034563Y-2320085D01*
X12113785Y-2240863D01*
X12163748Y-2154323D01*
X12214313Y-2106110D01*
X12282920Y-2092886D01*
X12347785Y-2118854D01*
X12378521Y-2154325D01*
X12434315Y-2250963D01*
X12513537Y-2330185D01*
X12610563Y-2386203D01*
X12718782Y-2415200D01*
X12718784Y-2415200D01*
X12830816Y-2415200D01*
X12830818Y-2415200D01*
X12939037Y-2386203D01*
X13036063Y-2330185D01*
X13115285Y-2250963D01*
X13171303Y-2153937D01*
X13200300Y-2045718D01*
X13200300Y-1933682D01*
X13171303Y-1825463D01*
X13132101Y-1757563D01*
X13115628Y-1689663D01*
X13123480Y-1651766D01*
X13127048Y-1642312D01*
X13140603Y-1618837D01*
X13152072Y-1576032D01*
X13154243Y-1570283D01*
X13171731Y-1547114D01*
X13186840Y-1522327D01*
X13192968Y-1518980D01*
X13196338Y-1514517D01*
X13211109Y-1509074D01*
X13238158Y-1494305D01*
X13240416Y-1493700D01*
X13240418Y-1493700D01*
X13348637Y-1464703D01*
X13445663Y-1408685D01*
X13524885Y-1329463D01*
X13580903Y-1232437D01*
X13609900Y-1124218D01*
X13609900Y-1012182D01*
X13580903Y-903963D01*
X13524885Y-806937D01*
X13445663Y-727715D01*
X13348637Y-671697D01*
X13240418Y-642700D01*
X13128382Y-642700D01*
X13020163Y-671697D01*
X13020160Y-671698D01*
X12923140Y-727713D01*
X12923134Y-727717D01*
X12843917Y-806934D01*
X12843913Y-806940D01*
X12787898Y-903960D01*
X12787895Y-903967D01*
X12778022Y-940814D01*
X12741657Y-1000474D01*
X12690342Y-1028494D01*
X12579861Y-1058097D01*
X12579860Y-1058098D01*
X12482840Y-1114113D01*
X12482834Y-1114117D01*
X12403617Y-1193334D01*
X12403613Y-1193340D01*
X12347598Y-1290360D01*
X12347597Y-1290363D01*
X12318600Y-1398582D01*
X12318600Y-1510618D01*
X12346124Y-1613337D01*
X12347597Y-1618836D01*
X12347599Y-1618843D01*
X12386798Y-1686737D01*
X12389625Y-1698392D01*
X12396585Y-1708163D01*
X12397710Y-1731717D01*
X12403271Y-1754637D01*
X12399430Y-1767718D01*
X12399920Y-1777953D01*
X12386807Y-1810721D01*
X12384361Y-1814959D01*
X12333801Y-1863181D01*
X12265196Y-1876414D01*
X12200327Y-1850456D01*
X12169578Y-1814974D01*
X12113785Y-1718337D01*
X12034563Y-1639115D01*
X11937537Y-1583097D01*
X11829318Y-1554100D01*
X11717282Y-1554100D01*
X11609063Y-1583097D01*
X11609060Y-1583098D01*
X11512040Y-1639113D01*
X11512034Y-1639117D01*
X11432817Y-1718334D01*
X11432813Y-1718340D01*
X11376798Y-1815360D01*
X11376797Y-1815363D01*
X11347800Y-1923582D01*
X5934662Y-1923582D01*
X5939100Y-1907018D01*
X5939100Y-1807937D01*
X5958785Y-1740898D01*
X6001100Y-1700550D01*
X6004838Y-1698392D01*
X6095263Y-1646185D01*
X6174485Y-1566963D01*
X6230503Y-1469937D01*
X6259500Y-1361718D01*
X6259500Y-1249682D01*
X6230503Y-1141463D01*
X6174485Y-1044437D01*
X6095263Y-965215D01*
X5999633Y-910003D01*
X5998239Y-909198D01*
X5998237Y-909197D01*
X5890018Y-880200D01*
X5777982Y-880200D01*
X5669763Y-909197D01*
X5669760Y-909198D01*
X5572740Y-965213D01*
X5572734Y-965217D01*
X5493517Y-1044434D01*
X5493513Y-1044440D01*
X5437498Y-1141460D01*
X5437498Y-1141461D01*
X5437497Y-1141463D01*
X5409352Y-1246501D01*
X5408500Y-1249682D01*
X5408500Y-1348762D01*
X5388815Y-1415801D01*
X5346501Y-1456149D01*
X5252337Y-1510515D01*
X5252334Y-1510517D01*
X5173117Y-1589734D01*
X5173113Y-1589740D01*
X5117098Y-1686760D01*
X5117097Y-1686763D01*
X5088100Y-1794982D01*
X-5587829Y-1794982D01*
X-5645982Y-1779400D01*
X-5758018Y-1779400D01*
X-5765827Y-1779400D01*
X-5832866Y-1759715D01*
X-5868821Y-1724452D01*
X-5880276Y-1707365D01*
X-5885797Y-1686763D01*
X-5941815Y-1589737D01*
X-5994387Y-1537164D01*
X-6001134Y-1527102D01*
X-6008135Y-1504866D01*
X-6019306Y-1484408D01*
X-6018430Y-1472166D01*
X-6022117Y-1460458D01*
X-6015984Y-1437968D01*
X-6014322Y-1414716D01*
X-6006198Y-1402075D01*
X-6003737Y-1393049D01*
X-5995801Y-1385897D01*
X-5985821Y-1370369D01*
X-5944917Y-1329465D01*
X-5944915Y-1329463D01*
X-5905677Y-1261501D01*
X-5888898Y-1232439D01*
X-5888897Y-1232436D01*
X-5884422Y-1215737D01*
X-5859900Y-1124218D01*
X-5859900Y-1012182D01*
X-5888897Y-903963D01*
X-5888898Y-903960D01*
X-5942018Y-811955D01*
X-5942017Y-811955D01*
X-5944915Y-806937D01*
X-5944917Y-806934D01*
X-5993769Y-758082D01*
X-5453400Y-758082D01*
X-5453400Y-870118D01*
X-5424403Y-978337D01*
X-5368385Y-1075363D01*
X-5289163Y-1154585D01*
X-5192137Y-1210603D01*
X-5083918Y-1239600D01*
X-5083916Y-1239600D01*
X-4971884Y-1239600D01*
X-4971882Y-1239600D01*
X-4863663Y-1210603D01*
X-4766637Y-1154585D01*
X-4687415Y-1075363D01*
X-4644178Y-1000474D01*
X-4631398Y-978339D01*
X-4631397Y-978336D01*
X-4629510Y-971296D01*
X-4602400Y-870118D01*
X-4602400Y-808982D01*
X-3384000Y-808982D01*
X-3384000Y-921018D01*
X-3355003Y-1029237D01*
X-3298985Y-1126263D01*
X-3219763Y-1205485D01*
X-3122737Y-1261503D01*
X-3014518Y-1290500D01*
X-3014516Y-1290500D01*
X-2902484Y-1290500D01*
X-2902482Y-1290500D01*
X-2794263Y-1261503D01*
X-2697237Y-1205485D01*
X-2618015Y-1126263D01*
X-2561997Y-1029237D01*
X-2533000Y-921018D01*
X-2533000Y-808982D01*
X-2534340Y-803982D01*
X-2115500Y-803982D01*
X-2115500Y-916018D01*
X-2086503Y-1024237D01*
X-2030485Y-1121263D01*
X-1951263Y-1200485D01*
X-1854237Y-1256503D01*
X-1746018Y-1285500D01*
X-1746016Y-1285500D01*
X-1633984Y-1285500D01*
X-1633982Y-1285500D01*
X-1525763Y-1256503D01*
X-1428737Y-1200485D01*
X-1349515Y-1121263D01*
X-1293497Y-1024237D01*
X-1264500Y-916018D01*
X-1264500Y-803982D01*
X-1284935Y-727717D01*
X-1290232Y-707948D01*
X-1290231Y-707947D01*
X-1293496Y-695765D01*
X-1293498Y-695760D01*
X-1300298Y-683982D01*
X604500Y-683982D01*
X604500Y-796018D01*
X633424Y-903962D01*
X633497Y-904236D01*
X633498Y-904239D01*
X652169Y-936579D01*
X689515Y-1001263D01*
X768737Y-1080485D01*
X865763Y-1136503D01*
X973982Y-1165500D01*
X973984Y-1165500D01*
X1086016Y-1165500D01*
X1086018Y-1165500D01*
X1194237Y-1136503D01*
X1291263Y-1080485D01*
X1370485Y-1001263D01*
X1426503Y-904237D01*
X1455500Y-796018D01*
X1455500Y-793982D01*
X7724500Y-793982D01*
X7724500Y-906018D01*
X7752947Y-1012182D01*
X7753497Y-1014236D01*
X7753498Y-1014239D01*
X7759272Y-1024239D01*
X7809515Y-1111263D01*
X7888737Y-1190485D01*
X7985763Y-1246503D01*
X8093982Y-1275500D01*
X8093984Y-1275500D01*
X8206016Y-1275500D01*
X8206018Y-1275500D01*
X8206019Y-1275499D01*
X8214074Y-1274439D01*
X8214309Y-1276227D01*
X8274041Y-1277642D01*
X8331908Y-1316797D01*
X8359421Y-1381022D01*
X8360300Y-1395759D01*
X8360300Y-1505118D01*
X8389297Y-1613337D01*
X8445315Y-1710363D01*
X8524537Y-1789585D01*
X8621563Y-1845603D01*
X8729782Y-1874600D01*
X8729784Y-1874600D01*
X8841816Y-1874600D01*
X8841818Y-1874600D01*
X8950037Y-1845603D01*
X9047063Y-1789585D01*
X9126285Y-1710363D01*
X9182303Y-1613337D01*
X9211300Y-1505118D01*
X9211300Y-1393082D01*
X9209826Y-1387582D01*
X9989300Y-1387582D01*
X9989300Y-1499618D01*
X10013447Y-1589734D01*
X10018297Y-1607836D01*
X10018298Y-1607839D01*
X10024647Y-1618836D01*
X10074315Y-1704863D01*
X10153537Y-1784085D01*
X10250563Y-1840103D01*
X10358782Y-1869100D01*
X10358784Y-1869100D01*
X10470816Y-1869100D01*
X10470818Y-1869100D01*
X10579037Y-1840103D01*
X10676063Y-1784085D01*
X10755285Y-1704863D01*
X10811303Y-1607837D01*
X10840300Y-1499618D01*
X10840300Y-1387582D01*
X10811303Y-1279363D01*
X10755285Y-1182337D01*
X10676063Y-1103115D01*
X10611379Y-1065769D01*
X10579039Y-1047098D01*
X10579038Y-1047097D01*
X10579037Y-1047097D01*
X10470818Y-1018100D01*
X10358782Y-1018100D01*
X10250563Y-1047097D01*
X10250560Y-1047098D01*
X10153540Y-1103113D01*
X10153534Y-1103117D01*
X10074317Y-1182334D01*
X10074313Y-1182340D01*
X10018298Y-1279360D01*
X10018297Y-1279363D01*
X9989300Y-1387582D01*
X9209826Y-1387582D01*
X9182303Y-1284863D01*
X9126285Y-1187837D01*
X9047063Y-1108615D01*
X8950037Y-1052597D01*
X8841818Y-1023600D01*
X8729782Y-1023600D01*
X8729780Y-1023600D01*
X8721726Y-1024661D01*
X8721490Y-1022875D01*
X8661741Y-1021451D01*
X8603879Y-982287D01*
X8576377Y-918058D01*
X8575500Y-903340D01*
X8575500Y-793984D01*
X8575500Y-793982D01*
X8546503Y-685763D01*
X8490485Y-588737D01*
X8411263Y-509515D01*
X8346579Y-472169D01*
X8314239Y-453498D01*
X8314238Y-453497D01*
X8314237Y-453497D01*
X8206018Y-424500D01*
X8093982Y-424500D01*
X7985763Y-453497D01*
X7985760Y-453498D01*
X7888740Y-509513D01*
X7888734Y-509517D01*
X7809517Y-588734D01*
X7809513Y-588740D01*
X7753498Y-685760D01*
X7753497Y-685763D01*
X7724500Y-793982D01*
X1455500Y-793982D01*
X1455500Y-683982D01*
X1426503Y-575763D01*
X1370485Y-478737D01*
X1291263Y-399515D01*
X1194237Y-343497D01*
X1086018Y-314500D01*
X973982Y-314500D01*
X865763Y-343497D01*
X865760Y-343498D01*
X768740Y-399513D01*
X768734Y-399517D01*
X689517Y-478734D01*
X689513Y-478740D01*
X633498Y-575760D01*
X633497Y-575763D01*
X604500Y-683982D01*
X-1300298Y-683982D01*
X-1349513Y-598740D01*
X-1349517Y-598734D01*
X-1428734Y-519517D01*
X-1428740Y-519513D01*
X-1525760Y-463498D01*
X-1525763Y-463497D01*
X-1633982Y-434500D01*
X-1746018Y-434500D01*
X-1854237Y-463497D01*
X-1854238Y-463497D01*
X-1854239Y-463498D01*
X-1871762Y-473615D01*
X-1951263Y-519515D01*
X-2030485Y-598737D01*
X-2086503Y-695763D01*
X-2115500Y-803982D01*
X-2534340Y-803982D01*
X-2561997Y-700763D01*
X-2561998Y-700760D01*
X-2618013Y-603740D01*
X-2618017Y-603734D01*
X-2697234Y-524517D01*
X-2697240Y-524513D01*
X-2794260Y-468498D01*
X-2794263Y-468497D01*
X-2902482Y-439500D01*
X-3014518Y-439500D01*
X-3122737Y-468497D01*
X-3122738Y-468497D01*
X-3122739Y-468498D01*
X-3154201Y-486663D01*
X-3219763Y-524515D01*
X-3298985Y-603737D01*
X-3355003Y-700763D01*
X-3384000Y-808982D01*
X-4602400Y-808982D01*
X-4602400Y-758082D01*
X-4631397Y-649863D01*
X-4631398Y-649860D01*
X-4687413Y-552840D01*
X-4687417Y-552834D01*
X-4766634Y-473617D01*
X-4766640Y-473613D01*
X-4863660Y-417598D01*
X-4863663Y-417597D01*
X-4971882Y-388600D01*
X-5083918Y-388600D01*
X-5192137Y-417597D01*
X-5192138Y-417597D01*
X-5192139Y-417598D01*
X-5220957Y-434236D01*
X-5289163Y-473615D01*
X-5368385Y-552837D01*
X-5424403Y-649863D01*
X-5453400Y-758082D01*
X-5993769Y-758082D01*
X-6024134Y-727717D01*
X-6024140Y-727713D01*
X-6121160Y-671698D01*
X-6121163Y-671697D01*
X-6229382Y-642700D01*
X-6341418Y-642700D01*
X-6449637Y-671697D01*
X-6546663Y-727715D01*
X-6625885Y-806937D01*
X-6681903Y-903963D01*
X-6699945Y-971298D01*
X-6736309Y-1030956D01*
X-6787623Y-1058977D01*
X-6835321Y-1071757D01*
X-6867938Y-1080497D01*
X-6867939Y-1080498D01*
X-6964963Y-1136515D01*
X-7044185Y-1215737D01*
X-7100203Y-1312763D01*
X-7129200Y-1420982D01*
X-16434385Y-1420982D01*
X-16440452Y-1359389D01*
X-16440931Y-1352643D01*
X-16480022Y-457482D01*
X-12517600Y-457482D01*
X-12517600Y-569518D01*
X-12488603Y-677737D01*
X-12432585Y-774763D01*
X-12353363Y-853985D01*
X-12256337Y-910003D01*
X-12148118Y-939000D01*
X-12148116Y-939000D01*
X-12036084Y-939000D01*
X-12036082Y-939000D01*
X-11927863Y-910003D01*
X-11830837Y-853985D01*
X-11751615Y-774763D01*
X-11699204Y-683984D01*
X-11695598Y-677739D01*
X-11695597Y-677736D01*
X-11692586Y-666501D01*
X-11666600Y-569518D01*
X-11666600Y-457482D01*
X-11687178Y-380682D01*
X-7899600Y-380682D01*
X-7899600Y-492718D01*
X-7870603Y-600937D01*
X-7814585Y-697963D01*
X-7735363Y-777185D01*
X-7638337Y-833203D01*
X-7530118Y-862200D01*
X-7530116Y-862200D01*
X-7418084Y-862200D01*
X-7418082Y-862200D01*
X-7309863Y-833203D01*
X-7212837Y-777185D01*
X-7133615Y-697963D01*
X-7083110Y-610486D01*
X-7077598Y-600939D01*
X-7077597Y-600936D01*
X-7077008Y-598740D01*
X-7048600Y-492718D01*
X-7048600Y-380682D01*
X-7077597Y-272463D01*
X-7077598Y-272460D01*
X-7111361Y-213982D01*
X2724500Y-213982D01*
X2724500Y-326018D01*
X2749039Y-417597D01*
X2753497Y-434236D01*
X2753498Y-434239D01*
X2766919Y-457484D01*
X2809515Y-531263D01*
X2888737Y-610485D01*
X2985763Y-666503D01*
X3093982Y-695500D01*
X3093984Y-695500D01*
X3206016Y-695500D01*
X3206018Y-695500D01*
X3314237Y-666503D01*
X3411263Y-610485D01*
X3490485Y-531263D01*
X3546503Y-434237D01*
X3575500Y-326018D01*
X3575500Y-213982D01*
X3546503Y-105763D01*
X3490485Y-8737D01*
X3411263Y70485D01*
X3314237Y126503D01*
X3206018Y155500D01*
X3093982Y155500D01*
X2985763Y126503D01*
X2888737Y70485D01*
X2888734Y70482D01*
X2809517Y-8734D01*
X2809513Y-8740D01*
X2753498Y-105760D01*
X2753497Y-105763D01*
X2724500Y-213982D01*
X-7111361Y-213982D01*
X-7133613Y-175440D01*
X-7133617Y-175434D01*
X-7212834Y-96217D01*
X-7212840Y-96213D01*
X-7309860Y-40198D01*
X-7309863Y-40197D01*
X-7418082Y-11200D01*
X-7530118Y-11200D01*
X-7638337Y-40197D01*
X-7638338Y-40197D01*
X-7638339Y-40198D01*
X-7660308Y-52882D01*
X-7735363Y-96215D01*
X-7814585Y-175437D01*
X-7870603Y-272463D01*
X-7899600Y-380682D01*
X-11687178Y-380682D01*
X-11695597Y-349263D01*
X-11695598Y-349260D01*
X-11751613Y-252240D01*
X-11751617Y-252234D01*
X-11830834Y-173017D01*
X-11830840Y-173013D01*
X-11927860Y-116998D01*
X-11927863Y-116997D01*
X-12036082Y-88000D01*
X-12148118Y-88000D01*
X-12256337Y-116997D01*
X-12256338Y-116997D01*
X-12256339Y-116998D01*
X-12275291Y-127940D01*
X-12353363Y-173015D01*
X-12432585Y-252237D01*
X-12488603Y-349263D01*
X-12517600Y-457482D01*
X-16480022Y-457482D01*
X-16480141Y-454765D01*
X-16494413Y-127940D01*
X-16494531Y-122530D01*
X-16494531Y122530D01*
X-16494413Y127940D01*
X-16484994Y343618D01*
X-10362500Y343618D01*
X-10362500Y231582D01*
X-10333503Y123363D01*
X-10277485Y26337D01*
X-10198263Y-52885D01*
X-10101237Y-108903D01*
X-9993018Y-137900D01*
X-9993016Y-137900D01*
X-9880984Y-137900D01*
X-9880982Y-137900D01*
X-9772763Y-108903D01*
X-9675737Y-52885D01*
X-9663049Y-40197D01*
X-9596517Y26334D01*
X-9596513Y26340D01*
X-9540498Y123360D01*
X-9540497Y123363D01*
X-9511500Y231582D01*
X-9511500Y343617D01*
X-9520085Y375659D01*
X-9540497Y451837D01*
X-9596515Y548863D01*
X-9675737Y628085D01*
X-9772763Y684103D01*
X-9880982Y713100D01*
X-9993018Y713100D01*
X-10101237Y684103D01*
X-10198263Y628085D01*
X-10277485Y548863D01*
X-10333503Y451837D01*
X-10362500Y343618D01*
X-16484994Y343618D01*
X-16484403Y357155D01*
X-16457334Y977018D01*
X-14504500Y977018D01*
X-14504500Y864982D01*
X-14475503Y756763D01*
X-14419485Y659737D01*
X-14340263Y580515D01*
X-14243237Y524497D01*
X-14135018Y495500D01*
X-14135017Y495500D01*
X-14022982Y495500D01*
X-13914763Y524497D01*
X-13914760Y524498D01*
X-13817740Y580513D01*
X-13817734Y580517D01*
X-13738517Y659734D01*
X-13738513Y659740D01*
X-13682498Y756760D01*
X-13682497Y756763D01*
X-13653500Y864982D01*
X-13653500Y868418D01*
X-1601300Y868418D01*
X-1601300Y756382D01*
X-1572303Y648163D01*
X-1516285Y551137D01*
X-1437063Y471915D01*
X-1340037Y415897D01*
X-1231818Y386900D01*
X-1231817Y386900D01*
X-1119782Y386900D01*
X-1011563Y415897D01*
X-1011560Y415898D01*
X-914540Y471913D01*
X-914534Y471917D01*
X-835317Y551134D01*
X-835313Y551140D01*
X-779298Y648160D01*
X-779297Y648163D01*
X-750300Y756382D01*
X-750300Y868416D01*
X-750300Y868417D01*
X-750300Y868418D01*
X-752336Y876017D01*
X624500Y876017D01*
X624500Y763982D01*
X653497Y655763D01*
X653498Y655760D01*
X709513Y558740D01*
X709517Y558734D01*
X788734Y479517D01*
X788740Y479513D01*
X885760Y423498D01*
X885763Y423497D01*
X993982Y394500D01*
X1106017Y394500D01*
X1106018Y394500D01*
X1214237Y423497D01*
X1311263Y479515D01*
X1390485Y558737D01*
X1446503Y655763D01*
X1475500Y763982D01*
X1475500Y862817D01*
X7187500Y862817D01*
X7187500Y750782D01*
X7216497Y642563D01*
X7216498Y642560D01*
X7272513Y545540D01*
X7272517Y545534D01*
X7351734Y466317D01*
X7351740Y466313D01*
X7448760Y410298D01*
X7448763Y410297D01*
X7556982Y381300D01*
X7669017Y381300D01*
X7669018Y381300D01*
X7777237Y410297D01*
X7786937Y415897D01*
X7810494Y429498D01*
X7874263Y466315D01*
X7953485Y545537D01*
X8009503Y642563D01*
X8038500Y750782D01*
X8038500Y862818D01*
X8009503Y971037D01*
X7953485Y1068063D01*
X7874263Y1147285D01*
X7777237Y1203303D01*
X7669018Y1232300D01*
X7556982Y1232300D01*
X7448763Y1203303D01*
X7351737Y1147285D01*
X7272515Y1068063D01*
X7272513Y1068059D01*
X7219730Y976636D01*
X7216497Y971037D01*
X7188081Y864984D01*
X7187500Y862817D01*
X1475500Y862817D01*
X1475500Y876018D01*
X1446503Y984237D01*
X1390485Y1081263D01*
X1311263Y1160485D01*
X1214237Y1216503D01*
X1106018Y1245500D01*
X993982Y1245500D01*
X885763Y1216503D01*
X788737Y1160485D01*
X709515Y1081263D01*
X705127Y1073663D01*
X656961Y990236D01*
X653497Y984237D01*
X626108Y882017D01*
X624500Y876017D01*
X-752336Y876017D01*
X-779297Y976637D01*
X-780862Y979347D01*
X-805255Y1021597D01*
X-835315Y1073663D01*
X-914537Y1152885D01*
X-1011563Y1208903D01*
X-1119782Y1237900D01*
X-1231818Y1237900D01*
X-1340037Y1208903D01*
X-1437063Y1152885D01*
X-1516285Y1073663D01*
X-1572303Y976637D01*
X-1601300Y868418D01*
X-13653500Y868418D01*
X-13653500Y977017D01*
X-13655434Y984237D01*
X-13682497Y1085237D01*
X-13690671Y1099394D01*
X-13718319Y1147282D01*
X-13738515Y1182263D01*
X-13817737Y1261485D01*
X-13914763Y1317503D01*
X-14022982Y1346500D01*
X-14135018Y1346500D01*
X-14243237Y1317503D01*
X-14340263Y1261485D01*
X-14419485Y1182263D01*
X-14475503Y1085237D01*
X-14504500Y977018D01*
X-16457334Y977018D01*
X-16456743Y990555D01*
X-16440931Y1352643D01*
X-16440452Y1359388D01*
X-16424572Y1520618D01*
X-5706800Y1520618D01*
X-5706800Y1408582D01*
X-5677803Y1300363D01*
X-5621785Y1203337D01*
X-5542563Y1124115D01*
X-5445537Y1068097D01*
X-5337318Y1039100D01*
X-5337317Y1039100D01*
X-5225282Y1039100D01*
X-5117063Y1068097D01*
X-5117060Y1068098D01*
X-5020040Y1124113D01*
X-5020034Y1124117D01*
X-4940817Y1203334D01*
X-4940813Y1203340D01*
X-4884798Y1300360D01*
X-4884797Y1300363D01*
X-4855800Y1408582D01*
X-4855800Y1520617D01*
X-4856473Y1523131D01*
X-4884797Y1628837D01*
X-4940815Y1725863D01*
X-5020037Y1805085D01*
X-5117063Y1861103D01*
X-5225282Y1890100D01*
X-5337318Y1890100D01*
X-5445537Y1861103D01*
X-5542563Y1805085D01*
X-5621785Y1725863D01*
X-5677803Y1628837D01*
X-5706800Y1520618D01*
X-16424572Y1520618D01*
X-16422574Y1540900D01*
X-16422574Y1540901D01*
X-16419538Y1571722D01*
X-16419074Y1575753D01*
X-16303318Y2454918D01*
X-9402500Y2454918D01*
X-9402500Y2342882D01*
X-9373503Y2234663D01*
X-9317485Y2137637D01*
X-9238263Y2058415D01*
X-9193368Y2032495D01*
X-9147021Y2005736D01*
X-9141237Y2002397D01*
X-9033018Y1973400D01*
X-9033017Y1973400D01*
X-8920982Y1973400D01*
X-8812763Y2002397D01*
X-8812760Y2002398D01*
X-8715740Y2058413D01*
X-8715734Y2058417D01*
X-8636517Y2137634D01*
X-8636513Y2137640D01*
X-8580498Y2234660D01*
X-8580497Y2234663D01*
X-8551500Y2342882D01*
X-8551500Y2454917D01*
X-8559797Y2485884D01*
X-8580497Y2563137D01*
X-8636515Y2660163D01*
X-8715737Y2739385D01*
X-8812763Y2795403D01*
X-8920982Y2824400D01*
X-9033018Y2824400D01*
X-9141237Y2795403D01*
X-9238263Y2739385D01*
X-9317485Y2660163D01*
X-9373503Y2563137D01*
X-9402500Y2454918D01*
X-16303318Y2454918D01*
X-16300117Y2479232D01*
X-16252857Y2838174D01*
X-16251535Y2846178D01*
X-16234494Y2931850D01*
X-16233939Y2934493D01*
X-16160985Y3263618D01*
X-6539800Y3263618D01*
X-6539800Y3151582D01*
X-6510803Y3043363D01*
X-6454785Y2946337D01*
X-6375563Y2867115D01*
X-6339299Y2846178D01*
X-6301579Y2824400D01*
X-6278537Y2811097D01*
X-6170318Y2782100D01*
X-6170317Y2782100D01*
X-6058282Y2782100D01*
X-5950063Y2811097D01*
X-5950060Y2811098D01*
X-5853040Y2867113D01*
X-5853034Y2867117D01*
X-5773817Y2946334D01*
X-5773813Y2946340D01*
X-5717798Y3043360D01*
X-5717797Y3043361D01*
X-5703232Y3097718D01*
X-1335800Y3097718D01*
X-1335800Y2985682D01*
X-1306803Y2877463D01*
X-1250785Y2780437D01*
X-1171563Y2701215D01*
X-1074537Y2645197D01*
X-966318Y2616200D01*
X-966317Y2616200D01*
X-854282Y2616200D01*
X-746063Y2645197D01*
X-746060Y2645198D01*
X-649040Y2701213D01*
X-649034Y2701217D01*
X-569817Y2780434D01*
X-569813Y2780440D01*
X-513798Y2877460D01*
X-513797Y2877463D01*
X-484800Y2985682D01*
X-484800Y3097217D01*
X485300Y3097217D01*
X485300Y2985182D01*
X514297Y2876963D01*
X514298Y2876960D01*
X570313Y2779940D01*
X570317Y2779934D01*
X649534Y2700717D01*
X649540Y2700713D01*
X746560Y2644698D01*
X746563Y2644697D01*
X854782Y2615700D01*
X966817Y2615700D01*
X966818Y2615700D01*
X1075037Y2644697D01*
X1172063Y2700715D01*
X1251285Y2779937D01*
X1307303Y2876963D01*
X1336300Y2985182D01*
X1336300Y3097218D01*
X1307303Y3205437D01*
X1251285Y3302463D01*
X1172063Y3381685D01*
X1075037Y3437703D01*
X966818Y3466700D01*
X854782Y3466700D01*
X746563Y3437703D01*
X649537Y3381685D01*
X570315Y3302463D01*
X514297Y3205437D01*
X485434Y3097716D01*
X485300Y3097217D01*
X-484800Y3097217D01*
X-484800Y3097717D01*
X-489849Y3116563D01*
X-513797Y3205937D01*
X-569815Y3302963D01*
X-649037Y3382185D01*
X-746063Y3438203D01*
X-854282Y3467200D01*
X-966318Y3467200D01*
X-1074537Y3438203D01*
X-1171563Y3382185D01*
X-1250785Y3302963D01*
X-1306803Y3205937D01*
X-1335800Y3097718D01*
X-5703232Y3097718D01*
X-5698183Y3116563D01*
X-5692455Y3137940D01*
X-5688800Y3151580D01*
X-5688800Y3263617D01*
X-5699207Y3302459D01*
X-5717797Y3371837D01*
X-5773815Y3468863D01*
X-5853037Y3548085D01*
X-5950063Y3604103D01*
X-6058282Y3633100D01*
X-6170318Y3633100D01*
X-6278537Y3604103D01*
X-6375563Y3548085D01*
X-6454785Y3468863D01*
X-6510803Y3371837D01*
X-6539800Y3263618D01*
X-16160985Y3263618D01*
X-16153236Y3298579D01*
X-16153236Y3298580D01*
X-15964167Y4151545D01*
X-15963389Y4154840D01*
X-15922258Y4319042D01*
X-15920233Y4326204D01*
X-15763031Y4824718D01*
X-9735200Y4824718D01*
X-9735200Y4712682D01*
X-9706203Y4604463D01*
X-9650185Y4507437D01*
X-9570963Y4428215D01*
X-9473937Y4372197D01*
X-9365718Y4343200D01*
X-9365717Y4343200D01*
X-9253682Y4343200D01*
X-9145463Y4372197D01*
X-9145460Y4372198D01*
X-9048440Y4428213D01*
X-9048434Y4428217D01*
X-8969217Y4507434D01*
X-8969213Y4507440D01*
X-8913198Y4604460D01*
X-8913197Y4604463D01*
X-8884200Y4712682D01*
X-8884200Y4824717D01*
X-8887293Y4836263D01*
X-8913197Y4932937D01*
X-8919468Y4943798D01*
X-8944895Y4987840D01*
X-8969215Y5029963D01*
X-9048437Y5109185D01*
X-9145463Y5165203D01*
X-9253682Y5194200D01*
X-9365718Y5194200D01*
X-9473937Y5165203D01*
X-9570963Y5109185D01*
X-9650185Y5029963D01*
X-9706203Y4932937D01*
X-9735200Y4824718D01*
X-15763031Y4824718D01*
X-15748712Y4870125D01*
X-15748710Y4870137D01*
X-15725482Y4943798D01*
X-15546509Y5511350D01*
X-15545010Y5515804D01*
X-15465447Y5738165D01*
X-15463259Y5743839D01*
X-15441648Y5796018D01*
X-12923500Y5796018D01*
X-12923500Y5683982D01*
X-12894503Y5575763D01*
X-12838485Y5478737D01*
X-12759263Y5399515D01*
X-12733533Y5384660D01*
X-12683443Y5355740D01*
X-12662237Y5343497D01*
X-12554018Y5314500D01*
X-12554017Y5314500D01*
X-12441982Y5314500D01*
X-12333763Y5343497D01*
X-12333760Y5343498D01*
X-12236740Y5399513D01*
X-12236734Y5399517D01*
X-12157517Y5478734D01*
X-12157513Y5478740D01*
X-12101498Y5575760D01*
X-12101497Y5575762D01*
X-12094584Y5601563D01*
X-12093685Y5604918D01*
X-6254900Y5604918D01*
X-6254900Y5492882D01*
X-6225903Y5384663D01*
X-6169885Y5287637D01*
X-6169882Y5287634D01*
X-6090665Y5208417D01*
X-6090659Y5208412D01*
X-5993640Y5152398D01*
X-5993632Y5152395D01*
X-5993397Y5152332D01*
X-5993220Y5152224D01*
X-5986133Y5149289D01*
X-5986591Y5148182D01*
X-5933739Y5115962D01*
X-5903215Y5053113D01*
X-5901500Y5032560D01*
X-5901500Y4967582D01*
X-5872503Y4859363D01*
X-5816485Y4762337D01*
X-5737263Y4683115D01*
X-5640237Y4627097D01*
X-5532018Y4598100D01*
X-5532017Y4598100D01*
X-5419982Y4598100D01*
X-5311763Y4627097D01*
X-5311760Y4627098D01*
X-5214740Y4683113D01*
X-5214734Y4683117D01*
X-5135517Y4762334D01*
X-5135513Y4762340D01*
X-5079498Y4859360D01*
X-5079497Y4859363D01*
X-5050500Y4967582D01*
X-5050500Y5056518D01*
X-1733900Y5056518D01*
X-1733900Y4944482D01*
X-1704903Y4836263D01*
X-1648885Y4739237D01*
X-1569663Y4660015D01*
X-1528906Y4636484D01*
X-1485524Y4611437D01*
X-1472637Y4603997D01*
X-1364418Y4575000D01*
X-1364417Y4575000D01*
X-1252382Y4575000D01*
X-1144163Y4603997D01*
X-1144160Y4603998D01*
X-1047140Y4660013D01*
X-1047134Y4660017D01*
X-967917Y4739234D01*
X-967915Y4739237D01*
X-965279Y4743803D01*
X-955003Y4761600D01*
X-904438Y4809815D01*
X-847617Y4823600D01*
X-753282Y4823600D01*
X-645063Y4852597D01*
X-645060Y4852598D01*
X-548040Y4908613D01*
X-548034Y4908617D01*
X-468817Y4987834D01*
X-468813Y4987840D01*
X-412798Y5084860D01*
X-412797Y5084863D01*
X-383800Y5193082D01*
X-383800Y5305117D01*
X-393410Y5340985D01*
X-412797Y5413337D01*
X-412888Y5413494D01*
X-450556Y5478737D01*
X-468815Y5510363D01*
X-548037Y5589585D01*
X-645063Y5645603D01*
X-753282Y5674600D01*
X-865318Y5674600D01*
X-973537Y5645603D01*
X-1070563Y5589585D01*
X-1149785Y5510363D01*
X-1153149Y5504536D01*
X-1162695Y5488002D01*
X-1213261Y5439785D01*
X-1270083Y5426000D01*
X-1364418Y5426000D01*
X-1472637Y5397003D01*
X-1569663Y5340985D01*
X-1648885Y5261763D01*
X-1704903Y5164737D01*
X-1733900Y5056518D01*
X-5050500Y5056518D01*
X-5050500Y5079617D01*
X-5051905Y5084863D01*
X-5079497Y5187837D01*
X-5135515Y5284863D01*
X-5214737Y5364085D01*
X-5311763Y5420103D01*
X-5311990Y5420163D01*
X-5312159Y5420266D01*
X-5319270Y5423212D01*
X-5318810Y5424320D01*
X-5371651Y5456526D01*
X-5402182Y5519372D01*
X-5403900Y5539939D01*
X-5403900Y5604917D01*
X-5411039Y5631563D01*
X-5432897Y5713137D01*
X-5437126Y5720461D01*
X-5488915Y5810163D01*
X-5551270Y5872518D01*
X-5086000Y5872518D01*
X-5086000Y5760482D01*
X-5057003Y5652263D01*
X-5000985Y5555237D01*
X-4921763Y5476015D01*
X-4885906Y5455313D01*
X-4835135Y5426000D01*
X-4824737Y5419997D01*
X-4716518Y5391000D01*
X-4716517Y5391000D01*
X-4604482Y5391000D01*
X-4496263Y5419997D01*
X-4496260Y5419998D01*
X-4399240Y5476013D01*
X-4399234Y5476017D01*
X-4340981Y5534271D01*
X-4279658Y5567756D01*
X-4209966Y5562772D01*
X-4165619Y5534271D01*
X-4086663Y5455315D01*
X-4059764Y5439785D01*
X-4013959Y5413339D01*
X-3989637Y5399297D01*
X-3881418Y5370300D01*
X-3881417Y5370300D01*
X-3769382Y5370300D01*
X-3661163Y5399297D01*
X-3661160Y5399298D01*
X-3564140Y5455313D01*
X-3564134Y5455317D01*
X-3484917Y5534534D01*
X-3484913Y5534540D01*
X-3428898Y5631560D01*
X-3428897Y5631563D01*
X-3399900Y5739782D01*
X-3399900Y5851817D01*
X-3400896Y5855537D01*
X-3428897Y5960037D01*
X-3484915Y6057063D01*
X-3564137Y6136285D01*
X-3627412Y6172817D01*
X880700Y6172817D01*
X880700Y6060782D01*
X909697Y5952563D01*
X909698Y5952560D01*
X965713Y5855540D01*
X965717Y5855534D01*
X1044934Y5776317D01*
X1044940Y5776313D01*
X1141960Y5720298D01*
X1141963Y5720297D01*
X1250182Y5691300D01*
X1362217Y5691300D01*
X1362218Y5691300D01*
X1470437Y5720297D01*
X1499023Y5736801D01*
X1523528Y5750949D01*
X1591428Y5767421D01*
X1657455Y5744568D01*
X1692913Y5705563D01*
X1720813Y5657240D01*
X1720817Y5657234D01*
X1800034Y5578017D01*
X1800040Y5578013D01*
X1897060Y5521998D01*
X1897063Y5521997D01*
X2005282Y5493000D01*
X2117317Y5493000D01*
X2117318Y5493000D01*
X2225537Y5521997D01*
X2322563Y5578015D01*
X2382721Y5638173D01*
X2444044Y5671658D01*
X2513736Y5666674D01*
X2569669Y5624802D01*
X2590176Y5582588D01*
X2594496Y5566465D01*
X2594498Y5566460D01*
X2650513Y5469440D01*
X2650517Y5469434D01*
X2729734Y5390217D01*
X2729740Y5390213D01*
X2826760Y5334198D01*
X2826763Y5334197D01*
X2934982Y5305200D01*
X3047017Y5305200D01*
X3047018Y5305200D01*
X3155237Y5334197D01*
X3252263Y5390215D01*
X3319265Y5457217D01*
X5327600Y5457217D01*
X5327600Y5345182D01*
X5356597Y5236963D01*
X5356598Y5236960D01*
X5412613Y5139940D01*
X5412617Y5139934D01*
X5491834Y5060717D01*
X5491840Y5060713D01*
X5588860Y5004698D01*
X5588863Y5004697D01*
X5697082Y4975700D01*
X5817245Y4975700D01*
X5817245Y4973541D01*
X5875058Y4964522D01*
X5927310Y4918138D01*
X5944413Y4873329D01*
X5946200Y4862917D01*
X5946200Y4816682D01*
X5968279Y4734281D01*
X5969241Y4728677D01*
X5965841Y4699403D01*
X5965140Y4669944D01*
X5961856Y4665093D01*
X5961181Y4659273D01*
X5942494Y4636484D01*
X5925978Y4612081D01*
X5920592Y4609774D01*
X5916878Y4605245D01*
X5888841Y4596178D01*
X5861750Y4584577D01*
X5850984Y4583935D01*
X5850398Y4583746D01*
X5849920Y4583872D01*
X5847028Y4583700D01*
X5761882Y4583700D01*
X5653663Y4554703D01*
X5556637Y4498685D01*
X5477415Y4419463D01*
X5450127Y4372198D01*
X5433385Y4343200D01*
X5421397Y4322437D01*
X5400890Y4245901D01*
X5392400Y4214217D01*
X5392400Y4102182D01*
X5421397Y3993963D01*
X5421398Y3993960D01*
X5477413Y3896940D01*
X5477417Y3896934D01*
X5556634Y3817717D01*
X5556640Y3817713D01*
X5653660Y3761698D01*
X5653661Y3761697D01*
X5767779Y3731120D01*
X5827439Y3694755D01*
X5857968Y3631908D01*
X5849673Y3562532D01*
X5805188Y3508654D01*
X5767778Y3491570D01*
X5763785Y3490500D01*
X5763782Y3490500D01*
X5655563Y3461503D01*
X5558537Y3405485D01*
X5479315Y3326263D01*
X5465575Y3302465D01*
X5437304Y3253497D01*
X5423297Y3229237D01*
X5395163Y3124236D01*
X5394300Y3121017D01*
X5394300Y3008982D01*
X5423297Y2900763D01*
X5423298Y2900760D01*
X5479313Y2803740D01*
X5479317Y2803734D01*
X5558534Y2724517D01*
X5558540Y2724513D01*
X5605122Y2697619D01*
X5653338Y2647052D01*
X5666560Y2578445D01*
X5640592Y2513580D01*
X5630803Y2502551D01*
X5579515Y2451263D01*
X5523497Y2354237D01*
X5503776Y2280634D01*
X5494500Y2246017D01*
X5494500Y2133982D01*
X5523497Y2025763D01*
X5523497Y2025762D01*
X5539582Y1997903D01*
X5556054Y1930003D01*
X5533201Y1863976D01*
X5519875Y1848223D01*
X5489415Y1817763D01*
X5433397Y1720737D01*
X5408018Y1626018D01*
X5404400Y1612517D01*
X5404400Y1500482D01*
X5433397Y1392263D01*
X5433398Y1392260D01*
X5489413Y1295240D01*
X5489417Y1295234D01*
X5568634Y1216017D01*
X5568640Y1216013D01*
X5665660Y1159998D01*
X5665663Y1159997D01*
X5773882Y1131000D01*
X5885917Y1131000D01*
X5885918Y1131000D01*
X5994137Y1159997D01*
X5994983Y1160485D01*
X6047725Y1190936D01*
X6091163Y1216015D01*
X6119019Y1243871D01*
X6180342Y1277356D01*
X6250034Y1272372D01*
X6294381Y1243871D01*
X6308734Y1229517D01*
X6308740Y1229513D01*
X6405760Y1173498D01*
X6405763Y1173497D01*
X6513982Y1144500D01*
X6626017Y1144500D01*
X6626018Y1144500D01*
X6734237Y1173497D01*
X6831263Y1229515D01*
X6910485Y1308737D01*
X6966503Y1405763D01*
X6984818Y1474117D01*
X8947200Y1474117D01*
X8947200Y1362082D01*
X8976197Y1253863D01*
X8976198Y1253860D01*
X9032213Y1156840D01*
X9032217Y1156834D01*
X9111434Y1077617D01*
X9111440Y1077613D01*
X9134947Y1064041D01*
X9183162Y1013473D01*
X9196383Y944866D01*
X9170414Y880002D01*
X9160626Y868974D01*
X9114215Y822563D01*
X9058197Y725537D01*
X9032086Y628086D01*
X9029200Y617317D01*
X9029200Y505282D01*
X9058197Y397063D01*
X9058198Y397060D01*
X9114213Y300040D01*
X9114217Y300034D01*
X9159071Y255181D01*
X9192556Y193858D01*
X9187572Y124166D01*
X9159071Y79819D01*
X9115115Y35863D01*
X9098471Y7035D01*
X9059098Y-61160D01*
X9059097Y-61163D01*
X9030100Y-169382D01*
X9030100Y-281418D01*
X9059097Y-389637D01*
X9115115Y-486663D01*
X9194337Y-565885D01*
X9291363Y-621903D01*
X9399582Y-650900D01*
X9399584Y-650900D01*
X9511616Y-650900D01*
X9511618Y-650900D01*
X9619837Y-621903D01*
X9716863Y-565885D01*
X9796085Y-486663D01*
X9852103Y-389637D01*
X9881100Y-281418D01*
X9881100Y-169382D01*
X9852103Y-61163D01*
X9796085Y35863D01*
X9751229Y80719D01*
X9746890Y88664D01*
X9739643Y94090D01*
X9730408Y118849D01*
X9717744Y142042D01*
X9718389Y151071D01*
X9715226Y159554D01*
X9717589Y170418D01*
X12764700Y170418D01*
X12764700Y58382D01*
X12793697Y-49837D01*
X12849715Y-146863D01*
X12928937Y-226085D01*
X13025963Y-282103D01*
X13134182Y-311100D01*
X13134184Y-311100D01*
X13246216Y-311100D01*
X13246218Y-311100D01*
X13354437Y-282103D01*
X13451463Y-226085D01*
X13530685Y-146863D01*
X13586703Y-49837D01*
X13615700Y58382D01*
X13615700Y170418D01*
X13586703Y278637D01*
X13530685Y375663D01*
X13451463Y454885D01*
X13439727Y461660D01*
X13391511Y512224D01*
X13378286Y580830D01*
X13404252Y645696D01*
X13439722Y676433D01*
X13456656Y686211D01*
X13456663Y686215D01*
X13535885Y765437D01*
X13591903Y862463D01*
X13620900Y970682D01*
X13620900Y1082718D01*
X13591903Y1190937D01*
X13535885Y1287963D01*
X13476079Y1347769D01*
X13442594Y1409092D01*
X13447578Y1478784D01*
X13476079Y1523131D01*
X13533182Y1580234D01*
X13533185Y1580237D01*
X13589203Y1677263D01*
X13618200Y1785482D01*
X13618200Y1897518D01*
X13589203Y2005737D01*
X13533185Y2102763D01*
X13453963Y2181985D01*
X13356937Y2238003D01*
X13248718Y2267000D01*
X13136682Y2267000D01*
X13028463Y2238003D01*
X12931437Y2181985D01*
X12852215Y2102763D01*
X12852213Y2102759D01*
X12797881Y2008653D01*
X12796197Y2005737D01*
X12770675Y1910485D01*
X12767200Y1897517D01*
X12767200Y1785482D01*
X12796197Y1677263D01*
X12796198Y1677260D01*
X12852213Y1580240D01*
X12852217Y1580234D01*
X12912021Y1520431D01*
X12945506Y1459108D01*
X12940522Y1389416D01*
X12912021Y1345069D01*
X12854915Y1287963D01*
X12826011Y1237900D01*
X12806037Y1203303D01*
X12798897Y1190937D01*
X12770576Y1085239D01*
X12769900Y1082717D01*
X12769900Y970682D01*
X12798897Y862463D01*
X12798898Y862460D01*
X12854913Y765440D01*
X12854917Y765434D01*
X12934134Y686217D01*
X12934142Y686211D01*
X12945877Y679436D01*
X12994091Y628868D01*
X13007312Y560261D01*
X12981343Y495397D01*
X12945876Y464665D01*
X12928937Y454885D01*
X12849715Y375663D01*
X12793697Y278637D01*
X12764700Y170418D01*
X9717589Y170418D01*
X9720842Y185374D01*
X9722728Y211734D01*
X9728546Y220787D01*
X9730078Y227827D01*
X9751229Y256081D01*
X9795182Y300034D01*
X9795185Y300037D01*
X9851203Y397063D01*
X9880200Y505282D01*
X9880200Y617318D01*
X9851203Y725537D01*
X9795185Y822563D01*
X9735731Y882017D01*
X11205900Y882017D01*
X11205900Y769982D01*
X11234897Y661763D01*
X11234898Y661760D01*
X11290913Y564740D01*
X11290917Y564734D01*
X11370134Y485517D01*
X11370140Y485513D01*
X11467160Y429498D01*
X11467163Y429497D01*
X11575382Y400500D01*
X11687417Y400500D01*
X11687418Y400500D01*
X11795637Y429497D01*
X11892663Y485515D01*
X11971885Y564737D01*
X12027903Y661763D01*
X12056900Y769982D01*
X12056900Y882018D01*
X12027903Y990237D01*
X11971885Y1087263D01*
X11892663Y1166485D01*
X11795637Y1222503D01*
X11687418Y1251500D01*
X11575382Y1251500D01*
X11467163Y1222503D01*
X11370137Y1166485D01*
X11290915Y1087263D01*
X11288290Y1082716D01*
X11235081Y990555D01*
X11234897Y990237D01*
X11226207Y957803D01*
X11205900Y882017D01*
X9735731Y882017D01*
X9715963Y901785D01*
X9680723Y922130D01*
X9670740Y931267D01*
X9659381Y950041D01*
X9644240Y965921D01*
X9641651Y979347D01*
X9634573Y991048D01*
X9635168Y1012982D01*
X9631015Y1034528D01*
X9636097Y1047223D01*
X9636468Y1060892D01*
X9648826Y1079022D01*
X9656982Y1099394D01*
X9666773Y1110425D01*
X9713182Y1156834D01*
X9713185Y1156837D01*
X9769203Y1253863D01*
X9798200Y1362082D01*
X9798200Y1474118D01*
X9769203Y1582337D01*
X9713185Y1679363D01*
X9633963Y1758585D01*
X9536937Y1814603D01*
X9428718Y1843600D01*
X9316682Y1843600D01*
X9208463Y1814603D01*
X9111437Y1758585D01*
X9032215Y1679363D01*
X8976197Y1582337D01*
X8948451Y1478784D01*
X8947200Y1474117D01*
X6984818Y1474117D01*
X6995500Y1513982D01*
X6995500Y1626018D01*
X6966503Y1734237D01*
X6910485Y1831263D01*
X6831263Y1910485D01*
X6734237Y1966503D01*
X6626018Y1995500D01*
X6513982Y1995500D01*
X6499695Y1991672D01*
X6472370Y1992321D01*
X6445182Y1989490D01*
X6437949Y1993140D01*
X6429848Y1993333D01*
X6407210Y2008653D01*
X6382806Y2020971D01*
X6378693Y2027954D01*
X6371985Y2032495D01*
X6361224Y2057620D01*
X6347353Y2081178D01*
X6346761Y2091392D01*
X6344479Y2096723D01*
X6343696Y2116282D01*
X6344197Y2129119D01*
X6345500Y2133982D01*
X6345500Y2162502D01*
X6345594Y2164911D01*
X6356001Y2195838D01*
X6365185Y2227114D01*
X6367077Y2228754D01*
X6367878Y2231132D01*
X6393359Y2251527D01*
X6417989Y2272869D01*
X6420468Y2273225D01*
X6422427Y2274793D01*
X6454872Y2278172D01*
X6487147Y2282813D01*
X6491283Y2281964D01*
X6491920Y2282031D01*
X6492577Y2281699D01*
X6501591Y2279850D01*
X6553282Y2266000D01*
X6665317Y2266000D01*
X6665318Y2266000D01*
X6773537Y2294997D01*
X6870563Y2351015D01*
X6949785Y2430237D01*
X7005803Y2527263D01*
X7034800Y2635482D01*
X7034800Y2714917D01*
X9027000Y2714917D01*
X9027000Y2602882D01*
X9055997Y2494663D01*
X9055998Y2494660D01*
X9112013Y2397640D01*
X9112017Y2397634D01*
X9191234Y2318417D01*
X9191240Y2318413D01*
X9288260Y2262398D01*
X9288263Y2262397D01*
X9396482Y2233400D01*
X9508517Y2233400D01*
X9508518Y2233400D01*
X9616737Y2262397D01*
X9638208Y2274793D01*
X9673202Y2294997D01*
X9713763Y2318415D01*
X9792985Y2397637D01*
X9849003Y2494663D01*
X9876670Y2597917D01*
X11208100Y2597917D01*
X11208100Y2485882D01*
X11237097Y2377663D01*
X11237098Y2377660D01*
X11293113Y2280640D01*
X11293117Y2280634D01*
X11372334Y2201417D01*
X11372340Y2201413D01*
X11469360Y2145398D01*
X11469363Y2145397D01*
X11577582Y2116400D01*
X11689617Y2116400D01*
X11689618Y2116400D01*
X11797837Y2145397D01*
X11894863Y2201415D01*
X11974085Y2280637D01*
X12030103Y2377663D01*
X12059100Y2485882D01*
X12059100Y2597918D01*
X12031960Y2699207D01*
X12033623Y2769057D01*
X12072786Y2826919D01*
X12137015Y2854423D01*
X12151735Y2855300D01*
X12152817Y2855300D01*
X12152818Y2855300D01*
X12261037Y2884297D01*
X12358063Y2940315D01*
X12437285Y3019537D01*
X12493303Y3116563D01*
X12522300Y3224782D01*
X12522300Y3336818D01*
X12493303Y3445037D01*
X12437285Y3542063D01*
X12358063Y3621285D01*
X12261037Y3677303D01*
X12152818Y3706300D01*
X12040782Y3706300D01*
X11932563Y3677303D01*
X11835537Y3621285D01*
X11756315Y3542063D01*
X11756313Y3542059D01*
X11704836Y3452898D01*
X11700297Y3445037D01*
X11680684Y3371837D01*
X11671300Y3336817D01*
X11671300Y3224782D01*
X11698440Y3123493D01*
X11696777Y3053643D01*
X11657614Y2995781D01*
X11593385Y2968277D01*
X11578665Y2967400D01*
X11577582Y2967400D01*
X11469363Y2938403D01*
X11372337Y2882385D01*
X11293115Y2803163D01*
X11279704Y2779934D01*
X11242166Y2714916D01*
X11237097Y2706137D01*
X11220635Y2644697D01*
X11208100Y2597917D01*
X9876670Y2597917D01*
X9878000Y2602882D01*
X9878000Y2714918D01*
X9849003Y2823137D01*
X9792985Y2920163D01*
X9713763Y2999385D01*
X9616737Y3055403D01*
X9508518Y3084400D01*
X9396482Y3084400D01*
X9288263Y3055403D01*
X9191237Y2999385D01*
X9112015Y2920163D01*
X9087072Y2876960D01*
X9056726Y2824399D01*
X9055997Y2823137D01*
X9029572Y2724515D01*
X9027000Y2714917D01*
X7034800Y2714917D01*
X7034800Y2747518D01*
X7005803Y2855737D01*
X6949785Y2952763D01*
X6870563Y3031985D01*
X6773537Y3088003D01*
X6665318Y3117000D01*
X6553282Y3117000D01*
X6445063Y3088003D01*
X6438821Y3084399D01*
X6419673Y3073344D01*
X6403067Y3069315D01*
X6388373Y3060591D01*
X6369816Y3061248D01*
X6351773Y3056871D01*
X6335624Y3062459D01*
X6318547Y3063065D01*
X6303292Y3073650D01*
X6285746Y3079723D01*
X6274885Y3093362D01*
X6261144Y3102897D01*
X6250299Y3124236D01*
X6243125Y3133246D01*
X6240010Y3140759D01*
X6216303Y3229237D01*
X6170305Y3308907D01*
X6167203Y3316391D01*
X6164293Y3343386D01*
X6157891Y3369775D01*
X6160603Y3377613D01*
X6159715Y3385858D01*
X6171862Y3410142D01*
X6180743Y3435802D01*
X6187261Y3440928D01*
X6190972Y3448346D01*
X6214322Y3462209D01*
X6235664Y3478993D01*
X6243918Y3479781D01*
X6251051Y3484016D01*
X6278193Y3483054D01*
X6305217Y3485635D01*
X6315699Y3481725D01*
X6320877Y3481542D01*
X6326321Y3477763D01*
X6343750Y3471264D01*
X6375562Y3452897D01*
X6483782Y3423900D01*
X6595817Y3423900D01*
X6595818Y3423900D01*
X6704037Y3452897D01*
X6727945Y3466700D01*
X6747106Y3477763D01*
X6801063Y3508915D01*
X6880285Y3588137D01*
X6936303Y3685163D01*
X6965300Y3793382D01*
X6965300Y3905418D01*
X6936303Y4013637D01*
X6880285Y4110663D01*
X6801063Y4189885D01*
X6704037Y4245903D01*
X6605939Y4272187D01*
X6587036Y4283710D01*
X6566109Y4290953D01*
X6557782Y4301540D01*
X6546283Y4308550D01*
X6536607Y4328467D01*
X6522919Y4345874D01*
X6521638Y4359281D01*
X6515753Y4371397D01*
X6518381Y4393386D01*
X6517433Y4403317D01*
X9028600Y4403317D01*
X9028600Y4291282D01*
X9057597Y4183063D01*
X9057598Y4183060D01*
X9113613Y4086040D01*
X9113617Y4086034D01*
X9192834Y4006817D01*
X9192840Y4006813D01*
X9289860Y3950798D01*
X9289863Y3950797D01*
X9398082Y3921800D01*
X9510117Y3921800D01*
X9510118Y3921800D01*
X9618337Y3950797D01*
X9715363Y4006815D01*
X9794585Y4086037D01*
X9850603Y4183063D01*
X9879600Y4291282D01*
X9879600Y4403318D01*
X9850603Y4511537D01*
X9794585Y4608563D01*
X9715363Y4687785D01*
X9668922Y4714597D01*
X9620707Y4765164D01*
X9607484Y4833771D01*
X9633452Y4898636D01*
X9690366Y4939164D01*
X9698814Y4941754D01*
X9703926Y4943124D01*
X9706438Y4943797D01*
X9706439Y4943798D01*
X9757955Y4973541D01*
X9803463Y4999815D01*
X9882685Y5079037D01*
X9938703Y5176063D01*
X9967700Y5284282D01*
X9967700Y5306017D01*
X12126600Y5306017D01*
X12126600Y5193982D01*
X12155597Y5085763D01*
X12155598Y5085760D01*
X12211613Y4988740D01*
X12211617Y4988734D01*
X12290834Y4909517D01*
X12290840Y4909513D01*
X12387860Y4853498D01*
X12387863Y4853497D01*
X12496082Y4824500D01*
X12610700Y4824500D01*
X12677739Y4804815D01*
X12723494Y4752011D01*
X12733438Y4682853D01*
X12730476Y4668413D01*
X12728200Y4659918D01*
X12728200Y4659917D01*
X12728200Y4547882D01*
X12757197Y4439663D01*
X12757198Y4439660D01*
X12813213Y4342640D01*
X12813217Y4342634D01*
X12892434Y4263417D01*
X12892437Y4263415D01*
X12964202Y4221981D01*
X13012417Y4171413D01*
X13025639Y4102806D01*
X12999671Y4037941D01*
X12964202Y4007208D01*
X12935237Y3990485D01*
X12856015Y3911263D01*
X12799997Y3814237D01*
X12771076Y3706299D01*
X12771000Y3706017D01*
X12771000Y3593982D01*
X12799997Y3485763D01*
X12799998Y3485760D01*
X12856013Y3388740D01*
X12856017Y3388734D01*
X12935234Y3309517D01*
X12935240Y3309513D01*
X13032260Y3253498D01*
X13032263Y3253497D01*
X13140482Y3224500D01*
X13252517Y3224500D01*
X13252518Y3224500D01*
X13360737Y3253497D01*
X13457763Y3309515D01*
X13536985Y3388737D01*
X13593003Y3485763D01*
X13622000Y3593982D01*
X13622000Y3706018D01*
X13593003Y3814237D01*
X13536985Y3911263D01*
X13457763Y3990485D01*
X13385999Y4031918D01*
X13337783Y4082484D01*
X13324559Y4151091D01*
X13350527Y4215956D01*
X13385998Y4246692D01*
X13389720Y4248841D01*
X13414963Y4263415D01*
X13494185Y4342637D01*
X13550203Y4439663D01*
X13579200Y4547882D01*
X13579200Y4659918D01*
X13550203Y4768137D01*
X13494185Y4865163D01*
X13414963Y4944385D01*
X13317937Y5000403D01*
X13209718Y5029400D01*
X13097682Y5029400D01*
X13095100Y5029400D01*
X13028061Y5049085D01*
X12982306Y5101889D01*
X12972362Y5171047D01*
X12975325Y5185493D01*
X12975953Y5187837D01*
X12977600Y5193982D01*
X12977600Y5306018D01*
X12948603Y5414237D01*
X12892585Y5511263D01*
X12813363Y5590485D01*
X12716337Y5646503D01*
X12608118Y5675500D01*
X12496082Y5675500D01*
X12387863Y5646503D01*
X12290837Y5590485D01*
X12211615Y5511263D01*
X12187467Y5469437D01*
X12158923Y5419997D01*
X12155597Y5414237D01*
X12127498Y5309367D01*
X12126600Y5306017D01*
X9967700Y5306017D01*
X9967700Y5396318D01*
X9938703Y5504537D01*
X9882685Y5601563D01*
X9803463Y5680785D01*
X9706437Y5736803D01*
X9598218Y5765800D01*
X9486182Y5765800D01*
X9377963Y5736803D01*
X9280937Y5680785D01*
X9201715Y5601563D01*
X9186819Y5575762D01*
X9155778Y5521997D01*
X9145697Y5504537D01*
X9116884Y5397002D01*
X9116700Y5396317D01*
X9116700Y5284282D01*
X9145697Y5176063D01*
X9145698Y5176060D01*
X9201713Y5079040D01*
X9201717Y5079034D01*
X9280934Y4999817D01*
X9280940Y4999812D01*
X9327378Y4973001D01*
X9375593Y4922433D01*
X9388814Y4853826D01*
X9362845Y4788961D01*
X9305930Y4748434D01*
X9297489Y4745846D01*
X9289863Y4743803D01*
X9192837Y4687785D01*
X9113615Y4608563D01*
X9057597Y4511537D01*
X9053073Y4494651D01*
X9028600Y4403317D01*
X6517433Y4403317D01*
X6516277Y4415428D01*
X6522447Y4427397D01*
X6524047Y4440773D01*
X6538147Y4457851D01*
X6548293Y4477530D01*
X6565696Y4491216D01*
X6568532Y4494651D01*
X6576036Y4499348D01*
X6609783Y4518832D01*
X6611037Y4519556D01*
X6632963Y4532215D01*
X6712185Y4611437D01*
X6768203Y4708463D01*
X6797200Y4816682D01*
X6797200Y4928718D01*
X6768203Y5036937D01*
X6712185Y5133963D01*
X6632963Y5213185D01*
X6535937Y5269203D01*
X6427718Y5298200D01*
X6315682Y5298200D01*
X6307555Y5298200D01*
X6307555Y5300362D01*
X6249765Y5309367D01*
X6197503Y5355740D01*
X6178600Y5421547D01*
X6178600Y5457216D01*
X6178600Y5457218D01*
X6149603Y5565437D01*
X6093585Y5662463D01*
X6093576Y5662471D01*
X6088638Y5668909D01*
X6090187Y5670098D01*
X6061797Y5722076D01*
X6066773Y5791768D01*
X6095275Y5836127D01*
X6102584Y5843436D01*
X6102585Y5843437D01*
X6158603Y5940463D01*
X6187600Y6048682D01*
X6187600Y6160718D01*
X6174653Y6209036D01*
X6176314Y6278884D01*
X6210011Y6328672D01*
X6208516Y6330168D01*
X6293482Y6415134D01*
X6293485Y6415137D01*
X6349503Y6512163D01*
X6378500Y6620382D01*
X6378500Y6732418D01*
X6349503Y6840637D01*
X6293485Y6937663D01*
X6214263Y7016885D01*
X6117237Y7072903D01*
X6009018Y7101900D01*
X5896982Y7101900D01*
X5788763Y7072903D01*
X5691737Y7016885D01*
X5612515Y6937663D01*
X5577670Y6877309D01*
X5556498Y6840639D01*
X5556497Y6840636D01*
X5527500Y6732417D01*
X5527500Y6620384D01*
X5527499Y6620384D01*
X5540447Y6572061D01*
X5538782Y6502211D01*
X5505086Y6452429D01*
X5506584Y6450932D01*
X5500837Y6445185D01*
X5421615Y6365963D01*
X5365597Y6268937D01*
X5336601Y6160719D01*
X5336600Y6160717D01*
X5336600Y6048682D01*
X5365597Y5940463D01*
X5365598Y5940460D01*
X5421613Y5843440D01*
X5426562Y5836991D01*
X5425018Y5835806D01*
X5453412Y5783777D01*
X5448410Y5714087D01*
X5419920Y5669768D01*
X5412615Y5662463D01*
X5379391Y5604918D01*
X5357188Y5566460D01*
X5356597Y5565437D01*
X5330874Y5469434D01*
X5327600Y5457217D01*
X3319265Y5457217D01*
X3331485Y5469437D01*
X3387503Y5566463D01*
X3414490Y5667182D01*
X3416441Y5672479D01*
X3434028Y5696178D01*
X3449392Y5721384D01*
X3455010Y5724451D01*
X3458079Y5728587D01*
X3472692Y5734106D01*
X3500707Y5749404D01*
X3561132Y5765595D01*
X3561139Y5765598D01*
X3613828Y5796018D01*
X3658163Y5821615D01*
X3737385Y5900837D01*
X3793403Y5997863D01*
X3822400Y6106082D01*
X3822400Y6218118D01*
X3793403Y6326337D01*
X3737385Y6423363D01*
X3658163Y6502585D01*
X3561137Y6558603D01*
X3452918Y6587600D01*
X3340882Y6587600D01*
X3232663Y6558603D01*
X3135637Y6502585D01*
X3056415Y6423363D01*
X3051666Y6415137D01*
X3000398Y6326339D01*
X3000397Y6326338D01*
X2988259Y6281037D01*
X2982351Y6258986D01*
X2974872Y6231075D01*
X2938507Y6171415D01*
X2887192Y6143395D01*
X2826763Y6127203D01*
X2729737Y6071185D01*
X2729734Y6071182D01*
X2669578Y6011026D01*
X2608255Y5977541D01*
X2538563Y5982525D01*
X2482630Y6024397D01*
X2462123Y6066610D01*
X2457803Y6082737D01*
X2401785Y6179763D01*
X2322563Y6258985D01*
X2225537Y6315003D01*
X2207995Y6319703D01*
X2148337Y6356063D01*
X2117805Y6418908D01*
X2126096Y6488284D01*
X2152406Y6527158D01*
X2181682Y6556434D01*
X2181685Y6556437D01*
X2237703Y6653463D01*
X2266700Y6761682D01*
X2266700Y6873718D01*
X2237703Y6981937D01*
X2237698Y6981945D01*
X2234592Y6989447D01*
X2239044Y6991291D01*
X2225298Y7030825D01*
X2241672Y7098749D01*
X2279407Y7136542D01*
X2278314Y7137967D01*
X2284760Y7142913D01*
X2284763Y7142915D01*
X2363985Y7222137D01*
X2420003Y7319163D01*
X2449000Y7427382D01*
X2449000Y7539418D01*
X2420003Y7647637D01*
X2363985Y7744663D01*
X2284763Y7823885D01*
X2268080Y7833517D01*
X8053600Y7833517D01*
X8053600Y7721482D01*
X8082597Y7613263D01*
X8082598Y7613260D01*
X8138613Y7516240D01*
X8138617Y7516234D01*
X8217834Y7437017D01*
X8217840Y7437013D01*
X8314860Y7380998D01*
X8314863Y7380997D01*
X8423082Y7352000D01*
X8535117Y7352000D01*
X8535118Y7352000D01*
X8643337Y7380997D01*
X8740363Y7437015D01*
X8819585Y7516237D01*
X8875603Y7613263D01*
X8904600Y7721482D01*
X8904600Y7751817D01*
X10502000Y7751817D01*
X10502000Y7639782D01*
X10530997Y7531563D01*
X10530998Y7531560D01*
X10587013Y7434540D01*
X10587017Y7434534D01*
X10666234Y7355317D01*
X10666240Y7355313D01*
X10763260Y7299298D01*
X10763263Y7299297D01*
X10871482Y7270300D01*
X10983517Y7270300D01*
X10983518Y7270300D01*
X11091737Y7299297D01*
X11188763Y7355315D01*
X11267985Y7434537D01*
X11324003Y7531563D01*
X11353000Y7639782D01*
X11353000Y7751818D01*
X11324003Y7860037D01*
X11267985Y7957063D01*
X11188763Y8036285D01*
X11091737Y8092303D01*
X10983518Y8121300D01*
X10871482Y8121300D01*
X10763263Y8092303D01*
X10666237Y8036285D01*
X10587015Y7957063D01*
X10530997Y7860037D01*
X10503914Y7758959D01*
X10502000Y7751817D01*
X8904600Y7751817D01*
X8904600Y7833518D01*
X8875603Y7941737D01*
X8819585Y8038763D01*
X8740363Y8117985D01*
X8643337Y8174003D01*
X8535118Y8203000D01*
X8423082Y8203000D01*
X8314863Y8174003D01*
X8217837Y8117985D01*
X8138615Y8038763D01*
X8107748Y7985300D01*
X8083393Y7943115D01*
X8082597Y7941737D01*
X8060701Y7860017D01*
X8053600Y7833517D01*
X2268080Y7833517D01*
X2187737Y7879903D01*
X2079518Y7908900D01*
X1967482Y7908900D01*
X1859263Y7879903D01*
X1762237Y7823885D01*
X1683015Y7744663D01*
X1645669Y7679979D01*
X1635253Y7661936D01*
X1626997Y7647637D01*
X1598890Y7542737D01*
X1598000Y7539417D01*
X1598000Y7427382D01*
X1626997Y7319163D01*
X1630108Y7311653D01*
X1628051Y7310801D01*
X1638834Y7250883D01*
X1612066Y7186344D01*
X1585813Y7163878D01*
X1586386Y7163133D01*
X1579940Y7158187D01*
X1579937Y7158185D01*
X1500715Y7078963D01*
X1472923Y7030825D01*
X1450098Y6991291D01*
X1444697Y6981937D01*
X1432835Y6937665D01*
X1415700Y6873717D01*
X1415700Y6761682D01*
X1432658Y6698393D01*
X1430995Y6628543D01*
X1391832Y6570680D01*
X1327603Y6543177D01*
X1312883Y6542300D01*
X1250182Y6542300D01*
X1141963Y6513303D01*
X1044937Y6457285D01*
X965715Y6378063D01*
X909697Y6281037D01*
X882562Y6179765D01*
X880700Y6172817D01*
X-3627412Y6172817D01*
X-3661163Y6192303D01*
X-3769382Y6221300D01*
X-3881418Y6221300D01*
X-3989637Y6192303D01*
X-4086663Y6136285D01*
X-4116864Y6106084D01*
X-4144919Y6078029D01*
X-4206242Y6044544D01*
X-4275934Y6049528D01*
X-4320281Y6078029D01*
X-4399234Y6156982D01*
X-4399237Y6156985D01*
X-4496263Y6213003D01*
X-4604482Y6242000D01*
X-4716518Y6242000D01*
X-4824737Y6213003D01*
X-4921763Y6156985D01*
X-5000985Y6077763D01*
X-5057003Y5980737D01*
X-5086000Y5872518D01*
X-5551270Y5872518D01*
X-5568134Y5889382D01*
X-5568137Y5889385D01*
X-5665163Y5945403D01*
X-5773382Y5974400D01*
X-5885418Y5974400D01*
X-5993637Y5945403D01*
X-6090663Y5889385D01*
X-6169885Y5810163D01*
X-6225903Y5713137D01*
X-6254900Y5604918D01*
X-12093685Y5604918D01*
X-12072500Y5683982D01*
X-12072500Y5796018D01*
X-12101497Y5904237D01*
X-12157515Y6001263D01*
X-12236737Y6080485D01*
X-12333763Y6136503D01*
X-12441982Y6165500D01*
X-12554018Y6165500D01*
X-12662237Y6136503D01*
X-12759263Y6080485D01*
X-12838485Y6001263D01*
X-12894503Y5904237D01*
X-12923500Y5796018D01*
X-15441648Y5796018D01*
X-15418630Y5851594D01*
X-15418629Y5851595D01*
X-14996119Y6871740D01*
X-14993651Y6877309D01*
X-14891723Y7092819D01*
X-14889616Y7097062D01*
X-14866785Y7140918D01*
X-10039300Y7140918D01*
X-10039300Y7028882D01*
X-10010303Y6920663D01*
X-9954285Y6823637D01*
X-9875063Y6744415D01*
X-9778037Y6688397D01*
X-9669818Y6659400D01*
X-9669817Y6659400D01*
X-9557782Y6659400D01*
X-9449563Y6688397D01*
X-9449560Y6688398D01*
X-9352540Y6744413D01*
X-9352534Y6744417D01*
X-9273317Y6823634D01*
X-9273313Y6823640D01*
X-9217298Y6920660D01*
X-9217297Y6920663D01*
X-9188300Y7028882D01*
X-9188300Y7140917D01*
X-9192666Y7157214D01*
X-9217297Y7249137D01*
X-9273315Y7346163D01*
X-9352537Y7425385D01*
X-9449563Y7481403D01*
X-9557782Y7510400D01*
X-9669818Y7510400D01*
X-9778037Y7481403D01*
X-9875063Y7425385D01*
X-9954285Y7346163D01*
X-10010303Y7249137D01*
X-10039300Y7140918D01*
X-14866785Y7140918D01*
X-14832744Y7206305D01*
X-14492422Y7860018D01*
X-5901500Y7860018D01*
X-5901500Y7747982D01*
X-5872503Y7639763D01*
X-5816485Y7542737D01*
X-5737263Y7463515D01*
X-5640237Y7407497D01*
X-5532018Y7378500D01*
X-5532017Y7378500D01*
X-5419982Y7378500D01*
X-5311763Y7407497D01*
X-5311760Y7407498D01*
X-5214740Y7463513D01*
X-5214734Y7463517D01*
X-5135517Y7542734D01*
X-5135513Y7542740D01*
X-5129175Y7553718D01*
X-1081800Y7553718D01*
X-1081800Y7441682D01*
X-1052803Y7333463D01*
X-996785Y7236437D01*
X-917563Y7157215D01*
X-820537Y7101197D01*
X-712318Y7072200D01*
X-712317Y7072200D01*
X-600282Y7072200D01*
X-492063Y7101197D01*
X-492060Y7101198D01*
X-395040Y7157213D01*
X-395038Y7157214D01*
X-341538Y7210714D01*
X-280214Y7244198D01*
X-210522Y7239213D01*
X-191859Y7230420D01*
X-165841Y7215399D01*
X-165839Y7215398D01*
X-165837Y7215397D01*
X-57618Y7186400D01*
X-57617Y7186400D01*
X54417Y7186400D01*
X54418Y7186400D01*
X162637Y7215397D01*
X162641Y7215399D01*
X199085Y7236440D01*
X259663Y7271415D01*
X338885Y7350637D01*
X394903Y7447663D01*
X423900Y7555882D01*
X423900Y7667918D01*
X394903Y7776137D01*
X338885Y7873163D01*
X259663Y7952385D01*
X162637Y8008403D01*
X54418Y8037400D01*
X-57618Y8037400D01*
X-165837Y8008403D01*
X-262863Y7952385D01*
X-316364Y7898883D01*
X-377683Y7865401D01*
X-447375Y7870385D01*
X-466042Y7879180D01*
X-492060Y7894201D01*
X-492063Y7894203D01*
X-600282Y7923200D01*
X-712318Y7923200D01*
X-820537Y7894203D01*
X-917563Y7838185D01*
X-996785Y7758963D01*
X-1052803Y7661937D01*
X-1081800Y7553718D01*
X-5129175Y7553718D01*
X-5088687Y7623845D01*
X-5079497Y7639762D01*
X-5079497Y7639763D01*
X-5050500Y7747982D01*
X-5050500Y7860017D01*
X-5051942Y7865401D01*
X-5079497Y7968237D01*
X-5135515Y8065263D01*
X-5214737Y8144485D01*
X-5311763Y8200503D01*
X-5419982Y8229500D01*
X-5532018Y8229500D01*
X-5640237Y8200503D01*
X-5737263Y8144485D01*
X-5816485Y8065263D01*
X-5872503Y7968237D01*
X-5901500Y7860018D01*
X-14492422Y7860018D01*
X-14458382Y7925405D01*
X-14316109Y8198692D01*
X-14312480Y8205180D01*
X-14226343Y8348892D01*
X-14224565Y8351769D01*
X-14003535Y8698718D01*
X-4751500Y8698718D01*
X-4751500Y8586682D01*
X-4722503Y8478463D01*
X-4666485Y8381437D01*
X-4587263Y8302215D01*
X-4490237Y8246197D01*
X-4382018Y8217200D01*
X-4382017Y8217200D01*
X-4269982Y8217200D01*
X-4161763Y8246197D01*
X-4161760Y8246198D01*
X-4064740Y8302213D01*
X-4064734Y8302217D01*
X-4027333Y8339618D01*
X-2481800Y8339618D01*
X-2481800Y8227582D01*
X-2452803Y8119363D01*
X-2396785Y8022337D01*
X-2317563Y7943115D01*
X-2286888Y7925405D01*
X-2232842Y7894201D01*
X-2220537Y7887097D01*
X-2112318Y7858100D01*
X-2112317Y7858100D01*
X-2000282Y7858100D01*
X-1892063Y7887097D01*
X-1892060Y7887098D01*
X-1795040Y7943113D01*
X-1795034Y7943117D01*
X-1715817Y8022334D01*
X-1715813Y8022340D01*
X-1659798Y8119360D01*
X-1659797Y8119363D01*
X-1630800Y8227582D01*
X-1630800Y8339617D01*
X-1642004Y8381434D01*
X-1659797Y8447837D01*
X-1670755Y8466816D01*
X-1670756Y8466817D01*
X9512000Y8466817D01*
X9512000Y8354782D01*
X9540997Y8246563D01*
X9540998Y8246560D01*
X9597013Y8149540D01*
X9597017Y8149534D01*
X9676234Y8070317D01*
X9676240Y8070313D01*
X9773260Y8014298D01*
X9773263Y8014297D01*
X9881482Y7985300D01*
X9993517Y7985300D01*
X9993518Y7985300D01*
X10101737Y8014297D01*
X10115658Y8022334D01*
X10141751Y8037399D01*
X10198763Y8070315D01*
X10277985Y8149537D01*
X10334003Y8246563D01*
X10363000Y8354782D01*
X10363000Y8466818D01*
X10352497Y8506017D01*
X12690800Y8506017D01*
X12690800Y8393982D01*
X12719797Y8285763D01*
X12719798Y8285760D01*
X12775813Y8188740D01*
X12775817Y8188734D01*
X12855034Y8109517D01*
X12855040Y8109513D01*
X12952060Y8053498D01*
X12952063Y8053497D01*
X13060282Y8024500D01*
X13172317Y8024500D01*
X13172318Y8024500D01*
X13280537Y8053497D01*
X13377563Y8109515D01*
X13456785Y8188737D01*
X13512803Y8285763D01*
X13541800Y8393982D01*
X13541800Y8506018D01*
X13512803Y8614237D01*
X13456785Y8711263D01*
X13377563Y8790485D01*
X13280537Y8846503D01*
X13172318Y8875500D01*
X13060282Y8875500D01*
X12952063Y8846503D01*
X12855037Y8790485D01*
X12775815Y8711263D01*
X12719797Y8614237D01*
X12701208Y8544859D01*
X12690800Y8506017D01*
X10352497Y8506017D01*
X10334003Y8575037D01*
X10277985Y8672063D01*
X10198763Y8751285D01*
X10198758Y8751287D01*
X10193606Y8756440D01*
X10160121Y8817763D01*
X10165105Y8887455D01*
X10206976Y8943389D01*
X10219286Y8951509D01*
X10247177Y8967612D01*
X10299663Y8997915D01*
X10378885Y9077137D01*
X10434903Y9174163D01*
X10463900Y9282382D01*
X10463900Y9394418D01*
X10434903Y9502637D01*
X10378885Y9599663D01*
X10299663Y9678885D01*
X10202637Y9734903D01*
X10094418Y9763900D01*
X9982382Y9763900D01*
X9874163Y9734903D01*
X9777137Y9678885D01*
X9697915Y9599663D01*
X9697913Y9599659D01*
X9649496Y9515798D01*
X9641897Y9502637D01*
X9616009Y9406019D01*
X9612900Y9394417D01*
X9612900Y9282382D01*
X9641897Y9174163D01*
X9641898Y9174160D01*
X9697913Y9077140D01*
X9697914Y9077138D01*
X9782294Y8992758D01*
X9815778Y8931434D01*
X9810794Y8861743D01*
X9768922Y8805809D01*
X9756612Y8797690D01*
X9676240Y8751287D01*
X9676237Y8751285D01*
X9597015Y8672063D01*
X9540997Y8575037D01*
X9512001Y8466819D01*
X9512000Y8466817D01*
X-1670756Y8466817D01*
X-1715813Y8544859D01*
X-1715815Y8544863D01*
X-1795037Y8624085D01*
X-1892063Y8680103D01*
X-2000282Y8709100D01*
X-2112318Y8709100D01*
X-2220537Y8680103D01*
X-2317563Y8624085D01*
X-2396785Y8544863D01*
X-2452803Y8447837D01*
X-2481800Y8339618D01*
X-4027333Y8339618D01*
X-3985517Y8381434D01*
X-3985515Y8381437D01*
X-3969171Y8409746D01*
X-3969169Y8409747D01*
X-3929498Y8478460D01*
X-3929497Y8478463D01*
X-3900500Y8586682D01*
X-3900500Y8698717D01*
X-3903860Y8711259D01*
X-3929497Y8806937D01*
X-3985515Y8903963D01*
X-4064737Y8983185D01*
X-4161763Y9039203D01*
X-4269982Y9068200D01*
X-4382018Y9068200D01*
X-4490237Y9039203D01*
X-4587263Y8983185D01*
X-4666485Y8903963D01*
X-4722503Y8806937D01*
X-4751500Y8698718D01*
X-14003535Y8698718D01*
X-13955913Y8773470D01*
X-13554379Y9403754D01*
X-13552900Y9406019D01*
X-13504021Y9479172D01*
X-13499294Y9485769D01*
X-13309417Y9733218D01*
X-11968300Y9733218D01*
X-11968300Y9621182D01*
X-11939303Y9512963D01*
X-11883285Y9415937D01*
X-11804063Y9336715D01*
X-11707037Y9280697D01*
X-11598818Y9251700D01*
X-11598817Y9251700D01*
X-11486782Y9251700D01*
X-11378563Y9280697D01*
X-11378560Y9280698D01*
X-11281540Y9336713D01*
X-11281534Y9336717D01*
X-11202317Y9415934D01*
X-11202313Y9415940D01*
X-11146298Y9512960D01*
X-11146297Y9512963D01*
X-11117300Y9621182D01*
X-11117300Y9733217D01*
X-11117751Y9734903D01*
X-11146297Y9841437D01*
X-11202315Y9938463D01*
X-11281537Y10017685D01*
X-11350876Y10057718D01*
X-6220800Y10057718D01*
X-6220800Y9945682D01*
X-6191803Y9837463D01*
X-6135785Y9740437D01*
X-6056563Y9661215D01*
X-5959537Y9605197D01*
X-5851318Y9576200D01*
X-5851317Y9576200D01*
X-5739282Y9576200D01*
X-5631063Y9605197D01*
X-5631060Y9605198D01*
X-5534040Y9661213D01*
X-5534034Y9661217D01*
X-5454817Y9740434D01*
X-5454813Y9740440D01*
X-5398798Y9837460D01*
X-5398797Y9837463D01*
X-5369800Y9945682D01*
X-5369800Y10057716D01*
X-5369800Y10057717D01*
X-5369800Y10057718D01*
X-5372586Y10068117D01*
X1566900Y10068117D01*
X1566900Y9956082D01*
X1595897Y9847863D01*
X1595898Y9847860D01*
X1651913Y9750840D01*
X1651917Y9750834D01*
X1731134Y9671617D01*
X1731140Y9671613D01*
X1828160Y9615598D01*
X1828163Y9615597D01*
X1936382Y9586600D01*
X2048417Y9586600D01*
X2048418Y9586600D01*
X2156637Y9615597D01*
X2253663Y9671615D01*
X2332885Y9750837D01*
X2351868Y9783717D01*
X3473300Y9783717D01*
X3473300Y9671682D01*
X3502297Y9563463D01*
X3502298Y9563460D01*
X3558316Y9466433D01*
X3563263Y9459987D01*
X3561123Y9458345D01*
X3588251Y9408639D01*
X3583251Y9338949D01*
X3574468Y9320312D01*
X3567498Y9308239D01*
X3567497Y9308237D01*
X3547360Y9233082D01*
X3538500Y9200017D01*
X3538500Y9087982D01*
X3567497Y8979763D01*
X3567498Y8979760D01*
X3623513Y8882740D01*
X3623517Y8882734D01*
X3702734Y8803517D01*
X3702740Y8803513D01*
X3799760Y8747498D01*
X3799763Y8747497D01*
X3907982Y8718500D01*
X4020017Y8718500D01*
X4020018Y8718500D01*
X4128237Y8747497D01*
X4134802Y8751287D01*
X4160579Y8766169D01*
X4225263Y8803515D01*
X4304485Y8882737D01*
X4342521Y8948617D01*
X7679900Y8948617D01*
X7679900Y8836582D01*
X7708897Y8728363D01*
X7708898Y8728360D01*
X7764913Y8631340D01*
X7764917Y8631334D01*
X7844134Y8552117D01*
X7844140Y8552113D01*
X7941160Y8496098D01*
X7941163Y8496097D01*
X8049382Y8467100D01*
X8161417Y8467100D01*
X8161418Y8467100D01*
X8269637Y8496097D01*
X8366663Y8552115D01*
X8445885Y8631337D01*
X8501903Y8728363D01*
X8530900Y8836582D01*
X8530900Y8948618D01*
X8501903Y9056837D01*
X8445885Y9153863D01*
X8366663Y9233085D01*
X8327990Y9255413D01*
X8279774Y9305980D01*
X8266552Y9374587D01*
X8292520Y9439452D01*
X8349434Y9479980D01*
X8389990Y9486800D01*
X8447617Y9486800D01*
X8447618Y9486800D01*
X8555837Y9515797D01*
X8652863Y9571815D01*
X8732085Y9651037D01*
X8788103Y9748063D01*
X8817100Y9856282D01*
X8817100Y9968318D01*
X8788103Y10076537D01*
X8732085Y10173563D01*
X8718743Y10186904D01*
X8685259Y10248223D01*
X8690242Y10317915D01*
X8732112Y10373849D01*
X8744423Y10381970D01*
X8759396Y10390615D01*
X8767363Y10395215D01*
X8846585Y10474437D01*
X8902603Y10571463D01*
X8931600Y10679682D01*
X8931600Y10791718D01*
X8902603Y10899937D01*
X8846585Y10996963D01*
X8767363Y11076185D01*
X8670337Y11132203D01*
X8562118Y11161200D01*
X8450082Y11161200D01*
X8341863Y11132203D01*
X8244837Y11076185D01*
X8165615Y10996963D01*
X8165613Y10996959D01*
X8109598Y10899939D01*
X8109597Y10899936D01*
X8080600Y10791717D01*
X8080600Y10679682D01*
X8109597Y10571463D01*
X8109598Y10571460D01*
X8165613Y10474440D01*
X8165615Y10474437D01*
X8178958Y10461094D01*
X8212441Y10399770D01*
X8207455Y10330078D01*
X8165582Y10274146D01*
X8153278Y10266030D01*
X8130337Y10252785D01*
X8051115Y10173563D01*
X7995097Y10076537D01*
X7971633Y9988965D01*
X7966100Y9968317D01*
X7966100Y9856282D01*
X7995097Y9748063D01*
X7995098Y9748060D01*
X8051113Y9651040D01*
X8051117Y9651034D01*
X8130334Y9571817D01*
X8130340Y9571813D01*
X8169010Y9549487D01*
X8217226Y9498920D01*
X8230448Y9430313D01*
X8204480Y9365448D01*
X8147566Y9324920D01*
X8107010Y9318100D01*
X8049382Y9318100D01*
X7941163Y9289103D01*
X7844137Y9233085D01*
X7764915Y9153863D01*
X7708897Y9056837D01*
X7688245Y8979760D01*
X7679900Y8948617D01*
X4342521Y8948617D01*
X4360503Y8979763D01*
X4389500Y9087982D01*
X4389500Y9200018D01*
X4360503Y9308237D01*
X4304485Y9405263D01*
X4304483Y9405264D01*
X4304482Y9405267D01*
X4299536Y9411714D01*
X4301682Y9413360D01*
X4274560Y9463004D01*
X4279528Y9532697D01*
X4288333Y9551391D01*
X4295302Y9563462D01*
X4295303Y9563463D01*
X4324300Y9671682D01*
X4324300Y9783718D01*
X4295303Y9891937D01*
X4239285Y9988963D01*
X4160063Y10068185D01*
X4063037Y10124203D01*
X3954818Y10153200D01*
X3842782Y10153200D01*
X3734563Y10124203D01*
X3637537Y10068185D01*
X3558315Y9988963D01*
X3502297Y9891937D01*
X3488766Y9841436D01*
X3473300Y9783717D01*
X2351868Y9783717D01*
X2388903Y9847863D01*
X2417900Y9956082D01*
X2417900Y10068118D01*
X2388903Y10176337D01*
X2343024Y10255800D01*
X2326552Y10323700D01*
X2349405Y10389727D01*
X2404326Y10432918D01*
X2450412Y10441800D01*
X2480817Y10441800D01*
X2480818Y10441800D01*
X2589037Y10470797D01*
X2595337Y10474434D01*
X2638369Y10499279D01*
X2686063Y10526815D01*
X2765285Y10606037D01*
X2821303Y10703063D01*
X2850300Y10811282D01*
X2850300Y10923318D01*
X2821303Y11031537D01*
X2765285Y11128563D01*
X2686063Y11207785D01*
X2589037Y11263803D01*
X2480818Y11292800D01*
X2368782Y11292800D01*
X2260563Y11263803D01*
X2163537Y11207785D01*
X2084315Y11128563D01*
X2028297Y11031537D01*
X2004981Y10944518D01*
X1999300Y10923317D01*
X1999300Y10811282D01*
X2028297Y10703063D01*
X2028298Y10703060D01*
X2074175Y10623600D01*
X2090648Y10555700D01*
X2067795Y10489673D01*
X2012874Y10446482D01*
X1966788Y10437600D01*
X1936382Y10437600D01*
X1828163Y10408603D01*
X1731137Y10352585D01*
X1651915Y10273363D01*
X1623267Y10223743D01*
X1601996Y10186900D01*
X1595897Y10176337D01*
X1568397Y10073703D01*
X1566900Y10068117D01*
X-5372586Y10068117D01*
X-5398797Y10165937D01*
X-5403198Y10173559D01*
X-5448939Y10252785D01*
X-5454815Y10262963D01*
X-5534037Y10342185D01*
X-5631063Y10398203D01*
X-5739282Y10427200D01*
X-5851318Y10427200D01*
X-5959537Y10398203D01*
X-6056563Y10342185D01*
X-6135785Y10262963D01*
X-6191803Y10165937D01*
X-6220800Y10057718D01*
X-11350876Y10057718D01*
X-11378563Y10073703D01*
X-11486782Y10102700D01*
X-11598818Y10102700D01*
X-11707037Y10073703D01*
X-11804063Y10017685D01*
X-11883285Y9938463D01*
X-11939303Y9841437D01*
X-11968300Y9733218D01*
X-13309417Y9733218D01*
X-13245257Y9816832D01*
X-12724028Y10496101D01*
X-12721506Y10499279D01*
X-12586457Y10663836D01*
X-12582031Y10668939D01*
X-12329537Y10944517D01*
X454100Y10944517D01*
X454100Y10832482D01*
X483097Y10724263D01*
X483098Y10724260D01*
X539113Y10627240D01*
X539117Y10627234D01*
X618334Y10548017D01*
X618340Y10548013D01*
X715360Y10491998D01*
X715363Y10491997D01*
X823582Y10463000D01*
X935617Y10463000D01*
X935618Y10463000D01*
X1043837Y10491997D01*
X1050946Y10496101D01*
X1104140Y10526813D01*
X1140863Y10548015D01*
X1220085Y10627237D01*
X1276103Y10724263D01*
X1305100Y10832482D01*
X1305100Y10944518D01*
X1276103Y11052737D01*
X1220085Y11149763D01*
X1140863Y11228985D01*
X1043837Y11285003D01*
X935618Y11314000D01*
X823582Y11314000D01*
X715363Y11285003D01*
X618337Y11228985D01*
X539115Y11149763D01*
X483097Y11052737D01*
X468152Y10996959D01*
X454100Y10944517D01*
X-12329537Y10944517D01*
X-12245339Y11036413D01*
X-11754563Y11572057D01*
X-11750817Y11575970D01*
X-11575970Y11750817D01*
X-11572057Y11754563D01*
X-10699295Y12554218D01*
X-6165500Y12554218D01*
X-6165500Y12442182D01*
X-6136503Y12333963D01*
X-6080485Y12236937D01*
X-6001263Y12157715D01*
X-5904237Y12101697D01*
X-5796018Y12072700D01*
X-5796017Y12072700D01*
X-5683982Y12072700D01*
X-5575763Y12101697D01*
X-5575760Y12101698D01*
X-5478740Y12157713D01*
X-5478734Y12157717D01*
X-5399517Y12236934D01*
X-5399513Y12236940D01*
X-5343498Y12333960D01*
X-5343497Y12333963D01*
X-5314500Y12442182D01*
X-5314500Y12548517D01*
X724500Y12548517D01*
X724500Y12436482D01*
X753497Y12328263D01*
X753498Y12328260D01*
X809513Y12231240D01*
X809517Y12231234D01*
X888734Y12152017D01*
X888740Y12152013D01*
X985760Y12095998D01*
X985763Y12095997D01*
X1093982Y12067000D01*
X1206017Y12067000D01*
X1206018Y12067000D01*
X1314237Y12095997D01*
X1324112Y12101698D01*
X1346579Y12114669D01*
X1411263Y12152015D01*
X1490485Y12231237D01*
X1546503Y12328263D01*
X1575500Y12436482D01*
X1575500Y12546617D01*
X3924500Y12546617D01*
X3924500Y12434582D01*
X3953497Y12326363D01*
X3953498Y12326360D01*
X4009513Y12229340D01*
X4009517Y12229334D01*
X4088734Y12150117D01*
X4088740Y12150113D01*
X4185760Y12094098D01*
X4185763Y12094097D01*
X4293982Y12065100D01*
X4406017Y12065100D01*
X4406018Y12065100D01*
X4514237Y12094097D01*
X4524112Y12099798D01*
X4546579Y12112769D01*
X4611263Y12150115D01*
X4690485Y12229337D01*
X4746503Y12326363D01*
X4775500Y12434582D01*
X4775500Y12546618D01*
X4746503Y12654837D01*
X4744956Y12657517D01*
X6214900Y12657517D01*
X6214900Y12545482D01*
X6243897Y12437263D01*
X6243898Y12437260D01*
X6299913Y12340240D01*
X6299917Y12340234D01*
X6379134Y12261017D01*
X6379140Y12261013D01*
X6476160Y12204998D01*
X6476163Y12204997D01*
X6584382Y12176000D01*
X6696417Y12176000D01*
X6696418Y12176000D01*
X6804637Y12204997D01*
X6901663Y12261015D01*
X6980885Y12340237D01*
X6986632Y12345984D01*
X6988813Y12343802D01*
X7033412Y12376385D01*
X7103157Y12380557D01*
X7164086Y12346360D01*
X7182776Y12321707D01*
X7232815Y12235037D01*
X7232817Y12235034D01*
X7312034Y12155817D01*
X7312040Y12155813D01*
X7409060Y12099798D01*
X7409063Y12099797D01*
X7517282Y12070800D01*
X7629317Y12070800D01*
X7629318Y12070800D01*
X7737537Y12099797D01*
X7834563Y12155815D01*
X7913785Y12235037D01*
X7969803Y12332063D01*
X7998800Y12440282D01*
X7998800Y12552318D01*
X7969803Y12660537D01*
X7913785Y12757563D01*
X7834563Y12836785D01*
X7737537Y12892803D01*
X7629318Y12921800D01*
X7517282Y12921800D01*
X7409063Y12892803D01*
X7312037Y12836785D01*
X7312034Y12836782D01*
X7227068Y12751816D01*
X7224888Y12753995D01*
X7180275Y12721410D01*
X7110530Y12717245D01*
X7049604Y12751448D01*
X7030927Y12776086D01*
X6980885Y12862763D01*
X6901663Y12941985D01*
X6804637Y12998003D01*
X6696418Y13027000D01*
X6584382Y13027000D01*
X6476163Y12998003D01*
X6379137Y12941985D01*
X6299915Y12862763D01*
X6243897Y12765737D01*
X6215710Y12660539D01*
X6214900Y12657517D01*
X4744956Y12657517D01*
X4690485Y12751863D01*
X4611263Y12831085D01*
X4514237Y12887103D01*
X4406018Y12916100D01*
X4293982Y12916100D01*
X4185763Y12887103D01*
X4088737Y12831085D01*
X4009515Y12751863D01*
X3953497Y12654837D01*
X3926028Y12552318D01*
X3924500Y12546617D01*
X1575500Y12546617D01*
X1575500Y12548518D01*
X1546503Y12656737D01*
X1490485Y12753763D01*
X1411263Y12832985D01*
X1314237Y12889003D01*
X1206018Y12918000D01*
X1093982Y12918000D01*
X985763Y12889003D01*
X888737Y12832985D01*
X809515Y12753763D01*
X790836Y12721410D01*
X754341Y12658198D01*
X753497Y12656737D01*
X726028Y12554218D01*
X724500Y12548517D01*
X-5314500Y12548517D01*
X-5314500Y12554217D01*
X-5321952Y12582031D01*
X-5343497Y12662437D01*
X-5399515Y12759463D01*
X-5478737Y12838685D01*
X-5575763Y12894703D01*
X-5683982Y12923700D01*
X-5796018Y12923700D01*
X-5904237Y12894703D01*
X-6001263Y12838685D01*
X-6080485Y12759463D01*
X-6136503Y12662437D01*
X-6165500Y12554218D01*
X-10699295Y12554218D01*
X-10668939Y12582031D01*
X-10663836Y12586457D01*
X-10576420Y12658198D01*
X-10499279Y12721506D01*
X-10496101Y12724028D01*
X-9485769Y13499294D01*
X-9479172Y13504021D01*
X-9406019Y13552900D01*
X-9403754Y13554379D01*
X-8378057Y14207818D01*
X-1509100Y14207818D01*
X-1509100Y14095782D01*
X-1480103Y13987563D01*
X-1424085Y13890537D01*
X-1344863Y13811315D01*
X-1247837Y13755297D01*
X-1139618Y13726300D01*
X-1139617Y13726300D01*
X-1027582Y13726300D01*
X-919363Y13755297D01*
X-919360Y13755298D01*
X-822340Y13811313D01*
X-822334Y13811317D01*
X-743117Y13890534D01*
X-743113Y13890540D01*
X-687098Y13987560D01*
X-687097Y13987563D01*
X-658100Y14095782D01*
X-658100Y14207817D01*
X-662587Y14224565D01*
X-687097Y14316037D01*
X-687139Y14316109D01*
X-743113Y14413059D01*
X-743115Y14413063D01*
X-822337Y14492285D01*
X-919363Y14548303D01*
X-1027582Y14577300D01*
X-1139618Y14577300D01*
X-1247837Y14548303D01*
X-1344863Y14492285D01*
X-1424085Y14413063D01*
X-1480103Y14316037D01*
X-1509100Y14207818D01*
X-8378057Y14207818D01*
X-8351769Y14224565D01*
X-8348892Y14226343D01*
X-8205180Y14312480D01*
X-8198691Y14316109D01*
X-8179822Y14325931D01*
X-8179821Y14325933D01*
X-7097062Y14889616D01*
X-7092819Y14891723D01*
X-6877309Y14993651D01*
X-6871740Y14996119D01*
X-5743838Y15463259D01*
X-5738165Y15465447D01*
X-5515804Y15545010D01*
X-5511321Y15546518D01*
X-4326204Y15920233D01*
X-4319042Y15922258D01*
X-4154840Y15963389D01*
X-4151545Y15964167D01*
X-2934494Y16233939D01*
X-2931850Y16234494D01*
X-2846178Y16251535D01*
X-2838174Y16252857D01*
X-1575753Y16419074D01*
X-1571721Y16419538D01*
X-1359388Y16440452D01*
X-1352643Y16440931D01*
X-127940Y16494413D01*
X-122530Y16494531D01*
X122530Y16494531D01*
X127940Y16494413D01*
G37*
%TD.AperFunction*%
%TD*%
M02*
